<svg width="24.000000" height="24.000000" viewBox="0 0 24 24" fill="none" xmlns="http://www.w3.org/2000/svg" xmlns:xlink="http://www.w3.org/1999/xlink">
	<desc>
			Created with Pixso.
	</desc>
	<defs>
		<clipPath id="clip28_718">
			<rect width="24.000000" height="24.000000" fill="white" fill-opacity="0"/>
		</clipPath>
		<clipPath id="clip28_680">
			<rect width="24.000000" height="24.000000" fill="white" fill-opacity="0"/>
		</clipPath>
	</defs>
	<g clip-path="url(#clip28_680)">
		<g clip-path="url(#clip28_718)">
			<path d="M18.75 21.75L5.24 21.75C4 21.75 2.99 20.74 2.99 19.5L2.99 4.5C2.99 3.26 4 2.25 5.24 2.25L18.74 2.25C19.98 2.25 20.99 3.26 20.99 4.5L20.99 19.5C21 20.73 19.98 21.75 18.75 21.75ZM5.24 3.74C4.83 3.74 4.49 4.08 4.49 4.49L4.49 19.49C4.49 19.91 4.83 20.24 5.24 20.24L18.74 20.24C19.16 20.24 19.49 19.91 19.49 19.49L19.49 4.49C19.49 4.08 19.16 3.74 18.74 3.74L5.24 3.74Z" fill="#575B66" fill-opacity="1.000000" fill-rule="nonzero"/>
			<path d="M15.02 12.76L6.74 12.76C6.32 12.76 5.99 12.43 5.99 12.01C5.99 11.6 6.32 11.26 6.74 11.26L15.02 11.26C15.43 11.26 15.77 11.6 15.77 12.01C15.77 12.43 15.43 12.76 15.02 12.76Z" fill="#575B66" fill-opacity="1.000000" fill-rule="nonzero"/>
			<path d="M17.22 17.23L6.74 17.23C6.32 17.23 5.99 16.9 5.99 16.48C5.99 16.07 6.32 15.73 6.74 15.73L17.22 15.73C17.63 15.73 17.97 16.07 17.97 16.48C17.97 16.9 17.63 17.23 17.22 17.23Z" fill="#575B66" fill-opacity="1.000000" fill-rule="nonzero"/>
			<path d="M5.99 7.15C5.99 7.77 6.49 8.28 7.11 8.28C7.74 8.28 8.24 7.77 8.24 7.15C8.24 6.53 7.74 6.03 7.11 6.03C6.49 6.03 5.99 6.53 5.99 7.15Z" fill="#575B66" fill-opacity="1.000000" fill-rule="nonzero"/>
			<path d="M10.85 7.15C10.85 7.77 11.35 8.28 11.97 8.28C12.59 8.28 13.1 7.77 13.1 7.15C13.1 6.53 12.59 6.03 11.97 6.03C11.35 6.03 10.85 6.53 10.85 7.15Z" fill="#575B66" fill-opacity="1.000000" fill-rule="nonzero"/>
			<path d="M15.73 7.15C15.73 7.77 16.23 8.28 16.85 8.28C17.47 8.28 17.98 7.77 17.98 7.15C17.98 6.53 17.47 6.03 16.85 6.03C16.23 6.03 15.73 6.53 15.73 7.15Z" fill="#575B66" fill-opacity="1.000000" fill-rule="nonzero"/>
		</g>
	</g>
</svg>
