<svg width="24.000000" height="24.000000" viewBox="0 0 24 24" fill="none" xmlns="http://www.w3.org/2000/svg" xmlns:xlink="http://www.w3.org/1999/xlink">
	<desc>
			Created with Pixso.
	</desc>
	<defs>
		<clipPath id="clip128_1695">
			<rect id="svg" width="24.000000" height="24.000000" fill="white" fill-opacity="0"/>
		</clipPath>
	</defs>
	<g clip-path="url(#clip128_1695)">
		<path id="减去顶层" d="M5 3L19 3C20.1046 3 21 3.89551 21 5L21 20C21 21.1045 20.1046 22 19 22L5 22C3.89542 22 3 21.1045 3 20L3 5C3 3.89551 3.89542 3 5 3ZM7 5.5C6.44772 5.5 6 5.94775 6 6.5C6 7.05225 6.44772 7.5 7 7.5C7.55228 7.5 8 7.05225 8 6.5C8 5.94775 7.55228 5.5 7 5.5ZM11 6.5C11 5.94775 11.4477 5.5 12 5.5C12.5523 5.5 13 5.94775 13 6.5C13 7.05225 12.5523 7.5 12 7.5C11.4477 7.5 11 7.05225 11 6.5ZM17 5.5C16.4477 5.5 16 5.94775 16 6.5C16 7.05225 16.4477 7.5 17 7.5C17.5523 7.5 18 7.05225 18 6.5C18 5.94775 17.5523 5.5 17 5.5ZM6.5 11.5C6.22385 11.5 6 11.7239 6 12C6 12.2761 6.22385 12.5 6.5 12.5L15.5 12.5C15.7762 12.5 16 12.2761 16 12C16 11.7239 15.7762 11.5 15.5 11.5L6.5 11.5ZM6.5 15.5L18.5 15.5C18.7762 15.5 19 15.7239 19 16C19 16.2761 18.7762 16.5 18.5 16.5L6.5 16.5C6.22385 16.5 6 16.2761 6 16C6 15.7239 6.22385 15.5 6.5 15.5Z" clip-rule="evenodd" fill="#603C00" fill-opacity="1.000000" fill-rule="evenodd"/>
	</g>
</svg>
