<svg width="24.000000" height="24.000000" viewBox="0 0 24 24" fill="none" xmlns="http://www.w3.org/2000/svg" xmlns:xlink="http://www.w3.org/1999/xlink">
	<desc>
			Created with Pixso.
	</desc>
	<defs>
		<clipPath id="clip28_725">
			<rect width="24.000000" height="24.000000" fill="white" fill-opacity="0"/>
		</clipPath>
	</defs>
	<g clip-path="url(#clip28_725)">
		<path d="M13.13 2.41C13.06 2.34 12.98 2.29 12.89 2.23C12.81 2.18 12.72 2.14 12.63 2.1C12.54 2.07 12.44 2.04 12.35 2.02C12.25 2 12.15 2 12.05 2C11.95 2 11.86 2 11.76 2.02C11.66 2.04 11.57 2.07 11.47 2.1C11.38 2.14 11.29 2.18 11.21 2.23C11.13 2.29 11.05 2.34 10.97 2.41L2.26 10.69C2.22 10.72 2.19 10.76 2.15 10.8C2.12 10.85 2.1 10.89 2.07 10.94C2.05 10.99 2.03 11.03 2.02 11.09C2.01 11.14 2 11.19 2 11.24C1.99 11.29 2 11.35 2 11.4C2.01 11.45 2.02 11.5 2.04 11.55C2.06 11.6 2.08 11.65 2.11 11.69C2.14 11.74 2.17 11.78 2.2 11.82C2.24 11.86 2.28 11.9 2.32 11.93C2.36 11.96 2.41 11.99 2.45 12.01C2.5 12.03 2.55 12.05 2.6 12.06C2.65 12.08 2.7 12.08 2.76 12.09C2.81 12.09 2.86 12.09 2.91 12.08C2.97 12.07 3.02 12.06 3.07 12.04C3.12 12.02 3.16 12 3.21 11.97C3.26 11.95 3.3 11.92 3.34 11.88L3.48 11.75L3.48 20.39C3.48 20.44 3.48 20.49 3.48 20.54C3.49 20.6 3.5 20.65 3.51 20.7C3.52 20.75 3.53 20.8 3.54 20.85C3.56 20.9 3.58 20.95 3.6 21C3.62 21.05 3.64 21.1 3.66 21.14C3.69 21.19 3.72 21.24 3.75 21.28C3.77 21.32 3.81 21.37 3.84 21.41C3.87 21.45 3.91 21.49 3.95 21.52C3.98 21.56 4.02 21.6 4.06 21.63C4.1 21.66 4.15 21.69 4.19 21.72C4.23 21.75 4.28 21.78 4.32 21.81C4.37 21.83 4.42 21.85 4.47 21.87C4.52 21.89 4.57 21.91 4.62 21.93C4.67 21.94 4.72 21.95 4.77 21.96C4.82 21.97 4.87 21.98 4.93 21.99C4.98 21.99 5.03 22 5.08 22L9.76 22L9.76 17.15C9.76 17.08 9.77 17.01 9.78 16.93C9.8 16.86 9.82 16.79 9.85 16.72C9.88 16.65 9.91 16.59 9.95 16.52C9.99 16.46 10.04 16.41 10.09 16.35C10.15 16.3 10.2 16.25 10.27 16.21C10.33 16.17 10.39 16.14 10.46 16.11C10.53 16.08 10.6 16.06 10.67 16.04C10.75 16.03 10.82 16.02 10.89 16.02L13.1 16.02C13.17 16.02 13.24 16.03 13.32 16.04C13.39 16.06 13.46 16.08 13.53 16.11C13.6 16.14 13.66 16.17 13.73 16.21C13.79 16.25 13.85 16.3 13.9 16.35C13.95 16.41 14 16.46 14.04 16.52C14.08 16.59 14.11 16.65 14.14 16.72C14.17 16.79 14.19 16.86 14.21 16.93C14.22 17.01 14.23 17.08 14.23 17.15L14.23 22L19.02 22C19.07 22 19.12 21.99 19.18 21.99C19.23 21.98 19.28 21.97 19.33 21.96C19.38 21.95 19.44 21.94 19.49 21.93C19.54 21.91 19.59 21.89 19.63 21.87C19.68 21.85 19.73 21.83 19.78 21.81C19.82 21.78 19.87 21.75 19.91 21.72C19.96 21.69 20 21.66 20.04 21.63C20.08 21.6 20.12 21.56 20.16 21.52C20.19 21.49 20.23 21.45 20.26 21.41C20.3 21.37 20.33 21.32 20.36 21.28C20.39 21.24 20.41 21.19 20.44 21.14C20.46 21.1 20.48 21.05 20.51 21C20.53 20.95 20.54 20.9 20.56 20.85C20.57 20.8 20.59 20.75 20.6 20.7C20.61 20.65 20.61 20.6 20.62 20.54C20.62 20.49 20.63 20.44 20.63 20.39L20.63 11.85C20.98 12.18 21.49 12.15 21.79 11.82C21.82 11.78 21.85 11.74 21.88 11.69C21.91 11.65 21.93 11.6 21.95 11.55C21.97 11.5 21.98 11.45 21.99 11.4C21.99 11.35 22 11.29 21.99 11.24C21.99 11.19 21.98 11.14 21.97 11.09C21.96 11.03 21.94 10.99 21.92 10.94C21.89 10.89 21.87 10.85 21.84 10.8C21.8 10.76 21.77 10.72 21.73 10.69L13.13 2.41Z" fill="#603C00" fill-opacity="1.000000" fill-rule="nonzero"/>
	</g>
</svg>
