<svg width="16.958374" height="17.875000" viewBox="0 0 16.9584 17.875" fill="none" xmlns="http://www.w3.org/2000/svg" xmlns:xlink="http://www.w3.org/1999/xlink">
	<desc>
			Created with Pixso.
	</desc>
	<defs/>
	<path id="path" d="M8.47 0C11.89 0 14.66 2.77 14.66 6.18C14.66 7.63 14.16 8.99 13.28 10.08L13.22 10.15L13.31 10.21C13.58 10.4 13.83 10.6 14.08 10.82C14.32 11.03 14.55 11.26 14.77 11.5C14.99 11.75 15.2 12 15.38 12.27C15.57 12.53 15.75 12.81 15.9 13.1C16.06 13.38 16.2 13.68 16.33 13.98C16.45 14.28 16.55 14.59 16.64 14.9C16.73 15.22 16.8 15.54 16.85 15.86C16.9 16.18 16.93 16.5 16.95 16.83L16.95 17L16.95 17.18C16.95 17.22 16.95 17.27 16.94 17.31C16.93 17.35 16.92 17.4 16.9 17.44C16.89 17.48 16.87 17.52 16.84 17.56C16.82 17.6 16.79 17.63 16.75 17.67C16.72 17.7 16.69 17.73 16.65 17.75C16.61 17.78 16.57 17.8 16.53 17.82C16.49 17.83 16.45 17.85 16.4 17.86C16.36 17.87 16.31 17.87 16.27 17.87L0.68 17.87C0.64 17.87 0.59 17.87 0.55 17.86C0.5 17.85 0.46 17.83 0.42 17.82C0.38 17.8 0.34 17.78 0.3 17.75C0.26 17.73 0.23 17.7 0.2 17.67C0.16 17.64 0.14 17.6 0.11 17.56C0.09 17.53 0.06 17.49 0.05 17.45C0.03 17.4 0.02 17.36 0.01 17.32C0 17.27 0 17.23 0 17.18C0 14.36 1.39 11.78 3.64 10.22L3.73 10.15L3.67 10.08C3.45 9.82 3.26 9.54 3.1 9.25C2.93 8.95 2.79 8.65 2.67 8.33C2.55 8.02 2.46 7.69 2.4 7.36C2.33 7.03 2.3 6.69 2.29 6.36L2.29 6.18C2.29 2.77 5.06 0 8.47 0Z" fill="#603C00" fill-opacity="1.000000" fill-rule="nonzero"/>
</svg>
