<svg width="24.000000" height="24.000000" viewBox="0 0 24 24" fill="none" xmlns="http://www.w3.org/2000/svg" xmlns:xlink="http://www.w3.org/1999/xlink">
	<desc>
			Created with Pixso.
	</desc>
	<defs/>
	<rect rx="12.000000" width="24.000000" height="24.000000" fill="#E84026" fill-opacity="1.000000"/>
	<mask id="mask117_10342" mask-type="alpha" maskUnits="userSpaceOnUse" x="4.800049" y="9.149902" width="14.399902" height="10.049805">
		<path d="M19.2 9.14L4.8 9.14L4.8 19.19L19.2 19.19L19.2 9.14Z" fill="#C4C4C4" fill-opacity="1.000000" fill-rule="evenodd"/>
	</mask>
	<g mask="url(#mask117_10342)">
		<path d="M17.08 16.98L17.88 7.43L6.11 7.43L6.91 16.98C6.92 17.14 6.95 17.29 6.99 17.43C7.03 17.56 7.07 17.68 7.13 17.8C7.19 17.92 7.26 18.03 7.34 18.13C7.42 18.25 7.52 18.35 7.62 18.45C7.73 18.55 7.85 18.64 7.97 18.71C8.08 18.78 8.19 18.84 8.32 18.89C8.44 18.94 8.57 18.97 8.69 19C8.84 19.03 8.99 19.04 9.15 19.04L14.84 19.04C14.99 19.04 15.15 19.03 15.29 19C15.42 18.97 15.55 18.94 15.67 18.89C15.79 18.84 15.91 18.78 16.02 18.71C16.14 18.64 16.26 18.55 16.36 18.45C16.47 18.35 16.57 18.25 16.65 18.13C16.73 18.03 16.8 17.92 16.85 17.8C16.91 17.68 16.96 17.56 17 17.43C17.04 17.29 17.07 17.14 17.08 16.98ZM16.91 8.33L16.18 16.91C16.18 17 16.16 17.1 16.13 17.19C16.11 17.26 16.08 17.33 16.05 17.4C16.01 17.46 15.98 17.53 15.93 17.59C15.88 17.66 15.82 17.73 15.75 17.79C15.69 17.85 15.62 17.9 15.54 17.95C15.48 17.99 15.41 18.02 15.34 18.05C15.27 18.08 15.2 18.1 15.13 18.11C15.03 18.13 14.94 18.14 14.84 18.14L9.15 18.14C9.05 18.14 8.95 18.13 8.86 18.11C8.79 18.1 8.72 18.08 8.65 18.05C8.58 18.02 8.51 17.99 8.44 17.95C8.37 17.9 8.3 17.85 8.23 17.79C8.17 17.73 8.11 17.66 8.06 17.59C8.01 17.53 7.97 17.46 7.94 17.4C7.91 17.33 7.88 17.26 7.86 17.19C7.83 17.1 7.81 17 7.8 16.91L7.08 8.33L16.91 8.33Z" fill="#FFFFFF" fill-opacity="1.000000" fill-rule="evenodd"/>
	</g>
	<path d="M10.95 11.25L10.95 16.52C10.95 16.78 10.75 16.98 10.5 16.98C10.24 16.98 10.05 16.78 10.05 16.52L10.05 11.25C10.05 10.99 10.24 10.79 10.5 10.79C10.75 10.79 10.95 10.99 10.95 11.25ZM13.95 11.25C13.95 10.99 13.75 10.79 13.5 10.79C13.24 10.79 13.05 10.99 13.05 11.25L13.05 16.52C13.05 16.78 13.24 16.98 13.5 16.98C13.75 16.98 13.95 16.78 13.95 16.52L13.95 11.25Z" fill="#FFFFFF" fill-opacity="1.000000" fill-rule="evenodd"/>
	<path d="M8.65 7.35L5.39 7.35C5.14 7.35 4.94 7.55 4.94 7.8C4.94 8.06 5.14 8.25 5.39 8.25L8.96 8.25C9.05 8.25 9.14 8.23 9.22 8.17C9.29 8.12 9.35 8.05 9.38 7.96L9.99 6.33C10.02 6.26 10.06 6.19 10.1 6.13C10.15 6.07 10.2 6.02 10.27 5.98C10.33 5.94 10.39 5.9 10.46 5.88C10.54 5.86 10.61 5.85 10.69 5.85L13.23 5.85C13.31 5.85 13.39 5.86 13.46 5.88C13.53 5.9 13.59 5.94 13.65 5.98C13.72 6.02 13.77 6.07 13.82 6.13C13.86 6.19 13.9 6.26 13.93 6.33L14.54 7.96C14.57 8.05 14.63 8.12 14.7 8.17C14.78 8.23 14.87 8.25 14.96 8.25L18.59 8.25C18.85 8.25 19.04 8.06 19.04 7.8C19.04 7.55 18.85 7.35 18.59 7.35L15.27 7.35L14.77 6.02C14.74 5.93 14.7 5.85 14.65 5.77C14.62 5.7 14.57 5.64 14.53 5.58C14.48 5.51 14.42 5.45 14.36 5.4C14.3 5.34 14.24 5.29 14.17 5.24C14.1 5.19 14.03 5.15 13.96 5.11C13.88 5.08 13.81 5.05 13.73 5.02C13.65 5 13.58 4.98 13.5 4.97C13.41 4.95 13.32 4.95 13.23 4.95L10.69 4.95C10.6 4.95 10.51 4.95 10.42 4.97C10.34 4.98 10.27 5 10.2 5.02C10.12 5.05 10.04 5.08 9.97 5.11C9.89 5.15 9.82 5.19 9.75 5.24C9.68 5.29 9.62 5.34 9.56 5.39C9.5 5.45 9.45 5.51 9.39 5.58C9.35 5.63 9.31 5.69 9.28 5.75C9.22 5.83 9.18 5.92 9.15 6.02L8.65 7.35Z" fill="#FFFFFF" fill-opacity="1.000000" fill-rule="evenodd"/>
</svg>
