<svg width="24.000000" height="24.000000" viewBox="0 0 24 24" fill="none" xmlns="http://www.w3.org/2000/svg" xmlns:xlink="http://www.w3.org/1999/xlink">
	<desc>
			Created with Pixso.
	</desc>
	<defs>
		<clipPath id="clip44_4748">
			<rect width="24.000000" height="24.000000" fill="white" fill-opacity="0"/>
		</clipPath>
	</defs>
	<g clip-path="url(#clip44_4748)">
		<path d="M20.72 8.85C20.59 7.39 20.13 6.06 19.34 4.87C18.55 3.66 17.52 2.72 16.25 2.02C14.98 1.33 13.6 0.97 12.13 0.97C10.58 0.97 9.15 1.33 7.85 2.02C6.54 2.72 5.49 3.66 4.68 4.87C3.87 6.06 3.4 7.39 3.27 8.85C2.68 9.02 2.2 9.34 1.81 9.83C1.42 10.31 1.23 10.87 1.23 11.5L1.23 13.98C1.23 14.48 1.36 14.95 1.61 15.37C1.86 15.79 2.19 16.13 2.61 16.37C3.04 16.62 3.5 16.75 3.99 16.75C4.49 16.75 4.95 16.62 5.36 16.37C5.78 16.13 6.11 15.79 6.36 15.37C6.61 14.95 6.73 14.48 6.73 13.98L6.73 11.5C6.73 10.88 6.55 10.33 6.19 9.85C5.83 9.37 5.36 9.05 4.79 8.87C4.9 7.69 5.29 6.61 5.96 5.64C6.63 4.66 7.51 3.89 8.59 3.33C9.67 2.77 10.85 2.5 12.13 2.5C13.33 2.5 14.45 2.77 15.49 3.33C16.53 3.89 17.38 4.66 18.05 5.64C18.71 6.61 19.1 7.69 19.23 8.87C18.66 9.05 18.19 9.37 17.82 9.85C17.45 10.33 17.27 10.88 17.27 11.5L17.27 13.98C17.27 14.58 17.44 15.11 17.77 15.58C18.1 16.06 18.54 16.38 19.09 16.56C18.88 17.79 18.52 18.67 17.99 19.2C17.46 19.72 16.83 20.02 16.11 20.1C15.95 19.7 15.69 19.38 15.33 19.12C14.97 18.87 14.58 18.73 14.15 18.73C13.76 18.73 13.41 18.83 13.08 19.02C12.75 19.22 12.49 19.48 12.3 19.81C12.11 20.13 12.01 20.49 12.01 20.87C12.01 21.26 12.11 21.62 12.3 21.95C12.49 22.27 12.75 22.53 13.08 22.73C13.41 22.92 13.76 23.02 14.15 23.02C14.6 23.02 15 22.88 15.36 22.62C15.72 22.35 15.98 22.01 16.14 21.6C17.23 21.5 18.17 21.08 18.98 20.33C19.79 19.57 20.32 18.36 20.58 16.7C21.2 16.57 21.72 16.25 22.14 15.75C22.55 15.25 22.76 14.66 22.76 13.98L22.76 11.5C22.76 10.87 22.57 10.31 22.19 9.83C21.8 9.34 21.31 9.02 20.72 8.85ZM5.24 13.98C5.24 14.34 5.12 14.64 4.88 14.87C4.64 15.12 4.34 15.23 3.99 15.23C3.64 15.23 3.35 15.12 3.11 14.87C2.87 14.64 2.75 14.34 2.75 13.98L2.75 11.5C2.75 11.14 2.87 10.85 3.11 10.6C3.35 10.37 3.64 10.25 3.99 10.25C4.34 10.25 4.64 10.37 4.88 10.6C5.12 10.85 5.24 11.14 5.24 11.5L5.24 13.98ZM14.15 21.5C13.97 21.5 13.82 21.43 13.7 21.31C13.58 21.2 13.52 21.05 13.52 20.87C13.52 20.7 13.58 20.56 13.7 20.43C13.82 20.31 13.97 20.25 14.15 20.25C14.32 20.25 14.47 20.31 14.59 20.43C14.71 20.56 14.77 20.7 14.77 20.87C14.77 21.05 14.71 21.2 14.59 21.31C14.47 21.43 14.32 21.5 14.15 21.5ZM21.27 13.98C21.27 14.34 21.15 14.64 20.91 14.87C20.67 15.12 20.38 15.23 20.03 15.23C19.68 15.23 19.38 15.12 19.14 14.87C18.9 14.64 18.78 14.34 18.78 13.98L18.78 11.5C18.78 11.14 18.9 10.85 19.14 10.6C19.38 10.37 19.68 10.25 20.03 10.25C20.38 10.25 20.67 10.37 20.91 10.6C21.15 10.85 21.27 11.14 21.27 11.5L21.27 13.98Z" fill="#000000" fill-opacity="1.000000" fill-rule="nonzero"/>
	</g>
</svg>
