<?xml version="1.0" standalone="no"?><!DOCTYPE svg PUBLIC "-//W3C//DTD SVG 1.1//EN" "http://www.w3.org/Graphics/SVG/1.1/DTD/svg11.dtd"><svg t="1747641642797" class="icon" viewBox="0 0 1024 1024" version="1.1" xmlns="http://www.w3.org/2000/svg" p-id="3020" width="18" height="18" xmlns:xlink="http://www.w3.org/1999/xlink"><path d="M585.28 517.376l339.392-339.392a48.32 48.32 0 0 0 0-67.84 47.872 47.872 0 0 0-67.84 0L517.312 449.536 177.984 110.08a48.32 48.32 0 0 0-67.84 0 47.872 47.872 0 0 0 0 67.84l339.392 339.392-339.392 339.392a48.32 48.32 0 0 0 0 67.904 47.872 47.872 0 0 0 67.84 0l339.392-339.392 339.392 339.392a48.32 48.32 0 0 0 67.904 0 47.872 47.872 0 0 0 0-67.84L585.28 517.312z" fill="#030303" p-id="3021"></path></svg>