<svg width="9.554199" height="14.050293" viewBox="0 0 9.5542 14.0503" fill="none" xmlns="http://www.w3.org/2000/svg" xmlns:xlink="http://www.w3.org/1999/xlink">
	<desc>
			Created with Pixso.
	</desc>
	<defs/>
	<path id="path" d="M4.77 0C2.13 0 0 2.13 0 4.77C0 6.51 0.92 8.03 2.31 8.87L4.21 13.48C4.21 13.79 4.46 14.05 4.77 14.05C5.08 14.05 5.33 13.79 5.33 13.48L7.24 8.87C8.62 8.03 9.55 6.51 9.55 4.77C9.55 2.13 7.41 0 4.77 0ZM4.77 7.02C3.53 7.02 2.52 6.01 2.52 4.77C2.52 3.53 3.53 2.52 4.77 2.52C6.01 2.52 7.02 3.53 7.02 4.77C7.02 6.01 6.01 7.02 4.77 7.02Z" fill="#0A59F7" fill-opacity="1.000000" fill-rule="nonzero"/>
</svg>
