<svg width="14.000000" height="14.000000" viewBox="0 0 14 14" fill="none" xmlns="http://www.w3.org/2000/svg" xmlns:xlink="http://www.w3.org/1999/xlink">
	<desc>
			Created with Pixso.
	</desc>
	<defs/>
	<path id="矢量 128" d="M12.47 9.33L12.47 9.75C12.57 9.55 12.66 9.34 12.74 9.12C12.85 8.83 12.93 8.54 12.99 8.24L12.99 8.24Q13.12 7.63 13.12 7C13.12 6.53 13.07 6.08 12.97 5.64C12.89 5.29 12.78 4.95 12.64 4.61C12.49 4.27 12.32 3.94 12.12 3.64C11.89 3.29 11.63 2.97 11.33 2.66C11.02 2.36 10.7 2.1 10.35 1.87Q9.89 1.57 9.38 1.35C9.04 1.21 8.7 1.1 8.35 1.02C7.91 0.92 7.46 0.87 7 0.87C6.57 0.87 6.15 0.91 5.75 1C5.45 1.06 5.16 1.14 4.87 1.25C4.57 1.36 4.28 1.49 4 1.65C3.67 1.84 3.36 2.05 3.07 2.3C2.88 2.45 2.61 2.43 2.45 2.24C2.29 2.05 2.32 1.78 2.5 1.63C2.84 1.35 3.19 1.1 3.56 0.89C3.88 0.71 4.22 0.56 4.56 0.43C4.9 0.3 5.24 0.21 5.59 0.14C6.05 0.04 6.52 0 7 0C7.52 0 8.03 0.05 8.52 0.16C8.93 0.25 9.33 0.38 9.72 0.55C10.11 0.71 10.49 0.91 10.84 1.14Q11.43 1.53 11.94 2.05C12.29 2.39 12.59 2.76 12.85 3.15L12.85 3.15Q13.2 3.68 13.44 4.27C13.61 4.66 13.74 5.06 13.83 5.47C13.94 5.96 14 6.47 14 7C14 7.47 13.95 7.94 13.85 8.4C13.78 8.75 13.69 9.09 13.56 9.43C13.43 9.77 13.28 10.11 13.1 10.43C12.89 10.8 12.64 11.15 12.36 11.49C12.32 11.54 12.27 11.57 12.21 11.6C12.16 11.63 12.09 11.64 12.03 11.64C11.91 11.64 11.81 11.6 11.72 11.51Q11.66 11.45 11.62 11.37Q11.59 11.3 11.59 11.21L11.59 9.33C11.59 9.08 11.78 8.89 12.03 8.89C12.27 8.89 12.47 9.08 12.47 9.33ZM1.52 4.66L1.52 4.25C1.42 4.45 1.33 4.66 1.25 4.87C1.14 5.16 1.06 5.45 1 5.75C0.91 6.15 0.87 6.57 0.87 7C0.87 7.46 0.92 7.91 1.02 8.35Q1.14 8.88 1.35 9.38C1.5 9.72 1.67 10.05 1.87 10.35C2.1 10.7 2.36 11.02 2.66 11.33C2.97 11.63 3.29 11.89 3.64 12.12C3.95 12.32 4.27 12.49 4.61 12.64C4.95 12.78 5.29 12.89 5.64 12.97C6.08 13.07 6.53 13.12 7 13.12C7.42 13.12 7.84 13.08 8.24 12.99C8.54 12.93 8.83 12.85 9.12 12.74C9.42 12.63 9.71 12.5 9.99 12.34C10.32 12.16 10.63 11.94 10.92 11.7C11.11 11.54 11.38 11.56 11.54 11.75C11.7 11.94 11.67 12.21 11.48 12.37C11.15 12.65 10.8 12.89 10.43 13.1C10.11 13.28 9.77 13.43 9.42 13.56C9.09 13.69 8.75 13.78 8.4 13.85C7.94 13.95 7.47 14 7 14C6.47 14 5.96 13.94 5.47 13.83C5.06 13.74 4.66 13.61 4.27 13.44C3.88 13.28 3.5 13.08 3.15 12.85Q2.56 12.46 2.05 11.94C1.7 11.6 1.4 11.23 1.14 10.84L1.14 10.84Q0.79 10.31 0.55 9.72C0.38 9.33 0.25 8.93 0.16 8.52C0.05 8.03 0 7.52 0 7C0 6.52 0.04 6.05 0.14 5.59C0.21 5.25 0.3 4.9 0.43 4.57Q0.62 4.05 0.89 3.57L0.89 3.56C1.1 3.19 1.34 2.84 1.62 2.51C1.66 2.46 1.71 2.42 1.77 2.39C1.83 2.37 1.89 2.35 1.96 2.35C2.08 2.35 2.18 2.4 2.27 2.48C2.35 2.57 2.39 2.67 2.39 2.79L2.39 4.66C2.39 4.91 2.2 5.1 1.96 5.1C1.71 5.1 1.52 4.91 1.52 4.66ZM3.26 7.37L5.01 4.16C5.06 4.05 5.15 3.98 5.27 3.95C5.38 3.92 5.49 3.93 5.6 3.99C5.65 4.01 5.69 4.04 5.72 4.09C5.76 4.13 5.78 4.17 5.8 4.22L7.33 8.46L8.64 5.58C8.69 5.47 8.77 5.39 8.88 5.35C8.99 5.31 9.1 5.31 9.21 5.36C9.25 5.38 9.36 5.48 9.39 5.5L10.71 7.32C10.85 7.52 10.81 7.79 10.61 7.93C10.41 8.08 10.14 8.03 10 7.84L9.12 6.63L7.68 9.8Q7.67 9.84 7.64 9.88Q7.62 9.91 7.58 9.94Q7.55 9.97 7.51 9.99Q7.48 10.02 7.43 10.03C7.32 10.07 7.21 10.07 7.1 10.02C6.99 9.97 6.92 9.88 6.87 9.77L5.31 5.43L4.02 7.79C3.91 8 3.65 8.08 3.43 7.96C3.22 7.85 3.14 7.58 3.26 7.37Z" fill="#191919" fill-opacity="1.000000" fill-rule="evenodd"/>
</svg>
