<svg width="16.000000" height="16.000000" viewBox="0 0 16 16" fill="none" xmlns="http://www.w3.org/2000/svg" xmlns:xlink="http://www.w3.org/1999/xlink">
	<desc>
			Created with Pixso.
	</desc>
	<defs>
		<clipPath id="clip236_4293">
			<rect width="16.000000" height="16.000000" transform="matrix(1 0 0 -1 0 16)" fill="white" fill-opacity="0"/>
		</clipPath>
	</defs>
	<g clip-path="url(#clip236_4293)">
		<path d="M9.16 8L4.52 12.64C4.43 12.74 4.38 12.86 4.38 13C4.38 13.13 4.43 13.25 4.52 13.36C4.62 13.45 4.74 13.5 4.88 13.5C5.01 13.5 5.13 13.45 5.23 13.36L9.88 8.7C10.07 8.51 10.17 8.27 10.17 8C10.17 7.72 10.07 7.48 9.88 7.29L5.24 2.67C5.16 2.57 5.04 2.52 4.9 2.52C4.76 2.52 4.63 2.57 4.54 2.67C4.44 2.76 4.39 2.88 4.39 3.02C4.39 3.16 4.44 3.27 4.54 3.37L9.16 8Z" fill="#000000" fill-opacity="0.600000" fill-rule="nonzero"/>
	</g>
</svg>
