<svg width="40.000000" height="40.000000" viewBox="0 0 40 40" fill="none" xmlns="http://www.w3.org/2000/svg" xmlns:xlink="http://www.w3.org/1999/xlink">
	<desc>
			Created with Pixso.
	</desc>
	<defs/>
	<rect id="icon_History" width="40.000000" height="40.000000" fill="#FFFFFF" fill-opacity="0"/>
	<circle id="椭圆 6" cx="20.000000" cy="20.000000" r="20.000000" fill="#FFFFFF" fill-opacity="0.100000"/>
	<path id="形状结合" d="M25.48 16.22C29.08 16.22 32 19.14 32 22.74C32 26.34 29.08 29.25 25.48 29.25C21.88 29.25 18.96 26.34 18.96 22.74C18.96 19.14 21.88 16.22 25.48 16.22ZM16.29 26C16.95 26 17.48 26.53 17.48 27.18C17.48 27.73 17.1 28.2 16.57 28.33L16.43 28.36L16.29 28.37L9.18 28.37C8.53 28.37 8 27.83 8 27.18C8 26.63 8.37 26.16 8.9 26.03L9.04 26L9.18 26L16.29 26ZM25.11 19.41C24.66 19.41 24.28 19.74 24.22 20.18L24.22 20.3L24.22 22.9L24.23 23.04C24.25 23.18 24.3 23.31 24.39 23.42L26.25 25.31C26.56 25.54 27.09 25.63 27.4 25.4L27.6 25.21C27.83 24.9 27.83 24.48 27.61 24.16L25.99 22.54L25.99 20.3C25.94 19.86 25.56 19.41 25.11 19.41ZM15.94 20.66C16.59 20.66 17.12 21.19 17.12 21.85C17.12 22.4 16.74 22.86 16.21 23L16.07 23.02L15.94 23.03L9.18 23.03C8.53 23.03 8 22.5 8 21.85C8 21.3 8.37 20.83 8.9 20.7L9.04 20.67L9.18 20.66L15.94 20.66ZM18.07 15.33C18.72 15.33 19.25 15.86 19.25 16.51C19.25 17.06 18.88 17.53 18.35 17.66L18.21 17.69L18.07 17.7L9.18 17.7C8.53 17.7 8 17.17 8 16.51C8 15.96 8.37 15.5 8.9 15.36L9.04 15.34L9.18 15.33L18.07 15.33ZM28.74 10C29.39 10 29.92 10.53 29.92 11.18C29.92 11.73 29.54 12.2 29.01 12.33L28.87 12.36L28.74 12.37L9.18 12.37C8.53 12.37 8 11.83 8 11.18C8 10.63 8.37 10.16 8.9 10.03L9.04 10L9.18 10L28.74 10Z" fill="#DB6B42" fill-opacity="1.000000" fill-rule="evenodd"/>
	<path id="形状结合" d="M32 22.74C32 26.34 29.08 29.25 25.48 29.25C21.88 29.25 18.96 26.34 18.96 22.74C18.96 19.14 21.88 16.22 25.48 16.22C29.08 16.22 32 19.14 32 22.74ZM17.48 27.18C17.48 27.73 17.1 28.2 16.57 28.33L16.43 28.36L16.29 28.37L9.18 28.37C8.53 28.37 8 27.83 8 27.18C8 26.63 8.37 26.16 8.9 26.03L9.04 26L9.18 26L16.29 26C16.95 26 17.48 26.53 17.48 27.18ZM24.22 20.18L24.22 20.3L24.22 22.9L24.23 23.04C24.25 23.18 24.3 23.31 24.39 23.42L26.25 25.31C26.56 25.54 27.09 25.63 27.4 25.4L27.6 25.21C27.83 24.9 27.83 24.48 27.61 24.16L25.99 22.54L25.99 20.3C25.94 19.86 25.56 19.41 25.11 19.41C24.66 19.41 24.28 19.74 24.22 20.18ZM17.12 21.85C17.12 22.4 16.74 22.86 16.21 23L16.07 23.02L15.94 23.03L9.18 23.03C8.53 23.03 8 22.5 8 21.85C8 21.3 8.37 20.83 8.9 20.7L9.04 20.67L9.18 20.66L15.94 20.66C16.59 20.66 17.12 21.19 17.12 21.85ZM19.25 16.51C19.25 17.06 18.88 17.53 18.35 17.66L18.21 17.69L18.07 17.7L9.18 17.7C8.53 17.7 8 17.17 8 16.51C8 15.96 8.37 15.5 8.9 15.36L9.04 15.34L9.18 15.33L18.07 15.33C18.72 15.33 19.25 15.86 19.25 16.51ZM29.92 11.18C29.92 11.73 29.54 12.2 29.01 12.33L28.87 12.36L28.74 12.37L9.18 12.37C8.53 12.37 8 11.83 8 11.18C8 10.63 8.37 10.16 8.9 10.03L9.04 10L9.18 10L28.74 10C29.39 10 29.92 10.53 29.92 11.18Z" stroke="#000000" stroke-opacity="0" stroke-width="1.000000"/>
</svg>
