<svg viewBox="0 0 24 24" xmlns="http://www.w3.org/2000/svg" xmlns:xlink="http://www.w3.org/1999/xlink" width="24.000000" height="24.000000" fill="none">
	<defs>
		<filter id="pixso_custom_mask_type_luminance">
			<feColorMatrix type="matrix" values="1 0 0 0 0 0 1 0 0 0 0 0 1 0 0 0 0 0 1 0 " />
		</filter>
	</defs>
	<mask id="mask_0" width="24.000000" height="24.000000" x="0.000000" y="0.000000" maskUnits="userSpaceOnUse">
		<g filter="url(#pixso_custom_mask_type_luminance)">
			<g id="hms_mask_0">
				<rect id="矩形 3657" width="24.000000" height="24.000000" x="0.000000" y="0.000000" fill="rgb(255,255,255)" />
				<g id="组合 4198">
					<path id="矢量 344" d="M5.9 20.5C5.28 20.5 4.74 20.2867 4.28 19.86C3.82667 19.4333 3.56667 18.91 3.5 18.29L13.56 10.97C13.88 10.7433 14.2267 10.5933 14.6 10.52C14.98 10.4533 15.3533 10.47 15.72 10.57C16.0867 10.6767 16.4133 10.8567 16.7 11.11L20.5 14.35L20.5 18.05C20.5 18.7233 20.2633 19.3 19.79 19.78C19.3167 20.26 18.7433 20.5 18.07 20.5L5.9 20.5ZM8.5 7.25C8.98 7.25 9.39 7.42 9.73 7.76C10.0767 8.10667 10.25 8.52 10.25 9C10.25 9.48 10.0767 9.89333 9.73 10.24C9.39 10.58 8.98 10.75 8.5 10.75C8.02 10.75 7.60667 10.58 7.26 10.24C6.91333 9.89333 6.74 9.48 6.74 9C6.74 8.52 6.91333 8.10667 7.26 7.76C7.60667 7.42 8.02 7.25 8.5 7.25Z" fill="rgb(0,0,0)" fill-rule="evenodd" />
				</g>
			</g>
		</g>
	</mask>
	<rect id="picture_fill" width="24.000000" height="24.000000" x="0.000000" y="0.000000" />
	<rect id="矩形 3656" width="24.000000" height="24.000000" x="0.000000" y="0.000000" opacity="0" fill="rgb(0,0,0)" />
	<g id="mask" mask="url(#mask_0)">
		<g id="组合 4197">
			<path id="矢量 343" d="M5.93023 1.99023C5.22357 1.99023 4.5669 2.1669 3.96023 2.52023C3.35357 2.87357 2.87357 3.35357 2.52023 3.96023C2.1669 4.5669 1.99023 5.22357 1.99023 5.93023L1.99023 18.0502C1.99023 18.7702 2.1669 19.4336 2.52023 20.0402C2.87357 20.6469 3.35357 21.1269 3.96023 21.4802C4.5669 21.8336 5.22357 22.0102 5.93023 22.0102L18.0502 22.0102C18.7702 22.0102 19.4302 21.8336 20.0302 21.4802C20.6302 21.1269 21.1069 20.6469 21.4602 20.0402C21.8069 19.4336 21.9802 18.7702 21.9802 18.0502L21.9802 5.93023C21.9802 5.22357 21.8069 4.5669 21.4602 3.96023C21.1069 3.35357 20.6302 2.87357 20.0302 2.52023C19.4302 2.1669 18.7769 1.99023 18.0702 1.99023L5.93023 1.99023Z" fill="rgb(10,89,247)" fill-rule="evenodd" />
		</g>
	</g>
</svg>
