<svg viewBox="0 0 24 24" xmlns="http://www.w3.org/2000/svg" xmlns:xlink="http://www.w3.org/1999/xlink" width="24.000000" height="24.000000" fill="none">
	<rect id="camera_fill" width="24.000000" height="24.000000" x="0.000000" y="0.000000" />
	<rect id="矩形 3658" width="24.000000" height="24.000000" x="0.000000" y="0.000000" opacity="0" fill="rgb(0,0,0)" />
	<g id="组合 4199">
		<path id="矢量 345" d="M17.38 5.66C17.3267 5.66 17.2767 5.65 17.23 5.63C17.1833 5.60333 17.1533 5.56667 17.14 5.52L16.61 4.2C16.4633 3.83333 16.2267 3.54 15.9 3.32C15.5733 3.10667 15.21 3 14.81 3L9.26 3C8.86 3 8.49667 3.10667 8.17 3.32C7.84333 3.54 7.6 3.83333 7.44 4.2L6.94 5.52C6.92 5.56667 6.88667 5.60333 6.84 5.63C6.79333 5.65 6.74667 5.66 6.7 5.66L4.01 5.66C3.51 5.66 3.05 5.78667 2.63 6.04C2.20333 6.28667 1.86667 6.61667 1.62 7.03C1.37333 7.45 1.25 7.90667 1.25 8.4L1.25 18.29C1.25 18.7833 1.37333 19.2333 1.62 19.64C1.86667 20.0533 2.20333 20.3833 2.63 20.63C3.05 20.8767 3.51 21 4.01 21L19.99 21C20.49 21 20.95 20.88 21.37 20.64C21.7967 20.4 22.1333 20.0733 22.38 19.66C22.6267 19.24 22.75 18.7833 22.75 18.29L22.75 8.4C22.75 7.90667 22.6267 7.45 22.38 7.03C22.1333 6.61667 21.7967 6.28667 21.37 6.04C20.95 5.78667 20.49 5.66 19.99 5.66L17.38 5.66ZM12 17.42C11.2 17.42 10.46 17.22 9.78 16.82C9.1 16.42 8.56 15.88 8.16 15.2C7.76 14.52 7.56 13.7733 7.56 12.96C7.56 12.16 7.76 11.42 8.16 10.74C8.56 10.06 9.1 9.52 9.78 9.12C10.46 8.72 11.2 8.52 12 8.52C12.8 8.52 13.54 8.72 14.22 9.12C14.9 9.52 15.44 10.06 15.84 10.74C16.24 11.42 16.44 12.16 16.44 12.96C16.44 13.7733 16.24 14.52 15.84 15.2C15.44 15.88 14.9 16.42 14.22 16.82C13.54 17.22 12.8 17.42 12 17.42ZM12 10.03C11.4733 10.03 10.98 10.1633 10.52 10.43C10.0667 10.69 9.70667 11.0467 9.44 11.5C9.18 11.9467 9.05 12.4333 9.05 12.96C9.05 13.4867 9.18 13.98 9.44 14.44C9.70667 14.8933 10.0667 15.2533 10.52 15.52C10.98 15.78 11.4733 15.91 12 15.91C12.5267 15.91 13.02 15.78 13.48 15.52C13.9333 15.2533 14.2933 14.8933 14.56 14.44C14.82 13.98 14.95 13.4867 14.95 12.96C14.95 12.4333 14.82 11.9467 14.56 11.5C14.2933 11.0467 13.9333 10.69 13.48 10.43C13.02 10.1633 12.5267 10.03 12 10.03Z" fill="rgb(10,89,247)" fill-rule="nonzero" />
	</g>
</svg>
