<svg viewBox="0 0 24 24" xmlns="http://www.w3.org/2000/svg" xmlns:xlink="http://www.w3.org/1999/xlink" width="24.000000" height="24.000000" fill="none">
	<rect id="checkmark" width="24.000000" height="24.000000" x="0.000000" y="0.000000" />
	<rect id="矩形 3664" width="24.000000" height="24.000000" x="0.000000" y="0.000000" opacity="0" fill="rgb(0,0,0)" />
	<g id="组合 4206">
		<path id="矢量 348" d="M9.49949 18.1903C9.77283 18.1903 10.0395 18.1403 10.2995 18.0403C10.5528 17.9336 10.7762 17.7836 10.9695 17.5903L21.5295 7.08027C21.6695 6.93361 21.7395 6.75694 21.7395 6.55027C21.7395 6.34361 21.6695 6.16694 21.5295 6.02027C21.3828 5.86027 21.2062 5.78027 20.9995 5.78027C20.7928 5.78027 20.6095 5.86027 20.4495 6.02027L9.88949 16.5403C9.77616 16.6469 9.64616 16.7003 9.49949 16.7003C9.35949 16.7003 9.23283 16.6469 9.11949 16.5403L3.52949 10.9903C3.38283 10.8303 3.20616 10.7536 2.99949 10.7603C2.79283 10.7736 2.61616 10.8503 2.46949 10.9903C2.30949 11.1369 2.22949 11.3136 2.22949 11.5203C2.22949 11.7269 2.30949 11.9036 2.46949 12.0503L8.05949 17.5903C8.25283 17.7836 8.47283 17.9336 8.71949 18.0403C8.97283 18.1403 9.23283 18.1903 9.49949 18.1903Z" fill="rgb(255,255,255)" fill-rule="nonzero" />
	</g>
</svg>
