<svg viewBox="0 0 48 48" xmlns="http://www.w3.org/2000/svg" xmlns:xlink="http://www.w3.org/1999/xlink" width="48.000000" height="48.000000" fill="none">
	<defs>
		<clipPath id="clipPath_0">
			<rect width="24.000000" height="24.000000" x="12.000000" y="12.000000" fill="rgb(255,255,255)" />
		</clipPath>
	</defs>
	<rect id="拍照" width="48.000000" height="48.000000" x="0.000000" y="0.000000" />
	<circle id="path3" cx="24" cy="24" r="24" fill="rgb(10,89,247)" fill-opacity="0.0980392173" />
	<circle id="path3" cx="24" cy="24" r="24" stroke="rgb(0,0,0)" stroke-opacity="0" stroke-width="1" />
	<g id="camera_fill" clip-path="url(#clipPath_0)" customFrame="url(#clipPath_0)">
		<rect id="camera_fill" width="24.000000" height="24.000000" x="12.000000" y="12.000000" />
		<rect id="矩形 3654" width="24.000000" height="24.000000" x="12.000000" y="12.000000" opacity="0" fill="rgb(0,0,0)" />
		<g id="组合 4194">
			<path id="矢量 341" d="M29.38 17.66C29.3267 17.66 29.2767 17.65 29.23 17.63C29.1833 17.6033 29.1533 17.5667 29.14 17.52L28.61 16.2C28.4633 15.8333 28.2267 15.54 27.9 15.32C27.5733 15.1067 27.21 15 26.81 15L21.26 15C20.86 15 20.4967 15.1067 20.17 15.32C19.8433 15.54 19.6 15.8333 19.44 16.2L18.94 17.52C18.92 17.5667 18.8867 17.6033 18.84 17.63C18.7933 17.65 18.7467 17.66 18.7 17.66L16.01 17.66C15.51 17.66 15.05 17.7867 14.63 18.04C14.2033 18.2867 13.8667 18.6167 13.62 19.03C13.3733 19.45 13.25 19.9067 13.25 20.4L13.25 30.29C13.25 30.7833 13.3733 31.2333 13.62 31.64C13.8667 32.0533 14.2033 32.3833 14.63 32.63C15.05 32.8767 15.51 33 16.01 33L31.99 33C32.49 33 32.95 32.88 33.37 32.64C33.7967 32.4 34.1333 32.0733 34.38 31.66C34.6267 31.24 34.75 30.7833 34.75 30.29L34.75 20.4C34.75 19.9067 34.6267 19.45 34.38 19.03C34.1333 18.6167 33.7967 18.2867 33.37 18.04C32.95 17.7867 32.49 17.66 31.99 17.66L29.38 17.66ZM24 29.42C23.2 29.42 22.46 29.22 21.78 28.82C21.1 28.42 20.56 27.88 20.16 27.2C19.76 26.52 19.56 25.7733 19.56 24.96C19.56 24.16 19.76 23.42 20.16 22.74C20.56 22.06 21.1 21.52 21.78 21.12C22.46 20.72 23.2 20.52 24 20.52C24.8 20.52 25.54 20.72 26.22 21.12C26.9 21.52 27.44 22.06 27.84 22.74C28.24 23.42 28.44 24.16 28.44 24.96C28.44 25.7733 28.24 26.52 27.84 27.2C27.44 27.88 26.9 28.42 26.22 28.82C25.54 29.22 24.8 29.42 24 29.42ZM24 22.03C23.4733 22.03 22.98 22.1633 22.52 22.43C22.0667 22.69 21.7067 23.0467 21.44 23.5C21.18 23.9467 21.05 24.4333 21.05 24.96C21.05 25.4867 21.18 25.98 21.44 26.44C21.7067 26.8933 22.0667 27.2533 22.52 27.52C22.98 27.78 23.4733 27.91 24 27.91C24.5267 27.91 25.02 27.78 25.48 27.52C25.9333 27.2533 26.2933 26.8933 26.56 26.44C26.82 25.98 26.95 25.4867 26.95 24.96C26.95 24.4333 26.82 23.9467 26.56 23.5C26.2933 23.0467 25.9333 22.69 25.48 22.43C25.02 22.1633 24.5267 22.03 24 22.03Z" fill="rgb(10,89,247)" fill-rule="nonzero" />
		</g>
	</g>
</svg>
