<svg viewBox="0 0 48 48" xmlns="http://www.w3.org/2000/svg" xmlns:xlink="http://www.w3.org/1999/xlink" width="48.000000" height="48.000000" fill="none">
	<defs>
		<clipPath id="clipPath_0">
			<rect width="24.000000" height="24.000000" x="12.000000" y="12.000000" fill="rgb(255,255,255)" />
		</clipPath>
	</defs>
	<rect id="拍照" width="48.000000" height="48.000000" x="0.000000" y="0.000000" />
	<circle id="path3" cx="24" cy="24" r="24" fill="rgb(255,255,255)" />
	<circle id="path3" cx="24" cy="24" r="24" stroke="rgb(0,0,0)" stroke-opacity="0" stroke-width="1" />
	<g id="background_color_removal" clip-path="url(#clipPath_0)" customFrame="url(#clipPath_0)">
		<rect id="background_color_removal" width="24.000000" height="24.000000" x="12.000000" y="12.000000" />
		<rect id="矩形 3661" width="24.000000" height="24.000000" x="12.000000" y="12.000000" opacity="0" fill="rgb(0,0,0)" />
		<g id="组合 4202">
			<path id="矢量 346" d="M29.8598 24.1199C29.6798 23.8933 29.4598 23.6499 29.1998 23.3899C28.9332 23.1233 28.5765 22.7666 28.1298 22.3199C27.4232 21.6133 26.7198 20.9166 26.0198 20.2299L20.4198 14.6399C20.2798 14.4933 20.1065 14.4199 19.8998 14.4199C19.6865 14.4199 19.5098 14.4933 19.3698 14.6399C19.2232 14.7999 19.1498 14.9833 19.1498 15.1899C19.1498 15.3966 19.2232 15.5733 19.3698 15.7199L21.1698 17.5199C21.0098 17.5999 20.8732 17.6966 20.7598 17.8099L14.6598 23.8799C14.4732 24.0733 14.3298 24.2899 14.2298 24.5299C14.1365 24.7699 14.0898 25.0266 14.0898 25.2999C14.0898 25.5666 14.1365 25.8199 14.2298 26.0599C14.3298 26.2999 14.4732 26.5166 14.6598 26.7099L20.7598 32.8099C20.9532 33.0033 21.1698 33.1466 21.4098 33.2399C21.6498 33.3333 21.8965 33.3799 22.1498 33.3799C22.4232 33.3799 22.6798 33.3333 22.9198 33.2399C23.1598 33.1466 23.3765 33.0033 23.5698 32.8099L29.6598 26.7099C30.0132 26.3566 30.2065 25.9333 30.2398 25.4399C30.2732 24.9466 30.1465 24.5066 29.8598 24.1199ZM21.8198 18.8599C21.9132 18.7666 22.0265 18.7199 22.1598 18.7199C22.2998 18.7199 22.4165 18.7666 22.5098 18.8599L24.9598 21.3099L28.6098 24.9599C28.6565 24.9933 28.6932 25.0399 28.7198 25.0999C28.7398 25.1666 28.7498 25.2333 28.7498 25.2999L15.5798 25.2999C15.5798 25.2333 15.5898 25.1666 15.6098 25.0999C15.6365 25.0399 15.6732 24.9933 15.7198 24.9599L21.8198 18.8599Z" fill="rgb(10,89,247)" fill-rule="nonzero" />
			<path id="矢量 347" d="M31.3403 33.5801C31.8069 33.5801 32.2369 33.4635 32.6303 33.2301C33.0236 32.9968 33.3336 32.6834 33.5603 32.2901C33.7936 31.8968 33.9103 31.4701 33.9103 31.0101C33.9103 30.6101 33.7469 30.0535 33.4203 29.3401C33.0936 28.6268 32.7203 27.9935 32.3003 27.4401C31.8869 26.8934 31.5669 26.6201 31.3403 26.6201C31.1203 26.6201 30.8003 26.9001 30.3803 27.4601C29.9669 28.0201 29.5969 28.6501 29.2703 29.3501C28.9436 30.0568 28.7803 30.6101 28.7803 31.0101C28.7803 31.4701 28.8936 31.8968 29.1203 32.2901C29.3536 32.6834 29.6669 32.9968 30.0603 33.2301C30.4536 33.4635 30.8803 33.5801 31.3403 33.5801ZM31.3403 28.1801C31.5536 28.4801 31.7636 28.8001 31.9703 29.1401C32.1769 29.4734 32.3536 29.8068 32.5003 30.1401C32.6403 30.4801 32.7103 30.7701 32.7103 31.0101C32.7103 31.3901 32.5803 31.7135 32.3203 31.9801C32.0536 32.2468 31.7269 32.3801 31.3403 32.3801C30.9603 32.3801 30.6369 32.2435 30.3703 31.9701C30.1103 31.6968 29.9803 31.3768 29.9803 31.0101C29.9803 30.7835 30.0503 30.5001 30.1903 30.1601C30.3369 29.8134 30.5136 29.4635 30.7203 29.1101C30.9269 28.7568 31.1336 28.4468 31.3403 28.1801Z" fill="rgb(10,89,247)" fill-rule="nonzero" />
		</g>
	</g>
</svg>
