<svg viewBox="0 0 48 48" xmlns="http://www.w3.org/2000/svg" xmlns:xlink="http://www.w3.org/1999/xlink" width="48.000000" height="48.000000" fill="none">
	<defs>
		<clipPath id="clipPath_1">
			<rect width="24.000000" height="24.000000" x="12.000000" y="12.000000" fill="rgb(255,255,255)" />
		</clipPath>
	</defs>
	<rect id="拍照" width="48.000000" height="48.000000" x="0.000000" y="0.000000" />
	<circle id="path3" cx="24" cy="24" r="24" fill="rgb(255,255,255)" />
	<circle id="path3" cx="24" cy="24" r="24" stroke="rgb(0,0,0)" stroke-opacity="0" stroke-width="1" />
	<g id="clothing_fill" clip-path="url(#clipPath_1)" customFrame="url(#clipPath_1)">
		<rect id="clothing_fill" width="24.000000" height="24.000000" x="12.000000" y="12.000000" />
		<rect id="矩形 3662" width="24.000000" height="24.000000" x="12.000000" y="12.000000" opacity="0" fill="rgb(0,0,0)" />
		<g id="组合 4203">
			<path id="矢量 348" d="M34.63 21.1905C34.7567 21.4505 34.83 21.7338 34.85 22.0405C34.8633 22.3538 34.8233 22.6471 34.73 22.9205C34.63 23.2071 34.4767 23.4605 34.27 23.6805C34.0633 23.8938 33.8233 24.0638 33.55 24.1905C32.99 24.4305 32.2233 24.6705 31.25 24.9105L31.25 31.4905C31.25 31.9038 31.15 32.2838 30.95 32.6305C30.75 32.9705 30.4767 33.2405 30.13 33.4405C29.79 33.6405 29.41 33.7405 28.99 33.7405L19.01 33.7405C18.59 33.7405 18.21 33.6405 17.87 33.4405C17.5233 33.2405 17.25 32.9705 17.05 32.6305C16.85 32.2838 16.75 31.9038 16.75 31.4905L16.75 24.9105C15.8367 24.6905 15.06 24.4505 14.42 24.1905C14.1533 24.0638 13.9133 23.8938 13.7 23.6805C13.4933 23.4605 13.3433 23.2071 13.25 22.9205C13.15 22.6338 13.11 22.3371 13.13 22.0305C13.1433 21.7305 13.2233 21.4505 13.37 21.1905L16.39 15.4805C16.5967 15.0938 16.88 14.7905 17.24 14.5705C17.6 14.3438 18.0067 14.2305 18.46 14.2305L20.3 14.2305C20.56 14.2305 20.7767 14.3205 20.95 14.5005C21.13 14.6738 21.2267 14.8805 21.24 15.1205C21.2733 15.8538 21.5567 16.4771 22.09 16.9905C22.63 17.5038 23.2667 17.7605 24 17.7605C24.72 17.7605 25.3433 17.5038 25.87 16.9905C26.3967 16.4771 26.6867 15.8538 26.74 15.1205C26.7533 14.8805 26.8467 14.6738 27.02 14.5005C27.2 14.3205 27.41 14.2305 27.65 14.2305L29.52 14.2305C29.9667 14.2305 30.3733 14.3438 30.74 14.5705C31.1133 14.7905 31.4033 15.0938 31.61 15.4805L34.63 21.1905Z" fill="rgb(10,89,247)" fill-rule="nonzero" />
		</g>
	</g>
</svg>
