<?xml version="1.0" encoding="UTF-8"?>
<svg width="40px" height="40px" viewBox="0 0 40 40" version="1.1" xmlns="http://www.w3.org/2000/svg" xmlns:xlink="http://www.w3.org/1999/xlink">
    <title>编组备份 3</title>
    <g id="页面-1" stroke="none" stroke-width="1" fill="none" fill-rule="evenodd">
        <g id="在线客服_键盘" transform="translate(-248, -418)">
            <g id="编组备份-3" transform="translate(248, 418)">
                <circle id="椭圆形" fill="#317AF7" cx="20" cy="20" r="20"></circle>
                <g id="编组" transform="translate(22, 18) rotate(-45) translate(-22, -18)translate(10, 6)" fill-rule="nonzero">
                    <rect id="矩形" fill="#000000" opacity="0" x="0" y="0" width="24" height="24"></rect>
                    <path d="M21.34,13.39 C21.72,13.2166667 21.98,12.94 22.12,12.56 C22.2533333,12.1866667 22.2533333,11.8166667 22.12,11.45 C21.98,11.0833333 21.72,10.81 21.34,10.63 L3.86,2.93 C3.44666667,2.73666667 3.04666667,2.72666667 2.66,2.9 C2.28,3.08 2.01,3.36 1.85,3.74 C1.69,4.12666667 1.70666667,4.52 1.9,4.92 L4.73,10.94 L18.14,11.69 C18.2733333,11.69 18.3633333,11.7366667 18.41,11.83 C18.4566667,11.93 18.4566667,12.03 18.41,12.13 C18.3633333,12.2366667 18.2733333,12.29 18.14,12.29 L4.75,13.03 L1.9,19.03 C1.70666667,19.43 1.69,19.8266667 1.85,20.22 C2.01,20.6133333 2.28,20.8966667 2.66,21.07 C3.04666667,21.25 3.44666667,21.2433333 3.86,21.05 L21.34,13.39 Z" id="路径" fill="#FFFFFF"></path>
                </g>
            </g>
        </g>
    </g>
</svg>