<svg width="14.656250" height="14.652344" viewBox="0 0 14.6562 14.6523" fill="none" xmlns="http://www.w3.org/2000/svg" xmlns:xlink="http://www.w3.org/1999/xlink">
	<desc>
			Created with Pixso.
	</desc>
	<defs/>
	<path id="󰀴" d="M5.05 0.35Q6.13 0 7.32 0Q8.52 0 9.6 0.35Q10.33 0.58 11 0.98Q11.82 1.46 12.48 2.11Q13.16 2.78 13.67 3.64Q14.06 4.32 14.3 5.05Q14.65 6.13 14.65 7.32Q14.65 8.4 14.36 9.39Q14.12 10.22 13.67 11Q13.17 11.85 12.5 12.52Q11.83 13.18 11 13.66Q10.25 14.1 9.44 14.34Q8.43 14.65 7.32 14.65Q6.22 14.65 5.2 14.34Q4.4 14.1 3.65 13.66Q2.81 13.18 2.15 12.52Q1.48 11.85 0.98 11Q0.53 10.22 0.29 9.39Q0 8.4 0 7.32Q0 6.13 0.35 5.05Q0.58 4.32 0.98 3.64Q1.48 2.78 2.17 2.11Q2.82 1.46 3.64 0.98Q4.32 0.58 5.05 0.35ZM9.11 1.24Q8.26 0.99 7.32 0.99Q6.39 0.99 5.53 1.24Q4.82 1.45 4.16 1.84Q3.43 2.27 2.85 2.85Q2.27 3.43 1.84 4.16Q1.47 4.79 1.26 5.48Q0.99 6.36 0.99 7.32Q0.99 8.26 1.24 9.11Q1.45 9.83 1.84 10.49Q2.26 11.2 2.82 11.77Q3.41 12.36 4.16 12.8Q4.82 13.19 5.53 13.4Q6.39 13.66 7.32 13.66Q8.26 13.66 9.11 13.4Q9.83 13.19 10.49 12.8Q11.24 12.36 11.83 11.77Q12.39 11.2 12.8 10.49Q13.19 9.83 13.4 9.11Q13.66 8.26 13.66 7.32Q13.66 6.36 13.39 5.48Q13.18 4.79 12.8 4.16Q12.38 3.43 11.8 2.85Q11.22 2.27 10.49 1.84Q9.83 1.45 9.11 1.24ZM7.82 3.32L7.82 6.83L11.32 6.83Q11.43 6.83 11.52 6.87Q11.61 6.9 11.67 6.97Q11.74 7.03 11.77 7.1Q11.82 7.2 11.82 7.32Q11.82 7.43 11.78 7.52Q11.74 7.61 11.67 7.67Q11.61 7.74 11.53 7.77Q11.44 7.82 11.32 7.82L7.82 7.82L7.82 11.32Q7.82 11.43 7.78 11.52Q7.74 11.61 7.67 11.67Q7.61 11.74 7.53 11.77Q7.44 11.82 7.32 11.82Q7.21 11.82 7.12 11.77Q7.04 11.74 6.97 11.67Q6.9 11.61 6.87 11.52Q6.83 11.43 6.83 11.32L6.83 7.82L3.32 7.82Q3.21 7.82 3.12 7.77Q3.04 7.74 2.97 7.67Q2.9 7.61 2.87 7.52Q2.83 7.43 2.83 7.32Q2.83 7.2 2.87 7.1Q2.91 7.03 2.97 6.97Q3.04 6.9 3.12 6.87Q3.22 6.83 3.32 6.83L6.83 6.83L6.83 3.32Q6.83 3.2 6.87 3.1Q6.91 3.03 6.97 2.97Q7.04 2.9 7.12 2.87Q7.22 2.83 7.32 2.83Q7.43 2.83 7.52 2.87Q7.61 2.9 7.67 2.97Q7.74 3.03 7.77 3.1Q7.82 3.2 7.82 3.32Z" fill="#0A59F7" fill-opacity="1.000000" fill-rule="evenodd"/>
</svg>
