<svg width="50.000000" height="38.000000" viewBox="0 0 50 38" fill="none" xmlns="http://www.w3.org/2000/svg" xmlns:xlink="http://www.w3.org/1999/xlink">
	<desc>
			Created with Pixso.
	</desc>
	<defs>
		<clipPath id="clip10_3335">
			<rect id="画板 14513" rx="1.000000" width="4.000000" height="4.000000" transform="translate(40.000000 13.000000)" fill="white" fill-opacity="0"/>
		</clipPath>
		<clipPath id="clip10_3321">
			<rect id="空调" width="50.000000" height="38.000000" fill="white" fill-opacity="0"/>
		</clipPath>
	</defs>
	<g clip-path="url(#clip10_3321)">
		<path id="path" d="M42.1 24.78L8.06 24.78C7.98 24.78 7.9 24.77 7.82 24.76C7.74 24.74 7.66 24.72 7.59 24.69C7.51 24.66 7.44 24.62 7.37 24.57C7.3 24.53 7.24 24.48 7.18 24.42C7.12 24.36 7.07 24.3 7.03 24.23C6.98 24.16 6.94 24.09 6.91 24.01C6.88 23.94 6.86 23.86 6.84 23.78C6.83 23.7 6.82 23.62 6.82 23.54L6.82 18.38L43.34 18.38L43.34 23.54C43.34 23.62 43.34 23.7 43.32 23.78C43.3 23.86 43.28 23.94 43.25 24.01C43.22 24.09 43.18 24.16 43.13 24.23C43.09 24.3 43.04 24.36 42.98 24.42C42.92 24.48 42.86 24.53 42.79 24.57C42.72 24.62 42.65 24.66 42.57 24.69C42.5 24.72 42.42 24.74 42.34 24.76C42.26 24.77 42.18 24.78 42.1 24.78Z" fill="#909297" fill-opacity="1.000000" fill-rule="nonzero"/>
		<path id="path" d="M42.1 23.01L8.06 23.01C7.98 23.01 7.9 23 7.82 22.98C7.74 22.97 7.66 22.94 7.59 22.91C7.51 22.88 7.44 22.84 7.37 22.8C7.3 22.75 7.24 22.7 7.18 22.64C7.12 22.58 7.07 22.52 7.03 22.45C6.98 22.38 6.94 22.31 6.91 22.24C6.88 22.16 6.86 22.08 6.84 22C6.83 21.92 6.82 21.84 6.82 21.76L6.82 18.38L43.34 18.38L43.34 21.76C43.34 21.84 43.34 21.92 43.32 22C43.3 22.08 43.28 22.16 43.25 22.24C43.22 22.31 43.18 22.38 43.13 22.45C43.09 22.52 43.04 22.58 42.98 22.64C42.92 22.7 42.86 22.75 42.79 22.79C42.72 22.84 42.65 22.88 42.57 22.91C42.5 22.94 42.42 22.96 42.34 22.98C42.26 23 42.18 23 42.1 23.01Z" fill="#EDEEF1" fill-opacity="1.000000" fill-rule="nonzero"/>
		<path id="path" d="M44.66 1.53L5.5 1.53C3.7 1.53 2.25 2.99 2.25 4.79L2.25 18.28C2.25 20.08 3.7 21.54 5.5 21.54L6.79 21.54L6.79 18.38L43.32 18.38L43.32 21.54L44.66 21.54C46.46 21.54 47.91 20.08 47.91 18.28L47.91 4.79C47.91 2.99 46.46 1.53 44.66 1.53Z" fill="#D1D4DB" fill-opacity="1.000000" fill-rule="nonzero"/>
		<path id="path" d="M40.54 11.39L10.12 11.39C8.45 11.39 7.1 10.04 7.1 8.37L7.1 1.53L43.56 1.53L43.56 8.37C43.56 10.04 42.21 11.39 40.54 11.39Z" fill="#909297" fill-opacity="1.000000" fill-rule="nonzero"/>
		<path id="path" d="M39.97 10.44L10.19 10.44C8.53 10.44 7.18 9.09 7.18 7.42L7.18 1.44L42.99 1.44L42.99 7.42C42.99 9.08 41.64 10.44 39.97 10.44Z" fill="#D1D4DB" fill-opacity="1.000000" fill-rule="nonzero"/>
		<path id="path" d="M13.32 36.93C12.7 36.93 12.1 36.61 11.79 36.02C11.73 35.92 11.68 35.82 11.65 35.71C11.62 35.6 11.59 35.49 11.58 35.37C11.57 35.26 11.57 35.15 11.58 35.03C11.59 34.92 11.61 34.8 11.64 34.69C11.67 34.58 11.72 34.48 11.77 34.38C11.82 34.27 11.88 34.18 11.96 34.09C12.03 34 12.11 33.92 12.2 33.84C12.28 33.77 12.38 33.71 12.48 33.65C12.56 33.61 12.62 33.48 12.63 33.34C12.64 33.2 12.62 32.85 12.23 32.52C10.78 31.4 10.39 30.15 10.31 29.3C10.28 29.03 10.29 28.78 10.31 28.54C10.45 27.16 12.1 26.53 13.12 27.46L13.31 27.62C13.67 27.95 13.82 28.43 13.79 28.92C13.79 28.95 13.79 28.97 13.8 28.99C13.83 29.29 14.18 29.6 14.39 29.76L14.42 29.79C15.61 30.75 16.25 32.2 16.11 33.65C15.99 34.97 15.26 36.11 14.16 36.72C13.89 36.87 13.61 36.93 13.32 36.93ZM21.14 36.93C20.52 36.93 19.92 36.61 19.6 36.02C19.14 35.18 19.45 34.12 20.3 33.65C20.37 33.61 20.43 33.48 20.45 33.34C20.46 33.2 20.45 32.85 20.05 32.52C18.6 31.4 18.2 30.15 18.13 29.3C18.1 29.03 18.11 28.78 18.13 28.54C18.27 27.16 19.91 26.53 20.94 27.46L21.13 27.62C21.49 27.95 21.64 28.43 21.61 28.92C21.61 28.95 21.61 28.97 21.62 28.99C21.65 29.29 22 29.6 22.21 29.76L22.24 29.79C23.43 30.75 24.07 32.2 23.93 33.65C23.81 34.97 23.08 36.11 21.98 36.72C21.72 36.87 21.43 36.93 21.14 36.93ZM28.96 36.93C28.34 36.93 27.74 36.61 27.42 36.02C27.37 35.92 27.32 35.82 27.29 35.71C27.25 35.6 27.23 35.49 27.22 35.37C27.21 35.26 27.2 35.15 27.21 35.03C27.22 34.92 27.25 34.8 27.28 34.69C27.31 34.58 27.35 34.48 27.41 34.38C27.46 34.27 27.52 34.18 27.59 34.09C27.67 34 27.75 33.92 27.83 33.84C27.92 33.77 28.02 33.71 28.12 33.65C28.19 33.61 28.25 33.48 28.27 33.34C28.28 33.2 28.26 32.85 27.87 32.52C26.42 31.4 26.02 30.15 25.95 29.3C25.92 29.03 25.93 28.78 25.95 28.54C26.08 27.16 27.74 26.53 28.76 27.46L28.95 27.63C29.31 27.96 29.46 28.43 29.43 28.92C29.43 28.95 29.43 28.97 29.43 28.99C29.47 29.29 29.82 29.61 30.03 29.76L30.06 29.79C31.25 30.76 31.89 32.2 31.75 33.65C31.63 34.97 30.9 36.12 29.8 36.72C29.53 36.87 29.25 36.93 28.96 36.93ZM36.78 36.93C36.16 36.93 35.56 36.61 35.24 36.02C35.19 35.92 35.14 35.82 35.11 35.71C35.07 35.6 35.05 35.49 35.04 35.37C35.03 35.26 35.02 35.15 35.03 35.03C35.04 34.92 35.07 34.8 35.1 34.69C35.13 34.58 35.17 34.48 35.23 34.38C35.28 34.27 35.34 34.18 35.41 34.09C35.49 34 35.57 33.92 35.65 33.84C35.74 33.77 35.84 33.71 35.94 33.65C36.01 33.61 36.07 33.48 36.08 33.34C36.1 33.2 36.08 32.85 35.69 32.52C34.24 31.4 33.84 30.15 33.77 29.3C33.74 29.03 33.75 28.78 33.77 28.54C33.9 27.16 35.56 26.53 36.58 27.46L36.77 27.62C37.13 27.95 37.28 28.43 37.25 28.92C37.25 28.95 37.25 28.97 37.25 28.99C37.29 29.29 37.64 29.6 37.85 29.76L37.88 29.79C39.07 30.76 39.71 32.2 39.57 33.65C39.45 34.97 38.72 36.12 37.62 36.72C37.36 36.86 37.08 36.93 36.78 36.93Z" fill="#EDEEF1" fill-opacity="1.000000" fill-rule="nonzero"/>
		<path id="path" d="M36 15.32C36 15.4 36 15.49 36.02 15.58C36.04 15.66 36.06 15.74 36.1 15.82C36.13 15.9 36.17 15.98 36.22 16.05C36.27 16.12 36.32 16.19 36.38 16.25C36.44 16.31 36.51 16.37 36.58 16.42C36.66 16.47 36.73 16.51 36.81 16.54C36.89 16.57 36.97 16.6 37.06 16.61C37.14 16.63 37.23 16.64 37.32 16.64C37.4 16.64 37.49 16.63 37.58 16.61C37.66 16.6 37.74 16.57 37.82 16.54C37.9 16.51 37.98 16.47 38.05 16.42C38.12 16.37 38.19 16.31 38.25 16.25C38.31 16.19 38.37 16.12 38.42 16.05C38.47 15.98 38.51 15.9 38.54 15.82C38.57 15.74 38.6 15.66 38.61 15.58C38.63 15.49 38.64 15.4 38.64 15.32C38.64 15.23 38.63 15.14 38.61 15.06C38.6 14.97 38.57 14.89 38.54 14.81C38.51 14.73 38.47 14.65 38.42 14.58C38.37 14.51 38.31 14.44 38.25 14.38C38.19 14.32 38.12 14.27 38.05 14.22C37.98 14.17 37.9 14.13 37.82 14.1C37.74 14.06 37.66 14.04 37.58 14.02C37.49 14 37.4 14 37.32 14C37.23 14 37.14 14 37.06 14.02C36.97 14.04 36.89 14.06 36.81 14.1C36.73 14.13 36.66 14.17 36.58 14.22C36.51 14.27 36.44 14.32 36.38 14.38C36.32 14.44 36.27 14.51 36.22 14.58C36.17 14.65 36.13 14.73 36.1 14.81C36.06 14.89 36.04 14.97 36.02 15.06C36 15.14 36 15.23 36 15.32Z" fill="#FFFFFF" fill-opacity="1.000000" fill-rule="nonzero"/>
		<path id="path" d="M36 15.32C36 15.4 36 15.49 36.02 15.58C36.03 15.62 36.04 15.66 36.05 15.7L36.05 15.7C36.06 15.74 36.08 15.78 36.1 15.82C36.13 15.9 36.17 15.98 36.22 16.05C36.27 16.12 36.32 16.19 36.38 16.25C36.44 16.31 36.51 16.37 36.58 16.42C36.62 16.44 36.66 16.46 36.69 16.48C36.73 16.5 36.77 16.52 36.81 16.54C36.89 16.57 36.97 16.6 37.06 16.61C37.1 16.62 37.14 16.63 37.19 16.63L37.19 16.63L37.19 16.63C37.23 16.64 37.27 16.64 37.32 16.64C37.36 16.64 37.4 16.64 37.45 16.63L37.45 16.63C37.49 16.63 37.53 16.62 37.58 16.61C37.66 16.6 37.74 16.57 37.82 16.54C37.9 16.51 37.98 16.47 38.05 16.42C38.12 16.37 38.19 16.31 38.25 16.25C38.31 16.19 38.37 16.12 38.42 16.05C38.47 15.98 38.51 15.9 38.54 15.82C38.57 15.74 38.6 15.66 38.61 15.58C38.63 15.49 38.64 15.4 38.64 15.32C38.64 15.27 38.64 15.23 38.63 15.19L38.63 15.19C38.63 15.14 38.62 15.1 38.61 15.06C38.6 14.97 38.57 14.89 38.54 14.81C38.51 14.73 38.47 14.65 38.42 14.58C38.37 14.51 38.31 14.44 38.25 14.38C38.22 14.35 38.19 14.32 38.16 14.3C38.12 14.27 38.09 14.24 38.05 14.22C37.98 14.17 37.9 14.13 37.82 14.1C37.78 14.08 37.74 14.06 37.7 14.05C37.66 14.04 37.62 14.03 37.58 14.02C37.53 14.01 37.49 14.01 37.45 14L37.45 14L37.45 14C37.4 14 37.36 14 37.32 14C37.27 14 37.23 14 37.19 14L37.19 14L37.19 14C37.14 14.01 37.1 14.01 37.06 14.02C37.02 14.03 36.98 14.04 36.93 14.05L36.93 14.05C36.89 14.06 36.85 14.08 36.81 14.1C36.77 14.11 36.73 14.13 36.69 14.15L36.69 14.15C36.66 14.17 36.62 14.19 36.58 14.22C36.55 14.24 36.51 14.27 36.48 14.3C36.45 14.32 36.41 14.35 36.38 14.38C36.35 14.41 36.32 14.45 36.3 14.48L36.3 14.48L36.3 14.48C36.27 14.51 36.24 14.55 36.22 14.58C36.19 14.62 36.17 14.66 36.15 14.69L36.15 14.69C36.13 14.73 36.11 14.77 36.1 14.81C36.08 14.85 36.06 14.89 36.05 14.93L36.05 14.93L36.05 14.93C36.04 14.98 36.03 15.02 36.02 15.06C36.01 15.1 36.01 15.14 36 15.19C36 15.23 36 15.27 36 15.32ZM36.53 15.56C36.52 15.53 36.52 15.5 36.51 15.48C36.51 15.45 36.5 15.42 36.5 15.4C36.5 15.37 36.5 15.34 36.5 15.32C36.5 15.29 36.5 15.26 36.5 15.24C36.5 15.21 36.51 15.18 36.51 15.16C36.52 15.13 36.52 15.1 36.53 15.08C36.54 15.05 36.55 15.03 36.56 15C36.57 14.98 36.58 14.95 36.59 14.93C36.6 14.91 36.62 14.88 36.63 14.86C36.65 14.84 36.66 14.82 36.68 14.8C36.7 14.77 36.72 14.76 36.74 14.74C36.75 14.72 36.77 14.7 36.8 14.68C36.82 14.66 36.84 14.65 36.86 14.63C36.88 14.62 36.91 14.6 36.93 14.59C36.95 14.58 36.98 14.57 37 14.56C37.03 14.55 37.05 14.54 37.08 14.53C37.1 14.52 37.13 14.52 37.16 14.51C37.18 14.51 37.21 14.5 37.24 14.5C37.26 14.5 37.29 14.5 37.32 14.5C37.34 14.5 37.37 14.5 37.4 14.5C37.42 14.5 37.45 14.51 37.48 14.51C37.5 14.52 37.53 14.52 37.56 14.53C37.58 14.54 37.61 14.55 37.63 14.56C37.66 14.57 37.68 14.58 37.71 14.59C37.73 14.6 37.75 14.62 37.77 14.63C37.8 14.65 37.82 14.66 37.84 14.68C37.86 14.7 37.88 14.72 37.9 14.74C37.92 14.76 37.94 14.77 37.95 14.8C37.97 14.82 37.99 14.84 38 14.86C38.02 14.88 38.03 14.91 38.04 14.93C38.06 14.95 38.07 14.98 38.08 15C38.09 15.03 38.1 15.05 38.1 15.08C38.11 15.1 38.12 15.13 38.12 15.16C38.13 15.18 38.13 15.21 38.14 15.24C38.14 15.26 38.14 15.29 38.14 15.32C38.14 15.34 38.14 15.37 38.14 15.4C38.13 15.42 38.13 15.45 38.12 15.48C38.12 15.5 38.11 15.53 38.1 15.56C38.1 15.58 38.09 15.61 38.08 15.63C38.07 15.66 38.06 15.68 38.04 15.71C38.03 15.73 38.02 15.75 38 15.77C37.99 15.8 37.97 15.82 37.95 15.84C37.94 15.86 37.92 15.88 37.9 15.9C37.88 15.92 37.86 15.94 37.84 15.95C37.82 15.97 37.8 15.99 37.77 16C37.75 16.02 37.73 16.03 37.71 16.04C37.68 16.06 37.66 16.07 37.63 16.08C37.61 16.09 37.58 16.1 37.56 16.1C37.53 16.11 37.5 16.12 37.48 16.12C37.45 16.13 37.42 16.13 37.4 16.14C37.37 16.14 37.34 16.14 37.32 16.14C37.29 16.14 37.26 16.14 37.24 16.14C37.21 16.13 37.18 16.13 37.16 16.12C37.13 16.12 37.1 16.11 37.08 16.1C37.05 16.1 37.03 16.09 37 16.08C36.98 16.07 36.95 16.06 36.93 16.04C36.91 16.03 36.88 16.02 36.86 16C36.84 15.99 36.82 15.97 36.8 15.95C36.77 15.94 36.76 15.92 36.74 15.9C36.72 15.88 36.7 15.86 36.68 15.84C36.66 15.82 36.65 15.8 36.63 15.77C36.62 15.75 36.6 15.73 36.59 15.71C36.58 15.68 36.57 15.66 36.56 15.63C36.55 15.61 36.54 15.58 36.53 15.56Z" fill="#5089FC" fill-opacity="1.000000" fill-rule="evenodd"/>
		<path id="path" d="M32 15.32C32 15.4 32 15.49 32.02 15.58C32.04 15.66 32.06 15.74 32.1 15.82C32.13 15.9 32.17 15.98 32.22 16.05C32.27 16.12 32.32 16.19 32.38 16.25C32.44 16.31 32.51 16.37 32.58 16.42C32.66 16.47 32.73 16.51 32.81 16.54C32.89 16.57 32.97 16.6 33.06 16.61C33.14 16.63 33.23 16.64 33.32 16.64C33.4 16.64 33.49 16.63 33.58 16.61C33.66 16.6 33.74 16.57 33.82 16.54C33.9 16.51 33.98 16.47 34.05 16.42C34.12 16.37 34.19 16.31 34.25 16.25C34.31 16.19 34.37 16.12 34.42 16.05C34.47 15.98 34.51 15.9 34.54 15.82C34.57 15.74 34.6 15.66 34.61 15.58C34.63 15.49 34.64 15.4 34.64 15.32C34.64 15.23 34.63 15.14 34.61 15.06C34.6 14.97 34.57 14.89 34.54 14.81C34.51 14.73 34.47 14.65 34.42 14.58C34.37 14.51 34.31 14.44 34.25 14.38C34.19 14.32 34.12 14.27 34.05 14.22C33.98 14.17 33.9 14.13 33.82 14.1C33.74 14.06 33.66 14.04 33.58 14.02C33.49 14 33.4 14 33.32 14C33.23 14 33.14 14 33.06 14.02C32.97 14.04 32.89 14.06 32.81 14.1C32.73 14.13 32.66 14.17 32.58 14.22C32.51 14.27 32.44 14.32 32.38 14.38C32.32 14.44 32.27 14.51 32.22 14.58C32.17 14.65 32.13 14.73 32.1 14.81C32.06 14.89 32.04 14.97 32.02 15.06C32 15.14 32 15.23 32 15.32Z" fill="#FFFFFF" fill-opacity="1.000000" fill-rule="nonzero"/>
		<path id="path" d="M32 15.32C32 15.4 32 15.49 32.02 15.58C32.03 15.62 32.04 15.66 32.05 15.7L32.05 15.7C32.06 15.74 32.08 15.78 32.1 15.82C32.13 15.9 32.17 15.98 32.22 16.05C32.27 16.12 32.32 16.19 32.38 16.25C32.44 16.31 32.51 16.37 32.58 16.42C32.62 16.44 32.66 16.46 32.69 16.48C32.73 16.5 32.77 16.52 32.81 16.54C32.89 16.57 32.97 16.6 33.06 16.61C33.1 16.62 33.14 16.63 33.19 16.63L33.19 16.63L33.19 16.63C33.23 16.64 33.27 16.64 33.32 16.64C33.36 16.64 33.4 16.64 33.45 16.63L33.45 16.63C33.49 16.63 33.53 16.62 33.58 16.61C33.66 16.6 33.74 16.57 33.82 16.54C33.9 16.51 33.98 16.47 34.05 16.42C34.12 16.37 34.19 16.31 34.25 16.25C34.31 16.19 34.37 16.12 34.42 16.05C34.47 15.98 34.51 15.9 34.54 15.82C34.57 15.74 34.6 15.66 34.61 15.58C34.63 15.49 34.64 15.4 34.64 15.32C34.64 15.27 34.64 15.23 34.63 15.19L34.63 15.19C34.63 15.14 34.62 15.1 34.61 15.06C34.6 14.97 34.57 14.89 34.54 14.81C34.51 14.73 34.47 14.65 34.42 14.58C34.37 14.51 34.31 14.44 34.25 14.38C34.22 14.35 34.19 14.32 34.16 14.3C34.12 14.27 34.09 14.24 34.05 14.22C33.98 14.17 33.9 14.13 33.82 14.1C33.78 14.08 33.74 14.06 33.7 14.05C33.66 14.04 33.62 14.03 33.58 14.02C33.53 14.01 33.49 14.01 33.45 14L33.45 14L33.45 14C33.4 14 33.36 14 33.32 14C33.27 14 33.23 14 33.19 14L33.19 14L33.19 14C33.14 14.01 33.1 14.01 33.06 14.02C33.02 14.03 32.98 14.04 32.93 14.05L32.93 14.05C32.89 14.06 32.85 14.08 32.81 14.1C32.77 14.11 32.73 14.13 32.69 14.15L32.69 14.15C32.66 14.17 32.62 14.19 32.58 14.22C32.55 14.24 32.51 14.27 32.48 14.3C32.45 14.32 32.41 14.35 32.38 14.38C32.35 14.41 32.32 14.45 32.3 14.48L32.3 14.48L32.3 14.48C32.27 14.51 32.24 14.55 32.22 14.58C32.19 14.62 32.17 14.66 32.15 14.69L32.15 14.69C32.13 14.73 32.11 14.77 32.1 14.81C32.08 14.85 32.06 14.89 32.05 14.93L32.05 14.93L32.05 14.93C32.04 14.98 32.03 15.02 32.02 15.06C32.01 15.1 32.01 15.14 32 15.19C32 15.23 32 15.27 32 15.32ZM32.53 15.56C32.52 15.53 32.52 15.5 32.51 15.48C32.51 15.45 32.5 15.42 32.5 15.4C32.5 15.37 32.5 15.34 32.5 15.32C32.5 15.29 32.5 15.26 32.5 15.24C32.5 15.21 32.51 15.18 32.51 15.16C32.52 15.13 32.52 15.1 32.53 15.08C32.54 15.05 32.55 15.03 32.56 15C32.57 14.98 32.58 14.95 32.59 14.93C32.6 14.91 32.62 14.88 32.63 14.86C32.65 14.84 32.66 14.82 32.68 14.8C32.7 14.77 32.72 14.76 32.74 14.74C32.75 14.72 32.77 14.7 32.8 14.68C32.82 14.66 32.84 14.65 32.86 14.63C32.88 14.62 32.91 14.6 32.93 14.59C32.95 14.58 32.98 14.57 33 14.56C33.03 14.55 33.05 14.54 33.08 14.53C33.1 14.52 33.13 14.52 33.16 14.51C33.18 14.51 33.21 14.5 33.24 14.5C33.26 14.5 33.29 14.5 33.32 14.5C33.34 14.5 33.37 14.5 33.4 14.5C33.42 14.5 33.45 14.51 33.48 14.51C33.5 14.52 33.53 14.52 33.56 14.53C33.58 14.54 33.61 14.55 33.63 14.56C33.66 14.57 33.68 14.58 33.71 14.59C33.73 14.6 33.75 14.62 33.77 14.63C33.8 14.65 33.82 14.66 33.84 14.68C33.86 14.7 33.88 14.72 33.9 14.74C33.92 14.76 33.94 14.77 33.95 14.8C33.97 14.82 33.99 14.84 34 14.86C34.02 14.88 34.03 14.91 34.04 14.93C34.06 14.95 34.07 14.98 34.08 15C34.09 15.03 34.1 15.05 34.1 15.08C34.11 15.1 34.12 15.13 34.12 15.16C34.13 15.18 34.13 15.21 34.14 15.24C34.14 15.26 34.14 15.29 34.14 15.32C34.14 15.34 34.14 15.37 34.14 15.4C34.13 15.42 34.13 15.45 34.12 15.48C34.12 15.5 34.11 15.53 34.1 15.56C34.1 15.58 34.09 15.61 34.08 15.63C34.07 15.66 34.06 15.68 34.04 15.71C34.03 15.73 34.02 15.75 34 15.77C33.99 15.8 33.97 15.82 33.95 15.84C33.94 15.86 33.92 15.88 33.9 15.9C33.88 15.92 33.86 15.94 33.84 15.95C33.82 15.97 33.8 15.99 33.77 16C33.75 16.02 33.73 16.03 33.71 16.04C33.68 16.06 33.66 16.07 33.63 16.08C33.61 16.09 33.58 16.1 33.56 16.1C33.53 16.11 33.5 16.12 33.48 16.12C33.45 16.13 33.42 16.13 33.4 16.14C33.37 16.14 33.34 16.14 33.32 16.14C33.29 16.14 33.26 16.14 33.24 16.14C33.21 16.13 33.18 16.13 33.16 16.12C33.13 16.12 33.1 16.11 33.08 16.1C33.05 16.1 33.03 16.09 33 16.08C32.98 16.07 32.95 16.06 32.93 16.04C32.91 16.03 32.88 16.02 32.86 16C32.84 15.99 32.82 15.97 32.8 15.95C32.77 15.94 32.76 15.92 32.74 15.9C32.72 15.88 32.7 15.86 32.68 15.84C32.66 15.82 32.65 15.8 32.63 15.77C32.62 15.75 32.6 15.73 32.59 15.71C32.58 15.68 32.57 15.66 32.56 15.63C32.55 15.61 32.54 15.58 32.53 15.56Z" fill="#FF7F00" fill-opacity="1.000000" fill-rule="evenodd"/>
		<g opacity="0.600000">
			<path id="path" d="M41.06 4.11L9.1 4.11C8.62 4.11 8.22 3.72 8.22 3.23C8.22 2.75 8.62 2.35 9.1 2.35L41.06 2.35C41.54 2.35 41.93 2.75 41.93 3.23C41.93 3.72 41.54 4.11 41.06 4.11Z" fill="#FFFFFF" fill-opacity="1.000000" fill-rule="nonzero"/>
		</g>
		<path id="path" d="M47.93 18.28L47.93 15.98C47.91 16.6 47.62 19.27 43.83 19.27L43.34 19.27L43.34 21.55L44.67 21.55C46.47 21.54 47.93 20.08 47.93 18.28ZM5.52 21.54L6.81 21.54L6.81 19.27L6.35 19.27C6.35 19.27 2.27 19.46 2.27 15.12L2.27 18.28C2.26 20.08 3.72 21.54 5.52 21.54Z" fill="#909297" fill-opacity="1.000000" fill-rule="nonzero"/>
		<path id="path" d="M14.42 29.79L14.39 29.76C14.3 29.69 14.17 29.59 14.06 29.47C14.06 29.47 15.79 31.79 15.57 33.23C15.36 34.66 14.61 36.08 13.21 36.24C11.82 36.41 11.56 35.26 11.58 35.09C11.56 35.41 11.63 35.73 11.79 36.02C11.86 36.16 11.96 36.29 12.06 36.4C12.17 36.51 12.3 36.61 12.43 36.69C12.57 36.77 12.71 36.83 12.86 36.87C13.01 36.91 13.17 36.93 13.32 36.93C13.61 36.93 13.9 36.86 14.16 36.72C15.27 36.11 16 34.97 16.11 33.65C16.25 32.2 15.61 30.76 14.42 29.79ZM22.24 29.79L22.21 29.76C22.11 29.69 21.99 29.59 21.88 29.47C21.88 29.47 23.6 31.79 23.39 33.23C23.17 34.66 22.43 36.08 21.03 36.24C19.63 36.41 19.38 35.26 19.39 35.09C19.38 35.41 19.44 35.73 19.6 36.02C19.68 36.16 19.77 36.29 19.88 36.4C19.99 36.51 20.11 36.61 20.25 36.69C20.38 36.77 20.53 36.83 20.68 36.87C20.83 36.91 20.99 36.93 21.14 36.93C21.43 36.93 21.71 36.86 21.98 36.72C23.08 36.11 23.81 34.97 23.93 33.65C24.06 32.2 23.43 30.76 22.24 29.79ZM30.06 29.79L30.03 29.76C29.93 29.69 29.81 29.59 29.7 29.47C29.7 29.47 31.42 31.79 31.21 33.23C31 34.66 30.25 36.08 28.85 36.24C27.46 36.41 27.2 35.26 27.21 35.09C27.2 35.41 27.27 35.73 27.42 36.02C27.5 36.16 27.59 36.29 27.7 36.4C27.81 36.51 27.93 36.61 28.07 36.69C28.2 36.77 28.35 36.83 28.5 36.87C28.65 36.91 28.81 36.93 28.96 36.93C29.25 36.93 29.53 36.86 29.8 36.72C30.9 36.11 31.63 34.97 31.75 33.65C31.88 32.2 31.25 30.76 30.06 29.79ZM37.88 29.79L37.85 29.76C37.75 29.69 37.63 29.59 37.52 29.47C37.52 29.47 39.25 31.79 39.03 33.23C38.81 34.66 38.07 36.08 36.67 36.24C35.27 36.41 35.02 35.26 35.03 35.09C35.02 35.41 35.08 35.73 35.25 36.02C35.32 36.16 35.41 36.29 35.52 36.4C35.63 36.51 35.75 36.61 35.89 36.69C36.02 36.77 36.17 36.83 36.32 36.87C36.47 36.91 36.62 36.93 36.78 36.93C37.07 36.93 37.35 36.86 37.62 36.72C38.73 36.11 39.46 34.97 39.57 33.65C39.71 32.2 39.07 30.76 37.88 29.79Z" fill="#D1D4DB" fill-opacity="1.000000" fill-rule="nonzero"/>
		<path id="path" d="M12.23 32.52C12.46 32.71 12.56 32.9 12.6 33.05C12.6 32.71 12.33 32.24 11.98 31.79C10.79 30.38 10.57 29.77 10.76 28.64C10.96 27.47 12.33 27.09 12.4 27.07C11.46 26.84 10.42 27.46 10.31 28.54C10.29 28.78 10.29 29.03 10.31 29.3C10.39 30.15 10.79 31.4 12.23 32.52ZM20.05 32.52C20.27 32.71 20.37 32.9 20.42 33.05C20.41 32.71 20.14 32.24 19.8 31.79C18.6 30.38 18.39 29.77 18.58 28.64C18.78 27.47 20.15 27.09 20.22 27.07C19.28 26.84 18.24 27.46 18.13 28.54C18.11 28.78 18.1 29.03 18.13 29.3C18.2 30.15 18.6 31.4 20.05 32.52ZM27.87 32.52C28.1 32.71 28.2 32.9 28.24 33.05C28.23 32.71 27.96 32.24 27.62 31.79C26.42 30.38 26.21 29.77 26.4 28.64C26.6 27.47 27.97 27.09 28.04 27.07C27.1 26.84 26.06 27.46 25.95 28.54C25.93 28.78 25.93 29.03 25.95 29.3C26.02 30.15 26.42 31.4 27.87 32.52Z" fill="#D1D4DB" fill-opacity="1.000000" fill-rule="nonzero"/>
		<path id="path" d="M35.69 32.52C35.91 32.71 36.02 32.9 36.06 33.05C36.05 32.71 35.79 32.24 35.44 31.79C34.24 30.38 34.03 29.77 34.22 28.64C34.42 27.47 35.79 27.09 35.86 27.07C34.92 26.84 33.88 27.46 33.77 28.54C33.75 28.78 33.75 29.03 33.77 29.3C33.85 30.15 34.24 31.4 35.69 32.52Z" fill="#D1D4DB" fill-opacity="1.000000" fill-rule="nonzero"/>
		<rect id="画板 14513" rx="1.000000" width="4.000000" height="4.000000" transform="translate(40.000000 13.000000)" fill="#FFFFFF" fill-opacity="1.000000"/>
		<g clip-path="url(#clip10_3335)">
			<path id="path" d="M42 14C41.81 14 41.65 14.04 41.49 14.13C41.34 14.22 41.22 14.34 41.13 14.49C41.04 14.65 41 14.81 41 15C41 15.18 41.04 15.34 41.13 15.5C41.22 15.65 41.34 15.77 41.49 15.86C41.65 15.95 41.81 16 42 16C42.18 16 42.34 15.95 42.5 15.86C42.65 15.77 42.77 15.65 42.86 15.5C42.95 15.34 43 15.18 43 15C43 14.81 42.95 14.65 42.86 14.49C42.77 14.34 42.65 14.22 42.5 14.13C42.34 14.04 42.18 14 42 14ZM42 15.01C41.98 15.01 41.97 15.01 41.96 15C41.95 14.98 41.94 14.97 41.94 14.96L41.94 14.58C41.94 14.57 41.95 14.55 41.96 14.54C41.97 14.53 41.98 14.53 42 14.53C42.01 14.53 42.02 14.53 42.03 14.54C42.04 14.55 42.05 14.57 42.05 14.58L42.05 14.96C42.05 14.97 42.04 14.99 42.03 15C42.02 15.01 42.01 15.01 42 15.01ZM42 15.46C41.91 15.46 41.83 15.43 41.76 15.39C41.69 15.35 41.64 15.3 41.59 15.23C41.55 15.15 41.53 15.08 41.53 14.99C41.53 14.91 41.55 14.83 41.6 14.76C41.64 14.68 41.7 14.63 41.77 14.58C41.78 14.58 41.8 14.58 41.81 14.58C41.83 14.58 41.84 14.59 41.84 14.61C41.85 14.62 41.85 14.63 41.85 14.65C41.85 14.66 41.84 14.67 41.83 14.68C41.77 14.71 41.72 14.76 41.69 14.81C41.66 14.87 41.64 14.93 41.64 14.99C41.64 15.06 41.66 15.12 41.69 15.17C41.72 15.22 41.76 15.27 41.82 15.3C41.87 15.33 41.93 15.35 42 15.35C42.06 15.35 42.12 15.33 42.18 15.3C42.23 15.27 42.27 15.22 42.3 15.17C42.34 15.12 42.35 15.06 42.35 14.99C42.35 14.93 42.33 14.87 42.3 14.81C42.27 14.76 42.23 14.71 42.17 14.68C42.16 14.67 42.15 14.66 42.14 14.65C42.14 14.63 42.14 14.62 42.15 14.61C42.16 14.59 42.17 14.58 42.18 14.58C42.2 14.58 42.21 14.58 42.22 14.58C42.3 14.63 42.35 14.68 42.4 14.76C42.44 14.83 42.46 14.91 42.46 14.99C42.46 15.08 42.44 15.15 42.4 15.23C42.35 15.3 42.3 15.35 42.23 15.39C42.16 15.43 42.08 15.46 42 15.46Z" fill="#64BB5C" fill-opacity="1.000000" fill-rule="nonzero"/>
		</g>
	</g>
</svg>
