<svg width="20.290039" height="19.439941" viewBox="0 0 20.29 19.4399" fill="none" xmlns="http://www.w3.org/2000/svg" xmlns:xlink="http://www.w3.org/1999/xlink">
	<desc>
			Created with Pixso.
	</desc>
	<defs/>
	<path id="path" d="M16.28 0.81C15.92 0.46 15.51 0.22 15.03 0.09C14.55 -0.04 14.07 -0.04 13.6 0.09C13.13 0.22 12.72 0.46 12.37 0.81L2.07 11.26C1.78 11.54 1.57 11.88 1.45 12.28C1.32 12.66 1.28 13.06 1.33 13.46C1.2 13.75 0.9 14.62 0.44 16.08C0.32 16.38 0.2 16.74 0.08 17.16C-0.05 17.56 -0.03 17.94 0.15 18.31C0.33 18.67 0.6 18.95 0.97 19.12C1.33 19.3 1.72 19.32 2.12 19.2C2.45 19.08 2.78 18.97 3.1 18.86C4.35 18.44 5.22 18.17 5.72 18.04C5.8 18.06 5.87 18.07 5.95 18.08C6.02 18.09 6.1 18.1 6.18 18.1C6.54 18.1 6.89 18.02 7.22 17.87C7.54 17.73 7.84 17.52 8.12 17.26L18.42 6.81C18.75 6.46 18.98 6.05 19.1 5.57C19.22 5.1 19.22 4.64 19.11 4.18C18.99 3.71 18.76 3.3 18.42 2.94L16.28 0.81ZM7.06 16.2C6.8 16.45 6.51 16.58 6.18 16.58C5.84 16.58 5.54 16.45 5.29 16.2L3.15 14.06C2.91 13.81 2.79 13.53 2.79 13.18C2.79 12.84 2.91 12.54 3.15 12.29L4.5 10.92L8.41 14.83L7.06 16.2ZM9.46 13.78L5.55 9.85L13.42 1.84C13.68 1.58 13.97 1.45 14.31 1.45C14.65 1.45 14.94 1.58 15.2 1.84L17.34 4.01C17.58 4.26 17.7 4.56 17.7 4.9C17.7 5.23 17.58 5.52 17.34 5.78L9.46 13.78Z" fill="#FFFFFF" fill-opacity="0.600000" fill-rule="nonzero"/>
	<path id="path" d="M12.25 17.95C11.94 17.95 11.7 18.01 11.54 18.13C11.37 18.27 11.29 18.45 11.29 18.7C11.29 18.93 11.37 19.12 11.54 19.25C11.7 19.37 11.94 19.43 12.25 19.43L19.33 19.43C19.62 19.43 19.86 19.37 20.04 19.25C20.2 19.12 20.29 18.93 20.29 18.7C20.29 18.45 20.2 18.27 20.04 18.13C19.86 18.01 19.62 17.95 19.33 17.95L12.25 17.95Z" fill="#FFFFFF" fill-opacity="0.600000" fill-rule="nonzero"/>
</svg>
