<svg width="58.613281" height="58.613281" viewBox="0 0 58.6133 58.6133" fill="none" xmlns="http://www.w3.org/2000/svg" xmlns:xlink="http://www.w3.org/1999/xlink">
	<desc>
			Created with Pixso.
	</desc>
	<defs/>
	<path id="path" d="M29.3 0C24 0 19.11 1.3 14.61 3.92C10.11 6.55 6.55 10.11 3.91 14.61C1.3 19.11 0 24 0 29.3C0 34.6 1.3 39.5 3.91 44C6.55 48.49 10.11 52.06 14.61 54.69C19.11 57.3 24 58.61 29.3 58.61C34.6 58.61 39.5 57.3 44 54.69C48.49 52.06 52.06 48.49 54.69 44C57.3 39.5 58.61 34.6 58.61 29.3C58.61 24 57.3 19.11 54.69 14.61C52.06 10.11 48.49 6.55 44 3.92C39.5 1.3 34.6 0 29.3 0ZM29.3 29.81C28.87 29.81 28.5 29.64 28.18 29.3C27.86 28.96 27.7 28.58 27.7 28.16L27.7 17.2C27.7 16.77 27.86 16.4 28.18 16.08C28.5 15.76 28.87 15.6 29.3 15.6C29.76 15.6 30.15 15.75 30.45 16.05C30.75 16.35 30.9 16.73 30.9 17.2L30.9 28.16C30.9 28.62 30.74 29.01 30.42 29.33C30.1 29.65 29.73 29.81 29.3 29.81ZM29.3 42.8C26.83 42.8 24.56 42.19 22.48 40.98C20.41 39.77 18.78 38.13 17.57 36.05C16.34 33.99 15.73 31.72 15.73 29.25C15.73 26.76 16.36 24.45 17.62 22.31C18.88 20.18 20.58 18.5 22.72 17.28C23.09 17.06 23.51 17.02 23.97 17.14C24.41 17.27 24.72 17.52 24.87 17.92C25.09 18.29 25.14 18.71 25.04 19.17C24.93 19.61 24.69 19.92 24.31 20.08C22.64 21.02 21.33 22.31 20.37 23.97C19.41 25.6 18.93 27.36 18.93 29.25C18.93 31.12 19.4 32.84 20.34 34.42C21.28 36 22.55 37.27 24.13 38.21C25.69 39.13 27.43 39.59 29.35 39.59C31.24 39.59 32.98 39.13 34.58 38.21C36.18 37.27 37.44 36 38.37 34.42C39.27 32.84 39.73 31.12 39.73 29.25C39.73 27.36 39.25 25.6 38.29 23.97C37.33 22.31 36.04 21.02 34.42 20.08C34 19.92 33.73 19.61 33.62 19.17C33.52 18.71 33.57 18.29 33.78 17.92C34 17.52 34.31 17.27 34.74 17.14C35.17 17.02 35.58 17.06 35.97 17.28C38.14 18.47 39.84 20.14 41.09 22.29C42.31 24.44 42.93 26.76 42.93 29.25C42.93 31.72 42.31 33.99 41.09 36.05C39.84 38.13 38.19 39.77 36.13 40.98C34.05 42.19 31.77 42.8 29.3 42.8Z" fill="#FFFFFF" fill-opacity="1.000000" fill-rule="nonzero"/>
</svg>
