<svg width="24.000000" height="24.000000" viewBox="0 0 24 24" fill="none" xmlns="http://www.w3.org/2000/svg" xmlns:xlink="http://www.w3.org/1999/xlink">
	<desc>
			Created with Pixso.
	</desc>
	<defs>
		<clipPath id="clip20_3267">
			<rect id="icon_heat" width="24.000000" height="24.000000" fill="white" fill-opacity="0"/>
		</clipPath>
	</defs>
	<g clip-path="url(#clip20_3267)">
		<path id="path" d="M11.98 7.38C11.83 7.38 11.68 7.39 11.53 7.4C11.38 7.42 11.23 7.44 11.08 7.47C10.93 7.5 10.79 7.53 10.64 7.58C10.5 7.62 10.35 7.67 10.21 7.73C10.07 7.79 9.94 7.85 9.8 7.92C9.67 7.99 9.54 8.07 9.41 8.16C9.29 8.24 9.17 8.33 9.05 8.43C8.93 8.52 8.82 8.62 8.71 8.73C8.61 8.84 8.51 8.95 8.41 9.07C8.31 9.18 8.22 9.3 8.14 9.43C8.05 9.56 7.98 9.69 7.91 9.82C7.83 9.95 7.77 10.09 7.71 10.23C7.65 10.37 7.6 10.51 7.56 10.65C7.51 10.8 7.48 10.95 7.45 11.09C7.42 11.24 7.4 11.39 7.38 11.54C7.37 11.69 7.36 11.84 7.36 12C7.36 12.15 7.37 12.3 7.38 12.45C7.4 12.6 7.42 12.75 7.45 12.9C7.48 13.04 7.51 13.19 7.56 13.33C7.6 13.48 7.65 13.62 7.71 13.76C7.77 13.9 7.83 14.04 7.9 14.17C7.98 14.3 8.05 14.43 8.14 14.56C8.22 14.69 8.31 14.81 8.41 14.92C8.5 15.04 8.61 15.15 8.71 15.26C8.82 15.37 8.93 15.47 9.05 15.56C9.17 15.66 9.29 15.75 9.41 15.83C9.54 15.92 9.67 15.99 9.8 16.07C9.94 16.14 10.07 16.2 10.21 16.26C10.35 16.32 10.5 16.37 10.64 16.41C10.78 16.46 10.93 16.49 11.08 16.52C11.23 16.55 11.38 16.57 11.53 16.59C11.68 16.6 11.83 16.61 11.98 16.61C12.13 16.61 12.28 16.6 12.43 16.59C12.59 16.57 12.74 16.55 12.88 16.52C13.03 16.49 13.18 16.46 13.32 16.41C13.47 16.37 13.61 16.32 13.75 16.26C13.89 16.2 14.03 16.14 14.16 16.07C14.29 15.99 14.42 15.92 14.55 15.83C14.68 15.75 14.8 15.66 14.91 15.56C15.03 15.47 15.14 15.37 15.25 15.26C15.36 15.15 15.46 15.04 15.55 14.92C15.65 14.81 15.74 14.68 15.82 14.56C15.91 14.43 15.99 14.3 16.06 14.17C16.13 14.04 16.19 13.9 16.25 13.76C16.31 13.62 16.36 13.48 16.4 13.33C16.45 13.19 16.48 13.04 16.51 12.9C16.54 12.75 16.57 12.6 16.58 12.45C16.6 12.3 16.6 12.15 16.6 12C16.6 11.84 16.6 11.69 16.58 11.54C16.57 11.39 16.54 11.24 16.51 11.09C16.48 10.95 16.45 10.8 16.4 10.66C16.36 10.51 16.31 10.37 16.25 10.23C16.19 10.09 16.13 9.95 16.06 9.82C15.99 9.69 15.91 9.56 15.83 9.43C15.74 9.31 15.65 9.18 15.56 9.07C15.46 8.95 15.36 8.84 15.25 8.73C15.14 8.63 15.03 8.52 14.91 8.43C14.8 8.33 14.68 8.24 14.55 8.16C14.42 8.07 14.29 8 14.16 7.92C14.03 7.85 13.89 7.79 13.75 7.73C13.61 7.67 13.47 7.62 13.32 7.58C13.18 7.53 13.03 7.5 12.89 7.47C12.74 7.44 12.59 7.42 12.44 7.4C12.29 7.39 12.14 7.38 11.98 7.38ZM11.98 5.07C12.41 5.07 12.75 4.73 12.75 4.3L12.75 2.76C12.75 2.71 12.75 2.66 12.74 2.61C12.73 2.56 12.71 2.52 12.69 2.47C12.68 2.42 12.65 2.38 12.62 2.34C12.6 2.29 12.56 2.26 12.53 2.22C12.49 2.18 12.45 2.15 12.41 2.12C12.37 2.1 12.32 2.07 12.28 2.05C12.23 2.03 12.18 2.02 12.13 2.01C12.08 2 12.03 2 11.98 2C11.93 2 11.88 2 11.83 2.01C11.78 2.02 11.74 2.03 11.69 2.05C11.64 2.07 11.6 2.1 11.56 2.12C11.51 2.15 11.47 2.18 11.44 2.22C11.4 2.26 11.37 2.29 11.34 2.34C11.31 2.38 11.29 2.42 11.27 2.47C11.25 2.52 11.24 2.56 11.23 2.61C11.22 2.66 11.21 2.71 11.21 2.76L11.21 4.3C11.21 4.73 11.56 5.07 11.98 5.07ZM11.98 18.92C11.93 18.92 11.88 18.92 11.83 18.93C11.78 18.94 11.74 18.96 11.69 18.98C11.64 19 11.6 19.02 11.56 19.05C11.51 19.08 11.47 19.11 11.44 19.14C11.4 19.18 11.37 19.22 11.34 19.26C11.31 19.3 11.29 19.35 11.27 19.39C11.25 19.44 11.24 19.49 11.23 19.54C11.22 19.59 11.21 19.64 11.21 19.69L11.21 21.23C11.21 21.28 11.22 21.33 11.23 21.38C11.24 21.43 11.25 21.47 11.27 21.52C11.29 21.57 11.31 21.61 11.34 21.65C11.37 21.7 11.4 21.73 11.44 21.77C11.47 21.81 11.51 21.84 11.56 21.87C11.6 21.89 11.64 21.92 11.69 21.94C11.74 21.96 11.78 21.97 11.83 21.98C11.88 21.99 11.93 22 11.98 22C12.03 22 12.08 21.99 12.13 21.98C12.18 21.97 12.23 21.96 12.28 21.94C12.32 21.92 12.37 21.89 12.41 21.87C12.45 21.84 12.49 21.81 12.53 21.77C12.56 21.73 12.6 21.7 12.62 21.65C12.65 21.61 12.68 21.57 12.69 21.52C12.71 21.47 12.73 21.43 12.74 21.38C12.75 21.33 12.75 21.28 12.75 21.23L12.75 19.69C12.75 19.26 12.41 18.92 11.98 18.92ZM21.23 11.23L19.68 11.23C19.63 11.23 19.58 11.23 19.53 11.24C19.48 11.25 19.44 11.27 19.39 11.28C19.34 11.3 19.3 11.33 19.26 11.36C19.21 11.38 19.18 11.42 19.14 11.45C19.1 11.49 19.07 11.53 19.04 11.57C19.02 11.61 18.99 11.65 18.97 11.7C18.95 11.75 18.94 11.8 18.93 11.85C18.92 11.89 18.91 11.94 18.91 12C18.91 12.05 18.92 12.1 18.93 12.15C18.94 12.19 18.95 12.24 18.97 12.29C18.99 12.34 19.02 12.38 19.04 12.42C19.07 12.46 19.1 12.5 19.14 12.54C19.18 12.57 19.21 12.61 19.26 12.63C19.3 12.66 19.34 12.69 19.39 12.71C19.44 12.73 19.48 12.74 19.53 12.75C19.58 12.76 19.63 12.76 19.68 12.76L21.23 12.76C21.28 12.76 21.33 12.76 21.37 12.75C21.42 12.74 21.47 12.73 21.52 12.71C21.57 12.69 21.61 12.66 21.65 12.63C21.69 12.61 21.73 12.57 21.77 12.54C21.81 12.5 21.84 12.46 21.87 12.42C21.89 12.38 21.92 12.34 21.94 12.29C21.96 12.24 21.97 12.19 21.98 12.15C21.99 12.1 22 12.05 22 12C22 11.94 21.99 11.89 21.98 11.85C21.97 11.8 21.96 11.75 21.94 11.7C21.92 11.65 21.89 11.61 21.87 11.57C21.84 11.53 21.81 11.49 21.77 11.45C21.73 11.42 21.69 11.38 21.65 11.36C21.61 11.33 21.57 11.3 21.52 11.28C21.47 11.27 21.42 11.25 21.37 11.24C21.33 11.23 21.28 11.23 21.23 11.23ZM5.05 12C5.05 11.94 5.05 11.89 5.04 11.85C5.03 11.8 5.01 11.75 4.99 11.7C4.97 11.65 4.95 11.61 4.92 11.57C4.89 11.53 4.86 11.49 4.83 11.45C4.79 11.42 4.75 11.38 4.71 11.36C4.67 11.33 4.62 11.3 4.58 11.28C4.53 11.26 4.48 11.25 4.43 11.24C4.38 11.23 4.33 11.23 4.28 11.23L2.74 11.23C2.69 11.23 2.64 11.23 2.59 11.24C2.55 11.26 2.5 11.27 2.45 11.29C2.41 11.31 2.37 11.34 2.32 11.36C2.28 11.39 2.25 11.42 2.21 11.46C2.18 11.5 2.15 11.53 2.12 11.58C2.09 11.62 2.07 11.66 2.05 11.71C2.03 11.75 2.02 11.8 2.01 11.85C2 11.9 2 11.95 2 12C2 12.04 2 12.09 2.01 12.14C2.02 12.19 2.03 12.24 2.05 12.28C2.07 12.33 2.09 12.37 2.12 12.41C2.15 12.46 2.18 12.49 2.21 12.53C2.25 12.57 2.28 12.6 2.32 12.63C2.37 12.65 2.41 12.68 2.45 12.7C2.5 12.72 2.55 12.73 2.59 12.75C2.64 12.76 2.69 12.76 2.74 12.76L4.28 12.76C4.33 12.76 4.38 12.76 4.43 12.75C4.48 12.74 4.53 12.73 4.58 12.71C4.62 12.69 4.67 12.66 4.71 12.63C4.75 12.61 4.79 12.57 4.83 12.54C4.86 12.5 4.89 12.46 4.92 12.42C4.95 12.38 4.97 12.34 4.99 12.29C5.01 12.24 5.03 12.19 5.04 12.15C5.05 12.1 5.05 12.05 5.05 12ZM17.97 7.1L19.06 6.01C19.1 5.98 19.13 5.94 19.16 5.89C19.19 5.85 19.21 5.81 19.23 5.76C19.25 5.71 19.26 5.67 19.27 5.62C19.28 5.57 19.29 5.52 19.29 5.47C19.29 5.42 19.28 5.37 19.27 5.32C19.26 5.27 19.25 5.22 19.23 5.17C19.21 5.13 19.19 5.08 19.16 5.04C19.13 5 19.1 4.96 19.06 4.92C19.03 4.89 18.99 4.86 18.95 4.83C18.9 4.8 18.86 4.78 18.81 4.76C18.77 4.74 18.72 4.72 18.67 4.71C18.62 4.7 18.57 4.7 18.52 4.7C18.47 4.7 18.42 4.7 18.37 4.71C18.32 4.72 18.27 4.74 18.22 4.76C18.18 4.78 18.13 4.8 18.09 4.83C18.05 4.86 18.01 4.89 17.97 4.92L16.88 6.01C16.85 6.05 16.82 6.09 16.79 6.13C16.76 6.17 16.74 6.21 16.72 6.26C16.7 6.31 16.68 6.36 16.67 6.4C16.66 6.45 16.66 6.5 16.66 6.55C16.66 6.61 16.66 6.66 16.67 6.7C16.68 6.75 16.7 6.8 16.72 6.85C16.74 6.9 16.76 6.94 16.79 6.98C16.82 7.02 16.85 7.06 16.88 7.1C16.92 7.13 16.96 7.17 17 7.19C17.04 7.22 17.09 7.25 17.13 7.27C17.18 7.28 17.23 7.3 17.28 7.31C17.33 7.32 17.38 7.32 17.43 7.32C17.48 7.32 17.53 7.32 17.58 7.31C17.63 7.3 17.68 7.28 17.72 7.27C17.77 7.25 17.81 7.22 17.86 7.19C17.9 7.17 17.94 7.13 17.97 7.1ZM5.99 16.89L4.9 17.98C4.87 18.01 4.84 18.05 4.81 18.1C4.78 18.14 4.76 18.18 4.74 18.23C4.73 18.27 4.71 18.32 4.7 18.37C4.69 18.42 4.69 18.47 4.69 18.52C4.69 18.57 4.7 18.62 4.71 18.67C4.72 18.71 4.73 18.76 4.75 18.81C4.77 18.85 4.79 18.9 4.82 18.94C4.85 18.98 4.88 19.02 4.92 19.05C4.95 19.09 4.99 19.12 5.03 19.15C5.07 19.17 5.12 19.2 5.16 19.22C5.21 19.24 5.25 19.25 5.3 19.26C5.35 19.27 5.4 19.28 5.45 19.28C5.5 19.28 5.55 19.27 5.6 19.27C5.65 19.26 5.7 19.24 5.74 19.22C5.79 19.21 5.83 19.18 5.87 19.16C5.92 19.13 5.96 19.1 5.99 19.07L7.08 17.98C7.12 17.94 7.15 17.9 7.17 17.86C7.2 17.82 7.22 17.78 7.24 17.73C7.26 17.68 7.27 17.64 7.28 17.59C7.29 17.54 7.29 17.49 7.29 17.44C7.29 17.39 7.29 17.34 7.28 17.29C7.27 17.24 7.25 17.2 7.23 17.15C7.21 17.1 7.19 17.06 7.16 17.02C7.13 16.98 7.1 16.94 7.07 16.9C7.03 16.87 6.99 16.84 6.95 16.81C6.91 16.78 6.87 16.76 6.82 16.74C6.78 16.72 6.73 16.71 6.68 16.7C6.63 16.69 6.58 16.68 6.53 16.68C6.48 16.68 6.43 16.68 6.38 16.69C6.34 16.7 6.29 16.71 6.24 16.73C6.19 16.75 6.15 16.77 6.11 16.8C6.07 16.83 6.03 16.86 5.99 16.89ZM17.98 16.89C17.94 16.85 17.9 16.82 17.86 16.79C17.82 16.77 17.77 16.74 17.72 16.72C17.68 16.7 17.63 16.69 17.58 16.68C17.53 16.67 17.48 16.67 17.43 16.67C17.38 16.67 17.33 16.67 17.28 16.68C17.23 16.69 17.18 16.7 17.13 16.72C17.09 16.74 17.04 16.77 17 16.79C16.96 16.82 16.92 16.85 16.88 16.89C16.85 16.93 16.82 16.96 16.79 17.01C16.76 17.05 16.74 17.09 16.72 17.14C16.7 17.19 16.68 17.23 16.67 17.28C16.66 17.33 16.66 17.38 16.66 17.43C16.66 17.48 16.66 17.53 16.67 17.58C16.68 17.63 16.7 17.68 16.72 17.73C16.74 17.78 16.76 17.82 16.79 17.86C16.82 17.9 16.85 17.94 16.88 17.98L17.97 19.07C18.01 19.1 18.05 19.13 18.09 19.16C18.13 19.19 18.18 19.21 18.22 19.23C18.27 19.25 18.32 19.27 18.37 19.28C18.42 19.29 18.47 19.29 18.52 19.29C18.57 19.29 18.62 19.29 18.67 19.28C18.72 19.27 18.77 19.25 18.81 19.23C18.86 19.21 18.9 19.19 18.95 19.16C18.99 19.13 19.03 19.1 19.06 19.07C19.1 19.03 19.13 18.99 19.16 18.95C19.19 18.91 19.21 18.86 19.23 18.82C19.25 18.77 19.27 18.72 19.27 18.67C19.28 18.62 19.29 18.57 19.29 18.52C19.29 18.47 19.28 18.42 19.27 18.37C19.27 18.32 19.25 18.27 19.23 18.23C19.21 18.18 19.19 18.14 19.16 18.09C19.13 18.05 19.1 18.01 19.06 17.98L17.98 16.89ZM5.99 4.92C5.96 4.89 5.92 4.86 5.87 4.83C5.83 4.81 5.79 4.78 5.74 4.77C5.7 4.75 5.65 4.73 5.6 4.72C5.55 4.72 5.5 4.71 5.45 4.71C5.4 4.71 5.35 4.72 5.3 4.73C5.25 4.74 5.21 4.75 5.16 4.77C5.12 4.79 5.07 4.82 5.03 4.84C4.99 4.87 4.95 4.9 4.92 4.94C4.88 4.97 4.85 5.01 4.82 5.05C4.79 5.09 4.77 5.14 4.75 5.18C4.73 5.23 4.72 5.28 4.71 5.32C4.7 5.37 4.69 5.42 4.69 5.47C4.69 5.52 4.69 5.57 4.7 5.62C4.71 5.67 4.73 5.72 4.74 5.76C4.76 5.81 4.78 5.85 4.81 5.89C4.84 5.94 4.87 5.98 4.9 6.01L5.99 7.1C6.03 7.13 6.07 7.17 6.11 7.19C6.15 7.22 6.19 7.25 6.24 7.27C6.29 7.29 6.34 7.3 6.39 7.31C6.44 7.32 6.49 7.32 6.54 7.32C6.59 7.32 6.64 7.32 6.69 7.31C6.74 7.3 6.78 7.29 6.83 7.27C6.88 7.25 6.92 7.22 6.96 7.19C7.01 7.17 7.05 7.13 7.08 7.1C7.12 7.06 7.15 7.02 7.18 6.98C7.2 6.94 7.23 6.9 7.25 6.85C7.27 6.8 7.28 6.75 7.29 6.71C7.3 6.66 7.31 6.61 7.31 6.55C7.31 6.5 7.3 6.45 7.29 6.4C7.28 6.36 7.27 6.31 7.25 6.26C7.23 6.21 7.2 6.17 7.18 6.13C7.15 6.09 7.12 6.05 7.08 6.01L5.99 4.92Z" fill="#FFFFFF" fill-opacity="1.000000" fill-rule="nonzero"/>
	</g>
</svg>
