<svg width="24.000000" height="24.000000" viewBox="0 0 24 24" fill="none" xmlns="http://www.w3.org/2000/svg" xmlns:xlink="http://www.w3.org/1999/xlink">
	<desc>
			Created with Pixso.
	</desc>
	<defs>
		<clipPath id="clip20_3235">
			<rect id="icon_wind_speed01" width="24.000000" height="24.000000" fill="white" fill-opacity="0"/>
		</clipPath>
	</defs>
	<g clip-path="url(#clip20_3235)">
		<g opacity="0.000000">
			<rect id="rect" width="24.000000" height="24.000000" fill="#000000" fill-opacity="1.000000"/>
		</g>
		<path id="矢量 230" d="M17.94 3.88C18.55 4.68 18.86 5.7 18.86 6.93C18.86 8.16 18.55 9.17 17.94 9.97C17.32 10.77 16.52 11.37 15.54 11.76C14.55 12.16 13.49 12.38 12.36 12.42L12.36 3.52C12.36 2.38 13.31 1.45 14.41 1.73C14.8 1.82 15.18 1.95 15.55 2.09C16.53 2.49 17.32 3.08 17.94 3.88ZM12.36 12.42C11.6 13.4 11.04 14.42 10.66 15.48C10.27 16.53 10.17 17.57 10.37 18.6C10.56 19.62 11.12 20.53 12.07 21.34C13.01 22.12 14 22.52 15.04 22.53Q15.4 22.54 15.76 22.5Q16.94 22.36 18.07 21.72C18.48 21.48 18.87 21.21 19.26 20.92C20.15 20.22 20.05 18.9 19.19 18.17L12.36 12.42ZM12.36 12.42C11.89 11.29 11.29 10.29 10.57 9.43C9.84 8.58 8.98 7.98 8 7.63C7.02 7.27 5.95 7.3 4.79 7.72C3.64 8.14 2.8 8.8 2.28 9.7C1.75 10.61 1.48 11.62 1.48 12.74Q1.47 13.45 1.57 14.18C1.72 15.3 2.92 15.87 3.98 15.48L12.36 12.42Z" fill="#FFFFFF" fill-opacity="1.000000" fill-rule="evenodd"/>
	</g>
</svg>
