<svg width="24.000000" height="24.000000" viewBox="0 0 24 24" fill="none" xmlns="http://www.w3.org/2000/svg" xmlns:xlink="http://www.w3.org/1999/xlink">
	<desc>
			Created with Pixso.
	</desc>
	<defs>
		<clipPath id="clip163_7699">
			<rect id="icon_blow" width="24.000000" height="24.000000" fill="white" fill-opacity="0"/>
		</clipPath>
	</defs>
	<g clip-path="url(#clip163_7699)">
		<g opacity="0.000000">
			<rect id="rect" width="24.000000" height="24.000000" fill="#FFFFFF" fill-opacity="1.000000"/>
		</g>
		<path id="矢量 235" d="M7.72 7.87C9.1 7.87 10.45 7.61 11.78 7.09C11.99 7.02 12.19 6.93 12.37 6.85C13.31 6.47 14.13 6.19 14.83 6.02C15.55 5.84 16.34 5.83 17.21 5.98C18.09 6.14 18.97 6.56 19.87 7.25C20.03 7.37 20.21 7.42 20.41 7.4C20.63 7.38 20.8 7.29 20.92 7.13C21.05 6.96 21.1 6.78 21.08 6.57C21.05 6.36 20.96 6.19 20.8 6.06C19.7 5.22 18.61 4.7 17.54 4.52C16.47 4.33 15.51 4.34 14.67 4.54C13.83 4.75 12.89 5.05 11.85 5.46C11.66 5.53 11.44 5.6 11.25 5.68C9.58 6.32 8.1 6.54 6.84 6.33C5.59 6.12 4.65 5.85 4.03 5.52C3.84 5.42 3.64 5.4 3.45 5.45C3.26 5.51 3.11 5.63 3 5.8C2.88 5.98 2.85 6.17 2.91 6.37C2.97 6.56 3.08 6.72 3.25 6.83C3.67 7.06 4.33 7.31 5.08 7.54C5.82 7.76 6.7 7.87 7.72 7.87ZM7.73 13.73C9.07 13.73 10.41 13.46 11.78 12.93L12.04 12.84L12.41 12.7C13.35 12.31 14.17 12.03 14.89 11.87C15.6 11.7 16.39 11.68 17.25 11.83C18.12 11.97 19 12.39 19.9 13.08C20.06 13.2 20.24 13.26 20.45 13.24C20.65 13.21 20.82 13.12 20.95 12.96C21.07 12.78 21.12 12.6 21.1 12.39C21.06 12.2 20.97 12.03 20.81 11.89C19.72 11.05 18.64 10.53 17.57 10.36C16.49 10.17 15.53 10.17 14.69 10.37C13.84 10.56 12.9 10.86 11.87 11.27C11.75 11.34 11.51 11.44 11.25 11.53C10.07 11.99 8.95 12.21 7.91 12.2C6.87 12.19 6.03 12.09 5.39 11.89C4.74 11.68 4.29 11.51 4.06 11.38C3.88 11.26 3.66 11.23 3.47 11.28C3.27 11.35 3.11 11.46 3 11.64C2.9 11.81 2.88 12 2.94 12.22C2.99 12.42 3.11 12.57 3.29 12.66C3.56 12.85 4.12 13.1 4.91 13.36C5.72 13.6 6.65 13.73 7.73 13.73ZM11.78 18.84C10.4 19.35 9.05 19.61 7.73 19.61Q6.54 19.61 5.58 19.39C4.93 19.25 4.45 19.11 4.16 18.98C3.86 18.85 3.57 18.72 3.29 18.58C3.11 18.46 2.99 18.31 2.94 18.11C2.88 17.91 2.9 17.72 3 17.54C3.11 17.36 3.27 17.25 3.47 17.2C3.66 17.14 3.88 17.16 4.06 17.28Q4.41 17.5 5.39 17.79C6.03 18 6.87 18.1 7.91 18.11C8.95 18.11 10.07 17.88 11.25 17.42L11.87 17.18C12.9 16.76 13.84 16.46 14.69 16.27C15.53 16.07 16.49 16.07 17.57 16.25Q19.17 16.51 20.81 17.78C20.97 17.91 21.06 18.08 21.1 18.29C21.12 18.49 21.07 18.68 20.95 18.84C20.82 19.01 20.65 19.11 20.45 19.14C20.24 19.16 20.06 19.11 19.9 18.98Q18.54 17.92 17.24 17.71C16.37 17.57 15.58 17.58 14.87 17.76Q13.82 18.02 12.41 18.6L12.04 18.74L11.78 18.84Z" fill="#FFFFFF" fill-opacity="1.000000" fill-rule="evenodd"/>
	</g>
</svg>
