<svg width="24.000000" height="24.000000" viewBox="0 0 24 24" fill="none" xmlns="http://www.w3.org/2000/svg" xmlns:xlink="http://www.w3.org/1999/xlink">
	<desc>
			Created with Pixso.
	</desc>
	<defs>
		<clipPath id="clip20_4262">
			<rect id="icon_sweeping_down" width="24.000000" height="24.000000" fill="white" fill-opacity="0"/>
		</clipPath>
	</defs>
	<g clip-path="url(#clip20_4262)">
		<g opacity="0.000000">
			<rect id="rect" width="24.000000" height="24.000000" fill="#000000" fill-opacity="1.000000"/>
		</g>
		<path id="path" d="M2.63 22.1C2.43 22.1 2.25 22.03 2.1 21.89C1.96 21.74 1.89 21.56 1.89 21.36L1.89 5.14C1.89 4.56 2.04 4.02 2.33 3.53C2.63 3.03 3.02 2.63 3.52 2.33C4.02 2.04 4.56 1.9 5.15 1.9L21.35 1.9C21.56 1.9 21.74 1.96 21.88 2.1C22.02 2.25 22.09 2.43 22.09 2.64C22.09 2.84 22.02 3.02 21.88 3.17C21.74 3.31 21.56 3.38 21.35 3.38L5.15 3.38C4.67 3.38 4.26 3.55 3.91 3.9C3.57 4.24 3.4 4.66 3.4 5.14L3.4 21.36C3.4 21.56 3.33 21.74 3.17 21.89C3.02 22.03 2.84 22.1 2.63 22.1Z" fill="#FFFFFF" fill-opacity="1.000000" fill-rule="nonzero"/>
		<path id="path" d="M6.19 21.31C5.93 21.29 5.73 21.21 5.57 21.07C5.41 20.93 5.33 20.75 5.33 20.54C5.34 20.33 5.43 20.16 5.59 20.02C5.75 19.87 5.95 19.79 6.19 19.79C6.77 19.79 7.32 19.77 7.85 19.73C8.05 19.7 8.23 19.76 8.39 19.9C8.54 20.02 8.63 20.19 8.66 20.4C8.68 20.6 8.62 20.79 8.5 20.95C8.36 21.11 8.19 21.2 7.99 21.22C7.47 21.28 6.87 21.31 6.19 21.31ZM10.85 20.64C10.69 20.64 10.54 20.58 10.4 20.48C10.26 20.37 10.17 20.25 10.13 20.09C10.06 19.89 10.08 19.7 10.18 19.52C10.27 19.34 10.41 19.21 10.61 19.15C11.18 18.95 11.83 18.68 12.55 18.34C12.73 18.24 12.92 18.22 13.12 18.29C13.32 18.35 13.46 18.46 13.56 18.65C13.65 18.82 13.67 19.01 13.61 19.2C13.54 19.41 13.42 19.56 13.25 19.66C12.93 19.83 12.54 20.01 12.08 20.2C11.62 20.37 11.21 20.52 10.85 20.64ZM15.74 17.87C15.58 17.99 15.41 18.04 15.25 18.02C15.08 18 14.93 17.92 14.81 17.78C14.66 17.62 14.59 17.43 14.6 17.23C14.61 17.02 14.69 16.85 14.83 16.73C15.31 16.29 15.78 15.76 16.25 15.14C16.37 14.98 16.54 14.88 16.74 14.86C16.94 14.82 17.12 14.87 17.3 15C17.46 15.12 17.55 15.29 17.59 15.49C17.62 15.69 17.57 15.88 17.45 16.06C17.01 16.63 16.48 17.21 15.84 17.81L15.74 17.87ZM19.08 13.37C18.98 13.56 18.84 13.69 18.65 13.75C18.45 13.81 18.26 13.81 18.07 13.73C17.87 13.65 17.75 13.51 17.69 13.31C17.62 13.11 17.64 12.91 17.74 12.72C18.07 11.98 18.34 11.32 18.55 10.73C18.61 10.52 18.74 10.37 18.92 10.28C19.1 10.19 19.29 10.18 19.49 10.25C19.69 10.31 19.84 10.43 19.93 10.63C20.01 10.82 20.03 11.01 19.97 11.21C19.68 12.02 19.38 12.74 19.08 13.37ZM20.78 8.2C20.73 8.41 20.64 8.56 20.5 8.66C20.35 8.76 20.15 8.81 19.9 8.81C19.68 8.76 19.52 8.65 19.42 8.47C19.3 8.31 19.26 8.12 19.3 7.92C19.46 7.12 19.55 6.4 19.58 5.78C19.6 5.57 19.68 5.4 19.82 5.26C19.96 5.11 20.14 5.04 20.35 5.06C20.54 5.07 20.7 5.15 20.84 5.29C20.98 5.43 21.05 5.59 21.07 5.78C21.07 5.9 21.05 6.26 21.01 6.7C20.97 7.12 20.89 7.63 20.78 8.2Z" fill="#FFFFFF" fill-opacity="0.400000" fill-rule="nonzero"/>
		<path id="path" d="M9.6 11.65C9.53 11.47 9.4 11.34 9.22 11.27C9.06 11.2 8.89 11.2 8.72 11.26C8.54 11.34 8.41 11.47 8.35 11.65C8.27 11.82 8.27 12 8.33 12.17L10.87 18.32L10.06 18.63C9.91 18.68 9.82 18.77 9.77 18.91C9.72 19.04 9.73 19.17 9.8 19.29C9.85 19.41 9.95 19.49 10.08 19.52L12.14 20.36C12.27 20.41 12.39 20.41 12.51 20.36C12.62 20.31 12.7 20.23 12.75 20.12L13.6 18.05C13.66 17.94 13.66 17.83 13.6 17.72C13.56 17.61 13.48 17.53 13.37 17.48C13.26 17.43 13.15 17.43 13.04 17.48L12.2 17.81L9.6 11.65Z" fill="#FFFFFF" fill-opacity="1.000000" fill-rule="nonzero"/>
	</g>
</svg>
