<svg width="24.000000" height="24.000000" viewBox="0 0 24 24" fill="none" xmlns="http://www.w3.org/2000/svg" xmlns:xlink="http://www.w3.org/1999/xlink">
	<desc>
			Created with Pixso.
	</desc>
	<defs>
		<clipPath id="clip163_7665">
			<rect id="icon_dehumidification" width="24.000000" height="24.000000" fill="white" fill-opacity="0"/>
		</clipPath>
	</defs>
	<g clip-path="url(#clip163_7665)">
		<path id="矢量 234" d="M20.35 16.48C20.26 16.74 20.17 16.99 20.06 17.24L7.72 4.89C8.63 3.85 9.58 2.88 10.56 1.98C10.97 1.6 11.45 1.41 12 1.41C12.29 1.41 12.54 1.46 12.79 1.56Q13.14 1.7 13.44 1.98C15.28 3.66 16.95 5.53 18.48 7.59C19.94 9.57 20.7 11.57 20.75 13.59Q20.75 13.7 20.75 13.81C20.75 14.75 20.62 15.64 20.35 16.48ZM21.02 21.77C20.83 21.77 20.65 21.69 20.47 21.54L2.45 3.5Q2.34 3.4 2.29 3.28Q2.23 3.14 2.23 2.97C2.23 2.76 2.3 2.58 2.45 2.44C2.59 2.3 2.76 2.22 2.98 2.22C3.18 2.22 3.36 2.3 3.5 2.44L21.55 20.46C21.69 20.61 21.77 20.79 21.77 21C21.77 21.2 21.69 21.39 21.55 21.54Q21.37 21.7 21.18 21.75Q21.1 21.77 21.02 21.77ZM3.24 13.81C3.24 11.95 3.9 10.03 5.24 8.07L17.66 20.49Q17.07 20.98 16.39 21.37Q15.55 21.87 14.64 22.15Q14.63 22.16 14.61 22.16C13.78 22.42 12.91 22.55 12 22.55C11.22 22.55 10.48 22.46 9.76 22.26C9.02 22.06 8.31 21.75 7.62 21.35C6.95 20.94 6.35 20.47 5.81 19.92C5.28 19.39 4.82 18.78 4.43 18.11C3.95 17.31 3.62 16.47 3.43 15.6C3.3 15.02 3.24 14.42 3.24 13.81Z" fill="#FFFFFF" fill-opacity="1.000000" fill-rule="evenodd"/>
	</g>
</svg>
