<svg width="24.000000" height="24.000000" viewBox="0 0 24 24" fill="none" xmlns="http://www.w3.org/2000/svg" xmlns:xlink="http://www.w3.org/1999/xlink">
	<desc>
			Created with Pixso.
	</desc>
	<defs>
		<clipPath id="clip20_3237">
			<rect id="icon_wind_speed03" width="24.000000" height="24.000000" fill="white" fill-opacity="0"/>
		</clipPath>
	</defs>
	<g clip-path="url(#clip20_3237)">
		<g opacity="0.000000">
			<rect id="rect" width="24.000000" height="24.000000" fill="#000000" fill-opacity="1.000000"/>
		</g>
		<path id="矢量 232" d="M14.68 9.21Q14.78 9.05 14.89 8.89C15.64 7.69 15.99 6.46 15.91 5.2C15.83 4.04 15.51 3.12 14.95 2.46C14.39 1.81 13.7 1.38 12.87 1.18C12.66 1.13 12.44 1.09 12.21 1.06C11.13 0.93 10.39 2 10.56 3.08L11.25 7.37C10.8 6.21 10.1 5.29 9.16 4.62C8.2 3.97 7.29 3.65 6.42 3.66Q5.74 3.68 5.14 3.91Q4.6 4.11 4.12 4.47C3.95 4.61 3.79 4.75 3.63 4.9C2.83 5.66 3.19 6.92 4.14 7.47L7.6 9.46C6.54 9.17 5.52 9.15 4.54 9.4Q2.85 9.85 2.04 10.87Q1.59 11.46 1.37 12.12Q1.21 12.62 1.18 13.15C1.17 13.38 1.18 13.6 1.19 13.83C1.27 14.93 2.46 15.46 3.49 15.09L7.12 13.77C6.25 14.37 5.6 15.12 5.17 16.02C4.69 17.08 4.54 18.03 4.71 18.87C4.88 19.71 5.27 20.42 5.89 20.98Q6.14 21.21 6.42 21.41C7.31 22.05 8.48 21.49 8.86 20.46L10.46 16.14C10.24 17.49 10.41 18.7 10.97 19.79C11.51 20.83 12.16 21.55 12.93 21.93C13.7 22.31 14.5 22.43 15.33 22.29C15.56 22.26 15.78 22.2 16 22.14C17.04 21.82 17.31 20.56 16.74 19.63L14.35 15.8C15.28 16.78 16.34 17.39 17.54 17.63C18.67 17.84 19.63 17.76 20.41 17.39C21.18 17.03 21.78 16.47 22.18 15.72C22.29 15.53 22.39 15.32 22.48 15.11C22.89 14.1 22.06 13.1 20.97 12.98L16.25 12.46C17.66 12.35 18.84 11.88 19.79 11.05C20.68 10.29 21.21 9.48 21.39 8.64C21.58 7.8 21.5 7 21.16 6.22C21.08 6.02 20.97 5.82 20.86 5.62C20.31 4.67 19.01 4.71 18.25 5.51L14.68 9.21Z" fill="#FFFFFF" fill-opacity="1.000000" fill-rule="evenodd"/>
	</g>
</svg>
