<svg width="24.000000" height="24.000000" viewBox="0 0 24 24" fill="none" xmlns="http://www.w3.org/2000/svg" xmlns:xlink="http://www.w3.org/1999/xlink">
	<desc>
			Created with Pixso.
	</desc>
	<defs>
		<clipPath id="clip20_3250">
			<rect id="icon_wind_sweeping" width="24.000000" height="24.000000" fill="white" fill-opacity="0"/>
		</clipPath>
	</defs>
	<g clip-path="url(#clip20_3250)">
		<g opacity="0.000000">
			<rect id="rect" width="24.000000" height="24.000000" fill="#000000" fill-opacity="1.000000"/>
		</g>
		<path id="矢量 224" d="M2.14 10.2C2.26 10.2 2.37 10.24 2.47 10.34L3.07 10.94L7.78 6.26C7.9 6.12 8.06 6.05 8.26 6.05C8.44 6.05 8.6 6.12 8.74 6.26C8.88 6.39 8.94 6.55 8.94 6.73C8.93 6.93 8.86 7.09 8.74 7.22L4.06 11.9L4.73 12.58C4.85 12.74 4.88 12.9 4.81 13.08C4.73 13.25 4.59 13.35 4.39 13.39L2.14 13.37C2 13.37 1.89 13.32 1.8 13.22C1.7 13.12 1.66 13.02 1.68 12.91L1.68 10.7Q1.66 10.58 1.7 10.49Q1.73 10.4 1.8 10.34C1.89 10.24 2 10.2 2.14 10.2ZM19.18 12.91C19.18 12.78 19.22 12.67 19.32 12.58L19.92 11.93L15.22 7.22C15.08 7.09 15.02 6.93 15.02 6.73C15.02 6.55 15.08 6.39 15.22 6.26C15.34 6.13 15.5 6.07 15.7 6.07C15.88 6.07 16.05 6.13 16.2 6.26L20.9 10.97L21.55 10.32C21.63 10.24 21.73 10.19 21.85 10.19C21.97 10.18 22.08 10.22 22.19 10.3C22.29 10.38 22.34 10.49 22.34 10.63L22.34 12.89C22.36 13.01 22.31 13.13 22.21 13.24Q22.12 13.32 22.02 13.35Q21.94 13.37 21.86 13.37L19.66 13.37Q19.48 13.37 19.36 13.28Q19.33 13.26 19.31 13.24C19.22 13.14 19.18 13.03 19.18 12.91ZM10.57 7.58C10.64 7.76 10.64 7.93 10.56 8.09L8.04 14.28L8.88 14.64C8.99 14.67 9.07 14.75 9.12 14.87Q9.16 14.97 9.15 15.07Q9.14 15.14 9.12 15.22C9.07 15.32 8.98 15.4 8.86 15.46L6.79 16.29C6.67 16.34 6.56 16.34 6.44 16.29C6.32 16.24 6.23 16.15 6.19 16.03L5.35 13.99C5.27 13.87 5.25 13.75 5.3 13.63C5.35 13.5 5.44 13.41 5.56 13.36C5.68 13.3 5.81 13.3 5.95 13.37L6.74 13.7L9.31 7.56C9.39 7.38 9.52 7.26 9.7 7.2C9.87 7.13 10.04 7.13 10.2 7.2C10.37 7.28 10.49 7.4 10.57 7.58ZM14.82 14.89C14.86 14.77 14.94 14.68 15.07 14.64L15.94 14.28L13.37 8.14C13.29 7.96 13.29 7.78 13.37 7.61C13.45 7.43 13.57 7.31 13.75 7.25C13.93 7.17 14.1 7.16 14.28 7.23C14.45 7.3 14.57 7.43 14.64 7.61L17.21 13.75L18 13.42C18.11 13.35 18.23 13.34 18.35 13.38C18.47 13.42 18.55 13.5 18.61 13.62C18.67 13.74 18.66 13.87 18.6 14.02L17.71 16.15Q17.64 16.25 17.55 16.3Q17.51 16.32 17.47 16.34C17.37 16.37 17.27 16.36 17.16 16.32L15.07 15.48C14.94 15.43 14.86 15.35 14.82 15.24C14.78 15.12 14.78 15.01 14.82 14.89ZM12.46 7.75C12.58 7.87 12.65 8.03 12.66 8.23L12.66 14.88L13.58 14.88C13.71 14.88 13.81 14.92 13.89 15.01C13.98 15.09 14.02 15.2 14.02 15.32Q14.02 15.38 14 15.44Q13.97 15.55 13.89 15.65L12.29 17.23C12.18 17.33 12.08 17.37 11.96 17.37C11.83 17.37 11.73 17.33 11.64 17.23L10.1 15.7Q9.91 15.5 9.91 15.31L9.91 15.31C9.93 15.18 9.98 15.07 10.08 14.99C10.17 14.9 10.28 14.86 10.41 14.88L11.27 14.88L11.27 8.23C11.27 8.03 11.34 7.87 11.48 7.75C11.62 7.62 11.78 7.56 11.98 7.56C12.16 7.56 12.32 7.62 12.46 7.75Z" fill="#FFFFFF" fill-opacity="1.000000" fill-rule="evenodd"/>
	</g>
</svg>
