<svg width="24.000000" height="24.000000" viewBox="0 0 24 24" fill="none" xmlns="http://www.w3.org/2000/svg" xmlns:xlink="http://www.w3.org/1999/xlink">
	<desc>
			Created with Pixso.
	</desc>
	<defs>
		<clipPath id="clip20_3277">
			<rect id="icon_refrigeration" width="24.000000" height="24.000000" fill="white" fill-opacity="0"/>
		</clipPath>
	</defs>
	<g clip-path="url(#clip20_3277)">
		<path id="path" d="M15.42 7.81L13.51 11.12L17.33 11.12L19.38 9.07C19.64 8.81 20.05 8.81 20.31 9.07C20.56 9.32 20.56 9.73 20.31 9.99L19.18 11.12L21.59 11.12C22.07 11.12 22.46 11.51 22.46 12C22.46 12.48 22.07 12.87 21.59 12.87L19.18 12.87L20.31 14C20.56 14.26 20.56 14.67 20.31 14.93C20.05 15.18 19.64 15.18 19.38 14.93L17.33 12.87L13.51 12.87L15.42 16.18L18.23 16.93C18.58 17.02 18.78 17.38 18.69 17.73C18.6 18.08 18.24 18.29 17.89 18.19L16.34 17.78L17.55 19.87C17.79 20.29 17.65 20.82 17.23 21.06C16.81 21.3 16.28 21.16 16.04 20.74L14.83 18.65L14.42 20.2C14.32 20.55 13.96 20.75 13.61 20.66C13.27 20.57 13.06 20.21 13.15 19.86L13.9 17.05L11.99 13.74L10.08 17.05L10.84 19.86C10.93 20.21 10.72 20.57 10.38 20.66C10.03 20.75 9.67 20.55 9.57 20.2L9.16 18.65L7.95 20.74C7.71 21.16 7.18 21.3 6.76 21.06C6.34 20.82 6.2 20.29 6.44 19.87L7.65 17.78L6.1 18.19C5.75 18.29 5.39 18.08 5.3 17.73C5.21 17.38 5.41 17.02 5.76 16.93L8.57 16.18L10.48 12.87L6.66 12.87L4.61 14.93C4.35 15.18 3.94 15.18 3.68 14.93C3.43 14.67 3.43 14.26 3.68 14L4.81 12.87L2.4 12.87C1.92 12.87 1.53 12.48 1.53 12C1.53 11.51 1.92 11.12 2.4 11.12L4.81 11.12L3.68 9.99C3.43 9.73 3.43 9.32 3.68 9.06C3.94 8.81 4.35 8.81 4.61 9.06L6.66 11.12L10.48 11.12L8.57 7.81L5.76 7.06C5.41 6.97 5.21 6.61 5.3 6.26C5.39 5.91 5.75 5.7 6.1 5.8L7.65 6.21L6.44 4.12C6.2 3.7 6.34 3.17 6.76 2.93C7.18 2.69 7.71 2.83 7.95 3.25L9.16 5.34L9.57 3.79C9.67 3.44 10.03 3.24 10.38 3.33C10.72 3.42 10.93 3.78 10.84 4.13L10.08 6.94L11.99 10.25L13.9 6.94L13.15 4.13C13.06 3.78 13.27 3.42 13.61 3.33C13.96 3.24 14.32 3.44 14.42 3.79L14.83 5.34L16.04 3.25C16.28 2.83 16.81 2.69 17.23 2.93C17.65 3.17 17.79 3.7 17.55 4.12L16.34 6.21L17.89 5.8C18.24 5.7 18.6 5.91 18.69 6.26C18.78 6.61 18.58 6.97 18.23 7.06L15.42 7.81Z" fill="#FFFFFF" fill-opacity="1.000000" fill-rule="nonzero"/>
	</g>
</svg>
