<svg width="48.000000" height="48.000000" viewBox="0 0 48 48" fill="none" xmlns="http://www.w3.org/2000/svg" xmlns:xlink="http://www.w3.org/1999/xlink">
	<desc>
			Created with Pixso.
	</desc>
	<defs>
		<clipPath id="clip14_5964">
			<rect id="icon_power" width="48.000000" height="48.000000" fill="white" fill-opacity="0"/>
		</clipPath>
	</defs>
	<g clip-path="url(#clip14_5964)">
		<g opacity="0.000000">
			<rect id="rect" width="48.000000" height="48.000000" fill="#000000" fill-opacity="1.000000"/>
		</g>
		<path id="path" d="M24 2.02C20.02 2.02 16.35 3 12.97 4.95C9.6 6.93 6.93 9.6 4.95 12.98C3 16.35 2.01 20.02 2.01 24C2.01 27.97 3 31.64 4.95 35.02C6.93 38.39 9.6 41.06 12.97 43.04C16.35 45 20.02 45.98 24 45.98C27.97 45.98 31.64 45 35.01 43.04C38.39 41.06 41.06 38.39 43.03 35.02C45 31.64 45.97 27.97 45.97 24C45.97 20.02 45 16.35 43.03 12.98C41.06 9.6 38.39 6.93 35.01 4.95C31.64 3 27.97 2.02 24 2.02ZM24 24.38C23.67 24.38 23.39 24.25 23.15 24C22.91 23.74 22.79 23.46 22.79 23.14L22.79 14.92C22.79 14.6 22.91 14.32 23.15 14.08C23.39 13.84 23.67 13.72 24 13.72C24.34 13.72 24.63 13.83 24.85 14.06C25.08 14.28 25.19 14.57 25.19 14.92L25.19 23.14C25.19 23.48 25.07 23.78 24.83 24.02C24.59 24.26 24.31 24.38 24 24.38ZM24 34.12C22.14 34.12 20.43 33.66 18.87 32.75C17.33 31.85 16.1 30.62 15.19 29.06C14.27 27.51 13.81 25.81 13.81 23.96C13.81 22.09 14.29 20.36 15.23 18.76C16.18 17.16 17.45 15.9 19.05 14.98C19.33 14.82 19.65 14.78 20 14.88C20.33 14.97 20.55 15.16 20.67 15.46C20.83 15.74 20.87 16.05 20.79 16.4C20.71 16.73 20.53 16.95 20.25 17.08C19 17.78 18.01 18.76 17.29 20C16.57 21.22 16.21 22.54 16.21 23.96C16.21 25.36 16.57 26.65 17.27 27.84C17.98 29.02 18.93 29.97 20.11 30.68C21.29 31.37 22.59 31.72 24.03 31.72C25.45 31.72 26.75 31.37 27.96 30.68C29.15 29.97 30.1 29.02 30.79 27.84C31.47 26.65 31.81 25.36 31.81 23.96C31.81 22.54 31.46 21.22 30.73 20C30.01 18.76 29.05 17.78 27.83 17.08C27.51 16.95 27.31 16.73 27.23 16.4C27.15 16.05 27.19 15.74 27.35 15.46C27.51 15.16 27.75 14.97 28.07 14.88C28.39 14.78 28.7 14.82 29 14.98C30.62 15.87 31.9 17.12 32.83 18.74C33.75 20.35 34.21 22.09 34.21 23.96C34.21 25.81 33.75 27.51 32.83 29.06C31.9 30.62 30.66 31.85 29.11 32.75C27.55 33.66 25.85 34.12 24 34.12Z" fill="#E84026" fill-opacity="1.000000" fill-rule="nonzero"/>
	</g>
</svg>
