<svg width="24.000000" height="24.000000" viewBox="0 0 24 24" fill="none" xmlns="http://www.w3.org/2000/svg" xmlns:xlink="http://www.w3.org/1999/xlink">
	<desc>
			Created with Pixso.
	</desc>
	<defs>
		<clipPath id="clip14_6000">
			<rect id="icon_alarm_clock" width="24.000000" height="24.000000" fill="white" fill-opacity="0"/>
		</clipPath>
	</defs>
	<g clip-path="url(#clip14_6000)">
		<path id="矢量 226" d="M2.82 4.73L6 1.8C6.31 1.51 6.33 1.05 6.05 0.74C5.76 0.43 5.3 0.41 4.99 0.69L1.8 3.63C1.5 3.91 1.48 4.38 1.76 4.69C2.05 4.99 2.51 5.01 2.82 4.73ZM18.26 0.74C18.55 0.43 19.01 0.41 19.32 0.69L22.5 3.63C22.81 3.91 22.83 4.38 22.55 4.69C22.26 4.99 21.8 5.01 21.49 4.73L18.3 1.8C18 1.51 17.98 1.05 18.26 0.74ZM1.25 13.25C1.25 7.31 6.06 2.5 12 2.5C17.93 2.5 22.75 7.31 22.75 13.25C22.75 19.18 17.93 24 12 24C6.06 24 1.25 19.18 1.25 13.25ZM2.75 13.25C2.75 8.14 6.89 4 12 4C17.1 4 21.25 8.14 21.25 13.25C21.25 18.35 17.1 22.5 12 22.5C6.89 22.5 2.75 18.35 2.75 13.25ZM12.25 6.5L12.25 12.65L15.48 15.43C15.8 15.7 15.84 16.16 15.56 16.48C15.29 16.8 14.83 16.84 14.51 16.56L11.01 13.56C10.92 13.49 10.85 13.4 10.81 13.31C10.77 13.21 10.75 13.11 10.75 13L10.75 6.5C10.75 6.07 11.08 5.75 11.5 5.75C11.91 5.75 12.25 6.07 12.25 6.5Z" fill="#191919" fill-opacity="1.000000" fill-rule="evenodd"/>
	</g>
</svg>
