<svg width="24.000000" height="24.000000" viewBox="0 0 24 24" fill="none" xmlns="http://www.w3.org/2000/svg" xmlns:xlink="http://www.w3.org/1999/xlink">
	<desc>
			Created with Pixso.
	</desc>
	<defs/>
	<rect id="icon_add" width="24.000000" height="24.000000" fill="#FFFFFF" fill-opacity="0"/>
	<path id="path4 (边框)" d="M12.5 0.75C12.5 0.33 12.16 0 11.75 0C11.33 0 11 0.33 11 0.75L11 11L0.75 11C0.33 11 0 11.33 0 11.75C0 12.17 0.33 12.5 0.75 12.5L11 12.5L11 22.75C11 23.17 11.33 23.5 11.75 23.5C12.16 23.5 12.5 23.17 12.5 22.75L12.5 12.5L22.75 12.5C23.16 12.5 23.5 12.17 23.5 11.75C23.5 11.33 23.16 11 22.75 11L12.5 11L12.5 0.75Z" fill="#191919" fill-opacity="1.000000" fill-rule="evenodd"/>
</svg>
