<svg width="24.000000" height="24.000000" viewBox="0 0 24 24" fill="none" xmlns="http://www.w3.org/2000/svg" xmlns:xlink="http://www.w3.org/1999/xlink">
	<desc>
			Created with Pixso.
	</desc>
	<defs>
		<clipPath id="clip14_5995">
			<rect id="icon_sweeping" width="24.000000" height="24.000000" fill="white" fill-opacity="0"/>
		</clipPath>
	</defs>
	<g clip-path="url(#clip14_5995)">
		<path id="矢量 227" d="M21.66 22.04Q21.52 22.1 21.35 22.1C21.15 22.1 20.97 22.03 20.81 21.89C20.66 21.74 20.58 21.56 20.58 21.36L20.58 5.14Q20.58 4.79 20.47 4.49Q20.34 4.17 20.08 3.9C19.73 3.55 19.31 3.38 18.83 3.38L2.64 3.38C2.43 3.38 2.25 3.31 2.1 3.17C1.96 3.02 1.89 2.84 1.89 2.64C1.89 2.43 1.96 2.25 2.1 2.1C2.25 1.96 2.43 1.9 2.64 1.9L18.83 1.9C19.43 1.9 19.97 2.04 20.46 2.33C20.96 2.63 21.36 3.03 21.65 3.53C21.95 4.02 22.1 4.56 22.1 5.14L22.1 21.36C22.1 21.56 22.02 21.74 21.89 21.89Q21.78 21.98 21.66 22.04ZM3.5 8.66C3.36 8.56 3.26 8.41 3.22 8.2Q3.05 7.34 2.99 6.7C2.95 6.26 2.93 5.9 2.93 5.78Q2.93 5.67 2.97 5.57Q3.03 5.41 3.16 5.29C3.29 5.15 3.45 5.07 3.65 5.06C3.85 5.04 4.03 5.11 4.18 5.26Q4.26 5.34 4.31 5.44Q4.4 5.59 4.42 5.78C4.44 6.4 4.54 7.12 4.7 7.92Q4.72 8.09 4.68 8.25Q4.65 8.37 4.58 8.47C4.47 8.65 4.31 8.76 4.1 8.81C3.84 8.81 3.64 8.76 3.5 8.66ZM5.35 13.75C5.15 13.69 5.01 13.56 4.92 13.37C4.61 12.74 4.31 12.02 4.03 11.21C3.97 11.01 3.98 10.82 4.07 10.63C4.15 10.43 4.3 10.31 4.51 10.25Q4.65 10.2 4.79 10.2Q4.93 10.21 5.08 10.28C5.26 10.37 5.38 10.52 5.45 10.73Q5.75 11.62 6.26 12.72C6.36 12.91 6.37 13.11 6.31 13.31C6.25 13.51 6.12 13.65 5.93 13.73C5.73 13.81 5.54 13.81 5.35 13.75ZM8.75 18.02C8.58 18.04 8.42 17.99 8.26 17.87L8.16 17.81C7.52 17.21 6.98 16.63 6.55 16.06C6.42 15.88 6.37 15.69 6.41 15.49Q6.43 15.34 6.5 15.22Q6.57 15.09 6.7 15C6.87 14.87 7.06 14.82 7.26 14.86C7.45 14.88 7.62 14.98 7.75 15.14C8.21 15.76 8.68 16.29 9.17 16.73C9.31 16.85 9.38 17.02 9.4 17.23C9.4 17.43 9.33 17.62 9.18 17.78C9.06 17.92 8.91 18 8.75 18.02ZM13.6 20.48C13.46 20.58 13.31 20.64 13.15 20.64C12.78 20.52 12.37 20.37 11.92 20.2C11.46 20.01 11.07 19.83 10.75 19.66C10.57 19.56 10.45 19.41 10.39 19.2C10.33 19.01 10.34 18.82 10.43 18.65C10.53 18.46 10.68 18.35 10.88 18.29Q11.04 18.23 11.19 18.25Q11.32 18.27 11.45 18.34C12.17 18.68 12.81 18.95 13.39 19.15C13.58 19.21 13.72 19.34 13.82 19.52Q13.9 19.67 13.9 19.83Q13.91 19.96 13.87 20.09C13.82 20.25 13.73 20.37 13.6 20.48ZM18.43 21.07C18.27 21.21 18.06 21.29 17.81 21.31C17.12 21.31 16.52 21.28 16.01 21.22C15.8 21.2 15.63 21.11 15.5 20.95C15.37 20.79 15.32 20.6 15.34 20.4C15.36 20.19 15.45 20.02 15.61 19.9C15.76 19.76 15.94 19.7 16.15 19.73Q16.93 19.79 17.81 19.79C18.05 19.79 18.25 19.87 18.41 20.02C18.57 20.16 18.65 20.33 18.67 20.54C18.67 20.75 18.59 20.93 18.43 21.07Z" fill="#000000" fill-opacity="0.901961" fill-rule="evenodd"/>
	</g>
</svg>
