<svg width="24.000000" height="24.000000" viewBox="0 0 24 24" fill="none" xmlns="http://www.w3.org/2000/svg" xmlns:xlink="http://www.w3.org/1999/xlink">
	<desc>
			Created with Pixso.
	</desc>
	<defs>
		<clipPath id="clip20_3236">
			<rect id="icon_wind_speed02" width="24.000000" height="24.000000" fill="white" fill-opacity="0"/>
		</clipPath>
	</defs>
	<g clip-path="url(#clip20_3236)">
		<g opacity="0.000000">
			<rect id="rect" width="24.000000" height="24.000000" fill="#000000" fill-opacity="1.000000"/>
		</g>
		<path id="矢量 233" d="M14.62 2.27C15.42 2.85 16 3.72 16.37 4.9C16.8 6.22 16.61 7.53 15.79 8.78C15.32 9.49 14.74 10.15 14.06 10.75L19.55 6.76C20.48 6.08 21.81 6.32 22.19 7.4C22.3 7.69 22.39 7.99 22.46 8.3C22.68 9.26 22.63 10.2 22.31 11.14C22 12.06 21.34 12.89 20.34 13.61C19.2 14.36 17.89 14.54 16.45 14.16C15.44 13.88 14.46 13.45 13.52 12.84L19.57 17.23C20.49 17.9 20.68 19.23 19.78 19.92C19.53 20.12 19.27 20.29 19.01 20.46C18.16 20.96 17.24 21.21 16.26 21.19C15.27 21.17 14.28 20.81 13.3 20.09C12.2 19.29 11.62 18.11 11.54 16.62Q11.45 15.13 11.85 13.55L9.62 20.45C9.27 21.54 8.05 22.13 7.11 21.49C6.85 21.31 6.6 21.12 6.36 20.92Q5.78 20.4 5.38 19.76Q5.02 19.19 4.81 18.54C4.53 17.6 4.58 16.55 4.96 15.38C5.38 14.11 6.3 13.19 7.68 12.67C8.71 12.28 9.82 12.05 11.02 12L3.46 12C2.32 12 1.38 11.03 1.7 9.94C1.79 9.64 1.9 9.34 2.03 9.06C2.42 8.15 3.02 7.41 3.82 6.85C4.62 6.28 5.63 6 6.86 6C8.23 6 9.41 6.58 10.36 7.73C10.91 8.42 11.37 9.2 11.73 10.07L9.61 3.5C9.26 2.43 9.88 1.24 11.01 1.21C11.33 1.2 11.66 1.21 11.98 1.25C12.95 1.34 13.83 1.68 14.62 2.27Z" fill="#FFFFFF" fill-opacity="1.000000" fill-rule="evenodd"/>
	</g>
</svg>
