<svg width="24.000000" height="24.000000" viewBox="0 0 24 24" fill="none" xmlns="http://www.w3.org/2000/svg" xmlns:xlink="http://www.w3.org/1999/xlink">
	<desc>
			Created with Pixso.
	</desc>
	<defs>
		<clipPath id="clip14_5979">
			<rect id="icon_switchover_border" width="24.000000" height="24.000000" fill="white" fill-opacity="0"/>
		</clipPath>
	</defs>
	<g clip-path="url(#clip14_5979)">
		<path id="矢量 228" d="M22.01 5.38C22.66 6.36 23.14 7.38 23.47 8.46C23.82 9.58 24 10.76 24 12Q24 14.48 23.12 16.6L23.12 16.6C22.53 18.02 21.65 19.31 20.48 20.48C19.31 21.65 18.02 22.53 16.6 23.12C15.19 23.7 13.65 24 12 24C10.34 24 8.8 23.7 7.39 23.12C5.97 22.53 4.68 21.65 3.51 20.48C2.34 19.31 1.46 18.02 0.87 16.6L0.87 16.6Q0 14.48 0 12Q0 9.51 0.87 7.39L0.87 7.39C1.46 5.97 2.34 4.68 3.51 3.51C4.68 2.34 5.97 1.46 7.39 0.87C8.8 0.29 10.34 0 12 0C13.65 0 15.19 0.29 16.6 0.87C18.02 1.46 19.31 2.34 20.48 3.51C20.78 3.81 20.78 4.27 20.48 4.57C20.18 4.87 19.72 4.87 19.42 4.57C18.39 3.55 17.26 2.78 16.03 2.26C14.79 1.75 13.44 1.5 12 1.5C10.55 1.5 9.2 1.75 7.96 2.26C6.73 2.78 5.6 3.55 4.57 4.57C3.55 5.6 2.78 6.73 2.26 7.96C1.75 9.2 1.5 10.55 1.5 12C1.5 13.44 1.75 14.79 2.26 16.03C2.78 17.26 3.55 18.39 4.57 19.42C5.6 20.44 6.73 21.21 7.96 21.73C9.2 22.24 10.55 22.5 12 22.5C13.44 22.5 14.79 22.24 16.03 21.73C17.26 21.21 18.39 20.44 19.42 19.42C20.44 18.39 21.21 17.26 21.73 16.03C22.24 14.79 22.5 13.44 22.5 12Q22.5 10.37 22.04 8.89L22.04 8.89C21.75 7.95 21.32 7.06 20.76 6.21C20.53 5.86 20.62 5.4 20.97 5.17C21.32 4.94 21.78 5.03 22.01 5.38ZM13.9 6.72C13.6 7.02 13.61 7.49 13.91 7.78L15.64 9.47L6.5 9.47C6.08 9.47 5.75 9.8 5.75 10.22C5.75 10.64 6.08 10.97 6.5 10.97L17.49 10.97C17.7 10.97 17.88 10.89 18.02 10.75C18.17 10.6 18.24 10.42 18.24 10.22C18.24 10.11 18.22 10.02 18.18 9.92C18.15 9.83 18.09 9.75 18.02 9.68L14.96 6.71C14.66 6.41 14.19 6.42 13.9 6.72ZM17.5 14.52L8.34 14.52L10.08 16.21C10.38 16.5 10.39 16.97 10.09 17.27C9.8 17.57 9.33 17.58 9.03 17.28L5.97 14.31C5.9 14.24 5.84 14.16 5.8 14.07C5.76 13.97 5.75 13.88 5.75 13.77C5.75 13.57 5.82 13.39 5.96 13.24Q6.07 13.13 6.21 13.08Q6.34 13.02 6.5 13.02L17.5 13.02C17.91 13.02 18.25 13.36 18.25 13.77C18.25 14.2 17.91 14.52 17.5 14.52Z" fill="#191919" fill-opacity="1.000000" fill-rule="evenodd"/>
	</g>
</svg>
