<svg width="24.000000" height="24.000000" viewBox="0 0 24 24" fill="none" xmlns="http://www.w3.org/2000/svg" xmlns:xlink="http://www.w3.org/1999/xlink">
	<desc>
			Created with Pixso.
	</desc>
	<defs>
		<clipPath id="clip20_3246">
			<rect id="icon_auto" width="24.000000" height="24.000000" fill="white" fill-opacity="0"/>
		</clipPath>
	</defs>
	<g clip-path="url(#clip20_3246)">
		<rect id="rect" width="24.000000" height="24.000000" fill="#FFFFFF" fill-opacity="0"/>
		<path id="矢量 223" d="M20.68 14.78L21.26 16.4Q21.82 15.26 22.06 14.06L22.06 14.06C22.33 12.78 22.32 11.44 22.06 10.05C21.79 8.66 21.29 7.42 20.57 6.33C19.85 5.24 18.91 4.3 17.74 3.51C15.83 2.21 13.91 1.56 12 1.56C10.08 1.56 8.17 2.21 6.25 3.5C5.9 3.74 5.44 3.65 5.21 3.3C4.97 2.95 5.06 2.49 5.41 2.26C7.61 0.77 9.8 0.03 12 0.03C14.19 0.03 16.39 0.78 18.58 2.26C19.92 3.17 21.01 4.25 21.83 5.5C22.66 6.75 23.22 8.18 23.53 9.77C23.84 11.36 23.84 12.9 23.54 14.36C23.24 15.83 22.63 17.24 21.72 18.58C21.68 18.65 21.62 18.7 21.56 18.75C21.5 18.8 21.43 18.84 21.35 18.87C21.16 18.94 20.97 18.93 20.78 18.84C20.59 18.75 20.47 18.61 20.39 18.42L19.26 15.29C19.12 14.9 19.32 14.47 19.71 14.33C20.11 14.19 20.53 14.39 20.68 14.78ZM3.31 9.2L2.72 7.59C2.35 8.35 2.09 9.12 1.92 9.92C1.66 11.2 1.66 12.54 1.93 13.93C2.2 15.32 2.69 16.56 3.41 17.66Q4.49 19.29 6.25 20.48C8.16 21.78 10.07 22.42 11.99 22.43Q14.86 22.43 17.73 20.48C18.08 20.25 18.54 20.34 18.78 20.68C19.01 21.03 18.92 21.49 18.58 21.73C16.38 23.21 14.18 23.95 11.99 23.95C9.79 23.95 7.6 23.21 5.4 21.72C4.06 20.81 2.98 19.73 2.15 18.48C1.33 17.23 0.76 15.81 0.46 14.21C0.15 12.62 0.15 11.09 0.45 9.62C0.75 8.15 1.35 6.75 2.26 5.4C2.31 5.34 2.36 5.28 2.42 5.23C2.49 5.18 2.56 5.15 2.63 5.12C2.82 5.05 3.02 5.06 3.2 5.15Q3.34 5.21 3.44 5.32Q3.54 5.42 3.59 5.57L4.72 8.69C4.86 9.09 4.66 9.51 4.27 9.66C3.87 9.8 3.45 9.6 3.31 9.2ZM17.95 17.54L13.21 5.83L11.18 5.83L6.59 17.54L8.91 17.54L9.9 14.87L14.46 14.87L15.49 17.54L17.95 17.54ZM12.14 8.77L13.71 12.88L10.62 12.88L12.14 8.77Z" fill="#FFFFFF" fill-opacity="1.000000" fill-rule="evenodd"/>
	</g>
</svg>
