<svg width="24.000000" height="24.000000" viewBox="0 0 24 24" fill="none" xmlns="http://www.w3.org/2000/svg" xmlns:xlink="http://www.w3.org/1999/xlink">
	<desc>
			Created with Pixso.
	</desc>
	<defs>
		<clipPath id="clip14_5989">
			<rect id="icon_wind_direction" width="24.000000" height="24.000000" fill="white" fill-opacity="0"/>
		</clipPath>
	</defs>
	<g clip-path="url(#clip14_5989)">
		<path id="矢量 225" d="M2.13 10.2C2.26 10.2 2.37 10.24 2.46 10.34L3.06 10.94L7.77 6.26C7.9 6.12 8.06 6.05 8.25 6.05C8.44 6.05 8.6 6.12 8.73 6.26C8.87 6.39 8.94 6.55 8.93 6.73C8.93 6.93 8.86 7.09 8.73 7.22L4.05 11.9L4.72 12.58C4.85 12.74 4.88 12.9 4.8 13.08C4.73 13.25 4.59 13.35 4.38 13.39L2.13 13.37C2 13.37 1.89 13.32 1.79 13.22C1.7 13.12 1.66 13.02 1.67 12.91L1.67 10.7Q1.66 10.58 1.7 10.49Q1.73 10.4 1.79 10.34C1.89 10.24 2 10.2 2.13 10.2ZM19.17 12.91C19.17 12.78 19.22 12.67 19.31 12.58L19.91 11.93L15.21 7.22C15.08 7.09 15.01 6.93 15.01 6.73C15.01 6.55 15.08 6.39 15.21 6.26C15.34 6.13 15.5 6.07 15.69 6.07C15.88 6.07 16.05 6.13 16.19 6.26L20.89 10.97L21.54 10.32C21.62 10.24 21.72 10.19 21.84 10.19C21.96 10.18 22.08 10.22 22.18 10.3C22.28 10.38 22.33 10.49 22.33 10.63L22.33 12.89C22.35 13.01 22.31 13.13 22.2 13.24Q22.12 13.32 22.02 13.35Q21.94 13.37 21.85 13.37L19.65 13.37Q19.48 13.37 19.36 13.28Q19.33 13.26 19.3 13.24C19.22 13.14 19.17 13.03 19.17 12.91ZM10.56 7.58C10.64 7.76 10.63 7.93 10.55 8.09L8.03 14.28L8.87 14.64C8.99 14.67 9.07 14.75 9.11 14.87Q9.16 14.97 9.15 15.07Q9.14 15.14 9.11 15.22C9.07 15.32 8.98 15.4 8.85 15.46L6.78 16.29C6.67 16.34 6.55 16.34 6.43 16.29C6.31 16.24 6.23 16.15 6.18 16.03L5.34 13.99Q5.28 13.89 5.27 13.8Q5.26 13.71 5.29 13.63C5.35 13.5 5.43 13.41 5.55 13.36C5.67 13.3 5.8 13.3 5.94 13.37L6.73 13.7L9.3 7.56C9.38 7.38 9.51 7.26 9.69 7.2C9.87 7.13 10.03 7.13 10.19 7.2C10.37 7.28 10.49 7.4 10.56 7.58ZM14.81 14.89C14.85 14.77 14.94 14.68 15.06 14.64L15.93 14.28L13.36 8.14C13.28 7.96 13.28 7.78 13.36 7.61C13.44 7.43 13.57 7.31 13.74 7.25C13.92 7.17 14.1 7.16 14.27 7.23C14.45 7.3 14.57 7.43 14.63 7.61L17.2 13.75L17.99 13.42C18.11 13.35 18.22 13.34 18.34 13.38C18.46 13.42 18.55 13.5 18.6 13.62C18.66 13.74 18.66 13.87 18.59 14.02L17.7 16.15Q17.64 16.25 17.55 16.3Q17.51 16.32 17.46 16.34C17.37 16.37 17.27 16.36 17.15 16.32L15.06 15.48C14.94 15.43 14.85 15.35 14.81 15.24C14.77 15.12 14.77 15.01 14.81 14.89ZM12.45 7.75C12.58 7.87 12.65 8.03 12.66 8.23L12.66 14.88L13.57 14.88C13.71 14.88 13.81 14.92 13.89 15.01C13.97 15.09 14.01 15.2 14.01 15.32Q14.01 15.38 14 15.44Q13.97 15.55 13.89 15.65L12.28 17.23C12.18 17.33 12.07 17.37 11.95 17.37C11.83 17.37 11.73 17.33 11.63 17.23L10.09 15.7Q9.91 15.5 9.91 15.31L9.91 15.31C9.93 15.18 9.98 15.07 10.07 14.99C10.17 14.9 10.28 14.86 10.41 14.88L11.27 14.88L11.27 8.23C11.27 8.03 11.34 7.87 11.47 7.75C11.61 7.62 11.78 7.56 11.97 7.56C12.16 7.56 12.32 7.62 12.45 7.75Z" fill="#000000" fill-opacity="0.901961" fill-rule="evenodd"/>
	</g>
</svg>
