<svg width="24.000000" height="24.000000" viewBox="0 0 24 24" fill="none" xmlns="http://www.w3.org/2000/svg" xmlns:xlink="http://www.w3.org/1999/xlink">
	<desc>
			Created with Pixso.
	</desc>
	<defs>
		<clipPath id="clip14_5984">
			<rect id="icon_ict_fan" width="24.000000" height="24.000000" fill="white" fill-opacity="0"/>
		</clipPath>
	</defs>
	<g clip-path="url(#clip14_5984)">
		<path id="矢量 229" d="M17.09 1.68C17.22 1.74 17.34 1.81 17.44 1.89C17.52 1.96 17.6 2.03 17.67 2.11C17.74 2.19 17.79 2.27 17.84 2.36Q17.94 2.53 17.99 2.71C18.02 2.81 18.04 2.91 18.05 3.01C18.06 3.14 18.05 3.26 18.04 3.39C18.02 3.52 17.98 3.65 17.93 3.77C17.9 3.86 17.85 3.95 17.8 4.03L13.07 11.87Q12.97 12.04 12.83 12.18C12.76 12.25 12.68 12.32 12.59 12.38C12.49 12.45 12.38 12.51 12.28 12.56C12.18 12.6 12.07 12.64 11.96 12.66C11.84 12.69 11.72 12.7 11.59 12.7C11.49 12.7 11.38 12.69 11.28 12.67C11.18 12.65 11.08 12.63 10.99 12.59C10.86 12.54 10.73 12.48 10.61 12.4Q9.59 11.69 8.89 11.15C8.14 10.57 7.54 10.04 7.09 9.58Q6.41 8.86 6.07 8.01C5.9 7.57 5.81 7.13 5.8 6.69C5.8 6.49 5.81 6.28 5.84 6.07C5.85 6 5.87 5.93 5.88 5.85C6.01 5.23 6.3 4.64 6.75 4.08C7.27 3.43 8 2.85 8.93 2.33C10.13 1.65 11.36 1.24 12.63 1.09C12.91 1.05 13.2 1.03 13.49 1.03C14.02 1.01 14.54 1.04 15.05 1.12C15.19 1.14 15.32 1.16 15.45 1.18C16.02 1.3 16.57 1.46 17.09 1.68ZM15.16 2.66C15.63 2.75 16.08 2.88 16.49 3.06C16.5 3.07 16.5 3.08 16.5 3.1C16.52 3.15 16.54 3.22 16.52 3.26L11.8 11.08C11.78 11.12 11.67 11.17 11.64 11.2C11.61 11.2 11.54 11.18 11.49 11.17C11.48 11.17 11.47 11.17 11.47 11.16C10.81 10.71 10.25 10.3 9.8 9.96C9.11 9.42 8.57 8.95 8.18 8.54Q7.7 8.04 7.47 7.46C7.35 7.15 7.29 6.84 7.31 6.53C7.31 6.45 7.32 6.37 7.33 6.29C7.39 5.85 7.59 5.43 7.92 5.02C8.32 4.52 8.9 4.06 9.66 3.63C10.75 3.02 11.87 2.66 13.01 2.56C13.18 2.54 13.36 2.53 13.53 2.52C14 2.51 14.47 2.54 14.93 2.62C15.01 2.63 15.08 2.64 15.16 2.66ZM20.26 22.57C20.71 22.23 21.13 21.84 21.52 21.4C21.62 21.28 21.72 21.15 21.82 21.03C22.12 20.64 22.4 20.22 22.63 19.77C22.78 19.5 22.92 19.21 23.03 18.92C23.51 17.77 23.75 16.52 23.75 15.17C23.75 14.1 23.59 13.18 23.29 12.4C23.01 11.71 22.63 11.14 22.13 10.7C22.09 10.67 22.05 10.63 22 10.6Q21.72 10.37 21.4 10.2C21.03 10 20.64 9.87 20.21 9.8C20.17 9.79 20.14 9.79 20.1 9.78C19.52 9.7 18.93 9.74 18.32 9.89Q17.35 10.12 16.06 10.65C15.42 10.9 14.77 11.19 14.1 11.51C13.99 11.56 13.89 11.62 13.8 11.68Q13.66 11.8 13.53 11.94C13.46 12.02 13.4 12.11 13.34 12.21Q13.34 12.21 13.34 12.21Q13.25 12.37 13.2 12.54C13.16 12.65 13.14 12.76 13.13 12.87Q13.11 13.05 13.13 13.23C13.14 13.33 13.16 13.44 13.19 13.54C13.22 13.67 13.28 13.79 13.34 13.9L17.87 22.01C17.94 22.14 18.02 22.25 18.12 22.35C18.18 22.42 18.24 22.48 18.31 22.53C18.42 22.62 18.54 22.69 18.66 22.74C18.74 22.78 18.82 22.81 18.91 22.83C19.05 22.87 19.18 22.89 19.32 22.89L19.32 22.89L19.32 22.89Q19.46 22.89 19.6 22.86C19.7 22.84 19.8 22.81 19.9 22.77C20.03 22.72 20.15 22.66 20.26 22.57ZM20.38 20.41C20.07 20.78 19.73 21.1 19.36 21.37C19.33 21.35 19.2 21.32 19.18 21.28L14.65 13.18C14.63 13.14 14.62 13.1 14.62 13.07C14.63 13.04 14.65 12.94 14.66 12.92C15.3 12.62 16.01 12.28 16.61 12.04C17.41 11.72 18.1 11.49 18.67 11.34C19.12 11.23 19.55 11.21 19.96 11.28C20.26 11.33 20.53 11.43 20.78 11.57C20.88 11.63 20.97 11.69 21.06 11.76C21.41 12.05 21.69 12.44 21.89 12.95C22.13 13.55 22.25 14.29 22.25 15.17C22.25 16.39 22.02 17.51 21.57 18.54C21.49 18.72 21.4 18.89 21.31 19.06C21.1 19.46 20.86 19.83 20.58 20.17C20.52 20.26 20.45 20.33 20.38 20.41ZM0.3 14.45C0.29 14.59 0.29 14.72 0.31 14.86C0.32 14.94 0.33 15.02 0.34 15.1Q0.46 15.81 0.7 16.5C0.82 16.83 0.95 17.16 1.11 17.48C1.24 17.74 1.38 18 1.53 18.25C1.69 18.5 1.85 18.73 2.03 18.96C2.79 19.96 3.77 20.79 4.97 21.46C5.9 21.98 6.78 22.3 7.61 22.42C8.37 22.52 9.07 22.47 9.71 22.24C9.75 22.23 9.78 22.22 9.82 22.2C10.07 22.11 10.31 21.98 10.53 21.84L10.53 21.84Q11.02 21.52 11.4 21.05C11.45 21 11.5 20.94 11.54 20.88C11.86 20.44 12.1 19.94 12.26 19.38C12.44 18.73 12.6 17.97 12.74 17.09C12.86 16.32 12.95 15.62 12.99 14.98C13 14.85 12.99 14.73 12.98 14.61C12.96 14.5 12.93 14.39 12.89 14.28C12.85 14.17 12.81 14.07 12.75 13.98C12.69 13.88 12.62 13.78 12.53 13.69C12.46 13.61 12.38 13.54 12.29 13.48C12.2 13.41 12.09 13.35 11.98 13.3C11.89 13.26 11.8 13.23 11.71 13.2C11.57 13.17 11.43 13.15 11.29 13.15L2 13.06C1.87 13.05 1.75 13.07 1.62 13.09C1.52 13.11 1.42 13.14 1.33 13.18C1.19 13.23 1.06 13.3 0.95 13.39C0.88 13.44 0.82 13.49 0.76 13.54C0.65 13.65 0.56 13.77 0.49 13.9C0.45 13.97 0.41 14.04 0.38 14.12Q0.33 14.28 0.31 14.44Q0.3 14.45 0.3 14.45L0.3 14.45ZM1.81 14.76C1.8 14.72 1.8 14.69 1.79 14.65C1.8 14.65 1.8 14.65 1.81 14.64C1.85 14.61 1.93 14.55 1.98 14.55L11.26 14.64C11.31 14.65 11.36 14.66 11.39 14.68C11.4 14.69 11.41 14.71 11.42 14.73C11.45 14.78 11.49 14.85 11.49 14.88C11.45 15.47 11.37 16.13 11.26 16.86C11.13 17.68 10.98 18.38 10.82 18.98C10.7 19.41 10.51 19.78 10.25 20.1C10.07 20.31 9.87 20.48 9.65 20.62C9.53 20.69 9.41 20.75 9.28 20.8C8.85 20.97 8.37 21.01 7.82 20.93C7.17 20.84 6.47 20.58 5.7 20.15C4.62 19.55 3.75 18.79 3.09 17.88C2.99 17.74 2.9 17.6 2.81 17.46C2.68 17.26 2.57 17.05 2.46 16.84Q2.27 16.43 2.12 16.01C1.98 15.6 1.87 15.18 1.81 14.76Z" fill="#191919" fill-opacity="1.000000" fill-rule="evenodd"/>
	</g>
</svg>
