<svg width="40.000000" height="40.000000" viewBox="0 0 40 40" fill="none" xmlns="http://www.w3.org/2000/svg" xmlns:xlink="http://www.w3.org/1999/xlink">
	<desc>
			Created with Pixso.
	</desc>
	<defs/>
	<rect rx="20.000000" width="40.000000" height="40.000000" fill="#000000" fill-opacity="0.047059"/>
	<path d="M16.51 20.26L23.46 13.3C23.6 13.14 23.67 12.96 23.67 12.76C23.67 12.56 23.6 12.38 23.46 12.22C23.32 12.07 23.14 12 22.94 12C22.73 12 22.55 12.07 22.4 12.22L15.42 19.2C15.14 19.49 15 19.84 15 20.26C15 20.67 15.14 21.02 15.42 21.32L22.39 28.25C22.51 28.39 22.68 28.47 22.9 28.47C23.12 28.47 23.29 28.39 23.44 28.25C23.58 28.11 23.65 27.93 23.65 27.72C23.65 27.51 23.58 27.34 23.44 27.2L16.51 20.26Z" fill="#000000" fill-opacity="0.894118" fill-rule="nonzero"/>
</svg>
