<svg viewBox="0 0 24 24" xmlns="http://www.w3.org/2000/svg" xmlns:xlink="http://www.w3.org/1999/xlink" width="24.000000" height="24.000000" fill="none">
	<rect id="download 1" width="24.000000" height="24.000000" x="0.000000" y="0.000000" />
	<rect id="矩形 3474" width="24.000000" height="24.000000" x="0.000000" y="0.000000" opacity="0" fill="rgb(0,0,0)" />
	<g id="组合 1723">
		<path id="矢量 21" d="M10.9 17.28C11.06 17.4267 11.23 17.5333 11.41 17.6C11.5967 17.6733 11.7933 17.71 12 17.71C12.2067 17.71 12.4033 17.6733 12.59 17.6C12.77 17.5333 12.94 17.4267 13.1 17.28L17.78 12.58L17.83 12.53C17.9567 12.37 18.0167 12.1933 18.01 12C18.0033 11.8067 17.9267 11.6467 17.78 11.52C17.6533 11.3933 17.4933 11.3267 17.3 11.32C17.1133 11.3067 16.94 11.3567 16.78 11.47L16.73 11.52L12.74 15.43L12.74 2.88001C12.74 2.67335 12.67 2.49668 12.53 2.35001C12.3833 2.21001 12.2067 2.14001 12 2.14001C11.7933 2.14001 11.6167 2.21001 11.47 2.35001C11.33 2.49668 11.26 2.67335 11.26 2.88001L11.26 15.48L7.27 11.52C7.14333 11.3733 6.97667 11.3 6.77 11.3C6.56333 11.3 6.38667 11.3733 6.24 11.52C6.08 11.6667 6 11.8433 6 12.05C6 12.2567 6.08 12.4333 6.24 12.58L10.9 17.28Z" fill="rgb(0,0,0)" fill-opacity="0.600000024" fill-rule="nonzero" />
		<path id="矢量 22" d="M21.2602 15.29C21.0536 15.29 20.8802 15.36 20.7402 15.5C20.5936 15.6467 20.5202 15.8234 20.5202 16.03L20.5202 18.12C20.5202 18.7267 20.3002 19.25 19.8602 19.69C19.4202 20.13 18.8869 20.35 18.2602 20.35L5.74023 20.35C5.1269 20.35 4.5969 20.13 4.15023 19.69C3.70357 19.25 3.48023 18.7267 3.48023 18.12L3.48023 16.06C3.48023 15.8467 3.4069 15.67 3.26023 15.53C3.12023 15.3834 2.9469 15.31 2.74023 15.31C2.5269 15.31 2.35023 15.3834 2.21023 15.53C2.06357 15.67 1.99023 15.8467 1.99023 16.06L1.99023 18.12C1.99023 18.7934 2.16023 19.4167 2.50023 19.99C2.83357 20.57 3.2869 21.0267 3.86023 21.36C4.44023 21.6934 5.0669 21.86 5.74023 21.86L18.2602 21.86C18.9536 21.86 19.5869 21.6934 20.1602 21.36C20.7336 21.0267 21.1902 20.57 21.5302 19.99C21.8636 19.4167 22.0302 18.7934 22.0302 18.12L22.0302 16.03C22.0302 15.8234 21.9536 15.6467 21.8002 15.5C21.6536 15.36 21.4736 15.29 21.2602 15.29Z" fill="rgb(0,0,0)" fill-opacity="0.600000024" fill-rule="nonzero" />
	</g>
</svg>
