<svg viewBox="0 0 40 40" xmlns="http://www.w3.org/2000/svg" xmlns:xlink="http://www.w3.org/1999/xlink" width="40.000000" height="40.000000" fill="none" clip-path="url(#clipPath_6)" customFrame="url(#clipPath_6)">
	<defs>
		<clipPath id="clipPath_6">
			<rect width="40.000000" height="40.000000" x="0.000000" y="0.000000" rx="20.000000" fill="rgb(255,255,255)" />
		</clipPath>
		<clipPath id="clipPath_7">
			<rect width="24.000000" height="24.000000" x="8.073730" y="8.216309" fill="rgb(255,255,255)" />
		</clipPath>
		<linearGradient id="paint_linear_3" x1="20.4136925" x2="20.4136925" y1="9.63623047" y2="29.4762306" gradientUnits="userSpaceOnUse">
			<stop stop-color="rgb(241,209,165)" offset="0" stop-opacity="1" />
			<stop stop-color="rgb(227,172,88)" offset="1" stop-opacity="1" />
		</linearGradient>
	</defs>
	<rect id="svg" width="40.000000" height="40.000000" x="0.000000" y="0.000000" rx="20.000000" fill="rgb(253,245,226)" />
	<g id="svg" clip-path="url(#clipPath_7)" customFrame="url(#clipPath_7)">
		<rect id="svg" width="24.000000" height="24.000000" x="8.073730" y="8.216309" />
		<rect id="rect" width="24.000000" height="24.000000" x="8.073730" y="8.216309" opacity="0" fill="rgb(0,0,0)" />
		<g id="g">
			<path id="path" d="M25.1337 29.4362C25.3204 29.4629 25.447 29.4762 25.5137 29.4762C25.627 29.4762 25.7637 29.4629 25.9237 29.4362C27.377 28.9829 28.5537 28.1529 29.4537 26.9462C30.347 25.7396 30.7937 24.3762 30.7937 22.8562L30.7937 20.2862C30.7937 20.0129 30.7204 19.7629 30.5737 19.5362C30.4337 19.3029 30.2437 19.1296 30.0037 19.0162L26.1337 17.2162C25.9737 17.1362 25.767 17.0962 25.5137 17.0962C25.2737 17.0962 25.067 17.1362 24.8937 17.2162L21.0537 19.0162C20.7937 19.1429 20.5937 19.3196 20.4537 19.5462C20.307 19.7662 20.2337 20.0129 20.2337 20.2862L20.2337 22.8562C20.2337 23.8496 20.4404 24.7929 20.8537 25.6862C21.2737 26.5862 21.8537 27.3629 22.5937 28.0162C23.3404 28.6696 24.187 29.1429 25.1337 29.4362ZM24.8437 25.5462C24.4437 25.5462 24.107 25.4096 23.8337 25.1362L22.3937 23.6762C22.247 23.5296 22.1737 23.3529 22.1737 23.1462C22.1737 22.9396 22.247 22.7629 22.3937 22.6162C22.5404 22.4696 22.717 22.3962 22.9237 22.3962C23.1304 22.3962 23.307 22.4696 23.4537 22.6162L24.8437 23.9862L27.6237 21.2262C27.7704 21.0796 27.947 21.0062 28.1537 21.0062C28.3604 21.0062 28.537 21.0796 28.6837 21.2262C28.8237 21.3662 28.8937 21.5429 28.8937 21.7562C28.8937 21.9629 28.8237 22.1362 28.6837 22.2762L25.8237 25.1362C25.5504 25.4096 25.2237 25.5462 24.8437 25.5462ZM10.0537 26.1662C10.0537 26.7596 10.2037 27.3096 10.5037 27.8162C10.797 28.3162 11.1937 28.7162 11.6937 29.0162C12.187 29.3096 12.7304 29.4562 13.3237 29.4562C13.917 29.4562 14.4604 29.3096 14.9537 29.0162C15.447 28.7162 15.8437 28.3162 16.1437 27.8162C16.437 27.3096 16.5837 26.7596 16.5837 26.1662L16.5837 23.4762C16.5837 22.8896 16.437 22.3462 16.1437 21.8462C15.8437 21.3529 15.447 20.9562 14.9537 20.6562C14.4604 20.3629 13.917 20.2162 13.3237 20.2162C12.8904 20.2162 12.457 20.3029 12.0237 20.4762L12.0237 19.5662C12.0237 18.1262 12.3804 16.8029 13.0937 15.5962C13.807 14.3896 14.767 13.4296 15.9737 12.7162C17.1804 12.0029 18.5037 11.6462 19.9437 11.6462C21.5104 11.6462 22.9437 12.0662 24.2437 12.9062C25.537 13.7462 26.5037 14.8562 27.1437 16.2362L29.6137 17.4062C29.2937 15.9329 28.667 14.6062 27.7337 13.4262C26.8004 12.2396 25.6537 11.3096 24.2937 10.6362C22.9337 9.96956 21.4837 9.63623 19.9437 9.63623C18.1504 9.63623 16.4937 10.0829 14.9737 10.9762C13.4537 11.8696 12.2504 13.0762 11.3637 14.5962C10.477 16.1162 10.0337 17.7729 10.0337 19.5662L10.0337 25.7862L10.0537 26.1662Z" fill="url(#paint_linear_3)" fill-rule="nonzero" />
		</g>
	</g>
</svg>
