<svg viewBox="0 0 40 40" xmlns="http://www.w3.org/2000/svg" xmlns:xlink="http://www.w3.org/1999/xlink" width="40.000000" height="40.000000" fill="none" clip-path="url(#clipPath_4)" customFrame="url(#clipPath_4)">
	<defs>
		<clipPath id="clipPath_4">
			<rect width="40.000000" height="40.000000" x="0.000000" y="0.000000" rx="20.000000" fill="rgb(255,255,255)" />
		</clipPath>
		<clipPath id="clipPath_5">
			<rect width="24.000000" height="24.000000" x="8.000000" y="8.000000" fill="rgb(255,255,255)" />
		</clipPath>
		<linearGradient id="paint_linear_2" x1="20" x2="20" y1="8.75" y2="31.0521984" gradientUnits="userSpaceOnUse">
			<stop stop-color="rgb(241,209,166)" offset="0" stop-opacity="1" />
			<stop stop-color="rgb(227,172,88)" offset="1" stop-opacity="1" />
		</linearGradient>
	</defs>
	<rect id="svg" width="40.000000" height="40.000000" x="0.000000" y="0.000000" rx="20.000000" fill="rgb(253,245,226)" />
	<g id="ic_ict_reconciliation_two_colors2 1" clip-path="url(#clipPath_5)" customFrame="url(#clipPath_5)">
		<rect id="ic_ict_reconciliation_two_colors2 1" width="24.000000" height="24.000000" x="8.000000" y="8.000000" />
		<g id="ic_ict_reconciliation-对账/base/ic_ict_reconciliation">
			<path id="减去顶层" d="M29 11.75L29 31.0094L28.9999 31.0098C28.9827 31.0358 27.1494 29.8659 23.5 27.5L20 31L16.5987 27.4617C12.8799 29.8759 11.0137 31.0727 11.0001 31.0519L11 31.0517L11 11.75C11 10.0931 12.3431 8.75 14 8.75L26 8.75C27.6569 8.75 29 10.0931 29 11.75ZM21.9531 16.857L24.3112 13.5845C24.6386 13.1302 24.5389 12.516 24.0845 12.1886C23.6302 11.8612 23.016 11.9609 22.6886 12.4153L19.9999 16.1465L17.3112 12.4153C16.9838 11.9609 16.3696 11.8612 15.9153 12.1886C15.4609 12.516 15.3612 13.1302 15.6886 13.5845L18.0467 16.857L16.4999 16.857C15.9399 16.857 15.4999 17.297 15.4999 17.857C15.4999 18.417 15.9399 18.857 16.4999 18.857L18.9999 18.857L18.9999 20.2856L16.4999 20.2856C15.9399 20.2856 15.4999 20.7256 15.4999 21.2856C15.4999 21.8456 15.9399 22.2856 16.4999 22.2856L18.9999 22.2856L18.9999 24.9999C18.9999 25.5599 19.4399 25.9999 19.9999 25.9999C20.5599 25.9999 20.9999 25.5599 20.9999 24.9999L20.9999 22.2856L23.4999 22.2856C24.0599 22.2856 24.4999 21.8456 24.4999 21.2856C24.4999 20.7256 24.0599 20.2856 23.4999 20.2856L20.9999 20.2856L20.9999 18.857L23.4999 18.857C24.0599 18.857 24.4999 18.417 24.4999 17.857C24.4999 17.297 24.0599 16.857 23.4999 16.857L21.9531 16.857Z" fill="url(#paint_linear_2)" fill-rule="evenodd" />
		</g>
	</g>
</svg>
