<?xml version="1.0" encoding="UTF-8"?>
<svg width="24px" height="24px" viewBox="0 0 24 24" version="1.1"
     xmlns="http://www.w3.org/2000/svg">
    <title>folder_fill</title>
    <g id="页面-1" stroke="none" stroke-width="1" fill="none" fill-rule="evenodd">
        <g id="我的" transform="translate(-168, -260)" fill="#000000">
            <g id="编组" transform="translate(16, 244)">
                <g id="folder_fill" transform="translate(152, 16)" fill-rule="nonzero">
                    <rect id="矩形" opacity="0" x="0" y="0" width="24" height="24"></rect>
                    <path d="M7.27,3.07 C7.61,3.07 7.93,3.15333333 8.23,3.32 C8.53666667,3.49333333 8.77,3.72333333 8.93,4.01 L16.7,4.01 C17.6466667,4.01 18.4633333,4.31333333 19.15,4.92 C19.8366667,5.52666667 20.2533333,6.28666667 20.4,7.2 C21.1533333,7.37333333 21.7733333,7.76666667 22.26,8.38 C22.7466667,8.98666667 22.99,9.68 22.99,10.46 L22.99,17.57 C22.99,18.1766667 22.8433333,18.74 22.55,19.26 C22.25,19.78 21.8466667,20.1866667 21.34,20.48 C20.8266667,20.78 20.2666667,20.93 19.66,20.93 L4.34,20.93 C3.73333333,20.93 3.17333333,20.78 2.66,20.48 C2.15333333,20.1866667 1.75,19.78 1.45,19.26 C1.15666667,18.74 1.01,18.1766667 1.01,17.57 L1.01,6.43 C1.01,5.82333333 1.15666667,5.26333333 1.45,4.75 C1.75,4.23666667 2.15333333,3.83 2.66,3.53 C3.17333333,3.22333333 3.73333333,3.07 4.34,3.07 Z M12,10.07 C11.9106599,10.07 11.8287648,10.0972241 11.7543147,10.1516723 C11.6798646,10.2035278 11.6252679,10.2735327 11.5905245,10.3616869 L10.8013536,12.3412688 C10.7666103,12.4268303 10.7169769,12.4942424 10.6524535,12.5435051 C10.5854484,12.5953606 10.5072758,12.6238811 10.4179357,12.6290666 L8.40778342,12.7885221 C8.31844332,12.7937077 8.23778906,12.8261173 8.16582064,12.8857511 C8.0963339,12.9453849 8.04918218,13.0179825 8.02436548,13.103544 C7.99458545,13.1916983 7.99210378,13.2811489 8.01692047,13.371896 C8.0392555,13.462643 8.08640722,13.5391298 8.15837563,13.6013563 L9.70321489,14.9547837 C9.77021997,15.0092319 9.81861252,15.0805331 9.84839255,15.1686874 C9.87817259,15.2542489 9.88065426,15.3411068 9.85583756,15.4292611 L9.36446701,17.5021828 C9.33965031,17.5955226 9.34461365,17.6849733 9.37935702,17.7705348 C9.41161873,17.858689 9.46621545,17.9312867 9.54314721,17.9883277 C9.61511562,18.0375903 9.69576988,18.0635181 9.78510998,18.0661108 C9.87445008,18.0687036 9.95758601,18.0453687 10.0345178,17.996106 L11.7505922,16.8371366 C11.827524,16.7878739 11.9094191,16.7632426 11.9962775,16.7632426 C12.0831359,16.7632426 12.165031,16.7878739 12.2419628,16.8371366 L13.9580372,17.996106 C14.0399323,18.0453687 14.1243091,18.07 14.2111675,18.07 C14.2980259,18.07 14.379921,18.0427759 14.4568528,17.9883277 C14.5337845,17.9312867 14.5871404,17.858689 14.6169205,17.7705348 C14.6467005,17.6849733 14.650423,17.5955226 14.628088,17.5021828 L14.1441624,15.4292611 C14.1193457,15.3359212 14.1205866,15.247767 14.1478849,15.1647982 C14.1751833,15.0792368 14.2210942,15.0092319 14.2856176,14.9547837 L15.8416244,13.6013563 C15.9135928,13.5391298 15.9607445,13.462643 15.9830795,13.371896 C16.0078962,13.2811489 16.0054146,13.1916983 15.9756345,13.103544 C15.9458545,13.0179825 15.8962211,12.9453849 15.8267343,12.8857511 C15.7597293,12.8261173 15.6815567,12.7937077 15.5922166,12.7885221 L13.5820643,12.6290666 C13.4927242,12.6238811 13.4133108,12.5953606 13.343824,12.5435051 C13.276819,12.4942424 13.2284264,12.4268303 13.1986464,12.3412688 L12.4094755,10.3616869 C12.3747321,10.2735327 12.3201354,10.2035278 12.2456853,10.1516723 C12.1712352,10.0972241 12.0893401,10.07 12,10.07 Z M16.7,5.52 L9.84,5.52 L10.68,6.91 C10.7266667,6.97666667 10.7866667,7.03 10.86,7.07 C10.9333333,7.11 11,7.13 11.06,7.13 L18.84,7.13 C18.7133333,6.65 18.4533333,6.26 18.06,5.96 C17.6666667,5.66666667 17.2133333,5.52 16.7,5.52 Z"
                          id="形状结合" fill-opacity="0.601961"></path>
                </g>
            </g>
        </g>
    </g>
</svg>