<?xml version="1.0" encoding="UTF-8"?>
<svg width="12px" height="12px" viewBox="0 0 12 12" version="1.1"
     xmlns="http://www.w3.org/2000/svg">
    <title>VIP (1)备份 2</title>
    <g id="页面-1" stroke="none" stroke-width="1" fill="none" fill-rule="evenodd">
        <g id="我的" transform="translate(-223, -129)">
            <g id="编组" transform="translate(16, 108)">
                <g transform="translate(12, 12)" id="VIP-(1)备份-2">
                    <g transform="translate(195, 9)">
                        <rect id="矩形" x="0" y="0" width="12" height="12"></rect>
                        <path d="M9.25543231,1.25 C9.40853945,1.25 9.55183982,1.32535028 9.63862093,1.45148845 L11.3613332,3.95548709 C11.4808077,4.12914585 11.4685606,4.36144121 11.3314879,4.52157426 L6.35334331,10.3372123 C6.3377215,10.3554622 6.32070928,10.3724745 6.30245935,10.3880963 C6.10731322,10.55514 5.81370037,10.5323584 5.64665669,10.3372123 L0.668512139,4.52157426 C0.531439391,4.36144121 0.51919229,4.12914585 0.63866683,3.95548709 L2.36137907,1.45148845 C2.44816018,1.32535028 2.59146055,1.25 2.74456769,1.25 Z M4.4156048,3.74418605 L3.69767442,3.74418605 C3.46648545,3.74418605 3.27906977,3.93160173 3.27906977,4.1627907 L3.27952539,4.18249634 C3.28981497,4.40453614 3.47309085,4.58139535 3.69767442,4.58139535 L3.95009801,4.58139535 C4.11103235,4.58139535 4.26053125,4.66458988 4.34535817,4.80135338 L5.60502151,6.832265 C5.64170552,6.89140936 5.69119487,6.94156731 5.74984166,6.97904165 C5.96630133,7.11735584 6.25390236,7.05400642 6.39221655,6.83754675 L7.69668583,4.79607163 C7.78214566,4.66232826 7.92990503,4.58139535 8.08862072,4.58139535 L8.34883721,4.58139535 C8.58002617,4.58139535 8.76744186,4.39397966 8.76744186,4.1627907 C8.76744186,3.93160173 8.58002617,3.74418605 8.34883721,3.74418605 L7.62975332,3.74418605 C7.47103187,3.74418605 7.32326796,3.82512479 7.23780969,3.95887599 L6.40250941,5.26620904 C6.36503928,5.32485375 6.31488666,5.37434256 6.25574793,5.41102804 C6.03745996,5.54643839 5.75073081,5.47925281 5.61532046,5.26096484 L4.81085013,3.96412019 C4.72602022,3.82737032 4.57652913,3.74418605 4.4156048,3.74418605 Z"
                              id="形状结合" fill="#0A59F7" fill-rule="nonzero"></path>
                    </g>
                </g>
            </g>
        </g>
    </g>
</svg>