<?xml version="1.0" encoding="UTF-8"?>
<svg width="24px" height="24px" viewBox="0 0 24 24" version="1.1"
     xmlns="http://www.w3.org/2000/svg">
    <title>编组</title>
    <defs>
        <linearGradient x1="50%" y1="0%" x2="50%" y2="100%" id="linearGradient-1">
            <stop stop-color="#56B6FA" offset="0%"></stop>
            <stop stop-color="#006CFE" offset="100%"></stop>
        </linearGradient>
    </defs>
    <g id="页面-1" stroke="none" stroke-width="1" fill="none" fill-rule="evenodd">
        <g id="首页_收藏" transform="translate(-16, -236)">
            <g id="编组" transform="translate(16, 220)">
                <g transform="translate(0, 16)">
                    <circle id="椭圆形-2" fill="url(#linearGradient-1)" cx="12" cy="12" r="12"></circle>
                    <path d="M17,8.70947368 C17.3511111,8.70947368 17.6822222,8.80070175 17.9933333,8.98315789 C18.3044444,9.17017544 18.5488889,9.42105263 18.7266667,9.73578947 C18.9088889,10.0459649 19,10.3880702 19,10.7621053 L19,12.7942105 L13.98,12.7942105 C13.9044444,12.6619298 13.8,12.5524561 13.6666667,12.4657895 C13.5333333,12.3791228 13.3866667,12.3357895 13.2266667,12.3357895 L10.78,12.3357895 C10.62,12.3357895 10.4688889,12.3791228 10.3266667,12.4657895 C10.1888889,12.5524561 10.0822222,12.6619298 10.0066667,12.7942105 L5,12.7942105 L5,10.7621053 C5,10.1919298 5.19555556,9.70614035 5.58666667,9.30473684 C5.97333333,8.90789474 6.44444444,8.70947368 7,8.70947368 L7.99333333,8.70947368 L7.99333333,8.05263158 C7.99333333,7.67859649 8.08444444,7.33649123 8.26666667,7.02631579 C8.44888889,6.71157895 8.69111111,6.46070175 8.99333333,6.27368421 C9.29555556,6.09122807 9.62888889,6 9.99333333,6 L14.0066667,6 C14.3711111,6 14.7044444,6.09122807 15.0066667,6.27368421 C15.3133333,6.46070175 15.5577778,6.71157895 15.74,7.02631579 C15.9177778,7.33649123 16.0066667,7.67859649 16.0066667,8.05263158 L16.0066667,8.70947368 L17,8.70947368 Z M15,8.70947368 L15,8.05263158 C15,7.76526316 14.9044444,7.52122807 14.7133333,7.32052632 C14.5222222,7.11526316 14.2866667,7.01263158 14.0066667,7.01263158 L9.99333333,7.01263158 C9.71777778,7.01263158 9.48222222,7.11526316 9.28666667,7.32052632 C9.09555556,7.52122807 9,7.76526316 9,8.05263158 L9,8.70947368 L15,8.70947368 Z M13.2266667,14.19 C13.3733333,14.19 13.5133333,14.1489474 13.6466667,14.0668421 C13.78,13.9847368 13.8911111,13.8729825 13.98,13.7315789 L19,13.7315789 L19,16.9473684 C19,17.3214035 18.9088889,17.6635088 18.7266667,17.9736842 C18.5488889,18.2884211 18.3044444,18.5392982 17.9933333,18.7263158 C17.6822222,18.9087719 17.3511111,19 17,19 L7,19 C6.64,19 6.30666667,18.9087719 6,18.7263158 C5.69777778,18.5392982 5.45555556,18.2884211 5.27333333,17.9736842 C5.09111111,17.6635088 5,17.3214035 5,16.9473684 L5,13.7315789 L10.0066667,13.7315789 C10.0955556,13.8729825 10.2066667,13.9847368 10.34,14.0668421 C10.4733333,14.1489474 10.62,14.19 10.78,14.19 L13.2266667,14.19 Z"
                          id="形状" fill="#FFFFFF" fill-rule="nonzero"></path>
                </g>
            </g>
        </g>
    </g>
</svg>