<svg width="16.000000" height="16.000000" viewBox="0 0 16 16" fill="none" xmlns="http://www.w3.org/2000/svg" xmlns:xlink="http://www.w3.org/1999/xlink">
	<desc>
			Created with Pixso.
	</desc>
	<defs>
		<clipPath id="clip220_4675">
			<rect rx="4.000000" width="16.000000" height="16.000000" fill="white" fill-opacity="0"/>
		</clipPath>
		<linearGradient x1="8.000000" y1="0.000000" x2="8.000000" y2="16.000000" id="paint_linear_220_4675_0" gradientUnits="userSpaceOnUse">
			<stop stop-color="#BFF14B"/>
			<stop offset="1.000000" stop-color="#6B9900"/>
		</linearGradient>
	</defs>
	<rect rx="4.000000" width="16.000000" height="16.000000" fill="url(#paint_linear_220_4675_0)" fill-opacity="1.000000"/>
	<g clip-path="url(#clip220_4675)">
		<path d="M9.85 3.21C9.99 3 10.28 2.93 10.51 3.07C10.68 3.17 10.85 3.28 11.01 3.41C11.19 3.55 11.36 3.7 11.53 3.86C11.69 4.02 11.84 4.2 11.98 4.38C12.1 4.54 12.21 4.7 12.31 4.87C12.53 5.25 12.7 5.64 12.82 6.06C12.86 6.22 12.9 6.38 12.92 6.54C12.97 6.82 13 7.09 13 7.37C13 7.66 12.97 7.94 12.92 8.21C12.89 8.38 12.86 8.55 12.81 8.71C12.76 8.91 12.69 9.1 12.61 9.29C12.52 9.5 12.41 9.71 12.29 9.91C12.19 10.09 12.07 10.25 11.95 10.41C11.81 10.59 11.65 10.77 11.48 10.93C11.32 11.1 11.14 11.25 10.95 11.39C10.79 11.51 10.62 11.62 10.44 11.73C10.21 11.86 9.92 11.79 9.79 11.57C9.65 11.34 9.72 11.07 9.95 10.93C10.09 10.85 10.23 10.76 10.36 10.66C10.52 10.55 10.67 10.42 10.81 10.29C11.06 10.03 11.28 9.76 11.47 9.45C11.65 9.15 11.79 8.83 11.88 8.5C11.99 8.14 12.04 7.76 12.04 7.37C12.04 6.99 11.99 6.62 11.89 6.26C11.8 5.94 11.66 5.63 11.48 5.33C11.3 5.02 11.09 4.75 10.85 4.5C10.6 4.25 10.32 4.04 10.01 3.85C9.78 3.71 9.71 3.43 9.85 3.21ZM7.76 3.23L7.76 11.52C6.09 11.52 4.85 9.41 4.85 9.41L3.47 9.41C3.21 9.41 3 9.2 3 8.95L3 5.77C3 5.51 3.21 5.31 3.47 5.31L4.85 5.31C4.85 5.31 6.09 3.23 7.76 3.23ZM9.98 4.96C9.78 4.79 9.48 4.8 9.31 5C9.13 5.19 9.15 5.47 9.34 5.65C9.39 5.69 9.44 5.73 9.48 5.78C9.55 5.85 9.62 5.92 9.68 6C9.75 6.1 9.81 6.19 9.87 6.29C9.93 6.4 9.98 6.52 10.02 6.64C10.05 6.72 10.07 6.81 10.09 6.9C10.12 7.05 10.14 7.21 10.14 7.37C10.14 7.54 10.12 7.69 10.09 7.85C10.07 7.93 10.05 8.02 10.02 8.11C9.98 8.22 9.93 8.34 9.87 8.45C9.82 8.55 9.75 8.64 9.69 8.74C9.62 8.82 9.56 8.9 9.49 8.97C9.44 9.02 9.39 9.06 9.34 9.1C9.15 9.27 9.13 9.56 9.31 9.75C9.48 9.94 9.78 9.96 9.98 9.79C10.05 9.73 10.12 9.66 10.19 9.59Q10.23 9.55 10.27 9.5L10.27 9.5Q10.37 9.39 10.46 9.28C10.56 9.14 10.64 9.01 10.72 8.86C10.8 8.71 10.87 8.56 10.92 8.39C10.97 8.26 11 8.13 11.03 7.99C11.07 7.79 11.09 7.58 11.09 7.37C11.09 7.16 11.07 6.96 11.03 6.75C11 6.62 10.97 6.48 10.92 6.35C10.86 6.18 10.79 6.02 10.71 5.87C10.64 5.73 10.55 5.59 10.45 5.46Q10.36 5.34 10.26 5.24L10.26 5.24L10.26 5.24Q10.23 5.2 10.19 5.16C10.12 5.09 10.05 5.02 9.98 4.96Z" fill="#FFFFFF" fill-opacity="1.000000" fill-rule="evenodd"/>
	</g>
</svg>
