<svg width="24.000000" height="24.000000" viewBox="0 0 24 24" fill="none" xmlns="http://www.w3.org/2000/svg" xmlns:xlink="http://www.w3.org/1999/xlink">
	<desc>
			Created with Pixso.
	</desc>
	<defs>
		<clipPath id="clip22_552">
			<rect id="icon_study_on" width="24.000000" height="24.000000" fill="white" fill-opacity="0"/>
		</clipPath>
	</defs>
	<g clip-path="url(#clip22_552)">
		<g opacity="0.000000">
			<rect id="rect" width="24.000000" height="24.000000" fill="#000000" fill-opacity="1.000000"/>
		</g>
		<path id="path" d="M12.84 3.04C12.53 2.92 12.23 2.85 11.92 2.85C11.62 2.85 11.32 2.92 11.02 3.04L1.19 7.25C0.95 7.34 0.79 7.52 0.7 7.79C0.62 8.04 0.62 8.31 0.7 8.57C0.79 8.84 0.95 9.02 1.19 9.12L11.04 13.08C11.58 13.31 12.15 13.31 12.74 13.08L22.75 9.12C23.01 9.02 23.18 8.85 23.28 8.59C23.37 8.35 23.37 8.09 23.29 7.83C23.2 7.57 23.04 7.39 22.8 7.29L12.84 3.04Z" fill="#564AF7" fill-opacity="1.000000" fill-rule="nonzero"/>
		<path id="path" d="M19.49 12.19C19.29 12.11 19.04 12.11 18.72 12.19C18.52 12.23 18.06 12.41 17.33 12.71C16.59 13 16.07 13.22 15.77 13.37C15.33 13.54 14.86 13.74 14.36 13.97C13.86 14.19 13.48 14.36 13.22 14.5C13.03 14.59 12.86 14.7 12.72 14.84C12.57 14.98 12.44 15.13 12.34 15.31C12.26 15.39 12.17 15.54 12.07 15.77C12.07 15.79 12.04 15.87 12.04 15.89L11.93 15.77C11.83 15.54 11.74 15.39 11.66 15.31C11.48 15.03 11.28 14.82 11.06 14.66L10.78 14.5C10.2 14.2 9.23 13.77 7.87 13.19C6.51 12.6 5.63 12.27 5.23 12.19C4.91 12.13 4.64 12.14 4.42 12.23C4.19 12.31 4.04 12.49 3.96 12.77C3.92 12.94 3.91 13.74 3.92 15.18C3.93 16.61 3.98 17.49 4.06 17.81C4.12 18.11 4.26 18.39 4.48 18.67C4.69 18.94 4.93 19.17 5.21 19.37C5.51 19.56 5.98 19.76 6.64 19.98C7.28 20.19 8.2 20.47 9.38 20.81C10.1 21.01 10.81 21.22 11.52 21.43C11.68 21.47 11.84 21.5 12 21.5C12.16 21.5 12.32 21.47 12.48 21.43C12.94 21.3 13.41 21.16 13.87 21.02C15.35 20.59 16.47 20.26 17.23 20.02C17.98 19.78 18.5 19.56 18.79 19.37C19.06 19.17 19.3 18.94 19.52 18.67C19.74 18.39 19.88 18.11 19.94 17.81C20 17.61 20.04 17.14 20.04 16.4C20.05 15.66 20.05 14.45 20.04 12.77C19.99 12.64 19.92 12.53 19.84 12.43C19.74 12.33 19.63 12.25 19.49 12.19ZM21.53 11.06C21.32 11.06 21.14 11.13 21 11.28C20.85 11.42 20.78 11.6 20.78 11.81L20.78 17.5C20.78 17.7 20.85 17.87 21 18.02C21.14 18.16 21.32 18.24 21.53 18.24C21.73 18.24 21.91 18.16 22.07 18.02C22.22 17.87 22.3 17.7 22.3 17.5L22.3 11.81C22.3 11.6 22.22 11.42 22.07 11.28C21.91 11.13 21.73 11.06 21.53 11.06Z" fill="#564AF7" fill-opacity="1.000000" fill-rule="nonzero"/>
	</g>
</svg>
