<svg width="24.000000" height="24.000000" viewBox="0 0 24 24" fill="none" xmlns="http://www.w3.org/2000/svg" xmlns:xlink="http://www.w3.org/1999/xlink">
	<desc>
			Created with Pixso.
	</desc>
	<defs>
		<clipPath id="clip22_542">
			<rect id="icon_study_off" width="24.000000" height="24.000000" fill="white" fill-opacity="0"/>
		</clipPath>
	</defs>
	<g clip-path="url(#clip22_542)">
		<g opacity="0.000000">
			<rect id="rect" width="24.000000" height="24.000000" fill="#000000" fill-opacity="1.000000"/>
		</g>
		<path id="矢量 77" d="M12.84 3.05L22.8 7.3C23.04 7.39 23.2 7.57 23.29 7.84C23.37 8.1 23.37 8.35 23.28 8.6C23.18 8.85 23.01 9.02 22.75 9.12L12.74 13.08Q12.21 13.29 11.71 13.25L11.7 13.25Q11.37 13.22 11.04 13.08L1.19 9.12C1.1 9.08 1.02 9.03 0.95 8.97Q0.79 8.82 0.7 8.58C0.66 8.43 0.64 8.28 0.64 8.13C0.65 8.02 0.67 7.9 0.7 7.79C0.79 7.52 0.95 7.34 1.19 7.25L11.02 3.05C11.28 2.93 11.54 2.87 11.81 2.86C11.85 2.86 11.89 2.86 11.92 2.86C12.23 2.86 12.53 2.92 12.84 3.05ZM11.92 4.06C11.78 4.06 11.63 4.09 11.48 4.15L2.07 8.17L11.5 11.97C11.62 12.02 11.75 12.06 11.87 12.06C12 12.06 12.13 12.02 12.28 11.96L21.83 8.19L12.36 4.15C12.21 4.09 12.07 4.06 11.92 4.06ZM21 11.28C21.14 11.13 21.32 11.06 21.53 11.06C21.73 11.06 21.91 11.13 22.07 11.28Q22.19 11.39 22.25 11.54Q22.3 11.66 22.3 11.81L22.3 17.5C22.3 17.7 22.22 17.88 22.07 18.02C21.91 18.16 21.73 18.24 21.53 18.24C21.32 18.24 21.14 18.16 21 18.02C20.85 17.88 20.78 17.7 20.78 17.5L20.78 11.81C20.78 11.6 20.85 11.42 21 11.28ZM20.04 16.4C20.04 17.14 20 17.61 19.94 17.81C19.88 18.11 19.74 18.39 19.52 18.67C19.3 18.94 19.06 19.17 18.79 19.37C18.5 19.56 17.98 19.78 17.23 20.02C16.47 20.26 15.35 20.59 13.87 21.02C13.41 21.16 12.94 21.3 12.48 21.43C12.32 21.47 12.16 21.5 12 21.5C11.84 21.5 11.68 21.47 11.52 21.43C10.81 21.22 10.1 21.01 9.38 20.81C8.2 20.47 7.28 20.19 6.64 19.98C5.98 19.76 5.51 19.56 5.21 19.37C4.96 19.18 4.67 18.91 4.48 18.67C4.26 18.39 4.12 18.11 4.06 17.81C3.98 17.49 3.93 16.61 3.92 15.18C3.91 13.74 3.92 12.94 3.96 12.77C4.01 12.57 4.1 12.43 4.23 12.33C4.28 12.29 4.35 12.25 4.42 12.23Q4.75 12.1 5.23 12.19C5.63 12.27 6.51 12.6 7.87 13.19C9.23 13.77 10.2 14.2 10.78 14.5L11.06 14.66C11.11 14.7 11.17 14.74 11.23 14.79C11.38 14.93 11.53 15.1 11.66 15.31C11.74 15.39 11.83 15.54 11.93 15.77L12.04 15.89C12.04 15.87 12.07 15.79 12.07 15.77C12.09 15.71 12.15 15.58 12.18 15.53C12.23 15.43 12.29 15.35 12.34 15.31C12.44 15.13 12.57 14.98 12.72 14.84C12.85 14.72 13.05 14.58 13.22 14.5C13.48 14.36 13.86 14.19 14.36 13.97Q15.12 13.63 15.77 13.37Q16.22 13.15 17.33 12.71C18.06 12.41 18.52 12.23 18.72 12.19C19.04 12.11 19.29 12.11 19.49 12.19C19.63 12.25 19.74 12.33 19.84 12.43C19.92 12.53 19.99 12.64 20.04 12.77C20.05 14.45 20.05 15.66 20.04 16.4ZM18.57 17.93C18.43 18.1 18.28 18.25 18.1 18.38C18.03 18.43 17.9 18.49 17.72 18.56C17.49 18.66 17.2 18.76 16.86 18.87C16.12 19.11 15.01 19.44 13.53 19.86C13.09 20 12.6 20.15 12.14 20.27C12.09 20.29 12.04 20.3 12 20.3C11.95 20.3 11.9 20.29 11.85 20.27L9.71 19.65C8.54 19.32 7.64 19.04 7.01 18.83C6.47 18.66 6.09 18.5 5.88 18.37C5.71 18.25 5.55 18.09 5.41 17.91C5.31 17.79 5.25 17.68 5.23 17.57C5.21 17.48 5.18 17.21 5.16 16.84C5.14 16.42 5.12 15.86 5.12 15.17C5.11 14.46 5.11 13.91 5.12 13.52C5.12 13.47 5.12 13.43 5.12 13.4C5.27 13.44 5.48 13.51 5.76 13.62C6.18 13.78 6.73 14 7.39 14.29C8.71 14.85 9.65 15.27 10.21 15.55L10.4 15.66C10.48 15.73 10.56 15.82 10.64 15.95C10.65 15.97 10.7 16.04 10.72 16.06C10.74 16.09 10.8 16.18 10.83 16.25C10.84 16.28 10.9 16.39 10.92 16.42C10.94 16.45 11.02 16.55 11.04 16.58L11.15 16.7C11.18 16.73 11.22 16.77 11.26 16.8C11.3 16.83 11.34 16.86 11.38 16.89C11.42 16.92 11.47 16.94 11.51 16.97C11.56 16.99 11.61 17.01 11.66 17.02C11.81 17.08 11.97 17.1 12.12 17.09C12.27 17.08 12.42 17.03 12.57 16.96C12.72 16.88 12.84 16.79 12.94 16.67C13.04 16.56 13.12 16.42 13.17 16.26C13.19 16.23 13.2 16.19 13.21 16.15C13.22 16.14 13.26 16.06 13.28 16.05C13.29 16.03 13.34 15.95 13.36 15.93C13.39 15.88 13.43 15.83 13.47 15.79C13.53 15.73 13.67 15.61 13.76 15.56C14 15.44 14.36 15.27 14.85 15.06C15.34 14.84 15.79 14.65 16.21 14.48C16.48 14.35 17.06 14.1 17.78 13.82C18.28 13.61 18.63 13.47 18.84 13.4L18.85 16.38C18.84 16.73 18.83 17.01 18.82 17.21C18.81 17.3 18.8 17.37 18.79 17.42C18.79 17.44 18.77 17.52 18.77 17.53C18.75 17.64 18.67 17.8 18.57 17.93ZM10.87 15.77C10.87 15.68 10.87 15.61 10.88 15.55C10.88 15.59 10.87 15.72 10.87 15.77Z" fill="#000000" fill-opacity="0.600000" fill-rule="evenodd"/>
	</g>
</svg>
