<svg viewBox="0 0 40 40" xmlns="http://www.w3.org/2000/svg" xmlns:xlink="http://www.w3.org/1999/xlink" width="40.000000" height="40.000000" fill="none" customFrame="#000000">
	<defs>
		<clipPath id="clipPath_1">
			<rect width="20.000000" height="20.000000" x="10.000000" y="10.000000" fill="rgb(255,255,255)" />
		</clipPath>
	</defs>
	<g id="组合 4102">
		<rect id="矩形 3400" width="40.000000" height="40.000000" x="0.000000" y="0.000000" rx="8.000000" fill="rgb(255,255,255)" style="mix-blend-mode:normal" fill-opacity="0.0980392173" />
		<g id="dot_radiowaves_left_and_right.svg" clip-path="url(#clipPath_1)" customFrame="url(#clipPath_1)">
			<rect id="dot_radiowaves_left_and_right.svg" width="20.000000" height="20.000000" x="10.000000" y="10.000000" />
			<rect id="rect" width="20.000000" height="20.000000" x="10.000000" y="10.000000" opacity="0" fill="rgb(0,0,0)" />
			<g id="g">
				<path id="path" d="M20 18.3417C19.5333 18.3417 19.1361 18.5056 18.8083 18.8333C18.4805 19.1556 18.3167 19.5445 18.3167 20C18.3167 20.4556 18.4833 20.85 18.8167 21.1833C19.15 21.5167 19.5444 21.6833 20 21.6833C20.4555 21.6833 20.8444 21.5195 21.1667 21.1917C21.4944 20.8639 21.6583 20.4667 21.6583 20C21.6583 19.5333 21.5 19.1389 21.1833 18.8167C20.8611 18.5 20.4667 18.3417 20 18.3417Z" fill="rgb(255,255,255)" fill-opacity="0.898039222" fill-rule="nonzero" />
				<path id="path" d="M14.3584 20C14.3584 20.9611 14.589 21.8611 15.0501 22.7C15.5112 23.5389 16.1473 24.2195 16.9584 24.7417C17.1084 24.8361 17.2667 24.8611 17.4334 24.8167C17.6001 24.7778 17.7278 24.6861 17.8167 24.5417C17.9112 24.3917 17.939 24.2333 17.9001 24.0667C17.8612 23.9 17.7751 23.7722 17.6417 23.6833C17.014 23.2667 16.5195 22.7361 16.1584 22.0917C15.7973 21.4417 15.6167 20.7445 15.6167 20C15.6167 19.2556 15.7945 18.5556 16.1501 17.9C16.5056 17.2445 17.0028 16.7111 17.6417 16.3C17.7862 16.2056 17.8751 16.075 17.9084 15.9083C17.9417 15.7417 17.9112 15.5861 17.8167 15.4417C17.7278 15.2917 17.6001 15.1972 17.4334 15.1583C17.2667 15.1195 17.1084 15.1528 16.9584 15.2583C16.1473 15.7806 15.5112 16.4583 15.0501 17.2917C14.589 18.125 14.3584 19.0278 14.3584 20ZM22.1584 24.5417C22.2528 24.6861 22.3778 24.7778 22.5334 24.8167C22.6834 24.8611 22.8528 24.8361 23.0417 24.7417C23.5751 24.3917 24.0334 23.9722 24.4167 23.4833C24.8056 22.9889 25.1028 22.4445 25.3084 21.85C25.514 21.2556 25.6167 20.6389 25.6167 20C25.6167 19.0278 25.3917 18.125 24.9417 17.2917C24.4862 16.4583 23.8528 15.7806 23.0417 15.2583C22.8917 15.1528 22.7306 15.1195 22.5584 15.1583C22.3862 15.1972 22.2528 15.2917 22.1584 15.4417C22.064 15.5861 22.0334 15.7389 22.0667 15.9C22.1001 16.0611 22.1917 16.1889 22.3417 16.2833C22.9695 16.6945 23.4806 17.2445 23.8417 17.9C24.2028 18.5556 24.3834 19.2556 24.3834 20C24.3834 20.4945 24.3028 20.9722 24.1417 21.4333C23.9806 21.8889 23.7473 22.3111 23.4417 22.7C23.1362 23.0889 22.7751 23.4167 22.3584 23.6833C22.214 23.7722 22.1223 23.9 22.0834 24.0667C22.039 24.2333 22.064 24.3917 22.1584 24.5417Z" fill="rgb(255,255,255)" fill-opacity="0.898039222" fill-rule="nonzero" />
				<path id="path" d="M10.6416 20C10.6416 21.3889 10.9333 22.7056 11.5166 23.95C12.1055 25.1945 12.9277 26.2639 13.9833 27.1583C14.1166 27.2639 14.2666 27.3111 14.4333 27.3C14.5999 27.2889 14.7416 27.2222 14.8583 27.1C14.9638 26.9667 15.011 26.8139 14.9999 26.6417C14.9888 26.4694 14.9166 26.3222 14.7833 26.2C13.861 25.4278 13.1472 24.5 12.6416 23.4167C12.136 22.3389 11.8833 21.2 11.8833 20C11.8833 18.8 12.136 17.6556 12.6416 16.5667C13.1472 15.4833 13.8666 14.5556 14.7999 13.7833C14.9222 13.6611 14.9916 13.5139 15.0083 13.3417C15.0305 13.1695 14.9805 13.0222 14.8583 12.9C14.7527 12.7667 14.6138 12.6945 14.4416 12.6833C14.2694 12.6667 14.1166 12.7111 13.9833 12.8167C12.9277 13.7111 12.1055 14.7861 11.5166 16.0417C10.9333 17.2917 10.6416 18.6111 10.6416 20ZM25.1416 27.0833C25.2472 27.2167 25.386 27.2889 25.5583 27.3C25.7305 27.3111 25.8833 27.2639 26.0166 27.1583C26.7277 26.575 27.3333 25.9028 27.8333 25.1417C28.3333 24.3806 28.711 23.5639 28.9666 22.6917C29.2277 21.8195 29.3583 20.9222 29.3583 20C29.3583 19.0778 29.2277 18.1806 28.9666 17.3083C28.711 16.4361 28.3333 15.6167 27.8333 14.85C27.3333 14.0833 26.7277 13.4056 26.0166 12.8167C25.8833 12.7111 25.7305 12.6667 25.5583 12.6833C25.386 12.6945 25.2472 12.7667 25.1416 12.9C25.0194 13.0333 24.9666 13.1861 24.9833 13.3583C24.9944 13.5306 25.0666 13.6722 25.1999 13.7833C25.811 14.2889 26.3333 14.875 26.7666 15.5417C27.1999 16.2083 27.5305 16.9167 27.7583 17.6667C27.986 18.4222 28.0999 19.2 28.0999 20C28.0999 20.8 27.986 21.5778 27.7583 22.3333C27.5305 23.0833 27.2055 23.7889 26.7833 24.45C26.3555 25.1111 25.8333 25.6945 25.2166 26.2C25.0833 26.3056 25.011 26.4445 24.9999 26.6167C24.9888 26.7945 25.036 26.95 25.1416 27.0833Z" fill="rgb(255,255,255)" fill-opacity="0.898039222" fill-rule="nonzero" />
			</g>
		</g>
	</g>
</svg>
