<svg viewBox="0 0 40 40" xmlns="http://www.w3.org/2000/svg" xmlns:xlink="http://www.w3.org/1999/xlink" width="40.000000" height="40.000000" fill="none" customFrame="#000000">
	<mask id="mask_0" width="20.000000" height="20.000000" x="10.000000" y="10.000000" maskUnits="userSpaceOnUse">
		<g filter="url(#pixso_custom_mask_type_luminance)">
			<g id="hms_mask_0">
				<rect id="rect" width="20.000000" height="20.000000" x="10.000000" y="10.000000" fill="rgb(255,255,255)" />
				<g id="g">
					<path id="path" d="M28.4416 22.1833C28.0249 21.7667 27.5472 21.45 27.0083 21.2333C26.4694 21.0111 25.8999 20.9 25.2999 20.9C24.6999 20.9 24.1333 21.0111 23.5999 21.2333C23.0666 21.45 22.5944 21.7667 22.1833 22.1833C21.6222 22.7389 21.2416 23.3972 21.0416 24.1583C20.8416 24.9194 20.8416 25.6805 21.0416 26.4417C21.2416 27.2028 21.6222 27.8694 22.1833 28.4417C22.6055 28.8528 23.0833 29.1694 23.6166 29.3917C24.1499 29.6083 24.711 29.7167 25.2999 29.7167C25.8999 29.7167 26.4666 29.6083 26.9999 29.3917C27.5333 29.1694 28.0138 28.8528 28.4416 28.4417C29.0027 27.8694 29.3833 27.2028 29.5833 26.4417C29.7833 25.6805 29.7833 24.9194 29.5833 24.1583C29.3833 23.3972 29.0027 22.7389 28.4416 22.1833Z" fill="rgb(0,0,0)" fill-rule="nonzero" />
				</g>
			</g>
		</g>
	</mask>
	<defs>
		<clipPath id="clipPath_2">
			<rect width="20.000000" height="20.000000" x="10.000000" y="10.000000" fill="rgb(255,255,255)" />
		</clipPath>
		<filter id="pixso_custom_mask_type_luminance">
			<feColorMatrix type="matrix" values="1 0 0 0 0 0 1 0 0 0 0 0 1 0 0 0 0 0 1 0 " />
		</filter>
	</defs>
	<g id="组合 4100">
		<rect id="矩形 3400" width="40.000000" height="40.000000" x="0.000000" y="0.000000" rx="8.000000" fill="rgb(255,255,255)" style="mix-blend-mode:normal" fill-opacity="0.0980392173" />
		<g id="picture_badge_arrow_down.svg" clip-path="url(#clipPath_2)" customFrame="url(#clipPath_2)">
			<rect id="picture_badge_arrow_down.svg" width="20.000000" height="20.000000" x="10.000000" y="10.000000" />
			<rect id="rect" width="20.000000" height="20.000000" x="10.000000" y="10.000000" opacity="0" fill="rgb(0,0,0)" />
			<g id="mask" mask="url(#mask_0)">
				<g id="g">
					<path id="path" d="M17.0832 16.0417C16.6832 16.0417 16.3388 16.1833 16.0499 16.4667C15.761 16.7555 15.6165 17.1 15.6165 17.5C15.6165 17.9 15.761 18.2444 16.0499 18.5333C16.3388 18.8167 16.6832 18.9583 17.0832 18.9583C17.4832 18.9583 17.8249 18.8167 18.1082 18.5333C18.3971 18.2444 18.5415 17.9 18.5415 17.5C18.5415 17.1 18.3971 16.7555 18.1082 16.4667C17.8249 16.1833 17.4832 16.0417 17.0832 16.0417ZM14.9415 11.6583C14.3526 11.6583 13.8054 11.8055 13.2999 12.1C12.7943 12.3944 12.3943 12.7944 12.0999 13.3C11.8054 13.8055 11.6582 14.3528 11.6582 14.9417L11.6582 25.0417C11.6582 25.6417 11.8054 26.1944 12.0999 26.7C12.3943 27.2055 12.7943 27.6055 13.2999 27.9C13.8054 28.1944 14.3526 28.3417 14.9415 28.3417L25.0582 28.3417C25.6471 28.3417 26.1915 28.1944 26.6915 27.9C27.1915 27.6055 27.5888 27.2055 27.8832 26.7C28.1721 26.1944 28.3165 25.6417 28.3165 25.0417L28.3165 14.9417C28.3165 14.3528 28.1721 13.8055 27.8832 13.3C27.5888 12.7944 27.1915 12.3944 26.6915 12.1C26.1915 11.8055 25.6471 11.6583 25.0582 11.6583L14.9415 11.6583ZM12.9165 14.9417C12.9165 14.3694 13.1138 13.8889 13.5082 13.5C13.9026 13.1111 14.3804 12.9167 14.9415 12.9167L25.0582 12.9167C25.6193 12.9167 26.0971 13.1139 26.4915 13.5083C26.886 13.9028 27.0832 14.3805 27.0832 14.9417L27.0832 21.9583L23.9165 19.2583C23.5443 18.925 23.111 18.75 22.6165 18.7333C22.1276 18.7111 21.6832 18.8472 21.2832 19.1417L12.9165 25.2417C12.9165 25.175 12.9165 25.1083 12.9165 25.0417L12.9165 14.9417ZM14.9415 27.0833C14.6471 27.0833 14.3693 27.0222 14.1082 26.9C13.8471 26.7778 13.6249 26.6167 13.4415 26.4167L22.0165 20.1583C22.1943 20.0417 22.3832 19.9861 22.5832 19.9917C22.7832 19.9972 22.9554 20.0667 23.0999 20.2L27.0832 23.6L27.0832 25.0417C27.0832 25.6028 26.886 26.0833 26.4915 26.4833C26.0971 26.8833 25.6193 27.0833 25.0582 27.0833L14.9415 27.0833Z" fill="rgb(255,255,255)" fill-opacity="0.898039222" fill-rule="nonzero" />
				</g>
			</g>
			<g id="g">
				<path id="path" d="M25.3167 21.9833C24.8778 21.9833 24.4556 22.0611 24.05 22.2167C23.6445 22.3778 23.2806 22.6194 22.9584 22.9417C22.5306 23.3694 22.2445 23.8694 22.1 24.4417C21.9556 25.0139 21.9556 25.5861 22.1 26.1583C22.2445 26.7306 22.5306 27.2306 22.9584 27.6583C23.2639 27.9806 23.625 28.225 24.0417 28.3917C24.4528 28.5583 24.8778 28.6417 25.3167 28.6417C25.7611 28.6417 26.1861 28.5583 26.5917 28.3917C26.9973 28.225 27.3611 27.9806 27.6834 27.6583C28.1056 27.2306 28.3917 26.7306 28.5417 26.1583C28.6861 25.5861 28.6861 25.0139 28.5417 24.4417C28.3917 23.8694 28.1056 23.3694 27.6834 22.9417C27.3611 22.6194 26.9973 22.3778 26.5917 22.2167C26.1861 22.0611 25.7611 21.9833 25.3167 21.9833ZM27.2167 25.1167C27.2834 25.2 27.3167 25.2944 27.3167 25.4C27.3167 25.5056 27.2778 25.5917 27.2 25.6583L25.7417 27.1167C25.6473 27.2278 25.5195 27.2833 25.3584 27.2833C25.2139 27.2833 25.0889 27.2278 24.9834 27.1167L23.5167 25.6583C23.4389 25.5917 23.4 25.5056 23.4 25.4C23.4 25.2944 23.4389 25.2083 23.5167 25.1417C23.5834 25.0583 23.6723 25.0167 23.7834 25.0167C23.8889 25.0167 23.975 25.0583 24.0417 25.1417L24.9834 26.0583L24.9834 23.7417C24.9834 23.6361 25.0195 23.5444 25.0917 23.4667C25.1639 23.3944 25.2528 23.3583 25.3584 23.3583C25.4528 23.3583 25.5361 23.3944 25.6084 23.4667C25.6806 23.5444 25.7167 23.6361 25.7167 23.7417L25.7167 26.0833L26.6834 25.1167C26.7611 25.05 26.85 25.0167 26.95 25.0167C27.05 25.0167 27.1389 25.05 27.2167 25.1167Z" fill="rgb(255,255,255)" fill-opacity="0.898039222" fill-rule="nonzero" />
			</g>
		</g>
	</g>
</svg>
