<svg width="24.000000" height="24.000000" viewBox="0 0 24 24" fill="none" xmlns="http://www.w3.org/2000/svg" xmlns:xlink="http://www.w3.org/1999/xlink">
	<desc>
			Created with Pixso.
	</desc>
	<defs>
		<clipPath id="clip93_3667">
			<rect id="svg" width="24.000000" height="24.000000" fill="white" fill-opacity="0"/>
		</clipPath>
	</defs>
	<g clip-path="url(#clip93_3667)">
		<path id="path" d="M12 1.01C10.01 1.01 8.17 1.5 6.48 2.47C4.8 3.46 3.46 4.8 2.47 6.48C1.5 8.17 1.01 10.01 1.01 12C1.01 13.98 1.5 15.82 2.47 17.51C3.46 19.19 4.8 20.53 6.48 21.52C8.17 22.5 10.01 22.99 12 22.99C13.98 22.99 15.82 22.5 17.51 21.52C19.19 20.53 20.53 19.19 21.52 17.51C22.5 15.82 22.99 13.98 22.99 12C22.99 10.01 22.49 8.17 21.5 6.48C20.51 4.8 19.17 3.46 17.5 2.47C15.82 1.5 13.98 1.01 12 1.01Z" fill="#FFFFFF" fill-opacity="0.100000" fill-rule="nonzero"/>
		<path id="矢量 219" d="M12 6.5C11.44 6.5 11 6.94 11 7.5C11 8.05 11.44 8.5 12 8.5C12.55 8.5 13 8.05 13 7.5C13 6.94 12.55 6.5 12 6.5ZM12 9.5C11.44 9.5 11 9.94 11 10.5L11 17.5C11 18.05 11.44 18.5 12 18.5C12.55 18.5 13 18.05 13 17.5L13 10.5C13 9.94 12.55 9.5 12 9.5Z" fill="#FFFFFF" fill-opacity="0.898039" fill-rule="evenodd"/>
	</g>
</svg>
