<svg viewBox="0 0 24 24" xmlns="http://www.w3.org/2000/svg" xmlns:xlink="http://www.w3.org/1999/xlink" width="24.000000" height="24.000000" fill="none">
	<rect id="checkmark_calendar" width="24.000000" height="24.000000" x="0.000000" y="0.000000" />
	<rect id="矩形 3522" width="24.000000" height="24.000000" x="0.000000" y="0.000000" opacity="0" fill="rgb(0,0,0)" />
	<g id="组合 1629">
		<path id="矢量 82" d="M16.99 2.49988L16.99 2.13988C16.99 1.94655 16.9467 1.77322 16.86 1.61988C16.7733 1.46655 16.6533 1.34655 16.5 1.25988C16.3467 1.17322 16.1833 1.12988 16.01 1.12988C15.83 1.12988 15.66 1.17322 15.5 1.25988C15.34 1.34655 15.2167 1.46655 15.13 1.61988C15.0433 1.77322 15 1.94655 15 2.13988L15 2.49988L9.01999 2.49988L9.01999 2.13988C9.01999 1.94655 8.97666 1.77322 8.88999 1.61988C8.80332 1.46655 8.67999 1.34655 8.51999 1.25988C8.35999 1.17322 8.19332 1.12988 8.01999 1.12988C7.83999 1.12988 7.66999 1.17322 7.50999 1.25988C7.34999 1.34655 7.22666 1.46655 7.13999 1.61988C7.05332 1.77322 7.00999 1.94655 7.00999 2.13988L7.00999 2.49988L4.98999 2.49988C4.44999 2.49988 3.94999 2.63322 3.48999 2.89988C3.03666 3.17322 2.67332 3.54322 2.39999 4.00988C2.12666 4.46988 1.98999 4.96655 1.98999 5.49988L1.98999 19.0099C1.98999 19.5499 2.12666 20.0499 2.39999 20.5099C2.67332 20.9632 3.03666 21.3266 3.48999 21.5999C3.94999 21.8732 4.44999 22.0099 4.98999 22.0099L19.01 22.0099C19.55 22.0099 20.05 21.8732 20.51 21.5999C20.9633 21.3266 21.3267 20.9632 21.6 20.5099C21.8733 20.0499 22.01 19.5499 22.01 19.0099L22.01 5.49988C22.01 4.95322 21.8733 4.45322 21.6 3.99988C21.3267 3.53988 20.9633 3.17322 20.51 2.89988C20.05 2.63322 19.55 2.49988 19.01 2.49988L16.99 2.49988ZM7.00999 4.00988L7.00999 4.19988C7.00999 4.48655 7.10999 4.72655 7.30999 4.91988C7.50999 5.11322 7.74666 5.20988 8.01999 5.20988C8.28666 5.20988 8.51999 5.11322 8.71999 4.91988C8.91999 4.72655 9.01999 4.48655 9.01999 4.19988L9.01999 4.00988L15 4.00988L15 4.19988C15 4.48655 15.0967 4.72655 15.29 4.91988C15.4833 5.11322 15.7133 5.20988 15.98 5.20988C16.2533 5.20988 16.49 5.11322 16.69 4.91988C16.89 4.72655 16.99 4.48655 16.99 4.19988L16.99 4.00988L18.98 4.00988C19.4 4.00988 19.7567 4.15655 20.05 4.44988C20.35 4.74988 20.5 5.09988 20.5 5.49988L20.5 7.69988L3.49999 7.69988L3.49999 5.49988C3.49999 5.07988 3.64999 4.72655 3.94999 4.43988C4.24332 4.15322 4.58999 4.00988 4.98999 4.00988L7.00999 4.00988ZM4.98999 20.5199C4.57666 20.5199 4.22666 20.3732 3.93999 20.0799C3.64666 19.7799 3.49999 19.4232 3.49999 19.0099L3.49999 9.21988L20.5 9.21988L20.5 19.0099C20.5 19.4232 20.3533 19.7799 20.06 20.0799C19.7733 20.3732 19.4233 20.5199 19.01 20.5199L4.98999 20.5199Z" fill="rgb(0,0,0)" fill-opacity="0.898039222" fill-rule="nonzero" />
		<path id="矢量 83" d="M17.23 12.7397C17.3767 12.5997 17.45 12.4263 17.45 12.2197C17.45 12.0063 17.3767 11.8297 17.23 11.6897C17.09 11.563 16.9333 11.4897 16.76 11.4697C16.5933 11.4563 16.44 11.4897 16.3 11.5697C16.2467 11.603 16.1967 11.643 16.15 11.6897L11.59 16.2697C11.51 16.3497 11.4433 16.3897 11.39 16.3897C11.33 16.3897 11.2533 16.3497 11.16 16.2697L8.83002 13.9197C8.67002 13.773 8.48668 13.6997 8.28001 13.6997C8.07335 13.6997 7.89668 13.773 7.75001 13.9197C7.62335 14.0797 7.55668 14.2597 7.55001 14.4597C7.54335 14.6597 7.61001 14.8397 7.75001 14.9997L10.1 17.3297C10.28 17.503 10.48 17.6463 10.7 17.7597C10.9267 17.873 11.1533 17.9297 11.38 17.9297C11.8267 17.9297 12.25 17.7297 12.65 17.3297L17.23 12.7397Z" fill="rgb(0,0,0)" fill-opacity="0.898039222" fill-rule="nonzero" />
	</g>
</svg>
