<svg viewBox="0 0 24 24" xmlns="http://www.w3.org/2000/svg" xmlns:xlink="http://www.w3.org/1999/xlink" width="24.000000" height="24.000000" fill="none">
	<rect id="time_inerval 1" width="24.000000" height="24.000000" x="0.000000" y="0.000000" />
	<rect id="矩形 3529" width="24.000000" height="24.000000" x="0.000000" y="0.000000" opacity="0" fill="rgb(0,0,0)" />
	<g id="组合 1638">
		<path id="矢量 93" d="M12.77 11.2297L12.77 6.69969C12.77 6.48635 12.6933 6.30635 12.54 6.15969C12.3866 6.00635 12.2066 5.92969 12 5.92969C11.7933 5.92969 11.6133 6.00635 11.46 6.15969C11.3066 6.30635 11.23 6.48635 11.23 6.69969L11.23 11.9797C11.23 12.1864 11.3066 12.373 11.46 12.5397C11.6133 12.7064 11.7933 12.7897 12 12.7897L19.06 12.7897C19.2666 12.7897 19.45 12.7097 19.61 12.5497C19.77 12.3897 19.85 12.2064 19.85 11.9997C19.85 11.793 19.77 11.613 19.61 11.4597C19.45 11.3064 19.2666 11.2297 19.06 11.2297L12.77 11.2297Z" fill="rgb(0,0,0)" fill-opacity="0.898039222" fill-rule="nonzero" />
		<path id="矢量 94" d="M22.25 12.7901C21.75 12.7901 21.4533 13.0635 21.36 13.6101C21.1066 15.0968 20.5333 16.4368 19.64 17.6301C18.7533 18.8235 17.6433 19.7635 16.31 20.4501C14.97 21.1368 13.5333 21.4801 12 21.4801C10.2866 21.4801 8.70329 21.0568 7.24996 20.2101C5.78996 19.3635 4.63663 18.2135 3.78996 16.7601C2.94329 15.3135 2.51996 13.7268 2.51996 12.0001C2.51996 10.4668 2.85996 9.03015 3.53996 7.69015C4.21996 6.35681 5.15329 5.24681 6.33996 4.36015C7.51996 3.46681 8.82996 2.89348 10.27 2.64015C10.5433 2.60681 10.7466 2.51015 10.88 2.35015C11.02 2.19015 11.09 1.99015 11.09 1.75015C11.09 1.51015 11.01 1.33015 10.85 1.21015C10.69 1.09015 10.4666 1.04681 10.18 1.08015C8.46663 1.35348 6.90663 2.01015 5.49996 3.05015C4.08663 4.09015 2.97663 5.39348 2.16996 6.96015C1.36329 8.52681 0.959961 10.2068 0.959961 12.0001C0.959961 14.0001 1.45329 15.8435 2.43996 17.5301C3.41996 19.2168 4.75996 20.5568 6.45996 21.5501C8.15329 22.5435 9.99996 23.0401 12 23.0401C13.8066 23.0401 15.4933 22.6335 17.06 21.8201C18.6333 21.0001 19.9333 19.8801 20.96 18.4601C21.9933 17.0335 22.6466 15.4468 22.92 13.7001C22.9533 13.4001 22.9133 13.1735 22.8 13.0201C22.6866 12.8668 22.5033 12.7901 22.25 12.7901ZM22.25 11.1601C22.5033 11.1601 22.6866 11.0801 22.8 10.9201C22.9133 10.7601 22.9533 10.5368 22.92 10.2501C22.6666 8.69681 22.1066 7.26348 21.24 5.95015C20.3733 4.63681 19.2866 3.55681 17.98 2.71015C16.6666 1.86348 15.2333 1.32015 13.68 1.08015C13.3933 1.03348 13.17 1.07015 13.01 1.19015C12.85 1.31015 12.77 1.49681 12.77 1.75015C12.77 2.01015 12.8366 2.21015 12.97 2.35015C13.11 2.49681 13.3133 2.59348 13.58 2.64015C14.88 2.86681 16.0766 3.34015 17.17 4.06015C18.27 4.78015 19.1833 5.68348 19.91 6.77015C20.6366 7.85681 21.12 9.04681 21.36 10.3401C21.3933 10.6135 21.4866 10.8201 21.64 10.9601C21.7866 11.0935 21.99 11.1601 22.25 11.1601Z" fill="rgb(0,0,0)" fill-opacity="0.898039222" fill-rule="nonzero" />
	</g>
</svg>
