<svg viewBox="0 0 24 24" xmlns="http://www.w3.org/2000/svg" xmlns:xlink="http://www.w3.org/1999/xlink" width="24.000000" height="24.000000" fill="none">
	<defs>
		<filter id="pixso_custom_mask_type_luminance">
			<feColorMatrix type="matrix" values="1 0 0 0 0 0 1 0 0 0 0 0 1 0 0 0 0 0 1 0 " />
		</filter>
	</defs>
	<mask id="mask_0" width="24.650000" height="24.000000" x="0.000000" y="0.000000" maskUnits="userSpaceOnUse">
		<g filter="url(#pixso_custom_mask_type_luminance)">
			<g id="hms_mask_0">
				<rect id="矩形 3521" width="24.000000" height="24.000000" x="0.000000" y="0.000000" fill="rgb(255,255,255)" />
				<g id="组合 1627">
					<path id="矢量 80" d="M23.9999 6.46027C23.5532 6.00694 23.0265 5.78027 22.4199 5.78027C22.1132 5.78027 21.8232 5.83694 21.5499 5.95027C21.2765 6.06361 21.0299 6.22361 20.8099 6.43027L16.6299 10.6103L14.9499 8.93027C14.7432 8.72361 14.5032 8.56361 14.2299 8.45027C13.9565 8.33694 13.6699 8.28027 13.3699 8.28027C13.0632 8.28027 12.7732 8.33694 12.4999 8.45027C12.2332 8.56361 11.9932 8.72361 11.7799 8.93027C11.5732 9.13694 11.4099 9.38027 11.2899 9.66027C11.1699 9.94027 11.1099 10.2336 11.1099 10.5403C11.1099 10.8269 11.1699 11.1103 11.2899 11.3903C11.4099 11.6703 11.5732 11.9136 11.7799 12.1203L14.2599 14.5903C14.5799 14.9103 14.9432 15.1536 15.3499 15.3203C15.7565 15.4936 16.1832 15.5803 16.6299 15.5803C17.0765 15.5803 17.5065 15.4936 17.9199 15.3203C18.3265 15.1536 18.6899 14.9103 19.0099 14.5903L23.9999 9.62027C24.2065 9.41361 24.3665 9.17027 24.4799 8.89027C24.5932 8.61027 24.6499 8.32027 24.6499 8.02027C24.6499 7.71361 24.5932 7.42694 24.4799 7.16027C24.3665 6.90027 24.2065 6.66694 23.9999 6.46027Z" fill="rgb(0,0,0)" fill-rule="evenodd" />
				</g>
			</g>
		</g>
	</mask>
	<rect id="doc_plaintext_and_checkmark" width="24.000000" height="24.000000" x="0.000000" y="0.000000" />
	<rect id="矩形 3520" width="24.000000" height="24.000000" x="0.000000" y="0.000000" opacity="0" fill="rgb(0,0,0)" />
	<g id="mask" mask="url(#mask_0)">
		<g id="组合 1626">
			<path id="矢量 79" d="M16.4901 22.4597C17.0968 22.4597 17.6568 22.3097 18.1701 22.0097C18.6834 21.7031 19.0901 21.2931 19.3901 20.7797C19.6968 20.2731 19.8501 19.7131 19.8501 19.0997L19.8501 5.82973C19.8501 5.22306 19.6968 4.66306 19.3901 4.14973C19.0901 3.63639 18.6834 3.22973 18.1701 2.92973C17.6568 2.62306 17.0968 2.46973 16.4901 2.46973L4.70009 2.46973C4.09342 2.46973 3.53342 2.62306 3.02009 2.92973C2.51342 3.22973 2.10675 3.63639 1.80009 4.14973C1.49342 4.66306 1.34009 5.22306 1.34009 5.82973L1.34009 19.0997C1.34009 19.7131 1.49342 20.2731 1.80009 20.7797C2.10675 21.2931 2.51342 21.7031 3.02009 22.0097C3.53342 22.3097 4.09342 22.4597 4.70009 22.4597L16.4901 22.4597ZM16.4901 3.95973C17.0034 3.95973 17.4401 4.14306 17.8001 4.50973C18.1601 4.87639 18.3401 5.31639 18.3401 5.82973L18.3401 19.0997C18.3401 19.6131 18.1601 20.0497 17.8001 20.4097C17.4401 20.7697 17.0034 20.9497 16.4901 20.9497L4.70009 20.9497C4.19342 20.9497 3.75342 20.7697 3.38009 20.4097C3.01342 20.0497 2.83009 19.6131 2.83009 19.0997L2.83009 5.82973C2.83009 5.31639 3.01342 4.87639 3.38009 4.50973C3.75342 4.14306 4.19342 3.95973 4.70009 3.95973L16.4901 3.95973ZM9.84009 9.06973C10.0668 9.06973 10.2501 8.99306 10.3901 8.83973C10.5368 8.69306 10.6101 8.51306 10.6101 8.29973C10.6101 8.09306 10.5334 7.91973 10.3801 7.77973C10.2268 7.63306 10.0468 7.55973 9.84009 7.55973L5.14009 7.55973C4.92675 7.55973 4.75009 7.63306 4.61009 7.77973C4.46342 7.91973 4.39009 8.09306 4.39009 8.29973C4.39009 8.51306 4.46342 8.69306 4.61009 8.83973C4.75009 8.99306 4.92675 9.06973 5.14009 9.06973L9.84009 9.06973ZM10.1301 13.2197C10.3368 13.2197 10.5134 13.1464 10.6601 12.9997C10.8001 12.8464 10.8701 12.6664 10.8701 12.4597C10.8701 12.2464 10.8001 12.0697 10.6601 11.9297C10.5134 11.7831 10.3368 11.7097 10.1301 11.7097L5.14009 11.7097C4.92675 11.7097 4.75009 11.7831 4.61009 11.9297C4.46342 12.0697 4.39009 12.2464 4.39009 12.4597C4.39009 12.6664 4.46342 12.8464 4.61009 12.9997C4.75009 13.1464 4.92675 13.2197 5.14009 13.2197L10.1301 13.2197ZM15.3601 17.3497C15.5668 17.3497 15.7468 17.2797 15.9001 17.1397C16.0534 16.9931 16.1301 16.8164 16.1301 16.6097C16.1301 16.4031 16.0534 16.2264 15.9001 16.0797C15.7468 15.9331 15.5668 15.8597 15.3601 15.8597L5.14009 15.8597C4.92675 15.8597 4.75009 15.9331 4.61009 16.0797C4.46342 16.2264 4.39009 16.4031 4.39009 16.6097C4.39009 16.8164 4.46342 16.9931 4.61009 17.1397C4.75009 17.2797 4.92675 17.3497 5.14009 17.3497L15.3601 17.3497Z" fill="rgb(0,0,0)" fill-opacity="0.898039222" fill-rule="evenodd" />
		</g>
	</g>
	<g id="组合 1628">
		<path id="矢量 81" d="M16.6301 14.0898C16.8901 14.0898 17.1301 14.0398 17.3501 13.9398C17.5768 13.8465 17.7768 13.7131 17.9501 13.5398L22.9401 8.5698C23.0868 8.42314 23.1601 8.24647 23.1601 8.0398C23.1601 7.83314 23.0868 7.65647 22.9401 7.5098C22.8001 7.3698 22.6268 7.2998 22.4201 7.2998C22.2068 7.2998 22.0301 7.3698 21.8901 7.5098L16.8701 12.4798C16.7901 12.5731 16.7101 12.6198 16.6301 12.6198C16.5501 12.6198 16.4635 12.5731 16.3701 12.4798L13.9001 10.0098C13.7535 9.86314 13.5768 9.7898 13.3701 9.7898C13.1635 9.7898 12.9868 9.86314 12.8401 10.0098C12.6935 10.1498 12.6201 10.3265 12.6201 10.5398C12.6201 10.7465 12.6935 10.9198 12.8401 11.0598L15.3101 13.5398C15.4901 13.7131 15.6901 13.8465 15.9101 13.9398C16.1368 14.0398 16.3768 14.0898 16.6301 14.0898Z" fill="rgb(0,0,0)" fill-opacity="0.898039222" fill-rule="nonzero" />
	</g>
</svg>
