<svg viewBox="0 0 24 24" xmlns="http://www.w3.org/2000/svg" xmlns:xlink="http://www.w3.org/1999/xlink" width="24.000000" height="24.000000" fill="none">
	<rect id="xmark_book 1" width="24.000000" height="24.000000" x="0.000000" y="0.000000" />
	<rect id="矩形 3528" width="24.000000" height="24.000000" x="0.000000" y="0.000000" opacity="0" fill="rgb(0,0,0)" />
	<g id="组合 1637">
		<path id="矢量 91" d="M15.4101 9.35965C15.2634 9.21298 15.0868 9.13965 14.8801 9.13965C14.6734 9.13965 14.4968 9.21298 14.3501 9.35965L12.0001 11.7396L9.6201 9.35965C9.4801 9.21298 9.30676 9.13965 9.1001 9.13965C8.88676 9.13965 8.7101 9.21298 8.5701 9.35965C8.42343 9.50631 8.3501 9.68631 8.3501 9.89965C8.3501 10.113 8.42343 10.293 8.5701 10.4396L10.9201 12.7896L8.5701 15.1396C8.42343 15.2863 8.3501 15.463 8.3501 15.6696C8.3501 15.8763 8.42343 16.053 8.5701 16.1996C8.69676 16.3596 8.87343 16.4396 9.1001 16.4396C9.3201 16.4396 9.49343 16.3596 9.6201 16.1996L12.0001 13.8496L14.3501 16.1996C14.4768 16.3596 14.6534 16.4396 14.8801 16.4396C15.1068 16.4396 15.2834 16.3596 15.4101 16.1996C15.5501 16.053 15.6201 15.8763 15.6201 15.6696C15.6201 15.463 15.5501 15.2863 15.4101 15.1396L13.0601 12.7896L15.4101 10.4396C15.5501 10.293 15.6201 10.113 15.6201 9.89965C15.6201 9.68631 15.5501 9.50631 15.4101 9.35965Z" fill="rgb(0,0,0)" fill-opacity="0.898039222" fill-rule="nonzero" />
		<path id="矢量 92" d="M17.26 3.04996L17.26 2.46996C17.26 2.19663 17.16 1.95996 16.96 1.75996C16.76 1.55996 16.5233 1.45996 16.25 1.45996C15.9767 1.45996 15.74 1.55996 15.54 1.75996C15.34 1.95996 15.24 2.19663 15.24 2.46996L15.24 3.04996L8.76001 3.04996L8.76001 2.46996C8.76001 2.19663 8.66001 1.95996 8.46001 1.75996C8.26001 1.55996 8.02334 1.45996 7.75001 1.45996C7.47668 1.45996 7.24001 1.55996 7.04001 1.75996C6.84001 1.95996 6.74001 2.19663 6.74001 2.46996L6.74001 3.04996L6.00001 3.04996C5.32668 3.04996 4.70334 3.21663 4.13001 3.54996C3.55001 3.88996 3.09334 4.34663 2.76001 4.91996C2.42668 5.49329 2.26001 6.11663 2.26001 6.78996L2.26001 18.79C2.26001 19.4633 2.42668 20.0866 2.76001 20.66C3.09334 21.24 3.55001 21.6966 4.13001 22.03C4.70334 22.37 5.32668 22.54 6.00001 22.54L18 22.54C18.6733 22.54 19.2967 22.37 19.87 22.03C20.45 21.6966 20.9067 21.24 21.24 20.66C21.5733 20.0866 21.74 19.4633 21.74 18.79L21.74 6.78996C21.74 6.11663 21.5733 5.49329 21.24 4.91996C20.9067 4.34663 20.45 3.88996 19.87 3.54996C19.2967 3.21663 18.6733 3.04996 18 3.04996L17.26 3.04996ZM20.23 18.79C20.23 19.3966 20.01 19.92 19.57 20.36C19.13 20.8 18.6067 21.02 18 21.02L6.00001 21.02C5.37334 21.02 4.84001 20.8 4.40001 20.36C3.96001 19.92 3.74001 19.3966 3.74001 18.79L3.74001 6.78996C3.74001 6.16996 3.96001 5.63996 4.40001 5.19996C4.84001 4.75996 5.37334 4.53996 6.00001 4.53996L6.77001 4.53996L6.77001 5.13996C6.77001 5.40663 6.86668 5.63663 7.06001 5.82996C7.24668 6.02329 7.47668 6.11996 7.75001 6.11996C8.02334 6.11996 8.26001 6.02329 8.46001 5.82996C8.66001 5.63663 8.76001 5.40663 8.76001 5.13996L8.76001 4.53996L15.26 4.53996L15.26 5.13996C15.26 5.40663 15.36 5.63663 15.56 5.82996C15.76 6.02329 15.9967 6.11996 16.27 6.11996C16.5433 6.11996 16.7767 6.02329 16.97 5.82996C17.1633 5.63663 17.26 5.40663 17.26 5.13996L17.26 4.53996L18 4.53996C18.6267 4.53996 19.16 4.75996 19.6 5.19996C20.04 5.63996 20.26 6.16996 20.26 6.78996L20.23 18.79Z" fill="rgb(0,0,0)" fill-opacity="0.898039222" fill-rule="nonzero" />
	</g>
</svg>
