<svg viewBox="0 0 25 25" xmlns="http://www.w3.org/2000/svg" xmlns:xlink="http://www.w3.org/1999/xlink" width="25.000000" height="25.000000" fill="none" customFrame="#000000">
	<g id="ic_public_telephone-电话/base/ic_public_telephone">
		<path id="path1" d="M1.25273 12.4908C1.25273 10.7333 1.24658 8.97576 1.25273 7.21821C1.2492 6.36774 1.35373 5.52027 1.56382 4.69614C2.02429 2.95178 3.16054 1.91659 4.90315 1.51499C5.77691 1.32621 6.66936 1.23776 7.56318 1.25136C10.9336 1.25136 14.3042 1.25136 17.6752 1.25136C18.5265 1.24608 19.3754 1.34344 20.2034 1.54135C21.9987 1.98074 23.0761 3.11787 23.4865 4.90705C23.671 5.75264 23.7591 6.61641 23.7493 7.48185C23.7493 10.8885 23.7493 14.2955 23.7493 17.7028C23.7539 18.546 23.6568 19.3866 23.4601 20.2064C23.0208 22.0027 21.8783 23.0748 20.0892 23.4851C19.2153 23.6732 18.3229 23.7617 17.4291 23.7488C14.0728 23.7488 10.7168 23.7488 7.36107 23.7488C6.50323 23.7558 5.64764 23.6599 4.81263 23.4632C3.0094 23.0238 1.92675 21.8814 1.51724 20.0834C1.3081 19.1695 1.25273 18.2529 1.25273 17.3285C1.25273 15.7162 1.25273 14.1037 1.25273 12.4908Z" fill="rgb(255,255,255)" fill-opacity="0" fill-rule="nonzero" />
		<path id="path1" d="M1.25273 7.21821C1.2492 6.36774 1.35373 5.52027 1.56382 4.69614C2.02429 2.95178 3.16054 1.91659 4.90315 1.51499C5.77691 1.32621 6.66936 1.23776 7.56318 1.25136C10.9336 1.25136 14.3042 1.25136 17.6752 1.25136C18.5265 1.24608 19.3754 1.34344 20.2034 1.54135C21.9987 1.98074 23.0761 3.11787 23.4865 4.90705C23.671 5.75264 23.7591 6.61641 23.7493 7.48185C23.7493 10.8885 23.7493 14.2955 23.7493 17.7028C23.7539 18.546 23.6568 19.3866 23.4601 20.2064C23.0208 22.0027 21.8783 23.0748 20.0892 23.4851C19.2153 23.6732 18.3229 23.7617 17.4291 23.7488C14.0728 23.7488 10.7168 23.7488 7.36107 23.7488C6.50323 23.7558 5.64764 23.6599 4.81263 23.4632C3.0094 23.0238 1.92675 21.8814 1.51724 20.0834C1.3081 19.1695 1.25273 18.2529 1.25273 17.3285C1.25273 15.7162 1.25273 14.1037 1.25273 12.4908C1.25273 10.7333 1.24658 8.97576 1.25273 7.21821Z" fill-rule="nonzero" stroke="rgb(255,255,255)" stroke-opacity="0" stroke-width="1" />
		<path id="path2" d="M1.25273 12.4908C1.25273 10.7333 1.24658 8.97576 1.25273 7.21821C1.2492 6.36774 1.35373 5.52027 1.56382 4.69614C2.02429 2.95178 3.16054 1.91659 4.90315 1.51499C5.77691 1.32621 6.66936 1.23776 7.56318 1.25136C10.9336 1.25136 14.3042 1.25136 17.6752 1.25136C18.5265 1.24608 19.3754 1.34344 20.2034 1.54135C21.9987 1.98074 23.0761 3.11787 23.4865 4.90705C23.671 5.75264 23.7591 6.61641 23.7493 7.48185C23.7493 10.8885 23.7493 14.2955 23.7493 17.7028C23.7539 18.546 23.6568 19.3866 23.4601 20.2064C23.0208 22.0027 21.8783 23.0748 20.0892 23.4851C19.2153 23.6732 18.3229 23.7617 17.4291 23.7488C14.0728 23.7488 10.7168 23.7488 7.36107 23.7488C6.50323 23.7558 5.64764 23.6599 4.81263 23.4632C3.0094 23.0238 1.92675 21.8814 1.51724 20.0834C1.3081 19.1695 1.25273 18.2529 1.25273 17.3285C1.25273 15.7162 1.25273 14.1037 1.25273 12.4908Z" opacity="0.200000003" fill="rgb(0,0,0)" fill-opacity="0" fill-rule="nonzero" />
		<path id="path2" d="M1.25273 7.21821C1.2492 6.36774 1.35373 5.52027 1.56382 4.69614C2.02429 2.95178 3.16054 1.91659 4.90315 1.51499C5.77691 1.32621 6.66936 1.23776 7.56318 1.25136C10.9336 1.25136 14.3042 1.25136 17.6752 1.25136C18.5265 1.24608 19.3754 1.34344 20.2034 1.54135C21.9987 1.98074 23.0761 3.11787 23.4865 4.90705C23.671 5.75264 23.7591 6.61641 23.7493 7.48185C23.7493 10.8885 23.7493 14.2955 23.7493 17.7028C23.7539 18.546 23.6568 19.3866 23.4601 20.2064C23.0208 22.0027 21.8783 23.0748 20.0892 23.4851C19.2153 23.6732 18.3229 23.7617 17.4291 23.7488C14.0728 23.7488 10.7168 23.7488 7.36107 23.7488C6.50323 23.7558 5.64764 23.6599 4.81263 23.4632C3.0094 23.0238 1.92675 21.8814 1.51724 20.0834C1.3081 19.1695 1.25273 18.2529 1.25273 17.3285C1.25273 15.7162 1.25273 14.1037 1.25273 12.4908C1.25273 10.7333 1.24658 8.97576 1.25273 7.21821Z" opacity="0.200000003" fill-rule="nonzero" stroke="rgb(255,255,255)" stroke-opacity="0" stroke-width="1" />
		<circle id="path3" cx="12.5" cy="12.5" r="12" fill="rgb(230,69,102)" />
		<circle id="path3" cx="12.5" cy="12.5" r="12" stroke="rgb(0,0,0)" stroke-opacity="0" stroke-width="1" />
		<path id="path4" d="M7.60104 10.8666C7.30677 10.0843 7.10761 9.09 7.00355 7.88368C7.00101 7.86027 7 7.83673 7 7.81319C7.00011 7.36414 7.36423 7.00021 7.81328 7L9.38267 7.00239C9.7802 7.00327 10.1187 7.29166 10.1825 7.68403C10.2491 8.09237 10.3117 8.41932 10.3704 8.66488C10.4588 9.0344 10.6253 9.58427 10.8701 10.3145C10.819 10.8744 10.6266 11.1898 10.2928 11.2606C10.8285 13.5615 13.6686 15.041 13.7394 14.7072C13.8102 14.3734 14.1256 14.181 14.6855 14.1299C15.4157 14.3747 15.9656 14.5412 16.3351 14.6296C16.5807 14.6883 16.9076 14.7509 17.316 14.8175C17.7083 14.8813 17.9967 15.2198 17.9976 15.6173L18 17.1867C17.9998 17.6358 17.6359 17.9999 17.1868 18C17.1633 18 17.1397 17.999 17.1163 17.9964C15.91 17.8924 14.9157 17.6932 14.1334 17.399C10.655 16.2568 8.47753 14.0793 7.60104 10.8666Z" fill="rgb(255,255,255)" fill-rule="evenodd" />
		<path id="path4" d="M7.00355 7.88368C7.00101 7.86027 7 7.83673 7 7.81319C7.00011 7.36414 7.36423 7.00021 7.81328 7L9.38267 7.00239C9.7802 7.00327 10.1187 7.29166 10.1825 7.68403C10.2491 8.09237 10.3117 8.41932 10.3704 8.66488C10.4588 9.0344 10.6253 9.58427 10.8701 10.3145C10.819 10.8744 10.6266 11.1898 10.2928 11.2606C10.8285 13.5615 13.6686 15.041 13.7394 14.7072C13.8102 14.3734 14.1256 14.181 14.6855 14.1299C15.4157 14.3747 15.9656 14.5412 16.3351 14.6296C16.5807 14.6883 16.9076 14.7509 17.316 14.8175C17.7083 14.8813 17.9967 15.2198 17.9976 15.6173L18 17.1867C17.9998 17.6358 17.6359 17.9999 17.1868 18C17.1633 18 17.1397 17.999 17.1163 17.9964C15.91 17.8924 14.9157 17.6932 14.1334 17.399C10.655 16.2568 8.47753 14.0793 7.60104 10.8666C7.30677 10.0843 7.10761 9.09 7.00355 7.88368Z" fill-rule="evenodd" stroke="rgb(25,25,25)" stroke-opacity="0" stroke-linecap="round" stroke-linejoin="round" stroke-width="1" />
	</g>
</svg>
