<svg viewBox="0 0 24 24" xmlns="http://www.w3.org/2000/svg" xmlns:xlink="http://www.w3.org/1999/xlink" width="24.000000" height="24.000000" fill="none" clip-path="url(#clipPath_1)" customFrame="url(#clipPath_1)">
	<defs>
		<clipPath id="clipPath_1">
			<rect width="24.000000" height="24.000000" x="0.000000" y="0.000000" rx="12.000000" fill="rgb(255,255,255)" />
		</clipPath>
	</defs>
	<rect id="ic_public_telephone" width="24.000000" height="24.000000" x="0.000000" y="0.000000" rx="12.000000" fill="rgb(230,69,102)" fill-opacity="0.200000003" />
	<path id="path4" d="M6.65568 10.4681C6.33466 9.6147 6.11739 8.53 6.00388 7.21401C6.0011 7.18847 6 7.1628 6 7.13711C6.00012 6.64724 6.39734 6.25023 6.88721 6.25L8.59928 6.2526C9.03295 6.25357 9.40217 6.56817 9.47182 6.99621C9.54446 7.44168 9.6128 7.79836 9.67683 8.06624C9.77319 8.46934 9.95491 9.0692 10.222 9.86582C10.1662 10.4767 9.95629 10.8207 9.59216 10.898C10.1765 13.408 13.2748 15.022 13.352 14.6578C13.4293 14.2937 13.7733 14.0838 14.3842 14.028C15.1808 14.2951 15.7807 14.4768 16.1838 14.5732C16.4516 14.6372 16.8083 14.7055 17.2538 14.7782C17.6818 14.8478 17.9964 15.2171 17.9974 15.6507L18 17.3628C17.9998 17.8527 17.6028 18.2499 17.1129 18.25C17.0872 18.25 17.0615 18.2489 17.036 18.2461C15.72 18.1326 14.6353 17.9153 13.7819 17.5943C9.98725 16.3483 7.61185 13.9729 6.65568 10.4681Z" fill="rgb(230,69,102)" fill-rule="evenodd" />
</svg>
