<svg viewBox="0 0 24 24" xmlns="http://www.w3.org/2000/svg" xmlns:xlink="http://www.w3.org/1999/xlink" width="24.000000" height="24.000000" fill="none" clip-path="url(#clipPath_2)" customFrame="url(#clipPath_2)">
	<defs>
		<clipPath id="clipPath_2">
			<rect width="24.000000" height="24.000000" x="0.000000" y="0.000000" rx="12.000000" fill="rgb(255,255,255)" />
		</clipPath>
	</defs>
	<rect id="ic_public_location" width="24.000000" height="24.000000" x="0.000000" y="0.000000" rx="12.000000" fill="rgb(230,69,102)" fill-opacity="0.200000003" />
	<path id="ic_public_location_2_3" d="M4.517 0.622806L0.0919076 10.5184C-0.145268 11.0488 0.0924233 11.671 0.622806 11.9082C0.910394 12.0368 1.24048 12.0297 1.52232 11.889L5.0073 10.1483C5.30325 10.0005 5.6515 10.0005 5.94745 10.1483L9.43204 11.8889C9.9518 12.1485 10.5836 11.9376 10.8432 11.4179C10.984 11.136 10.9911 10.806 10.8625 10.5184L6.4377 0.622829C6.20054 0.0924403 5.57831 -0.145266 5.04792 0.0918972C4.81167 0.197537 4.62265 0.386556 4.517 0.622806Z" fill="rgb(230,69,102)" fill-rule="evenodd" transform="matrix(-0.707107,-0.707107,-0.707107,0.707107,21.231,10.7457)" />
</svg>
