<svg width="24.000000" height="24.000000" viewBox="0 0 24 24" fill="none" xmlns="http://www.w3.org/2000/svg" xmlns:xlink="http://www.w3.org/1999/xlink">
	<desc>
			Created with Pixso.
	</desc>
	<defs>
		<clipPath id="clip43_7329">
			<rect id="ic_public_star" width="24.000000" height="24.000000" fill="white" fill-opacity="0"/>
		</clipPath>
	</defs>
	<g clip-path="url(#clip43_7329)">
		<path id="path3 (边框)" d="M4.88 15.82L4.02 21.07C3.95 21.54 3.99 21.95 4.14 22.32C4.3 22.69 4.57 23.01 4.95 23.28C5.72 23.82 6.51 23.86 7.33 23.41L11.63 21.03C11.87 20.9 12.11 20.9 12.36 21.03L16.65 23.41C17.47 23.86 18.27 23.82 19.04 23.28C19.42 23.01 19.69 22.69 19.84 22.32C20 21.95 20.04 21.54 19.96 21.07L19.11 15.83C19.07 15.57 19.13 15.36 19.31 15.18L22.99 11.4C23.63 10.75 23.8 9.99 23.51 9.12C23.37 8.69 23.15 8.34 22.85 8.09C22.55 7.84 22.18 7.68 21.72 7.61L16.77 6.85C16.5 6.81 16.31 6.67 16.19 6.43L14.03 1.82C13.83 1.38 13.56 1.06 13.22 0.85C12.88 0.63 12.47 0.52 11.99 0.52C11.52 0.52 11.11 0.63 10.77 0.85C10.43 1.06 10.16 1.38 9.96 1.82L7.79 6.43C7.68 6.67 7.49 6.81 7.23 6.85L2.27 7.61C1.81 7.68 1.44 7.84 1.14 8.09C0.84 8.34 0.62 8.69 0.47 9.12C0.33 9.55 0.3 9.96 0.38 10.34C0.47 10.72 0.67 11.07 0.99 11.4L4.68 15.18C4.77 15.27 4.83 15.37 4.86 15.49C4.9 15.59 4.9 15.7 4.88 15.82ZM5.51 21.32L6.36 16.07C6.49 15.32 6.28 14.68 5.75 14.13L2.07 10.36C1.96 10.25 1.89 10.13 1.86 10C1.84 9.88 1.85 9.74 1.89 9.59C1.99 9.31 2.19 9.14 2.49 9.09L7.45 8.34C8.25 8.21 8.82 7.78 9.15 7.06L11.31 2.45C11.38 2.31 11.47 2.2 11.59 2.13C11.7 2.06 11.83 2.02 11.99 2.02C12.31 2.02 12.54 2.17 12.67 2.45L14.84 7.06C15.01 7.42 15.23 7.71 15.51 7.92C15.79 8.13 16.13 8.27 16.52 8.34L21.5 9.09C21.8 9.14 22 9.31 22.09 9.59C22.19 9.88 22.13 10.14 21.92 10.36L18.23 14.13C17.71 14.67 17.51 15.32 17.62 16.06L18.48 21.32C18.5 21.47 18.49 21.61 18.44 21.73C18.39 21.85 18.3 21.96 18.17 22.05C17.92 22.23 17.65 22.24 17.38 22.09L13.08 19.72C12.35 19.32 11.63 19.32 10.91 19.72L6.61 22.09C6.33 22.24 6.07 22.23 5.81 22.05C5.69 21.96 5.6 21.85 5.55 21.73C5.49 21.61 5.48 21.47 5.51 21.32Z" fill="#191919" fill-opacity="1.000000" fill-rule="evenodd"/>
	</g>
</svg>
