<svg width="40.000000" height="40.000000" viewBox="0 0 40 40" fill="none" xmlns="http://www.w3.org/2000/svg" xmlns:xlink="http://www.w3.org/1999/xlink">
	<desc>
			Created with Pixso.
	</desc>
	<defs/>
	<rect id="icon_Search" rx="20.000000" width="40.000000" height="40.000000" fill="#000000" fill-opacity="0.047059"/>
	<g opacity="0.000000">
		<rect id="rect" x="8.000000" y="8.000000" width="24.000000" height="24.000000" fill="#000000" fill-opacity="1.000000"/>
	</g>
	<path id="path" d="M25.06 23.9C25.68 23.14 26.16 22.3 26.5 21.38C26.84 20.45 27.02 19.49 27.02 18.5C27.02 16.96 26.63 15.54 25.87 14.24C25.09 12.93 24.06 11.9 22.76 11.14C21.45 10.38 20.03 10 18.5 10C16.95 10 15.54 10.38 14.24 11.14C12.93 11.9 11.9 12.93 11.14 14.24C10.38 15.54 10 16.96 10 18.5C10 20.03 10.38 21.45 11.14 22.76C11.9 24.06 12.93 25.1 14.24 25.86C15.54 26.62 16.95 27 18.5 27C19.54 27 20.52 26.82 21.46 26.47C22.4 26.11 23.25 25.62 24.02 24.98L28.48 29.42C28.62 29.56 28.8 29.64 29.01 29.64C29.21 29.64 29.39 29.56 29.54 29.42C29.68 29.27 29.75 29.09 29.75 28.89C29.75 28.68 29.68 28.5 29.54 28.36L25.06 23.9ZM11.51 18.5C11.51 17.23 11.82 16.06 12.46 15C13.09 13.92 13.94 13.07 15.01 12.44C16.06 11.8 17.23 11.49 18.5 11.49C19.76 11.49 20.92 11.8 22 12.44C23.07 13.07 23.92 13.92 24.56 15C25.19 16.06 25.51 17.23 25.51 18.5C25.51 19.76 25.19 20.93 24.56 22C23.92 23.07 23.07 23.92 22 24.56C20.92 25.19 19.76 25.51 18.5 25.51C17.23 25.51 16.06 25.19 15.01 24.56C13.94 23.92 13.09 23.07 12.46 22C11.82 20.93 11.51 19.76 11.51 18.5Z" fill="#000000" fill-opacity="0.898039" fill-rule="nonzero"/>
</svg>
