<?xml version="1.0" standalone="no"?><!DOCTYPE svg PUBLIC "-//W3C//DTD SVG 1.1//EN" "http://www.w3.org/Graphics/SVG/1.1/DTD/svg11.dtd"><svg t="1757588703379" class="icon" viewBox="0 0 1024 1024" version="1.1" xmlns="http://www.w3.org/2000/svg" p-id="12983" xmlns:xlink="http://www.w3.org/1999/xlink" width="200" height="200"><path d="M714.666667 490.666667C838.378667 490.666667 938.666667 590.954667 938.666667 714.666667S838.378667 938.666667 714.666667 938.666667 490.666667 838.378667 490.666667 714.666667 590.954667 490.666667 714.666667 490.666667z m10.666666 85.333333h-21.333333l-2.496 0.149333a21.333333 21.333333 0 0 0-18.688 18.688L682.666667 597.333333v85.312L597.333333 682.666667l-2.496 0.149333a21.333333 21.333333 0 0 0-18.688 18.688L576 704v21.333333l0.149333 2.496a21.333333 21.333333 0 0 0 18.688 18.688L597.333333 746.666667l85.312-0.021334L682.666667 832l0.149333 2.496a21.333333 21.333333 0 0 0 18.688 18.688L704 853.333333h21.333333l2.496-0.149333a21.333333 21.333333 0 0 0 18.688-18.688L746.666667 832l-0.021334-85.333333H832l2.496-0.149334a21.333333 21.333333 0 0 0 18.688-18.688L853.333333 725.333333v-21.333333l-0.149333-2.496a21.333333 21.333333 0 0 0-18.688-18.688L832 682.666667h-85.333333v-85.333334l-0.149334-2.496A21.333333 21.333333 0 0 0 725.333333 576z m-405.333333 106.666667a21.333333 21.333333 0 0 1 21.333333 21.333333v85.333333a21.333333 21.333333 0 0 1-21.333333 21.333334H106.666667a21.333333 21.333333 0 0 1-21.333334-21.333334v-85.333333a21.333333 21.333333 0 0 1 21.333334-21.333333h213.333333z m149.333333-256a21.333333 21.333333 0 0 1 21.333334 21.333333v85.333333a21.333333 21.333333 0 0 1-21.333334 21.333334H106.666667a21.333333 21.333333 0 0 1-21.333334-21.333334v-85.333333a21.333333 21.333333 0 0 1 21.333334-21.333333h362.666666zM789.333333 170.666667a21.333333 21.333333 0 0 1 21.333334 21.333333v85.333333a21.333333 21.333333 0 0 1-21.333334 21.333334H106.666667a21.333333 21.333333 0 0 1-21.333334-21.333334V192a21.333333 21.333333 0 0 1 21.333334-21.333333h682.666666z" fill="#333333" p-id="12984"></path></svg>