<?xml version="1.0" standalone="no"?><!DOCTYPE svg PUBLIC "-//W3C//DTD SVG 1.1//EN" "http://www.w3.org/Graphics/SVG/1.1/DTD/svg11.dtd"><svg t="1757585508828" class="icon" viewBox="0 0 1024 1024" version="1.1" xmlns="http://www.w3.org/2000/svg" p-id="10254" xmlns:xlink="http://www.w3.org/1999/xlink" width="200" height="200"><path d="M921.84736468 997.93033544H101.54506534c-24.68943392 0-44.71162586-20.00838352-44.71162584-44.71162585V631.455181c0-24.70324234 20.02219194-44.71162586 44.71162584-44.71162585s44.71162586 20.00838352 44.71162586 44.71162585v277.05190275h730.87904765V631.455181c0-24.70324234 20.02219194-44.71162586 44.71162583-44.71162585 24.68943392 0 44.71162586 20.00838352 44.71162586 44.71162585V953.21870959c0 24.70324234-20.02219194 44.71162586-44.71162586 44.71162585z" fill="#2c2c2c" p-id="10255"></path><path d="M511.69621502 839.9897621c-24.68943392 0-44.71162586-20.00838352-44.71162585-44.71162585V70.54383027c0-24.70324234 20.02219194-44.71162586 44.71162585-44.71162586s44.71162586 20.00838352 44.71162585 44.71162586v724.73430598c0 24.70324234-20.02219194 44.71162586-44.71162585 44.71162585z" fill="#2c2c2c" p-id="10256"></path><path d="M511.69621502 869.73307344c-14.37455297 0-27.92060144-6.93182094-36.30230524-18.61373431L323.62569491 639.87831001c-14.41597819-20.04980875-9.84539506-47.998027 10.21822209-62.41400518 20.02219194-14.37455297 47.94279339-9.85920347 62.3863884 10.21822208l115.47971803 160.70225499 115.45210121-160.68844659c14.443595-20.09123397 42.37800485-24.60658347 62.38638839-10.23203048 20.04980875 14.41597819 24.62039188 42.33657964 10.21822208 62.40019679l-151.75440644 211.2272207a44.65639221 44.65639221 0 0 1-36.31611365 18.64135112z" fill="#2c2c2c" p-id="10257"></path></svg>