<?xml version="1.0" standalone="no"?><!DOCTYPE svg PUBLIC "-//W3C//DTD SVG 1.1//EN" "http://www.w3.org/Graphics/SVG/1.1/DTD/svg11.dtd"><svg t="1757408227874" class="icon" viewBox="0 0 1024 1024" version="1.1" xmlns="http://www.w3.org/2000/svg" p-id="7071" xmlns:xlink="http://www.w3.org/1999/xlink" width="200" height="200"><path d="M934.097455 1024H111.243636a68.770909 68.770909 0 0 1-68.584727-69.026909 68.770909 68.770909 0 0 1 68.584727-69.026909h822.853819a68.770909 68.770909 0 0 1 68.561454 69.026909A68.770909 68.770909 0 0 1 934.097455 1024zM189.067636 600.250182L694.365091 91.601455l163.304727 164.421818-505.274182 508.648727-163.328-164.421818z m-25.506909 25.716363l163.351273 164.421819-10.170182 10.24-173.149091 50.362181c-24.552727 7.121455-47.290182-15.755636-40.215272-40.471272l50.01309-174.312728 10.170182-10.24z m719.639273-395.636363l-163.328-164.421818 53.992727-54.365091a39.005091 39.005091 0 0 1 55.342546 0l107.915636 108.637091a39.493818 39.493818 0 0 1 0 55.738181L883.2 230.330182z" fill="#2c2c2c" p-id="7072"></path></svg>