<?xml version="1.0" encoding="UTF-8"?>
<svg width="24px" height="24px" viewBox="0 0 24 24" version="1.1" xmlns="http://www.w3.org/2000/svg" xmlns:xlink="http://www.w3.org/1999/xlink">
    <title>heart_square_stack_fill</title>
    <g id="页面-1" stroke="none" stroke-width="1" fill="none" fill-rule="evenodd">
        <g id="我的" transform="translate(-168, -265)" fill="#000000" fill-rule="nonzero">
            <g id="heart_square_stack_fill" transform="translate(168, 265)">
                <rect id="矩形" opacity="0" x="0" y="0" width="24" height="24"></rect>
                <g id="编组" transform="translate(1.01, 1.56)" fill-opacity="0.601961">
                    <path d="M2.64,2.88 C1.79333333,2.88 1.14,3.10666667 0.68,3.56 C0.226666667,4.02 0,4.67333333 0,5.52 L0,18.24 C0,19.0866667 0.226666667,19.74 0.68,20.2 C1.14,20.6533333 1.79333333,20.88 2.64,20.88 L19.34,20.88 C20.1866667,20.88 20.84,20.6533333 21.3,20.2 C21.7533333,19.74 21.98,19.0866667 21.98,18.24 L21.98,5.52 C21.98,4.67333333 21.7533333,4.02 21.3,3.56 C20.84,3.10666667 20.1866667,2.88 19.34,2.88 L2.64,2.88 Z M10.94,9.19 C11.2133333,8.90333333 11.5233333,8.68 11.87,8.52 C12.21,8.36 12.5633333,8.28 12.93,8.28 C13.4433333,8.28 13.9133333,8.40333333 14.34,8.65 C14.76,8.89666667 15.1,9.23333333 15.36,9.66 C15.6133333,10.0866667 15.74,10.5633333 15.74,11.09 C15.74,11.4233333 15.7033333,11.7066667 15.63,11.94 C15.5633333,12.1733333 15.44,12.4333333 15.26,12.72 C14.9866667,13.2 14.5566667,13.7566667 13.97,14.39 C13.3766667,15.0233333 12.7833333,15.57 12.19,16.03 C11.5966667,16.4966667 11.18,16.73 10.94,16.73 C10.6866667,16.73 10.22,16.46 9.54,15.92 C8.86,15.3866667 8.2,14.76 7.56,14.04 C6.92,13.32 6.51,12.7033333 6.33,12.19 C6.20333333,11.8566667 6.14,11.49 6.14,11.09 C6.14,10.29 6.41333333,9.62 6.96,9.08 C7.5,8.54666667 8.16333333,8.28 8.95,8.28 C9.31666667,8.28 9.67666667,8.36 10.03,8.52 C10.3833333,8.68 10.6866667,8.90333333 10.94,9.19 Z M18.98,1.56 C19.1866667,1.56 19.4666667,1.59333333 19.82,1.66 C19.5666667,1.16 19.2,0.76 18.72,0.46 C18.24,0.153333333 17.72,0 17.16,0 L4.82,0 C4.26,0 3.74,0.153333333 3.26,0.46 C2.78,0.76 2.41333333,1.16 2.16,1.66 C2.51333333,1.59333333 2.79333333,1.56 3,1.56 L18.98,1.56 Z" id="形状结合"></path>
                </g>
            </g>
        </g>
    </g>
</svg>