<?xml version="1.0" encoding="UTF-8"?>
<svg width="40px" height="40px" viewBox="0 0 40 40" version="1.1" xmlns="http://www.w3.org/2000/svg" xmlns:xlink="http://www.w3.org/1999/xlink">
    <title>TitleBar/item/right/icon</title>
    <g id="页面-1" stroke="none" stroke-width="1" fill="none" fill-rule="evenodd">
        <g id="本地歌单" transform="translate(-304, -52)">
            <g id="编组-7" transform="translate(16, 44)">
                <g id="编组-8" transform="translate(288, 8)">
                    <circle id="椭圆形" cx="20" cy="20" r="20"></circle>
                    <g id="textformat_size_square" transform="translate(8, 8)" fill="#000000">
                        <rect id="矩形" fill-rule="nonzero" opacity="0" x="0" y="0" width="24" height="24"></rect>
                        <path d="M15.6331,11.3257 C15.8451,11.3297 16.0251,11.4057 16.1711,11.5517 C16.3171,11.6977 16.3901,11.8747 16.3901,12.0817 C16.3851,12.2847 16.3101,12.4587 16.1641,12.6057 L12.8191,15.9497 L21.2761,15.9497 C21.4881,15.9357 21.6701,16.0037 21.8201,16.1547 C21.9671,16.3007 22.0331,16.4797 22.0181,16.6927 C22.0181,16.8997 21.9451,17.0767 21.7991,17.2227 C21.6531,17.3687 21.4761,17.4417 21.2691,17.4417 L12.8541,17.4417 L16.1641,20.7507 C16.3101,20.8977 16.3851,21.0717 16.3901,21.2747 C16.3901,21.4817 16.3171,21.6587 16.1711,21.8047 C16.0251,21.9507 15.8481,22.0237 15.6401,22.0237 C15.4331,22.0237 15.2561,21.9507 15.1101,21.8047 L10.9031,17.5977 C10.6431,17.3377 10.5141,17.0247 10.5141,16.6567 C10.5141,16.2987 10.6391,15.9947 10.8891,15.7447 L15.0961,11.5377 C15.2421,11.3917 15.4211,11.3207 15.6331,11.3257 Z M19.02,2 C19.55,2 20.04,2.14 20.51,2.41 C20.97,2.69 21.34,3.05 21.61,3.51 C21.88,3.98 22.02,4.48 22.02,5 L22.02,9.02 L20.51,9.02 L20.51,5 C20.51,4.59 20.36,4.24 20.07,3.95 C19.78,3.66 19.43,3.51 19.02,3.51 L5,3.51 C4.6,3.51 4.25,3.66 3.96,3.95 C3.66,4.24 3.51,4.59 3.51,5 L3.51,19.02 C3.51,19.42 3.66,19.77 3.96,20.06 C4.25,20.36 4.6,20.51 5,20.51 L9.02,20.51 L9.02,22.02 L5,22.02 C4.47,22.02 3.98,21.89 3.51,21.61 C3.05,21.34 2.68,20.97 2.41,20.51 C2.14,20.05 2,19.55 2,19.02 L2,5 C2,4.48 2.14,3.98 2.41,3.51 C2.68,3.05 3.05,2.69 3.51,2.41 C3.98,2.14 4.47,2 5,2 Z" id="形状结合" fill-opacity="0.9"></path>
                    </g>
                </g>
            </g>
        </g>
    </g>
</svg>