<?xml version="1.0" standalone="no"?><!DOCTYPE svg PUBLIC "-//W3C//DTD SVG 1.1//EN" "http://www.w3.org/Graphics/SVG/1.1/DTD/svg11.dtd"><svg t="1756973855030" class="icon" viewBox="0 0 1024 1024" version="1.1" xmlns="http://www.w3.org/2000/svg" p-id="1484" data-spm-anchor-id="a313x.search_index.0.i0.2fcd3a81x0ge6r" xmlns:xlink="http://www.w3.org/1999/xlink" width="200" height="200"><path d="M864.768 768c24.106667 0 43.690667 19.114667 43.690667 42.666667 0 21.888-16.896 39.936-38.613334 42.368l-5.077333 0.298666H184.106667a43.178667 43.178667 0 0 1-43.648-42.666666c0-21.888 16.853333-39.936 38.570666-42.368l5.12-0.298667h680.618667z m0-298.666667c24.106667 0 43.690667 19.114667 43.690667 42.666667 0 21.888-16.896 39.936-38.613334 42.368l-5.077333 0.298667H184.106667a43.178667 43.178667 0 0 1-43.648-42.666667c0-21.888 16.853333-39.936 38.570666-42.368l5.12-0.298667h680.618667z m0-298.666666c24.106667 0 43.690667 19.114667 43.690667 42.666666 0 21.888-16.896 39.936-38.613334 42.368L864.768 256H184.106667a43.178667 43.178667 0 0 1-43.648-42.666667c0-21.888 16.853333-39.936 38.570666-42.368L184.149333 170.666667h680.618667z" fill="#464B5C" p-id="1485"></path></svg>