<?xml version="1.0" encoding="UTF-8"?>
<svg width="40px" height="40px" viewBox="0 0 40 40" version="1.1" xmlns="http://www.w3.org/2000/svg" xmlns:xlink="http://www.w3.org/1999/xlink">
    <title>TitleBar/item/right/icon</title>
    <g id="页面-1" stroke="none" stroke-width="1" fill="none" fill-rule="evenodd">
        <g id="我的" transform="translate(-304, -52)">
            <g id="编组" transform="translate(16, 44)">
                <g id="TitleBar/item/right/icon" transform="translate(288, 8)">
                    <circle id="椭圆形" fill-opacity="0.0509803922" fill="#000000" cx="20" cy="20" r="20"></circle>
                    <g id="ic/add" transform="translate(10.5, 12.5)" stroke="#000000" stroke-linecap="square" stroke-opacity="0.89996722" stroke-width="1.5">
                        <g id="编组">
                            <path d="M18.8642833,5.3861291 L16.8407481,8.03397706 C16.7172459,8.19531547 16.5177425,8.29022041 16.3087388,8.29971091 L15.6152267,8.3092014 L15.6152267,14.3261749 C15.6152267,14.6963042 15.3112214,15 14.940715,15 L4.06302541,15 C3.69251896,15 3.38851366,14.6963042 3.38851366,14.3261749 L3.38851366,8.29971091 L2.70450174,8.29971091 C2.48599793,8.29971091 2.28649445,8.19531547 2.15349214,8.02448657 L0.139457038,5.37663861 C-0.0600464392,5.12988575 -0.0410461081,4.77873746 0.167957534,4.5319846 L3.93002309,0.204319126 C4.1485269,-0.0329432358 4.53803369,-0.0519242247 4.74703733,0.194828631 C5.92505786,1.58993132 7.61608733,2.46305681 9.49712011,2.46305681 C11.3876531,2.46305681 13.0881827,1.58993132 14.2662032,0.175847643 C14.4752069,-0.0709052136 14.8647136,-0.0519242247 15.0832175,0.194828631 L18.8357829,4.5414751 C19.0447865,4.77873746 19.0542867,5.12988575 18.8642833,5.3861291 Z" id="Stroke-1"></path>
                            <line x1="3.38851366" y1="8.29971091" x2="3.38851366" y2="5.92708729" id="Stroke-3"></line>
                            <line x1="15.6152267" y1="8.3092014" x2="15.6152267" y2="6.24027361" id="Stroke-5"></line>
                        </g>
                    </g>
                </g>
            </g>
        </g>
    </g>
</svg>