<?xml version="1.0" encoding="UTF-8"?>
<svg width="24px" height="24px" viewBox="0 0 24 24" version="1.1" xmlns="http://www.w3.org/2000/svg" xmlns:xlink="http://www.w3.org/1999/xlink">
    <title>heart_fill</title>
    <g id="页面-1" stroke="none" stroke-width="1" fill="none" fill-rule="evenodd">
        <g id="我的" transform="translate(-60, -265)" fill="#000000" fill-rule="nonzero">
            <g id="heart_fill" transform="translate(60, 265)">
                <rect id="矩形" opacity="0" x="0" y="0" width="24" height="24"></rect>
                <path d="M16.27,2.23 C15.49,2.23 14.7333333,2.37 14,2.65 C13.2733333,2.93 12.6066667,3.32666667 12,3.84 C11.3933333,3.32666667 10.7266667,2.93 10,2.65 C9.26666667,2.37 8.51,2.23 7.73,2.23 C6.49666667,2.23 5.36666667,2.54333333 4.34,3.17 C3.32,3.79 2.51,4.63 1.91,5.69 C1.31,6.74333333 1.01,7.88666667 1.01,9.12 C1.01,10.2066667 1.39,11.4333333 2.15,12.8 C2.91,14.1733333 3.89666667,15.5233333 5.11,16.85 C6.37666667,18.2433333 7.66666667,19.41 8.98,20.35 C10.2866667,21.2966667 11.2866667,21.77 11.98,21.77 C12.76,21.77 13.7866667,21.3266667 15.06,20.44 C16.3333333,19.5466667 17.5866667,18.43 18.82,17.09 C20.0466667,15.73 21.05,14.34 21.83,12.92 C22.6033333,11.5066667 22.99,10.24 22.99,9.12 C22.99,7.88666667 22.69,6.74333333 22.09,5.69 C21.49,4.63 20.68,3.79 19.66,3.17 C18.6333333,2.54333333 17.5033333,2.23 16.27,2.23 Z" id="路径" fill-opacity="0.601961"></path>
            </g>
        </g>
    </g>
</svg>