<?xml version="1.0" encoding="UTF-8"?>
<svg width="24px" height="24px" viewBox="0 0 24 24" version="1.1" xmlns="http://www.w3.org/2000/svg" xmlns:xlink="http://www.w3.org/1999/xlink">
    <title>folder_fill</title>
    <g id="页面-1" stroke="none" stroke-width="1" fill="none" fill-rule="evenodd">
        <g id="我的" transform="translate(-276, -265)" fill="#000000" fill-rule="nonzero">
            <g id="folder_fill" transform="translate(276, 265)">
                <rect id="矩形" opacity="0" x="0" y="0" width="24" height="24"></rect>
                <path d="M20.4,7.2 C20.2533333,6.28666667 19.8366667,5.52666667 19.15,4.92 C18.4633333,4.31333333 17.6466667,4.01 16.7,4.01 L8.93,4.01 C8.77,3.72333333 8.53666667,3.49333333 8.23,3.32 C7.93,3.15333333 7.61,3.07 7.27,3.07 L4.34,3.07 C3.73333333,3.07 3.17333333,3.22333333 2.66,3.53 C2.15333333,3.83 1.75,4.23666667 1.45,4.75 C1.15666667,5.26333333 1.01,5.82333333 1.01,6.43 L1.01,17.57 C1.01,18.1766667 1.15666667,18.74 1.45,19.26 C1.75,19.78 2.15333333,20.1866667 2.66,20.48 C3.17333333,20.78 3.73333333,20.93 4.34,20.93 L19.66,20.93 C20.2666667,20.93 20.8266667,20.78 21.34,20.48 C21.8466667,20.1866667 22.25,19.78 22.55,19.26 C22.8433333,18.74 22.99,18.1766667 22.99,17.57 L22.99,10.46 C22.99,9.68 22.7466667,8.98666667 22.26,8.38 C21.7733333,7.76666667 21.1533333,7.37333333 20.4,7.2 Z M11.06,7.13 C11,7.13 10.9333333,7.11 10.86,7.07 C10.7866667,7.03 10.7266667,6.97666667 10.68,6.91 L9.84,5.52 L16.7,5.52 C17.2133333,5.52 17.6666667,5.66666667 18.06,5.96 C18.4533333,6.26 18.7133333,6.65 18.84,7.13 L11.06,7.13 Z" id="形状" fill-opacity="0.601961"></path>
            </g>
        </g>
    </g>
</svg>