<svg width="16.000000" height="16.000000" viewBox="0 0 16 16" fill="none" xmlns="http://www.w3.org/2000/svg" xmlns:xlink="http://www.w3.org/1999/xlink">
	<desc>
			Created with Pixso.
	</desc>
	<defs>
		<clipPath id="clip110_2637">
			<rect width="16.000000" height="16.000000" fill="white" fill-opacity="0"/>
		</clipPath>
	</defs>
	<g clip-path="url(#clip110_2637)">
		<path d="M10.59 7.9L8.41 7.9L8.41 5.09C8.41 5.06 8.41 5.03 8.41 5.01C8.4 4.98 8.39 4.95 8.38 4.93C8.37 4.9 8.36 4.88 8.34 4.86C8.33 4.83 8.31 4.81 8.29 4.79C8.27 4.77 8.25 4.75 8.23 4.74C8.2 4.72 8.18 4.71 8.15 4.7C8.13 4.69 8.1 4.68 8.07 4.68C8.05 4.67 8.02 4.67 7.99 4.67C7.96 4.67 7.94 4.67 7.91 4.68C7.88 4.68 7.86 4.69 7.83 4.7C7.81 4.71 7.78 4.72 7.76 4.74C7.73 4.75 7.71 4.77 7.69 4.79C7.67 4.81 7.66 4.83 7.64 4.86C7.63 4.88 7.61 4.9 7.6 4.93C7.59 4.95 7.58 4.98 7.58 5.01C7.57 5.03 7.57 5.06 7.57 5.09L7.57 7.91C7.57 7.93 7.57 7.96 7.57 7.99C7.58 8.02 7.58 8.04 7.59 8.07C7.59 8.1 7.6 8.12 7.61 8.15C7.61 8.18 7.62 8.2 7.63 8.23C7.64 8.25 7.66 8.28 7.67 8.3C7.68 8.33 7.7 8.35 7.71 8.37C7.73 8.4 7.74 8.42 7.76 8.44C7.78 8.46 7.8 8.48 7.82 8.5C7.84 8.52 7.86 8.54 7.88 8.56C7.9 8.58 7.92 8.59 7.95 8.61C7.97 8.62 7.99 8.64 8.02 8.65C8.04 8.66 8.07 8.68 8.09 8.69C8.12 8.7 8.14 8.71 8.17 8.71C8.2 8.72 8.22 8.73 8.25 8.73C8.28 8.74 8.3 8.74 8.33 8.75C8.36 8.75 8.39 8.75 8.41 8.75L10.59 8.75C10.61 8.75 10.64 8.75 10.67 8.74C10.69 8.74 10.72 8.73 10.75 8.72C10.77 8.71 10.8 8.69 10.82 8.68C10.84 8.66 10.86 8.65 10.88 8.63C10.9 8.61 10.92 8.59 10.94 8.56C10.95 8.54 10.96 8.51 10.98 8.49C10.99 8.46 10.99 8.44 11 8.41C11 8.38 11.01 8.36 11.01 8.33C11.01 8.3 11 8.27 11 8.25C10.99 8.22 10.99 8.19 10.98 8.17C10.96 8.14 10.95 8.12 10.94 8.09C10.92 8.07 10.9 8.05 10.88 8.03C10.86 8.01 10.84 7.99 10.82 7.98C10.8 7.96 10.77 7.95 10.75 7.94C10.72 7.93 10.69 7.92 10.67 7.91C10.64 7.91 10.61 7.91 10.59 7.91L10.59 7.9ZM11.64 11.64C11.57 11.71 11.5 11.77 11.43 11.84C11.36 11.9 11.29 11.96 11.22 12.02C11.14 12.08 11.07 12.14 10.99 12.19C10.91 12.25 10.83 12.3 10.75 12.35C10.67 12.4 10.59 12.45 10.51 12.5C10.43 12.54 10.34 12.59 10.26 12.63C10.17 12.67 10.09 12.71 10 12.75C9.91 12.78 9.82 12.82 9.74 12.85C9.65 12.88 9.56 12.91 9.46 12.94C9.37 12.96 9.28 12.99 9.19 13.01C9.1 13.03 9.01 13.05 8.91 13.07C8.82 13.09 8.73 13.1 8.63 13.11C8.54 13.12 8.44 13.13 8.35 13.14C8.25 13.15 8.16 13.15 8.06 13.15C7.97 13.15 7.87 13.15 7.78 13.15C7.69 13.14 7.59 13.14 7.5 13.13C7.4 13.12 7.31 13.11 7.21 13.09C7.12 13.08 7.03 13.06 6.93 13.04C6.84 13.02 6.75 13 6.66 12.98C6.57 12.95 6.48 12.93 6.39 12.9C6.3 12.87 6.21 12.83 6.12 12.8C6.03 12.77 5.94 12.73 5.86 12.69C5.77 12.65 5.68 12.61 5.6 12.56C5.52 12.52 5.43 12.47 5.35 12.43C5.27 12.38 5.19 12.33 5.11 12.27C5.03 12.22 4.96 12.16 4.88 12.11C4.81 12.05 4.73 11.99 4.66 11.93C4.59 11.87 4.52 11.81 4.45 11.74C4.38 11.68 4.31 11.61 4.25 11.54C4.18 11.47 4.12 11.4 4.06 11.33C4 11.25 3.94 11.18 3.88 11.11C3.82 11.03 3.77 10.95 3.71 10.87C3.66 10.8 3.61 10.72 3.56 10.63C3.51 10.55 3.47 10.47 3.42 10.39C3.38 10.3 3.34 10.22 3.3 10.13C3.26 10.04 3.22 9.96 3.19 9.87C3.15 9.78 3.12 9.69 3.09 9.6C3.06 9.51 3.04 9.42 3.01 9.33C2.99 9.24 2.97 9.14 2.95 9.05C2.93 8.96 2.91 8.87 2.9 8.77C2.88 8.68 2.87 8.58 2.86 8.49C2.85 8.4 2.85 8.3 2.84 8.21C2.84 8.11 2.84 8.02 2.84 7.92C2.84 7.83 2.84 7.73 2.85 7.64C2.86 7.54 2.87 7.45 2.88 7.35C2.89 7.26 2.9 7.17 2.92 7.07C2.94 6.98 2.96 6.89 2.98 6.8C3 6.7 3.03 6.61 3.05 6.52C3.08 6.43 3.11 6.34 3.14 6.25C3.17 6.16 3.21 6.07 3.25 5.99C3.28 5.9 3.32 5.81 3.36 5.73C3.41 5.64 3.45 5.56 3.5 5.48C3.54 5.39 3.59 5.31 3.64 5.23C3.69 5.15 3.75 5.07 3.8 5C3.86 4.92 3.91 4.84 3.97 4.77C4.03 4.7 4.09 4.62 4.16 4.55C4.22 4.48 4.29 4.41 4.35 4.35C4.42 4.28 4.49 4.21 4.56 4.15C4.63 4.09 4.7 4.03 4.78 3.97C4.85 3.91 4.93 3.85 5 3.8C5.08 3.74 5.16 3.69 5.24 3.64C5.32 3.59 5.4 3.54 5.48 3.49C5.57 3.45 5.65 3.4 5.74 3.36C5.82 3.32 5.91 3.28 6 3.25C6.13 3.19 6.27 3.14 6.41 3.09C6.55 3.05 6.69 3.01 6.84 2.97C6.98 2.94 7.13 2.91 7.27 2.89C7.42 2.87 7.57 2.86 7.72 2.85C7.86 2.84 8.01 2.84 8.16 2.84C8.31 2.85 8.45 2.86 8.6 2.88C8.75 2.9 8.89 2.92 9.04 2.95C9.18 2.98 9.33 3.02 9.47 3.06C9.61 3.1 9.75 3.15 9.89 3.2C10.03 3.26 10.16 3.32 10.29 3.38C10.43 3.45 10.55 3.52 10.68 3.6C10.81 3.68 10.93 3.76 11.05 3.85C11.17 3.93 11.28 4.03 11.39 4.12C11.51 4.22 11.61 4.32 11.71 4.43C11.82 4.54 11.91 4.65 12.01 4.76C12.1 4.88 12.19 5 12.27 5.12C12.35 5.24 12.43 5.37 12.5 5.5C12.57 5.63 12.64 5.76 12.7 5.9C12.76 6.03 12.81 6.17 12.86 6.31C12.91 6.45 12.95 6.59 12.99 6.73C13.03 6.88 13.06 7.02 13.08 7.17C13.1 7.31 13.12 7.46 13.13 7.61C13.14 7.75 13.15 7.9 13.15 8.05C13.15 8.2 13.14 8.35 13.12 8.49C13.11 8.64 13.09 8.79 13.06 8.93C13.04 9.08 13 9.22 12.96 9.36C12.92 9.51 12.88 9.65 12.83 9.79C12.78 9.93 12.72 10.06 12.66 10.2C12.59 10.33 12.52 10.46 12.45 10.59C12.37 10.72 12.3 10.84 12.21 10.96C12.12 11.08 12.03 11.2 11.94 11.31C11.84 11.43 11.74 11.54 11.64 11.64ZM8 2C7.9 2 7.8 2 7.7 2C7.6 2.01 7.5 2.01 7.41 2.02C7.31 2.03 7.21 2.05 7.11 2.06C7.02 2.07 6.92 2.09 6.82 2.11C6.73 2.13 6.63 2.15 6.54 2.17C6.44 2.2 6.35 2.22 6.25 2.25C6.16 2.28 6.07 2.31 5.97 2.35C5.88 2.38 5.79 2.41 5.7 2.45C5.61 2.49 5.52 2.53 5.43 2.57C5.34 2.61 5.25 2.66 5.17 2.7C5.08 2.75 4.99 2.8 4.91 2.85C4.83 2.9 4.74 2.95 4.66 3.01C4.58 3.06 4.5 3.12 4.42 3.18C4.34 3.23 4.26 3.29 4.19 3.36C4.11 3.42 4.04 3.48 3.97 3.55C3.89 3.62 3.82 3.68 3.75 3.75C3.68 3.82 3.62 3.89 3.55 3.97C3.48 4.04 3.42 4.11 3.36 4.19C3.29 4.26 3.23 4.34 3.18 4.42C3.12 4.5 3.06 4.58 3.01 4.66C2.95 4.74 2.9 4.83 2.85 4.91C2.8 4.99 2.75 5.08 2.7 5.17C2.66 5.25 2.61 5.34 2.57 5.43C2.53 5.52 2.49 5.61 2.45 5.7C2.41 5.79 2.38 5.88 2.35 5.97C2.31 6.07 2.28 6.16 2.25 6.25C2.22 6.35 2.2 6.44 2.17 6.54C2.15 6.63 2.13 6.73 2.11 6.82C2.09 6.92 2.07 7.02 2.06 7.11C2.05 7.21 2.03 7.31 2.02 7.41C2.01 7.5 2.01 7.6 2 7.7C2 7.8 2 7.9 2 8C2 8.09 2 8.19 2 8.29C2.01 8.39 2.01 8.49 2.02 8.58C2.03 8.68 2.05 8.78 2.06 8.88C2.07 8.97 2.09 9.07 2.11 9.17C2.13 9.26 2.15 9.36 2.17 9.45C2.2 9.55 2.22 9.64 2.25 9.74C2.28 9.83 2.31 9.92 2.35 10.02C2.38 10.11 2.41 10.2 2.45 10.29C2.49 10.38 2.53 10.47 2.57 10.56C2.61 10.65 2.66 10.74 2.7 10.82C2.75 10.91 2.8 11 2.85 11.08C2.9 11.16 2.95 11.25 3.01 11.33C3.06 11.41 3.12 11.49 3.18 11.57C3.23 11.65 3.29 11.73 3.36 11.8C3.42 11.88 3.48 11.95 3.55 12.02C3.62 12.1 3.68 12.17 3.75 12.24C3.82 12.31 3.89 12.37 3.97 12.44C4.04 12.51 4.11 12.57 4.19 12.63C4.26 12.7 4.34 12.76 4.42 12.81C4.5 12.87 4.58 12.93 4.66 12.98C4.74 13.04 4.83 13.09 4.91 13.14C4.99 13.19 5.08 13.24 5.17 13.29C5.25 13.33 5.34 13.38 5.43 13.42C5.52 13.46 5.61 13.5 5.7 13.54C5.79 13.58 5.88 13.61 5.97 13.64C6.07 13.68 6.16 13.71 6.25 13.74C6.35 13.77 6.44 13.79 6.54 13.82C6.63 13.84 6.73 13.86 6.82 13.88C6.92 13.9 7.02 13.92 7.11 13.93C7.21 13.94 7.31 13.96 7.41 13.97C7.5 13.98 7.6 13.98 7.7 13.99C7.8 13.99 7.9 14 8 14C8.09 14 8.19 13.99 8.29 13.99C8.39 13.98 8.49 13.98 8.58 13.97C8.68 13.96 8.78 13.94 8.88 13.93C8.97 13.92 9.07 13.9 9.17 13.88C9.26 13.86 9.36 13.84 9.45 13.82C9.55 13.79 9.64 13.77 9.74 13.74C9.83 13.71 9.92 13.68 10.02 13.64C10.11 13.61 10.2 13.58 10.29 13.54C10.38 13.5 10.47 13.46 10.56 13.42C10.65 13.38 10.74 13.33 10.82 13.29C10.91 13.24 11 13.19 11.08 13.14C11.16 13.09 11.25 13.04 11.33 12.98C11.41 12.93 11.49 12.87 11.57 12.81C11.65 12.76 11.73 12.7 11.8 12.63C11.88 12.57 11.95 12.51 12.02 12.44C12.1 12.37 12.17 12.31 12.24 12.24C12.31 12.17 12.37 12.1 12.44 12.02C12.51 11.95 12.57 11.88 12.63 11.8C12.7 11.73 12.76 11.65 12.81 11.57C12.87 11.49 12.93 11.41 12.98 11.33C13.04 11.25 13.09 11.16 13.14 11.08C13.19 11 13.24 10.91 13.29 10.82C13.33 10.74 13.38 10.65 13.42 10.56C13.46 10.47 13.5 10.38 13.54 10.29C13.58 10.2 13.61 10.11 13.64 10.02C13.68 9.92 13.71 9.83 13.74 9.74C13.77 9.64 13.79 9.55 13.82 9.45C13.84 9.36 13.86 9.26 13.88 9.17C13.9 9.07 13.92 8.97 13.93 8.88C13.94 8.78 13.96 8.68 13.97 8.58C13.98 8.49 13.98 8.39 13.99 8.29C13.99 8.19 14 8.09 14 8C14 7.9 13.99 7.8 13.99 7.7C13.98 7.6 13.98 7.5 13.97 7.41C13.96 7.31 13.94 7.21 13.93 7.11C13.92 7.02 13.9 6.92 13.88 6.82C13.86 6.73 13.84 6.63 13.82 6.54C13.79 6.44 13.77 6.35 13.74 6.25C13.71 6.16 13.68 6.07 13.64 5.97C13.61 5.88 13.58 5.79 13.54 5.7C13.5 5.61 13.46 5.52 13.42 5.43C13.38 5.34 13.33 5.25 13.29 5.17C13.24 5.08 13.19 4.99 13.14 4.91C13.09 4.83 13.04 4.74 12.98 4.66C12.93 4.58 12.87 4.5 12.81 4.42C12.76 4.34 12.7 4.26 12.63 4.19C12.57 4.11 12.51 4.04 12.44 3.97C12.37 3.89 12.31 3.82 12.24 3.75C12.17 3.68 12.1 3.62 12.02 3.55C11.95 3.48 11.88 3.42 11.8 3.36C11.73 3.29 11.65 3.23 11.57 3.18C11.49 3.12 11.41 3.06 11.33 3.01C11.25 2.95 11.16 2.9 11.08 2.85C11 2.8 10.91 2.75 10.82 2.7C10.74 2.66 10.65 2.61 10.56 2.57C10.47 2.53 10.38 2.49 10.29 2.45C10.2 2.41 10.11 2.38 10.02 2.35C9.92 2.31 9.83 2.28 9.74 2.25C9.64 2.22 9.55 2.2 9.45 2.17C9.36 2.15 9.26 2.13 9.17 2.11C9.07 2.09 8.97 2.07 8.88 2.06C8.78 2.05 8.68 2.03 8.58 2.02C8.49 2.01 8.39 2.01 8.29 2C8.19 2 8.09 2 8 2Z" fill="#000000" fill-opacity="0.400000" fill-rule="nonzero"/>
	</g>
</svg>
