<?xml version="1.0" encoding="UTF-8"?>
<svg width="24px" height="24px" viewBox="0 0 24 24" version="1.1"
     xmlns="http://www.w3.org/2000/svg">
    <title>Navigation/BottomTabBar/Items/Icon/首页_未选备份</title>
    <g id="Navigation/BottomTabBar/Items/Icon/首页_未选备份" stroke="none" fill="none" fill-rule="evenodd">
        <path d="M12.0080502,1.5 C17.4764955,1.5 19.7130631,2.61657735 19.7130631,2.61657735 C20.3337468,2.92633284 20.8416909,3.74700599 20.8416909,4.4400101 L20.841,5.703 L22.0796767,5.70323326 C22.3118148,5.70323326 22.5,5.89141842 22.5,6.12355658 C22.5,6.15116613 22.497338,6.17815393 22.4922566,6.20427732 C22.4972634,6.23523659 22.5,6.26799156 22.5,6.30138568 L22.5,8.29792148 C22.5,8.44970412 22.3769559,8.57274827 22.2251732,8.57274827 L21.9018476,8.57274827 C21.5714971,8.57274827 21.3036952,8.30494631 21.3036952,7.97459584 L21.3031501,6.54323326 L20.841,6.543 L20.8416909,18.9300081 C20.8416909,19.475565 20.4889617,19.9417678 20.0003866,20.1158639 L20.0003866,20.8199974 C20.0003866,21.7439736 19.2432412,22.5 18.3177998,22.5 C17.3923585,22.5 16.6352131,21.7440175 16.6352131,20.8199974 L16.6352131,20.1899936 L7.38095317,20.1899936 L7.38095317,20.8199974 C7.38095317,21.7439736 6.62380783,22.5 5.69836645,22.5 C4.77292506,22.5 4.01577973,21.7440175 4.01577973,20.8199974 L4.01577973,20.1158639 C3.52718255,19.9417897 3.17447537,19.4757845 3.17447537,18.9300081 L3.174,6.543 L2.69684988,6.54323326 L2.69630485,7.97459584 C2.69630485,8.30494631 2.42850289,8.57274827 2.09815242,8.57274827 L1.77482679,8.57274827 C1.62304414,8.57274827 1.5,8.44970412 1.5,8.29792148 L1.5,6.30138568 C1.5,6.26799156 1.50273655,6.23523659 1.50774339,6.20427732 C1.50266202,6.17815393 1.5,6.15116613 1.5,6.12355658 C1.5,5.89141842 1.68818516,5.70323326 1.92032333,5.70323326 L3.174,5.703 L3.17447537,4.4400101 C3.17447537,3.74700599 3.68241944,2.92633284 4.30327906,2.61657735 C4.30327906,2.61657735 6.53960485,1.5 12.0080502,1.5 Z M7.78543673,16.5069257 L4.74382903,16.5069257 C4.51247968,16.5069257 4.32318785,16.6959268 4.32318785,16.9269209 L4.32318785,17.7669332 C4.32318785,17.9979272 4.51247968,18.1869283 4.74382903,18.1869283 L7.78543673,18.1869283 C8.01678608,18.1869283 8.20607792,17.9979272 8.20607792,17.7669332 L8.20607792,16.9269209 C8.20607792,16.6959268 8.01678608,16.5069257 7.78543673,16.5069257 Z M19.2723329,16.5069257 L16.2307252,16.5069257 C15.9993758,16.5069257 15.810084,16.6959268 15.810084,16.9269209 L15.810084,17.7669332 C15.810084,17.9979272 15.9993758,18.1869283 16.2307252,18.1869283 L19.2723329,18.1869283 C19.5036822,18.1869283 19.692974,17.9979272 19.692974,17.7669332 L19.692974,16.9269209 C19.692974,16.6959268 19.5036822,16.5069257 19.2723329,16.5069257 Z M18.738419,6.54002985 L5.27770328,6.54002985 C5.04635392,6.54002985 4.85706209,6.72903097 4.85706209,6.96002502 L4.85706209,13.6800575 C4.85706209,13.9110516 5.04635392,14.1000527 5.27770328,14.1000527 L18.738419,14.1000527 C18.9697684,14.1000527 19.1590602,13.9110516 19.1590602,13.6800575 L19.1590602,6.96002502 C19.1590602,6.72903097 18.9697684,6.54002985 18.738419,6.54002985 Z M15.7938648,3.18000263 L8.22221355,3.18000263 C7.9908642,3.18000263 7.80157237,3.36900375 7.80157237,3.5999978 L7.80157237,4.4400101 C7.80157237,4.67100415 7.9908642,4.86000527 8.22221355,4.86000527 L15.7938648,4.86000527 C16.0252141,4.86000527 16.214506,4.67100415 16.214506,4.4400101 L16.214506,3.5999978 C16.214506,3.36900375 16.0252141,3.18000263 15.7938648,3.18000263 Z"
              id="形状结合" fill="#000000"></path>
    </g>
</svg>