<?xml version="1.0" encoding="UTF-8"?>
<svg width="24px" height="24px" viewBox="0 0 24 24" version="1.1"
     xmlns="http://www.w3.org/2000/svg">
    <title>Navigation/BottomTabBar/Items/Icon/Enable 备份</title>
    <g id="Navigation/BottomTabBar/Items/Icon/Enable-备份" stroke="none" fill="none">
        <rect id="矩形" opacity="0" fill-rule="nonzero" x="0" y="0" width="24" height="24"></rect>
        <path d="M11.5029629,13.0131927 L14.3949629,22.0091927 L4.99,22.01 C4.52714286,22.01 4.09367347,21.9095918 3.68959184,21.7087755 L3.49,21.6 C3.03666667,21.3266667 2.67333333,20.96 2.4,20.5 C2.12666667,20.0333333 1.99,19.5366667 1.99,19.01 L1.98996292,16.2401927 L11.5029629,13.0131927 Z M19.01,1.99 C19.5366667,1.99 20.0333333,2.12666667 20.5,2.4 C20.96,2.67333333 21.3266667,3.04 21.6,3.5 C21.8733333,3.96666667 22.01,4.46333333 22.01,4.99 L22.01,19.01 C22.01,19.5366667 21.8733333,20.0333333 21.6,20.5 C21.3266667,20.96 20.96,21.3266667 20.5,21.6 C20.0333333,21.8733333 19.5366667,22.01 19.01,22.01 L16.0749629,22.0091927 L9.63996292,1.98919266 Z M7.95996292,1.98919266 L11.0139629,11.4891927 L1.98996292,14.5511927 L1.99,4.99 C1.99,4.53857143 2.09040816,4.10918367 2.29122449,3.70183673 L2.4,3.5 C2.67333333,3.04 3.03666667,2.67333333 3.49,2.4 C3.95,2.12666667 4.45,1.99 4.99,1.99 L7.95996292,1.98919266 Z"
              id="形状结合" fill="#000000" fill-rule="evenodd"></path>
    </g>
</svg>