<?xml version="1.0" encoding="UTF-8"?>
<svg width="24px" height="24px" viewBox="0 0 24 24" version="1.1"
     xmlns="http://www.w3.org/2000/svg">
    <title>Navigation/BottomTabBar/Items/Icon/我的备份</title>
    <g id="Navigation/BottomTabBar/Items/Icon/我的备份" stroke="none" fill="none" fill-rule="nonzero">
        <path d="M13.8734921,13.8619392 C18.0564929,13.8619392 21.461304,17.1592117 21.4631524,21.2080962 C21.4430101,21.9383375 20.8583409,22.5104324 20.1507659,22.4998111 L3.86238645,22.4998111 C3.14149812,22.4998111 2.55184842,21.9238271 2.55,21.21565 C2.55184844,17.1554348 5.95665949,13.8619392 10.1396602,13.8619392 L13.8734921,13.8619392 Z M13.85,15.25 L10.65,15.25 C10.5555728,15.25 10.4666563,15.2944582 10.41,15.37 C10.3105887,15.5025483 10.3374517,15.6905887 10.47,15.79 L11.5497017,16.5997763 C11.6656903,16.6867678 11.7028695,16.8442611 11.6380298,16.9739403 L10.8201028,18.6097944 C10.7761846,18.6976309 10.778037,18.8014012 10.8250623,18.8876142 L11.9866313,21.0171574 C12.0142149,21.0677274 12.0557744,21.1092869 12.1063444,21.1368705 C12.2517989,21.2162093 12.4340299,21.1626119 12.5133687,21.0171574 L13.6749377,18.8876142 C13.721963,18.8014012 13.7238154,18.6976309 13.6798972,18.6097944 L12.8619702,16.9739403 C12.7971305,16.8442611 12.8343097,16.6867678 12.9502983,16.5997763 L14.03,15.79 C14.1055418,15.7333437 14.15,15.6444272 14.15,15.55 C14.15,15.3843146 14.0156854,15.25 13.85,15.25 Z M16.62211,1.5 C17.2746063,1.5 17.8069546,2.04388 17.8069546,2.71239917 L17.8069546,7.23717863 C17.8069546,8.88770335 17.148913,10.4985702 15.9991885,11.6562036 C14.9412082,12.7434494 13.5034856,13.3562697 12.0028793,13.3596056 L11.9289421,13.3596056 C8.84869662,13.3344975 6.34454521,10.8470984 6.20818953,7.72910333 L6.20250088,7.50534168 C6.15957224,4.23190006 8.77842045,1.54345078 12.0518621,1.50052214 L16.62211,1.5 Z M14,9.75 L10,9.75 C10,10.8545695 10.8954305,11.75 12,11.75 C13.1045695,11.75 14,10.8545695 14,9.75 Z"
              id="形状结合" fill="#000000"></path>
    </g>
</svg>