<?xml version="1.0" standalone="no"?><!DOCTYPE svg PUBLIC "-//W3C//DTD SVG 1.1//EN"
        "http://www.w3.org/Graphics/SVG/1.1/DTD/svg11.dtd">
<svg t="1758104296724" class="icon" viewBox="0 0 1024 1024" version="1.1"
     xmlns="http://www.w3.org/2000/svg"
     p-id="5024" width="200" height="200">
    <path d="M524.665263 1001.633684l-285.642105-285.642105c-75.452632-75.452632-118.568421-177.852632-118.568421-285.642105s43.115789-210.189474 118.568421-285.642106c75.452632-75.452632 177.852632-118.568421 285.642105-118.568421s210.189474 43.115789 285.642105 118.568421c156.294737 156.294737 156.294737 414.989474 0 571.284211l-285.642105 285.642105z m0-921.6c-94.315789 0-180.547368 37.726316-247.915789 102.4s-102.4 153.6-102.4 247.91579c0 94.315789 37.726316 180.547368 102.4 247.915789l247.915789 247.91579 247.91579-247.91579c137.431579-137.431579 137.431579-358.4 0-495.831579-67.368421-64.673684-153.6-102.4-247.91579-102.4z"
          fill="#2c2c2c" p-id="5025"></path>
    <path d="M524.665263 592.033684c-88.926316 0-161.684211-72.757895-161.68421-161.68421s72.757895-161.684211 161.68421-161.684211 161.684211 72.757895 161.684211 161.684211-72.757895 161.684211-161.684211 161.68421z m0-269.473684c-59.284211 0-107.789474 48.505263-107.789474 107.789474s48.505263 107.789474 107.789474 107.789473 107.789474-48.505263 107.789474-107.789473-48.505263-107.789474-107.789474-107.789474z"
          fill="#2c2c2c" p-id="5026"></path>
</svg>