<svg width="16.000000" height="16.000000" viewBox="0 0 16 16" fill="none" xmlns="http://www.w3.org/2000/svg" xmlns:xlink="http://www.w3.org/1999/xlink">
	<desc>
			Created with Pixso.
	</desc>
	<defs>
		<clipPath id="clip60_682">
			<rect id="svg" width="16.000000" height="16.000000" fill="white" fill-opacity="0"/>
		</clipPath>
	</defs>
	<g clip-path="url(#clip60_682)">
		<path id="path" d="M11.01 8.69L10.79 8.69C11.37 9.01 11.87 9.47 12.23 10.03C12.84 10.4 13.27 11.03 13.37 11.77L12.85 11.77C12.86 11.91 12.87 12.06 12.87 12.21L12.87 12.77L14.14 12.77C14.27 12.77 14.38 12.65 14.38 12.52L14.38 12.07C14.38 10.2 12.87 8.69 11.01 8.69ZM11.39 5.54C11.39 6.34 10.79 7 10.01 7.11C9.79 7.47 9.51 7.78 9.18 8.04C9.38 8.09 9.59 8.13 9.8 8.13C11.23 8.13 12.39 6.97 12.39 5.54C12.39 4.11 11.23 2.95 9.8 2.95C9.79 2.95 9.79 2.95 9.78 2.95C10.04 3.28 10.24 3.65 10.38 4.06C10.97 4.29 11.39 4.86 11.39 5.54Z" fill="#000000" fill-opacity="0.600000" fill-rule="nonzero"/>
		<path id="path" d="M6.94 8.18C8.59 8.18 9.93 6.85 9.93 5.2C9.93 3.55 8.59 2.22 6.94 2.22C5.3 2.22 3.96 3.55 3.96 5.2C3.96 6.85 5.3 8.18 6.94 8.18ZM6.94 3.21C8.04 3.21 8.93 4.1 8.93 5.2C8.93 6.29 8.04 7.18 6.94 7.18C5.85 7.18 4.96 6.29 4.96 5.2C4.96 4.1 5.85 3.21 6.94 3.21ZM8.84 8.83L5.01 8.83C3.15 8.83 1.64 10.34 1.64 12.21L1.64 13.28C1.64 13.42 1.75 13.53 1.88 13.53L11.97 13.53C12.11 13.53 12.22 13.42 12.22 13.28L12.22 12.21C12.22 10.34 10.71 8.83 8.84 8.83ZM11.22 12.53L2.64 12.53L2.64 12.21C2.64 10.9 3.7 9.83 5.01 9.83L8.84 9.83C10.15 9.83 11.22 10.9 11.22 12.21L11.22 12.53Z" fill="#000000" fill-opacity="0.600000" fill-rule="nonzero"/>
	</g>
</svg>
