<svg width="16.000000" height="16.000000" viewBox="0 0 16 16" fill="none" xmlns="http://www.w3.org/2000/svg" xmlns:xlink="http://www.w3.org/1999/xlink">
	<desc>
			Created with Pixso.
	</desc>
	<defs>
		<clipPath id="clip58_1231">
			<rect id="svg" width="16.000000" height="16.000000" fill="white" fill-opacity="0"/>
		</clipPath>
	</defs>
	<g clip-path="url(#clip58_1231)">
		<path id="path" d="M10.31 7.36L10.08 7.54C9.62 7.94 8.74 8.08 8.17 8.12L8.09 8.12C7.93 8.12 7.77 8.13 7.6 8.15L7.6 8.15C4.98 8.39 2.92 10.59 2.92 13.26L2.92 14.04L8.66 14.04C8.81 14.37 9 14.67 9.22 14.96L2.46 14.96C2.43 14.96 2.4 14.95 2.37 14.95C2.34 14.94 2.31 14.93 2.28 14.92C2.25 14.91 2.23 14.9 2.2 14.88C2.18 14.86 2.15 14.84 2.13 14.82C2.11 14.8 2.09 14.78 2.07 14.75C2.06 14.73 2.04 14.7 2.03 14.67C2.02 14.65 2.01 14.62 2 14.59C2 14.56 2 14.53 2 14.5L2 13.26C2 10.77 3.5 8.57 5.84 7.64L6.1 7.54L5.88 7.36C5.77 7.28 5.67 7.19 5.57 7.1C5.47 7 5.38 6.9 5.3 6.8C5.21 6.69 5.13 6.59 5.06 6.47C4.99 6.36 4.92 6.24 4.86 6.12C4.8 6 4.75 5.87 4.7 5.75C4.66 5.62 4.62 5.49 4.59 5.36C4.56 5.23 4.54 5.1 4.52 4.96C4.5 4.83 4.5 4.69 4.5 4.56C4.5 2.59 6.11 1 8.09 1C10.07 1 11.68 2.59 11.68 4.56C11.68 4.69 11.68 4.83 11.66 4.96C11.65 5.1 11.62 5.23 11.59 5.36C11.56 5.49 11.52 5.62 11.48 5.75C11.43 5.87 11.38 6 11.32 6.12C11.26 6.24 11.19 6.36 11.12 6.47C11.05 6.58 10.97 6.69 10.88 6.8C10.8 6.9 10.71 7 10.61 7.1C10.51 7.19 10.41 7.28 10.31 7.36ZM8.09 1.91C6.62 1.91 5.42 3.1 5.42 4.56C5.42 4.64 5.43 4.73 5.44 4.82C5.45 4.9 5.46 4.99 5.48 5.08C5.49 5.16 5.52 5.25 5.54 5.33C5.57 5.41 5.6 5.49 5.63 5.57C5.66 5.65 5.7 5.73 5.74 5.81C5.78 5.89 5.83 5.96 5.88 6.03C5.93 6.1 5.98 6.17 6.03 6.24C6.09 6.31 6.15 6.37 6.21 6.43C6.27 6.49 6.33 6.55 6.4 6.61C6.47 6.66 6.54 6.71 6.61 6.76C6.68 6.81 6.76 6.85 6.84 6.9C6.91 6.94 6.99 6.97 7.07 7.01C7.15 7.04 7.23 7.07 7.32 7.09C7.4 7.12 7.49 7.14 7.57 7.16C7.66 7.17 7.74 7.19 7.83 7.19C7.92 7.2 8 7.21 8.09 7.21C8.18 7.21 8.26 7.2 8.35 7.19C8.44 7.19 8.52 7.17 8.61 7.16C8.69 7.14 8.78 7.12 8.86 7.09C8.94 7.07 9.03 7.04 9.11 7.01C9.19 6.97 9.27 6.94 9.34 6.9C9.42 6.86 9.49 6.81 9.57 6.76C9.64 6.71 9.71 6.66 9.78 6.61C9.84 6.55 9.91 6.5 9.97 6.43C10.03 6.37 10.09 6.31 10.15 6.24C10.2 6.17 10.25 6.1 10.3 6.03C10.35 5.96 10.4 5.89 10.44 5.81C10.48 5.73 10.52 5.65 10.55 5.57C10.58 5.49 10.61 5.41 10.64 5.33C10.66 5.25 10.69 5.16 10.7 5.08C10.72 4.99 10.73 4.9 10.74 4.82C10.75 4.73 10.76 4.64 10.76 4.56C10.76 3.1 9.56 1.91 8.09 1.91Z" fill="#000000" fill-opacity="0.600000" fill-rule="nonzero"/>
		<path id="path" d="M13.31 8.41C13.35 8.44 13.4 8.48 13.44 8.52C13.49 8.55 13.53 8.59 13.57 8.63C13.61 8.67 13.65 8.71 13.69 8.76C13.72 8.8 13.76 8.85 13.79 8.89C13.82 8.94 13.85 8.99 13.88 9.04C13.9 9.09 13.93 9.14 13.95 9.2C13.97 9.25 13.99 9.3 14.01 9.36C14.02 9.41 14.04 9.47 14.05 9.52C14.06 9.58 14.07 9.64 14.07 9.69C14.08 9.75 14.08 9.81 14.08 9.87C14.08 9.92 14.08 9.98 14.07 10.04C14.07 10.09 14.06 10.15 14.05 10.21C14.04 10.26 14.02 10.32 14.01 10.37C13.99 10.43 13.97 10.48 13.95 10.53C13.93 10.59 13.9 10.64 13.88 10.69C13.85 10.74 13.82 10.79 13.79 10.84C13.48 11.29 13 11.59 12.49 11.63C12.22 11.65 11.99 11.53 11.75 11.38L11.69 11.34L11.26 11.05C10.97 10.85 10.72 10.64 10.63 10.31C10.6 10.19 10.59 10.07 10.58 9.94C10.58 9.82 10.59 9.7 10.61 9.58C10.63 9.45 10.67 9.34 10.71 9.22C10.76 9.11 10.82 9 10.89 8.89C10.92 8.85 10.95 8.8 10.99 8.76C11.02 8.71 11.06 8.67 11.1 8.63C11.14 8.59 11.19 8.55 11.23 8.51C11.27 8.48 11.32 8.44 11.37 8.41C11.42 8.38 11.46 8.35 11.51 8.32C11.57 8.3 11.62 8.27 11.67 8.25C11.72 8.23 11.78 8.21 11.83 8.19C11.89 8.18 11.94 8.16 12 8.15C12.05 8.14 12.11 8.13 12.17 8.13C12.22 8.12 12.28 8.12 12.34 8.12C12.39 8.12 12.45 8.12 12.51 8.13C12.57 8.13 12.62 8.14 12.68 8.15C12.73 8.16 12.79 8.18 12.84 8.19C12.9 8.21 12.95 8.23 13.01 8.25C13.06 8.27 13.11 8.3 13.16 8.33C13.21 8.35 13.26 8.38 13.31 8.41ZM12.98 8.9C12.95 8.88 12.92 8.86 12.89 8.84C12.85 8.82 12.82 8.8 12.78 8.79C12.75 8.78 12.71 8.76 12.68 8.75C12.64 8.74 12.6 8.73 12.56 8.72C12.53 8.72 12.49 8.71 12.45 8.71C12.41 8.7 12.38 8.7 12.34 8.7C12.3 8.7 12.26 8.7 12.22 8.71C12.19 8.71 12.15 8.72 12.11 8.72C12.07 8.73 12.04 8.74 12 8.75C11.96 8.76 11.93 8.77 11.89 8.79C11.86 8.8 11.82 8.82 11.79 8.84C11.76 8.86 11.72 8.88 11.69 8.9C11.66 8.92 11.63 8.94 11.6 8.96C11.57 8.99 11.54 9.01 11.51 9.04C11.49 9.07 11.46 9.1 11.44 9.13C11.41 9.15 11.39 9.19 11.37 9.22C11.18 9.5 11.12 9.86 11.2 10.17C11.22 10.28 11.31 10.37 11.54 10.53L11.59 10.57L12.02 10.86C12.25 11.01 12.36 11.06 12.44 11.05C12.77 11.02 13.1 10.82 13.3 10.51C13.33 10.48 13.34 10.45 13.36 10.41C13.38 10.38 13.4 10.35 13.41 10.31C13.43 10.27 13.44 10.24 13.45 10.2C13.46 10.17 13.47 10.13 13.48 10.09C13.49 10.05 13.49 10.02 13.5 9.98C13.5 9.94 13.5 9.9 13.5 9.86C13.5 9.83 13.5 9.79 13.5 9.75C13.49 9.71 13.49 9.68 13.48 9.64C13.47 9.6 13.46 9.56 13.45 9.53C13.44 9.49 13.43 9.45 13.41 9.42C13.4 9.38 13.38 9.35 13.36 9.32C13.35 9.28 13.33 9.25 13.3 9.22C13.28 9.19 13.26 9.16 13.24 9.13C13.21 9.1 13.19 9.07 13.16 9.04C13.13 9.01 13.11 8.99 13.08 8.97C13.05 8.94 13.02 8.92 12.98 8.9Z" fill="#000000" fill-opacity="0.600000" fill-rule="nonzero"/>
		<path id="path" d="M13.73 10.31C13.74 10.31 13.76 10.33 13.78 10.34C13.79 10.35 13.81 10.37 13.82 10.38C13.83 10.4 13.84 10.42 13.85 10.43C13.86 10.45 13.87 10.47 13.87 10.49C13.88 10.51 13.88 10.53 13.88 10.55C13.88 10.57 13.88 10.59 13.88 10.61C13.87 10.63 13.87 10.65 13.86 10.67C13.85 10.69 13.84 10.71 13.83 10.73C13.82 10.74 13.81 10.76 13.79 10.77C13.78 10.79 13.76 10.8 13.74 10.81C13.73 10.82 13.71 10.83 13.69 10.84C13.67 10.84 13.65 10.85 13.63 10.85C13.61 10.85 13.59 10.86 13.57 10.85C13.55 10.85 13.53 10.85 13.51 10.84C13.49 10.84 13.47 10.83 13.45 10.82C13.43 10.81 13.42 10.8 13.4 10.79L11.23 9.33C11.21 9.32 11.2 9.31 11.18 9.3C11.17 9.28 11.16 9.27 11.15 9.25C11.14 9.24 11.13 9.22 11.12 9.2C11.11 9.18 11.11 9.17 11.1 9.15C11.1 9.13 11.1 9.11 11.1 9.09C11.1 9.07 11.1 9.05 11.1 9.03C11.11 9.02 11.11 9 11.12 8.98C11.13 8.96 11.13 8.95 11.15 8.93C11.16 8.91 11.17 8.9 11.18 8.89C11.2 8.87 11.21 8.86 11.23 8.85C11.24 8.84 11.26 8.83 11.28 8.82C11.29 8.81 11.31 8.81 11.33 8.81C11.35 8.8 11.37 8.8 11.39 8.8C11.41 8.8 11.43 8.8 11.44 8.81C11.46 8.81 11.48 8.81 11.5 8.82C11.52 8.83 11.53 8.84 11.55 8.85L13.73 10.31ZM12.68 11.47L10.75 13.72C10.35 14.1 10 14.18 9.69 13.98C9.25 13.68 9.28 13.27 9.39 12.87L9.4 12.82L10.68 10.12L12.68 11.47ZM11.81 11.58L10.91 10.98L9.95 13.03L9.94 13.04C9.87 13.3 9.88 13.4 9.99 13.48L10.02 13.5C10.03 13.51 10.03 13.51 10.05 13.51C10.15 13.47 10.23 13.41 10.3 13.34L10.33 13.32L11.81 11.58Z" fill="#000000" fill-opacity="0.600000" fill-rule="nonzero"/>
	</g>
</svg>
