<svg width="16.000000" height="16.000000" viewBox="0 0 16 16" fill="none" xmlns="http://www.w3.org/2000/svg" xmlns:xlink="http://www.w3.org/1999/xlink">
	<desc>
			Created with Pixso.
	</desc>
	<defs>
		<clipPath id="clip58_1225">
			<rect id="svg" width="16.000000" height="16.000000" fill="white" fill-opacity="0"/>
		</clipPath>
	</defs>
	<g clip-path="url(#clip58_1225)">
		<path id="path" d="M12.65 3.34C10.08 0.77 5.91 0.77 3.34 3.34C0.77 5.91 0.77 10.08 3.34 12.65C5.91 15.22 10.08 15.22 12.65 12.65C15.22 10.08 15.22 5.91 12.65 3.34ZM11.98 11.98C9.78 14.19 6.2 14.18 4.01 11.98C1.8 9.78 1.8 6.21 4.01 4.01C6.2 1.81 9.78 1.8 11.98 4.01C14.18 6.2 14.18 9.79 11.98 11.98Z" fill="#000000" fill-opacity="0.600000" fill-rule="nonzero"/>
		<path id="path" d="M11.27 8.14L8.05 8.14L8.05 4.58C8.05 4.35 7.86 4.15 7.62 4.15C7.38 4.15 7.19 4.35 7.19 4.58L7.19 8.26C7.19 8.27 7.17 8.58 7.38 8.79C7.51 8.93 7.69 9 7.93 9L11.27 9C11.5 9 11.7 8.81 11.7 8.57C11.7 8.34 11.5 8.14 11.27 8.14Z" fill="#000000" fill-opacity="0.600000" fill-rule="nonzero"/>
	</g>
</svg>
