<svg width="16.000000" height="16.000000" viewBox="0 0 16 16" fill="none" xmlns="http://www.w3.org/2000/svg" xmlns:xlink="http://www.w3.org/1999/xlink">
	<desc>
			Created with Pixso.
	</desc>
	<defs>
		<clipPath id="clip60_848">
			<rect id="svg" width="16.000000" height="16.000000" fill="white" fill-opacity="0"/>
		</clipPath>
	</defs>
	<g clip-path="url(#clip60_848)">
		<path id="path" d="M8.05 1C5.18 1 2.74 3.44 2.74 6.33C2.74 9.37 5.56 12.47 7.46 14.65C7.46 14.66 7.77 15 8.15 15C8.15 15 8.18 15 8.18 15C8.56 15 8.86 14.66 8.87 14.65C10.65 12.6 13.25 9.23 13.25 6.33C13.25 3.44 11.35 1 8.05 1ZM8.22 14.06C8.21 14.07 8.18 14.09 8.16 14.11C8.14 14.09 8.12 14.07 8.11 14.06L7.88 13.8C6.08 11.74 3.62 8.91 3.62 6.33C3.62 3.91 5.65 1.87 8.05 1.87C11.03 1.87 12.37 4.11 12.37 6.33C12.37 8.29 10.97 10.89 8.22 14.06Z" fill="#000000" fill-opacity="0.600000" fill-rule="nonzero"/>
		<path id="path" d="M8.01 3.64C6.56 3.64 5.39 4.82 5.39 6.27C5.39 7.72 6.56 8.89 8.01 8.89C9.46 8.89 10.64 7.72 10.64 6.27C10.64 4.82 9.46 3.64 8.01 3.64ZM8.01 8.02C7.05 8.02 6.24 7.22 6.24 6.25C6.24 5.29 7.03 4.5 7.99 4.5C8.96 4.5 9.74 5.29 9.74 6.25C9.74 7.22 8.98 8.02 8.01 8.02Z" fill="#000000" fill-opacity="0.600000" fill-rule="nonzero"/>
	</g>
</svg>
