<svg viewBox="0 0 24 24" xmlns="http://www.w3.org/2000/svg" xmlns:xlink="http://www.w3.org/1999/xlink" width="24.000000" height="24.000000" fill="none">
	<rect id="chevron_backward" width="24.000000" height="24.000000" x="0.000000" y="0.000000" />
	<rect id="矩形 3604" width="24.000000" height="24.000000" x="0.000000" y="0.000000" opacity="0" fill="rgb(255,255,255)" />
	<g id="组合 4132">
		<path id="矢量 76" d="M8.09 12L15.05 5.03999C15.19 4.87999 15.26 4.69999 15.26 4.49999C15.26 4.29999 15.19 4.11999 15.05 3.95999C14.9033 3.81332 14.7267 3.73999 14.52 3.73999C14.3133 3.73999 14.1367 3.81332 13.99 3.95999L7.01 10.94C6.72334 11.2333 6.58 11.5867 6.58 12C6.58 12.4133 6.72334 12.7667 7.01 13.06L13.97 19.99C14.0967 20.1367 14.2667 20.21 14.48 20.21C14.7 20.21 14.88 20.1367 15.02 19.99C15.1667 19.85 15.24 19.6733 15.24 19.46C15.24 19.2533 15.1667 19.08 15.02 18.94L8.09 12Z" fill="rgb(255,255,255)" fill-opacity="0.898039222" fill-rule="nonzero" />
	</g>
</svg>
