<svg width="40" height="40" viewBox="0 0 40 40" fill="none" xmlns="http://www.w3.org/2000/svg">
<circle cx="20" cy="20" r="20" fill="#FCF5E2"/>
<path d="M27.8936 30.0116H21.4011V23.3088H29.4143V28.4908C29.4143 29.3273 28.7301 30.0116 27.8936 30.0116ZM21.4011 15.4707C21.1231 15.3954 20.6642 15.2745 20.4676 15.0915C20.4536 15.0783 20.4438 15.0623 20.4298 15.0483C20.4166 15.0623 20.406 15.0783 20.392 15.0915C20.1954 15.2745 20.0177 15.3954 19.7397 15.4707V21.6475H11.3054V16.3252C11.3054 15.4887 11.9897 14.8045 12.8261 14.8045H16.357C15.9589 14.5812 15.5871 14.3225 15.2762 14.0326C13.8641 12.7167 13.6091 10.8202 14.7071 9.7959C15.1668 9.36781 15.7911 9.16016 16.4655 9.16016C17.4015 9.16016 18.4337 9.56026 19.2545 10.3251C19.7315 10.7701 20.1386 11.3425 20.4298 11.9437C20.7217 11.3425 21.128 10.7701 21.6059 10.3251C22.4267 9.56026 23.4589 9.16016 24.3948 9.16016C25.0684 9.16016 25.6935 9.36784 26.1532 9.7959C27.2521 10.8202 26.9962 12.7167 25.5841 14.0326C25.2732 14.3225 24.9014 14.5812 24.5034 14.8045H27.8936C28.7301 14.8045 29.4143 15.4887 29.4143 16.3252V21.6475H21.4011V15.4707ZM18.1968 11.4601C17.6935 10.9921 17.0462 10.7121 16.4655 10.7121C16.292 10.7121 15.9704 10.7405 15.7656 10.9321C15.7187 10.9749 15.5765 11.1065 15.5765 11.4329C15.5765 11.7997 15.7755 12.3763 16.334 12.8973C17.0166 13.533 18.1434 14.0129 18.9535 14.0129C19.2389 14.0129 19.34 13.9504 19.3408 13.9496C19.4732 13.6847 19.1484 12.3467 18.1968 11.4601ZM21.5417 13.9718C21.5417 13.9718 21.5426 13.9709 21.5434 13.9709C21.5623 13.9709 21.6725 14.0129 21.9069 14.0129C22.717 14.0129 23.8438 13.533 24.5264 12.8973C25.0849 12.3762 25.2831 11.8002 25.2831 11.4338C25.2831 11.1073 25.1417 10.9753 25.0948 10.9321C24.8891 10.7405 24.5684 10.7121 24.3948 10.7121C23.8134 10.7121 23.1669 10.9921 22.6636 11.4601C21.7186 12.3409 21.3912 13.6659 21.5417 13.9718ZM19.7397 30.0116H12.8261C11.9897 30.0116 11.3054 29.3273 11.3054 28.4909V23.3088H19.7397V30.0116Z" fill="url(#paint0_linear_42_3403)"/>
<defs>
<linearGradient id="paint0_linear_42_3403" x1="11.3054" y1="9.16016" x2="11.3054" y2="30.0116" gradientUnits="userSpaceOnUse">
<stop stop-color="#F1CE97"/>
<stop offset="1" stop-color="#E2AD5D"/>
</linearGradient>
</defs>
</svg>
