<svg width="40" height="40" viewBox="0 0 40 40" fill="none" xmlns="http://www.w3.org/2000/svg">
<circle cx="20" cy="20" r="20" fill="#FCF5E2"/>
<path d="M20 9C26.0751 9 31 13.9249 31 20C31 26.0751 26.0751 31 20 31C13.9249 31 9 26.0751 9 20C9 13.9249 13.9249 9 20 9ZM20 13C18.7361 13 17.567 13.3033 16.4932 13.9102C15.4149 14.5127 14.5645 15.3336 13.9414 16.3721C13.3139 17.4062 13 18.5347 13 19.7568V24.7568C13.0001 25.1669 13.1063 25.543 13.3184 25.8848C13.5305 26.2266 13.8135 26.4974 14.167 26.6982C14.5249 26.8991 14.9157 27 15.3398 27C15.7641 27 16.1533 26.8991 16.5068 26.6982C16.8645 26.4975 17.1493 26.2264 17.3613 25.8848C17.5734 25.543 17.6796 25.1669 17.6797 24.7568V22.8457C17.6796 22.4356 17.5734 22.0595 17.3613 21.7178C17.1492 21.3718 16.8647 21.0957 16.5068 20.8906C16.1533 20.6855 15.7641 20.583 15.3398 20.583C14.8494 20.583 14.4031 20.7223 14.001 21V19.7568C14.001 18.7098 14.2728 17.7414 14.8164 16.8525C15.3555 15.968 16.0847 15.2629 17.0039 14.7373C17.9187 14.216 18.9173 13.9551 20 13.9551C21.0827 13.9551 22.0813 14.216 22.9961 14.7373C23.9153 15.2629 24.6445 15.968 25.1836 16.8525C25.4887 17.3514 25.705 17.8761 25.8389 18.4248L26.9482 18.9277C26.8363 18.0201 26.5383 17.1682 26.0518 16.3721C25.4198 15.3336 24.5694 14.5127 23.5 13.9102C22.4306 13.3033 21.2639 13 20 13ZM24.5078 19C24.3873 19 24.2661 19.0268 24.1455 19.0801L21.4443 20.2939C21.3065 20.352 21.1975 20.4416 21.1172 20.5625C21.0393 20.6837 21 20.821 21 20.9736V22.707C21 23.3467 21.1392 23.9605 21.418 24.5469C21.6942 25.1307 22.081 25.6346 22.5781 26.0586C23.0754 26.4826 23.6434 26.788 24.2812 26.9746C24.3541 26.9916 24.4272 27 24.5 27C24.5777 27 24.6529 26.9915 24.7256 26.9746C25.371 26.788 25.9418 26.4841 26.4365 26.0625C26.9287 25.641 27.3126 25.1404 27.5889 24.5615C27.8626 23.9849 27.9999 23.3704 28 22.7188V20.9736C28 20.821 27.9588 20.6851 27.876 20.5664C27.7956 20.4477 27.6888 20.3589 27.5557 20.3008L24.8613 19.0801C24.746 19.0269 24.6282 19 24.5078 19ZM26.3477 21.2998C26.4544 21.2998 26.5483 21.3494 26.6123 21.4316C26.6705 21.5035 26.7001 21.5911 26.7002 21.6855C26.7002 21.78 26.6706 21.8676 26.6094 21.9434L24.4443 24.4844C24.3874 24.5514 24.3201 24.6045 24.2373 24.6455C24.1584 24.6813 24.0751 24.7002 23.9902 24.7002C23.9061 24.7002 23.8237 24.681 23.7393 24.6416C23.6648 24.6036 23.5987 24.5501 23.543 24.4844L22.4023 23.1514C22.3352 23.0787 22.2999 22.9873 22.2998 22.8877C22.2999 22.7879 22.3348 22.6957 22.3994 22.626C22.4633 22.5542 22.548 22.5116 22.6504 22.5039C22.7596 22.4999 22.8558 22.549 22.918 22.6289L23.9912 23.8848L26.083 21.4287C26.1347 21.3677 26.1994 21.3257 26.2725 21.3086L26.3477 21.2998Z" fill="url(#paint0_linear_42_3472)"/>
<defs>
<linearGradient id="paint0_linear_42_3472" x1="9" y1="9" x2="9" y2="31" gradientUnits="userSpaceOnUse">
<stop stop-color="#F1CE97"/>
<stop offset="1" stop-color="#E2AD5D"/>
</linearGradient>
</defs>
</svg>
