<svg width="40" height="40" viewBox="0 0 40 40" fill="none" xmlns="http://www.w3.org/2000/svg">
<circle cx="20" cy="20" r="20" fill="#FCF5E2"/>
<path d="M21.8671 12.092C21.859 11.8987 21.7907 11.728 21.6737 11.5753C21.456 11.2974 21.1619 11.2113 20.8206 11.2129C16.8377 11.2162 12.8549 11.2145 8.87361 11.2145C8.80536 11.2145 8.73874 11.2178 8.67211 11.2227C8.22524 11.2535 7.86286 11.6143 7.82874 12.0612C7.82224 12.1375 7.81899 12.2123 7.81899 12.2903C7.81899 16.551 7.82386 20.8118 7.81249 25.0742C7.80924 25.7632 8.25286 26.1938 8.90774 26.1629C9.41961 26.1369 9.93636 26.158 10.4499 26.158C10.5019 26.158 10.5522 26.158 10.614 26.158C10.8821 24.5282 12.1561 23.4362 13.5179 23.3387C15.5459 23.1908 16.7191 24.2487 17.231 26.1515C17.2326 26.1515 17.2472 26.1564 17.2619 26.1564C18.4871 26.1564 19.7124 26.1597 20.9376 26.1515C21.0774 26.1515 21.2285 26.1174 21.352 26.054C21.7322 25.8655 21.8736 25.5373 21.8736 25.1213C21.8687 20.8313 21.8704 16.5413 21.8704 12.2513C21.8704 12.1993 21.8704 12.1457 21.8671 12.092ZM32.1729 20.3487C32.0754 19.697 31.7942 19.1234 31.4124 18.5969C31.0711 18.1273 30.7185 17.6642 30.3642 17.2043C29.9125 16.6128 29.4575 16.0229 28.9911 15.4428C28.7084 15.0902 28.3265 14.9455 27.8731 14.9472C26.5341 14.952 25.1935 14.9488 23.8512 14.9504C23.7375 14.952 23.6189 14.9602 23.51 14.9894C23.0664 15.108 22.8177 15.4607 22.8177 15.9628C22.8177 19.0227 22.8177 22.0842 22.8177 25.144C22.8177 25.2058 22.8177 25.2675 22.8242 25.3293C22.8714 25.7924 23.2987 26.1759 23.7424 26.1402C23.874 25.3342 24.2445 24.6484 24.8652 24.1105C25.4941 23.5678 26.2319 23.3029 27.0606 23.3029C28.4305 23.2997 30.0214 24.2844 30.3334 26.158C30.5267 26.158 30.7234 26.1597 30.9184 26.1564C31.0955 26.1532 31.2791 26.1678 31.4497 26.1304C31.9047 26.0329 32.1826 25.664 32.1826 25.1749C32.1842 23.6425 32.1826 22.1085 32.1826 20.5778C32.1875 20.503 32.1842 20.4234 32.1729 20.3487ZM25.6306 20.5534C25.6306 19.3087 25.6306 18.0737 25.6306 16.811C25.6859 16.811 25.7411 16.811 25.798 16.811C26.4545 16.811 27.1142 16.8192 27.7724 16.8078C28.0064 16.8029 28.1786 16.8939 28.3037 17.0662C28.9944 18.0119 29.6817 18.9609 30.3577 19.918C30.4699 20.0789 30.5284 20.2788 30.6096 20.4624C30.621 20.4852 30.6112 20.5177 30.6112 20.5534C28.9505 20.5534 27.2979 20.5534 25.6306 20.5534ZM13.9127 24.4778C12.7151 24.4745 11.7482 25.4317 11.7466 26.6293C11.745 27.822 12.7102 28.7857 13.9079 28.7857C15.1039 28.7857 16.074 27.8172 16.0707 26.626C16.0691 25.4414 15.1071 24.4827 13.9127 24.4778ZM27.0476 24.4778C25.8549 24.4664 24.875 25.43 24.8685 26.6212C24.862 27.8107 25.8272 28.7775 27.0265 28.7857C28.2144 28.7922 29.1812 27.8399 29.1926 26.6488C29.2072 25.456 28.2517 24.4892 27.0476 24.4778Z" fill="url(#paint0_linear_42_3421)"/>
<defs>
<linearGradient id="paint0_linear_42_3421" x1="7.81247" y1="11.2129" x2="7.81247" y2="28.7857" gradientUnits="userSpaceOnUse">
<stop stop-color="#F1CE97"/>
<stop offset="1" stop-color="#E2AD5D"/>
</linearGradient>
</defs>
</svg>
