<svg width="40" height="40" viewBox="0 0 40 40" fill="none" xmlns="http://www.w3.org/2000/svg">
<circle cx="20" cy="20" r="20" fill="black" fill-opacity="0.1"/>
<path d="M28.792 10.9492C29.3782 10.9492 29.8527 11.4391 29.8527 12.0444L29.8536 16.199C28.8532 15.6102 27.7001 15.3575 26.5542 15.476C25.4084 15.5944 24.3267 16.0782 23.4592 16.8601C22.5916 17.642 21.9813 18.6833 21.7129 19.8395C21.4445 20.9957 21.5312 22.2095 21.9611 23.3126L22.0644 23.559C22.2083 23.8836 22.3807 24.1926 22.5786 24.481L22.624 24.5456L22.5985 24.5632C21.5278 25.2708 20.6269 26.2203 19.9639 27.3401L9.70001 27.3421C9.4187 27.3421 9.14892 27.2267 8.95001 27.0213C8.75109 26.8159 8.63934 26.5374 8.63934 26.2469V12.0444C8.63934 11.4391 9.1138 10.9492 9.70001 10.9492H28.792ZM18.1853 19.6917H11.8213V21.3315H18.1853V19.6908V19.6917ZM21.3673 15.321H11.8213V16.9598H21.3673V15.321Z" fill="black" fill-opacity="0.2"/>
<path d="M27.4423 16.7363C28.3835 16.7364 29.2987 17.036 30.0473 17.5889C30.7959 18.1419 31.3365 18.9178 31.5861 19.7973C31.8357 20.6769 31.7805 21.6115 31.4289 22.4577C31.0773 23.304 30.4489 24.0149 29.64 24.4815C31.3281 25.0105 32.7548 26.1256 33.646 27.6124C33.6882 27.6827 33.7105 27.7626 33.7108 27.844C33.711 27.9253 33.689 28.0053 33.6472 28.0758C33.6053 28.1463 33.545 28.2049 33.4723 28.2456C33.3997 28.2864 33.3172 28.3078 33.2332 28.3078H21.6513C21.5676 28.3074 21.4855 28.2858 21.4131 28.245C21.3407 28.2043 21.2807 28.1459 21.2389 28.0756C21.1971 28.0053 21.1751 27.9256 21.175 27.8445C21.175 27.7634 21.1969 27.6837 21.2386 27.6133C22.1295 26.1262 23.5563 25.0108 25.2445 24.4815C24.4357 24.0149 23.8072 23.304 23.4557 22.4577C23.1041 21.6115 23.0489 20.6769 23.2984 19.7973C23.548 18.9178 24.0886 18.1419 24.8372 17.5889C25.5858 17.036 26.501 16.7364 27.4423 16.7363Z" fill="black" fill-opacity="0.2"/>
</svg>
