<svg width="40" height="40" viewBox="0 0 40 40" fill="none" xmlns="http://www.w3.org/2000/svg">
<circle cx="20" cy="20" r="20" fill="#FCF5E2"/>
<path d="M28.1817 30.4251C27.8362 30.419 27.4967 30.3333 27.1895 30.1746L20.8041 27.3875L20.6926 27.3353C20.3948 27.2204 20.065 27.2204 19.7672 27.3353L14.6209 29.4943L13.2411 30.1704C13.0371 30.273 12.8195 30.3457 12.5949 30.3864C12.4813 30.4073 12.3656 30.4188 12.2489 30.4177C11.8676 30.4459 11.4907 30.3216 11.2008 30.072C10.9109 29.8225 10.7316 29.468 10.7023 29.0863V11.632C10.7718 10.9614 11.1009 10.3447 11.6191 9.91416C12.1373 9.48365 12.8034 9.2736 13.4745 9.32905H26.9561C27.5194 9.30157 28.0776 9.44743 28.5557 9.74702C29.0338 10.0466 29.4088 10.4856 29.6303 11.0049C29.697 11.2052 29.7314 11.4171 29.7325 11.6299V29.0122C29.7356 29.2282 29.6876 29.4421 29.5938 29.6383C29.5397 29.751 29.4688 29.8553 29.3833 29.9471C29.0707 30.2706 28.633 30.4449 28.1817 30.4271V30.4251ZM24.8707 13.9183C24.7293 13.8036 24.5525 13.7416 24.3705 13.743H24.3309C24.1204 13.7474 23.9194 13.8312 23.7681 13.9777L15.8059 21.856C15.7134 21.9445 15.6445 22.0546 15.6054 22.1765C15.5662 22.2984 15.5581 22.4281 15.5817 22.5539C15.6053 22.6797 15.6599 22.7976 15.7405 22.897C15.8212 22.9963 15.9253 23.0739 16.0435 23.1228C16.1394 23.1645 16.2436 23.1854 16.3478 23.1844H16.3613C16.5802 23.1844 16.7907 23.0998 16.947 22.9464L24.9082 15.0703C24.9848 14.9949 25.0447 14.9044 25.0842 14.8045C25.1237 14.7046 25.1418 14.5975 25.1375 14.4901C25.1348 14.382 25.1097 14.2756 25.0638 14.1777C25.0179 14.0798 24.9521 13.9925 24.8707 13.9214V13.9172V13.9183ZM18.009 17.5809H18.0226C18.5781 17.5809 19.1116 17.3597 19.5056 16.9673C19.8912 16.5812 20.11 16.0595 20.11 15.5137C20.1046 14.9632 19.8821 14.4372 19.4912 14.05C19.1002 13.6629 18.5724 13.446 18.0226 13.4466H18.009C17.4599 13.4323 16.9276 13.6368 16.529 14.0152C16.1303 14.3936 15.898 14.9149 15.883 15.4647C15.8767 15.7455 15.9274 16.0247 16.0321 16.2853C16.1369 16.5459 16.2934 16.7825 16.4922 16.9807C16.691 17.1789 16.928 17.3346 17.1888 17.4383C17.4495 17.542 17.7286 17.5916 18.009 17.584V17.5819V17.5809ZM18.009 14.8219C18.1031 14.8168 18.1972 14.8308 18.2857 14.8633C18.3741 14.8958 18.455 14.946 18.5235 15.0109C18.5919 15.0757 18.6464 15.1538 18.6836 15.2405C18.7209 15.3271 18.7401 15.4205 18.7401 15.5148C18.7401 15.6091 18.7209 15.7025 18.6836 15.7891C18.6464 15.8758 18.5919 15.9539 18.5235 16.0187C18.455 16.0836 18.3741 16.1338 18.2857 16.1663C18.1972 16.1987 18.1031 16.2128 18.009 16.2077C17.915 16.2128 17.8208 16.1987 17.7324 16.1663C17.6439 16.1338 17.563 16.0836 17.4946 16.0187C17.4262 15.9539 17.3717 15.8758 17.3344 15.7891C17.2972 15.7025 17.278 15.6091 17.278 15.5148C17.278 15.4205 17.2972 15.3271 17.3344 15.2405C17.3717 15.1538 17.4262 15.0757 17.4946 15.0109C17.563 14.946 17.6439 14.8958 17.7324 14.8633C17.8208 14.8308 17.915 14.8168 18.009 14.8219ZM23.2053 18.5743H23.174C22.625 18.589 22.1044 18.8214 21.7264 19.2204C21.3485 19.6193 21.1442 20.1522 21.1585 20.7019C21.175 21.2345 21.3956 21.7404 21.7745 22.1146C22.1535 22.4887 22.6617 22.7025 23.1938 22.7117H23.2064C24.3527 22.7117 25.2834 21.7861 25.2834 20.6435C25.2818 20.0937 25.0622 19.567 24.6729 19.1792C24.2836 18.7914 23.7565 18.5742 23.2074 18.5753V18.5743H23.2053ZM23.2053 21.3364H23.174C23.0801 21.3394 22.9865 21.3233 22.8989 21.289C22.8114 21.2547 22.7317 21.203 22.6647 21.1369C22.5978 21.0708 22.545 20.9917 22.5095 20.9045C22.4741 20.8174 22.4567 20.7239 22.4585 20.6298C22.4602 20.5356 22.4811 20.4429 22.5198 20.3571C22.5585 20.2713 22.6143 20.1943 22.6837 20.1308C22.753 20.0672 22.8346 20.0185 22.9234 19.9875C23.0122 19.9566 23.1063 19.944 23.2001 19.9506C23.3841 19.9582 23.5576 20.0386 23.6825 20.1742C23.8074 20.3098 23.8734 20.4895 23.866 20.6737C23.8581 20.8477 23.7853 21.0124 23.662 21.1353C23.5387 21.2582 23.3739 21.3303 23.2001 21.3374H23.2053V21.3364Z" fill="url(#paint0_linear_42_3433)"/>
<defs>
<linearGradient id="paint0_linear_42_3433" x1="10.7023" y1="9.32031" x2="10.7023" y2="30.4284" gradientUnits="userSpaceOnUse">
<stop stop-color="#F1CE97"/>
<stop offset="1" stop-color="#E2AD5D"/>
</linearGradient>
</defs>
</svg>
