<svg width="12" height="13" viewBox="0 0 12 13" fill="none" xmlns="http://www.w3.org/2000/svg">
<g id="Frame" clip-path="url(#clip0_103_7181)">
<path id="Vector" d="M6.00001 0.977175C5.19126 0.982874 4.40219 1.22726 3.7318 1.67968C3.0614 2.13209 2.53952 2.77239 2.23162 3.52026C1.92372 4.26814 1.84352 5.09027 2.00106 5.88355C2.1586 6.67683 2.54688 7.40593 3.1172 7.97939L6.00001 10.8802L8.88368 7.97939C9.45375 7.40583 9.84179 6.67673 9.99914 5.88352C10.1565 5.09031 10.0761 4.26829 9.76817 3.52056C9.4602 2.77283 8.93832 2.13267 8.26797 1.68036C7.59762 1.22805 6.80866 0.98373 6.00001 0.978032V0.977175ZM6.00001 6.90133C5.76132 6.90077 5.52507 6.8532 5.30476 6.76134C5.08446 6.66948 4.8844 6.53512 4.71602 6.36594C4.54763 6.19676 4.41422 5.99607 4.3234 5.77534C4.23257 5.5546 4.18612 5.31813 4.18668 5.07944C4.18601 4.84079 4.23236 4.60434 4.32309 4.38361C4.41382 4.16287 4.54715 3.96218 4.71546 3.79299C4.88378 3.6238 5.08378 3.48943 5.30404 3.39756C5.5243 3.30568 5.7605 3.25811 5.99915 3.25754C6.23784 3.25811 6.47409 3.30568 6.69439 3.39754C6.9147 3.4894 7.11476 3.62376 7.28314 3.79294C7.45152 3.96212 7.58494 4.1628 7.67576 4.38354C7.76658 4.60428 7.81304 4.84075 7.81248 5.07944C7.81361 5.56098 7.62353 6.02327 7.284 6.36473C6.94447 6.70619 6.48326 6.89889 6.00172 6.90048L6.00001 6.90133ZM4.18668 12.2145C4.18668 12.6352 4.99822 12.9763 6.00001 12.9763C7.00179 12.9763 7.81333 12.6335 7.81333 12.2145C7.81333 11.7954 7.00179 11.4526 6.00001 11.4526C4.99822 11.4526 4.18754 11.792 4.18754 12.2128L4.18668 12.2145Z" fill="white"/>
</g>
<defs>
<clipPath id="clip0_103_7181">
<rect width="12" height="12" fill="white" transform="translate(0 0.976318)"/>
</clipPath>
</defs>
</svg>
