<svg width="10" height="10" viewBox="0 0 10 10" fill="none" xmlns="http://www.w3.org/2000/svg">
<g id="Frame" clip-path="url(#clip0_103_7315)">
<path id="Vector" d="M9.34009 0.753333C9.1512 0.295 8.6912 0 8.16898 0H1.81509C1.29398 0 0.835646 0.294444 0.644534 0.75C0.46509 1.17722 0.561201 1.65 0.893423 1.98722L3.04398 4.17611L3.04509 4.17722L3.49287 4.63222C3.62287 4.76556 3.49676 4.98222 3.49676 5.17667V7.33333C3.49676 7.55889 3.7012 7.765 3.92842 7.765C4.15398 7.765 4.3612 7.55944 4.36009 7.33333V5.17611C4.36009 4.76944 4.35287 4.33889 4.07398 4.05555L2.17842 2.125L2.17453 2.12167L1.47342 1.40944C1.33787 1.27222 1.36676 1.13167 1.39676 1.06111C1.44787 0.941111 1.54287 0.863333 1.77176 0.863333H8.24176C8.47342 0.863333 8.5362 0.941111 8.58454 1.06111C8.61231 1.13056 8.64009 1.26833 8.50009 1.40833L6.48176 3.52667C6.46213 3.54706 6.44463 3.56939 6.42954 3.59333L5.98287 4.06C5.70398 4.34333 5.65398 4.76944 5.65287 5.17667V9.05889C5.65287 9.285 5.85842 9.49055 6.08454 9.49055C6.31009 9.49055 6.51509 9.285 6.5162 9.05889V5.17778C6.5162 4.98333 6.43287 4.76667 6.56842 4.63L8.45842 2.635L9.08342 1.98667C9.41898 1.65333 9.51731 1.18 9.34009 0.753889V0.753333Z" fill="#999999"/>
</g>
<defs>
<clipPath id="clip0_103_7315">
<rect width="10" height="10" fill="white"/>
</clipPath>
</defs>
</svg>
