<svg width="32.000000" height="32.000000" viewBox="0 0 32 32" fill="none" xmlns="http://www.w3.org/2000/svg" xmlns:xlink="http://www.w3.org/1999/xlink">
  <metadata>
    <agcit_code>agcit_huawei_book_read</agcit_code>
  </metadata>
	<desc>
			Created with Pixso.
	</desc>
	<defs>
		<clipPath id="clip66_6904">
			<rect id="icon_加入书架_bg" rx="16.000000" width="32.000000" height="32.000000" fill="white" fill-opacity="0"/>
		</clipPath>
	</defs>
	<rect id="icon_加入书架_bg" rx="16.000000" width="32.000000" height="32.000000" fill="#000000" fill-opacity="0.047059"/>
	<g clip-path="url(#clip66_6904)">
		<path id="icon_加入书架" d="M15.03 7.79C15.18 7.57 15.39 7.43 15.66 7.39L17.86 7.01C18.09 6.96 18.3 7.03 18.48 7.2C18.67 7.37 18.78 7.58 18.81 7.82L20.69 18.45C20.64 18.48 20.59 18.5 20.55 18.53C20.15 18.76 19.8 19.03 19.49 19.34C19.46 19.37 19.43 19.41 19.39 19.44L17.46 8.55L16.37 8.73L18.5 20.74C18.38 20.99 18.28 21.24 18.2 21.5C18.07 21.97 18 22.47 18 22.98C18 23.91 18.22 24.76 18.68 25.55C18.77 25.69 18.85 25.83 18.95 25.96L18.76 25.99C18.55 26.04 18.35 25.97 18.16 25.8C17.97 25.63 17.86 25.43 17.81 25.18L14.86 8.52C14.82 8.26 14.87 8.02 15.03 7.79ZM23.84 7.82L25.72 18.54C25.37 18.34 24.98 18.17 24.59 18.05C24.45 18.01 24.3 17.97 24.15 17.94L22.5 8.55L21.41 8.73L23 17.85C22.51 17.86 22.03 17.94 21.57 18.08L19.9 8.52C19.84 8.26 19.88 8.02 20.04 7.79C20.19 7.57 20.4 7.43 20.66 7.39L22.89 7.01C23.12 6.98 23.32 7.05 23.51 7.21C23.58 7.28 23.65 7.36 23.7 7.44C23.77 7.56 23.82 7.68 23.84 7.82ZM7.9 7.17C8.07 7.09 8.26 7.06 8.46 7.06L12.64 7.06C12.83 7.06 13.01 7.09 13.17 7.16C13.35 7.23 13.52 7.34 13.66 7.49C13.82 7.64 13.93 7.81 14 7.99C14.07 8.15 14.1 8.33 14.1 8.52L14.1 24.49C14.1 24.89 13.95 25.22 13.66 25.5C13.53 25.64 13.38 25.74 13.21 25.81C13.04 25.88 12.85 25.92 12.64 25.92L8.46 25.92C8.24 25.92 8.04 25.88 7.86 25.79C7.7 25.73 7.56 25.63 7.43 25.5C7.14 25.22 7 24.89 7 24.49L7 8.52C7 8.33 7.03 8.15 7.09 7.99C7.17 7.81 7.28 7.64 7.43 7.49C7.57 7.35 7.73 7.24 7.9 7.17ZM8.46 24.49L12.64 24.49L12.64 8.52L8.46 8.52L8.46 24.49ZM12.13 14.2C12.06 14.27 11.98 14.33 11.89 14.36C11.81 14.4 11.71 14.41 11.62 14.41L9.48 14.41Q9.33 14.41 9.2 14.36C9.12 14.33 9.04 14.27 8.97 14.2C8.91 14.14 8.86 14.08 8.83 14.01C8.79 13.92 8.76 13.81 8.76 13.7C8.76 13.49 8.83 13.32 8.97 13.18C9.04 13.1 9.13 13.04 9.22 13C9.3 12.97 9.39 12.95 9.48 12.95L11.62 12.95C11.71 12.95 11.79 12.97 11.87 13C11.97 13.04 12.05 13.1 12.13 13.18C12.26 13.32 12.33 13.49 12.33 13.7C12.33 13.81 12.31 13.92 12.26 14.01C12.23 14.08 12.19 14.14 12.13 14.2ZM8.97 17.03C9.03 16.97 9.11 16.92 9.18 16.89C9.27 16.85 9.37 16.83 9.48 16.83L11.62 16.83C11.72 16.83 11.82 16.85 11.91 16.89C11.99 16.92 12.06 16.97 12.13 17.03C12.26 17.17 12.33 17.35 12.33 17.55C12.33 17.75 12.26 17.92 12.13 18.06C12.06 18.12 11.99 18.17 11.91 18.2C11.82 18.24 11.72 18.26 11.62 18.26L9.48 18.26C9.37 18.26 9.27 18.24 9.18 18.2C9.11 18.17 9.03 18.12 8.97 18.06C8.83 17.92 8.76 17.75 8.76 17.55C8.76 17.35 8.83 17.17 8.97 17.03ZM19.79 24.91C19.45 24.32 19.27 23.67 19.27 22.98C19.27 22.28 19.45 21.64 19.79 21.04C20.14 20.46 20.61 19.99 21.2 19.64C21.78 19.29 22.42 19.12 23.12 19.12C23.81 19.12 24.46 19.29 25.06 19.64C25.65 19.99 26.12 20.46 26.47 21.04C26.82 21.64 27 22.28 27 22.98C27 23.67 26.82 24.32 26.47 24.91C26.12 25.5 25.65 25.97 25.06 26.32C24.46 26.67 23.81 26.84 23.12 26.84C22.42 26.84 21.78 26.67 21.2 26.32C20.61 25.97 20.14 25.5 19.79 24.91ZM25.36 22.63C25.28 22.53 25.16 22.48 25.02 22.48L23.63 22.48L23.63 21.07C23.63 20.93 23.58 20.82 23.49 20.73C23.38 20.63 23.27 20.58 23.15 20.58C23.01 20.58 22.89 20.63 22.8 20.73C22.7 20.82 22.65 20.93 22.65 21.07L22.65 22.48L21.24 22.48C21.12 22.48 21.01 22.53 20.91 22.63C20.82 22.72 20.78 22.83 20.78 22.95C20.78 23.09 20.82 23.21 20.91 23.3C21.01 23.39 21.12 23.44 21.24 23.44L22.65 23.44L22.65 24.85C22.65 24.98 22.7 25.09 22.8 25.18C22.89 25.27 23.01 25.32 23.15 25.32C23.27 25.32 23.38 25.27 23.49 25.18C23.58 25.09 23.63 24.98 23.63 24.85L23.63 23.44L25.02 23.44C25.16 23.44 25.28 23.39 25.36 23.3C25.45 23.21 25.49 23.09 25.49 22.95C25.49 22.83 25.45 22.72 25.36 22.63Z" fill="#000000" fill-opacity="0.898039" fill-rule="evenodd"/>
	</g>
</svg>
