<svg width="32.000000" height="32.000000" viewBox="0 0 32 32" fill="none" xmlns="http://www.w3.org/2000/svg" xmlns:xlink="http://www.w3.org/1999/xlink">
  <metadata>
    <agcit_code>agcit_huawei_book_read</agcit_code>
  </metadata>
	<desc>
			Created with Pixso.
	</desc>
	<defs>
		<clipPath id="clip66_6906">
			<rect id="icon_加入书架-on-BG" rx="16.000000" width="32.000000" height="32.000000" fill="white" fill-opacity="0"/>
		</clipPath>
	</defs>
	<rect id="icon_加入书架-on-BG" rx="16.000000" width="32.000000" height="32.000000" fill="#000000" fill-opacity="0.047059"/>
	<g clip-path="url(#clip66_6906)">
		<path id="icon_加入书架-on" d="M19.2 22.89C19.2 23.59 19.37 24.24 19.72 24.84C20.07 25.44 20.55 25.92 21.14 26.27C21.73 26.62 22.38 26.8 23.08 26.8C23.78 26.8 24.44 26.62 25.04 26.27C25.64 25.92 26.12 25.44 26.47 24.84C26.82 24.24 27 23.59 27 22.89C27 22.19 26.82 21.54 26.47 20.94C26.12 20.35 25.64 19.87 25.04 19.52C24.44 19.17 23.78 19 23.08 19C22.38 19 21.73 19.17 21.14 19.52C20.55 19.87 20.07 20.35 19.72 20.94C19.37 21.54 19.2 22.19 19.2 22.89ZM22.73 24.41C22.51 24.41 22.32 24.33 22.14 24.15L21.05 23.05C20.94 22.96 20.88 22.84 20.88 22.71C20.88 22.58 20.94 22.46 21.05 22.37C21.14 22.26 21.25 22.21 21.38 22.21C21.52 22.21 21.63 22.26 21.72 22.37L22.73 23.36L24.72 21.39C24.82 21.3 24.93 21.25 25.06 21.25C25.2 21.25 25.31 21.3 25.4 21.39C25.51 21.48 25.57 21.59 25.57 21.73C25.57 21.86 25.51 21.97 25.4 22.07L23.34 24.15C23.17 24.33 22.96 24.41 22.73 24.41Z" fill="#64BB5C" fill-opacity="1.000000" fill-rule="nonzero"/>
		<path id="icon_加入书架" d="M15.78 7.39C15.51 7.43 15.3 7.57 15.14 7.79C14.99 8.02 14.93 8.26 14.98 8.52L17.97 25.17C18.02 25.41 18.13 25.62 18.32 25.79C18.51 25.96 18.71 26.03 18.93 25.98L19.12 25.95C19.03 25.82 18.94 25.68 18.85 25.54C18.39 24.75 18.16 23.89 18.16 22.97C18.16 22.46 18.23 21.96 18.37 21.49C18.45 21.24 18.55 20.98 18.67 20.74L16.51 8.73L17.62 8.54L19.58 19.43C19.61 19.4 19.64 19.37 19.67 19.33C19.99 19.02 20.35 18.75 20.75 18.52C20.79 18.5 20.84 18.47 20.89 18.44L18.98 7.82C18.95 7.58 18.84 7.37 18.65 7.2C18.46 7.03 18.25 6.96 18.02 7.01L15.78 7.39ZM26 18.54L24.09 7.82C24.06 7.68 24.01 7.56 23.94 7.44C23.89 7.36 23.82 7.28 23.75 7.21C23.56 7.05 23.35 6.98 23.12 7.01L20.86 7.39C20.59 7.43 20.38 7.57 20.23 7.79C20.07 8.02 20.02 8.26 20.09 8.52L21.79 18.07C22.24 17.93 22.74 17.85 23.24 17.84L21.62 8.73L22.73 8.54L24.4 17.94C24.55 17.97 24.7 18 24.85 18.05C25.24 18.16 25.63 18.33 26 18.54ZM8.49 7.06C8.28 7.06 8.09 7.09 7.91 7.17C7.74 7.24 7.58 7.35 7.44 7.49C7.28 7.64 7.17 7.81 7.09 7.99C7.03 8.15 7 8.33 7 8.52L7 24.47C7 24.87 7.14 25.21 7.44 25.49C7.57 25.62 7.71 25.71 7.87 25.78C8.06 25.86 8.26 25.9 8.49 25.9L12.72 25.9C12.93 25.9 13.12 25.87 13.3 25.79C13.47 25.73 13.62 25.62 13.76 25.49C14.06 25.21 14.2 24.87 14.2 24.47L14.2 8.52C14.2 8.33 14.17 8.15 14.1 7.99C14.03 7.81 13.92 7.64 13.76 7.49C13.61 7.34 13.44 7.23 13.26 7.16C13.09 7.09 12.92 7.06 12.72 7.06L8.49 7.06ZM12.72 24.47L8.49 24.47L8.49 8.52L12.72 8.52L12.72 24.47ZM11.96 14.36C12.05 14.32 12.13 14.27 12.2 14.2C12.26 14.14 12.31 14.07 12.34 14.01C12.39 13.91 12.41 13.81 12.41 13.69C12.41 13.49 12.34 13.31 12.2 13.17C12.12 13.09 12.04 13.03 11.94 13C11.86 12.97 11.78 12.95 11.68 12.95L9.52 12.95C9.42 12.95 9.34 12.97 9.26 13C9.16 13.03 9.07 13.09 9 13.17C8.86 13.31 8.79 13.49 8.79 13.69C8.79 13.81 8.81 13.91 8.86 14.01C8.89 14.07 8.94 14.14 9 14.2C9.07 14.27 9.15 14.32 9.24 14.36C9.32 14.39 9.42 14.41 9.52 14.41L11.68 14.41C11.78 14.41 11.88 14.39 11.96 14.36ZM9.22 16.88C9.14 16.92 9.06 16.96 9 17.03C8.86 17.17 8.79 17.34 8.79 17.54C8.79 17.74 8.86 17.91 9 18.05C9.06 18.11 9.14 18.16 9.22 18.2C9.31 18.23 9.41 18.25 9.52 18.25L11.68 18.25C11.79 18.25 11.89 18.23 11.98 18.2C12.06 18.16 12.14 18.11 12.2 18.05C12.34 17.91 12.41 17.74 12.41 17.54C12.41 17.34 12.34 17.17 12.2 17.03C12.14 16.96 12.06 16.92 11.98 16.88C11.89 16.84 11.79 16.82 11.68 16.82L9.52 16.82C9.41 16.82 9.31 16.84 9.22 16.88Z" fill="#000000" fill-opacity="0.898039" fill-rule="evenodd"/>
	</g>
</svg>
