<svg width="24.000000" height="24.000000" viewBox="0 0 24 24" fill="none" xmlns="http://www.w3.org/2000/svg" xmlns:xlink="http://www.w3.org/1999/xlink">
	<desc>
			Created with Pixso.
	</desc>
	<defs>
		<clipPath id="clip5_2211">
			<rect id="svg" width="24.000000" height="24.000000" fill="white" fill-opacity="0"/>
		</clipPath>
	</defs>
	<g clip-path="url(#clip5_2211)">
		<g opacity="0.000000">
			<rect id="rect" width="24.000000" height="24.000000" fill="#000000" fill-opacity="1.000000"/>
		</g>
		<path id="path" d="M12.74 11.26L12.74 3C12.74 2.79 12.67 2.61 12.53 2.47C12.38 2.33 12.2 2.26 12 2.26C11.79 2.26 11.61 2.33 11.47 2.47C11.33 2.61 11.26 2.79 11.26 3L11.26 11.26L3 11.26C2.79 11.26 2.61 11.33 2.47 11.47C2.33 11.61 2.26 11.79 2.26 12C2.26 12.2 2.33 12.38 2.47 12.53C2.61 12.67 2.79 12.74 3 12.74L11.26 12.74L11.26 21C11.26 21.2 11.33 21.38 11.47 21.53C11.61 21.67 11.79 21.74 12 21.74C12.2 21.74 12.38 21.67 12.53 21.53C12.67 21.38 12.74 21.2 12.74 21L12.74 12.74L21 12.74C21.2 12.74 21.38 12.67 21.53 12.53C21.67 12.38 21.74 12.2 21.74 12C21.74 11.79 21.67 11.61 21.53 11.47C21.38 11.33 21.2 11.26 21 11.26L12.74 11.26Z" fill="#000000" fill-opacity="0.600000" fill-rule="nonzero"/>
	</g>
</svg>
