<svg width="12.184570" height="21.339844" viewBox="0 0 12.1846 21.3398" fill="none" xmlns="http://www.w3.org/2000/svg" xmlns:xlink="http://www.w3.org/1999/xlink">
	<desc>
			Created with Pixso.
	</desc>
	<defs/>
	<path id="path" d="M10.47 10.79C9.92 8.92 9.37 7.05 8.81 5.17L8.76 5.05C8.58 4.41 8.36 4 8.09 3.82L7.9 3.25C7.75 2.78 7.59 2.29 7.43 1.82C7.26 1.33 7.1 0.91 6.96 0.54C6.88 0.37 6.77 0.24 6.64 0.13C6.5 0.04 6.33 0 6.12 0C5.7 0 5.41 0.18 5.24 0.54C5.01 0.99 4.64 2.08 4.13 3.82C3.93 3.94 3.79 4.1 3.71 4.29C3.62 4.48 3.54 4.73 3.46 5.04L3.41 5.17C2.85 7.05 2.29 8.92 1.73 10.79C1.36 12.12 1.04 13.62 0.76 15.29C0.48 16.97 0.24 18.53 0.05 19.96L0 20.28C-0.02 20.56 0.07 20.81 0.27 21.01C0.46 21.23 0.68 21.33 0.94 21.33L11.24 21.33C11.5 21.33 11.74 21.23 11.94 21C12.14 20.79 12.21 20.55 12.17 20.28C12.03 19.17 11.91 18.27 11.81 17.58C11.43 14.93 10.98 12.67 10.47 10.79ZM3.84 8.98C4.61 8.78 5.35 8.69 6.06 8.69C6.77 8.69 7.53 8.77 8.33 8.95L8.45 9.29C8.49 9.45 8.54 9.61 8.6 9.79C7.73 9.69 6.88 9.65 6.05 9.65C5.21 9.65 4.39 9.69 3.58 9.79C3.62 9.65 3.67 9.5 3.72 9.36L3.84 8.98ZM1.59 19.82C1.81 17.95 2.1 16.06 2.48 14.16C2.68 13.13 2.9 12.21 3.12 11.4C3.94 11.24 4.91 11.16 6.03 11.16C7.15 11.16 8.12 11.22 8.96 11.34C9.44 13.03 9.88 15.16 10.3 17.74C10.34 18.05 10.45 18.75 10.61 19.82L1.59 19.82Z" fill="#ffffff" fill-opacity="1.000000" fill-rule="nonzero"/>
</svg>
