<?xml version="1.0" standalone="no"?><!DOCTYPE svg PUBLIC "-//W3C//DTD SVG 1.1//EN"
        "http://www.w3.org/Graphics/SVG/1.1/DTD/svg11.dtd">
<svg t="1757319508247" class="icon" viewBox="0 0 1024 1024" version="1.1" xmlns="http://www.w3.org/2000/svg" p-id="6409"
     width="32" height="32" xmlns:xlink="http://www.w3.org/1999/xlink">
    <path d="M0 0h1024v1024H0z" fill="#FFFFFF" fill-opacity="0" p-id="6410"></path>
    <path d="M682.676706 781.402353l32.587294 41.441882a323.704471 323.704471 0 0 1-200.764235 69.391059c-70.113882 0-136.914824-22.287059-192.150589-62.855529l-8.613647-6.53553 32.587295-41.441882a270.998588 270.998588 0 0 0 168.176941 58.127059 270.938353 270.938353 0 0 0 159.683764-51.681883l8.493177-6.445176zM418.936471 256.481882l15.48047 50.386824a272.414118 272.414118 0 0 0-181.037176 337.829647l3.373176 10.631529-49.874823 17.046589A325.150118 325.150118 0 0 1 410.503529 259.192471l8.432942-2.710589zM610.093176 256.481882a325.12 325.12 0 0 1 215.642353 404.630589l-3.614117 11.264-49.844706-17.046589a272.444235 272.444235 0 0 0-169.803294-345.901176l-7.860706-2.56 15.48047-50.386824z"
          fill="#333333" p-id="6411"></path>
    <path d="M760.470588 628.705882l0 0z m0 52.705883a61.500235 61.500235 0 1 1 0 122.970353 61.500235 61.500235 0 0 1 0-122.970353zM268.559059 628.705882l0 0z m0 52.705883a61.500235 61.500235 0 1 1 0 122.970353 61.500235 61.500235 0 0 1 0-122.970353zM514.499765 154.352941l0 0z m0 52.705883a61.500235 61.500235 0 1 1 0 122.970352 61.500235 61.500235 0 0 1 0-122.970352z"
          fill="#333333" p-id="6412"></path>
</svg>