<svg width="40.000000" height="40.000000" viewBox="0 0 40 40" fill="none" xmlns="http://www.w3.org/2000/svg" xmlns:xlink="http://www.w3.org/1999/xlink">
	<desc>
			Created with Pixso.
	</desc>
	<defs>
		<clipPath id="clip1318_25304">
			<rect id="circle.svg" width="40.000000" height="40.000000" fill="white" fill-opacity="0"/>
		</clipPath>
	</defs>
	<g clip-path="url(#clip1318_25304)">
		<g opacity="0.000000">
			<rect id="rect" width="40.000000" height="40.000000" fill="#000000" fill-opacity="1.000000"/>
		</g>
		<path id="path" d="M20 38.31C23.31 38.31 26.36 37.5 29.16 35.86C31.96 34.22 34.18 31.99 35.83 29.18C37.48 26.37 38.31 23.31 38.31 20C38.31 16.68 37.48 13.62 35.83 10.81C34.18 8 31.96 5.77 29.16 4.13C26.36 2.5 23.31 1.68 20 1.68C16.68 1.68 13.62 2.5 10.81 4.13C8 5.77 5.77 8 4.11 10.81C2.46 13.62 1.63 16.68 1.63 20C1.63 23.31 2.46 26.37 4.11 29.18C5.77 31.99 8 34.22 10.81 35.86C13.62 37.5 16.68 38.31 20 38.31ZM20 4.16C22.85 4.16 25.49 4.87 27.91 6.29C30.35 7.72 32.27 9.65 33.68 12.08C35.09 14.5 35.8 17.14 35.8 20C35.8 22.85 35.09 25.49 33.68 27.91C32.27 30.35 30.35 32.27 27.91 33.7C25.49 35.12 22.85 35.83 20 35.83C17.12 35.83 14.46 35.12 12.03 33.7C9.61 32.27 7.69 30.35 6.28 27.91C4.87 25.49 4.16 22.85 4.16 20C4.16 17.14 4.87 14.5 6.28 12.08C7.69 9.65 9.61 7.72 12.03 6.29C14.46 4.87 17.12 4.16 20 4.16Z" fill="#000000" fill-opacity="0.901961" fill-rule="nonzero"/>
	</g>
</svg>
