<svg width="24.000000" height="24.000000" viewBox="0 0 24 24" fill="none" xmlns="http://www.w3.org/2000/svg" xmlns:xlink="http://www.w3.org/1999/xlink">
	<desc>
			Created with Pixso.
	</desc>
	<defs>
		<clipPath id="clip4_897">
			<rect id="svg" width="24.000000" height="24.000000" fill="white" fill-opacity="0"/>
		</clipPath>
	</defs>
	<g clip-path="url(#clip4_897)">
		<g opacity="0.000000">
			<rect id="rect" width="24.000000" height="24.000000" fill="#000000" fill-opacity="1.000000"/>
		</g>
		<path id="path" d="M15.17 8.92C15.05 8.92 14.95 8.88 14.86 8.78C14.76 8.68 14.71 8.58 14.71 8.47L14.71 3.17C14.71 2.75 14.61 2.37 14.41 2.04C14.21 1.7 13.94 1.44 13.61 1.23C13.27 1.04 12.9 0.94 12.5 0.94C12.1 0.94 11.73 1.04 11.39 1.23C11.04 1.44 10.77 1.7 10.57 2.04C10.37 2.39 10.27 2.76 10.27 3.17L10.27 8.47C10.27 8.59 10.22 8.7 10.14 8.79C10.05 8.88 9.95 8.92 9.84 8.92L7.2 8.92C6.7 8.92 6.25 9.05 5.83 9.29C5.41 9.54 5.08 9.88 4.84 10.3C4.58 10.71 4.46 11.16 4.46 11.66L4.44 17.35C4.44 18.33 4.37 19.2 4.24 19.95C4.1 20.72 3.91 21.29 3.67 21.67C3.54 21.87 3.5 22.09 3.54 22.31C3.58 22.52 3.68 22.7 3.84 22.85C4 22.99 4.19 23.06 4.42 23.06L17.7 23.06C18.2 23.06 18.66 22.93 19.08 22.69C19.49 22.44 19.82 22.1 20.08 21.68C20.32 21.26 20.45 20.8 20.45 20.29L20.45 11.66C20.45 11.16 20.32 10.71 20.08 10.3C19.82 9.88 19.49 9.54 19.08 9.29C18.66 9.05 18.2 8.92 17.7 8.92L15.17 8.92ZM9.82 10.42C10.36 10.42 10.82 10.22 11.2 9.85C11.57 9.47 11.76 9.01 11.76 8.47L11.76 3.17C11.76 2.96 11.83 2.79 11.98 2.64C12.12 2.51 12.28 2.45 12.48 2.45C12.68 2.45 12.86 2.51 13 2.64C13.13 2.79 13.2 2.96 13.2 3.17L13.2 8.47C13.2 9.01 13.39 9.47 13.78 9.85C14.16 10.22 14.62 10.42 15.17 10.42L17.7 10.42C18.04 10.42 18.34 10.54 18.59 10.78C18.83 11.02 18.95 11.31 18.95 11.66C18.95 11.84 18.95 12.01 18.95 12.19L5.95 12.19L5.95 11.66C5.95 11.31 6.07 11.02 6.32 10.78C6.57 10.54 6.86 10.42 7.2 10.42L9.82 10.42ZM15.1 21.55C15.51 20.49 15.72 19.45 15.72 18.43L15.72 15.43C15.72 15.22 15.64 15.04 15.5 14.9C15.36 14.76 15.18 14.69 14.98 14.69C14.76 14.69 14.59 14.76 14.45 14.9C14.3 15.04 14.23 15.22 14.23 15.43L14.23 18.43C14.23 18.91 14.16 19.42 14.02 19.96C13.87 20.51 13.68 21.03 13.44 21.55L10.1 21.55C10.53 20.46 10.75 19.42 10.75 18.43L10.75 15.43C10.75 15.22 10.68 15.04 10.54 14.9C10.39 14.76 10.21 14.69 10.01 14.69C9.8 14.69 9.62 14.76 9.47 14.9C9.31 15.04 9.24 15.22 9.24 15.43L9.24 18.43C9.24 18.93 9.17 19.44 9.04 19.98C8.9 20.51 8.7 21.03 8.45 21.55L5.38 21.55C5.76 20.43 5.95 19.03 5.95 17.35L5.95 13.68L18.95 13.68L18.95 20.29C18.95 20.65 18.84 20.95 18.6 21.19C18.36 21.43 18.06 21.55 17.7 21.55L15.1 21.55Z" fill="#0A59F7" fill-opacity="1.000000" fill-rule="nonzero"/>
	</g>
</svg>
