<svg width="24.000000" height="24.000000" viewBox="0 0 24 24" fill="none" xmlns="http://www.w3.org/2000/svg" xmlns:xlink="http://www.w3.org/1999/xlink">
	<desc>
			Created with Pixso.
	</desc>
	<defs>
		<clipPath id="clip1273_23703">
			<rect id="background_color_removal.svg" width="24.000000" height="24.000000" fill="white" fill-opacity="0"/>
		</clipPath>
	</defs>
	<g clip-path="url(#clip1273_23703)">
		<g opacity="0.000000">
			<rect id="rect" width="24.000000" height="24.000000" fill="#000000" fill-opacity="1.000000"/>
		</g>
		<path id="path" d="M17.85 12.12C17.67 11.89 17.45 11.65 17.2 11.38C16.93 11.12 16.57 10.76 16.12 10.32C15.42 9.61 14.71 8.91 14.01 8.22L8.41 2.63C8.28 2.49 8.1 2.41 7.89 2.41C7.68 2.41 7.5 2.49 7.37 2.63C7.22 2.79 7.14 2.98 7.14 3.18C7.14 3.39 7.22 3.57 7.37 3.71L9.16 5.51C9 5.59 8.87 5.69 8.75 5.8L2.66 11.87C2.47 12.07 2.33 12.29 2.22 12.53C2.13 12.76 2.08 13.02 2.08 13.29C2.08 13.56 2.13 13.82 2.22 14.05C2.33 14.29 2.47 14.51 2.66 14.71L8.75 20.8C8.95 21 9.16 21.14 9.41 21.24C9.64 21.33 9.89 21.37 10.14 21.37C10.42 21.37 10.67 21.33 10.91 21.24C11.16 21.14 11.37 21 11.57 20.8L17.66 14.71C18.01 14.35 18.2 13.93 18.24 13.43C18.27 12.94 18.14 12.5 17.85 12.12ZM9.82 6.86C9.91 6.76 10.02 6.71 10.16 6.71C10.29 6.71 10.41 6.76 10.5 6.86L12.96 9.3L16.6 12.96C16.65 12.99 16.69 13.04 16.71 13.09C16.74 13.16 16.75 13.23 16.75 13.29L3.58 13.29C3.58 13.23 3.58 13.16 3.6 13.09C3.63 13.04 3.67 12.99 3.71 12.96L9.82 6.86Z" fill="#0A59F7" fill-opacity="0.898039" fill-rule="nonzero"/>
		<path id="path" d="M19.33 21.58C19.8 21.58 20.23 21.46 20.62 21.23C21.02 20.99 21.33 20.68 21.56 20.29C21.79 19.89 21.91 19.46 21.91 19C21.91 18.61 21.74 18.05 21.41 17.33C21.09 16.62 20.72 15.99 20.29 15.44C19.88 14.89 19.56 14.62 19.33 14.62C19.12 14.62 18.79 14.9 18.37 15.46C17.96 16.02 17.59 16.65 17.27 17.35C16.94 18.05 16.78 18.61 16.78 19C16.78 19.46 16.89 19.89 17.12 20.29C17.35 20.68 17.66 20.99 18.06 21.23C18.45 21.46 18.87 21.58 19.33 21.58ZM19.33 16.17C19.55 16.48 19.76 16.79 19.97 17.13C20.17 17.47 20.35 17.8 20.5 18.13C20.64 18.48 20.71 18.77 20.71 19C20.71 19.38 20.58 19.71 20.32 19.98C20.05 20.24 19.72 20.37 19.33 20.37C18.95 20.37 18.63 20.24 18.37 19.96C18.11 19.69 17.98 19.37 17.98 19C17.98 18.78 18.04 18.5 18.19 18.16C18.33 17.81 18.51 17.46 18.72 17.11C18.92 16.75 19.13 16.44 19.33 16.17Z" fill="#0A59F7" fill-opacity="0.898039" fill-rule="nonzero"/>
	</g>
</svg>
