<svg width="15.000000" height="14.500000" viewBox="0 0 15 14.5" fill="none" xmlns="http://www.w3.org/2000/svg" xmlns:xlink="http://www.w3.org/1999/xlink">
	<desc>
			Created with Pixso.
	</desc>
	<defs/>
	<path id="path" d="M13.25 0C12.75 0 12.33 0.16 12 0.5C11.66 0.84 11.5 1.25 11.5 1.75C11.5 2.22 11.66 2.64 12 2.99C12.33 3.33 12.75 3.5 13.25 3.5C13.73 3.5 14.14 3.33 14.49 2.99C14.83 2.64 15 2.22 15 1.75C15 1.25 14.83 0.84 14.49 0.5C14.14 0.16 13.73 0 13.25 0ZM1.73 0C1.25 0 0.84 0.16 0.5 0.5C0.16 0.84 0 1.25 0 1.75C0 2.22 0.16 2.64 0.5 2.99C0.84 3.33 1.25 3.5 1.73 3.5C2.2 3.5 2.62 3.33 2.96 2.99C3.3 2.64 3.48 2.22 3.48 1.75C3.48 1.25 3.3 0.84 2.96 0.5C2.62 0.16 2.2 0 1.73 0ZM13.25 10.99C12.75 10.99 12.33 11.16 12 11.5C11.66 11.85 11.5 12.27 11.5 12.75C11.5 13.23 11.66 13.64 12 13.98C12.33 14.32 12.75 14.5 13.25 14.5C13.73 14.5 14.14 14.32 14.49 13.98C14.83 13.64 15 13.23 15 12.75C15 12.27 14.83 11.85 14.49 11.5C14.14 11.16 13.73 10.99 13.25 10.99ZM1.73 10.99C1.25 10.99 0.84 11.16 0.5 11.5C0.16 11.85 0 12.27 0 12.75C0 13.23 0.16 13.64 0.5 13.98C0.84 14.32 1.25 14.5 1.73 14.5C2.2 14.5 2.62 14.32 2.96 13.98C3.3 13.64 3.48 13.23 3.48 12.75C3.48 12.27 3.3 11.85 2.96 11.5C2.62 11.16 2.2 10.99 1.73 10.99Z" fill="#000000" fill-opacity="0.898039" fill-rule="nonzero"/>
</svg>
