<svg width="16" height="16" viewBox="0 0 16.9248 22.1201" fill="none" xmlns="http://www.w3.org/2000/svg" xmlns:xlink="http://www.w3.org/1999/xlink">
	<desc>
			Created with Pixso.
	</desc>
	<defs/>
	<path id="path" d="M11.64 7.99C11.53 7.99 11.42 7.93 11.33 7.83C11.23 7.74 11.18 7.64 11.18 7.52L11.18 2.22C11.18 1.81 11.08 1.43 10.88 1.1C10.68 0.76 10.41 0.5 10.08 0.29C9.74 0.1 9.37 0 8.97 0C8.57 0 8.2 0.1 7.86 0.29C7.51 0.5 7.24 0.77 7.04 1.1C6.84 1.45 6.74 1.83 6.74 2.22L6.74 7.52C6.74 7.65 6.7 7.76 6.61 7.85C6.52 7.94 6.42 7.99 6.31 7.99L3.67 7.99C3.18 7.99 2.72 8.11 2.3 8.35C1.89 8.6 1.56 8.93 1.31 9.35C1.06 9.77 0.93 10.22 0.93 10.72L0.91 16.41C0.91 17.39 0.84 18.25 0.71 19.02C0.57 19.77 0.38 20.35 0.14 20.73C0.01 20.93 -0.03 21.14 0.01 21.37C0.05 21.58 0.15 21.76 0.31 21.91C0.47 22.04 0.66 22.12 0.89 22.12L14.18 22.12C14.68 22.12 15.14 21.99 15.55 21.75C15.96 21.5 16.3 21.16 16.55 20.74C16.8 20.31 16.92 19.85 16.92 19.35L16.92 10.72C16.92 10.22 16.8 9.77 16.55 9.35C16.3 8.93 15.96 8.6 15.55 8.35C15.14 8.11 14.68 7.99 14.18 7.99L11.64 7.99ZM6.29 9.47C6.83 9.47 7.29 9.29 7.67 8.91C8.04 8.53 8.23 8.07 8.23 7.52L8.23 2.22C8.23 2.02 8.3 1.85 8.45 1.7C8.59 1.57 8.76 1.5 8.95 1.5C9.16 1.5 9.33 1.57 9.47 1.7C9.6 1.85 9.67 2.02 9.67 2.22L9.67 7.52C9.67 8.07 9.86 8.53 10.25 8.91C10.63 9.29 11.09 9.47 11.64 9.47L14.18 9.47C14.52 9.47 14.81 9.6 15.06 9.83C15.31 10.08 15.43 10.37 15.43 10.72C15.43 10.89 15.43 11.07 15.43 11.25L2.42 11.25L2.42 10.72C2.42 10.37 2.54 10.08 2.79 9.83C3.04 9.6 3.34 9.47 3.67 9.47L6.29 9.47ZM11.57 20.6C11.98 19.55 12.19 18.51 12.19 17.49L12.19 14.49C12.19 14.28 12.12 14.1 11.97 13.96C11.83 13.81 11.66 13.75 11.45 13.75C11.24 13.75 11.06 13.81 10.92 13.96C10.77 14.1 10.7 14.28 10.7 14.49L10.7 17.49C10.7 17.97 10.63 18.48 10.49 19.02C10.34 19.56 10.15 20.09 9.91 20.6L6.57 20.6C7 19.52 7.22 18.48 7.22 17.49L7.22 14.49C7.22 14.28 7.15 14.1 7.01 13.96C6.86 13.81 6.69 13.75 6.48 13.75C6.27 13.75 6.09 13.81 5.94 13.96C5.79 14.1 5.71 14.28 5.71 14.49L5.71 17.49C5.71 17.99 5.64 18.5 5.51 19.04C5.37 19.57 5.17 20.09 4.92 20.6L1.85 20.6C2.23 19.49 2.42 18.08 2.42 16.41L2.42 12.74L15.43 12.74L15.43 19.35C15.43 19.71 15.31 20 15.07 20.25C14.83 20.49 14.53 20.6 14.18 20.6L11.57 20.6Z" fill="#000000" fill-opacity="0.898039" fill-rule="nonzero"/>
</svg>
