<svg width="20.019531" height="20.020020" viewBox="0 0 20.0195 20.02" fill="none" xmlns="http://www.w3.org/2000/svg" xmlns:xlink="http://www.w3.org/1999/xlink">
	<desc>
			Created with Pixso.
	</desc>
	<defs/>
	<path id="path" d="M3 0C2.45 0 1.95 0.13 1.5 0.41C1.04 0.68 0.68 1.04 0.41 1.5C0.13 1.95 0 2.45 0 3L0 17.02C0 17.56 0.13 18.06 0.41 18.52C0.68 18.97 1.04 19.33 1.5 19.6C1.95 19.88 2.45 20.02 3 20.02L17.01 20.02C17.55 20.02 18.05 19.88 18.51 19.6C18.97 19.33 19.33 18.97 19.61 18.52C19.88 18.06 20.01 17.56 20.01 17.02L20.01 3C20.01 2.45 19.88 1.95 19.61 1.5C19.33 1.04 18.97 0.68 18.51 0.41C18.05 0.13 17.55 0 17.01 0L3 0ZM14.34 5.97C14.34 6.14 14.29 6.27 14.19 6.37C14.07 6.47 13.94 6.52 13.79 6.52L6.21 6.52C6.07 6.52 5.94 6.47 5.83 6.37C5.72 6.27 5.66 6.14 5.66 5.97L5.66 1.54L14.34 1.54L14.34 5.97ZM18.5 17.02C18.5 17.41 18.36 17.76 18.07 18.06C17.78 18.35 17.43 18.5 17.01 18.5L3 18.5C2.59 18.5 2.25 18.35 1.95 18.06C1.66 17.76 1.5 17.41 1.5 17.02L1.5 3C1.5 2.58 1.66 2.23 1.95 1.95C2.25 1.65 2.59 1.5 3 1.5L4.17 1.5L4.17 5.97C4.17 6.54 4.37 7.02 4.78 7.43C5.17 7.83 5.66 8.04 6.21 8.04L13.79 8.04C14.36 8.04 14.83 7.83 15.24 7.43C15.63 7.02 15.83 6.54 15.83 5.97L15.83 1.5L17.01 1.5C17.43 1.5 17.78 1.65 18.07 1.95C18.36 2.23 18.5 2.58 18.5 3L18.5 17.02ZM5.01 13C4.81 13 4.63 13.08 4.48 13.23C4.32 13.37 4.25 13.54 4.25 13.75C4.25 13.96 4.32 14.14 4.48 14.27C4.63 14.42 4.81 14.5 5.01 14.5L15 14.5C15.2 14.5 15.38 14.42 15.54 14.27C15.69 14.14 15.76 13.96 15.76 13.75C15.76 13.54 15.69 13.37 15.54 13.23C15.38 13.08 15.2 13 15 13L5.01 13Z" fill="#000000" fill-opacity="0.898039" fill-rule="nonzero"/>
</svg>
