<?xml version="1.0" standalone="no"?><!DOCTYPE svg PUBLIC "-//W3C//DTD SVG 1.1//EN"
        "http://www.w3.org/Graphics/SVG/1.1/DTD/svg11.dtd">
<svg t="1758200114896" class="icon" viewBox="0 0 1024 1024" version="1.1" xmlns="http://www.w3.org/2000/svg" p-id="2971"
     width="16" height="18" xmlns:xlink="http://www.w3.org/1999/xlink">
    <path d="M921.6 307.2a25.6 25.6 0 0 1 51.2 0v588.8a128 128 0 0 1-128 128h-665.6A128 128 0 0 1 51.2 896v-768A128 128 0 0 1 179.2 0H665.6a25.6 25.6 0 0 1 0 51.2H179.2A76.8 76.8 0 0 0 102.4 128v768A76.8 76.8 0 0 0 179.2 972.8h665.6a76.8 76.8 0 0 0 76.8-76.8V307.2zM901.12 35.84a25.6 25.6 0 0 1 40.96 30.72l-460.8 614.4a25.6 25.6 0 0 1-40.96-30.72l460.8-614.4z"
          fill="#2c2c2c" p-id="2972"></path>
</svg>