<svg width="16" height="16" viewBox="0 0 18 21.98" fill="none" xmlns="http://www.w3.org/2000/svg" xmlns:xlink="http://www.w3.org/1999/xlink">
	<desc>
			Created with Pixso.
	</desc>
	<defs/>
	<path id="path" d="M3 0C2.45 0 1.95 0.12 1.5 0.39C1.04 0.65 0.68 1.02 0.41 1.49C0.13 1.95 0 2.45 0 3L0 18.98C0 19.52 0.13 20.02 0.41 20.48C0.68 20.93 1.04 21.3 1.5 21.56C1.95 21.84 2.45 21.98 3 21.98L15 21.98C15.54 21.98 16.04 21.84 16.5 21.56C16.95 21.3 17.31 20.93 17.58 20.48C17.86 20.02 18 19.52 18 18.98L18 3C18 2.45 17.86 1.95 17.58 1.49C17.31 1.02 16.95 0.65 16.5 0.39C16.04 0.12 15.54 0 15 0L3 0ZM16.5 18.98C16.5 19.39 16.36 19.75 16.07 20.04C15.76 20.34 15.41 20.49 15 20.49L3 20.49C2.58 20.49 2.23 20.34 1.94 20.04C1.65 19.75 1.5 19.39 1.5 18.98L1.5 3C1.5 2.58 1.65 2.22 1.94 1.93C2.23 1.63 2.58 1.49 3 1.49L15 1.49C15.41 1.49 15.76 1.63 16.07 1.93C16.36 2.22 16.5 2.58 16.5 3L16.5 18.98ZM4.5 5.25C4.3 5.25 4.12 5.32 3.98 5.47C3.83 5.61 3.76 5.79 3.76 6C3.76 6.2 3.83 6.38 3.98 6.52C4.12 6.66 4.3 6.74 4.5 6.74L13.46 6.74C13.67 6.74 13.84 6.66 13.99 6.52C14.13 6.38 14.21 6.2 14.21 6C14.21 5.79 14.13 5.61 13.99 5.47C13.84 5.32 13.67 5.25 13.46 5.25L4.5 5.25ZM4.5 10.27C4.3 10.27 4.12 10.34 3.98 10.49C3.83 10.62 3.76 10.8 3.76 11C3.76 11.22 3.83 11.39 3.98 11.54C4.12 11.68 4.3 11.75 4.5 11.75L13.46 11.75C13.67 11.75 13.84 11.68 13.99 11.54C14.13 11.39 14.21 11.22 14.21 11C14.21 10.8 14.13 10.62 13.99 10.49C13.84 10.34 13.67 10.27 13.46 10.27L4.5 10.27ZM4.5 15.24C4.3 15.24 4.12 15.31 3.98 15.47C3.83 15.61 3.76 15.79 3.76 16C3.76 16.21 3.83 16.39 3.98 16.52C4.12 16.67 4.3 16.75 4.5 16.75L8.98 16.75C9.18 16.75 9.36 16.67 9.5 16.52C9.64 16.39 9.71 16.21 9.71 16C9.71 15.79 9.65 15.61 9.51 15.47C9.37 15.31 9.2 15.24 9 15.24L4.5 15.24Z" fill="#000000" fill-opacity="0.898039" fill-rule="nonzero"/>
</svg>
