<svg width="24.000000" height="24.000000" viewBox="0 0 24 24" fill="none" xmlns="http://www.w3.org/2000/svg" xmlns:xlink="http://www.w3.org/1999/xlink">
	<desc>
			Created with Pixso.
	</desc>
	<defs>
		<clipPath id="clip5_1001">
			<rect id="svg" width="24.000000" height="24.000000" fill="white" fill-opacity="0"/>
		</clipPath>
	</defs>
	<g clip-path="url(#clip5_1001)">
		<g opacity="0.000000">
			<rect id="rect" width="24.000000" height="24.000000" fill="#000000" fill-opacity="1.000000"/>
		</g>
		<path id="path" d="M12.05 10.08C11.69 10.08 11.4 10.2 11.16 10.45C10.92 10.69 10.8 10.99 10.8 11.35C10.8 11.69 10.92 11.98 11.16 12.23C11.4 12.47 11.69 12.6 12.05 12.6C12.4 12.6 12.7 12.47 12.94 12.23C13.18 11.98 13.3 11.69 13.3 11.35C13.3 10.99 13.18 10.69 12.94 10.45C12.7 10.2 12.4 10.08 12.05 10.08ZM17.87 18.45C17.86 18.29 17.82 18.14 17.74 18C17.66 17.85 17.55 17.73 17.42 17.64L17.14 17.46C16.95 17.39 16.76 17.32 16.56 17.28C16.83 16.73 17.03 16.14 17.16 15.5C17.27 14.65 17.31 13.36 17.28 11.64L17.28 10.73L17.23 10.25L16.87 10.03C16.57 9.85 16.32 9.59 16.12 9.22C15.92 8.87 15.78 8.54 15.72 8.26C14.87 5.76 14.07 4.05 13.32 3.14C13.38 3.06 13.43 2.97 13.46 2.88C13.49 2.78 13.51 2.68 13.51 2.57C13.51 2.23 13.36 1.94 13.08 1.7C12.79 1.46 12.44 1.34 12.02 1.34C11.6 1.34 11.25 1.46 10.97 1.7C10.68 1.94 10.54 2.23 10.54 2.57C10.54 2.68 10.55 2.78 10.58 2.88C10.61 2.97 10.66 3.06 10.73 3.14C9.97 4.05 9.16 5.78 8.29 8.33C8.25 8.58 8.12 8.88 7.91 9.24C7.71 9.59 7.45 9.85 7.14 10.03L6.76 10.32L6.76 10.73L6.73 11.11C6.72 11.77 6.72 12.55 6.73 13.45C6.75 14.35 6.81 15.04 6.88 15.5C6.93 15.79 7 16.08 7.09 16.37C7.19 16.65 7.31 16.95 7.45 17.28C7.07 17.36 6.79 17.48 6.59 17.64C6.47 17.73 6.37 17.85 6.28 17.99C6.2 18.12 6.15 18.28 6.12 18.45C6.1 18.62 6.12 18.76 6.16 18.89C6.21 19.01 6.28 19.12 6.35 19.21C6.35 19.21 6.41 19.27 6.53 19.39C6.5 19.77 6.42 20.51 6.28 21.6C6.26 21.74 6.28 21.88 6.31 22C6.35 22.12 6.42 22.22 6.53 22.32C6.6 22.43 6.71 22.51 6.84 22.57C6.96 22.63 7.09 22.66 7.21 22.66L16.78 22.66C16.9 22.66 17.03 22.63 17.16 22.57C17.28 22.51 17.4 22.44 17.5 22.34C17.58 22.23 17.64 22.11 17.68 21.98C17.71 21.85 17.73 21.72 17.7 21.6C17.59 20.54 17.51 19.82 17.45 19.42L17.57 19.32C17.69 19.22 17.78 19.11 17.84 18.96C17.9 18.83 17.91 18.66 17.87 18.45ZM8.22 11.11C8.56 10.85 8.84 10.55 9.06 10.2C9.29 9.84 9.45 9.52 9.56 9.24C9.66 8.95 9.71 8.78 9.71 8.74C10 7.9 10.28 7.18 10.54 6.58C10.79 5.96 11.03 5.45 11.26 5.04L11.26 8.59C11.26 8.79 11.33 8.97 11.47 9.12C11.61 9.26 11.79 9.34 12 9.34C12.2 9.34 12.38 9.26 12.53 9.12C12.67 8.97 12.74 8.79 12.74 8.59L12.74 5.04C12.95 5.4 13.18 5.88 13.43 6.48C13.67 7.07 13.95 7.81 14.26 8.68C14.36 9.05 14.53 9.48 14.76 9.93C14.98 10.38 15.32 10.78 15.77 11.14C15.77 11.7 15.76 12.45 15.74 13.4C15.72 14.35 15.69 14.97 15.65 15.26C15.6 15.6 15.51 15.92 15.38 16.24C15.25 16.54 15.1 16.83 14.93 17.09C13.52 17.01 12.5 16.96 11.86 16.96C11.08 16.96 10.15 17 9.06 17.06C8.87 16.8 8.71 16.52 8.59 16.2C8.46 15.89 8.38 15.58 8.34 15.26C8.26 14.91 8.22 14.24 8.21 13.26C8.21 12.27 8.21 11.55 8.22 11.11ZM7.84 21.14C7.98 19.78 8.05 19.04 8.03 18.94C8.02 18.88 8 18.84 7.98 18.82C7.97 18.78 7.95 18.74 7.93 18.7C8.97 18.54 10.27 18.45 11.83 18.45C12.45 18.47 13.22 18.5 14.14 18.54C15.04 18.58 15.67 18.62 16.03 18.67C16.01 18.73 16 18.78 16 18.79C15.98 18.82 15.97 18.87 15.96 18.94C15.96 19.19 15.96 19.32 15.96 19.32C16.02 19.92 16.09 20.53 16.15 21.14L7.84 21.14Z" fill="#000000" fill-opacity="0.600000" fill-rule="nonzero"/>
	</g>
</svg>
