<svg width="24.000000" height="24.000000" viewBox="0 0 24 24" fill="none" xmlns="http://www.w3.org/2000/svg" xmlns:xlink="http://www.w3.org/1999/xlink">
	<desc>
			Created with Pixso.
	</desc>
	<defs>
		<clipPath id="clip5_2008">
			<rect id="svg" width="24.000000" height="24.000000" fill="white" fill-opacity="0"/>
		</clipPath>
	</defs>
	<g clip-path="url(#clip5_2008)">
		<g opacity="0.000000">
			<rect id="rect" width="24.000000" height="24.000000" fill="#000000" fill-opacity="0.600000"/>
		</g>
		<path id="path" d="M18.25 8.64C18.18 8.01 17.94 7.45 17.55 6.96C17.16 6.46 16.68 6.1 16.1 5.86C15.52 5.62 14.92 5.54 14.28 5.62C12.23 5.87 10.57 6.64 9.3 7.92L2.08 15.12C1.58 15.64 1.33 16.26 1.33 16.96C1.33 17.32 1.4 17.65 1.53 17.95C1.66 18.27 1.84 18.54 2.08 18.79L5.08 21.79C5.34 22.03 5.62 22.21 5.93 22.34C6.25 22.47 6.57 22.54 6.9 22.54C7.24 22.54 7.57 22.47 7.89 22.34C8.21 22.21 8.5 22.03 8.75 21.79L15.96 14.54C16.56 13.93 17.05 13.24 17.43 12.47C17.81 11.69 18.06 10.87 18.18 10.01C18.27 9.43 18.29 8.97 18.25 8.64ZM7.67 20.71C7.47 20.91 7.21 21.02 6.91 21.02C6.62 21.02 6.36 20.91 6.13 20.71L3.16 17.74C2.92 17.5 2.81 17.23 2.81 16.93C2.82 16.63 2.94 16.39 3.16 16.2L5.99 13.34L10.54 17.87L7.67 20.71ZM16.7 9.79C16.62 10.47 16.42 11.13 16.12 11.77C15.8 12.4 15.4 12.97 14.9 13.49L11.59 16.79L7.07 12.29L10.39 8.95C10.9 8.43 11.49 8.02 12.16 7.72C12.81 7.4 13.6 7.19 14.49 7.08C15.05 7 15.56 7.13 16 7.49C16.45 7.84 16.71 8.29 16.78 8.83C16.8 9.01 16.78 9.33 16.7 9.79Z" fill="#000000" fill-opacity="0.600000" fill-rule="nonzero"/>
		<path id="path" d="M15.55 1.44C15.33 1.44 15.14 1.52 14.99 1.68C14.83 1.84 14.76 2.02 14.78 2.23L14.78 3.72C14.78 3.92 14.86 4.1 15.02 4.26C15.18 4.41 15.36 4.48 15.58 4.48C15.78 4.48 15.96 4.41 16.12 4.26C16.26 4.1 16.34 3.92 16.34 3.72L16.34 2.23C16.34 2.01 16.26 1.82 16.12 1.67C15.96 1.51 15.77 1.44 15.55 1.44ZM20.59 3.53C20.43 3.37 20.24 3.29 20.03 3.3C19.81 3.3 19.62 3.38 19.45 3.53L18.45 4.56C18.29 4.71 18.21 4.9 18.21 5.12C18.21 5.34 18.29 5.53 18.45 5.69C18.62 5.85 18.8 5.93 19.02 5.93C19.23 5.93 19.41 5.85 19.56 5.69L20.64 4.63C20.78 4.48 20.85 4.3 20.83 4.08C20.81 3.85 20.73 3.67 20.59 3.53ZM22.66 8.57C22.66 8.34 22.58 8.15 22.43 8C22.27 7.85 22.09 7.78 21.89 7.78L20.4 7.78C20.19 7.78 20.01 7.85 19.86 8C19.7 8.15 19.63 8.34 19.63 8.57C19.63 8.77 19.7 8.95 19.86 9.1C20.01 9.26 20.19 9.34 20.4 9.34L21.91 9.34C22.11 9.34 22.29 9.26 22.44 9.1C22.58 8.95 22.66 8.77 22.66 8.57Z" fill="#000000" fill-opacity="0.600000" fill-rule="nonzero"/>
	</g>
</svg>
