<svg width="12.339844" height="21.219727" viewBox="0 0 12.3398 21.2197" fill="none" xmlns="http://www.w3.org/2000/svg" xmlns:xlink="http://www.w3.org/1999/xlink">
	<desc>
			Created with Pixso.
	</desc>
	<defs/>
	<path id="path" d="M11.69 15.15C11.69 14 11.55 12.87 11.29 11.73C11.03 10.58 10.65 9.38 10.15 8.13L10.15 6.19C10.15 5.93 10.08 5.7 9.95 5.5C9.81 5.3 9.63 5.16 9.41 5.08L9.41 3.24C9.41 2.66 9.26 2.12 8.96 1.62C8.66 1.13 8.27 0.74 7.78 0.45C7.28 0.15 6.74 0 6.16 0C5.57 0 5.03 0.14 4.54 0.42C4.04 0.72 3.64 1.11 3.34 1.61C3.05 2.1 2.91 2.64 2.91 3.24L2.91 5.08C2.68 5.16 2.5 5.3 2.37 5.5C2.25 5.7 2.19 5.93 2.19 6.19L2.19 8.13C1.65 9.55 1.26 10.79 1.01 11.83C0.77 12.87 0.65 13.97 0.65 15.15L0.62 16.66C0.45 16.78 0.3 16.95 0.19 17.15C0.08 17.34 0.01 17.57 0 17.8L0 20.25C0 20.53 0.09 20.75 0.29 20.94C0.48 21.12 0.7 21.21 0.95 21.21L11.37 21.21C11.65 21.21 11.87 21.12 12.05 20.94C12.24 20.75 12.33 20.53 12.33 20.25L12.33 17.86L12.33 17.74C12.32 17.51 12.25 17.3 12.12 17.12C12 16.94 11.86 16.78 11.69 16.66L11.69 15.15ZM2.16 16.38C2.16 14.68 2.25 13.37 2.42 12.46C2.55 11.82 2.72 11.16 2.94 10.5C3.16 9.83 3.4 9.15 3.66 8.45L3.66 6.48L8.66 6.48L8.66 8.42C8.77 8.68 8.92 9.06 9.12 9.58C9.42 10.44 9.7 11.4 9.94 12.48C10 12.84 10.04 13.18 10.08 13.5C10.11 13.81 10.14 14.11 10.17 14.4C10.19 14.68 10.2 14.99 10.2 15.33C10.2 15.65 10.2 16 10.2 16.38L2.16 16.38ZM1.46 17.91L10.83 17.91L10.83 19.73L1.5 19.73L1.46 17.91Z" fill="#ffffff" fill-opacity="0.898039" fill-rule="nonzero"/>
</svg>
