<svg width="24.000000" height="24.000000" viewBox="0 0 24 24" fill="none" xmlns="http://www.w3.org/2000/svg" xmlns:xlink="http://www.w3.org/1999/xlink">
	<desc>
			Created with Pixso.
	</desc>
	<defs>
		<clipPath id="clip5_2104">
			<rect id="svg" width="24.000000" height="24.000000" fill="white" fill-opacity="0"/>
		</clipPath>
	</defs>
	<g clip-path="url(#clip5_2104)">
		<g opacity="0.000000">
			<rect id="rect" width="24.000000" height="24.000000" fill="#000000" fill-opacity="1.000000"/>
		</g>
		<path id="path" d="M17.52 16.54C17.52 15.4 17.38 14.26 17.12 13.12C16.86 11.97 16.48 10.77 15.98 9.53L15.98 7.58C15.98 7.32 15.91 7.1 15.78 6.9C15.64 6.7 15.46 6.56 15.24 6.48L15.24 4.63C15.24 4.05 15.09 3.52 14.8 3.02C14.5 2.52 14.1 2.13 13.61 1.84C13.11 1.54 12.57 1.39 12 1.39C11.4 1.39 10.86 1.53 10.37 1.82C9.87 2.11 9.47 2.5 9.18 3C8.88 3.49 8.74 4.03 8.74 4.63L8.74 6.48C8.51 6.56 8.33 6.7 8.21 6.9C8.08 7.1 8.02 7.32 8.02 7.58L8.02 9.53C7.48 10.95 7.09 12.18 6.85 13.22C6.6 14.26 6.48 15.36 6.48 16.54L6.46 18.04C6.28 18.17 6.13 18.34 6.02 18.54C5.91 18.74 5.85 18.95 5.83 19.2L5.83 21.65C5.83 21.92 5.92 22.15 6.12 22.33C6.31 22.51 6.53 22.61 6.79 22.61L17.2 22.61C17.48 22.61 17.7 22.51 17.89 22.33C18.07 22.15 18.17 21.92 18.17 21.65L18.17 19.25L18.17 19.12C18.15 18.9 18.08 18.7 17.95 18.52C17.84 18.33 17.69 18.17 17.52 18.04L17.52 16.54ZM12 2.88C12.48 2.88 12.88 3.05 13.22 3.4C13.56 3.74 13.73 4.15 13.73 4.63L13.73 6.38L10.25 6.38L10.25 4.63C10.25 4.15 10.42 3.74 10.76 3.4C11.1 3.05 11.52 2.88 12 2.88ZM7.99 17.78C7.99 16.07 8.08 14.76 8.26 13.85C8.38 13.21 8.55 12.55 8.77 11.89C8.99 11.23 9.23 10.54 9.5 9.84L9.5 7.87L14.5 7.87L14.5 9.82C14.6 10.07 14.75 10.45 14.95 10.97C15.25 11.83 15.53 12.79 15.77 13.87C15.83 14.23 15.87 14.57 15.91 14.89C15.94 15.2 15.97 15.5 16.01 15.79C16.02 16.07 16.03 16.38 16.03 16.71C16.03 17.04 16.03 17.4 16.03 17.78L7.99 17.78ZM7.3 19.29L16.66 19.29L16.66 21.12L7.34 21.12L7.3 19.29Z" fill="#000000" fill-opacity="0.600000" fill-rule="nonzero"/>
	</g>
</svg>
