<svg width="19.299805" height="18.281250" viewBox="0 0 19.2998 18.2812" fill="none" xmlns="http://www.w3.org/2000/svg" xmlns:xlink="http://www.w3.org/1999/xlink">
	<desc>
		Created with Pixso.
	</desc>
	<defs/>
	<path id="path" d="M3.56 18.28C4.15 18.28 4.73 18.16 5.28 17.92C5.83 17.68 6.3 17.34 6.68 16.92C7.16 16.36 7.47 15.7 7.6 14.96C7.73 14.21 7.57 13.53 7.14 12.91C6.85 12.47 6.48 12.14 6.02 11.91C5.57 11.67 5.08 11.57 4.55 11.6C4.02 11.62 3.52 11.8 3.04 12.12C2.75 12.34 2.52 12.58 2.35 12.85C2.18 13.11 2.05 13.43 1.96 13.82C1.75 14.54 1.18 15.26 0.25 16C0.14 16.1 0.06 16.22 0.02 16.38C-0.02 16.52 -0.01 16.67 0.05 16.83C0.1 16.98 0.22 17.11 0.4 17.23C1.58 17.93 2.63 18.28 3.56 18.28ZM2 16.32C2.35 16.06 2.63 15.78 2.84 15.5C3.05 15.21 3.22 14.83 3.35 14.37C3.46 13.89 3.65 13.54 3.91 13.32C4.18 13.09 4.53 13.02 4.96 13.12C5.36 13.22 5.66 13.43 5.87 13.75C6.08 14.07 6.16 14.43 6.11 14.83C6.06 15.23 5.88 15.59 5.56 15.93C5.25 16.27 4.87 16.51 4.42 16.65C3.96 16.79 3.5 16.82 3.04 16.72C2.69 16.66 2.35 16.51 2 16.32ZM8.51 12.5C8.76 12.75 9.07 12.89 9.44 12.93C9.81 12.96 10.16 12.84 10.48 12.57C11.12 12.03 11.94 11.27 12.94 10.29C13.94 9.31 14.88 8.32 15.76 7.32C17.41 5.46 18.49 3.93 19 2.73C19.27 2.07 19.35 1.51 19.26 1.04C19.17 0.56 18.9 0.25 18.47 0.09C18.04 -0.07 17.48 -0.02 16.81 0.24C15.9 0.58 14.92 1.17 13.87 1.99C12.82 2.8 11.94 3.54 11.22 4.2C10.67 4.7 9.92 5.47 8.95 6.5C7.98 7.52 7.26 8.3 6.78 8.83C6.53 9.11 6.4 9.45 6.41 9.84C6.42 10.22 6.56 10.54 6.83 10.82L8.51 12.5ZM7.91 9.84C8.66 9.02 9.45 8.16 10.28 7.28C11.11 6.39 11.76 5.73 12.23 5.3C13.09 4.48 13.92 3.79 14.72 3.21C15.52 2.63 16.23 2.19 16.84 1.87C17.24 1.66 17.51 1.54 17.65 1.52C17.8 1.49 17.85 1.55 17.81 1.7C17.77 1.84 17.64 2.12 17.41 2.54C16.87 3.59 15.94 4.85 14.63 6.33C13.75 7.32 12.83 8.3 11.86 9.27C10.89 10.23 10.12 10.96 9.56 11.44L7.91 9.84Z" fill="#000000" fill-opacity="0.898039" fill-rule="nonzero"/>
</svg>
