<svg width="11.519531" height="21.080078" viewBox="0 0 11.5195 21.0801" fill="none" xmlns="http://www.w3.org/2000/svg" xmlns:xlink="http://www.w3.org/1999/xlink">
	<desc>
			Created with Pixso.
	</desc>
	<defs/>
	<path id="path" d="M11.51 13.05C11.51 12.96 11.48 12.83 11.41 12.67L6.54 0.53C6.46 0.33 6.37 0.2 6.25 0.12C6.15 0.04 5.99 0 5.78 0C5.57 0 5.4 0.04 5.28 0.12C5.15 0.2 5.05 0.32 4.99 0.48L0.12 12.59C0.04 12.79 0 12.94 0 13.05L0 20.12C0 20.38 0.09 20.61 0.29 20.79C0.48 20.98 0.7 21.08 0.95 21.08L10.55 21.08C10.79 21.08 11.01 20.99 11.21 20.8C11.41 20.63 11.51 20.41 11.51 20.13L11.51 13.05ZM9.5 11.92C9.15 11.95 8.82 12.03 8.5 12.16C8.19 12.31 7.87 12.51 7.54 12.76C6.99 12.48 6.4 12.33 5.78 12.33C5.16 12.33 4.55 12.47 3.98 12.75C3.61 12.49 3.28 12.29 2.99 12.16C2.69 12.02 2.36 11.95 2.01 11.92L3.36 8.51L8.13 8.5L9.5 11.92ZM1.49 19.55L1.49 13.44C1.76 13.37 2.03 13.4 2.29 13.51C2.57 13.62 2.87 13.79 3.19 14.01L3.19 19.55L1.49 19.55ZM4.67 14.08C5.01 13.91 5.37 13.83 5.75 13.83C6.14 13.84 6.5 13.92 6.83 14.08L6.83 19.55L4.67 19.55L4.67 14.08ZM8.33 14.01C8.61 13.81 8.9 13.65 9.17 13.54C9.45 13.42 9.73 13.39 10 13.44L10 19.55L8.33 19.55L8.33 14.01Z" fill="#ffffff" fill-opacity="0.898039" fill-rule="nonzero"/>
</svg>
