<svg width="24.000000" height="24.000000" viewBox="0 0 24 24" fill="none" xmlns="http://www.w3.org/2000/svg" xmlns:xlink="http://www.w3.org/1999/xlink">
	<desc>
			Created with Pixso.
	</desc>
	<defs>
		<clipPath id="clip5_2080">
			<rect id="svg" width="24.000000" height="24.000000" fill="white" fill-opacity="0"/>
		</clipPath>
	</defs>
	<g clip-path="url(#clip5_2080)">
		<g opacity="0.000000">
			<rect id="rect" width="24.000000" height="24.000000" fill="#000000" fill-opacity="1.000000"/>
		</g>
		<path id="path" d="M17.76 14.52C17.76 14.42 17.72 14.3 17.66 14.14L12.79 1.98C12.71 1.79 12.61 1.65 12.5 1.57C12.39 1.49 12.23 1.45 12.02 1.45C11.81 1.45 11.64 1.49 11.52 1.57C11.39 1.65 11.29 1.77 11.23 1.93L6.35 14.06C6.28 14.25 6.23 14.4 6.23 14.52L6.23 21.58C6.23 21.84 6.33 22.07 6.53 22.26C6.72 22.44 6.94 22.54 7.19 22.54L16.79 22.54C17.04 22.54 17.26 22.45 17.45 22.27C17.66 22.09 17.76 21.87 17.76 21.6L17.76 14.52ZM10.51 8.46L12 4.24L13.51 8.46L10.51 8.46ZM15.74 13.39C15.39 13.41 15.06 13.49 14.75 13.63C14.43 13.77 14.11 13.97 13.78 14.23C13.23 13.94 12.64 13.8 12.02 13.8C11.4 13.8 10.8 13.93 10.22 14.21C9.85 13.95 9.52 13.75 9.22 13.62C8.92 13.48 8.6 13.41 8.25 13.39L9.59 9.97L14.38 9.95L15.74 13.39ZM7.72 21.02L7.72 14.9C8 14.84 8.27 14.86 8.53 14.98C8.81 15.08 9.1 15.25 9.42 15.48L9.42 21.02L7.72 21.02ZM10.92 15.55C11.25 15.37 11.61 15.29 12 15.3C12.38 15.3 12.74 15.39 13.08 15.55L13.08 21.02L10.92 21.02L10.92 15.55ZM14.57 15.48C14.85 15.27 15.14 15.11 15.42 15C15.7 14.88 15.97 14.85 16.25 14.9L16.25 21.02L14.57 21.02L14.57 15.48Z" fill="#000000" fill-opacity="0.600000" fill-rule="nonzero"/>
	</g>
</svg>
