<svg width="40" height="40.000000" viewBox="0 0 36.6836 30" fill="none" xmlns="http://www.w3.org/2000/svg" xmlns:xlink="http://www.w3.org/1999/xlink">
	<desc>
			Created with Pixso.
	</desc>
	<defs/>
	<path id="path" d="M31.68 30C32.59 30 33.42 29.77 34.18 29.31C34.94 28.86 35.55 28.25 36 27.5C36.45 26.74 36.68 25.91 36.68 25L36.68 5C36.68 4.08 36.45 3.25 36 2.5C35.55 1.74 34.94 1.13 34.18 0.68C33.42 0.22 32.59 0 31.68 0L5 0C4.09 0 3.26 0.22 2.5 0.68C1.74 1.13 1.13 1.74 0.68 2.5C0.22 3.25 0 4.08 0 5L0 25C0 25.91 0.22 26.74 0.68 27.5C1.13 28.25 1.74 28.86 2.5 29.31C3.26 29.77 4.09 30 5 30L31.68 30ZM31.68 2.48C32.38 2.48 32.97 2.72 33.44 3.21C33.92 3.71 34.16 4.31 34.16 5L34.16 25C34.16 25.68 33.92 26.27 33.44 26.76C32.97 27.24 32.38 27.48 31.68 27.48L5 27.48C4.31 27.48 3.72 27.24 3.25 26.76C2.77 26.27 2.53 25.68 2.53 25L2.53 5C2.53 4.31 2.77 3.71 3.25 3.21C3.72 2.72 4.31 2.48 5 2.48L31.68 2.48Z" fill="#000000" fill-opacity="0.898039" fill-rule="nonzero"/>
</svg>
