<svg width="24.000000" height="24.000000" viewBox="0 0 24 24" fill="none" xmlns="http://www.w3.org/2000/svg" xmlns:xlink="http://www.w3.org/1999/xlink">
	<desc>
			Created with Pixso.
	</desc>
	<defs>
		<clipPath id="clip1273_23614">
			<rect id="eraser_line.svg" width="24.000000" height="24.000000" fill="white" fill-opacity="0"/>
		</clipPath>
	</defs>
	<g clip-path="url(#clip1273_23614)">
		<g opacity="0.000000">
			<rect id="rect" width="24.000000" height="24.000000" fill="#000000" fill-opacity="1.000000"/>
		</g>
		<path id="path" d="M16.25 2.08C15.86 1.72 15.4 1.46 14.88 1.33C14.36 1.19 13.85 1.19 13.33 1.32C12.83 1.44 12.38 1.7 12 2.08L2.08 12C1.7 12.38 1.44 12.83 1.31 13.36C1.19 13.87 1.19 14.39 1.31 14.9C1.44 15.41 1.7 15.86 2.08 16.25L7.75 21.88C8.14 22.29 8.6 22.55 9.12 22.67C9.64 22.8 10.16 22.8 10.67 22.66C11.19 22.53 11.63 22.27 12 21.88L21.88 12C22.26 11.61 22.52 11.16 22.66 10.63C22.8 10.12 22.8 9.6 22.66 9.1C22.52 8.58 22.26 8.13 21.88 7.75L16.25 2.08ZM10.93 20.83C10.63 21.13 10.28 21.29 9.87 21.29C9.46 21.29 9.1 21.13 8.8 20.83L3.16 15.16C2.86 14.88 2.7 14.53 2.7 14.11C2.7 13.69 2.86 13.34 3.16 13.06L5.22 10.96L13.02 18.77L10.93 20.83ZM14.08 17.69L6.3 9.91L13.05 3.16C13.35 2.86 13.71 2.7 14.11 2.7C14.53 2.7 14.88 2.86 15.18 3.16L20.83 8.81C21.13 9.11 21.29 9.46 21.29 9.87C21.29 10.28 21.13 10.63 20.83 10.94L14.08 17.69Z" fill="#000000" fill-opacity="0.898039" fill-rule="nonzero"/>
		<path id="path" d="M21.18 22.41C21.39 22.41 21.57 22.34 21.72 22.19C21.88 22.05 21.96 21.87 21.96 21.66C21.96 21.46 21.88 21.28 21.72 21.13C21.57 21 21.39 20.92 21.18 20.92L15.96 20.92C15.75 20.92 15.57 21 15.42 21.13C15.29 21.28 15.21 21.46 15.21 21.66C15.21 21.87 15.29 22.05 15.42 22.19C15.57 22.34 15.75 22.41 15.96 22.41L21.18 22.41Z" fill="#000000" fill-opacity="0.898039" fill-rule="nonzero"/>
	</g>
</svg>
