<svg width="24.000000" height="24.000000" viewBox="0 0 24 24" fill="none" xmlns="http://www.w3.org/2000/svg" xmlns:xlink="http://www.w3.org/1999/xlink">
	<desc>
			Created with Pixso.
	</desc>
	<defs>
		<clipPath id="clip1273_23709">
			<rect id="collect" width="24.000000" height="24.000000" fill="white" fill-opacity="0"/>
		</clipPath>
	</defs>
	<g clip-path="url(#clip1273_23709)">
		<g opacity="0.000000"/>
		<path id="󰁎" d="M19.02 21.26Q18.91 21.38 18.76 21.48Q18.48 21.67 18.07 21.68Q17.71 21.69 17.45 21.55Q17.41 21.52 17.37 21.5L12.65 18.45Q12.41 18.31 12.16 18.27Q12.07 18.26 11.98 18.26Q11.89 18.26 11.8 18.27Q11.55 18.31 11.32 18.45L6.59 21.5Q6.43 21.61 6.25 21.66Q6.09 21.71 5.91 21.7Q5.75 21.7 5.61 21.66Q5.41 21.6 5.23 21.48Q5.12 21.42 5.03 21.34Q4.87 21.18 4.78 20.95Q4.72 20.79 4.71 20.62Q4.7 20.41 4.75 20.2L6.09 14.73Q6.14 14.56 6.13 14.38Q6.12 14.23 6.07 14.08Q6.02 13.94 5.95 13.83Q5.84 13.65 5.68 13.51L1.44 9.91Q1.27 9.79 1.16 9.64Q1.07 9.5 1.01 9.33Q0.96 9.16 0.96 8.99Q0.96 8.8 1.03 8.61Q1.05 8.52 1.09 8.44Q1.21 8.22 1.44 8.05Q1.66 7.88 1.91 7.82Q2.01 7.8 2.1 7.79L7.65 7.36Q7.86 7.35 8.05 7.27Q8.18 7.22 8.3 7.14Q8.49 7 8.61 6.82Q8.67 6.72 8.71 6.62L10.84 1.39Q10.94 1.18 11.1 1.03Q11.2 0.93 11.32 0.85Q11.53 0.71 11.76 0.67Q11.88 0.65 12 0.65Q12.13 0.65 12.26 0.67Q12.47 0.72 12.66 0.85Q12.8 0.94 12.92 1.06Q13.05 1.2 13.15 1.39L15.28 6.62Q15.32 6.72 15.38 6.82Q15.5 7 15.69 7.14Q15.81 7.22 15.94 7.27Q16.13 7.35 16.34 7.36L21.89 7.79Q21.98 7.8 22.08 7.82Q22.33 7.88 22.55 8.05Q22.78 8.22 22.9 8.44Q22.94 8.52 22.96 8.61Q23.02 8.79 23.02 8.98Q23.02 9.16 22.97 9.33Q22.92 9.5 22.83 9.64Q22.72 9.79 22.55 9.91L18.31 13.51Q18.18 13.59 18.09 13.7Q17.97 13.84 17.91 14.04Q17.87 14.15 17.86 14.26Q17.83 14.49 17.9 14.73L19.24 20.2Q19.3 20.44 19.27 20.66Q19.25 20.8 19.2 20.94Q19.13 21.12 19.02 21.26ZM8.76 8.65Q8.3 8.86 7.75 8.88L3 9.26L6.67 12.31Q6.87 12.47 7.04 12.67Q7.35 13.05 7.52 13.55Q7.64 13.93 7.66 14.32Q7.69 14.71 7.6 15.11L6.43 19.79L10.51 17.18Q10.94 16.9 11.4 16.79Q11.7 16.72 12.01 16.72Q12.32 16.72 12.61 16.79Q13.08 16.9 13.51 17.18L17.56 19.79L16.41 15.11Q16.32 14.7 16.35 14.29Q16.37 13.92 16.48 13.55Q16.64 13.06 16.94 12.69Q17.11 12.48 17.32 12.31L21 9.26L16.24 8.88Q15.79 8.86 15.39 8.71Q15.09 8.59 14.83 8.4Q14.66 8.27 14.51 8.13Q14.11 7.74 13.86 7.2L12 2.68L10.13 7.2Q9.92 7.68 9.59 8.04Q9.41 8.24 9.18 8.4Q8.98 8.54 8.76 8.65Z" fill="#000000" fill-opacity="0.898039" fill-rule="evenodd"/>
	</g>
</svg>
