<svg width="40.000000" height="40.000000" viewBox="0 0 40 40" fill="none" xmlns="http://www.w3.org/2000/svg" xmlns:xlink="http://www.w3.org/1999/xlink">
	<desc>
			Created with Pixso.
	</desc>
	<defs>
		<clipPath id="clip1318_25312">
			<rect id="star.svg" width="40.000000" height="40.000000" fill="white" fill-opacity="0"/>
		</clipPath>
	</defs>
	<g clip-path="url(#clip1318_25312)">
		<g opacity="0.000000">
			<rect id="rect" width="40.000000" height="40.000000" fill="#000000" fill-opacity="1.000000"/>
		</g>
		<path id="path" d="M31.28 36C31.62 35.78 31.87 35.48 32.01 35.09C32.16 34.71 32.18 34.3 32.08 33.88L29.83 24.76C29.73 24.36 29.74 23.97 29.86 23.59C29.97 23.22 30.19 22.92 30.51 22.71L37.59 16.71C37.94 16.48 38.17 16.16 38.29 15.76C38.42 15.36 38.41 14.96 38.28 14.56C38.17 14.18 37.94 13.87 37.59 13.61C37.25 13.36 36.88 13.22 36.48 13.2L27.23 12.48C26.83 12.45 26.47 12.32 26.16 12.09C25.84 11.87 25.61 11.58 25.48 11.23L21.91 2.51C21.72 2.14 21.46 1.84 21.11 1.61C20.77 1.39 20.4 1.28 20 1.28C19.59 1.28 19.22 1.39 18.88 1.61C18.53 1.84 18.27 2.14 18.08 2.51L14.51 11.23C14.38 11.58 14.15 11.87 13.83 12.09C13.52 12.32 13.16 12.45 12.76 12.48L3.51 13.2C3.11 13.22 2.74 13.36 2.4 13.61C2.05 13.87 1.82 14.18 1.71 14.56C1.58 14.96 1.57 15.36 1.7 15.76C1.82 16.16 2.05 16.48 2.4 16.71L9.48 22.71C9.77 22.98 9.98 23.29 10.11 23.66C10.25 24.02 10.26 24.38 10.16 24.76L7.91 33.88C7.81 34.3 7.83 34.71 7.98 35.11C8.12 35.51 8.37 35.81 8.71 36C9.06 36.24 9.44 36.37 9.86 36.38C10.27 36.39 10.65 36.27 11 36.03L18.88 30.96C19.22 30.74 19.59 30.63 19.98 30.63C20.37 30.63 20.73 30.74 21.08 30.96L28.96 36.03C29.27 36.25 29.66 36.35 30.11 36.33C30.57 36.32 30.96 36.21 31.28 36ZM12.91 15C13.82 14.97 14.62 14.71 15.31 14.2C16.01 13.68 16.53 13.02 16.88 12.2L20 4.68L23.11 12.2C23.49 13.02 24.02 13.68 24.71 14.2C25.41 14.71 26.2 14.97 27.08 15L35 15.63L28.88 20.71C28.21 21.25 27.75 21.94 27.48 22.79C27.21 23.65 27.17 24.52 27.36 25.39L29.28 33.2L22.51 28.83C21.75 28.33 20.91 28.08 20.01 28.08C19.12 28.08 18.29 28.33 17.51 28.83L10.71 33.2L12.68 25.39C12.87 24.52 12.82 23.65 12.53 22.79C12.25 21.94 11.78 21.25 11.11 20.71L5 15.63L12.91 15Z" fill="#000000" fill-opacity="0.898039" fill-rule="nonzero"/>
	</g>
</svg>
