<svg width="11.786133" height="21.389648" viewBox="0 0 11.7861 21.3896" fill="none" xmlns="http://www.w3.org/2000/svg" xmlns:xlink="http://www.w3.org/1999/xlink">
	<desc>
			Created with Pixso.
	</desc>
	<defs/>
	<path id="path" d="M5.88 8.8C5.53 8.8 5.23 8.93 4.99 9.17C4.75 9.42 4.63 9.72 4.63 10.08C4.63 10.41 4.75 10.71 4.99 10.96C5.23 11.2 5.53 11.33 5.88 11.33C6.24 11.33 6.53 11.2 6.77 10.96C7.01 10.71 7.13 10.41 7.13 10.08C7.13 9.72 7.01 9.42 6.77 9.17C6.53 8.93 6.24 8.8 5.88 8.8ZM11.76 17.19C11.74 17.03 11.69 16.87 11.61 16.73C11.53 16.58 11.43 16.46 11.3 16.37L11.01 16.2C10.84 16.12 10.65 16.05 10.44 16C10.72 15.46 10.92 14.87 11.04 14.23C11.16 13.38 11.2 12.09 11.16 10.37L11.16 9.45L11.11 8.98L10.75 8.75C10.45 8.58 10.19 8.32 9.99 7.95C9.79 7.59 9.66 7.27 9.6 6.99C8.76 4.49 7.96 2.78 7.2 1.87C7.26 1.79 7.31 1.7 7.34 1.61C7.38 1.51 7.39 1.41 7.39 1.29C7.39 0.95 7.25 0.66 6.95 0.4C6.65 0.13 6.3 0 5.9 0C5.47 0 5.11 0.12 4.83 0.38C4.55 0.64 4.41 0.94 4.41 1.29C4.41 1.41 4.43 1.51 4.46 1.61C4.5 1.7 4.55 1.79 4.61 1.87C3.86 2.78 3.05 4.51 2.18 7.05C2.14 7.31 2.01 7.61 1.8 7.96C1.6 8.32 1.34 8.58 1.03 8.75L0.65 9.04L0.65 9.45L0.65 9.76C0.63 10.47 0.63 11.28 0.63 12.17C0.65 13.08 0.69 13.76 0.77 14.23C0.82 14.52 0.89 14.81 0.98 15.09C1.08 15.38 1.2 15.69 1.34 16C0.96 16.08 0.68 16.2 0.48 16.37C0.36 16.46 0.25 16.58 0.17 16.71C0.09 16.85 0.04 17 0 17.19C-0.02 17.34 0 17.49 0.05 17.62C0.1 17.74 0.16 17.85 0.24 17.95C0.24 17.95 0.3 18 0.41 18.12C0.39 18.5 0.31 19.24 0.17 20.33C0.15 20.47 0.16 20.61 0.2 20.73C0.24 20.84 0.31 20.95 0.41 21.04C0.49 21.16 0.6 21.24 0.72 21.29C0.85 21.36 0.98 21.38 1.1 21.38L10.65 21.38C10.79 21.38 10.92 21.36 11.04 21.29C11.17 21.24 11.28 21.16 11.37 21.07C11.45 20.96 11.51 20.84 11.55 20.71C11.59 20.58 11.61 20.45 11.59 20.33C11.48 19.27 11.39 18.54 11.33 18.15L11.45 18.04C11.58 17.95 11.67 17.83 11.72 17.7C11.78 17.56 11.8 17.39 11.76 17.19ZM2.06 9.83C2.4 9.58 2.68 9.28 2.9 8.92C3.13 8.57 3.29 8.25 3.39 7.96C3.5 7.68 3.55 7.51 3.55 7.46C3.84 6.63 4.11 5.91 4.37 5.3C4.63 4.69 4.87 4.18 5.09 3.76L5.09 7.32C5.09 7.52 5.16 7.7 5.3 7.84C5.45 7.99 5.63 8.07 5.83 8.07C6.04 8.07 6.22 7.99 6.36 7.84C6.5 7.7 6.57 7.52 6.57 7.32L6.57 3.76C6.79 4.13 7.02 4.61 7.26 5.2C7.51 5.8 7.79 6.54 8.09 7.41C8.2 7.78 8.37 8.21 8.59 8.66C8.82 9.11 9.16 9.51 9.6 9.87C9.6 10.42 9.59 11.18 9.57 12.12C9.56 13.08 9.53 13.7 9.48 13.99C9.44 14.33 9.35 14.65 9.21 14.96C9.09 15.27 8.94 15.55 8.76 15.82C7.36 15.74 6.33 15.7 5.69 15.7C4.92 15.7 3.99 15.73 2.9 15.79C2.71 15.53 2.55 15.25 2.42 14.94C2.3 14.62 2.22 14.3 2.18 13.99C2.1 13.64 2.06 12.97 2.05 11.99C2.05 11 2.05 10.28 2.06 9.83ZM1.68 19.87C1.82 18.5 1.89 17.77 1.87 17.66C1.86 17.61 1.84 17.57 1.82 17.54C1.81 17.51 1.79 17.47 1.77 17.42C2.81 17.26 4.11 17.19 5.66 17.19C6.29 17.2 7.06 17.23 7.97 17.26C8.88 17.3 9.51 17.35 9.86 17.4C9.85 17.46 9.84 17.5 9.83 17.53C9.82 17.55 9.81 17.6 9.79 17.66C9.76 17.75 9.76 17.94 9.79 18.24C9.83 18.54 9.89 19.08 9.98 19.87L1.68 19.87Z" fill="#ffffff" fill-opacity="0.898039" fill-rule="nonzero"/>
</svg>
