<?xml version="1.0" encoding="UTF-8"?>
<svg width="16px" height="10px" viewBox="0 0 16 10" version="1.1" xmlns="http://www.w3.org/2000/svg" xmlns:xlink="http://www.w3.org/1999/xlink">
    <title>编组备份</title>
    <g id="页面-1" stroke="none" stroke-width="1" fill="none" fill-rule="evenodd">
        <g id="首页" transform="translate(-177, -413)" fill="#0A59F7">
            <g id="编组备份" transform="translate(176.9995, 412.9997)">
                <path d="M12.582,0 C13.1025585,0 13.4778241,0.0237682437 13.7716594,0.0699620183 C14.148969,0.12927876 14.3920104,0.225572394 14.636,0.356 C15.071,0.589 15.412,0.93 15.644,1.365 C15.877,1.799 16,2.23 16,3.419 L16,6.582 C16,7.771 15.877,8.202 15.644,8.636 C15.412,9.071 15.071,9.412 14.636,9.644 C14.202,9.877 13.771,10 12.582,10 L3.419,10 C2.23,10 1.799,9.877 1.365,9.644 C0.93,9.412 0.589,9.071 0.357,8.636 C0.124,8.202 0,7.771 0,6.582 L0,3.419 C0,2.23 0.124,1.799 0.357,1.365 C0.589,0.93 0.93,0.589 1.365,0.356 C1.799,0.124 2.23,0 3.419,0 L12.582,0 Z M3.419,1 C2.486,1 2.165,1.062 1.836,1.238 C1.576,1.378 1.378,1.576 1.238,1.836 C1.084,2.124 1.018,2.406 1.003,3.097 L1,3.419 L1,6.582 C1,7.515 1.062,7.835 1.238,8.165 C1.378,8.425 1.576,8.623 1.836,8.762 C2.124,8.916 2.406,8.983 3.097,8.997 L3.419,9 L12.582,9 L12.904,8.997 C13.595,8.983 13.877,8.916 14.165,8.762 C14.425,8.623 14.623,8.425 14.762,8.165 C14.917,7.876 14.983,7.595 14.997,6.904 L15,6.582 L15,3.419 L14.997,3.097 C14.983,2.406 14.917,2.124 14.762,1.836 C14.623,1.576 14.425,1.378 14.165,1.238 C13.856,1.073 13.555,1.009 12.75,1.001 L3.419,1 Z M4.6825,2.0363 L5.3685,2.0863 L5.3185,3.0563 L7.6425,3.1063 L7.5925,3.7623 L6.353,3.712 L5.842,3.712 L5.94589003,3.92779579 C6.3478487,4.7069457 6.97711157,5.41354062 7.8417553,6.10126807 L7.34352582,6.64788595 C7.11690725,6.44907334 6.90583717,6.24467714 6.71148453,6.03447024 L6.5845,5.8913 L6.5365,6.5163 L5.3685,6.4663 L5.3185,7.6803 L4.6325,7.6303 L4.6825,6.5163 L3.4625,6.4663 L3.5105,5.8213 L3.39608862,5.94835646 C3.19743159,6.15633728 2.98095143,6.35205472 2.74565575,6.53544423 L2.622,6.626 L2.5465,6.6883 L2.544,6.684 L2.50405149,6.71472203 L2.15251712,6.05886381 C2.95117111,5.51951305 3.5632968,4.84704057 4.02295334,4.08841289 C4.08941422,3.96613865 4.15107733,3.84070348 4.2085,3.7123 L4.184,3.761 L2.3525,3.7123 L2.3525,3.1063 L2.4025,3.0563 L4.6325,3.1063 L4.6825,2.0363 Z M11.7385,2.0243 L12.3885,2.0743 L12.338,3.159 L12.338,3.479 L13.5958433,3.09449645 L13.6605,3.1423 C13.6605,4.40737187 13.625396,5.19644814 13.5568117,5.48318313 C13.4773455,5.78118157 13.1782586,5.9283 12.6745,5.9283 L12.6025317,5.89240832 L12.504,5.38 L12.4705,5.2663 C12.4746311,5.26649672 12.4787494,5.26669344 12.4828545,5.26688995 L12.4728783,5.21635659 C12.6922821,5.22680439 12.7296722,5.2283 12.8065,5.2283 C12.8741867,5.2283 12.9113293,5.18920248 12.9308425,5.09245794 C12.9424512,4.99378401 12.9529697,4.6419794 13.008231,4.1510211 L13.009,4.015 L12.3885,4.1623 L12.3385,6.3843 L11.6885,6.3343 L11.738,4.801 L11.738,4.393 L11.1105,4.5463 L11.1105,6.6883 C11.1105,6.82334362 11.1792145,6.8843 11.3425,6.8843 L12.9325,6.8843 C13.0033013,6.8843 13.0521369,6.85322281 13.0870878,6.78349305 C13.1271016,6.71346902 13.1599659,6.48497054 13.2295175,6.08715458 L13.2325,6.0343 C13.2411012,6.02126312 13.2441533,6.00404188 13.2472735,5.98653239 L13.8643582,6.21806288 C13.815214,6.86922319 13.7297237,7.25240305 13.5978553,7.37765534 C13.472071,7.50343965 13.2899372,7.5663 13.0525,7.5663 L11.1505,7.5663 C10.6548858,7.5663 10.3985,7.30991424 10.3985,6.8143 L10.448,5.213 L10.448,4.782 L10.113,4.831 L10.0645,4.8463 L10.064,4.839 L10.0145,4.8463 L10.0455,4.2593 L9.5445,4.2103 L9.494,5.446 L9.494,5.884 L9.55127483,5.86211527 C9.69884149,5.80285512 9.8404631,5.73991149 10.109712,5.61682628 L10.1805,5.6623 L10.1518834,6.33149678 C9.58856122,6.59801481 8.99163539,6.82054636 8.29401964,6.96453336 L8.17045279,6.26131986 C8.43091624,6.20789147 8.65431407,6.15456424 8.8265,6.1423 L8.8765,4.2603 L8.2085,4.2103 L8.2585,3.5483 L8.8265,3.5983 L8.8765,2.0483 L9.5445,2.0983 L9.4945,3.5483 L10.1025,3.5983 L10.0585,4.1843 L10.3985,4.1143 L10.4485,2.6363 L11.1105,2.6863 L11.06,3.598 L11.06,3.876 L11.6885,3.7183 L11.7385,2.0243 Z M4.682,3.87 L4.72957118,3.74716132 C4.4611724,4.49644125 4.08720189,5.15989233 3.58884136,5.73629025 L3.5215,5.8093 L4.6325,5.8603 L4.682,4.771 L4.682,3.87 Z M5.365,3.848 L5.3185,5.8103 L6.5545,5.8583 L6.52274766,5.82231804 C6.12693816,5.35942654 5.81108943,4.86902123 5.58701402,4.34880709 C5.48651576,4.14664394 5.39686823,3.94046935 5.3185,3.7303 L5.365,3.848 Z" id="形状结合"></path>
            </g>
        </g>
    </g>
</svg>