<?xml version="1.0" standalone="no"?><!DOCTYPE svg PUBLIC "-//W3C//DTD SVG 1.1//EN" "http://www.w3.org/Graphics/SVG/1.1/DTD/svg11.dtd"><svg class="icon" width="200px" height="200.00px" viewBox="0 0 1024 1024" version="1.1" xmlns="http://www.w3.org/2000/svg"><path d="M124.343 273.847q87.771 0 87.771 87.771v509.148q0 87.771-87.771 87.771-87.772 0-87.772-87.771V361.618q0-87.771 87.772-87.771zM490.057 0q87.772 0 87.772 87.771V870.84q0 87.771-87.772 87.771-87.771 0-87.771-87.771V87.77Q402.286 0 490.057 0z m365.714 410.843q87.772 0 87.772 87.772v372.224q0 87.771-87.772 87.771-87.771 0-87.771-87.77V498.615q0-87.772 87.771-87.772z" fill="#2C2C2C" /></svg>