<svg viewBox="0 0 6.87075 14.1807" xmlns="http://www.w3.org/2000/svg" xmlns:xlink="http://www.w3.org/1999/xlink" width="6.870749" height="14.180664" fill="none" customFrame="#000000">
  <metadata>
    <agcit_code>agcit_huawei_book_read</agcit_code>
  </metadata>
	<path id="path" d="M0.210435 13.9304C0.383768 14.1037 0.570435 14.1871 0.770435 14.1804C0.970435 14.1737 1.14377 14.0904 1.29044 13.9304L6.57044 7.8604C6.7771 7.63373 6.8771 7.37707 6.87044 7.0904C6.86377 6.80373 6.76377 6.54707 6.57044 6.3204L1.29044 0.2304C1.16377 0.0704002 0.990435 -0.00626644 0.770435 0.000400066C0.557102 0.00706689 0.377102 0.0837336 0.230435 0.2304C0.0904349 0.3704 0.0204349 0.5404 0.0204349 0.7404C0.0204349 0.9404 0.0904349 1.1204 0.230435 1.2804L5.25043 7.0904L0.210435 12.8704C0.0837682 13.0304 0.0137682 13.2104 0.000434875 13.4104C-0.00623178 13.6104 0.0637682 13.7837 0.210435 13.9304Z" fill="rgb(255,255,255)" fill-opacity="0.200000003" fill-rule="nonzero" />
</svg>
