<svg viewBox="0 0 16 16" xmlns="http://www.w3.org/2000/svg" xmlns:xlink="http://www.w3.org/1999/xlink" width="16.000000" height="16.000000" fill="none">
  <metadata>
    <agcit_code>agcit_huawei_book_read</agcit_code>
  </metadata>
	<rect id="lock_open" width="16.000000" height="16.000000" x="0.000000" y="0.000000" />
	<rect id="矩形 3462" width="16.000000" height="16.000000" x="0.000000" y="0.000000" opacity="0" fill="rgb(0,0,0)" />
	<g id="组合 1802">
		<path id="矢量 239" d="M7.16998 6.03004L7.16998 4.03004C7.16998 3.49004 7.03665 2.99004 6.76998 2.53004C6.50332 2.07004 6.13998 1.70671 5.67998 1.44004C5.21998 1.17337 4.71998 1.04004 4.17998 1.04004C3.63332 1.04004 3.12998 1.17337 2.66998 1.44004C2.20998 1.70671 1.84665 2.07004 1.57998 2.53004C1.30665 2.99004 1.16998 3.49004 1.16998 4.03004L1.16998 5.41004C1.16998 5.55004 1.21998 5.66671 1.31998 5.76004C1.41998 5.85337 1.53998 5.90004 1.67998 5.90004C1.80665 5.90004 1.91998 5.85337 2.01998 5.76004C2.12665 5.66671 2.17998 5.55004 2.17998 5.41004L2.17998 4.03004C2.17998 3.67004 2.26998 3.33671 2.44998 3.03004C2.62998 2.73004 2.87332 2.48671 3.17998 2.30004C3.47998 2.12004 3.81332 2.03004 4.17998 2.03004C4.53998 2.03004 4.87332 2.12004 5.17998 2.30004C5.47998 2.48671 5.71998 2.73004 5.89998 3.03004C6.08665 3.33671 6.17998 3.67004 6.17998 4.03004L6.17998 6.03004L5.33998 6.03004C4.99998 6.03004 4.68998 6.11337 4.40998 6.28004C4.12332 6.44671 3.89998 6.67004 3.73998 6.95004C3.57332 7.23671 3.48998 7.54337 3.48998 7.87004L3.48998 13.1C3.48998 13.4334 3.57332 13.7434 3.73998 14.03C3.89998 14.3167 4.12665 14.5434 4.41998 14.71C4.70665 14.8767 5.01332 14.96 5.33998 14.96L12.96 14.96C13.3 14.96 13.6133 14.8767 13.9 14.71C14.1933 14.5434 14.42 14.32 14.58 14.04C14.7466 13.76 14.83 13.4467 14.83 13.1L14.83 7.87004C14.83 7.54337 14.7466 7.23671 14.58 6.95004C14.42 6.67004 14.1933 6.44671 13.9 6.28004C13.6133 6.11337 13.3 6.03004 12.96 6.03004L7.16998 6.03004ZM13.82 13.1C13.82 13.34 13.7366 13.5434 13.57 13.71C13.3966 13.8834 13.1933 13.97 12.96 13.97L5.33998 13.97C5.10665 13.97 4.90665 13.8834 4.73998 13.71C4.56665 13.5434 4.47998 13.34 4.47998 13.1L4.47998 7.87004C4.47998 7.63671 4.56665 7.43671 4.73998 7.27004C4.90665 7.10337 5.10665 7.02004 5.33998 7.02004L12.98 7.02004C13.2133 7.02004 13.4133 7.10337 13.58 7.27004C13.7533 7.43671 13.84 7.63671 13.84 7.87004L13.82 13.1ZM9.16998 9.26004C8.82998 9.26004 8.53998 9.38004 8.29998 9.62004C8.05998 9.86004 7.93998 10.1534 7.93998 10.5C7.93998 10.84 8.05998 11.13 8.29998 11.37C8.53998 11.61 8.82998 11.73 9.16998 11.73C9.49665 11.73 9.77998 11.61 10.02 11.37C10.26 11.13 10.38 10.84 10.38 10.5C10.38 10.1534 10.26 9.86004 10.02 9.62004C9.77998 9.38004 9.49665 9.26004 9.16998 9.26004Z" fill="rgb(255,255,255)" fill-opacity="0.898039222" fill-rule="nonzero" />
	</g>
</svg>
