<svg viewBox="0 0 32 32" xmlns="http://www.w3.org/2000/svg" xmlns:xlink="http://www.w3.org/1999/xlink" width="32.000000" height="32.000000" fill="none">
  <metadata>
    <agcit_code>agcit_huawei_book_read</agcit_code>
  </metadata>
	<rect id="ic_public_plus" width="32.000000" height="32.000000" x="0.000000" y="0.000000" />
	<path id="path" d="M16.48 16L16.48 7.74C16.48 7.53333 16.41 7.35667 16.27 7.21C16.1233 7.07 15.9467 7 15.74 7C15.5333 7 15.3567 7.07 15.21 7.21C15.07 7.35667 15 7.53333 15 7.74L15 16L6.74 16C6.53333 16 6.35667 16.07 6.21 16.21C6.07 16.3567 6 16.5333 6 16.74C6 16.9467 6.07 17.1233 6.21 17.27C6.35667 17.41 6.53333 17.48 6.74 17.48L15 17.48L15 25.74C15 25.9467 15.07 26.1233 15.21 26.27C15.3567 26.41 15.5333 26.48 15.74 26.48C15.9467 26.48 16.1233 26.41 16.27 26.27C16.41 26.1233 16.48 25.9467 16.48 25.74L16.48 17.48L24.74 17.48C24.9467 17.48 25.1233 17.41 25.27 17.27C25.41 17.1233 25.48 16.9467 25.48 16.74C25.48 16.5333 25.41 16.3567 25.27 16.21C25.1233 16.07 24.9467 16 24.74 16L16.48 16Z" fill="rgb(255,255,255)" fill-opacity="0.600000024" fill-rule="nonzero" />
</svg>
