<svg viewBox="0 0 24 24" xmlns="http://www.w3.org/2000/svg" xmlns:xlink="http://www.w3.org/1999/xlink" width="24.000000" height="24.000000" opacity="0.400000006" fill="none">
  <metadata>
    <agcit_code>agcit_huawei_book_read</agcit_code>
  </metadata>
	<rect id="ic_public_trash" width="24.000000" height="24.000000" x="0.000000" y="0.000000" />
	<path id="矢量 216" d="M1 4.26501L6.41968 4.26501L7.2525 2.03735C7.31128 1.88098 7.38278 1.73218 7.46704 1.59094C7.52658 1.49121 7.59247 1.39514 7.66473 1.30298C7.75031 1.19385 7.84299 1.09229 7.94278 0.998169C8.04242 0.904297 8.14911 0.817993 8.26291 0.739136Q8.43576 0.619385 8.62253 0.528198C8.74411 0.468872 8.87012 0.418701 9.00055 0.377441C9.26993 0.29248 9.54639 0.25 9.82999 0.25L14.055 0.25C14.3387 0.25 14.6151 0.29248 14.8845 0.377563C15.1487 0.460938 15.3945 0.581543 15.622 0.739502C15.8499 0.897705 16.0491 1.08606 16.2194 1.30469C16.3936 1.52808 16.5299 1.77319 16.6285 2.04004L17.4603 4.26501L23 4.26501C23.42 4.26501 23.75 4.59497 23.75 5.01501C23.75 5.43506 23.42 5.76501 23 5.76501L16.94 5.76501C16.7666 5.76501 16.6213 5.72437 16.5042 5.64319C16.3871 5.56189 16.2982 5.44006 16.2375 5.27759L15.2215 2.55994C15.1751 2.43433 15.1125 2.32153 15.0337 2.22144C14.9592 2.12683 14.8702 2.04358 14.7667 1.9718C14.5537 1.82397 14.3165 1.75 14.055 1.75L9.82999 1.75C9.56851 1.75 9.33087 1.8241 9.1171 1.97217C9.01324 2.04407 8.92374 2.12744 8.84857 2.22217C8.76868 2.32275 8.70499 2.43628 8.6575 2.56262L7.64252 5.27759C7.58179 5.44006 7.49286 5.56189 7.37579 5.64319C7.2587 5.72437 7.11343 5.76501 6.94 5.76501L1 5.76501C0.579987 5.76501 0.25 5.43506 0.25 5.01501C0.25 4.59497 0.579987 4.26501 1 4.26501ZM20.4773 20.3131L21.576 7.25L20.0707 7.25L18.9826 20.1874C18.9586 20.4745 18.883 20.7462 18.7558 21.0018Q18.6701 21.1741 18.5582 21.3271L18.5582 21.3272Q18.4285 21.5046 18.2635 21.6562C18.0587 21.8446 17.8276 21.9899 17.5702 22.0922C17.4548 22.1379 17.3373 22.1738 17.2177 22.1997Q16.9843 22.2502 16.74 22.2502L7.25497 22.2502Q7.01062 22.2502 6.77725 22.1997C6.65759 22.1738 6.5401 22.1379 6.42474 22.0922C6.16733 21.9899 5.93622 21.8446 5.73138 21.6562Q5.56646 21.5046 5.43675 21.3272L5.43669 21.3271Q5.32479 21.1741 5.23911 21.0018Q5.15634 20.8354 5.10269 20.6602C5.05606 20.5077 5.02594 20.3502 5.01236 20.1877L3.9285 7.25L2.42325 7.25L3.51758 20.3126C3.53915 20.5706 3.58582 20.821 3.65759 21.0641C3.71884 21.2715 3.79834 21.4734 3.89615 21.6699C4.10184 22.0834 4.37512 22.4469 4.71603 22.7604C4.89371 22.9237 5.08334 23.0677 5.285 23.1923C5.47025 23.3066 5.66562 23.4047 5.87112 23.4862C6.07532 23.5674 6.28339 23.6298 6.4953 23.6735C6.74326 23.7246 6.99646 23.7502 7.25497 23.7502L16.74 23.7502C16.9984 23.7502 17.2517 23.7246 17.4996 23.6735C17.7115 23.6298 17.9196 23.5674 18.1238 23.4862C18.3293 23.4045 18.5247 23.3066 18.71 23.1921C18.9116 23.0676 19.1013 22.9237 19.2789 22.7604C19.6198 22.4469 19.8931 22.0834 20.0988 21.6699C20.3112 21.2432 20.4373 20.7908 20.4773 20.3131ZM10.25 10.75L10.25 19.55C10.25 19.97 9.92001 20.3 9.5 20.3C9.07999 20.3 8.75 19.97 8.75 19.55L8.75 10.75C8.75 10.33 9.07999 10 9.5 10C9.92001 10 10.25 10.33 10.25 10.75ZM15.25 10.75C15.25 10.33 14.92 10 14.5 10C14.08 10 13.75 10.33 13.75 10.75L13.75 19.55C13.75 19.97 14.08 20.3 14.5 20.3C14.92 20.3 15.25 19.97 15.25 19.55L15.25 10.75Z" fill="rgb(217,72,56)" fill-rule="evenodd" />
</svg>
