<svg viewBox="0 0 16 16" xmlns="http://www.w3.org/2000/svg" xmlns:xlink="http://www.w3.org/1999/xlink" width="16.000000" height="16.000000" fill="none">
  <metadata>
    <agcit_code>agcit_huawei_book_read</agcit_code>
  </metadata>
	<rect id="lock" width="16.000000" height="16.000000" x="0.000000" y="0.000000" />
	<rect id="矩形 3461" width="16.000000" height="16.000000" x="0.000000" y="0.000000" opacity="0" fill="rgb(0,0,0)" />
	<g id="组合 1801">
		<path id="矢量 238" d="M11.01 6.03004L11.01 4.03004C11.01 3.49004 10.8733 2.99004 10.6 2.53004C10.3266 2.07004 9.95996 1.70671 9.49997 1.44004C9.04663 1.17337 8.54663 1.04004 7.99997 1.04004C7.4533 1.04004 6.9533 1.17337 6.49997 1.44004C6.03997 1.70671 5.67663 2.07004 5.40997 2.53004C5.1433 2.99004 5.00997 3.49004 5.00997 4.03004L5.00997 6.03004L4.18997 6.03004C3.84997 6.03004 3.53997 6.11337 3.25997 6.28004C2.9733 6.44671 2.74663 6.67004 2.57997 6.95004C2.41997 7.23671 2.33997 7.54337 2.33997 7.87004L2.33997 13.1C2.33997 13.4467 2.41997 13.76 2.57997 14.04C2.74663 14.32 2.9733 14.5434 3.25997 14.71C3.53997 14.8767 3.84997 14.96 4.18997 14.96L11.81 14.96C12.1366 14.96 12.4466 14.8767 12.74 14.71C13.0266 14.5434 13.2533 14.3167 13.42 14.03C13.58 13.7434 13.66 13.4334 13.66 13.1L13.66 7.87004C13.66 7.54337 13.58 7.23671 13.42 6.95004C13.2533 6.67004 13.0266 6.44671 12.74 6.28004C12.46 6.11337 12.15 6.03004 11.81 6.03004L11.01 6.03004ZM5.99997 4.03004C5.99997 3.67004 6.08997 3.33671 6.26997 3.03004C6.44997 2.73004 6.6933 2.48671 6.99997 2.30004C7.30663 2.12004 7.63997 2.03004 7.99997 2.03004C8.35997 2.03004 8.6933 2.12004 8.99997 2.30004C9.30663 2.48671 9.54996 2.73004 9.72997 3.03004C9.90997 3.33671 9.99997 3.67004 9.99997 4.03004L9.99997 6.03004L5.99997 6.03004L5.99997 4.03004ZM12.67 13.1C12.67 13.34 12.5866 13.5434 12.42 13.71C12.2466 13.8834 12.0433 13.97 11.81 13.97L4.18997 13.97C3.95663 13.97 3.7533 13.8834 3.57997 13.71C3.4133 13.5434 3.32997 13.34 3.32997 13.1L3.32997 7.87004C3.32997 7.63671 3.4133 7.43671 3.57997 7.27004C3.7533 7.10337 3.95663 7.02004 4.18997 7.02004L5.00997 7.02004L11.01 7.02004L11.81 7.02004C12.0433 7.02004 12.2466 7.10337 12.42 7.27004C12.5866 7.43671 12.67 7.63671 12.67 7.87004L12.67 13.1ZM7.99997 9.26004C7.66663 9.26004 7.37997 9.38004 7.13997 9.62004C6.8933 9.86004 6.76997 10.1534 6.76997 10.5C6.76997 10.8267 6.8933 11.1134 7.13997 11.36C7.37997 11.6067 7.66663 11.73 7.99997 11.73C8.33997 11.73 8.62997 11.6067 8.86997 11.36C9.10997 11.1134 9.22997 10.8267 9.22997 10.5C9.22997 10.1534 9.10997 9.86004 8.86997 9.62004C8.62997 9.38004 8.33997 9.26004 7.99997 9.26004Z" fill="rgb(255,255,255)" fill-opacity="0.898039222" fill-rule="nonzero" />
	</g>
</svg>
