<svg viewBox="0 0 40 40" xmlns="http://www.w3.org/2000/svg" xmlns:xlink="http://www.w3.org/1999/xlink" width="40.000000" height="40.000000" fill="none" customFrame="url(#clipPath_1)">
  <metadata>
    <agcit_code>agcit_huawei_book_read</agcit_code>
  </metadata>
	<defs>
		<clipPath id="clipPath_1">
			<rect width="40.000000" height="40.000000" x="0.000000" y="0.000000" rx="20.000000" fill="rgb(255,255,255)" />
		</clipPath>
	</defs>
	<rect id="icon_Select All_off" width="40.000000" height="40.000000" x="0.000000" y="0.000000" rx="20.000000" />
	<circle id="椭圆 54" cx="20" cy="20" r="20" fill="rgb(255,255,255)" fill-opacity="0.100000001" />
	<g id="组合 1714">
		<rect id="ic_public_select_all-全选/base/ic_public_select_all" width="24.000000" height="24.000000" x="8.000000" y="8.000000" fill="rgb(255,255,255)" fill-opacity="0" />
		<path id="矢量 221" d="M30.95 21.7998L30.95 15.7998C30.95 14.8845 30.7728 14.0081 30.4187 13.1709C30.0768 12.3628 29.5945 11.6472 28.9717 11.0242C28.6407 10.6931 28.2838 10.4016 27.9006 10.1499C27.5629 9.92798 27.2047 9.73682 26.8264 9.57642C26.4425 9.41382 26.0504 9.28857 25.6501 9.20044C25.1781 9.09668 24.6947 9.04492 24.2 9.04492L18.2 9.04492C17.6986 9.04492 17.2091 9.09814 16.7313 9.20435Q16.1393 9.33582 15.5715 9.57642C15.1915 9.7373 14.8322 9.9292 14.4932 10.1523C14.2418 10.3179 14.0018 10.5005 13.7729 10.7L16.9249 10.7C16.9598 10.6914 16.995 10.6829 17.03 10.6748C17.41 10.5881 17.8 10.5449 18.2 10.5449L24.2 10.5449C24.5933 10.5449 24.9771 10.5869 25.3514 10.6711C25.6543 10.739 25.9509 10.8347 26.2413 10.9575C26.53 11.0798 26.8036 11.2253 27.062 11.3938C27.3657 11.592 27.6487 11.8223 27.9108 12.0845C28.171 12.345 28.3998 12.626 28.5969 12.9277C28.7672 13.1882 28.9139 13.4641 29.0372 13.7554C29.1592 14.0437 29.2542 14.3384 29.3221 14.6389Q29.3234 14.6443 29.3246 14.6497L29.3246 14.6498Q29.45 15.2108 29.45 15.7998L29.45 21.7998C29.45 22.1951 29.3846 22.6775 29.2998 23.0532L29.2998 26.2175C29.7664 25.6819 30.1393 25.0845 30.4185 24.4258C30.5803 24.0437 30.7052 23.6533 30.7932 23.2551Q30.95 22.545 30.95 21.7998ZM27.95 15.7998L27.95 27.7949C27.95 28.304 27.8516 28.791 27.6548 29.2568C27.5643 29.4709 27.4561 29.6733 27.3302 29.864L27.3265 29.8696Q27.1203 30.1806 26.8512 30.45C26.5054 30.7961 26.1082 31.0642 25.6595 31.2544Q25.3369 31.391 25.0007 31.4646C24.74 31.5215 24.4731 31.5498 24.2 31.5498L12.2 31.5498C11.6908 31.5498 11.2036 31.4514 10.7384 31.2544C10.5254 31.1643 10.3239 31.0564 10.134 30.9309C9.92395 30.792 9.72815 30.6316 9.54651 30.4497C9.36768 30.2703 9.20972 30.0771 9.07263 29.8701C8.94495 29.6775 8.83557 29.4729 8.74414 29.2561C8.54797 28.7908 8.44995 28.3037 8.44995 27.7949L8.44995 15.7998C8.44995 15.5205 8.47949 15.2476 8.5387 14.9814C8.58728 14.7627 8.65576 14.5486 8.74414 14.3386C8.83557 14.1221 8.94495 13.9172 9.07263 13.7246C9.20959 13.5176 9.36768 13.3245 9.54651 13.1453C9.72803 12.9631 9.92395 12.8027 10.134 12.6641C10.3239 12.5386 10.5254 12.4307 10.7384 12.3403C10.9481 12.2517 11.1622 12.1829 11.3807 12.134C11.6472 12.0747 11.9203 12.0449 12.2 12.0449L24.2 12.0449C24.473 12.0449 24.74 12.0735 25.0006 12.1304C25.2249 12.1792 25.4445 12.2493 25.6595 12.3403C26.1082 12.5305 26.5054 12.7986 26.8512 13.1448C27.0322 13.3262 27.1918 13.5215 27.3301 13.7307C27.4561 13.9216 27.5642 14.124 27.6548 14.3381C27.7448 14.5508 27.8141 14.7681 27.8629 14.99C27.9209 15.2537 27.95 15.5237 27.95 15.7998ZM26.45 15.7998C26.45 15.4937 26.391 15.2009 26.2731 14.9221C26.1591 14.6523 25.998 14.4133 25.7899 14.2048C25.5819 13.9968 25.3434 13.8357 25.0743 13.7217Q24.892 13.6444 24.7019 13.6008C24.5389 13.5635 24.3716 13.5449 24.2 13.5449L12.2 13.5449C12.0217 13.5449 11.8481 13.5649 11.6794 13.6047C11.5582 13.6335 11.4396 13.6724 11.3234 13.7217C11.2002 13.7739 11.0834 13.8359 10.9731 13.9077C10.8425 13.9929 10.7209 14.0918 10.6084 14.2046C10.4984 14.3149 10.4016 14.4338 10.3179 14.5613C10.2437 14.6746 10.1798 14.7947 10.1263 14.9214C10.0771 15.0381 10.0382 15.1572 10.0096 15.2788C9.96985 15.4478 9.94995 15.6216 9.94995 15.7998L9.94995 27.7949C9.94995 28.1016 10.0088 28.3945 10.1263 28.6733C10.2401 28.9431 10.4008 29.1821 10.6084 29.3901C10.816 29.5984 11.0543 29.7593 11.3234 29.8733C11.4396 29.9224 11.5583 29.9614 11.6794 29.99C11.8483 30.03 12.0217 30.0498 12.2 30.0498L24.2 30.0498C24.5049 30.0498 24.7964 29.991 25.0743 29.8733Q25.2561 29.7963 25.4192 29.6906Q25.6184 29.5616 25.7899 29.3899C25.998 29.1816 26.1591 28.9426 26.2731 28.6729C26.391 28.3938 26.45 28.1013 26.45 27.7949L26.45 15.7998ZM23.9587 18.6113L17.3037 25.6165C17.1229 25.7891 16.9181 25.8992 16.7415 25.895C16.5647 25.8911 16.39 25.7986 16.2174 25.6177L12.4574 21.6777C12.1675 21.3738 12.1783 20.9072 12.4822 20.6172C12.786 20.3274 13.2527 20.3381 13.5426 20.6421L16.7588 24.0122L22.8712 17.5784C23.1605 17.2737 23.6271 17.2617 23.9316 17.551C24.2361 17.8403 24.248 18.3069 23.9587 18.6113Z" fill="rgb(255,255,255)" fill-opacity="0.898039222" fill-rule="evenodd" />
	</g>
</svg>
