<svg width="24.000000" height="24.000000" viewBox="0 0 24 24" fill="none" xmlns="http://www.w3.org/2000/svg" xmlns:xlink="http://www.w3.org/1999/xlink">
	<desc>
			Created with Pixso.
	</desc>
	<defs>
		<clipPath id="clip326_6501">
			<rect id="ic_public_money_circle" width="24.000000" height="24.000000" fill="white" fill-opacity="0"/>
		</clipPath>
	</defs>
	<g clip-path="url(#clip326_6501)">
		<circle id="path4" cx="12.000000" cy="12.000000" r="11.100001" fill="#FDEBD3" fill-opacity="1.000000"/>
		<path id="path6 (边框)" d="M16.1 6.43L13.46 10.1L15.5 10.1C15.91 10.1 16.25 10.43 16.25 10.85C16.25 11.27 15.91 11.6 15.5 11.6L12.75 11.6L12.75 13.53L15.5 13.53C15.91 13.53 16.25 13.86 16.25 14.28C16.25 14.7 15.91 15.03 15.5 15.03L12.75 15.03L12.75 17.99C12.75 18.41 12.41 18.74 12 18.74C11.57 18.74 11.25 18.41 11.25 17.99L11.25 15.03L8.5 15.03C8.07 15.03 7.75 14.7 7.75 14.28C7.75 13.86 8.07 13.53 8.5 13.53L11.25 13.53L11.25 11.6L8.5 11.6C8.07 11.6 7.75 11.27 7.75 10.85C7.75 10.43 8.07 10.1 8.5 10.1L10.53 10.1L7.89 6.43C7.64 6.09 7.72 5.63 8.06 5.39C8.4 5.14 8.86 5.22 9.1 5.56L12 9.57L14.89 5.56C15.13 5.22 15.59 5.14 15.93 5.39C16.27 5.63 16.35 6.09 16.1 6.43Z" fill="#ED6F21" fill-opacity="1.000000" fill-rule="evenodd"/>
	</g>
</svg>
