<svg width="31.701416" height="24.437439" viewBox="0 0 31.7014 24.4374" fill="none" xmlns="http://www.w3.org/2000/svg" xmlns:xlink="http://www.w3.org/1999/xlink">
	<desc>
			Created with Pixso.
	</desc>
	<defs>
		<filter id="filter_326_5852_dd" x="0.000000" y="0.000000" width="31.701416" height="24.074829" filterUnits="userSpaceOnUse" color-interpolation-filters="sRGB">
			<feFlood flood-opacity="0" result="BackgroundImageFix"/>
			<feColorMatrix in="SourceAlpha" type="matrix" values="0 0 0 0 0 0 0 0 0 0 0 0 0 0 0 0 0 0 127 0" result="hardAlpha"/>
			<feOffset dx="0" dy="4"/>
			<feGaussianBlur stdDeviation="3.5"/>
			<feComposite in2="hardAlpha" operator="out" k2="-1" k3="1"/>
			<feColorMatrix type="matrix" values="0 0 0 0 0 0 0 0 0 0 0 0 0 0 0 0 0 0 0.25 0"/>
			<feBlend mode="normal" in2="BackgroundImageFix" result="effect_dropShadow_1"/>
			<feBlend mode="normal" in="SourceGraphic" in2="effect_dropShadow_1" result="shape"/>
		</filter>
	</defs>
	<rect id="icon_我的钱包" width="24.000000" height="24.000000" transform="translate(4.783447 0.437439)" fill="#FFFFFF" fill-opacity="0"/>
	<path id="路径" d="M4.78 12.43C4.78 19.06 10.15 24.43 16.78 24.43C23.41 24.43 28.78 19.06 28.78 12.43C28.78 5.81 23.41 0.43 16.78 0.43C10.15 0.43 4.78 5.81 4.78 12.43Z" fill="#ED6F21" fill-opacity="1.000000" fill-rule="nonzero"/>
	<path id="路径" d="M16.78 24.43C23.41 24.43 28.78 19.06 28.78 12.43C28.78 5.81 23.41 0.43 16.78 0.43C10.15 0.43 4.78 5.81 4.78 12.43C4.78 19.06 10.15 24.43 16.78 24.43Z" stroke="#000000" stroke-opacity="0" stroke-width="1.000000"/>
	<g filter="url(#filter_326_5852_dd)">
		<path id="path-1" d="M18.99 6.52L11.53 7.61C10.96 7.78 10.5 8.41 10.5 9.02L10.5 9.57C10.5 8.95 11.03 8.45 11.69 8.45L15.56 8.45L21.2 8.45C21.2 7.37 20.33 6.5 19.27 6.5C19.17 6.5 19.08 6.5 18.99 6.52Z" fill="#FFFFFF" fill-opacity="0.600000" fill-rule="nonzero"/>
		<path id="path-1" d="M11.53 7.61C10.96 7.78 10.5 8.41 10.5 9.02L10.5 9.57C10.5 8.95 11.03 8.45 11.69 8.45L15.56 8.45L21.2 8.45C21.2 7.37 20.33 6.5 19.27 6.5C19.17 6.5 19.08 6.5 18.99 6.52L11.53 7.61Z" stroke="#000000" stroke-opacity="0" stroke-width="1.000000"/>
	</g>
	<ellipse id="path-4" rx="4.690652" ry="4.721982" transform="matrix(-0.904092 0.427337 -0.417929 -0.90848 18.9722 9.80017)" fill="#FFA1A1" fill-opacity="1.000000"/>
	<ellipse id="path-4" rx="4.690652" ry="4.721982" transform="matrix(-0.904092 0.427337 -0.417929 -0.90848 18.9722 9.80017)" stroke="#000000" stroke-opacity="0" stroke-width="1.000000"/>
	<path id="path-9" d="M22.76 9.73L22.76 16.94C22.76 17.65 22.22 18.22 21.57 18.22L11.69 18.22C11.03 18.22 10.5 17.65 10.5 16.94L10.5 9.73C10.5 9.02 11.03 8.44 11.69 8.44L21.57 8.44C22.22 8.44 22.76 9.02 22.76 9.73Z" fill="#FFFFFF" fill-opacity="1.000000" fill-rule="nonzero"/>
	<path id="path-9" d="M22.76 16.94C22.76 17.65 22.22 18.22 21.57 18.22L11.69 18.22C11.03 18.22 10.5 17.65 10.5 16.94L10.5 9.73C10.5 9.02 11.03 8.44 11.69 8.44L21.57 8.44C22.22 8.44 22.76 9.02 22.76 9.73L22.76 16.94Z" stroke="#000000" stroke-opacity="0" stroke-width="1.000000"/>
	<path id="path-9 (边框)" d="M23.14 17.35C23.17 17.21 23.18 17.08 23.18 16.94L23.18 9.73C23.18 9.59 23.17 9.45 23.14 9.32C23.12 9.24 23.09 9.15 23.06 9.07C23.01 8.95 22.95 8.83 22.87 8.72C22.83 8.65 22.78 8.59 22.72 8.53C22.62 8.43 22.52 8.34 22.4 8.26C22.34 8.22 22.27 8.19 22.21 8.16C22.1 8.11 21.99 8.07 21.88 8.05C21.78 8.03 21.67 8.02 21.57 8.02L11.69 8.02C11.58 8.02 11.47 8.03 11.36 8.05C11.26 8.08 11.15 8.11 11.05 8.16C10.98 8.19 10.91 8.23 10.85 8.27C10.73 8.34 10.63 8.43 10.53 8.53C10.48 8.59 10.43 8.65 10.38 8.72C10.3 8.83 10.24 8.95 10.19 9.07C10.16 9.15 10.14 9.23 10.12 9.31C10.09 9.45 10.07 9.59 10.07 9.73L10.07 16.94C10.07 17.08 10.09 17.22 10.12 17.35C10.14 17.43 10.16 17.51 10.19 17.59C10.24 17.72 10.3 17.84 10.38 17.95C10.43 18.01 10.48 18.08 10.53 18.14C10.63 18.24 10.73 18.33 10.85 18.4C10.91 18.44 10.98 18.48 11.05 18.51C11.15 18.56 11.26 18.59 11.36 18.61C11.47 18.64 11.58 18.65 11.69 18.65L21.57 18.65C21.67 18.65 21.78 18.64 21.88 18.62C21.99 18.59 22.1 18.56 22.21 18.51C22.27 18.48 22.34 18.44 22.4 18.41C22.52 18.33 22.62 18.24 22.72 18.14C22.78 18.08 22.83 18.01 22.87 17.95C22.95 17.84 23.01 17.72 23.06 17.59C23.09 17.51 23.12 17.43 23.14 17.35ZM22.33 9.73L22.33 16.94C22.33 17.02 22.32 17.11 22.3 17.19C22.29 17.22 22.28 17.25 22.27 17.28C22.24 17.36 22.2 17.43 22.15 17.49C22.09 17.56 21.97 17.67 21.9 17.71C21.85 17.74 21.75 17.78 21.7 17.79C21.66 17.79 21.61 17.8 21.57 17.8L11.69 17.8C11.64 17.8 11.59 17.79 11.54 17.78C11.5 17.77 11.45 17.76 11.4 17.74C11.33 17.7 11.21 17.62 11.16 17.56C11.11 17.5 11.01 17.36 10.99 17.28C10.97 17.25 10.96 17.22 10.96 17.19C10.93 17.11 10.92 17.03 10.92 16.94L10.92 9.73C10.92 9.64 10.93 9.56 10.96 9.47C10.96 9.44 10.97 9.41 10.99 9.38C11.01 9.31 11.05 9.24 11.1 9.18C11.16 9.11 11.28 9 11.35 8.96C11.39 8.94 11.5 8.89 11.54 8.88C11.59 8.87 11.64 8.87 11.69 8.87L21.57 8.87C21.61 8.87 21.66 8.87 21.7 8.88C21.75 8.89 21.8 8.91 21.85 8.93C21.92 8.97 22.04 9.05 22.1 9.11C22.14 9.17 22.24 9.31 22.27 9.38C22.28 9.41 22.29 9.45 22.3 9.48C22.32 9.56 22.33 9.64 22.33 9.73Z" fill="#FFFFFF" fill-opacity="0.349020" fill-rule="evenodd"/>
	<rect id="path-11" x="19.556641" y="12.031433" rx="1.060799" width="2.121598" height="2.150543" fill="#F7430A" fill-opacity="1.000000"/>
	<rect id="path-11" x="19.556641" y="12.031433" rx="1.060799" width="2.121598" height="2.150543" stroke="#000000" stroke-opacity="0" stroke-width="1.000000"/>
</svg>
