<svg width="16.000000" height="16.000000" viewBox="0 0 16 16" fill="none" xmlns="http://www.w3.org/2000/svg" xmlns:xlink="http://www.w3.org/1999/xlink">
	<desc>
			Created with Pixso.
	</desc>
	<defs>
		<clipPath id="clip56_4897">
			<rect id="svg" width="16.000000" height="16.000000" fill="white" fill-opacity="0"/>
		</clipPath>
	</defs>
	<g clip-path="url(#clip56_4897)">
		<path id="path" d="M11.55 2.98L11.51 2.95C10.59 2.03 9.38 1.5 8 1.5C6.61 1.5 5.4 2.03 4.48 2.92L4.44 2.98C3.55 3.86 3 5.09 3 6.45C3 7.81 3.55 9.04 4.44 9.93L4.48 9.96L8 13.5L11.51 9.99L11.55 9.96C12.44 9.07 13 7.84 13 6.45C13 5.09 12.44 3.86 11.55 2.98ZM8 7.87C7.04 7.87 6.25 7.08 6.25 6.14C6.25 5.73 6.38 5.38 6.61 5.09C6.94 4.68 7.44 4.4 8 4.4C8.95 4.4 9.74 5.19 9.74 6.14C9.74 7.08 8.95 7.87 8 7.87Z" fill="#000000" fill-opacity="0.898039" fill-rule="nonzero"/>
	</g>
</svg>
