<svg width="16.000000" height="16.000000" viewBox="0 0 16 16" fill="none" xmlns="http://www.w3.org/2000/svg" xmlns:xlink="http://www.w3.org/1999/xlink">
	<desc>
			Created with Pixso.
	</desc>
	<defs>
		<clipPath id="clip56_4893">
			<rect id="svg" width="16.000000" height="16.000000" fill="white" fill-opacity="0"/>
		</clipPath>
	</defs>
	<g clip-path="url(#clip56_4893)">
		<path id="path" d="M7.78 1.88C11.04 1.88 13.68 4.52 13.68 7.78C13.68 11.04 11.04 13.68 7.78 13.68C4.52 13.68 1.88 11.04 1.88 7.78C1.88 4.52 4.52 1.88 7.78 1.88ZM7.78 4.07C7.75 4.07 7.73 4.08 7.7 4.08C7.67 4.09 7.65 4.09 7.62 4.1C7.6 4.12 7.58 4.13 7.55 4.14C7.53 4.16 7.51 4.18 7.49 4.19C7.47 4.21 7.45 4.23 7.44 4.26C7.42 4.28 7.41 4.3 7.4 4.33C7.39 4.35 7.38 4.38 7.38 4.41C7.37 4.43 7.37 4.46 7.37 4.49L7.37 7.78L7.37 7.84C7.39 7.93 7.43 8.01 7.49 8.07L9.82 10.4L9.86 10.44C9.88 10.45 9.9 10.47 9.92 10.48C9.94 10.49 9.97 10.5 9.99 10.5C10.01 10.51 10.04 10.52 10.06 10.52C10.09 10.52 10.11 10.52 10.14 10.52C10.16 10.52 10.19 10.51 10.21 10.51C10.23 10.5 10.26 10.49 10.28 10.48C10.3 10.47 10.32 10.46 10.34 10.45C10.36 10.43 10.38 10.42 10.4 10.4L10.44 10.36C10.45 10.34 10.46 10.32 10.48 10.3C10.49 10.27 10.5 10.25 10.5 10.23C10.51 10.2 10.52 10.18 10.52 10.16C10.52 10.13 10.52 10.11 10.52 10.08C10.52 10.06 10.51 10.03 10.51 10.01C10.5 9.98 10.49 9.96 10.48 9.94C10.47 9.92 10.46 9.89 10.45 9.87C10.43 9.85 10.42 9.84 10.4 9.82L8.19 7.61L8.19 4.49L8.19 4.43C8.19 4.41 8.18 4.38 8.17 4.36C8.17 4.34 8.16 4.31 8.15 4.29C8.13 4.27 8.12 4.25 8.11 4.23C8.09 4.21 8.07 4.19 8.05 4.18C8.04 4.16 8.02 4.15 7.99 4.13C7.97 4.12 7.95 4.11 7.93 4.1C7.9 4.09 7.88 4.08 7.86 4.08C7.83 4.08 7.81 4.07 7.78 4.07Z" fill="#000000" fill-opacity="0.898039" fill-rule="nonzero"/>
	</g>
</svg>
