<svg width="24.000000" height="24.000000" viewBox="0 0 24 24" fill="none" xmlns="http://www.w3.org/2000/svg" xmlns:xlink="http://www.w3.org/1999/xlink">
	<desc>
		Created with Pixso.
	</desc>
	<defs>
		<clipPath id="clip2_2370">
			<rect id="icon_planned_off" width="24.000000" height="24.000000" fill="white" fill-opacity="0"/>
		</clipPath>
	</defs>
	<g clip-path="url(#clip2_2370)">
		<path id="矢量 4" d="M3.59 21.6L12 21.6C12.35 21.6 12.59 21.84 12.59 22.2C12.59 22.56 12.35 22.8 12 22.8L3 22.8C2.69 22.8 2.39 22.5 2.39 22.2L2.39 1.79C2.39 1.5 2.69 1.2 3 1.2L21 1.2C21.29 1.2 21.59 1.5 21.59 1.79L21.59 11.4C21.59 11.76 21.35 12 21 12C20.63 12 20.39 11.76 20.39 11.4L20.39 2.4L3.59 2.4L3.59 21.6ZM6.6 6L17.39 6C17.7 6 18 6.29 18 6.59C18 6.9 17.7 7.2 17.39 7.2L6.6 7.2C6.3 7.2 6 6.9 6 6.59C6 6.29 6.3 6 6.6 6ZM17.39 9.59C17.7 9.59 18 9.9 18 10.2C18 10.5 17.7 10.8 17.39 10.8L6.6 10.8C6.3 10.8 6 10.5 6 10.2C6 9.9 6.3 9.59 6.6 9.59L17.39 9.59ZM6.71 13.2L10.13 13.2C10.5 13.2 10.8 13.44 10.8 13.8C10.8 14.1 10.5 14.4 10.13 14.4L6.71 14.4C6.36 14.4 6.06 14.1 6.06 13.8C6.06 13.44 6.36 13.2 6.71 13.2ZM18 13.2C15.35 13.2 13.2 15.36 13.2 18C13.2 20.64 15.35 22.8 18 22.8C20.63 22.8 22.8 20.64 22.8 18C22.8 15.36 20.63 13.2 18 13.2ZM18 21.6C16.02 21.6 14.39 19.98 14.39 18C14.39 16.02 16.02 14.4 18 14.4C19.98 14.4 21.59 16.02 21.59 18C21.59 19.98 19.98 21.6 18 21.6ZM18.59 17.4L19.79 17.4C20.09 17.4 20.39 17.7 20.39 18C20.39 18.29 20.09 18.6 19.79 18.6L18 18.6C17.7 18.6 17.39 18.29 17.39 18L17.39 16.2C17.39 15.9 17.7 15.6 18 15.6C18.29 15.6 18.59 15.9 18.59 16.2L18.59 17.4ZM6.71 16.79L10.13 16.79C10.5 16.79 10.8 17.04 10.8 17.4C10.8 17.7 10.5 18 10.13 18L6.71 18C6.36 18 6.06 17.7 6.06 17.4C6.06 17.04 6.36 16.79 6.71 16.79Z" fill="#000000" fill-opacity="0.600000" fill-rule="evenodd"/>
	</g>
</svg>
