<svg width="24.000000" height="24.000000" viewBox="0 0 24 24" fill="none" xmlns="http://www.w3.org/2000/svg" xmlns:xlink="http://www.w3.org/1999/xlink">
	<desc>
		Created with Pixso.
	</desc>
	<defs>
		<clipPath id="clip2_2366">
			<rect id="icon_courses_off" width="24.000000" height="24.000000" fill="white" fill-opacity="0"/>
		</clipPath>
	</defs>
	<g clip-path="url(#clip2_2366)">
		<path id="path" d="M1.75 3.52C1.5 4.03 1.5 4.68 1.5 6.5L1.5 14.49C1.5 16.31 1.5 16.96 1.75 17.46C1.97 17.91 2.34 18.27 2.77 18.49C3.28 18.75 3.93 18.75 5.75 18.75L18.24 18.75C20.06 18.75 20.71 18.75 21.21 18.49C21.66 18.27 22.02 17.91 22.24 17.47C22.5 16.96 22.5 16.31 22.5 14.49L22.5 6.5C22.5 4.68 22.5 4.03 22.24 3.53C22.13 3.31 21.98 3.11 21.81 2.93C21.63 2.76 21.44 2.61 21.22 2.5C20.71 2.25 20.06 2.25 18.24 2.25L5.75 2.25C3.93 2.25 3.28 2.25 2.78 2.5C2.33 2.72 1.97 3.09 1.75 3.52ZM3 14.49L3 6.5C3 5.09 3.03 4.33 3.09 4.21C3.17 4.04 3.29 3.92 3.46 3.84C3.58 3.78 4.34 3.75 5.75 3.75L18.24 3.75C19.65 3.75 20.41 3.78 20.53 3.84C20.7 3.92 20.82 4.04 20.9 4.21C20.96 4.33 21 5.09 21 6.5L21 14.49C21 15.9 20.96 16.66 20.9 16.78C20.82 16.95 20.7 17.07 20.53 17.15C20.41 17.21 19.65 17.25 18.24 17.25L5.75 17.25C4.34 17.25 3.58 17.21 3.46 17.15C3.29 17.07 3.17 16.95 3.09 16.78C3.03 16.66 3 15.9 3 14.49ZM14.64 11.12L10.44 13.59C10.39 13.62 10.33 13.64 10.27 13.66C10.21 13.68 10.15 13.68 10.08 13.68C10.02 13.69 9.96 13.68 9.9 13.66C9.84 13.64 9.78 13.62 9.72 13.59C9.67 13.56 9.62 13.52 9.57 13.47C9.53 13.43 9.49 13.38 9.46 13.32C9.43 13.27 9.41 13.21 9.39 13.15C9.38 13.09 9.37 13.03 9.37 12.96L9.37 8.03C9.37 8 9.37 7.97 9.38 7.93C9.38 7.9 9.39 7.87 9.39 7.84C9.4 7.81 9.41 7.78 9.42 7.75C9.44 7.72 9.45 7.7 9.47 7.67C9.48 7.64 9.5 7.62 9.52 7.59C9.54 7.57 9.56 7.54 9.58 7.52C9.6 7.5 9.62 7.48 9.65 7.46C9.67 7.44 9.7 7.42 9.73 7.41C9.75 7.39 9.78 7.38 9.81 7.37C9.84 7.35 9.87 7.34 9.9 7.34C9.93 7.33 9.96 7.32 9.99 7.32C10.02 7.31 10.05 7.31 10.08 7.31C10.12 7.31 10.15 7.31 10.18 7.32C10.21 7.32 10.24 7.33 10.27 7.33C10.3 7.34 10.33 7.35 10.36 7.36C10.39 7.38 10.42 7.39 10.44 7.4L14.64 9.87C14.67 9.89 14.69 9.91 14.72 9.93C14.74 9.95 14.77 9.97 14.79 9.99C14.81 10.01 14.83 10.04 14.85 10.06C14.87 10.08 14.88 10.11 14.9 10.14C14.91 10.17 14.93 10.19 14.94 10.22C14.95 10.25 14.96 10.28 14.97 10.31C14.98 10.34 14.98 10.37 14.99 10.4C14.99 10.43 14.99 10.46 14.99 10.5C14.99 10.53 14.99 10.56 14.99 10.59C14.98 10.62 14.98 10.65 14.97 10.68C14.96 10.71 14.95 10.74 14.94 10.77C14.93 10.8 14.91 10.83 14.9 10.85C14.88 10.88 14.87 10.91 14.85 10.93C14.83 10.96 14.81 10.98 14.79 11C14.77 11.02 14.74 11.04 14.72 11.06C14.69 11.08 14.67 11.1 14.64 11.12ZM7.87 20.25C7.82 20.25 7.77 20.25 7.72 20.26C7.68 20.27 7.63 20.28 7.58 20.3C7.54 20.32 7.49 20.34 7.45 20.37C7.41 20.4 7.37 20.43 7.34 20.46C7.3 20.5 7.27 20.54 7.25 20.58C7.22 20.62 7.2 20.66 7.18 20.71C7.16 20.75 7.14 20.8 7.13 20.85C7.12 20.9 7.12 20.95 7.12 21C7.12 21.04 7.12 21.09 7.13 21.14C7.14 21.19 7.16 21.24 7.18 21.28C7.2 21.33 7.22 21.37 7.25 21.41C7.27 21.45 7.3 21.49 7.34 21.53C7.37 21.56 7.41 21.59 7.45 21.62C7.49 21.65 7.54 21.67 7.58 21.69C7.63 21.71 7.68 21.72 7.72 21.73C7.77 21.74 7.82 21.75 7.87 21.75L16.12 21.75C16.17 21.75 16.22 21.74 16.27 21.73C16.31 21.72 16.36 21.71 16.41 21.69C16.45 21.67 16.5 21.65 16.54 21.62C16.58 21.59 16.62 21.56 16.65 21.53C16.69 21.49 16.72 21.45 16.74 21.41C16.77 21.37 16.79 21.33 16.81 21.28C16.83 21.24 16.85 21.19 16.86 21.14C16.87 21.09 16.87 21.04 16.87 21C16.87 20.95 16.87 20.9 16.86 20.85C16.85 20.8 16.83 20.75 16.81 20.71C16.79 20.66 16.77 20.62 16.74 20.58C16.72 20.54 16.69 20.5 16.65 20.46C16.62 20.43 16.58 20.4 16.54 20.37C16.5 20.34 16.45 20.32 16.41 20.3C16.36 20.28 16.31 20.27 16.27 20.26C16.22 20.25 16.17 20.25 16.12 20.25L7.87 20.25Z" fill="#000000" fill-opacity="1.000000" fill-rule="nonzero"/>
	</g>
</svg>
