<?xml version="1.0" encoding="UTF-8"?>
<svg width="25px" height="24px" viewBox="0 0 25 24" version="1.1" xmlns="http://www.w3.org/2000/svg"
>
    <title>编组 5</title>
    <g id="页面-1" stroke="none" stroke-width="1" fill="none" fill-rule="evenodd" fill-opacity="0.898382867">
        <g id="播放器" transform="translate(-233, -344)" fill="#FFFFFF">
            <g id="编组-10" transform="translate(16, 328)">
                <g id="编组-8" transform="translate(196.5, 0)" fill-rule="nonzero">
                    <g id="编组-5" transform="translate(21, 16)">
                        <path d="M19.01,1.99 C19.55,1.99 20.05,2.12666667 20.51,2.4 C20.9633333,2.67333333 21.3266667,3.03666667 21.6,3.49 C21.8733333,3.95 22.01,4.45 22.01,4.99 L22.01,19.01 C22.01,19.55 21.8733333,20.05 21.6,20.51 C21.3266667,20.9633333 20.9633333,21.3266667 20.51,21.6 C20.05,21.8733333 19.55,22.01 19.01,22.01 L4.99,22.01 C4.45,22.01 3.95,21.8733333 3.49,21.6 C3.03666667,21.3266667 2.67333333,20.9633333 2.4,20.51 C2.12666667,20.05 1.99,19.55 1.99,19.01 L1.99,4.99 C1.99,4.45 2.12666667,3.95 2.4,3.49 C2.67333333,3.03666667 3.03666667,2.67333333 3.49,2.4 C3.95,2.12666667 4.45,1.99 4.99,1.99 L6.75,1.99 C7.16973641,1.99 7.51,2.33026359 7.51,2.75 C7.51,3.16973641 7.16973641,3.51 6.75,3.51 L5.5,3.51 C5.45830901,3.51 5.41740208,3.50664304 5.37753477,3.50018467 L4.99,3.5 C4.64,3.5 4.33083333,3.61229167 4.0625,3.836875 L3.95,3.94 C3.65,4.22666667 3.5,4.57666667 3.5,4.99 L3.5,19.01 C3.5,19.41 3.65,19.7566667 3.95,20.05 C4.24333333,20.35 4.59,20.5 4.99,20.5 L19.01,20.5 C19.4233333,20.5 19.7733333,20.35 20.06,20.05 C20.3533333,19.7566667 20.5,19.41 20.5,19.01 L20.5,4.99 C20.5,4.57666667 20.3533333,4.22666667 20.06,3.94 C19.7947862,3.66861842 19.4753635,3.52277314 19.101732,3.50246416 L19,3.51 L17.75,3.51 C17.3302636,3.51 16.99,3.16973641 16.99,2.75 C16.99,2.33026359 17.3302636,1.99 17.75,1.99 L19.01,1.99 Z M12,2 C12.4142136,2 12.75,2.33578644 12.75,2.75 L12.75,13.864 L15.7047401,10.7350324 C15.9632936,10.4612699 16.379096,10.4251739 16.6788096,10.634554 L16.7649676,10.7047401 C17.0661064,10.9891489 17.0796686,11.4638289 16.7952599,11.7649676 L12.5452599,16.2649676 L12.5149676,16.2952599 L12.4969981,16.309 L12.482,16.322 L12.451,16.348 L12.4210494,16.3707949 C12.2696029,16.4767865 12.0955559,16.5147037 11.9287861,16.4975433 C11.8902219,16.4931604 11.8610053,16.4880518 11.8321986,16.481291 C11.8237392,16.4791431 11.8146817,16.4769032 11.8056615,16.4744928 C11.7809703,16.4678165 11.7572351,16.4600792 11.7339276,16.4512206 C11.7269672,16.4487706 11.7196043,16.4458546 11.7122807,16.4428181 C11.6872909,16.4322417 11.6631452,16.4207224 11.6396481,16.4079787 C11.633196,16.4044615 11.6262362,16.400509 11.6193287,16.396437 C11.5486681,16.3553442 11.4849136,16.3033511 11.4308596,16.2415783 L7.20474014,11.7649676 C6.92033136,11.4638289 6.93389364,10.9891489 7.23503235,10.7047401 C7.53617106,10.4203314 8.01085108,10.4338936 8.29525986,10.7350324 L11.2499981,13.864 L11.25,2.75 C11.25,2.33578644 11.5857864,2 12,2 Z"
                              id="形状结合"></path>
                    </g>
                </g>
            </g>
        </g>
    </g>
</svg>