<?xml version="1.0" encoding="UTF-8"?>
<svg width="25px" height="24px" viewBox="0 0 25 24" version="1.1" xmlns="http://www.w3.org/2000/svg"
>
    <title>编组备份 3</title>
    <g id="页面-1" stroke="none" stroke-width="1" fill="none" fill-rule="evenodd">
        <g id="播放器" transform="translate(-102, -344)">
            <g id="编组-10" transform="translate(16, 328)">
                <g id="编组-6" transform="translate(65.5, 0)" fill-rule="nonzero">
                    <g id="编组备份-3" transform="translate(22, 16)">
                        <rect id="矩形" fill="#000000" opacity="0" x="-1" y="0" width="24" height="24"></rect>
                        <path d="M3.72883953,10.1342359 C3.23158432,10.1342359 2.77677774,10.2572672 2.36441976,10.5033298 C1.9459977,10.7493924 1.61550492,11.0764756 1.3729414,11.4845794 C1.1243138,11.8986848 1,12.3487993 1,12.8349229 L1,18.2813084 C1,18.7734336 1.1243138,19.2235481 1.3729414,19.6316519 C1.61550492,20.0397557 1.9459977,20.3668389 2.36441976,20.6129015 C2.77677774,20.8589641 3.23158432,20.9819954 3.72883953,20.9819954 L6.02106473,20.9819954 C6.14841057,20.9819954 6.25756415,20.9399847 6.34852547,20.8559634 C6.4334227,20.7659405 6.47587131,20.6639145 6.47587131,20.5498855 L6.47587131,10.5933527 C6.47587131,10.4733222 6.4334227,10.3682954 6.34852547,10.2782725 C6.25756415,10.1822481 6.14841057,10.1342359 6.02106473,10.1342359 L3.72883953,10.1342359 Z M3.2922252,16.6789008 C3.2922252,16.4928534 3.35589812,16.3368138 3.48324397,16.2107817 C3.6166539,16.0787481 3.77735223,16.0127313 3.96533895,16.0127313 C4.15332567,16.0127313 4.31705604,16.0787481 4.45653007,16.2107817 C4.59600409,16.3368138 4.6657411,16.4928534 4.6657411,16.6789008 L4.6657411,18.0022374 C4.6657411,18.1882847 4.59600409,18.350326 4.45653007,18.4883611 C4.31705604,18.6263962 4.15332567,18.6954137 3.96533895,18.6954137 C3.77735223,18.6954137 3.6166539,18.6263962 3.48324397,18.4883611 C3.35589812,18.350326 3.2922252,18.1882847 3.2922252,18.0022374 L3.2922252,16.6789008 Z M7.48554194,20.783945 C7.48554194,20.8439603 7.50676625,20.8949733 7.54921486,20.936984 C7.59166348,20.9789947 7.64320822,21 7.7038491,21 L15.9267522,21 C16.7454041,21 17.4791587,20.7599389 18.1280161,20.2798168 C18.7708094,19.7996947 19.2013596,19.1755359 19.4196668,18.4073405 L20.884144,13.3570557 C21.0175539,12.8949382 21.0357462,12.4328206 20.9387208,11.9707031 C20.8477595,11.5085855 20.6567407,11.0974809 20.3656645,10.7373893 C20.0018192,10.2932764 19.6076535,10.0172061 19.1831674,9.90917865 C18.7586812,9.80115117 18.2341376,9.74713743 17.6095366,9.74713743 L17.4185178,9.74713743 L14.1802949,9.76514201 C14.8352164,7.30451606 15.1929976,5.96617561 15.2536385,5.75012064 C15.3688561,5.14396645 15.362792,4.64283897 15.2354462,4.24673821 C15.1020363,3.85063744 14.7867037,3.52355424 14.2894485,3.26548859 C13.8528342,3.01942599 13.3949955,2.94440691 12.9159326,3.04043134 C12.4368697,3.13045424 12.0578642,3.35551149 11.7789161,3.71560309 L7.48554194,9.46806644 L7.48554194,20.783945 Z"
                              id="形状" fill="#FD603E"></path>
                    </g>
                </g>
            </g>
        </g>
    </g>
</svg>