<?xml version="1.0" encoding="UTF-8"?>
<svg width="24px" height="24px" viewBox="0 0 24 24" version="1.1" xmlns="http://www.w3.org/2000/svg"
>
    <title>ellipsis_message</title>
    <g id="页面-1" stroke="none" stroke-width="1" fill="none" fill-rule="evenodd">
        <g id="播放器" transform="translate(-37, -344)" fill="#FFFFFF">
            <g id="编组-3" transform="translate(16, 328)" fill-rule="nonzero">
                <g id="ellipsis_message" transform="translate(21, 16)">
                    <rect id="矩形" opacity="0" x="0" y="0" width="24" height="24"></rect>
                    <path d="M12,2.33 C13.84,2.33 15.5433333,2.73333333 17.11,3.54 C18.6766667,4.34666667 19.9266667,5.44333333 20.86,6.83 C21.7866667,8.21 22.25,9.71666667 22.25,11.35 C22.25,12.9833333 21.7866667,14.4866667 20.86,15.86 C19.9266667,17.24 18.6766667,18.3333333 17.11,19.14 C15.5433333,19.9466667 13.84,20.35 12,20.35 C11.1333333,20.35 10.31,20.27 9.53,20.11 C9.41666667,20.13 9.28,20.1733333 9.12,20.24 C8.96,20.3133333 8.80666667,20.39 8.66,20.47 L8.59,20.52 C8.09666667,20.7733333 7.62,20.99 7.16,21.17 C6.70666667,21.3433333 6.14333333,21.5033333 5.47,21.65 C5.29666667,21.6833333 5.16,21.6866667 5.06,21.66 C4.96666667,21.6333333 4.86333333,21.55 4.75,21.41 C4.65666667,21.31 4.60666667,21.19 4.6,21.05 C4.58666667,20.9033333 4.60666667,20.7666667 4.66,20.64 L4.8,20.3 C5.04,19.68 5.20666667,19.18 5.3,18.8 C5.4,18.4266667 5.35333333,18.1666667 5.16,18.02 C4.10666667,17.16 3.28,16.1466667 2.68,14.98 C2.08,13.8066667 1.78,12.5966667 1.78,11.35 C1.78,9.71666667 2.24,8.21 3.16,6.83 C4.08,5.44333333 5.32333333,4.34666667 6.89,3.54 C8.45666667,2.73333333 10.16,2.33 12,2.33 Z M12,3.82 C10.4333333,3.82 8.98666667,4.16 7.66,4.84 C6.32666667,5.52 5.27333333,6.43333333 4.5,7.58 C3.72666667,8.73333333 3.34,9.99 3.34,11.35 C3.34,12.39 3.58,13.39 4.06,14.35 C4.54,15.31 5.22,16.1433333 6.1,16.85 C6.52666667,17.17 6.76666667,17.58 6.82,18.08 C6.86666667,18.5866667 6.8,19.1433333 6.62,19.75 L6.6,19.8 C6.87333333,19.6866667 7.37,19.4633333 8.09,19.13 C8.49,18.9233333 8.81666667,18.7733333 9.07,18.68 C9.33,18.5933333 9.59333333,18.5833333 9.86,18.65 C10.5666667,18.79 11.28,18.86 12,18.86 C13.5666667,18.86 15.01,18.5266667 16.33,17.86 C17.65,17.1866667 18.7,16.2733333 19.48,15.12 C20.2533333,13.9666667 20.64,12.71 20.64,11.35 C20.64,9.99 20.2533333,8.73333333 19.48,7.58 C18.7,6.43333333 17.65,5.52 16.33,4.84 C15.01,4.16 13.5666667,3.82 12,3.82 Z M6.91,10.3 C7.27666667,10.3 7.59,10.4266667 7.85,10.68 C8.10333333,10.9333333 8.23,11.2366667 8.23,11.59 C8.23,11.9433333 8.10333333,12.2466667 7.85,12.5 C7.59,12.76 7.27666667,12.89 6.91,12.89 C6.55666667,12.89 6.25333333,12.76 6,12.5 C5.74666667,12.2466667 5.62,11.9433333 5.62,11.59 C5.62,11.2233333 5.74666667,10.9166667 6,10.67 C6.25333333,10.4233333 6.55666667,10.3 6.91,10.3 Z M12,10.3 C12.3666667,10.3 12.6733333,10.4233333 12.92,10.67 C13.1733333,10.9166667 13.3,11.2233333 13.3,11.59 C13.3,11.9433333 13.1733333,12.2466667 12.92,12.5 C12.6733333,12.76 12.3666667,12.89 12,12.89 C11.6466667,12.89 11.3433333,12.76 11.09,12.5 C10.83,12.2466667 10.7,11.9433333 10.7,11.59 C10.7,11.2233333 10.83,10.9166667 11.09,10.67 C11.3433333,10.4233333 11.6466667,10.3 12,10.3 Z M17.09,10.3 C17.4566667,10.3 17.7633333,10.4233333 18.01,10.67 C18.2566667,10.9166667 18.38,11.2233333 18.38,11.59 C18.38,11.9433333 18.2566667,12.2466667 18.01,12.5 C17.7633333,12.76 17.4566667,12.89 17.09,12.89 C16.7366667,12.89 16.4333333,12.76 16.18,12.5 C15.92,12.2466667 15.79,11.9433333 15.79,11.59 C15.79,11.2233333 15.92,10.9166667 16.18,10.67 C16.4333333,10.4233333 16.7366667,10.3 17.09,10.3 Z"
                          id="形状结合" fill-opacity="0.899420892"></path>
                </g>
            </g>
        </g>
    </g>
</svg>