<?xml version="1.0" encoding="UTF-8"?>
<svg width="25px" height="24px" viewBox="0 0 25 24" version="1.1" xmlns="http://www.w3.org/2000/svg"
>
    <title>编组备份 3</title>
    <g id="页面-1" stroke="none" stroke-width="1" fill="none" fill-rule="evenodd">
        <g id="播放器_中间状态页" transform="translate(-102, -344)">
            <g id="编组-10" transform="translate(16, 328)">
                <g id="编组-6" transform="translate(65.5, 0)">
                    <g id="编组备份-3" transform="translate(21, 16)">
                        <rect id="矩形-4" x="0" y="0" width="24" height="24"></rect>
                        <path d="M20.1856488,9.92019327 C20.6037097,10.0281573 20.9945057,10.3025658 21.3580369,10.7434189 C21.4943611,10.9143619 21.6125088,11.0988004 21.7124799,11.2967344 C21.8124509,11.5036654 21.8851572,11.7285905 21.9305986,11.9715095 C21.9669517,12.1334555 21.9896724,12.2954015 21.9987607,12.4573476 C22.007849,12.7452516 21.9669517,13.0376541 21.8760689,13.3345551 L20.4173999,18.4088637 C20.3265171,18.7507498 20.1856488,19.0656448 19.9947949,19.3535488 C19.7675879,19.7044319 19.4722188,20.0148284 19.1086876,20.2847384 C18.7542446,20.5456514 18.377081,20.7345885 17.9771967,20.8515495 C17.6409303,20.9505165 17.2955757,21 16.9411327,21 L4.8082786,21 C4.52654191,21 4.2538935,20.9595135 3.99033337,20.8785405 C3.79039121,20.8155615 3.59499318,20.73009 3.4041393,20.622126 C3.19510885,20.4961679 3.00425497,20.3522159 2.83157764,20.1902699 C2.65890032,20.0193269 2.50439955,19.8258914 2.36807535,19.6099633 C2.25901599,19.4300233 2.17267732,19.2410863 2.10905936,19.0431523 C2.03635312,18.7822393 2,18.5078307 2,18.2199267 L2,12.9566811 C2,12.6237921 2.04998554,12.3133955 2.14995662,12.0254915 C2.20448631,11.8635455 2.27264841,11.706098 2.35444293,11.553149 C2.48167885,11.3462179 2.63163548,11.1572809 2.8043128,10.9863379 C2.96790185,10.8153949 3.15875573,10.6714429 3.37687446,10.5544818 C3.55864006,10.4465178 3.74494981,10.3655448 3.93580369,10.3115628 C4.2084521,10.2215928 4.49018879,10.1766078 4.78101376,10.1766078 L7.90283802,10.1766078 L12.7696121,3.71226258 C12.8786715,3.56831056 13.0013632,3.44685105 13.1376874,3.34788404 C13.3558062,3.19493502 13.610278,3.09146951 13.901103,3.0374875 C14.1373983,2.9925025 14.3691494,2.988004 14.5963564,3.023992 C14.8326517,3.05998001 15.0598587,3.13645452 15.2779774,3.25341553 C15.8050977,3.54131956 16.1322758,3.8877041 16.2595117,4.29256914 C16.3867476,4.69743419 16.3776594,5.18777074 16.2322469,5.76357881 L15.1825505,9.77174275 L18.440699,9.74475175 L18.6179204,9.74475175 C19.2359235,9.74475175 19.7584996,9.80323226 20.1856488,9.92019327 Z M18.7269798,18.8137288 C18.8996571,18.5888037 19.026893,18.3323892 19.1086876,18.0444852 L20.580989,12.9971676 C20.6355187,12.8082306 20.6536952,12.6237921 20.6355187,12.443852 C20.6264304,12.380873 20.6173421,12.3223925 20.6082538,12.2684105 C20.5900773,12.1604465 20.5537241,12.056981 20.4991944,11.958014 C20.4446648,11.841053 20.3765027,11.733089 20.2947081,11.634122 C20.1038543,11.4181939 19.8948238,11.2742419 19.6676168,11.2022659 C19.6585285,11.2022659 19.6539844,11.2022659 19.6539844,11.2022659 C19.4267774,11.1302899 19.1177758,11.0988004 18.7269798,11.1077974 L18.4543314,11.1077974 L15.4279341,11.1617794 C15.0189615,11.1707764 14.6781509,11.1077974 14.4055025,10.9728424 C14.2600901,10.8918694 14.1373983,10.7929024 14.0374272,10.6759414 C13.9647209,10.5859713 13.9056471,10.4825058 13.8602057,10.3655448 C13.7511464,10.0956348 13.7511464,9.77624125 13.8602057,9.40736421 L14.9099021,5.52065978 C14.9916966,5.22375875 15.0189615,5.00333222 14.9916966,4.85938021 C14.9644318,4.71542819 14.84174,4.58497168 14.6236213,4.46801066 C14.5690916,4.43202266 14.5100178,4.40953016 14.4463998,4.40053316 C14.3646053,4.38253915 14.2828108,4.37804065 14.2010162,4.38703765 C14.1737514,4.39603466 14.1464866,4.40053316 14.1192217,4.40053316 C14.0010741,4.43652116 13.8920147,4.51749417 13.7920436,4.64345218 L8.58445904,11.5396534 L8.58445904,19.6639454 L16.9411327,19.6639454 C17.2137811,19.6639454 17.4773413,19.6189603 17.7318131,19.5289903 C17.9317553,19.4570143 18.118065,19.3535488 18.2907423,19.2185938 C18.4543314,19.1016328 18.5997439,18.9666778 18.7269798,18.8137288 Z M3.44503656,12.4573476 C3.3814186,12.6192936 3.34960962,12.7902366 3.34960962,12.9701766 L3.34960962,18.2334222 C3.34960962,18.4583472 3.39050688,18.6607797 3.4723014,18.8407198 C3.54500764,18.9936688 3.64497873,19.1331223 3.77221465,19.2590803 C3.89945057,19.3850383 4.04486306,19.4795068 4.2084521,19.5424858 C4.39021771,19.6234588 4.59015987,19.6639454 4.8082786,19.6639454 L7.221217,19.6639454 L7.221217,11.5396534 L4.78101376,11.5396534 C4.60833643,11.5396534 4.44474739,11.571143 4.29024662,11.634122 C4.09939274,11.697101 3.92671541,11.8095635 3.77221465,11.9715095 C3.61771388,12.1154615 3.50865452,12.2774075 3.44503656,12.4573476 Z M5.12182427,16.155115 C5.20361879,16.119127 5.29450159,16.101133 5.39447267,16.101133 C5.49444376,16.101133 5.58532656,16.119127 5.66712108,16.155115 C5.73982732,16.191103 5.80798942,16.2405865 5.87160739,16.3035655 C5.92613707,16.3575475 5.97157847,16.416028 6.00793159,16.479007 C6.05337299,16.568977 6.07609369,16.667944 6.07609369,16.775908 L6.07609369,18.1119627 C6.07609369,18.2109297 6.05791713,18.3008997 6.02156401,18.3818727 C5.98521089,18.4538487 5.93522535,18.5213262 5.87160739,18.5843052 C5.80798942,18.6472842 5.73982732,18.6967677 5.66712108,18.7327557 C5.58532656,18.7687438 5.49444376,18.7867378 5.39447267,18.7867378 C5.29450159,18.7867378 5.20361879,18.7687438 5.12182427,18.7327557 C5.04911802,18.6967677 4.98095592,18.6472842 4.91733796,18.5843052 C4.85372,18.5213262 4.80373446,18.4538487 4.76738134,18.3818727 C4.7401165,18.3008997 4.72648407,18.2109297 4.72648407,18.1119627 L4.72648407,16.775908 C4.72648407,16.667944 4.74466064,16.568977 4.78101376,16.479007 C4.81736688,16.416028 4.86280828,16.3575475 4.91733796,16.3035655 C4.98095592,16.2405865 5.04911802,16.191103 5.12182427,16.155115 Z"
                              id="hand_thumbsup" fill-opacity="0.9" fill="#FFFFFF"></path>
                    </g>
                </g>
            </g>
        </g>
    </g>
</svg>