<?xml version="1.0" encoding="UTF-8"?>
<svg width="24px" height="24px" viewBox="0 0 24 24" version="1.1" xmlns="http://www.w3.org/2000/svg"
>
    <title>star</title>
    <g id="页面-1" stroke="none" stroke-width="1" fill="none" fill-rule="evenodd" fill-opacity="0.896498033">
        <g id="播放器_中间状态页" transform="translate(-168, -344)" fill="#FFFFFF">
            <g id="编组-10" transform="translate(16, 328)">
                <g id="编组-7" transform="translate(131, 0)" fill-rule="nonzero">
                    <g id="star" transform="translate(21, 16)">
                        <path d="M12.7200163,2.1085839 C13.0398148,2.26664519 13.2987165,2.52554687 13.4567778,2.84534545 L15.4459348,6.869921 C15.6826184,7.34879254 16.1395325,7.68076008 16.6681056,7.75788003 L21.1103877,8.40601855 C21.998448,8.53558845 22.6133259,9.36054067 22.483756,10.2486009 C22.4322539,10.601591 22.2660288,10.9278262 22.0107259,11.1769746 L18.7978105,14.3124376 C18.4155158,14.6855164 18.2409901,15.2226512 18.3309828,15.7491855 L19.0873071,20.1743327 C19.2385045,21.0589675 18.643936,21.8986753 17.7593013,22.0498728 C17.4076727,22.1099714 17.0460382,22.0526941 16.7301911,21.8868777 L12.7553431,19.8001249 C12.2823885,19.5518287 11.7176115,19.5518287 11.2446569,19.8001249 L7.26980893,21.8868777 C6.47519384,22.3040422 5.49285242,21.998058 5.07568796,21.2034429 C4.90987157,20.8875957 4.8525943,20.5259613 4.91269292,20.1743327 L5.66901723,15.7491855 C5.75900987,15.2226512 5.58448421,14.6855164 5.20218954,14.3124376 L1.98927407,11.1769746 C1.34697753,10.5501617 1.3344256,9.52134513 1.96123856,8.87904859 C2.21038697,8.62374568 2.53662212,8.45752058 2.88961227,8.40601855 L7.3318944,7.75788003 C7.86046752,7.68076008 8.31738164,7.34879254 8.55406516,6.869921 L10.5432222,2.84534545 C10.9408762,2.04078929 11.9154601,1.7109299 12.7200163,2.1085839 Z M11.977588,3.55428454 L9.988431,7.57886009 C9.51870526,8.5292359 8.61190646,9.18806379 7.56289211,9.34111724 L3.12060999,9.98925576 C3.11517937,9.9900481 3.11016037,9.99260541 3.10632731,9.99653315 C3.09668404,10.0064146 3.09687714,10.0222426 3.10675863,10.0318859 L6.3196741,13.1673489 C7.07838198,13.9077669 7.4247483,14.9737728 7.24614752,16.0187408 L6.48982321,20.443888 C6.48889861,20.4492977 6.4897798,20.4548613 6.49233082,20.4597205 C6.49874874,20.4719453 6.51386168,20.4766528 6.52608653,20.4702349 L10.5009345,18.383482 C11.4395675,17.8907097 12.5604325,17.8907097 13.4990655,18.383482 L17.4739135,20.4702349 C17.4787727,20.4727859 17.4843363,20.4736671 17.4897459,20.4727425 C17.5033557,20.4704164 17.5125029,20.4574978 17.5101768,20.443888 L16.7538525,16.0187408 C16.5752517,14.9737728 16.921618,13.9077669 17.6803259,13.1673489 L20.8932414,10.0318859 C20.8971691,10.0280528 20.8997264,10.0230338 20.9005188,10.0176032 C20.9025121,10.0039407 20.8930525,9.99124914 20.87939,9.98925576 L16.4371079,9.34111724 C15.3880935,9.18806379 14.4812947,8.5292359 14.011569,7.57886009 L12.022412,3.55428454 C12.0199803,3.54936456 12.0159972,3.54538146 12.0110772,3.54294975 C11.9986994,3.53683199 11.9837058,3.54190675 11.977588,3.55428454 Z"
                              id="星形"></path>
                    </g>
                </g>
            </g>
        </g>
    </g>
</svg>