<?xml version="1.0" encoding="UTF-8"?>
<svg width="24px" height="24px" viewBox="0 0 24 24" version="1.1" xmlns="http://www.w3.org/2000/svg"
>
    <title>arrow_right_up_and_square</title>
    <g id="页面-1" stroke="none" stroke-width="1" fill="none" fill-rule="evenodd">
        <g id="播放器" transform="translate(-299, -344)" fill="#FFFFFF">
            <g id="编组-10" transform="translate(16, 328)">
                <g id="编组-9" transform="translate(262, 0)" fill-rule="nonzero">
                    <g id="arrow_right_up_and_square" transform="translate(21, 16)">
                        <rect id="矩形" opacity="0" x="0" y="0" width="24" height="24"></rect>
                        <path d="M11.06,2.26 C11.2733333,2.26 11.45,2.33 11.59,2.47 C11.7366667,2.61666667 11.81,2.79333333 11.81,3 C11.81,3.20666667 11.7366667,3.38333333 11.59,3.53 C11.45,3.67 11.2733333,3.74 11.06,3.74 L6,3.74 C5.37333333,3.74 4.84,3.96 4.4,4.4 C3.96,4.84 3.74,5.37333333 3.74,6 L3.74,18 C3.74,18.6266667 3.96,19.16 4.4,19.6 C4.84,20.04 5.37333333,20.26 6,20.26 L18,20.26 C18.6266667,20.26 19.16,20.04 19.6,19.6 C20.04,19.16 20.26,18.6266667 20.26,18 L20.26,12.89 C20.26,12.6833333 20.33,12.5066667 20.47,12.36 C20.6166667,12.2133333 20.7933333,12.14 21,12.14 C21.2066667,12.14 21.3833333,12.2133333 21.53,12.36 C21.67,12.5066667 21.74,12.6833333 21.74,12.89 L21.74,18 C21.74,18.6733333 21.5733333,19.2966667 21.24,19.87 C20.9066667,20.45 20.45,20.9066667 19.87,21.24 C19.2966667,21.5733333 18.6733333,21.74 18,21.74 L6,21.74 C5.31333333,21.74 4.68,21.5733333 4.1,21.24 C3.52666667,20.9066667 3.07333333,20.45 2.74,19.87 C2.4,19.2966667 2.23,18.6733333 2.23,18 L2.23,6 C2.23,5.32666667 2.4,4.70333333 2.74,4.13 C3.07333333,3.55 3.52666667,3.09333333 4.1,2.76 C4.68,2.42666667 5.31333333,2.26 6,2.26 Z M20.57,2.26 C20.89,2.26 21.1666667,2.37333333 21.4,2.6 C21.6266667,2.83333333 21.74,3.11 21.74,3.43 L21.74,9 C21.74,9.20666667 21.67,9.38333333 21.53,9.53 C21.3833333,9.67 21.2066667,9.74 21,9.74 C20.7933333,9.74 20.6166667,9.67 20.47,9.53 C20.33,9.38333333 20.26,9.20666667 20.26,9 L20.26,4.82 L11.71,13.37 C11.57,13.51 11.3933333,13.58 11.18,13.58 C10.9733333,13.58 10.8,13.51 10.66,13.37 C10.5133333,13.2233333 10.44,13.0466667 10.44,12.84 C10.44,12.6333333 10.5133333,12.4566667 10.66,12.31 L19.2,3.74 L15,3.74 C14.7933333,3.74 14.6166667,3.67 14.47,3.53 C14.33,3.38333333 14.26,3.20666667 14.26,3 C14.26,2.79333333 14.33,2.61666667 14.47,2.47 C14.6166667,2.33 14.7933333,2.26 15,2.26 Z"
                              id="形状结合" fill-opacity="0.897754589"></path>
                    </g>
                </g>
            </g>
        </g>
    </g>
</svg>