<?xml version="1.0" encoding="UTF-8"?>
<svg width="24px" height="24px" viewBox="0 0 24 24" version="1.1" xmlns="http://www.w3.org/2000/svg"
>
    <title>star</title>
    <g id="页面-1" stroke="none" stroke-width="1" fill="none" fill-rule="evenodd">
        <g id="播放器" transform="translate(-168, -344)" fill="#FD603E">
            <g id="编组-10" transform="translate(16, 328)">
                <g id="编组-7" transform="translate(131, 0)" fill-rule="nonzero">
                    <g id="star" transform="translate(21, 16)">
                        <path d="M12.7200163,2.1085839 C13.0398148,2.26664519 13.2987165,2.52554687 13.4567778,2.84534545 L15.4459348,6.869921 C15.6826184,7.34879254 16.1395325,7.68076008 16.6681056,7.75788003 L21.1103877,8.40601855 C21.998448,8.53558845 22.6133259,9.36054067 22.483756,10.2486009 C22.4322539,10.601591 22.2660288,10.9278262 22.0107259,11.1769746 L18.7978105,14.3124376 C18.4155158,14.6855164 18.2409901,15.2226512 18.3309828,15.7491855 L19.0873071,20.1743327 C19.2385045,21.0589675 18.643936,21.8986753 17.7593013,22.0498728 C17.4076727,22.1099714 17.0460382,22.0526941 16.7301911,21.8868777 L12.7553431,19.8001249 C12.2823885,19.5518287 11.7176115,19.5518287 11.2446569,19.8001249 L7.26980893,21.8868777 C6.47519384,22.3040422 5.49285242,21.998058 5.07568796,21.2034429 C4.90987157,20.8875957 4.8525943,20.5259613 4.91269292,20.1743327 L5.66901723,15.7491855 C5.75900987,15.2226512 5.58448421,14.6855164 5.20218954,14.3124376 L1.98927407,11.1769746 C1.34697753,10.5501617 1.3344256,9.52134513 1.96123856,8.87904859 C2.21038697,8.62374568 2.53662212,8.45752058 2.88961227,8.40601855 L7.3318944,7.75788003 C7.86046752,7.68076008 8.31738164,7.34879254 8.55406516,6.869921 L10.5432222,2.84534545 C10.9408762,2.04078929 11.9154601,1.7109299 12.7200163,2.1085839 Z"
                              id="路径"></path>
                    </g>
                </g>
            </g>
        </g>
    </g>
</svg>