<svg width="24.000000" height="24.000000" viewBox="0 0 24 24" fill="none" xmlns="http://www.w3.org/2000/svg" xmlns:xlink="http://www.w3.org/1999/xlink">
	<desc>
			Created with Pixso.
	</desc>
	<defs>
		<clipPath id="clip9_3571">
			<rect id="security_shield" width="24.000000" height="24.000000" fill="white" fill-opacity="0"/>
		</clipPath>
	</defs>
	<g clip-path="url(#clip9_3571)">
		<g opacity="0.000000">
			<rect id="rect" width="24.000000" height="24.000000" fill="#000000" fill-opacity="1.000000"/>
		</g>
		<path id="path" d="M13.13 2.99L18.65 5.2C18.85 5.28 19 5.38 19.1 5.49C19.2 5.6 19.25 5.77 19.27 5.99L19.27 12.36C19.25 13.51 19.02 14.59 18.56 15.59C18.1 16.59 17.41 17.57 16.49 18.54C16.12 18.93 15.68 19.31 15.16 19.67C14.64 20.03 13.96 20.42 13.13 20.86L13.13 23.26C14.57 22.48 15.63 21.87 16.31 21.43C16.99 20.98 17.56 20.51 18.02 20.02C19.11 18.87 19.94 17.7 20.51 16.48C21.07 15.25 21.36 13.92 21.38 12.5L21.38 5.49C21.38 4.93 21.21 4.48 20.89 4.12C20.56 3.77 20.11 3.48 19.54 3.25L13.13 0.73L13.13 2.99ZM4.48 3.25C3.94 3.47 3.5 3.75 3.16 4.11C2.81 4.47 2.64 4.89 2.64 5.37L2.64 12.5C2.65 13.96 2.93 15.3 3.48 16.54C4.04 17.76 4.88 18.92 6 20.02C6.68 20.7 7.3 21.24 7.85 21.62C8.41 22 9.09 22.4 9.89 22.8L10.87 23.26L10.87 20.86C10.03 20.44 9.36 20.04 8.85 19.69C8.34 19.33 7.89 18.95 7.51 18.54C6.58 17.57 5.89 16.59 5.44 15.59C4.98 14.59 4.75 13.51 4.75 12.36L4.75 5.99C4.75 5.79 4.79 5.62 4.88 5.5C4.97 5.38 5.13 5.28 5.35 5.2L10.87 2.99L10.87 0.73L4.48 3.25Z" fill="#000000" fill-opacity="1.000000" fill-rule="nonzero"/>
		<path id="path" d="M10.63 14.76L13.37 14.76L13.37 8.26L10.63 8.26L10.63 14.76Z" fill="#0A59F7" fill-opacity="1.000000" fill-rule="nonzero"/>
	</g>
</svg>
