<?xml version="1.0" encoding="UTF-8"?>
<svg width="24px" height="24px" viewBox="0 0 24 24" version="1.1" xmlns="http://www.w3.org/2000/svg" xmlns:xlink="http://www.w3.org/1999/xlink">
    <title>tab/ic_备份 68</title>
    <g id="页面-1" stroke="none" stroke-width="1" fill="none" fill-rule="evenodd">
        <g id="首页" transform="translate(-90, -1277)" fill="#FA2840">
            <g id="编组-3" transform="translate(0, 1274)">
                <g id="编组" transform="translate(31.0909, 3)">
                    <g id="tab/ic_备份-68" transform="translate(58.0119, 0.312)">
                        <path d="M18.264031,16.6283752 C18.0788389,17.6274792 17.64978,18.5074624 17.0080252,19.2624528 C16.3662704,20.025832 15.6145004,20.6298243 14.7527154,21.066041 C14.679372,21.0995961 14.6151965,21.1415401 14.5418531,21.1750952 C13.7625794,21.5358128 12.9282982,21.7035885 12.0298415,21.6868109 C11.0397055,21.6532558 10.1412487,21.3848147 9.33447127,20.8814878 C8.53686173,20.3865497 7.97761825,19.7070583 7.66590878,18.8514025 C7.24418419,17.6098627 7.3175276,16.4773771 7.89510692,15.4623345 C8.47268625,14.4221255 9.20612031,13.6000248 10.0954091,12.9876437 L10.8746828,12.5010944 C11.6539565,12.014545 13.1327429,11.4894072 13.4141983,10.8753484 C13.6067247,10.4559092 13.0199774,9.17913659 13.0199774,9.17913659 L11.4339263,5.88234516 C11.2505678,5.47129484 11.223064,5.06863329 11.3605829,4.64919418 C11.5164376,4.24653263 11.8098112,3.93614769 12.2407038,3.71803935 L16.045393,1.68795404 C16.4396138,2.16611463 16.6229723,2.66105278 16.5954685,3.18954607 C16.5587968,3.71803935 16.3204307,4.27169897 15.8803703,4.8253586 L15.5869967,5.19446502 C15.2019438,5.67262561 14.9452419,6.02495446 14.7985551,6.25984037 C14.6518682,6.48633749 14.5510211,6.74638974 14.5051814,7.0483859 C14.4868456,7.18260641 14.5235173,7.36715962 14.6060286,7.60204552 C14.6977079,7.83693143 14.807723,8.09698368 14.9452419,8.39897984 L15.0827608,8.69258722 L15.1661889,8.87210716 C15.5255716,9.64974727 15.9427122,10.4064154 16.4533657,11.1093954 C16.8943429,11.7175821 17.5654351,12.7317859 17.8872293,13.4112772 C18.4327208,14.5622181 18.5097314,15.3046254 18.264031,16.6283752" id="Fill-1"></path>
                    </g>
                </g>
            </g>
        </g>
    </g>
</svg>