<svg width="44.000000" height="44.000000" viewBox="0 0 44 44" fill="none" xmlns="http://www.w3.org/2000/svg" xmlns:xlink="http://www.w3.org/1999/xlink">
	<desc>
			Created with Pixso.
	</desc>
	<defs/>
	<path id="合并形状" d="M22.4583 14.6665C21.9634 14.6665 21.4838 14.6011 21.0276 14.4785L10.8746 29.7083C11.7355 30.4333 12.3708 31.418 12.66 32.5415L31.34 32.5415C31.9506 30.1694 34.104 28.4165 36.6667 28.4165C39.7043 28.4165 42.1667 30.8789 42.1667 33.9165C42.1667 36.9541 39.7043 39.4165 36.6667 39.4165C34.104 39.4165 31.9506 37.6638 31.34 35.2915L12.66 35.2915C12.0494 37.6638 9.896 39.4165 7.33325 39.4165C4.29565 39.4165 1.83325 36.9541 1.83325 33.9165C1.83325 30.8789 4.29565 28.4165 7.33325 28.4165C7.68628 28.4165 8.03149 28.4497 8.36609 28.5134L18.6307 13.1162C17.5994 12.1165 16.9583 10.7163 16.9583 9.1665C16.9583 6.12891 19.4207 3.6665 22.4583 3.6665C25.4958 3.6665 27.9583 6.12891 27.9583 9.1665C27.9583 12.2041 25.4958 14.6665 22.4583 14.6665ZM22.4583 11.9165C23.9771 11.9165 25.2083 10.6853 25.2083 9.1665C25.2083 7.64771 23.9771 6.4165 22.4583 6.4165C20.9395 6.4165 19.7083 7.64771 19.7083 9.1665C19.7083 10.6853 20.9395 11.9165 22.4583 11.9165ZM10.0833 33.9165C10.0833 35.4353 8.85205 36.6665 7.33325 36.6665C5.81445 36.6665 4.58325 35.4353 4.58325 33.9165C4.58325 32.3977 5.81445 31.1665 7.33325 31.1665C8.85205 31.1665 10.0833 32.3977 10.0833 33.9165ZM36.6667 36.6665C38.1855 36.6665 39.4167 35.4353 39.4167 33.9165C39.4167 32.3977 38.1855 31.1665 36.6667 31.1665C35.1479 31.1665 33.9167 32.3977 33.9167 33.9165C33.9167 35.4353 35.1479 36.6665 36.6667 36.6665Z" clip-rule="evenodd" fill="#000000" fill-opacity="0.000000" fill-rule="evenodd"/>
	<mask id="mask20_952" mask-type="alpha" maskUnits="userSpaceOnUse" x="1.833252" y="3.666504" width="40.333496" height="35.750061">
		<path id="合并形状" d="M22.4583 14.6665C21.9634 14.6665 21.4838 14.6011 21.0276 14.4785L10.8746 29.7083C11.7355 30.4333 12.3708 31.418 12.66 32.5415L31.34 32.5415C31.9506 30.1694 34.104 28.4165 36.6667 28.4165C39.7043 28.4165 42.1667 30.8789 42.1667 33.9165C42.1667 36.9541 39.7043 39.4165 36.6667 39.4165C34.104 39.4165 31.9506 37.6638 31.34 35.2915L12.66 35.2915C12.0494 37.6638 9.896 39.4165 7.33325 39.4165C4.29565 39.4165 1.83325 36.9541 1.83325 33.9165C1.83325 30.8789 4.29565 28.4165 7.33325 28.4165C7.68628 28.4165 8.03149 28.4497 8.36609 28.5134L18.6307 13.1162C17.5994 12.1165 16.9583 10.7163 16.9583 9.1665C16.9583 6.12891 19.4207 3.6665 22.4583 3.6665C25.4958 3.6665 27.9583 6.12891 27.9583 9.1665C27.9583 12.2041 25.4958 14.6665 22.4583 14.6665ZM22.4583 11.9165C23.9771 11.9165 25.2083 10.6853 25.2083 9.1665C25.2083 7.64771 23.9771 6.4165 22.4583 6.4165C20.9395 6.4165 19.7083 7.64771 19.7083 9.1665C19.7083 10.6853 20.9395 11.9165 22.4583 11.9165ZM10.0833 33.9165C10.0833 35.4353 8.85205 36.6665 7.33325 36.6665C5.81445 36.6665 4.58325 35.4353 4.58325 33.9165C4.58325 32.3977 5.81445 31.1665 7.33325 31.1665C8.85205 31.1665 10.0833 32.3977 10.0833 33.9165ZM36.6667 36.6665C38.1855 36.6665 39.4167 35.4353 39.4167 33.9165C39.4167 32.3977 38.1855 31.1665 36.6667 31.1665C35.1479 31.1665 33.9167 32.3977 33.9167 33.9165C33.9167 35.4353 35.1479 36.6665 36.6667 36.6665Z" clip-rule="evenodd" fill="#C4C4C4" fill-opacity="1.000000" fill-rule="evenodd"/>
	</mask>
	<g mask="url(#mask20_952)">
		<rect id="color/#000000" width="44.000000" height="44.000000" fill="#000000" fill-opacity="1.000000"/>
	</g>
</svg>
