<svg width="48.000000" height="48.000000" viewBox="0 0 48 48" fill="none" xmlns="http://www.w3.org/2000/svg" xmlns:xlink="http://www.w3.org/1999/xlink">
	<desc>
			Created with Pixso.
	</desc>
	<defs/>
	<path id="形状结合" d="M39.0872 25.8643C39.0977 25.8552 39.1083 25.8459 39.1188 25.8369L43.6543 21.4158C44.2056 20.8784 44.5642 20.1746 44.6749 19.4128C44.9529 17.4998 43.6274 15.7239 41.7146 15.4458L32.6869 14.134C32.0355 14.0393 31.4724 13.6301 31.181 13.04L27.1438 4.85962C26.8031 4.16919 26.2444 3.6106 25.5542 3.27002C25.0557 3.02393 24.5269 2.90747 24.0061 2.90771C22.7151 2.90698 21.4731 3.62354 20.8632 4.85962L16.8259 13.04C16.5345 13.6301 15.9714 14.0393 15.3201 14.134L6.29236 15.4458C5.53064 15.5566 4.82666 15.9153 4.28931 16.4663C2.94006 17.8506 2.96838 20.0664 4.35266 21.4158L10.8851 27.7834C11.3564 28.2429 11.5715 28.9048 11.4603 29.5537L9.91821 38.5447C9.78809 39.3035 9.91162 40.0837 10.2699 40.7651C10.8965 41.957 12.1134 42.6377 13.3726 42.6372C13.9221 42.6375 14.4797 42.5078 14.9999 42.2344L21.0933 39.031C24.2192 37.1655 27.238 35.167 30.1495 33.0359C31.3014 32.1929 32.4653 31.3079 33.6415 30.3806L35.1287 39.0518L35.1353 39.1096C35.1488 39.3596 34.9731 39.5857 34.7205 39.6289C34.6121 39.6475 34.5006 39.6299 34.4032 39.5789L29.6439 37.0767C28.7131 37.7246 27.7722 38.3599 26.8209 38.9822L33.0071 42.2344C33.6884 42.5925 34.4688 42.7163 35.2274 42.5862C37.1326 42.2593 38.4121 40.45 38.0853 38.5447L36.5432 29.5537C36.432 28.9048 36.6471 28.2429 37.1184 27.7834L39.0872 25.8643ZM41.3845 18.4412C41.5996 18.5222 41.7373 18.7444 41.7029 18.9812C41.687 19.0898 41.6359 19.1904 41.5571 19.2673L36.9982 23.7109L35.7877 24.7498C33.3098 26.8528 30.8134 28.832 28.3776 30.6147C25.5706 32.6694 22.6609 34.5977 19.6482 36.3994L13.6007 39.5789L13.5876 39.5847L13.4832 39.6228C13.4454 39.6318 13.4072 39.6362 13.3693 39.6362C13.1903 39.6355 13.0177 39.5383 12.9286 39.3689C12.8774 39.2715 12.8597 39.1602 12.8784 39.0518L14.4205 30.0605L14.4398 29.9148L14.4424 29.8982C14.4465 29.8684 14.4503 29.8389 14.4539 29.8091L14.4702 29.6858C14.6122 28.1868 14.0703 26.6951 12.9825 25.6348L6.45007 19.2673L6.36731 19.1616C6.25635 18.9722 6.2804 18.7249 6.44104 18.5603C6.5177 18.4814 6.61829 18.4302 6.72717 18.4143L15.7548 17.1025L15.7808 17.0979L15.9084 17.0771C15.9662 17.0669 16.0234 17.0557 16.0804 17.0435L16.1002 17.04C17.5809 16.7175 18.8431 15.7378 19.5195 14.3674L23.5568 6.18701L23.6316 6.07568C23.7268 5.96851 23.8633 5.90845 24.0039 5.9082C24.0778 5.90845 24.1526 5.92505 24.2233 5.95996C24.2289 5.96265 24.2345 5.96558 24.24 5.96851L24.3002 6.00684C24.3634 6.05396 24.415 6.11548 24.4503 6.18701L28.4877 14.3674L28.5602 14.5088C29.307 15.9082 30.6763 16.8735 32.2523 17.1025L41.2799 18.4143L41.2939 18.4172L41.3845 18.4412Z" clip-rule="evenodd" fill="#000000" fill-opacity="0.000000" fill-rule="evenodd"/>
	<mask id="mask20_1064" mask-type="alpha" maskUnits="userSpaceOnUse" x="3.295654" y="2.907715" width="41.416084" height="39.729446">
		<path id="形状结合" d="M39.0872 25.8643C39.0977 25.8552 39.1083 25.8459 39.1188 25.8369L43.6543 21.4158C44.2056 20.8784 44.5642 20.1746 44.6749 19.4128C44.9529 17.4998 43.6274 15.7239 41.7146 15.4458L32.6869 14.134C32.0355 14.0393 31.4724 13.6301 31.181 13.04L27.1438 4.85962C26.8031 4.16919 26.2444 3.6106 25.5542 3.27002C25.0557 3.02393 24.5269 2.90747 24.0061 2.90771C22.7151 2.90698 21.4731 3.62354 20.8632 4.85962L16.8259 13.04C16.5345 13.6301 15.9714 14.0393 15.3201 14.134L6.29236 15.4458C5.53064 15.5566 4.82666 15.9153 4.28931 16.4663C2.94006 17.8506 2.96838 20.0664 4.35266 21.4158L10.8851 27.7834C11.3564 28.2429 11.5715 28.9048 11.4603 29.5537L9.91821 38.5447C9.78809 39.3035 9.91162 40.0837 10.2699 40.7651C10.8965 41.957 12.1134 42.6377 13.3726 42.6372C13.9221 42.6375 14.4797 42.5078 14.9999 42.2344L21.0933 39.031C24.2192 37.1655 27.238 35.167 30.1495 33.0359C31.3014 32.1929 32.4653 31.3079 33.6415 30.3806L35.1287 39.0518L35.1353 39.1096C35.1488 39.3596 34.9731 39.5857 34.7205 39.6289C34.6121 39.6475 34.5006 39.6299 34.4032 39.5789L29.6439 37.0767C28.7131 37.7246 27.7722 38.3599 26.8209 38.9822L33.0071 42.2344C33.6884 42.5925 34.4688 42.7163 35.2274 42.5862C37.1326 42.2593 38.4121 40.45 38.0853 38.5447L36.5432 29.5537C36.432 28.9048 36.6471 28.2429 37.1184 27.7834L39.0872 25.8643ZM41.3845 18.4412C41.5996 18.5222 41.7373 18.7444 41.7029 18.9812C41.687 19.0898 41.6359 19.1904 41.5571 19.2673L36.9982 23.7109L35.7877 24.7498C33.3098 26.8528 30.8134 28.832 28.3776 30.6147C25.5706 32.6694 22.6609 34.5977 19.6482 36.3994L13.6007 39.5789L13.5876 39.5847L13.4832 39.6228C13.4454 39.6318 13.4072 39.6362 13.3693 39.6362C13.1903 39.6355 13.0177 39.5383 12.9286 39.3689C12.8774 39.2715 12.8597 39.1602 12.8784 39.0518L14.4205 30.0605L14.4398 29.9148L14.4424 29.8982C14.4465 29.8684 14.4503 29.8389 14.4539 29.8091L14.4702 29.6858C14.6122 28.1868 14.0703 26.6951 12.9825 25.6348L6.45007 19.2673L6.36731 19.1616C6.25635 18.9722 6.2804 18.7249 6.44104 18.5603C6.5177 18.4814 6.61829 18.4302 6.72717 18.4143L15.7548 17.1025L15.7808 17.0979L15.9084 17.0771C15.9662 17.0669 16.0234 17.0557 16.0804 17.0435L16.1002 17.04C17.5809 16.7175 18.8431 15.7378 19.5195 14.3674L23.5568 6.18701L23.6316 6.07568C23.7268 5.96851 23.8633 5.90845 24.0039 5.9082C24.0778 5.90845 24.1526 5.92505 24.2233 5.95996C24.2289 5.96265 24.2345 5.96558 24.24 5.96851L24.3002 6.00684C24.3634 6.05396 24.415 6.11548 24.4503 6.18701L28.4877 14.3674L28.5602 14.5088C29.307 15.9082 30.6763 16.8735 32.2523 17.1025L41.2799 18.4143L41.2939 18.4172L41.3845 18.4412Z" clip-rule="evenodd" fill="#C4C4C4" fill-opacity="1.000000" fill-rule="evenodd"/>
	</mask>
	<g mask="url(#mask20_1064)">
		<rect id="color/#000000" width="48.000000" height="48.000000" fill="#000000" fill-opacity="1.000000"/>
	</g>
</svg>
