<svg width="48.000000" height="48.000000" viewBox="0 0 48 48" fill="none" xmlns="http://www.w3.org/2000/svg" xmlns:xlink="http://www.w3.org/1999/xlink">
	<desc>
			Created with Pixso.
	</desc>
	<defs/>
	<rect width="48.000000" height="48.000000" fill="#FFCCCC" fill-opacity="0"/>
	<path d="M31.5 6C39.42 6 45.87 12.36 45.99 20.26L46 20.5L46 21C46 28.92 39.63 35.37 31.73 35.49L31.5 35.5L27.62 35.5L19.56 43.56C18.99 44.12 18.1 44.14 17.51 43.62L17.43 43.56C16.87 42.99 16.85 42.1 17.37 41.51L17.43 41.43L25.93 32.93C26.19 32.68 26.53 32.52 26.9 32.5L27 32.5L31.5 32.5C37.78 32.5 42.89 27.45 42.99 21.19L43 21L43 20.5C43 14.21 37.95 9.1 31.69 9L31.5 9L16.5 9C10.21 9 5.1 14.04 5 20.3L5 20.5L5 21C5 27.28 10.04 32.39 16.3 32.49L16.5 32.5L18.5 32.5C19.32 32.5 20 33.17 20 34C20 34.79 19.37 35.45 18.58 35.49L18.5 35.5L16.5 35.5C8.57 35.5 2.13 29.13 2 21.23L2 21L2 20.5C2 12.57 8.36 6.13 16.26 6L16.5 6L31.5 6Z" fill="#000000" fill-opacity="0" fill-rule="evenodd"/>
	<mask id="mask1_219" mask-type="alpha" maskUnits="userSpaceOnUse" x="2.000000" y="6.000000" width="44.000000" height="38.000000">
		<path d="M31.5 6C39.42 6 45.87 12.36 45.99 20.26L46 20.5L46 21C46 28.92 39.63 35.37 31.73 35.49L31.5 35.5L27.62 35.5L19.56 43.56C18.99 44.12 18.1 44.14 17.51 43.62L17.43 43.56C16.87 42.99 16.85 42.1 17.37 41.51L17.43 41.43L25.93 32.93C26.19 32.68 26.53 32.52 26.9 32.5L27 32.5L31.5 32.5C37.78 32.5 42.89 27.45 42.99 21.19L43 21L43 20.5C43 14.21 37.95 9.1 31.69 9L31.5 9L16.5 9C10.21 9 5.1 14.04 5 20.3L5 20.5L5 21C5 27.28 10.04 32.39 16.3 32.49L16.5 32.5L18.5 32.5C19.32 32.5 20 33.17 20 34C20 34.79 19.37 35.45 18.58 35.49L18.5 35.5L16.5 35.5C8.57 35.5 2.13 29.13 2 21.23L2 21L2 20.5C2 12.57 8.36 6.13 16.26 6L16.5 6L31.5 6Z" fill="#C4C4C4" fill-opacity="1.000000" fill-rule="evenodd"/>
	</mask>
	<g mask="url(#mask1_219)">
		<rect width="48.000000" height="48.000000" fill="#000000" fill-opacity="1.000000"/>
	</g>
</svg>
