<svg width="28.000000" height="28.000000" viewBox="0 0 28 28" fill="none" xmlns="http://www.w3.org/2000/svg" xmlns:xlink="http://www.w3.org/1999/xlink">
	<desc>
			Created with Pixso.
	</desc>
	<defs/>
	<path id="形状结合" d="M14.0038 2.3335C11.4265 2.3335 9.33716 4.42285 9.33716 7.00018L9.33716 13.1252C9.33716 15.7025 11.4265 17.7918 14.0038 17.7918C16.5812 17.7918 18.6705 15.7025 18.6705 13.1252L18.6705 7.00018C18.6705 4.42285 16.5812 2.3335 14.0038 2.3335ZM14.0036 4.08368C15.6144 4.08368 16.9203 5.38953 16.9203 7.00037L16.9203 13.1254C16.9203 14.7362 15.6144 16.042 14.0036 16.042C12.3928 16.042 11.0869 14.7362 11.0869 13.1254L11.0869 7.00037C11.0869 5.38953 12.3928 4.08368 14.0036 4.08368ZM21.8751 12.2502C22.3584 12.2502 22.7501 12.642 22.7501 13.1252C22.7501 17.6624 19.2968 21.393 14.8751 21.832L14.8751 24.7917C14.8751 25.275 14.4834 25.6667 14.0001 25.6667C13.5341 25.6667 13.1532 25.3024 13.1266 24.8431L13.1251 24.7917L13.1251 21.832C8.70349 21.393 5.25012 17.6624 5.25012 13.1252C5.25012 12.642 5.64185 12.2502 6.12512 12.2502C6.6084 12.2502 7.00012 12.642 7.00012 13.1252C7.00012 16.9852 10.1244 20.1155 13.9821 20.1252C13.9881 20.1251 13.9941 20.125 14.0001 20.125C14.0062 20.125 14.0121 20.1251 14.0181 20.1252C17.8759 20.1155 21.0001 16.9852 21.0001 13.1252C21.0001 12.642 21.3918 12.2502 21.8751 12.2502Z" clip-rule="evenodd" fill="#000000" fill-opacity="0.000000" fill-rule="evenodd"/>
	<mask id="mask33_1023" mask-type="alpha" maskUnits="userSpaceOnUse" x="5.250122" y="2.333496" width="17.500000" height="23.333189">
		<path id="形状结合" d="M14.0038 2.3335C11.4265 2.3335 9.33716 4.42285 9.33716 7.00018L9.33716 13.1252C9.33716 15.7025 11.4265 17.7918 14.0038 17.7918C16.5812 17.7918 18.6705 15.7025 18.6705 13.1252L18.6705 7.00018C18.6705 4.42285 16.5812 2.3335 14.0038 2.3335ZM14.0036 4.08368C15.6144 4.08368 16.9203 5.38953 16.9203 7.00037L16.9203 13.1254C16.9203 14.7362 15.6144 16.042 14.0036 16.042C12.3928 16.042 11.0869 14.7362 11.0869 13.1254L11.0869 7.00037C11.0869 5.38953 12.3928 4.08368 14.0036 4.08368ZM21.8751 12.2502C22.3584 12.2502 22.7501 12.642 22.7501 13.1252C22.7501 17.6624 19.2968 21.393 14.8751 21.832L14.8751 24.7917C14.8751 25.275 14.4834 25.6667 14.0001 25.6667C13.5341 25.6667 13.1532 25.3024 13.1266 24.8431L13.1251 24.7917L13.1251 21.832C8.70349 21.393 5.25012 17.6624 5.25012 13.1252C5.25012 12.642 5.64185 12.2502 6.12512 12.2502C6.6084 12.2502 7.00012 12.642 7.00012 13.1252C7.00012 16.9852 10.1244 20.1155 13.9821 20.1252C13.9881 20.1251 13.9941 20.125 14.0001 20.125C14.0062 20.125 14.0121 20.1251 14.0181 20.1252C17.8759 20.1155 21.0001 16.9852 21.0001 13.1252C21.0001 12.642 21.3918 12.2502 21.8751 12.2502Z" clip-rule="evenodd" fill="#C4C4C4" fill-opacity="1.000000" fill-rule="evenodd"/>
	</mask>
	<g mask="url(#mask33_1023)">
		<rect id="color/#000000" width="28.000000" height="28.000000" fill="#000000" fill-opacity="1.000000"/>
	</g>
</svg>
