<svg width="44.000000" height="44.000000" viewBox="0 0 44 44" fill="none" xmlns="http://www.w3.org/2000/svg" xmlns:xlink="http://www.w3.org/1999/xlink">
	<desc>
			Created with Pixso.
	</desc>
	<defs/>
	<rect id="Public/ic_public_input_search" width="44.000000" height="44.000008" fill="#FFCCCC" fill-opacity="0"/>
	<path id="形状" d="M19.0207 3.66699C27.5006 3.66699 34.3749 10.5413 34.3749 19.0212C34.3749 22.5647 33.1745 25.8279 31.1581 28.4263L30.7638 28.9136C30.5714 29.1418 30.3726 29.3643 30.1674 29.5806L29.9178 29.8381L29.5881 30.1604L29.3431 30.3879L28.7223 30.9226L28.3807 31.1934C25.7898 33.1887 22.5438 34.3752 19.0207 34.3752C10.5409 34.3752 3.66656 27.501 3.66656 19.0212C3.66656 10.5413 10.5409 3.66699 19.0207 3.66699ZM7.33356 19.0208C7.33356 12.5659 12.5662 7.33325 19.0211 7.33325C25.4759 7.33325 30.7086 12.5659 30.7086 19.0208C30.7086 25.4756 25.4759 30.7083 19.0211 30.7083C12.5662 30.7083 7.33356 25.4756 7.33356 19.0208ZM38.1576 35.7939L32.2984 29.9355C31.5199 30.8816 30.6424 31.7427 29.6816 32.5034L35.5649 38.3867C36.2809 39.1028 37.4417 39.1028 38.1576 38.3867C38.8736 37.6709 38.8736 36.51 38.1576 35.7939Z" clip-rule="evenodd" fill="#000000" fill-opacity="0.000000" fill-rule="evenodd"/>
	<mask id="mask20_1130" mask-type="alpha" maskUnits="userSpaceOnUse" x="3.666565" y="3.666992" width="35.028046" height="35.256756">
		<path id="形状" d="M19.0207 3.66699C27.5006 3.66699 34.3749 10.5413 34.3749 19.0212C34.3749 22.5647 33.1745 25.8279 31.1581 28.4263L30.7638 28.9136C30.5714 29.1418 30.3726 29.3643 30.1674 29.5806L29.9178 29.8381L29.5881 30.1604L29.3431 30.3879L28.7223 30.9226L28.3807 31.1934C25.7898 33.1887 22.5438 34.3752 19.0207 34.3752C10.5409 34.3752 3.66656 27.501 3.66656 19.0212C3.66656 10.5413 10.5409 3.66699 19.0207 3.66699ZM7.33356 19.0208C7.33356 12.5659 12.5662 7.33325 19.0211 7.33325C25.4759 7.33325 30.7086 12.5659 30.7086 19.0208C30.7086 25.4756 25.4759 30.7083 19.0211 30.7083C12.5662 30.7083 7.33356 25.4756 7.33356 19.0208ZM38.1576 35.7939L32.2984 29.9355C31.5199 30.8816 30.6424 31.7427 29.6816 32.5034L35.5649 38.3867C36.2809 39.1028 37.4417 39.1028 38.1576 38.3867C38.8736 37.6709 38.8736 36.51 38.1576 35.7939Z" clip-rule="evenodd" fill="#C4C4C4" fill-opacity="1.000000" fill-rule="evenodd"/>
	</mask>
	<g mask="url(#mask20_1130)">
		<rect id="color/#000000" width="44.000008" height="44.000008" fill="#000000" fill-opacity="1.000000"/>
	</g>
</svg>
