<svg width="48.000000" height="48.000000" viewBox="0 0 48 48" fill="none" xmlns="http://www.w3.org/2000/svg" xmlns:xlink="http://www.w3.org/1999/xlink">
	<desc>
			Created with Pixso.
	</desc>
	<defs>
		<clipPath id="clip14_3667">
			<rect id="like" width="48.000000" height="48.000000" fill="white" fill-opacity="0"/>
		</clipPath>
	</defs>
	<g clip-path="url(#clip14_3667)">
		<path id="dislike" d="M33.44 42C37.88 42 40.73 40.72 41.64 37.96C42.53 35.26 43.55 30.81 43.88 27.23L43.93 26.61L43.98 25.47C44.13 20.64 42.82 17.61 39.29 17.61L27.87 17.61L28 17.22C29.16 13.49 29.63 10.62 29.35 8.54C28.82 4.55 25.63 1.17 22.63 2.17L22.29 2.3C20.84 2.95 20.36 4.06 19.9 6.69L19.47 9.29L19.34 9.89C19.13 10.8 18.88 11.56 18.55 12.21C17.48 14.37 15.95 16.24 13.96 17.81L8.46 17.81C6 17.81 4 19.81 4 22.28L4 37.52C4 39.99 6 41.99 8.46 41.99L14.69 42L33.44 42ZM33.44 39.21L16.09 39.21L16.09 19.67L17.05 18.82C18.72 17.26 20.05 15.47 21.05 13.46C21.4 12.75 21.67 12 21.9 11.16L22.14 10.16L22.3 9.31L22.67 7.07L22.87 6.1L22.95 5.78C23.12 5.19 23.27 4.92 23.43 4.85C24.37 4.43 26.25 6.35 26.59 8.9C26.81 10.63 26.32 13.43 25.06 17.22C24.96 17.54 24.92 17.89 24.95 18.23C25.09 19.55 26.27 20.52 27.59 20.4L39.29 20.4C40.64 20.61 41.47 22.85 41.1 26.98C40.79 30.33 39.82 34.57 38.99 37.08L38.76 37.56C38.09 38.62 36.39 39.21 33.44 39.21ZM13.29 39.2L8.46 39.2C7.54 39.2 6.79 38.45 6.79 37.52L6.79 22.28C6.92 21.48 7.63 20.6 8.46 20.6L13.29 20.6L13.29 39.2Z" fill="#000000" fill-opacity="1.000000" fill-rule="evenodd"/>
		<path id="dislike" d="M41.64 37.96C42.53 35.26 43.55 30.81 43.88 27.23L43.93 26.61L43.98 25.47C44.13 20.64 42.82 17.61 39.29 17.61L27.87 17.61L28 17.22C29.16 13.49 29.63 10.62 29.35 8.54C28.82 4.55 25.63 1.17 22.63 2.17L22.29 2.3C20.84 2.95 20.36 4.06 19.9 6.69L19.47 9.29L19.34 9.89C19.13 10.8 18.88 11.56 18.55 12.21C17.48 14.37 15.95 16.24 13.96 17.81L8.46 17.81C6 17.81 4 19.81 4 22.28L4 37.52C4 39.99 6 41.99 8.46 41.99L14.69 42L33.44 42C37.88 42 40.73 40.72 41.64 37.96ZM16.09 39.21L16.09 19.67L17.05 18.82C18.72 17.26 20.05 15.47 21.05 13.46C21.4 12.75 21.67 12 21.9 11.16L22.14 10.16L22.3 9.31L22.67 7.07L22.87 6.1L22.95 5.78C23.12 5.19 23.27 4.92 23.43 4.85C24.37 4.43 26.25 6.35 26.59 8.9C26.81 10.63 26.32 13.43 25.06 17.22C24.96 17.54 24.92 17.89 24.95 18.23C25.09 19.55 26.27 20.52 27.59 20.4L39.29 20.4C40.64 20.61 41.47 22.85 41.1 26.98C40.79 30.33 39.82 34.57 38.99 37.08L38.76 37.56C38.09 38.62 36.39 39.21 33.44 39.21L16.09 39.21ZM8.46 39.2C7.54 39.2 6.79 38.45 6.79 37.52L6.79 22.28C6.92 21.48 7.63 20.6 8.46 20.6L13.29 20.6L13.29 39.2L8.46 39.2Z" stroke="#000000" stroke-opacity="0" stroke-width="1.000000"/>
	</g>
</svg>
