<svg width="48.000000" height="48.000000" viewBox="0 0 48 48" fill="none" xmlns="http://www.w3.org/2000/svg" xmlns:xlink="http://www.w3.org/1999/xlink">
	<desc>
			Created with Pixso.
	</desc>
	<defs/>
	<rect width="48.000000" height="48.000000" fill="#FFCCCC" fill-opacity="0"/>
	<path d="M25.549 3.2699C26.2393 3.6106 26.7979 4.16931 27.1386 4.8595L31.1759 13.0399C31.4672 13.6302 32.0303 14.0394 32.6818 14.134L41.7094 15.4458C43.6223 15.7238 44.9477 17.4999 44.6697 19.4127C44.5591 20.1744 44.2003 20.8785 43.6492 21.4158L39.1087 25.8416C36.0426 28.5081 33.0545 30.9064 30.1445 33.0364C27.2351 35.1659 24.2187 37.1628 21.0953 39.0272L14.9948 42.2344C13.2838 43.1339 11.1676 42.4761 10.2681 40.7651C9.90991 40.0839 9.78632 39.3035 9.91644 38.5448L11.4586 29.5536C11.5698 28.9048 11.3547 28.2428 10.8834 27.7833L4.35086 21.4158C2.96667 20.0665 2.93835 17.8506 4.28763 16.4664C4.82489 15.9153 5.5289 15.5565 6.29062 15.4458L15.3183 14.134C15.9697 14.0394 16.5328 13.6302 16.8242 13.0399L20.8615 4.8595C21.7169 3.1261 23.8156 2.41443 25.549 3.2699ZM26.7056 38.9225L33.0053 42.2344C33.6866 42.5927 34.467 42.7162 35.2256 42.5861C37.1308 42.2593 38.4104 40.45 38.0836 38.5448L36.5415 29.5536C36.4302 28.9048 36.6453 28.2428 37.1167 27.7833L37.9331 26.9875C36.7025 28.0016 35.7897 28.718 35.5001 29.0004C35.5001 29.0004 31.5568 34.7361 26.7056 38.9225Z" clip-rule="evenodd" fill="#000000" fill-opacity="0.000000" fill-rule="evenodd"/>
	<mask id="mask1_185" mask-type="alpha" maskUnits="userSpaceOnUse" x="3.293915" y="2.907715" width="41.412666" height="39.729446">
		<path d="M25.549 3.2699C26.2393 3.6106 26.7979 4.16931 27.1386 4.8595L31.1759 13.0399C31.4672 13.6302 32.0303 14.0394 32.6818 14.134L41.7094 15.4458C43.6223 15.7238 44.9477 17.4999 44.6697 19.4127C44.5591 20.1744 44.2003 20.8785 43.6492 21.4158L39.1087 25.8416C36.0426 28.5081 33.0545 30.9064 30.1445 33.0364C27.2351 35.1659 24.2187 37.1628 21.0953 39.0272L14.9948 42.2344C13.2838 43.1339 11.1676 42.4761 10.2681 40.7651C9.90991 40.0839 9.78632 39.3035 9.91644 38.5448L11.4586 29.5536C11.5698 28.9048 11.3547 28.2428 10.8834 27.7833L4.35086 21.4158C2.96667 20.0665 2.93835 17.8506 4.28763 16.4664C4.82489 15.9153 5.5289 15.5565 6.29062 15.4458L15.3183 14.134C15.9697 14.0394 16.5328 13.6302 16.8242 13.0399L20.8615 4.8595C21.7169 3.1261 23.8156 2.41443 25.549 3.2699ZM26.7056 38.9225L33.0053 42.2344C33.6866 42.5927 34.467 42.7162 35.2256 42.5861C37.1308 42.2593 38.4104 40.45 38.0836 38.5448L36.5415 29.5536C36.4302 28.9048 36.6453 28.2428 37.1167 27.7833L37.9331 26.9875C36.7025 28.0016 35.7897 28.718 35.5001 29.0004C35.5001 29.0004 31.5568 34.7361 26.7056 38.9225Z" clip-rule="evenodd" fill="#C4C4C4" fill-opacity="1.000000" fill-rule="evenodd"/>
	</mask>
	<g mask="url(#mask1_185)">
		<rect width="48.000000" height="48.000000" fill="#F7CE00" fill-opacity="1.000000"/>
	</g>
</svg>
