<svg width="28.000000" height="28.000000" viewBox="0 0 28 28" fill="none" xmlns="http://www.w3.org/2000/svg" xmlns:xlink="http://www.w3.org/1999/xlink">
	<desc>
			Created with Pixso.
	</desc>
	<defs/>
	<rect id="Public/ic_public_edit_filled" width="28.000000" height="28.000000" fill="#FFCCCC" fill-opacity="0"/>
	<path id="形状结合" d="M26.0529 2.18286L25.8171 1.94727C25.4266 1.55664 24.7935 1.55664 24.403 1.94727L13.0303 13.3198C12.6398 13.7104 12.6398 14.3435 13.0303 14.7341L13.266 14.9697C13.6565 15.3604 14.2897 15.3604 14.6802 14.9697L26.0529 3.59717C26.4434 3.20654 26.4434 2.57349 26.0529 2.18286ZM22.2726 2.42749C21.5503 2.3335 20.6097 2.3335 19.2665 2.3335L8.73315 2.3335C6.49292 2.3335 5.3728 2.3335 4.51721 2.76929C3.76453 3.15283 3.15259 3.76489 2.76917 4.51758C2.33313 5.37305 2.33313 6.49316 2.33313 8.7334L2.33313 19.2668C2.33313 21.5071 2.33313 22.627 2.76904 23.4827C3.15259 24.2354 3.76453 24.8472 4.51721 25.2307C5.3728 25.6667 6.49292 25.6667 8.73315 25.6667L19.2665 25.6667C21.5067 25.6667 22.6268 25.6667 23.4824 25.2307C24.2351 24.8472 24.847 24.2354 25.2305 23.4827C25.6665 22.627 25.6665 21.5071 25.6665 19.2668L25.6665 8.7334C25.6665 7.39014 25.6665 6.44946 25.5725 5.72729L24.1648 7.13501C24.1665 7.34668 24.1665 7.57837 24.1665 7.8335L24.1665 20.1667C24.1665 21.5669 24.1665 22.2668 23.8939 22.8018C23.6543 23.2722 23.2719 23.6545 22.8014 23.8943C22.2666 24.1667 21.5667 24.1667 20.1665 24.1667L7.83313 24.1667C6.43298 24.1667 5.73291 24.1667 5.19812 23.8943C4.72778 23.6545 4.34534 23.2722 4.10559 22.8018C3.83313 22.2668 3.83313 21.5669 3.83313 20.1667L3.83313 7.8335C3.83313 6.43335 3.83313 5.73315 4.10559 5.19849C4.34534 4.72803 4.72778 4.3457 5.19812 4.10596C5.73291 3.8335 6.43298 3.8335 7.83313 3.8335L20.1665 3.8335C20.4214 3.8335 20.6532 3.8335 20.865 3.83496L22.2726 2.42749Z" clip-rule="evenodd" fill="#000000" fill-opacity="0.000000" fill-rule="evenodd"/>
	<mask id="mask20_1210" mask-type="alpha" maskUnits="userSpaceOnUse" x="2.333130" y="1.654297" width="24.012583" height="24.012459">
		<path id="形状结合" d="M26.0529 2.18286L25.8171 1.94727C25.4266 1.55664 24.7935 1.55664 24.403 1.94727L13.0303 13.3198C12.6398 13.7104 12.6398 14.3435 13.0303 14.7341L13.266 14.9697C13.6565 15.3604 14.2897 15.3604 14.6802 14.9697L26.0529 3.59717C26.4434 3.20654 26.4434 2.57349 26.0529 2.18286ZM22.2726 2.42749C21.5503 2.3335 20.6097 2.3335 19.2665 2.3335L8.73315 2.3335C6.49292 2.3335 5.3728 2.3335 4.51721 2.76929C3.76453 3.15283 3.15259 3.76489 2.76917 4.51758C2.33313 5.37305 2.33313 6.49316 2.33313 8.7334L2.33313 19.2668C2.33313 21.5071 2.33313 22.627 2.76904 23.4827C3.15259 24.2354 3.76453 24.8472 4.51721 25.2307C5.3728 25.6667 6.49292 25.6667 8.73315 25.6667L19.2665 25.6667C21.5067 25.6667 22.6268 25.6667 23.4824 25.2307C24.2351 24.8472 24.847 24.2354 25.2305 23.4827C25.6665 22.627 25.6665 21.5071 25.6665 19.2668L25.6665 8.7334C25.6665 7.39014 25.6665 6.44946 25.5725 5.72729L24.1648 7.13501C24.1665 7.34668 24.1665 7.57837 24.1665 7.8335L24.1665 20.1667C24.1665 21.5669 24.1665 22.2668 23.8939 22.8018C23.6543 23.2722 23.2719 23.6545 22.8014 23.8943C22.2666 24.1667 21.5667 24.1667 20.1665 24.1667L7.83313 24.1667C6.43298 24.1667 5.73291 24.1667 5.19812 23.8943C4.72778 23.6545 4.34534 23.2722 4.10559 22.8018C3.83313 22.2668 3.83313 21.5669 3.83313 20.1667L3.83313 7.8335C3.83313 6.43335 3.83313 5.73315 4.10559 5.19849C4.34534 4.72803 4.72778 4.3457 5.19812 4.10596C5.73291 3.8335 6.43298 3.8335 7.83313 3.8335L20.1665 3.8335C20.4214 3.8335 20.6532 3.8335 20.865 3.83496L22.2726 2.42749Z" clip-rule="evenodd" fill="#C4C4C4" fill-opacity="1.000000" fill-rule="evenodd"/>
	</mask>
	<g mask="url(#mask20_1210)">
		<rect id="color/#000000" width="28.000000" height="28.000000" fill="#000000" fill-opacity="1.000000"/>
	</g>
</svg>
