<svg width="80.000000" height="80.000000" viewBox="0 0 80 80" fill="none" xmlns="http://www.w3.org/2000/svg" xmlns:xlink="http://www.w3.org/1999/xlink">
	<desc>
			Created with Pixso.
	</desc>
	<defs>
		<clipPath id="clip115_9611">
			<rect width="80.000000" height="80.000000" fill="white" fill-opacity="0"/>
		</clipPath>
	</defs>
	<g clip-path="url(#clip115_9611)">
		<g opacity="0.150000">
			<path d="M12.38 64.72L12.38 66.03C12.38 66.83 13 67.48 13.79 67.53L13.89 67.54L66.29 67.54C67.09 67.54 67.74 66.92 67.8 66.13L67.8 66.03L67.8 64.9C69.22 65.47 70 66.1 70 66.75C70 67.54 68.87 68.29 66.85 68.95L66.42 69.09L65.96 69.22L65.48 69.35L64.98 69.48L64.46 69.6C64.37 69.63 64.28 69.65 64.18 69.67L63.63 69.79L63.04 69.91L62.44 70.02L61.82 70.13C61.61 70.17 61.39 70.21 61.17 70.24L60.51 70.35L59.82 70.45L59.12 70.55L58.4 70.64L57.66 70.73L56.9 70.82L56.13 70.91L55.34 70.99L54.53 71.06L53.71 71.14L52.88 71.2L52.02 71.27L51.16 71.33L50.28 71.38L49.39 71.44L48.48 71.48L47.57 71.52L46.64 71.56L45.7 71.59L44.75 71.62L43.31 71.66L42.33 71.67L41.35 71.68L40.36 71.69L39.36 71.69L38.37 71.68L37.39 71.67L36.42 71.66L35.45 71.63L34.5 71.61L33.55 71.58L32.62 71.54L31.7 71.5L30.79 71.46L29.89 71.41L29 71.36L28.13 71.3L27.27 71.24L26.43 71.17L25.6 71.1L24.78 71.03L23.99 70.95L23.2 70.87L22.44 70.78C22.31 70.76 22.19 70.75 22.06 70.73L21.32 70.64L20.6 70.55L19.9 70.45L19.22 70.35L18.55 70.24C18.44 70.22 18.33 70.21 18.23 70.19L17.59 70.08C17.49 70.06 17.39 70.04 17.28 70.02L16.68 69.91L16.1 69.79L15.54 69.67C15.45 69.65 15.36 69.63 15.27 69.6L14.74 69.48L14.24 69.35L13.76 69.22L13.31 69.09L12.88 68.95C10.86 68.29 9.72 67.54 9.72 66.75C9.72 66.08 10.54 65.44 12.01 64.86L12.38 64.72Z" fill="#A1A7B3" fill-opacity="1.000000" fill-rule="evenodd"/>
			<path d="M12.38 66.03C12.38 66.83 13 67.48 13.79 67.53L13.89 67.54L66.29 67.54C67.09 67.54 67.74 66.92 67.8 66.13L67.8 66.03L67.8 64.9C69.22 65.47 70 66.1 70 66.75C70 67.54 68.87 68.29 66.85 68.95L66.42 69.09L65.96 69.22L65.48 69.35L64.98 69.48L64.46 69.6C64.37 69.63 64.28 69.65 64.18 69.67L63.63 69.79L63.04 69.91L62.44 70.02L61.82 70.13C61.61 70.17 61.39 70.21 61.17 70.24L60.51 70.35L59.82 70.45L59.12 70.55L58.4 70.64L57.66 70.73L56.9 70.82L56.13 70.91L55.34 70.99L54.53 71.06L53.71 71.14L52.88 71.2L52.02 71.27L51.16 71.33L50.28 71.38L49.39 71.44L48.48 71.48L47.57 71.52L46.64 71.56L45.7 71.59L44.75 71.62L43.31 71.66L42.33 71.67L41.35 71.68L40.36 71.69L39.36 71.69L38.37 71.68L37.39 71.67L36.42 71.66L35.45 71.63L34.5 71.61L33.55 71.58L32.62 71.54L31.7 71.5L30.79 71.46L29.89 71.41L29 71.36L28.13 71.3L27.27 71.24L26.43 71.17L25.6 71.1L24.78 71.03L23.99 70.95L23.2 70.87L22.44 70.78C22.31 70.76 22.19 70.75 22.06 70.73L21.32 70.64L20.6 70.55L19.9 70.45L19.22 70.35L18.55 70.24C18.44 70.22 18.33 70.21 18.23 70.19L17.59 70.08C17.49 70.06 17.39 70.04 17.28 70.02L16.68 69.91L16.1 69.79L15.54 69.67C15.45 69.65 15.36 69.63 15.27 69.6L14.74 69.48L14.24 69.35L13.76 69.22L13.31 69.09L12.88 68.95C10.86 68.29 9.72 67.54 9.72 66.75C9.72 66.08 10.54 65.44 12.01 64.86L12.38 64.72L12.38 66.03Z" stroke="#000000" stroke-opacity="0" stroke-width="1.000000"/>
		</g>
		<g opacity="0.400000">
			<path d="M54.19 33.37C54.6 33.37 54.99 33.54 55.28 33.83L67.62 48.18C67.72 48.3 67.78 48.44 67.8 48.6L67.8 48.69L67.8 66.03C67.8 66.86 67.13 67.54 66.29 67.54L13.89 67.54C13.06 67.54 12.38 66.86 12.38 66.03L12.38 48.69C12.38 48.53 12.42 48.37 12.52 48.24L24.64 33.91C24.9 33.59 25.29 33.4 25.7 33.37L25.79 33.37L54.19 33.37ZM51.99 33.96L28.02 33.96L27.93 33.97C27.54 33.99 27.17 34.17 26.91 34.46L26.83 34.55L16.64 47.64C16.44 47.94 16.45 48.39 16.71 48.64L16.82 48.73C16.92 48.8 17.03 48.84 17.15 48.85L17.23 48.86L24.02 48.86L24.02 54.09C24.02 54.68 24.47 55.16 25.05 55.21L25.15 55.22L56.44 55.22C57.03 55.22 57.52 54.76 57.57 54.18L57.57 54.09L57.57 48.86L62.95 48.86C63.34 48.83 63.7 48.5 63.7 48.1C63.7 47.97 63.67 47.83 63.6 47.72L63.54 47.63L53.17 34.54C52.92 34.25 52.5 34 52.12 33.97L51.99 33.96Z" fill="#A1A7B3" fill-opacity="1.000000" fill-rule="evenodd"/>
			<path d="M55.28 33.83L67.62 48.18C67.72 48.3 67.78 48.44 67.8 48.6L67.8 48.69L67.8 66.03C67.8 66.86 67.13 67.54 66.29 67.54L13.89 67.54C13.06 67.54 12.38 66.86 12.38 66.03L12.38 48.69C12.38 48.53 12.42 48.37 12.52 48.24L24.64 33.91C24.9 33.59 25.29 33.4 25.7 33.37L25.79 33.37L54.19 33.37C54.6 33.37 54.99 33.54 55.28 33.83ZM28.02 33.96L27.93 33.97C27.54 33.99 27.17 34.17 26.91 34.46L26.83 34.55L16.64 47.64C16.44 47.94 16.45 48.39 16.71 48.64L16.82 48.73C16.92 48.8 17.03 48.84 17.15 48.85L17.23 48.86L24.02 48.86L24.02 54.09C24.02 54.68 24.47 55.16 25.05 55.21L25.15 55.22L56.44 55.22C57.03 55.22 57.52 54.76 57.57 54.18L57.57 54.09L57.57 48.86L62.95 48.86C63.34 48.83 63.7 48.5 63.7 48.1C63.7 47.97 63.67 47.83 63.6 47.72L63.54 47.63L53.17 34.54C52.92 34.25 52.5 34 52.12 33.97L51.99 33.96L28.02 33.96Z" stroke="#000000" stroke-opacity="0" stroke-width="1.000000"/>
		</g>
		<g opacity="0.600000">
			<path d="M51.99 33.96C52.42 33.96 52.83 34.15 53.12 34.47L63.54 47.63C63.65 47.77 63.7 47.93 63.7 48.1C63.7 48.5 63.39 48.83 63 48.85L57.57 48.86L57.57 54.09C57.57 54.71 57.07 55.22 56.44 55.22L25.15 55.22C24.53 55.22 24.02 54.71 24.02 54.09L24.02 48.86L17.23 48.86C17.09 48.86 16.94 48.81 16.82 48.73C16.51 48.49 16.39 48.01 16.6 47.69L26.83 34.55C27.1 34.2 27.5 33.99 27.93 33.97L28.02 33.96L51.99 33.96Z" fill="#A1A7B3" fill-opacity="1.000000" fill-rule="evenodd"/>
			<path d="M53.12 34.47L63.54 47.63C63.65 47.77 63.7 47.93 63.7 48.1C63.7 48.5 63.39 48.83 63 48.85L57.57 48.86L57.57 54.09C57.57 54.71 57.07 55.22 56.44 55.22L25.15 55.22C24.53 55.22 24.02 54.71 24.02 54.09L24.02 48.86L17.23 48.86C17.09 48.86 16.94 48.81 16.82 48.73C16.51 48.49 16.39 48.01 16.6 47.69L26.83 34.55C27.1 34.2 27.5 33.99 27.93 33.97L28.02 33.96L51.99 33.96C52.42 33.96 52.83 34.15 53.12 34.47Z" stroke="#000000" stroke-opacity="0" stroke-width="1.000000"/>
		</g>
		<g opacity="0.300000">
			<path d="M65.74 5.81C64.95 6.12 64.32 6.45 63.82 6.81C63.7 6.9 63.51 6.89 63.38 6.8C63.26 6.71 63.26 6.56 63.38 6.47C63.91 6.08 64.6 5.72 65.42 5.4C65.57 5.34 65.76 5.38 65.85 5.5C65.93 5.61 65.88 5.75 65.74 5.81ZM62.87 8.79C62.7 9.36 62.72 9.99 62.92 10.66C62.96 10.8 62.87 10.94 62.73 10.97C62.58 11.01 62.43 10.92 62.39 10.79C62.16 10.03 62.14 9.31 62.34 8.65C62.38 8.51 62.53 8.43 62.68 8.47C62.83 8.51 62.91 8.65 62.87 8.79ZM64.19 12.95L64.57 13.83L64.78 14.34L64.94 14.75L65.05 15.01C65.1 15.15 65.01 15.3 64.84 15.34C64.67 15.38 64.49 15.3 64.43 15.16L64.33 14.9L64.17 14.5L63.9 13.85L63.59 13.11C63.53 12.97 63.61 12.82 63.78 12.78C63.95 12.73 64.13 12.81 64.19 12.95ZM65.39 17.26C65.56 18.09 65.61 18.79 65.52 19.37C65.5 19.51 65.37 19.6 65.22 19.58C65.08 19.56 64.98 19.43 65 19.29C65.08 18.78 65.03 18.14 64.87 17.36C64.85 17.22 64.94 17.09 65.08 17.07C65.22 17.04 65.36 17.13 65.39 17.26ZM64.46 20.91C63.86 21.4 63.14 21.71 62.29 21.83C62.14 21.85 62 21.73 61.99 21.56C61.97 21.38 62.08 21.23 62.23 21.21C63 21.1 63.63 20.83 64.15 20.4C64.27 20.3 64.44 20.33 64.53 20.47C64.61 20.61 64.58 20.8 64.46 20.91ZM59.2 21.57C58.58 21.47 57.92 21.31 57.2 21.09C57.07 21.04 56.99 20.9 57.03 20.75C57.07 20.61 57.22 20.53 57.35 20.57C58.04 20.79 58.69 20.94 59.28 21.04C59.42 21.06 59.51 21.2 59.49 21.34C59.47 21.49 59.34 21.59 59.2 21.57ZM54.98 21.18C54.37 20.86 53.73 20.49 53.07 20.08C52.94 19.99 52.89 19.78 52.96 19.59C53.02 19.4 53.18 19.32 53.31 19.4C53.96 19.81 54.59 20.17 55.19 20.49C55.32 20.56 55.38 20.77 55.32 20.96C55.27 21.15 55.11 21.25 54.98 21.18ZM51.03 18.33C50.39 18.09 49.76 17.89 49.13 17.75C48.99 17.72 48.91 17.6 48.94 17.49C48.98 17.38 49.11 17.32 49.25 17.35C49.91 17.5 50.57 17.7 51.24 17.95C51.37 18 51.43 18.12 51.37 18.23C51.32 18.33 51.16 18.38 51.03 18.33ZM46.99 17.72C46.34 17.68 45.68 17.7 45.03 17.81C44.89 17.83 44.76 17.72 44.75 17.56C44.73 17.41 44.83 17.26 44.97 17.24C45.66 17.13 46.34 17.1 47.03 17.15C47.17 17.16 47.28 17.3 47.26 17.45C47.25 17.61 47.13 17.73 46.99 17.72ZM42.85 18.18C42.18 18.41 41.51 18.71 40.85 19.08C40.71 19.15 40.55 19.1 40.48 18.96C40.41 18.82 40.46 18.64 40.59 18.57C41.28 18.19 41.98 17.87 42.67 17.63C42.82 17.58 42.98 17.66 43.02 17.81C43.07 17.97 42.99 18.13 42.85 18.18ZM38.52 20.35C37.86 20.84 37.19 21.39 36.53 21.99C36.4 22.11 36.2 22.1 36.08 21.96C35.96 21.83 35.98 21.62 36.11 21.49C36.79 20.87 37.47 20.31 38.15 19.8C38.3 19.7 38.5 19.73 38.6 19.88C38.7 20.03 38.67 20.24 38.52 20.35ZM35.76 23.42C35.1 24.02 34.43 24.58 33.74 25.12C33.6 25.23 33.39 25.2 33.28 25.06C33.17 24.91 33.2 24.7 33.34 24.59C34.02 24.07 34.69 23.52 35.33 22.93C35.47 22.81 35.67 22.82 35.79 22.96C35.91 23.09 35.9 23.3 35.76 23.42ZM32.13 26.35C31.47 26.71 30.79 27.05 30.1 27.36C29.96 27.42 29.78 27.37 29.7 27.25C29.62 27.13 29.68 26.97 29.82 26.91C30.5 26.61 31.16 26.28 31.81 25.92C31.94 25.85 32.12 25.89 32.21 26C32.3 26.12 32.27 26.28 32.13 26.35ZM27.79 27.76C27.12 28.09 26.43 28.39 25.73 28.66C25.59 28.72 25.43 28.64 25.38 28.48C25.33 28.33 25.41 28.15 25.55 28.1C26.24 27.83 26.92 27.54 27.58 27.21C27.72 27.15 27.88 27.21 27.94 27.36C28 27.52 27.93 27.69 27.79 27.76ZM23.41 29.69C22.74 29.8 22.06 29.9 21.37 29.98C21.23 29.99 21.09 29.92 21.06 29.82C21.03 29.72 21.12 29.62 21.26 29.6C21.94 29.53 22.61 29.43 23.26 29.32C23.4 29.3 23.54 29.36 23.58 29.46C23.62 29.57 23.54 29.67 23.41 29.69ZM19.14 30.28C18.47 30.35 17.79 30.41 17.1 30.45C16.96 30.45 16.84 30.35 16.83 30.21C16.83 30.08 16.93 29.96 17.07 29.95C17.75 29.92 18.42 29.86 19.07 29.79C19.21 29.77 19.34 29.87 19.36 30C19.37 30.14 19.27 30.26 19.14 30.28Z" fill="#A1A7B3" fill-opacity="1.000000" fill-rule="evenodd"/>
			<path d="M63.82 6.81C63.7 6.9 63.51 6.89 63.38 6.8C63.26 6.71 63.26 6.56 63.38 6.47C63.91 6.08 64.6 5.72 65.42 5.4C65.57 5.34 65.76 5.38 65.85 5.5C65.93 5.61 65.88 5.75 65.74 5.81C64.95 6.12 64.32 6.45 63.82 6.81ZM62.92 10.66C62.96 10.8 62.87 10.94 62.73 10.97C62.58 11.01 62.43 10.92 62.39 10.79C62.16 10.03 62.14 9.31 62.34 8.65C62.38 8.51 62.53 8.43 62.68 8.47C62.83 8.51 62.91 8.65 62.87 8.79C62.7 9.36 62.72 9.99 62.92 10.66ZM64.57 13.83L64.78 14.34L64.94 14.75L65.05 15.01C65.1 15.15 65.01 15.3 64.84 15.34C64.67 15.38 64.49 15.3 64.43 15.16L64.33 14.9L64.17 14.5L63.9 13.85L63.59 13.11C63.53 12.97 63.61 12.82 63.78 12.78C63.95 12.73 64.13 12.81 64.19 12.95L64.57 13.83ZM65.52 19.37C65.5 19.51 65.37 19.6 65.22 19.58C65.08 19.56 64.98 19.43 65 19.29C65.08 18.78 65.03 18.14 64.87 17.36C64.85 17.22 64.94 17.09 65.08 17.07C65.22 17.04 65.36 17.13 65.39 17.26C65.56 18.09 65.61 18.79 65.52 19.37ZM62.29 21.83C62.14 21.85 62 21.73 61.99 21.56C61.97 21.38 62.08 21.23 62.23 21.21C63 21.1 63.63 20.83 64.15 20.4C64.27 20.3 64.44 20.33 64.53 20.47C64.61 20.61 64.58 20.8 64.46 20.91C63.86 21.4 63.14 21.71 62.29 21.83ZM57.2 21.09C57.07 21.04 56.99 20.9 57.03 20.75C57.07 20.61 57.22 20.53 57.35 20.57C58.04 20.79 58.69 20.94 59.28 21.04C59.42 21.06 59.51 21.2 59.49 21.34C59.47 21.49 59.34 21.59 59.2 21.57C58.58 21.47 57.92 21.31 57.2 21.09ZM53.07 20.08C52.94 19.99 52.89 19.78 52.96 19.59C53.02 19.4 53.18 19.32 53.31 19.4C53.96 19.81 54.59 20.17 55.19 20.49C55.32 20.56 55.38 20.77 55.32 20.96C55.27 21.15 55.11 21.25 54.98 21.18C54.37 20.86 53.73 20.49 53.07 20.08ZM49.13 17.75C48.99 17.72 48.91 17.6 48.94 17.49C48.98 17.38 49.11 17.32 49.25 17.35C49.91 17.5 50.57 17.7 51.24 17.95C51.37 18 51.43 18.12 51.37 18.23C51.32 18.33 51.16 18.38 51.03 18.33C50.39 18.09 49.76 17.89 49.13 17.75ZM45.03 17.81C44.89 17.83 44.76 17.72 44.75 17.56C44.73 17.41 44.83 17.26 44.97 17.24C45.66 17.13 46.34 17.1 47.03 17.15C47.17 17.16 47.28 17.3 47.26 17.45C47.25 17.61 47.13 17.73 46.99 17.72C46.34 17.68 45.68 17.7 45.03 17.81ZM40.85 19.08C40.71 19.15 40.55 19.1 40.48 18.96C40.41 18.82 40.46 18.64 40.59 18.57C41.28 18.19 41.98 17.87 42.67 17.63C42.82 17.58 42.98 17.66 43.02 17.81C43.07 17.97 42.99 18.13 42.85 18.18C42.18 18.41 41.51 18.71 40.85 19.08ZM36.53 21.99C36.4 22.11 36.2 22.1 36.08 21.96C35.96 21.83 35.98 21.62 36.11 21.49C36.79 20.87 37.47 20.31 38.15 19.8C38.3 19.7 38.5 19.73 38.6 19.88C38.7 20.03 38.67 20.24 38.52 20.35C37.86 20.84 37.19 21.39 36.53 21.99ZM33.74 25.12C33.6 25.23 33.39 25.2 33.28 25.06C33.17 24.91 33.2 24.7 33.34 24.59C34.02 24.07 34.69 23.52 35.33 22.93C35.47 22.81 35.67 22.82 35.79 22.96C35.91 23.09 35.9 23.3 35.76 23.42C35.1 24.02 34.43 24.58 33.74 25.12ZM30.1 27.36C29.96 27.42 29.78 27.37 29.7 27.25C29.62 27.13 29.68 26.97 29.82 26.91C30.5 26.61 31.16 26.28 31.81 25.92C31.94 25.85 32.12 25.89 32.21 26C32.3 26.12 32.27 26.28 32.13 26.35C31.47 26.71 30.79 27.05 30.1 27.36ZM25.73 28.66C25.59 28.72 25.43 28.64 25.38 28.48C25.33 28.33 25.41 28.15 25.55 28.1C26.24 27.83 26.92 27.54 27.58 27.21C27.72 27.15 27.88 27.21 27.94 27.36C28 27.52 27.93 27.69 27.79 27.76C27.12 28.09 26.43 28.39 25.73 28.66ZM21.37 29.98C21.23 29.99 21.09 29.92 21.06 29.82C21.03 29.72 21.12 29.62 21.26 29.6C21.94 29.53 22.61 29.43 23.26 29.32C23.4 29.3 23.54 29.36 23.58 29.46C23.62 29.57 23.54 29.67 23.41 29.69C22.74 29.8 22.06 29.9 21.37 29.98ZM17.1 30.45C16.96 30.45 16.84 30.35 16.83 30.21C16.83 30.08 16.93 29.96 17.07 29.95C17.75 29.92 18.42 29.86 19.07 29.79C19.21 29.77 19.34 29.87 19.36 30C19.37 30.14 19.27 30.26 19.14 30.28C18.47 30.35 17.79 30.41 17.1 30.45Z" stroke="#000000" stroke-opacity="0" stroke-width="1.000000"/>
		</g>
		<g opacity="0.400000">
			<path d="M59.27 10.19C58.47 11.37 57.89 12.09 57.51 12.32C56.44 13 55.47 13.16 54.82 13.16C53.32 13.16 56.41 12.81 57.51 11.62C58.24 10.82 59.11 9.62 60.11 8.01L59.27 8.01L58.35 9.14C58.07 8.78 57.69 8.6 57.24 8.6C56.55 8.6 54.79 8.9 54.11 10.78C53.66 12.03 52.73 13.13 51.33 14.09C53.36 15.09 55.33 15.09 57.24 14.09C59.15 13.08 59.83 11.78 59.27 10.19Z" fill="#A1A7B3" fill-opacity="1.000000" fill-rule="evenodd"/>
			<path d="M57.51 12.32C56.44 13 55.47 13.16 54.82 13.16C53.32 13.16 56.41 12.81 57.51 11.62C58.24 10.82 59.11 9.62 60.11 8.01L59.27 8.01L58.35 9.14C58.07 8.78 57.69 8.6 57.24 8.6C56.55 8.6 54.79 8.9 54.11 10.78C53.66 12.03 52.73 13.13 51.33 14.09C53.36 15.09 55.33 15.09 57.24 14.09C59.15 13.08 59.83 11.78 59.27 10.19C58.47 11.37 57.89 12.09 57.51 12.32Z" stroke="#000000" stroke-opacity="0" stroke-width="1.000000"/>
		</g>
		<g opacity="0.400000">
			<path d="M63.4 27.22C63.79 27.93 64 28.41 64.02 28.66C64.08 29.37 63.91 29.88 63.74 30.2C63.35 30.94 63.98 29.33 63.66 28.47C63.45 27.9 63.07 27.15 62.52 26.23L62.3 26.64L62.63 27.39C62.38 27.43 62.19 27.57 62.07 27.79C61.89 28.13 61.58 29.07 62.35 29.91C62.87 30.47 63.18 31.22 63.3 32.16C64.33 31.44 64.85 30.47 64.84 29.26C64.83 28.06 64.35 27.37 63.4 27.22Z" fill="#A1A7B3" fill-opacity="1.000000" fill-rule="evenodd"/>
			<path d="M64.02 28.66C64.08 29.37 63.91 29.88 63.74 30.2C63.35 30.94 63.98 29.33 63.66 28.47C63.45 27.9 63.07 27.15 62.52 26.23L62.3 26.64L62.63 27.39C62.38 27.43 62.19 27.57 62.07 27.79C61.89 28.13 61.58 29.07 62.35 29.91C62.87 30.47 63.18 31.22 63.3 32.16C64.33 31.44 64.85 30.47 64.84 29.26C64.83 28.06 64.35 27.37 63.4 27.22C63.79 27.93 64 28.41 64.02 28.66Z" stroke="#000000" stroke-opacity="0" stroke-width="1.000000"/>
		</g>
		<g opacity="0.600000">
			<path d="M14.87 34.63C13.94 34.25 13.37 33.96 13.16 33.74C12.56 33.12 12.34 32.51 12.27 32.08C12.09 31.09 12.7 33.08 13.66 33.65C14.3 34.03 15.25 34.45 16.5 34.91L16.4 34.36L15.5 33.9C15.72 33.66 15.8 33.4 15.75 33.1C15.67 32.65 15.26 31.53 13.86 31.32C12.92 31.17 12.04 30.7 11.21 29.9C10.74 31.36 10.96 32.65 11.89 33.78C12.82 34.91 13.81 35.19 14.87 34.63Z" fill="#A1A7B3" fill-opacity="1.000000" fill-rule="evenodd"/>
			<path d="M13.16 33.74C12.56 33.12 12.34 32.51 12.27 32.08C12.09 31.09 12.7 33.08 13.66 33.65C14.3 34.03 15.25 34.45 16.5 34.91L16.4 34.36L15.5 33.9C15.72 33.66 15.8 33.4 15.75 33.1C15.67 32.65 15.26 31.53 13.86 31.32C12.92 31.17 12.04 30.7 11.21 29.9C10.74 31.36 10.96 32.65 11.89 33.78C12.82 34.91 13.81 35.19 14.87 34.63C13.94 34.25 13.37 33.96 13.16 33.74Z" stroke="#000000" stroke-opacity="0" stroke-width="1.000000"/>
		</g>
	</g>
</svg>
