<svg width="35" height="35" viewBox="0 0 35 35" fill="none" xmlns="http://www.w3.org/2000/svg">
<g id="&#233;&#187;&#152;&#232;&#174;&#164;&#229;&#164;&#180;&#229;&#131;&#143;">
<circle id="Ellipse 2" cx="17.5" cy="17.5" r="17.5" fill="#FFE9C4"/>
<g id="Frame">
<path id="Vector" d="M17.4913 25.7035C13.648 25.7035 10.5322 25.9191 10.5322 23.4558C10.5322 21.4285 11.7552 19.6881 13.8355 18.5425C14.859 17.9787 16.2239 18.9892 17.4913 18.9892C18.9364 18.9892 20.4199 18.0337 21.5323 18.7045C23.3784 19.8178 24.4504 21.3614 24.4504 23.4558C24.4504 25.9191 21.3346 25.7035 17.4913 25.7035ZM17.4913 18.203C15.0261 18.203 13.0276 16.2045 13.0276 13.7393C13.0276 11.2741 15.0261 9.27567 17.4913 9.27567C19.9565 9.27567 21.9549 11.2741 21.9549 13.7393C21.9549 16.2045 19.9565 18.203 17.4913 18.203Z" fill="#FBB535"/>
</g>
</g>
</svg>
