<svg width="40.000000" height="40.000000" viewBox="0 0 40 40" fill="none" xmlns="http://www.w3.org/2000/svg" xmlns:xlink="http://www.w3.org/1999/xlink">
	<desc>
			Created with Pixso.
	</desc>
	<defs>
		<clipPath id="clip96_10267">
			<rect width="40.000000" height="40.000000" fill="white" fill-opacity="0"/>
		</clipPath>
	</defs>
	<g clip-path="url(#clip96_10267)">
		<g opacity="0.200000">
			<circle cx="20.000000" cy="20.000000" r="20.000000" fill="#64BB5C" fill-opacity="1.000000"/>
		</g>
		<path d="M31.13 26.88L8.86 26.88C8.38 26.88 8 27.36 8 27.94C8 28.52 8.38 29 8.86 29L31.13 29C31.61 29 32 28.52 32 27.94C32 27.36 31.61 26.88 31.13 26.88ZM9.01 24.98L31 24.98C31.55 24.98 32 24.5 32 23.92L32 22.86C32 16.45 27.48 11.16 21.65 10.3C21.86 9.96 22 9.55 22 9.11C22 7.95 21.1 7 20 7C18.9 7 18 7.95 18 9.11C18 9.56 18.13 9.97 18.35 10.3C12.51 11.15 8.01 16.43 8.01 22.86L8.01 23.92C8.01 24.5 8.46 24.98 9.01 24.98ZM11.37 19.13C12.31 17.16 13.83 15.55 15.69 14.56C16.02 14.39 16.42 14.52 16.59 14.87C16.75 15.22 16.63 15.65 16.29 15.83C14.69 16.67 13.37 18.07 12.57 19.77C12.46 20.02 12.22 20.16 11.97 20.16C11.87 20.16 11.77 20.14 11.67 20.08C11.33 19.91 11.21 19.49 11.37 19.13Z" fill="#64BB5C" fill-opacity="1.000000" fill-rule="nonzero"/>
	</g>
</svg>
