<svg width="24.000000" height="24.000000" viewBox="0 0 24 24" fill="none" xmlns="http://www.w3.org/2000/svg" xmlns:xlink="http://www.w3.org/1999/xlink">
	<desc>
			Created with Pixso.
	</desc>
	<defs>
		<clipPath id="clip96_8109">
			<rect width="24.000000" height="24.000000" fill="white" fill-opacity="0"/>
		</clipPath>
	</defs>
	<g clip-path="url(#clip96_8109)">
		<circle cx="12.000000" cy="12.000000" r="12.000000" fill="#64BB5C" fill-opacity="1.000000"/>
		<path d="M5 11.04L5 11.01L5 11.04ZM12.99 13.68C12.48 13.22 11.65 13.22 11.14 13.68C11.1 13.71 11.06 13.74 11.02 13.77C10.98 13.79 10.93 13.81 10.89 13.83C10.84 13.84 10.79 13.86 10.75 13.87C10.7 13.87 10.65 13.88 10.6 13.88C10.55 13.88 10.5 13.87 10.45 13.87C10.41 13.86 10.36 13.84 10.31 13.83C10.27 13.81 10.22 13.79 10.18 13.77C10.14 13.74 10.1 13.71 10.06 13.68C9.55 13.22 8.72 13.22 8.21 13.69C7.02 14.27 6.38 12.96 6.36 12.95C6.18 12.59 5.98 11.13 6.36 11.13C6.36 11.13 16.45 11.13 17.65 11.13C17.77 11.13 18.05 11.07 18.05 11.62C18.05 12.2 17.89 12.69 17.62 13.1C17.62 13.1 16.67 14.28 15.91 13.68C15.4 13.22 14.57 13.22 14.06 13.68C14.03 13.71 13.99 13.74 13.94 13.77C13.9 13.79 13.86 13.81 13.81 13.83C13.77 13.85 13.72 13.86 13.67 13.87C13.62 13.88 13.57 13.88 13.52 13.88C13.48 13.88 13.43 13.88 13.38 13.87C13.33 13.86 13.28 13.85 13.24 13.83C13.19 13.81 13.15 13.79 13.1 13.77C13.06 13.74 13.02 13.71 12.99 13.68ZM14.26 17.72L14.38 17.68L14.4 17.67C14.48 17.64 14.56 17.62 14.64 17.58L14.68 17.57C14.72 17.55 14.76 17.53 14.8 17.52C14.82 17.51 14.83 17.51 14.84 17.5L14.97 17.44L14.98 17.44C15.14 17.37 15.29 17.29 15.44 17.21C15.58 17.13 15.73 17.05 15.87 16.96C16.01 16.86 16.15 16.77 16.29 16.67C16.42 16.57 16.55 16.46 16.68 16.35C16.81 16.24 16.93 16.13 17.05 16.01C17.17 15.89 17.28 15.77 17.39 15.64C17.5 15.51 17.61 15.38 17.71 15.25C17.81 15.11 17.91 14.97 18 14.83C18.09 14.69 18.18 14.55 18.26 14.4C18.34 14.25 18.41 14.1 18.48 13.95C18.55 13.79 18.62 13.64 18.68 13.48C18.74 13.32 18.79 13.16 18.84 13C18.89 12.84 18.93 12.67 18.96 12.51C19 12.35 19.03 12.18 19.05 12.01C19.08 11.85 19.09 11.68 19.11 11.51C19.12 11.34 19.13 11.17 19.13 11.01C19.13 10.29 18.65 10.4 18.65 10.4C17.25 10.4 12.06 10.39 12.06 10.39L5.45 10.39C5.41 10.39 5.37 10.4 5.33 10.41C5.29 10.42 5.25 10.44 5.22 10.46C5.18 10.48 5.15 10.51 5.12 10.54C5.09 10.57 5.07 10.61 5.05 10.64C5 10.66 5 10.97 5 11.03C5 11.19 5 11.36 5.01 11.53C5.03 11.7 5.05 11.86 5.07 12.03C5.09 12.2 5.12 12.36 5.16 12.53C5.2 12.69 5.24 12.85 5.29 13.01C5.33 13.18 5.39 13.33 5.45 13.49C5.51 13.65 5.57 13.8 5.64 13.96C5.71 14.11 5.79 14.26 5.87 14.41C5.95 14.55 6.03 14.7 6.13 14.84C6.22 14.98 6.31 15.12 6.41 15.25C6.52 15.39 6.62 15.52 6.73 15.64C6.84 15.77 6.96 15.89 7.08 16.01C7.19 16.13 7.32 16.25 7.45 16.36C7.57 16.46 7.7 16.57 7.84 16.67C7.97 16.77 8.11 16.87 8.25 16.96C8.39 17.05 8.54 17.13 8.69 17.21C8.83 17.29 8.98 17.37 9.14 17.44L9.15 17.44L9.28 17.5L9.32 17.52L9.44 17.57L9.49 17.59C9.57 17.62 9.64 17.65 9.72 17.67L9.74 17.68C9.83 17.71 9.92 17.74 10.01 17.77L9.29 17.77C9.25 17.77 9.21 17.77 9.17 17.78C9.14 17.79 9.1 17.8 9.06 17.81C9.02 17.83 8.99 17.85 8.95 17.87C8.92 17.89 8.89 17.92 8.86 17.95C8.83 17.97 8.81 18.01 8.78 18.04C8.76 18.07 8.74 18.11 8.73 18.14C8.71 18.18 8.7 18.22 8.69 18.26C8.68 18.3 8.68 18.34 8.68 18.38C8.68 18.42 8.68 18.46 8.69 18.5C8.7 18.54 8.71 18.58 8.73 18.62C8.74 18.65 8.76 18.69 8.78 18.72C8.81 18.76 8.83 18.79 8.86 18.81C8.89 18.84 8.92 18.87 8.95 18.89C8.99 18.91 9.02 18.93 9.06 18.95C9.1 18.96 9.14 18.98 9.17 18.98C9.21 18.99 9.25 19 9.29 19L14.82 19C14.86 19 14.9 18.99 14.94 18.98C14.98 18.98 15.02 18.96 15.06 18.95C15.1 18.93 15.13 18.91 15.17 18.89C15.2 18.87 15.23 18.84 15.26 18.81C15.29 18.79 15.31 18.76 15.34 18.72C15.36 18.69 15.38 18.65 15.39 18.62C15.41 18.58 15.42 18.54 15.43 18.5C15.44 18.46 15.44 18.42 15.44 18.38C15.44 18.34 15.44 18.3 15.43 18.26C15.42 18.22 15.41 18.18 15.39 18.14C15.38 18.11 15.36 18.07 15.34 18.04C15.31 18.01 15.29 17.97 15.26 17.95C15.23 17.92 15.2 17.89 15.17 17.87C15.13 17.85 15.1 17.83 15.06 17.81C15.02 17.8 14.98 17.79 14.94 17.78C14.9 17.77 14.86 17.77 14.82 17.77L14.12 17.77L14.26 17.72ZM6.49 9.67C6.86 9.67 7.17 9.37 7.17 9C7.17 8.27 7.77 7.67 8.52 7.67C8.86 7.67 9.18 7.79 9.43 8.02C9.63 8.2 9.9 8.25 10.14 8.15C10.2 8.13 10.26 8.1 10.31 8.06C10.36 8.02 10.4 7.98 10.44 7.93C10.48 7.87 10.51 7.82 10.53 7.76C10.55 7.7 10.56 7.64 10.57 7.58C10.57 7.53 10.57 7.49 10.58 7.45C10.59 7.41 10.6 7.37 10.61 7.33C10.62 7.29 10.63 7.25 10.65 7.21C10.66 7.17 10.68 7.13 10.7 7.09C10.71 7.05 10.73 7.02 10.76 6.98C10.78 6.94 10.8 6.91 10.83 6.87C10.85 6.84 10.88 6.81 10.9 6.78C10.93 6.74 10.96 6.71 10.99 6.68C11.02 6.66 11.06 6.63 11.09 6.6C11.12 6.58 11.16 6.55 11.19 6.53C11.23 6.51 11.27 6.49 11.3 6.47C11.34 6.45 11.38 6.43 11.42 6.42C11.46 6.4 11.5 6.39 11.54 6.38C11.58 6.37 11.62 6.36 11.66 6.35C11.7 6.34 11.75 6.33 11.79 6.33C11.83 6.33 11.87 6.32 11.91 6.32C11.96 6.32 12 6.33 12.04 6.33C12.08 6.33 12.12 6.34 12.16 6.35C12.21 6.36 12.25 6.37 12.29 6.38C12.33 6.39 12.37 6.4 12.41 6.42C12.45 6.43 12.49 6.45 12.52 6.47C12.56 6.49 12.6 6.51 12.63 6.53C12.67 6.56 12.7 6.58 12.74 6.61C12.77 6.63 12.8 6.66 12.83 6.69C12.86 6.72 12.89 6.75 12.92 6.78C12.95 6.81 12.98 6.84 13 6.88C13.03 6.91 13.05 6.95 13.07 6.98C13.09 7.02 13.11 7.06 13.13 7.09C13.15 7.13 13.16 7.17 13.18 7.21C13.19 7.25 13.21 7.29 13.22 7.33C13.23 7.37 13.24 7.41 13.24 7.45C13.25 7.5 13.25 7.54 13.26 7.58C13.28 7.84 13.44 8.06 13.68 8.15C13.93 8.25 14.2 8.2 14.39 8.03C14.52 7.91 14.66 7.82 14.82 7.76C14.97 7.7 15.14 7.67 15.31 7.67C16.05 7.67 16.66 8.27 16.66 9.01C16.66 9.38 16.97 9.68 17.34 9.68C17.72 9.68 18.02 9.38 18.02 9.01C18.02 7.53 16.81 6.33 15.31 6.33C14.98 6.33 14.65 6.39 14.35 6.51C14.29 6.39 14.23 6.29 14.16 6.18C14.09 6.08 14.01 5.98 13.93 5.89C13.84 5.79 13.75 5.7 13.65 5.62C13.56 5.54 13.46 5.47 13.35 5.4C13.24 5.34 13.13 5.28 13.02 5.23C12.9 5.18 12.78 5.13 12.66 5.1C12.54 5.06 12.42 5.04 12.29 5.02C12.17 5 12.04 5 11.92 5C11.79 5 11.66 5 11.54 5.02C11.41 5.04 11.29 5.06 11.17 5.1C11.05 5.13 10.93 5.18 10.82 5.23C10.7 5.28 10.59 5.34 10.48 5.4C10.38 5.47 10.27 5.54 10.18 5.62C10.08 5.7 9.99 5.79 9.91 5.89C9.82 5.98 9.74 6.08 9.67 6.18C9.6 6.29 9.54 6.39 9.48 6.51C9.17 6.39 8.85 6.33 8.52 6.33C7.03 6.33 5.81 7.53 5.81 9.01C5.81 9.38 6.11 9.67 6.49 9.67Z" fill="#FFFFFF" fill-opacity="1.000000" fill-rule="nonzero"/>
	</g>
</svg>
