<svg width="24.000000" height="24.000000" viewBox="0 0 24 24" fill="none" xmlns="http://www.w3.org/2000/svg" xmlns:xlink="http://www.w3.org/1999/xlink">
	<desc>
			Created with Pixso.
	</desc>
	<defs>
		<clipPath id="clip96_8158">
			<rect width="24.000000" height="24.000000" transform="translate(-0.333252 0.000000)" fill="white" fill-opacity="0"/>
		</clipPath>
		<clipPath id="clip96_8159">
			<rect width="24.000000" height="24.000000" fill="white" fill-opacity="0"/>
		</clipPath>
	</defs>
	<g clip-path="url(#clip96_8159)">
		<g clip-path="url(#clip96_8158)">
			<path d="M6.67 6.75C6.18 7.12 5.81 7.38 5.56 7.51C5.43 7.86 5.28 8.88 5.32 10.28C5.35 11.55 5.54 13.45 6.26 15.32C6.97 17.15 8.75 19.12 10.07 19.96C11.78 21.06 14.44 21.84 16.76 20.69C18.38 19.89 19.29 18.78 19.9 16.86C20.04 16.43 20.45 14.89 19.97 13.23C19.47 11.54 18.21 10.3 16.23 9.56C16.22 9.56 16.22 9.56 16.22 9.56C15.07 9.09 14 8.84 13.06 8.63C12.18 8.43 11.35 8.24 10.63 7.9C10.05 7.63 9.42 7.3 8.87 7.01C8.3 6.7 7.61 6.34 7.36 6.27C7.2 6.37 6.93 6.56 6.67 6.75Z" fill="#FFC164" fill-opacity="1.000000" fill-rule="nonzero"/>
			<path d="M17.4 17.67C15.08 18.81 12.42 18.04 10.71 16.94C9.39 16.09 7.61 14.13 6.91 12.3C6.18 10.43 5.99 8.53 5.96 7.26C5.81 7.37 5.67 7.45 5.56 7.51C5.43 7.86 5.28 8.88 5.32 10.28C5.35 11.55 5.54 13.45 6.26 15.32C6.97 17.15 8.75 19.12 10.07 19.96C11.78 21.06 14.44 21.84 16.76 20.69C18.38 19.89 19.29 18.78 19.9 16.86C20 16.57 20.21 15.77 20.2 14.77C19.6 16.14 18.74 17.01 17.4 17.67Z" fill="#F19814" fill-opacity="1.000000" fill-rule="nonzero"/>
			<path d="M4.06 4.92C4.25 4.79 4.49 4.76 4.7 4.83C4.79 4.86 4.88 4.85 4.95 4.8C5.03 4.75 5.07 4.67 5.08 4.58C5.09 4.35 5.21 4.15 5.4 4.02C5.56 3.91 5.75 3.87 5.94 3.91C6.13 3.95 6.3 4.05 6.4 4.22C6.62 4.54 6.54 4.99 6.21 5.22C6.09 5.3 6.05 5.48 6.14 5.61L6.89 6.66L6.03 7.28L5.26 6.2C5.23 6.17 5.21 6.14 5.18 6.12C5.15 6.1 5.11 6.09 5.08 6.08C5.04 6.07 5 6.07 4.97 6.08C4.93 6.09 4.9 6.1 4.86 6.12C4.54 6.34 4.09 6.25 3.87 5.92C3.64 5.59 3.73 5.14 4.06 4.92Z" fill="#D0830F" fill-opacity="1.000000" fill-rule="nonzero"/>
			<path d="M15.47 9.82L14.98 10.71C15.7 11.1 17.69 12.29 18.29 13.08L19.1 12.47C18.26 11.37 15.75 9.97 15.47 9.82Z" fill="#FFFFFF" fill-opacity="1.000000" fill-rule="nonzero"/>
			<path d="M14.03 14.26C14.03 14.29 14.03 14.32 14.03 14.35C14.04 14.38 14.05 14.41 14.06 14.44C14.07 14.47 14.09 14.5 14.11 14.53C14.12 14.55 14.14 14.58 14.16 14.6C14.19 14.62 14.21 14.64 14.24 14.66C14.26 14.67 14.29 14.69 14.32 14.7C14.35 14.71 14.38 14.72 14.41 14.73C14.44 14.73 14.47 14.74 14.5 14.74C14.53 14.74 14.56 14.73 14.6 14.73C14.63 14.72 14.66 14.71 14.69 14.7C14.71 14.69 14.74 14.67 14.77 14.66C14.79 14.64 14.82 14.62 14.84 14.6C14.86 14.58 14.88 14.55 14.9 14.53C14.92 14.5 14.93 14.47 14.94 14.44C14.96 14.41 14.96 14.38 14.97 14.35C14.98 14.32 14.98 14.29 14.98 14.26C14.98 14.23 14.98 14.2 14.97 14.17C14.96 14.14 14.96 14.11 14.94 14.08C14.93 14.05 14.92 14.02 14.9 13.99C14.88 13.97 14.86 13.94 14.84 13.92C14.82 13.9 14.79 13.88 14.77 13.86C14.74 13.85 14.71 13.83 14.69 13.82C14.66 13.81 14.63 13.8 14.6 13.79C14.56 13.79 14.53 13.78 14.5 13.78C14.47 13.78 14.44 13.79 14.41 13.79C14.38 13.8 14.35 13.81 14.32 13.82C14.29 13.83 14.26 13.85 14.24 13.86C14.21 13.88 14.19 13.9 14.16 13.92C14.14 13.94 14.12 13.97 14.11 13.99C14.09 14.02 14.07 14.05 14.06 14.08C14.05 14.11 14.04 14.14 14.03 14.17C14.03 14.2 14.03 14.23 14.03 14.26Z" fill="#F4B900" fill-opacity="1.000000" fill-rule="nonzero"/>
			<path d="M13.25 17.25C13.25 17.28 13.25 17.31 13.26 17.34C13.27 17.37 13.28 17.4 13.29 17.43C13.3 17.46 13.31 17.49 13.33 17.52C13.35 17.54 13.37 17.57 13.39 17.59C13.41 17.61 13.44 17.63 13.46 17.65C13.49 17.67 13.52 17.68 13.55 17.69C13.58 17.7 13.6 17.71 13.64 17.72C13.67 17.73 13.7 17.73 13.73 17.73C13.76 17.73 13.79 17.73 13.82 17.72C13.85 17.71 13.88 17.7 13.91 17.69C13.94 17.68 13.97 17.67 13.99 17.65C14.02 17.63 14.04 17.61 14.07 17.59C14.09 17.57 14.11 17.54 14.13 17.52C14.14 17.49 14.16 17.46 14.17 17.43C14.18 17.4 14.19 17.37 14.2 17.34C14.2 17.31 14.21 17.28 14.21 17.25C14.21 17.22 14.2 17.19 14.2 17.16C14.19 17.13 14.18 17.1 14.17 17.07C14.16 17.04 14.14 17.01 14.13 16.99C14.11 16.96 14.09 16.94 14.07 16.91C14.04 16.89 14.02 16.87 13.99 16.85C13.97 16.84 13.94 16.82 13.91 16.81C13.88 16.8 13.85 16.79 13.82 16.78C13.79 16.78 13.76 16.77 13.73 16.77C13.7 16.77 13.67 16.78 13.64 16.78C13.6 16.79 13.58 16.8 13.55 16.81C13.52 16.82 13.49 16.84 13.46 16.85C13.44 16.87 13.41 16.89 13.39 16.91C13.37 16.94 13.35 16.96 13.33 16.99C13.31 17.01 13.3 17.04 13.29 17.07C13.28 17.1 13.27 17.13 13.26 17.16C13.25 17.19 13.25 17.22 13.25 17.25Z" fill="#F4B900" fill-opacity="1.000000" fill-rule="nonzero"/>
			<path d="M16.64 17C16.66 17.03 16.69 17.05 16.72 17.07C16.76 17.09 16.79 17.11 16.82 17.12C16.86 17.14 16.89 17.15 16.93 17.16C16.96 17.16 17 17.17 17.04 17.17C17.08 17.17 17.11 17.16 17.15 17.16C17.19 17.15 17.22 17.14 17.26 17.12C17.29 17.11 17.32 17.09 17.35 17.07C17.38 17.05 17.41 17.03 17.44 17C17.47 16.98 17.49 16.95 17.51 16.92C17.53 16.88 17.55 16.85 17.56 16.82C17.58 16.78 17.59 16.75 17.59 16.71C17.6 16.67 17.61 16.64 17.61 16.6C17.61 16.56 17.6 16.53 17.59 16.49C17.59 16.45 17.58 16.42 17.56 16.38C17.55 16.35 17.53 16.32 17.51 16.29C17.49 16.26 17.47 16.23 17.44 16.2C17.41 16.17 17.38 16.15 17.35 16.13C17.32 16.11 17.29 16.09 17.26 16.08C17.22 16.06 17.19 16.05 17.15 16.04C17.11 16.04 17.08 16.03 17.04 16.03C17 16.03 16.96 16.04 16.93 16.04C16.89 16.05 16.86 16.06 16.82 16.08C16.79 16.09 16.75 16.11 16.72 16.13C16.69 16.15 16.66 16.17 16.64 16.2C16.61 16.23 16.59 16.25 16.57 16.29C16.55 16.32 16.53 16.35 16.52 16.38C16.5 16.42 16.49 16.45 16.48 16.49C16.48 16.53 16.47 16.56 16.47 16.6C16.47 16.64 16.48 16.67 16.48 16.71C16.49 16.75 16.5 16.78 16.52 16.82C16.53 16.85 16.55 16.88 16.57 16.92C16.59 16.95 16.61 16.97 16.64 17Z" fill="#F19814" fill-opacity="1.000000" fill-rule="nonzero"/>
			<path d="M9.34 13.76C9.34 13.8 9.34 13.84 9.35 13.87C9.36 13.91 9.37 13.94 9.38 13.98C9.4 14.01 9.42 14.05 9.44 14.08C9.46 14.11 9.48 14.14 9.51 14.16C9.53 14.19 9.56 14.21 9.59 14.23C9.62 14.25 9.66 14.27 9.69 14.28C9.72 14.3 9.76 14.31 9.8 14.32C9.83 14.32 9.87 14.33 9.91 14.33C9.94 14.33 9.98 14.32 10.02 14.32C10.05 14.31 10.09 14.3 10.12 14.28C10.16 14.27 10.19 14.25 10.22 14.23C10.25 14.21 10.28 14.19 10.31 14.16C10.33 14.14 10.36 14.11 10.38 14.08C10.4 14.05 10.42 14.01 10.43 13.98C10.44 13.94 10.45 13.91 10.46 13.87C10.47 13.84 10.47 13.8 10.47 13.76C10.47 13.72 10.47 13.69 10.46 13.65C10.45 13.61 10.44 13.58 10.43 13.54C10.42 13.51 10.4 13.48 10.38 13.45C10.36 13.42 10.33 13.39 10.31 13.36C10.28 13.33 10.25 13.31 10.22 13.29C10.19 13.27 10.16 13.25 10.12 13.24C10.09 13.22 10.05 13.21 10.02 13.21C9.98 13.2 9.94 13.2 9.91 13.2C9.87 13.2 9.83 13.2 9.8 13.21C9.76 13.21 9.72 13.22 9.69 13.24C9.66 13.25 9.62 13.27 9.59 13.29C9.56 13.31 9.53 13.33 9.51 13.36C9.48 13.39 9.46 13.42 9.44 13.45C9.42 13.48 9.4 13.51 9.38 13.54C9.37 13.58 9.36 13.61 9.35 13.65C9.34 13.69 9.34 13.72 9.34 13.76Z" fill="#F4B900" fill-opacity="1.000000" fill-rule="nonzero"/>
			<path d="M11.32 16.29C11.37 16.31 11.43 16.33 11.48 16.34C11.54 16.35 11.6 16.36 11.66 16.36C11.72 16.36 11.77 16.35 11.83 16.34C11.89 16.33 11.94 16.31 12 16.29C12.05 16.27 12.1 16.24 12.15 16.21C12.2 16.18 12.25 16.14 12.29 16.1C12.33 16.06 12.37 16.01 12.4 15.96C12.43 15.91 12.46 15.86 12.48 15.81C12.5 15.76 12.52 15.7 12.53 15.64C12.54 15.58 12.55 15.53 12.55 15.47C12.55 15.41 12.54 15.35 12.53 15.29C12.52 15.24 12.5 15.18 12.48 15.13C12.46 15.07 12.43 15.02 12.4 14.97C12.37 14.92 12.33 14.88 12.29 14.84C12.25 14.8 12.2 14.76 12.15 14.73C12.1 14.69 12.05 14.67 12 14.64C11.94 14.62 11.89 14.6 11.83 14.59C11.77 14.58 11.72 14.58 11.66 14.58C11.6 14.58 11.54 14.58 11.48 14.59C11.43 14.6 11.37 14.62 11.32 14.64C11.26 14.67 11.21 14.69 11.16 14.73C11.11 14.76 11.07 14.8 11.03 14.84C10.98 14.88 10.95 14.92 10.92 14.97C10.88 15.02 10.86 15.07 10.83 15.13C10.81 15.18 10.79 15.24 10.78 15.29C10.77 15.35 10.77 15.41 10.77 15.47C10.77 15.53 10.77 15.58 10.78 15.64C10.79 15.7 10.81 15.76 10.83 15.81C10.86 15.86 10.88 15.91 10.92 15.96C10.95 16.01 10.98 16.06 11.03 16.1C11.07 16.14 11.11 16.18 11.16 16.21C11.21 16.24 11.26 16.27 11.32 16.29Z" fill="#F19814" fill-opacity="1.000000" fill-rule="nonzero"/>
			<path d="M17.45 15.08C17.51 15.11 17.56 15.12 17.62 15.13C17.68 15.15 17.73 15.15 17.79 15.15C17.85 15.15 17.91 15.15 17.97 15.14C18.02 15.12 18.08 15.11 18.13 15.08C18.19 15.06 18.24 15.03 18.29 15C18.34 14.97 18.38 14.93 18.42 14.89C18.46 14.85 18.5 14.8 18.53 14.76C18.57 14.71 18.59 14.66 18.62 14.6C18.64 14.55 18.66 14.49 18.67 14.43C18.68 14.38 18.68 14.32 18.68 14.26C18.68 14.2 18.68 14.14 18.67 14.09C18.66 14.03 18.64 13.97 18.62 13.92C18.59 13.86 18.57 13.81 18.53 13.76C18.5 13.72 18.46 13.67 18.42 13.63C18.38 13.59 18.34 13.55 18.29 13.52C18.24 13.49 18.19 13.46 18.13 13.44C18.08 13.41 18.02 13.4 17.97 13.39C17.91 13.37 17.85 13.37 17.79 13.37C17.73 13.37 17.68 13.37 17.62 13.39C17.56 13.4 17.51 13.41 17.45 13.44C17.4 13.46 17.35 13.49 17.3 13.52C17.25 13.55 17.2 13.59 17.16 13.63C17.12 13.67 17.08 13.72 17.05 13.76C17.02 13.81 16.99 13.86 16.97 13.92C16.95 13.97 16.93 14.03 16.92 14.09C16.91 14.14 16.9 14.2 16.9 14.26C16.9 14.32 16.91 14.38 16.92 14.43C16.93 14.49 16.95 14.55 16.97 14.6C16.99 14.66 17.02 14.71 17.05 14.76C17.08 14.8 17.12 14.85 17.16 14.89C17.2 14.93 17.25 14.97 17.3 15C17.35 15.03 17.4 15.06 17.45 15.08Z" fill="#F19814" fill-opacity="1.000000" fill-rule="nonzero"/>
		</g>
	</g>
</svg>
