<svg width="16.000000" height="16.000000" viewBox="0 0 16 16" fill="none" xmlns="http://www.w3.org/2000/svg" xmlns:xlink="http://www.w3.org/1999/xlink">
	<desc>
			Created with Pixso.
	</desc>
	<defs>
		<clipPath id="clip96_10516">
			<rect width="16.000000" height="16.000000" fill="white" fill-opacity="0"/>
		</clipPath>
	</defs>
	<g clip-path="url(#clip96_10516)">
		<circle cx="8.000000" cy="8.000000" r="8.000000" fill="#64BB5C" fill-opacity="1.000000"/>
		<path d="M8.57 4.57C8.57 4.25 8.32 4 8 4C7.67 4 7.42 4.25 7.42 4.57L7.42 7.42L4.57 7.42C4.25 7.42 4 7.68 4 8C4 8.31 4.25 8.57 4.57 8.57L7.42 8.57L7.42 11.42C7.42 11.74 7.67 12 8 12C8.32 12 8.57 11.74 8.57 11.42L8.57 8.57L11.42 8.57C11.74 8.57 12 8.31 12 8C12 7.68 11.74 7.42 11.42 7.42L8.57 7.42L8.57 4.57Z" fill="#FFFFFF" fill-opacity="1.000000" fill-rule="evenodd"/>
	</g>
</svg>
