<svg width="12.000000" height="12.000000" viewBox="0 0 12 12" fill="none" xmlns="http://www.w3.org/2000/svg" xmlns:xlink="http://www.w3.org/1999/xlink">
	<desc>
			Created with Pixso.
	</desc>
	<defs>
		<clipPath id="clip96_10474">
			<rect width="12.000000" height="12.000000" fill="white" fill-opacity="0"/>
		</clipPath>
	</defs>
	<g clip-path="url(#clip96_10474)">
		<circle cx="6.000000" cy="6.000000" r="6.000000" fill="#F3F3F3" fill-opacity="1.000000"/>
		<circle cx="6.000000" cy="6.000000" r="6.000000" stroke="#000000" stroke-opacity="0" stroke-width="0.500000"/>
		<path d="M6.4 3.25C6.4 3.02 6.22 2.85 6 2.85C5.77 2.85 5.6 3.02 5.6 3.25L5.6 5.6L3.25 5.6C3.02 5.6 2.85 5.77 2.85 6C2.85 6.22 3.02 6.39 3.25 6.39L5.6 6.39L5.6 8.75C5.6 8.97 5.77 9.14 6 9.14C6.22 9.14 6.4 8.97 6.4 8.75L6.4 6.39L8.75 6.39C8.97 6.39 9.15 6.22 9.15 6C9.15 5.77 8.97 5.6 8.75 5.6L6.4 5.6L6.4 3.25Z" fill="#000000" fill-opacity="0.898039" fill-rule="evenodd"/>
	</g>
</svg>
