<svg width="12.000000" height="12.000000" viewBox="0 0 12 12" fill="none" xmlns="http://www.w3.org/2000/svg" xmlns:xlink="http://www.w3.org/1999/xlink">
	<desc>
			Created with Pixso.
	</desc>
	<defs>
		<filter id="filter_96_10423_dd" x="0.270752" y="2.452637" width="12.382568" height="10.674805" filterUnits="userSpaceOnUse" color-interpolation-filters="sRGB">
			<feFlood flood-opacity="0" result="BackgroundImageFix"/>
			<feColorMatrix in="SourceAlpha" type="matrix" values="0 0 0 0 0 0 0 0 0 0 0 0 0 0 0 0 0 0 127 0" result="hardAlpha"/>
			<feOffset dx="0.0493555" dy="1.41335"/>
			<feGaussianBlur stdDeviation="0.666667"/>
			<feComposite in2="hardAlpha" operator="out" k2="-1" k3="1"/>
			<feColorMatrix type="matrix" values="0 0 0 0 0 0 0 0 0 0 0 0 0 0 0 0 0 0 0.1 0"/>
			<feBlend mode="normal" in2="BackgroundImageFix" result="effect_dropShadow_1"/>
			<feBlend mode="normal" in="SourceGraphic" in2="effect_dropShadow_1" result="shape"/>
		</filter>
		<clipPath id="clip96_10424">
			<rect width="12.000000" height="12.000000" fill="white" fill-opacity="0"/>
		</clipPath>
	</defs>
	<g clip-path="url(#clip96_10424)">
		<circle cx="6.000000" cy="6.000000" r="6.000000" fill="#64BB5C" fill-opacity="1.000000"/>
		<circle cx="6.000000" cy="6.000000" r="6.000000" stroke="#000000" stroke-opacity="0" stroke-width="0.500000"/>
		<g filter="url(#filter_96_10423_dd)">
			<mask id="mask_96_10423" fill="white">
				<path d="M9.43433 4.18262C9.21899 3.98145 8.88159 3.99316 8.68066 4.20898L5.6792 7.42725L4.11841 5.97168C3.90308 5.771 3.56543 5.78271 3.36475 5.99805C3.16382 6.21387 3.17554 6.55127 3.39087 6.75195L5.34131 8.5708C5.45361 8.67529 5.59937 8.72266 5.74146 8.71289C5.87207 8.7041 6 8.64746 6.09619 8.54443L9.46069 4.93604C9.66162 4.7207 9.6499 4.3833 9.43433 4.18262Z" clip-rule="evenodd" fill="" fill-opacity="1.000000" fill-rule="evenodd"/>
			</mask>
			<path d="M9.43433 4.18262C9.21899 3.98145 8.88159 3.99316 8.68066 4.20898L5.6792 7.42725L4.11841 5.97168C3.90308 5.771 3.56543 5.78271 3.36475 5.99805C3.16382 6.21387 3.17554 6.55127 3.39087 6.75195L5.34131 8.5708C5.45361 8.67529 5.59937 8.72266 5.74146 8.71289C5.87207 8.7041 6 8.64746 6.09619 8.54443L9.46069 4.93604C9.66162 4.7207 9.6499 4.3833 9.43433 4.18262Z" clip-rule="evenodd" fill="#FFFFFF" fill-opacity="1.000000" fill-rule="evenodd" mask="url(#mask_96_10423)"/>
			<path d="M10.3261 3.69158Q10.2349 3.56178 10.1165 3.45117Q9.99739 3.34014 9.86091 3.25807Q9.7363 3.18313 9.59717 3.13232Q9.46059 3.08244 9.31962 3.05925Q9.1708 3.03477 9.01709 3.04004Q8.86437 3.04552 8.71846 3.07991Q8.57864 3.11287 8.44507 3.17236Q8.30736 3.23404 8.18642 3.31947Q8.05843 3.40986 7.94922 3.52686L5.63008 6.01408L4.80054 5.24072Q4.68147 5.12969 4.54499 5.04762Q4.42038 4.97268 4.28125 4.92188Q4.14467 4.87199 4.00371 4.8488Q3.85489 4.82432 3.70117 4.82959Q3.54819 4.83483 3.4021 4.86928Q3.26235 4.90223 3.12891 4.96191Q2.99575 5.02138 2.87824 5.10329Q2.74583 5.19559 2.6333 5.31641Q2.52305 5.43451 2.44135 5.56985Q2.36565 5.69525 2.31445 5.83545Q2.26459 5.97199 2.24145 6.11292Q2.21702 6.26177 2.22241 6.41553Q2.22765 6.56851 2.2621 6.7146Q2.29506 6.85435 2.35474 6.98779Q2.41465 7.12196 2.4973 7.24023Q2.58911 7.37162 2.70898 7.4834L4.65918 9.30225Q4.78149 9.41601 4.92188 9.4993Q5.05444 9.57794 5.20312 9.62939Q5.34968 9.68011 5.50034 9.70043Q5.65285 9.72101 5.80957 9.71045Q5.94067 9.70168 6.06653 9.67127Q6.21398 9.63564 6.35425 9.57031Q6.48105 9.51133 6.59323 9.43174Q6.71973 9.34201 6.82764 9.22607L10.1921 5.61816Q10.3012 5.50119 10.3824 5.36732Q10.4591 5.24077 10.511 5.09912Q10.5609 4.96258 10.584 4.82166Q10.6084 4.6728 10.603 4.51904Q10.5976 4.3653 10.5629 4.21851Q10.53 4.07952 10.4707 3.94678Q10.41 3.81105 10.3261 3.69158ZM5.6792 7.42725L4.11841 5.97168C3.90308 5.771 3.56543 5.78271 3.36475 5.99805C3.16382 6.21387 3.17554 6.55127 3.39087 6.75195L5.34131 8.5708C5.40978 8.63451 5.49069 8.67698 5.57562 8.69822C5.62999 8.71181 5.686 8.7167 5.74146 8.71289C5.78536 8.70994 5.82896 8.70158 5.87115 8.68787C5.95448 8.66079 6.03233 8.61283 6.09619 8.54443L9.46069 4.93604C9.66162 4.7207 9.6499 4.3833 9.43433 4.18262C9.21899 3.98145 8.88159 3.99316 8.68066 4.20898L5.6792 7.42725Z" clip-rule="evenodd" fill="#000000" fill-opacity="0.047059" fill-rule="evenodd"/>
		</g>
	</g>
</svg>
