<svg width="24.000000" height="24.000000" viewBox="0 0 24 24" fill="none" xmlns="http://www.w3.org/2000/svg" xmlns:xlink="http://www.w3.org/1999/xlink">
	<desc>
			Created with Pixso.
	</desc>
	<defs>
		<clipPath id="clip96_8119">
			<rect width="24.000000" height="24.000000" fill="white" fill-opacity="0"/>
		</clipPath>
	</defs>
	<g clip-path="url(#clip96_8119)">
		<circle cx="12.000000" cy="12.000000" r="12.000000" fill="#E84026" fill-opacity="1.000000"/>
		<path d="M6.19 13.47C6.19 12.37 6.74 10.89 7.08 10.06C7.14 9.91 7.37 9.95 7.39 10.11C7.41 10.23 7.44 10.37 7.47 10.49C7.6 10.96 7.89 11.27 7.89 11.27C7.89 11.27 8.86 9.96 9.32 8.39C9.7 7.13 9.74 5.7 9.75 5.19C9.75 5.09 9.83 5.02 9.93 5.05C10.52 5.24 12.33 5.89 13.61 7.08C15.15 8.5 15.89 10.68 15.89 10.68C15.89 10.68 16.14 10.29 16.25 9.81C16.28 9.63 16.29 9.44 16.3 9.28C16.3 9.13 16.5 9.07 16.57 9.19C17.01 9.92 17.79 11.5 17.79 13.47C17.79 15.97 16.2 18.1 13.98 18.91C13.88 18.95 13.79 18.87 13.8 18.77C13.87 18.08 14.06 16.6 13.7 15.63C13.37 14.75 12.7 14.16 12.27 13.86C12.1 13.73 11.86 13.86 11.82 14.07C11.77 14.37 11.65 14.79 11.42 15.21C11.15 15.71 10.57 16.1 10.39 16.6C10.05 17.58 10.13 18.33 10.2 18.77C10.21 18.87 10.11 18.95 10.01 18.92C7.79 18.11 6.19 15.98 6.19 13.47Z" fill="#FFFFFF" fill-opacity="1.000000" fill-rule="evenodd"/>
	</g>
</svg>
