<svg width="21.288086" height="21.288574" viewBox="0 0 21.2881 21.2886" fill="none" xmlns="http://www.w3.org/2000/svg" xmlns:xlink="http://www.w3.org/1999/xlink">
	<desc>
			Created with Pixso.
	</desc>
	<defs/>
	<path id="矢量 217" d="M20.7 4.91C20.55 4.68 20.38 4.47 20.19 4.28L17 1.09C16.81 0.9 16.6 0.73 16.37 0.58C16.18 0.46 15.98 0.36 15.76 0.27C15.55 0.18 15.33 0.12 15.11 0.07C14.86 0.02 14.61 0 14.35 0C14.09 0 13.84 0.02 13.6 0.07C13.37 0.12 13.16 0.18 12.94 0.27C12.73 0.36 12.52 0.46 12.33 0.58C12.11 0.73 11.9 0.9 11.7 1.09L1.09 11.7C0.9 11.9 0.73 12.11 0.58 12.33C0.46 12.52 0.36 12.73 0.27 12.94C0.18 13.16 0.12 13.37 0.07 13.6C0.02 13.84 0 14.09 0 14.35C0 14.61 0.02 14.86 0.07 15.11C0.12 15.33 0.18 15.55 0.27 15.76C0.36 15.98 0.46 16.18 0.58 16.37C0.73 16.6 0.9 16.81 1.09 17L4.28 20.19C4.47 20.38 4.68 20.55 4.91 20.7C5.1 20.82 5.3 20.92 5.52 21.01C5.73 21.1 5.95 21.16 6.17 21.21C6.42 21.26 6.67 21.28 6.93 21.28C7.18 21.28 7.44 21.26 7.68 21.21C7.9 21.16 8.12 21.1 8.34 21.01C8.55 20.92 8.75 20.82 8.95 20.7C9.17 20.55 9.38 20.38 9.58 20.19L12.35 17.41C12.36 17.4 12.37 17.39 12.38 17.38C12.39 17.38 12.4 17.37 12.41 17.36L20.19 9.58C20.38 9.38 20.55 9.17 20.7 8.95C20.82 8.75 20.92 8.55 21.01 8.34C21.1 8.12 21.16 7.9 21.21 7.68C21.26 7.44 21.28 7.18 21.28 6.93C21.28 6.67 21.26 6.42 21.21 6.17C21.16 5.95 21.1 5.73 21.01 5.52C20.92 5.3 20.82 5.1 20.7 4.91ZM19.12 8.52L11.85 15.79L5.47 9.44L12.76 2.15C12.88 2.03 13.02 1.92 13.16 1.83C13.27 1.77 13.38 1.71 13.5 1.66C13.63 1.61 13.76 1.57 13.88 1.54C14.04 1.51 14.19 1.5 14.35 1.5C14.51 1.5 14.67 1.51 14.82 1.54C14.95 1.57 15.07 1.61 15.2 1.66C15.32 1.71 15.43 1.77 15.54 1.83C15.69 1.92 15.82 2.03 15.94 2.15L19.12 5.34Q19.31 5.52 19.45 5.74C19.51 5.85 19.57 5.96 19.62 6.08C19.67 6.2 19.71 6.33 19.74 6.46C19.77 6.61 19.78 6.77 19.78 6.93C19.78 7.09 19.77 7.24 19.74 7.39C19.71 7.52 19.67 7.65 19.62 7.77C19.57 7.89 19.51 8.01 19.45 8.12C19.35 8.26 19.25 8.39 19.12 8.52ZM10.79 16.86L4.41 10.5L2.15 12.76Q1.97 12.94 1.84 13.16Q1.84 13.16 1.83 13.16C1.77 13.27 1.71 13.38 1.66 13.5C1.61 13.63 1.57 13.76 1.54 13.88C1.51 14.04 1.5 14.19 1.5 14.35C1.5 14.51 1.51 14.67 1.54 14.82C1.57 14.95 1.61 15.07 1.66 15.2C1.71 15.32 1.77 15.43 1.83 15.54Q1.97 15.76 2.15 15.94L5.34 19.12C5.46 19.25 5.59 19.35 5.74 19.44C5.85 19.51 5.96 19.57 6.08 19.62C6.2 19.67 6.33 19.71 6.46 19.74C6.61 19.77 6.77 19.78 6.93 19.78C7.09 19.78 7.24 19.77 7.39 19.74C7.52 19.71 7.65 19.67 7.77 19.62C7.89 19.57 8.01 19.51 8.12 19.44C8.26 19.35 8.39 19.25 8.52 19.12L10.79 16.86ZM19.39 19.14L13.89 19.14C13.47 19.14 13.14 19.47 13.14 19.89C13.14 20.31 13.47 20.64 13.89 20.64L19.39 20.64C19.81 20.64 20.14 20.31 20.14 19.89C20.14 19.47 19.81 19.14 19.39 19.14Z" fill="#191919" fill-opacity="1.000000" fill-rule="evenodd"/>
</svg>
