<svg width="10.000000" height="10.000000" viewBox="0 0 10 10" fill="none" xmlns="http://www.w3.org/2000/svg" xmlns:xlink="http://www.w3.org/1999/xlink">
	<desc>
			Created with Pixso.
	</desc>
	<defs/>
	<path id="path4 (边框)" d="M1.25 0.21C0.95 -0.08 0.5 -0.08 0.21 0.21C-0.08 0.5 -0.08 0.95 0.21 1.25L3.96 5L0.21 8.75C-0.08 9.04 -0.08 9.49 0.21 9.78C0.5 10.07 0.95 10.07 1.25 9.78L5 6.03L8.75 9.78C9.04 10.07 9.49 10.07 9.78 9.78C10.07 9.49 10.07 9.04 9.78 8.75L6.03 5L9.78 1.25C10.07 0.95 10.07 0.5 9.78 0.21C9.49 -0.08 9.04 -0.08 8.75 0.21L5 3.96L1.25 0.21Z" fill="#000000" fill-opacity="1.000000" fill-rule="evenodd"/>
</svg>
