<svg width="15.000000" height="14.496094" viewBox="0 0 15 14.4961" fill="none" xmlns="http://www.w3.org/2000/svg" xmlns:xlink="http://www.w3.org/1999/xlink">
	<desc>
			Created with Pixso.
	</desc>
	<defs/>
	<path id="󰁡" d="M1.03 0.13Q1.35 0 1.72 0Q2.08 0 2.39 0.12Q2.7 0.25 2.96 0.5Q3.19 0.72 3.32 1Q3.48 1.34 3.48 1.75Q3.48 2.07 3.37 2.36Q3.24 2.7 2.96 2.98Q2.69 3.25 2.37 3.38Q2.07 3.5 1.72 3.5Q1.36 3.5 1.06 3.37Q0.75 3.24 0.5 2.98Q0.23 2.71 0.11 2.38Q0 2.09 0 1.75Q0 1.32 0.16 0.97Q0.28 0.71 0.5 0.5Q0.74 0.26 1.03 0.13ZM12.47 0.16Q12.82 0 13.24 0Q13.6 0 13.91 0.12Q14.22 0.25 14.48 0.5Q14.71 0.72 14.84 1Q15 1.34 15 1.75Q15 2.07 14.89 2.36Q14.76 2.7 14.48 2.98Q14.21 3.25 13.89 3.38Q13.59 3.5 13.24 3.5Q12.83 3.5 12.49 3.34Q12.22 3.21 12 2.98Q11.73 2.71 11.6 2.38Q11.49 2.09 11.49 1.75Q11.49 1.32 11.66 0.97Q11.78 0.71 12 0.5Q12.21 0.28 12.47 0.16ZM1.07 11.11Q1.37 10.98 1.72 10.98Q2.06 10.98 2.36 11.1Q2.69 11.23 2.96 11.5Q3.23 11.77 3.36 12.09Q3.48 12.39 3.48 12.74Q3.48 13.07 3.37 13.35Q3.24 13.69 2.96 13.98Q2.69 14.24 2.37 14.37Q2.07 14.49 1.72 14.49Q1.36 14.49 1.06 14.36Q0.75 14.23 0.5 13.98Q0.23 13.7 0.11 13.37Q0 13.08 0 12.74Q0 12.38 0.12 12.07Q0.25 11.76 0.5 11.5Q0.76 11.24 1.07 11.11ZM12.51 11.13Q12.84 10.98 13.24 10.98Q13.58 10.98 13.88 11.1Q14.21 11.23 14.48 11.5Q14.75 11.77 14.88 12.09Q15 12.39 15 12.74Q15 13.07 14.89 13.35Q14.76 13.69 14.48 13.98Q14.21 14.24 13.89 14.37Q13.59 14.49 13.24 14.49Q12.83 14.49 12.49 14.33Q12.22 14.21 12 13.98Q11.73 13.7 11.6 13.37Q11.49 13.08 11.49 12.74Q11.49 12.38 11.62 12.07Q11.74 11.76 12 11.5Q12.23 11.26 12.51 11.13Z" fill="#000000" fill-opacity="0.898039" fill-rule="evenodd"/>
</svg>
