<svg width="24.000000" height="24.000244" viewBox="0 0 24 24.0002" fill="none" xmlns="http://www.w3.org/2000/svg" xmlns:xlink="http://www.w3.org/1999/xlink">
	<desc>
			Created with Pixso.
	</desc>
	<defs/>
	<path id="矢量 216" d="M0.76 4.1L6.3 4.1L7.15 1.82C7.21 1.66 7.28 1.51 7.37 1.36C7.43 1.26 7.49 1.16 7.57 1.07C7.66 0.96 7.75 0.86 7.85 0.76C7.95 0.66 8.06 0.58 8.18 0.49C8.3 0.41 8.42 0.34 8.55 0.28C8.67 0.22 8.8 0.17 8.93 0.13C9.21 0.04 9.49 0 9.78 0L14.09 0C14.38 0 14.67 0.04 14.94 0.13C15.21 0.21 15.46 0.33 15.69 0.5C15.93 0.66 16.13 0.85 16.3 1.07C16.48 1.3 16.62 1.55 16.72 1.82L17.57 4.1L23.23 4.1C23.66 4.1 24 4.43 24 4.86C24 5.29 23.66 5.63 23.23 5.63L17.04 5.63C16.86 5.63 16.71 5.59 16.59 5.5C16.48 5.42 16.38 5.3 16.32 5.13L15.29 2.35C15.24 2.23 15.17 2.11 15.09 2.01C15.02 1.91 14.93 1.83 14.82 1.75C14.6 1.6 14.36 1.53 14.09 1.53L9.78 1.53C9.51 1.53 9.27 1.6 9.05 1.75C8.94 1.83 8.85 1.91 8.78 2.01C8.7 2.11 8.63 2.23 8.58 2.36L7.54 5.13C7.48 5.3 7.39 5.42 7.27 5.5C7.15 5.59 7 5.63 6.83 5.63L0.76 5.63C0.33 5.63 0 5.29 0 4.86C0 4.43 0.33 4.1 0.76 4.1ZM21.77 7.14L20.65 20.49C20.61 20.97 20.48 21.43 20.27 21.87C20.06 22.29 19.78 22.66 19.43 22.98C19.25 23.15 19.05 23.3 18.85 23.43C18.66 23.54 18.46 23.64 18.25 23.73C18.04 23.81 17.83 23.87 17.61 23.92C17.36 23.97 17.1 24 16.84 24L7.15 24C6.88 24 6.63 23.97 6.37 23.92C6.16 23.87 5.94 23.81 5.74 23.73C5.53 23.64 5.33 23.54 5.14 23.43C4.93 23.3 4.74 23.15 4.56 22.98C4.21 22.66 3.93 22.29 3.72 21.87C3.62 21.67 3.54 21.46 3.48 21.25C3.4 21 3.35 20.75 3.33 20.48L2.21 7.14L3.75 7.14L4.86 20.36C4.87 20.52 4.9 20.68 4.95 20.84C4.99 20.96 5.03 21.08 5.09 21.19C5.22 21.44 5.38 21.66 5.59 21.86C5.8 22.05 6.04 22.2 6.3 22.3C6.42 22.35 6.54 22.39 6.66 22.41C6.82 22.45 6.98 22.46 7.15 22.46L16.84 22.46C17 22.46 17.16 22.45 17.32 22.41C17.45 22.39 17.57 22.35 17.68 22.3C17.95 22.2 18.18 22.05 18.39 21.86C18.6 21.66 18.77 21.44 18.89 21.19C19.02 20.93 19.1 20.65 19.13 20.36L20.24 7.14L21.77 7.14ZM10.21 10.72L10.21 19.71C10.21 20.13 9.87 20.47 9.44 20.47C9.01 20.47 8.68 20.13 8.68 19.71L8.68 10.72C8.68 10.29 9.01 9.95 9.44 9.95C9.87 9.95 10.21 10.29 10.21 10.72ZM15.31 10.72C15.31 10.29 14.98 9.95 14.55 9.95C14.12 9.95 13.78 10.29 13.78 10.72L13.78 19.71C13.78 20.13 14.12 20.47 14.55 20.47C14.98 20.47 15.31 20.13 15.31 19.71L15.31 10.72Z" fill="#191919" fill-opacity="1.000000" fill-rule="evenodd"/>
</svg>
