<svg width="24.000000" height="24.000000" viewBox="0 0 24 24" fill="none" xmlns="http://www.w3.org/2000/svg" xmlns:xlink="http://www.w3.org/1999/xlink">
	<desc>
			Created with Pixso.
	</desc>
	<defs>
		<clipPath id="clip180_8439">
			<rect id="ic_public_upload" width="24.000000" height="24.000000" fill="white" fill-opacity="0"/>
		</clipPath>
	</defs>
	<g clip-path="url(#clip180_8439)">
		<path id="矢量 3" d="M4.75 7.68L11.46 0.96C11.64 0.79 11.81 0.7 11.99 0.7C12.17 0.7 12.34 0.79 12.52 0.96L19.24 7.68C19.54 7.98 19.54 8.44 19.24 8.74C18.94 9.04 18.48 9.04 18.18 8.74L12.74 3.31L12.75 17.49C12.75 17.91 12.42 18.25 12 18.25C11.58 18.25 11.25 17.92 11.25 17.5L11.24 3.31L5.81 8.74C5.51 9.04 5.04 9.04 4.75 8.74C4.45 8.44 4.45 7.98 4.75 7.68ZM2.25 19.5L2.25 16.5C2.25 16.08 1.91 15.75 1.5 15.75C1.08 15.75 0.75 16.08 0.75 16.5L0.75 19.5C0.75 19.77 0.77 20.04 0.83 20.3C0.88 20.52 0.95 20.74 1.04 20.95C1.13 21.17 1.24 21.37 1.36 21.56C1.5 21.77 1.66 21.97 1.84 22.15C2.02 22.33 2.22 22.49 2.43 22.63C2.62 22.75 2.82 22.86 3.03 22.95C3.24 23.04 3.46 23.11 3.68 23.16C3.94 23.22 4.22 23.25 4.5 23.25L19.5 23.25Q19.9 23.25 20.29 23.16Q20.29 23.16 20.29 23.16C20.52 23.11 20.74 23.04 20.95 22.95C21.17 22.86 21.37 22.75 21.56 22.63C21.77 22.49 21.96 22.33 22.15 22.15C22.49 21.8 22.76 21.4 22.95 20.95C23.15 20.49 23.25 20 23.25 19.5L23.25 16.5C23.25 16.08 22.91 15.75 22.5 15.75C22.08 15.75 21.75 16.08 21.75 16.5L21.75 19.5C21.75 19.67 21.73 19.83 21.69 20C21.66 20.12 21.62 20.25 21.57 20.37Q21.49 20.55 21.38 20.72Q21.26 20.91 21.09 21.09C20.97 21.2 20.85 21.3 20.72 21.38C20.61 21.46 20.49 21.52 20.37 21.57C20.09 21.69 19.8 21.75 19.5 21.75L4.5 21.75C4.32 21.75 4.14 21.73 3.98 21.69C3.85 21.66 3.74 21.62 3.62 21.57C3.35 21.45 3.11 21.29 2.9 21.09C2.79 20.97 2.69 20.85 2.61 20.72Q2.61 20.72 2.61 20.72Q2.5 20.55 2.42 20.37C2.37 20.25 2.33 20.13 2.3 20C2.26 19.84 2.25 19.67 2.25 19.5Z" fill="#191919" fill-opacity="1.000000" fill-rule="evenodd"/>
	</g>
</svg>
