<svg viewBox="0 0 14 14" xmlns="http://www.w3.org/2000/svg" xmlns:xlink="http://www.w3.org/1999/xlink" width="14.000000" height="14.000000" fill="none">
	<rect id="local" width="14.000000" height="14.000000" x="0.000000" y="0.000000" />
	<rect id="矩形 3454" width="14.000000" height="14.000000" x="0.000000" y="0.000000" opacity="0" fill="rgb(0,0,0)" />
	<g id="组合 1606">
		<path id="矢量 5" d="M7 13.44C7.31889 13.44 7.59889 13.3331 7.84 13.1192C8.90556 12.1858 9.90694 11.0717 10.8442 9.77666C11.7814 8.48555 12.25 7.16333 12.25 5.81C12.25 4.85722 12.0147 3.98028 11.5442 3.17916C11.0736 2.37416 10.4339 1.73639 9.625 1.26583C8.81611 0.795275 7.94111 0.559998 7 0.559998C6.04722 0.559998 5.17028 0.795275 4.36917 1.26583C3.56417 1.73639 2.92639 2.37416 2.45583 3.17916C1.98528 3.98028 1.75 4.85722 1.75 5.81C1.75 7.16333 2.21861 8.48555 3.15583 9.77666C4.09306 11.0717 5.09444 12.1858 6.16 13.1192C6.40111 13.3331 6.68111 13.44 7 13.44ZM7 1.44083C7.79333 1.44083 8.52444 1.63722 9.19333 2.03C9.85833 2.42278 10.3892 2.95166 10.7858 3.61666C11.1825 4.28555 11.3808 5.01666 11.3808 5.81C11.3808 7.00389 10.9472 8.19 10.08 9.36833C9.21278 10.5428 8.27944 11.5733 7.28 12.46C7.19444 12.5339 7.10111 12.5708 7 12.5708C6.89889 12.5708 6.80944 12.5339 6.73167 12.46C5.74389 11.5928 4.81444 10.5661 3.94333 9.38C3.06833 8.19389 2.63083 7.00389 2.63083 5.81C2.63083 5.01666 2.82722 4.28555 3.22 3.61666C3.61278 2.95166 4.14167 2.42278 4.80667 2.03C5.47556 1.63722 6.20667 1.44083 7 1.44083ZM7 4.31083C6.75889 4.31083 6.53722 4.36916 6.335 4.48583C6.13278 4.6025 5.97333 4.76194 5.85667 4.96416C5.74 5.1625 5.68167 5.37833 5.68167 5.61166C5.68167 5.85666 5.74 6.07833 5.85667 6.27666C5.97333 6.47889 6.13278 6.63833 6.335 6.755C6.53722 6.87166 6.75889 6.93 7 6.93C7.23333 6.93 7.45111 6.87166 7.65333 6.755C7.85167 6.63833 8.00917 6.47889 8.12583 6.27666C8.2425 6.07833 8.30083 5.85666 8.30083 5.61166C8.30083 5.37833 8.2425 5.1625 8.12583 4.96416C8.00917 4.76194 7.85167 4.6025 7.65333 4.48583C7.45111 4.36916 7.23333 4.31083 7 4.31083Z" fill="rgb(0,0,0)" fill-opacity="0.898039222" fill-rule="nonzero" />
	</g>
</svg>
