<svg width="20.899902" height="22.010010" viewBox="0 0 20.8999 22.01" fill="none" xmlns="http://www.w3.org/2000/svg" xmlns:xlink="http://www.w3.org/1999/xlink">
	<desc>
			Created with Pixso.
	</desc>
	<defs/>
	<path id="path" d="M0 19.01C0 19.83 0.29 20.54 0.87 21.12C1.45 21.71 2.16 22.01 3 22.01L14.97 22.01C15.8 22.01 16.51 21.71 17.1 21.12C17.68 20.54 17.97 19.83 17.97 19.01L17.97 13.91L16.49 15.4L16.49 19.01C16.49 19.42 16.33 19.77 16.04 20.06C15.74 20.34 15.39 20.49 14.97 20.49L3 20.49C2.58 20.49 2.22 20.34 1.93 20.06C1.63 19.77 1.49 19.42 1.49 19.01L1.49 3C1.49 2.58 1.63 2.22 1.93 1.92C2.22 1.63 2.58 1.48 3 1.48L14.97 1.48C15.39 1.48 15.74 1.63 16.04 1.92C16.33 2.22 16.49 2.58 16.49 3L16.49 9.05L17.97 7.56L17.97 3C17.97 2.16 17.68 1.45 17.1 0.87C16.51 0.29 15.8 0 14.97 0L3 0C2.16 0 1.45 0.29 0.87 0.87C0.29 1.45 0 2.16 0 3L0 19.01ZM13.46 6.92C13.66 6.92 13.84 6.86 13.99 6.71C14.13 6.57 14.21 6.39 14.21 6.18C14.21 5.98 14.13 5.8 13.99 5.65C13.84 5.52 13.66 5.44 13.46 5.44L4.5 5.44C4.3 5.44 4.12 5.52 3.97 5.65C3.83 5.8 3.77 5.98 3.77 6.18C3.77 6.39 3.83 6.57 3.97 6.71C4.12 6.86 4.3 6.92 4.5 6.92L13.46 6.92ZM9.45 11.1C9.66 11.1 9.84 11.03 9.99 10.87C10.13 10.72 10.21 10.54 10.21 10.33C10.21 10.13 10.13 9.95 9.99 9.81C9.84 9.67 9.66 9.6 9.45 9.6L4.5 9.6C4.3 9.6 4.12 9.66 3.97 9.81C3.83 9.95 3.77 10.13 3.77 10.34C3.77 10.54 3.83 10.72 3.97 10.87C4.12 11.03 4.3 11.11 4.5 11.11L9.45 11.1ZM10.04 18.2C10.02 18.27 10 18.32 10 18.36C10 18.47 10.05 18.56 10.14 18.62C10.24 18.68 10.34 18.68 10.46 18.62L12.25 17.61C12.38 17.54 12.56 17.43 12.79 17.28L11.41 15.9L11.06 16.43L10.04 18.2ZM20.58 8.15C20.36 7.93 20.1 7.82 19.81 7.82C19.53 7.82 19.27 7.93 19.04 8.15L12.16 15L11.87 15.31L13.39 16.79C13.42 16.76 13.47 16.72 13.52 16.66C13.59 16.61 13.64 16.55 13.68 16.51L20.58 9.66C20.79 9.46 20.89 9.2 20.89 8.89C20.89 8.6 20.79 8.35 20.58 8.15Z" fill="#000000" fill-opacity="0.600000" fill-rule="nonzero"/>
</svg>
