<svg viewBox="0 0 24 24" xmlns="http://www.w3.org/2000/svg" xmlns:xlink="http://www.w3.org/1999/xlink" width="24.000000" height="24.000000" fill="none">
	<rect id="signal_check" width="24.000000" height="24.000000" x="0.000000" y="0.000000" />
	<rect id="rect" width="24.000000" height="24.000000" x="0.000000" y="0.000000" opacity="0" fill="rgb(0,0,0)" />
	<g id="g">
		<path id="path" d="M10.4201 8.04039C10.4201 7.60706 10.5701 7.24039 10.8701 6.94039C11.1768 6.63372 11.5535 6.48039 12.0001 6.48039C12.4335 6.48039 12.8001 6.63372 13.1001 6.94039C13.4068 7.24039 13.5601 7.60706 13.5601 8.04039C13.5601 8.47372 13.4068 8.84706 13.1001 9.16039C12.8001 9.46706 12.4335 9.62039 12.0001 9.62039C11.5535 9.62039 11.1768 9.46706 10.8701 9.16039C10.5701 8.84706 10.4201 8.47372 10.4201 8.04039ZM12.7901 14.7604L11.3501 14.7604L12.0701 12.9604L12.7901 14.7604ZM12.9601 11.0204C13.6001 10.7937 14.1201 10.4137 14.5201 9.88039C14.9201 9.34039 15.1201 8.72706 15.1201 8.04039C15.1201 7.48039 14.9801 6.95706 14.7001 6.47039C14.4201 5.98372 14.0401 5.60039 13.5601 5.32039C13.0801 5.04039 12.5601 4.90039 12.0001 4.90039C11.4268 4.90039 10.9001 5.04039 10.4201 5.32039C9.94014 5.60039 9.56014 5.98372 9.28014 6.47039C9.00014 6.95706 8.86014 7.48039 8.86014 8.04039C8.86014 8.76039 9.07014 9.39706 9.49014 9.95039C9.91681 10.5037 10.4668 10.8671 11.1401 11.0404L6.91014 21.5004C6.83014 21.7137 6.83347 21.9204 6.92014 22.1204C7.01347 22.3204 7.15347 22.4604 7.34014 22.5404C7.55347 22.6004 7.74347 22.6004 7.91014 22.5404C8.07681 22.4737 8.21681 22.3537 8.33014 22.1804L8.38014 22.0804L9.41014 19.5604L14.6901 19.5604L15.7001 22.1004C15.8068 22.3137 15.9501 22.4537 16.1301 22.5204C16.3035 22.5937 16.5035 22.6004 16.7301 22.5404C16.9235 22.4737 17.0635 22.3371 17.1501 22.1304C17.2368 21.9237 17.2401 21.7237 17.1601 21.5304L12.9601 11.0204ZM10.7001 16.3204L13.4201 16.3204L14.0901 18.0004L10.0301 18.0004L10.7001 16.3204Z" fill="rgb(255,255,255)" fill-opacity="0.600000024" fill-rule="nonzero" />
		<path id="path" d="M8.52031 11.0402C8.05365 10.6402 7.70031 10.1802 7.46031 9.6602C7.22031 9.1402 7.11031 8.54354 7.13031 7.8702C7.16365 7.37687 7.25365 6.9302 7.40031 6.5302C7.55365 6.1302 7.77365 5.77687 8.06031 5.4702C8.09365 5.42353 8.13031 5.3802 8.17031 5.3402C8.21031 5.3002 8.25364 5.26354 8.30031 5.2302C8.44698 5.0902 8.54365 4.90353 8.59031 4.6702C8.63698 4.43687 8.58031 4.22354 8.42031 4.0302C8.28031 3.8702 8.10031 3.78353 7.88031 3.7702C7.66698 3.7502 7.48031 3.81353 7.32031 3.9602C6.76031 4.4402 6.32698 5.02353 6.02031 5.7102C5.72031 6.39687 5.57031 7.09353 5.57031 7.8002C5.57031 8.6802 5.72031 9.49687 6.02031 10.2502C6.32698 11.0035 6.81698 11.6669 7.49031 12.2402C7.66365 12.3869 7.86031 12.4502 8.08031 12.4302C8.29365 12.4169 8.47365 12.3302 8.62031 12.1702C8.74698 12.0102 8.80031 11.8169 8.78031 11.5902C8.76698 11.3702 8.68031 11.1869 8.52031 11.0402ZM16.7503 3.9602C16.5903 3.81353 16.4036 3.7502 16.1903 3.7702C15.9703 3.78353 15.797 3.8702 15.6703 4.0302C15.5436 4.1902 15.477 4.36353 15.4703 4.5502C15.4636 4.7302 15.5136 4.89353 15.6203 5.0402L15.7203 5.1402C16.087 5.4602 16.3736 5.8402 16.5803 6.2802C16.7936 6.7202 16.9136 7.2102 16.9403 7.7502C16.9936 8.51687 16.8736 9.17353 16.5803 9.7202C16.2936 10.2669 15.9736 10.6835 15.6203 10.9702C15.4603 11.1102 15.377 11.2902 15.3703 11.5102C15.3636 11.7235 15.4236 11.9102 15.5503 12.0702C15.7103 12.2302 15.8936 12.3202 16.1003 12.3402C16.3136 12.3535 16.5003 12.2869 16.6603 12.1402C17.1536 11.6935 17.6036 11.0935 18.0103 10.3402C18.417 9.59353 18.5803 8.6902 18.5003 7.6302C18.4536 6.97687 18.3036 6.3302 18.0503 5.6902C17.7903 5.0502 17.357 4.47353 16.7503 3.9602Z" fill="rgb(255,255,255)" fill-opacity="0.600000024" fill-rule="nonzero" />
		<path id="path" d="M5.83021 14.4504C5.94354 14.3037 6.00354 14.1437 6.01021 13.9704C6.01688 13.7904 5.97354 13.6304 5.88021 13.4904C5.84688 13.4437 5.80688 13.3937 5.76021 13.3404C5.20021 12.8804 4.65354 12.1871 4.12021 11.2604C3.58021 10.3271 3.32688 9.17374 3.36021 7.80041C3.39354 6.61374 3.64021 5.61041 4.10021 4.79041C4.56688 3.96374 5.08688 3.28708 5.66021 2.76041C5.69354 2.72708 5.72688 2.69374 5.76021 2.66041C5.88688 2.52041 5.94688 2.35708 5.94021 2.17041C5.93354 1.99041 5.86688 1.82041 5.74021 1.66041C5.59354 1.50041 5.41688 1.41041 5.21021 1.39041C5.00354 1.37708 4.81021 1.44041 4.63021 1.58041C3.93021 2.19374 3.29354 3.01041 2.72021 4.03041C2.15354 5.05708 1.84688 6.29708 1.80021 7.75041C1.76688 8.91708 1.92688 9.97041 2.28021 10.9104C2.63354 11.8437 3.03688 12.6004 3.49021 13.1804C3.95021 13.7537 4.36354 14.2004 4.73021 14.5204C4.90354 14.6671 5.10354 14.7304 5.33021 14.7104C5.55021 14.6971 5.71688 14.6104 5.83021 14.4504ZM19.4402 1.58041C19.2669 1.44041 19.0702 1.37708 18.8502 1.39041C18.6369 1.41041 18.4569 1.50041 18.3102 1.66041C18.1835 1.83374 18.1269 2.02374 18.1402 2.23041C18.1602 2.43708 18.2502 2.60708 18.4102 2.74041C18.9702 3.26708 19.4769 3.94708 19.9302 4.78041C20.3902 5.60708 20.6335 6.61374 20.6602 7.80041C20.7135 9.16041 20.4735 10.3037 19.9402 11.2304C19.4135 12.1571 18.8702 12.8604 18.3102 13.3404C18.1502 13.4737 18.0602 13.6504 18.0402 13.8704C18.0135 14.0971 18.0735 14.2904 18.2202 14.4504C18.3802 14.6104 18.5669 14.6937 18.7802 14.7004C18.9935 14.7071 19.1802 14.6471 19.3402 14.5204C19.7135 14.2004 20.1269 13.7537 20.5802 13.1804C21.0335 12.6004 21.4369 11.8437 21.7902 10.9104C22.1435 9.97041 22.3035 8.91708 22.2702 7.75041C22.2369 6.31041 21.9335 5.08041 21.3602 4.06041C20.7869 3.03374 20.1469 2.20708 19.4402 1.58041Z" fill="rgb(255,255,255)" fill-opacity="0.600000024" fill-rule="nonzero" />
	</g>
</svg>
