<svg viewBox="0 0 16 16" xmlns="http://www.w3.org/2000/svg" xmlns:xlink="http://www.w3.org/1999/xlink" width="16.000000" height="16.000000" fill="none">
	<rect id="download" width="16.000000" height="16.000000" x="0.000000" y="0.000000" />
	<rect id="rect" width="16.000000" height="16.000000" x="0.000000" y="0.000000" opacity="0" fill="rgb(0,0,0)" />
	<g id="g">
		<path id="path" d="M7.26667 11.5201C7.37333 11.6179 7.48667 11.689 7.60667 11.7334C7.73111 11.7823 7.86222 11.8068 8 11.8068C8.13778 11.8068 8.26889 11.7823 8.39333 11.7334C8.51333 11.689 8.62667 11.6179 8.73333 11.5201L11.8533 8.38676C11.9378 8.28009 12.0111 8.12898 12.0067 8.00009C12.0022 7.8712 11.9511 7.76454 11.8533 7.68009C11.7689 7.59565 11.6622 7.5512 11.5333 7.54676C11.4089 7.53787 11.2933 7.5712 11.1867 7.64676L8.49333 10.2868L8.49333 1.92009C8.49333 1.78231 8.44667 1.66454 8.35333 1.56676C8.25556 1.47342 8.13778 1.42676 8 1.42676C7.86222 1.42676 7.74444 1.47342 7.64667 1.56676C7.55333 1.66454 7.50667 1.78231 7.50667 1.92009L7.50667 10.3201L4.84667 7.68009C4.76222 7.58231 4.65111 7.53342 4.51333 7.53342C4.37556 7.53342 4.25778 7.58231 4.16 7.68009C4.05333 7.77787 4 7.89565 4 8.03342C4 8.1712 4.05333 8.28898 4.16 8.38676L7.26667 11.5201Z" fill="rgb(10,89,247)" fill-rule="nonzero" />
		<path id="path" d="M14.1728 10.1934C14.0351 10.1934 13.9195 10.24 13.8262 10.3334C13.7284 10.4311 13.6795 10.5489 13.6795 10.6867L13.6795 12.08C13.6795 12.4845 13.5328 12.8334 13.2395 13.1267C12.9462 13.42 12.5906 13.5667 12.1728 13.5667L3.82617 13.5667C3.41728 13.5667 3.06395 13.42 2.76617 13.1267C2.46839 12.8334 2.31951 12.4845 2.31951 12.08L2.31951 10.7067C2.31951 10.5645 2.27062 10.4467 2.17284 10.3534C2.07951 10.2556 1.96395 10.2067 1.82617 10.2067C1.68395 10.2067 1.56617 10.2556 1.47284 10.3534C1.37506 10.4467 1.32617 10.5645 1.32617 10.7067L1.32617 12.08C1.32617 12.5289 1.43951 12.9445 1.66617 13.3267C1.88839 13.7134 2.19062 14.0178 2.57284 14.24C2.95951 14.4622 3.37728 14.5734 3.82617 14.5734L12.1728 14.5734C12.6351 14.5734 13.0573 14.4622 13.4395 14.24C13.8217 14.0178 14.1262 13.7134 14.3528 13.3267C14.5751 12.9445 14.6862 12.5289 14.6862 12.08L14.6862 10.6867C14.6862 10.5489 14.6351 10.4311 14.5328 10.3334C14.4351 10.24 14.3151 10.1934 14.1728 10.1934Z" fill="rgb(10,89,247)" fill-rule="nonzero" />
	</g>
</svg>
