<svg viewBox="0 0 16 16" xmlns="http://www.w3.org/2000/svg" xmlns:xlink="http://www.w3.org/1999/xlink" width="16.000000" height="16.000000" fill="none">
	<rect id="upload" width="16.000000" height="16.000000" x="0.000000" y="0.000000" />
	<rect id="rect" width="16.000000" height="16.000000" x="0.000000" y="0.000000" opacity="0" fill="rgb(0,0,0)" />
	<g id="g">
		<path id="path" d="M7.48658 2.96009L7.48658 11.3134C7.48658 11.5134 7.5688 11.6579 7.73324 11.7468C7.90213 11.8312 8.0688 11.8312 8.23324 11.7468C8.39769 11.6579 8.47991 11.5134 8.47991 11.3134L8.47991 2.89342L11.1332 5.56676C11.3066 5.70454 11.4777 5.74231 11.6466 5.68009C11.8199 5.61787 11.9332 5.49787 11.9866 5.32009C12.0399 5.14231 11.9955 4.98454 11.8532 4.84676L8.71991 1.71342C8.51546 1.52231 8.27324 1.42676 7.99324 1.42676C7.7088 1.42676 7.46658 1.52231 7.26658 1.71342L4.12658 4.84676C3.97991 4.99787 3.93546 5.16009 3.99324 5.33342C4.05102 5.5112 4.17102 5.62898 4.35324 5.68676C4.53547 5.74454 4.69991 5.70009 4.84658 5.55342L7.48658 2.96009Z" fill="rgb(237,111,33)" fill-rule="nonzero" />
		<path id="path" d="M13.6795 12.0804C13.6795 12.4848 13.5328 12.8337 13.2395 13.127C12.9462 13.4204 12.5906 13.567 12.1728 13.567L3.82617 13.567C3.41728 13.567 3.06395 13.4204 2.76617 13.127C2.46839 12.8337 2.31951 12.4848 2.31951 12.0804L2.31951 10.707C2.31951 10.5026 2.23728 10.3581 2.07284 10.2737C1.90839 10.1893 1.74173 10.1893 1.57284 10.2737C1.40839 10.3581 1.32617 10.5026 1.32617 10.707L1.32617 12.0804C1.32617 12.5293 1.43951 12.9448 1.66617 13.327C1.88839 13.7137 2.19062 14.0181 2.57284 14.2404C2.95951 14.4626 3.37728 14.5737 3.82617 14.5737L12.1728 14.5737C12.6217 14.5737 13.0395 14.4626 13.4262 14.2404C13.8084 14.0181 14.1151 13.7137 14.3462 13.327C14.5728 12.9448 14.6862 12.5293 14.6862 12.0804L14.6862 10.687C14.6862 10.487 14.6017 10.347 14.4328 10.267C14.2595 10.187 14.0906 10.187 13.9262 10.267C13.7617 10.347 13.6795 10.487 13.6795 10.687L13.6795 12.0804Z" fill="rgb(237,111,33)" fill-rule="nonzero" />
	</g>
</svg>
