<svg viewBox="0 0 48 48" xmlns="http://www.w3.org/2000/svg" xmlns:xlink="http://www.w3.org/1999/xlink" width="48.000000" height="48.000000" fill="none" customFrame="#000000">
	<rect id="容器 33" width="48.000000" height="48.000000" x="0.000000" y="0.000000" />
	<circle id="椭圆 73" cx="24" cy="24" r="24" fill="rgb(255,255,255)" style="mix-blend-mode:luminosity" fill-opacity="0.101960786" />
	<circle id="椭圆 73" cx="24" cy="24" r="24" fill="rgb(255,255,255)" fill-opacity="0.400000006" />
	<g id="组合 4163">
		<path id="" d="M27.6816 33.1934L24.8223 33.1934L22.8828 28.3652L15.6055 28.3652L13.7832 33.1934L11.1699 33.1934L18.2246 15.5977L20.334 15.5977L27.6816 33.1934ZM19.1621 19.0547L16.4727 26.1094L21.9922 26.1094L19.1621 19.0547Z" fill="rgb(255,255,255)" fill-rule="nonzero" />
		<path id="" d="M31.5054 32.0054L36.1401 32.0054L36.1401 33.1128L29.6016 33.1128L29.6016 32.313L32.9204 28.6182C33.5448 27.9277 33.9731 27.3843 34.2056 26.9878C34.4403 26.5913 34.5576 26.1595 34.5576 25.6924C34.5576 25.0954 34.3936 24.634 34.0654 24.3081C33.7396 23.98 33.3294 23.8159 32.835 23.8159C32.3314 23.8159 31.8882 23.9868 31.5054 24.3286C31.1226 24.6681 30.848 25.1182 30.6816 25.6787L29.6733 25.1045C29.8784 24.3389 30.284 23.7441 30.8901 23.3203C31.4963 22.8942 32.173 22.6812 32.9204 22.6812C33.4604 22.6812 33.9549 22.7962 34.4038 23.0264C34.8527 23.2542 35.2093 23.5903 35.4736 24.0347C35.7402 24.4767 35.8735 25.0111 35.8735 25.6377C35.8735 26.2438 35.7243 26.818 35.4258 27.3604C35.1273 27.9004 34.6043 28.5806 33.8569 29.4009L31.5054 32.0054Z" fill="rgb(255,255,255)" fill-rule="nonzero" />
	</g>
</svg>
