<svg viewBox="0 0 48 48" xmlns="http://www.w3.org/2000/svg" xmlns:xlink="http://www.w3.org/1999/xlink" width="48.000000" height="48.000000" fill="none" customFrame="#000000">
	<rect id="容器 34" width="48.000000" height="48.000000" x="0.000000" y="0.000000" />
	<circle id="椭圆 73" cx="24" cy="24" r="24" fill="rgb(255,255,255)" style="mix-blend-mode:luminosity" fill-opacity="0.101960786" />
	<circle id="椭圆 73" cx="24" cy="24" r="24" fill="rgb(255,255,255)" fill-opacity="0.400000006" />
	<g id="组合 4163">
		<path id="" d="M25.9766 28.2012C25.9766 29.7832 25.4238 31.0117 24.3184 31.8867C23.2168 32.7578 21.625 33.1934 19.543 33.1934L13.0156 33.1934L13.0156 15.627L18.8223 15.627C20.6973 15.627 22.1934 16.0547 23.3105 16.9102C24.4316 17.7656 24.9922 18.9375 24.9922 20.4258C24.9922 22.0742 24.2715 23.2656 22.8301 24C24.9277 24.6562 25.9766 26.0566 25.9766 28.2012ZM15.5586 17.8828L15.5586 23.1387L18.4414 23.1387C19.6406 23.1387 20.5762 22.8984 21.248 22.418C21.9199 21.9375 22.2559 21.2891 22.2559 20.4727C22.2559 19.6562 21.9199 19.0215 21.248 18.5684C20.5762 18.1113 19.6406 17.8828 18.4414 17.8828L15.5586 17.8828ZM19.1621 30.9375C20.5215 30.9375 21.5449 30.6934 22.2324 30.2051C22.9199 29.7168 23.2637 29.0254 23.2637 28.1309C23.2637 27.2324 22.9199 26.5312 22.2324 26.0273C21.5449 25.5234 20.5215 25.2715 19.1621 25.2715L15.5586 25.2715L15.5586 30.9375L19.1621 30.9375Z" fill="rgb(255,255,255)" fill-rule="nonzero" />
		<path id="" d="M36.0684 30.2144C36.0684 30.8478 35.9191 31.3958 35.6206 31.8584C35.3221 32.321 34.9256 32.6719 34.4312 32.9111C33.9367 33.1481 33.3955 33.2666 32.8076 33.2666C32.0602 33.2666 31.3709 33.0752 30.7397 32.6924C30.1108 32.3096 29.6893 31.749 29.4751 31.0107L30.4834 30.4365C30.6611 30.9971 30.9665 31.4198 31.3994 31.7046C31.8346 31.9894 32.304 32.1318 32.8076 32.1318C33.3591 32.1318 33.8182 31.9621 34.1851 31.6226C34.5542 31.2808 34.7388 30.8068 34.7388 30.2007C34.7388 28.9497 33.8854 28.3242 32.1787 28.3242L31.7446 28.3242L31.7583 27.2031L32.2471 27.2031C32.9375 27.2031 33.4627 27.0356 33.8228 26.7007C34.1828 26.3634 34.3628 25.9339 34.3628 25.4121C34.3628 24.9176 34.2078 24.5303 33.8979 24.25C33.5903 23.9697 33.1938 23.8296 32.7085 23.8296C32.2049 23.8296 31.7777 23.9788 31.4268 24.2773C31.0781 24.5758 30.8104 25.0054 30.6235 25.5659L29.6152 24.9917C29.8408 24.2352 30.235 23.6632 30.7979 23.2759C31.363 22.8885 32.0238 22.6948 32.7803 22.6948C33.6576 22.6948 34.3617 22.9432 34.8926 23.4399C35.4258 23.9344 35.6924 24.5827 35.6924 25.3848C35.6924 25.8975 35.5728 26.3498 35.3335 26.7417C35.0965 27.1336 34.7308 27.4321 34.2363 27.6372C34.8516 27.8332 35.3107 28.151 35.6138 28.5908C35.9168 29.0283 36.0684 29.5695 36.0684 30.2144Z" fill="rgb(255,255,255)" fill-rule="nonzero" />
	</g>
</svg>
