<svg viewBox="0 0 48 48" xmlns="http://www.w3.org/2000/svg" xmlns:xlink="http://www.w3.org/1999/xlink" width="48.000000" height="48.000000" fill="none" customFrame="#000000">
	<rect id="容器 36" width="48.000000" height="48.000000" x="0.000000" y="0.000000" />
	<circle id="椭圆 73" cx="24" cy="24" r="24" fill="rgb(255,255,255)" style="mix-blend-mode:luminosity" fill-opacity="0.101960786" />
	<circle id="椭圆 73" cx="24" cy="24" r="24" fill="rgb(255,255,255)" fill-opacity="0.400000006" />
	<g id="组合 4163">
		<path id="" d="M15.582 25.2949L15.582 30.9141L24.2715 30.9141L24.2715 33.1934L13.0156 33.1934L13.0156 15.5977L24.0078 15.5977L24.0078 17.8828L15.582 17.8828L15.582 23.0391L23.1172 23.0391L23.1172 25.2949L15.582 25.2949Z" fill="rgb(255,255,255)" fill-rule="nonzero" />
		<path id="" d="M35.4531 29.7666L37.0083 29.7666L37.0083 30.8433L35.4531 30.8433L35.4531 33.1128L34.209 33.1128L34.209 30.8433L29.5605 30.8433L29.5605 29.9751L33.522 22.8657L34.8789 22.8657L31.0166 29.7666L34.209 29.7666L34.209 26.9092L35.4531 26.9092L35.4531 29.7666Z" fill="rgb(255,255,255)" fill-rule="nonzero" />
	</g>
</svg>
