<svg viewBox="0 0 48 48" xmlns="http://www.w3.org/2000/svg" xmlns:xlink="http://www.w3.org/1999/xlink" width="48.000000" height="48.000000" fill="none" customFrame="#000000">
	<rect id="容器 32" width="48.000000" height="48.000000" x="0.000000" y="0.000000" />
	<circle id="椭圆 73" cx="24" cy="24" r="24" fill="rgb(255,255,255)" style="mix-blend-mode:luminosity" fill-opacity="0.101960786" />
	<circle id="椭圆 73" cx="24" cy="24" r="24" fill="rgb(255,255,255)" fill-opacity="0.400000006" />
	<g id="组合 4163">
		<path id="" d="M20.9375 23.9062L26.7441 23.9062L26.7441 30.5039C26.2324 31.3672 25.4277 32.0762 24.3301 32.6309C23.2363 33.1816 21.9766 33.457 20.5508 33.457C19.0312 33.457 17.627 33.0742 16.3379 32.3086C15.0527 31.5391 14.0293 30.4551 13.2676 29.0566C12.5098 27.6543 12.1309 26.0645 12.1309 24.2871C12.1309 22.5449 12.4941 20.9941 13.2207 19.6348C13.9473 18.2715 14.9473 17.2148 16.2207 16.4648C17.4941 15.7109 18.9062 15.334 20.457 15.334C21.9297 15.334 23.2168 15.6699 24.3184 16.3418C25.4238 17.0137 26.2168 17.9258 26.6973 19.0781L24.582 20.3027C24.1992 19.502 23.6562 18.8672 22.9531 18.3984C22.25 17.9258 21.4102 17.6895 20.4336 17.6895C19.3438 17.6895 18.375 17.9648 17.5273 18.5156C16.6797 19.0664 16.0195 19.8418 15.5469 20.8418C15.0742 21.8418 14.8379 22.9902 14.8379 24.2871C14.8379 25.6465 15.0898 26.8438 15.5938 27.8789C16.0977 28.9102 16.793 29.7051 17.6797 30.2637C18.5703 30.8223 19.5605 31.1016 20.6504 31.1016C22.2012 31.1016 23.3848 30.6465 24.2012 29.7363L24.2012 26.1855L20.9375 26.1855L20.9375 23.9062Z" fill="rgb(255,255,255)" fill-rule="nonzero" />
		<path id="" d="M36.0684 30.2144C36.0684 30.8478 35.9191 31.3958 35.6206 31.8584C35.3221 32.321 34.9256 32.6719 34.4312 32.9111C33.9367 33.1481 33.3955 33.2666 32.8076 33.2666C32.0602 33.2666 31.3709 33.0752 30.7397 32.6924C30.1108 32.3096 29.6893 31.749 29.4751 31.0107L30.4834 30.4365C30.6611 30.9971 30.9665 31.4198 31.3994 31.7046C31.8346 31.9894 32.304 32.1318 32.8076 32.1318C33.3591 32.1318 33.8182 31.9621 34.1851 31.6226C34.5542 31.2808 34.7388 30.8068 34.7388 30.2007C34.7388 28.9497 33.8854 28.3242 32.1787 28.3242L31.7446 28.3242L31.7583 27.2031L32.2471 27.2031C32.9375 27.2031 33.4627 27.0356 33.8228 26.7007C34.1828 26.3634 34.3628 25.9339 34.3628 25.4121C34.3628 24.9176 34.2078 24.5303 33.8979 24.25C33.5903 23.9697 33.1938 23.8296 32.7085 23.8296C32.2049 23.8296 31.7777 23.9788 31.4268 24.2773C31.0781 24.5758 30.8104 25.0054 30.6235 25.5659L29.6152 24.9917C29.8408 24.2352 30.235 23.6632 30.7979 23.2759C31.363 22.8885 32.0238 22.6948 32.7803 22.6948C33.6576 22.6948 34.3617 22.9432 34.8926 23.4399C35.4258 23.9344 35.6924 24.5827 35.6924 25.3848C35.6924 25.8975 35.5728 26.3498 35.3335 26.7417C35.0965 27.1336 34.7308 27.4321 34.2363 27.6372C34.8516 27.8332 35.3107 28.151 35.6138 28.5908C35.9168 29.0283 36.0684 29.5695 36.0684 30.2144Z" fill="rgb(255,255,255)" fill-rule="nonzero" />
	</g>
</svg>
