<svg viewBox="0 0 40 40" xmlns="http://www.w3.org/2000/svg" xmlns:xlink="http://www.w3.org/1999/xlink" width="40.000000" height="40.000000" fill="none" customFrame="url(#clipPath_0)">
	<defs>
		<clipPath id="clipPath_0">
			<rect width="40.000000" height="40.000000" x="0.000000" y="0.000000" rx="20.000000" fill="rgb(255,255,255)" />
		</clipPath>
		<clipPath id="clipPath_1">
			<rect width="24.000000" height="24.000000" x="8.000000" y="8.000000" fill="rgb(255,255,255)" />
		</clipPath>
		<clipPath id="clipPath_2">
			<rect width="12.000000" height="24.000000" x="14.000000" y="8.000000" fill="rgb(255,255,255)" />
		</clipPath>
	</defs>
	<rect id="Left icon" width="40.000000" height="40.000000" x="0.000000" y="0.000000" rx="20.000000" fill="rgb(255,255,255)" fill-opacity="0.100000001" />
	<g id=".Arrow-App back" customFrame="url(#clipPath_1)">
		<rect id=".Arrow-App back" width="24.000000" height="24.000000" x="8.000000" y="8.000000" />
		<g id="chevron_left" clip-path="url(#clipPath_2)" customFrame="url(#clipPath_2)">
			<rect id="chevron_left" width="12.000000" height="24.000000" x="14.000000" y="8.000000" />
			<rect id="rect" width="12.000000" height="24.000000" x="14.000000" y="8.000000" opacity="0" />
			<g id="g" opacity="0">
				<path id="path" d="M24.2371 27.7175C24.4207 27.552 24.5081 27.3565 24.4994 27.1308C24.4907 26.9051 24.4032 26.7021 24.2371 26.5215L17.6264 20L24.1977 13.4447C24.3901 13.2641 24.4863 13.061 24.4863 12.8354C24.4863 12.6097 24.3901 12.4179 24.1977 12.26C24.0141 12.0945 23.778 12.008 23.4894 12.0005C23.2096 11.9929 22.9866 12.0794 22.8205 12.26L15.895 19.1312C15.6415 19.387 15.5103 19.6766 15.5015 20C15.4841 20.3235 15.6152 20.6131 15.895 20.8688L22.8205 27.7175C23.0041 27.898 23.2271 27.9921 23.4894 27.9996C23.7518 28.0071 24.001 27.9131 24.2371 27.7175Z" fill="rgb(255,255,255)" fill-opacity="0.898039222" fill-rule="nonzero" />
			</g>
			<path id="" d="M16.0859 19.8828L23.0469 12.9219C23.1914 12.7617 23.2637 12.582 23.2637 12.3828C23.2637 12.1797 23.1914 11.998 23.0469 11.8379C22.9023 11.6973 22.7266 11.627 22.5195 11.627C22.3125 11.627 22.1367 11.6973 21.9922 11.8379L15.0078 18.8223C14.7188 19.1113 14.5742 19.4648 14.5742 19.8828C14.5742 20.2969 14.7188 20.6484 15.0078 20.9375L21.9688 27.8691C22.0977 28.0137 22.2695 28.0859 22.4844 28.0859C22.6992 28.0859 22.8789 28.0137 23.0234 27.8691C23.168 27.7285 23.2402 27.5547 23.2402 27.3477C23.2402 27.1367 23.168 26.959 23.0234 26.8145L16.0859 19.8828Z" fill="rgb(255,255,255)" fill-opacity="0.898039222" fill-rule="nonzero" />
		</g>
	</g>
</svg>
