<svg width="48.000008" height="48.000000" viewBox="0 0 48 48" fill="none" xmlns="http://www.w3.org/2000/svg" xmlns:xlink="http://www.w3.org/1999/xlink">
	<desc>
			Created with Pixso.
	</desc>
	<defs/>
	<circle id="椭圆 15" cx="24.000000" cy="24.000000" r="24.000000" fill="#D1B380" fill-opacity="1.000000"/>
	<path id="path" d="M15.3 18.73L16.43 18.73C16.47 18.73 16.51 18.73 16.55 18.74C16.58 18.74 16.62 18.76 16.65 18.77C16.69 18.78 16.72 18.8 16.75 18.82C16.79 18.84 16.82 18.86 16.84 18.89C16.87 18.91 16.9 18.94 16.92 18.97C16.94 19 16.96 19.03 16.98 19.07C16.99 19.1 17 19.14 17.01 19.17C17.02 19.21 17.03 19.25 17.03 19.28L17.34 29.67C17.34 29.71 17.34 29.75 17.33 29.79C17.33 29.83 17.31 29.86 17.3 29.9C17.28 29.94 17.27 29.97 17.24 30C17.22 30.04 17.2 30.07 17.17 30.09C17.14 30.12 17.11 30.15 17.08 30.17C17.05 30.19 17.01 30.21 16.97 30.22C16.94 30.24 16.9 30.25 16.86 30.26C16.82 30.27 16.78 30.27 16.75 30.27L15.03 30.27C14.99 30.27 14.95 30.27 14.92 30.26C14.88 30.25 14.84 30.24 14.8 30.22C14.77 30.21 14.73 30.19 14.7 30.17C14.67 30.15 14.64 30.12 14.61 30.09C14.58 30.07 14.56 30.04 14.53 30C14.51 29.97 14.49 29.94 14.48 29.9C14.46 29.86 14.45 29.83 14.44 29.79C14.44 29.75 14.43 29.71 14.43 29.67L14.73 19.29C14.73 19.25 14.73 19.22 14.74 19.18C14.75 19.15 14.76 19.11 14.78 19.08C14.79 19.04 14.81 19.01 14.83 18.98C14.86 18.95 14.88 18.92 14.91 18.9C14.93 18.87 14.96 18.85 14.99 18.83C15.02 18.81 15.05 18.79 15.09 18.78C15.12 18.76 15.16 18.75 15.19 18.74C15.23 18.73 15.26 18.73 15.3 18.73ZM13.44 30.83L34.1 30.83C34.14 30.83 34.18 30.84 34.22 30.84C34.26 30.85 34.3 30.86 34.33 30.88C34.37 30.89 34.4 30.91 34.44 30.93C34.47 30.96 34.5 30.98 34.53 31.01C34.55 31.04 34.58 31.07 34.6 31.1C34.62 31.13 34.64 31.17 34.66 31.2C34.67 31.24 34.68 31.28 34.69 31.31C34.7 31.35 34.7 31.39 34.7 31.43C34.7 31.47 34.71 31.51 34.71 31.55C34.72 31.59 34.73 31.62 34.75 31.66C34.76 31.7 34.78 31.73 34.8 31.76C34.82 31.8 34.85 31.83 34.88 31.85C34.91 31.88 34.94 31.91 34.97 31.93C35 31.95 35.04 31.97 35.07 31.98C35.11 32 35.15 32.01 35.18 32.02C35.22 32.03 35.26 32.03 35.3 32.03L35.9 32.03C35.94 32.03 35.98 32.04 36.01 32.05C36.05 32.06 36.09 32.07 36.12 32.08C36.15 32.1 36.19 32.12 36.22 32.14C36.25 32.16 36.28 32.19 36.3 32.22C36.33 32.24 36.35 32.27 36.37 32.31C36.39 32.34 36.41 32.37 36.43 32.41C36.44 32.44 36.45 32.48 36.46 32.52C36.47 32.55 36.47 32.59 36.47 32.63L36.47 33.23C36.47 33.27 36.48 33.3 36.49 33.34C36.49 33.38 36.51 33.41 36.52 33.45C36.54 33.48 36.56 33.52 36.58 33.55C36.6 33.58 36.63 33.61 36.65 33.63C36.68 33.66 36.71 33.68 36.74 33.7C36.78 33.72 36.81 33.74 36.85 33.75C36.88 33.77 36.92 33.78 36.95 33.79C36.99 33.79 37.03 33.8 37.07 33.8C37.11 33.8 37.15 33.8 37.18 33.81C37.22 33.82 37.26 33.83 37.3 33.84C37.33 33.86 37.37 33.88 37.4 33.9C37.43 33.92 37.46 33.94 37.49 33.97C37.52 34 37.54 34.03 37.57 34.06C37.59 34.1 37.61 34.13 37.62 34.17C37.64 34.2 37.65 34.24 37.66 34.28C37.66 34.32 37.67 34.36 37.67 34.4C37.67 34.44 37.66 34.47 37.66 34.51C37.65 34.55 37.64 34.59 37.62 34.63C37.61 34.66 37.59 34.7 37.57 34.73C37.54 34.76 37.52 34.79 37.49 34.82C37.46 34.85 37.43 34.87 37.4 34.89C37.37 34.92 37.33 34.93 37.3 34.95C37.26 34.96 37.22 34.98 37.18 34.98C37.15 34.99 37.11 35 37.07 35L10.59 35C10.55 35 10.52 34.99 10.48 34.98C10.44 34.98 10.4 34.96 10.36 34.95C10.33 34.93 10.29 34.92 10.26 34.89C10.23 34.87 10.2 34.85 10.17 34.82C10.14 34.79 10.12 34.76 10.1 34.73C10.07 34.7 10.06 34.66 10.04 34.63C10.03 34.59 10.01 34.55 10.01 34.51C10 34.47 10 34.44 10 34.4C10 34.36 10 34.32 10.01 34.28C10.01 34.24 10.03 34.2 10.04 34.17C10.06 34.13 10.07 34.1 10.1 34.06C10.12 34.03 10.14 34 10.17 33.97C10.2 33.94 10.23 33.92 10.26 33.9C10.29 33.88 10.33 33.86 10.36 33.84C10.4 33.83 10.44 33.82 10.48 33.81C10.52 33.8 10.55 33.8 10.59 33.8C10.63 33.8 10.67 33.79 10.71 33.79C10.74 33.78 10.78 33.77 10.82 33.75C10.85 33.74 10.89 33.72 10.92 33.7C10.95 33.68 10.98 33.66 11.01 33.63C11.03 33.61 11.06 33.58 11.08 33.55C11.1 33.52 11.12 33.48 11.14 33.45C11.15 33.41 11.17 33.38 11.18 33.34C11.19 33.3 11.19 33.27 11.19 33.23L11.19 32.56C11.19 32.52 11.2 32.48 11.2 32.44C11.21 32.4 11.22 32.36 11.24 32.33C11.25 32.29 11.27 32.26 11.29 32.22C11.32 32.19 11.34 32.16 11.37 32.13C11.4 32.11 11.43 32.08 11.46 32.06C11.49 32.04 11.53 32.02 11.56 32C11.6 31.99 11.64 31.98 11.68 31.97C11.71 31.96 11.75 31.96 11.79 31.96L12.39 31.96C12.43 31.96 12.47 31.95 12.51 31.95C12.55 31.94 12.58 31.93 12.62 31.91C12.66 31.9 12.69 31.88 12.72 31.86C12.76 31.84 12.79 31.81 12.81 31.78C12.84 31.76 12.87 31.72 12.89 31.69C12.91 31.66 12.93 31.62 12.94 31.59C12.96 31.55 12.97 31.51 12.98 31.48C12.99 31.44 12.99 31.4 12.99 31.36C13 31.3 13.01 31.24 13.03 31.18C13.06 31.12 13.09 31.07 13.13 31.02C13.17 30.98 13.22 30.94 13.27 30.9C13.32 30.87 13.38 30.85 13.44 30.83ZM35.82 16.95L24.87 11.26C24.7 11.18 24.52 11.11 24.33 11.07C24.15 11.02 23.96 11 23.77 11C23.58 11 23.39 11.02 23.21 11.07C23.02 11.11 22.84 11.18 22.67 11.26L11.71 16.95L11.71 17.63L35.82 17.63L35.82 16.95ZM14.59 18.18L32.95 18.18C32.99 18.18 33.03 18.19 33.07 18.19C33.11 18.2 33.15 18.21 33.18 18.23C33.22 18.24 33.25 18.26 33.29 18.28C33.32 18.31 33.35 18.33 33.38 18.36C33.4 18.39 33.43 18.42 33.45 18.45C33.47 18.48 33.49 18.52 33.51 18.55C33.52 18.59 33.53 18.63 33.54 18.66C33.55 18.7 33.55 18.74 33.55 18.78C33.55 18.82 33.55 18.86 33.54 18.9C33.53 18.94 33.52 18.97 33.51 19.01C33.49 19.05 33.47 19.08 33.45 19.11C33.43 19.15 33.4 19.18 33.38 19.2C33.35 19.23 33.32 19.26 33.29 19.28C33.25 19.3 33.22 19.32 33.18 19.33C33.15 19.35 33.11 19.36 33.07 19.37C33.03 19.38 32.99 19.38 32.95 19.38L14.59 19.38C14.55 19.38 14.51 19.38 14.47 19.37C14.43 19.36 14.4 19.35 14.36 19.33C14.32 19.32 14.29 19.3 14.26 19.28C14.22 19.26 14.19 19.23 14.17 19.2C14.14 19.18 14.11 19.15 14.09 19.11C14.07 19.08 14.05 19.05 14.04 19.01C14.02 18.97 14.01 18.94 14 18.9C13.99 18.86 13.99 18.82 13.99 18.78C13.99 18.74 13.99 18.7 14 18.66C14.01 18.63 14.02 18.59 14.04 18.55C14.05 18.52 14.07 18.48 14.09 18.45C14.11 18.42 14.14 18.39 14.17 18.36C14.19 18.33 14.22 18.31 14.26 18.28C14.29 18.26 14.32 18.24 14.36 18.23C14.4 18.21 14.43 18.2 14.47 18.19C14.51 18.19 14.55 18.18 14.59 18.18ZM30.51 18.7L32.2 18.7C32.24 18.7 32.27 18.71 32.31 18.71C32.35 18.72 32.38 18.73 32.42 18.74C32.45 18.76 32.49 18.78 32.52 18.8C32.55 18.82 32.58 18.84 32.61 18.86C32.64 18.89 32.66 18.92 32.68 18.95C32.7 18.98 32.72 19.01 32.74 19.04C32.76 19.08 32.77 19.11 32.78 19.15C32.79 19.19 32.79 19.22 32.8 19.26L33.11 29.65C33.11 29.69 33.1 29.72 33.1 29.76C33.09 29.8 33.08 29.84 33.06 29.88C33.05 29.91 33.03 29.95 33.01 29.98C32.99 30.01 32.96 30.04 32.93 30.07C32.91 30.1 32.88 30.12 32.84 30.14C32.81 30.17 32.78 30.18 32.74 30.2C32.7 30.21 32.66 30.23 32.63 30.23C32.59 30.24 32.55 30.25 32.51 30.25L30.8 30.25C30.76 30.25 30.72 30.24 30.68 30.23C30.64 30.23 30.6 30.21 30.57 30.2C30.53 30.18 30.5 30.17 30.46 30.14C30.43 30.12 30.4 30.1 30.37 30.07C30.35 30.04 30.32 30.01 30.3 29.98C30.28 29.95 30.26 29.91 30.24 29.88C30.23 29.84 30.22 29.8 30.21 29.76C30.2 29.72 30.2 29.69 30.2 29.65L30.49 18.7L30.51 18.7ZM25.81 18.7L26.95 18.7C26.98 18.7 27.02 18.71 27.06 18.71C27.09 18.72 27.13 18.73 27.17 18.74C27.2 18.76 27.23 18.78 27.27 18.8C27.3 18.82 27.33 18.84 27.35 18.86C27.38 18.89 27.41 18.92 27.43 18.95C27.45 18.98 27.47 19.01 27.49 19.04C27.5 19.08 27.52 19.11 27.53 19.15C27.54 19.19 27.54 19.22 27.54 19.26L27.85 29.65C27.85 29.69 27.85 29.72 27.84 29.76C27.83 29.8 27.82 29.84 27.8 29.88C27.79 29.91 27.77 29.95 27.75 29.98C27.73 30.01 27.7 30.04 27.67 30.07C27.65 30.1 27.62 30.12 27.58 30.14C27.55 30.17 27.52 30.18 27.48 30.2C27.44 30.21 27.41 30.23 27.37 30.23C27.33 30.24 27.29 30.25 27.25 30.25L25.57 30.25C25.53 30.25 25.49 30.24 25.45 30.23C25.41 30.23 25.37 30.21 25.34 30.2C25.3 30.18 25.27 30.17 25.24 30.14C25.2 30.12 25.17 30.1 25.14 30.07C25.12 30.04 25.09 30.01 25.07 29.98C25.05 29.95 25.03 29.91 25.01 29.88C25 29.84 24.99 29.8 24.98 29.76C24.97 29.72 24.97 29.69 24.97 29.65L25.24 19.27C25.24 19.23 25.25 19.2 25.26 19.16C25.27 19.13 25.28 19.09 25.3 19.06C25.31 19.03 25.33 19 25.35 18.97C25.37 18.94 25.4 18.91 25.42 18.89C25.45 18.86 25.48 18.84 25.51 18.82C25.54 18.8 25.57 18.79 25.6 18.77C25.64 18.76 25.67 18.75 25.71 18.74C25.74 18.73 25.78 18.73 25.81 18.73L25.81 18.7ZM20.56 18.7L21.69 18.7C21.73 18.71 21.76 18.71 21.8 18.72C21.84 18.73 21.87 18.74 21.9 18.75C21.94 18.77 21.97 18.78 22 18.81C22.03 18.83 22.06 18.85 22.08 18.87C22.11 18.9 22.13 18.93 22.15 18.96C22.17 18.99 22.19 19.02 22.21 19.05C22.22 19.08 22.24 19.12 22.24 19.15C22.25 19.19 22.26 19.22 22.26 19.26L22.57 29.67C22.57 29.71 22.57 29.75 22.56 29.79C22.55 29.83 22.54 29.86 22.53 29.9C22.51 29.94 22.49 29.97 22.47 30C22.45 30.04 22.43 30.07 22.4 30.09C22.37 30.12 22.34 30.15 22.31 30.17C22.27 30.19 22.24 30.21 22.2 30.22C22.17 30.24 22.13 30.25 22.09 30.26C22.05 30.27 22.01 30.27 21.97 30.27L20.29 30.27C20.25 30.27 20.21 30.27 20.17 30.26C20.13 30.25 20.09 30.24 20.06 30.22C20.02 30.21 19.98 30.19 19.95 30.17C19.92 30.15 19.89 30.12 19.86 30.09C19.83 30.07 19.81 30.04 19.79 30C19.77 29.97 19.75 29.94 19.73 29.9C19.72 29.86 19.71 29.83 19.7 29.79C19.69 29.75 19.69 29.71 19.69 29.67L19.96 19.29C19.96 19.25 19.97 19.22 19.98 19.18C19.99 19.14 20 19.11 20.02 19.07C20.03 19.04 20.05 19.01 20.07 18.97C20.1 18.94 20.12 18.92 20.15 18.89C20.18 18.86 20.21 18.84 20.24 18.82C20.27 18.8 20.3 18.78 20.34 18.77C20.37 18.76 20.41 18.75 20.45 18.74C20.49 18.73 20.52 18.73 20.56 18.73L20.56 18.7Z" fill="#603C00" fill-opacity="1.000000" fill-rule="nonzero"/>
</svg>
