<svg width="48.000000" height="48.000000" viewBox="0 0 48 48" fill="none" xmlns="http://www.w3.org/2000/svg" xmlns:xlink="http://www.w3.org/1999/xlink">
	<desc>
			Created with Pixso.
	</desc>
	<defs/>
	<circle id="椭圆 17" cx="24.000000" cy="24.000000" r="24.000000" fill="#D1B380" fill-opacity="1.000000"/>
	<path id="path" d="M17 12.5L25.16 12.5C25.39 12.5 25.62 12.51 25.85 12.53C26.08 12.55 26.3 12.58 26.53 12.63C26.75 12.67 26.97 12.73 27.19 12.8C27.41 12.86 27.63 12.94 27.84 13.03C28.05 13.12 28.26 13.21 28.46 13.32C28.66 13.43 28.86 13.55 29.05 13.67C29.24 13.8 29.43 13.94 29.6 14.08C29.78 14.23 29.95 14.38 30.11 14.55C30.27 14.71 30.43 14.88 30.57 15.05C30.72 15.23 30.85 15.42 30.98 15.61C31.11 15.8 31.23 15.99 31.34 16.2C31.44 16.4 31.54 16.6 31.63 16.82C31.72 17.03 31.79 17.24 31.86 17.46C31.93 17.68 31.98 17.9 32.03 18.13C32.07 18.35 32.11 18.58 32.13 18.81C32.15 19.04 32.16 19.27 32.16 19.5C32.16 19.72 32.15 19.95 32.13 20.18C32.11 20.41 32.07 20.64 32.03 20.86C31.98 21.09 31.93 21.31 31.86 21.53C31.79 21.75 31.72 21.96 31.63 22.17C31.54 22.39 31.44 22.59 31.34 22.79C31.23 23 31.11 23.19 30.98 23.38C30.85 23.57 30.72 23.76 30.57 23.94C30.43 24.11 30.27 24.28 30.11 24.44C29.95 24.61 29.78 24.76 29.6 24.91C29.43 25.05 29.24 25.19 29.05 25.32C28.86 25.44 28.66 25.56 28.46 25.67C28.26 25.78 28.05 25.87 27.84 25.96C27.63 26.05 27.41 26.13 27.19 26.19C26.97 26.26 26.75 26.32 26.53 26.36C26.3 26.41 26.08 26.44 25.85 26.46C25.62 26.48 25.39 26.5 25.16 26.5L21.66 26.5L21.66 33.5L17 33.5L17 12.5ZM21.66 17.16L21.66 21.83L25.16 21.83C25.24 21.83 25.31 21.82 25.39 21.82C25.47 21.81 25.54 21.8 25.62 21.78C25.69 21.77 25.77 21.75 25.84 21.73C25.91 21.71 25.98 21.68 26.05 21.65C26.13 21.62 26.19 21.59 26.26 21.55C26.33 21.52 26.39 21.48 26.46 21.44C26.52 21.39 26.58 21.35 26.64 21.3C26.7 21.25 26.76 21.2 26.81 21.14C26.87 21.09 26.92 21.03 26.97 20.98C27.01 20.92 27.06 20.85 27.1 20.79C27.14 20.73 27.18 20.66 27.22 20.59C27.26 20.53 27.29 20.46 27.32 20.39C27.35 20.32 27.37 20.25 27.39 20.17C27.42 20.1 27.44 20.03 27.45 19.95C27.47 19.88 27.48 19.8 27.48 19.72C27.49 19.65 27.5 19.57 27.5 19.5C27.5 19.42 27.49 19.34 27.48 19.27C27.48 19.19 27.47 19.11 27.45 19.04C27.44 18.96 27.42 18.89 27.39 18.82C27.37 18.74 27.35 18.67 27.32 18.6C27.29 18.53 27.26 18.46 27.22 18.4C27.18 18.33 27.14 18.26 27.1 18.2C27.06 18.14 27.01 18.07 26.97 18.01C26.92 17.96 26.87 17.9 26.81 17.85C26.76 17.79 26.7 17.74 26.64 17.69C26.58 17.64 26.52 17.6 26.46 17.55C26.39 17.51 26.33 17.47 26.26 17.44C26.19 17.4 26.13 17.37 26.05 17.34C25.98 17.31 25.91 17.28 25.84 17.26C25.77 17.24 25.69 17.22 25.62 17.21C25.54 17.19 25.47 17.18 25.39 17.17C25.31 17.17 25.24 17.16 25.16 17.16L21.66 17.16Z" fill="#603C00" fill-opacity="1.000000" fill-rule="nonzero"/>
</svg>
