<svg width="48.000000" height="48.000000" viewBox="0 0 48 48" fill="none" xmlns="http://www.w3.org/2000/svg" xmlns:xlink="http://www.w3.org/1999/xlink">
	<desc>
			Created with Pixso.
	</desc>
	<defs/>
	<circle id="椭圆 16" cx="24.000000" cy="24.000000" r="24.000000" fill="#D1B380" fill-opacity="1.000000"/>
	<path id="path" d="M32.4 24.2L28.28 24.2C27.25 25.74 26.12 27.21 24.9 28.6L24 29.6L23.1 28.6C21.87 27.21 20.74 25.74 19.71 24.2L15.6 24.2L12 35L36 35L32.4 24.2Z" fill="#603C00" fill-opacity="1.000000" fill-rule="nonzero"/>
	<path id="path" d="M30 17C30 16.8 29.99 16.6 29.97 16.41C29.95 16.21 29.92 16.02 29.88 15.82C29.84 15.63 29.79 15.44 29.74 15.25C29.68 15.07 29.61 14.88 29.54 14.7C29.46 14.52 29.38 14.34 29.29 14.17C29.19 13.99 29.09 13.83 28.98 13.66C28.87 13.5 28.76 13.34 28.63 13.19C28.51 13.04 28.38 12.89 28.24 12.75C28.1 12.61 27.95 12.48 27.8 12.36C27.65 12.23 27.49 12.12 27.33 12.01C27.17 11.9 27 11.8 26.82 11.7C26.65 11.61 26.47 11.53 26.29 11.45C26.11 11.38 25.92 11.31 25.74 11.25C25.55 11.2 25.36 11.15 25.17 11.11C24.97 11.07 24.78 11.04 24.58 11.02C24.39 11 24.19 11 24 11C23.8 11 23.6 11 23.41 11.02C23.21 11.04 23.02 11.07 22.82 11.11C22.63 11.15 22.44 11.2 22.25 11.25C22.07 11.31 21.88 11.38 21.7 11.45C21.52 11.53 21.34 11.61 21.17 11.7C20.99 11.8 20.83 11.9 20.66 12.01C20.5 12.12 20.34 12.23 20.19 12.36C20.04 12.48 19.89 12.61 19.75 12.75C19.61 12.89 19.48 13.04 19.36 13.19C19.23 13.34 19.12 13.5 19.01 13.66C18.9 13.83 18.8 13.99 18.7 14.17C18.61 14.34 18.53 14.52 18.45 14.7C18.38 14.88 18.31 15.07 18.25 15.25C18.2 15.44 18.15 15.63 18.11 15.82C18.07 16.02 18.04 16.21 18.02 16.41C18 16.6 18 16.8 18 17C18 21.1 24 27.8 24 27.8C24 27.8 30 21.1 30 17ZM21.6 17C21.6 16.92 21.6 16.84 21.61 16.76C21.61 16.68 21.63 16.6 21.64 16.53C21.66 16.45 21.68 16.37 21.7 16.3C21.72 16.22 21.75 16.15 21.78 16.08C21.81 16 21.84 15.93 21.88 15.86C21.92 15.79 21.96 15.73 22 15.66C22.04 15.6 22.09 15.53 22.14 15.47C22.19 15.41 22.24 15.35 22.3 15.3C22.35 15.24 22.41 15.19 22.47 15.14C22.53 15.09 22.6 15.04 22.66 15C22.73 14.96 22.79 14.92 22.86 14.88C22.93 14.84 23 14.81 23.08 14.78C23.15 14.75 23.22 14.72 23.3 14.7C23.37 14.68 23.45 14.66 23.53 14.64C23.6 14.63 23.68 14.61 23.76 14.61C23.84 14.6 23.92 14.6 24 14.6C24.07 14.6 24.15 14.6 24.23 14.61C24.31 14.61 24.39 14.63 24.46 14.64C24.54 14.66 24.62 14.68 24.69 14.7C24.77 14.72 24.84 14.75 24.91 14.78C24.99 14.81 25.06 14.84 25.13 14.88C25.2 14.92 25.26 14.96 25.33 15C25.39 15.04 25.46 15.09 25.52 15.14C25.58 15.19 25.64 15.24 25.69 15.3C25.75 15.35 25.8 15.41 25.85 15.47C25.9 15.53 25.95 15.6 25.99 15.66C26.03 15.73 26.07 15.79 26.11 15.86C26.15 15.93 26.18 16 26.21 16.08C26.24 16.15 26.27 16.22 26.29 16.3C26.31 16.37 26.33 16.45 26.35 16.53C26.36 16.6 26.38 16.68 26.38 16.76C26.39 16.84 26.4 16.92 26.4 17C26.4 17.07 26.39 17.15 26.38 17.23C26.38 17.31 26.36 17.39 26.35 17.46C26.33 17.54 26.31 17.62 26.29 17.69C26.27 17.77 26.24 17.84 26.21 17.91C26.18 17.99 26.15 18.06 26.11 18.13C26.07 18.2 26.03 18.26 25.99 18.33C25.95 18.39 25.9 18.46 25.85 18.52C25.8 18.58 25.75 18.64 25.69 18.69C25.64 18.75 25.58 18.8 25.52 18.85C25.46 18.9 25.39 18.95 25.33 18.99C25.26 19.03 25.2 19.07 25.13 19.11C25.06 19.15 24.99 19.18 24.91 19.21C24.84 19.24 24.77 19.27 24.69 19.29C24.62 19.31 24.54 19.33 24.46 19.35C24.39 19.36 24.31 19.38 24.23 19.38C24.15 19.39 24.07 19.4 24 19.4C23.92 19.4 23.84 19.39 23.76 19.38C23.68 19.38 23.6 19.36 23.53 19.35C23.45 19.33 23.37 19.31 23.3 19.29C23.22 19.27 23.15 19.24 23.08 19.21C23 19.18 22.93 19.15 22.86 19.11C22.79 19.07 22.73 19.03 22.66 18.99C22.6 18.95 22.53 18.9 22.47 18.85C22.41 18.8 22.35 18.75 22.3 18.69C22.24 18.64 22.19 18.58 22.14 18.52C22.09 18.46 22.04 18.39 22 18.33C21.96 18.26 21.92 18.2 21.88 18.13C21.84 18.06 21.81 17.99 21.78 17.91C21.75 17.84 21.72 17.77 21.7 17.69C21.68 17.62 21.66 17.54 21.64 17.46C21.63 17.39 21.61 17.31 21.61 17.23C21.6 17.15 21.6 17.07 21.6 17Z" fill="#603C00" fill-opacity="1.000000" fill-rule="nonzero"/>
</svg>
