<svg width="48.000000" height="48.000000" viewBox="0 0 48 48" fill="none" xmlns="http://www.w3.org/2000/svg" xmlns:xlink="http://www.w3.org/1999/xlink">
	<desc>
			Created with Pixso.
	</desc>
	<defs/>
	<circle id="椭圆 14" cx="24.000000" cy="24.000000" r="24.000000" fill="#D1B380" fill-opacity="1.000000"/>
	<path id="path" d="M20.04 30.52C20.13 30.52 20.21 30.51 20.29 30.5C20.37 30.48 20.45 30.46 20.53 30.42C20.61 30.39 20.68 30.35 20.75 30.31C20.82 30.26 20.88 30.21 20.94 30.15C21 30.09 21.05 30.03 21.1 29.96C21.15 29.89 21.18 29.81 21.22 29.74C21.25 29.66 21.27 29.58 21.29 29.5C21.3 29.42 21.31 29.34 21.31 29.25C21.31 29.17 21.3 29.09 21.29 29.01C21.27 28.92 21.25 28.84 21.22 28.77C21.18 28.69 21.15 28.62 21.1 28.55C21.05 28.48 21 28.42 20.94 28.36C20.88 28.3 20.82 28.25 20.75 28.2C20.68 28.15 20.61 28.11 20.53 28.08C20.45 28.05 20.37 28.03 20.29 28.01C20.21 27.99 20.13 27.99 20.04 27.99C19.96 27.99 19.88 27.99 19.8 28.01C19.72 28.03 19.64 28.05 19.56 28.08C19.48 28.12 19.41 28.15 19.34 28.2C19.27 28.25 19.21 28.3 19.15 28.36C19.09 28.42 19.04 28.48 18.99 28.55C18.95 28.62 18.91 28.69 18.88 28.77C18.84 28.85 18.82 28.92 18.8 29.01C18.79 29.09 18.78 29.17 18.78 29.25C18.78 29.34 18.79 29.42 18.8 29.5C18.82 29.58 18.84 29.66 18.88 29.74C18.91 29.81 18.95 29.89 18.99 29.96C19.04 30.03 19.09 30.09 19.15 30.15C19.21 30.21 19.27 30.26 19.34 30.31C19.41 30.35 19.48 30.39 19.56 30.42C19.64 30.45 19.72 30.48 19.8 30.5C19.88 30.51 19.96 30.52 20.04 30.52ZM29.27 29.25C29.27 29.34 29.26 29.42 29.25 29.5C29.23 29.58 29.21 29.66 29.18 29.74C29.14 29.81 29.1 29.89 29.06 29.96C29.01 30.03 28.96 30.09 28.9 30.15C28.84 30.21 28.78 30.26 28.71 30.31C28.64 30.35 28.57 30.39 28.49 30.42C28.41 30.46 28.33 30.48 28.25 30.5C28.17 30.51 28.09 30.52 28.01 30.52C27.92 30.52 27.84 30.51 27.76 30.5C27.68 30.48 27.6 30.46 27.52 30.42C27.44 30.39 27.37 30.35 27.3 30.31C27.23 30.26 27.17 30.21 27.11 30.15C27.05 30.09 27 30.03 26.95 29.96C26.91 29.89 26.87 29.81 26.83 29.74C26.8 29.66 26.78 29.58 26.76 29.5C26.75 29.42 26.74 29.34 26.74 29.25C26.74 29.17 26.75 29.09 26.76 29.01C26.78 28.92 26.8 28.85 26.83 28.77C26.87 28.69 26.91 28.62 26.95 28.55C27 28.48 27.05 28.42 27.11 28.36C27.17 28.3 27.23 28.25 27.3 28.2C27.37 28.15 27.44 28.11 27.52 28.08C27.6 28.05 27.68 28.03 27.76 28.01C27.84 27.99 27.92 27.99 28.01 27.99C28.09 27.99 28.17 27.99 28.25 28.01C28.33 28.03 28.41 28.05 28.49 28.08C28.57 28.11 28.64 28.15 28.71 28.2C28.78 28.25 28.84 28.3 28.9 28.36C28.96 28.42 29.01 28.48 29.06 28.55C29.1 28.62 29.14 28.69 29.18 28.77C29.21 28.85 29.23 28.92 29.25 29.01C29.26 29.09 29.27 29.17 29.27 29.25Z" fill="#603C00" fill-opacity="1.000000" fill-rule="nonzero"/>
	<path id="path" d="M27.88 14.61L27.88 14.6C27.88 12.33 25.92 10.48 23.49 10.48C21.06 10.48 19.09 12.33 19.09 14.6C19.09 14.79 19.11 14.99 19.13 15.17C16.26 16.94 14.19 20.2 13.72 24.05C12.84 24.19 12.16 25.09 12.16 26.19C12.16 27.33 12.9 28.27 13.84 28.34C14.93 33.54 18.99 37.51 23.97 37.51C28.96 37.51 33.01 33.54 34.11 28.34C35.06 28.3 35.83 27.35 35.83 26.19C35.83 25.13 35.2 24.25 34.36 24.07C33.85 19.75 31.31 16.16 27.88 14.61ZM32.9 26C32.9 26.19 32.9 26.39 32.91 26.58C32.84 27.36 32.7 28.12 32.5 28.85C31.68 30.25 29.55 32.09 24.75 32.46C24.71 32.39 24.66 32.33 24.6 32.28C24.54 32.22 24.48 32.18 24.41 32.14C24.34 32.1 24.27 32.06 24.2 32.04C24.12 32.01 24.05 32 23.97 31.99C23.89 31.98 23.81 31.98 23.73 31.99C23.65 32 23.58 32.02 23.5 32.04C23.43 32.07 23.35 32.1 23.29 32.14C23.22 32.19 23.16 32.23 23.1 32.29C23.04 32.34 22.99 32.4 22.95 32.47C22.91 32.54 22.87 32.61 22.84 32.68C22.81 32.76 22.79 32.83 22.78 32.91C22.77 32.99 22.77 33.07 22.77 33.15C22.78 33.22 22.79 33.3 22.82 33.38C22.84 33.45 22.87 33.53 22.91 33.6C22.95 33.67 22.99 33.73 23.04 33.79C23.1 33.85 23.16 33.9 23.22 33.95C23.28 33.99 23.35 34.03 23.43 34.06C23.5 34.1 23.57 34.12 23.65 34.13C23.73 34.15 23.81 34.16 23.89 34.15C23.97 34.15 24.04 34.14 24.12 34.12C24.2 34.1 24.27 34.07 24.34 34.04C24.41 34 24.48 33.96 24.54 33.91C24.6 33.86 24.66 33.8 24.71 33.74C24.76 33.68 24.8 33.61 24.83 33.54C27.8 33.31 29.89 32.54 31.33 31.57C29.68 34.31 26.97 36.06 23.97 36.06C19.59 36.06 15.82 32.32 15.11 27.24C17.35 27.03 20.58 25.82 22.37 22.02C23.65 23.77 27.42 26.78 32.9 26Z" fill="#603C00" fill-opacity="1.000000" fill-rule="nonzero"/>
</svg>
