<svg width="24.000000" height="24.000000" viewBox="0 0 24 24" fill="none" xmlns="http://www.w3.org/2000/svg" xmlns:xlink="http://www.w3.org/1999/xlink">
	<desc>
			Created with Pixso.
	</desc>
	<defs>
		<clipPath id="clip47_1080">
			<rect width="24.000000" height="24.000000" fill="white" fill-opacity="0"/>
		</clipPath>
	</defs>
	<g clip-path="url(#clip47_1080)">
		<path d="M12 3C16.97 3 21 7.02 21 12C21 16.97 16.97 21 12 21C7.02 21 3 16.97 3 12C3 7.02 7.02 3 12 3ZM16.95 12.67C16.99 12.67 17.03 12.67 17.08 12.66C17.12 12.65 17.16 12.64 17.2 12.62C17.24 12.6 17.28 12.58 17.32 12.56C17.36 12.53 17.39 12.5 17.42 12.47C17.45 12.44 17.48 12.41 17.51 12.37C17.53 12.33 17.55 12.29 17.57 12.25C17.59 12.21 17.6 12.17 17.61 12.13C17.62 12.08 17.62 12.04 17.62 12C17.62 11.95 17.62 11.91 17.61 11.86C17.6 11.82 17.59 11.78 17.57 11.74C17.55 11.7 17.53 11.66 17.51 11.62C17.48 11.58 17.45 11.55 17.42 11.52C17.39 11.49 17.36 11.46 17.32 11.43C17.28 11.41 17.24 11.39 17.2 11.37C17.16 11.35 17.12 11.34 17.08 11.33C17.03 11.32 16.99 11.32 16.95 11.32L12.67 11.32L12.67 6.59C12.67 6.55 12.67 6.51 12.66 6.47C12.65 6.43 12.64 6.39 12.62 6.35C12.61 6.31 12.59 6.28 12.57 6.24C12.55 6.21 12.52 6.17 12.49 6.14C12.47 6.11 12.44 6.08 12.4 6.06C12.37 6.03 12.33 6.01 12.3 5.99C12.26 5.97 12.22 5.96 12.18 5.95C12.14 5.93 12.1 5.93 12.06 5.92L12 5.92C11.95 5.92 11.91 5.92 11.86 5.93C11.82 5.94 11.78 5.95 11.74 5.97C11.7 5.99 11.66 6.01 11.62 6.03C11.58 6.06 11.55 6.09 11.52 6.12C11.49 6.15 11.46 6.18 11.43 6.22C11.41 6.26 11.39 6.3 11.37 6.34C11.35 6.38 11.34 6.42 11.33 6.46C11.32 6.51 11.32 6.55 11.32 6.59L11.32 12C11.32 12.04 11.32 12.08 11.33 12.13C11.34 12.17 11.35 12.21 11.37 12.25C11.39 12.29 11.41 12.33 11.43 12.37C11.46 12.41 11.49 12.44 11.52 12.47C11.55 12.5 11.58 12.53 11.62 12.56C11.66 12.58 11.7 12.6 11.74 12.62C11.78 12.64 11.82 12.65 11.86 12.66C11.91 12.67 11.95 12.67 12 12.67L16.95 12.67Z" fill="#000000" fill-opacity="0.400000" fill-rule="nonzero"/>
	</g>
</svg>
