<svg width="24.000000" height="24.000000" viewBox="0 0 24 24" fill="none" xmlns="http://www.w3.org/2000/svg" xmlns:xlink="http://www.w3.org/1999/xlink">
	<desc>
			Created with Pixso.
	</desc>
	<defs>
		<clipPath id="clip47_1074">
			<rect width="24.000000" height="24.000000" fill="white" fill-opacity="0"/>
		</clipPath>
	</defs>
	<g clip-path="url(#clip47_1074)">
		<path d="M20.29 15.87C20.24 15.63 20.17 15.4 20.07 15.17C19.96 14.95 19.84 14.74 19.68 14.55L16.73 10.87C16.59 10.7 16.44 10.55 16.28 10.41C16.11 10.28 15.93 10.17 15.74 10.08C15.55 9.98 15.35 9.91 15.15 9.87C14.94 9.82 14.74 9.79 14.53 9.8L9.46 9.8C9.25 9.79 9.05 9.82 8.84 9.87C8.64 9.91 8.44 9.98 8.25 10.08C8.06 10.17 7.88 10.28 7.71 10.41C7.55 10.55 7.4 10.7 7.26 10.87L4.31 14.55C4.15 14.74 4.03 14.95 3.92 15.17C3.82 15.4 3.75 15.63 3.7 15.87L3.3 17.96C3.28 18.02 3.28 18.09 3.27 18.15C3.27 18.21 3.26 18.27 3.27 18.34C3.27 18.4 3.27 18.46 3.28 18.52C3.29 18.58 3.3 18.65 3.31 18.71C3.33 18.77 3.35 18.83 3.37 18.89C3.39 18.95 3.41 19 3.44 19.06C3.47 19.11 3.5 19.17 3.53 19.22C3.56 19.27 3.6 19.32 3.64 19.37C3.67 19.42 3.71 19.47 3.76 19.51C3.8 19.56 3.85 19.6 3.89 19.63C3.94 19.67 3.99 19.71 4.04 19.74C4.09 19.77 4.15 19.8 4.2 19.83C4.26 19.86 4.31 19.88 4.37 19.9C4.43 19.92 4.48 19.94 4.54 19.95C4.6 19.97 4.66 19.98 4.72 19.98C4.78 19.99 4.84 20 4.9 20L19.09 20C19.15 20 19.21 19.99 19.27 19.98C19.33 19.98 19.39 19.97 19.45 19.95C19.51 19.94 19.56 19.92 19.62 19.9C19.68 19.88 19.73 19.86 19.79 19.83C19.84 19.8 19.9 19.77 19.95 19.74C20 19.71 20.05 19.67 20.1 19.63C20.14 19.6 20.19 19.55 20.23 19.51C20.28 19.47 20.32 19.42 20.35 19.37C20.39 19.32 20.43 19.27 20.46 19.22C20.49 19.17 20.52 19.11 20.55 19.06C20.58 19 20.6 18.95 20.62 18.89C20.64 18.83 20.66 18.77 20.68 18.71C20.69 18.65 20.7 18.58 20.71 18.52C20.72 18.46 20.72 18.4 20.72 18.34C20.73 18.27 20.72 18.21 20.72 18.15C20.71 18.09 20.71 18.02 20.69 17.96L20.29 15.87ZM12 15.75C10.19 15.75 8.72 14.79 8.72 13.62C8.72 12.45 10.19 11.5 12 11.5C13.8 11.5 15.27 12.45 15.27 13.62C15.27 14.79 13.8 15.75 12 15.75ZM21 7.67L21 8.73C20.99 8.8 20.99 8.87 20.98 8.94C20.96 9.01 20.94 9.07 20.92 9.14C20.89 9.2 20.86 9.26 20.82 9.32C20.79 9.38 20.74 9.43 20.7 9.48C20.65 9.53 20.6 9.58 20.54 9.62C20.48 9.65 20.43 9.69 20.36 9.71C20.3 9.74 20.24 9.76 20.17 9.77C20.11 9.79 20.04 9.79 19.97 9.8L16.29 9.8C16.22 9.79 16.16 9.79 16.09 9.77C16.03 9.76 15.96 9.74 15.9 9.71C15.84 9.69 15.78 9.65 15.72 9.62C15.67 9.58 15.62 9.53 15.57 9.48C15.52 9.43 15.48 9.38 15.44 9.32C15.4 9.26 15.37 9.2 15.35 9.14C15.32 9.07 15.3 9.01 15.29 8.94C15.27 8.87 15.27 8.8 15.27 8.73L15.27 7.67C15.27 7.41 14.95 7.09 14.43 6.86C13.79 6.56 12.92 6.4 12 6.4C11.07 6.4 10.2 6.56 9.56 6.86C9.04 7.09 8.72 7.41 8.72 7.67L8.72 8.73C8.72 8.8 8.72 8.87 8.7 8.94C8.69 9.01 8.67 9.07 8.64 9.14C8.62 9.2 8.59 9.26 8.55 9.32C8.51 9.38 8.47 9.43 8.42 9.48C8.37 9.53 8.32 9.58 8.27 9.62C8.21 9.65 8.15 9.69 8.09 9.71C8.03 9.74 7.96 9.76 7.9 9.77C7.83 9.79 7.77 9.79 7.7 9.8L4.02 9.8C3.95 9.79 3.88 9.79 3.82 9.77C3.75 9.76 3.69 9.74 3.63 9.71C3.56 9.69 3.51 9.65 3.45 9.62C3.39 9.58 3.34 9.53 3.29 9.48C3.25 9.43 3.21 9.38 3.17 9.32C3.13 9.26 3.1 9.2 3.07 9.14C3.05 9.07 3.03 9.01 3.01 8.94C3 8.87 3 8.8 3 8.73L3 7.67C3 6.36 3.97 5.16 5.74 4.28C7.42 3.45 9.64 3 12 3C14.35 3 16.57 3.45 18.25 4.28C20.02 5.16 21 6.36 21 7.67Z" fill="#000000" fill-opacity="0.400000" fill-rule="nonzero"/>
	</g>
</svg>
