<svg width="24.000000" height="24.000000" viewBox="0 0 24 24" fill="none" xmlns="http://www.w3.org/2000/svg" xmlns:xlink="http://www.w3.org/1999/xlink">
	<desc>
			Created with Pixso.
	</desc>
	<defs>
		<clipPath id="clip47_1090">
			<rect width="24.000000" height="24.000000" fill="white" fill-opacity="0"/>
		</clipPath>
	</defs>
	<g clip-path="url(#clip47_1090)">
		<path d="M20 22L17.33 22L16.77 20.7L7.22 20.7L6.66 22L4 22L6.72 17.93C6.19 17.77 5.75 17.46 5.4 16.99C5.06 16.52 4.88 15.98 4.88 15.37L4.88 6.04C4.88 5.67 4.98 5.32 5.16 4.99C5.35 4.65 5.58 4.35 5.85 4.07C6.11 3.79 6.39 3.56 6.67 3.36C6.95 3.16 7.2 3.01 7.41 2.91C7.61 2.81 7.84 2.7 8.09 2.59C8.34 2.48 8.63 2.38 8.98 2.29C9.32 2.21 9.72 2.14 10.18 2.08C10.63 2.02 11.16 2 11.77 2C12.46 2 13.06 2.03 13.59 2.09C14.11 2.15 14.57 2.24 14.96 2.35C15.35 2.45 15.7 2.57 16 2.71C16.29 2.84 16.56 2.98 16.81 3.12C17.06 3.27 17.32 3.43 17.6 3.61C17.87 3.8 18.12 4.01 18.34 4.24C18.56 4.48 18.74 4.74 18.89 5.04C19.03 5.34 19.11 5.67 19.11 6.04L19.11 15.37C19.11 15.98 18.93 16.52 18.58 16.99C18.23 17.46 17.78 17.77 17.25 17.93L20 22ZM10.05 3.38C9.87 3.38 9.72 3.44 9.6 3.57C9.47 3.7 9.41 3.86 9.41 4.06C9.41 4.25 9.47 4.4 9.6 4.53C9.72 4.66 9.87 4.72 10.05 4.72L13.98 4.72C14.16 4.72 14.31 4.66 14.43 4.53C14.56 4.4 14.62 4.25 14.62 4.06C14.62 3.86 14.56 3.7 14.43 3.57C14.31 3.44 14.16 3.38 13.98 3.38L10.05 3.38ZM6.17 10.05L17.8 10.05L17.8 6.04L6.17 6.04L6.17 10.05ZM6.83 16.97C7.08 16.97 7.29 16.88 7.47 16.69C7.65 16.51 7.74 16.29 7.74 16.03C7.74 15.76 7.65 15.53 7.47 15.35C7.29 15.17 7.08 15.07 6.83 15.07C6.57 15.07 6.34 15.17 6.17 15.35C5.99 15.53 5.9 15.76 5.9 16.03C5.9 16.29 5.99 16.51 6.17 16.69C6.34 16.88 6.57 16.97 6.83 16.97ZM16.17 19.38L15.59 18.03L8.4 18.03L7.8 19.38L16.17 19.38ZM16.23 16.03C16.23 16.29 16.32 16.51 16.5 16.69C16.68 16.88 16.9 16.97 17.16 16.97C17.42 16.97 17.65 16.88 17.82 16.69C18 16.51 18.09 16.29 18.09 16.03C18.09 15.76 18 15.53 17.82 15.35C17.65 15.17 17.42 15.07 17.16 15.07C16.9 15.07 16.68 15.17 16.5 15.35C16.32 15.53 16.23 15.76 16.23 16.03Z" fill="#000000" fill-opacity="0.400000" fill-rule="nonzero"/>
	</g>
</svg>
