<svg width="24.000000" height="24.000000" viewBox="0 0 24 24" fill="none" xmlns="http://www.w3.org/2000/svg" xmlns:xlink="http://www.w3.org/1999/xlink">
	<desc>
			Created with Pixso.
	</desc>
	<defs>
		<clipPath id="clip47_1085">
			<rect width="24.000000" height="24.000000" fill="white" fill-opacity="0"/>
		</clipPath>
	</defs>
	<g clip-path="url(#clip47_1085)">
		<path d="M19.92 7.31L19.56 7.31L19.56 5.52C19.56 4.92 19.12 4.22 18.59 3.95C18.59 3.95 16.68 3 12 3C7.31 3 5.4 3.95 5.4 3.95C4.87 4.22 4.43 4.92 4.43 5.52L4.43 7.31L4.07 7.31C3.48 7.31 3 7.8 3 8.4L3 9.47C3 10.07 3.48 10.55 4.07 10.55L4.43 10.55L4.43 17.94C4.43 18.4 4.74 18.8 5.15 18.95L5.15 19.56C5.15 20.35 5.8 21 6.59 21C7.39 21 8.03 20.35 8.03 19.56L8.03 19.02L15.96 19.02L15.96 19.56C15.96 20.35 16.6 21 17.4 21C18.19 21 18.84 20.35 18.84 19.56L18.84 18.95C19.25 18.8 19.56 18.4 19.56 17.94L19.56 10.55L19.92 10.55C20.51 10.55 21 10.07 21 9.47L21 8.4C21 7.8 20.51 7.31 19.92 7.31ZM8.39 4.8C8.39 4.6 8.56 4.43 8.75 4.43L15.24 4.43C15.43 4.43 15.6 4.6 15.6 4.8L15.6 5.52C15.6 5.71 15.43 5.88 15.24 5.88L8.75 5.88C8.56 5.88 8.39 5.71 8.39 5.52L8.39 4.8ZM6.77 17.58C6.28 17.58 5.87 17.17 5.87 16.68C5.87 16.18 6.28 15.78 6.77 15.78C7.27 15.78 7.67 16.18 7.67 16.68C7.67 17.17 7.27 17.58 6.77 17.58ZM17.21 17.58C16.72 17.58 16.32 17.17 16.32 16.68C16.32 16.18 16.72 15.78 17.21 15.78C17.71 15.78 18.12 16.18 18.12 16.68C18.12 17.17 17.71 17.58 17.21 17.58ZM18.12 13.44C18.12 13.63 17.95 13.8 17.76 13.8L6.23 13.8C6.04 13.8 5.87 13.63 5.87 13.44L5.87 7.68C5.87 7.48 6.04 7.32 6.23 7.32L17.76 7.32C17.95 7.32 18.12 7.48 18.12 7.68L18.12 13.44Z" fill="#000000" fill-opacity="0.400000" fill-rule="nonzero"/>
	</g>
</svg>
