<svg width="24.000000" height="24.000000" viewBox="0 0 24 24" fill="none" xmlns="http://www.w3.org/2000/svg" xmlns:xlink="http://www.w3.org/1999/xlink">
	<desc>
			Created with Pixso.
	</desc>
	<defs>
		<clipPath id="clip107_2579">
			<rect id="svg" width="24.000000" height="24.000000" transform="matrix(1 0 0 -1 0 24)" fill="white" fill-opacity="0"/>
		</clipPath>
	</defs>
	<g clip-path="url(#clip107_2579)">
		<path id="path" d="M22.51 11.97C22.51 17.78 17.8 22.5 11.99 22.5C6.17 22.5 1.46 17.78 1.46 11.97C1.46 6.16 6.17 1.45 11.99 1.45C17.8 1.45 22.51 6.16 22.51 11.97ZM21.01 11.97C21.01 6.99 16.97 2.94 11.99 2.94C7 2.94 2.96 6.99 2.96 11.97C2.96 16.96 7 21 11.99 21C16.97 21 21.01 16.96 21.01 11.97Z" fill="#000000" fill-opacity="0.600000" fill-rule="nonzero"/>
		<path id="path" d="M12.28 10.73L16.78 15.23C17.07 15.52 17.54 15.52 17.84 15.23C18.13 14.94 18.13 14.46 17.84 14.17L12.28 8.62C12.12 8.46 11.85 8.46 11.69 8.62L6.14 14.17C5.85 14.46 5.85 14.94 6.14 15.23C6.43 15.52 6.9 15.52 7.19 15.23L11.69 10.73C11.85 10.57 12.12 10.57 12.28 10.73Z" fill="#000000" fill-opacity="0.600000" fill-rule="nonzero"/>
	</g>
</svg>
