<svg viewBox="0 0 105.969 86.9867" xmlns="http://www.w3.org/2000/svg" xmlns:xlink="http://www.w3.org/1999/xlink" width="105.968765" height="86.986664" fill="none" customFrame="#000000">
	<g id="g">
		<path id="path" d="M56.91 0.886667C55.4789 0.295556 54.0633 0 52.6633 0C51.2322 0 49.8167 0.295556 48.4167 0.886667L2.59 20.4867C1.47 20.9222 0.707778 21.7622 0.303333 23.0067C-0.101111 24.22 -0.101111 25.4489 0.303333 26.6933C0.707778 27.9378 1.47 28.7778 2.59 29.2133L48.51 47.6933C51.0611 48.8133 53.7056 48.8133 56.4433 47.6933L103.157 29.2133C104.37 28.7778 105.194 27.9689 105.63 26.7867C106.066 25.6356 106.081 24.4533 105.677 23.24C105.272 21.9956 104.51 21.1556 103.39 20.72L56.91 0.886667Z" opacity="0.0700000003" fill="rgb(254,79,53)" fill-rule="nonzero" />
		<path id="path" d="M87.9433 43.54C87.0411 43.1667 85.8433 43.1667 84.35 43.54C83.4478 43.7578 81.2855 44.5667 77.8633 45.9667C74.41 47.3355 71.9833 48.3622 70.5833 49.0467C68.5611 49.8555 66.3678 50.7889 64.0033 51.8467C61.67 52.8733 59.8966 53.6978 58.6833 54.32C57.8122 54.7556 57.0344 55.2844 56.35 55.9067C55.6655 56.56 55.0744 57.2911 54.5767 58.1C54.2033 58.4733 53.7833 59.1889 53.3167 60.2467C53.3167 60.3711 53.2078 60.7133 53.1766 60.8067L52.6633 60.2467C52.1967 59.1889 51.7767 58.4733 51.4033 58.1C50.5944 56.8244 49.6611 55.8133 48.6033 55.0667L47.2967 54.32C44.59 52.9511 40.0633 50.9133 33.7167 48.2067C27.37 45.4689 23.2633 43.9133 21.3967 43.54C19.9033 43.26 18.6433 43.3222 17.6167 43.7267C16.5589 44.1311 15.8433 44.9711 15.47 46.2467C15.3144 47.0555 15.2522 50.8044 15.2833 57.4933C15.3455 64.1822 15.5633 68.2733 15.9367 69.7667C16.2167 71.1667 16.87 72.5044 17.8967 73.78C18.8922 75.0555 20.0278 76.1444 21.3033 77.0467C22.7033 77.9489 24.9278 78.8978 27.9767 79.8933C30.9944 80.8889 35.2567 82.18 40.7633 83.7667C44.1233 84.7311 47.4522 85.6956 50.75 86.66C51.4967 86.8778 52.2433 86.9867 52.99 86.9867C53.7367 86.9867 54.4833 86.8778 55.23 86.66C57.4078 86.0689 59.57 85.4311 61.7166 84.7467C68.6544 82.7556 73.8811 81.2 77.3967 80.08C80.9122 78.96 83.3389 77.9489 84.6767 77.0467C85.9522 76.1444 87.0878 75.0555 88.0833 73.78C89.11 72.5044 89.7633 71.1667 90.0433 69.7667C90.3544 68.8644 90.5255 66.6711 90.5566 63.1867C90.5878 59.7333 90.5722 54.0867 90.51 46.2467C90.2922 45.6556 89.9811 45.1267 89.5767 44.66C89.1411 44.2244 88.5967 43.8511 87.9433 43.54ZM97.4633 38.2667C96.4989 38.2667 95.6744 38.6089 94.99 39.2933C94.3055 39.9778 93.9633 40.8022 93.9633 41.7667L93.9633 68.32C93.9633 69.2844 94.3055 70.0933 94.99 70.7467C95.6744 71.4311 96.4989 71.7733 97.4633 71.7733C98.4278 71.7733 99.2678 71.4311 99.9833 70.7467C100.699 70.0933 101.057 69.2844 101.057 68.32L101.057 41.7667C101.057 40.8022 100.699 39.9778 99.9833 39.2933C99.2678 38.6089 98.4278 38.2667 97.4633 38.2667Z" opacity="0.0700000003" fill="rgb(254,79,53)" fill-rule="nonzero" />
	</g>
</svg>
