<svg viewBox="-48 -48 318 296" width="318" height="296" xmlns="http://www.w3.org/2000/svg" xmlns:xlink="http://www.w3.org/1999/xlink" fill="none">

	<filter id="blurMe">
		<feGaussianBlur in="SourceGraphic" stdDeviation="16" />
	</filter>

	<g fill="#ED6F21" filter="url(#blurMe)">
		<path id="path" d="M215.897 166.583C214.136 168.334 212.131 169.737 209.883 170.793C207.635 171.85 205.274 172.498 202.801 172.738L93.2254 185.492C78.1374 187.252 61.5102 175.818 56.0861 159.961L16.6868 44.8177C14.2895 37.8063 14.484 31.1034 16.7555 25.652C17.7714 23.1819 19.2151 20.9933 21.0868 19.0863L6.11891 34.2749C0.231307 40.252 -1.77127 49.8006 1.71899 59.9892L41.1125 175.132C46.5367 190.983 63.1695 202.418 78.2575 200.663L187.861 187.932C190.112 187.673 192.281 187.101 194.367 186.218C194.939 185.972 195.477 185.715 196.009 185.429C196.278 185.292 196.541 185.143 196.799 184.989C197.314 184.686 197.811 184.366 198.286 184.023C198.527 183.852 198.767 183.681 198.996 183.498C199.685 182.968 200.337 182.397 200.953 181.783L215.897 166.583Z" />
		<path id="path" d="M143.753 0.177752C158.841 -1.57654 175.468 9.85203 180.892 25.7035L220.292 140.846C225.716 156.703 217.883 170.983 202.795 172.738L93.2195 185.492C78.1316 187.252 61.5044 175.818 56.0803 159.961L16.681 44.8178C11.2569 28.9663 19.0898 14.6921 34.1778 12.9321L143.753 0.177752Z" />
		<path id="path" d="M203.373 171.583L93.7975 184.338C78.7095 186.092 62.0824 174.663 56.6583 158.806L17.259 43.6634C14.7472 36.3034 15.0847 29.292 17.6767 23.7091C14.5698 29.4634 13.9862 36.9434 16.6811 44.8177L56.0804 159.989C61.5046 175.846 78.1317 187.281 93.2197 185.521L202.795 172.766C210.88 171.829 216.876 167.286 219.868 160.841C216.716 166.641 210.965 170.698 203.373 171.583Z" />
	</g>
</svg>
