<svg viewBox="0 0 120 120" xmlns="http://www.w3.org/2000/svg" xmlns:xlink="http://www.w3.org/1999/xlink" width="120.000000" height="120.000000" fill="none">
	<rect id="svg" width="120.000000" height="120.000000" x="0.000000" y="0.000000" />
	<g id="EmptyPage/40-NoCourse">
		<g id="编组">
			<g id="g">
				<path id="形状结合" d="M91.3465 83.9627L94.9578 87.5756C94.5992 88.4621 94.7456 89.505 95.397 90.2637L95.534 90.4115L98.7324 93.6089C98.1159 95.3385 96.5004 96.5939 94.5804 96.6804L94.3684 96.6851L66.645 96.6851C63.1217 96.6851 58.8184 97.2719 56.2475 99.9065C55.8462 100.318 55.4692 100.513 55.1166 100.493L55 100.479L55 97.8563C59.6161 95.0534 64.6353 92.5982 70.0574 90.4906C72.39 89.5839 74.7347 88.7659 77.0915 88.0365C77.9123 88.1492 78.7503 88.2072 79.6018 88.2072C83.9126 88.2072 87.8766 86.7223 91.0102 84.2361L91.3465 83.9627ZM94.3684 33.2514C96.8553 33.2514 98.8844 35.2114 98.9952 37.671L99 37.883L99.001 86.0684C98.3436 85.6677 97.5479 85.5828 96.8319 85.814L96.6548 85.8784L93.0874 82.3109C96.0951 79.0398 97.9714 74.6315 97.9714 69.8375C97.9714 62.1393 93.236 55.547 86.5191 52.8148L86.519 33.251L94.3684 33.2514Z" opacity="0.400000006" fill="rgb(161,167,179)" fill-rule="evenodd" />
				<path id="形状结合" d="M94.9578 87.5756C94.5992 88.4621 94.7456 89.505 95.397 90.2637L95.534 90.4115L98.7324 93.6089C98.1159 95.3385 96.5004 96.5939 94.5804 96.6804L94.3684 96.6851L66.645 96.6851C63.1217 96.6851 58.8184 97.2719 56.2475 99.9065C55.8462 100.318 55.4692 100.513 55.1166 100.493L55 100.479L55 97.8563C59.6161 95.0534 64.6353 92.5982 70.0574 90.4906C72.39 89.5839 74.7347 88.7659 77.0915 88.0365C77.9123 88.1492 78.7503 88.2072 79.6018 88.2072C83.9126 88.2072 87.8766 86.7223 91.0102 84.2361L91.3465 83.9627L94.9578 87.5756ZM98.9952 37.671L99 37.883L99.001 86.0684C98.3436 85.6677 97.5479 85.5828 96.8319 85.814L96.6548 85.8784L93.0874 82.3109C96.0951 79.0398 97.9714 74.6315 97.9714 69.8375C97.9714 62.1393 93.236 55.547 86.5191 52.8148L86.519 33.251L94.3684 33.2514C96.8553 33.2514 98.8844 35.2114 98.9952 37.671Z" opacity="0.400000006" fill-rule="evenodd" stroke="rgb(0,0,0)" stroke-opacity="0" stroke-width="1" />
				<path id="形状结合" d="M23.481 33.251L23.48 64.574L20.3504 64.5747C20.139 64.5747 19.9313 64.6238 19.7432 64.7172L19.6061 64.7955C18.9743 65.2065 18.7954 66.0519 19.2064 66.6837L20.2335 68.2624C20.5279 68.7149 20.5279 69.2984 20.2335 69.7509L19.2064 71.3296C19.0623 71.5511 18.9856 71.8097 18.9856 72.0739C18.9856 72.8277 19.5967 73.4387 20.3504 73.4387L23.48 73.438L23.4802 81.9035L23.4853 82.1232C23.5814 84.1635 25.0091 85.912 27.0099 86.4021C31.3613 87.4679 35.6722 88.8307 39.9426 90.4906C45.3647 92.5982 50.3839 95.0534 55 97.8563L55 100.479L54.8834 100.493C54.5308 100.513 54.1538 100.318 53.7525 99.9065C51.1816 97.2719 46.8783 96.6851 43.355 96.6851L15.6316 96.6851L15.4196 96.6804C12.96 96.5696 11 94.5405 11 92.0536L11 37.883L11.0048 37.671C11.1156 35.2114 13.1447 33.2514 15.6316 33.2514L23.481 33.251Z" opacity="0.100000001" fill="rgb(161,167,179)" fill-rule="evenodd" />
				<path id="形状结合" d="M23.48 64.574L20.3504 64.5747C20.139 64.5747 19.9313 64.6238 19.7432 64.7172L19.6061 64.7955C18.9743 65.2065 18.7954 66.0519 19.2064 66.6837L20.2335 68.2624C20.5279 68.7149 20.5279 69.2984 20.2335 69.7509L19.2064 71.3296C19.0623 71.5511 18.9856 71.8097 18.9856 72.0739C18.9856 72.8277 19.5967 73.4387 20.3504 73.4387L23.48 73.438L23.4802 81.9035L23.4853 82.1232C23.5814 84.1635 25.0091 85.912 27.0099 86.4021C31.3613 87.4679 35.6722 88.8307 39.9426 90.4906C45.3647 92.5982 50.3839 95.0534 55 97.8563L55 100.479L54.8834 100.493C54.5308 100.513 54.1538 100.318 53.7525 99.9065C51.1816 97.2719 46.8783 96.6851 43.355 96.6851L15.6316 96.6851L15.4196 96.6804C12.96 96.5696 11 94.5405 11 92.0536L11 37.883L11.0048 37.671C11.1156 35.2114 13.1447 33.2514 15.6316 33.2514L23.481 33.251L23.48 64.574Z" opacity="0.100000001" fill-rule="evenodd" stroke="rgb(0,0,0)" stroke-opacity="0" stroke-width="1" />
				<path id="形状结合" d="M86.4605 21.7952C86.4999 21.9661 86.5199 22.1409 86.5199 22.3163L86.5201 52.8152C84.3848 51.9465 82.0492 51.4679 79.6018 51.4679C69.4565 51.4679 61.2322 59.6923 61.2322 69.8375C61.2322 79.1313 68.1339 86.8131 77.0916 88.0371C74.7347 88.7659 72.3901 89.5839 70.0575 90.4906C64.6353 92.5982 59.6162 95.0534 55 97.8563L54.0714 97.3004C49.7129 94.7276 45.0033 92.4577 39.9426 90.4906C35.6722 88.8307 31.3613 87.4679 27.0099 86.4021C25.0091 85.912 23.5814 84.1635 23.4854 82.1232L23.4802 81.9035L23.4795 73.438L31.665 73.4387C32.3744 73.4387 32.9574 72.8974 33.0235 72.2054L33.0298 72.0739L33.0298 65.9395C33.0298 65.23 32.4885 64.6471 31.7964 64.5809L31.665 64.5747L23.4795 64.574L23.4802 22.3163C23.4802 22.1409 23.5001 21.9661 23.5396 21.7952C23.8274 20.549 25.0709 19.7721 26.3171 20.0599C36.653 22.4469 43.7704 24.2673 47.6693 25.5213C51.8064 26.8518 54.2324 29.7343 54.9472 34.1688L55 34.5221C55.6412 29.8871 58.0847 26.8868 62.3307 25.5213C66.2296 24.2673 73.347 22.4469 83.683 20.0599C84.9292 19.7721 86.1727 20.549 86.4605 21.7952ZM53.5721 56.5508C52.8753 56.2693 52.0822 56.6059 51.8007 57.3027C51.5192 57.9995 51.8558 58.7925 52.5526 59.0741L59.1411 61.736C59.8379 62.0175 60.631 61.6809 60.9125 60.9841C61.194 60.2873 60.8574 59.4943 60.1606 59.2127L53.5721 56.5508ZM59.1936 48.2187C58.5934 47.7665 57.7402 47.8864 57.288 48.4865C56.8357 49.0867 56.9556 49.9399 57.5558 50.3922L63.2308 54.6686C63.831 55.1209 64.6842 55.001 65.1365 54.4008C65.5887 53.8006 65.4688 52.9475 64.8686 52.4952L59.1936 48.2187ZM65.7051 41.6201C65.2425 41.0279 64.3873 40.9229 63.7951 41.3856C63.203 41.8482 63.098 42.7034 63.5606 43.2955L67.9355 48.8951C68.3982 49.4873 69.2533 49.5923 69.8455 49.1296C70.4377 48.667 70.5427 47.8118 70.08 47.2196L65.7051 41.6201Z" opacity="0.200000003" fill="rgb(161,167,179)" fill-rule="evenodd" />
				<path id="形状结合" d="M86.5199 22.3163L86.5201 52.8152C84.3848 51.9465 82.0492 51.4679 79.6018 51.4679C69.4565 51.4679 61.2322 59.6923 61.2322 69.8375C61.2322 79.1313 68.1339 86.8131 77.0916 88.0371C74.7347 88.7659 72.3901 89.5839 70.0575 90.4906C64.6353 92.5982 59.6162 95.0534 55 97.8563L54.0714 97.3004C49.7129 94.7276 45.0033 92.4577 39.9426 90.4906C35.6722 88.8307 31.3613 87.4679 27.0099 86.4021C25.0091 85.912 23.5814 84.1635 23.4854 82.1232L23.4802 81.9035L23.4795 73.438L31.665 73.4387C32.3744 73.4387 32.9574 72.8974 33.0235 72.2054L33.0298 72.0739L33.0298 65.9395C33.0298 65.23 32.4885 64.6471 31.7964 64.5809L31.665 64.5747L23.4795 64.574L23.4802 22.3163C23.4802 22.1409 23.5001 21.9661 23.5396 21.7952C23.8274 20.549 25.0709 19.7721 26.3171 20.0599C36.653 22.4469 43.7704 24.2673 47.6693 25.5213C51.8064 26.8518 54.2324 29.7343 54.9472 34.1688L55 34.5221C55.6412 29.8871 58.0847 26.8868 62.3307 25.5213C66.2296 24.2673 73.347 22.4469 83.683 20.0599C84.9292 19.7721 86.1727 20.549 86.4605 21.7952C86.4999 21.9661 86.5199 22.1409 86.5199 22.3163ZM51.8007 57.3027C51.5192 57.9995 51.8558 58.7925 52.5526 59.0741L59.1411 61.736C59.8379 62.0175 60.631 61.6809 60.9125 60.9841C61.194 60.2873 60.8574 59.4943 60.1606 59.2127L53.5721 56.5508C52.8753 56.2693 52.0822 56.6059 51.8007 57.3027ZM57.288 48.4865C56.8357 49.0867 56.9556 49.9399 57.5558 50.3922L63.2308 54.6686C63.831 55.1209 64.6842 55.001 65.1365 54.4008C65.5887 53.8006 65.4688 52.9475 64.8686 52.4952L59.1936 48.2187C58.5934 47.7665 57.7402 47.8864 57.288 48.4865ZM63.7951 41.3856C63.203 41.8482 63.098 42.7034 63.5606 43.2955L67.9355 48.8951C68.3982 49.4873 69.2533 49.5923 69.8455 49.1296C70.4377 48.667 70.5427 47.8118 70.08 47.2196L65.7051 41.6201C65.2425 41.0279 64.3873 40.9229 63.7951 41.3856Z" opacity="0.200000003" fill-rule="evenodd" stroke="rgb(0,0,0)" stroke-opacity="0" stroke-width="1" />
				<path id="形状结合" d="M86.4605 21.7952C86.4999 21.9661 86.5199 22.1409 86.5199 22.3163L86.5191 52.8148C84.384 51.9463 82.0488 51.4679 79.6018 51.4679C69.4565 51.4679 61.2322 59.6923 61.2322 69.8375C61.2322 79.1313 68.1339 86.8131 77.0916 88.0371C74.7347 88.7659 72.39 89.5839 70.0574 90.4906C64.6353 92.5982 59.6161 95.0534 55 97.8563L54.9993 60.062L59.1411 61.736C59.7944 61.9999 60.5322 61.7205 60.8539 61.1105L60.9125 60.9841C61.194 60.2873 60.8574 59.4943 60.1606 59.2127L54.9993 57.127L55 34.5221C55.6412 29.8871 58.0847 26.8868 62.3307 25.5213C66.2296 24.2673 73.347 22.4469 83.683 20.0599C84.9292 19.7721 86.1727 20.549 86.4605 21.7952ZM59.1936 48.2187C58.5934 47.7665 57.7402 47.8864 57.2879 48.4865C56.8357 49.0867 56.9556 49.9399 57.5558 50.3922L63.2308 54.6686C63.831 55.1209 64.6842 55.001 65.1364 54.4008C65.5887 53.8006 65.4688 52.9475 64.8686 52.4952L59.1936 48.2187ZM65.7051 41.6201C65.2425 41.0279 64.3873 40.9229 63.7951 41.3856C63.2029 41.8482 63.0979 42.7034 63.5606 43.2955L67.9355 48.8951C68.3981 49.4873 69.2533 49.5923 69.8455 49.1296C70.4377 48.667 70.5427 47.8118 70.08 47.2196L65.7051 41.6201Z" opacity="0.100000001" fill="rgb(161,167,179)" fill-rule="evenodd" />
				<path id="形状结合" d="M86.5199 22.3163L86.5191 52.8148C84.384 51.9463 82.0488 51.4679 79.6018 51.4679C69.4565 51.4679 61.2322 59.6923 61.2322 69.8375C61.2322 79.1313 68.1339 86.8131 77.0916 88.0371C74.7347 88.7659 72.39 89.5839 70.0574 90.4906C64.6353 92.5982 59.6161 95.0534 55 97.8563L54.9993 60.062L59.1411 61.736C59.7944 61.9999 60.5322 61.7205 60.8539 61.1105L60.9125 60.9841C61.194 60.2873 60.8574 59.4943 60.1606 59.2127L54.9993 57.127L55 34.5221C55.6412 29.8871 58.0847 26.8868 62.3307 25.5213C66.2296 24.2673 73.347 22.4469 83.683 20.0599C84.9292 19.7721 86.1727 20.549 86.4605 21.7952C86.4999 21.9661 86.5199 22.1409 86.5199 22.3163ZM57.2879 48.4865C56.8357 49.0867 56.9556 49.9399 57.5558 50.3922L63.2308 54.6686C63.831 55.1209 64.6842 55.001 65.1364 54.4008C65.5887 53.8006 65.4688 52.9475 64.8686 52.4952L59.1936 48.2187C58.5934 47.7665 57.7402 47.8864 57.2879 48.4865ZM63.7951 41.3856C63.2029 41.8482 63.0979 42.7034 63.5606 43.2955L67.9355 48.8951C68.3981 49.4873 69.2533 49.5923 69.8455 49.1296C70.4377 48.667 70.5427 47.8118 70.08 47.2196L65.7051 41.6201C65.2425 41.0279 64.3873 40.9229 63.7951 41.3856Z" opacity="0.100000001" fill-rule="evenodd" stroke="rgb(0,0,0)" stroke-opacity="0" stroke-width="1" />
				<path id="矩形" d="M1.36478 0L7.49923 0C8.25298 0 8.86401 0.611031 8.86401 1.36478L8.86401 12.6793C8.86401 13.4331 8.25298 14.0441 7.49923 14.0441C7.235 14.0441 6.97645 13.9674 6.75496 13.8233L5.17627 12.7962C4.72377 12.5018 4.14025 12.5018 3.68774 12.7962L2.10905 13.8233C1.47725 14.2343 0.63185 14.0554 0.220802 13.4236C0.076704 13.2021 0 12.9436 0 12.6793L0 1.36478C0 0.611031 0.611032 0 1.36478 0Z" opacity="0.300000012" fill="rgb(161,167,179)" fill-rule="evenodd" transform="matrix(0,1,-1,0,33.0297,64.5747)" />
				<path id="矩形" d="M7.49923 0C8.25298 0 8.86401 0.611031 8.86401 1.36478L8.86401 12.6793C8.86401 13.4331 8.25298 14.0441 7.49923 14.0441C7.235 14.0441 6.97645 13.9674 6.75496 13.8233L5.17627 12.7962C4.72377 12.5018 4.14025 12.5018 3.68774 12.7962L2.10905 13.8233C1.47725 14.2343 0.63185 14.0554 0.220802 13.4236C0.076704 13.2021 0 12.9436 0 12.6793L0 1.36478C0 0.611031 0.611032 0 1.36478 0L7.49923 0Z" opacity="0.300000012" fill-rule="evenodd" stroke="rgb(0,0,0)" stroke-opacity="0" stroke-width="1" transform="matrix(0,1,-1,0,33.0297,64.5747)" />
			</g>
			<g id="放大镜">
				<path id="形状结合" d="M93.0874 82.3109L96.6548 85.8784C97.6004 85.4956 98.7243 85.6876 99.4911 86.4544L108.732 95.6956C109.755 96.7185 109.755 98.377 108.732 99.4L108.48 99.6527C107.457 100.676 105.798 100.676 104.775 99.6527L95.534 90.4115C94.7674 89.6448 94.5753 88.5212 94.9578 87.5757L91.3466 83.9628C91.9622 83.4503 92.5438 82.8984 93.0874 82.3109Z" opacity="0.800000012" fill="rgb(161,167,179)" fill-rule="evenodd" />
				<path id="形状结合" d="M96.6548 85.8784C97.6004 85.4956 98.7243 85.6876 99.4911 86.4544L108.732 95.6956C109.755 96.7185 109.755 98.377 108.732 99.4L108.48 99.6527C107.457 100.676 105.798 100.676 104.775 99.6527L95.534 90.4115C94.7674 89.6448 94.5753 88.5212 94.9578 87.5757L91.3466 83.9628C91.9622 83.4503 92.5438 82.8984 93.0874 82.3109L96.6548 85.8784Z" opacity="0.800000012" fill-rule="evenodd" stroke="rgb(0,0,0)" stroke-opacity="0" stroke-width="1" />
				<path id="形状结合" d="M79.6018 51.4679C89.7471 51.4679 97.9715 59.6923 97.9715 69.8375C97.9715 79.9828 89.7471 88.2072 79.6018 88.2072C69.4565 88.2072 61.2322 79.9828 61.2322 69.8375C61.2322 59.6923 69.4565 51.4679 79.6018 51.4679ZM79.6018 55.55C71.7111 55.55 65.3143 61.9468 65.3143 69.8375C65.3143 77.7283 71.7111 84.125 79.6018 84.125C87.4926 84.125 93.8893 77.7283 93.8893 69.8375C93.8893 61.9468 87.4926 55.55 79.6018 55.55Z" opacity="0.600000024" fill="rgb(161,167,179)" fill-rule="evenodd" />
				<path id="形状结合" d="M97.9715 69.8375C97.9715 79.9828 89.7471 88.2072 79.6018 88.2072C69.4565 88.2072 61.2322 79.9828 61.2322 69.8375C61.2322 59.6923 69.4565 51.4679 79.6018 51.4679C89.7471 51.4679 97.9715 59.6923 97.9715 69.8375ZM65.3143 69.8375C65.3143 77.7283 71.7111 84.125 79.6018 84.125C87.4926 84.125 93.8893 77.7283 93.8893 69.8375C93.8893 61.9468 87.4926 55.55 79.6018 55.55C71.7111 55.55 65.3143 61.9468 65.3143 69.8375Z" opacity="0.600000024" fill-rule="evenodd" stroke="rgb(0,0,0)" stroke-opacity="0" stroke-width="1" />
				<circle id="椭圆形" cx="79.6017685" cy="69.8375473" r="14.2875004" opacity="0.400000006" fill="rgb(161,167,179)" />
				<circle id="椭圆形" cx="79.6017685" cy="69.8375473" r="14.2875004" opacity="0.400000006" stroke="rgb(0,0,0)" stroke-opacity="0" stroke-width="1" />
				<rect id="矩形" width="8.164286" height="1.360714" x="0.000000" y="0.000000" rx="0.680357" opacity="0.300000012" fill="rgb(161,167,179)" transform="matrix(-0.258819,0.965926,-0.965926,-0.258819,89.9849,66.8575)" />
				<rect id="矩形" width="8.164286" height="1.360714" x="0.000000" y="0.000000" rx="0.680357" opacity="0.300000012" stroke="rgb(0,0,0)" stroke-opacity="0" stroke-width="1" transform="matrix(-0.258819,0.965926,-0.965926,-0.258819,89.9849,66.8575)" />
				<rect id="矩形备份" width="4.082142" height="1.360714" x="0.000000" y="0.000000" rx="0.680357" opacity="0.300000012" fill="rgb(161,167,179)" transform="matrix(-0.258819,0.965926,-0.965926,-0.258819,87.4155,64.0665)" />
				<rect id="矩形备份" width="4.082142" height="1.360714" x="0.000000" y="0.000000" rx="0.680357" opacity="0.300000012" stroke="rgb(0,0,0)" stroke-opacity="0" stroke-width="1" transform="matrix(-0.258819,0.965926,-0.965926,-0.258819,87.4155,64.0665)" />
			</g>
			<path id="形状结合" d="M2.6754 1.88555L4.51456 8.74937C4.70906 9.47527 4.27828 10.2214 3.55239 10.4159C2.82649 10.6104 2.08036 10.1796 1.88586 9.45373L0.0467033 2.58991C-0.1478 1.86402 0.282978 1.11789 1.00887 0.923382C1.73477 0.72888 2.4809 1.15966 2.6754 1.88555ZM20.9393 0.923382C21.6652 1.11789 22.096 1.86402 21.9015 2.58991L20.0623 9.45373C19.8678 10.1796 19.1217 10.6104 18.3958 10.4159C17.6699 10.2214 17.2391 9.47527 17.4336 8.74937L19.2728 1.88555C19.4673 1.15966 20.2134 0.72888 20.9393 0.923382ZM11.3521 0C12.1036 0 12.7128 0.609213 12.7128 1.36071L12.7128 8.46667C12.7128 9.21817 12.1036 9.82738 11.3521 9.82738C10.6006 9.82738 9.99134 9.21817 9.99134 8.46667L9.99134 1.36071C9.99134 0.609213 10.6006 0 11.3521 0Z" opacity="0.600000024" fill="rgb(161,167,179)" fill-rule="evenodd" transform="matrix(0.601815,-0.798636,0.798636,0.601815,50.4561,57.5527)" />
			<path id="形状结合" d="M4.51456 8.74937C4.70906 9.47527 4.27828 10.2214 3.55239 10.4159C2.82649 10.6104 2.08036 10.1796 1.88586 9.45373L0.0467033 2.58991C-0.1478 1.86402 0.282978 1.11789 1.00887 0.923382C1.73477 0.72888 2.4809 1.15966 2.6754 1.88555L4.51456 8.74937ZM21.9015 2.58991L20.0623 9.45373C19.8678 10.1796 19.1217 10.6104 18.3958 10.4159C17.6699 10.2214 17.2391 9.47527 17.4336 8.74937L19.2728 1.88555C19.4673 1.15966 20.2134 0.72888 20.9393 0.923382C21.6652 1.11789 22.096 1.86402 21.9015 2.58991ZM12.7128 1.36071L12.7128 8.46667C12.7128 9.21817 12.1036 9.82738 11.3521 9.82738C10.6006 9.82738 9.99134 9.21817 9.99134 8.46667L9.99134 1.36071C9.99134 0.609213 10.6006 0 11.3521 0C12.1036 0 12.7128 0.609213 12.7128 1.36071Z" opacity="0.600000024" fill-rule="evenodd" stroke="rgb(0,0,0)" stroke-opacity="0" stroke-width="1" transform="matrix(0.601815,-0.798636,0.798636,0.601815,50.4561,57.5527)" />
		</g>
		<ellipse id="椭圆形" rx="23.984863" ry="2.007568" cx="55" cy="105.901367" fill="rgb(161,167,179)" fill-opacity="0.149019614" />
		<ellipse id="椭圆形" rx="23.984863" ry="2.007568" cx="55" cy="105.901367" stroke="rgb(0,0,0)" stroke-opacity="0" stroke-width="1" />
	</g>
</svg>
