<svg width="48.000000" height="48.000000" viewBox="0 0 48 48" fill="none" xmlns="http://www.w3.org/2000/svg" xmlns:xlink="http://www.w3.org/1999/xlink">
	<desc>
			Created with Pixso.
	</desc>
	<defs>
		<clipPath id="clip22_317">
			<rect id="icon_putin" width="48.000000" height="48.000000" fill="white" fill-opacity="0"/>
		</clipPath>
	</defs>
	<g clip-path="url(#clip22_317)">
		<path id="path" d="M24 0C10.72 0 0 10.72 0 24C0 37.28 10.72 48 24 48C37.28 48 48 37.28 48 24C48 10.72 37.28 0 24 0ZM23.52 21.12C23.52 21.12 25.92 21.44 27.68 22.4C29.92 23.84 32 27.2 32 27.2L23.52 27.2L23.52 21.12ZM19.84 22.56C20.96 22.56 21.92 23.52 21.92 24.64C21.92 25.76 20.96 26.72 19.84 26.72C18.71 26.72 17.76 25.76 17.76 24.64C17.76 23.52 18.56 22.56 19.84 22.56ZM37.91 33.28C37.91 34.4 36.64 35.2 35.52 35.2L35.36 35.2C34.24 35.2 33.12 34.4 33.12 33.28L33.12 32L15.52 32L15.52 33.28C15.52 34.4 15.36 35.2 14.24 35.2L14.08 35.2C12.96 35.2 12.32 34.4 12.32 33.28L12.32 14.72C12.32 13.6 12.96 12.8 14.08 12.8L14.24 12.8C15.36 12.8 15.52 13.44 15.52 14.72L15.52 28.8L33.12 28.8L33.12 23.2C33.12 22.08 34.24 20.8 35.36 20.8L35.52 20.8C36.64 20.8 37.91 22.08 37.91 23.2L37.91 33.28Z" fill="#64BB5C" fill-opacity="1.000000" fill-rule="nonzero"/>
	</g>
</svg>
