<svg width="48.000000" height="48.000000" viewBox="0 0 48 48" fill="none" xmlns="http://www.w3.org/2000/svg" xmlns:xlink="http://www.w3.org/1999/xlink">
	<desc>
			Created with Pixso.
	</desc>
	<defs>
		<clipPath id="clip22_309">
			<rect id="icon_eat" width="48.000000" height="48.000000" fill="white" fill-opacity="0"/>
		</clipPath>
	</defs>
	<g clip-path="url(#clip22_309)">
		<path id="path" d="M24 0C10.8 0 0 10.8 0 24C0 37.2 10.8 48 24 48C37.2 48 48 37.2 48 24C48 10.8 37.2 0 24 0Z" fill="#ED6F21" fill-opacity="1.000000" fill-rule="nonzero"/>
		<path id="path" d="M8.39 15C8.39 14.1 8.39 13.2 8.99 12.3C9.89 11.4 10.8 11.1 12 11.1C14.7 11.4 16.79 12.6 18.29 15C19.2 16.5 19.5 18 18.9 19.5L18.9 20.1C20.1 21 21.3 22.2 22.5 23.4C22.8 23.7 22.8 23.7 22.5 24C21.9 24.3 21.6 24.9 21 25.5C19.2 24 18.29 23.1 17.1 21.9C17.1 21.6 16.79 21.6 16.5 21.9C15 22.5 13.5 22.2 12.3 21.3C10.2 19.79 8.99 17.7 8.39 15ZM34.8 35.7C34.5 36.3 34.2 36.59 33.9 36.9C33.59 37.2 33 37.5 32.4 37.5C32.09 37.5 31.8 37.2 31.5 36.9C30.6 36 29.7 34.8 28.8 33.9C27.9 32.7 26.7 31.8 25.8 30.6L24.6 30C24.3 29.7 24.3 29.7 24.6 29.4L26.1 27.9C26.4 27.6 26.4 27.6 26.7 27.9C27.9 28.8 28.8 30 30 30.9C31.5 32.4 33 33.59 34.2 35.09C34.8 35.09 34.8 35.4 34.8 35.7Z" fill="#FFFFFF" fill-opacity="1.000000" fill-rule="nonzero"/>
		<path id="path" d="M39.59 15.6C39.3 16.5 38.7 17.1 38.09 17.7C37.2 18.6 36.3 19.79 35.09 20.7C33.9 21.6 32.4 22.2 30.9 21.6L30.3 21.6C28.2 24 26.1 26.1 24 28.2C22.2 30 20.7 31.8 18.9 33.59C17.7 34.8 16.5 36 15.3 37.5C15.3 37.8 15 37.8 14.7 37.8C13.5 37.5 12.9 36.9 12.6 36C12.3 35.4 12.3 35.09 12.9 34.8C17.7 30 22.5 25.5 27.3 21C27.6 20.7 27.9 20.4 28.5 20.1C28.5 20.1 28.8 19.79 28.5 19.79C27.6 17.7 27.9 16.2 29.1 14.7C30.3 13.2 31.5 12 33 10.8C33.3 10.5 33.59 10.2 33.9 10.2C34.2 9.89 34.5 10.2 35.09 10.2C35.7 10.5 35.7 10.5 35.09 10.8L32.09 13.8L31.2 14.7C30.9 15 30.9 15.3 31.2 15.6C31.5 15.9 31.8 15.9 32.09 15.6C33.59 14.4 34.8 13.2 36.3 12C36.9 11.4 36.9 11.4 37.5 12C37.8 12.3 37.8 12.3 37.5 12.6C36.3 14.1 35.09 15.6 33.59 17.1C33.3 17.4 33.3 17.7 33.59 18C33.9 18.29 34.2 18.29 34.5 18L38.09 14.4C39 13.8 39 13.8 39.59 15L39.59 15.6Z" fill="#FFFFFF" fill-opacity="1.000000" fill-rule="nonzero"/>
	</g>
</svg>
