<svg width="58.000000" height="58.000000" viewBox="0 0 58 58" fill="none" xmlns="http://www.w3.org/2000/svg" xmlns:xlink="http://www.w3.org/1999/xlink">
	<desc>
			Created with Pixso.
	</desc>
	<defs>
		<clipPath id="clip97_2300">
			<rect width="58.000000" height="58.000000" fill="white" fill-opacity="0"/>
		</clipPath>
		<linearGradient x1="5.813986" y1="26.257118" x2="52.740471" y2="26.257118" id="paint_linear_97_2309_0" gradientUnits="userSpaceOnUse">
			<stop offset="0.000422" stop-color="#31AF7E"/>
			<stop offset="0.629098" stop-color="#68CB9F"/>
			<stop offset="0.737865" stop-color="#169367"/>
			<stop offset="1.000000" stop-color="#1C7C57"/>
		</linearGradient>
	</defs>
	<g clip-path="url(#clip97_2300)">
		<rect width="58.000000" height="58.000000" fill="#000000" fill-opacity="0"/>
		<rect width="58.000000" height="58.000000" stroke="#000000" stroke-opacity="0" stroke-width="1.000000"/>
		<path d="M40.36 38.27C39.93 39.07 38.84 39.66 37.43 39.86C36.04 40.06 34.59 39.83 33.57 39.23L6.84 23.8C5.81 23.21 5.41 22.37 5.74 21.56C6.08 20.75 7.1 20.12 8.47 19.86L47.4 12.73C48.86 12.46 50.44 12.68 51.53 13.31C52.62 13.94 53 14.86 52.55 15.7L40.36 38.27Z" fill="#31AF7E" fill-opacity="1.000000" fill-rule="evenodd"/>
		<path d="M37.43 39.86C36.04 40.06 34.59 39.83 33.57 39.23L6.84 23.8C5.81 23.21 5.41 22.37 5.74 21.56C6.08 20.75 7.1 20.12 8.47 19.86L47.4 12.73C48.86 12.46 50.44 12.68 51.53 13.31C52.62 13.94 53 14.86 52.55 15.7L40.36 38.27C39.93 39.07 38.84 39.66 37.43 39.86Z" stroke="#000000" stroke-opacity="0" stroke-width="1.000000"/>
		<path d="M38.87 34.77C38.55 35.37 37.75 35.81 36.7 35.95C35.67 36.1 34.6 35.92 33.84 35.49L14.01 24.04C13.25 23.6 12.95 22.98 13.2 22.38C13.45 21.78 14.2 21.31 15.22 21.12L44.09 15.83C45.18 15.63 46.35 15.79 47.16 16.26C47.96 16.73 48.25 17.41 47.91 18.03L38.87 34.77Z" fill="#ADEACB" fill-opacity="1.000000" fill-rule="evenodd"/>
		<path d="M36.7 35.95C35.67 36.1 34.6 35.92 33.84 35.49L14.01 24.04C13.25 23.6 12.95 22.98 13.2 22.38C13.45 21.78 14.2 21.31 15.22 21.12L44.09 15.83C45.18 15.63 46.35 15.79 47.16 16.26C47.96 16.73 48.25 17.41 47.91 18.03L38.87 34.77C38.55 35.37 37.75 35.81 36.7 35.95Z" stroke="#000000" stroke-opacity="0" stroke-width="1.000000"/>
		<path d="M29.93 26.11C30.88 26.65 30.88 27.54 29.94 28.09C29 28.63 27.47 28.63 26.53 28.09C25.58 27.54 25.57 26.65 26.51 26.11C27.45 25.56 28.98 25.56 29.93 26.11ZM42.5 18.81C43.21 19.22 43.21 19.88 42.5 20.29L34.84 24.75C34.13 25.16 32.99 25.16 32.28 24.75C31.57 24.34 31.56 23.67 32.26 23.26L39.93 18.81C40.63 18.4 41.79 18.4 42.5 18.81Z" fill="#1E6D4E" fill-opacity="1.000000" fill-rule="evenodd"/>
		<path d="M29.94 28.09C29 28.63 27.47 28.63 26.53 28.09C25.58 27.54 25.57 26.65 26.51 26.11C27.45 25.56 28.98 25.56 29.93 26.11C30.88 26.65 30.88 27.54 29.94 28.09ZM42.5 20.29L34.84 24.75C34.13 25.16 32.99 25.16 32.28 24.75C31.57 24.34 31.56 23.67 32.26 23.26L39.93 18.81C40.63 18.4 41.79 18.4 42.5 18.81C43.21 19.22 43.21 19.88 42.5 20.29Z" stroke="#000000" stroke-opacity="0" stroke-width="1.000000"/>
		<path d="M51.53 13.31C52.62 13.94 53 14.86 52.55 15.7L40.36 38.27C39.93 39.07 38.84 39.66 37.43 39.86C36.04 40.06 34.59 39.83 33.57 39.23L6.84 23.8C5.81 23.21 5.41 22.37 5.74 21.56C6.08 20.75 7.1 20.12 8.47 19.86L47.4 12.73C48.86 12.46 50.44 12.68 51.53 13.31ZM51.22 13.83C50.32 13.31 48.97 13.1 47.71 13.29L47.51 13.32L8.58 20.46C7.39 20.68 6.54 21.2 6.3 21.79C6.1 22.26 6.33 22.77 7.02 23.21L7.14 23.28L33.87 38.71C34.77 39.23 36.08 39.44 37.35 39.26C38.52 39.1 39.41 38.63 39.78 38.07L39.83 37.98L52.02 15.42C52.29 14.91 52.07 14.37 51.33 13.9L51.22 13.83Z" fill="#68CB9F" fill-opacity="1.000000" fill-rule="nonzero"/>
		<path d="M52.55 15.7L40.36 38.27C39.93 39.07 38.84 39.66 37.43 39.86C36.04 40.06 34.59 39.83 33.57 39.23L6.84 23.8C5.81 23.21 5.41 22.37 5.74 21.56C6.08 20.75 7.1 20.12 8.47 19.86L47.4 12.73C48.86 12.46 50.44 12.68 51.53 13.31C52.62 13.94 53 14.86 52.55 15.7ZM47.71 13.29L47.51 13.32L8.58 20.46C7.39 20.68 6.54 21.2 6.3 21.79C6.1 22.26 6.33 22.77 7.02 23.21L7.14 23.28L33.87 38.71C34.77 39.23 36.08 39.44 37.35 39.26C38.52 39.1 39.41 38.63 39.78 38.07L39.83 37.98L52.02 15.42C52.29 14.91 52.07 14.37 51.33 13.9L51.22 13.83C50.32 13.31 48.97 13.1 47.71 13.29Z" stroke="#000000" stroke-opacity="0" stroke-width="1.000000"/>
		<path d="M52.69 15.32C52.69 15.34 52.68 15.37 52.67 15.39C52.64 15.5 52.6 15.6 52.55 15.7L40.36 38.27C40.3 38.37 40.24 38.47 40.17 38.56C40.09 38.65 40.01 38.74 39.91 38.83C39.83 38.91 39.74 38.98 39.64 39.05C39.61 39.07 39.58 39.09 39.54 39.12C39.48 39.16 39.41 39.2 39.34 39.24C39.26 39.29 39.17 39.34 39.07 39.38C39.02 39.41 38.97 39.43 38.92 39.46C38.8 39.5 38.68 39.55 38.56 39.59C38.52 39.6 38.49 39.62 38.45 39.63C38.23 39.7 38 39.76 37.77 39.8C37.66 39.82 37.55 39.85 37.43 39.86C37.29 39.88 37.15 39.89 37.01 39.9C36.95 39.91 36.88 39.92 36.82 39.92C36.71 39.92 36.6 39.93 36.49 39.93C36.44 39.93 36.39 39.93 36.34 39.93C36.18 39.93 36.03 39.92 35.87 39.91C35.74 39.89 35.55 39.87 35.42 39.85C35.37 39.84 35.32 39.83 35.27 39.82C35.17 39.81 35.07 39.79 34.97 39.76C34.91 39.75 34.85 39.73 34.78 39.72C34.7 39.7 34.63 39.67 34.55 39.65C34.46 39.62 34.37 39.59 34.28 39.56C34.22 39.54 34.16 39.51 34.1 39.49C33.92 39.41 33.74 39.33 33.57 39.23L6.84 23.8C6.44 23.57 6.14 23.31 5.93 23.02C5.73 22.74 5.62 22.43 5.63 22.12L5.61 27.36C5.61 27.98 6.03 28.59 6.82 29.04L33.56 44.48C33.72 44.57 33.9 44.66 34.09 44.73C34.11 44.74 34.13 44.76 34.16 44.77C34.19 44.78 34.23 44.79 34.27 44.8C34.36 44.84 34.45 44.87 34.54 44.89C34.58 44.91 34.61 44.92 34.65 44.93C34.69 44.94 34.73 44.95 34.77 44.96C34.83 44.98 34.89 44.99 34.96 45.01C35 45.02 35.04 45.03 35.08 45.04C35.13 45.05 35.19 45.06 35.25 45.07C35.3 45.08 35.35 45.09 35.4 45.09C35.43 45.1 35.45 45.1 35.48 45.11C35.59 45.12 35.7 45.13 35.81 45.14C35.95 45.15 36.13 45.17 36.27 45.17C36.31 45.17 36.42 45.17 36.47 45.17C36.54 45.17 36.61 45.17 36.68 45.17C36.72 45.17 36.76 45.16 36.8 45.16C36.87 45.16 36.93 45.15 37 45.15C37.04 45.14 37.09 45.14 37.14 45.14C37.23 45.13 37.32 45.12 37.42 45.11C37.5 45.09 37.59 45.08 37.67 45.06C37.7 45.06 37.73 45.05 37.75 45.05C37.99 45 38.22 44.94 38.43 44.88C38.47 44.87 38.51 44.85 38.55 44.83C38.67 44.79 38.79 44.75 38.9 44.7C38.96 44.68 39.01 44.65 39.06 44.62C39.15 44.58 39.24 44.53 39.33 44.49C39.35 44.47 39.37 44.46 39.4 44.45C39.44 44.42 39.48 44.39 39.53 44.36C39.56 44.34 39.59 44.32 39.62 44.3C39.72 44.23 39.82 44.15 39.9 44.07C39.99 43.99 40.08 43.9 40.15 43.8C40.22 43.72 40.28 43.63 40.32 43.55L52.53 20.95C52.57 20.88 52.6 20.81 52.63 20.74C52.64 20.7 52.65 20.67 52.66 20.64C52.66 20.61 52.67 20.59 52.68 20.56C52.69 20.49 52.72 20.35 52.72 20.28L52.74 15C52.73 15.1 52.72 15.21 52.69 15.32Z" fill="url(#paint_linear_97_2309_0)" fill-opacity="1.000000" fill-rule="evenodd"/>
		<path d="M52.67 15.39C52.64 15.5 52.6 15.6 52.55 15.7L40.36 38.27C40.3 38.37 40.24 38.47 40.17 38.56C40.09 38.65 40.01 38.74 39.91 38.83C39.83 38.91 39.74 38.98 39.64 39.05C39.61 39.07 39.58 39.09 39.54 39.12C39.48 39.16 39.41 39.2 39.34 39.24C39.26 39.29 39.17 39.34 39.07 39.38C39.02 39.41 38.97 39.43 38.92 39.46C38.8 39.5 38.68 39.55 38.56 39.59C38.52 39.6 38.49 39.62 38.45 39.63C38.23 39.7 38 39.76 37.77 39.8C37.66 39.82 37.55 39.85 37.43 39.86C37.29 39.88 37.15 39.89 37.01 39.9C36.95 39.91 36.88 39.92 36.82 39.92C36.71 39.92 36.6 39.93 36.49 39.93C36.44 39.93 36.39 39.93 36.34 39.93C36.18 39.93 36.03 39.92 35.87 39.91C35.74 39.89 35.55 39.87 35.42 39.85C35.37 39.84 35.32 39.83 35.27 39.82C35.17 39.81 35.07 39.79 34.97 39.76C34.91 39.75 34.85 39.73 34.78 39.72C34.7 39.7 34.63 39.67 34.55 39.65C34.46 39.62 34.37 39.59 34.28 39.56C34.22 39.54 34.16 39.51 34.1 39.49C33.92 39.41 33.74 39.33 33.57 39.23L6.84 23.8C6.44 23.57 6.14 23.31 5.93 23.02C5.73 22.74 5.62 22.43 5.63 22.12L5.61 27.36C5.61 27.98 6.03 28.59 6.82 29.04L33.56 44.48C33.72 44.57 33.9 44.66 34.09 44.73C34.11 44.74 34.13 44.76 34.16 44.77C34.19 44.78 34.23 44.79 34.27 44.8C34.36 44.84 34.45 44.87 34.54 44.89C34.58 44.91 34.61 44.92 34.65 44.93C34.69 44.94 34.73 44.95 34.77 44.96C34.83 44.98 34.89 44.99 34.96 45.01C35 45.02 35.04 45.03 35.08 45.04C35.13 45.05 35.19 45.06 35.25 45.07C35.3 45.08 35.35 45.09 35.4 45.09C35.43 45.1 35.45 45.1 35.48 45.11C35.59 45.12 35.7 45.13 35.81 45.14C35.95 45.15 36.13 45.17 36.27 45.17C36.31 45.17 36.42 45.17 36.47 45.17C36.54 45.17 36.61 45.17 36.68 45.17C36.72 45.17 36.76 45.16 36.8 45.16C36.87 45.16 36.93 45.15 37 45.15C37.04 45.14 37.09 45.14 37.14 45.14C37.23 45.13 37.32 45.12 37.42 45.11C37.5 45.09 37.59 45.08 37.67 45.06C37.7 45.06 37.73 45.05 37.75 45.05C37.99 45 38.22 44.94 38.43 44.88C38.47 44.87 38.51 44.85 38.55 44.83C38.67 44.79 38.79 44.75 38.9 44.7C38.96 44.68 39.01 44.65 39.06 44.62C39.15 44.58 39.24 44.53 39.33 44.49C39.35 44.47 39.37 44.46 39.4 44.45C39.44 44.42 39.48 44.39 39.53 44.36C39.56 44.34 39.59 44.32 39.62 44.3C39.72 44.23 39.82 44.15 39.9 44.07C39.99 43.99 40.08 43.9 40.15 43.8C40.22 43.72 40.28 43.63 40.32 43.55L52.53 20.95C52.57 20.88 52.6 20.81 52.63 20.74C52.64 20.7 52.65 20.67 52.66 20.64C52.66 20.61 52.67 20.59 52.68 20.56C52.69 20.49 52.72 20.35 52.72 20.28L52.74 15C52.73 15.1 52.72 15.21 52.69 15.32C52.69 15.34 52.68 15.37 52.67 15.39Z" stroke="#000000" stroke-opacity="0" stroke-width="1.000000"/>
		<path d="M40.81 43.92L40.86 43.82L53.06 21.23L53.12 21.11L53.19 20.97L53.21 20.89L53.26 20.72C53.27 20.7 53.27 20.68 53.28 20.65C53.29 20.59 53.31 20.46 53.32 20.38L53.32 20.24L53.34 15C53.36 14.11 52.8 13.35 51.83 12.79C50.61 12.09 48.88 11.84 47.29 12.14L8.36 19.27C6.86 19.55 5.7 20.24 5.23 21.22L5.18 21.33C5.07 21.59 5.02 21.86 5.02 22.13L5.01 27.36L5.01 27.49C5.07 28.33 5.62 29.05 6.52 29.57L33.25 45L33.44 45.1C33.58 45.17 33.71 45.23 33.86 45.29L33.96 45.34L34.08 45.38L34.2 45.42L34.48 45.51L34.96 45.63L35.39 45.7L35.57 45.73L35.82 45.75L36.11 45.77C36.16 45.77 36.2 45.77 36.25 45.78L36.7 45.77L37.2 45.74L37.33 45.73L37.58 45.69L37.84 45.65L38.07 45.6C38.19 45.57 38.32 45.54 38.44 45.51L38.67 45.44L38.75 45.4C38.87 45.36 38.96 45.33 39.05 45.29L39.18 45.24L39.48 45.09L39.69 44.98L39.97 44.79C40.06 44.73 40.14 44.67 40.21 44.61L40.31 44.52C40.43 44.41 40.53 44.29 40.63 44.17L40.7 44.08C40.74 44.02 40.77 43.97 40.81 43.92ZM5.74 21.56C6.08 20.75 7.1 20.12 8.47 19.86L47.4 12.73C48.86 12.46 50.44 12.68 51.53 13.31C52.33 13.78 52.75 14.4 52.74 15.03L52.72 20.28C52.72 20.35 52.71 20.43 52.69 20.51C52.69 20.53 52.66 20.61 52.66 20.64C52.65 20.67 52.64 20.7 52.63 20.74L52.58 20.84L52.53 20.95L40.32 43.55C40.29 43.6 40.26 43.66 40.22 43.72L40.15 43.8C40.1 43.86 40.05 43.93 39.99 43.99L39.9 44.07C39.82 44.15 39.72 44.23 39.62 44.3L39.53 44.36C39.48 44.39 39.44 44.42 39.4 44.45L39.2 44.56L39.06 44.62C39.01 44.65 38.96 44.68 38.9 44.7C38.79 44.75 38.67 44.79 38.55 44.83L38.45 44.87C38.23 44.94 37.99 45 37.75 45.05L37.67 45.06C37.59 45.08 37.5 45.09 37.42 45.11C37.32 45.12 37.23 45.13 37.14 45.14L36.68 45.17C36.61 45.17 36.54 45.17 36.47 45.17L36.4 45.17L36.33 45.17L36.07 45.16L35.84 45.15C35.72 45.14 35.59 45.12 35.48 45.11L35.08 45.04L34.65 44.93L34.4 44.85L34.16 44.77L34.09 44.73C33.97 44.68 33.84 44.63 33.73 44.57L33.56 44.48L6.82 29.04C6.08 28.61 5.66 28.05 5.61 27.47L5.61 27.36L5.63 22.13C5.62 21.94 5.66 21.75 5.74 21.56Z" fill="#1E6D4E" fill-opacity="1.000000" fill-rule="nonzero"/>
		<path d="M40.86 43.82L53.06 21.23L53.12 21.11L53.19 20.97L53.21 20.89L53.26 20.72C53.27 20.7 53.27 20.68 53.28 20.65C53.29 20.59 53.31 20.46 53.32 20.38L53.32 20.24L53.34 15C53.36 14.11 52.8 13.35 51.83 12.79C50.61 12.09 48.88 11.84 47.29 12.14L8.36 19.27C6.86 19.55 5.7 20.24 5.23 21.22L5.18 21.33C5.07 21.59 5.02 21.86 5.02 22.13L5.01 27.36L5.01 27.49C5.07 28.33 5.62 29.05 6.52 29.57L33.25 45L33.44 45.1C33.58 45.17 33.71 45.23 33.86 45.29L33.96 45.34L34.08 45.38L34.2 45.42L34.48 45.51L34.96 45.63L35.39 45.7L35.57 45.73L35.82 45.75L36.11 45.77C36.16 45.77 36.2 45.77 36.25 45.78L36.7 45.77L37.2 45.74L37.33 45.73L37.58 45.69L37.84 45.65L38.07 45.6C38.19 45.57 38.32 45.54 38.44 45.51L38.67 45.44L38.75 45.4C38.87 45.36 38.96 45.33 39.05 45.29L39.18 45.24L39.48 45.09L39.69 44.98L39.97 44.79C40.06 44.73 40.14 44.67 40.21 44.61L40.31 44.52C40.43 44.41 40.53 44.29 40.63 44.17L40.7 44.08C40.74 44.02 40.77 43.97 40.81 43.92L40.86 43.82ZM8.47 19.86L47.4 12.73C48.86 12.46 50.44 12.68 51.53 13.31C52.33 13.78 52.75 14.4 52.74 15.03L52.72 20.28C52.72 20.35 52.71 20.43 52.69 20.51C52.69 20.53 52.66 20.61 52.66 20.64C52.65 20.67 52.64 20.7 52.63 20.74L52.58 20.84L52.53 20.95L40.32 43.55C40.29 43.6 40.26 43.66 40.22 43.72L40.15 43.8C40.1 43.86 40.05 43.93 39.99 43.99L39.9 44.07C39.82 44.15 39.72 44.23 39.62 44.3L39.53 44.36C39.48 44.39 39.44 44.42 39.4 44.45L39.2 44.56L39.06 44.62C39.01 44.65 38.96 44.68 38.9 44.7C38.79 44.75 38.67 44.79 38.55 44.83L38.45 44.87C38.23 44.94 37.99 45 37.75 45.05L37.67 45.06C37.59 45.08 37.5 45.09 37.42 45.11C37.32 45.12 37.23 45.13 37.14 45.14L36.68 45.17C36.61 45.17 36.54 45.17 36.47 45.17L36.4 45.17L36.33 45.17L36.07 45.16L35.84 45.15C35.72 45.14 35.59 45.12 35.48 45.11L35.08 45.04L34.65 44.93L34.4 44.85L34.16 44.77L34.09 44.73C33.97 44.68 33.84 44.63 33.73 44.57L33.56 44.48L6.82 29.04C6.08 28.61 5.66 28.05 5.61 27.47L5.61 27.36L5.63 22.13C5.62 21.94 5.66 21.75 5.74 21.56C6.08 20.75 7.1 20.12 8.47 19.86Z" stroke="#000000" stroke-opacity="0" stroke-width="1.000000"/>
	</g>
</svg>
