<svg width="58.000000" height="58.000000" viewBox="0 0 58 58" fill="none" xmlns="http://www.w3.org/2000/svg" xmlns:xlink="http://www.w3.org/1999/xlink">
	<desc>
			Created with Pixso.
	</desc>
	<defs>
		<clipPath id="clip97_2421">
			<rect width="58.000000" height="58.000000" fill="white" fill-opacity="0"/>
		</clipPath>
		<linearGradient x1="6.498348" y1="33.005039" x2="52.221371" y2="33.005039" id="paint_linear_97_2426_0" gradientUnits="userSpaceOnUse">
			<stop offset="0.000422" stop-color="#31AF7E"/>
			<stop offset="0.807644" stop-color="#68CB9F"/>
			<stop offset="0.912094" stop-color="#169367"/>
			<stop offset="1.000000" stop-color="#1C7C57"/>
		</linearGradient>
	</defs>
	<g clip-path="url(#clip97_2421)">
		<rect width="58.000000" height="58.000000" fill="#000000" fill-opacity="0"/>
		<rect width="58.000000" height="58.000000" stroke="#000000" stroke-opacity="0" stroke-width="1.000000"/>
		<path d="M52.22 25.64C52.22 25.76 52.21 25.89 52.2 26.02C52.19 26.12 52.19 26.23 52.18 26.34C52.17 26.44 52.15 26.53 52.14 26.62C52.13 26.73 52.11 26.84 52.09 26.95C52.07 27.05 52.05 27.14 52.03 27.23C52.01 27.34 51.98 27.45 51.95 27.55C51.93 27.65 51.9 27.74 51.87 27.83C51.84 27.94 51.8 28.04 51.77 28.15C51.73 28.24 51.7 28.33 51.66 28.43C51.62 28.54 51.57 28.65 51.52 28.75C51.48 28.85 51.44 28.94 51.4 29.03C51.35 29.14 51.29 29.24 51.23 29.35C51.18 29.44 51.14 29.53 51.09 29.61C51.01 29.74 50.93 29.87 50.85 30C50.8 30.07 50.75 30.15 50.7 30.22C50.6 30.37 50.49 30.51 50.39 30.66C50.34 30.71 50.3 30.77 50.26 30.82C50.09 31.04 49.9 31.26 49.7 31.47C49.65 31.53 49.59 31.59 49.54 31.64C49.39 31.8 49.23 31.96 49.06 32.12C48.98 32.19 48.91 32.27 48.83 32.34C48.73 32.43 48.63 32.52 48.52 32.6C48.42 32.69 48.32 32.77 48.22 32.85C48.11 32.94 48 33.03 47.89 33.11C47.79 33.19 47.68 33.28 47.57 33.36C47.45 33.44 47.33 33.52 47.21 33.61C47.1 33.69 46.98 33.76 46.87 33.84C46.74 33.92 46.61 34 46.48 34.08C46.32 34.19 46.16 34.29 45.98 34.39C45.61 34.61 45.22 34.81 44.82 35.01C44.69 35.08 44.55 35.14 44.42 35.2C44.15 35.34 43.87 35.47 43.58 35.59C43.42 35.66 43.26 35.73 43.09 35.8C42.82 35.91 42.54 36.02 42.26 36.12C42.09 36.19 41.92 36.25 41.74 36.32C41.45 36.42 41.16 36.52 40.87 36.62C40.7 36.68 40.53 36.73 40.36 36.79C39.98 36.91 39.59 37.02 39.19 37.14C39.09 37.16 39 37.2 38.9 37.22C38.4 37.36 37.9 37.49 37.39 37.61C37.25 37.65 37.11 37.68 36.97 37.71C36.6 37.8 36.22 37.88 35.84 37.96C35.65 38 35.46 38.04 35.28 38.08C34.93 38.15 34.58 38.22 34.24 38.28C34.08 38.31 33.93 38.34 33.77 38.37C32.8 38.54 31.81 38.69 30.83 38.83C30.76 38.84 30.7 38.85 30.63 38.86C29.59 39 28.55 39.12 27.51 39.22C27.43 39.23 27.34 39.24 27.26 39.24C26.77 39.29 26.28 39.33 25.79 39.37C25.62 39.39 25.44 39.4 25.27 39.42C24.83 39.45 24.4 39.48 23.97 39.51C23.83 39.52 23.69 39.53 23.55 39.54C23 39.57 22.45 39.6 21.92 39.63C21.8 39.63 21.69 39.64 21.57 39.64C21.14 39.66 20.71 39.68 20.29 39.7C20.1 39.7 19.9 39.71 19.71 39.72C19.52 39.72 19.34 39.73 19.16 39.73C18.93 39.74 18.71 39.74 18.48 39.75C18.31 39.75 18.14 39.75 17.96 39.76C17.74 39.76 17.53 39.77 17.31 39.77C17.14 39.77 16.98 39.77 16.81 39.77C16.6 39.78 16.39 39.78 16.18 39.78C16.02 39.78 15.86 39.78 15.71 39.78C15.5 39.78 15.3 39.78 15.1 39.78C14.96 39.78 14.81 39.78 14.67 39.78C14.46 39.78 14.25 39.78 14.05 39.77C13.93 39.77 13.81 39.77 13.69 39.77C13.44 39.77 13.2 39.76 12.96 39.76C12.9 39.76 12.84 39.76 12.78 39.76C12.49 39.75 12.21 39.75 11.94 39.74C11.91 39.74 11.88 39.74 11.84 39.74C11.63 39.73 11.42 39.72 11.22 39.72C11.16 39.72 11.11 39.72 11.06 39.71C10.85 39.71 10.65 39.7 10.46 39.69C10.42 39.69 10.38 39.69 10.34 39.69C10.18 39.68 10.02 39.68 9.88 39.67C9.85 39.67 9.81 39.67 9.78 39.67C9.62 39.66 9.47 39.65 9.34 39.64C9.31 39.64 9.28 39.64 9.25 39.64C9.12 39.63 8.99 39.63 8.89 39.62C8.82 39.62 8.72 39.61 8.62 39.6C8.56 39.6 8.49 39.59 8.43 39.58C8.34 39.57 8.25 39.56 8.15 39.54C8.11 39.53 8.08 39.53 8.04 39.52C7.91 39.5 7.77 39.47 7.64 39.43C7.62 39.42 7.6 39.41 7.58 39.41C7.45 39.36 7.31 39.31 7.2 39.24C6.71 38.96 6.62 38.46 6.6 38.25C6.5 37.61 6.31 36.17 6.32 34.29L6.3 39.88C6.3 41.76 6.48 43.2 6.59 43.85C6.61 44.06 6.69 44.56 7.18 44.84C7.26 44.88 7.34 44.92 7.43 44.96C7.47 44.97 7.52 44.99 7.57 45C7.59 45.01 7.61 45.02 7.63 45.02C7.72 45.05 7.86 45.09 7.95 45.11C7.97 45.11 8 45.11 8.02 45.12C8.06 45.13 8.1 45.13 8.14 45.14C8.18 45.14 8.23 45.16 8.27 45.16C8.32 45.17 8.36 45.17 8.41 45.18C8.48 45.19 8.54 45.19 8.61 45.2C8.63 45.2 8.66 45.2 8.68 45.21C8.75 45.21 8.82 45.22 8.87 45.22C8.98 45.23 9.1 45.23 9.23 45.24C9.26 45.24 9.29 45.24 9.32 45.24C9.46 45.25 9.6 45.26 9.77 45.26C9.8 45.26 9.83 45.27 9.86 45.27C10.01 45.27 10.17 45.28 10.34 45.29C10.37 45.29 10.4 45.29 10.43 45.29C10.63 45.3 10.84 45.3 11.06 45.31C11.1 45.31 11.14 45.31 11.19 45.32C11.4 45.32 11.62 45.33 11.86 45.33C11.87 45.33 11.93 45.34 11.94 45.34C12.2 45.34 12.48 45.35 12.76 45.35C12.81 45.36 12.87 45.36 12.92 45.36C13.17 45.36 13.42 45.36 13.68 45.37C13.79 45.37 13.9 45.37 14.01 45.37C14.22 45.37 14.43 45.38 14.65 45.38C14.79 45.38 14.94 45.38 15.08 45.38C15.29 45.38 15.49 45.38 15.7 45.38C15.85 45.38 16.01 45.38 16.16 45.38C16.37 45.37 16.58 45.37 16.79 45.37C16.96 45.37 17.13 45.37 17.3 45.37C17.51 45.36 17.73 45.36 17.95 45.36C18.12 45.35 18.29 45.35 18.47 45.34C18.69 45.34 18.92 45.33 19.15 45.33C19.33 45.32 19.51 45.32 19.69 45.31C19.81 45.31 19.92 45.31 20.04 45.3C20.12 45.3 20.2 45.3 20.28 45.29C20.7 45.28 21.12 45.26 21.56 45.24C21.67 45.23 21.78 45.23 21.9 45.22C22.44 45.2 22.99 45.17 23.54 45.13C23.67 45.13 23.81 45.12 23.95 45.11C24.38 45.08 24.82 45.05 25.26 45.01C25.43 45 25.6 44.99 25.77 44.97C26.26 44.93 26.76 44.89 27.25 44.84C27.32 44.83 27.39 44.83 27.46 44.82C28.5 44.72 29.58 44.59 30.62 44.45C30.68 44.44 30.74 44.43 30.81 44.43C31.8 44.29 32.78 44.14 33.75 43.96C33.81 43.95 33.86 43.95 33.91 43.94C34.01 43.92 34.11 43.9 34.22 43.88C34.57 43.81 34.92 43.75 35.26 43.68C35.45 43.64 35.63 43.6 35.82 43.56C36.2 43.48 36.58 43.39 36.96 43.31C37.1 43.27 37.24 43.24 37.37 43.21C37.88 43.09 38.39 42.96 38.88 42.82C38.98 42.79 39.07 42.76 39.17 42.74C39.57 42.62 39.96 42.51 40.34 42.39C40.4 42.37 40.46 42.35 40.51 42.33C40.63 42.3 40.74 42.26 40.85 42.22C41.14 42.12 41.44 42.02 41.73 41.92C41.9 41.85 42.07 41.79 42.25 41.72C42.53 41.62 42.8 41.51 43.08 41.39C43.24 41.33 43.4 41.26 43.56 41.19C43.85 41.06 44.13 40.93 44.41 40.8C44.54 40.74 44.68 40.67 44.81 40.61C45.21 40.41 45.59 40.2 45.97 39.99C46.06 39.93 46.14 39.88 46.23 39.83C46.31 39.78 46.38 39.73 46.47 39.68C46.6 39.6 46.73 39.52 46.85 39.44C46.97 39.36 47.08 39.28 47.19 39.21C47.32 39.12 47.44 39.04 47.55 38.95C47.66 38.87 47.77 38.79 47.87 38.71C47.99 38.63 48.1 38.54 48.21 38.45C48.31 38.37 48.41 38.29 48.5 38.2C48.61 38.12 48.71 38.03 48.81 37.94C48.85 37.9 48.89 37.87 48.93 37.83C48.97 37.79 49 37.76 49.04 37.72C49.21 37.56 49.37 37.4 49.52 37.24C49.58 37.18 49.64 37.13 49.69 37.07C49.88 36.86 50.07 36.64 50.25 36.42C50.28 36.37 50.33 36.3 50.37 36.25C50.48 36.11 50.59 35.97 50.68 35.82C50.74 35.75 50.78 35.67 50.83 35.59C50.91 35.47 51 35.34 51.07 35.21C51.09 35.18 51.11 35.14 51.13 35.11C51.16 35.06 51.19 35 51.21 34.95C51.27 34.84 51.33 34.73 51.38 34.62C51.43 34.53 51.47 34.44 51.51 34.35C51.56 34.24 51.6 34.13 51.65 34.02C51.67 33.98 51.69 33.93 51.71 33.88C51.72 33.84 51.74 33.79 51.75 33.75C51.79 33.64 51.82 33.54 51.86 33.43C51.88 33.34 51.91 33.24 51.94 33.15C51.97 33.04 51.99 32.94 52.02 32.83C52.03 32.78 52.04 32.72 52.06 32.66C52.06 32.63 52.07 32.59 52.07 32.55C52.09 32.44 52.11 32.33 52.13 32.22C52.14 32.13 52.15 32.03 52.16 31.94C52.17 31.83 52.18 31.72 52.18 31.61C52.19 31.55 52.2 31.49 52.2 31.42C52.2 31.36 52.2 31.3 52.2 31.23L52.22 25.64Z" fill="url(#paint_linear_97_2426_0)" fill-opacity="1.000000" fill-rule="evenodd"/>
		<path d="M52.2 26.02C52.19 26.12 52.19 26.23 52.18 26.34C52.17 26.44 52.15 26.53 52.14 26.62C52.13 26.73 52.11 26.84 52.09 26.95C52.07 27.05 52.05 27.14 52.03 27.23C52.01 27.34 51.98 27.45 51.95 27.55C51.93 27.65 51.9 27.74 51.87 27.83C51.84 27.94 51.8 28.04 51.77 28.15C51.73 28.24 51.7 28.33 51.66 28.43C51.62 28.54 51.57 28.65 51.52 28.75C51.48 28.85 51.44 28.94 51.4 29.03C51.35 29.14 51.29 29.24 51.23 29.35C51.18 29.44 51.14 29.53 51.09 29.61C51.01 29.74 50.93 29.87 50.85 30C50.8 30.07 50.75 30.15 50.7 30.22C50.6 30.37 50.49 30.51 50.39 30.66C50.34 30.71 50.3 30.77 50.26 30.82C50.09 31.04 49.9 31.26 49.7 31.47C49.65 31.53 49.59 31.59 49.54 31.64C49.39 31.8 49.23 31.96 49.06 32.12C48.98 32.19 48.91 32.27 48.83 32.34C48.73 32.43 48.63 32.52 48.52 32.6C48.42 32.69 48.32 32.77 48.22 32.85C48.11 32.94 48 33.03 47.89 33.11C47.79 33.19 47.68 33.28 47.57 33.36C47.45 33.44 47.33 33.52 47.21 33.61C47.1 33.69 46.98 33.76 46.87 33.84C46.74 33.92 46.61 34 46.48 34.08C46.32 34.19 46.16 34.29 45.98 34.39C45.61 34.61 45.22 34.81 44.82 35.01C44.69 35.08 44.55 35.14 44.42 35.2C44.15 35.34 43.87 35.47 43.58 35.59C43.42 35.66 43.26 35.73 43.09 35.8C42.82 35.91 42.54 36.02 42.26 36.12C42.09 36.19 41.92 36.25 41.74 36.32C41.45 36.42 41.16 36.52 40.87 36.62C40.7 36.68 40.53 36.73 40.36 36.79C39.98 36.91 39.59 37.02 39.19 37.14C39.09 37.16 39 37.2 38.9 37.22C38.4 37.36 37.9 37.49 37.39 37.61C37.25 37.65 37.11 37.68 36.97 37.71C36.6 37.8 36.22 37.88 35.84 37.96C35.65 38 35.46 38.04 35.28 38.08C34.93 38.15 34.58 38.22 34.24 38.28C34.08 38.31 33.93 38.34 33.77 38.37C32.8 38.54 31.81 38.69 30.83 38.83C30.76 38.84 30.7 38.85 30.63 38.86C29.59 39 28.55 39.12 27.51 39.22C27.43 39.23 27.34 39.24 27.26 39.24C26.77 39.29 26.28 39.33 25.79 39.37C25.62 39.39 25.44 39.4 25.27 39.42C24.83 39.45 24.4 39.48 23.97 39.51C23.83 39.52 23.69 39.53 23.55 39.54C23 39.57 22.45 39.6 21.92 39.63C21.8 39.63 21.69 39.64 21.57 39.64C21.14 39.66 20.71 39.68 20.29 39.7C20.1 39.7 19.9 39.71 19.71 39.72C19.52 39.72 19.34 39.73 19.16 39.73C18.93 39.74 18.71 39.74 18.48 39.75C18.31 39.75 18.14 39.75 17.96 39.76C17.74 39.76 17.53 39.77 17.31 39.77C17.14 39.77 16.98 39.77 16.81 39.77C16.6 39.78 16.39 39.78 16.18 39.78C16.02 39.78 15.86 39.78 15.71 39.78C15.5 39.78 15.3 39.78 15.1 39.78C14.96 39.78 14.81 39.78 14.67 39.78C14.46 39.78 14.25 39.78 14.05 39.77C13.93 39.77 13.81 39.77 13.69 39.77C13.44 39.77 13.2 39.76 12.96 39.76C12.9 39.76 12.84 39.76 12.78 39.76C12.49 39.75 12.21 39.75 11.94 39.74C11.91 39.74 11.88 39.74 11.84 39.74C11.63 39.73 11.42 39.72 11.22 39.72C11.16 39.72 11.11 39.72 11.06 39.71C10.85 39.71 10.65 39.7 10.46 39.69C10.42 39.69 10.38 39.69 10.34 39.69C10.18 39.68 10.02 39.68 9.88 39.67C9.85 39.67 9.81 39.67 9.78 39.67C9.62 39.66 9.47 39.65 9.34 39.64C9.31 39.64 9.28 39.64 9.25 39.64C9.12 39.63 8.99 39.63 8.89 39.62C8.82 39.62 8.72 39.61 8.62 39.6C8.56 39.6 8.49 39.59 8.43 39.58C8.34 39.57 8.25 39.56 8.15 39.54C8.11 39.53 8.08 39.53 8.04 39.52C7.91 39.5 7.77 39.47 7.64 39.43C7.62 39.42 7.6 39.41 7.58 39.41C7.45 39.36 7.31 39.31 7.2 39.24C6.71 38.96 6.62 38.46 6.6 38.25C6.5 37.61 6.31 36.17 6.32 34.29L6.3 39.88C6.3 41.76 6.48 43.2 6.59 43.85C6.61 44.06 6.69 44.56 7.18 44.84C7.26 44.88 7.34 44.92 7.43 44.96C7.47 44.97 7.52 44.99 7.57 45C7.59 45.01 7.61 45.02 7.63 45.02C7.72 45.05 7.86 45.09 7.95 45.11C7.97 45.11 8 45.11 8.02 45.12C8.06 45.13 8.1 45.13 8.14 45.14C8.18 45.14 8.23 45.16 8.27 45.16C8.32 45.17 8.36 45.17 8.41 45.18C8.48 45.19 8.54 45.19 8.61 45.2C8.63 45.2 8.66 45.2 8.68 45.21C8.75 45.21 8.82 45.22 8.87 45.22C8.98 45.23 9.1 45.23 9.23 45.24C9.26 45.24 9.29 45.24 9.32 45.24C9.46 45.25 9.6 45.26 9.77 45.26C9.8 45.26 9.83 45.27 9.86 45.27C10.01 45.27 10.17 45.28 10.34 45.29C10.37 45.29 10.4 45.29 10.43 45.29C10.63 45.3 10.84 45.3 11.06 45.31C11.1 45.31 11.14 45.31 11.19 45.32C11.4 45.32 11.62 45.33 11.86 45.33C11.87 45.33 11.93 45.34 11.94 45.34C12.2 45.34 12.48 45.35 12.76 45.35C12.81 45.36 12.87 45.36 12.92 45.36C13.17 45.36 13.42 45.36 13.68 45.37C13.79 45.37 13.9 45.37 14.01 45.37C14.22 45.37 14.43 45.38 14.65 45.38C14.79 45.38 14.94 45.38 15.08 45.38C15.29 45.38 15.49 45.38 15.7 45.38C15.85 45.38 16.01 45.38 16.16 45.38C16.37 45.37 16.58 45.37 16.79 45.37C16.96 45.37 17.13 45.37 17.3 45.37C17.51 45.36 17.73 45.36 17.95 45.36C18.12 45.35 18.29 45.35 18.47 45.34C18.69 45.34 18.92 45.33 19.15 45.33C19.33 45.32 19.51 45.32 19.69 45.31C19.81 45.31 19.92 45.31 20.04 45.3C20.12 45.3 20.2 45.3 20.28 45.29C20.7 45.28 21.12 45.26 21.56 45.24C21.67 45.23 21.78 45.23 21.9 45.22C22.44 45.2 22.99 45.17 23.54 45.13C23.67 45.13 23.81 45.12 23.95 45.11C24.38 45.08 24.82 45.05 25.26 45.01C25.43 45 25.6 44.99 25.77 44.97C26.26 44.93 26.76 44.89 27.25 44.84C27.32 44.83 27.39 44.83 27.46 44.82C28.5 44.72 29.58 44.59 30.62 44.45C30.68 44.44 30.74 44.43 30.81 44.43C31.8 44.29 32.78 44.14 33.75 43.96C33.81 43.95 33.86 43.95 33.91 43.94C34.01 43.92 34.11 43.9 34.22 43.88C34.57 43.81 34.92 43.75 35.26 43.68C35.45 43.64 35.63 43.6 35.82 43.56C36.2 43.48 36.58 43.39 36.96 43.31C37.1 43.27 37.24 43.24 37.37 43.21C37.88 43.09 38.39 42.96 38.88 42.82C38.98 42.79 39.07 42.76 39.17 42.74C39.57 42.62 39.96 42.51 40.34 42.39C40.4 42.37 40.46 42.35 40.51 42.33C40.63 42.3 40.74 42.26 40.85 42.22C41.14 42.12 41.44 42.02 41.73 41.92C41.9 41.85 42.07 41.79 42.25 41.72C42.53 41.62 42.8 41.51 43.08 41.39C43.24 41.33 43.4 41.26 43.56 41.19C43.85 41.06 44.13 40.93 44.41 40.8C44.54 40.74 44.68 40.67 44.81 40.61C45.21 40.41 45.59 40.2 45.97 39.99C46.06 39.93 46.14 39.88 46.23 39.83C46.31 39.78 46.38 39.73 46.47 39.68C46.6 39.6 46.73 39.52 46.85 39.44C46.97 39.36 47.08 39.28 47.19 39.21C47.32 39.12 47.44 39.04 47.55 38.95C47.66 38.87 47.77 38.79 47.87 38.71C47.99 38.63 48.1 38.54 48.21 38.45C48.31 38.37 48.41 38.29 48.5 38.2C48.61 38.12 48.71 38.03 48.81 37.94C48.85 37.9 48.89 37.87 48.93 37.83C48.97 37.79 49 37.76 49.04 37.72C49.21 37.56 49.37 37.4 49.52 37.24C49.58 37.18 49.64 37.13 49.69 37.07C49.88 36.86 50.07 36.64 50.25 36.42C50.28 36.37 50.33 36.3 50.37 36.25C50.48 36.11 50.59 35.97 50.68 35.82C50.74 35.75 50.78 35.67 50.83 35.59C50.91 35.47 51 35.34 51.07 35.21C51.09 35.18 51.11 35.14 51.13 35.11C51.16 35.06 51.19 35 51.21 34.95C51.27 34.84 51.33 34.73 51.38 34.62C51.43 34.53 51.47 34.44 51.51 34.35C51.56 34.24 51.6 34.13 51.65 34.02C51.67 33.98 51.69 33.93 51.71 33.88C51.72 33.84 51.74 33.79 51.75 33.75C51.79 33.64 51.82 33.54 51.86 33.43C51.88 33.34 51.91 33.24 51.94 33.15C51.97 33.04 51.99 32.94 52.02 32.83C52.03 32.78 52.04 32.72 52.06 32.66C52.06 32.63 52.07 32.59 52.07 32.55C52.09 32.44 52.11 32.33 52.13 32.22C52.14 32.13 52.15 32.03 52.16 31.94C52.17 31.83 52.18 31.72 52.18 31.61C52.19 31.55 52.2 31.49 52.2 31.42C52.2 31.36 52.2 31.3 52.2 31.23L52.22 25.64C52.22 25.76 52.21 25.89 52.2 26.02Z" stroke="#000000" stroke-opacity="0" stroke-width="1.000000"/>
		<path d="M45.97 16.8C54.3 21.68 54.29 29.56 45.98 34.39C35.09 40.72 12.68 39.82 8.89 39.62C8.48 39.6 7.69 39.53 7.2 39.24C6.71 38.96 6.62 38.46 6.6 38.25C6.23 35.9 4.72 23.08 15.53 16.8C23.82 11.98 37.41 11.95 45.83 16.73L45.97 16.8Z" fill="#31AF7E" fill-opacity="1.000000" fill-rule="evenodd"/>
		<path d="M45.98 34.39C35.09 40.72 12.68 39.82 8.89 39.62C8.48 39.6 7.69 39.53 7.2 39.24C6.71 38.96 6.62 38.46 6.6 38.25C6.23 35.9 4.72 23.08 15.53 16.8C23.82 11.98 37.41 11.95 45.83 16.73L45.97 16.8C54.3 21.68 54.29 29.56 45.98 34.39Z" stroke="#000000" stroke-opacity="0" stroke-width="1.000000"/>
		<path d="M42.56 18.77C49.2 22.65 49.19 28.93 42.58 32.77C33.9 37.82 16.06 37.1 13.04 36.94C12.72 36.92 12.09 36.87 11.7 36.64C11.31 36.41 11.24 36.02 11.22 35.85C10.92 33.98 9.73 23.77 18.33 18.77C24.93 14.93 35.75 14.91 42.46 18.71L42.56 18.77Z" fill="#ADEACB" fill-opacity="1.000000" fill-rule="evenodd"/>
		<path d="M42.58 32.77C33.9 37.82 16.06 37.1 13.04 36.94C12.72 36.92 12.09 36.87 11.7 36.64C11.31 36.41 11.24 36.02 11.22 35.85C10.92 33.98 9.73 23.77 18.33 18.77C24.93 14.93 35.75 14.91 42.46 18.71L42.56 18.77C49.2 22.65 49.19 28.93 42.58 32.77Z" stroke="#000000" stroke-opacity="0" stroke-width="1.000000"/>
		<path d="M45.83 16.73L45.97 16.8C54.3 21.68 54.29 29.56 45.98 34.39C41.08 37.24 33.85 38.62 27.03 39.27L26.12 39.35L25.22 39.42C25.07 39.43 24.92 39.44 24.77 39.46L23.89 39.52L23.01 39.57L22.14 39.62L21.29 39.66L20.45 39.69L19.62 39.72L18.82 39.74L17.64 39.76L16.52 39.78L15.44 39.78L14.42 39.78L13.78 39.77L12.57 39.75L11.75 39.73L11.01 39.71L9.95 39.67L9.01 39.63L8.89 39.62C8.48 39.6 7.69 39.53 7.2 39.24C6.78 39 6.65 38.59 6.62 38.35L6.6 38.25L6.54 37.82L6.5 37.5L6.46 37.12L6.42 36.7L6.39 36.39L6.37 36.06L6.35 35.72L6.33 35.36L6.32 34.99L6.32 34.59L6.32 34.19C6.32 34.12 6.32 34.05 6.32 33.98L6.33 33.55L6.34 33.11L6.37 32.66L6.4 32.2C6.8 27.31 8.72 20.76 15.53 16.8C23.82 11.98 37.41 11.95 45.83 16.73ZM45.53 17.25C37.29 12.58 23.94 12.61 15.83 17.33C11.2 20.02 8.55 24.11 7.46 29.13C6.75 32.44 6.79 35.64 7.21 38.2C7.23 38.42 7.31 38.61 7.5 38.72C7.79 38.89 8.31 38.98 8.92 39.02L9.81 39.06C10.12 39.08 10.42 39.09 10.74 39.1L11.69 39.13C12.17 39.15 12.66 39.16 13.16 39.17L14.18 39.18C15.55 39.19 16.98 39.19 18.45 39.15L19.57 39.12C21.25 39.07 22.98 38.98 24.73 38.85C25.53 38.79 26.31 38.73 27.08 38.66L28 38.56C28.15 38.55 28.3 38.53 28.45 38.52L29.35 38.41L30.23 38.3C36.66 37.47 41.97 36.02 45.68 33.87C53.52 29.31 53.59 22.11 45.92 17.47L45.68 17.33L45.53 17.25Z" fill="#68CB9F" fill-opacity="1.000000" fill-rule="nonzero"/>
		<path d="M45.97 16.8C54.3 21.68 54.29 29.56 45.98 34.39C41.08 37.24 33.85 38.62 27.03 39.27L26.12 39.35L25.22 39.42C25.07 39.43 24.92 39.44 24.77 39.46L23.89 39.52L23.01 39.57L22.14 39.62L21.29 39.66L20.45 39.69L19.62 39.72L18.82 39.74L17.64 39.76L16.52 39.78L15.44 39.78L14.42 39.78L13.78 39.77L12.57 39.75L11.75 39.73L11.01 39.71L9.95 39.67L9.01 39.63L8.89 39.62C8.48 39.6 7.69 39.53 7.2 39.24C6.78 39 6.65 38.59 6.62 38.35L6.6 38.25L6.54 37.82L6.5 37.5L6.46 37.12L6.42 36.7L6.39 36.39L6.37 36.06L6.35 35.72L6.33 35.36L6.32 34.99L6.32 34.59L6.32 34.19C6.32 34.12 6.32 34.05 6.32 33.98L6.33 33.55L6.34 33.11L6.37 32.66L6.4 32.2C6.8 27.31 8.72 20.76 15.53 16.8C23.82 11.98 37.41 11.95 45.83 16.73L45.97 16.8ZM15.83 17.33C11.2 20.02 8.55 24.11 7.46 29.13C6.75 32.44 6.79 35.64 7.21 38.2C7.23 38.42 7.31 38.61 7.5 38.72C7.79 38.89 8.31 38.98 8.92 39.02L9.81 39.06C10.12 39.08 10.42 39.09 10.74 39.1L11.69 39.13C12.17 39.15 12.66 39.16 13.16 39.17L14.18 39.18C15.55 39.19 16.98 39.19 18.45 39.15L19.57 39.12C21.25 39.07 22.98 38.98 24.73 38.85C25.53 38.79 26.31 38.73 27.08 38.66L28 38.56C28.15 38.55 28.3 38.53 28.45 38.52L29.35 38.41L30.23 38.3C36.66 37.47 41.97 36.02 45.68 33.87C53.52 29.31 53.59 22.11 45.92 17.47L45.68 17.33L45.53 17.25C37.29 12.58 23.94 12.61 15.83 17.33Z" stroke="#000000" stroke-opacity="0" stroke-width="1.000000"/>
		<path d="M50.53 37.03L50.76 36.74L50.85 36.62L51.07 36.33L51.18 36.16L51.43 35.77L51.64 35.45L51.7 35.33L51.75 35.23L51.87 35L51.99 34.76L52.06 34.6L52.14 34.42L52.22 34.22L52.27 34.1L52.32 33.95C52.36 33.84 52.4 33.72 52.43 33.61C52.47 33.5 52.5 33.4 52.52 33.3L52.56 33.15L52.65 32.78L52.71 32.41L52.75 32.11L52.77 31.94L52.8 31.48L52.8 31.34L52.82 25.61C52.82 22.09 50.5 18.75 46.27 16.28L46.12 16.19C37.52 11.32 23.7 11.35 15.22 16.28L14.96 16.44C8.46 20.34 5.79 26.73 5.71 34.03L5.71 34.39L5.7 40.12C5.7 41.6 5.83 42.92 5.99 43.95C6.04 44.48 6.28 45.02 6.88 45.36C6.98 45.42 7.09 45.47 7.2 45.52L7.29 45.55L7.52 45.62L7.67 45.66L7.88 45.71L8.19 45.76L8.44 45.79L8.61 45.81L8.76 45.82L10.08 45.88L11.17 45.92L12.47 45.95L14 45.98L14.77 45.98L15.93 45.98L18.48 45.95L19.16 45.93L20.06 45.91L21.93 45.83C22.29 45.81 22.66 45.79 23.03 45.77L23.99 45.71L24.87 45.65L26.11 45.55L27 45.47L27.53 45.42C28.34 45.34 29.13 45.25 29.92 45.15L30.79 45.04L30.89 45.02C31.63 44.92 32.38 44.81 33.12 44.69L33.91 44.55L34.02 44.53L34.85 44.37L35.53 44.24L36.12 44.12L36.68 43.99L37.52 43.8C37.92 43.7 38.3 43.6 38.68 43.5L39.15 43.37L39.33 43.32C39.61 43.24 39.88 43.16 40.14 43.08L40.74 42.9L41.04 42.79C41.34 42.69 41.64 42.59 41.93 42.48L42.28 42.36L42.46 42.29C42.64 42.22 42.83 42.15 43.02 42.07L43.53 41.86L43.94 41.68L44.35 41.49L45.07 41.15C45.43 40.98 45.75 40.81 46.05 40.64L46.42 40.42L46.64 40.29L46.78 40.2L47.11 39.99L47.27 39.88L47.82 39.5L48.24 39.19L48.36 39.1L48.64 38.88L48.9 38.66L49.12 38.47L49.34 38.27L49.47 38.15L49.63 38L49.8 37.83L50.13 37.48C50.27 37.33 50.4 37.18 50.53 37.03ZM6.32 34.39L6.32 34.49L6.32 34.16L6.32 33.81L6.33 33.46L6.35 33.1C6.35 33.03 6.35 32.97 6.36 32.91L6.38 32.54L6.41 32.15L6.44 31.76L6.48 31.37C6.5 31.24 6.52 31.1 6.53 30.97L6.59 30.56C6.6 30.49 6.61 30.42 6.62 30.35L6.69 29.94L6.77 29.52L6.85 29.1L6.95 28.67C7.92 24.48 10.26 19.86 15.53 16.8C23.82 11.98 37.41 11.95 45.83 16.73L45.97 16.8C50.05 19.19 52.13 22.3 52.21 25.42L52.22 25.64L52.2 31.23C52.2 31.3 52.2 31.36 52.2 31.42L52.18 31.61C52.18 31.72 52.17 31.83 52.16 31.94L52.14 32.08L52.1 32.39L52.06 32.66L52.02 32.83C51.99 32.94 51.97 33.04 51.94 33.15C51.91 33.24 51.88 33.34 51.86 33.43L51.81 33.59L51.71 33.88L51.65 34.02C51.6 34.13 51.56 34.24 51.51 34.35C51.47 34.44 51.43 34.53 51.38 34.62C51.33 34.73 51.27 34.84 51.21 34.95L51.13 35.11L51.07 35.21L50.95 35.4L50.83 35.59C50.78 35.67 50.74 35.75 50.68 35.82C50.59 35.97 50.48 36.11 50.37 36.25L50.26 36.4C50.09 36.62 49.88 36.86 49.69 37.07L49.61 37.15L49.52 37.24C49.42 37.35 49.32 37.46 49.21 37.56L49.04 37.72L48.93 37.83L48.81 37.94L48.66 38.07L48.5 38.2C48.41 38.29 48.31 38.37 48.21 38.45C48.1 38.54 47.99 38.63 47.87 38.71L47.55 38.95C47.44 39.04 47.32 39.12 47.19 39.21L46.85 39.44L46.66 39.56L46.23 39.83C46.14 39.88 46.06 39.93 45.97 39.99C45.59 40.2 45.21 40.41 44.81 40.61L44.41 40.8C44.13 40.93 43.85 41.06 43.56 41.19C43.4 41.26 43.24 41.33 43.08 41.39C42.8 41.51 42.53 41.62 42.25 41.72L41.73 41.92C41.44 42.02 41.14 42.12 40.85 42.22C40.74 42.26 40.63 42.3 40.51 42.33L40.34 42.39C40.09 42.47 39.83 42.55 39.56 42.62L38.88 42.82C38.39 42.96 37.88 43.09 37.37 43.21L36.96 43.31C36.58 43.39 36.2 43.48 35.82 43.56L35.54 43.62L34.74 43.78L33.91 43.94L33.75 43.96C33.02 44.09 32.29 44.21 31.55 44.32L30.62 44.45C29.92 44.55 29.23 44.63 28.53 44.71L27.46 44.82L26.51 44.91L25.51 44.99L24.6 45.06L23.54 45.13C23.17 45.16 22.81 45.18 22.44 45.2L21.56 45.24L20.91 45.27L20.04 45.3L19.15 45.33L17.95 45.36L16.79 45.37L15.7 45.38L14.65 45.38L13.68 45.37L12.48 45.35L11.63 45.33L10.34 45.29L9.1 45.23L8.87 45.22L8.68 45.21L8.51 45.19L8.27 45.16L7.95 45.11C7.86 45.09 7.77 45.06 7.68 45.04L7.43 44.96C7.34 44.92 7.26 44.88 7.18 44.84C6.76 44.6 6.64 44.19 6.6 43.95L6.59 43.85L6.55 43.57L6.5 43.22L6.45 42.81L6.42 42.49L6.39 42.16L6.36 41.79L6.34 41.41L6.32 41C6.32 40.93 6.31 40.86 6.31 40.79L6.3 40.34C6.3 40.27 6.3 40.19 6.3 40.12L6.32 34.39Z" fill="#1E6D4E" fill-opacity="1.000000" fill-rule="nonzero"/>
		<path d="M50.76 36.74L50.85 36.62L51.07 36.33L51.18 36.16L51.43 35.77L51.64 35.45L51.7 35.33L51.75 35.23L51.87 35L51.99 34.76L52.06 34.6L52.14 34.42L52.22 34.22L52.27 34.1L52.32 33.95C52.36 33.84 52.4 33.72 52.43 33.61C52.47 33.5 52.5 33.4 52.52 33.3L52.56 33.15L52.65 32.78L52.71 32.41L52.75 32.11L52.77 31.94L52.8 31.48L52.8 31.34L52.82 25.61C52.82 22.09 50.5 18.75 46.27 16.28L46.12 16.19C37.52 11.32 23.7 11.35 15.22 16.28L14.96 16.44C8.46 20.34 5.79 26.73 5.71 34.03L5.71 34.39L5.7 40.12C5.7 41.6 5.83 42.92 5.99 43.95C6.04 44.48 6.28 45.02 6.88 45.36C6.98 45.42 7.09 45.47 7.2 45.52L7.29 45.55L7.52 45.62L7.67 45.66L7.88 45.71L8.19 45.76L8.44 45.79L8.61 45.81L8.76 45.82L10.08 45.88L11.17 45.92L12.47 45.95L14 45.98L14.77 45.98L15.93 45.98L18.48 45.95L19.16 45.93L20.06 45.91L21.93 45.83C22.29 45.81 22.66 45.79 23.03 45.77L23.99 45.71L24.87 45.65L26.11 45.55L27 45.47L27.53 45.42C28.34 45.34 29.13 45.25 29.92 45.15L30.79 45.04L30.89 45.02C31.63 44.92 32.38 44.81 33.12 44.69L33.91 44.55L34.02 44.53L34.85 44.37L35.53 44.24L36.12 44.12L36.68 43.99L37.52 43.8C37.92 43.7 38.3 43.6 38.68 43.5L39.15 43.37L39.33 43.32C39.61 43.24 39.88 43.16 40.14 43.08L40.74 42.9L41.04 42.79C41.34 42.69 41.64 42.59 41.93 42.48L42.28 42.36L42.46 42.29C42.64 42.22 42.83 42.15 43.02 42.07L43.53 41.86L43.94 41.68L44.35 41.49L45.07 41.15C45.43 40.98 45.75 40.81 46.05 40.64L46.42 40.42L46.64 40.29L46.78 40.2L47.11 39.99L47.27 39.88L47.82 39.5L48.24 39.19L48.36 39.1L48.64 38.88L48.9 38.66L49.12 38.47L49.34 38.27L49.47 38.15L49.63 38L49.8 37.83L50.13 37.48C50.27 37.33 50.4 37.18 50.53 37.03L50.76 36.74ZM6.32 34.49L6.32 34.16L6.32 33.81L6.33 33.46L6.35 33.1C6.35 33.03 6.35 32.97 6.36 32.91L6.38 32.54L6.41 32.15L6.44 31.76L6.48 31.37C6.5 31.24 6.52 31.1 6.53 30.97L6.59 30.56C6.6 30.49 6.61 30.42 6.62 30.35L6.69 29.94L6.77 29.52L6.85 29.1L6.95 28.67C7.92 24.48 10.26 19.86 15.53 16.8C23.82 11.98 37.41 11.95 45.83 16.73L45.97 16.8C50.05 19.19 52.13 22.3 52.21 25.42L52.22 25.64L52.2 31.23C52.2 31.3 52.2 31.36 52.2 31.42L52.18 31.61C52.18 31.72 52.17 31.83 52.16 31.94L52.14 32.08L52.1 32.39L52.06 32.66L52.02 32.83C51.99 32.94 51.97 33.04 51.94 33.15C51.91 33.24 51.88 33.34 51.86 33.43L51.81 33.59L51.71 33.88L51.65 34.02C51.6 34.13 51.56 34.24 51.51 34.35C51.47 34.44 51.43 34.53 51.38 34.62C51.33 34.73 51.27 34.84 51.21 34.95L51.13 35.11L51.07 35.21L50.95 35.4L50.83 35.59C50.78 35.67 50.74 35.75 50.68 35.82C50.59 35.97 50.48 36.11 50.37 36.25L50.26 36.4C50.09 36.62 49.88 36.86 49.69 37.07L49.61 37.15L49.52 37.24C49.42 37.35 49.32 37.46 49.21 37.56L49.04 37.72L48.93 37.83L48.81 37.94L48.66 38.07L48.5 38.2C48.41 38.29 48.31 38.37 48.21 38.45C48.1 38.54 47.99 38.63 47.87 38.71L47.55 38.95C47.44 39.04 47.32 39.12 47.19 39.21L46.85 39.44L46.66 39.56L46.23 39.83C46.14 39.88 46.06 39.93 45.97 39.99C45.59 40.2 45.21 40.41 44.81 40.61L44.41 40.8C44.13 40.93 43.85 41.06 43.56 41.19C43.4 41.26 43.24 41.33 43.08 41.39C42.8 41.51 42.53 41.62 42.25 41.72L41.73 41.92C41.44 42.02 41.14 42.12 40.85 42.22C40.74 42.26 40.63 42.3 40.51 42.33L40.34 42.39C40.09 42.47 39.83 42.55 39.56 42.62L38.88 42.82C38.39 42.96 37.88 43.09 37.37 43.21L36.96 43.31C36.58 43.39 36.2 43.48 35.82 43.56L35.54 43.62L34.74 43.78L33.91 43.94L33.75 43.96C33.02 44.09 32.29 44.21 31.55 44.32L30.62 44.45C29.92 44.55 29.23 44.63 28.53 44.71L27.46 44.82L26.51 44.91L25.51 44.99L24.6 45.06L23.54 45.13C23.17 45.16 22.81 45.18 22.44 45.2L21.56 45.24L20.91 45.27L20.04 45.3L19.15 45.33L17.95 45.36L16.79 45.37L15.7 45.38L14.65 45.38L13.68 45.37L12.48 45.35L11.63 45.33L10.34 45.29L9.1 45.23L8.87 45.22L8.68 45.21L8.51 45.19L8.27 45.16L7.95 45.11C7.86 45.09 7.77 45.06 7.68 45.04L7.43 44.96C7.34 44.92 7.26 44.88 7.18 44.84C6.76 44.6 6.64 44.19 6.6 43.95L6.59 43.85L6.55 43.57L6.5 43.22L6.45 42.81L6.42 42.49L6.39 42.16L6.36 41.79L6.34 41.41L6.32 41C6.32 40.93 6.31 40.86 6.31 40.79L6.3 40.34C6.3 40.27 6.3 40.19 6.3 40.12L6.32 34.39L6.32 34.49Z" stroke="#000000" stroke-opacity="0" stroke-width="1.000000"/>
		<path d="M37.92 24.78C37.67 25.05 37.35 25.3 36.96 25.52C36.88 25.57 36.79 25.62 36.7 25.67C36.67 25.69 36.63 25.7 36.59 25.72C36.54 25.75 36.49 25.77 36.43 25.8C36.39 25.81 36.36 25.83 36.32 25.85C36.24 25.88 36.17 25.91 36.09 25.94C35.85 26.03 35.6 26.11 35.34 26.18C35.31 26.19 35.28 26.2 35.24 26.21C35.1 26.24 34.95 26.28 34.8 26.3C34.76 26.31 34.71 26.32 34.67 26.33C34.56 26.35 34.46 26.37 34.35 26.38C34.31 26.39 34.28 26.39 34.24 26.4C34.2 26.4 34.15 26.41 34.1 26.41C32.35 26.6 30.42 26.31 29.06 25.52C27.52 24.64 27.06 23.36 27.67 22.24C27.82 21.98 28.05 21.69 28.32 21.45C28.37 21.41 28.42 21.36 28.48 21.32C28.51 21.3 28.53 21.28 28.56 21.26C28.61 21.22 28.65 21.19 28.7 21.16C28.73 21.14 28.76 21.12 28.79 21.1C28.87 21.05 28.95 21 29.03 20.95C29.39 20.74 29.78 20.57 30.2 20.43C30.24 20.41 30.28 20.4 30.32 20.39C30.38 20.37 30.44 20.35 30.5 20.33C30.65 20.29 30.79 20.25 30.94 20.22C31.02 20.2 31.11 20.18 31.2 20.17C31.22 20.16 31.24 20.16 31.26 20.15C31.29 20.15 31.32 20.14 31.35 20.14C31.39 20.13 31.42 20.13 31.45 20.12C31.48 20.12 31.5 20.11 31.52 20.11C31.57 20.1 31.62 20.09 31.67 20.09C31.75 20.08 31.83 20.07 31.91 20.06C31.93 20.05 31.96 20.05 31.98 20.05C32.06 20.04 32.14 20.03 32.21 20.03C32.27 20.02 32.39 20.02 32.44 20.01C32.51 20.01 32.58 20.01 32.64 20C32.67 20 32.69 20 32.71 20C32.77 20 32.82 20 32.88 20C33.03 20 33.17 20 33.32 20C33.43 20.01 33.53 20.01 33.64 20.02C33.67 20.02 33.71 20.03 33.75 20.03C33.78 20.03 33.8 20.03 33.83 20.04C33.86 20.04 33.89 20.04 33.91 20.04C33.95 20.05 33.99 20.05 34.03 20.05C34.69 20.13 35.33 20.27 35.93 20.48C36 20.51 36.05 20.53 36.1 20.55C36.41 20.67 36.68 20.8 36.94 20.95C37.78 21.43 38.29 22.03 38.49 22.66C38.51 22.72 38.54 22.82 38.55 22.89C38.56 22.93 38.57 22.96 38.57 23C38.59 23.13 38.59 23.26 38.58 23.39C38.58 23.43 38.57 23.51 38.56 23.55C38.56 23.57 38.55 23.6 38.55 23.62C38.54 23.65 38.54 23.67 38.53 23.7C38.52 23.74 38.51 23.78 38.5 23.82C38.49 23.84 38.48 23.87 38.48 23.89C38.46 23.94 38.42 24.03 38.4 24.08C38.38 24.12 38.34 24.2 38.32 24.23C38.27 24.33 38.2 24.43 38.13 24.53C38.11 24.55 38.1 24.58 38.08 24.6C38.06 24.62 38.04 24.65 38.02 24.67C37.99 24.71 37.96 24.74 37.92 24.78Z" fill="#1E6D4E" fill-opacity="1.000000" fill-rule="evenodd"/>
		<path d="M36.96 25.52C36.88 25.57 36.79 25.62 36.7 25.67C36.67 25.69 36.63 25.7 36.59 25.72C36.54 25.75 36.49 25.77 36.43 25.8C36.39 25.81 36.36 25.83 36.32 25.85C36.24 25.88 36.17 25.91 36.09 25.94C35.85 26.03 35.6 26.11 35.34 26.18C35.31 26.19 35.28 26.2 35.24 26.21C35.1 26.24 34.95 26.28 34.8 26.3C34.76 26.31 34.71 26.32 34.67 26.33C34.56 26.35 34.46 26.37 34.35 26.38C34.31 26.39 34.28 26.39 34.24 26.4C34.2 26.4 34.15 26.41 34.1 26.41C32.35 26.6 30.42 26.31 29.06 25.52C27.52 24.64 27.06 23.36 27.67 22.24C27.82 21.98 28.05 21.69 28.32 21.45C28.37 21.41 28.42 21.36 28.48 21.32C28.51 21.3 28.53 21.28 28.56 21.26C28.61 21.22 28.65 21.19 28.7 21.16C28.73 21.14 28.76 21.12 28.79 21.1C28.87 21.05 28.95 21 29.03 20.95C29.39 20.74 29.78 20.57 30.2 20.43C30.24 20.41 30.28 20.4 30.32 20.39C30.38 20.37 30.44 20.35 30.5 20.33C30.65 20.29 30.79 20.25 30.94 20.22C31.02 20.2 31.11 20.18 31.2 20.17C31.22 20.16 31.24 20.16 31.26 20.15C31.29 20.15 31.32 20.14 31.35 20.14C31.39 20.13 31.42 20.13 31.45 20.12C31.48 20.12 31.5 20.11 31.52 20.11C31.57 20.1 31.62 20.09 31.67 20.09C31.75 20.08 31.83 20.07 31.91 20.06C31.93 20.05 31.96 20.05 31.98 20.05C32.06 20.04 32.14 20.03 32.21 20.03C32.27 20.02 32.39 20.02 32.44 20.01C32.51 20.01 32.58 20.01 32.64 20C32.67 20 32.69 20 32.71 20C32.77 20 32.82 20 32.88 20C33.03 20 33.17 20 33.32 20C33.43 20.01 33.53 20.01 33.64 20.02C33.67 20.02 33.71 20.03 33.75 20.03C33.78 20.03 33.8 20.03 33.83 20.04C33.86 20.04 33.89 20.04 33.91 20.04C33.95 20.05 33.99 20.05 34.03 20.05C34.69 20.13 35.33 20.27 35.93 20.48C36 20.51 36.05 20.53 36.1 20.55C36.41 20.67 36.68 20.8 36.94 20.95C37.78 21.43 38.29 22.03 38.49 22.66C38.51 22.72 38.54 22.82 38.55 22.89C38.56 22.93 38.57 22.96 38.57 23C38.59 23.13 38.59 23.26 38.58 23.39C38.58 23.43 38.57 23.51 38.56 23.55C38.56 23.57 38.55 23.6 38.55 23.62C38.54 23.65 38.54 23.67 38.53 23.7C38.52 23.74 38.51 23.78 38.5 23.82C38.49 23.84 38.48 23.87 38.48 23.89C38.46 23.94 38.42 24.03 38.4 24.08C38.38 24.12 38.34 24.2 38.32 24.23C38.27 24.33 38.2 24.43 38.13 24.53C38.11 24.55 38.1 24.58 38.08 24.6C38.06 24.62 38.04 24.65 38.02 24.67C37.99 24.71 37.96 24.74 37.92 24.78C37.67 25.05 37.35 25.3 36.96 25.52Z" stroke="#000000" stroke-opacity="0" stroke-width="1.000000"/>
	</g>
</svg>
