<svg width="104.000000" height="104.000000" viewBox="0 0 104 104" fill="none" xmlns="http://www.w3.org/2000/svg" xmlns:xlink="http://www.w3.org/1999/xlink">
	<desc>
			Created with Pixso.
	</desc>
	<defs/>
	<rect id="属性 1=未添加" width="103.999992" height="104.000000" fill="#FFFFFF" fill-opacity="0"/>
	<rect id="矩形 3409" rx="16.000000" width="104.000000" height="104.000000" fill="#FFFFFF" fill-opacity="1.000000"/>
	<rect id="plus" width="24.712870" height="24.712870" transform="translate(39.128662 40.158447)" fill="#FFFFFF" fill-opacity="0"/>
	<path id="󰀵" d="M51.87 43.75L51.87 52.01L60.12 52.01Q60.29 52.01 60.42 52.06Q60.55 52.12 60.65 52.22Q60.74 52.31 60.8 52.42Q60.87 52.57 60.87 52.75Q60.87 52.91 60.81 53.05Q60.75 53.17 60.65 53.28Q60.55 53.37 60.44 53.42Q60.29 53.49 60.12 53.49L51.87 53.49L51.87 61.75Q51.87 61.92 51.8 62.06Q51.75 62.17 51.65 62.27Q51.55 62.37 51.42 62.43Q51.29 62.49 51.12 62.49Q50.96 62.49 50.83 62.43Q50.7 62.37 50.6 62.27Q50.5 62.17 50.44 62.06Q50.38 61.92 50.38 61.75L50.38 53.49L42.12 53.49Q41.95 53.49 41.81 53.42Q41.69 53.37 41.6 53.28Q41.49 53.17 41.44 53.05Q41.38 52.91 41.38 52.75Q41.38 52.57 41.45 52.42Q41.5 52.31 41.6 52.22Q41.7 52.12 41.83 52.06Q41.96 52.01 42.12 52.01L50.38 52.01L50.38 43.75Q50.38 43.57 50.45 43.42Q50.5 43.31 50.6 43.22Q50.7 43.12 50.83 43.06Q50.96 43.01 51.12 43.01Q51.29 43.01 51.42 43.06Q51.55 43.12 51.65 43.22Q51.74 43.31 51.8 43.42Q51.87 43.57 51.87 43.75Z" fill="#000000" fill-opacity="0.600000" fill-rule="evenodd"/>
	<path id="󰀵" d="M51.87 52.01L51.87 43.75Q51.87 43.43 51.65 43.22Q51.43 43.01 51.12 43.01Q50.81 43.01 50.6 43.22Q50.38 43.43 50.38 43.75L50.38 52.01L42.12 52.01Q41.81 52.01 41.6 52.22Q41.38 52.43 41.38 52.75Q41.38 53.06 41.6 53.28Q41.81 53.49 42.12 53.49L50.38 53.49L50.38 61.75Q50.38 62.06 50.6 62.27Q50.81 62.49 51.12 62.49Q51.43 62.49 51.65 62.27Q51.87 62.06 51.87 61.75L51.87 53.49L60.12 53.49Q60.43 53.49 60.65 53.28Q60.87 53.06 60.87 52.75Q60.87 52.43 60.65 52.22Q60.43 52.01 60.12 52.01L51.87 52.01Z" stroke="#666666" stroke-opacity="1.000000" stroke-width="0.250000"/>
</svg>
