<svg width="40.000000" height="40.000000" viewBox="0 0 40 40" fill="none" xmlns="http://www.w3.org/2000/svg" xmlns:xlink="http://www.w3.org/1999/xlink">
	<desc>
			Created with Pixso.
	</desc>
	<defs/>
	<rect id="icon_record" rx="20.000000" width="40.000000" height="40.000000" fill="#000000" fill-opacity="0.047059"/>
	<path id="path" d="M14 9.01C13.16 9.01 12.46 9.3 11.88 9.88C11.29 10.46 11 11.17 11 12.01L11 27.99C11 28.82 11.29 29.53 11.88 30.12C12.46 30.7 13.16 30.99 14 30.99L26 30.99C26.83 30.99 27.54 30.7 28.12 30.12C28.7 29.53 29 28.82 29 27.99L29 12.01C29 11.17 28.7 10.46 28.12 9.88C27.54 9.3 26.83 9.01 26 9.01L14 9.01ZM27.51 27.99C27.51 28.41 27.36 28.76 27.07 29.06C26.77 29.35 26.41 29.5 26 29.5L14 29.5C13.58 29.5 13.23 29.35 12.94 29.06C12.65 28.76 12.51 28.41 12.51 27.99L12.51 12.01C12.51 11.59 12.65 11.23 12.94 10.94C13.23 10.64 13.58 10.5 14 10.5L26 10.5C26.41 10.5 26.77 10.64 27.07 10.94C27.36 11.23 27.51 11.59 27.51 12.01L27.51 27.99ZM15.51 14.26C15.3 14.26 15.12 14.33 14.98 14.48C14.84 14.62 14.77 14.8 14.77 15.01C14.77 15.21 14.84 15.39 14.98 15.54C15.12 15.68 15.3 15.75 15.51 15.75L24.46 15.75C24.67 15.75 24.85 15.68 24.99 15.54C25.13 15.39 25.21 15.21 25.21 15.01C25.21 14.8 25.13 14.62 24.99 14.48C24.85 14.33 24.67 14.26 24.46 14.26L15.51 14.26ZM15.51 19.28C15.3 19.28 15.12 19.35 14.98 19.5C14.84 19.64 14.77 19.81 14.77 20.02C14.77 20.23 14.84 20.41 14.98 20.55C15.12 20.69 15.3 20.77 15.51 20.77L24.46 20.77C24.67 20.77 24.85 20.69 24.99 20.55C25.13 20.41 25.21 20.23 25.21 20.02C25.21 19.81 25.13 19.64 24.99 19.5C24.85 19.35 24.67 19.28 24.46 19.28L15.51 19.28ZM15.51 24.25C15.3 24.25 15.12 24.32 14.98 24.48C14.84 24.62 14.77 24.8 14.77 25.02C14.77 25.22 14.84 25.4 14.98 25.54C15.12 25.68 15.3 25.76 15.51 25.76L19.98 25.76C20.18 25.76 20.36 25.68 20.5 25.54C20.64 25.4 20.72 25.22 20.72 25.02C20.72 24.8 20.65 24.62 20.52 24.48C20.38 24.32 20.2 24.25 20 24.25L15.51 24.25Z" fill="#000000" fill-opacity="0.898039" fill-rule="nonzero"/>
</svg>
