<svg width="48.000000" height="48.000000" viewBox="0 0 48 48" fill="none" xmlns="http://www.w3.org/2000/svg" xmlns:xlink="http://www.w3.org/1999/xlink">
	<desc>
			Created with Pixso.
	</desc>
	<defs>
		<clipPath id="clip192_60890">
			<rect id="svg" width="48.000000" height="48.000000" fill="white" fill-opacity="0"/>
		</clipPath>
	</defs>
	<g clip-path="url(#clip192_60890)">
		<g opacity="0.000000">
			<rect id="rect" width="48.000000" height="48.000000" fill="#000000" fill-opacity="1.000000"/>
		</g>
		<path id="path" d="M33.16 22.32C33.81 22.67 34.13 23.23 34.13 24C34.13 24.8 33.81 25.37 33.16 25.73L20.88 32.78C20.59 32.97 20.27 33.07 19.92 33.07C19.44 33.07 19 32.88 18.6 32.5C18.2 32.11 18 31.64 18 31.1L18 16.94C18 16.4 18.2 15.93 18.6 15.55C19 15.17 19.44 14.98 19.92 14.98C20.27 14.98 20.59 15.07 20.88 15.26L33.16 22.32ZM24 2.02C20 2.02 16.32 3 12.96 4.97C9.6 6.93 6.93 9.6 4.97 12.96C3 16.32 2.02 20 2.02 24C2.02 28 3 31.68 4.97 35.04C6.93 38.4 9.6 41.06 12.96 43.03C16.32 44.99 20 45.98 24 45.98C27.96 45.98 31.64 44.99 35.02 43.03C38.39 41.06 41.06 38.39 43.03 35.02C44.99 31.64 45.98 27.96 45.98 24C45.98 20.03 44.99 16.36 43.03 12.98C41.06 9.6 38.39 6.93 35.02 4.97C31.64 3 27.96 2.02 24 2.02Z" fill="#FFFFFF" fill-opacity="1.000000" fill-rule="nonzero"/>
	</g>
</svg>
