<svg viewBox="0 0 40 40" xmlns="http://www.w3.org/2000/svg" xmlns:xlink="http://www.w3.org/1999/xlink" width="40.000000" height="40.000000" fill="none" customFrame="#000000">
	<defs>
		<clipPath id="clipPath_1">
			<rect width="20.000000" height="20.000000" x="10.000000" y="10.000000" fill="rgb(255,255,255)" />
		</clipPath>
	</defs>
	<g id="组合 4101">
		<rect id="矩形 3400" width="40.000000" height="40.000000" x="0.000000" y="0.000000" rx="8.000000" fill="rgb(255,255,255)" />
		<g id="link" clip-path="url(#clipPath_1)" customFrame="url(#clipPath_1)">
			<rect id="link" width="20.000000" height="20.000000" x="10.000000" y="10.000000" />
			<rect id="rect" width="20.000000" height="20.000000" x="10.000000" y="10.000000" opacity="0" fill="rgb(0,0,0)" />
			<g id="g">
				<path id="path" d="M19.4167 22.8833C19.5 23.2556 19.4722 23.6306 19.3333 24.0083C19.1889 24.3917 18.9722 24.7278 18.6833 25.0167L17.3417 26.3583C17.0083 26.6917 16.6139 26.9195 16.1583 27.0417C15.7083 27.1583 15.2583 27.1583 14.8083 27.0417C14.3639 26.9195 13.975 26.6917 13.6417 26.3583C13.3083 26.025 13.0806 25.6361 12.9583 25.1917C12.8417 24.7417 12.8417 24.2917 12.9583 23.8417C13.0806 23.3861 13.3083 22.9917 13.6417 22.6583L14.9833 21.3167L15.1167 21.2C15.4 20.9445 15.7167 20.7611 16.0667 20.65C16.4222 20.5389 16.7722 20.5167 17.1167 20.5833L18.1583 19.5417C17.4639 19.2861 16.75 19.2361 16.0167 19.3917C15.2833 19.5417 14.6444 19.8833 14.1 20.4167L12.7417 21.7833C12.2472 22.2722 11.9139 22.8472 11.7417 23.5083C11.5694 24.1695 11.5694 24.8333 11.7417 25.5C11.9139 26.1667 12.2472 26.7472 12.7417 27.2417C13.2361 27.7361 13.8167 28.0722 14.4833 28.25C15.15 28.4278 15.8167 28.4278 16.4833 28.25C17.15 28.0722 17.7278 27.7361 18.2167 27.2417L19.5583 25.9C20.1194 25.3389 20.4722 24.7056 20.6167 24C20.7667 23.2945 20.7139 22.575 20.4583 21.8417L19.4167 22.8833ZM27.2417 12.7583C26.7361 12.2528 26.15 11.9139 25.4833 11.7417C24.8167 11.5695 24.1528 11.5722 23.4917 11.75C22.8306 11.9278 22.2611 12.2639 21.7833 12.7583L20.4167 14.1C20.0611 14.4722 19.7861 14.8917 19.5917 15.3583C19.3972 15.825 19.3 16.3195 19.3 16.8417C19.3 17.0695 19.3194 17.2917 19.3583 17.5083C19.3972 17.7306 19.4583 17.9472 19.5417 18.1583L20.5583 17.1417C20.5583 16.6083 20.6028 16.1972 20.6917 15.9083C20.775 15.625 20.9778 15.3222 21.3 15L22.6583 13.6417C22.9806 13.3083 23.3667 13.0833 23.8167 12.9667C24.2722 12.8556 24.7278 12.8556 25.1833 12.9667C25.6333 13.0833 26.025 13.3083 26.3583 13.6417C26.6917 13.975 26.9194 14.3667 27.0417 14.8167C27.1583 15.2722 27.1583 15.7222 27.0417 16.1667C26.9194 16.6167 26.6917 17.0083 26.3583 17.3417L25 18.7C24.7222 18.9778 24.3944 19.1778 24.0167 19.3C23.6444 19.4222 23.2583 19.4611 22.8583 19.4167L21.8417 20.4583C22.5194 20.7139 23.2278 20.7639 23.9667 20.6083C24.7111 20.4583 25.3556 20.1083 25.9 19.5583L27.2417 18.2167C27.7361 17.7278 28.0722 17.15 28.25 16.4833C28.4278 15.8167 28.4278 15.1528 28.25 14.4917C28.0722 13.8306 27.7361 13.2528 27.2417 12.7583ZM23.9833 16.9C24.1667 16.7111 24.2222 16.5083 24.15 16.2917C24.0778 16.0695 23.9306 15.9222 23.7083 15.85C23.4917 15.7778 23.2889 15.8333 23.1 16.0167L16.0167 23.1C15.8333 23.2722 15.7778 23.4695 15.85 23.6917C15.9222 23.9083 16.0694 24.0583 16.2917 24.1417C16.5083 24.2195 16.7111 24.1667 16.9 23.9833L23.9833 16.9Z" fill="rgb(0,0,0)" fill-opacity="0.898039222" fill-rule="nonzero" />
			</g>
		</g>
	</g>
</svg>
