<?xml version="1.0" encoding="UTF-8" standalone="no"?>
<!-- Created with Inkscape (http://www.inkscape.org/) -->

<svg
   version="1.1"
   id="svg1"
   width="115.08264"
   height="101.53733"
   viewBox="0 0 115.08264 101.53733"
   xmlns="http://www.w3.org/2000/svg"
   xmlns:svg="http://www.w3.org/2000/svg">
  <g
     id="g1"
     transform="translate(-505,-333)">
    <path
       d="m 0,0 c -0.39,-0.197 -0.829,-0.31 -1.295,-0.31 -1.078,0 -2.017,0.594 -2.509,1.472 l -0.188,0.413 -7.857,17.24 c -0.085,0.188 -0.138,0.399 -0.138,0.606 0,0.794 0.644,1.438 1.439,1.438 0.323,0 0.62,-0.106 0.861,-0.285 l 9.27,-6.601 C 0.261,13.53 1.07,13.27 1.94,13.27 c 0.52,0 1.015,0.097 1.476,0.265 L 47.017,32.94 c -7.815,9.211 -20.686,15.231 -35.252,15.231 -23.835,0 -43.156,-16.101 -43.156,-35.964 0,-10.837 5.813,-20.592 14.911,-27.184 0.731,-0.522 1.208,-1.377 1.208,-2.343 0,-0.32 -0.068,-0.613 -0.151,-0.917 -0.727,-2.711 -1.89,-7.052 -1.945,-7.255 -0.09,-0.34 -0.232,-0.695 -0.232,-1.052 0,-0.794 0.644,-1.438 1.439,-1.438 0.313,0 0.567,0.116 0.831,0.268 l 9.448,5.454 c 0.71,0.411 1.463,0.665 2.291,0.665 0.442,0 0.868,-0.068 1.269,-0.191 4.408,-1.268 9.163,-1.972 14.087,-1.972 23.834,0 43.156,16.102 43.156,35.965 0,6.016 -1.782,11.682 -4.916,16.665 L 0.315,0.182 Z"
       style="fill:#09bb07;fill-opacity:1;fill-rule:nonzero;stroke:none"
       transform="matrix(1.3333333,0,0,-1.3333333,546.85467,397.228)"/>
  </g>
</svg>
