<svg width="16.000000" height="16.000000" viewBox="0 0 16 16" fill="none" xmlns="http://www.w3.org/2000/svg" xmlns:xlink="http://www.w3.org/1999/xlink">
	<desc>
			Created with Pixso.
	</desc>
	<defs>
		<clipPath id="clip65_5156">
			<rect width="16.000000" height="16.000000" fill="white" fill-opacity="0"/>
		</clipPath>
	</defs>
	<g clip-path="url(#clip65_5156)">
		<g opacity="0.000000">
			<rect width="16.000000" height="16.000000" fill="#000000" fill-opacity="1.000000"/>
		</g>
		<path d="M14 7.5C14.13 7.5 14.25 7.55 14.35 7.64C14.44 7.74 14.49 7.86 14.49 8C14.49 8.13 14.44 8.25 14.35 8.35C14.25 8.44 14.13 8.49 14 8.49L8.49 8.49L8.49 14C8.49 14.13 8.44 14.25 8.35 14.35C8.25 14.44 8.13 14.49 8 14.49C7.86 14.49 7.74 14.44 7.64 14.35C7.55 14.25 7.5 14.13 7.5 14L7.5 8.49L2 8.49C1.86 8.49 1.74 8.44 1.64 8.35C1.55 8.25 1.5 8.13 1.5 8C1.5 7.86 1.55 7.74 1.64 7.64C1.74 7.55 1.86 7.5 2 7.5L7.5 7.5L7.5 2C7.5 1.86 7.55 1.74 7.64 1.64C7.74 1.55 7.86 1.5 8 1.5C8.13 1.5 8.25 1.55 8.35 1.64C8.44 1.74 8.49 1.86 8.49 2L8.49 7.5L14 7.5Z" fill="#191919" fill-opacity="1.000000" fill-rule="nonzero"/>
	</g>
</svg>
