<svg width="40.000000" height="40.000000" viewBox="0 0 40 40" fill="none" xmlns="http://www.w3.org/2000/svg" xmlns:xlink="http://www.w3.org/1999/xlink">
	<desc>
			Created with Pixso.
	</desc>
	<defs>
		<clipPath id="clip48_3065">
			<rect width="40.000000" height="40.000000" fill="white" fill-opacity="0"/>
		</clipPath>
	</defs>
	<g clip-path="url(#clip48_3065)">
		<path d="M20 0C8.97 0 0 8.97 0 20C0 31.02 8.97 40 20 40C31.02 40 40 31.02 40 20C40 8.97 31.02 0 20 0Z" fill="#000000" fill-opacity="0.098039" fill-rule="nonzero"/>
		<path d="M29 19.26C29.2 19.26 29.38 19.33 29.53 19.46C29.67 19.61 29.74 19.79 29.74 20C29.74 20.2 29.67 20.38 29.53 20.53C29.38 20.67 29.2 20.74 29 20.74L20.74 20.74L20.74 29C20.74 29.2 20.67 29.38 20.53 29.53C20.38 29.67 20.2 29.74 20 29.74C19.79 29.74 19.61 29.67 19.46 29.53C19.33 29.38 19.26 29.2 19.26 29L19.26 20.74L11 20.74C10.79 20.74 10.61 20.67 10.47 20.53C10.33 20.38 10.26 20.2 10.26 20C10.26 19.79 10.33 19.61 10.47 19.46C10.61 19.33 10.79 19.26 11 19.26L19.26 19.26L19.26 11C19.26 10.79 19.33 10.61 19.46 10.47C19.61 10.33 19.79 10.26 20 10.26C20.2 10.26 20.38 10.33 20.53 10.47C20.67 10.61 20.74 10.79 20.74 11L20.74 19.26L29 19.26Z" fill="#FFFFFF" fill-opacity="1.000000" fill-rule="nonzero"/>
	</g>
</svg>
