<svg width="16.000000" height="16.000000" viewBox="0 0 16 16" fill="none" xmlns="http://www.w3.org/2000/svg" xmlns:xlink="http://www.w3.org/1999/xlink">
	<desc>
			Created with Pixso.
	</desc>
	<defs>
		<clipPath id="clip168_9963">
			<rect width="16.000000" height="16.000000" transform="matrix(1 0 0 -1 0 16)" fill="white" fill-opacity="0"/>
		</clipPath>
	</defs>
	<g clip-path="url(#clip168_9963)">
		<path d="M11 6.83L5 6.83C4.94 6.83 4.89 6.82 4.85 6.81C4.8 6.79 4.75 6.77 4.71 6.74C4.6 6.66 4.53 6.55 4.5 6.42C4.48 6.28 4.51 6.16 4.58 6.04L7.58 1.71C7.6 1.69 7.62 1.66 7.64 1.64C7.66 1.62 7.69 1.6 7.71 1.58C7.82 1.51 7.95 1.48 8.08 1.5C8.22 1.53 8.33 1.6 8.41 1.71L11.41 6.04C11.44 6.09 11.46 6.13 11.47 6.18C11.49 6.23 11.5 6.28 11.5 6.33C11.5 6.47 11.45 6.58 11.35 6.68C11.25 6.78 11.13 6.83 11 6.83Z" fill="#000000" fill-opacity="0.898039" fill-rule="evenodd"/>
		<path d="M4.71 9.25C4.8 9.19 4.89 9.16 4.99 9.16L10.99 9.16C11.16 9.16 11.29 9.2 11.37 9.29C11.45 9.37 11.49 9.5 11.49 9.66C11.49 9.71 11.49 9.76 11.47 9.81C11.46 9.86 11.44 9.9 11.41 9.95L8.41 14.28C8.22 14.55 7.98 14.6 7.71 14.41C7.69 14.39 7.66 14.37 7.64 14.35C7.62 14.33 7.6 14.3 7.58 14.28L4.58 9.95C4.49 9.81 4.45 9.68 4.47 9.57C4.49 9.45 4.57 9.35 4.71 9.25Z" fill="#000000" fill-opacity="0.400000" fill-rule="evenodd"/>
	</g>
</svg>
