<svg width="68.000000" height="68.000000" viewBox="0 0 68 68" fill="none" xmlns="http://www.w3.org/2000/svg" xmlns:xlink="http://www.w3.org/1999/xlink">
	<desc>
			Created with Pixso.
	</desc>
	<defs>
		<filter id="filter_33_2929_dd" x="0.000000" y="0.000000" width="68.000000" height="68.000000" filterUnits="userSpaceOnUse" color-interpolation-filters="sRGB">
			<feFlood flood-opacity="0" result="BackgroundImageFix"/>
			<feColorMatrix in="SourceAlpha" type="matrix" values="0 0 0 0 0 0 0 0 0 0 0 0 0 0 0 0 0 0 127 0" result="hardAlpha"/>
			<feMorphology radius="2" in="" result="BackgroundImageFix"/>
			<feOffset dx="0" dy="2"/>
			<feGaussianBlur stdDeviation="2.66667"/>
			<feComposite in2="hardAlpha" operator="out" k2="-1" k3="1"/>
			<feColorMatrix type="matrix" values="0 0 0 0 0 0 0 0 0 0 0 0 0 0 0 0 0 0 0.078 0"/>
			<feBlend mode="normal" in2="BackgroundImageFix" result="effect_dropShadow_1"/>
			<feBlend mode="normal" in="SourceGraphic" in2="effect_dropShadow_1" result="shape"/>
		</filter>
		<clipPath id="clip33_2929">
			<rect rx="24.000000" width="48.000000" height="48.000000" transform="translate(10.000000 8.000000)" fill="white" fill-opacity="0"/>
		</clipPath>
	</defs>
	<g filter="url(#filter_33_2929_dd)">
		<rect rx="24.000000" width="48.000000" height="48.000000" transform="translate(10.000000 8.000000)" fill="#94B982" fill-opacity="1.000000"/>
		<g clip-path="url(#clip33_2929)">
			<g opacity="0.000000">
				<rect x="22.000000" y="20.000000" width="24.000000" height="24.000000" fill="#000000" fill-opacity="1.000000"/>
			</g>
			<path d="M23.96 40C23.96 40.84 24.25 41.56 24.84 42.14C25.42 42.72 26.13 43.01 26.96 43.01L38.95 43.01C39.77 43.01 40.48 42.72 41.06 42.14C41.65 41.56 41.95 40.84 41.95 40L41.95 34.92L40.45 36.41L40.45 40C40.45 40.43 40.3 40.78 40.01 41.07C39.71 41.36 39.35 41.51 38.95 41.51L26.96 41.51C26.55 41.51 26.2 41.36 25.89 41.07C25.59 40.78 25.45 40.43 25.45 40L25.45 24C25.45 23.59 25.59 23.24 25.89 22.94C26.2 22.64 26.55 22.49 26.96 22.49L38.95 22.49C39.35 22.49 39.71 22.64 40.01 22.94C40.3 23.24 40.45 23.59 40.45 24L40.45 30.05L41.95 28.56L41.95 24C41.95 23.17 41.65 22.47 41.06 21.89C40.48 21.3 39.77 21 38.95 21L26.96 21C26.13 21 25.42 21.3 24.84 21.89C24.25 22.47 23.96 23.17 23.96 24L23.96 40ZM37.43 27.95C37.64 27.95 37.81 27.87 37.96 27.72C38.09 27.58 38.16 27.41 38.16 27.2C38.16 26.99 38.09 26.81 37.96 26.67C37.81 26.52 37.64 26.45 37.43 26.45L28.47 26.45C28.26 26.45 28.09 26.52 27.95 26.67C27.8 26.81 27.72 26.99 27.72 27.2C27.72 27.41 27.8 27.58 27.95 27.72C28.09 27.87 28.26 27.95 28.47 27.95L37.43 27.95ZM37.43 32.12C37.64 32.12 37.81 32.04 37.96 31.89C38.09 31.74 38.16 31.56 38.16 31.35C38.16 31.14 38.09 30.97 37.96 30.83C37.81 30.68 37.64 30.6 37.43 30.6L28.47 30.6C28.26 30.6 28.09 30.68 27.95 30.83C27.8 30.97 27.72 31.14 27.72 31.35C27.72 31.56 27.8 31.74 27.95 31.89C28.09 32.04 28.26 32.12 28.47 32.12L37.43 32.12ZM34.02 39.23C34.02 39.34 34.01 39.56 34.11 39.63C34.21 39.69 34.32 39.69 34.43 39.63L36.23 38.63C36.36 38.56 36.53 38.44 36.75 38.28L35.39 36.91L35.03 37.44L34.02 39.23ZM44.55 29.16C44.33 28.94 44.08 28.83 43.79 28.83C43.5 28.83 43.24 28.94 43.02 29.16L36.12 36L35.84 36.32L37.35 37.8C37.38 37.77 37.43 37.73 37.5 37.66L44.55 30.68C44.76 30.47 44.87 30.21 44.87 29.91C44.87 29.6 44.76 29.35 44.55 29.16ZM28.47 34.75C28.26 34.75 28.09 34.83 27.95 34.98C27.8 35.13 27.72 35.31 27.72 35.52C27.72 35.73 27.8 35.91 27.95 36.05C28.09 36.2 28.26 36.27 28.47 36.27L34.23 36.27L35.67 34.75L28.47 34.75Z" fill="#FFFFFF" fill-opacity="1.000000" fill-rule="nonzero"/>
		</g>
	</g>
</svg>
