<svg width="16.000000" height="16.000000" viewBox="0 0 16 16" fill="none" xmlns="http://www.w3.org/2000/svg" xmlns:xlink="http://www.w3.org/1999/xlink">
	<desc>
			Created with Pixso.
	</desc>
	<defs>
		<clipPath id="clip24_1995">
			<rect width="16.000000" height="16.000000" fill="white" fill-opacity="0"/>
		</clipPath>
	</defs>
	<g clip-path="url(#clip24_1995)">
		<g opacity="0.000000">
			<rect width="16.000000" height="16.000000" fill="#000000" fill-opacity="1.000000"/>
		</g>
		<path d="M11.33 1.94L11.33 1.7C11.33 1.51 11.26 1.35 11.14 1.22C11 1.1 10.85 1.03 10.67 1.03C10.49 1.03 10.33 1.1 10.2 1.22C10.06 1.35 9.99 1.51 9.99 1.7L9.99 1.94L6.01 1.94L6.01 1.7C6.01 1.51 5.95 1.35 5.81 1.22C5.68 1.1 5.52 1.03 5.33 1.03C5.15 1.03 5 1.1 4.86 1.22C4.73 1.35 4.66 1.51 4.66 1.7L4.66 1.94L3.32 1.94C2.96 1.94 2.62 2.03 2.32 2.21C2.02 2.4 1.77 2.65 1.59 2.95C1.41 3.26 1.32 3.59 1.32 3.94L1.32 12.96C1.32 13.51 1.52 13.98 1.9 14.38C2.3 14.76 2.77 14.96 3.32 14.96L12.67 14.96C13.22 14.96 13.69 14.76 14.09 14.38C14.47 13.98 14.67 13.51 14.67 12.96L14.67 3.94C14.67 3.39 14.47 2.92 14.09 2.53C13.69 2.14 13.22 1.94 12.67 1.94L11.33 1.94ZM4.66 2.95L4.66 3.08C4.66 3.28 4.73 3.44 4.86 3.56C5 3.69 5.15 3.75 5.33 3.75C5.52 3.75 5.68 3.69 5.81 3.56C5.95 3.44 6.01 3.28 6.01 3.08L6.01 2.95L9.99 2.95L9.99 3.08C9.99 3.28 10.06 3.44 10.18 3.56C10.31 3.69 10.47 3.75 10.66 3.75C10.84 3.75 10.99 3.69 11.13 3.56C11.26 3.44 11.33 3.28 11.33 3.08L11.33 2.95L12.66 2.95C12.93 2.95 13.17 3.05 13.37 3.24C13.56 3.44 13.66 3.67 13.66 3.94L13.66 5.41L2.33 5.41L2.33 3.94C2.33 3.67 2.43 3.44 2.61 3.24C2.81 3.05 3.04 2.95 3.32 2.95L4.66 2.95ZM3.32 13.97C3.04 13.97 2.81 13.87 2.61 13.67C2.43 13.47 2.33 13.24 2.33 12.96L2.33 6.42L13.66 6.42L13.66 12.96C13.66 13.24 13.56 13.47 13.38 13.67C13.18 13.87 12.95 13.97 12.67 13.97L3.32 13.97ZM3.96 8.63C3.82 8.63 3.71 8.68 3.61 8.77C3.51 8.87 3.46 8.99 3.46 9.13C3.46 9.27 3.51 9.39 3.61 9.49C3.71 9.59 3.82 9.64 3.96 9.64L5.17 9.64C5.31 9.64 5.43 9.59 5.53 9.49C5.63 9.39 5.67 9.27 5.67 9.13C5.67 8.99 5.63 8.87 5.53 8.77C5.43 8.68 5.31 8.63 5.17 8.63L3.96 8.63ZM10.8 8.63C10.67 8.63 10.56 8.68 10.46 8.77C10.36 8.87 10.32 8.99 10.32 9.13C10.32 9.27 10.36 9.39 10.46 9.49C10.56 9.59 10.67 9.64 10.8 9.64L12.03 9.64C12.17 9.64 12.28 9.59 12.38 9.49C12.48 9.39 12.53 9.27 12.53 9.13C12.53 8.99 12.48 8.87 12.38 8.77C12.28 8.68 12.17 8.63 12.03 8.63L10.8 8.63ZM7.38 8.63C7.24 8.63 7.13 8.68 7.03 8.77C6.94 8.87 6.89 8.99 6.89 9.13C6.89 9.27 6.94 9.39 7.03 9.49C7.13 9.59 7.24 9.64 7.38 9.64L8.6 9.64C8.74 9.64 8.86 9.59 8.96 9.49C9.06 9.39 9.11 9.27 9.11 9.13C9.11 8.99 9.06 8.87 8.96 8.77C8.86 8.68 8.74 8.63 8.6 8.63L7.38 8.63ZM3.96 10.74C3.82 10.74 3.71 10.79 3.61 10.89C3.51 10.99 3.46 11.11 3.46 11.25C3.46 11.39 3.51 11.5 3.61 11.6C3.71 11.69 3.82 11.74 3.96 11.74L5.17 11.74C5.31 11.74 5.43 11.69 5.53 11.6C5.63 11.5 5.67 11.39 5.67 11.25C5.67 11.11 5.63 10.99 5.53 10.89C5.43 10.79 5.31 10.74 5.17 10.74L3.96 10.74ZM10.8 10.74C10.67 10.74 10.56 10.79 10.46 10.89C10.36 10.99 10.32 11.11 10.32 11.25C10.32 11.39 10.36 11.5 10.46 11.6C10.56 11.69 10.67 11.74 10.8 11.74L12.03 11.74C12.17 11.74 12.28 11.69 12.38 11.6C12.48 11.5 12.53 11.39 12.53 11.25C12.53 11.11 12.48 10.99 12.38 10.89C12.28 10.79 12.17 10.74 12.03 10.74L10.8 10.74ZM7.38 10.74C7.24 10.74 7.13 10.79 7.03 10.89C6.94 10.99 6.89 11.11 6.89 11.25C6.89 11.39 6.94 11.5 7.03 11.6C7.13 11.69 7.24 11.74 7.38 11.74L8.6 11.74C8.74 11.74 8.86 11.69 8.96 11.6C9.06 11.5 9.11 11.39 9.11 11.25C9.11 11.11 9.06 10.99 8.96 10.89C8.86 10.79 8.74 10.74 8.6 10.74L7.38 10.74Z" fill="#191919" fill-opacity="1.000000" fill-rule="nonzero"/>
	</g>
</svg>
