<svg width="16.000000" height="16.000000" viewBox="0 0 16 16" fill="none" xmlns="http://www.w3.org/2000/svg" xmlns:xlink="http://www.w3.org/1999/xlink">
	<desc>
			Created with Pixso.
	</desc>
	<defs>
		<clipPath id="clip65_4551">
			<rect width="16.000000" height="16.000000" fill="white" fill-opacity="0"/>
		</clipPath>
	</defs>
	<g clip-path="url(#clip65_4551)">
		<g opacity="0.000000">
			<rect width="16.000000" height="16.000000" fill="#000000" fill-opacity="1.000000"/>
		</g>
		<path d="M6.06 4.03C6.2 4.03 6.32 3.98 6.41 3.88C6.51 3.79 6.56 3.67 6.56 3.53C6.56 3.12 6.7 2.77 7 2.47C7.29 2.18 7.64 2.03 8.06 2.03C8.47 2.03 8.83 2.18 9.12 2.47C9.41 2.77 9.56 3.12 9.56 3.53C9.56 3.67 9.61 3.79 9.71 3.88C9.8 3.98 9.92 4.03 10.06 4.03L13.69 4.03C13.83 4.03 13.95 3.98 14.04 3.88C14.14 3.79 14.19 3.67 14.19 3.53C14.19 3.39 14.14 3.27 14.04 3.18C13.95 3.08 13.83 3.03 13.69 3.03L10.51 3.03C10.39 2.46 10.1 1.98 9.64 1.6C9.18 1.22 8.65 1.03 8.04 1.03C7.45 1.03 6.92 1.22 6.46 1.6C6 1.98 5.71 2.46 5.59 3.03L2.28 3.03C2.14 3.03 2.03 3.08 1.93 3.18C1.84 3.27 1.79 3.39 1.79 3.53C1.79 3.67 1.84 3.79 1.93 3.88C2.03 3.98 2.14 4.03 2.28 4.03L6.06 4.03ZM9.16 11.92C9.3 11.92 9.42 11.87 9.52 11.78C9.61 11.69 9.67 11.57 9.67 11.44L9.84 6.76C9.84 6.62 9.8 6.5 9.7 6.4C9.6 6.3 9.48 6.24 9.34 6.23C9.2 6.23 9.08 6.28 8.99 6.37C8.89 6.46 8.84 6.58 8.84 6.71L8.67 11.39C8.65 11.53 8.7 11.65 8.8 11.75C8.9 11.85 9.02 11.91 9.16 11.92ZM6.84 11.92C6.98 11.91 7.1 11.85 7.2 11.75C7.3 11.65 7.35 11.53 7.34 11.39L7.15 6.71C7.15 6.58 7.1 6.46 7 6.37C6.91 6.28 6.79 6.23 6.64 6.23C6.5 6.24 6.38 6.3 6.28 6.4C6.19 6.5 6.15 6.62 6.15 6.76L6.33 11.44C6.34 11.56 6.4 11.68 6.49 11.77C6.59 11.87 6.7 11.92 6.84 11.92ZM10.64 14.96C11.12 14.96 11.53 14.8 11.87 14.48C12.21 14.16 12.41 13.76 12.46 13.28L13.12 5.63C13.12 5.49 13.09 5.37 13 5.27C12.92 5.17 12.81 5.1 12.67 5.08C12.53 5.07 12.41 5.11 12.31 5.2C12.21 5.29 12.14 5.41 12.12 5.55L11.47 13.2C11.45 13.41 11.36 13.59 11.2 13.73C11.04 13.88 10.85 13.95 10.64 13.95L5.35 13.95C5.13 13.95 4.94 13.88 4.79 13.73C4.63 13.59 4.54 13.41 4.52 13.2L3.85 5.55C3.84 5.41 3.78 5.29 3.67 5.2C3.57 5.11 3.45 5.07 3.31 5.08C3.17 5.1 3.06 5.17 2.97 5.27C2.88 5.37 2.85 5.49 2.86 5.63L3.53 13.28C3.57 13.76 3.77 14.16 4.12 14.48C4.46 14.8 4.88 14.96 5.35 14.96L10.64 14.96Z" fill="#E84026" fill-opacity="1.000000" fill-rule="nonzero"/>
	</g>
</svg>
