<svg width="16.000000" height="16.000000" viewBox="0 0 16 16" fill="none" xmlns="http://www.w3.org/2000/svg" xmlns:xlink="http://www.w3.org/1999/xlink">
	<desc>
			Created with Pixso.
	</desc>
	<defs>
		<clipPath id="clip168_9958">
			<rect width="16.000000" height="16.000000" fill="white" fill-opacity="0"/>
		</clipPath>
	</defs>
	<g clip-path="url(#clip168_9958)">
		<path d="M11 9.16L5 9.16C4.94 9.16 4.89 9.17 4.85 9.18C4.8 9.2 4.75 9.22 4.71 9.25C4.6 9.33 4.53 9.44 4.5 9.57C4.48 9.71 4.51 9.83 4.58 9.95L7.58 14.28C7.6 14.3 7.62 14.33 7.64 14.35C7.66 14.37 7.69 14.39 7.71 14.41C7.82 14.48 7.95 14.51 8.08 14.49C8.22 14.46 8.33 14.39 8.41 14.28L11.41 9.95C11.44 9.9 11.46 9.86 11.47 9.81C11.49 9.76 11.5 9.71 11.5 9.66C11.5 9.52 11.45 9.41 11.35 9.31C11.25 9.21 11.13 9.16 11 9.16Z" fill="#000000" fill-opacity="0.898039" fill-rule="evenodd"/>
		<path d="M4.71 6.74C4.8 6.8 4.89 6.83 5 6.83L11 6.83C11.16 6.83 11.29 6.79 11.37 6.7C11.45 6.62 11.5 6.49 11.5 6.33C11.5 6.28 11.49 6.23 11.47 6.18C11.46 6.13 11.44 6.09 11.41 6.04L8.41 1.71C8.22 1.44 7.98 1.39 7.71 1.58C7.69 1.6 7.66 1.62 7.64 1.64C7.62 1.66 7.6 1.69 7.58 1.71L4.58 6.04C4.49 6.18 4.45 6.31 4.47 6.42C4.49 6.54 4.57 6.64 4.71 6.74Z" fill="#000000" fill-opacity="0.400000" fill-rule="evenodd"/>
	</g>
</svg>
