<svg width="40.000000" height="40.000000" viewBox="0 0 40 40" fill="none" xmlns="http://www.w3.org/2000/svg" xmlns:xlink="http://www.w3.org/1999/xlink">
	<desc>
			Created with Pixso.
	</desc>
	<defs>
		<clipPath id="clip24_1908">
			<rect width="40.000000" height="40.000000" fill="white" fill-opacity="0"/>
		</clipPath>
	</defs>
	<g clip-path="url(#clip24_1908)">
		<path d="M20 0C8.97 0 0 8.97 0 20C0 31.02 8.97 40 20 40C31.02 40 40 31.02 40 20C40 8.97 31.02 0 20 0Z" fill="#94B982" fill-opacity="1.000000" fill-rule="nonzero"/>
		<path d="M30.07 16.49L30.07 20L30.07 20.5L29.5 20.5L28.73 20.5L28.73 20L28.73 17.03C24.07 18.98 22.52 19.66 21.48 20.1C20.43 20.54 19.68 20.54 18.65 20.17C17.62 19.81 12.77 17.88 10.25 16.78C8.62 16.05 8.52 15.59 10.28 14.96C12.58 14.14 16.38 12.19 18.4 11.47C19.6 11.02 20.23 10.77 21.32 11.28C23.28 12.04 27.75 14.26 29.97 15.12C31.91 15.91 30.6 16.17 30.07 16.49ZM21.7 21.41C22.84 20.97 24.37 20.04 26.04 19.37L26.04 26.65C26.04 26.65 23.88 28.81 20.08 28.81C15.99 28.81 13.78 26.65 13.78 26.65L13.78 19.73C15.07 20.22 16.52 20.85 18.27 21.41C19.35 21.77 20.72 21.9 21.7 21.41Z" fill="#FFFFFF" fill-opacity="1.000000" fill-rule="nonzero"/>
	</g>
</svg>
