<svg width="40.000000" height="40.000000" viewBox="0 0 40 40" fill="none" xmlns="http://www.w3.org/2000/svg" xmlns:xlink="http://www.w3.org/1999/xlink">
	<desc>
			Created with Pixso.
	</desc>
	<defs>
		<clipPath id="clip24_1944">
			<rect width="40.000000" height="40.000000" fill="white" fill-opacity="0"/>
		</clipPath>
	</defs>
	<g clip-path="url(#clip24_1944)">
		<path d="M20 0C8.97 0 0 8.97 0 20C0 31.02 8.97 40 20 40C31.02 40 40 31.02 40 20C40 8.97 31.02 0 20 0Z" fill="#94B982" fill-opacity="1.000000" fill-rule="nonzero"/>
		<path d="M28.53 11.72C28.34 11.72 28.16 11.73 27.98 11.73C23.2 11.73 21.09 9.54 21.08 9.52L20.6 9L20.12 9.52C20.08 9.56 17.86 11.89 12.67 11.72L12 11.69L12 21.62C12 23.11 12.28 24.98 13.94 26.87L14.03 26.97C15.27 28.34 17.24 29.7 20.36 30.91L20.6 31L20.83 30.91C28.33 28 29.2 24.22 29.2 21.62L29.2 11.69L28.53 11.72ZM17.73 17.86C18.02 17.19 18.3 16.41 18.56 15.5L17.43 15.19C17.22 15.99 16.9 16.85 16.47 17.77C16.04 18.69 15.62 19.43 15.22 19.99L15.74 21.2C16.04 20.83 16.33 20.41 16.62 19.95L16.62 25.25L17.73 25.25L17.73 17.86ZM24.14 22.54C23.71 22.18 23.33 21.77 22.98 21.32L25.34 21.32L25.34 20.25L22.42 20.25L22.42 19.33L24.75 19.33L24.75 15.6L18.98 15.6L18.98 19.33L21.31 19.33L21.31 20.25L18.39 20.25L18.39 21.32L20.69 21.32C20.31 21.81 19.9 22.24 19.47 22.61C19.04 22.99 18.54 23.36 17.96 23.71L18.58 24.7C19.5 24.07 20.28 23.34 20.94 22.51C21.07 22.35 21.19 22.19 21.31 22.02L21.31 25.22L22.42 25.22L22.42 22.08C22.76 22.56 23.14 23 23.55 23.41C23.95 23.82 24.44 24.24 25 24.68L25.64 23.61C25.07 23.27 24.57 22.91 24.14 22.54ZM20.14 16.73L23.59 16.73L23.59 18.23L20.14 18.23L20.14 16.73Z" fill="#FFFFFF" fill-opacity="1.000000" fill-rule="evenodd"/>
	</g>
</svg>
