<svg width="40.000000" height="40.000000" viewBox="0 0 40 40" fill="none" xmlns="http://www.w3.org/2000/svg" xmlns:xlink="http://www.w3.org/1999/xlink">
	<desc>
			Created with Pixso.
	</desc>
	<defs>
		<clipPath id="clip24_1954">
			<rect width="40.000000" height="40.000000" fill="white" fill-opacity="0"/>
		</clipPath>
	</defs>
	<g clip-path="url(#clip24_1954)">
		<path d="M20 0C8.97 0 0 8.97 0 20C0 31.02 8.97 40 20 40C31.02 40 40 31.02 40 20C40 8.97 31.02 0 20 0Z" fill="#94B982" fill-opacity="1.000000" fill-rule="nonzero"/>
		<path d="M15.98 14.02C16.13 14.22 16.3 14.41 16.48 14.59L16.42 14.53C16.45 14.56 16.49 14.59 16.52 14.62L16.48 14.59C16.88 14.95 17.39 15.23 18.16 15.27C18.48 15.29 18.83 15.27 19.24 15.19C19.28 15.18 19.33 15.17 19.37 15.16L19.51 15.12C20.04 14.99 20.66 14.93 21.18 16.38C21.31 16.75 21.46 17.17 21.63 17.6L21.69 17.73L21.63 17.6C21.72 17.81 21.81 18.02 21.91 18.24L22.01 18.45C22.66 19.75 23.64 20.99 25.35 21.35C25.64 21.37 25.92 21.36 26.21 21.31L26.16 21.32C26.65 21.25 27.14 21.13 27.61 20.96C28.08 20.8 28.53 20.58 28.96 20.32C29.02 20.28 29.09 20.25 29.16 20.24C29.23 20.22 29.31 20.21 29.38 20.22C29.46 20.23 29.53 20.25 29.59 20.28C29.66 20.31 29.72 20.35 29.78 20.41L29.79 20.42C29.82 20.45 29.85 20.48 29.87 20.51C29.89 20.55 29.92 20.59 29.93 20.63C29.95 20.66 29.96 20.7 29.98 20.75C29.99 20.79 29.99 20.83 29.99 20.87C30 20.91 30 20.96 29.99 21C29.98 21.04 29.98 21.08 29.96 21.12C29.95 21.16 29.93 21.2 29.91 21.24C29.89 21.28 29.87 21.31 29.84 21.35C29.45 21.84 28.74 22.44 27.86 22.97C26.46 23.82 26.36 24.31 26.96 25.97C27.56 27.63 28.78 28.84 28.03 29.49C27.29 30.14 26.1 29.68 24.44 26.14C24.41 26.09 24.39 26.03 24.36 25.97L24.36 26.12L24.36 26.16C24.35 26.4 24.36 26.66 24.37 26.91L24.4 27.3C24.48 28.65 24.6 29.94 23.83 30.09C22.8 30.29 21.74 29.03 21.71 25.22C21.68 24.51 21.8 23.36 21.85 22.92L21.86 22.8L21.87 22.75C21.85 22.73 21.83 22.71 21.81 22.68L21.75 22.61C21.59 22.4 21.44 22.19 21.29 21.98C21.12 21.74 20.96 21.5 20.8 21.25L20.74 21.16C20.59 20.9 20.44 20.64 20.3 20.38C20.24 20.27 20.18 20.16 20.13 20.04L20.09 19.95C19.98 19.73 19.89 19.5 19.81 19.26C19.76 19.08 19.71 18.9 19.68 18.72L19.73 18.95C19.72 18.93 19.72 18.91 19.71 18.89L19.69 18.76L19.68 18.72C19.35 19.66 18.57 24.5 18.38 28.74L18.36 29.06C18.36 29.15 18.35 29.23 18.34 29.32L18.32 29.39C18.32 29.42 18.31 29.44 18.31 29.47L18.29 29.54C18.27 29.61 18.24 29.68 18.21 29.75L18.27 29.6C18.26 29.64 18.24 29.67 18.23 29.7L18.21 29.75C18.18 29.84 18.14 29.92 18.09 30.01C18.04 30.09 17.99 30.16 17.93 30.24C17.88 30.31 17.82 30.38 17.75 30.44C17.68 30.51 17.61 30.57 17.53 30.62C17.46 30.68 17.38 30.73 17.3 30.77C17.21 30.81 17.13 30.85 17.04 30.88C16.95 30.91 16.86 30.94 16.77 30.96C16.68 30.97 16.59 30.98 16.49 30.99L16.45 30.99C16.36 31 16.27 31 16.18 30.99C16.09 30.98 16.01 30.97 15.92 30.95C15.83 30.93 15.75 30.9 15.66 30.87C15.58 30.84 15.5 30.8 15.42 30.76C15.35 30.71 15.27 30.67 15.2 30.61C15.13 30.56 15.06 30.5 15 30.44C14.93 30.38 14.87 30.31 14.82 30.24C14.77 30.17 14.72 30.1 14.67 30.02L14.64 29.96C14.62 29.93 14.61 29.9 14.59 29.87L14.56 29.81C14.55 29.78 14.54 29.75 14.53 29.72L14.51 29.65C14.48 29.58 14.46 29.49 14.44 29.41C13.9 26.78 13.5 20.93 13.96 18.33L13.96 18.31L13.96 18.33L13.99 18.17L14 18.08C14.04 17.92 14.08 17.76 14.14 17.6L14.08 17.77C14.1 17.71 14.12 17.65 14.14 17.6L14.13 17.6L14.07 17.76C14 17.92 13.94 18.08 13.88 18.24C13.75 18.58 13.62 18.92 13.5 19.26L13.4 19.56C13.28 19.89 13.17 20.22 13.06 20.54L12.94 20.89L12.72 21.5L12.62 21.77C12.55 21.97 12.49 22.15 12.43 22.29C12.41 22.35 12.38 22.4 12.35 22.44C12.31 22.48 12.27 22.52 12.23 22.56C12.18 22.59 12.13 22.61 12.08 22.63C12.03 22.65 11.97 22.66 11.91 22.66L11.85 22.66C11.51 22.66 11.15 22.43 11.09 22.04C10.88 20.61 10.78 17.62 13.63 14.08L13.78 13.89L13.93 13.72C13.94 13.7 13.96 13.68 13.98 13.66L13.93 13.72C14.43 13.07 15.4 13.25 15.98 14.02ZM24.93 16.25C25.61 15.85 26.45 15.85 27.13 16.25C27.81 16.65 28.23 17.39 28.23 18.19C28.23 19.43 27.24 20.43 26.03 20.43C24.82 20.43 23.83 19.43 23.83 18.19C23.83 17.39 24.25 16.65 24.93 16.25ZM18.49 9C18.78 9 19.07 9.05 19.35 9.14C19.43 9.17 19.51 9.21 19.59 9.25C19.66 9.28 19.72 9.31 19.79 9.35L19.7 9.3L19.75 9.33L19.79 9.35L19.86 9.4L19.9 9.42C19.94 9.44 19.97 9.47 20.01 9.49L20.05 9.53C20.09 9.56 20.13 9.59 20.16 9.62L20.18 9.64C20.76 10.13 21.1 10.87 21.1 11.66C21.1 11.77 21.09 11.89 21.07 12C21.06 12.11 21.04 12.23 21.01 12.34C20.98 12.45 20.94 12.56 20.9 12.67C20.86 12.78 20.81 12.88 20.75 12.98C20.69 13.08 20.63 13.18 20.56 13.27C20.49 13.36 20.41 13.45 20.33 13.53C20.25 13.61 20.17 13.69 20.08 13.76C19.98 13.83 19.89 13.9 19.79 13.96C19.59 14.07 19.38 14.16 19.16 14.22C18.94 14.28 18.71 14.31 18.49 14.32L18.61 14.31L18.52 14.31L18.49 14.32C18.33 14.31 18.17 14.3 18.02 14.27C17.73 14.22 17.45 14.12 17.19 13.97L17.18 13.96C16.87 13.78 16.61 13.54 16.4 13.25L16.36 13.2C16.34 13.17 16.31 13.13 16.29 13.09L16.27 13.06C16.14 12.85 16.05 12.64 15.98 12.41L15.97 12.37C15.96 12.33 15.95 12.29 15.94 12.26L15.93 12.18C15.91 12.12 15.9 12.06 15.9 12C15.86 11.71 15.87 11.42 15.93 11.13C15.93 11.11 15.94 11.08 15.94 11.06C15.95 11.01 15.96 10.97 15.97 10.93L15.98 10.9C16 10.86 16.01 10.81 16.02 10.77L16.04 10.73C16.1 10.56 16.18 10.4 16.27 10.25L16.29 10.21C16.31 10.18 16.34 10.15 16.36 10.12L16.4 10.06C16.43 10.01 16.47 9.97 16.51 9.92C16.7 9.69 16.92 9.5 17.18 9.35L17.04 9.44C17.09 9.41 17.13 9.38 17.17 9.36L17.18 9.35C17.23 9.32 17.28 9.3 17.33 9.27L17.36 9.26C17.52 9.18 17.68 9.12 17.86 9.07L17.88 9.07C17.93 9.06 17.97 9.05 18.02 9.04L18.07 9.03C18.11 9.02 18.16 9.02 18.2 9.01L18.25 9.01C18.33 9 18.41 9 18.49 9L18.36 9L18.45 9L18.49 9Z" fill="#FFFFFF" fill-opacity="1.000000" fill-rule="nonzero"/>
	</g>
</svg>
