<svg width="40.000000" height="40.000000" viewBox="0 0 40 40" fill="none" xmlns="http://www.w3.org/2000/svg" xmlns:xlink="http://www.w3.org/1999/xlink">
	<desc>
			Created with Pixso.
	</desc>
	<defs>
		<clipPath id="clip20_1482">
			<rect width="40.000000" height="40.000000" fill="white" fill-opacity="0"/>
		</clipPath>
	</defs>
	<g clip-path="url(#clip20_1482)">
		<path d="M20 0C8.97 0 0 8.97 0 20C0 31.02 8.97 40 20 40C31.02 40 40 31.02 40 20C40 8.97 31.02 0 20 0Z" fill="#000000" fill-opacity="0.098039" fill-rule="nonzero"/>
		<path d="M20 8.92C18.54 8.92 17.2 9.28 15.97 10C14.73 10.72 13.76 11.7 13.04 12.93C12.32 14.16 11.96 15.51 11.96 16.96C11.96 17.84 12.09 18.69 12.37 19.51C12.65 20.32 13.05 21.07 13.57 21.76C14.32 22.77 15.26 23.56 16.37 24.14C17.5 24.71 18.7 25 20 25C21.29 25 22.5 24.71 23.61 24.14C24.74 23.56 25.67 22.77 26.42 21.76C26.94 21.07 27.33 20.32 27.61 19.51C27.89 18.69 28.04 17.84 28.04 16.96C28.04 15.51 27.67 14.16 26.95 12.93C26.22 11.7 25.24 10.72 24.02 10C22.79 9.28 21.45 8.92 20 8.92ZM20 26.3C18.33 26.3 16.75 25.86 15.27 24.98L15.27 30.33C15.27 30.62 15.38 30.83 15.62 30.98C15.74 31.04 15.86 31.07 15.99 31.07C16.13 31.07 16.26 31.04 16.37 30.98L20 28.99L23.64 30.98C23.73 31.04 23.84 31.07 24.01 31.07C24.16 31.07 24.29 31.04 24.36 30.98C24.48 30.91 24.57 30.82 24.63 30.7C24.71 30.58 24.75 30.46 24.75 30.33L24.75 24.98C23.26 25.86 21.67 26.3 20 26.3ZM22.23 17.59C22.16 17.64 22.12 17.7 22.09 17.79C22.07 17.88 22.07 17.96 22.08 18.04L22.57 19.96L22.57 20.06C22.57 20.22 22.51 20.35 22.39 20.44C22.33 20.49 22.24 20.51 22.13 20.51C22.06 20.51 21.98 20.49 21.89 20.44L20.21 19.36C20.15 19.31 20.07 19.29 19.98 19.29C19.89 19.29 19.82 19.31 19.74 19.36L18.06 20.44C17.99 20.49 17.91 20.51 17.82 20.51C17.74 20.51 17.65 20.49 17.58 20.44C17.41 20.3 17.36 20.14 17.4 19.96L17.88 18.04C17.88 17.89 17.84 17.68 17.71 17.59L16.2 16.34C16.08 16.21 16.04 16.05 16.08 15.86C16.13 15.67 16.26 15.57 16.46 15.57L18.43 15.43C18.63 15.4 18.75 15.3 18.79 15.14L19.58 13.29C19.66 13.12 19.8 13.03 20 13.03C20.17 13.03 20.29 13.12 20.37 13.29L21.14 15.14C21.25 15.31 21.37 15.4 21.54 15.4L23.5 15.55C23.58 15.56 23.65 15.6 23.74 15.65C23.82 15.71 23.86 15.78 23.88 15.86C23.9 15.89 23.9 15.94 23.9 16C23.9 16.13 23.86 16.23 23.77 16.31L22.23 17.59Z" fill="#FFFFFF" fill-opacity="1.000000" fill-rule="nonzero"/>
	</g>
</svg>
