<svg width="40.000000" height="40.000000" viewBox="0 0 40 40" fill="none" xmlns="http://www.w3.org/2000/svg" xmlns:xlink="http://www.w3.org/1999/xlink">
	<desc>
			Created with Pixso.
	</desc>
	<defs>
		<clipPath id="clip24_1939">
			<rect width="40.000000" height="40.000000" fill="white" fill-opacity="0"/>
		</clipPath>
	</defs>
	<g clip-path="url(#clip24_1939)">
		<path d="M20 0C8.97 0 0 8.97 0 20C0 31.02 8.97 40 20 40C31.02 40 40 31.02 40 20C40 8.97 31.02 0 20 0Z" fill="#94B982" fill-opacity="1.000000" fill-rule="nonzero"/>
		<path d="M27.69 14.82L25.78 14.82L25.78 13.41C25.78 13.33 25.77 13.25 25.76 13.17C25.76 13.09 25.74 13.01 25.73 12.94C25.71 12.86 25.69 12.78 25.67 12.71C25.65 12.63 25.62 12.56 25.59 12.48C25.56 12.41 25.53 12.34 25.49 12.27C25.45 12.2 25.41 12.13 25.37 12.07C25.33 12 25.28 11.94 25.23 11.88C25.18 11.82 25.13 11.76 25.07 11.7C25.01 11.65 24.96 11.59 24.89 11.54C24.83 11.49 24.77 11.45 24.7 11.4C24.64 11.36 24.57 11.32 24.5 11.28C24.43 11.24 24.36 11.21 24.29 11.18C24.22 11.15 24.14 11.12 24.07 11.1C23.99 11.08 23.91 11.06 23.84 11.04C23.76 11.03 23.68 11.01 23.6 11.01C23.52 11 23.44 11 23.37 11L16.63 11C16.55 11 16.47 11 16.39 11.01C16.31 11.01 16.23 11.03 16.16 11.04C16.08 11.06 16 11.08 15.93 11.1C15.85 11.12 15.78 11.15 15.7 11.18C15.63 11.21 15.56 11.24 15.49 11.28C15.42 11.32 15.35 11.36 15.29 11.4C15.22 11.45 15.16 11.49 15.1 11.54C15.04 11.59 14.98 11.65 14.92 11.7C14.87 11.76 14.81 11.82 14.76 11.88C14.71 11.94 14.67 12 14.62 12.07C14.58 12.13 14.54 12.2 14.5 12.27C14.46 12.34 14.43 12.41 14.4 12.48C14.37 12.56 14.34 12.63 14.32 12.71C14.3 12.78 14.28 12.86 14.26 12.94C14.25 13.01 14.23 13.09 14.23 13.17C14.22 13.25 14.21 13.33 14.21 13.41L14.21 14.82L12.3 14.82C12.23 14.82 12.15 14.83 12.08 14.83C12 14.84 11.93 14.85 11.85 14.87C11.78 14.88 11.71 14.9 11.63 14.92C11.56 14.94 11.49 14.97 11.42 15C11.35 15.03 11.28 15.06 11.22 15.09C11.15 15.13 11.08 15.17 11.02 15.21C10.96 15.25 10.9 15.3 10.84 15.35C10.78 15.39 10.72 15.44 10.67 15.5C10.62 15.55 10.57 15.61 10.52 15.67C10.47 15.72 10.43 15.78 10.38 15.85C10.34 15.91 10.3 15.97 10.27 16.04C10.23 16.11 10.2 16.18 10.17 16.25C10.14 16.32 10.12 16.39 10.09 16.46C10.07 16.53 10.05 16.6 10.04 16.68C10.02 16.75 10.01 16.83 10.01 16.9C10 16.98 10 17.05 10 17.13L10 27.95C10 28.02 10 28.1 10.01 28.17C10.01 28.25 10.02 28.32 10.04 28.4C10.05 28.47 10.07 28.54 10.09 28.62C10.12 28.69 10.14 28.76 10.17 28.83C10.2 28.9 10.23 28.97 10.27 29.03C10.3 29.1 10.34 29.16 10.38 29.23C10.43 29.29 10.47 29.35 10.52 29.41C10.57 29.47 10.62 29.52 10.67 29.58C10.72 29.63 10.78 29.68 10.84 29.73C10.9 29.78 10.96 29.82 11.02 29.86C11.08 29.91 11.15 29.95 11.22 29.98C11.28 30.02 11.35 30.05 11.42 30.08C11.49 30.11 11.56 30.13 11.63 30.15C11.71 30.18 11.78 30.19 11.85 30.21C11.93 30.22 12 30.23 12.08 30.24C12.15 30.25 12.23 30.25 12.3 30.25L27.69 30.25C27.76 30.25 27.84 30.25 27.91 30.24C27.99 30.23 28.06 30.22 28.14 30.21C28.21 30.19 28.28 30.18 28.36 30.15C28.43 30.13 28.5 30.11 28.57 30.08C28.64 30.05 28.71 30.02 28.78 29.98C28.84 29.95 28.91 29.91 28.97 29.86C29.03 29.82 29.09 29.78 29.15 29.73C29.21 29.68 29.27 29.63 29.32 29.58C29.37 29.52 29.42 29.47 29.47 29.41C29.52 29.35 29.56 29.29 29.61 29.23C29.65 29.16 29.69 29.1 29.72 29.03C29.76 28.97 29.79 28.9 29.82 28.83C29.85 28.76 29.87 28.69 29.9 28.62C29.92 28.54 29.94 28.47 29.95 28.4C29.97 28.32 29.98 28.25 29.98 28.17C29.99 28.1 30 28.02 30 27.95L30 17.13C30 17.05 29.99 16.98 29.98 16.9C29.98 16.83 29.97 16.75 29.95 16.68C29.94 16.6 29.92 16.53 29.9 16.46C29.87 16.39 29.85 16.32 29.82 16.25C29.79 16.18 29.76 16.11 29.72 16.04C29.69 15.97 29.65 15.91 29.61 15.85C29.56 15.78 29.52 15.72 29.47 15.67C29.42 15.61 29.37 15.55 29.32 15.5C29.27 15.44 29.21 15.39 29.15 15.35C29.09 15.3 29.03 15.25 28.97 15.21C28.91 15.17 28.84 15.13 28.78 15.09C28.71 15.06 28.64 15.03 28.57 15C28.5 14.97 28.43 14.94 28.36 14.92C28.28 14.9 28.21 14.88 28.14 14.87C28.06 14.85 27.99 14.84 27.91 14.83C27.84 14.83 27.76 14.82 27.69 14.82ZM16.4 13.41C16.4 13.38 16.41 13.35 16.42 13.32C16.43 13.29 16.45 13.27 16.47 13.25C16.49 13.23 16.51 13.21 16.54 13.2C16.56 13.19 16.59 13.19 16.62 13.19L23.36 13.19C23.39 13.19 23.42 13.19 23.45 13.2C23.47 13.21 23.5 13.23 23.52 13.25C23.54 13.27 23.55 13.3 23.56 13.32C23.58 13.35 23.58 13.38 23.58 13.41L23.58 14.82L16.4 14.82L16.4 13.41ZM24.4 23.59C24.4 23.62 24.39 23.65 24.38 23.68C24.37 23.72 24.35 23.74 24.33 23.77C24.3 23.79 24.27 23.81 24.24 23.82C24.21 23.83 24.18 23.84 24.15 23.84L21.9 23.84C21.87 23.84 21.84 23.85 21.81 23.86C21.78 23.87 21.75 23.89 21.72 23.91C21.7 23.94 21.68 23.97 21.67 24C21.66 24.03 21.65 24.06 21.65 24.09L21.65 26.34C21.65 26.37 21.64 26.41 21.63 26.44C21.62 26.47 21.6 26.5 21.58 26.52C21.55 26.54 21.52 26.56 21.49 26.57C21.46 26.59 21.43 26.59 21.4 26.59L18.95 26.59C18.92 26.59 18.89 26.59 18.85 26.57C18.82 26.56 18.8 26.54 18.77 26.52C18.75 26.5 18.73 26.47 18.72 26.44C18.7 26.41 18.7 26.37 18.7 26.34L18.7 24.09C18.7 24.06 18.69 24.03 18.68 24C18.67 23.97 18.65 23.94 18.62 23.91C18.6 23.89 18.57 23.87 18.54 23.86C18.51 23.85 18.48 23.84 18.44 23.84L16.2 23.84C16.16 23.84 16.13 23.84 16.1 23.82C16.07 23.81 16.04 23.79 16.01 23.77C15.99 23.74 15.97 23.72 15.96 23.68C15.94 23.65 15.94 23.62 15.94 23.59L15.94 21.14C15.94 21.11 15.94 21.07 15.96 21.04C15.97 21.01 15.99 20.98 16.01 20.96C16.04 20.94 16.06 20.92 16.09 20.91C16.13 20.89 16.16 20.89 16.19 20.89L18.44 20.89C18.48 20.89 18.51 20.88 18.54 20.87C18.57 20.85 18.6 20.84 18.62 20.81C18.65 20.79 18.66 20.76 18.68 20.73C18.69 20.7 18.7 20.67 18.7 20.63L18.7 18.39C18.7 18.35 18.7 18.32 18.72 18.29C18.73 18.26 18.75 18.23 18.77 18.21C18.79 18.18 18.82 18.16 18.85 18.15C18.89 18.14 18.92 18.13 18.95 18.13L21.4 18.13C21.43 18.13 21.46 18.14 21.5 18.15C21.53 18.16 21.55 18.18 21.58 18.21C21.6 18.23 21.62 18.26 21.63 18.29C21.65 18.32 21.65 18.35 21.65 18.39L21.65 20.63C21.65 20.67 21.66 20.7 21.67 20.73C21.68 20.76 21.7 20.79 21.73 20.81C21.75 20.84 21.78 20.85 21.81 20.87C21.84 20.88 21.87 20.89 21.91 20.89L24.15 20.89C24.19 20.89 24.22 20.89 24.25 20.91C24.28 20.92 24.31 20.94 24.33 20.96C24.36 20.98 24.37 21.01 24.39 21.04C24.4 21.07 24.41 21.11 24.41 21.14L24.4 23.59Z" fill="#FFFFFF" fill-opacity="1.000000" fill-rule="nonzero"/>
	</g>
</svg>
