<svg width="40.000000" height="40.000000" viewBox="0 0 40 40" fill="none" xmlns="http://www.w3.org/2000/svg" xmlns:xlink="http://www.w3.org/1999/xlink">
	<desc>
			Created with Pixso.
	</desc>
	<defs>
		<clipPath id="clip20_1474">
			<rect width="40.000000" height="40.000000" fill="white" fill-opacity="0"/>
		</clipPath>
	</defs>
	<g clip-path="url(#clip20_1474)">
		<path d="M20 0C8.97 0 0 8.97 0 20C0 31.02 8.97 40 20 40C31.02 40 40 31.02 40 20C40 8.97 31.02 0 20 0Z" fill="#000000" fill-opacity="0.098039" fill-rule="nonzero"/>
		<path d="M14.16 13.13L14.08 12.69C14.03 12.45 13.94 12.22 13.82 12.01C13.76 11.91 13.69 11.82 13.62 11.73C13.54 11.64 13.45 11.55 13.36 11.47C13.26 11.39 13.16 11.32 13.05 11.27C12.95 11.21 12.85 11.16 12.74 11.12C12.63 11.08 12.52 11.05 12.41 11.03C12.28 11.01 12.16 11 12.03 11L9.97 11C9.9 11 9.84 11 9.77 11.02C9.71 11.03 9.65 11.05 9.59 11.07C9.53 11.1 9.48 11.13 9.43 11.16C9.38 11.19 9.33 11.23 9.28 11.28C9.23 11.33 9.19 11.38 9.16 11.43C9.13 11.48 9.1 11.53 9.07 11.59C9.05 11.65 9.03 11.71 9.02 11.77C9 11.84 9 11.9 9 11.97C9 12.04 9 12.1 9.02 12.17C9.03 12.23 9.05 12.29 9.07 12.35C9.1 12.41 9.13 12.46 9.16 12.51C9.19 12.56 9.23 12.61 9.28 12.66C9.33 12.71 9.38 12.75 9.43 12.78C9.48 12.81 9.53 12.84 9.59 12.87C9.65 12.89 9.71 12.91 9.77 12.92C9.84 12.94 9.9 12.95 9.97 12.95L12.03 12.95C12.05 12.97 12.16 13.03 12.16 13.06L14.25 23.82C14.28 24.01 14.34 24.21 14.41 24.39C14.48 24.55 14.55 24.71 14.65 24.86C14.83 25.17 15.07 25.45 15.35 25.68C15.64 25.91 15.95 26.09 16.29 26.22C16.65 26.35 17.01 26.41 17.39 26.41L27.77 26.41C27.9 26.41 28.02 26.39 28.15 26.33C28.26 26.28 28.37 26.22 28.46 26.13C28.5 26.08 28.54 26.03 28.58 25.98C28.61 25.93 28.64 25.87 28.66 25.82C28.72 25.69 28.74 25.57 28.74 25.44C28.74 25.3 28.72 25.18 28.66 25.06C28.61 24.94 28.55 24.84 28.46 24.75C28.37 24.66 28.26 24.59 28.15 24.54C28.02 24.49 27.9 24.46 27.77 24.46L17.39 24.46C17.24 24.46 17.1 24.44 16.97 24.39C16.83 24.34 16.71 24.27 16.59 24.17C16.48 24.08 16.38 23.97 16.31 23.85C16.24 23.73 16.19 23.59 16.16 23.45L16.12 23.25L26.37 23.25C26.55 23.25 26.72 23.24 26.89 23.21C27.04 23.18 27.19 23.14 27.34 23.09C27.48 23.04 27.62 22.97 27.76 22.9C27.9 22.82 28.04 22.73 28.17 22.63C28.3 22.53 28.42 22.42 28.53 22.3C28.64 22.18 28.73 22.06 28.82 21.93C28.9 21.8 28.98 21.67 29.04 21.53C29.11 21.37 29.17 21.21 29.21 21.04L30.97 14C31 13.9 31 13.81 30.99 13.73C30.98 13.64 30.94 13.55 30.89 13.47C30.8 13.3 30.65 13.2 30.47 13.15C30.44 13.15 30.33 13.13 30.3 13.13L14.16 13.13ZM19.3 28.69C19.3 28.8 19.29 28.92 19.27 29.03C19.25 29.13 19.22 29.22 19.18 29.32C19.14 29.41 19.09 29.5 19.03 29.59C18.97 29.67 18.91 29.76 18.83 29.84C18.75 29.91 18.67 29.98 18.58 30.04C18.49 30.1 18.41 30.14 18.31 30.18C18.22 30.22 18.12 30.25 18.02 30.28C17.91 30.3 17.8 30.31 17.68 30.31C17.56 30.31 17.45 30.3 17.34 30.28C17.24 30.25 17.14 30.22 17.05 30.18C16.95 30.14 16.86 30.1 16.78 30.04C16.69 29.98 16.61 29.91 16.53 29.84C16.45 29.76 16.38 29.67 16.32 29.59C16.27 29.5 16.22 29.41 16.18 29.32C16.14 29.22 16.11 29.13 16.09 29.03C16.07 28.92 16.05 28.8 16.05 28.69C16.05 28.57 16.07 28.46 16.09 28.34C16.11 28.25 16.14 28.15 16.18 28.05C16.22 27.96 16.27 27.87 16.32 27.79C16.38 27.7 16.45 27.61 16.53 27.54C16.61 27.46 16.69 27.39 16.78 27.33C16.86 27.28 16.95 27.23 17.05 27.19C17.14 27.15 17.24 27.12 17.34 27.1C17.45 27.07 17.56 27.06 17.68 27.06C17.8 27.06 17.91 27.07 18.02 27.1C18.12 27.12 18.22 27.15 18.31 27.19C18.41 27.23 18.49 27.28 18.58 27.33C18.67 27.39 18.75 27.46 18.83 27.54C18.91 27.61 18.97 27.7 19.03 27.79C19.09 27.87 19.14 27.96 19.18 28.05C19.22 28.15 19.25 28.25 19.27 28.34C19.29 28.46 19.3 28.57 19.3 28.69ZM26.73 28.69C26.73 28.8 26.72 28.92 26.7 29.03C26.68 29.13 26.65 29.22 26.61 29.32C26.57 29.41 26.52 29.5 26.46 29.59C26.4 29.67 26.34 29.76 26.26 29.84C26.18 29.91 26.1 29.98 26.01 30.04C25.92 30.1 25.84 30.14 25.74 30.18C25.65 30.22 25.55 30.25 25.45 30.28C25.34 30.3 25.23 30.31 25.11 30.31C24.99 30.31 24.88 30.3 24.77 30.28C24.67 30.25 24.57 30.22 24.48 30.18C24.38 30.14 24.29 30.1 24.21 30.04C24.12 29.98 24.04 29.91 23.96 29.84C23.88 29.76 23.81 29.67 23.75 29.59C23.7 29.5 23.65 29.41 23.61 29.32C23.57 29.22 23.54 29.13 23.52 29.03C23.5 28.92 23.48 28.8 23.48 28.69C23.48 28.57 23.5 28.46 23.52 28.34C23.54 28.25 23.57 28.15 23.61 28.05C23.65 27.96 23.7 27.87 23.75 27.79C23.81 27.7 23.88 27.61 23.96 27.54C24.04 27.46 24.12 27.39 24.21 27.33C24.29 27.28 24.38 27.23 24.48 27.19C24.57 27.15 24.67 27.12 24.77 27.1C24.88 27.07 24.99 27.06 25.11 27.06C25.23 27.06 25.34 27.07 25.45 27.1C25.55 27.12 25.65 27.15 25.74 27.19C25.84 27.23 25.92 27.28 26.01 27.33C26.1 27.39 26.18 27.46 26.26 27.54C26.34 27.61 26.4 27.7 26.46 27.79C26.52 27.87 26.57 27.96 26.61 28.05C26.65 28.15 26.68 28.25 26.7 28.34C26.72 28.46 26.73 28.57 26.73 28.69Z" fill="#FFFFFF" fill-opacity="1.000000" fill-rule="evenodd"/>
	</g>
</svg>
