<svg width="40.000000" height="40.000000" viewBox="0 0 40 40" fill="none" xmlns="http://www.w3.org/2000/svg" xmlns:xlink="http://www.w3.org/1999/xlink">
	<desc>
			Created with Pixso.
	</desc>
	<defs>
		<clipPath id="clip20_1523">
			<rect width="40.000000" height="40.000000" fill="white" fill-opacity="0"/>
		</clipPath>
	</defs>
	<g clip-path="url(#clip20_1523)">
		<path d="M20 0C8.97 0 0 8.97 0 20C0 31.02 8.97 40 20 40C31.02 40 40 31.02 40 20C40 8.97 31.02 0 20 0Z" fill="#000000" fill-opacity="0.098039" fill-rule="nonzero"/>
		<path d="M25 30C24.44 30 24 29.55 24 29L16 29C16 29.55 15.55 30 15 30C14.44 30 14 29.55 14 29L13 29C12.93 29 12.86 28.99 12.8 28.99C12.73 28.98 12.67 28.97 12.6 28.96C12.54 28.94 12.48 28.93 12.41 28.91C12.35 28.89 12.29 28.87 12.23 28.84C12.17 28.82 12.11 28.79 12.05 28.76C11.99 28.73 11.94 28.69 11.88 28.66C11.83 28.62 11.78 28.58 11.73 28.54C11.68 28.5 11.63 28.46 11.58 28.41C11.53 28.36 11.49 28.31 11.45 28.26C11.41 28.21 11.37 28.16 11.33 28.11C11.3 28.05 11.26 28 11.23 27.94C11.2 27.88 11.17 27.82 11.15 27.76C11.12 27.7 11.1 27.64 11.08 27.58C11.06 27.51 11.05 27.45 11.03 27.39C11.02 27.32 11.01 27.26 11 27.19C11 27.13 11 27.06 11 27L11 14C11 13.93 11 13.86 11 13.8C11.01 13.73 11.02 13.67 11.03 13.6C11.05 13.54 11.06 13.48 11.08 13.41C11.1 13.35 11.12 13.29 11.15 13.23C11.17 13.17 11.2 13.11 11.23 13.05C11.26 12.99 11.3 12.94 11.33 12.88C11.37 12.83 11.41 12.78 11.45 12.73C11.49 12.68 11.53 12.63 11.58 12.58C11.63 12.53 11.68 12.49 11.73 12.45C11.78 12.41 11.83 12.37 11.88 12.33C11.94 12.3 11.99 12.26 12.05 12.23C12.11 12.2 12.17 12.17 12.23 12.15C12.29 12.12 12.35 12.1 12.41 12.08C12.48 12.06 12.54 12.05 12.6 12.03C12.67 12.02 12.73 12.01 12.8 12C12.86 12 12.93 12 13 12L16 12L16 10C16 9.93 16 9.86 16.01 9.8C16.03 9.74 16.05 9.67 16.07 9.61C16.1 9.55 16.13 9.49 16.16 9.44C16.2 9.38 16.24 9.33 16.29 9.29C16.33 9.24 16.38 9.2 16.44 9.16C16.49 9.13 16.55 9.1 16.61 9.07C16.67 9.05 16.74 9.03 16.8 9.01C16.86 9 16.93 9 17 9L23 9C23.06 9 23.13 9 23.19 9.01C23.25 9.03 23.32 9.05 23.38 9.07C23.44 9.1 23.5 9.13 23.55 9.16C23.61 9.2 23.66 9.24 23.7 9.29C23.75 9.33 23.79 9.38 23.83 9.44C23.86 9.49 23.89 9.55 23.92 9.61C23.94 9.67 23.96 9.74 23.98 9.8C23.99 9.86 24 9.93 24 10L24 12L27 12C27.06 12 27.13 12 27.19 12C27.26 12.01 27.32 12.02 27.39 12.03C27.45 12.05 27.51 12.06 27.58 12.08C27.64 12.1 27.7 12.12 27.76 12.15C27.82 12.17 27.88 12.2 27.94 12.23C28 12.26 28.05 12.3 28.11 12.33C28.16 12.37 28.21 12.41 28.26 12.45C28.31 12.49 28.36 12.53 28.41 12.58C28.46 12.63 28.5 12.68 28.54 12.73C28.58 12.78 28.62 12.83 28.66 12.88C28.69 12.94 28.73 12.99 28.76 13.05C28.79 13.11 28.82 13.17 28.84 13.23C28.87 13.29 28.89 13.35 28.91 13.41C28.93 13.48 28.94 13.54 28.96 13.6C28.97 13.67 28.98 13.73 28.99 13.8C28.99 13.86 29 13.93 29 14L29 27C29 27.06 28.99 27.13 28.99 27.19C28.98 27.26 28.97 27.32 28.96 27.39C28.94 27.45 28.93 27.51 28.91 27.58C28.89 27.64 28.87 27.7 28.84 27.76C28.82 27.82 28.79 27.88 28.76 27.94C28.73 28 28.69 28.05 28.66 28.11C28.62 28.16 28.58 28.21 28.54 28.26C28.5 28.31 28.46 28.36 28.41 28.41C28.36 28.46 28.31 28.5 28.26 28.54C28.21 28.58 28.16 28.62 28.11 28.66C28.05 28.69 28 28.73 27.94 28.76C27.88 28.79 27.82 28.82 27.76 28.84C27.7 28.87 27.64 28.89 27.58 28.91C27.51 28.93 27.45 28.94 27.39 28.96C27.32 28.97 27.26 28.98 27.19 28.99C27.13 28.99 27.06 29 27 29L26 29C26 29.55 25.55 30 25 30ZM18 16L16 16L16 25L18 25L18 16ZM24 16L22 16L22 25L24 25L24 16ZM22 11L18 11L18 12L22 12L22 11Z" fill="#FFFFFF" fill-opacity="1.000000" fill-rule="nonzero"/>
	</g>
</svg>
