<svg width="16.000000" height="16.000000" viewBox="0 0 16 16" fill="none" xmlns="http://www.w3.org/2000/svg" xmlns:xlink="http://www.w3.org/1999/xlink">
	<desc>
			Created with Pixso.
	</desc>
	<defs>
		<clipPath id="clip65_4561">
			<rect width="16.000000" height="16.000000" fill="white" fill-opacity="0"/>
		</clipPath>
	</defs>
	<g clip-path="url(#clip65_4561)">
		<g opacity="0.000000">
			<rect width="16.000000" height="16.000000" fill="#000000" fill-opacity="1.000000"/>
		</g>
		<path d="M6.92 8.3L6.25 9.49C6.25 9.57 6.25 9.71 6.31 9.75C6.38 9.79 6.45 9.79 6.52 9.76L7.7 9.09L8.07 8.85L7.16 7.95L6.92 8.3ZM8.66 8.35L14.67 2.36C14.81 2.23 14.88 2.06 14.88 1.86C14.88 1.65 14.81 1.48 14.67 1.36C14.52 1.21 14.35 1.14 14.16 1.14C13.96 1.14 13.79 1.21 13.65 1.36L7.64 7.34L7.46 7.55L8.45 8.54L8.66 8.35ZM7.99 15.07C9.22 15.07 10.37 14.77 11.43 14.18C12.49 13.58 13.34 12.76 13.98 11.73C14.62 10.69 14.96 9.56 15.01 8.32C15.04 7.25 14.85 6.24 14.43 5.28C14.39 5.19 14.32 5.12 14.24 5.06C14.15 5 14.06 4.98 13.97 4.98C13.9 4.98 13.84 4.99 13.78 5.02C13.68 5.06 13.6 5.13 13.55 5.22C13.49 5.3 13.47 5.39 13.47 5.49C13.47 5.55 13.48 5.61 13.52 5.68C13.87 6.51 14.03 7.38 14 8.29C13.96 9.37 13.65 10.36 13.08 11.26C12.5 12.16 11.75 12.86 10.82 13.36C9.88 13.86 8.87 14.09 7.78 14.06C6.7 14.03 5.71 13.73 4.81 13.15C3.91 12.57 3.21 11.82 2.7 10.88C2.2 9.93 1.96 8.93 1.99 7.86C2.03 6.76 2.33 5.77 2.9 4.87C3.48 3.97 4.24 3.26 5.17 2.76C6.12 2.25 7.12 2.02 8.2 2.06C8.86 2.07 9.55 2.22 10.26 2.5C10.32 2.52 10.38 2.54 10.45 2.54C10.54 2.54 10.63 2.51 10.72 2.46C10.8 2.4 10.87 2.32 10.91 2.22C10.93 2.14 10.94 2.08 10.94 2.05C10.94 1.94 10.91 1.84 10.86 1.76C10.8 1.67 10.73 1.61 10.64 1.57C9.83 1.25 9.04 1.08 8.25 1.07C6.98 1.03 5.8 1.31 4.7 1.9C3.61 2.48 2.73 3.3 2.06 4.35C1.4 5.39 1.04 6.55 1 7.81C0.96 9.07 1.23 10.25 1.81 11.35C2.4 12.44 3.22 13.32 4.26 13.99C5.31 14.65 6.47 15.01 7.73 15.07L7.99 15.07Z" fill="#191919" fill-opacity="1.000000" fill-rule="nonzero"/>
	</g>
</svg>
