<svg width="40.000000" height="40.000000" viewBox="0 0 40 40" fill="none" xmlns="http://www.w3.org/2000/svg" xmlns:xlink="http://www.w3.org/1999/xlink">
	<desc>
			Created with Pixso.
	</desc>
	<defs>
		<clipPath id="clip24_1970">
			<rect width="40.000000" height="40.000000" fill="white" fill-opacity="0"/>
		</clipPath>
	</defs>
	<g clip-path="url(#clip24_1970)">
		<path d="M20 0C8.97 0 0 8.97 0 20C0 31.02 8.97 40 20 40C31.02 40 40 31.02 40 20C40 8.97 31.02 0 20 0Z" fill="#94B982" fill-opacity="1.000000" fill-rule="nonzero"/>
		<path d="M13.47 10L26.3 10C28.32 10 28.77 10.56 28.77 12.71L28.77 13.65C27.42 14.4 25.75 15.34 23.84 15.96C23.31 14.31 21.74 13.11 19.88 13.11C18.02 13.11 16.45 14.31 15.92 15.97C14.03 15.37 12.34 14.48 11 13.78L11 12.71C11 10.56 11.44 10 13.47 10ZM20.89 14.58L19.87 16.37L18.82 14.58L17.54 14.58L19 16.97L18.07 16.97L18.07 17.76L19.29 17.76L19.29 18.18L18.07 18.18L18.07 18.98L19.29 18.98L19.29 20.16L20.4 20.16L20.4 18.98L21.64 18.98L21.64 18.18L20.4 18.18L20.4 17.76L21.64 17.76L21.64 16.97L20.66 16.97L22.06 14.58L20.89 14.58ZM19.88 21.27C17.68 21.27 15.88 19.58 15.75 17.44C14.04 16.9 12.42 16.14 11 15.48L11 27.67C11 29.82 11.44 30 13.47 30L26.3 30C28.32 30 28.77 29.82 28.77 27.67L28.77 15.37C27.33 16.08 25.73 16.87 24.02 17.43C23.89 19.57 22.09 21.27 19.88 21.27Z" fill="#FFFFFF" fill-opacity="1.000000" fill-rule="evenodd"/>
	</g>
</svg>
