<svg width="40.000000" height="40.000000" viewBox="0 0 40 40" fill="none" xmlns="http://www.w3.org/2000/svg" xmlns:xlink="http://www.w3.org/1999/xlink">
	<desc>
			Created with Pixso.
	</desc>
	<defs>
		<clipPath id="clip20_1458">
			<rect width="40.000000" height="40.000000" fill="white" fill-opacity="0"/>
		</clipPath>
	</defs>
	<g clip-path="url(#clip20_1458)">
		<path d="M20 0C8.97 0 0 8.97 0 20C0 31.02 8.97 40 20 40C31.02 40 40 31.02 40 20C40 8.97 31.02 0 20 0Z" fill="#000000" fill-opacity="0.098039" fill-rule="nonzero"/>
		<path d="M26.35 10L13.68 10C12.2 10 11 11.17 11 12.61L11 25.61C11 26.42 11.68 27.09 12.51 27.09L27.51 27.09C28.35 27.09 29.03 26.43 29.03 25.61L29.03 12.61C29.03 11.17 27.83 10 26.35 10ZM14.21 24.48C13.4 24.48 12.74 23.84 12.74 23.05C12.74 22.26 13.4 21.62 14.21 21.62C15.02 21.62 15.68 22.26 15.68 23.05C15.68 23.84 15.02 24.48 14.21 24.48ZM25.76 24.48C24.95 24.48 24.3 23.84 24.3 23.05C24.3 22.26 24.95 21.62 25.76 21.62C26.57 21.62 27.23 22.26 27.23 23.05C27.23 23.84 26.57 24.48 25.76 24.48ZM27.41 17.69C27.41 18.16 27.02 18.54 26.53 18.54L13.59 18.54C13.11 18.54 12.71 18.16 12.71 17.69L12.71 14.51C12.71 13.55 13.51 12.78 14.49 12.78L25.63 12.78C26.61 12.78 27.41 13.55 27.41 14.51L27.41 17.69ZM26.17 30L13.86 30C13.53 30 13.26 29.73 13.26 29.39L13.26 28.88C13.26 28.55 13.53 28.28 13.86 28.28L26.17 28.28C26.5 28.28 26.77 28.55 26.77 28.88L26.77 29.39C26.77 29.73 26.5 30 26.17 30Z" fill="#FFFFFF" fill-opacity="1.000000" fill-rule="nonzero"/>
	</g>
</svg>
