<svg width="80.000000" height="80.000000" viewBox="0 0 80 80" fill="none" xmlns="http://www.w3.org/2000/svg" xmlns:xlink="http://www.w3.org/1999/xlink">
	<desc>
			Created with Pixso.
	</desc>
	<defs>
		<clipPath id="clip33_2931">
			<rect width="80.000000" height="80.000000" fill="white" fill-opacity="0"/>
		</clipPath>
	</defs>
	<g clip-path="url(#clip33_2931)">
		<g opacity="0.150000">
			<ellipse cx="39.617676" cy="71.862122" rx="22.215696" ry="1.393697" fill="#A1A7B3" fill-opacity="1.000000"/>
			<ellipse cx="39.617676" cy="71.862122" rx="22.215696" ry="1.393697" stroke="#000000" stroke-opacity="0" stroke-width="1.000000"/>
		</g>
		<g opacity="0.600000">
			<path d="M27.64 11.78C27.09 12.56 26.74 13.49 26.67 14.49L23.45 14.49C23.11 14.49 22.83 14.75 22.79 15.08L22.78 15.16L22.78 60.29C22.78 60.63 23.04 60.92 23.37 60.95L23.45 60.96L54.51 60.96C54.85 60.96 55.13 60.7 55.17 60.37L55.17 60.29L55.17 46.3C56.03 45.79 56.92 45.24 57.85 44.68C58.45 44.3 59.04 43.94 59.63 43.59L59.63 66.09C59.63 67.56 58.43 68.76 56.96 68.76L20.81 68.76C19.34 68.76 18.14 67.56 18.14 66.09L18.14 14.45C18.14 12.98 19.34 11.79 20.81 11.79L27.64 11.78ZM50.32 11.78L56.96 11.79C58.43 11.79 59.63 12.98 59.63 14.45L59.63 34.49C58.14 35.97 56.6 37.78 55.17 39.62L55.17 15.16C55.17 14.79 54.88 14.49 54.51 14.49L51.29 14.49C51.22 13.49 50.87 12.56 50.32 11.78Z" fill="#A1A7B3" fill-opacity="1.000000" fill-rule="evenodd"/>
			<path d="M26.67 14.49L23.45 14.49C23.11 14.49 22.83 14.75 22.79 15.08L22.78 15.16L22.78 60.29C22.78 60.63 23.04 60.92 23.37 60.95L23.45 60.96L54.51 60.96C54.85 60.96 55.13 60.7 55.17 60.37L55.17 60.29L55.17 46.3C56.03 45.79 56.92 45.24 57.85 44.68C58.45 44.3 59.04 43.94 59.63 43.59L59.63 66.09C59.63 67.56 58.43 68.76 56.96 68.76L20.81 68.76C19.34 68.76 18.14 67.56 18.14 66.09L18.14 14.45C18.14 12.98 19.34 11.79 20.81 11.79L27.64 11.78C27.09 12.56 26.74 13.49 26.67 14.49ZM56.96 11.79C58.43 11.79 59.63 12.98 59.63 14.45L59.63 34.49C58.14 35.97 56.6 37.78 55.17 39.62L55.17 15.16C55.17 14.79 54.88 14.49 54.51 14.49L51.29 14.49C51.22 13.49 50.87 12.56 50.32 11.78L56.96 11.79Z" stroke="#000000" stroke-opacity="0" stroke-width="1.000000"/>
		</g>
		<g opacity="0.300000">
			<path d="M18.15 65.35C18.15 66.82 19.35 68.02 20.82 68.02L56.97 68.02C58.44 68.02 59.64 66.82 59.64 65.35L59.64 66.09C59.64 67.56 58.44 68.76 56.97 68.76L20.82 68.76C19.35 68.76 18.15 67.56 18.15 66.09L18.15 65.35Z" fill="#A1A7B3" fill-opacity="1.000000" fill-rule="evenodd"/>
			<path d="M20.82 68.02L56.97 68.02C58.44 68.02 59.64 66.82 59.64 65.35L59.64 66.09C59.64 67.56 58.44 68.76 56.97 68.76L20.82 68.76C19.35 68.76 18.15 67.56 18.15 66.09L18.15 65.35C18.15 66.82 19.35 68.02 20.82 68.02Z" stroke="#000000" stroke-opacity="0" stroke-width="1.000000"/>
		</g>
		<g opacity="0.800000">
			<path d="M55.17 46.3L55.17 60.29C55.17 60.66 54.88 60.96 54.51 60.96L23.45 60.96C23.11 60.96 22.83 60.7 22.79 60.37L22.78 60.29C22.8 60.66 23.08 60.97 23.45 60.96C41.45 60.37 51.18 59.33 52.58 57.91C53.27 57.21 53.82 53.53 54.24 46.86C54.55 46.68 54.86 46.5 55.17 46.3ZM54.51 14.49C54.88 14.49 55.17 14.79 55.17 15.16L55.17 39.62C54.97 39.88 54.77 40.14 54.58 40.4C54.85 34 55.04 25.86 55.16 15.97L55.17 15.16C55.17 14.81 54.91 14.53 54.58 14.5L54.51 14.49Z" fill="#A1A7B3" fill-opacity="1.000000" fill-rule="evenodd"/>
			<path d="M23.45 60.96C41.45 60.37 51.18 59.33 52.58 57.91C53.27 57.21 53.82 53.53 54.24 46.86C54.55 46.68 54.86 46.5 55.17 46.3L55.17 60.29C55.17 60.66 54.88 60.96 54.51 60.96L23.45 60.96C23.11 60.96 22.83 60.7 22.79 60.37L22.78 60.29C22.8 60.66 23.08 60.97 23.45 60.96M55.17 15.16C55.17 14.81 54.91 14.53 54.58 14.5L54.51 14.49C54.88 14.49 55.17 14.79 55.17 15.16L55.17 39.62C54.97 39.88 54.77 40.14 54.58 40.4C54.85 34 55.04 25.86 55.16 15.97L55.17 15.16Z" stroke="#000000" stroke-opacity="0" stroke-width="1.000000"/>
		</g>
		<g opacity="0.200000">
			<path d="M26.67 14.49L26.66 14.6L26.66 14.71L26.66 14.85L51.3 14.85C51.3 14.73 51.3 14.61 51.29 14.49L54.5 14.49C54.87 14.49 55.17 14.79 55.17 15.16C55.05 25.41 54.85 33.83 54.58 40.4C52.16 43.59 50.13 46.75 49.32 48.34L39.64 57.69L38.01 59.68C37.98 59.72 37.97 59.78 38.01 59.83C38.04 59.87 38.09 59.88 38.14 59.85L40.3 58.47L49.88 49.21C50.82 48.83 52.38 47.97 54.24 46.86C53.82 53.53 53.27 57.21 52.58 57.91C51.18 59.33 41.48 60.34 23.47 60.94C23.1 60.95 22.8 60.66 22.78 60.29L22.78 15.16C22.78 14.79 23.08 14.49 23.45 14.49L26.67 14.49ZM51.3 15.25L26.66 15.25L26.66 15.75C26.66 15.95 26.8 16.12 27 16.15L50.9 16.15C51.1 16.15 51.27 16.01 51.3 15.81L51.3 15.25Z" fill="#A1A7B3" fill-opacity="1.000000" fill-rule="evenodd"/>
			<path d="M26.66 14.6L26.66 14.71L26.66 14.85L51.3 14.85C51.3 14.73 51.3 14.61 51.29 14.49L54.5 14.49C54.87 14.49 55.17 14.79 55.17 15.16C55.05 25.41 54.85 33.83 54.58 40.4C52.16 43.59 50.13 46.75 49.32 48.34L39.64 57.69L38.01 59.68C37.98 59.72 37.97 59.78 38.01 59.83C38.04 59.87 38.09 59.88 38.14 59.85L40.3 58.47L49.88 49.21C50.82 48.83 52.38 47.97 54.24 46.86C53.82 53.53 53.27 57.21 52.58 57.91C51.18 59.33 41.48 60.34 23.47 60.94C23.1 60.95 22.8 60.66 22.78 60.29L22.78 15.16C22.78 14.79 23.08 14.49 23.45 14.49L26.67 14.49L26.66 14.6ZM26.66 15.25L26.66 15.75C26.66 15.95 26.8 16.12 27 16.15L50.9 16.15C51.1 16.15 51.27 16.01 51.3 15.81L51.3 15.25L26.66 15.25Z" stroke="#000000" stroke-opacity="0" stroke-width="1.000000"/>
		</g>
		<g opacity="0.100000">
			<path d="M26.67 14.49L26.66 14.6L26.66 14.71L26.66 14.85L51.3 14.85C51.3 14.73 51.3 14.61 51.29 14.49L54.5 14.49C54.87 14.49 55.17 14.79 55.17 15.16C55.05 25.41 54.85 33.83 54.58 40.4C52.16 43.59 50.13 46.75 49.32 48.34L39.64 57.69L38.01 59.68C37.98 59.72 37.97 59.78 38.01 59.83C38.04 59.87 38.09 59.88 38.14 59.85L40.3 58.47L49.88 49.21C50.82 48.83 52.38 47.97 54.24 46.86C53.82 53.53 53.27 57.21 52.58 57.91C51.18 59.33 41.48 60.34 23.47 60.94C23.1 60.95 22.8 60.66 22.78 60.29L22.78 15.16C22.78 14.79 23.08 14.49 23.45 14.49L26.67 14.49ZM51.3 15.25L26.66 15.25L26.66 15.75C26.66 15.95 26.8 16.12 27 16.15L50.9 16.15C51.1 16.15 51.27 16.01 51.3 15.81L51.3 15.25Z" fill="#A1A7B3" fill-opacity="1.000000" fill-rule="evenodd"/>
			<path d="M26.66 14.6L26.66 14.71L26.66 14.85L51.3 14.85C51.3 14.73 51.3 14.61 51.29 14.49L54.5 14.49C54.87 14.49 55.17 14.79 55.17 15.16C55.05 25.41 54.85 33.83 54.58 40.4C52.16 43.59 50.13 46.75 49.32 48.34L39.64 57.69L38.01 59.68C37.98 59.72 37.97 59.78 38.01 59.83C38.04 59.87 38.09 59.88 38.14 59.85L40.3 58.47L49.88 49.21C50.82 48.83 52.38 47.97 54.24 46.86C53.82 53.53 53.27 57.21 52.58 57.91C51.18 59.33 41.48 60.34 23.47 60.94C23.1 60.95 22.8 60.66 22.78 60.29L22.78 15.16C22.78 14.79 23.08 14.49 23.45 14.49L26.67 14.49L26.66 14.6ZM26.66 15.25L26.66 15.75C26.66 15.95 26.8 16.12 27 16.15L50.9 16.15C51.1 16.15 51.27 16.01 51.3 15.81L51.3 15.25L26.66 15.25Z" stroke="#000000" stroke-opacity="0" stroke-width="1.000000"/>
		</g>
		<g opacity="0.600000">
			<path d="M51.3 15.25L51.3 15.75C51.3 15.97 51.12 16.15 50.9 16.15L27.06 16.15C26.84 16.15 26.66 15.97 26.66 15.75L26.66 15.25L51.3 15.25ZM38.98 6.93C40.76 6.93 41.52 8.02 42.24 9.39L42.31 9.53L45.95 9.53C48.9 9.53 51.29 11.91 51.3 14.85L26.66 14.85L26.66 14.71C26.75 11.83 29.11 9.53 32.01 9.53L35.65 9.53C36.28 8.1 37.14 6.93 38.98 6.93ZM38.98 8.52C38.08 8.52 37.34 9.25 37.34 10.15C37.34 11.05 38.08 11.79 38.98 11.79C39.88 11.79 40.61 11.05 40.61 10.15C40.61 9.25 39.88 8.52 38.98 8.52Z" fill="#A1A7B3" fill-opacity="1.000000" fill-rule="evenodd"/>
			<path d="M51.3 15.75C51.3 15.97 51.12 16.15 50.9 16.15L27.06 16.15C26.84 16.15 26.66 15.97 26.66 15.75L26.66 15.25L51.3 15.25L51.3 15.75ZM42.24 9.39L42.31 9.53L45.95 9.53C48.9 9.53 51.29 11.91 51.3 14.85L26.66 14.85L26.66 14.71C26.75 11.83 29.11 9.53 32.01 9.53L35.65 9.53C36.28 8.1 37.14 6.93 38.98 6.93C40.76 6.93 41.52 8.02 42.24 9.39ZM37.34 10.15C37.34 11.05 38.08 11.79 38.98 11.79C39.88 11.79 40.61 11.05 40.61 10.15C40.61 9.25 39.88 8.52 38.98 8.52C38.08 8.52 37.34 9.25 37.34 10.15Z" stroke="#000000" stroke-opacity="0" stroke-width="1.000000"/>
		</g>
		<g opacity="0.500000">
			<path d="M75.63 23C77.44 23.51 73.96 31.08 70.1 35.41C66.24 39.75 62.3 41.93 57.85 44.68C54.46 46.76 51.38 48.61 49.88 49.21L40.3 58.47L38.14 59.85C38.09 59.88 38.04 59.87 38.01 59.83C37.97 59.78 37.98 59.72 38.01 59.68L39.64 57.69L49.32 48.34C50.73 45.58 55.82 38.07 60.24 33.89C61.17 33.01 62.19 32.1 63.23 31.19L63.66 30.83C63.87 30.64 64.08 30.46 64.29 30.28L64.72 29.92C64.79 29.86 64.86 29.8 64.94 29.74L65.37 29.39C69.81 25.73 74.34 22.63 75.63 23ZM64.21 35.62C63.58 35.82 62.45 35.99 62.74 36.28C63.03 36.56 64.44 36.48 67.13 35.28C69.68 34.15 68.83 34.16 67.65 34.5L67.51 34.54L67.44 34.56C66.16 34.96 64.84 35.43 64.21 35.62ZM65.76 33.09C65.21 33.23 64.68 33.37 64.89 33.58C65.18 33.87 66.59 33.78 69.28 32.58C71.98 31.39 70.87 31.47 69.59 31.87C68.31 32.27 66.99 32.73 66.36 32.93C66.24 32.97 66.09 33 65.94 33.04L65.76 33.09ZM68.23 30.03C67.72 30.16 67.26 30.3 67.45 30.49C67.74 30.78 69.15 30.69 71.85 29.5C74.4 28.37 73.54 28.37 72.36 28.72L72.22 28.76L72.15 28.78C70.87 29.18 69.55 29.64 68.92 29.84C68.8 29.88 68.65 29.92 68.5 29.96L68.23 30.03Z" fill="#A1A7B3" fill-opacity="1.000000" fill-rule="evenodd"/>
			<path d="M70.1 35.41C66.24 39.75 62.3 41.93 57.85 44.68C54.46 46.76 51.38 48.61 49.88 49.21L40.3 58.47L38.14 59.85C38.09 59.88 38.04 59.87 38.01 59.83C37.97 59.78 37.98 59.72 38.01 59.68L39.64 57.69L49.32 48.34C50.73 45.58 55.82 38.07 60.24 33.89C61.17 33.01 62.19 32.1 63.23 31.19L63.66 30.83C63.87 30.64 64.08 30.46 64.29 30.28L64.72 29.92C64.79 29.86 64.86 29.8 64.94 29.74L65.37 29.39C69.81 25.73 74.34 22.63 75.63 23C77.44 23.51 73.96 31.08 70.1 35.41ZM62.74 36.28C63.03 36.56 64.44 36.48 67.13 35.28C69.68 34.15 68.83 34.16 67.65 34.5L67.51 34.54L67.44 34.56C66.16 34.96 64.84 35.43 64.21 35.62C63.58 35.82 62.45 35.99 62.74 36.28ZM64.89 33.58C65.18 33.87 66.59 33.78 69.28 32.58C71.98 31.39 70.87 31.47 69.59 31.87C68.31 32.27 66.99 32.73 66.36 32.93C66.24 32.97 66.09 33 65.94 33.04L65.76 33.09C65.21 33.23 64.68 33.37 64.89 33.58ZM67.45 30.49C67.74 30.78 69.15 30.69 71.85 29.5C74.4 28.37 73.54 28.37 72.36 28.72L72.22 28.76L72.15 28.78C70.87 29.18 69.55 29.64 68.92 29.84C68.8 29.88 68.65 29.92 68.5 29.96L68.23 30.03C67.72 30.16 67.26 30.3 67.45 30.49Z" stroke="#000000" stroke-opacity="0" stroke-width="1.000000"/>
		</g>
	</g>
</svg>
