<svg width="40.000000" height="40.000000" viewBox="0 0 40 40" fill="none" xmlns="http://www.w3.org/2000/svg" xmlns:xlink="http://www.w3.org/1999/xlink">
	<desc>
			Created with Pixso.
	</desc>
	<defs>
		<clipPath id="clip24_1892">
			<rect width="40.000000" height="40.000000" fill="white" fill-opacity="0"/>
		</clipPath>
	</defs>
	<g clip-path="url(#clip24_1892)">
		<path d="M20 0C8.95 0 0 8.96 0 20C0 31.04 8.95 40 20 40C31.04 40 40 31.04 40 20C40 8.96 31.04 0 20 0Z" fill="#94B982" fill-opacity="1.000000" fill-rule="nonzero"/>
		<path d="M25.04 28.44C23.32 27.56 23.04 29.52 20.04 29.52C17.04 29.52 16.72 27.6 15.04 28.44C13.32 29.32 10 28.8 10 26.44C10 22.84 13.56 19.76 15.56 18.28C16.36 17.68 16.72 16.68 16.44 15.72L14.84 9.8C14.72 9.36 15 8.92 15.44 8.8L16.8 8.52C17.16 8.44 17.52 8.64 17.68 8.96C18.08 9.8 18.96 10.4 19.96 10.4C20.96 10.4 21.84 9.8 22.24 8.96C22.4 8.64 22.76 8.44 23.12 8.52L24.48 8.8C24.92 8.88 25.2 9.36 25.08 9.8L23.48 15.72C23.4 16.04 23.4 16.36 23.44 16.68L21.36 17.24C20.6 17.44 19.76 17.44 19 17.28L18.36 17.12C18.16 17.08 17.92 17.2 17.88 17.44C17.84 17.64 17.96 17.88 18.2 17.92L18.8 18.04C19.24 18.12 19.68 18.2 20.12 18.2C20.6 18.2 21.08 18.16 21.52 18.04L23.68 17.52C23.72 17.52 23.72 17.52 23.72 17.48C23.88 17.8 24.12 18.08 24.44 18.32C26.44 19.76 30 22.88 30 26.48C30.04 28.8 26.76 29.32 25.04 28.44Z" fill="#FFFFFF" fill-opacity="1.000000" fill-rule="nonzero"/>
	</g>
</svg>
