<svg width="40.000000" height="40.000000" viewBox="0 0 40 40" fill="none" xmlns="http://www.w3.org/2000/svg" xmlns:xlink="http://www.w3.org/1999/xlink">
	<desc>
			Created with Pixso.
	</desc>
	<defs>
		<clipPath id="clip24_1965">
			<rect width="40.000000" height="40.000000" fill="white" fill-opacity="0"/>
		</clipPath>
	</defs>
	<g clip-path="url(#clip24_1965)">
		<path d="M20 0C8.97 0 0 8.97 0 20C0 31.02 8.97 40 20 40C31.02 40 40 31.02 40 20C40 8.97 31.02 0 20 0Z" fill="#94B982" fill-opacity="1.000000" fill-rule="nonzero"/>
		<path d="M22.19 17.72C22.16 18.51 23.19 19.25 24.5 19.3C25.81 19.34 26.86 18.67 26.89 17.87C26.92 17.08 25.84 16.11 24.53 16.07C23.22 16.02 22.22 16.92 22.19 17.72ZM20.33 23.57C18.13 23.57 16.57 23.7 16.57 24.51C16.57 25.64 18.07 26.86 20.33 26.86C22.59 26.86 24.09 25.61 24.09 24.51C24.09 23.7 22.54 23.57 20.33 23.57ZM16.06 16.09C14.76 16.13 13.72 17.08 13.75 17.87C13.78 18.67 14.72 19.34 16.03 19.3C17.34 19.26 18.45 18.51 18.42 17.72C18.39 16.92 17.37 16.04 16.06 16.09ZM26.29 13.8L28.05 13.15C29.81 15.54 30.66 18.52 30.66 20.75C30.66 23.21 29.74 25.53 28.2 27.34L26.29 26.63L26.99 28.53C25.12 30.11 22.66 31.07 19.91 30.99C17.65 30.92 15.69 30.2 14.13 29.02L14.84 27.1L12.83 27.84C11.02 25.88 10 23.19 10 20.33C10 17.85 10.87 14.84 12.72 12.55L14.84 13.33L14.04 11.18C15.64 9.81 17.72 8.94 20.33 9C23.15 9.06 25.35 10.24 26.99 11.91L26.29 13.8Z" fill="#FFFFFF" fill-opacity="1.000000" fill-rule="nonzero"/>
	</g>
</svg>
