<svg width="40.000000" height="40.000000" viewBox="0 0 40 40" fill="none" xmlns="http://www.w3.org/2000/svg" xmlns:xlink="http://www.w3.org/1999/xlink">
	<desc>
			Created with Pixso.
	</desc>
	<defs>
		<clipPath id="clip24_1678">
			<rect width="40.000000" height="40.000000" fill="white" fill-opacity="0"/>
		</clipPath>
	</defs>
	<g clip-path="url(#clip24_1678)">
		<path d="M20 0C8.97 0 0 8.97 0 20C0 31.02 8.97 40 20 40C31.02 40 40 31.02 40 20C40 8.97 31.02 0 20 0Z" fill="#000000" fill-opacity="0.098039" fill-rule="nonzero"/>
		<path d="M18.51 20.19L22.42 16.26L27.81 21.66C27.87 21.72 27.92 21.79 27.96 21.85C28.01 21.92 28.05 22 28.08 22.07C28.11 22.15 28.13 22.23 28.15 22.31C28.17 22.39 28.17 22.47 28.17 22.55C28.17 22.64 28.17 22.72 28.15 22.8C28.13 22.88 28.11 22.96 28.08 23.03C28.05 23.11 28.01 23.18 27.96 23.25C27.92 23.32 27.87 23.39 27.81 23.44C27.75 23.5 27.69 23.55 27.63 23.59C27.56 23.64 27.49 23.68 27.42 23.71C27.34 23.74 27.27 23.76 27.19 23.78C27.11 23.8 27.03 23.81 26.96 23.81C26.88 23.81 26.8 23.8 26.72 23.79C26.64 23.78 26.56 23.76 26.49 23.73C26.42 23.7 26.34 23.67 26.28 23.63C26.21 23.59 26.15 23.54 26.09 23.49L23 20.38C22.96 20.35 22.92 20.32 22.88 20.3C22.83 20.28 22.78 20.27 22.73 20.27C22.68 20.27 22.64 20.28 22.59 20.3C22.54 20.32 22.5 20.35 22.47 20.38C22.43 20.42 22.41 20.46 22.39 20.5C22.37 20.55 22.36 20.6 22.36 20.65C22.36 20.7 22.37 20.75 22.39 20.79C22.41 20.84 22.43 20.88 22.47 20.91L25.51 23.97C25.56 24.03 25.62 24.09 25.66 24.16C25.71 24.23 25.75 24.3 25.78 24.38C25.81 24.46 25.83 24.53 25.85 24.62C25.86 24.7 25.87 24.78 25.87 24.86C25.87 24.94 25.86 25.02 25.85 25.11C25.84 25.15 25.83 25.19 25.82 25.23C25.81 25.27 25.79 25.3 25.78 25.34C25.75 25.42 25.71 25.49 25.66 25.56C25.62 25.63 25.56 25.69 25.51 25.75C25.48 25.78 25.45 25.81 25.42 25.83C25.39 25.86 25.35 25.88 25.32 25.9C25.25 25.95 25.18 25.99 25.11 26.02C25.03 26.05 24.96 26.07 24.88 26.09C24.8 26.11 24.72 26.12 24.64 26.12C24.56 26.12 24.48 26.11 24.4 26.1C24.32 26.08 24.24 26.06 24.17 26.03C24.13 26.02 24.09 26 24.06 25.98C24.02 25.96 23.98 25.94 23.95 25.92C23.88 25.88 23.82 25.83 23.76 25.77L20.71 22.71C20.68 22.67 20.63 22.65 20.59 22.63C20.54 22.61 20.5 22.6 20.45 22.6C20.4 22.6 20.35 22.61 20.3 22.63C20.26 22.65 20.22 22.67 20.18 22.71C20.15 22.74 20.12 22.79 20.1 22.83C20.08 22.88 20.07 22.93 20.07 22.98C20.07 23.02 20.08 23.07 20.1 23.12C20.12 23.16 20.15 23.21 20.18 23.24L23.21 26.29C23.27 26.35 23.32 26.41 23.37 26.48C23.41 26.55 23.45 26.62 23.48 26.7C23.51 26.77 23.54 26.85 23.55 26.93C23.57 27.01 23.57 27.09 23.57 27.18C23.57 27.26 23.57 27.34 23.55 27.42C23.53 27.5 23.51 27.58 23.48 27.65C23.45 27.73 23.41 27.8 23.36 27.87C23.34 27.9 23.32 27.94 23.29 27.97C23.27 28 23.24 28.03 23.21 28.06C23.15 28.12 23.09 28.17 23.02 28.22C22.95 28.26 22.88 28.3 22.8 28.33C22.73 28.36 22.65 28.39 22.57 28.4C22.49 28.42 22.41 28.43 22.32 28.43C22.24 28.43 22.16 28.42 22.08 28.4C22 28.39 21.92 28.36 21.84 28.33C21.77 28.3 21.69 28.26 21.63 28.22C21.56 28.17 21.49 28.12 21.44 28.06L18.4 25.01C18.36 24.97 18.32 24.95 18.27 24.93C18.23 24.91 18.18 24.9 18.13 24.9C18.08 24.9 18.03 24.91 17.99 24.93C17.94 24.95 17.9 24.97 17.87 25.01C17.83 25.04 17.81 25.09 17.79 25.13C17.77 25.18 17.76 25.23 17.76 25.27C17.76 25.32 17.77 25.37 17.79 25.42C17.8 25.44 17.81 25.46 17.82 25.48C17.83 25.5 17.85 25.52 17.87 25.54L20.95 28.65C21.01 28.71 21.05 28.77 21.09 28.84C21.13 28.91 21.17 28.98 21.2 29.05C21.22 29.13 21.24 29.2 21.26 29.28C21.27 29.36 21.27 29.44 21.27 29.52C21.27 29.6 21.26 29.68 21.24 29.75C21.23 29.83 21.2 29.91 21.17 29.98C21.14 30.05 21.1 30.12 21.06 30.19C21.02 30.25 20.97 30.31 20.91 30.37C20.85 30.43 20.79 30.48 20.72 30.53C20.65 30.57 20.58 30.61 20.5 30.64C20.43 30.67 20.35 30.7 20.27 30.71C20.19 30.73 20.11 30.74 20.02 30.74C19.94 30.74 19.86 30.73 19.78 30.71C19.7 30.7 19.62 30.67 19.54 30.64C19.47 30.61 19.4 30.57 19.33 30.53C19.26 30.48 19.19 30.43 19.14 30.37L14.91 26.12L10.88 22.07C8.37 19.55 8.37 15.41 10.88 12.89C11.03 12.74 11.19 12.6 11.35 12.46C11.51 12.33 11.68 12.2 11.86 12.08C12.04 11.96 12.22 11.86 12.4 11.76C12.59 11.66 12.78 11.57 12.98 11.48C13.17 11.4 13.37 11.33 13.57 11.27C13.78 11.21 13.98 11.16 14.19 11.12C14.4 11.08 14.61 11.05 14.82 11.03C15.03 11 15.24 10.99 15.45 11C16.79 11 18.13 11.41 19.26 12.23L14.92 16.59C14.86 16.65 14.81 16.71 14.76 16.77C14.7 16.84 14.65 16.9 14.61 16.97C14.56 17.04 14.52 17.12 14.48 17.19C14.44 17.26 14.41 17.34 14.37 17.42C14.34 17.49 14.31 17.57 14.29 17.65C14.27 17.73 14.25 17.81 14.23 17.89C14.21 17.97 14.2 18.06 14.19 18.14C14.19 18.22 14.18 18.31 14.18 18.39C14.18 18.47 14.19 18.56 14.19 18.64C14.2 18.72 14.21 18.8 14.23 18.89C14.25 18.97 14.27 19.05 14.29 19.13C14.31 19.21 14.34 19.29 14.37 19.36C14.41 19.44 14.44 19.52 14.48 19.59C14.52 19.66 14.56 19.74 14.61 19.8C14.65 19.87 14.7 19.94 14.76 20.01C14.78 20.04 14.81 20.07 14.84 20.1C14.87 20.13 14.89 20.16 14.92 20.19C14.98 20.25 15.04 20.31 15.11 20.36C15.17 20.41 15.24 20.46 15.31 20.51C15.34 20.53 15.38 20.55 15.41 20.58C15.45 20.6 15.48 20.62 15.52 20.64C15.59 20.68 15.67 20.71 15.75 20.74C15.82 20.78 15.9 20.8 15.98 20.83C16.06 20.85 16.14 20.87 16.22 20.89C16.3 20.9 16.39 20.92 16.47 20.92C16.55 20.93 16.63 20.94 16.72 20.94C16.8 20.94 16.88 20.93 16.97 20.92C17.05 20.92 17.13 20.9 17.21 20.89C17.29 20.87 17.37 20.85 17.45 20.83C17.53 20.8 17.61 20.78 17.69 20.74C17.77 20.71 17.84 20.68 17.91 20.64C17.95 20.62 17.99 20.6 18.02 20.58C18.06 20.55 18.09 20.53 18.13 20.51C18.2 20.46 18.26 20.41 18.33 20.36C18.39 20.31 18.45 20.25 18.51 20.19ZM29.12 12.97C27.87 11.65 26.22 11 24.57 11C22.92 11 21.27 11.65 20.02 12.97L15.65 17.57C15.05 18.19 15.05 19.21 15.65 19.84C15.72 19.91 15.79 19.98 15.87 20.04C15.92 20.07 15.96 20.09 16 20.12C16.05 20.14 16.09 20.17 16.14 20.19C16.23 20.23 16.33 20.26 16.43 20.28C16.53 20.3 16.63 20.31 16.73 20.31C16.83 20.31 16.93 20.3 17.03 20.28C17.13 20.26 17.22 20.23 17.32 20.19C17.41 20.15 17.5 20.1 17.58 20.04C17.66 19.98 17.74 19.91 17.81 19.84L22.07 15.35C22.09 15.33 22.12 15.31 22.14 15.29C22.16 15.28 22.17 15.27 22.19 15.26C22.2 15.25 22.21 15.25 22.23 15.24C22.26 15.23 22.29 15.22 22.32 15.21C22.36 15.2 22.39 15.2 22.42 15.2C22.46 15.2 22.49 15.2 22.52 15.21C22.55 15.22 22.58 15.23 22.62 15.24C22.65 15.25 22.67 15.27 22.7 15.29C22.71 15.3 22.73 15.31 22.74 15.32C22.75 15.33 22.76 15.34 22.78 15.35L29.36 22.28C31.62 19.63 31.54 15.51 29.12 12.97Z" fill="#FFFFFF" fill-opacity="1.000000" fill-rule="evenodd"/>
	</g>
</svg>
