<svg width="40.000000" height="40.000000" viewBox="0 0 40 40" fill="none" xmlns="http://www.w3.org/2000/svg" xmlns:xlink="http://www.w3.org/1999/xlink">
	<desc>
			Created with Pixso.
	</desc>
	<defs>
		<clipPath id="clip20_1573">
			<rect width="40.000000" height="40.000000" fill="white" fill-opacity="0"/>
		</clipPath>
	</defs>
	<g clip-path="url(#clip20_1573)">
		<path d="M20 0C8.97 0 0 8.97 0 20C0 31.02 8.97 40 20 40C31.02 40 40 31.02 40 20C40 8.97 31.02 0 20 0Z" fill="#000000" fill-opacity="0.098039" fill-rule="nonzero"/>
		<path d="M14.5 15L14.5 14L20.5 14L20.5 15L14.5 15ZM14.5 18L14.5 17L20.5 17L20.5 18L14.5 18ZM14.5 21L14.5 20L20.5 20L20.5 21L14.5 21ZM14.5 24L14.5 23L20.5 23L20.5 24L14.5 24ZM29 28L29 16.5C29 16.46 28.99 16.43 28.99 16.4C28.98 16.37 28.97 16.33 28.96 16.3C28.94 16.27 28.93 16.24 28.91 16.22C28.89 16.19 28.87 16.16 28.85 16.14C28.83 16.12 28.8 16.1 28.77 16.08C28.75 16.06 28.72 16.05 28.69 16.03C28.66 16.02 28.62 16.01 28.59 16C28.56 16 28.53 16 28.5 16L25.5 16C25.46 16 25.43 16 25.4 16C25.37 16.01 25.33 16.02 25.3 16.03C25.27 16.05 25.24 16.06 25.22 16.08C25.19 16.1 25.16 16.12 25.14 16.14C25.12 16.16 25.1 16.19 25.08 16.22C25.06 16.24 25.05 16.27 25.03 16.3C25.02 16.33 25.01 16.37 25 16.4C25 16.43 25 16.46 25 16.5L25 28L24 28L24 11C24 10.93 23.99 10.87 23.98 10.8C23.96 10.74 23.94 10.67 23.92 10.61C23.89 10.55 23.86 10.5 23.83 10.44C23.79 10.39 23.75 10.34 23.7 10.29C23.66 10.24 23.61 10.2 23.55 10.16C23.5 10.13 23.44 10.1 23.38 10.07C23.32 10.05 23.26 10.03 23.19 10.01C23.13 10 23.06 10 23 10L11.99 10C11.93 10 11.86 10 11.8 10.01C11.73 10.03 11.67 10.05 11.61 10.07C11.55 10.1 11.49 10.13 11.44 10.16C11.38 10.2 11.33 10.24 11.29 10.29C11.24 10.34 11.2 10.39 11.16 10.44C11.13 10.5 11.1 10.55 11.07 10.61C11.05 10.67 11.03 10.74 11.01 10.8C11 10.87 11 10.93 11 11L11 28L10.5 28C10.22 28 10 28.22 10 28.5C10 28.77 10.22 29 10.5 29L29.5 29C29.77 29 30 28.77 30 28.5C30 28.22 29.77 28 29.5 28L29 28Z" fill="#FFFFFF" fill-opacity="1.000000" fill-rule="nonzero"/>
	</g>
</svg>
