<svg width="40.000000" height="40.000000" viewBox="0 0 40 40" fill="none" xmlns="http://www.w3.org/2000/svg" xmlns:xlink="http://www.w3.org/1999/xlink">
	<desc>
			Created with Pixso.
	</desc>
	<defs>
		<clipPath id="clip33_1801">
			<rect width="40.000000" height="40.000000" fill="white" fill-opacity="0"/>
		</clipPath>
	</defs>
	<g clip-path="url(#clip33_1801)">
		<path d="M20 0C8.97 0 0 8.97 0 20C0 31.02 8.97 40 20 40C31.02 40 40 31.02 40 20C40 8.97 31.02 0 20 0Z" fill="#000000" fill-opacity="0.098039" fill-rule="nonzero"/>
		<path d="M19.04 16.45C19.05 17.12 18.86 17.72 18.48 18.26C18.09 18.79 17.58 19.15 16.96 19.35L17.23 28.34C17.25 28.79 17.09 29.18 16.77 29.5C16.45 29.83 16.06 30 15.6 30L15.4 30C14.94 30 14.55 29.83 14.23 29.5C13.92 29.18 13.76 28.79 13.78 28.34L14.06 19.35C13.45 19.14 12.94 18.78 12.55 18.26C12.17 17.74 11.98 17.15 12 16.48L12.11 10.82C12.11 10.6 12.2 10.41 12.39 10.25C12.59 10.08 12.81 10 13.04 10C13.28 10 13.48 10.08 13.65 10.25C13.81 10.41 13.89 10.6 13.89 10.82L14 15.48C14.07 15.52 14.15 15.52 14.22 15.48L14.6 10.76C14.63 10.55 14.73 10.37 14.88 10.22C15.04 10.07 15.22 10 15.45 10L15.56 10C15.77 10 15.95 10.07 16.11 10.22C16.26 10.37 16.35 10.55 16.38 10.76L16.76 15.45C16.84 15.51 16.92 15.52 17 15.48L17.1 10.82C17.11 10.6 17.19 10.41 17.35 10.25C17.51 10.1 17.71 10.02 17.94 10.02L18.05 10.02C18.28 10.02 18.47 10.1 18.63 10.25C18.8 10.41 18.88 10.6 18.9 10.82L19.04 16.45ZM27.45 28.34C27.46 28.79 27.31 29.17 27 29.49C26.67 29.81 26.29 29.97 25.85 29.97L25.31 29.97C24.86 29.97 24.48 29.81 24.18 29.49C23.87 29.17 23.72 28.79 23.73 28.34L23.82 21.17L22.95 21.17C22.62 21.17 22.34 21.06 22.11 20.82C21.87 20.58 21.75 20.3 21.75 19.98L21.75 13.89C21.75 13.18 21.92 12.53 22.27 11.93C22.62 11.34 23.09 10.87 23.69 10.52C24.3 10.17 24.95 10 25.64 10L25.96 10C26.28 10 26.57 10.11 26.8 10.35C27.04 10.58 27.16 10.85 27.16 11.18L27.31 20.93L27.45 28.34Z" fill="#FFFFFF" fill-opacity="1.000000" fill-rule="nonzero"/>
	</g>
</svg>
