<svg width="40.000000" height="40.000000" viewBox="0 0 40 40" fill="none" xmlns="http://www.w3.org/2000/svg" xmlns:xlink="http://www.w3.org/1999/xlink">
	<desc>
			Created with Pixso.
	</desc>
	<defs>
		<clipPath id="clip20_1605">
			<rect width="40.000000" height="40.000000" fill="white" fill-opacity="0"/>
		</clipPath>
	</defs>
	<g clip-path="url(#clip20_1605)">
		<path d="M20 0C8.97 0 0 8.97 0 20C0 31.02 8.97 40 20 40C31.02 40 40 31.02 40 20C40 8.97 31.02 0 20 0Z" fill="#000000" fill-opacity="0.098039" fill-rule="nonzero"/>
		<path d="M26.48 19.31C27.17 19.31 27.76 19.06 28.26 18.56C28.75 18.07 29 17.47 29 16.76L29 13.52C29 12.82 28.75 12.23 28.26 11.73C27.76 11.24 27.17 11 26.48 11L23.24 11C22.53 11 21.93 11.24 21.44 11.73C20.94 12.23 20.69 12.82 20.69 13.52L20.69 16.76C20.69 17.47 20.94 18.07 21.44 18.56C21.93 19.06 22.53 19.31 23.24 19.31L26.48 19.31ZM26.48 29C27.17 29 27.76 28.75 28.26 28.26C28.75 27.76 29 27.17 29 26.47L29 23.23C29 22.52 28.75 21.92 28.26 21.43C27.76 20.93 27.17 20.68 26.48 20.68L23.24 20.68C22.53 20.68 21.93 20.93 21.44 21.43C20.94 21.92 20.69 22.52 20.69 23.23L20.69 26.47C20.69 27.17 20.94 27.76 21.44 28.26C21.93 28.75 22.53 29 23.24 29L26.48 29ZM16.78 29C17.49 29 18.09 28.75 18.58 28.26C19.08 27.76 19.33 27.17 19.33 26.47L19.33 23.23C19.33 22.52 19.08 21.92 18.58 21.43C18.09 20.93 17.49 20.68 16.78 20.68L13.54 20.68C12.85 20.68 12.25 20.93 11.76 21.43C11.27 21.92 11.02 22.52 11.02 23.23L11.02 26.47C11.02 27.17 11.27 27.76 11.76 28.26C12.25 28.75 12.85 29 13.54 29L16.78 29ZM13.54 19.31C12.83 19.31 12.23 19.06 11.74 18.56C11.24 18.07 11 17.47 11 16.76L11 13.52C11 12.82 11.24 12.23 11.74 11.73C12.23 11.24 12.83 11 13.54 11L16.78 11C17.47 11 18.06 11.24 18.56 11.73C19.05 12.23 19.3 12.82 19.3 13.52L19.3 16.76C19.3 17.47 19.05 18.07 18.56 18.56C18.06 19.06 17.47 19.31 16.78 19.31L13.54 19.31Z" fill="#FFFFFF" fill-opacity="1.000000" fill-rule="nonzero"/>
	</g>
</svg>
