<svg width="40.000000" height="40.000000" viewBox="0 0 40 40" fill="none" xmlns="http://www.w3.org/2000/svg" xmlns:xlink="http://www.w3.org/1999/xlink">
	<desc>
			Created with Pixso.
	</desc>
	<defs>
		<clipPath id="clip24_1913">
			<rect width="40.000000" height="40.000000" fill="white" fill-opacity="0"/>
		</clipPath>
	</defs>
	<g clip-path="url(#clip24_1913)">
		<path d="M20 0C8.97 0 0 8.97 0 20C0 31.02 8.97 40 20 40C31.02 40 40 31.02 40 20C40 8.97 31.02 0 20 0Z" fill="#94B982" fill-opacity="1.000000" fill-rule="nonzero"/>
		<path d="M30 15.99C30 12.69 27.33 10 24.02 10C23.64 9.99 23.27 10.03 22.89 10.1C22.52 10.17 22.16 10.27 21.81 10.41C21.46 10.55 21.12 10.72 20.8 10.93C20.48 11.13 20.18 11.36 19.91 11.62L28.37 20.08C28.63 19.81 28.86 19.51 29.06 19.19C29.26 18.88 29.43 18.54 29.57 18.19C29.71 17.84 29.82 17.48 29.89 17.11C29.96 16.74 29.99 16.37 30 15.99ZM11.61 24.91C11.51 24.99 11.42 25.09 11.34 25.19C11.26 25.29 11.19 25.4 11.12 25.51C11.06 25.62 11.01 25.74 10.96 25.86C10.91 25.98 10.88 26.11 10.85 26.24C10.82 26.36 10.81 26.49 10.8 26.62C10.79 26.75 10.8 26.88 10.81 27.01C10.82 27.14 10.85 27.26 10.88 27.39C10.91 27.52 10.96 27.64 11.01 27.76L11.01 27.92L10 29.02L10.72 29.74L11.76 28.71C11.86 28.78 11.98 28.85 12.09 28.91C12.21 28.97 12.33 29.02 12.46 29.06C12.58 29.11 12.71 29.14 12.84 29.16C12.97 29.18 13.1 29.19 13.23 29.19C13.36 29.19 13.5 29.18 13.63 29.16C13.76 29.14 13.88 29.11 14.01 29.06C14.13 29.02 14.26 28.97 14.37 28.91C14.49 28.85 14.6 28.78 14.71 28.71L15 28.49L21.57 22.74L17.5 18.67L11.61 24.91ZM19.07 12.58C18.95 12.76 18.83 12.95 18.73 13.14C18.63 13.33 18.53 13.53 18.45 13.73C18.37 13.93 18.3 14.14 18.24 14.35C18.18 14.56 18.13 14.77 18.1 14.99C18.06 15.2 18.04 15.42 18.03 15.64C18.02 15.86 18.02 16.08 18.03 16.29C18.04 16.51 18.07 16.73 18.1 16.94C18.14 17.16 18.19 17.37 18.25 17.58L22.38 21.74C24.09 22.23 25.92 21.93 27.38 20.92L19.07 12.58Z" fill="#FFFFFF" fill-opacity="1.000000" fill-rule="nonzero"/>
	</g>
</svg>
