<svg width="40.000000" height="40.000000" viewBox="0 0 40 40" fill="none" xmlns="http://www.w3.org/2000/svg" xmlns:xlink="http://www.w3.org/1999/xlink">
	<desc>
			Created with Pixso.
	</desc>
	<defs>
		<clipPath id="clip20_1507">
			<rect width="40.000000" height="40.000000" fill="white" fill-opacity="0"/>
		</clipPath>
	</defs>
	<g clip-path="url(#clip20_1507)">
		<path d="M20 0C8.97 0 0 8.97 0 20C0 31.02 8.97 40 20 40C31.02 40 40 31.02 40 20C40 8.97 31.02 0 20 0Z" fill="#000000" fill-opacity="0.098039" fill-rule="nonzero"/>
		<path d="M11.52 12.98L18.69 20.03L16.9 21.88C14.62 19.84 11.88 18.45 9.18 17.93C9.51 16.14 10.3 14.43 11.52 12.98ZM8.97 19.72C11.21 20.21 13.61 21.45 15.59 23.19L11.64 27.2C9.82 25.07 8.9 22.4 8.97 19.72ZM12.95 28.5L16.9 24.49C18.66 26.44 19.93 28.81 20.48 31.05C17.84 31.15 15.13 30.33 12.95 28.5ZM22.3 30.81C21.7 28.14 20.24 25.4 18.2 23.19L20 21.33L27.2 28.35C25.77 29.6 24.1 30.42 22.3 30.81ZM28.5 27.04L21.33 20L23.06 18.2C25.34 20.24 28.11 21.67 30.84 22.21C30.45 23.94 29.69 25.62 28.5 27.04ZM31.02 20.39C28.72 19.9 26.31 18.66 24.34 16.93L28.38 12.82C30.23 14.98 31.12 17.69 31.02 20.39ZM27.07 11.52L23.03 15.62C21.24 13.64 19.96 11.27 19.45 9C22.12 8.87 24.86 9.66 27.07 11.52ZM17.63 9.24C18.2 11.94 19.66 14.68 21.76 16.96L20 18.72L12.79 11.64C14.22 10.45 15.86 9.6 17.63 9.24Z" fill="#FFFFFF" fill-opacity="1.000000" fill-rule="nonzero"/>
	</g>
</svg>
