<svg width="40.000000" height="40.000000" viewBox="0 0 40 40" fill="none" xmlns="http://www.w3.org/2000/svg" xmlns:xlink="http://www.w3.org/1999/xlink">
	<desc>
			Created with Pixso.
	</desc>
	<defs>
		<clipPath id="clip24_1934">
			<rect width="40.000000" height="40.000000" fill="white" fill-opacity="0"/>
		</clipPath>
	</defs>
	<g clip-path="url(#clip24_1934)">
		<path d="M20 0C8.97 0 0 8.97 0 20C0 31.02 8.97 40 20 40C31.02 40 40 31.02 40 20C40 8.97 31.02 0 20 0Z" fill="#94B982" fill-opacity="1.000000" fill-rule="nonzero"/>
		<path d="M10 16.5C10 17.85 11.14 19 12.5 19C13.85 19 15 17.85 15 16.5C15 15.14 13.85 14 12.5 14C11.14 14 10 15.14 10 16.5ZM14.5 12.5C14.5 13.85 15.64 15 17 15C18.35 15 19.5 13.85 19.5 12.5C19.5 11.14 18.35 10 17 10C15.64 10 14.5 11.14 14.5 12.5ZM20.5 12.5C20.5 13.85 21.64 15 23 15C24.35 15 25.5 13.85 25.5 12.5C25.5 11.14 24.35 10 23 10C21.64 10 20.5 11.14 20.5 12.5ZM25 16.5C25 17.85 26.14 19 27.5 19C28.85 19 30 17.85 30 16.5C30 15.14 28.85 14 27.5 14C26.14 14 25 15.14 25 16.5ZM25.35 21.85C24.5 20.85 23.78 20 22.85 18.92C22.35 18.35 21.78 17.85 21.14 17.64C21.07 17.64 20.92 17.57 20.78 17.57C20.5 17.5 20.28 17.5 20 17.5C19.71 17.5 19.5 17.5 19.21 17.57C19.07 17.57 19 17.64 18.85 17.64C18.14 17.85 17.57 18.42 17.14 18.92C16.28 19.92 15.57 20.78 14.64 21.85C13.35 23.14 11.71 24.64 12 26.64C12.28 27.64 13 28.64 14.35 29C15.07 29.14 17.42 28.57 19.92 28.57L20.07 28.57C22.57 28.57 24.85 29.14 25.64 29C26.92 28.71 27.71 27.71 28 26.64C28.28 24.64 26.64 23.14 25.35 21.85Z" fill="#FFFFFF" fill-opacity="1.000000" fill-rule="nonzero"/>
	</g>
</svg>
