<svg width="40.000000" height="40.000000" viewBox="0 0 40 40" fill="none" xmlns="http://www.w3.org/2000/svg" xmlns:xlink="http://www.w3.org/1999/xlink">
	<desc>
			Created with Pixso.
	</desc>
	<defs>
		<clipPath id="clip61_3742">
			<rect width="40.000000" height="40.000000" fill="white" fill-opacity="0"/>
		</clipPath>
	</defs>
	<g clip-path="url(#clip61_3742)">
		<path d="M20 0C8.95 0 0 8.95 0 20C0 31.04 8.95 40 20 40C31.04 40 40 31.04 40 20C40 8.95 31.04 0 20 0Z" fill="#000000" fill-opacity="0.098039" fill-rule="nonzero"/>
		<path d="M17.5 26.5L16.8 25.02C17 24.91 17.15 24.78 17.26 24.62C17.36 24.46 17.42 24.3 17.42 24.16L17.42 11.96L27.09 11.96L27.09 19.69L27.42 19.38L28.28 20.64C27.18 21.32 26.06 21.99 24.92 22.65L28.44 24.78L27.57 26.1C25.03 24.48 22.5 22.89 20 21.33L20.78 20.15L23.52 21.79C24.61 21.17 25.7 20.52 26.8 19.86L19.14 19.86L19.14 24.29C20.34 23.99 21.56 23.65 22.82 23.29L23.12 24.86C21.66 25.27 20.18 25.68 18.68 26.1C18.25 26.2 17.86 26.34 17.5 26.5ZM10.54 27.19L13.12 24.53L13.12 19.45L10.78 19.45L10.78 17.74L14.92 17.74L14.92 24.53C15.18 24.95 15.52 25.34 15.94 25.71C16.19 25.91 16.47 26.09 16.8 26.26C17.21 26.47 17.65 26.6 18.12 26.66C18.69 26.7 19.29 26.72 19.92 26.72L29.05 26.72L28.68 28.43L19.59 28.43C18.98 28.43 18.36 28.41 17.73 28.38C17.21 28.32 16.69 28.19 16.18 27.98C15.85 27.82 15.54 27.64 15.23 27.43C14.81 27.06 14.41 26.67 14.05 26.26C13.23 27.1 12.42 27.98 11.64 28.91L10.54 27.19ZM11.55 12.52L12.9 11.33C13.88 12.54 14.87 13.74 15.85 14.93L14.37 16.1C13.43 14.89 12.49 13.7 11.55 12.52ZM25.45 13.6L19.14 13.6L19.14 15.15L25.45 15.15L25.45 13.6ZM19.14 16.72L19.14 18.21L25.45 18.21L25.45 16.72L19.14 16.72Z" fill="#FFFFFF" fill-opacity="1.000000" fill-rule="nonzero"/>
	</g>
</svg>
