<svg width="40.000000" height="40.000000" viewBox="0 0 40 40" fill="none" xmlns="http://www.w3.org/2000/svg" xmlns:xlink="http://www.w3.org/1999/xlink">
	<desc>
			Created with Pixso.
	</desc>
	<defs>
		<clipPath id="clip61_3739">
			<rect width="40.000000" height="40.000000" fill="white" fill-opacity="0"/>
		</clipPath>
	</defs>
	<g clip-path="url(#clip61_3739)">
		<path d="M20 0C8.97 0 0 8.97 0 20C0 31.02 8.97 40 20 40C31.02 40 40 31.02 40 20C40 8.97 31.02 0 20 0Z" fill="#000000" fill-opacity="0.098039" fill-rule="nonzero"/>
		<path d="M11.31 19.19L17.01 19.19L17.01 17.86L12.71 17.86L12.71 16.38L17.01 16.38L17.01 14.9L11.63 14.9L11.63 13.42L16.31 13.42C15.95 12.9 15.56 12.38 15.13 11.85L16.71 11C17.23 11.66 17.73 12.36 18.19 13.09L17.63 13.42L21.85 13.42C22.43 12.63 22.97 11.82 23.5 11L25.13 11.85C24.77 12.38 24.41 12.9 24.05 13.42L28.9 13.42L28.9 14.9L23.03 14.9L23.03 16.38L27.25 16.38L27.25 19.19L29.35 19.19L29.35 20.68L27.25 20.68L27.25 23.57L23.73 23.57C24.52 24.4 25.41 25.15 26.4 25.83C27.38 26.46 28.42 26.96 29.51 27.31L28.65 28.95C26.52 28.08 24.65 26.8 23.03 25.14L23.03 29.44L21.31 29.44L21.31 23.57L18.73 23.57L18.73 29.44L17.01 29.44L17.01 25.3C15.56 26.86 13.89 28.15 12.01 29.19L11 27.47C11.99 27.01 12.96 26.46 13.9 25.83C14.83 25.15 15.66 24.4 16.4 23.57L12.55 23.57L12.55 22L17.01 22L17.01 20.68L11.31 20.68L11.31 19.19ZM21.31 14.9L18.73 14.9L18.73 16.38L21.31 16.38L21.31 14.9ZM21.31 17.86L18.73 17.86L18.73 19.19L21.31 19.19L21.31 17.86ZM25.53 19.19L25.53 17.86L23.03 17.86L23.03 19.19L25.53 19.19ZM21.31 20.68L18.73 20.68L18.73 22L21.31 22L21.31 20.68ZM23.03 20.68L23.03 22L25.53 22L25.53 20.68L23.03 20.68Z" fill="#FFFFFF" fill-opacity="1.000000" fill-rule="nonzero"/>
	</g>
</svg>
