<svg width="40.000000" height="40.000000" viewBox="0 0 40 40" fill="none" xmlns="http://www.w3.org/2000/svg" xmlns:xlink="http://www.w3.org/1999/xlink">
	<desc>
			Created with Pixso.
	</desc>
	<defs>
		<clipPath id="clip61_3736">
			<rect width="40.000000" height="40.000000" fill="white" fill-opacity="0"/>
		</clipPath>
	</defs>
	<g clip-path="url(#clip61_3736)">
		<path d="M20 0C8.97 0 0 8.97 0 20C0 31.02 8.97 40 20 40C31.02 40 40 31.02 40 20C40 8.97 31.02 0 20 0Z" fill="#000000" fill-opacity="0.098039" fill-rule="nonzero"/>
		<path d="M10 25.64C10 26.4 10.26 27.05 10.79 27.57C11.32 28.11 11.97 28.37 12.72 28.37L27.27 28.37C28.02 28.37 28.67 28.11 29.2 27.57C29.73 27.05 30 26.4 30 25.64L30 17.24L10 17.24L10 25.64ZM12.72 12C11.97 12 11.32 12.26 10.79 12.8C10.26 13.32 10 13.97 10 14.72L10 15.88L30 15.88L30 14.72C30 13.97 29.73 13.32 29.2 12.8C28.67 12.26 28.02 12 27.27 12L12.72 12ZM13.4 20.18C13.21 20.18 13.05 20.12 12.92 19.98C12.79 19.86 12.72 19.7 12.72 19.51C12.72 19.32 12.79 19.15 12.92 19.02C13.05 18.88 13.21 18.81 13.4 18.81L19.29 18.81C19.48 18.81 19.65 18.88 19.79 19.02C19.93 19.15 20 19.32 20 19.51C20 19.7 19.93 19.86 19.79 19.98C19.65 20.12 19.48 20.18 19.29 20.18L13.4 20.18Z" fill="#FFFFFF" fill-opacity="1.000000" fill-rule="nonzero"/>
	</g>
</svg>
