<svg width="24.000000" height="24.000000" viewBox="0 0 24 24" fill="none" xmlns="http://www.w3.org/2000/svg" xmlns:xlink="http://www.w3.org/1999/xlink">
	<desc>
			Created with Pixso.
	</desc>
	<defs>
		<clipPath id="clip14_2463">
			<rect width="24.000000" height="24.000000" fill="white" fill-opacity="0"/>
		</clipPath>
	</defs>
	<g clip-path="url(#clip14_2463)">
		<g opacity="0.000000">
			<rect width="24.000000" height="24.000000" fill="#000000" fill-opacity="1.000000"/>
		</g>
		<path d="M7.84 6.49C7.56 6.49 7.32 6.59 7.12 6.78L2.94 10.92C2.64 11.25 2.49 11.61 2.49 12C2.49 12.41 2.64 12.77 2.94 13.08L7.12 17.2C7.32 17.4 7.56 17.5 7.84 17.5L21.06 17.5C21.16 17.5 21.26 17.43 21.34 17.29C21.43 17.17 21.47 17.01 21.47 16.82L21.47 7.17C21.47 6.98 21.43 6.82 21.34 6.69C21.26 6.56 21.16 6.49 21.06 6.49L7.84 6.49ZM21.06 4.98C21.59 4.98 22.04 5.2 22.42 5.62C22.8 6.04 22.98 6.56 22.98 7.17L22.98 16.79C22.98 17.4 22.8 17.92 22.42 18.35C22.04 18.77 21.59 18.98 21.06 18.98L7.84 18.98C7.17 18.98 6.58 18.74 6.06 18.26L1.89 14.14C1.3 13.54 1 12.83 1 12C1 11.6 1.08 11.21 1.23 10.85C1.38 10.48 1.6 10.15 1.89 9.85L6.06 5.7C6.58 5.22 7.17 4.98 7.84 4.98L21.06 4.98ZM17.27 14.21C17.42 14.35 17.49 14.52 17.49 14.74C17.49 14.94 17.42 15.12 17.27 15.26C17.11 15.4 16.93 15.48 16.72 15.48C16.54 15.48 16.37 15.4 16.19 15.26L13.98 13.03L11.75 15.26C11.61 15.4 11.43 15.48 11.22 15.48C11.02 15.48 10.84 15.4 10.69 15.26C10.55 15.12 10.48 14.94 10.48 14.74C10.48 14.52 10.55 14.35 10.69 14.21L12.93 11.98L10.69 9.76C10.55 9.58 10.48 9.4 10.48 9.21C10.48 9 10.55 8.82 10.69 8.68C10.84 8.54 11.02 8.46 11.22 8.46C11.43 8.46 11.61 8.54 11.75 8.68L13.98 10.92L16.19 8.68C16.37 8.54 16.55 8.46 16.74 8.46C16.95 8.46 17.13 8.54 17.27 8.68C17.42 8.82 17.49 9 17.49 9.21C17.49 9.4 17.42 9.58 17.27 9.76L15.04 11.98L17.27 14.21Z" fill="#191919" fill-opacity="1.000000" fill-rule="nonzero"/>
	</g>
</svg>
