<svg width="40.000000" height="40.000000" viewBox="0 0 40 40" fill="none" xmlns="http://www.w3.org/2000/svg" xmlns:xlink="http://www.w3.org/1999/xlink">
	<desc>
			Created with Pixso.
	</desc>
	<defs>
		<clipPath id="clip24_1980">
			<rect width="40.000000" height="40.000000" fill="white" fill-opacity="0"/>
		</clipPath>
	</defs>
	<g clip-path="url(#clip24_1980)">
		<path d="M20 0C8.97 0 0 8.97 0 20C0 31.02 8.97 40 20 40C31.02 40 40 31.02 40 20C40 8.97 31.02 0 20 0Z" fill="#000000" fill-opacity="0.098039" fill-rule="nonzero"/>
		<path d="M9 20C9 18.89 9.89 18 11 18C12.1 18 13 18.89 13 20C13 21.1 12.1 22 11 22C9.89 22 9 21.1 9 20ZM18 20C18 18.89 18.89 18 20 18C21.1 18 22 18.89 22 20C22 21.1 21.1 22 20 22C18.89 22 18 21.1 18 20ZM29 18C27.89 18 27 18.89 27 20C27 21.1 27.89 22 29 22C30.1 22 31 21.1 31 20C31 18.89 30.1 18 29 18Z" fill="#FFFFFF" fill-opacity="1.000000" fill-rule="evenodd"/>
	</g>
</svg>
