<svg width="12.000000" height="12.000000" viewBox="0 0 12 12" fill="none" xmlns="http://www.w3.org/2000/svg" xmlns:xlink="http://www.w3.org/1999/xlink">
	<desc>
			Created with Pixso.
	</desc>
	<defs>
		<clipPath id="clip169_1626">
			<rect width="12.000000" height="12.000000" fill="white" fill-opacity="0"/>
		</clipPath>
	</defs>
	<g clip-path="url(#clip169_1626)">
		<path d="M11.09 4.36L6.54 9.34C6.5 9.38 6.46 9.42 6.42 9.45C6.38 9.48 6.34 9.5 6.29 9.52C6.25 9.54 6.2 9.56 6.15 9.57C6.1 9.58 6.05 9.59 6 9.59C5.95 9.59 5.89 9.58 5.85 9.57C5.8 9.56 5.75 9.54 5.7 9.52C5.65 9.5 5.61 9.48 5.57 9.45C5.53 9.42 5.49 9.38 5.46 9.34L0.9 4.36C0.68 4.12 0.61 3.78 0.72 3.48C0.84 3.18 1.12 2.97 1.44 2.94L10.55 2.94C10.87 2.96 11.15 3.17 11.27 3.48C11.38 3.78 11.32 4.12 11.09 4.36Z" fill="#000000" fill-opacity="0.600000" fill-rule="nonzero"/>
	</g>
</svg>
