<svg width="24.000000" height="24.000000" viewBox="0 0 24 24" fill="none" xmlns="http://www.w3.org/2000/svg" xmlns:xlink="http://www.w3.org/1999/xlink">
	<desc>
			Created with Pixso.
	</desc>
	<defs>
		<clipPath id="clip188_4507">
			<rect id="svg" width="24.000000" height="24.000000" fill="white" fill-opacity="0"/>
		</clipPath>
	</defs>
	<g clip-path="url(#clip188_4507)">
		<g opacity="0.000000">
			<rect id="rect" width="24.000000" height="24.000000" fill="#000000" fill-opacity="1.000000"/>
		</g>
		<path id="path" d="M2.24 9.27L2.24 21C2.24 21.09 2.25 21.19 2.27 21.29C2.29 21.38 2.32 21.48 2.36 21.57C2.4 21.66 2.44 21.75 2.5 21.83C2.55 21.91 2.61 21.99 2.68 22.06C2.75 22.13 2.83 22.19 2.91 22.24C2.99 22.3 3.08 22.34 3.17 22.38C3.26 22.42 3.36 22.45 3.45 22.47C3.55 22.49 3.65 22.5 3.74 22.5L20.25 22.5C20.34 22.5 20.44 22.49 20.54 22.47C20.63 22.45 20.73 22.42 20.82 22.38C20.91 22.34 21 22.3 21.08 22.24C21.16 22.19 21.24 22.13 21.31 22.06C21.38 21.99 21.44 21.91 21.49 21.83C21.55 21.75 21.59 21.66 21.63 21.57C21.67 21.48 21.7 21.38 21.72 21.29C21.74 21.19 21.75 21.09 21.75 21L21.75 9.27C21.75 9.15 21.73 9.03 21.7 8.91C21.68 8.8 21.63 8.69 21.58 8.58C21.53 8.47 21.46 8.38 21.38 8.29C21.3 8.19 21.22 8.12 21.12 8.05L12.87 2.12C12.81 2.08 12.74 2.04 12.67 2C12.6 1.97 12.53 1.94 12.45 1.91C12.38 1.89 12.3 1.87 12.23 1.86C12.15 1.85 12.07 1.84 12 1.84C11.92 1.84 11.84 1.85 11.76 1.86C11.69 1.87 11.61 1.89 11.54 1.91C11.46 1.94 11.39 1.97 11.32 2C11.25 2.04 11.18 2.08 11.12 2.12L2.87 8.05C2.77 8.12 2.69 8.19 2.61 8.29C2.53 8.38 2.46 8.47 2.41 8.58C2.36 8.69 2.31 8.8 2.29 8.91C2.26 9.03 2.24 9.15 2.24 9.27Z" fill="#000000" fill-opacity="0.400000" fill-rule="nonzero"/>
		<path id="path" d="M11.25 12C11.25 11.95 11.25 11.9 11.26 11.85C11.27 11.8 11.28 11.75 11.3 11.71C11.32 11.66 11.34 11.62 11.37 11.58C11.4 11.54 11.43 11.5 11.46 11.46C11.5 11.43 11.54 11.4 11.58 11.37C11.62 11.34 11.66 11.32 11.71 11.3C11.75 11.28 11.8 11.27 11.85 11.26C11.9 11.25 11.95 11.25 12 11.25C12.04 11.25 12.09 11.25 12.14 11.26C12.19 11.27 12.24 11.28 12.28 11.3C12.33 11.32 12.37 11.34 12.41 11.37C12.45 11.4 12.49 11.43 12.53 11.46C12.56 11.5 12.59 11.54 12.62 11.58C12.65 11.62 12.67 11.66 12.69 11.71C12.71 11.75 12.72 11.8 12.73 11.85C12.74 11.9 12.75 11.95 12.75 12L12.75 16.5C12.75 16.54 12.74 16.59 12.73 16.64C12.72 16.69 12.71 16.74 12.69 16.78C12.67 16.83 12.65 16.87 12.62 16.91C12.59 16.95 12.56 16.99 12.53 17.03C12.49 17.06 12.45 17.09 12.41 17.12C12.37 17.15 12.33 17.17 12.28 17.19C12.24 17.21 12.19 17.22 12.14 17.23C12.09 17.24 12.04 17.25 12 17.25C11.95 17.25 11.9 17.24 11.85 17.23C11.8 17.22 11.75 17.21 11.71 17.19C11.66 17.17 11.62 17.15 11.58 17.12C11.54 17.09 11.5 17.06 11.46 17.03C11.43 16.99 11.4 16.95 11.37 16.91C11.34 16.87 11.32 16.83 11.3 16.78C11.28 16.74 11.27 16.69 11.26 16.64C11.25 16.59 11.25 16.54 11.25 16.5L11.25 12Z" fill="#FFFFFF" fill-opacity="1.000000" fill-rule="nonzero"/>
	</g>
</svg>
