<svg width="19.000000" height="20.146973" viewBox="0 0 19 20.147" fill="none" xmlns="http://www.w3.org/2000/svg" xmlns:xlink="http://www.w3.org/1999/xlink">
	<desc>
			Created with Pixso.
	</desc>
	<defs/>
	<path id="path" d="M16.36 0L13.74 0C13.7 0.94 12.91 1.7 11.96 1.7L7.03 1.7C6.08 1.7 5.29 0.94 5.25 0L2.63 0C1.18 0 0 1.18 0 2.62L0 17.51C0 18.96 1.18 20.14 2.63 20.14L16.36 20.14C17.81 20.14 19 18.96 19 17.51L19 2.62C19 1.18 17.81 0 16.36 0ZM14.44 14.71L4.55 14.71C4.19 14.71 3.89 14.42 3.89 14.06C3.89 13.69 4.19 13.4 4.55 13.4L14.44 13.4C14.8 13.4 15.1 13.69 15.1 14.06C15.1 14.42 14.8 14.71 14.44 14.71ZM14.44 10.71L4.55 10.71C4.19 10.71 3.89 10.41 3.89 10.05C3.89 9.69 4.19 9.39 4.55 9.39L14.44 9.39C14.8 9.39 15.1 9.69 15.1 10.05C15.1 10.41 14.8 10.71 14.44 10.71ZM14.44 6.7L4.55 6.7C4.19 6.7 3.89 6.41 3.89 6.05C3.89 5.68 4.19 5.39 4.55 5.39L14.44 5.39C14.8 5.39 15.1 5.68 15.1 6.05C15.1 6.41 14.8 6.7 14.44 6.7Z" fill="#000000" fill-opacity="0.400000" fill-rule="nonzero"/>
</svg>
