<svg width="22.000000" height="22.000000" viewBox="0 0 22 22" fill="none" xmlns="http://www.w3.org/2000/svg" xmlns:xlink="http://www.w3.org/1999/xlink">
	<desc>
			Created with Pixso.
	</desc>
	<defs/>
	<path id="path" d="M20.67 9.68C18.71 9.3 17.81 7.01 18.99 5.4L19.82 4.26L18.03 2.47L16.91 3.22C15.25 4.35 12.99 3.36 12.69 1.38L12.48 0L9.94 0L9.61 1.7C9.24 3.63 7.03 4.54 5.41 3.45L3.96 2.47L2.17 4.26L3 5.4C4.18 7.01 3.28 9.3 1.32 9.68L0 9.94L0 12.48L1.38 12.69C3.36 12.99 4.35 15.25 3.22 16.91L2.47 18.03L4.26 19.82L5.4 18.99C7.01 17.81 9.3 18.71 9.68 20.67L9.94 22L12.48 22L12.63 21.02C12.94 19 15.28 18.03 16.93 19.24L17.73 19.82L19.52 18.03L18.77 16.91C17.64 15.25 18.63 12.99 20.61 12.69L22 12.48L22 9.94L20.67 9.68ZM11.21 13.11C11.14 13.11 11.08 13.11 11.02 13.1C10.96 13.1 10.9 13.09 10.84 13.07C10.77 13.06 10.71 13.05 10.65 13.03C10.59 13.01 10.54 12.99 10.48 12.97C10.42 12.94 10.36 12.91 10.31 12.89C10.25 12.86 10.2 12.82 10.15 12.79C10.1 12.75 10.05 12.72 10 12.68C9.95 12.64 9.9 12.6 9.86 12.55C9.82 12.51 9.77 12.46 9.73 12.41C9.7 12.37 9.66 12.32 9.62 12.26C9.59 12.21 9.56 12.16 9.53 12.1C9.5 12.05 9.47 11.99 9.45 11.93C9.42 11.88 9.4 11.82 9.38 11.76C9.37 11.7 9.35 11.64 9.34 11.58C9.33 11.52 9.32 11.46 9.31 11.39C9.31 11.33 9.3 11.27 9.3 11.21C9.3 11.14 9.31 11.08 9.31 11.02C9.32 10.96 9.33 10.9 9.34 10.84C9.35 10.77 9.37 10.71 9.38 10.65C9.4 10.59 9.42 10.54 9.45 10.48C9.47 10.42 9.5 10.36 9.53 10.31C9.56 10.25 9.59 10.2 9.62 10.15C9.66 10.1 9.7 10.05 9.73 10C9.77 9.95 9.82 9.9 9.86 9.86C9.9 9.82 9.95 9.77 10 9.73C10.05 9.7 10.1 9.66 10.15 9.62C10.2 9.59 10.25 9.56 10.31 9.53C10.36 9.5 10.42 9.47 10.48 9.45C10.54 9.42 10.59 9.4 10.65 9.38C10.71 9.37 10.77 9.35 10.84 9.34C10.9 9.33 10.96 9.32 11.02 9.31C11.08 9.31 11.14 9.3 11.21 9.3C11.27 9.3 11.33 9.31 11.39 9.31C11.46 9.32 11.52 9.33 11.58 9.34C11.64 9.35 11.7 9.37 11.76 9.38C11.82 9.4 11.88 9.42 11.94 9.45C11.99 9.47 12.05 9.5 12.1 9.53C12.16 9.56 12.21 9.59 12.26 9.62C12.32 9.66 12.37 9.7 12.41 9.73C12.46 9.77 12.51 9.82 12.55 9.86C12.6 9.9 12.64 9.95 12.68 10C12.72 10.05 12.75 10.1 12.79 10.15C12.82 10.2 12.86 10.25 12.89 10.31C12.92 10.36 12.94 10.42 12.97 10.48C12.99 10.54 13.01 10.59 13.03 10.65C13.05 10.71 13.06 10.77 13.07 10.84C13.09 10.9 13.1 10.96 13.1 11.02C13.11 11.08 13.11 11.14 13.11 11.21C13.11 11.27 13.11 11.33 13.1 11.39C13.1 11.46 13.09 11.52 13.07 11.58C13.06 11.64 13.05 11.7 13.03 11.76C13.01 11.82 12.99 11.88 12.97 11.93C12.94 11.99 12.92 12.05 12.89 12.1C12.86 12.16 12.82 12.21 12.79 12.26C12.75 12.32 12.72 12.37 12.68 12.41C12.64 12.46 12.6 12.51 12.55 12.55C12.51 12.6 12.46 12.64 12.41 12.68C12.37 12.72 12.32 12.75 12.26 12.79C12.21 12.82 12.16 12.86 12.1 12.89C12.05 12.91 11.99 12.94 11.94 12.97C11.88 12.99 11.82 13.01 11.76 13.03C11.7 13.05 11.64 13.06 11.58 13.07C11.52 13.09 11.46 13.1 11.39 13.1C11.33 13.11 11.27 13.11 11.21 13.11Z" fill="#000000" fill-opacity="0.400000" fill-rule="nonzero"/>
</svg>
