<svg width="18.732178" height="20.250000" viewBox="0 0 18.7322 20.25" fill="none" xmlns="http://www.w3.org/2000/svg" xmlns:xlink="http://www.w3.org/1999/xlink">
	<desc>
			Created with Pixso.
	</desc>
	<defs/>
	<path id="path" d="M18.28 2.85C18.14 2.73 17.99 2.65 17.82 2.59C17.65 2.53 17.48 2.5 17.3 2.5L17.19 2.5C17.17 2.5 16.94 2.52 16.58 2.52C15.61 2.52 14.65 2.43 13.7 2.23C12.27 1.92 10.61 0.49 10.12 0.2C9.87 0.07 9.61 0 9.32 0C9.04 0 8.77 0.07 8.52 0.2C8.46 0.24 6.73 1.87 5.05 2.23C4.09 2.43 3.12 2.52 2.15 2.52C1.77 2.52 1.54 2.5 1.52 2.5L1.43 2.5C1.25 2.5 1.08 2.52 0.91 2.58C0.74 2.64 0.58 2.73 0.45 2.85C0.38 2.9 0.31 2.96 0.26 3.03C0.2 3.1 0.15 3.17 0.12 3.25C0.08 3.33 0.05 3.42 0.03 3.5C0.01 3.59 0 3.68 0 3.77L0 6.95C0 18.66 8.72 20.17 9.08 20.23C9.16 20.24 9.24 20.25 9.33 20.24C9.41 20.25 9.5 20.24 9.58 20.23C9.96 20.17 18.73 18.66 18.73 6.95L18.73 3.77C18.72 3.59 18.68 3.42 18.61 3.26C18.53 3.1 18.42 2.96 18.28 2.85ZM14.6 8.16L9.3 13.44C9.27 13.48 9.23 13.51 9.19 13.54C9.15 13.56 9.1 13.59 9.06 13.61C9.01 13.63 8.97 13.64 8.92 13.65C8.87 13.66 8.82 13.67 8.77 13.67C8.73 13.67 8.68 13.67 8.63 13.66C8.58 13.66 8.53 13.64 8.49 13.63C8.44 13.61 8.4 13.59 8.35 13.57C8.31 13.54 8.27 13.51 8.23 13.48L5.1 10.74C5.06 10.71 5.03 10.67 5 10.63C4.97 10.59 4.94 10.55 4.92 10.5C4.9 10.46 4.88 10.41 4.87 10.36C4.86 10.31 4.85 10.26 4.85 10.21C4.85 10.16 4.85 10.11 4.86 10.06C4.86 10.01 4.87 9.96 4.89 9.92C4.91 9.87 4.93 9.82 4.95 9.78C4.98 9.74 5.01 9.69 5.04 9.66C5.07 9.62 5.11 9.58 5.15 9.55C5.19 9.52 5.23 9.5 5.28 9.47C5.32 9.45 5.37 9.43 5.42 9.42C5.47 9.41 5.52 9.4 5.57 9.39C5.62 9.39 5.67 9.39 5.72 9.4C5.77 9.4 5.82 9.41 5.86 9.43C5.91 9.44 5.96 9.46 6 9.49C6.05 9.51 6.09 9.54 6.13 9.57L8.71 11.82L13.49 7.06C13.53 7.02 13.57 6.99 13.61 6.96C13.65 6.93 13.7 6.9 13.75 6.88C13.79 6.86 13.84 6.84 13.89 6.83C13.94 6.82 14 6.81 14.05 6.81C14.1 6.81 14.15 6.82 14.2 6.82C14.26 6.83 14.31 6.85 14.35 6.87C14.4 6.89 14.45 6.91 14.49 6.94C14.54 6.97 14.58 7 14.61 7.04C14.65 7.08 14.68 7.12 14.71 7.16C14.74 7.2 14.77 7.25 14.79 7.3C14.81 7.35 14.82 7.4 14.83 7.45C14.84 7.5 14.84 7.55 14.84 7.6C14.84 7.66 14.84 7.71 14.83 7.76C14.81 7.81 14.8 7.86 14.78 7.91C14.75 7.96 14.73 8 14.7 8.04C14.67 8.09 14.64 8.13 14.6 8.16Z" fill="#000000" fill-opacity="0.400000" fill-rule="nonzero"/>
</svg>
