<svg width="24.000000" height="24.000000" viewBox="0 0 24 24" fill="none" xmlns="http://www.w3.org/2000/svg" xmlns:xlink="http://www.w3.org/1999/xlink">
	<desc>
			Created with Pixso.
	</desc>
	<defs>
		<clipPath id="clip39_772">
			<rect id="svg" width="24.000000" height="24.000000" fill="white" fill-opacity="0"/>
		</clipPath>
	</defs>
	<g clip-path="url(#clip39_772)">
		<path id="path" d="M7.49 1.75L16.5 1.75C16.66 1.75 16.81 1.76 16.96 1.8C17.11 1.83 17.25 1.89 17.39 1.95C17.53 2.02 17.66 2.11 17.78 2.2C17.9 2.3 18 2.41 18.1 2.54L22.96 8.95C23.03 9.05 23.09 9.15 23.15 9.25C23.2 9.36 23.25 9.47 23.28 9.58C23.31 9.7 23.34 9.81 23.35 9.93C23.37 10.05 23.37 10.16 23.36 10.28C23.36 10.4 23.34 10.52 23.31 10.63C23.28 10.75 23.25 10.86 23.2 10.97C23.15 11.08 23.09 11.18 23.03 11.28C22.96 11.38 22.89 11.47 22.81 11.55L13.45 21.26C13.4 21.3 13.35 21.35 13.3 21.39C13.25 21.44 13.19 21.48 13.14 21.51C13.08 21.55 13.03 21.59 12.97 21.62C12.91 21.65 12.85 21.68 12.79 21.71C12.73 21.73 12.66 21.76 12.6 21.78C12.54 21.8 12.47 21.81 12.41 21.83C12.34 21.84 12.27 21.85 12.21 21.86C12.14 21.86 12.07 21.87 12.01 21.87C11.94 21.87 11.87 21.86 11.81 21.86C11.74 21.85 11.68 21.84 11.61 21.83C11.54 21.81 11.48 21.8 11.42 21.78C11.35 21.76 11.29 21.74 11.23 21.71C11.17 21.68 11.11 21.65 11.05 21.62C10.99 21.59 10.93 21.56 10.88 21.52C10.82 21.48 10.77 21.44 10.72 21.4C10.66 21.35 10.62 21.31 10.57 21.26L1.19 11.58C1.11 11.49 1.03 11.4 0.96 11.3C0.9 11.2 0.84 11.1 0.79 10.99C0.75 10.88 0.71 10.77 0.68 10.66C0.65 10.54 0.63 10.43 0.63 10.31C0.62 10.19 0.62 10.07 0.64 9.95C0.65 9.84 0.67 9.72 0.71 9.61C0.74 9.49 0.79 9.38 0.84 9.28C0.89 9.17 0.96 9.07 1.03 8.98L5.89 2.54C5.99 2.42 6.09 2.3 6.21 2.21C6.33 2.11 6.46 2.02 6.6 1.95C6.74 1.89 6.88 1.83 7.03 1.8C7.18 1.76 7.34 1.75 7.49 1.75Z" fill="#0A59F7" fill-opacity="1.000000" fill-rule="nonzero"/>
		<path id="path" d="M16.06 8.22C16.09 8.18 16.13 8.15 16.17 8.12C16.21 8.1 16.25 8.08 16.3 8.06C16.34 8.04 16.38 8.02 16.43 8.01C16.48 8 16.52 8 16.57 8C16.62 8 16.67 8 16.71 8.01C16.76 8.01 16.81 8.03 16.85 8.04C16.9 8.06 16.94 8.08 16.98 8.11C17.02 8.13 17.06 8.16 17.09 8.19C17.13 8.22 17.16 8.26 17.19 8.29C17.22 8.33 17.24 8.37 17.26 8.42C17.28 8.46 17.3 8.5 17.31 8.55C17.33 8.59 17.33 8.64 17.34 8.69C17.34 8.74 17.34 8.78 17.34 8.83C17.33 8.88 17.32 8.92 17.31 8.97C17.29 9.01 17.27 9.06 17.25 9.1C17.23 9.14 17.2 9.18 17.17 9.22L17.12 9.28L12.53 13.87C12.49 13.9 12.46 13.93 12.42 13.96C12.38 13.99 12.34 14.01 12.3 14.03C12.26 14.05 12.21 14.06 12.17 14.07C12.12 14.08 12.08 14.09 12.03 14.09C11.99 14.09 11.94 14.09 11.9 14.08C11.85 14.08 11.81 14.07 11.76 14.05C11.72 14.04 11.68 14.02 11.64 14C11.6 13.98 11.56 13.95 11.52 13.92L11.46 13.87L6.87 9.28C6.83 9.24 6.8 9.21 6.78 9.17C6.75 9.13 6.73 9.08 6.71 9.04C6.69 9 6.68 8.95 6.66 8.91C6.65 8.86 6.65 8.81 6.65 8.76C6.65 8.72 6.65 8.67 6.66 8.62C6.67 8.57 6.68 8.53 6.69 8.48C6.71 8.44 6.73 8.4 6.76 8.36C6.78 8.31 6.81 8.28 6.84 8.24C6.87 8.21 6.91 8.17 6.95 8.15C6.98 8.12 7.02 8.09 7.07 8.07C7.11 8.05 7.15 8.03 7.2 8.02C7.25 8.01 7.29 8 7.34 8C7.39 7.99 7.44 7.99 7.48 8C7.53 8 7.58 8.01 7.62 8.03C7.67 8.04 7.71 8.06 7.75 8.08C7.8 8.11 7.84 8.13 7.87 8.16L7.93 8.21L12 12.28L16.06 8.22Z" fill="#FFFFFF" fill-opacity="1.000000" fill-rule="nonzero"/>
	</g>
</svg>
