<svg width="24.000000" height="24.000000" viewBox="0 0 24 24" fill="none" xmlns="http://www.w3.org/2000/svg" xmlns:xlink="http://www.w3.org/1999/xlink">
	<desc>
			Created with Pixso.
	</desc>
	<defs>
		<clipPath id="clip149_10167">
			<rect width="24.000000" height="24.000000" transform="translate(0.000000 24.000000) rotate(-90.000000)" fill="white" fill-opacity="0"/>
		</clipPath>
	</defs>
	<g clip-path="url(#clip149_10167)">
		<path d="M11.99 23.29C10.23 23.29 8.47 23.3 6.71 23.29C5.86 23.29 5.02 23.19 4.19 22.98C2.45 22.52 1.41 21.38 1.01 19.64C0.82 18.77 0.73 17.87 0.75 16.98C0.75 13.61 0.75 10.24 0.75 6.87C0.74 6.02 0.84 5.17 1.04 4.34C1.48 2.54 2.61 1.47 4.4 1.06C5.25 0.87 6.11 0.78 6.98 0.79C10.38 0.79 13.79 0.79 17.2 0.79C18.04 0.79 18.88 0.89 19.7 1.08C21.5 1.52 22.57 2.66 22.98 4.45C23.17 5.33 23.26 6.22 23.24 7.11C23.24 10.47 23.24 13.83 23.24 17.18C23.25 18.04 23.15 18.89 22.96 19.73C22.52 21.53 21.38 22.62 19.58 23.03C18.66 23.23 17.75 23.29 16.82 23.29C15.21 23.29 13.6 23.29 11.99 23.29Z" fill="#FFFFFF" fill-opacity="0" fill-rule="nonzero"/>
		<path d="M6.71 23.29C5.86 23.29 5.02 23.19 4.19 22.98C2.45 22.52 1.41 21.38 1.01 19.64C0.82 18.77 0.73 17.87 0.75 16.98C0.75 13.61 0.75 10.24 0.75 6.87C0.74 6.02 0.84 5.17 1.04 4.34C1.48 2.54 2.61 1.47 4.4 1.06C5.25 0.87 6.11 0.78 6.98 0.79C10.38 0.79 13.79 0.79 17.2 0.79C18.04 0.79 18.88 0.89 19.7 1.08C21.5 1.52 22.57 2.66 22.98 4.45C23.17 5.33 23.26 6.22 23.24 7.11C23.24 10.47 23.24 13.83 23.24 17.18C23.25 18.04 23.15 18.89 22.96 19.73C22.52 21.53 21.38 22.62 19.58 23.03C18.66 23.23 17.75 23.29 16.82 23.29C15.21 23.29 13.6 23.29 11.99 23.29C10.23 23.29 8.47 23.3 6.71 23.29Z" stroke="#FFFFFF" stroke-opacity="0" stroke-width="1.000000"/>
		<path d="M11.99 23.29C10.23 23.29 8.47 23.3 6.71 23.29C5.86 23.29 5.02 23.19 4.19 22.98C2.45 22.52 1.41 21.38 1.01 19.64C0.82 18.77 0.73 17.87 0.75 16.98C0.75 13.61 0.75 10.24 0.75 6.87C0.74 6.02 0.84 5.17 1.04 4.34C1.48 2.54 2.61 1.47 4.4 1.06C5.25 0.87 6.11 0.78 6.98 0.79C10.38 0.79 13.79 0.79 17.2 0.79C18.04 0.79 18.88 0.89 19.7 1.08C21.5 1.52 22.57 2.66 22.98 4.45C23.17 5.33 23.26 6.22 23.24 7.11C23.24 10.47 23.24 13.83 23.24 17.18C23.25 18.04 23.15 18.89 22.96 19.73C22.52 21.53 21.38 22.62 19.58 23.03C18.66 23.23 17.75 23.29 16.82 23.29C15.21 23.29 13.6 23.29 11.99 23.29Z" fill="#000000" fill-opacity="0" fill-rule="nonzero"/>
		<path d="M6.71 23.29C5.86 23.29 5.02 23.19 4.19 22.98C2.45 22.52 1.41 21.38 1.01 19.64C0.82 18.77 0.73 17.87 0.75 16.98C0.75 13.61 0.75 10.24 0.75 6.87C0.74 6.02 0.84 5.17 1.04 4.34C1.48 2.54 2.61 1.47 4.4 1.06C5.25 0.87 6.11 0.78 6.98 0.79C10.38 0.79 13.79 0.79 17.2 0.79C18.04 0.79 18.88 0.89 19.7 1.08C21.5 1.52 22.57 2.66 22.98 4.45C23.17 5.33 23.26 6.22 23.24 7.11C23.24 10.47 23.24 13.83 23.24 17.18C23.25 18.04 23.15 18.89 22.96 19.73C22.52 21.53 21.38 22.62 19.58 23.03C18.66 23.23 17.75 23.29 16.82 23.29C15.21 23.29 13.6 23.29 11.99 23.29C10.23 23.29 8.47 23.3 6.71 23.29Z" stroke="#FFFFFF" stroke-opacity="0" stroke-width="1.000000"/>
		<circle r="12.000000" transform="matrix(0 -1 1 0 12 12.0474)" fill="#F3F3F3" fill-opacity="0"/>
		<circle r="12.000000" transform="matrix(0 -1 1 0 12 12.0474)" stroke="#000000" stroke-opacity="0" stroke-width="1.000000"/>
		<path d="M9.32 16.74C9.22 16.83 9.22 16.99 9.32 17.09C9.41 17.19 9.57 17.19 9.67 17.1L14.67 12.22C14.77 12.12 14.77 11.96 14.67 11.86L9.67 6.99C9.57 6.89 9.41 6.89 9.32 6.99C9.22 7.09 9.22 7.25 9.32 7.35L14.14 12.04L9.32 16.74Z" fill="#000000" fill-opacity="0" fill-rule="nonzero"/>
		<path d="M9.32 17.09C9.41 17.19 9.57 17.19 9.67 17.1L14.67 12.22C14.77 12.12 14.77 11.96 14.67 11.86L9.67 6.99C9.57 6.89 9.41 6.89 9.32 6.99C9.22 7.09 9.22 7.25 9.32 7.35L14.14 12.04L9.32 16.74C9.22 16.83 9.22 16.99 9.32 17.09Z" stroke="#333333" stroke-opacity="1.000000" stroke-width="1.000000"/>
	</g>
</svg>
