<svg width="16.000000" height="16.000000" viewBox="0 0 16 16" fill="none" xmlns="http://www.w3.org/2000/svg" xmlns:xlink="http://www.w3.org/1999/xlink">
	<desc>
			Created with Pixso.
	</desc>
	<defs>
		<clipPath id="clip162_9044">
			<rect width="16.000000" height="16.000000" fill="white" fill-opacity="0"/>
		</clipPath>
	</defs>
	<g clip-path="url(#clip162_9044)">
		<g opacity="0.000000">
			<rect width="16.000000" height="16.000000" fill="#000000" fill-opacity="1.000000"/>
		</g>
		<path d="M14 7.5C14.14 7.5 14.25 7.54 14.35 7.65C14.45 7.74 14.5 7.85 14.5 8C14.5 8.14 14.45 8.25 14.35 8.35C14.25 8.45 14.14 8.5 14 8.5L8.5 8.5L8.5 14C8.5 14.14 8.45 14.25 8.35 14.35C8.25 14.45 8.14 14.5 8 14.5C7.86 14.5 7.74 14.45 7.65 14.35C7.55 14.25 7.5 14.14 7.5 14L7.5 8.5L2 8.5C1.86 8.5 1.74 8.45 1.65 8.35C1.55 8.25 1.5 8.14 1.5 8C1.5 7.85 1.55 7.74 1.65 7.65C1.74 7.54 1.86 7.5 2 7.5L7.5 7.5L7.5 2C7.5 1.85 7.55 1.74 7.65 1.65C7.74 1.54 7.86 1.5 8 1.5C8.14 1.5 8.25 1.54 8.35 1.65C8.45 1.74 8.5 1.85 8.5 2L8.5 7.5L14 7.5Z" fill="#C4272B" fill-opacity="1.000000" fill-rule="nonzero"/>
	</g>
</svg>
