<svg width="19.750000" height="19.640015" viewBox="0 0 19.75 19.64" fill="none" xmlns="http://www.w3.org/2000/svg" xmlns:xlink="http://www.w3.org/1999/xlink">
	<desc>
			Created with Pixso.
	</desc>
	<defs/>
	<path id="path" d="M15.07 13.9C15.68 13.14 16.16 12.3 16.5 11.38C16.84 10.45 17.02 9.49 17.02 8.5C17.02 6.96 16.63 5.54 15.87 4.23C15.09 2.93 14.06 1.9 12.76 1.14C11.45 0.38 10.03 0 8.5 0C6.96 0 5.53 0.38 4.23 1.14C2.93 1.9 1.9 2.93 1.14 4.23C0.38 5.54 0 6.96 0 8.5C0 10.03 0.38 11.45 1.14 12.76C1.9 14.06 2.93 15.1 4.23 15.86C5.53 16.62 6.96 17 8.5 17C9.53 17 10.52 16.82 11.46 16.46C12.4 16.11 13.25 15.62 14.02 14.98L18.48 19.42C18.62 19.56 18.8 19.64 19.01 19.64C19.21 19.64 19.39 19.56 19.54 19.42C19.68 19.27 19.75 19.09 19.75 18.89C19.75 18.68 19.68 18.5 19.54 18.36L15.07 13.9ZM1.51 8.5C1.51 7.23 1.82 6.06 2.46 5C3.09 3.92 3.94 3.07 5.01 2.43C6.07 1.8 7.23 1.48 8.5 1.48C9.76 1.48 10.92 1.8 12 2.43C13.07 3.07 13.92 3.92 14.56 5C15.19 6.06 15.51 7.23 15.51 8.5C15.51 9.76 15.19 10.93 14.56 12C13.92 13.07 13.07 13.92 12 14.56C10.92 15.19 9.76 15.51 8.5 15.51C7.23 15.51 6.07 15.19 5.01 14.56C3.94 13.92 3.09 13.07 2.46 12C1.82 10.93 1.51 9.76 1.51 8.5Z" fill="#000000" fill-opacity="0.898039" fill-rule="nonzero"/>
</svg>
