<svg width="20.020020" height="20.020020" viewBox="0 0 20.02 20.02" fill="none" xmlns="http://www.w3.org/2000/svg" xmlns:xlink="http://www.w3.org/1999/xlink">
	<desc>
			Created with Pixso.
	</desc>
	<defs/>
	<path id="path" d="M0.77 7.54C0.96 7.54 1.13 7.46 1.28 7.31C1.43 7.18 1.51 7 1.51 6.79L1.51 3.77C1.51 3.14 1.72 2.6 2.16 2.17C2.6 1.72 3.14 1.51 3.77 1.51L6.71 1.51C6.92 1.51 7.1 1.43 7.26 1.3C7.41 1.15 7.48 0.97 7.48 0.77C7.48 0.54 7.41 0.35 7.27 0.21C7.13 0.07 6.94 0 6.71 0L3.77 0C3.09 0 2.46 0.17 1.89 0.51C1.3 0.84 0.84 1.29 0.51 1.87C0.16 2.44 0 3.08 0 3.77L0 6.79C0 7 0.07 7.18 0.22 7.31C0.38 7.46 0.56 7.54 0.77 7.54ZM6.7 20.02C6.9 20.02 7.08 19.94 7.23 19.79C7.39 19.63 7.46 19.45 7.46 19.25C7.46 19.04 7.39 18.86 7.23 18.71C7.08 18.58 6.9 18.51 6.7 18.51L3.77 18.51C3.14 18.51 2.6 18.29 2.16 17.85C1.72 17.41 1.51 16.87 1.51 16.25L1.51 13.23C1.51 13.01 1.43 12.84 1.28 12.7C1.13 12.55 0.96 12.48 0.77 12.48C0.56 12.48 0.38 12.55 0.22 12.7C0.07 12.84 0 13.02 0 13.25L0 16.25C0 16.92 0.17 17.54 0.52 18.12C0.85 18.7 1.32 19.16 1.9 19.5C2.47 19.84 3.09 20.02 3.77 20.02L6.7 20.02ZM16.25 20.02C16.92 20.02 17.54 19.84 18.12 19.5C18.7 19.16 19.16 18.7 19.5 18.12C19.84 17.54 20.02 16.92 20.02 16.25L20.02 13.25C20.02 13.04 19.94 12.86 19.79 12.71C19.63 12.55 19.45 12.48 19.25 12.48C19.04 12.48 18.86 12.55 18.71 12.71C18.58 12.86 18.51 13.04 18.51 13.25L18.51 16.25C18.51 16.87 18.29 17.41 17.85 17.85C17.41 18.29 16.87 18.51 16.25 18.51L13.25 18.51C13.04 18.51 12.86 18.58 12.71 18.71C12.55 18.86 12.48 19.04 12.48 19.25C12.48 19.45 12.55 19.63 12.71 19.79C12.86 19.94 13.04 20.02 13.25 20.02L16.25 20.02ZM19.25 7.54C19.45 7.54 19.63 7.46 19.79 7.31C19.94 7.18 20.02 7 20.02 6.79L20.02 3.77C20.02 3.08 19.85 2.44 19.51 1.87C19.17 1.29 18.71 0.84 18.12 0.51C17.54 0.17 16.92 0 16.25 0L13.32 0C13.11 0 12.93 0.07 12.78 0.21C12.62 0.35 12.55 0.54 12.55 0.77C12.55 0.97 12.62 1.15 12.78 1.3C12.93 1.43 13.11 1.51 13.32 1.51L16.25 1.51C16.87 1.51 17.41 1.72 17.85 2.17C18.29 2.6 18.51 3.14 18.51 3.77L18.51 6.79C18.51 7 18.58 7.18 18.71 7.31C18.86 7.46 19.04 7.54 19.25 7.54Z" fill="#000000" fill-opacity="0.898039" fill-rule="nonzero"/>
	<path id="path" d="M16.51 10.75C16.72 10.75 16.9 10.68 17.04 10.54C17.2 10.39 17.28 10.21 17.28 10.01C17.28 9.8 17.2 9.62 17.04 9.47C16.9 9.33 16.72 9.27 16.51 9.27L3.53 9.27C3.32 9.27 3.14 9.33 2.98 9.47C2.83 9.62 2.76 9.8 2.76 10.01C2.76 10.21 2.83 10.39 2.98 10.54C3.14 10.68 3.32 10.75 3.53 10.75L16.51 10.75Z" fill="#000000" fill-opacity="0.898039" fill-rule="nonzero"/>
</svg>
