<svg width="24.000000" height="24.000000" viewBox="0 0 24 24" fill="none" xmlns="http://www.w3.org/2000/svg" xmlns:xlink="http://www.w3.org/1999/xlink">
	<desc>
		Created with Pixso.
	</desc>
	<defs>
		<clipPath id="clip124_8875">
			<rect id="icon_calendar_on" width="24.000000" height="24.000000" fill="white" fill-opacity="0"/>
		</clipPath>
	</defs>
	<g clip-path="url(#clip124_8875)">
		<path id="path7" d="M1 9.25L23 9.25L23 19.25C23 21.32 21.32 23 19.25 23L4.75 23C2.67 23 1 21.32 1 19.25L1 9.25ZM11.16 11.16L12.96 11.16C13.19 11.16 13.38 11.36 13.38 11.59L13.38 13.39C13.38 13.62 13.19 13.82 12.96 13.82L11.16 13.82C10.92 13.82 10.73 13.62 10.73 13.39L10.73 11.59C10.73 11.36 10.92 11.16 11.16 11.16ZM16.46 11.16L18.25 11.16C18.49 11.16 18.68 11.36 18.68 11.59L18.68 13.39C18.68 13.62 18.49 13.82 18.25 13.82L16.46 13.82C16.22 13.82 16.03 13.62 16.03 13.39L16.03 11.59C16.03 11.36 16.22 11.16 16.46 11.16ZM7.66 16.46L5.86 16.46C5.62 16.46 5.43 16.66 5.43 16.89L5.43 18.69C5.43 18.92 5.62 19.12 5.86 19.12L7.66 19.12C7.89 19.12 8.08 18.92 8.08 18.69L8.08 16.89C8.08 16.66 7.89 16.46 7.66 16.46ZM11.16 16.46L12.96 16.46C13.19 16.46 13.38 16.66 13.38 16.89L13.38 18.69C13.38 18.92 13.19 19.12 12.96 19.12L11.16 19.12C10.92 19.12 10.73 18.92 10.73 18.69L10.73 16.89C10.73 16.66 10.92 16.46 11.16 16.46Z" fill="#64BB5C" fill-opacity="1.000000" fill-rule="evenodd"/>
		<path id="path8" d="M6.83 2L4.75 2C2.67 2 1 3.67 1 5.75L1 7.75L23 7.75L23 5.75C23 3.67 21.32 2 19.25 2L17.16 2L17.16 1C17.16 0.58 16.83 0.25 16.41 0.25C15.99 0.25 15.66 0.58 15.66 1L15.66 2L8.33 2L8.33 1C8.33 0.58 8 0.25 7.58 0.25C7.16 0.25 6.83 0.58 6.83 1L6.83 2Z" fill="#A5D61D" fill-opacity="1.000000" fill-rule="evenodd"/>
	</g>
</svg>
