<svg width="22.000000" height="22.750000" viewBox="0 0 22 22.75" fill="none" xmlns="http://www.w3.org/2000/svg" xmlns:xlink="http://www.w3.org/1999/xlink">
	<desc>
		Created with Pixso.
	</desc>
	<defs/>
	<path id="矢量 1" d="M7.33 1.75L7.33 0.75C7.33 0.33 7 0 6.58 0C6.16 0 5.83 0.33 5.83 0.75L5.83 1.75L3.75 1.75C3.46 1.75 3.19 1.78 2.92 1.84C2.7 1.88 2.49 1.95 2.28 2.04C2.07 2.13 1.86 2.24 1.67 2.37C1.47 2.5 1.27 2.66 1.09 2.84C0.91 3.02 0.75 3.22 0.62 3.42C0.49 3.61 0.38 3.82 0.29 4.03C0.2 4.24 0.13 4.45 0.09 4.67C0.03 4.94 0 5.21 0 5.5L0 19C0 19.27 0.02 19.54 0.08 19.8C0.13 20.02 0.2 20.24 0.29 20.45Q0.43 20.78 0.61 21.06L0.61 21.06Q0.82 21.37 1.09 21.65C1.27 21.83 1.47 21.99 1.68 22.13C1.87 22.25 2.07 22.36 2.28 22.45C2.49 22.54 2.71 22.61 2.93 22.66C3.19 22.72 3.47 22.75 3.75 22.75L18.25 22.75C18.52 22.75 18.78 22.72 19.04 22.66C19.27 22.61 19.49 22.54 19.7 22.45C19.92 22.36 20.12 22.25 20.31 22.13C20.52 21.99 20.71 21.83 20.9 21.65C21.08 21.46 21.24 21.27 21.38 21.06C21.5 20.87 21.61 20.67 21.7 20.45C21.79 20.24 21.86 20.02 21.91 19.79C21.97 19.53 22 19.27 22 19L22 5.5Q22 5.08 21.91 4.68L21.91 4.68L21.91 4.68C21.86 4.46 21.79 4.24 21.7 4.03C21.61 3.82 21.5 3.62 21.38 3.43Q21.17 3.11 20.9 2.84C20.71 2.66 20.52 2.5 20.31 2.36C20.12 2.24 19.92 2.13 19.7 2.04Q19.38 1.9 19.05 1.83L19.05 1.83C18.79 1.77 18.52 1.75 18.25 1.75L16.16 1.75L16.16 0.75C16.16 0.33 15.83 0 15.41 0C14.99 0 14.66 0.33 14.66 0.75L14.66 1.75L7.33 1.75ZM6.42 3.25C6.47 3.25 6.52 3.26 6.58 3.26C6.63 3.26 6.68 3.25 6.73 3.25L15.25 3.25C15.3 3.25 15.35 3.26 15.41 3.26C15.46 3.26 15.51 3.25 15.56 3.25L18.25 3.25C18.42 3.25 18.59 3.26 18.75 3.3C18.88 3.33 19 3.37 19.12 3.42C19.24 3.47 19.36 3.54 19.47 3.61C19.6 3.69 19.72 3.79 19.84 3.9C19.95 4.02 20.05 4.14 20.13 4.27C20.2 4.38 20.27 4.49 20.32 4.62C20.37 4.74 20.41 4.85 20.44 4.98C20.48 5.14 20.5 5.32 20.5 5.5L20.5 7.5L1.5 7.5L1.5 5.5C1.5 5.31 1.52 5.14 1.56 4.97C1.58 4.85 1.62 4.73 1.67 4.62C1.72 4.49 1.79 4.37 1.86 4.26C1.95 4.13 2.04 4.01 2.15 3.9C2.26 3.79 2.38 3.7 2.51 3.61C2.62 3.54 2.74 3.47 2.87 3.42C2.98 3.37 3.1 3.33 3.22 3.31C3.39 3.27 3.56 3.25 3.75 3.25L6.42 3.25ZM1.5 9L20.5 9L20.5 19C20.5 19.17 20.48 19.33 20.44 19.5Q20.4 19.69 20.32 19.87C20.27 19.99 20.21 20.11 20.13 20.22C20.05 20.35 19.95 20.47 19.84 20.59C19.72 20.7 19.6 20.8 19.47 20.88C19.36 20.96 19.24 21.02 19.12 21.07C19 21.12 18.87 21.16 18.75 21.19C18.58 21.23 18.42 21.25 18.25 21.25L3.75 21.25Q3.48 21.25 3.23 21.19C3.1 21.16 2.99 21.12 2.87 21.07C2.74 21.02 2.63 20.95 2.52 20.88C2.39 20.8 2.27 20.7 2.15 20.59C2.04 20.47 1.94 20.35 1.86 20.22C1.79 20.11 1.72 19.99 1.67 19.87C1.62 19.75 1.58 19.63 1.55 19.5Q1.5 19.26 1.5 19L1.5 9ZM10.16 10.92L11.96 10.92C12.19 10.92 12.38 11.11 12.38 11.34L12.38 13.14C12.38 13.38 12.19 13.57 11.96 13.57L10.16 13.57C9.92 13.57 9.73 13.38 9.73 13.14L9.73 11.34C9.73 11.11 9.92 10.92 10.16 10.92ZM15.46 10.92L17.25 10.92C17.49 10.92 17.68 11.11 17.68 11.34L17.68 13.14C17.68 13.38 17.49 13.57 17.25 13.57L15.46 13.57C15.22 13.57 15.03 13.38 15.03 13.14L15.03 11.34C15.03 11.11 15.22 10.92 15.46 10.92ZM6.66 16.21L4.85 16.21C4.62 16.21 4.43 16.41 4.43 16.64L4.43 18.44C4.43 18.68 4.62 18.87 4.85 18.87L6.66 18.87C6.89 18.87 7.08 18.68 7.08 18.44L7.08 16.64C7.08 16.41 6.89 16.21 6.66 16.21ZM10.16 16.21L11.96 16.21C12.19 16.21 12.38 16.41 12.38 16.64L12.38 18.44C12.38 18.68 12.19 18.87 11.96 18.87L10.16 18.87C9.92 18.87 9.73 18.68 9.73 18.44L9.73 16.64C9.73 16.41 9.92 16.21 10.16 16.21Z" fill="#000000" fill-opacity="0.600000" fill-rule="evenodd"/>
</svg>
