<svg width="24.000000" height="24.000000" viewBox="0 0 24 24" fill="none" xmlns="http://www.w3.org/2000/svg" xmlns:xlink="http://www.w3.org/1999/xlink">
	<desc>
		Created with Pixso.
	</desc>
	<defs/>
	<path id="path-1" d="M3.51 18.27C4.16 16.95 5.85 13 12.45 13C19.05 13 20.77 16.95 21.39 18.27C21.63 18.77 21.79 19.45 21.88 20.29C21.99 21.39 21.19 22.37 20.1 22.48C20.03 22.49 19.96 22.5 19.89 22.5L5 22.5C3.89 22.5 3 21.6 3 20.5C3 20.43 3 20.36 3.01 20.29C3.09 19.45 3.26 18.78 3.51 18.27Z" fill="#5BA854" fill-opacity="1.000000" fill-rule="nonzero"/>
	<path id="path-1" d="M12.45 13C19.05 13 20.77 16.95 21.39 18.27C21.63 18.77 21.79 19.45 21.88 20.29C21.99 21.39 21.19 22.37 20.1 22.48C20.03 22.49 19.96 22.5 19.89 22.5L5 22.5C3.89 22.5 3 21.6 3 20.5C3 20.43 3 20.36 3.01 20.29C3.09 19.45 3.26 18.78 3.51 18.27C4.16 16.95 5.85 13 12.45 13Z" stroke="#000000" stroke-opacity="0" stroke-width="1.000000"/>
	<path id="path-1" d="M12 1C9.23 1 7 3.23 7 6C7 8.76 9.23 11 12 11C14.76 11 17 8.76 17 6C17 3.23 14.76 1 12 1Z" fill="#86AD53" fill-opacity="1.000000" fill-rule="evenodd"/>
	<path id="path-1" d="M7 6C7 8.76 9.23 11 12 11C14.76 11 17 8.76 17 6C17 3.23 14.76 1 12 1C9.23 1 7 3.23 7 6Z" stroke="#000000" stroke-opacity="0" stroke-width="1.000000"/>
</svg>
