<svg width="86.967278" height="92.735779" viewBox="0 0 86.9673 92.7358" fill="none" xmlns="http://www.w3.org/2000/svg" xmlns:xlink="http://www.w3.org/1999/xlink">
	<desc>
		Created with Pixso.
	</desc>
	<defs/>
	<g opacity="0.600000">
		<path id="形状结合" d="M14.24 7.27C13.41 8.43 12.89 9.82 12.78 11.33L7.95 11.33C7.44 11.33 7.02 11.71 6.96 12.21L6.95 12.33L6.95 80.03C6.95 80.54 7.34 80.97 7.84 81.02L7.95 81.03L54.54 81.03C55.05 81.03 55.48 80.64 55.53 80.15L55.54 80.03L55.54 59.05C56.82 58.28 58.17 57.46 59.55 56.61C60.45 56.05 61.34 55.51 62.22 54.97L62.22 88.73C62.22 90.94 60.43 92.73 58.22 92.73L4 92.73C1.79 92.73 0 90.94 0 88.73L0 11.27C0 9.06 1.79 7.27 4 7.27L14.24 7.27ZM48.26 7.27L58.22 7.27C60.43 7.27 62.22 9.06 62.22 11.27L62.22 41.33C59.99 43.55 57.68 46.26 55.54 49.02L55.54 12.33C55.54 11.78 55.09 11.33 54.54 11.33L49.71 11.33C49.61 9.82 49.08 8.43 48.26 7.27Z" fill="#A1A7B3" fill-opacity="1.000000" fill-rule="evenodd"/>
		<path id="形状结合" d="M12.78 11.33L7.95 11.33C7.44 11.33 7.02 11.71 6.96 12.21L6.95 12.33L6.95 80.03C6.95 80.54 7.34 80.97 7.84 81.02L7.95 81.03L54.54 81.03C55.05 81.03 55.48 80.64 55.53 80.15L55.54 80.03L55.54 59.05C56.82 58.28 58.17 57.46 59.55 56.61C60.45 56.05 61.34 55.51 62.22 54.97L62.22 88.73C62.22 90.94 60.43 92.73 58.22 92.73L4 92.73C1.79 92.73 0 90.94 0 88.73L0 11.27C0 9.06 1.79 7.27 4 7.27L14.24 7.27C13.41 8.43 12.89 9.82 12.78 11.33ZM58.22 7.27C60.43 7.27 62.22 9.06 62.22 11.27L62.22 41.33C59.99 43.55 57.68 46.26 55.54 49.02L55.54 12.33C55.54 11.78 55.09 11.33 54.54 11.33L49.71 11.33C49.61 9.82 49.08 8.43 48.26 7.27L58.22 7.27Z" stroke="#000000" stroke-opacity="0" stroke-width="1.000000"/>
	</g>
	<g opacity="0.800000">
		<path id="形状结合" d="M55.54 59.05L55.54 80.03C55.54 80.58 55.09 81.03 54.54 81.03L7.95 81.03C7.44 81.03 7.02 80.64 6.96 80.15L6.95 80.03C6.97 80.58 7.4 81.05 7.95 81.03C34.96 80.14 49.55 78.59 51.66 76.45C52.68 75.41 53.51 69.89 54.14 59.88C54.6 59.61 55.06 59.34 55.54 59.05ZM54.54 11.33C55.09 11.33 55.54 11.78 55.54 12.33L55.54 49.02C55.24 49.41 54.94 49.8 54.64 50.19C55.05 40.59 55.34 28.38 55.51 13.55L55.54 12.33C55.54 11.81 55.14 11.39 54.65 11.34L54.54 11.33Z" fill="#A1A7B3" fill-opacity="1.000000" fill-rule="evenodd"/>
		<path id="形状结合" d="M7.95 81.03C34.96 80.14 49.55 78.59 51.66 76.45C52.68 75.41 53.51 69.89 54.14 59.88C54.6 59.61 55.06 59.34 55.54 59.05L55.54 80.03C55.54 80.58 55.09 81.03 54.54 81.03L7.95 81.03C7.44 81.03 7.02 80.64 6.96 80.15L6.95 80.03C6.97 80.58 7.4 81.05 7.95 81.03M55.54 12.33C55.54 11.81 55.14 11.39 54.65 11.34L54.54 11.33C55.09 11.33 55.54 11.78 55.54 12.33L55.54 49.02C55.24 49.41 54.94 49.8 54.64 50.19C55.05 40.59 55.34 28.38 55.51 13.55L55.54 12.33Z" stroke="#000000" stroke-opacity="0" stroke-width="1.000000"/>
	</g>
	<g opacity="0.100000">
		<path id="形状结合" d="M12.78 11.33L12.77 11.49L12.76 11.66L12.76 11.86L49.73 11.86C49.73 11.68 49.73 11.5 49.71 11.33L54.53 11.33C55.08 11.33 55.53 11.78 55.53 12.33C55.35 27.7 55.06 40.33 54.64 50.19C51.01 54.98 47.97 59.72 46.76 62.1L32.23 76.13L29.79 79.11C29.74 79.18 29.74 79.27 29.79 79.33C29.83 79.39 29.92 79.41 29.98 79.37L33.23 77.3L47.6 63.41C49.01 62.84 51.35 61.54 54.14 59.88C53.51 69.89 52.68 75.41 51.66 76.45C49.55 78.59 34.99 80.11 7.99 81C7.44 81.01 6.97 80.58 6.95 80.03L6.95 12.33C6.95 11.78 7.4 11.33 7.95 11.33L12.78 11.33ZM49.74 12.47L12.76 12.47L12.76 13.21C12.76 13.52 12.98 13.77 13.27 13.82L49.13 13.82C49.43 13.82 49.68 13.6 49.73 13.31L49.74 12.47Z" fill="#A1A7B3" fill-opacity="1.000000" fill-rule="evenodd"/>
		<path id="形状结合" d="M12.77 11.49L12.76 11.66L12.76 11.86L49.73 11.86C49.73 11.68 49.73 11.5 49.71 11.33L54.53 11.33C55.08 11.33 55.53 11.78 55.53 12.33C55.35 27.7 55.06 40.33 54.64 50.19C51.01 54.98 47.97 59.72 46.76 62.1L32.23 76.13L29.79 79.11C29.74 79.18 29.74 79.27 29.79 79.33C29.83 79.39 29.92 79.41 29.98 79.37L33.23 77.3L47.6 63.41C49.01 62.84 51.35 61.54 54.14 59.88C53.51 69.89 52.68 75.41 51.66 76.45C49.55 78.59 34.99 80.11 7.99 81C7.44 81.01 6.97 80.58 6.95 80.03L6.95 12.33C6.95 11.78 7.4 11.33 7.95 11.33L12.78 11.33L12.77 11.49ZM12.76 12.47L12.76 13.21C12.76 13.52 12.98 13.77 13.27 13.82L49.13 13.82C49.43 13.82 49.68 13.6 49.73 13.31L49.74 12.47L12.76 12.47Z" stroke="#000000" stroke-opacity="0" stroke-width="1.000000"/>
	</g>
	<g opacity="0.600000">
		<path id="形状结合" d="M49.74 12.47L49.74 13.21C49.74 13.55 49.46 13.82 49.13 13.82L13.37 13.82C13.03 13.82 12.76 13.55 12.76 13.21L12.76 12.47L49.74 12.47ZM31.25 0C33.92 0 35.07 1.63 36.14 3.68L36.25 3.88L41.71 3.88C46.12 3.88 49.71 7.45 49.73 11.86L12.76 11.86L12.76 11.66C12.9 7.34 16.44 3.88 20.79 3.88L26.25 3.88C27.2 1.74 28.49 0 31.25 0ZM31.25 2.37C29.89 2.37 28.79 3.46 28.79 4.82C28.79 6.17 29.89 7.27 31.25 7.27C32.6 7.27 33.7 6.17 33.7 4.82C33.7 3.46 32.6 2.37 31.25 2.37Z" fill="#A1A7B3" fill-opacity="1.000000" fill-rule="evenodd"/>
		<path id="形状结合" d="M49.74 13.21C49.74 13.55 49.46 13.82 49.13 13.82L13.37 13.82C13.03 13.82 12.76 13.55 12.76 13.21L12.76 12.47L49.74 12.47L49.74 13.21ZM36.14 3.68L36.25 3.88L41.71 3.88C46.12 3.88 49.71 7.45 49.73 11.86L12.76 11.86L12.76 11.66C12.9 7.34 16.44 3.88 20.79 3.88L26.25 3.88C27.2 1.74 28.49 0 31.25 0C33.92 0 35.07 1.63 36.14 3.68ZM28.79 4.82C28.79 6.17 29.89 7.27 31.25 7.27C32.6 7.27 33.7 6.17 33.7 4.82C33.7 3.46 32.6 2.37 31.25 2.37C29.89 2.37 28.79 3.46 28.79 4.82Z" stroke="#000000" stroke-opacity="0" stroke-width="1.000000"/>
	</g>
	<g opacity="0.500000">
		<path id="pencil" d="M86.22 24.09C88.94 24.86 83.71 36.21 77.93 42.71C72.14 49.21 66.23 52.49 59.55 56.61C54.47 59.73 49.85 62.5 47.6 63.41L33.23 77.3L29.98 79.37C29.92 79.41 29.83 79.39 29.79 79.33C29.74 79.27 29.74 79.18 29.79 79.11L32.23 76.13L46.76 62.1C48.87 57.97 56.5 46.7 63.14 40.43C64.54 39.11 66.06 37.74 67.63 36.38L68.26 35.83C68.58 35.56 68.9 35.29 69.22 35.02L69.86 34.48C69.97 34.39 70.07 34.3 70.18 34.21L70.83 33.68C77.49 28.19 84.28 23.54 86.22 24.09ZM69.1 43.03C68.15 43.33 66.46 43.58 66.89 44.01C67.32 44.44 69.44 44.31 73.48 42.52C77.3 40.82 76.02 40.83 74.25 41.35L74.04 41.41L73.94 41.44C72.02 42.04 70.04 42.73 69.1 43.03ZM71.42 39.23C70.6 39.44 69.8 39.66 70.11 39.96C70.54 40.39 72.66 40.26 76.7 38.47C80.75 36.68 79.09 36.79 77.17 37.39C75.25 37.99 73.26 38.68 72.32 38.98C72.13 39.04 71.91 39.1 71.69 39.16L71.42 39.23ZM75.12 34.63C74.36 34.83 73.67 35.04 73.96 35.33C74.39 35.76 76.51 35.63 80.55 33.84C84.37 32.14 83.09 32.15 81.32 32.67L81.11 32.73L81.01 32.76C79.09 33.36 77.11 34.05 76.17 34.35C75.98 34.41 75.76 34.47 75.53 34.53L75.12 34.63Z" fill="#A1A7B3" fill-opacity="1.000000" fill-rule="evenodd"/>
		<path id="pencil" d="M77.93 42.71C72.14 49.21 66.23 52.49 59.55 56.61C54.47 59.73 49.85 62.5 47.6 63.41L33.23 77.3L29.98 79.37C29.92 79.41 29.83 79.39 29.79 79.33C29.74 79.27 29.74 79.18 29.79 79.11L32.23 76.13L46.76 62.1C48.87 57.97 56.5 46.7 63.14 40.43C64.54 39.11 66.06 37.74 67.63 36.38L68.26 35.83C68.58 35.56 68.9 35.29 69.22 35.02L69.86 34.48C69.97 34.39 70.07 34.3 70.18 34.21L70.83 33.68C77.49 28.19 84.28 23.54 86.22 24.09C88.94 24.86 83.71 36.21 77.93 42.71ZM66.89 44.01C67.32 44.44 69.44 44.31 73.48 42.52C77.3 40.82 76.02 40.83 74.25 41.35L74.04 41.41L73.94 41.44C72.02 42.04 70.04 42.73 69.1 43.03C68.15 43.33 66.46 43.58 66.89 44.01ZM70.11 39.96C70.54 40.39 72.66 40.26 76.7 38.47C80.75 36.68 79.09 36.79 77.17 37.39C75.25 37.99 73.26 38.68 72.32 38.98C72.13 39.04 71.91 39.1 71.69 39.16L71.42 39.23C70.6 39.44 69.8 39.66 70.11 39.96ZM73.96 35.33C74.39 35.76 76.51 35.63 80.55 33.84C84.37 32.14 83.09 32.15 81.32 32.67L81.11 32.73L81.01 32.76C79.09 33.36 77.11 34.05 76.17 34.35C75.98 34.41 75.76 34.47 75.53 34.53L75.12 34.63C74.36 34.83 73.67 35.04 73.96 35.33Z" stroke="#000000" stroke-opacity="0" stroke-width="1.000000"/>
	</g>
</svg>
