<svg viewBox="0 0 16 16" xmlns="http://www.w3.org/2000/svg" xmlns:xlink="http://www.w3.org/1999/xlink" width="16.000000" height="16.000000" fill="none">
	<defs>
		<filter id="pixso_custom_mask_type_luminance">
			<feColorMatrix type="matrix" values="1 0 0 0 0 0 1 0 0 0 0 0 1 0 0 0 0 0 1 0 " />
		</filter>
	</defs>
	<mask id="mask_0" width="16.000000" height="16.000000" x="0.000000" y="0.000000" maskUnits="userSpaceOnUse">
		<g filter="url(#pixso_custom_mask_type_luminance)">
			<g id="hms_mask_0">
				<rect id="矩形 3610" width="16.000000" height="16.000000" x="0.000000" y="0.000000" fill="rgb(255,255,255)" />
				<g id="组合 4144">
					<path id="矢量 71" d="M5.32666 4.23999C5.69999 4.23999 6.03555 4.34666 6.33333 4.55999C6.63555 4.77332 6.84888 5.05555 6.97333 5.40666L8.01333 8.30666L9.05333 5.40666C9.18221 5.05555 9.39999 4.77332 9.70666 4.55999C10.0089 4.34666 10.3467 4.23999 10.72 4.23999L12.0133 4.23999L9.23333 10.3333C9.18888 10.4222 9.13555 10.4955 9.07333 10.5533C9.00666 10.6111 8.93777 10.64 8.86666 10.64L7.18666 10.64C7.1111 10.64 7.03777 10.6111 6.96666 10.5533C6.89999 10.4955 6.84888 10.4222 6.81333 10.3333L4.03333 4.23999L5.32666 4.23999Z" fill="rgb(0,0,0)" fill-rule="evenodd" />
				</g>
			</g>
		</g>
	</mask>
	<rect id="v_diamond_fill" width="16.000000" height="16.000000" x="0.000000" y="0.000000" />
	<rect id="矩形 3609" width="16.000000" height="16.000000" x="0.000000" y="0.000000" opacity="0" fill="rgb(0,0,0)" />
	<g id="mask" mask="url(#mask_0)">
		<g id="组合 4143">
			<path id="矢量 70" d="M1.15334 5.79344C0.926675 6.13567 0.835564 6.509 0.880009 6.91344C0.924453 7.31789 1.09556 7.66456 1.39334 7.95345L6.76667 13.1334C6.98001 13.3468 7.2289 13.4912 7.51334 13.5668C7.79334 13.6423 8.07779 13.6423 8.36668 13.5668C8.65556 13.4912 8.90667 13.3534 9.12001 13.1534L14.6533 7.95345C14.9556 7.66456 15.1333 7.31567 15.1867 6.90678C15.24 6.49344 15.1533 6.11567 14.9267 5.77344L13.2667 3.23344C13.1156 2.989 12.9111 2.79567 12.6533 2.65344C12.4 2.51567 12.1289 2.44678 11.84 2.44678L4.24001 2.44678C3.95112 2.44678 3.68001 2.51567 3.42668 2.65344C3.1689 2.79567 2.96445 2.989 2.81334 3.23344L1.15334 5.79344Z" fill="rgb(10,89,247)" fill-rule="evenodd" />
		</g>
	</g>
</svg>
