<svg viewBox="0 0 40 40" xmlns="http://www.w3.org/2000/svg" xmlns:xlink="http://www.w3.org/1999/xlink" width="40.000000" height="40.000000" fill="none">
	<defs>
		<clipPath id="clipPath_0">
			<rect width="20.000000" height="20.000000" x="10.005859" y="9.912598" fill="rgb(255,255,255)" />
		</clipPath>
	</defs>
	<rect id="icon_envelope" width="40.000000" height="40.000000" x="0.000000" y="0.000000" />
	<circle id="椭圆 4" cx="20" cy="20" r="20" fill="rgb(232,64,38)" />
	<g id="svg" clip-path="url(#clipPath_0)" customFrame="url(#clipPath_0)">
		<rect id="svg" width="20.000000" height="20.000000" x="10.005859" y="9.912598" />
		<rect id="rect" width="20.000000" height="20.000000" x="10.005859" y="9.912598" opacity="0" fill="rgb(0,0,0)" />
		<g id="g">
			<path id="path" d="M23.7897 28.6291C24.2397 28.6291 24.6342 28.4736 24.973 28.1625C25.3175 27.8514 25.5092 27.468 25.548 27.0125L26.4897 16.3541C26.4897 16.2486 26.4453 16.1125 26.3564 16.0291C26.2675 15.9514 26.1703 15.9125 26.0647 15.9125L13.948 15.9125C13.8258 15.9125 13.723 15.9569 13.6397 16.0458C13.5508 16.1291 13.5119 16.2319 13.523 16.3541L14.4647 27.0125C14.5036 27.4791 14.6953 27.8652 15.0397 28.1708C15.3786 28.4764 15.773 28.6291 16.223 28.6291L23.7897 28.6291ZM21.4647 25.6125C21.2925 25.6125 21.1425 25.5486 21.0147 25.4208C20.8869 25.293 20.8314 25.143 20.848 24.9708L21.0647 19.1291C21.0647 18.9569 21.1258 18.8152 21.248 18.7041C21.3647 18.5875 21.5119 18.5291 21.6897 18.5291C21.8619 18.5458 22.0119 18.618 22.1397 18.7458C22.2619 18.868 22.3175 19.018 22.3064 19.1958L22.1064 25.0125C22.0953 25.1847 22.0286 25.3291 21.9064 25.4458C21.7842 25.5569 21.6369 25.6125 21.4647 25.6125ZM18.5647 25.6125C18.3925 25.6125 18.2453 25.5569 18.123 25.4458C18.0064 25.3291 17.9397 25.1847 17.923 25.0125L17.7064 19.1958C17.6953 19.018 17.748 18.868 17.8647 18.7458C17.9869 18.618 18.1342 18.5458 18.3064 18.5291C18.4786 18.518 18.6286 18.5736 18.7564 18.6958C18.8842 18.8125 18.948 18.9569 18.948 19.1291L19.1897 24.9708C19.2008 25.143 19.1425 25.293 19.0147 25.4208C18.8869 25.5486 18.7369 25.6125 18.5647 25.6125ZM23.148 13.6958C22.998 12.9736 22.6369 12.3764 22.0647 11.9041C21.4925 11.4319 20.8342 11.1958 20.0897 11.1958C19.3397 11.1958 18.6786 11.4319 18.1064 11.9041C17.5342 12.3764 17.173 12.9736 17.023 13.6958L12.8647 13.6958C12.6925 13.6958 12.5453 13.7541 12.423 13.8708C12.3064 13.993 12.248 14.1402 12.248 14.3125C12.248 14.4847 12.3064 14.6347 12.423 14.7625C12.5453 14.8902 12.6925 14.9541 12.8647 14.9541L17.448 14.9541L22.748 14.9541L27.148 14.9291C27.3203 14.9291 27.4675 14.8708 27.5897 14.7541C27.7064 14.6319 27.7647 14.4847 27.7647 14.3125C27.7647 14.1402 27.7064 13.993 27.5897 13.8708C27.4675 13.7541 27.3203 13.6958 27.148 13.6958L23.148 13.6958Z" fill="rgb(255,255,255)" fill-rule="nonzero" />
		</g>
	</g>
</svg>
