<svg viewBox="0 0 24 24" xmlns="http://www.w3.org/2000/svg" xmlns:xlink="http://www.w3.org/1999/xlink" width="24.000000" height="24.000000" fill="none">
	<rect id="swap " width="24.000000" height="24.000000" x="0.000000" y="0.000000" />
	<rect id="矩形 3657" width="40.000000" height="40.000000" x="-8.000000" y="-8.000000" rx="8.000000" opacity="0" fill="rgb(0,0,0)" />
	<rect id="矩形 3658" width="24.000000" height="24.000000" x="0.000000" y="0.000000" opacity="0" fill="rgb(0,0,0)" />
	<g id="组合 4196">
		<path id="矢量 343" d="M4.5119 16.75L4.5119 0.75C4.5119 0.536667 4.4419 0.36 4.3019 0.22C4.15524 0.0733333 3.97857 0 3.7719 0C3.56524 0 3.38857 0.0733333 3.24191 0.22C3.10191 0.36 3.03191 0.536667 3.03191 0.75L3.03191 14.83L0.701905 14.83C0.508571 14.83 0.348571 14.8967 0.221905 15.03C0.0952384 15.1567 0.0219051 15.31 0.00190496 15.49C-0.0114284 15.6767 0.0452383 15.8433 0.171905 15.99L3.29191 19.75C3.41857 19.91 3.58191 19.9967 3.78191 20.01C3.98191 20.0167 4.15524 19.9567 4.3019 19.83C4.4419 19.6967 4.5119 19.5267 4.5119 19.32L4.5119 16.75ZM12.8419 5.19C13.0352 5.19 13.1952 5.12333 13.3219 4.99C13.4486 4.86333 13.5219 4.71 13.5419 4.53C13.5552 4.34333 13.4986 4.17667 13.3719 4.03L10.2519 0.27C10.1252 0.11 9.9619 0.0233333 9.7619 0.00999999C9.5619 0.00333333 9.38857 0.07 9.24191 0.21C9.1019 0.343333 9.03191 0.513333 9.03191 0.72L9.03191 3.27L9.03191 19.25C9.03191 19.4567 9.1019 19.6367 9.24191 19.79C9.38857 19.9433 9.56524 20.02 9.7719 20.02C9.97857 20.02 10.1552 19.9433 10.3019 19.79C10.4419 19.6367 10.5119 19.4567 10.5119 19.25L10.5119 5.19L12.8419 5.19Z" fill="rgb(0,0,0)" fill-opacity="0.400000006" fill-rule="nonzero" transform="matrix(0,-1,1,0,1.99023,18.7715)" />
	</g>
</svg>
