<svg viewBox="0 0 40 40" xmlns="http://www.w3.org/2000/svg" xmlns:xlink="http://www.w3.org/1999/xlink" width="40.000000" height="40.000000" fill="none">
	<rect id="ic_public_mic_round_bottom2 1" width="40.000000" height="40.000000" x="0.000000" y="0.000000" />
	<path id="path1" d="M-0.000202546 19.9833C-0.000202546 16.8583 -0.00853588 13.7333 -0.000202546 10.6083C-0.00853588 9.09166 0.183131 7.58333 0.549797 6.125C1.3748 3.025 3.39146 1.18333 6.49146 0.466663C8.04146 0.133329 9.63313 -0.025004 11.2165 -3.95393e-06C17.2081 -3.95393e-06 23.1998 -3.95393e-06 29.1998 -3.95393e-06C30.7081 -0.00833729 32.2165 0.158329 33.6915 0.516663C36.8831 1.29166 38.7998 3.31666 39.5248 6.5C39.8581 8 40.0081 9.53333 39.9915 11.075C39.9915 17.1333 39.9915 23.1917 39.9915 29.2417C39.9998 30.7417 39.8331 32.2417 39.4831 33.6917C38.6998 36.8917 36.6665 38.7917 33.4915 39.525C31.9331 39.8583 30.3498 40.0167 28.7581 39.9917C22.7915 39.9917 16.8248 39.9917 10.8581 39.9917C9.33313 40.0083 7.81646 39.8333 6.33313 39.4833C3.1248 38.7083 1.1998 36.675 0.474797 33.475C0.0997975 31.85 -0.000202546 30.225 -0.000202546 28.5833C-0.000202546 25.7167 -0.000202546 22.85 -0.000202546 19.9833Z" fill="rgb(255,255,255)" fill-opacity="0" fill-rule="evenodd" />
	<circle id="path2" cx="20" cy="20" r="20" fill="rgb(238,243,254)" />
	<path id="path" d="M17.084 30.6917L22.9173 30.6917" stroke="rgb(255,255,255)" stroke-opacity="0" stroke-linecap="round" stroke-linejoin="round" stroke-width="1" />
	<path id="path" d="M20 26.8L20 30.6917" stroke="rgb(255,255,255)" stroke-opacity="0" stroke-linecap="square" stroke-linejoin="round" stroke-width="1" />
	<path id="path" />
	<rect id="path4" width="7.777779" height="13.611112" x="16.111328" y="9.304932" rx="3.888889" stroke="rgb(255,255,255)" stroke-opacity="0" stroke-linejoin="round" stroke-width="1" />
	<path id="path5" d="M13.4333 18.7833C13.4333 19.6833 13.5917 20.525 13.9167 21.3C14.2333 22.075 14.7167 22.7833 15.3583 23.425C16 24.0583 16.7 24.5417 17.475 24.8667C18.25 25.1833 19.0917 25.3417 20 25.3417C20.9 25.3417 21.7417 25.1833 22.5167 24.8667C23.2917 24.5417 23.9917 24.0583 24.6333 23.425C25.275 22.7833 25.7583 22.075 26.075 21.3C26.4 20.525 26.5583 19.6833 26.5583 18.7833C26.5583 18.1 27.0917 17.5667 27.775 17.5667C28.4583 17.5667 28.9917 18.1 28.9917 18.7833C28.9917 20.025 28.7667 21.175 28.3333 22.2333C27.8917 23.2917 27.2333 24.2583 26.3583 25.1417C25.475 26.0167 24.5083 26.675 23.45 27.1167C22.7417 27.4083 22 27.6 21.2083 27.7L21.2083 29.2333L22.9167 29.2333C23.5917 29.2333 24.125 29.7667 24.125 30.45C24.125 31.125 23.5917 31.6667 22.9167 31.6667L17.0833 31.6667C16.4 31.6667 15.8667 31.125 15.8667 30.45C15.8667 29.7667 16.4 29.2333 17.0833 29.2333L18.7833 29.2333L18.7833 27.7C17.9917 27.6 17.25 27.4083 16.5417 27.1167C15.4833 26.675 14.5167 26.0167 13.6333 25.1417C12.7583 24.2583 12.1 23.2917 11.6583 22.2333C11.225 21.175 11 20.025 11 18.7833C11 18.1 11.5417 17.5667 12.2167 17.5667C12.9 17.5667 13.4333 18.1 13.4333 18.7833Z" fill="rgb(32,112,243)" fill-rule="evenodd" />
	<path id="path6" d="M15.375 12.9499C15.375 10.3999 17.4417 8.33325 20 8.33325C22.55 8.33325 24.6167 10.3999 24.6167 12.9499L24.6167 18.7833C24.6167 21.3333 22.55 23.3999 20 23.3999C17.4417 23.3999 15.375 21.3333 15.375 18.7833L15.375 12.9499Z" fill="rgb(140,163,250)" fill-rule="evenodd" />
</svg>
