<svg width="52.000000" height="52.000000" viewBox="0 0 52 52" fill="none" xmlns="http://www.w3.org/2000/svg" xmlns:xlink="http://www.w3.org/1999/xlink">
    <desc>
        Created with Pixso.
    </desc>
    <defs>
        <filter id="filter_438_5626_dd" x="0.000000" y="0.000000" width="52.000000" height="52.000000" filterUnits="userSpaceOnUse" color-interpolation-filters="sRGB">
            <feFlood flood-opacity="0" result="BackgroundImageFix"/>
            <feColorMatrix in="SourceAlpha" type="matrix" values="0 0 0 0 0 0 0 0 0 0 0 0 0 0 0 0 0 0 127 0" result="hardAlpha"/>
            <feOffset dx="0" dy="4"/>
            <feGaussianBlur stdDeviation="1.33333"/>
            <feComposite in2="hardAlpha" operator="out" k2="-1" k3="1"/>
            <feColorMatrix type="matrix" values="0 0 0 0 0 0 0 0 0 0 0 0 0 0 0 0 0 0 0.25 0"/>
            <feBlend mode="normal" in2="BackgroundImageFix" result="effect_dropShadow_1"/>
            <feBlend mode="normal" in="SourceGraphic" in2="effect_dropShadow_1" result="shape"/>
        </filter>
    </defs>
    <g filter="url(#filter_438_5626_dd)">
        <circle id="椭圆 4" cx="26.000000" cy="22.000000" r="22.000000" fill="#5BA854" fill-opacity="1.000000"/>
        <path id="合并" d="M27.3334 20.6668L27.3334 11.3333C27.3334 10.5969 26.7365 10 26.0001 10C25.2637 10 24.6667 10.5969 24.6667 11.3333L24.6667 20.6668L15.3333 20.6668C14.5969 20.6668 14 21.2637 14 22.0001C14 22.7365 14.5969 23.3335 15.3333 23.3335L24.6667 23.3335L24.6667 32.6667C24.6667 33.4031 25.2637 34 26.0001 34C26.7365 34 27.3334 33.4031 27.3334 32.6667L27.3334 23.3335L36.6667 23.3335C37.4031 23.3335 38 22.7365 38 22.0001C38 21.2637 37.4031 20.6668 36.6667 20.6668L27.3334 20.6668Z" clip-rule="evenodd" fill="#000000" fill-opacity="1.000000" fill-rule="evenodd"/>
    </g>
</svg>
