<svg width="24.000000" height="24.000000" viewBox="0 0 24 24" fill="none" xmlns="http://www.w3.org/2000/svg" xmlns:xlink="http://www.w3.org/1999/xlink">
    <desc>
        Created with Pixso.
    </desc>
    <defs>
        <clipPath id="clip439_5047">
            <rect id="eye_slash" width="24.000000" height="24.000000" fill="white" fill-opacity="0"/>
        </clipPath>
    </defs>
    <g clip-path="url(#clip439_5047)">
        <g opacity="0.000000">
            <rect id="rect" width="24.000000" height="24.000000" fill="#000000" fill-opacity="1.000000"/>
        </g>
        <mask id="mask439_5051" mask-type="alpha" maskUnits="userSpaceOnUse" x="0.000000" y="0.000000" width="24.000000" height="24.000000">
            <rect id="rect" width="24.000000" height="24.000000" fill="#FFFFFF" fill-opacity="1.000000"/>
            <path id="path" d="M5.22 2.33C5.06 2.13 4.86 1.99 4.62 1.9C4.37 1.79 4.11 1.75 3.83 1.75C3.21 1.75 2.7 1.94 2.32 2.33C1.94 2.71 1.75 3.2 1.75 3.82C1.75 4.07 1.8 4.32 1.9 4.58C1.99 4.84 2.13 5.04 2.32 5.21L18.71 21.62C18.91 21.81 19.14 21.96 19.4 22.08C19.66 22.19 19.92 22.25 20.16 22.25C20.43 22.25 20.7 22.19 20.96 22.08C21.22 21.96 21.43 21.8 21.6 21.6C21.8 21.44 21.96 21.22 22.08 20.96C22.19 20.7 22.25 20.43 22.25 20.16C22.25 19.92 22.19 19.66 22.08 19.4C21.96 19.14 21.81 18.91 21.62 18.71L5.22 2.33Z" fill="#000000" fill-opacity="1.000000" fill-rule="nonzero"/>
        </mask>
        <g mask="url(#mask439_5051)">
            <path id="path" d="M22.87 11.47C22.13 10.14 21.19 8.99 20.04 8.02C18.88 7.03 17.62 6.28 16.24 5.77C14.85 5.25 13.44 4.98 12 4.98C10.56 4.98 9.14 5.25 7.76 5.77C6.38 6.28 5.11 7.03 3.95 8.02C2.8 8.99 1.86 10.14 1.13 11.47C1.05 11.61 1.01 11.77 1.01 11.94C1.01 12.1 1.05 12.27 1.13 12.43C1.86 13.74 2.8 14.89 3.95 15.89C5.11 16.88 6.38 17.64 7.78 18.18C9.16 18.71 10.57 18.98 12 18.98C13.44 18.98 14.85 18.71 16.24 18.18C17.62 17.64 18.88 16.88 20.04 15.9C21.19 14.91 22.13 13.75 22.87 12.43C22.95 12.27 22.99 12.1 22.99 11.94C22.99 11.77 22.95 11.61 22.87 11.47ZM10.14 17.33C8.61 16.97 7.19 16.33 5.87 15.41C4.55 14.48 3.47 13.34 2.66 12L2.66 11.83C3.64 10.19 4.97 8.89 6.66 7.94C8.34 6.97 10.12 6.5 12 6.5C13.9 6.5 15.7 6.98 17.37 7.95C19.06 8.92 20.38 10.22 21.36 11.86L21.36 12.05C20.54 13.39 19.48 14.52 18.17 15.44C16.85 16.36 15.44 16.99 13.92 17.35C12.67 17.62 11.41 17.61 10.14 17.33ZM11.98 17.62C12.92 17.62 13.78 17.38 14.58 16.92C15.37 16.45 16 15.82 16.45 15.02C16.92 14.22 17.16 13.35 17.16 12.41C17.16 11.46 16.92 10.59 16.45 9.79C16 9.01 15.37 8.38 14.58 7.91C13.78 7.45 12.92 7.21 11.98 7.21C11.38 7.21 10.81 7.31 10.25 7.51C10.09 7.57 10.01 7.64 10.01 7.7C10.01 7.76 10.09 7.83 10.27 7.91C10.63 8.09 10.93 8.35 11.16 8.7C11.38 9.04 11.5 9.42 11.5 9.83C11.5 10.43 11.29 10.93 10.87 11.35C10.45 11.77 9.95 11.98 9.38 11.98C9.01 11.98 8.67 11.88 8.34 11.7C8.03 11.51 7.77 11.27 7.57 10.97C7.45 10.77 7.33 10.68 7.21 10.68C7.11 10.68 7.02 10.78 6.95 10.99C6.83 11.47 6.77 11.94 6.77 12.41C6.77 13.35 7 14.22 7.45 15.02C7.92 15.82 8.56 16.45 9.35 16.92C10.16 17.38 11.03 17.62 11.98 17.62Z" fill="#000000" fill-opacity="0.898039" fill-rule="nonzero"/>
        </g>
        <path id="path" d="M19.62 20.69C19.81 20.83 19.99 20.9 20.18 20.9C20.37 20.9 20.55 20.83 20.71 20.69C20.85 20.54 20.93 20.36 20.93 20.16C20.93 19.95 20.85 19.77 20.71 19.62L4.32 3.23C4.16 3.09 3.97 3.02 3.77 3.02C3.56 3.02 3.39 3.09 3.26 3.23C3.09 3.38 3.01 3.55 3 3.73C2.98 3.91 3.05 4.08 3.19 4.22L19.62 20.69Z" fill="#000000" fill-opacity="0.898039" fill-rule="nonzero"/>
    </g>
</svg>
