<svg width="40.000000" height="40.000000" viewBox="0 0 40 40" fill="none" xmlns="http://www.w3.org/2000/svg" xmlns:xlink="http://www.w3.org/1999/xlink">
    <desc>
        Created with Pixso.
    </desc>
    <defs/>
    <rect id="svg" width="40.000000" height="40.000000" fill="#FFFFFF" fill-opacity="0"/>
    <circle id="椭圆 1" cx="20.000000" cy="20.000000" r="20.000000" fill="#FFFFFF" fill-opacity="0.100000"/>
    <path id="path" d="M12.01 20.53C12.01 20.6 12.01 20.67 12.02 20.73C12.03 20.8 12.04 20.86 12.05 20.93C12.06 20.99 12.08 21.05 12.1 21.12C12.12 21.18 12.14 21.24 12.16 21.3C12.19 21.36 12.22 21.42 12.25 21.48C12.28 21.54 12.31 21.59 12.35 21.65C12.38 21.7 12.42 21.75 12.47 21.8C12.51 21.85 12.55 21.9 12.6 21.95C12.64 22 12.69 22.04 12.74 22.08C12.79 22.12 12.85 22.16 12.9 22.2C12.95 22.23 13.01 22.27 13.07 22.3C13.13 22.33 13.19 22.36 13.25 22.38C13.31 22.41 13.37 22.43 13.43 22.45C13.49 22.47 13.56 22.48 13.62 22.5C13.69 22.51 13.75 22.52 13.82 22.53C13.88 22.53 13.95 22.54 14.01 22.54C14.08 22.54 14.14 22.53 14.21 22.53C14.27 22.52 14.34 22.51 14.4 22.5C14.47 22.48 14.53 22.47 14.59 22.45C14.65 22.43 14.72 22.41 14.78 22.38C14.84 22.36 14.9 22.33 14.95 22.3C15.01 22.27 15.07 22.23 15.12 22.2C15.18 22.16 15.23 22.12 15.28 22.08C15.33 22.04 15.38 22 15.43 21.95C15.47 21.9 15.52 21.85 15.56 21.8C15.6 21.75 15.64 21.7 15.67 21.65C15.71 21.59 15.74 21.54 15.78 21.48C15.81 21.42 15.83 21.36 15.86 21.3C15.88 21.24 15.91 21.18 15.93 21.12C15.94 21.05 15.96 20.99 15.97 20.93C15.99 20.86 16 20.8 16 20.73C16.01 20.67 16.01 20.6 16.01 20.53C16.01 20.47 16.01 20.4 16 20.34C16 20.27 15.99 20.21 15.97 20.14C15.96 20.08 15.94 20.02 15.93 19.95C15.91 19.89 15.88 19.83 15.86 19.77C15.83 19.71 15.81 19.65 15.78 19.59C15.74 19.53 15.71 19.48 15.67 19.42C15.64 19.37 15.6 19.32 15.56 19.27C15.52 19.21 15.47 19.17 15.43 19.12C15.38 19.07 15.33 19.03 15.28 18.99C15.23 18.95 15.18 18.91 15.12 18.87C15.07 18.83 15.01 18.8 14.95 18.77C14.9 18.74 14.84 18.71 14.78 18.69C14.72 18.66 14.65 18.64 14.59 18.62C14.53 18.6 14.47 18.59 14.4 18.57C14.34 18.56 14.27 18.55 14.21 18.54C14.14 18.54 14.08 18.53 14.01 18.53C13.95 18.53 13.88 18.54 13.82 18.54C13.75 18.55 13.69 18.56 13.62 18.57C13.56 18.59 13.49 18.6 13.43 18.62C13.37 18.64 13.31 18.66 13.25 18.69C13.19 18.71 13.13 18.74 13.07 18.77C13.01 18.8 12.95 18.83 12.9 18.87C12.85 18.91 12.79 18.95 12.74 18.99C12.69 19.03 12.64 19.07 12.6 19.12C12.55 19.17 12.51 19.21 12.47 19.27C12.42 19.32 12.38 19.37 12.35 19.42C12.31 19.48 12.28 19.53 12.25 19.59C12.22 19.65 12.19 19.71 12.16 19.77C12.14 19.83 12.12 19.89 12.1 19.95C12.08 20.02 12.06 20.08 12.05 20.14C12.04 20.21 12.03 20.27 12.02 20.34C12.01 20.4 12.01 20.47 12.01 20.53Z" fill="#FFFFFF" fill-opacity="0.898039" fill-rule="nonzero"/>
    <path id="path" d="M18.5 20.53C18.5 20.6 18.5 20.67 18.51 20.73C18.52 20.8 18.53 20.86 18.54 20.92C18.55 20.99 18.57 21.05 18.59 21.12C18.61 21.18 18.63 21.24 18.65 21.3C18.68 21.36 18.71 21.42 18.74 21.48C18.77 21.54 18.8 21.59 18.84 21.65C18.87 21.7 18.91 21.75 18.95 21.8C19 21.85 19.04 21.9 19.09 21.95C19.13 22 19.18 22.04 19.23 22.08C19.28 22.12 19.33 22.16 19.39 22.2C19.44 22.23 19.5 22.27 19.56 22.3C19.62 22.33 19.67 22.36 19.73 22.38C19.8 22.41 19.86 22.43 19.92 22.45C19.98 22.47 20.05 22.48 20.11 22.5C20.17 22.51 20.24 22.52 20.3 22.52C20.37 22.53 20.43 22.53 20.5 22.53C20.57 22.53 20.63 22.53 20.7 22.52C20.76 22.52 20.83 22.51 20.89 22.5C20.95 22.48 21.02 22.47 21.08 22.45C21.14 22.43 21.2 22.41 21.27 22.38C21.33 22.36 21.39 22.33 21.44 22.3C21.5 22.27 21.56 22.23 21.61 22.2C21.67 22.16 21.72 22.12 21.77 22.08C21.82 22.04 21.87 22 21.91 21.95C21.96 21.9 22 21.85 22.05 21.8C22.09 21.75 22.13 21.7 22.16 21.65C22.2 21.59 22.23 21.54 22.26 21.48C22.29 21.42 22.32 21.36 22.35 21.3C22.37 21.24 22.39 21.18 22.41 21.12C22.43 21.05 22.45 20.99 22.46 20.92C22.47 20.86 22.48 20.8 22.49 20.73C22.5 20.67 22.5 20.6 22.5 20.53C22.5 20.47 22.5 20.4 22.49 20.34C22.48 20.27 22.47 20.21 22.46 20.14C22.45 20.08 22.43 20.02 22.41 19.95C22.39 19.89 22.37 19.83 22.35 19.77C22.32 19.71 22.29 19.65 22.26 19.59C22.23 19.53 22.2 19.48 22.16 19.42C22.13 19.37 22.09 19.32 22.05 19.27C22 19.22 21.96 19.17 21.91 19.12C21.87 19.07 21.82 19.03 21.77 18.99C21.72 18.95 21.67 18.91 21.61 18.87C21.56 18.84 21.5 18.8 21.44 18.77C21.39 18.74 21.33 18.71 21.27 18.69C21.2 18.66 21.14 18.64 21.08 18.62C21.02 18.6 20.95 18.59 20.89 18.57C20.83 18.56 20.76 18.55 20.7 18.54C20.63 18.54 20.57 18.53 20.5 18.53C20.43 18.53 20.37 18.54 20.3 18.54C20.24 18.55 20.17 18.56 20.11 18.57C20.05 18.59 19.98 18.6 19.92 18.62C19.86 18.64 19.8 18.66 19.73 18.69C19.67 18.71 19.62 18.74 19.56 18.77C19.5 18.8 19.44 18.84 19.39 18.87C19.33 18.91 19.28 18.95 19.23 18.99C19.18 19.03 19.13 19.07 19.09 19.12C19.04 19.17 19 19.22 18.95 19.27C18.91 19.32 18.87 19.37 18.84 19.42C18.8 19.48 18.77 19.53 18.74 19.59C18.71 19.65 18.68 19.71 18.65 19.77C18.63 19.83 18.61 19.89 18.59 19.95C18.57 20.02 18.55 20.08 18.54 20.14C18.53 20.21 18.52 20.27 18.51 20.34C18.5 20.4 18.5 20.47 18.5 20.53Z" fill="#FFFFFF" fill-opacity="0.898039" fill-rule="nonzero"/>
    <path id="path" d="M24.99 20.53C24.99 20.6 24.99 20.67 25 20.73C25 20.8 25.01 20.86 25.03 20.92C25.04 20.99 25.06 21.05 25.07 21.12C25.09 21.18 25.12 21.24 25.14 21.3C25.17 21.36 25.19 21.42 25.22 21.48C25.26 21.54 25.29 21.59 25.33 21.65C25.36 21.7 25.4 21.75 25.44 21.8C25.48 21.85 25.53 21.9 25.57 21.95C25.62 22 25.67 22.04 25.72 22.08C25.77 22.12 25.82 22.16 25.88 22.2C25.93 22.23 25.99 22.27 26.05 22.3C26.1 22.33 26.16 22.36 26.22 22.38C26.28 22.41 26.35 22.43 26.41 22.45C26.47 22.47 26.53 22.48 26.6 22.5C26.66 22.51 26.73 22.52 26.79 22.52C26.86 22.53 26.92 22.53 26.99 22.53C27.05 22.53 27.12 22.53 27.18 22.52C27.25 22.52 27.31 22.51 27.38 22.5C27.44 22.48 27.51 22.47 27.57 22.45C27.63 22.43 27.69 22.41 27.75 22.38C27.81 22.36 27.87 22.33 27.93 22.3C27.99 22.27 28.05 22.23 28.1 22.2C28.15 22.16 28.21 22.12 28.26 22.08C28.31 22.04 28.36 22 28.4 21.95C28.45 21.9 28.49 21.85 28.53 21.8C28.58 21.75 28.62 21.7 28.65 21.65C28.69 21.59 28.72 21.54 28.75 21.48C28.78 21.42 28.81 21.36 28.84 21.3C28.86 21.24 28.88 21.18 28.9 21.12C28.92 21.05 28.94 20.99 28.95 20.92C28.96 20.86 28.97 20.8 28.98 20.73C28.99 20.67 28.99 20.6 28.99 20.53C28.99 20.47 28.99 20.4 28.98 20.34C28.97 20.27 28.96 20.21 28.95 20.14C28.94 20.08 28.92 20.02 28.9 19.95C28.88 19.89 28.86 19.83 28.84 19.77C28.81 19.71 28.78 19.65 28.75 19.59C28.72 19.53 28.69 19.48 28.65 19.42C28.62 19.37 28.58 19.32 28.53 19.27C28.49 19.22 28.45 19.17 28.4 19.12C28.36 19.07 28.31 19.03 28.26 18.99C28.21 18.95 28.15 18.91 28.1 18.87C28.05 18.84 27.99 18.8 27.93 18.77C27.87 18.74 27.81 18.71 27.75 18.69C27.69 18.66 27.63 18.64 27.57 18.62C27.51 18.6 27.44 18.59 27.38 18.57C27.31 18.56 27.25 18.55 27.18 18.54C27.12 18.54 27.05 18.53 26.99 18.53C26.92 18.53 26.86 18.54 26.79 18.54C26.73 18.55 26.66 18.56 26.6 18.57C26.53 18.59 26.47 18.6 26.41 18.62C26.35 18.64 26.28 18.66 26.22 18.69C26.16 18.71 26.1 18.74 26.05 18.77C25.99 18.8 25.93 18.84 25.88 18.87C25.82 18.91 25.77 18.95 25.72 18.99C25.67 19.03 25.62 19.07 25.57 19.12C25.53 19.17 25.48 19.22 25.44 19.27C25.4 19.32 25.36 19.37 25.33 19.42C25.29 19.48 25.26 19.53 25.22 19.59C25.19 19.65 25.17 19.71 25.14 19.77C25.12 19.83 25.09 19.89 25.07 19.95C25.06 20.02 25.04 20.08 25.03 20.14C25.01 20.21 25 20.27 25 20.34C24.99 20.4 24.99 20.47 24.99 20.53Z" fill="#FFFFFF" fill-opacity="0.898039" fill-rule="nonzero"/>
</svg>
