<svg width="320.000000" height="320.000000" viewBox="0 0 320 320" fill="none" xmlns="http://www.w3.org/2000/svg" xmlns:xlink="http://www.w3.org/1999/xlink">
	<desc>
			Created with Pixso.
	</desc>
	<defs>
		<filter id="filter_11_789_dd" x="75.709473" y="105.094482" width="168.581543" height="156.485840" filterUnits="userSpaceOnUse" color-interpolation-filters="sRGB">
			<feFlood flood-opacity="0" result="BackgroundImageFix"/>
			<feColorMatrix in="SourceAlpha" type="matrix" values="0 0 0 0 0 0 0 0 0 0 0 0 0 0 0 0 0 0 127 0" result="hardAlpha"/>
			<feOffset dx="0" dy="0"/>
			<feGaussianBlur stdDeviation="8.42105"/>
			<feComposite in2="hardAlpha" operator="out" k2="-1" k3="1"/>
			<feColorMatrix type="matrix" values="0 0 0 0 0 0 0 0 0 0 0 0 0 0 0 0 0 0 0.1 0"/>
			<feBlend mode="normal" in2="BackgroundImageFix" result="effect_dropShadow_1"/>
			<feBlend mode="normal" in="SourceGraphic" in2="effect_dropShadow_1" result="shape"/>
		</filter>
		<linearGradient x1="160.000000" y1="0.000000" x2="160.000000" y2="320.000000" id="paint_linear_11_779_0" gradientUnits="userSpaceOnUse">
			<stop stop-color="#EB543D"/>
			<stop offset="1.000000" stop-color="#FF724D"/>
		</linearGradient>
		<linearGradient x1="240.365860" y1="48.657871" x2="209.018600" y2="90.694511" id="paint_linear_11_780_0" gradientUnits="userSpaceOnUse">
			<stop stop-color="#E63E24" stop-opacity="0.800000"/>
			<stop offset="1.000000" stop-color="#E63E24" stop-opacity="0.000000"/>
		</linearGradient>
		<linearGradient x1="217.335297" y1="64.582016" x2="242.553864" y2="37.504543" id="paint_linear_11_784_0" gradientUnits="userSpaceOnUse">
			<stop stop-color="#FF8666"/>
			<stop offset="1.000000" stop-color="#FF7B59" stop-opacity="0.501961"/>
		</linearGradient>
	</defs>
	<rect id="ic_grid_pdf" width="320.000000" height="320.000000" fill="#FFFFFF" fill-opacity="0"/>
	<path id="矩形备份 113" d="M56.84 0L199.92 0C203.1 0 206.15 1.26 208.4 3.5L276.47 71.48C278.73 73.73 280 76.79 280 79.97L280 303.15C280 312.45 272.45 320 263.15 320L56.84 320C47.54 320 40 312.45 40 303.15L40 16.84C40 7.54 47.54 0 56.84 0Z" fill="url(#paint_linear_11_779_0)" fill-opacity="1.000000" fill-rule="evenodd"/>
	<path id="矩形备份 137" d="M56.84 0L199.92 0C203.1 0 206.15 1.26 208.4 3.5L276.47 71.48C278.73 73.73 280 76.79 280 79.97L280 303.15C280 312.45 272.45 320 263.15 320L56.84 320C47.54 320 40 312.45 40 303.15L40 16.84C40 7.54 47.54 0 56.84 0Z" fill="url(#paint_linear_11_780_0)" fill-opacity="1.000000" fill-rule="evenodd"/>
	<path id="形状结合" d="M206.58 1.35669L206.683 1.45996C206.64 1.42212 206.597 1.38477 206.553 1.34766L206.58 1.35669ZM210.664 10.2483C210.664 10.4033 210.661 10.5579 210.655 10.7114L210.655 52.9216C210.655 61.7583 217.818 68.9216 226.655 68.9216L269.153 68.9216C273.002 68.9216 276.421 70.7866 278.554 73.6614C277.974 72.7517 277.293 71.9019 276.518 71.1294L207.734 2.5083C209.557 4.57178 210.664 7.28223 210.664 10.2483Z" clip-rule="evenodd" fill="url(#paint_linear_11_784_0)" fill-opacity="1.000000" fill-rule="evenodd"/>
	<g filter="url(#filter_11_789_dd)">
		<path id="多边形" d="M134.65 210.65L185.34 210.65L160 166.74L134.65 210.65Z" stroke="#FFFFFF" stroke-opacity="1.000000" stroke-width="10.880761" stroke-linejoin="round"/>
		<path id="路径" d="M160.74 162.81C167 155.47 170.13 149.95 170.13 146.25C170.13 140.47 165.59 135.79 160 135.79C154.4 135.79 149.86 140.47 149.86 146.25C149.86 149.95 152.99 155.47 159.25 162.8" stroke="#FFFFFF" stroke-opacity="1.000000" stroke-width="10.880761" stroke-linejoin="round"/>
		<path id="路径备份" d="M188.45 212.98C191.67 222.07 194.89 227.54 198.1 229.4C203.1 232.28 209.42 230.7 212.22 225.85C215.02 221 213.23 214.74 208.23 211.85C205.02 210 198.68 209.95 189.2 211.7" stroke="#FFFFFF" stroke-opacity="1.000000" stroke-width="10.880761" stroke-linejoin="round"/>
		<path id="路径备份 2" d="M130.8 211.7C121.31 209.95 114.97 210 111.76 211.85C106.76 214.74 104.97 221 107.77 225.85C110.57 230.7 116.89 232.28 121.89 229.4C125.1 227.55 128.31 222.08 131.54 213" stroke="#FFFFFF" stroke-opacity="1.000000" stroke-width="10.880761" stroke-linejoin="round"/>
	</g>
</svg>
