<svg width="320.000000" height="320.000000" viewBox="0 0 320 320" fill="none" xmlns="http://www.w3.org/2000/svg" xmlns:xlink="http://www.w3.org/1999/xlink">
	<desc>
			Created with Pixso.
	</desc>
	<defs>
		<filter id="filter_1_25_dd" x="102.488281" y="116.101807" width="115.467957" height="133.912842" filterUnits="userSpaceOnUse" color-interpolation-filters="sRGB">
			<feFlood flood-opacity="0" result="BackgroundImageFix"/>
			<feColorMatrix in="SourceAlpha" type="matrix" values="0 0 0 0 0 0 0 0 0 0 0 0 0 0 0 0 0 0 127 0" result="hardAlpha"/>
			<feOffset dx="0" dy="0"/>
			<feGaussianBlur stdDeviation="5.66667"/>
			<feComposite in2="hardAlpha" operator="out" k2="-1" k3="1"/>
			<feColorMatrix type="matrix" values="0 0 0 0 0 0 0 0 0 0 0 0 0 0 0 0 0 0 0.1 0"/>
			<feBlend mode="normal" in2="BackgroundImageFix" result="effect_dropShadow_1"/>
			<feBlend mode="normal" in="SourceGraphic" in2="effect_dropShadow_1" result="shape"/>
		</filter>
		<clipPath id="clip2_68">
			<rect id="ic_grid_xls" width="320.000000" height="320.000000" fill="white" fill-opacity="0"/>
		</clipPath>
		<linearGradient x1="160.000000" y1="0.000000" x2="160.000000" y2="320.000000" id="paint_linear_1_19_0" gradientUnits="userSpaceOnUse">
			<stop stop-color="#57C24E"/>
			<stop offset="1.000000" stop-color="#8AE082"/>
		</linearGradient>
		<linearGradient x1="249.033157" y1="38.604549" x2="177.224869" y2="134.823196" id="paint_linear_1_20_0" gradientUnits="userSpaceOnUse">
			<stop stop-color="#49B640" stop-opacity="0.800000"/>
			<stop offset="0.450137" stop-color="#49B640" stop-opacity="0.301961"/>
			<stop offset="1.000000" stop-color="#7AD772" stop-opacity="0.000000"/>
		</linearGradient>
		<linearGradient x1="215.477295" y1="65.086060" x2="243.141815" y2="38.073982" id="paint_linear_1_21_0" gradientUnits="userSpaceOnUse">
			<stop stop-color="#88E081"/>
			<stop offset="1.000000" stop-color="#87DF80" stop-opacity="0.400000"/>
		</linearGradient>
	</defs>
	<g clip-path="url(#clip2_68)">
		<path id="矩形备份 113" d="M56.84 0L199.92 0C203.1 0 206.15 1.26 208.4 3.5L276.47 71.48C278.73 73.73 280 76.79 280 79.97L280 303.15C280 312.45 272.46 320 263.15 320L56.84 320C47.54 320 40 312.45 40 303.15L40 16.84C40 7.54 47.54 0 56.84 0Z" fill="url(#paint_linear_1_19_0)" fill-opacity="1.000000" fill-rule="evenodd"/>
		<path id="矩形备份 136" d="M56.84 0L199.92 0C203.1 0 206.15 1.26 208.4 3.5L276.47 71.48C278.73 73.73 280 76.79 280 79.97L280 303.15C280 312.45 272.46 320 263.15 320L56.84 320C47.54 320 40 312.45 40 303.15L40 16.84C40 7.54 47.54 0 56.84 0Z" fill="url(#paint_linear_1_20_0)" fill-opacity="1.000000" fill-rule="evenodd"/>
		<path id="形状结合" d="M206.579 1.35669L206.683 1.46045C206.64 1.42261 206.597 1.38501 206.553 1.34766L206.579 1.35669ZM210.664 10.2483C210.664 10.4045 210.661 10.5598 210.655 10.7144L210.655 52.9216C210.655 61.7583 217.818 68.9216 226.655 68.9216L269.153 68.9216C273.002 68.9216 276.42 70.7861 278.553 73.6599C277.973 72.751 277.292 71.9016 276.518 71.1294L207.734 2.5083C209.557 4.57178 210.664 7.28223 210.664 10.2483Z" clip-rule="evenodd" fill="url(#paint_linear_1_21_0)" fill-opacity="1.000000" fill-rule="evenodd"/>
		<g filter="url(#filter_1_25_dd)">
			<path id="路径 5" d="M121.28 146.68L121.26 146.67C118.39 142.93 119.07 137.74 122.81 134.87C126.56 132 131.75 132.68 134.62 136.43L134.62 136.45L121.28 146.68ZM197.92 219L197.95 219C200.82 222.74 200.13 227.94 196.39 230.81C192.65 233.68 187.45 232.99 184.58 229.25L184.59 229.22L197.92 219Z" fill="#D8D8D8" fill-opacity="0" fill-rule="nonzero"/>
			<path id="路径 5" d="M127.94 141.55L191.26 224.13" stroke="#FFFFFF" stroke-opacity="1.000000" stroke-width="16.842106" stroke-linejoin="round" stroke-linecap="round"/>
			<path id="路径 5" d="M185.82 136.88L185.82 136.86C188.69 133.11 193.88 132.43 197.62 135.3C201.36 138.17 202.05 143.36 199.18 147.11L199.15 147.11L185.82 136.88ZM135.85 229.65L135.85 229.68C132.98 233.42 127.79 234.11 124.05 231.24C120.3 228.37 119.62 223.17 122.49 219.43L122.52 219.43L135.85 229.65Z" fill="#D8D8D8" fill-opacity="0" fill-rule="nonzero"/>
			<path id="路径 5" d="M192.5 141.98L129.17 224.56" stroke="#FFFFFF" stroke-opacity="1.000000" stroke-width="16.842106" stroke-linejoin="round" stroke-linecap="round"/>
		</g>
	</g>
</svg>
