<svg width="320.000000" height="320.000000" viewBox="0 0 320 320" fill="none" xmlns="http://www.w3.org/2000/svg" xmlns:xlink="http://www.w3.org/1999/xlink">
	<desc>
			Created with Pixso.
	</desc>
	<defs>
		<filter id="filter_11_744_dd" x="80.936768" y="110.492432" width="158.125977" height="146.115723" filterUnits="userSpaceOnUse" color-interpolation-filters="sRGB">
			<feFlood flood-opacity="0" result="BackgroundImageFix"/>
			<feColorMatrix in="SourceAlpha" type="matrix" values="0 0 0 0 0 0 0 0 0 0 0 0 0 0 0 0 0 0 127 0" result="hardAlpha"/>
			<feOffset dx="0" dy="0"/>
			<feGaussianBlur stdDeviation="7.01754"/>
			<feComposite in2="hardAlpha" operator="out" k2="-1" k3="1"/>
			<feColorMatrix type="matrix" values="0 0 0 0 0 0 0 0 0 0 0 0 0 0 0 0 0 0 0.1 0"/>
			<feBlend mode="normal" in2="BackgroundImageFix" result="effect_dropShadow_1"/>
			<feBlend mode="normal" in="SourceGraphic" in2="effect_dropShadow_1" result="shape"/>
		</filter>
		<linearGradient x1="160.000000" y1="0.000000" x2="160.000000" y2="320.000000" id="paint_linear_11_738_0" gradientUnits="userSpaceOnUse">
			<stop stop-color="#399CFF"/>
			<stop offset="1.000000" stop-color="#55C0F2"/>
		</linearGradient>
		<linearGradient x1="239.097885" y1="43.287926" x2="200.013062" y2="96.087708" id="paint_linear_11_739_0" gradientUnits="userSpaceOnUse">
			<stop stop-color="#378EE6" stop-opacity="0.800000"/>
			<stop offset="0.999153" stop-color="#399CFF" stop-opacity="0.000000"/>
		</linearGradient>
		<linearGradient x1="214.406677" y1="64.983681" x2="242.553741" y2="37.504459" id="paint_linear_11_743_0" gradientUnits="userSpaceOnUse">
			<stop stop-color="#84D7FB" stop-opacity="0.901961"/>
			<stop offset="1.000000" stop-color="#67CBFF" stop-opacity="0.501961"/>
		</linearGradient>
	</defs>
	<rect id="ic_grid_doc" width="320.000000" height="320.000000" fill="#FFFFFF" fill-opacity="0"/>
	<path id="矩形备份 113" d="M56.84 0L199.92 0C203.1 0 206.15 1.26 208.4 3.5L276.47 71.48C278.73 73.73 280 76.79 280 79.97L280 303.15C280 312.45 272.45 320 263.15 320L56.84 320C47.54 320 40 312.45 40 303.15L40 16.84C40 7.54 47.54 0 56.84 0Z" fill="url(#paint_linear_11_738_0)" fill-opacity="1.000000" fill-rule="evenodd"/>
	<path id="矩形备份 113" d="" fill="#000000" fill-opacity="0" fill-rule="evenodd"/>
	<path id="矩形备份 136" d="M56.84 0L199.92 0C203.1 0 206.15 1.26 208.4 3.5L276.47 71.48C278.73 73.73 280 76.79 280 79.97L280 303.15C280 312.45 272.45 320 263.15 320L56.84 320C47.54 320 40 312.45 40 303.15L40 16.84C40 7.54 47.54 0 56.84 0Z" fill="url(#paint_linear_11_739_0)" fill-opacity="1.000000" fill-rule="evenodd"/>
	<path id="形状结合" d="M206.58 1.35657L206.684 1.46094C206.641 1.42285 206.597 1.38501 206.553 1.34753L206.58 1.35657ZM210.664 10.2483C210.664 10.4034 210.661 10.5579 210.655 10.7117L210.655 52.9216C210.655 61.7582 217.818 68.9216 226.655 68.9216L269.153 68.9216C273.002 68.9216 276.421 70.7866 278.554 73.6614C277.974 72.7517 277.293 71.9019 276.518 71.1293L207.733 2.50745C209.557 4.57104 210.664 7.28174 210.664 10.2483Z" clip-rule="evenodd" fill="url(#paint_linear_11_743_0)" fill-opacity="1.000000" fill-rule="evenodd"/>
	<g filter="url(#filter_11_744_dd)">
		<path id="路径 4备份" d="M110 139.55L132.03 227.55L160.34 139.55L188.55 227.55L210 139.55" stroke="#FFFFFF" stroke-opacity="1.000000" stroke-width="16.000000" stroke-linejoin="round"/>
	</g>
</svg>
