<svg width="24.000000" height="24.000000" viewBox="0 0 24 24" fill="none" xmlns="http://www.w3.org/2000/svg" xmlns:xlink="http://www.w3.org/1999/xlink">
	<desc>
			Created with Pixso.
	</desc>
	<defs>
		<filter id="filter_361_10438_dd" x="2.963623" y="6.236816" width="17.964600" height="14.765137" filterUnits="userSpaceOnUse" color-interpolation-filters="sRGB">
			<feFlood flood-opacity="0" result="BackgroundImageFix"/>
			<feColorMatrix in="SourceAlpha" type="matrix" values="0 0 0 0 0 0 0 0 0 0 0 0 0 0 0 0 0 0 127 0" result="hardAlpha"/>
			<feOffset dx="0.0493555" dy="1.41335"/>
			<feGaussianBlur stdDeviation="0.666667"/>
			<feComposite in2="hardAlpha" operator="out" k2="-1" k3="1"/>
			<feColorMatrix type="matrix" values="0 0 0 0 0 0 0 0 0 0 0 0 0 0 0 0 0 0 0.1 0"/>
			<feBlend mode="normal" in2="BackgroundImageFix" result="effect_dropShadow_1"/>
			<feBlend mode="normal" in="SourceGraphic" in2="effect_dropShadow_1" result="shape"/>
		</filter>
	</defs>
	<rect id="Rectangle 2375 Copy" x="2.000000" y="2.000000" rx="10.000000" width="20.000000" height="20.000000" fill="#EE5D1A" fill-opacity="1.000000"/>
	<g filter="url(#filter_361_10438_dd)">
		<mask id="mask_361_10438" fill="white">
			<path id="Rectangle 62" d="M17.5608 8.09204C17.157 7.71558 16.5242 7.73755 16.1475 8.1416L10.5215 14.1748L7.59619 11.447C7.19238 11.0706 6.55957 11.0925 6.18286 11.4966C5.8064 11.9004 5.82837 12.5332 6.23242 12.9099L9.86523 16.2976C9.8728 16.3052 9.88062 16.3125 9.88843 16.3198C10.0945 16.512 10.3599 16.6003 10.6206 16.5872C10.8713 16.575 11.1177 16.4685 11.3025 16.2705C11.3096 16.2627 11.3167 16.2549 11.3235 16.2471L17.6101 9.50562C17.9868 9.10156 17.9648 8.46875 17.5608 8.09204Z" clip-rule="evenodd" fill="" fill-opacity="1.000000" fill-rule="evenodd"/>
		</mask>
		<path id="Rectangle 62" d="M17.5608 8.09204C17.157 7.71558 16.5242 7.73755 16.1475 8.1416L10.5215 14.1748L7.59619 11.447C7.19238 11.0706 6.55957 11.0925 6.18286 11.4966C5.8064 11.9004 5.82837 12.5332 6.23242 12.9099L9.86523 16.2976C9.8728 16.3052 9.88062 16.3125 9.88843 16.3198C10.0945 16.512 10.3599 16.6003 10.6206 16.5872C10.8713 16.575 11.1177 16.4685 11.3025 16.2705C11.3096 16.2627 11.3167 16.2549 11.3235 16.2471L17.6101 9.50562C17.9868 9.10156 17.9648 8.46875 17.5608 8.09204Z" clip-rule="evenodd" fill="#FFFFFF" fill-opacity="1.000000" fill-rule="evenodd" mask="url(#mask_361_10438)"/>
		<path id="Rectangle 62" d="M18.7051 8.00708C18.595 7.76099 18.4409 7.54541 18.2429 7.36084C18.0447 7.17603 17.8191 7.03735 17.5659 6.94482C17.3218 6.85571 17.0693 6.81567 16.8091 6.82471C16.5486 6.83374 16.2998 6.89136 16.0625 6.99731C15.8164 7.10742 15.6008 7.26147 15.4163 7.45947L10.4721 12.7615L8.27832 10.7158C8.08032 10.531 7.85449 10.3923 7.60132 10.2998C7.35718 10.2107 7.10498 10.1707 6.84448 10.1797C6.58423 10.1887 6.33521 10.2463 6.0979 10.3523C5.85181 10.4624 5.63623 10.6165 5.45166 10.8145C5.26685 11.0125 5.12817 11.2383 5.03564 11.4915C4.94653 11.7356 4.90649 11.988 4.91553 12.2483C4.92456 12.5085 4.98218 12.7576 5.08813 12.9949C5.19824 13.241 5.35229 13.4565 5.55029 13.6411L9.17243 17.0189C9.18359 17.0299 9.19494 17.0406 9.2063 17.0513C9.40845 17.2397 9.63892 17.3801 9.89819 17.4724C10.1479 17.5615 10.4053 17.5994 10.6707 17.5859C10.9255 17.5735 11.1689 17.5142 11.4009 17.4084C11.6416 17.2988 11.8525 17.1467 12.0337 16.9524C12.0434 16.9422 12.0529 16.9318 12.0623 16.9213L18.3416 10.1875C18.5264 9.9895 18.6648 9.76367 18.7576 9.5105C18.8467 9.26636 18.8867 9.01416 18.8777 8.75366C18.8687 8.49341 18.811 8.24438 18.7051 8.00708ZM11.3235 16.2471L17.6101 9.50562C17.9868 9.10156 17.9648 8.46875 17.5608 8.09204C17.157 7.71558 16.5242 7.73755 16.1475 8.1416L10.5215 14.1748L9.79013 13.4928L7.59619 11.447C7.19238 11.0706 6.55957 11.0925 6.18286 11.4966C5.8064 11.9004 5.82837 12.5332 6.23242 12.9099L9.86523 16.2976C9.8728 16.3052 9.88062 16.3125 9.88843 16.3198C10.0945 16.512 10.3599 16.6003 10.6206 16.5872C10.8713 16.575 11.1177 16.4685 11.3025 16.2705C11.3096 16.2627 11.3167 16.2549 11.3235 16.2471Z" clip-rule="evenodd" fill="#000000" fill-opacity="0.047059" fill-rule="evenodd"/>
	</g>
</svg>
