<svg width="16.000000" height="16.000000" viewBox="0 0 16 16" fill="none" xmlns="http://www.w3.org/2000/svg" xmlns:xlink="http://www.w3.org/1999/xlink">
	<desc>
			Created with Pixso.
	</desc>
	<defs>
		<clipPath id="clip23_3281">
			<rect width="16.000000" height="16.000000" fill="white" fill-opacity="0"/>
		</clipPath>
	</defs>
	<g clip-path="url(#clip23_3281)">
		<g opacity="0.000000">
			<rect width="16.000000" height="16.000000" fill="#000000" fill-opacity="1.000000"/>
		</g>
		<path d="M8 14.51C8.42 14.51 8.78 14.34 9.06 14L12.86 13.4C13.52 13.31 14.07 13 14.5 12.5C14.93 11.99 15.15 11.4 15.15 10.75L15.15 3.31C15.15 2.74 14.93 2.27 14.5 1.89C14.16 1.62 13.77 1.48 13.33 1.48C13.25 1.48 13.14 1.5 12.99 1.52L9.63 2.15C9.3 2.22 8.99 2.35 8.71 2.53C8.43 2.7 8.19 2.93 8 3.19C7.8 2.93 7.57 2.7 7.29 2.53C7 2.35 6.69 2.22 6.35 2.15L3.01 1.52C2.85 1.5 2.74 1.48 2.67 1.48C2.22 1.48 1.83 1.62 1.5 1.89C1.28 2.08 1.12 2.3 1.02 2.54C0.9 2.78 0.85 3.05 0.85 3.33L0.85 10.75C0.85 11.4 1.06 11.99 1.5 12.5C1.92 13 2.47 13.3 3.14 13.4L6.96 14C7.08 14.15 7.23 14.28 7.42 14.37C7.6 14.46 7.8 14.51 8 14.51ZM2.67 2.47C2.74 2.47 2.79 2.48 2.83 2.5L6.18 3.13C6.56 3.21 6.87 3.39 7.13 3.69C7.37 4 7.5 4.35 7.5 4.73C7.5 4.87 7.55 4.99 7.65 5.1C7.74 5.19 7.86 5.25 8 5.25C8.14 5.25 8.25 5.19 8.35 5.1C8.45 4.99 8.5 4.87 8.5 4.73C8.5 4.35 8.62 4 8.87 3.69C9.12 3.39 9.43 3.21 9.82 3.13L13.17 2.51C13.21 2.5 13.26 2.5 13.34 2.5C13.54 2.5 13.71 2.55 13.84 2.66C14.04 2.85 14.14 3.07 14.14 3.33L14.14 10.75C14.14 11.17 14 11.54 13.74 11.86C13.46 12.17 13.12 12.36 12.7 12.42L8.68 13.04C8.53 13.07 8.4 13.16 8.32 13.31C8.25 13.43 8.14 13.5 8 13.5C7.87 13.5 7.76 13.43 7.68 13.31C7.61 13.16 7.49 13.07 7.31 13.04L3.28 12.42C2.86 12.36 2.52 12.17 2.25 11.86C1.97 11.54 1.84 11.17 1.84 10.75L1.84 3.33C1.84 3.07 1.94 2.85 2.14 2.66C2.3 2.54 2.47 2.47 2.67 2.47ZM8 11.5C8.14 11.5 8.25 11.45 8.35 11.35C8.45 11.25 8.5 11.12 8.5 10.99L8.5 6.66C8.5 6.53 8.45 6.4 8.35 6.31C8.25 6.2 8.14 6.15 8 6.15C7.86 6.15 7.74 6.2 7.65 6.31C7.55 6.4 7.5 6.53 7.5 6.66L7.5 10.99C7.5 11.12 7.55 11.25 7.65 11.35C7.74 11.45 7.86 11.5 8 11.5Z" fill="#966426" fill-opacity="1.000000" fill-rule="nonzero"/>
	</g>
</svg>
