<svg width="40.000000" height="40.000000" viewBox="0 0 40 40" fill="none" xmlns="http://www.w3.org/2000/svg" xmlns:xlink="http://www.w3.org/1999/xlink">
	<desc>
			Created with Pixso.
	</desc>
	<defs/>
	<circle id="椭圆 54" cx="20.000000" cy="20.000000" r="20.000000" fill="#000000" fill-opacity="0.047059"/>
	<rect id="ic_public_select_all-全选/base/ic_public_select_all" x="8.000000" y="8.000000" width="24.000000" height="24.000000" fill="#FFFFFF" fill-opacity="0"/>
	<path id="矢量 221" d="M30.95 15.79L30.95 21.79C30.95 22.29 30.89 22.78 30.79 23.25C30.7 23.65 30.58 24.04 30.41 24.42C30.13 25.08 29.76 25.68 29.29 26.21L29.29 23.05C29.38 22.67 29.45 22.19 29.45 21.79L29.45 15.79Q29.45 15.21 29.32 14.64Q29.32 14.64 29.32 14.63C29.25 14.33 29.15 14.04 29.03 13.75C28.91 13.46 28.76 13.18 28.59 12.92C28.39 12.62 28.17 12.34 27.91 12.08C27.64 11.82 27.36 11.59 27.06 11.39C26.8 11.22 26.53 11.08 26.24 10.95C25.95 10.83 25.65 10.73 25.35 10.67C24.97 10.58 24.59 10.54 24.2 10.54L18.2 10.54C17.79 10.54 17.41 10.58 17.03 10.67C16.99 10.68 16.95 10.69 16.92 10.7L13.77 10.7C14 10.5 14.24 10.31 14.49 10.15C14.83 9.92 15.19 9.73 15.57 9.57Q16.13 9.33 16.73 9.2C17.2 9.09 17.69 9.04 18.2 9.04L24.2 9.04C24.69 9.04 25.17 9.09 25.65 9.2C26.05 9.28 26.44 9.41 26.82 9.57C27.2 9.73 27.56 9.92 27.9 10.14C28.28 10.4 28.64 10.69 28.97 11.02C29.59 11.64 30.07 12.36 30.41 13.17C30.77 14 30.95 14.88 30.95 15.79ZM27.95 15.79L27.95 27.79C27.95 28.3 27.85 28.79 27.65 29.25C27.56 29.47 27.45 29.67 27.33 29.86L27.32 29.86Q27.12 30.18 26.85 30.45C26.5 30.79 26.1 31.06 25.65 31.25Q25.33 31.39 25 31.46C24.74 31.52 24.47 31.54 24.2 31.54L12.2 31.54C11.69 31.54 11.2 31.45 10.73 31.25C10.52 31.16 10.32 31.05 10.13 30.93C9.92 30.79 9.72 30.63 9.54 30.44C9.36 30.27 9.2 30.07 9.07 29.87C8.94 29.67 8.83 29.47 8.74 29.25C8.54 28.79 8.44 28.3 8.44 27.79L8.44 15.79C8.44 15.52 8.47 15.24 8.53 14.98C8.58 14.76 8.65 14.54 8.74 14.33C8.83 14.12 8.94 13.91 9.07 13.72C9.2 13.51 9.36 13.32 9.54 13.14C9.72 12.96 9.92 12.8 10.13 12.66C10.32 12.53 10.52 12.43 10.73 12.34C10.94 12.25 11.16 12.18 11.38 12.13C11.64 12.07 11.92 12.04 12.2 12.04L24.2 12.04C24.47 12.04 24.74 12.07 25 12.13C25.22 12.17 25.44 12.24 25.65 12.34C26.1 12.53 26.5 12.79 26.85 13.14C27.03 13.32 27.19 13.52 27.33 13.73C27.45 13.92 27.56 14.12 27.65 14.33C27.74 14.55 27.81 14.76 27.86 14.99C27.92 15.25 27.95 15.52 27.95 15.79ZM26.45 15.79C26.45 15.49 26.39 15.2 26.27 14.92C26.15 14.65 25.99 14.41 25.79 14.2C25.58 13.99 25.34 13.83 25.07 13.72Q24.89 13.64 24.7 13.6C24.53 13.56 24.37 13.54 24.2 13.54L12.2 13.54C12.02 13.54 11.84 13.56 11.67 13.6C11.55 13.63 11.43 13.67 11.32 13.72C11.2 13.77 11.08 13.83 10.97 13.9C10.84 13.99 10.72 14.09 10.6 14.2C10.49 14.31 10.4 14.43 10.31 14.56C10.24 14.67 10.17 14.79 10.12 14.92C10.07 15.03 10.03 15.15 10 15.27C9.96 15.44 9.94 15.62 9.94 15.79L9.94 27.79C9.94 28.1 10 28.39 10.12 28.67C10.24 28.94 10.4 29.18 10.6 29.39C10.81 29.59 11.05 29.75 11.32 29.87C11.43 29.92 11.55 29.96 11.67 29.99C11.84 30.03 12.02 30.04 12.2 30.04L24.2 30.04C24.5 30.04 24.79 29.99 25.07 29.87Q25.25 29.79 25.41 29.69Q25.61 29.56 25.79 29.38C25.99 29.18 26.15 28.94 26.27 28.67C26.39 28.39 26.45 28.1 26.45 27.79L26.45 15.79ZM23.95 18.61L17.3 25.61C17.12 25.78 16.91 25.89 16.74 25.89C16.56 25.89 16.39 25.79 16.21 25.61L12.45 21.67C12.16 21.37 12.17 20.9 12.48 20.61C12.78 20.32 13.25 20.33 13.54 20.64L16.75 24.01L22.87 17.57C23.16 17.27 23.62 17.26 23.93 17.55C24.23 17.84 24.24 18.3 23.95 18.61Z" fill="#191919" fill-opacity="1.000000" fill-rule="evenodd"/>
</svg>
