<svg width="24.000000" height="24.000000" viewBox="0 0 24 24" fill="none" xmlns="http://www.w3.org/2000/svg" xmlns:xlink="http://www.w3.org/1999/xlink">
	<desc>
			Created with Pixso.
	</desc>
	<defs>
		<clipPath id="clip74_3761">
			<rect width="24.000000" height="24.000000" fill="white" fill-opacity="0"/>
		</clipPath>
	</defs>
	<g clip-path="url(#clip74_3761)">
		<g opacity="0.000000">
			<rect width="24.000000" height="24.000000" fill="#000000" fill-opacity="1.000000"/>
		</g>
		<path d="M19.03 15.96C19.03 14.84 18.75 13.91 18.19 13.18C17.62 12.43 16.79 11.9 15.7 11.57C16.46 11.18 17.04 10.68 17.42 10.06C17.8 9.43 18 8.68 18 7.82C18 7.04 17.85 6.34 17.56 5.74C17.26 5.12 16.81 4.59 16.21 4.13C15.63 3.68 14.95 3.35 14.17 3.13C13.39 2.91 12.51 2.81 11.52 2.81L7.66 2.81C7.26 2.81 6.89 2.91 6.54 3.11C6.21 3.31 5.95 3.57 5.75 3.9C5.54 4.22 5.45 4.59 5.45 4.99L5.45 19.01C5.45 19.41 5.54 19.77 5.75 20.1C5.95 20.42 6.21 20.68 6.54 20.89C6.89 21.09 7.26 21.18 7.66 21.18L12.29 21.18C13.37 21.18 14.33 21.08 15.17 20.86C16 20.63 16.7 20.28 17.28 19.82C17.85 19.36 18.29 18.81 18.59 18.17C18.88 17.53 19.03 16.79 19.03 15.96ZM11.16 5.16C11.78 5.16 12.34 5.22 12.83 5.34C13.31 5.46 13.73 5.64 14.09 5.88C14.44 6.12 14.7 6.4 14.88 6.73C15.05 7.05 15.14 7.43 15.14 7.87C15.14 8.3 15.05 8.68 14.88 9.02C14.7 9.36 14.44 9.65 14.09 9.91C13.73 10.17 13.31 10.36 12.83 10.48C12.34 10.6 11.78 10.66 11.16 10.66L8.1 10.66L8.1 5.16L11.16 5.16ZM8.1 18.84L8.1 12.89L11.9 12.89C12.6 12.89 13.22 12.95 13.76 13.09C14.3 13.23 14.74 13.42 15.1 13.68C15.46 13.95 15.73 14.27 15.91 14.64C16.09 15 16.18 15.42 16.18 15.89C16.18 16.35 16.09 16.76 15.91 17.12C15.73 17.48 15.46 17.79 15.1 18.04C14.74 18.3 14.3 18.5 13.76 18.64C13.22 18.77 12.6 18.84 11.9 18.84L8.1 18.84Z" fill="#000000" fill-opacity="0.901961" fill-rule="nonzero"/>
	</g>
</svg>
