<svg width="32.000000" height="32.000000" viewBox="0 0 32 32" fill="none" xmlns="http://www.w3.org/2000/svg" xmlns:xlink="http://www.w3.org/1999/xlink">
	<desc>
			Created with Pixso.
	</desc>
	<defs>
		<clipPath id="clip67_2450">
			<rect width="32.000000" height="32.000000" fill="white" fill-opacity="0"/>
		</clipPath>
	</defs>
	<g clip-path="url(#clip67_2450)">
		<g opacity="0.000000">
			<rect width="32.000000" height="32.000000" fill="#000000" fill-opacity="0.898039"/>
		</g>
		<path d="M12.48 3.49C13.42 3.49 14.33 3.63 15.21 3.9C16.1 4.18 16.92 4.58 17.69 5.11C17.93 5.27 18.19 5.31 18.46 5.26C18.74 5.21 18.95 5.07 19.1 4.86C19.25 4.62 19.3 4.36 19.25 4.09C19.2 3.81 19.06 3.6 18.85 3.45C16.93 2.15 14.8 1.5 12.48 1.5C10.98 1.5 9.55 1.78 8.18 2.34C6.82 2.91 5.62 3.72 4.57 4.77C3.64 5.7 2.88 6.77 2.32 7.98C1.75 9.18 1.42 10.43 1.34 11.74C1.23 12.61 1.26 13.55 1.42 14.57C1.58 15.58 1.86 16.53 2.26 17.41C2.33 17.55 2.43 17.65 2.57 17.7C2.71 17.75 2.84 17.75 2.97 17.7C3.1 17.65 3.2 17.55 3.26 17.41L4.8 13.69C4.84 13.54 4.84 13.39 4.8 13.26C4.75 13.12 4.65 13.03 4.5 12.98L3.29 12.48C3.33 11.28 3.59 10.15 4.05 9.06C4.5 7.99 5.15 7.03 5.98 6.21C6.84 5.33 7.83 4.65 8.95 4.18C10.08 3.72 11.26 3.49 12.48 3.49Z" fill="#000000" fill-opacity="0.898039" fill-rule="nonzero"/>
		<path d="M12 7.77C11.27 7.77 10.6 7.95 10 8.31C9.39 8.68 8.91 9.17 8.54 9.78C8.18 10.4 8 11.07 8 11.77L8 26.49C8 27.22 8.18 27.88 8.54 28.49C8.91 29.1 9.39 29.59 10 29.94C10.6 30.31 11.27 30.49 12 30.49L26.72 30.49C27.42 30.49 28.08 30.31 28.7 29.94C29.32 29.59 29.8 29.1 30.17 28.49C30.53 27.88 30.72 27.22 30.72 26.49L30.72 11.77C30.72 11.07 30.53 10.4 30.17 9.78C29.8 9.17 29.32 8.68 28.7 8.31C28.08 7.95 27.42 7.77 26.72 7.77L12 7.77ZM28.7 26.49C28.7 27.05 28.51 27.52 28.13 27.9C27.74 28.28 27.27 28.48 26.72 28.48L12 28.48C11.44 28.48 10.97 28.28 10.58 27.9C10.2 27.52 10.01 27.05 10.01 26.49L10.01 11.77C10.01 11.22 10.2 10.75 10.58 10.37C10.97 9.98 11.44 9.78 12 9.78L26.72 9.78C27.27 9.78 27.74 9.98 28.13 10.37C28.51 10.75 28.7 11.22 28.7 11.77L28.7 26.49Z" fill="#000000" fill-rule="nonzero"/>
	</g>
</svg>
