<svg width="60.000000" height="60.000000" viewBox="0 0 60 60" fill="none" xmlns="http://www.w3.org/2000/svg" xmlns:xlink="http://www.w3.org/1999/xlink">
	<desc>
			Created with Pixso.
	</desc>
	<defs>
		<filter id="filter_28_1604_dd" x="0.000000" y="0.000000" width="60.000000" height="60.000000" filterUnits="userSpaceOnUse" color-interpolation-filters="sRGB">
			<feFlood flood-opacity="0" result="BackgroundImageFix"/>
			<feColorMatrix in="SourceAlpha" type="matrix" values="0 0 0 0 0 0 0 0 0 0 0 0 0 0 0 0 0 0 127 0" result="hardAlpha"/>
			<feOffset dx="0" dy="4"/>
			<feGaussianBlur stdDeviation="2.66667"/>
			<feComposite in2="hardAlpha" operator="out" k2="-1" k3="1"/>
			<feColorMatrix type="matrix" values="0 0 0 0 0 0 0 0 0 0 0 0 0 0 0 0 0 0 0.1 0"/>
			<feBlend mode="normal" in2="BackgroundImageFix" result="effect_dropShadow_1"/>
			<feBlend mode="normal" in="SourceGraphic" in2="effect_dropShadow_1" result="shape"/>
		</filter>
		<clipPath id="clip28_1599">
			<rect width="50.000000" height="50.000000" transform="translate(12.000000 8.000000)" fill="white" fill-opacity="0"/>
		</clipPath>
	</defs>
	<g filter="url(#filter_28_1604_dd)">
		<rect x="8.000000" y="4.000000" rx="8.000000" width="44.000000" height="44.000000" fill="#FFFFFF" fill-opacity="1.000000"/>
		<g clip-path="url(#clip28_1599)">
			<g opacity="0.000000">
				<rect x="12.000000" y="8.000000" width="36.000000" height="36.000000" fill="#000000" fill-opacity="1.000000"/>
			</g>
			<path d="M44.43 20.6C44.12 19.11 43.52 17.73 42.63 16.45C41.75 15.19 40.66 14.12 39.39 13.25C38.48 12.65 37.55 12.18 36.59 11.84C35.66 11.49 34.68 11.28 33.67 11.21C33.52 11.21 33.4 11.24 33.31 11.31C33.21 11.38 33.16 11.48 33.15 11.61C33.14 11.74 33.16 11.86 33.24 11.96C33.58 12.37 33.9 12.79 34.21 13.22L36.19 15.84C36.24 15.94 36.32 15.99 36.41 15.99C36.53 15.99 36.63 15.96 36.73 15.89L38.09 14.51C39.25 15.26 40.22 16.2 41.01 17.33C41.81 18.45 42.36 19.67 42.67 20.99C42.72 21.21 42.84 21.39 43.03 21.53C43.22 21.68 43.45 21.73 43.71 21.68C43.98 21.63 44.18 21.5 44.31 21.29C44.44 21.07 44.48 20.84 44.43 20.6ZM23.8 36.15C23.73 36.05 23.64 36 23.53 36C23.42 36 23.33 36.04 23.26 36.11L21.9 37.49C20.75 36.74 19.77 35.8 18.95 34.66C18.16 33.55 17.61 32.33 17.32 31.01C17.27 30.77 17.14 30.58 16.93 30.44C16.71 30.31 16.48 30.27 16.24 30.32C16 30.37 15.82 30.5 15.69 30.71C15.56 30.93 15.52 31.16 15.57 31.4C15.88 32.89 16.46 34.27 17.34 35.55C18.21 36.84 19.29 37.91 20.56 38.78C21.43 39.4 22.33 39.87 23.26 40.18C24.2 40.5 25.22 40.71 26.32 40.83C26.44 40.83 26.55 40.8 26.65 40.73C26.74 40.65 26.8 40.54 26.82 40.41C26.83 40.28 26.8 40.16 26.73 40.07L24.85 37.55L23.8 36.15Z" fill="#ED6F21" fill-opacity="1.000000" fill-rule="nonzero"/>
			<path d="M40.77 33.34C41.08 33.34 41.34 33.23 41.55 33C41.77 32.77 41.88 32.5 41.88 32.19C41.88 31.88 41.76 31.62 41.53 31.4C41.3 31.18 41.03 31.07 40.72 31.07L24.85 31.01L24.85 15.23C24.85 14.92 24.74 14.66 24.52 14.45C24.31 14.23 24.05 14.12 23.73 14.12C23.42 14.12 23.16 14.23 22.95 14.45C22.73 14.66 22.62 14.92 22.62 15.23L22.62 31.01C22.62 31.65 22.85 32.2 23.31 32.66C23.76 33.12 24.3 33.34 24.93 33.34L40.77 33.34ZM36.09 38.03C36.4 38.03 36.66 37.91 36.87 37.7C37.09 37.48 37.2 37.21 37.2 36.9L37.2 21.11C37.2 20.45 36.97 19.91 36.5 19.45C36.06 19.02 35.52 18.79 34.89 18.79L19.09 18.79C18.78 18.79 18.51 18.91 18.28 19.12C18.05 19.34 17.94 19.6 17.94 19.91C17.94 20.23 18.05 20.49 18.28 20.7C18.51 20.92 18.78 21.03 19.09 21.03L34.96 21.11L34.96 36.9C34.96 37.21 35.07 37.48 35.29 37.7C35.5 37.91 35.77 38.03 36.09 38.03Z" fill="#000000" fill-opacity="0.898039" fill-rule="nonzero"/>
		</g>
	</g>
</svg>
