<svg width="32.000000" height="32.000000" viewBox="0 0 32 32" fill="none" xmlns="http://www.w3.org/2000/svg" xmlns:xlink="http://www.w3.org/1999/xlink">
	<desc>
			Created with Pixso.
	</desc>
	<defs>
		<clipPath id="clip67_2213">
			<rect width="28.000000" height="32.000000" transform="translate(2.000000 2.000000)" fill="white" fill-opacity="0"/>
		</clipPath>
		<clipPath id="clip67_2212">
			<rect width="32.000000" height="32.000000" fill="white" fill-opacity="0"/>
		</clipPath>
	</defs>
	<g clip-path="url(#clip67_2212)">
		<g clip-path="url(#clip67_2213)">
			<g opacity="0.000000">
				<rect x="2.000000" y="2.000000" width="28.000000" height="28.000000" fill="#D8D8D8" fill-opacity="1.000000"/>
				<rect x="2.000000" y="2.000000" width="28.000000" height="28.000000" stroke="#000000" stroke-opacity="0" stroke-width="1.000000"/>
			</g>
			<path d="M20.56 2C22.18 2 23.5 3.31 23.5 4.93L23.5 27.06C23.5 28.68 22.18 30 20.56 30L11.43 30C9.81 30 8.5 28.68 8.5 27.06L8.5 4.93C8.5 3.31 9.81 2 11.43 2L20.56 2ZM20.56 3.95L16.97 3.95L16.96 4.08C16.9 4.56 16.49 4.93 16 4.93C15.46 4.93 15.02 4.49 15.02 3.95L11.43 3.95C10.89 3.95 10.45 4.39 10.45 4.93L10.45 27.06C10.45 27.6 10.89 28.04 11.43 28.04L20.56 28.04C21.1 28.04 21.54 27.6 21.54 27.06L21.54 4.93C21.54 4.39 21.1 3.95 20.56 3.95ZM17.3 25.76C17.66 25.76 17.95 26.05 17.95 26.41C17.95 26.73 17.72 27 17.42 27.05L14.69 27.06C14.33 27.06 14.04 26.77 14.04 26.41C14.04 26.09 14.27 25.83 14.57 25.77L17.3 25.76Z" fill="#191919" fill-opacity="1.000000" fill-rule="evenodd"/>
			<path d="M23.5 4.93L23.5 27.06C23.5 28.68 22.18 30 20.56 30L11.43 30C9.81 30 8.5 28.68 8.5 27.06L8.5 4.93C8.5 3.31 9.81 2 11.43 2L20.56 2C22.18 2 23.5 3.31 23.5 4.93ZM16.97 3.95L16.96 4.08C16.9 4.56 16.49 4.93 16 4.93C15.46 4.93 15.02 4.49 15.02 3.95L11.43 3.95C10.89 3.95 10.45 4.39 10.45 4.93L10.45 27.06C10.45 27.6 10.89 28.04 11.43 28.04L20.56 28.04C21.1 28.04 21.54 27.6 21.54 27.06L21.54 4.93C21.54 4.39 21.1 3.95 20.56 3.95L16.97 3.95ZM17.95 26.41C17.95 26.73 17.72 27 17.42 27.05L14.69 27.06C14.33 27.06 14.04 26.77 14.04 26.41C14.04 26.09 14.27 25.83 14.57 25.77L17.3 25.76C17.66 25.76 17.95 26.05 17.95 26.41Z" stroke="#000000" stroke-opacity="0" stroke-width="1.000000"/>
		</g>
	</g>
</svg>
