<svg width="32.000000" height="32.000000" viewBox="0 0 32 32" fill="none" xmlns="http://www.w3.org/2000/svg" xmlns:xlink="http://www.w3.org/1999/xlink">
	<desc>
			Created with Pixso.
	</desc>
	<defs>
		<clipPath id="clip67_2278">
			<rect width="32.000000" height="32.000000" fill="white" fill-opacity="0"/>
		</clipPath>
	</defs>
	<g clip-path="url(#clip67_2278)">
		<g opacity="0.000000">
			<rect width="32.000000" height="32.000000" fill="#000000" fill-opacity="0.898039"/>
		</g>
		<path d="M5 30.07C5 30.42 5.09 30.75 5.28 31.04C5.48 31.32 5.74 31.56 6.06 31.74C6.39 31.91 6.75 32 7.14 32L24.85 32C25.44 32 25.94 31.81 26.37 31.44C26.79 31.07 27 30.61 27 30.07L27 2.95C27 2.41 26.79 1.95 26.37 1.56C25.94 1.18 25.44 1 24.85 1L7.14 1C6.55 1 6.05 1.18 5.62 1.56C5.2 1.95 5 2.41 5 2.95L5 30.07ZM24.85 30.07L7.14 30.07L7.14 2.95L24.85 2.95L24.85 30.07Z" fill="#000000" fill-opacity="0.898039" fill-rule="nonzero"/>
		<path d="M14.79 18.44C15 18.44 15.16 18.39 15.29 18.27C15.41 18.15 15.47 17.99 15.47 17.8C15.47 17.63 15.4 17.49 15.26 17.37C15.14 17.25 14.98 17.18 14.79 17.18C14.63 17.18 14.48 17.25 14.34 17.38C14.19 17.52 14.12 17.66 14.12 17.8C14.12 17.97 14.19 18.12 14.34 18.25C14.48 18.38 14.63 18.44 14.79 18.44ZM14.79 15.54C15 15.54 15.16 15.48 15.29 15.36C15.41 15.26 15.47 15.11 15.47 14.92C15.47 14.73 15.41 14.58 15.29 14.45C15.16 14.34 15 14.28 14.79 14.28C14.63 14.28 14.48 14.34 14.34 14.45C14.19 14.58 14.12 14.73 14.12 14.92C14.12 15.08 14.19 15.23 14.32 15.35C14.46 15.48 14.62 15.54 14.79 15.54ZM11.89 17.21C12.16 16.77 12.34 16.44 12.44 16.2C12.54 15.97 12.59 15.73 12.59 15.47C12.59 14.89 12.39 14.42 12 14.06C11.61 13.69 11.1 13.51 10.46 13.51C9.85 13.51 9.34 13.69 8.94 14.06C8.53 14.42 8.33 14.87 8.33 15.41C8.33 16.03 8.56 16.51 9.01 16.86C9.47 17.2 9.98 17.34 10.55 17.29L9.7 18.57C9.62 18.76 9.6 18.92 9.62 19.05C9.66 19.18 9.75 19.29 9.91 19.36C10.06 19.42 10.19 19.42 10.31 19.36C10.44 19.3 10.55 19.2 10.65 19.05L11.89 17.21ZM10.5 14.49C10.78 14.49 11.01 14.57 11.18 14.73C11.35 14.91 11.44 15.13 11.44 15.41C11.44 15.69 11.35 15.92 11.18 16.1C11.01 16.28 10.78 16.37 10.5 16.37C10.21 16.37 9.98 16.28 9.81 16.1C9.64 15.92 9.55 15.69 9.55 15.41C9.55 15.13 9.64 14.91 9.81 14.73C9.98 14.57 10.21 14.49 10.5 14.49ZM18.52 19.5C18.7 19.5 18.85 19.45 18.95 19.36C19.05 19.26 19.1 19.12 19.1 18.94L19.1 14.14C19.1 13.77 18.98 13.56 18.74 13.51C18.51 13.46 18.23 13.53 17.91 13.72L16.71 14.37C16.49 14.48 16.36 14.6 16.31 14.72C16.26 14.84 16.25 14.96 16.29 15.1C16.37 15.27 16.47 15.36 16.6 15.38C16.72 15.39 16.88 15.35 17.08 15.26L17.91 14.84L17.91 18.94C17.91 19.12 17.96 19.26 18.07 19.36C18.18 19.45 18.33 19.5 18.52 19.5ZM22.2 19.32C22.83 19.32 23.35 19.13 23.74 18.76C24.13 18.39 24.33 17.93 24.33 17.39C24.33 16.85 24.14 16.41 23.77 16.06C23.4 15.71 22.92 15.54 22.35 15.54C22.29 15.54 22.25 15.55 22.22 15.56C22.19 15.57 22.14 15.57 22.08 15.57L22.96 14.28C23.08 14.12 23.1 13.95 23 13.79C22.89 13.63 22.74 13.55 22.53 13.54C22.31 13.54 22.13 13.63 21.99 13.84L20.8 15.6C20.54 16.03 20.35 16.36 20.24 16.59C20.12 16.82 20.06 17.08 20.06 17.36C20.06 17.94 20.26 18.42 20.66 18.78C21.06 19.14 21.57 19.32 22.2 19.32ZM22.2 16.5C22.48 16.5 22.71 16.58 22.88 16.75C23.06 16.92 23.15 17.14 23.15 17.42C23.15 17.7 23.06 17.92 22.88 18.1C22.71 18.26 22.48 18.34 22.2 18.34C21.92 18.34 21.69 18.26 21.51 18.11C21.34 17.95 21.26 17.72 21.26 17.42C21.26 17.14 21.34 16.92 21.51 16.75C21.69 16.58 21.92 16.5 22.2 16.5Z" fill="#000000" fill-opacity="0.898039" fill-rule="nonzero"/>
	</g>
</svg>
