<svg width="32.000000" height="32.000000" viewBox="0 0 32 32" fill="none" xmlns="http://www.w3.org/2000/svg" xmlns:xlink="http://www.w3.org/1999/xlink">
	<desc>
			Created with Pixso.
	</desc>
	<defs>
		<clipPath id="clip67_2203">
			<rect width="32.000000" height="32.000000" fill="white" fill-opacity="0"/>
		</clipPath>
	</defs>
	<g clip-path="url(#clip67_2203)">
		<g opacity="0.000000">
			<rect width="32.000000" height="32.000000" fill="#000000" fill-opacity="1.000000"/>
		</g>
		<path d="M16.08 11.45C16.29 11.45 16.48 11.37 16.64 11.2C16.8 11.04 16.88 10.86 16.88 10.65L16.88 9.38C16.88 9.24 16.93 9.13 17.03 9.03C17.12 8.93 17.24 8.89 17.37 8.89L18.61 8.89C18.82 8.89 19.01 8.81 19.16 8.66C19.31 8.51 19.39 8.32 19.39 8.11C19.39 7.9 19.31 7.72 19.16 7.57C19.01 7.42 18.82 7.34 18.61 7.34L17.37 7.34C16.8 7.34 16.31 7.54 15.91 7.94C15.5 8.34 15.3 8.82 15.3 9.38L15.3 10.67C15.3 10.88 15.38 11.06 15.54 11.22C15.69 11.38 15.87 11.45 16.08 11.45ZM18.58 16.69C18.79 16.69 18.98 16.61 19.14 16.44C19.29 16.28 19.36 16.09 19.36 15.88C19.36 15.67 19.29 15.49 19.14 15.34C18.98 15.18 18.79 15.11 18.58 15.11L17.35 15.11C17.21 15.11 17.1 15.06 17 14.96C16.91 14.87 16.86 14.75 16.86 14.62L16.86 13.35C16.86 13.14 16.78 12.96 16.63 12.81C16.48 12.65 16.29 12.57 16.08 12.57C15.87 12.57 15.69 12.65 15.54 12.81C15.38 12.96 15.3 13.14 15.3 13.35L15.3 14.62C15.3 15.19 15.5 15.68 15.91 16.08C16.31 16.49 16.79 16.69 17.35 16.69L18.58 16.69ZM22.61 16.69C23.17 16.69 23.65 16.49 24.04 16.08C24.43 15.68 24.63 15.2 24.63 14.64L24.63 13.38C24.63 13.17 24.55 12.98 24.4 12.83C24.25 12.68 24.06 12.6 23.85 12.6C23.64 12.6 23.46 12.68 23.31 12.83C23.15 12.98 23.07 13.17 23.07 13.38L23.07 14.64C23.07 14.78 23.03 14.89 22.95 14.99C22.86 15.08 22.75 15.13 22.61 15.13L21.34 15.13C21.13 15.13 20.95 15.21 20.8 15.36C20.65 15.51 20.57 15.7 20.57 15.91C20.57 16.12 20.65 16.3 20.8 16.45C20.95 16.61 21.13 16.69 21.34 16.69L22.61 16.69ZM23.85 11.42C24.06 11.42 24.25 11.34 24.4 11.2C24.55 11.06 24.63 10.88 24.63 10.67L24.63 9.38C24.63 8.82 24.43 8.34 24.04 7.94C23.65 7.54 23.17 7.34 22.61 7.34L21.38 7.34C21.16 7.34 20.98 7.42 20.83 7.57C20.67 7.72 20.6 7.9 20.6 8.11C20.6 8.32 20.67 8.51 20.83 8.66C20.98 8.81 21.16 8.89 21.38 8.89L22.61 8.89C22.75 8.89 22.86 8.93 22.95 9.03C23.03 9.13 23.07 9.24 23.07 9.38L23.07 10.65C23.07 10.86 23.15 11.04 23.31 11.19C23.46 11.34 23.64 11.42 23.85 11.42ZM24.4 5.81C24.89 5.81 25.31 5.98 25.66 6.33C26.01 6.68 26.18 7.1 26.18 7.59L26.18 24.4C26.18 24.88 26.01 25.29 25.66 25.65C25.31 26.01 24.89 26.18 24.4 26.18L7.59 26.18C7.11 26.18 6.7 26.01 6.34 25.65C5.98 25.29 5.81 24.88 5.81 24.4L5.81 7.59C5.81 7.1 5.98 6.68 6.34 6.33C6.7 5.98 7.11 5.81 7.59 5.81L24.4 5.81ZM7.59 4C6.94 4 6.34 4.16 5.79 4.49C5.25 4.81 4.81 5.25 4.49 5.79C4.16 6.34 4 6.94 4 7.59L4 24.4C4 25.05 4.16 25.65 4.49 26.2C4.81 26.74 5.25 27.18 5.79 27.5C6.34 27.83 6.94 28 7.59 28L24.4 28C25.05 28 25.65 27.83 26.2 27.5C26.74 27.18 27.18 26.74 27.5 26.2C27.83 25.65 28 25.05 28 24.4L28 7.59C28 6.94 27.83 6.34 27.5 5.79C27.18 5.25 26.74 4.81 26.2 4.49C25.65 4.16 25.05 4 24.4 4L7.59 4Z" fill="#ED6F21" fill-opacity="1.000000" fill-rule="nonzero"/>
	</g>
</svg>
