<svg width="32.000000" height="32.000000" viewBox="0 0 32 32" fill="none" xmlns="http://www.w3.org/2000/svg" xmlns:xlink="http://www.w3.org/1999/xlink">
	<desc>
			Created with Pixso.
	</desc>
	<defs>
		<clipPath id="clip67_2256">
			<rect width="32.000000" height="32.000000" fill="white" fill-opacity="0"/>
		</clipPath>
		<clipPath id="clip67_2257">
			<rect width="32.000000" height="32.000000" fill="white" fill-opacity="0"/>
		</clipPath>
	</defs>
	<g clip-path="url(#clip67_2257)">
		<g clip-path="url(#clip67_2256)">
			<g opacity="0.000000">
				<rect width="32.000000" height="32.000000" fill="#000000" fill-opacity="0.898039"/>
			</g>
			<path d="M28.66 26.65C29.03 26.65 29.36 26.56 29.66 26.38C29.96 26.2 30.2 25.96 30.38 25.66C30.56 25.36 30.65 25.03 30.65 24.66L30.65 7.33C30.65 6.77 30.46 6.3 30.08 5.92C29.69 5.53 29.22 5.34 28.66 5.34L3.33 5.34C2.77 5.34 2.3 5.53 1.92 5.92C1.53 6.3 1.34 6.77 1.34 7.33L1.34 24.66C1.34 25.2 1.54 25.66 1.93 26.06C2.33 26.45 2.8 26.65 3.33 26.65L28.66 26.65ZM28.66 7.33L28.66 24.66L3.33 24.66L3.33 7.33L28.66 7.33Z" fill="#000000" fill-opacity="0.898039" fill-rule="nonzero"/>
			<path d="M13.19 19.5C13.34 19.5 13.48 19.43 13.6 19.29C13.72 19.17 13.77 19 13.77 18.78L13.77 18.04L14.06 18.04C14.22 18.04 14.35 17.98 14.45 17.88C14.57 17.77 14.62 17.64 14.62 17.49C14.62 17.33 14.56 17.2 14.44 17.09C14.33 16.99 14.18 16.93 14 16.93L13.77 16.93L13.77 15.87C13.77 15.65 13.72 15.48 13.6 15.35C13.48 15.22 13.34 15.15 13.19 15.15C13.04 15.15 12.91 15.22 12.8 15.35C12.69 15.48 12.63 15.65 12.63 15.87L12.63 16.93L11.36 16.93L13.02 13.41C13.12 13.2 13.11 12.99 13 12.81C12.89 12.63 12.74 12.54 12.55 12.54C12.45 12.54 12.36 12.56 12.29 12.62C12.21 12.67 12.14 12.75 12.08 12.86L10.07 17.09C9.97 17.34 9.97 17.55 10.07 17.74C10.16 17.94 10.35 18.04 10.63 18.04L12.63 18.04L12.63 18.81C12.63 19.01 12.69 19.17 12.8 19.29C12.91 19.43 13.04 19.5 13.19 19.5ZM16.25 18.48C16.46 18.48 16.63 18.42 16.75 18.29C16.86 18.17 16.92 17.98 16.92 17.74C16.92 17.53 16.86 17.35 16.74 17.22C16.61 17.07 16.44 17 16.25 17C16.1 17 15.95 17.08 15.81 17.23C15.68 17.38 15.61 17.55 15.61 17.74C15.61 17.96 15.67 18.14 15.79 18.28C15.9 18.42 16.06 18.48 16.25 18.48ZM16.25 14.99C16.46 14.99 16.63 14.92 16.75 14.79C16.86 14.64 16.92 14.46 16.92 14.25C16.92 14.03 16.86 13.85 16.74 13.71C16.61 13.57 16.44 13.51 16.25 13.51C16.07 13.51 15.92 13.58 15.8 13.74C15.67 13.88 15.61 14.05 15.61 14.25C15.61 14.46 15.67 14.64 15.79 14.79C15.9 14.92 16.06 14.99 16.25 14.99ZM19.95 19.5C20.55 19.5 21.04 19.3 21.42 18.92C21.8 18.52 22 18.01 22 17.39C22 16.64 21.7 16.1 21.12 15.77C21.33 15.62 21.5 15.43 21.62 15.19C21.73 14.95 21.79 14.68 21.79 14.38C21.79 13.82 21.62 13.36 21.28 13.02C20.94 12.67 20.5 12.5 19.95 12.5C19.57 12.5 19.21 12.59 18.9 12.79C18.59 12.99 18.35 13.26 18.17 13.6C18.1 13.75 18.07 13.91 18.1 14.06C18.13 14.2 18.22 14.33 18.38 14.44C18.53 14.55 18.66 14.57 18.78 14.5C18.88 14.44 18.99 14.31 19.1 14.11C19.2 13.94 19.31 13.82 19.44 13.75C19.57 13.67 19.72 13.63 19.89 13.63C20.1 13.63 20.28 13.7 20.42 13.84C20.55 13.99 20.62 14.18 20.62 14.41C20.62 14.72 20.55 14.94 20.4 15.08C20.26 15.24 20.03 15.31 19.72 15.31C19.59 15.31 19.47 15.37 19.37 15.48C19.27 15.58 19.23 15.71 19.23 15.87C19.23 16.04 19.27 16.18 19.36 16.29C19.44 16.39 19.54 16.45 19.66 16.45C20.12 16.45 20.44 16.53 20.6 16.69C20.75 16.85 20.83 17.09 20.83 17.39C20.83 17.67 20.75 17.9 20.6 18.08C20.44 18.27 20.22 18.36 19.95 18.36C19.57 18.36 19.27 18.22 19.08 17.94C18.94 17.75 18.76 17.55 18.67 17.5C18.57 17.45 18.44 17.47 18.29 17.58C18.14 17.69 18.04 17.82 18 17.97C17.96 18.12 17.99 18.29 18.08 18.46C18.26 18.78 18.52 19.03 18.85 19.21C19.17 19.4 19.54 19.5 19.95 19.5Z" fill="#000000" fill-opacity="0.898039" fill-rule="nonzero"/>
		</g>
	</g>
</svg>
