<svg width="44.000000" height="44.000000" viewBox="0 0 44 44" fill="none" xmlns="http://www.w3.org/2000/svg" xmlns:xlink="http://www.w3.org/1999/xlink">
	<desc>
			Created with Pixso.
	</desc>
	<defs>
		<clipPath id="clip111_1108">
			<rect width="44.000000" height="44.000000" fill="white" fill-opacity="0"/>
		</clipPath>
	</defs>
	<g clip-path="url(#clip111_1108)">
		<g opacity="0.000000">
			<rect width="44.000000" height="44.000000" fill="#ED6F21" fill-opacity="1.000000"/>
		</g>
		<path d="M23.35 6.41L34.09 6.41C35.04 6.41 35.85 6.76 36.53 7.46C37.23 8.14 37.58 8.95 37.58 9.9L37.58 19.92L23.35 19.92L23.35 6.41ZM37.58 22.66L37.58 34.1C37.58 35.04 37.23 35.85 36.53 36.53C35.85 37.23 35.04 37.58 34.09 37.58L23.35 37.58L23.35 22.66L37.58 22.66ZM9.9 3.64C8.78 3.64 7.74 3.92 6.78 4.49C5.8 5.04 5.04 5.8 4.49 6.78C3.92 7.74 3.64 8.78 3.64 9.9L3.64 34.1C3.64 35.21 3.92 36.25 4.49 37.21C5.04 38.19 5.8 38.95 6.78 39.5C7.74 40.07 8.78 40.35 9.9 40.35L34.09 40.35C35.21 40.35 36.25 40.07 37.21 39.5C38.19 38.95 38.95 38.19 39.5 37.21C40.07 36.25 40.35 35.21 40.35 34.1L40.35 9.9C40.35 8.78 40.07 7.74 39.5 6.78C38.95 5.8 38.19 5.04 37.21 4.49C36.25 3.92 35.21 3.64 34.09 3.64L9.9 3.64ZM6.41 9.9C6.41 8.95 6.75 8.14 7.44 7.46C8.11 6.76 8.93 6.41 9.9 6.41L20.64 6.41L20.64 37.58L9.9 37.58C8.93 37.58 8.11 37.23 7.44 36.53C6.75 35.85 6.41 35.04 6.41 34.1L6.41 9.9Z" fill="#ED6F21" fill-opacity="0.600000" fill-rule="nonzero"/>
	</g>
</svg>
