<svg width="44.000000" height="44.000000" viewBox="0 0 44 44" fill="none" xmlns="http://www.w3.org/2000/svg" xmlns:xlink="http://www.w3.org/1999/xlink">
	<desc>
			Created with Pixso.
	</desc>
	<defs>
		<clipPath id="clip111_1119">
			<rect width="44.000000" height="44.000000" transform="matrix(0 -1 -1 0 44 44)" fill="white" fill-opacity="0"/>
		</clipPath>
	</defs>
	<g clip-path="url(#clip111_1119)">
		<g opacity="0.000000">
			<rect width="44.000000" height="44.000000" transform="matrix(0 -1 -1 0 44 44)" fill="#000000" fill-opacity="1.000000"/>
		</g>
		<path d="M37.58 20.64L37.58 9.89C37.58 8.95 37.23 8.14 36.53 7.46C35.85 6.76 35.04 6.41 34.09 6.41L24.07 6.41L24.07 20.64L37.58 20.64ZM21.34 6.41L9.9 6.41C8.95 6.41 8.14 6.76 7.46 7.46C6.76 8.14 6.41 8.95 6.41 9.89L6.41 20.64L21.34 20.64L21.34 6.41ZM40.35 34.09C40.35 35.21 40.07 36.25 39.5 37.21C38.95 38.19 38.19 38.95 37.21 39.5C36.25 40.07 35.21 40.35 34.09 40.35L9.9 40.35C8.78 40.35 7.74 40.07 6.78 39.5C5.8 38.95 5.04 38.19 4.49 37.21C3.92 36.25 3.64 35.21 3.64 34.09L3.64 9.89C3.64 8.78 3.92 7.74 4.49 6.78C5.04 5.8 5.8 5.04 6.78 4.49C7.74 3.92 8.78 3.64 9.9 3.64L34.09 3.64C35.21 3.64 36.25 3.92 37.21 4.49C38.19 5.04 38.95 5.8 39.5 6.78C40.07 7.74 40.35 8.78 40.35 9.89L40.35 34.09ZM34.09 37.58C35.04 37.58 35.85 37.24 36.53 36.55C37.23 35.88 37.58 35.06 37.58 34.09L37.58 23.35L6.41 23.35L6.41 34.09C6.41 35.06 6.76 35.88 7.46 36.55C8.14 37.24 8.95 37.58 9.9 37.58L34.09 37.58Z" fill="#000000" fill-opacity="0.600000" fill-rule="nonzero"/>
	</g>
</svg>
