<svg width="60.000000" height="60.000000" viewBox="0 0 60 60" fill="none" xmlns="http://www.w3.org/2000/svg" xmlns:xlink="http://www.w3.org/1999/xlink">
	<desc>
			Created with Pixso.
	</desc>
	<defs>
		<filter id="filter_20_1819_dd" x="0.000000" y="0.000000" width="60.000000" height="60.000000" filterUnits="userSpaceOnUse" color-interpolation-filters="sRGB">
			<feFlood flood-opacity="0" result="BackgroundImageFix"/>
			<feColorMatrix in="SourceAlpha" type="matrix" values="0 0 0 0 0 0 0 0 0 0 0 0 0 0 0 0 0 0 127 0" result="hardAlpha"/>
			<feOffset dx="0" dy="4"/>
			<feGaussianBlur stdDeviation="2.66667"/>
			<feComposite in2="hardAlpha" operator="out" k2="-1" k3="1"/>
			<feColorMatrix type="matrix" values="0 0 0 0 0 0 0 0 0 0 0 0 0 0 0 0 0 0 0.1 0"/>
			<feBlend mode="normal" in2="BackgroundImageFix" result="effect_dropShadow_1"/>
			<feBlend mode="normal" in="SourceGraphic" in2="effect_dropShadow_1" result="shape"/>
		</filter>
	</defs>
	<g filter="url(#filter_20_1819_dd)">
		<rect x="8.000000" y="4.000000" rx="8.000000" width="44.000000" height="44.000000" fill="#FFFFFF" fill-opacity="1.000000"/>
		<path d="M35.79 21.72C36.04 21.72 36.27 21.64 36.47 21.47C36.69 21.31 36.81 21.09 36.83 20.83C36.87 20.51 36.89 20.11 36.89 19.63C36.89 18.07 36.5 16.63 35.72 15.31C34.95 13.99 33.9 12.94 32.58 12.16C31.25 11.38 29.81 11 28.26 11C26.7 11 25.26 11.38 23.93 12.16C22.59 12.94 21.54 13.98 20.76 15.29C19.98 16.6 19.59 18.04 19.59 19.59C19.59 20.1 19.62 20.51 19.69 20.83C19.74 21.12 19.87 21.34 20.11 21.51C20.34 21.68 20.6 21.74 20.89 21.69C21.18 21.65 21.41 21.51 21.58 21.27C21.75 21.04 21.81 20.78 21.76 20.5C21.71 20.27 21.69 19.98 21.69 19.63C21.69 18.43 21.99 17.33 22.58 16.33C23.17 15.33 23.96 14.54 24.96 13.96C25.96 13.38 27.06 13.09 28.26 13.09C29.46 13.09 30.56 13.39 31.56 13.97C32.56 14.56 33.35 15.36 33.94 16.36C34.53 17.36 34.83 18.45 34.83 19.63C34.83 19.98 34.81 20.28 34.76 20.52C34.71 20.79 34.77 21.04 34.94 21.27C35.11 21.51 35.34 21.65 35.63 21.69L35.79 21.72ZM21.63 39.86C22.47 39.86 23.32 39.72 24.19 39.46C25.06 39.19 25.86 38.81 26.59 38.33C26.9 38.12 27.06 37.84 27.06 37.46C27.06 37.21 26.99 37.01 26.86 36.86C26.66 36.55 26.38 36.39 26.02 36.39C25.8 36.39 25.6 36.46 25.43 36.59C24.87 36.97 24.26 37.27 23.59 37.47C22.93 37.69 22.27 37.79 21.63 37.79C20.43 37.79 19.33 37.5 18.33 36.91C17.33 36.32 16.53 35.52 15.94 34.52C15.35 33.52 15.06 32.42 15.06 31.22C15.06 29.91 15.4 28.73 16.08 27.66C16.75 26.59 17.67 25.8 18.83 25.29C19.03 25.21 19.18 25.08 19.29 24.91C19.4 24.75 19.46 24.56 19.46 24.36C19.46 24.2 19.43 24.06 19.36 23.93C19.27 23.73 19.14 23.57 18.96 23.46C18.78 23.35 18.59 23.29 18.39 23.29C18.26 23.29 18.12 23.33 18 23.39C16.44 24.08 15.22 25.12 14.33 26.52C13.44 27.93 13 29.49 13 31.22C13 32.78 13.38 34.22 14.16 35.54C14.94 36.86 15.99 37.91 17.31 38.69C18.63 39.47 20.07 39.86 21.63 39.86ZM34.89 39.86C36.45 39.86 37.89 39.47 39.22 38.69C40.56 37.91 41.61 36.86 42.39 35.54C43.17 34.22 43.56 32.78 43.56 31.22C43.56 29.53 43.11 27.98 42.21 26.56C41.31 25.14 40.1 24.07 38.59 23.36C38.46 23.29 38.31 23.26 38.16 23.26C37.96 23.26 37.77 23.31 37.59 23.43C37.42 23.54 37.28 23.69 37.19 23.89C37.12 24.03 37.09 24.17 37.09 24.33C37.09 24.53 37.15 24.71 37.26 24.88C37.37 25.04 37.53 25.17 37.72 25.26C38.88 25.79 39.79 26.59 40.46 27.66C41.13 28.73 41.46 29.91 41.46 31.22C41.46 32.42 41.17 33.52 40.58 34.52C39.99 35.52 39.19 36.32 38.19 36.91C37.19 37.5 36.09 37.79 34.89 37.79C33.53 37.79 32.27 37.39 31.09 36.59C30.93 36.46 30.75 36.39 30.52 36.39C30.15 36.39 29.86 36.55 29.66 36.86C29.53 37.01 29.46 37.21 29.46 37.46C29.46 37.84 29.62 38.12 29.93 38.33C30.66 38.81 31.45 39.19 32.31 39.46C33.16 39.72 34.03 39.86 34.89 39.86Z" fill="#000000" fill-opacity="0.898039" fill-rule="nonzero"/>
		<path d="M28.43 36.43C28.81 36.43 29.12 36.24 29.36 35.86C30.12 34.53 30.5 33.12 30.5 31.63C30.5 30.56 30.31 29.53 29.93 28.53C31.12 28.31 32.22 27.86 33.22 27.18C34.22 26.5 35.06 25.64 35.72 24.59C35.84 24.42 35.89 24.23 35.89 24.03C35.89 23.85 35.85 23.68 35.76 23.53C35.67 23.37 35.54 23.25 35.36 23.15C35.18 23.05 35 23 34.83 23C33.56 23.02 32.38 23.3 31.28 23.84C30.18 24.39 29.24 25.12 28.46 26.03C27.68 25.12 26.74 24.39 25.63 23.84C24.52 23.3 23.33 23.02 22.06 23C21.86 23 21.68 23.05 21.51 23.15C21.34 23.25 21.21 23.37 21.13 23.53C21.04 23.68 21 23.86 21 24.06C21 24.29 21.05 24.46 21.16 24.59C21.81 25.66 22.64 26.53 23.66 27.21C24.68 27.89 25.8 28.33 27 28.53C26.62 29.53 26.43 30.56 26.43 31.63C26.43 33.14 26.79 34.56 27.53 35.9C27.77 36.25 28.07 36.43 28.43 36.43Z" fill="#ED6F21" fill-opacity="1.000000" fill-rule="evenodd"/>
	</g>
</svg>
