<svg width="24.000000" height="24.000000" viewBox="0 0 24 24" fill="none" xmlns="http://www.w3.org/2000/svg" xmlns:xlink="http://www.w3.org/1999/xlink">
	<desc>
			Created with Pixso.
	</desc>
	<defs>
		<clipPath id="clip74_3769">
			<rect width="24.000000" height="24.000000" fill="white" fill-opacity="0"/>
		</clipPath>
	</defs>
	<g clip-path="url(#clip74_3769)">
		<g opacity="0.000000">
			<rect width="24.000000" height="24.000000" fill="#000000" fill-opacity="1.000000"/>
		</g>
		<path d="M9.14 3C8.93 3 8.76 3.07 8.62 3.21C8.47 3.35 8.39 3.53 8.39 3.73C8.39 3.95 8.47 4.13 8.62 4.27C8.76 4.41 8.93 4.48 9.14 4.48L12.5 4.48L9.82 19.49L6.47 19.49C6.27 19.49 6.09 19.56 5.95 19.71C5.81 19.86 5.73 20.04 5.73 20.26C5.73 20.46 5.81 20.63 5.95 20.78C6.09 20.92 6.27 21 6.47 21L14.83 21C15.03 21 15.21 20.92 15.37 20.78C15.52 20.63 15.6 20.46 15.6 20.26C15.6 20.04 15.52 19.86 15.37 19.71C15.21 19.56 15.03 19.49 14.83 19.49L11.5 19.49L14.18 4.48L17.5 4.48C17.7 4.48 17.87 4.41 18.02 4.27C18.16 4.13 18.24 3.95 18.24 3.73C18.24 3.53 18.16 3.35 18.02 3.21C17.87 3.07 17.7 3 17.5 3L9.14 3Z" fill="#000000" fill-opacity="0.901961" fill-rule="nonzero"/>
	</g>
</svg>
