<svg width="24.000000" height="24.000000" viewBox="0 0 24 24" fill="none" xmlns="http://www.w3.org/2000/svg" xmlns:xlink="http://www.w3.org/1999/xlink">
	<desc>
			Created with Pixso.
	</desc>
	<defs>
		<clipPath id="clip111_1106">
			<rect width="24.000000" height="24.000000" transform="matrix(-1 0 0 1 24 0)" fill="white" fill-opacity="0"/>
		</clipPath>
	</defs>
	<g clip-path="url(#clip111_1106)">
		<g opacity="0.000000">
			<rect width="24.000000" height="24.000000" transform="matrix(-1 0 0 1 24 0)" fill="#D8D8D8" fill-opacity="1.000000"/>
			<rect width="24.000000" height="24.000000" transform="matrix(-1 0 0 1 24 0)" stroke="#000000" stroke-opacity="0" stroke-width="1.000000"/>
		</g>
		<path d="M19.38 7.06C19.05 6.81 18.58 6.88 18.33 7.21C18.11 7.51 18.14 7.93 18.4 8.19L19 8.64L6.21 8.64C3.95 8.64 2.11 10.42 2 12.65L1.99 12.86C1.99 15.12 3.77 16.97 6 17.08L6.21 17.08L18.93 17.08C19.35 17.08 19.68 16.75 19.68 16.33C19.68 15.95 19.4 15.64 19.03 15.59L18.93 15.58L6.21 15.58C4.71 15.58 3.49 14.36 3.49 12.86C3.49 11.42 4.62 10.23 6.05 10.15L6.21 10.14L21.24 10.14C21.93 10.14 22.24 9.32 21.77 8.86L19.38 7.06Z" fill="#000000" fill-rule="evenodd"/>
	</g>
</svg>
