<svg width="60.000000" height="60.000000" viewBox="0 0 60 60" fill="none" xmlns="http://www.w3.org/2000/svg" xmlns:xlink="http://www.w3.org/1999/xlink">
	<desc>
			Created with Pixso.
	</desc>
	<defs>
		<filter id="filter_20_1822_dd" x="0.000000" y="0.000000" width="60.000000" height="60.000000" filterUnits="userSpaceOnUse" color-interpolation-filters="sRGB">
			<feFlood flood-opacity="0" result="BackgroundImageFix"/>
			<feColorMatrix in="SourceAlpha" type="matrix" values="0 0 0 0 0 0 0 0 0 0 0 0 0 0 0 0 0 0 127 0" result="hardAlpha"/>
			<feOffset dx="0" dy="4"/>
			<feGaussianBlur stdDeviation="2.66667"/>
			<feComposite in2="hardAlpha" operator="out" k2="-1" k3="1"/>
			<feColorMatrix type="matrix" values="0 0 0 0 0 0 0 0 0 0 0 0 0 0 0 0 0 0 0.1 0"/>
			<feBlend mode="normal" in2="BackgroundImageFix" result="effect_dropShadow_1"/>
			<feBlend mode="normal" in="SourceGraphic" in2="effect_dropShadow_1" result="shape"/>
		</filter>
	</defs>
	<g filter="url(#filter_20_1822_dd)">
		<rect x="8.000000" y="4.000000" rx="8.000000" width="44.000000" height="44.000000" fill="#FFFFFF" fill-opacity="1.000000"/>
		<path d="M29.78 11C29.25 11 28.7 11.03 28.14 11.09C25.91 11.33 23.85 12.05 21.94 13.26C20.03 14.47 18.47 16.02 17.27 17.92C16.05 19.82 15.33 21.88 15.1 24.11C15.03 24.62 15 25.14 15 25.68C15 28.21 15.6 30.57 16.8 32.75C18 34.94 19.63 36.71 21.7 38.08C23.77 39.43 26.05 40.21 28.56 40.41L28.82 40.41C29.65 40.41 30.35 40.13 30.91 39.57L43.57 26.91C43.93 26.54 44.21 26.1 44.39 25.6C44.58 25.1 44.63 24.59 44.57 24.07C44.29 21.65 43.45 19.45 42.06 17.45C40.67 15.46 38.89 13.89 36.74 12.73C34.59 11.57 32.27 11 29.78 11ZM19.98 33.84C19.04 32.69 18.31 31.42 17.81 30.04C17.3 28.66 17.05 27.23 17.05 25.75C17.05 25.13 17.07 24.66 17.12 24.33C17.31 22.41 17.93 20.62 18.97 18.98C20.01 17.34 21.35 16 22.98 14.96C24.62 13.92 26.42 13.3 28.37 13.08C28.67 13.04 29.14 13.02 29.78 13.02C31.9 13.02 33.88 13.5 35.73 14.45C37.57 15.4 39.09 16.72 40.29 18.4C41.5 20.08 42.25 21.96 42.54 24.04C41.17 23.83 39.83 23.72 38.53 23.72C34.69 23.72 31.84 24.76 29.97 26.84C28.37 28.64 27.56 31.11 27.56 34.27C27.56 35.7 27.7 37.05 27.98 38.32C26.39 38.08 24.92 37.58 23.55 36.82C22.18 36.06 20.99 35.07 19.98 33.84ZM29.91 37.73C29.68 36.36 29.56 35.19 29.56 34.2C29.56 31.6 30.2 29.6 31.49 28.19C32.97 26.54 35.31 25.71 38.53 25.71C39.6 25.71 40.66 25.79 41.71 25.94L29.91 37.73Z" fill="#000000" fill-opacity="0.898039" fill-rule="nonzero"/>
		<path d="M35.98 18.55C35.06 18.45 34.16 18.4 33.27 18.4C29.43 18.4 26.58 19.44 24.71 21.52C23.11 23.32 22.3 25.8 22.3 28.95C22.3 29.98 22.38 30.96 22.52 31.91C22.61 32.5 23.21 32.85 23.78 32.68C24.28 32.53 24.58 32.04 24.51 31.52C24.37 30.53 24.3 29.65 24.3 28.88C24.3 26.29 24.94 24.29 26.23 22.87C27.71 21.22 30.05 20.4 33.27 20.4C34.08 20.4 34.89 20.44 35.69 20.53C36.14 20.58 36.57 20.34 36.76 19.92C37.02 19.32 36.64 18.62 35.98 18.55Z" fill="#F29359" fill-opacity="1.000000" fill-rule="evenodd"/>
	</g>
</svg>
