<svg width="60.000000" height="60.000000" viewBox="0 0 60 60" fill="none" xmlns="http://www.w3.org/2000/svg" xmlns:xlink="http://www.w3.org/1999/xlink">
	<desc>
			Created with Pixso.
	</desc>
	<defs>
		<filter id="filter_28_1610_dd" x="0.000000" y="0.000000" width="60.000000" height="60.000000" filterUnits="userSpaceOnUse" color-interpolation-filters="sRGB">
			<feFlood flood-opacity="0" result="BackgroundImageFix"/>
			<feColorMatrix in="SourceAlpha" type="matrix" values="0 0 0 0 0 0 0 0 0 0 0 0 0 0 0 0 0 0 127 0" result="hardAlpha"/>
			<feOffset dx="0" dy="4"/>
			<feGaussianBlur stdDeviation="2.66667"/>
			<feComposite in2="hardAlpha" operator="out" k2="-1" k3="1"/>
			<feColorMatrix type="matrix" values="0 0 0 0 0 0 0 0 0 0 0 0 0 0 0 0 0 0 0.1 0"/>
			<feBlend mode="normal" in2="BackgroundImageFix" result="effect_dropShadow_1"/>
			<feBlend mode="normal" in="SourceGraphic" in2="effect_dropShadow_1" result="shape"/>
		</filter>
		<clipPath id="clip28_1605">
			<rect width="50.000000" height="50.000000" transform="translate(12.000000 8.000000)" fill="white" fill-opacity="0"/>
		</clipPath>
	</defs>
	<g filter="url(#filter_28_1610_dd)">
		<rect x="8.000000" y="4.000000" rx="8.000000" width="44.000000" height="44.000000" fill="#FFFFFF" fill-opacity="1.000000"/>
		<g clip-path="url(#clip28_1605)">
			<g opacity="0.000000">
				<rect x="12.000000" y="8.000000" width="36.000000" height="36.000000" fill="#000000" fill-opacity="1.000000"/>
			</g>
			<path d="M43.86 24.35C43.4 24.35 43.01 24.51 42.69 24.83C42.37 25.15 42.21 25.54 42.21 26C42.21 26.46 42.37 26.85 42.69 27.17C43.01 27.49 43.4 27.65 43.86 27.65C44.32 27.65 44.71 27.49 45.04 27.17C45.38 26.85 45.55 26.46 45.55 26C45.55 25.54 45.38 25.15 45.04 24.83C44.71 24.51 44.32 24.35 43.86 24.35ZM43.86 22.07C44.58 22.07 45.24 22.24 45.84 22.59C46.44 22.94 46.91 23.42 47.26 24.02C47.61 24.62 47.79 25.28 47.79 26C47.79 26.72 47.61 27.38 47.26 27.98C46.91 28.58 46.44 29.05 45.84 29.4C45.24 29.75 44.58 29.93 43.86 29.93C43.16 29.93 42.51 29.75 41.91 29.4C41.31 29.05 40.84 28.58 40.5 27.98C40.15 27.38 39.97 26.72 39.97 26C39.97 25.28 40.15 24.62 40.5 24.02C40.84 23.42 41.31 22.94 41.91 22.59C42.51 22.24 43.16 22.07 43.86 22.07ZM40.51 10.98C41.3 10.98 42.05 11.19 42.75 11.6C43.44 12.01 43.99 12.56 44.4 13.25C44.81 13.95 45.01 14.69 45.01 15.48L45.01 22.25C44.82 22.21 44.63 22.17 44.43 22.13C44.24 22.09 44.05 22.07 43.86 22.07C43.52 22.07 43.15 22.13 42.75 22.25L42.75 15.48C42.75 14.86 42.53 14.34 42.09 13.91C41.66 13.47 41.13 13.25 40.51 13.25L19.48 13.25C18.88 13.25 18.36 13.47 17.92 13.91C17.47 14.34 17.25 14.86 17.25 15.48L17.25 22.25L16.89 22.14C16.56 22.09 16.31 22.07 16.14 22.07C15.95 22.07 15.76 22.09 15.57 22.13C15.37 22.17 15.17 22.21 14.98 22.25L14.98 15.48C14.98 14.69 15.19 13.95 15.6 13.25C16.01 12.56 16.56 12.01 17.25 11.6C17.95 11.19 18.69 10.98 19.48 10.98L40.51 10.98ZM42.75 29.75C43.15 29.87 43.52 29.93 43.86 29.93C44.05 29.93 44.24 29.91 44.43 29.87C44.63 29.83 44.82 29.79 45.01 29.75L45.01 36.51C45.01 37.3 44.81 38.05 44.4 38.75C43.99 39.43 43.44 39.99 42.75 40.4C42.05 40.81 41.3 41.01 40.51 41.01L19.48 41.01C18.69 41.01 17.95 40.81 17.25 40.4C16.56 39.99 16.01 39.43 15.6 38.75C15.19 38.05 14.98 37.3 14.98 36.51L14.98 29.75C15.17 29.79 15.37 29.83 15.57 29.87C15.76 29.91 15.95 29.93 16.14 29.93C16.31 29.93 16.56 29.9 16.89 29.85L17.25 29.75L17.25 36.51C17.25 37.11 17.47 37.63 17.92 38.07C18.36 38.52 18.88 38.75 19.48 38.75L40.51 38.75C41.13 38.75 41.66 38.52 42.09 38.07C42.53 37.63 42.75 37.11 42.75 36.51L42.75 29.75ZM16.14 24.35C15.68 24.35 15.28 24.51 14.95 24.83C14.61 25.15 14.44 25.54 14.44 26C14.44 26.46 14.61 26.85 14.95 27.17C15.28 27.49 15.68 27.65 16.14 27.65C16.6 27.65 16.99 27.49 17.31 27.17C17.62 26.85 17.79 26.46 17.79 26C17.79 25.54 17.62 25.15 17.31 24.83C16.99 24.51 16.6 24.35 16.14 24.35ZM16.14 22.07C16.84 22.07 17.49 22.24 18.09 22.59C18.69 22.94 19.16 23.42 19.5 24.02C19.85 24.62 20.02 25.28 20.02 26C20.02 26.72 19.85 27.38 19.5 27.98C19.16 28.58 18.69 29.05 18.09 29.4C17.49 29.75 16.84 29.93 16.14 29.93C15.42 29.93 14.76 29.75 14.16 29.4C13.56 29.05 13.08 28.57 12.72 27.96C12.36 27.35 12.18 26.7 12.18 26C12.18 25.3 12.36 24.64 12.72 24.03C13.08 23.42 13.56 22.94 14.16 22.59C14.76 22.24 15.42 22.07 16.14 22.07Z" fill="#000000" fill-opacity="0.898039" fill-rule="nonzero"/>
			<path d="M36.91 18.29C37.29 18.29 37.62 18.43 37.9 18.7C38.17 18.99 38.31 19.33 38.31 19.73L38.28 21.86C38.28 22.32 38.09 22.64 37.72 22.82C37.35 23 36.98 23 36.59 22.82C36.23 22.64 36.04 22.31 36.04 21.83L36.04 20.57L31.11 20.57L31.11 32.66L33.24 32.66C33.7 32.66 34.02 32.84 34.2 33.23C34.38 33.62 34.38 34 34.2 34.37C34.02 34.74 33.7 34.92 33.24 34.92L26.61 34.92C26.16 34.92 25.84 34.74 25.66 34.37C25.48 34 25.48 33.62 25.66 33.23C25.84 32.84 26.16 32.66 26.61 32.66L28.84 32.66L28.84 20.57L23.88 20.57L23.88 21.83C23.9 22.31 23.72 22.64 23.35 22.82C22.98 23 22.61 22.99 22.24 22.79C21.87 22.6 21.69 22.29 21.69 21.86L21.64 19.73C21.64 19.33 21.78 18.99 22.06 18.7C22.33 18.43 22.66 18.29 23.05 18.29L36.91 18.29Z" fill="#ED6F21" fill-opacity="1.000000" fill-rule="nonzero"/>
		</g>
	</g>
</svg>
