<svg viewBox="0 0 48 48" xmlns="http://www.w3.org/2000/svg" xmlns:xlink="http://www.w3.org/1999/xlink" width="48.000000" height="48.000000" fill="none" customFrame="#000000">
	<mask id="mask_0" width="24.309999" height="24.000000" x="12.000000" y="12.000000" maskUnits="userSpaceOnUse">
		<g filter="url(#pixso_custom_mask_type_luminance)">
			<g id="hms_mask_0">
				<rect id="矩形 3617" width="24.000000" height="24.000000" x="12.000000" y="12.000000" fill="rgb(255,255,255)" />
				<g id="组合 4149">
					<path id="矢量 293" d="M31.0102 24.8398C30.0502 24.8398 29.1602 25.0765 28.3402 25.5498C27.5269 26.0232 26.8835 26.6665 26.4102 27.4798C25.9369 28.2932 25.7002 29.1798 25.7002 30.1398C25.7002 31.0998 25.9369 31.9865 26.4102 32.7998C26.8835 33.6065 27.5269 34.2465 28.3402 34.7198C29.1602 35.1865 30.0502 35.4198 31.0102 35.4198C31.9702 35.4198 32.8569 35.1865 33.6702 34.7198C34.4902 34.2465 35.1335 33.6065 35.6002 32.7998C36.0735 31.9865 36.3102 31.0998 36.3102 30.1398C36.3102 29.1798 36.0735 28.2932 35.6002 27.4798C35.1335 26.6665 34.4902 26.0232 33.6702 25.5498C32.8569 25.0765 31.9702 24.8398 31.0102 24.8398Z" fill="rgb(0,0,0)" fill-rule="nonzero" />
				</g>
			</g>
		</g>
	</mask>
	<defs>
		<clipPath id="clipPath_0">
			<rect width="24.000000" height="24.000000" x="12.000000" y="12.000000" fill="rgb(255,255,255)" />
		</clipPath>
		<filter id="pixso_custom_mask_type_luminance">
			<feColorMatrix type="matrix" values="1 0 0 0 0 0 1 0 0 0 0 0 1 0 0 0 0 0 1 0 " />
		</filter>
	</defs>
	<g id="组合 4151">
		<rect id="矩形 3558" width="48.000000" height="48.000000" x="0.000000" y="0.000000" rx="8.000000" fill="rgb(0,0,0)" style="mix-blend-mode:normal" fill-opacity="0.0470588244" />
		<g id="person_badge_phone_fill" clip-path="url(#clipPath_0)" customFrame="url(#clipPath_0)">
			<rect id="person_badge_phone_fill" width="24.000000" height="24.000000" x="12.000000" y="12.000000" />
			<rect id="矩形 3616" width="24.000000" height="24.000000" x="12.000000" y="12.000000" opacity="0" fill="rgb(0,0,0)" />
			<g id="mask" mask="url(#mask_0)">
				<g id="组合 4148">
					<path id="矢量 292" d="M24.0001 22.9701C24.8467 22.9701 25.6267 22.7567 26.3401 22.3301C27.0534 21.9101 27.6201 21.3401 28.0401 20.6201C28.4667 19.9001 28.6801 19.1134 28.6801 18.2601C28.6801 17.4134 28.4667 16.6301 28.0401 15.9101C27.6201 15.1901 27.0534 14.6201 26.3401 14.2001C25.6267 13.7734 24.8467 13.5601 24.0001 13.5601C23.1334 13.5601 22.3401 13.7734 21.6201 14.2001C20.9001 14.6201 20.3334 15.1901 19.9201 15.9101C19.5067 16.6301 19.3001 17.4134 19.3001 18.2601C19.3001 19.1134 19.5067 19.9001 19.9201 20.6201C20.3334 21.3401 20.9001 21.9101 21.6201 22.3301C22.3401 22.7567 23.1334 22.9701 24.0001 22.9701ZM30.7401 34.0601C31.1934 34.0601 31.6034 33.9501 31.9701 33.7301C32.3367 33.5167 32.6267 33.2267 32.8401 32.8601C33.0601 32.4867 33.1701 32.0767 33.1701 31.6301C33.1701 30.2701 32.7534 29.0201 31.9201 27.8801C31.0867 26.7334 30.0234 25.8267 28.7301 25.1601C27.4301 24.5001 26.1167 24.1701 24.7901 24.1701L23.1801 24.1701C21.8534 24.1701 20.5434 24.5001 19.2501 25.1601C17.9501 25.8267 16.8901 26.7334 16.0701 27.8801C15.2434 29.0201 14.8301 30.2701 14.8301 31.6301C14.8301 32.0767 14.9401 32.4867 15.1601 32.8601C15.3734 33.2267 15.6634 33.5167 16.0301 33.7301C16.3967 33.9501 16.7967 34.0601 17.2301 34.0601L30.7401 34.0601Z" fill="rgb(10,89,247)" style="mix-blend-mode:normal" fill-rule="nonzero" />
				</g>
			</g>
			<g id="组合 4150">
				<path id="矢量 294" d="M27 30.1401C27 30.8601 27.18 31.5268 27.54 32.1401C27.9 32.7468 28.3867 33.2301 29 33.5901C29.62 33.9501 30.29 34.1301 31.01 34.1301C31.73 34.1301 32.3933 33.9501 33 33.5901C33.6067 33.2301 34.09 32.7468 34.45 32.1401C34.81 31.5268 34.99 30.8601 34.99 30.1401C34.99 29.4201 34.81 28.7535 34.45 28.1401C34.09 27.5268 33.6067 27.0401 33 26.6801C32.3933 26.3201 31.73 26.1401 31.01 26.1401C30.29 26.1401 29.62 26.3201 29 26.6801C28.3867 27.0401 27.9 27.5268 27.54 28.1401C27.18 28.7535 27 29.4201 27 30.1401ZM32.86 28.2001C32.9667 28.3135 33.04 28.4401 33.08 28.5801C33.12 28.7268 33.1267 28.8735 33.1 29.0201C33 29.4201 32.78 29.8501 32.44 30.3101C32.0933 30.7768 31.6933 31.1801 31.24 31.5201C30.78 31.8668 30.35 32.0801 29.95 32.1601C29.65 32.2068 29.3933 32.1268 29.18 31.9201L29.04 31.8001C28.96 31.7201 28.92 31.6168 28.92 31.4901C28.92 31.3635 28.96 31.2668 29.04 31.2001L29.57 30.7901C29.65 30.7301 29.7367 30.7035 29.83 30.7101C29.93 30.7168 30.01 30.7535 30.07 30.8201L30.29 31.0101C30.3367 31.0568 30.3933 31.0835 30.46 31.0901C30.52 31.0968 30.5733 31.0868 30.62 31.0601C30.8467 30.9268 31.1033 30.7168 31.39 30.4301C31.6767 30.1435 31.8867 29.8968 32.02 29.6901C32.0467 29.6235 32.0567 29.5601 32.05 29.5001C32.0433 29.4335 32.0167 29.3768 31.97 29.3301L31.75 29.1101C31.69 29.0501 31.6533 28.9701 31.64 28.8701C31.6333 28.7768 31.6633 28.6901 31.73 28.6101C31.8567 28.4501 31.9833 28.2901 32.11 28.1301C32.1567 28.0835 32.22 28.0435 32.3 28.0101C32.38 27.9768 32.4533 27.9668 32.52 27.9801C32.6333 28.0135 32.7133 28.0535 32.76 28.1001L32.86 28.2001Z" fill="rgb(10,89,247)" style="mix-blend-mode:normal" fill-rule="nonzero" />
			</g>
		</g>
	</g>
</svg>
