<svg viewBox="0 0 12 24" xmlns="http://www.w3.org/2000/svg" xmlns:xlink="http://www.w3.org/1999/xlink" width="12.000000" height="24.000000" fill="none">
	<rect id="chevron_right" width="12.000000" height="24.000000" x="0.000000" y="0.000000" />
	<rect id="矩形 3615" width="12.000000" height="24.000000" x="0.000000" y="0.000000" opacity="0" fill="rgb(0,0,0)" />
	<g id="组合 4144">
		<path id="矢量 280" d="M2.78031 18C2.97365 18.16 3.16698 18.24 3.36031 18.24C3.55365 18.24 3.72031 18.16 3.86031 18L9.14031 12.65L9.24031 12.55C9.38698 12.3567 9.46031 12.1334 9.46031 11.88C9.46031 11.56 9.35365 11.3034 9.14031 11.11L3.86031 5.74002C3.72031 5.59335 3.54698 5.52002 3.34031 5.52002C3.12698 5.52002 2.95031 5.59335 2.81031 5.74002C2.68365 5.86669 2.61365 6.02669 2.60031 6.22002C2.59365 6.40669 2.64698 6.58002 2.76031 6.74002L2.81031 6.79002L7.82031 11.88L2.78031 16.94C2.64031 17.0867 2.57031 17.2634 2.57031 17.47C2.57031 17.6767 2.64031 17.8534 2.78031 18Z" fill="rgb(0,0,0)" style="mix-blend-mode:normal" fill-opacity="0.898039222" fill-rule="nonzero" />
	</g>
</svg>
