<svg viewBox="0 0 48 48" xmlns="http://www.w3.org/2000/svg" xmlns:xlink="http://www.w3.org/1999/xlink" width="48.000000" height="48.000000" fill="none" customFrame="#000000">
	<mask id="mask_1" width="24.000000" height="24.000000" x="13.000000" y="12.000000" maskUnits="userSpaceOnUse">
		<g filter="url(#pixso_custom_mask_type_luminance)">
			<g id="hms_mask_0">
				<rect id="矩形 3619" width="24.000000" height="24.000000" x="13.000000" y="12.000000" fill="rgb(255,255,255)" />
				<g id="组合 4154">
					<path id="矢量 296" d="M18.9 32.5C18.28 32.5 17.74 32.2867 17.28 31.86C16.8267 31.4333 16.5667 30.91 16.5 30.29L26.56 22.97C26.88 22.7433 27.2267 22.5933 27.6 22.52C27.98 22.4533 28.3533 22.47 28.72 22.57C29.0867 22.6767 29.4133 22.8567 29.7 23.11L33.5 26.35L33.5 30.05C33.5 30.7233 33.2633 31.3 32.79 31.78C32.3167 32.26 31.7433 32.5 31.07 32.5L18.9 32.5ZM21.5 19.25C21.98 19.25 22.39 19.42 22.73 19.76C23.0767 20.1067 23.25 20.52 23.25 21C23.25 21.48 23.0767 21.8933 22.73 22.24C22.39 22.58 21.98 22.75 21.5 22.75C21.02 22.75 20.6067 22.58 20.26 22.24C19.9133 21.8933 19.74 21.48 19.74 21C19.74 20.52 19.9133 20.1067 20.26 19.76C20.6067 19.42 21.02 19.25 21.5 19.25Z" fill="rgb(0,0,0)" fill-rule="nonzero" />
				</g>
			</g>
		</g>
	</mask>
	<defs>
		<clipPath id="clipPath_1">
			<rect width="24.000000" height="24.000000" x="13.000000" y="12.000000" fill="rgb(255,255,255)" />
		</clipPath>
		<filter id="pixso_custom_mask_type_luminance">
			<feColorMatrix type="matrix" values="1 0 0 0 0 0 1 0 0 0 0 0 1 0 0 0 0 0 1 0 " />
		</filter>
	</defs>
	<g id="组合 4151">
		<rect id="矩形 3558" width="48.000000" height="48.000000" x="0.000000" y="0.000000" rx="8.000000" fill="rgb(0,0,0)" style="mix-blend-mode:normal" fill-opacity="0.0470588244" />
		<g id="picture_fill" clip-path="url(#clipPath_1)" customFrame="url(#clipPath_1)">
			<rect id="picture_fill" width="24.000000" height="24.000000" x="13.000000" y="12.000000" />
			<rect id="矩形 3618" width="24.000000" height="24.000000" x="13.000000" y="12.000000" opacity="0" fill="rgb(0,0,0)" />
			<g id="mask" mask="url(#mask_1)">
				<g id="组合 4153">
					<path id="矢量 295" d="M18.9302 13.9902C18.2236 13.9902 17.5669 14.1669 16.9602 14.5202C16.3536 14.8736 15.8736 15.3536 15.5202 15.9602C15.1669 16.5669 14.9902 17.2236 14.9902 17.9302L14.9902 30.0502C14.9902 30.7702 15.1669 31.4336 15.5202 32.0402C15.8736 32.6469 16.3536 33.1269 16.9602 33.4802C17.5669 33.8336 18.2236 34.0102 18.9302 34.0102L31.0502 34.0102C31.7702 34.0102 32.4302 33.8336 33.0302 33.4802C33.6302 33.1269 34.1069 32.6469 34.4602 32.0402C34.8069 31.4336 34.9802 30.7702 34.9802 30.0502L34.9802 17.9302C34.9802 17.2236 34.8069 16.5669 34.4602 15.9602C34.1069 15.3536 33.6302 14.8736 33.0302 14.5202C32.4302 14.1669 31.7769 13.9902 31.0702 13.9902L18.9302 13.9902Z" fill="rgb(10,89,247)" style="mix-blend-mode:normal" fill-rule="nonzero" />
				</g>
			</g>
		</g>
	</g>
</svg>
