<svg viewBox="0 0 48 48" xmlns="http://www.w3.org/2000/svg" xmlns:xlink="http://www.w3.org/1999/xlink" width="48.000000" height="48.000000" fill="none" customFrame="#000000">
	<mask id="mask_2" width="24.000000" height="24.000000" x="12.000000" y="12.000000" maskUnits="userSpaceOnUse">
		<g filter="url(#pixso_custom_mask_type_luminance)">
			<g id="hms_mask_0">
				<rect id="矩形 3621" width="24.000000" height="24.000000" x="12.000000" y="12.000000" fill="rgb(255,255,255)" />
				<g id="组合 4157">
					<path id="矢量 298" d="M21.7402 22.03C21.7402 21.8367 21.8069 21.6734 21.9402 21.54C22.0669 21.4067 22.2169 21.3267 22.3902 21.3C22.5702 21.2734 22.7302 21.3 22.8702 21.38L26.2602 23.35C26.4469 23.4634 26.5669 23.6134 26.6202 23.8C26.6669 23.98 26.6536 24.15 26.5802 24.31C26.5069 24.47 26.4002 24.5834 26.2602 24.65L22.8702 26.62C22.7302 26.7 22.5702 26.7267 22.3902 26.7C22.2169 26.6734 22.0669 26.5967 21.9402 26.47C21.8069 26.3434 21.7402 26.1767 21.7402 25.97L21.7402 22.03Z" fill="rgb(0,0,0)" fill-rule="nonzero" />
				</g>
			</g>
		</g>
	</mask>
	<defs>
		<clipPath id="clipPath_2">
			<rect width="24.000000" height="24.000000" x="12.000000" y="12.000000" fill="rgb(255,255,255)" />
		</clipPath>
		<filter id="pixso_custom_mask_type_luminance">
			<feColorMatrix type="matrix" values="1 0 0 0 0 0 1 0 0 0 0 0 1 0 0 0 0 0 1 0 " />
		</filter>
	</defs>
	<g id="组合 4158">
		<rect id="矩形 3558" width="48.000000" height="48.000000" x="0.000000" y="0.000000" rx="8.000000" fill="rgb(0,0,0)" style="mix-blend-mode:normal" fill-opacity="0.0470588244" />
		<g id="resolution_video_fill" clip-path="url(#clipPath_2)" customFrame="url(#clipPath_2)">
			<rect id="resolution_video_fill" width="24.000000" height="24.000000" x="12.000000" y="12.000000" />
			<rect id="矩形 3620" width="24.000000" height="24.000000" x="12.000000" y="12.000000" opacity="0" fill="rgb(0,0,0)" />
			<g id="mask" mask="url(#mask_2)">
				<g id="组合 4156">
					<path id="矢量 297" d="M34.9898 18C34.9898 17.4533 34.8531 16.9533 34.5798 16.5C34.3131 16.0467 33.9498 15.6833 33.4898 15.41C33.0364 15.1367 32.5364 15 31.9898 15L16.0098 15C15.4631 15 14.9598 15.1367 14.4998 15.41C14.0331 15.6833 13.6664 16.0467 13.3998 16.5C13.1398 16.9533 13.0098 17.4533 13.0098 18L13.0098 30C13.0098 30.5467 13.1398 31.0467 13.3998 31.5C13.6664 31.9533 14.0331 32.3167 14.4998 32.59C14.9598 32.8633 15.4631 33 16.0098 33L31.9898 33C32.5364 33 33.0364 32.8633 33.4898 32.59C33.9498 32.3167 34.3131 31.9533 34.5798 31.5C34.8531 31.0467 34.9898 30.5467 34.9898 30L34.9898 18ZM16.9898 16.49C17.1364 16.49 17.2564 16.5367 17.3498 16.63C17.4498 16.73 17.4998 16.85 17.4998 16.99L17.4998 19.9C17.4998 20.06 17.4398 20.2 17.3198 20.32C17.1998 20.44 17.0598 20.5 16.8998 20.5L15.0998 20.5C14.9398 20.5 14.7998 20.44 14.6798 20.32C14.5598 20.2 14.4998 20.06 14.4998 19.9L14.4998 18C14.4998 17.5867 14.6464 17.23 14.9398 16.93C15.2331 16.6367 15.5898 16.49 16.0098 16.49L16.9898 16.49ZM31.9898 16.49C32.4098 16.49 32.7664 16.6367 33.0598 16.93C33.3531 17.23 33.4998 17.5867 33.4998 18L33.4998 19.01L33.4998 19.9C33.4998 20.06 33.4464 20.2 33.3398 20.32C33.2264 20.44 33.0798 20.5 32.8998 20.5L31.0998 20.5C30.9398 20.5 30.7998 20.44 30.6798 20.32C30.5598 20.2 30.4998 20.06 30.4998 19.9L30.4998 16.99C30.4998 16.85 30.5498 16.73 30.6498 16.63C30.7431 16.5367 30.8631 16.49 31.0098 16.49L31.9898 16.49ZM15.0998 25.99C14.9398 25.99 14.7998 25.93 14.6798 25.81C14.5598 25.69 14.4998 25.55 14.4998 25.39L14.4998 22.61C14.4998 22.43 14.5598 22.2867 14.6798 22.18C14.7998 22.0667 14.9398 22.01 15.0998 22.01L16.8998 22.01C17.0598 22.01 17.1998 22.07 17.3198 22.19C17.4398 22.31 17.4998 22.45 17.4998 22.61L17.4998 25.39C17.4998 25.55 17.4398 25.69 17.3198 25.81C17.1998 25.93 17.0598 25.99 16.8998 25.99L15.0998 25.99ZM33.4998 25.39C33.4998 25.55 33.4464 25.69 33.3398 25.81C33.2264 25.93 33.0798 25.99 32.8998 25.99L31.0998 25.99C30.9398 25.99 30.7998 25.93 30.6798 25.81C30.5598 25.69 30.4998 25.55 30.4998 25.39L30.4998 22.61C30.4998 22.43 30.5598 22.2867 30.6798 22.18C30.7998 22.0667 30.9398 22.01 31.0998 22.01L32.8998 22.01C33.0798 22.01 33.2264 22.0667 33.3398 22.18C33.4464 22.2867 33.4998 22.43 33.4998 22.61L33.4998 25.39ZM16.0098 31.49C15.5898 31.49 15.2331 31.3467 14.9398 31.06C14.6464 30.7667 14.4998 30.4133 14.4998 30L14.4998 28.1C14.4998 27.9267 14.5598 27.7833 14.6798 27.67C14.7998 27.5567 14.9398 27.5 15.0998 27.5L16.8998 27.5C17.0598 27.5 17.1998 27.56 17.3198 27.68C17.4398 27.8 17.4998 27.94 17.4998 28.1L17.4998 31.01C17.4998 31.1367 17.4498 31.2467 17.3498 31.34C17.2564 31.44 17.1364 31.49 16.9898 31.49L16.0098 31.49ZM32.8998 27.5C33.0798 27.5 33.2264 27.5567 33.3398 27.67C33.4464 27.7833 33.4998 27.9267 33.4998 28.1L33.4998 30C33.4998 30.4133 33.3531 30.7667 33.0598 31.06C32.7664 31.3467 32.4098 31.49 31.9898 31.49L31.0098 31.49C30.8631 31.49 30.7431 31.44 30.6498 31.34C30.5498 31.2467 30.4998 31.1367 30.4998 31.01L30.4998 28.1C30.4998 27.9267 30.5598 27.7833 30.6798 27.67C30.7998 27.5567 30.9398 27.5 31.0998 27.5L32.8998 27.5Z" fill="rgb(10,89,247)" style="mix-blend-mode:normal" fill-rule="nonzero" />
				</g>
			</g>
		</g>
	</g>
</svg>
