<svg width="24.000000" height="24.000000" viewBox="0 0 24 24" fill="none" xmlns="http://www.w3.org/2000/svg" xmlns:xlink="http://www.w3.org/1999/xlink">
	<desc>
			Created with Pixso.
	</desc>
	<defs>
		<clipPath id="clip8_3507">
			<rect id="icon_house_on" width="24.000000" height="24.000000" fill="white" fill-opacity="0"/>
		</clipPath>
	</defs>
	<g clip-path="url(#clip8_3507)">
		<g opacity="0.000000">
			<rect id="rect" width="24.000000" height="24.000000" fill="#000000" fill-opacity="1.000000"/>
		</g>
		<path id="差集" d="M20.37 12.06C18.55 10.33 16.71 8.59 14.88 6.85L13.06 5.16C12.75 4.87 12.39 4.72 11.99 4.72C11.81 4.72 11.64 4.75 11.48 4.81C11.27 4.88 11.09 4.99 10.92 5.16L3.65 12.06C3.52 12.19 3.42 12.34 3.35 12.5C3.29 12.66 3.26 12.81 3.26 12.98L3.26 19.99C3.26 20.29 3.31 20.57 3.41 20.83C3.45 20.93 3.5 21.03 3.56 21.13C3.76 21.47 4.03 21.75 4.38 21.95C4.51 22.02 4.64 22.08 4.78 22.13C5.02 22.21 5.26 22.25 5.52 22.25L18.5 22.25C18.69 22.25 18.89 22.22 19.07 22.17C19.26 22.12 19.44 22.05 19.62 21.95C19.96 21.75 20.24 21.47 20.44 21.13C20.49 21.03 20.54 20.93 20.58 20.83C20.68 20.57 20.74 20.29 20.74 19.99L20.74 12.96C20.74 12.78 20.7 12.62 20.64 12.47C20.57 12.31 20.48 12.18 20.37 12.06ZM9.02 16.17L9.02 20.74L14.98 20.74L14.98 16.17C14.98 15.84 14.92 15.53 14.81 15.25C14.66 14.88 14.43 14.55 14.11 14.26C13.53 13.72 12.83 13.46 12 13.46C11.48 13.46 11.02 13.56 10.6 13.76C10.35 13.88 10.11 14.05 9.89 14.26C9.56 14.55 9.33 14.88 9.18 15.25C9.07 15.53 9.02 15.84 9.02 16.17Z" fill="#0A59F7" fill-opacity="1.000000" fill-rule="evenodd"/>
		<path id="path" d="M1.48 11.47C1.61 11.59 1.79 11.66 2.02 11.68C2.23 11.68 2.41 11.62 2.54 11.5L10.61 3.83C11.01 3.45 11.47 3.26 12.01 3.26C12.55 3.26 13.02 3.45 13.42 3.83L21.48 11.47C21.62 11.61 21.8 11.69 22.01 11.69C22.21 11.69 22.39 11.61 22.54 11.45C22.66 11.3 22.73 11.12 22.73 10.92C22.73 10.71 22.65 10.53 22.51 10.39L14.45 2.76C14 2.32 13.48 2.03 12.89 1.88C12.29 1.73 11.7 1.73 11.11 1.88C10.51 2.03 9.99 2.32 9.55 2.76L1.51 10.39C1.35 10.53 1.27 10.71 1.27 10.92C1.27 11.12 1.34 11.31 1.48 11.47Z" fill="#0A59F7" fill-opacity="1.000000" fill-rule="nonzero"/>
	</g>
</svg>
