<svg width="24.000000" height="24.000000" viewBox="0 0 24 24" fill="none" xmlns="http://www.w3.org/2000/svg" xmlns:xlink="http://www.w3.org/1999/xlink">
	<desc>
			Created with Pixso.
	</desc>
	<defs>
		<clipPath id="clip167_8960">
			<rect width="24.000000" height="24.000000" fill="white" fill-opacity="0"/>
		</clipPath>
		<linearGradient x1="12.000010" y1="1.010010" x2="12.000010" y2="22.990009" id="paint_linear_167_8958_0" gradientUnits="userSpaceOnUse">
			<stop stop-color="#F1D1A5"/>
			<stop offset="0.992757" stop-color="#E3AC58"/>
		</linearGradient>
	</defs>
	<g clip-path="url(#clip167_8960)">
		<g opacity="0.000000">
			<rect width="24.000000" height="24.000000" fill="#000000" fill-opacity="1.000000"/>
		</g>
		<path d="M12 1.01C13.98 1.01 15.82 1.5 17.5 2.48C19.18 3.46 20.51 4.8 21.5 6.49C22.49 8.17 22.99 10.01 22.99 12C22.99 13.98 22.5 15.82 21.52 17.51C20.53 19.19 19.19 20.53 17.51 21.52C15.82 22.5 13.98 22.99 12 22.99C10.01 22.99 8.17 22.5 6.48 21.52C4.8 20.53 3.46 19.19 2.47 17.51C1.5 15.82 1.01 13.98 1.01 12C1.01 10.01 1.5 8.17 2.47 6.49C3.46 4.8 4.8 3.46 6.48 2.48C8.17 1.5 10.01 1.01 12 1.01ZM12 14.95C12.2 14.95 12.38 14.88 12.54 14.74C12.69 14.59 12.77 14.41 12.77 14.21L12.77 13.61C12.77 13.4 12.83 13.21 12.95 13.04C13.07 12.87 13.24 12.74 13.46 12.65C14.08 12.36 14.58 11.92 14.95 11.34C15.31 10.75 15.5 10.11 15.5 9.43C15.5 9.15 15.48 8.95 15.46 8.81C15.34 8.1 15.02 7.48 14.48 6.96C13.94 6.43 13.32 6.1 12.62 5.98C12.36 5.94 12.16 5.93 12.02 5.93C11.12 5.93 10.36 6.2 9.71 6.74C9.32 7.08 9.01 7.48 8.8 7.96C8.57 8.42 8.46 8.91 8.46 9.43C8.46 9.63 8.54 9.81 8.69 9.97C8.85 10.12 9.03 10.2 9.23 10.2C9.44 10.2 9.62 10.12 9.77 9.97C9.91 9.81 9.97 9.63 9.97 9.43C9.97 9.14 10.04 8.86 10.18 8.59C10.3 8.31 10.48 8.08 10.7 7.9C11.05 7.59 11.48 7.44 12 7.44C12.16 7.44 12.28 7.44 12.36 7.46C12.77 7.54 13.13 7.73 13.43 8.03C13.72 8.32 13.9 8.67 13.97 9.07C13.98 9.15 13.99 9.28 13.99 9.46C13.99 9.86 13.89 10.22 13.69 10.54C13.49 10.86 13.2 11.1 12.84 11.28C12.34 11.48 11.96 11.8 11.68 12.22C11.4 12.63 11.26 13.09 11.26 13.61L11.26 14.21C11.26 14.41 11.33 14.59 11.47 14.74C11.61 14.88 11.79 14.95 12 14.95ZM10.99 16.96C10.99 17.25 11.09 17.49 11.29 17.69C11.49 17.88 11.72 17.98 12 17.98C12.27 17.98 12.51 17.88 12.71 17.69C12.91 17.49 13.01 17.25 13.01 16.96C13.01 16.69 12.91 16.46 12.71 16.27C12.51 16.07 12.27 15.98 12 15.98C11.72 15.98 11.49 16.07 11.29 16.27C11.09 16.46 10.99 16.69 10.99 16.96Z" fill="url(#paint_linear_167_8958_0)" fill-opacity="1.000000" fill-rule="nonzero"/>
	</g>
</svg>
