<svg viewBox="0 0 120 120" xmlns="http://www.w3.org/2000/svg" xmlns:xlink="http://www.w3.org/1999/xlink" width="120.000000" height="120.000000" fill="none">
	<rect id="04+NoRecord 1" width="120.000000" height="120.000000" x="0.000000" y="0.000000" />
	<g id="EmptyPage/04-NoRecord">
		<g id="编组">
			<g id="board">
				<ellipse id="椭圆形" rx="33.323544" ry="2.090546" cx="59.426815" cy="107.793182" opacity="0.150000006" fill="rgb(161,167,179)" />
				<path id="形状结合" d="M41.4665 17.6846C40.6418 18.8463 40.1185 20.2369 40.0103 21.7424L35.1834 21.7425C34.6705 21.7425 34.2479 22.1285 34.1901 22.6259L34.1834 22.7425L34.1834 90.4443C34.1834 90.9571 34.5694 91.3798 35.0667 91.4375L35.1834 91.4443L81.7696 91.4443C82.2824 91.4443 82.7051 91.0582 82.7629 90.5609L82.7696 90.4443L82.769 69.464C84.0453 68.6961 85.3947 67.8713 86.7788 67.02C87.6819 66.4646 88.5708 65.9243 89.4472 65.3891L89.4463 99.1454C89.4463 101.355 87.6555 103.145 85.4463 103.145L31.2241 103.145C29.015 103.145 27.2241 101.355 27.2241 99.1454L27.2241 21.6863C27.2241 19.4771 29.015 17.6863 31.2241 17.6863L41.4665 17.6846ZM75.4865 17.6846L85.4463 17.6863C87.6555 17.6863 89.4463 19.4771 89.4463 21.6863L89.4469 51.7412C87.2179 53.9656 84.913 56.6782 82.77 59.4363L82.7696 22.7425C82.7696 22.1902 82.3219 21.7425 81.7696 21.7425L76.9426 21.7424C76.8345 20.2369 76.3111 18.8463 75.4865 17.6846Z" opacity="0.600000024" fill="rgb(161,167,179)" fill-rule="evenodd" />
				<path id="bolder" d="M27.2383 98.0347C27.2383 100.244 29.0291 102.035 31.2383 102.035L85.4605 102.035C87.6696 102.035 89.4605 100.244 89.4605 98.0347L89.4605 99.1458C89.4605 101.355 87.6696 103.146 85.4605 103.146L31.2383 103.146C29.0291 103.146 27.2383 101.355 27.2383 99.1458L27.2383 98.0347Z" opacity="0.300000012" fill="rgb(161,167,179)" fill-rule="evenodd" />
				<path id="形状结合" d="M82.7689 69.4642L82.7695 90.4445C82.7695 90.9967 82.3218 91.4445 81.7695 91.4445L35.1833 91.4445C34.6705 91.4445 34.2478 91.0584 34.19 90.5611L34.1838 90.4451C34.202 90.9971 34.6642 91.4298 35.2162 91.4116C62.2205 90.522 76.7764 89.0071 78.8842 86.8667C79.9067 85.8284 80.7366 80.3057 81.3739 70.2986C81.8271 70.029 82.293 69.7506 82.7689 69.4642ZM81.7695 21.7427C82.3218 21.7427 82.7695 22.1904 82.7695 22.7427L82.7699 59.4365C82.4677 59.8255 82.1688 60.2153 81.8737 60.6048C82.276 51.0062 82.5661 38.7933 82.7439 23.9668L82.7581 22.7548L82.7582 22.7433C82.7582 22.2305 82.3721 21.8078 81.8748 21.7501L81.7581 21.7433L81.7695 21.7427Z" opacity="0.800000012" fill="rgb(161,167,179)" fill-rule="evenodd" />
				<path id="形状结合" d="M40.0103 21.7435L40.0001 21.9094L39.9933 22.0762L39.9903 22.2779L76.9633 22.2781C76.9623 22.0983 76.9553 21.9199 76.9426 21.7432L81.7582 21.7435C82.3105 21.7434 82.7583 22.1912 82.7583 22.7435L82.7582 22.755C82.5818 38.1296 82.287 50.7468 81.8737 60.6064C78.2431 65.3975 75.202 70.1378 73.9922 72.5155L59.4621 86.547L57.023 89.5272C56.9713 89.5903 56.9685 89.6802 57.016 89.7465C57.0611 89.8094 57.1476 89.8262 57.213 89.7846L60.4595 87.7181L74.8339 73.8207C76.2415 73.2537 78.5766 71.9563 81.3735 70.2981C80.7366 80.306 79.9068 85.8286 78.8842 86.8669C76.7765 89.0072 62.2205 90.5222 35.2163 91.4118C34.6643 91.43 34.2021 90.9972 34.1839 90.4452L34.1833 22.7435C34.1833 22.1912 34.6311 21.7435 35.1833 21.7435L40.0103 21.7435ZM76.9641 22.8844L39.99 22.8844L39.99 23.6298C39.99 23.933 40.2112 24.1844 40.501 24.2317L40.5999 24.2397L76.3542 24.2397C76.6573 24.2397 76.9088 24.0185 76.9561 23.7287L76.9641 23.6298L76.9641 22.8844Z" opacity="0.200000003" fill="rgb(161,167,179)" fill-rule="evenodd" />
				<path id="形状结合" d="M40.0103 21.7435L40.0001 21.9094L39.9933 22.0762L39.9903 22.2779L76.9633 22.2781C76.9623 22.0983 76.9553 21.9199 76.9426 21.7432L81.7582 21.7435C82.3105 21.7434 82.7583 22.1912 82.7583 22.7435L82.7582 22.755C82.5818 38.1296 82.287 50.7468 81.8737 60.6064C78.2431 65.3975 75.202 70.1378 73.9922 72.5155L59.4621 86.547L57.023 89.5272C56.9713 89.5903 56.9685 89.6802 57.016 89.7465C57.0611 89.8094 57.1476 89.8262 57.213 89.7846L60.4595 87.7181L74.8339 73.8207C76.2415 73.2537 78.5766 71.9563 81.3735 70.2981C80.7366 80.306 79.9068 85.8286 78.8842 86.8669C76.7765 89.0072 62.2205 90.5222 35.2163 91.4118C34.6643 91.43 34.2021 90.9972 34.1839 90.4452L34.1833 22.7435C34.1833 22.1912 34.6311 21.7435 35.1833 21.7435L40.0103 21.7435ZM76.9641 22.8844L39.99 22.8844L39.99 23.6298C39.99 23.933 40.2112 24.1844 40.501 24.2317L40.5999 24.2397L76.3542 24.2397C76.6573 24.2397 76.9088 24.0185 76.9561 23.7287L76.9641 23.6298L76.9641 22.8844Z" opacity="0.100000001" fill="rgb(161,167,179)" fill-rule="evenodd" />
				<path id="形状结合" d="M76.9641 22.8845L76.9641 23.6299C76.9641 23.9667 76.691 24.2398 76.3542 24.2398L40.5999 24.2398C40.263 24.2398 39.99 23.9667 39.99 23.6299L39.99 22.8845L76.9641 22.8845ZM58.4764 10.4102C61.1488 10.4102 62.2942 12.0408 63.3691 14.0925L63.4764 14.299L68.9362 14.299C73.3535 14.299 76.9374 17.867 76.9633 22.2782L39.9902 22.278L39.9932 22.0763C40.1253 17.7586 43.667 14.299 48.0167 14.299L53.4764 14.299C54.4248 12.1513 55.715 10.4102 58.4764 10.4102ZM58.4764 12.7814C57.1218 12.7814 56.0237 13.8795 56.0237 15.234C56.0237 16.5886 57.1218 17.6867 58.4764 17.6867C59.831 17.6867 60.9291 16.5886 60.9291 15.234C60.9291 13.8795 59.831 12.7814 58.4764 12.7814Z" opacity="0.600000024" fill="rgb(161,167,179)" fill-rule="evenodd" />
			</g>
			<path id="pencil" d="M75.3641 0.621391C77.4397 2.54371 67.6269 10.2771 59.522 13.4447C51.417 16.6123 44.6607 16.8547 36.8383 17.4832C30.8904 17.961 25.5223 18.3332 23.1081 18.1194L3.99115 23.9763L0.160343 24.3436C0.0831852 24.351 0.0136948 24.2969 0.00205421 24.2202C-0.0101872 24.1396 0.0331783 24.0608 0.107822 24.0281L3.63406 22.48L22.9506 16.5744C26.7005 13.8466 38.6206 7.27103 47.3863 4.69965C49.2265 4.15984 51.2022 3.62779 53.2225 3.12674L54.0328 2.92802C54.4389 2.82954 54.8463 2.73243 55.2543 2.63686L56.0708 2.44786C56.207 2.41672 56.3432 2.38577 56.4793 2.355L57.2957 2.17281C65.7257 0.315201 73.8849 -0.748531 75.3641 0.621391ZM51.5078 9.72141C50.5322 9.5602 48.9065 9.01671 49.0949 9.59286C49.2834 10.169 51.2314 11.0141 55.6462 11.2529C59.8244 11.4789 58.6764 10.9078 56.8605 10.5605L56.6523 10.5221L56.5465 10.5038C54.5637 10.167 52.4835 9.88262 51.5078 9.72141ZM55.3002 7.38651C54.4747 7.20108 53.6699 7.03549 53.8056 7.45032C53.9941 8.02648 55.9421 8.87158 60.3569 9.11036C64.7716 9.34915 63.24 8.69808 61.2572 8.36126C59.2744 8.02443 57.1942 7.74007 56.2185 7.57887C56.0234 7.54662 55.8022 7.49909 55.5748 7.44828L55.3002 7.38651ZM60.691 4.97471C59.9162 4.8033 59.2055 4.67736 59.3337 5.06915C59.5222 5.6453 61.4702 6.4904 65.885 6.72919C70.0632 6.95519 68.9151 6.38411 67.0992 6.03673L66.891 5.99842L66.7853 5.98008C64.8025 5.64326 62.7223 5.35889 61.7466 5.19769C61.5515 5.16545 61.3303 5.11792 61.1029 5.06711L60.691 4.97471Z" opacity="0.5" fill="rgb(161,167,179)" fill-rule="evenodd" transform="matrix(0.891007,-0.453991,0.453991,0.891007,46.0186,68.167)" />
		</g>
	</g>
</svg>
