<svg viewBox="0 0 120 120" xmlns="http://www.w3.org/2000/svg" xmlns:xlink="http://www.w3.org/1999/xlink" width="120.000000" height="120.000000" fill="none">
	<rect id="01+NoDocument 1" width="120.000000" height="120.000000" x="0.000000" y="0.000000" />
	<g id="EmptyPage/01-NoDocument">
		<g id="编组">
			<path id="形状结合" d="M95.0367 92.3941C99.0301 93.5168 101.323 94.8273 101.323 96.227C101.323 100.384 81.1032 103.754 56.1613 103.754C31.2194 103.754 11 100.384 11 96.227C11 95.4728 11.6656 94.7445 12.9042 94.0575C13.9347 95.317 15.5005 96.1207 17.2541 96.1207L89.7476 96.1207C92.1372 96.1207 94.2651 94.6086 95.0511 92.3521L95.0367 92.3941Z" opacity="0.150000006" fill="rgb(161,167,179)" fill-rule="evenodd" />
			<g id="编组-4">
				<path id="形状结合" d="M79.8792 34.7246C82.9808 34.7246 85.4952 37.239 85.4952 40.3406L85.4951 41.7716L34.2442 41.7723C32.0169 41.7723 30.0082 43.0875 29.1111 45.1101L29.0193 45.3294L12.0291 88.4459C12.0277 88.4495 12.0262 88.4531 12.0248 88.4568L12.0241 40.3406C12.0241 37.239 14.5385 34.7246 17.6401 34.7246L79.8792 34.7246Z" opacity="0.600000024" fill="rgb(161,167,179)" fill-rule="evenodd" />
				<path id="形状结合" d="M34.2443 41.7725L104.766 41.7725C107.868 41.7725 110.382 44.2868 110.382 47.3885C110.382 48.0174 110.277 48.6419 110.07 49.2358L95.0511 92.3522C94.2651 94.6088 92.1372 96.1209 89.7476 96.1209L17.2541 96.1209C14.1524 96.1209 11.6381 93.6065 11.6381 90.5049C11.6381 89.8001 11.7707 89.1017 12.0291 88.446L29.0193 45.3295C29.865 43.1832 31.9373 41.7725 34.2443 41.7725Z" opacity="0.400000006" fill="rgb(161,167,179)" fill-rule="evenodd" />
			</g>
			<path id="路径-24" d="M1.45865 0.633964C2.58555 1.19398 3.49401 1.77684 4.18505 2.38122C4.3517 2.52698 4.64594 2.54482 4.84223 2.42107C5.03852 2.29732 5.06255 2.07883 4.89589 1.93308C4.1455 1.27679 3.1723 0.652386 1.9773 0.058527C1.7633 -0.0478191 1.47372 -0.00521469 1.3305 0.153688C1.18728 0.312592 1.24466 0.527616 1.45865 0.633964ZM5.34758 5.45577C5.5256 6.33934 5.42195 7.26934 5.03188 8.25163C4.95363 8.44869 5.06402 8.66673 5.27843 8.73865C5.49285 8.81056 5.7301 8.70912 5.80836 8.51206C6.24737 7.40648 6.36628 6.33966 6.16033 5.31746C6.11878 5.1112 5.90315 4.97495 5.67871 5.01314C5.45428 5.05133 5.30603 5.24951 5.34758 5.45577ZM2.82762 11.5047L2.15586 12.7713L1.77037 13.5112L1.47235 14.0962L1.28794 14.4661C1.18657 14.6714 1.30504 14.906 1.55255 14.9901C1.80007 15.0742 2.08289 14.9759 2.18426 14.7706L2.3665 14.405L2.66143 13.8262L3.15445 12.8822L3.71364 11.8292C3.8217 11.6263 3.71095 11.3891 3.46628 11.2995C3.22161 11.2098 2.93567 11.3017 2.82762 11.5047ZM0.484806 17.7969C0.121307 19.0099 -0.044302 20.0409 0.0101452 20.9224C0.0230446 21.1312 0.208305 21.2904 0.423939 21.2779C0.63957 21.2654 0.803919 21.086 0.791021 20.8772C0.742727 20.0953 0.89539 19.1449 1.23608 18.008C1.29629 17.8071 1.17691 17.597 0.969456 17.5386C0.761997 17.4803 0.545012 17.5959 0.484806 17.7969ZM1.39376 23.3615C2.21747 24.1816 3.26177 24.735 4.51986 25.0245C4.7406 25.0753 4.95506 24.9089 4.99886 24.6529C5.04265 24.3969 4.89921 24.1481 4.67846 24.0973C3.55202 23.8381 2.63633 23.3529 1.92459 22.6443C1.75382 22.4743 1.49656 22.497 1.34998 22.6951C1.2034 22.8931 1.223 23.1915 1.39376 23.3615ZM9.16501 25.0328C10.1006 24.9679 11.117 24.8153 12.2148 24.5752C12.4195 24.5304 12.5512 24.3184 12.5089 24.1017C12.4666 23.8849 12.2664 23.7455 12.0617 23.7903C10.9967 24.0232 10.0145 24.1707 9.11554 24.233C8.90695 24.2475 8.74893 24.4382 8.76259 24.6591C8.77625 24.8799 8.95642 25.0472 9.16501 25.0328ZM15.5231 25.0105C16.474 24.6096 17.4718 24.1417 18.5167 23.607C18.7199 23.5029 18.8252 23.185 18.7519 22.8968C18.6785 22.6086 18.4542 22.4593 18.2509 22.5634C17.2198 23.0911 16.2361 23.5523 15.3 23.947C15.0929 24.0343 14.9749 24.3432 15.0365 24.6369C15.0981 24.9305 15.316 25.0978 15.5231 25.0105ZM21.7901 21.2614C22.7772 20.986 23.7519 20.7805 24.7145 20.6446C24.9242 20.6151 25.0645 20.4538 25.0278 20.2845C24.9911 20.1153 24.7914 20.002 24.5817 20.0316C23.578 20.1732 22.5635 20.3872 21.5382 20.6732C21.337 20.7294 21.2303 20.9066 21.2998 21.069C21.3694 21.2314 21.5889 21.3176 21.7901 21.2614ZM27.9088 20.8844C28.8967 20.9013 29.8716 21.0294 30.8338 21.2686C31.0374 21.3192 31.2387 21.1727 31.2832 20.9414C31.3278 20.7101 31.1988 20.4815 30.9952 20.4309C29.9837 20.1794 28.9585 20.0447 27.9202 20.027C27.7117 20.0234 27.5402 20.2124 27.537 20.4492C27.5339 20.686 27.7003 20.8808 27.9088 20.8844ZM34.0463 22.1108C35.013 22.5456 35.9681 23.0796 36.9118 23.7132C37.1045 23.8426 37.361 23.784 37.4847 23.5825C37.6084 23.3809 37.5524 23.1126 37.3597 22.9832C36.3783 22.3243 35.383 21.7678 34.3739 21.314C34.1636 21.2193 33.9197 21.321 33.8292 21.5411C33.7388 21.7611 33.836 22.0162 34.0463 22.1108ZM40.2236 25.9153C41.1522 26.7348 42.0707 27.6407 42.9791 28.6333C43.1623 28.8334 43.4668 28.8413 43.6594 28.6508C43.8519 28.4604 43.8594 28.1437 43.6763 27.9435C42.7448 26.9257 41.8015 25.9954 40.8463 25.1525C40.6437 24.9737 40.3401 24.9995 40.1681 25.2102C39.9962 25.4208 40.021 25.7365 40.2236 25.9153ZM43.9417 30.8723C44.8495 31.8466 45.7849 32.778 46.7478 33.6666C46.9468 33.8502 47.2552 33.8358 47.4366 33.6344C47.618 33.4331 47.6038 33.121 47.4048 32.9373C46.4601 32.0656 45.5422 31.1515 44.6511 30.1953C44.4664 29.997 44.1578 29.9878 43.9619 30.1748C43.766 30.3618 43.757 30.6741 43.9417 30.8723ZM48.9861 35.7204C49.9272 36.3439 50.8943 36.9334 51.8871 37.4887C52.0909 37.6027 52.3645 37.5543 52.4982 37.3806C52.6319 37.2068 52.5751 36.9736 52.3713 36.8596C51.3982 36.3153 50.4503 35.7375 49.5277 35.1263C49.3353 34.9988 49.058 35.0284 48.9085 35.1924C48.7589 35.3565 48.7936 35.5929 48.9861 35.7204ZM55.2872 38.3961C56.2516 38.9759 57.2398 39.5153 58.2515 40.0142C58.458 40.116 58.7004 40.0146 58.793 39.7876C58.8856 39.5606 58.7934 39.2941 58.5869 39.1923C57.5947 38.703 56.6259 38.1742 55.6803 37.6057C55.4818 37.4864 55.2329 37.5666 55.1243 37.7848C55.0157 38.0031 55.0887 38.2768 55.2872 38.3961ZM61.5905 41.8532C62.5697 42.1082 63.5701 42.3394 64.5916 42.5466C64.7991 42.5887 65.0146 42.5012 65.0728 42.3511C65.131 42.2011 65.01 42.0453 64.8025 42.0032C63.7989 41.7996 62.8165 41.5727 61.855 41.3223C61.6523 41.2694 61.4286 41.3455 61.3556 41.4921C61.2825 41.6387 61.3877 41.8004 61.5905 41.8532ZM67.8934 43.2894C68.8807 43.4897 69.8868 43.6616 70.9116 43.805C71.1194 43.8341 71.3121 43.6937 71.3419 43.4915C71.3718 43.2892 71.2276 43.1017 71.0198 43.0726C70.0106 42.9314 69.0202 42.7622 68.0485 42.565C67.843 42.5233 67.6417 42.6517 67.5989 42.8517C67.556 43.0517 67.6879 43.2477 67.8934 43.2894Z" opacity="0.300000012" fill="rgb(161,167,179)" fill-rule="evenodd" transform="matrix(-0.996195,-0.0871557,-0.0871557,0.996195,103.474,36.0742)" />
			<path id="路径-14" d="M40.1232 57.6502C38.9226 59.4286 38.04 60.4972 37.4752 60.8563C35.871 61.8761 34.4242 62.1051 33.4434 62.1051C31.1952 62.1051 35.8286 61.5778 37.4752 59.7918C38.5729 58.6011 39.872 56.7996 41.3725 54.3872L40.1232 54.3872L38.743 56.072C38.3118 55.5411 37.754 55.2756 37.0699 55.2756C36.0436 55.2756 33.3929 55.7133 32.3777 58.533C31.7008 60.4128 30.3097 62.0676 28.2043 63.4973C31.2463 65.0064 34.2015 65.0064 37.0699 63.4973C39.9383 61.9882 40.9561 60.0391 40.1232 57.6502Z" opacity="0.400000006" fill="rgb(161,167,179)" fill-rule="evenodd" />
			<path id="路径-14备份" d="M6.62163 1.86459C5.95464 2.88078 5.46426 3.49145 5.15048 3.69662C4.25925 4.27939 3.45548 4.41024 2.91059 4.41024C1.66161 4.41024 4.23575 4.10894 5.15048 3.08833C5.76031 2.40793 6.48203 1.37849 7.31567 0L6.62163 0L5.85484 0.962761C5.61525 0.659355 5.30541 0.507652 4.92532 0.507652C4.35519 0.507652 2.88257 0.757778 2.31854 2.36904C1.94252 3.44321 1.16967 4.38879 0 5.20576C1.68998 6.06813 3.33176 6.06813 4.92532 5.20576C6.51889 4.3434 7.08432 3.22968 6.62163 1.86459Z" opacity="0.400000006" fill="rgb(161,167,179)" fill-rule="evenodd" transform="matrix(0.469472,-0.882948,0.882948,0.469472,49.0665,51.6426)" />
			<path id="路径-14备份-2" d="M7.94595 2.33074C7.14557 3.60097 6.55711 4.36431 6.18058 4.62078C5.11111 5.34923 4.14657 5.51281 3.4927 5.51281C1.99394 5.51281 5.0829 5.13617 6.18058 3.86041C6.91237 3.00991 7.77844 1.7231 8.7788 0L7.94595 0L7.02581 1.20345C6.7383 0.824192 6.36649 0.634563 5.91039 0.634563C5.22623 0.634563 3.45908 0.94722 2.78225 2.96129C2.33102 4.30401 1.40361 5.48598 0 6.5072C2.02798 7.58516 3.99811 7.58516 5.91039 6.5072C7.82266 5.42925 8.50118 4.03709 7.94595 2.33074Z" opacity="0.600000024" fill="rgb(161,167,179)" fill-rule="evenodd" transform="matrix(0.173648,0.984808,-0.984808,0.173648,26.8316,20.8291)" />
		</g>
	</g>
</svg>
