<svg width="24.000000" height="24.000000" viewBox="0 0 24 24" fill="none" xmlns="http://www.w3.org/2000/svg" xmlns:xlink="http://www.w3.org/1999/xlink">
	<desc>
			Created with Pixso.
	</desc>
	<defs>
		<clipPath id="clip148_2030">
			<rect width="24.000000" height="24.000000" fill="white" fill-opacity="0"/>
		</clipPath>
	</defs>
	<g clip-path="url(#clip148_2030)">
		<g opacity="0.000000">
			<rect width="24.000000" height="24.000000" fill="#000000" fill-opacity="0.898039"/>
		</g>
		<path d="M12.74 2.88L12.74 11.13L21 11.13Q21.16 11.13 21.29 11.19Q21.42 11.25 21.52 11.35Q21.61 11.44 21.67 11.55Q21.74 11.7 21.74 11.88Q21.74 12.04 21.68 12.18Q21.63 12.3 21.52 12.41Q21.42 12.5 21.31 12.55Q21.16 12.62 21 12.62L12.74 12.62L12.74 20.88Q12.74 21.05 12.68 21.19Q12.62 21.3 12.52 21.4Q12.42 21.5 12.29 21.56Q12.16 21.62 12 21.62Q11.83 21.62 11.7 21.56Q11.57 21.5 11.47 21.4Q11.37 21.3 11.31 21.19Q11.25 21.05 11.25 20.88L11.25 12.62L3 12.62Q2.83 12.62 2.68 12.55Q2.57 12.5 2.47 12.41Q2.36 12.3 2.31 12.18Q2.25 12.04 2.25 11.88Q2.25 11.7 2.32 11.55Q2.38 11.44 2.47 11.35Q2.57 11.25 2.7 11.19Q2.83 11.13 3 11.13L11.25 11.13L11.25 2.88Q11.25 2.7 11.32 2.55Q11.38 2.44 11.47 2.35Q11.57 2.25 11.7 2.19Q11.83 2.13 12 2.13Q12.16 2.13 12.29 2.19Q12.42 2.25 12.52 2.35Q12.61 2.44 12.67 2.55Q12.74 2.7 12.74 2.88Z" fill="#000000" fill-opacity="0.898039" fill-rule="evenodd"/>
	</g>
</svg>
