<svg width="24.000000" height="24.000000" viewBox="0 0 24 24" fill="none" xmlns="http://www.w3.org/2000/svg" xmlns:xlink="http://www.w3.org/1999/xlink">
	<desc>
			Created with Pixso.
	</desc>
	<defs>
		<clipPath id="clip42_822">
			<rect width="16.000000" height="16.000000" transform="translate(4.000000 20.000000) rotate(-90.000000)" fill="white" fill-opacity="0"/>
		</clipPath>
	</defs>
	<circle cx="12.000000" cy="12.000000" r="12.000000" fill="#FFFFFF" fill-opacity="1.000000"/>
	<circle cx="12.000000" cy="12.000000" r="11.500000" stroke="#000000" stroke-opacity="0.100000" stroke-width="1.000000" style=""/>
	<g clip-path="url(#clip42_822)">
		<g opacity="0.000000">
			<rect x="4.000000" y="20.000000" width="16.000000" height="16.000000" transform="rotate(-90 4.000000 20.000000)" fill="#D8D8D8" fill-opacity="1.000000"/>
			<rect x="4.000000" y="20.000000" width="16.000000" height="16.000000" transform="rotate(-90 4.000000 20.000000)" stroke="#000000" stroke-opacity="0" stroke-width="1.000000"/>
		</g>
		<path d="M13.5 6C13.5 5.72 13.72 5.5 14 5.5C14.25 5.5 14.46 5.68 14.49 5.93L14.5 6L14.49 16.79L15.64 15.64C15.82 15.46 16.1 15.45 16.29 15.59C16.47 15.77 16.54 16.1 16.4 16.29L14.35 18.35C14.05 18.65 13.55 18.46 13.5 18.06L13.5 18L13.5 6ZM7.59 7.7L9.64 5.64C9.94 5.34 10.44 5.53 10.49 5.93L10.5 6L10.5 18C10.5 18.27 10.27 18.5 10 18.5C9.74 18.5 9.53 18.31 9.5 18.06L9.5 18L9.49 7.2L8.35 8.35C8.17 8.53 7.89 8.54 7.7 8.4C7.52 8.22 7.45 7.89 7.59 7.7Z" fill="#191919" fill-opacity="1.000000" fill-rule="evenodd"/>
		<path d="M14 5.5C14.25 5.5 14.46 5.68 14.49 5.93L14.5 6L14.49 16.79L15.64 15.64C15.82 15.46 16.1 15.45 16.29 15.59C16.47 15.77 16.54 16.1 16.4 16.29L14.35 18.35C14.05 18.65 13.55 18.46 13.5 18.06L13.5 18L13.5 6C13.5 5.72 13.72 5.5 14 5.5ZM9.64 5.64C9.94 5.34 10.44 5.53 10.49 5.93L10.5 6L10.5 18C10.5 18.27 10.27 18.5 10 18.5C9.74 18.5 9.53 18.31 9.5 18.06L9.5 18L9.49 7.2L8.35 8.35C8.17 8.53 7.89 8.54 7.7 8.4C7.52 8.22 7.45 7.89 7.59 7.7L9.64 5.64Z" stroke="#000000" stroke-opacity="0" stroke-width="1.000000"/>
	</g>
</svg>
