<svg width="24.000000" height="28.000000" viewBox="0 0 24 28" fill="none" xmlns="http://www.w3.org/2000/svg" xmlns:xlink="http://www.w3.org/1999/xlink">
	<desc>
			Created with Pixso.
	</desc>
	<defs/>
	<path d="M0 5L12 0L24 5L24 14L24 23L12 28L0 23L0 14L0 5Z" fill="#A49D8C" fill-opacity="1.000000" fill-rule="evenodd"/>
	<path d="M10.25 7.33L8.98 7.33L8.98 14.6Q8.17 14.93 7.4 15.2L7.4 8.86L6.09 8.86L6.09 15.31Q6.09 15.54 6.03 15.7Q5.97 15.78 5.91 15.85Q5.84 15.91 5.76 15.97L6.31 17.18Q6.63 16.95 7.03 16.8Q8.01 16.4 8.98 15.97L8.98 19.7L10.25 19.7L10.25 18.93L10.9 19.96Q11.94 19.3 12.98 18.49Q13.75 17.95 14.4 17.18Q15.33 18.17 16.39 19Q17.01 19.48 17.68 19.9L18.51 18.76Q17.53 18.15 16.59 17.4Q15.87 16.85 15.21 16.2Q15.98 15.1 16.42 13.9Q16.96 12.3 17.19 10.67L18.28 10.67L18.28 9.35L13.46 9.35Q13.66 8.88 13.81 8.4Q13.96 7.93 14.07 7.45L12.76 7.17Q12.52 8.17 12.13 9.11Q11.99 9.46 11.83 9.8Q11.17 11.21 10.25 12.53L10.25 7.33ZM12.82 10.95L12.92 10.67L15.87 10.67Q15.72 11.98 15.33 13.3Q15.3 13.38 15.27 13.46Q14.96 14.35 14.4 15.16Q14.31 15.04 14.23 14.91Q13.74 14.19 13.42 13.35Q12.98 12.15 12.82 10.95ZM10.25 12.85L11.07 13.56Q11.51 13.02 11.88 12.47Q12.15 13.56 12.61 14.54Q13.02 15.41 13.58 16.2Q13.24 16.56 12.88 16.89Q12.59 17.16 12.28 17.4Q11.28 18.15 10.25 18.76L10.25 12.85Z" fill="#FFFFFF" fill-opacity="1.000000" fill-rule="evenodd"/>
</svg>
