<svg width="24.000000" height="28.000000" viewBox="0 0 24 28" fill="none" xmlns="http://www.w3.org/2000/svg" xmlns:xlink="http://www.w3.org/1999/xlink">
	<desc>
			Created with Pixso.
	</desc>
	<defs/>
	<path d="M0 5L12 0L24 5L24 14L24 23L12 28L0 23L0 14L0 5Z" fill="#0A59F7" fill-opacity="1.000000" fill-rule="evenodd"/>
	<path d="M6.2 8.43L6.2 10.95L7.46 10.95L7.46 9.46L16.48 9.46L16.48 10.95L17.79 10.95L17.79 8.43L12.98 8.43L12.22 6.95L10.96 7.33L11.56 8.43L6.2 8.43ZM14.29 18.55L13.58 18.55L13.8 19.58L14.67 19.58Q15 19.58 15.33 19.53Q15.5 19.51 15.66 19.47Q15.98 19.42 16.32 19.2Q16.48 19.04 16.53 18.76Q16.64 18.38 16.64 17.89L16.64 14.65L18.28 14.65L18.28 13.62L16.53 13.62L16.92 12.85Q14.67 12.2 12.43 11.55L16.21 11.55L16.21 10.5L12.65 10.5L12.65 9.8L11.34 9.8L11.34 10.5L7.78 10.5L7.78 11.55L10.96 11.55Q10.73 11.76 10.41 11.93Q9.96 12.15 9.53 12.3Q9.49 12.31 9.44 12.33Q8.17 12.64 6.86 12.81L7.12 13.62L5.65 13.62L5.65 14.65L15.38 14.65L15.38 17.67Q15.38 17.95 15.33 18.15Q15.27 18.32 15.17 18.43Q15.06 18.49 14.89 18.49Q14.63 18.55 14.29 18.55ZM15.98 13.62L8.06 13.62Q9.23 13.42 10.36 13.07Q10.44 13.04 10.53 13.02Q10.6 12.99 10.67 12.96Q11.29 12.7 11.83 12.25Q13.91 12.9 15.98 13.62ZM7.29 15.48L7.29 19.15L8.55 19.15L8.55 18.49L13.52 18.49L13.52 15.48L7.29 15.48ZM8.55 17.5L8.55 16.46L12.28 16.46L12.28 17.5L8.55 17.5Z" fill="#FFFFFF" fill-opacity="1.000000" fill-rule="evenodd"/>
</svg>
