<svg width="14.666687" height="13.333344" viewBox="0 0 14.6667 13.3333" fill="none" xmlns="http://www.w3.org/2000/svg" xmlns:xlink="http://www.w3.org/1999/xlink">
	<desc>
			Created with Pixso.
	</desc>
	<defs/>
	<path id="path" d="M14.09 10.09C14.05 9.9 13.99 9.72 13.9 9.55C13.82 9.37 13.72 9.21 13.59 9.06L11.18 6.17C11.07 6.04 10.95 5.92 10.82 5.81C10.68 5.71 10.54 5.62 10.38 5.55C10.23 5.48 10.07 5.42 9.9 5.38C9.73 5.35 9.56 5.33 9.39 5.33L5.27 5.33C5.09 5.33 4.92 5.35 4.76 5.38C4.59 5.42 4.43 5.48 4.28 5.55C4.12 5.62 3.98 5.71 3.84 5.81C3.7 5.92 3.58 6.04 3.47 6.17L1.06 9.06C0.94 9.21 0.84 9.37 0.75 9.55C0.67 9.72 0.61 9.9 0.57 10.09L0.24 11.73C0.23 11.78 0.22 11.83 0.22 11.88C0.22 11.93 0.21 11.98 0.22 12.03C0.22 12.08 0.22 12.12 0.23 12.17C0.23 12.22 0.24 12.27 0.25 12.32C0.27 12.37 0.28 12.41 0.3 12.46C0.32 12.5 0.33 12.55 0.36 12.59C0.38 12.64 0.4 12.68 0.43 12.72C0.46 12.76 0.49 12.8 0.52 12.84C0.55 12.88 0.58 12.91 0.62 12.95C0.65 12.98 0.69 13.02 0.73 13.05C0.77 13.08 0.81 13.1 0.85 13.13C0.89 13.16 0.93 13.18 0.98 13.2C1.02 13.22 1.07 13.24 1.11 13.26C1.16 13.27 1.21 13.29 1.26 13.3C1.3 13.31 1.35 13.31 1.4 13.32C1.45 13.33 1.5 13.33 1.55 13.33L13.11 13.33C13.16 13.33 13.21 13.33 13.26 13.32C13.3 13.31 13.35 13.31 13.4 13.3C13.45 13.29 13.5 13.27 13.54 13.26C13.59 13.24 13.63 13.22 13.68 13.2C13.72 13.18 13.77 13.16 13.81 13.13C13.85 13.1 13.89 13.08 13.93 13.05C13.97 13.02 14 12.98 14.04 12.95C14.08 12.91 14.11 12.88 14.14 12.84C14.17 12.8 14.2 12.76 14.23 12.72C14.25 12.68 14.28 12.64 14.3 12.59C14.32 12.55 14.34 12.5 14.36 12.46C14.38 12.41 14.39 12.37 14.4 12.32C14.41 12.27 14.42 12.22 14.43 12.17C14.44 12.12 14.44 12.08 14.44 12.03C14.44 11.98 14.44 11.93 14.44 11.88C14.43 11.83 14.43 11.78 14.42 11.73L14.09 10.09ZM7.33 10C5.86 10 4.66 9.25 4.66 8.33C4.66 7.41 5.86 6.66 7.33 6.66C8.8 6.66 10 7.41 10 8.33C10 9.25 8.8 10 7.33 10ZM14.66 3.66L14.66 4.5C14.66 4.55 14.66 4.6 14.65 4.66C14.63 4.71 14.62 4.76 14.6 4.81C14.58 4.86 14.55 4.91 14.52 4.96C14.49 5 14.46 5.05 14.42 5.08C14.38 5.12 14.34 5.16 14.29 5.19C14.25 5.22 14.2 5.24 14.15 5.26C14.1 5.29 14.04 5.3 13.99 5.31C13.94 5.32 13.88 5.33 13.83 5.33L10.83 5.33C10.77 5.33 10.72 5.32 10.67 5.31C10.61 5.3 10.56 5.29 10.51 5.26C10.46 5.24 10.41 5.22 10.37 5.19C10.32 5.16 10.28 5.12 10.24 5.08C10.2 5.05 10.17 5 10.14 4.96C10.11 4.91 10.08 4.86 10.06 4.81C10.04 4.76 10.02 4.71 10.01 4.66C10 4.6 10 4.55 10 4.5L10 3.66C10 3.45 9.73 3.21 9.31 3.02C8.79 2.79 8.08 2.66 7.33 2.66C6.57 2.66 5.87 2.79 5.34 3.02C4.92 3.21 4.66 3.45 4.66 3.66L4.66 4.5C4.66 4.55 4.66 4.6 4.65 4.66C4.63 4.71 4.62 4.76 4.6 4.81C4.58 4.86 4.55 4.91 4.52 4.96C4.49 5 4.46 5.05 4.42 5.08C4.38 5.12 4.34 5.16 4.29 5.19C4.25 5.22 4.2 5.24 4.15 5.26C4.1 5.29 4.04 5.3 3.99 5.31C3.94 5.32 3.88 5.33 3.83 5.33L0.83 5.33C0.77 5.33 0.72 5.32 0.67 5.31C0.61 5.3 0.56 5.29 0.51 5.26C0.46 5.24 0.41 5.22 0.37 5.19C0.32 5.16 0.28 5.12 0.24 5.08C0.2 5.05 0.17 5 0.14 4.96C0.11 4.91 0.08 4.86 0.06 4.81C0.04 4.76 0.02 4.71 0.01 4.66C0 4.6 6.1e-5 4.55 0 4.5L0 3.66C0 2.64 0.79 1.69 2.24 1C3.6 0.35 5.41 0 7.33 0C9.25 0 11.06 0.35 12.42 1C13.87 1.69 14.66 2.64 14.66 3.66Z" fill="#FFFFFF" fill-opacity="1.000000" fill-rule="nonzero"/>
</svg>
