<svg width="5.786682" height="11.127441" viewBox="0 0 5.78668 11.1274" fill="none" xmlns="http://www.w3.org/2000/svg" xmlns:xlink="http://www.w3.org/1999/xlink">
	<desc>
			Created with Pixso.
	</desc>
	<defs/>
	<path id="path" d="M4.78 5.58L0.14 0.87C0.04 0.77 0 0.64 0 0.51C0 0.37 0.04 0.25 0.14 0.14C0.23 0.04 0.35 0 0.49 0C0.63 0 0.74 0.04 0.84 0.14L5.5 4.86C5.69 5.06 5.78 5.3 5.78 5.58C5.78 5.85 5.69 6.09 5.5 6.29L0.85 10.97C0.77 11.07 0.66 11.12 0.52 11.12C0.37 11.12 0.25 11.07 0.16 10.97C0.06 10.88 0.01 10.76 0.01 10.62C0.01 10.48 0.06 10.36 0.16 10.26L4.78 5.58Z" fill="#000000" fill-opacity="0.600000" fill-rule="nonzero"/>
</svg>
