<?xml version="1.0" encoding="UTF-8"?>
<svg width="10px" height="10px" viewBox="0 0 10 10" version="1.1" xmlns="http://www.w3.org/2000/svg" xmlns:xlink="http://www.w3.org/1999/xlink">
    <title>编组</title>
    <g id="元服务" stroke="none" stroke-width="1" fill="none" fill-rule="evenodd">
        <g id="三期卡片-2" transform="translate(-96, -262)">
            <g id="编组-10" transform="translate(80, 45)">
                <g id="编组-3备份-2" transform="translate(16, 149)">
                    <g id="编组-2" transform="translate(0, 65)">
                        <g id="编组" transform="translate(0, 3)">
                            <rect id="矩形" opacity="0" x="0" y="0" width="10" height="10"></rect>
                            <g transform="translate(1, 0)" fill="#909193" fill-rule="nonzero" id="形状结合">
                                <path d="M4,0 C5.06673814,0 6.08844814,0.437597678 6.82926829,1.2134405 C8.3902439,2.84661755 8.3902439,5.43648136 6.82926829,7.06965841 L4,10 L1.17073171,7.06965841 C-0.390243902,5.43759768 -0.390243902,2.84661755 1.17073171,1.21455682 C1.91155186,0.437597678 2.93326186,0 4,0 Z M3.99571161,0.670908685 C3.09943715,0.670908685 2.24068614,1.0348292 1.61672474,1.67894619 C0.303403913,3.03527573 0.303403913,5.19200714 1.61672474,6.549453 L3.99463951,8.99977674 L6.40364514,6.65661978 C7.73090324,5.27238223 7.6869472,3.03639205 6.37469847,1.67894619 C5.74966497,1.0348292 4.89198606,0.670908685 3.99571161,0.670908685 Z"></path>
                                <path d="M4.0010721,2.33311007 C4.97346556,2.33311007 5.76145805,3.15360572 5.76145805,4.16610851 C5.76145805,5.1786113 4.97346556,5.99910694 4.0010721,5.99910694 C3.02867864,5.99910694 2.24068614,5.1786113 2.24068614,4.16610851 C2.24068614,3.15360572 3.02867864,2.33311007 4.0010721,2.33311007 Z M4.0010721,3.00066979 C3.38247119,3.00066979 2.88072903,3.52310784 2.88072903,4.16722483 C2.88072903,4.81134182 3.38247119,5.33377986 4.0010721,5.33377986 C4.61967301,5.33377986 5.12141517,4.81134182 5.12141517,4.16722483 C5.12141517,3.52310784 4.61967301,3.00066979 4.0010721,3.00066979 Z"></path>
                            </g>
                        </g>
                    </g>
                </g>
            </g>
        </g>
    </g>
</svg>