<?xml version="1.0" encoding="UTF-8"?>
<svg width="32px" height="32px" viewBox="0 0 32 32" version="1.1" xmlns="http://www.w3.org/2000/svg" xmlns:xlink="http://www.w3.org/1999/xlink">
    <title>议程</title>
    <defs>
        <rect id="path-1" x="0" y="0" width="32" height="32"></rect>
    </defs>
    <g id="元服务" stroke="none" stroke-width="1" fill="none" fill-rule="evenodd">
        <g id="三期卡片-2" transform="translate(-645, -111)">
            <g id="编组-10备份" transform="translate(400, 45)">
                <g id="编组-12" transform="translate(234, 62)">
                    <g id="议程" transform="translate(11, 4)">
                        <mask id="mask-2" fill="white">
                            <use xlink:href="#path-1"></use>
                        </mask>
                        <g id="蒙版"></g>
                        <g id="编组" mask="url(#mask-2)">
                            <g transform="translate(3, 3)">
                                <rect id="矩形" fill="#000000" fill-rule="nonzero" opacity="0" x="0" y="0" width="26" height="26"></rect>
                                <g id="编组" stroke-width="1" fill="none" fill-rule="evenodd" transform="translate(2, 1)">
                                    <path d="M0,19.6954023 C0,20.2902299 0.15018315,20.8409962 0.450549451,21.3477011 C0.750915751,21.8470626 1.15018315,22.2472861 1.64835165,22.5483716 C2.15384615,22.8494572 2.7032967,23 3.2967033,23 L18.7032967,23 C19.2967033,23 19.8461538,22.8494572 20.3516484,22.5483716 C20.8498168,22.2472861 21.2490842,21.8470626 21.5494505,21.3477011 C21.8498168,20.8409962 22,20.2902299 22,19.6954023 L22,8.91139847 L0,8.91139847 L0,19.6954023 Z M9.02197802,13.4497126 C8.72161172,13.4497126 8.46153846,13.3395594 8.24175824,13.1192529 C8.02197802,12.8989464 7.91208791,12.6419221 7.91208791,12.3481801 C7.91208791,12.0470945 8.02197802,11.7863985 8.24175824,11.566092 C8.46153846,11.3457854 8.72161172,11.2356322 9.02197802,11.2356322 C9.32234432,11.2356322 9.58241758,11.3457854 9.8021978,11.566092 C10.021978,11.7863985 10.1318681,12.0470945 10.1318681,12.3481801 C10.1318681,12.6419221 10.021978,12.8989464 9.8021978,13.1192529 C9.58241758,13.3395594 9.32234432,13.4497126 9.02197802,13.4497126 Z M4.93406593,13.4497126 C4.63369963,13.4497126 4.37362637,13.3395594 4.15384615,13.1192529 C3.93406593,12.8989464 3.82417582,12.6419221 3.82417582,12.3481801 C3.82417582,12.0470945 3.93406593,11.7863985 4.15384615,11.566092 C4.37362637,11.3457854 4.63369963,11.2356322 4.93406593,11.2356322 C5.23443223,11.2356322 5.49450549,11.3457854 5.71428571,11.566092 C5.93406593,11.7863985 6.04395604,12.0470945 6.04395604,12.3481801 C6.04395604,12.6419221 5.93406593,12.8989464 5.71428571,13.1192529 C5.49450549,13.3395594 5.23443223,13.4497126 4.93406593,13.4497126 Z M13.1318681,13.4497126 C12.8388278,13.4497126 12.5824176,13.3395594 12.3626374,13.1192529 C12.1428571,12.8989464 12.032967,12.6419221 12.032967,12.3481801 C12.032967,12.0470945 12.1428571,11.7863985 12.3626374,11.566092 C12.5824176,11.3457854 12.8388278,11.2356322 13.1318681,11.2356322 C13.4322344,11.2356322 13.6923077,11.3457854 13.9120879,11.566092 C14.1318681,11.7863985 14.2417582,12.0470945 14.2417582,12.3481801 C14.2417582,12.6419221 14.1318681,12.8989464 13.9120879,13.1192529 C13.6923077,13.3395594 13.4322344,13.4497126 13.1318681,13.4497126 Z M17.2197802,13.4497126 C16.9267399,13.4497126 16.6703297,13.3395594 16.4505495,13.1192529 C16.2307692,12.8989464 16.1208791,12.6419221 16.1208791,12.3481801 C16.1208791,12.0470945 16.2307692,11.7863985 16.4505495,11.566092 C16.6703297,11.3457854 16.9267399,11.2356322 17.2197802,11.2356322 C17.5201465,11.2356322 17.7802198,11.3457854 18,11.566092 C18.2197802,11.7863985 18.3296703,12.0470945 18.3296703,12.3481801 C18.3296703,12.6419221 18.2197802,12.8989464 18,13.1192529 C17.7802198,13.3395594 17.5201465,13.4497126 17.2197802,13.4497126 Z M4.93406593,17.8668582 C4.63369963,17.8668582 4.37362637,17.756705 4.15384615,17.5363985 C3.93406593,17.316092 3.82417582,17.0553959 3.82417582,16.7543103 C3.82417582,16.4605683 3.93406593,16.2035441 4.15384615,15.9832375 C4.37362637,15.762931 4.63369963,15.6527778 4.93406593,15.6527778 C5.23443223,15.6527778 5.49450549,15.762931 5.71428571,15.9832375 C5.93406593,16.2035441 6.04395604,16.4605683 6.04395604,16.7543103 C6.04395604,17.0553959 5.93406593,17.316092 5.71428571,17.5363985 C5.49450549,17.756705 5.23443223,17.8668582 4.93406593,17.8668582 Z M9.02197802,17.8668582 C8.72161172,17.8668582 8.46153846,17.756705 8.24175824,17.5363985 C8.02197802,17.316092 7.91208791,17.0553959 7.91208791,16.7543103 C7.91208791,16.4605683 8.02197802,16.2035441 8.24175824,15.9832375 C8.46153846,15.762931 8.72161172,15.6527778 9.02197802,15.6527778 C9.32234432,15.6527778 9.58241758,15.762931 9.8021978,15.9832375 C10.021978,16.2035441 10.1318681,16.4605683 10.1318681,16.7543103 C10.1318681,17.0553959 10.021978,17.316092 9.8021978,17.5363985 C9.58241758,17.756705 9.32234432,17.8668582 9.02197802,17.8668582 Z" id="形状" fill="#ABE66C" fill-rule="nonzero"></path>
                                    <path d="M17.8021978,1.53113027 L17.8021978,3.40373563 C17.8021978,3.84434866 17.6923077,4.24824393 17.4725275,4.61542146 C17.2527473,4.97525543 16.96337,5.26532567 16.6043956,5.48563218 C16.2454212,5.7059387 15.8461538,5.81609195 15.4065934,5.81609195 C14.967033,5.81609195 14.5604396,5.7059387 14.1868132,5.48563218 C13.8205128,5.26532567 13.5274725,4.97525543 13.3076923,4.61542146 C13.0879121,4.24824393 12.978022,3.84434866 12.978022,3.40373563 L12.978022,1.53113027 L9.04395604,1.53113027 L9.04395604,3.40373563 C9.04395604,3.84434866 8.93406593,4.24824393 8.71428571,4.61542146 C8.49450549,4.97525543 8.20512821,5.26532567 7.84615385,5.48563218 C7.48717949,5.7059387 7.08791209,5.81609195 6.64835165,5.81609195 C6.20879121,5.81609195 5.80586081,5.7059387 5.43956044,5.48563218 C5.06593407,5.26532567 4.76923077,4.97525543 4.54945055,4.61542146 C4.32967033,4.24824393 4.21978022,3.84434866 4.21978022,3.40373563 L4.21978022,1.53113027 L3.32967033,1.53113027 C2.72893773,1.53113027 2.17216117,1.68167305 1.65934066,1.98275862 C1.15384615,2.28384419 0.750915751,2.68406769 0.450549451,3.18342912 C0.15018315,3.68279055 0,4.23355683 0,4.83572797 L0,7.23706897 L22,7.23706897 L22,4.83572797 C22,4.23355683 21.8498168,3.67911877 21.5494505,3.17241379 C21.2490842,2.65836526 20.8498168,2.25814176 20.3516484,1.9717433 C19.8461538,1.67800128 19.2967033,1.53113027 18.7032967,1.53113027 L17.8021978,1.53113027 Z M6.62637363,4.49425287 C6.91941392,4.49425287 7.17582418,4.38777139 7.3956044,4.17480843 C7.61538462,3.96184547 7.72527473,3.69747765 7.72527473,3.38170498 L7.72527473,1.11254789 C7.72527473,0.789431673 7.61538462,0.525063857 7.3956044,0.319444444 C7.17582418,0.106481481 6.91941392,0 6.62637363,0 C6.32600733,0 6.06593407,0.106481481 5.84615385,0.319444444 C5.62637363,0.525063857 5.51648352,0.789431673 5.51648352,1.11254789 L5.51648352,3.38170498 C5.51648352,3.69747765 5.62637363,3.96184547 5.84615385,4.17480843 C6.06593407,4.38777139 6.32600733,4.49425287 6.62637363,4.49425287 Z M15.4065934,4.49425287 C15.7069597,4.49425287 15.959707,4.38777139 16.1648352,4.17480843 C16.3772894,3.96184547 16.4835165,3.69747765 16.4835165,3.38170498 L16.4835165,1.11254789 C16.4835165,0.789431673 16.3772894,0.525063857 16.1648352,0.319444444 C15.959707,0.106481481 15.7069597,0 15.4065934,0 C15.1062271,0 14.8461538,0.106481481 14.6263736,0.319444444 C14.4065934,0.525063857 14.2967033,0.789431673 14.2967033,1.11254789 L14.2967033,3.38170498 C14.2967033,3.69747765 14.4065934,3.96184547 14.6263736,4.17480843 C14.8461538,4.38777139 15.1062271,4.49425287 15.4065934,4.49425287 Z" id="形状" fill="#47C95C" fill-rule="nonzero"></path>
                                </g>
                            </g>
                        </g>
                    </g>
                </g>
            </g>
        </g>
    </g>
</svg>