<?xml version="1.0" encoding="UTF-8"?>
<svg width="32px" height="32px" viewBox="0 0 32 32" version="1.1" xmlns="http://www.w3.org/2000/svg" xmlns:xlink="http://www.w3.org/1999/xlink">
    <title>门票</title>
    <g id="元服务" stroke="none" stroke-width="1" fill="none" fill-rule="evenodd">
        <g id="三期卡片-2" transform="translate(-109, -295)" fill="#F2403D" fill-rule="nonzero">
            <g id="编组-10" transform="translate(80, 45)">
                <g id="编组-5" transform="translate(12, 246)">
                    <g id="门票" transform="translate(17, 4)">
                        <path d="M24.7,5 C26.5225,5 28,6.47749999 28,8.29999999 L28,12.5 C28,12.9970563 27.5970563,13.4 27.1,13.4 C25.940202,13.4 25,14.340202 25,15.5 C25,16.659798 25.940202,17.6 27.1,17.6 C27.5970563,17.6 28,18.0029437 28,18.5 L28,22.7 C28,24.5225 26.5225,26 24.7,26 L7.30000002,26 C5.47750002,26 4,24.5225 4,22.7 L4,18.5 C4,18.0029437 4.40294372,17.6 4.9,17.6 C6.05979798,17.6 7,16.659798 7,15.5 C7,14.340202 6.05979798,13.4 4.9,13.4 C4.40294372,13.4 4,12.9970563 4,12.5 L4,8.29999999 C4,6.47749999 5.47749999,5 7.30000002,5 L24.7,5 L24.7,5 Z M19.6,17 L12.4,17 C11.9029437,17 11.5,17.4029437 11.5,17.9 C11.5,18.3970563 11.9029437,18.8 12.4,18.8 L19.6,18.8 C20.0970563,18.8 20.5,18.3970563 20.5,17.9 C20.5,17.4029437 20.0970563,17 19.6,17 Z M19.6,12.2 L12.4,12.2 C11.9029437,12.2 11.5,12.6029437 11.5,13.1 C11.5,13.5970563 11.9029437,14 12.4,14 L19.6,14 C20.0970563,14 20.5,13.5970563 20.5,13.1 C20.5,12.6029437 20.0970563,12.2 19.6,12.2 Z" id="形状"></path>
                    </g>
                </g>
            </g>
        </g>
    </g>
</svg>