<?xml version="1.0" encoding="UTF-8"?>
<svg width="32px" height="32px" viewBox="0 0 32 32" version="1.1" xmlns="http://www.w3.org/2000/svg" xmlns:xlink="http://www.w3.org/1999/xlink">
    <title>相机</title>
    <g id="元服务" stroke="none" stroke-width="1" fill="none" fill-rule="evenodd">
        <g id="三期卡片-2" transform="translate(-249, -295)" fill-rule="nonzero">
            <g id="编组-10" transform="translate(80, 45)">
                <g id="编组-5" transform="translate(12, 246)">
                    <g id="相机" transform="translate(157, 4)">
                        <rect id="矩形" fill="#000000" opacity="0" x="0" y="0" width="32" height="32"></rect>
                        <path d="M22.0055814,8.9792 C21.9460465,8.9792 21.8902326,8.968 21.8381395,8.9456 C21.7860465,8.91573333 21.7525581,8.87466667 21.7376744,8.8224 L21.1460465,7.344 C20.9823256,6.93333333 20.7181395,6.6048 20.3534884,6.3584 C19.9888372,6.11946667 19.5832558,6 19.1367442,6 L12.9413953,6 C12.4948837,6 12.0893023,6.11946667 11.7246512,6.3584 C11.36,6.6048 11.0883721,6.93333333 10.9097674,7.344 L10.3516279,8.8224 C10.3293023,8.87466667 10.292093,8.91573333 10.24,8.9456 C10.187907,8.968 10.135814,8.9792 10.0837209,8.9792 L7.08093023,8.9792 C6.5227907,8.9792 6.00930233,9.12106667 5.54046512,9.4048 C5.06418605,9.68106667 4.68837209,10.0506667 4.41302326,10.5136 C4.13767442,10.984 4,11.4954667 4,12.048 L4,23.1248 C4,23.6773333 4.13767442,24.1813333 4.41302326,24.6368 C4.68837209,25.0997333 5.06418605,25.4693333 5.54046512,25.7456 C6.00930233,26.0218667 6.5227907,26.16 7.08093023,26.16 L24.9190698,26.16 C25.4772093,26.16 25.9906977,26.0256 26.4595349,25.7568 C26.935814,25.488 27.3116279,25.1221333 27.5869767,24.6592 C27.8623256,24.1888 28,23.6773333 28,23.1248 L28,12.048 C28,11.4954667 27.8623256,10.984 27.5869767,10.5136 C27.3116279,10.0506667 26.935814,9.68106667 26.4595349,9.4048 C25.9906977,9.12106667 25.4772093,8.9792 24.9190698,8.9792 L22.0055814,8.9792 Z M16.48,21.36 C15.6151351,21.36 14.8151351,21.1442697 14.08,20.712809 C13.3448649,20.2813483 12.7610811,19.6988764 12.3286486,18.9653933 C11.8962162,18.2319101 11.68,17.4265169 11.68,16.5492135 C11.68,15.6862921 11.8962162,14.8880899 12.3286486,14.1546067 C12.7610811,13.4211236 13.3448649,12.8386517 14.08,12.407191 C14.8151351,11.9757303 15.6151351,11.76 16.48,11.76 C17.3448649,11.76 18.1448649,11.9757303 18.88,12.407191 C19.6151351,12.8386517 20.1989189,13.4211236 20.6313514,14.1546067 C21.0637838,14.8880899 21.28,15.6862921 21.28,16.5492135 C21.28,17.4265169 21.0637838,18.2319101 20.6313514,18.9653933 C20.1989189,19.6988764 19.6151351,20.2813483 18.88,20.712809 C18.1448649,21.1442697 17.3448649,21.36 16.48,21.36 Z" id="形状" fill="#153AD1"></path>
                        <path d="M16.409484,13.2408125 C15.8096196,13.2408125 15.2477213,13.3931935 14.7237891,13.6979554 C14.2074501,13.9950982 13.7974162,14.4027173 13.4936874,14.9208125 C13.1975518,15.4312887 13.049484,15.9874792 13.049484,16.589384 C13.049484,17.1912887 13.1975518,17.7550982 13.4936874,18.2808125 C13.7974162,18.7989078 14.2074501,19.2103363 14.7237891,19.5150982 C15.2477213,19.8122411 15.8096196,19.9608125 16.409484,19.9608125 C17.0093484,19.9608125 17.5712467,19.8122411 18.095179,19.5150982 C18.6115179,19.2103363 19.0215518,18.7989078 19.3252806,18.2808125 C19.6214162,17.7550982 19.769484,17.1912887 19.769484,16.589384 C19.769484,15.9874792 19.6214162,15.4312887 19.3252806,14.9208125 C19.0215518,14.4027173 18.6115179,13.9950982 18.095179,13.6979554 C17.5712467,13.3931935 17.0093484,13.2408125 16.409484,13.2408125 Z" id="路径" fill="#1FB5F0"></path>
                    </g>
                </g>
            </g>
        </g>
    </g>
</svg>