<?xml version="1.0" encoding="UTF-8"?>
<svg width="10px" height="10px" viewBox="0 0 10 10" version="1.1" xmlns="http://www.w3.org/2000/svg" xmlns:xlink="http://www.w3.org/1999/xlink">
    <title>编组</title>
    <g id="元服务" stroke="none" stroke-width="1" fill="none" fill-rule="evenodd">
        <g id="三期卡片-2" transform="translate(-512, -233)" fill="#000000" fill-rule="nonzero">
            <g id="编组-10备份-2" transform="translate(400, 217)">
                <g id="编组-57" transform="translate(72, 12)">
                    <g id="编组" transform="translate(40, 4)">
                        <rect id="矩形" opacity="0" x="0" y="0" width="10" height="10"></rect>
                        <path d="M6.91681901,3.00241838 L8.13848263,3.00241838 C8.17961609,3.00241838 8.21389397,2.98690044 8.24131627,2.95586457 C8.2714808,2.92765014 8.28656307,2.8923821 8.28656307,2.85006046 C8.28656307,2.81056026 8.27010969,2.7738815 8.23720293,2.74002418 L7.05255941,1.55078597 C7.02787934,1.51692866 6.99497258,1.5 6.95383912,1.5 C6.9154479,1.5 6.88117002,1.51551794 6.85100548,1.54655381 C6.82084095,1.57758968 6.80575868,1.61285772 6.80575868,1.65235792 L6.80575868,2.36336155 L3.0749543,2.36336155 C2.60877514,2.36336155 2.17824497,2.48186215 1.7833638,2.71886336 C1.38848263,2.95586457 1.07586837,3.27750907 0.845521024,3.68379686 C0.615173675,4.09008464 0.5,4.53022975 0.5,5.00423216 C0.5,5.46412737 0.608318099,5.89439742 0.824954296,6.29504232 C0.871572212,6.38250705 0.93738574,6.43470375 1.02239488,6.45163241 C1.10740402,6.46856106 1.18281536,6.45727529 1.24862888,6.41777509 C1.31992687,6.36981056 1.3679159,6.30350665 1.39259598,6.21886336 C1.41453382,6.13422007 1.40630713,6.05380895 1.3679159,5.97762999 C1.20338208,5.68702136 1.12111517,5.36255542 1.12111517,5.00423216 C1.12111517,4.63744458 1.20749543,4.30169287 1.38025594,3.99697703 C1.55575868,3.69226119 1.79296161,3.45102781 2.09186472,3.2732769 C2.39076782,3.09270455 2.71846435,3.00241838 3.0749543,3.00241838 L6.91681901,3.00241838 Z M9.1750457,3.71342201 C9.13665448,3.64006449 9.0749543,3.59068924 8.98994516,3.56529625 C8.90219378,3.54272471 8.8226691,3.55118904 8.75137112,3.59068924 C8.68007313,3.63301088 8.6320841,3.69649335 8.60740402,3.78113664 C8.58546618,3.86577993 8.59369287,3.94478033 8.6320841,4.01813785 C8.79661792,4.3172108 8.87888483,4.64308746 8.87888483,4.99576784 C8.87888483,5.35973398 8.79250457,5.69548569 8.61974406,6.00302297 C8.44424132,6.3133817 8.20703839,6.55743652 7.90813528,6.73518742 C7.60923218,6.91575977 7.28153565,7.00604595 6.9250457,7.00604595 L3.08318099,7.00604595 L1.86151737,7.00604595 C1.82038391,7.00604595 1.78747715,7.02156389 1.76279707,7.05259976 C1.73537477,7.08081419 1.72166362,7.11608222 1.72166362,7.15840387 C1.72166362,7.19790407 1.73537477,7.23176139 1.76279707,7.25997582 L2.94744059,8.45767836 C2.97212066,8.48589279 3.00502742,8.5 3.04616088,8.5 C3.0845521,8.5 3.11882998,8.48448206 3.14899452,8.45344619 C3.17915905,8.42241032 3.19424132,8.38714228 3.19424132,8.34764208 L3.19424132,7.63663845 L6.9250457,7.63663845 C7.39122486,7.63663845 7.82175503,7.51813785 8.2166362,7.28113664 C8.61151737,7.04413543 8.92413163,6.72249093 9.15447898,6.31620314 C9.38482633,5.90991536 9.5,5.46977025 9.5,4.99576784 C9.5,4.5274083 9.3916819,4.09995969 9.1750457,3.71342201 Z" id="形状" fill-opacity="0.90196079"></path>
                    </g>
                </g>
            </g>
        </g>
    </g>
</svg>