<svg width="24.000000" height="24.000000" viewBox="0 0 24 24" fill="none" xmlns="http://www.w3.org/2000/svg" xmlns:xlink="http://www.w3.org/1999/xlink">
	<desc>
			Created with Pixso.
	</desc>
	<defs>
		<clipPath id="clip33_3109">
			<rect width="24.000000" height="24.000000" fill="white" fill-opacity="0"/>
		</clipPath>
	</defs>
	<g clip-path="url(#clip33_3109)">
		<g opacity="0.000000">
			<rect width="24.000000" height="24.000000" fill="#000000" fill-opacity="1.000000"/>
		</g>
		<path d="M11.9901 1Q10.2992 1 8.75322 1.47314Q7.57454 1.83398 6.48006 2.46997Q5.21506 3.20996 4.21255 4.2124Q3.21005 5.21509 2.47006 6.47998Q1.83414 7.57446 1.47331 8.75317Q1.00006 10.2991 1.00006 11.99Q1.00006 13.6809 1.47331 15.2268L1.47333 15.2268Q1.83415 16.4055 2.47006 17.5Q3.21007 18.7649 4.21259 19.7676Q5.21507 20.77 6.48006 21.51Q7.57452 22.146 8.75322 22.5068Q10.2992 22.98 11.9901 22.98Q13.6809 22.98 15.2269 22.5068Q16.4056 22.146 17.5001 21.51C19.1867 20.5234 20.5234 19.1868 21.5101 17.5Q22.146 16.4055 22.5068 15.2268L22.5068 15.2268Q22.9801 13.6809 22.9801 11.99Q22.9801 10.2991 22.5068 8.75317Q22.146 7.57446 21.5101 6.47998Q20.7701 5.21509 19.7676 4.2124L19.7676 4.2124Q18.7651 3.20996 17.5001 2.46997Q16.4056 1.83398 15.2269 1.47314Q13.6809 1 11.9901 1ZM11.9901 2.48999Q13.4287 2.48999 14.7451 2.89111Q15.7804 3.20654 16.7401 3.77002Q17.8351 4.40991 18.7026 5.27759Q19.5701 6.14502 20.2101 7.23999Q20.7735 8.19971 21.089 9.23486Q21.4901 10.5513 21.4901 11.99Q21.4901 13.4287 21.089 14.7451L21.0889 14.7451Q20.7735 15.7803 20.2101 16.74Q19.5701 17.835 18.7026 18.7024L18.7025 18.7026Q17.8351 19.5701 16.7401 20.21Q15.7804 20.7734 14.7451 21.0889Q13.4287 21.49 11.9901 21.49Q10.498 21.49 9.13876 21.0652Q8.13846 20.7527 7.21007 20.21Q6.13203 19.5771 5.27654 18.7214L5.2765 18.7214Q4.40202 17.8469 3.76006 16.74Q3.21126 15.7979 2.89961 14.7832Q2.49007 13.4495 2.49007 11.99Q2.49007 10.5305 2.89961 9.19702L2.89961 9.19678Q3.21126 8.18213 3.76006 7.23999Q4.40204 6.13306 5.27654 5.25854Q6.13203 4.40308 7.21007 3.77002Q8.13846 3.22729 9.13876 2.91479Q10.498 2.48999 11.9901 2.48999ZM11.5811 8.03516L7.03127 8.03516L7.03127 10.5195L8.209 10.5195L8.209 9.06934L15.8408 9.06934L15.8408 10.5195L16.9688 10.5195L16.9688 8.03516L12.7559 8.03516L12.2754 6.7168L11.209 7.00391Q11.3877 7.51953 11.5811 8.03516ZM8.48439 10.0039L8.48439 16.2793L6.61232 16.2793L6.61232 17.2637L17.3877 17.2637L17.3877 16.2793L15.5654 16.2793L15.5654 10.0039L8.48439 10.0039ZM9.56544 10.9883L14.4844 10.9883L14.4844 12.1162L9.56544 12.1162L9.56544 10.9883ZM9.56544 13.0508L14.4844 13.0508L14.4844 14.1787L9.56544 14.1787L9.56544 13.0508ZM9.56544 15.1631L14.4844 15.1631L14.4844 16.2793L9.56544 16.2793L9.56544 15.1631Z" clip-rule="evenodd" fill="#C4272B" fill-opacity="1.000000" fill-rule="evenodd"/>
	</g>
</svg>
