<svg viewBox="0 0 24 24" xmlns="http://www.w3.org/2000/svg" xmlns:xlink="http://www.w3.org/1999/xlink" width="24.000000" height="24.000000" fill="none">
	<rect id="service_fill" width="24.000000" height="24.000000" x="0.000000" y="0.000000" />
	<rect id="矩形 3498" width="24.000000" height="24.000000" x="0.000000" y="0.000000" opacity="0" fill="rgb(0,0,0)" />
	<g id="组合 1606">
		<path id="矢量 85" d="M20.23 8.85996C20.07 7.47996 19.6067 6.22663 18.84 5.09996C18.0733 3.97329 17.09 3.08663 15.89 2.43996C14.69 1.78663 13.3933 1.45996 12 1.45996C10.6067 1.45996 9.32001 1.77329 8.14001 2.39996C6.95334 3.02663 5.98001 3.88329 5.22001 4.96996C4.46001 6.05663 3.98334 7.27329 3.79001 8.61996C3.75667 8.80663 3.74001 8.97996 3.74001 9.13996L3.74001 11.33L2.98001 11.33C2.70667 11.33 2.47334 11.42 2.28001 11.6C2.08667 11.7866 1.99001 12.0233 1.99001 12.31L1.99001 14.9C1.99001 15.1733 2.08667 15.4033 2.28001 15.59C2.47334 15.77 2.70667 15.86 2.98001 15.86L5.04001 15.86C5.32667 15.86 5.56334 15.77 5.75001 15.59C5.93001 15.4033 6.02001 15.1733 6.02001 14.9L6.02001 9.23996C6.02001 9.07996 6.05334 8.79329 6.12001 8.37996C6.31334 7.54663 6.67001 6.79329 7.19001 6.11996C7.71001 5.44663 8.34667 4.90329 9.10001 4.48996C9.50001 5.57663 10.1 6.54663 10.9 7.39996C11.7 8.25996 12.64 8.92996 13.72 9.40996C14.8 9.88996 15.9467 10.13 17.16 10.13C17.32 10.13 17.5933 10.1133 17.98 10.08L17.98 12.17L17.93 15.22C17.93 15.44 17.9767 15.6 18.07 15.7C18.17 15.7933 18.3133 15.84 18.5 15.84L21.02 15.84C21.2933 15.84 21.5267 15.7466 21.72 15.56C21.9133 15.38 22.01 15.1533 22.01 14.88L22.01 12.29C22.01 12.0166 21.9133 11.7833 21.72 11.59C21.5267 11.3966 21.2933 11.3 21.02 11.3L20.23 11.33L20.23 8.85996ZM13.82 15.19C13.58 15.43 13.3067 15.61 13 15.73C12.6867 15.85 12.3533 15.91 12 15.91C11.6667 15.91 11.3433 15.85 11.03 15.73C10.7167 15.61 10.4333 15.43 10.18 15.19C10.08 15.0633 9.95001 15.0033 9.79001 15.01C9.63001 15.0166 9.50334 15.0866 9.41001 15.22C9.29667 15.3266 9.24001 15.4566 9.24001 15.61C9.24001 15.7633 9.29667 15.8966 9.41001 16.01C9.76334 16.3433 10.1633 16.6033 10.61 16.79C11.0567 16.97 11.52 17.06 12 17.06C12.4933 17.06 12.96 16.97 13.4 16.79C13.84 16.6033 14.2367 16.3433 14.59 16.01C14.7167 15.8966 14.7867 15.7633 14.8 15.61C14.8067 15.4566 14.7533 15.3266 14.64 15.22C14.5267 15.0866 14.39 15.0166 14.23 15.01C14.07 15.0033 13.9333 15.0633 13.82 15.19Z" fill="rgb(0,0,0)" fill-opacity="0.898039222" fill-rule="nonzero" />
	</g>
	<g id="组合 1607">
		<path id="矢量 86" d="M18.5 15.84C18.3133 15.84 18.17 15.7933 18.07 15.7C17.9767 15.6 17.93 15.44 17.93 15.22C17.7367 16.3066 17.3367 17.27 16.73 18.11C16.1233 18.95 15.37 19.6066 14.47 20.08C13.5767 20.5466 12.6167 20.78 11.59 20.78C11.3167 20.8133 11.1 20.91 10.94 21.07C10.78 21.23 10.7 21.4233 10.7 21.65C10.7 21.89 10.7867 22.0933 10.96 22.26C11.1267 22.4266 11.33 22.51 11.57 22.51C12.9433 22.4766 14.2 22.1666 15.34 21.58C16.4733 20.9866 17.4133 20.19 18.16 19.19C18.9 18.19 19.3733 17.0733 19.58 15.84L18.5 15.84Z" fill="rgb(0,0,0)" fill-opacity="0.898039222" fill-rule="nonzero" />
	</g>
</svg>
