<svg viewBox="0 0 48 48" xmlns="http://www.w3.org/2000/svg" xmlns:xlink="http://www.w3.org/1999/xlink" width="48.000000" height="48.000000" fill="none" clip-path="url(#clipPath_0)" customFrame="url(#clipPath_0)">
	<defs>
		<clipPath id="clipPath_0">
			<rect width="48.000000" height="48.000000" x="0.000000" y="0.000000" rx="8.000000" fill="rgb(255,255,255)" />
		</clipPath>
		<linearGradient id="paint_linear_0" x1="24" x2="24" y1="0" y2="48" gradientUnits="userSpaceOnUse">
			<stop stop-color="rgb(86,74,247)" offset="0" stop-opacity="1" />
			<stop stop-color="rgb(153,101,248)" offset="1" stop-opacity="1" />
		</linearGradient>
		<clipPath id="clipPath_1">
			<rect width="32.000000" height="32.000000" x="8.000000" y="8.000000" fill="rgb(255,255,255)" />
		</clipPath>
		<clipPath id="clipPath_2">
			<rect width="32.000000" height="32.000000" x="8.000000" y="8.000000" fill="rgb(255,255,255)" />
		</clipPath>
	</defs>
	<rect id="icon_Projection" width="48.000000" height="48.000000" x="0.000000" y="0.000000" rx="8.000000" />
	<rect id="矩形 3470" width="48.000000" height="48.000000" x="0.000000" y="0.000000" rx="8.000000" fill="url(#paint_linear_0)" />
	<g id="svg 7" customFrame="url(#clipPath_1)">
		<rect id="svg 7" width="32.000000" height="32.000000" x="8.000000" y="8.000000" />
		<g id="wireless_projection" clip-path="url(#clipPath_2)" customFrame="url(#clipPath_2)">
			<rect id="wireless_projection" width="32.000000" height="32.000000" x="8.000000" y="8.000000" />
			<rect id="矩形 3667" width="32.000000" height="32.000000" x="8.000000" y="8.000000" opacity="0" fill="rgb(0,0,0)" />
			<g id="组合 4215">
				<path id="矢量 353" d="M18.1733 27.7467C18.0044 27.96 17.92 28.2 17.92 28.4667C17.92 28.7334 18.0266 28.96 18.24 29.1467C18.4089 29.3245 18.6222 29.4178 18.88 29.4267C19.1378 29.4356 19.3733 29.3556 19.5866 29.1867C19.6044 29.16 19.6133 29.1467 19.6133 29.1467C19.6133 29.1467 19.6266 29.1378 19.6533 29.12C20.2044 28.5245 20.8533 28.0667 21.6 27.7467C22.3466 27.4267 23.1466 27.2667 24 27.2667C24.8355 27.2667 25.6266 27.4267 26.3733 27.7467C27.12 28.0667 27.7778 28.5245 28.3466 29.12C28.56 29.3334 28.7911 29.44 29.04 29.44C29.2889 29.44 29.5289 29.3422 29.76 29.1467C29.9555 28.9778 30.0578 28.7556 30.0666 28.48C30.0755 28.2045 29.9822 27.96 29.7866 27.7467C29.0222 26.9378 28.1422 26.32 27.1466 25.8934C26.16 25.4667 25.1111 25.2534 24 25.2534C22.8889 25.2534 21.8311 25.4667 20.8266 25.8934C19.8311 26.32 18.9466 26.9378 18.1733 27.7467ZM18.3067 34.72C18.3067 33.7422 18.56 32.8445 19.0667 32.0267C19.5822 31.2178 20.2755 30.5734 21.1466 30.0934C22.0266 29.6134 22.9778 29.3734 24 29.3734C25.0222 29.3734 25.9733 29.6134 26.8533 30.0934C27.7244 30.5734 28.4178 31.2178 28.9333 32.0267C29.44 32.8445 29.6933 33.7422 29.6933 34.72C29.6933 34.9778 29.6711 35.1822 29.6266 35.3334C29.5911 35.4756 29.4844 35.6356 29.3066 35.8134C29.1822 35.9556 28.9822 36.0267 28.7066 36.0267L19.3333 36.0267C19.0933 36.0267 18.8978 35.9645 18.7467 35.84C18.4533 35.6267 18.3067 35.2845 18.3067 34.8134L18.3067 34.72Z" fill="rgb(255,255,255)" fill-opacity="0.90196079" fill-rule="nonzero" />
				<path id="矢量 354" d="M34.9733 35.1067C35.64 35.1067 36.2533 34.9422 36.8133 34.6133C37.3822 34.2756 37.8311 33.8267 38.16 33.2667C38.4889 32.6978 38.6533 32.0844 38.6533 31.4267L38.6533 15.6133C38.6533 14.9555 38.4889 14.3467 38.16 13.7867C37.8311 13.2355 37.3822 12.7955 36.8133 12.4667C36.2533 12.1378 35.64 11.9733 34.9733 11.9733L12.9867 11.9733C12.3289 11.9733 11.7245 12.1378 11.1733 12.4667C10.6133 12.7955 10.1689 13.2355 9.84001 13.7867C9.51112 14.3467 9.34668 14.9555 9.34668 15.6133L9.34668 31.4267C9.34668 32.0844 9.51112 32.6978 9.84001 33.2667C10.1689 33.8267 10.6133 34.2756 11.1733 34.6133C11.7245 34.9422 12.3289 35.1067 12.9867 35.1067L16.0267 35.1067C16.3111 35.1067 16.5467 35.0044 16.7333 34.8C16.9289 34.5956 17.0267 34.3555 17.0267 34.08C17.0267 33.8044 16.9289 33.5689 16.7333 33.3733C16.5467 33.1867 16.3111 33.0933 16.0267 33.0933L12.9867 33.0933C12.5245 33.0933 12.1333 32.9333 11.8133 32.6133C11.4933 32.2933 11.3333 31.8978 11.3333 31.4267L11.3333 15.6133C11.3333 15.1689 11.4933 14.7822 11.8133 14.4533C12.1333 14.1156 12.5245 13.9467 12.9867 13.9467L34.9733 13.9467C35.4445 13.9467 35.84 14.1156 36.16 14.4533C36.48 14.7822 36.64 15.1689 36.64 15.6133L36.64 31.4267C36.64 31.8978 36.48 32.2933 36.16 32.6133C35.84 32.9333 35.4445 33.0933 34.9733 33.0933L32.0267 33.0933C31.7511 33.0933 31.52 33.1867 31.3333 33.3733C31.1378 33.5689 31.04 33.8044 31.04 34.08C31.04 34.3555 31.1378 34.5956 31.3333 34.8C31.52 35.0044 31.7511 35.1067 32.0267 35.1067L34.9733 35.1067Z" fill="rgb(255,255,255)" fill-opacity="0.90196079" fill-rule="nonzero" />
			</g>
		</g>
	</g>
</svg>
