<svg width="24.000000" height="24.000000" viewBox="0 0 24 24" fill="none" xmlns="http://www.w3.org/2000/svg" xmlns:xlink="http://www.w3.org/1999/xlink">
	<desc>
			Created with Pixso.
	</desc>
	<defs>
		<filter id="filter_73_3397_dd" x="2.963348" y="6.236694" width="17.964638" height="14.765137" filterUnits="userSpaceOnUse" color-interpolation-filters="sRGB">
			<feFlood flood-opacity="0" result="BackgroundImageFix"/>
			<feColorMatrix in="SourceAlpha" type="matrix" values="0 0 0 0 0 0 0 0 0 0 0 0 0 0 0 0 0 0 127 0" result="hardAlpha"/>
			<feOffset dx="0.0493555" dy="1.41335"/>
			<feGaussianBlur stdDeviation="0.666667"/>
			<feComposite in2="hardAlpha" operator="out" k2="-1" k3="1"/>
			<feColorMatrix type="matrix" values="0 0 0 0 0 0 0 0 0 0 0 0 0 0 0 0 0 0 0.1 0"/>
			<feBlend mode="normal" in2="BackgroundImageFix" result="effect_dropShadow_1"/>
			<feBlend mode="normal" in="SourceGraphic" in2="effect_dropShadow_1" result="shape"/>
		</filter>
	</defs>
	<rect id="Rectangle 2375 Copy" x="2.000000" y="2.000000" rx="10.000000" width="20.000000" height="20.000000" fill="#0A59F7" fill-opacity="1.000000"/>
	<g filter="url(#filter_73_3397_dd)">
		<mask id="mask_73_3397" fill="white">
			<path id="Rectangle 62" d="M17.5606 8.09204C17.1567 7.71533 16.5239 7.73743 16.1472 8.14136L10.5211 14.1747L7.59603 11.447C7.19212 11.0703 6.55934 11.0924 6.18268 11.4963C5.80602 11.9003 5.82812 12.5331 6.23204 12.9097L9.86501 16.2975C9.87257 16.3051 9.88026 16.3125 9.88811 16.3197C10.0941 16.5118 10.3596 16.6002 10.6203 16.5872C10.8711 16.5747 11.1174 16.4685 11.3022 16.2704C11.3093 16.2627 11.3164 16.2549 11.3233 16.2469L17.6099 9.50537C17.9866 9.10144 17.9645 8.46863 17.5606 8.09204Z" clip-rule="evenodd" fill="" fill-opacity="1.000000" fill-rule="evenodd"/>
		</mask>
		<path id="Rectangle 62" d="M17.5606 8.09204C17.1567 7.71533 16.5239 7.73743 16.1472 8.14136L10.5211 14.1747L7.59603 11.447C7.19212 11.0703 6.55934 11.0924 6.18268 11.4963C5.80602 11.9003 5.82812 12.5331 6.23204 12.9097L9.86501 16.2975C9.87257 16.3051 9.88026 16.3125 9.88811 16.3197C10.0941 16.5118 10.3596 16.6002 10.6203 16.5872C10.8711 16.5747 11.1174 16.4685 11.3022 16.2704C11.3093 16.2627 11.3164 16.2549 11.3233 16.2469L17.6099 9.50537C17.9866 9.10144 17.9645 8.46863 17.5606 8.09204Z" clip-rule="evenodd" fill="#FFFFFF" fill-opacity="1.000000" fill-rule="evenodd" mask="url(#mask_73_3397)"/>
		<path id="Rectangle 62" d="M18.7047 8.00708C18.5947 7.76086 18.4407 7.54541 18.2426 7.36072C18.0445 7.17603 17.8188 7.03735 17.5655 6.94482C17.3214 6.85559 17.0692 6.81555 16.8088 6.82458C16.5484 6.83374 16.2996 6.89124 16.0623 6.99731C15.816 7.1073 15.6006 7.26135 15.4159 7.45935L10.4717 12.7613L8.27803 10.7157C8.07996 10.531 7.85428 10.3923 7.60098 10.2998C7.35684 10.2106 7.1046 10.1705 6.84424 10.1796C6.58388 10.1887 6.33504 10.2462 6.09771 10.3523C5.85149 10.4623 5.63603 10.6163 5.45132 10.8143C5.26662 11.0125 5.128 11.2382 5.03544 11.4915C4.94622 11.7356 4.90616 11.9878 4.91525 12.2482C4.92435 12.5085 4.9819 12.7573 5.08793 12.9948C5.19794 13.241 5.35197 13.4564 5.55004 13.6411L9.17488 17.0213C9.18518 17.0314 9.19559 17.0413 9.20611 17.0511C9.40814 17.2395 9.63873 17.3799 9.89784 17.4723C10.1476 17.5614 10.4051 17.5992 10.6705 17.5859C10.9253 17.5732 11.1687 17.514 11.4007 17.4083C11.6414 17.2986 11.8523 17.1466 12.0335 16.9524C12.0437 16.9414 12.0538 16.9304 12.0637 16.9192L18.3413 10.1874C18.526 9.98926 18.6646 9.76367 18.7572 9.51038C18.8464 9.26624 18.8865 9.01392 18.8774 8.75354C18.8683 8.49316 18.8107 8.24438 18.7047 8.00708ZM11.3233 16.2469L17.6099 9.50537C17.9866 9.10144 17.9645 8.46863 17.5606 8.09204C17.1567 7.71533 16.5239 7.73743 16.1472 8.14136L11.2031 13.4433L10.5211 14.1747L9.78973 13.4927L7.59603 11.447C7.19212 11.0703 6.55934 11.0924 6.18268 11.4963C5.80602 11.9003 5.82812 12.5331 6.23204 12.9097L9.86501 16.2975C9.87257 16.3051 9.88026 16.3125 9.88811 16.3197C10.0941 16.5118 10.3596 16.6002 10.6203 16.5872C10.8711 16.5747 11.1174 16.4685 11.3022 16.2704C11.3093 16.2627 11.3164 16.2549 11.3233 16.2469Z" clip-rule="evenodd" fill="#000000" fill-opacity="0.047059" fill-rule="evenodd"/>
	</g>
</svg>
