<svg viewBox="0 0 48 48" xmlns="http://www.w3.org/2000/svg" xmlns:xlink="http://www.w3.org/1999/xlink" width="48.000000" height="48.000000" fill="none" clip-path="url(#clipPath_0)" customFrame="url(#clipPath_0)">
	<defs>
		<clipPath id="clipPath_0">
			<rect width="48.000000" height="48.000000" x="0.000000" y="0.000000" rx="8.000000" fill="rgb(255,255,255)" />
		</clipPath>
		<clipPath id="clipPath_1">
			<rect width="32.000000" height="32.000000" x="8.000000" y="8.000000" fill="rgb(255,255,255)" />
		</clipPath>
		<clipPath id="clipPath_2">
			<rect width="32.000000" height="32.000000" x="8.000000" y="8.000000" fill="rgb(255,255,255)" />
		</clipPath>
	</defs>
	<rect id="icon_handheld barrage" width="48.000000" height="48.000000" x="0.000000" y="0.000000" rx="8.000000" />
	<rect id="矩形 3470" width="48.000000" height="48.000000" x="0.000000" y="0.000000" rx="8.000000" fill="rgb(10,89,247)" />
	<g id="svg 7" customFrame="url(#clipPath_1)">
		<rect id="svg 7" width="32.000000" height="32.000000" x="8.000000" y="8.000000" />
		<g id="svg 10" clip-path="url(#clipPath_2)" customFrame="url(#clipPath_2)">
			<rect id="svg 10" width="32.000000" height="32.000000" x="8.000000" y="8.000000" />
			<path id="矢量 351" d="M40.0018 33.2118C40.0018 33.8098 39.508 34.2782 38.9094 34.3043L9.0398 34.3043C8.97127 34.3051 8.90334 34.2992 8.83599 34.2864C8.76865 34.2737 8.70324 34.2544 8.63976 34.2286C8.57628 34.2027 8.516 34.1708 8.4589 34.1329C8.4018 34.095 8.34903 34.0518 8.30058 34.0033C8.25213 33.9549 8.20897 33.9021 8.17109 33.8449C8.13321 33.7878 8.10137 33.7275 8.07557 33.664C8.04976 33.6005 8.03051 33.5351 8.0178 33.4678C8.0051 33.4004 7.99919 33.3325 8.00009 33.2639L8.00009 14.7365C8.00212 14.5955 8.03008 14.4599 8.08399 14.3295C8.1379 14.1992 8.21395 14.0834 8.31213 13.9822C8.52058 13.8258 8.757 13.6956 9.04044 13.6956L38.9354 13.6956C39.0765 13.6976 39.2122 13.7256 39.3425 13.7797C39.4729 13.8337 39.5886 13.9099 39.6898 14.0082C39.7878 14.1043 39.8638 14.2154 39.9179 14.3415C39.9719 14.4677 39.9999 14.5993 40.0018 14.7365L40.0018 33.2118Z" fill="rgb(255,255,255)" fill-rule="nonzero" />
			<path id="矢量 352" d="M10.7837 17.8608L13.0716 17.8608L13.0716 16.7423L10.7837 16.7423L10.7837 17.8608ZM10.7837 20.7207L13.0716 20.7207L13.0716 19.552L10.7837 19.552L10.7837 20.7207ZM10.7837 23.5805L13.0716 23.5805L13.0716 22.4143L10.7837 22.4143L10.7837 23.5805ZM14.0623 17.939L20.9832 17.939L20.9832 16.7423L14.0623 16.7423L14.0623 17.939ZM10.7837 31.7051L17.158 31.7051L17.158 30.4277L10.7837 30.4277L10.7837 31.7051ZM14.0623 20.8815L20.9832 20.8815L20.9832 19.6822L14.0623 19.6822L14.0623 20.8815ZM14.0623 23.9002L20.9832 23.9002L20.9832 22.7003L14.0623 22.7003L14.0623 23.9002ZM17.7566 31.7051L28.1639 31.7051L28.1639 30.5058L17.7566 30.5058L17.7566 31.7051ZM35.8131 20.7741L35.9402 20.8516L36.0184 20.9037L36.0184 21.034C36.0134 21.3601 35.97 21.6811 35.8881 21.9968C35.8112 22.2102 35.6811 22.3837 35.4979 22.5173C35.3777 22.9303 35.2216 23.3292 35.0295 23.714C34.9226 23.9151 34.7844 24.0918 34.615 24.2441C34.4456 24.3964 34.2552 24.515 34.0438 24.5999C33.6536 24.6781 33.2373 24.727 32.8471 24.6781C32.4668 24.6791 32.094 24.627 31.7286 24.5217C31.3384 24.3139 31.0003 24.0012 30.844 23.6371C30.6361 23.3251 30.5313 22.9088 30.3991 22.5186C30.1906 22.3883 30.0349 22.232 29.9542 21.9981C29.829 21.6854 29.8049 21.346 29.8049 21.0353L29.8049 20.905L29.932 20.8274L30.0101 20.7753C29.8799 19.266 29.932 18.6419 30.4785 18.0172C31.6492 17.1065 34.1728 17.1325 35.2399 17.9651C35.9942 18.694 36.0463 19.5005 35.8118 20.7753L35.8131 20.7741ZM33.4979 25.2227L33.4979 25.5869L33.2894 25.8996L33.5761 27.8284L34.7467 25.2786L36.516 25.2005C37.4267 26.0851 38.0247 28.1671 37.8684 29.522L27.9816 29.522C28.0337 28.3247 28.2161 26.2694 29.3867 25.2284L31.0003 25.2284L32.509 27.7527L32.795 25.8792L32.5872 25.5151L32.5872 25.1503C32.8732 25.1763 33.2113 25.1763 33.4979 25.2284L33.4979 25.2227Z" fill="rgb(220,220,220)" fill-rule="nonzero" />
			<path id="矢量 353" d="M23.831 23.8246L22.9412 23.8246C22.9127 23.8246 22.8852 23.83 22.8588 23.841C22.8324 23.8519 22.8091 23.8675 22.7889 23.8877C22.7687 23.9079 22.7531 23.9312 22.7422 23.9576C22.7313 23.984 22.7258 24.0114 22.7258 24.04C22.7258 24.0686 22.7313 24.0961 22.7422 24.1225C22.7531 24.1488 22.7687 24.1721 22.7889 24.1924C22.8091 24.2126 22.8324 24.2281 22.8588 24.2391C22.8852 24.25 22.9127 24.2555 22.9412 24.2555L23.831 24.2555L23.831 25.1452C23.831 25.1738 23.8364 25.2012 23.8474 25.2276C23.8583 25.254 23.8739 25.2773 23.8941 25.2975C23.9143 25.3177 23.9376 25.3333 23.964 25.3442C23.9904 25.3552 24.0178 25.3606 24.0464 25.3606C24.075 25.3606 24.1025 25.3552 24.1289 25.3442C24.1553 25.3333 24.1786 25.3177 24.1988 25.2975C24.219 25.2773 24.2345 25.254 24.2455 25.2276C24.2564 25.2012 24.2619 25.1738 24.2619 25.1452L24.2619 24.2555L25.1516 24.2555C25.1802 24.2555 25.2076 24.25 25.234 24.2391C25.2604 24.2281 25.2837 24.2126 25.3039 24.1924C25.3241 24.1721 25.3397 24.1488 25.3506 24.1225C25.3616 24.0961 25.367 24.0686 25.367 24.04C25.367 24.0114 25.3616 23.984 25.3506 23.9576C25.3397 23.9312 25.3241 23.9079 25.3039 23.8877C25.2837 23.8675 25.2604 23.8519 25.234 23.841C25.2076 23.83 25.1802 23.8246 25.1516 23.8246L24.2619 23.8246L24.2619 22.9348C24.2619 22.9063 24.2564 22.8788 24.2455 22.8524C24.2345 22.826 24.219 22.8027 24.1988 22.7825C24.1786 22.7623 24.1553 22.7467 24.1289 22.7358C24.1025 22.7249 24.075 22.7194 24.0464 22.7194C24.0178 22.7194 23.9904 22.7249 23.964 22.7358C23.9376 22.7467 23.9143 22.7623 23.8941 22.7825C23.8739 22.8027 23.8583 22.826 23.8474 22.8524C23.8364 22.8788 23.831 22.9063 23.831 22.9348L23.831 23.8246ZM24.0464 28.019C23.916 28.0191 23.786 28.0128 23.6562 28C23.5264 27.9873 23.3976 27.9683 23.2697 27.9429C23.1418 27.9175 23.0155 27.8859 22.8907 27.8481C22.7659 27.8104 22.6433 27.7665 22.5228 27.7167C22.4023 27.6669 22.2846 27.6112 22.1695 27.5498C22.0545 27.4884 21.9428 27.4215 21.8344 27.3491C21.7259 27.2767 21.6213 27.1992 21.5205 27.1165C21.4196 27.0339 21.3231 26.9465 21.2309 26.8543C21.1386 26.7622 21.0511 26.6657 20.9684 26.5649C20.8856 26.4642 20.808 26.3596 20.7355 26.2513C20.663 26.1429 20.596 26.0312 20.5345 25.9162C20.473 25.8013 20.4172 25.6836 20.3673 25.5631C20.3173 25.4427 20.2734 25.3201 20.2355 25.1954C20.1976 25.0706 20.1659 24.9443 20.1404 24.8164C20.1149 24.6886 20.0958 24.5598 20.0829 24.43C20.0701 24.3002 20.0637 24.1702 20.0636 24.0398C20.0635 23.9094 20.0699 23.7793 20.0826 23.6496C20.0953 23.5198 20.1144 23.391 20.1398 23.2631C20.1651 23.1352 20.1967 23.0089 20.2345 22.8841C20.2723 22.7593 20.3162 22.6367 20.366 22.5162C20.4158 22.3957 20.4715 22.278 20.5329 22.1629C20.5943 22.0479 20.6612 21.9362 20.7336 21.8278C20.806 21.7193 20.8835 21.6147 20.9662 21.5139C21.0489 21.4131 21.1363 21.3165 21.2285 21.2243C21.3206 21.1321 21.4171 21.0446 21.5178 20.9618C21.6186 20.8791 21.7232 20.8014 21.8315 20.729C21.9399 20.6565 22.0516 20.5895 22.1666 20.528C22.2815 20.4665 22.3992 20.4107 22.5197 20.3608C22.6401 20.3109 22.7627 20.2669 22.8875 20.229C23.0122 20.1912 23.1385 20.1595 23.2664 20.134C23.3943 20.1085 23.5231 20.0893 23.6528 20.0765C23.7826 20.0637 23.9126 20.0572 24.043 20.0572C24.1734 20.0571 24.3035 20.0635 24.4332 20.0762C24.563 20.0889 24.6918 20.108 24.8197 20.1334C24.9476 20.1588 25.0739 20.1904 25.1987 20.2282C25.3235 20.266 25.4461 20.3098 25.5666 20.3597C25.6871 20.4095 25.8048 20.4652 25.9199 20.5266C26.0349 20.588 26.1466 20.6549 26.255 20.7273C26.3635 20.7997 26.4681 20.8773 26.5689 20.9599C26.6697 21.0426 26.7662 21.13 26.8585 21.2222C26.9507 21.3144 27.0382 21.4108 27.1209 21.5116C27.2037 21.6123 27.2813 21.7169 27.3538 21.8253C27.4262 21.9337 27.4932 22.0454 27.5547 22.1603C27.6162 22.2753 27.672 22.393 27.7219 22.5135C27.7718 22.6339 27.8157 22.7565 27.8536 22.8813C27.8915 23.006 27.9232 23.1323 27.9487 23.2602C27.9742 23.3881 27.9933 23.5169 28.0061 23.6466C28.019 23.7764 28.0254 23.9064 28.0254 24.0368C28.0249 24.1671 28.018 24.297 28.0048 24.4266C27.9915 24.5561 27.972 24.6848 27.9462 24.8124C27.9204 24.9401 27.8885 25.0662 27.8503 25.1907C27.8122 25.3153 27.7681 25.4377 27.718 25.5579C27.668 25.6781 27.6121 25.7956 27.5506 25.9104C27.489 26.0252 27.422 26.1367 27.3495 26.2449C27.2771 26.3532 27.1995 26.4576 27.1168 26.5583C27.0342 26.6589 26.9468 26.7553 26.8547 26.8474C26.7626 26.9395 26.6663 27.0269 26.5657 27.1096C26.465 27.1923 26.3606 27.2699 26.2524 27.3424C26.1442 27.4149 26.0327 27.482 25.918 27.5436C25.8032 27.6052 25.6857 27.661 25.5655 27.7111C25.4453 27.7613 25.3229 27.8054 25.1984 27.8436C25.0738 27.8817 24.9477 27.9137 24.8201 27.9396C24.6924 27.9654 24.5638 27.985 24.4342 27.9982C24.3047 28.0115 24.1748 28.0184 24.0445 28.019L24.0464 28.019Z" fill="rgb(10,89,247)" fill-rule="nonzero" />
		</g>
	</g>
</svg>
