<svg viewBox="0 0 48 48" xmlns="http://www.w3.org/2000/svg" xmlns:xlink="http://www.w3.org/1999/xlink" width="48.000000" height="48.000000" fill="none" clip-path="url(#clipPath_0)" customFrame="url(#clipPath_0)">
	<defs>
		<clipPath id="clipPath_0">
			<rect width="48.000000" height="48.000000" x="0.000000" y="0.000000" rx="8.000000" fill="rgb(255,255,255)" />
		</clipPath>
		<clipPath id="clipPath_1">
			<rect width="32.000000" height="32.000000" x="8.000000" y="8.000000" fill="rgb(255,255,255)" />
		</clipPath>
	</defs>
	<rect id="icon_drawing board" width="48.000000" height="48.000000" x="0.000000" y="0.000000" rx="8.000000" />
	<rect id="矩形 3470" width="48.000000" height="48.000000" x="0.000000" y="0.000000" rx="8.000000" fill="rgb(10,89,247)" />
	<g id="svg 3" clip-path="url(#clipPath_1)" customFrame="url(#clipPath_1)">
		<rect id="svg 3" width="32.000000" height="32.000000" x="8.000000" y="8.000000" />
		<path id="减去顶层" d="M29.0409 21.9614C28.695 22.1261 28.3984 22.2085 28.1513 22.2085L27.6077 22.2085C27.3277 22.2085 27.0682 22.0685 26.8293 21.7884C26.5905 21.5084 26.471 21.2201 26.471 20.9236L26.471 15.3637C26.4381 14.9519 26.504 14.6636 26.6687 14.4988C26.8334 14.3341 27.0229 14.1858 27.2371 14.0541C27.4512 13.9223 27.6448 13.7534 27.8177 13.5475C27.9907 13.3416 28.0772 12.9915 28.0772 12.4973L28.0772 10.7676C28.0772 10.2898 28.0648 9.87799 28.0401 9.53205C28.0154 9.1861 27.9166 8.89781 27.7436 8.66718C27.5706 8.43655 27.2865 8.2677 26.8911 8.16062C26.4957 8.05354 25.9192 8 25.1614 8C24.173 8 23.444 8.09472 22.9745 8.28417C22.6682 8.40778 22.4267 8.58223 22.2501 8.80753L22.2501 8.80755C22.156 8.92755 22.0804 9.06197 22.0231 9.21081L21.5784 9.21081C21.4392 9.21081 21.3139 9.23865 21.2025 9.29432L21.2025 9.29433L21.2025 9.29433C21.1425 9.32432 21.0866 9.36237 21.0347 9.40849C20.9408 9.49196 20.8767 9.58534 20.8422 9.68863L20.8422 9.68869C20.8223 9.74847 20.8123 9.81157 20.8123 9.87799C20.8123 9.9444 20.8223 10.0075 20.8422 10.0673L20.8422 10.0673L20.8422 10.0674C20.8767 10.1706 20.9408 10.264 21.0347 10.3475C21.0866 10.3936 21.1425 10.4317 21.2025 10.4617L21.2025 10.4617C21.3139 10.5173 21.4392 10.5452 21.5784 10.5452L21.8255 10.5452C21.8255 10.5781 21.8213 10.6152 21.8131 10.6564C21.8049 10.6976 21.8008 10.7346 21.8008 10.7676L21.8008 10.9653L21.5784 10.9653C21.4392 10.9653 21.3139 10.9931 21.2025 11.0488L21.2025 11.0488C21.1425 11.0788 21.0866 11.1168 21.0347 11.1629C20.9408 11.2464 20.8767 11.3398 20.8422 11.4431L20.8422 11.4431C20.8223 11.5029 20.8123 11.566 20.8123 11.6324C20.8123 11.6989 20.8223 11.762 20.8422 11.8218L20.8422 11.8218C20.8767 11.9251 20.9408 12.0185 21.0347 12.1019C21.0866 12.148 21.1425 12.1861 21.2025 12.2161L21.2025 12.2161C21.3139 12.2718 21.4392 12.2996 21.5784 12.2996L21.8008 12.2996L21.8008 12.7197L21.5784 12.7197C21.4392 12.7197 21.3139 12.7475 21.2025 12.8032L21.2025 12.8032C21.1425 12.8332 21.0866 12.8713 21.0347 12.9174C20.9408 13.0008 20.8767 13.0942 20.8422 13.1975L20.8422 13.1976C20.8223 13.2574 20.8123 13.3205 20.8123 13.3869C20.8123 13.4532 20.8223 13.5163 20.8422 13.5761L20.8422 13.5761L20.8422 13.5762C20.8767 13.6795 20.9408 13.7729 21.0347 13.8564C21.0866 13.9025 21.1425 13.9405 21.2025 13.9705L21.2025 13.9705C21.3139 14.0262 21.4392 14.0541 21.5784 14.0541L21.8008 14.0541L21.8008 20.9236C21.8008 21.0553 21.776 21.1954 21.7266 21.3436C21.6772 21.4919 21.6031 21.6319 21.5042 21.7637C21.4054 21.8955 21.286 22.0026 21.1459 22.0849C21.083 22.122 21.0175 22.1507 20.9496 22.1711C20.8664 22.196 20.7795 22.2085 20.6888 22.2085L20.0216 22.2085C19.8404 22.2085 19.5974 22.1261 19.2926 21.9614C18.9879 21.7967 18.6543 21.6402 18.2919 21.4919C17.9295 21.3436 17.5629 21.2489 17.1923 21.2077C16.8216 21.1665 16.4798 21.2613 16.1668 21.4919C15.8538 21.7225 15.5984 22.1385 15.4008 22.7398C15.2031 23.3411 15.0878 24.2183 15.0548 25.3714L15.0548 36.5405C15.0548 36.8283 15.0922 37.1056 15.1669 37.3725L15.1669 37.3726L15.1669 37.3727L15.167 37.3727L15.167 37.3728C15.2163 37.5488 15.2819 37.7203 15.3637 37.8873C15.5696 38.3073 15.8414 38.6739 16.1791 38.9869C16.5168 39.2999 16.904 39.547 17.3405 39.7282C17.6282 39.8476 17.9213 39.9277 18.2198 39.9684L18.22 39.9684L18.2217 39.9687C18.3755 39.9896 18.5307 40 18.6872 40L28.9174 40C29.5434 40 30.1199 39.9094 30.6471 39.7282C31.1742 39.547 31.6273 39.2999 32.0062 38.9869C32.3851 38.6739 32.6816 38.3073 32.8957 37.8873C32.99 37.7024 33.0635 37.512 33.1162 37.316L33.1163 37.3159C33.1834 37.0665 33.217 36.808 33.217 36.5405L33.217 25.3714C33.217 24.2018 33.1264 23.3122 32.9452 22.7027C32.764 22.0932 32.5251 21.669 32.2286 21.4301C31.932 21.1912 31.6026 21.1006 31.2401 21.1583C30.8777 21.216 30.5071 21.323 30.1282 21.4795C29.7493 21.636 29.3869 21.7967 29.0409 21.9614ZM23 9.5C23 9.77614 23.2239 10 23.5 10L25.5 10C25.7761 10 26 9.77614 26 9.5C26 9.22386 25.7761 9 25.5 9L23.5 9C23.2239 9 23 9.22386 23 9.5ZM23.5 12C23.2239 12 23 11.7761 23 11.5C23 11.2239 23.2239 11 23.5 11L25.5 11C25.7761 11 26 11.2239 26 11.5C26 11.7761 25.7761 12 25.5 12L23.5 12ZM23 13.5C23 13.7761 23.2239 14 23.5 14L25.5 14C25.7761 14 26 13.7761 26 13.5C26 13.2239 25.7761 13 25.5 13L23.5 13C23.2239 13 23 13.2239 23 13.5ZM25 20.5C25 20.7761 24.7761 21 24.5 21C24.2239 21 24 20.7761 24 20.5L24 15.5C24 15.2239 24.2239 15 24.5 15C24.7761 15 25 15.2239 25 15.5L25 20.5ZM25.3947 33.2112L25.3946 33.2113C25.0203 33.3222 24.6295 33.3776 24.2224 33.3776C23.774 33.3776 23.3481 33.3104 22.9445 33.1759L22.9443 33.1758L22.9429 33.1753L22.9428 33.1753C22.828 33.137 22.715 33.0932 22.6038 33.044C22.1014 32.8216 21.6607 32.521 21.2818 32.1421C21.2282 32.0885 21.1761 32.0334 21.1256 31.977L21.1256 31.9769C20.8194 31.6347 20.5708 31.2408 20.3799 30.7954C20.1575 30.2764 20.0463 29.7287 20.0463 29.1521C20.0463 28.5756 20.1575 28.0319 20.3799 27.5212C20.6023 27.0106 20.9029 26.5658 21.2818 26.1869C21.6607 25.808 22.1014 25.5073 22.6038 25.2849C23.1063 25.0625 23.6458 24.9514 24.2224 24.9514C24.799 24.9514 25.3426 25.0626 25.8533 25.2849C26.364 25.5073 26.8087 25.808 27.1876 26.1869C27.2722 26.2714 27.3529 26.3593 27.4297 26.4504L27.4298 26.4506L27.4301 26.451L27.4305 26.4514L27.4306 26.4516C27.6974 26.7685 27.917 27.125 28.0896 27.5212C28.312 28.0319 28.4232 28.5756 28.4232 29.1521C28.4231 29.7287 28.312 30.2765 28.0896 30.7954C27.8986 31.2408 27.6501 31.6347 27.3438 31.977C27.3409 31.9803 27.338 31.9835 27.335 31.9868C27.2873 32.0398 27.2381 32.0916 27.1876 32.1421C26.8087 32.521 26.3639 32.8216 25.8533 33.044C25.7033 33.1093 25.5504 33.1651 25.3947 33.2112ZM25.3467 26.471C25.2127 26.4119 25.0758 26.3639 24.936 26.327L24.9356 26.327C24.7058 26.2665 24.4681 26.2363 24.2224 26.2363C23.9765 26.2363 23.7387 26.2666 23.5088 26.3271C23.3689 26.3639 23.232 26.4119 23.0981 26.471C22.7439 26.6275 22.4391 26.8376 22.1838 27.1012C21.9284 27.3647 21.7225 27.6736 21.566 28.0278C21.4095 28.382 21.3313 28.7568 21.3313 29.1521C21.3313 29.3979 21.3615 29.6358 21.422 29.8657L21.422 29.8659C21.4588 30.0057 21.5068 30.1425 21.566 30.2765C21.7225 30.6306 21.9284 30.9395 22.1838 31.2031C22.4391 31.4667 22.7439 31.6767 23.0981 31.8332C23.232 31.8924 23.3689 31.9404 23.5088 31.9772L23.5092 31.9773C23.7389 32.0377 23.9767 32.068 24.2224 32.068C24.4681 32.068 24.7058 32.0377 24.9356 31.9773L24.936 31.9772C25.0758 31.9404 25.2127 31.8924 25.3467 31.8332C25.7009 31.6767 26.0098 31.4667 26.2733 31.2031C26.5369 30.9395 26.747 30.6306 26.9035 30.2765C26.9627 30.1425 27.0107 30.0056 27.0475 29.8657C27.108 29.6358 27.1382 29.3979 27.1382 29.1521C27.1382 28.9063 27.108 28.6684 27.0475 28.4385C27.0107 28.2987 26.9627 28.1618 26.9035 28.0278C26.747 27.6736 26.5369 27.3647 26.2733 27.1012C26.0098 26.8376 25.7009 26.6275 25.3467 26.471ZM26.854 34.9838C26.9882 35.1019 27.0787 35.234 27.1254 35.38L27.1256 35.3806C27.1505 35.4585 27.1629 35.5404 27.1629 35.6263L27.1629 35.6757C27.1629 35.9228 27.06 36.1369 26.854 36.3182C26.6481 36.4994 26.4051 36.59 26.1251 36.59L22.1714 36.59C21.9773 36.59 21.8026 36.5511 21.6474 36.4735L21.6468 36.4732C21.5651 36.4323 21.4887 36.3806 21.4177 36.3182C21.2836 36.2001 21.1931 36.068 21.1463 35.9219L21.1462 35.9214C21.1213 35.8434 21.1089 35.7615 21.1089 35.6757L21.1089 35.6263C21.1089 35.5402 21.1214 35.4581 21.1463 35.3801L21.1463 35.38C21.1931 35.234 21.2836 35.1019 21.4177 34.9838C21.4887 34.9213 21.5651 34.8696 21.6468 34.8287L21.6474 34.8284C21.8026 34.7508 21.9773 34.712 22.1714 34.712L26.1251 34.712C26.4051 34.712 26.6481 34.8026 26.854 34.9838Z" fill="rgb(255,255,255)" fill-rule="evenodd" />
	</g>
</svg>
