<svg viewBox="0 0 48 48" xmlns="http://www.w3.org/2000/svg" xmlns:xlink="http://www.w3.org/1999/xlink" width="48.000000" height="48.000000" fill="none" clip-path="url(#clipPath_0)" customFrame="url(#clipPath_0)">
	<mask id="mask_0" width="24.000000" height="24.000000" x="12.000000" y="12.000000" maskUnits="userSpaceOnUse">
		<g filter="url(#pixso_custom_mask_type_luminance)">
			<g id="hms_mask_0">
				<rect id="矩形 3645" width="24.000000" height="24.000000" x="12.000000" y="12.000000" fill="rgb(255,255,255)" />
				<g id="组合 4186">
					<path id="矢量 328" d="M17.9 32.5C17.28 32.5 16.74 32.2867 16.28 31.86C15.8267 31.4333 15.5667 30.91 15.5 30.29L25.56 22.97C25.88 22.7433 26.2267 22.5933 26.6 22.52C26.98 22.4533 27.3533 22.47 27.72 22.57C28.0867 22.6767 28.4133 22.8567 28.7 23.11L32.5 26.35L32.5 30.05C32.5 30.7233 32.2633 31.3 31.79 31.78C31.3167 32.26 30.7433 32.5 30.07 32.5L17.9 32.5ZM20.5 19.25C20.98 19.25 21.39 19.42 21.73 19.76C22.0767 20.1067 22.25 20.52 22.25 21C22.25 21.48 22.0767 21.8933 21.73 22.24C21.39 22.58 20.98 22.75 20.5 22.75C20.02 22.75 19.6067 22.58 19.26 22.24C18.9133 21.8933 18.74 21.48 18.74 21C18.74 20.52 18.9133 20.1067 19.26 19.76C19.6067 19.42 20.02 19.25 20.5 19.25Z" fill="rgb(0,0,0)" fill-rule="evenodd" />
				</g>
			</g>
		</g>
	</mask>
	<defs>
		<clipPath id="clipPath_0">
			<rect width="48.000000" height="48.000000" x="0.000000" y="0.000000" rx="8.000000" fill="rgb(255,255,255)" />
		</clipPath>
		<clipPath id="clipPath_1">
			<rect width="32.000000" height="32.000000" x="8.000000" y="8.000000" fill="rgb(255,255,255)" />
		</clipPath>
		<clipPath id="clipPath_2">
			<rect width="24.000000" height="24.000000" x="12.000000" y="12.000000" fill="rgb(255,255,255)" />
		</clipPath>
		<filter id="pixso_custom_mask_type_luminance">
			<feColorMatrix type="matrix" values="1 0 0 0 0 0 1 0 0 0 0 0 1 0 0 0 0 0 1 0 " />
		</filter>
	</defs>
	<rect id="icon_drawing board" width="48.000000" height="48.000000" x="0.000000" y="0.000000" rx="8.000000" />
	<rect id="矩形 3470" width="48.000000" height="48.000000" x="0.000000" y="0.000000" rx="8.000000" fill="rgb(10,89,247)" />
	<g id="svg 7" clip-path="url(#clipPath_1)" customFrame="url(#clipPath_1)">
		<rect id="svg 7" width="32.000000" height="32.000000" x="8.000000" y="8.000000" />
		<path id="矢量 326" d="M36 12L32 12L32 10L38 10L38 16L36 16L36 12ZM36 36L36 32L38 32L38 38L32 38L32 36L36 36ZM12 36L16 36L16 38L10 38L10 32L12 32L12 36ZM12 12L12 16L10 16L10 10L16 10L16 12L12 12Z" fill="rgb(209,223,252)" fill-rule="nonzero" />
		<g id="picture_fill" clip-path="url(#clipPath_2)" customFrame="url(#clipPath_2)">
			<rect id="picture_fill" width="24.000000" height="24.000000" x="12.000000" y="12.000000" />
			<rect id="矩形 3644" width="24.000000" height="24.000000" x="12.000000" y="12.000000" opacity="0" fill="rgb(0,0,0)" />
			<g id="mask" mask="url(#mask_0)">
				<g id="组合 4185">
					<path id="矢量 327" d="M17.93 13.99C17.2233 13.99 16.5667 14.1667 15.96 14.52C15.3533 14.8733 14.8733 15.3533 14.52 15.96C14.1667 16.5667 13.99 17.2233 13.99 17.93L13.99 30.05C13.99 30.77 14.1667 31.4333 14.52 32.04C14.8733 32.6467 15.3533 33.1267 15.96 33.48C16.5667 33.8333 17.2233 34.01 17.93 34.01L30.05 34.01C30.77 34.01 31.43 33.8333 32.03 33.48C32.63 33.1267 33.1067 32.6467 33.46 32.04C33.8067 31.4333 33.98 30.77 33.98 30.05L33.98 17.93C33.98 17.2233 33.8067 16.5667 33.46 15.96C33.1067 15.3533 32.63 14.8733 32.03 14.52C31.43 14.1667 30.7767 13.99 30.07 13.99L17.93 13.99Z" fill="rgb(255,255,255)" fill-rule="evenodd" />
				</g>
			</g>
		</g>
	</g>
</svg>
