<svg width="8.679993" height="16.470215" viewBox="0 0 8.67999 16.4702" fill="none" xmlns="http://www.w3.org/2000/svg" xmlns:xlink="http://www.w3.org/1999/xlink">
	<desc>
			Created with Pixso.
	</desc>
	<defs/>
	<path id="path" d="M1.51 8.25L8.46 1.29C8.6 1.14 8.67 0.95 8.67 0.75C8.67 0.56 8.6 0.37 8.46 0.22C8.32 0.07 8.14 0 7.94 0C7.73 0 7.55 0.07 7.4 0.22L0.42 7.2C0.14 7.49 0 7.84 0 8.25C0 8.67 0.14 9.02 0.42 9.31L7.39 16.25C7.51 16.39 7.68 16.47 7.9 16.47C8.12 16.47 8.29 16.39 8.43 16.25C8.58 16.1 8.65 15.93 8.65 15.72C8.65 15.51 8.58 15.33 8.43 15.2L1.51 8.25Z" fill="#000000" fill-opacity="0.898039" fill-rule="nonzero"/>
</svg>
