<svg width="40.888885" height="40.000000" viewBox="0 0 40.8889 40" fill="none" xmlns="http://www.w3.org/2000/svg" xmlns:xlink="http://www.w3.org/1999/xlink">
	<desc>
			Created with Pixso.
	</desc>
	<defs>
		<clipPath id="clip2_494">
			<rect id="ic_public_trash" width="40.888893" height="40.000000" fill="white" fill-opacity="0"/>
		</clipPath>
	</defs>
	<g opacity="0.400000">
		<g clip-path="url(#clip2_494)">
			<ellipse id="path2" cx="20.444458" cy="20.000000" rx="20.444447" ry="20.000000" fill="#000000" fill-opacity="0.047059"/>
			<path id="path6" d="M29.96 15.38L28.87 28.32C28.78 29.27 28.39 30.06 27.67 30.7C26.96 31.34 26.12 31.66 25.15 31.66L15.73 31.66C14.76 31.66 13.92 31.34 13.2 30.7C12.85 30.38 12.57 30.02 12.37 29.62C12.17 29.23 12.05 28.79 12.01 28.32L10.92 15.38L29.96 15.38ZM18.7 27.34L18.7 18.78C18.7 18.37 18.37 18.05 17.96 18.05C17.54 18.05 17.21 18.37 17.21 18.78L17.21 27.34C17.21 27.75 17.54 28.07 17.96 28.07C18.37 28.07 18.7 27.75 18.7 27.34ZM22.92 18.05C23.34 18.05 23.67 18.37 23.67 18.78L23.67 27.34C23.67 27.75 23.34 28.07 22.92 28.07C22.51 28.07 22.18 27.75 22.18 27.34L22.18 18.78C22.18 18.37 22.51 18.05 22.92 18.05Z" fill="#000000" fill-opacity="0.600000" fill-rule="evenodd"/>
			<path id="path7" d="M26.15 12.48L25.27 10.16C25.22 10.01 25.15 9.88 25.08 9.75C25.01 9.63 24.93 9.52 24.84 9.41C24.76 9.31 24.67 9.21 24.57 9.11C24.46 9.02 24.35 8.92 24.22 8.84C24.1 8.76 23.98 8.69 23.85 8.63C23.72 8.57 23.59 8.52 23.46 8.47C23.33 8.43 23.19 8.4 23.06 8.38C22.91 8.36 22.75 8.34 22.6 8.34L18.16 8.34C18.01 8.34 17.85 8.36 17.7 8.38C17.57 8.4 17.43 8.43 17.3 8.47C17.19 8.51 17.08 8.55 16.98 8.6C16.85 8.66 16.66 8.76 16.54 8.84C16.42 8.92 16.3 9.01 16.2 9.11C16.1 9.2 16 9.3 15.92 9.41C15.83 9.52 15.75 9.63 15.69 9.75C15.61 9.88 15.55 10.01 15.49 10.16L14.61 12.48L26.15 12.48ZM31.62 12.48L9.26 12.48C8.85 12.48 8.51 12.81 8.51 13.21C8.51 13.61 8.85 13.94 9.26 13.94L31.62 13.94C32.03 13.94 32.37 13.61 32.37 13.21C32.37 12.81 32.03 12.48 31.62 12.48Z" fill="#000000" fill-opacity="0.600000" fill-rule="evenodd"/>
		</g>
	</g>
</svg>
