<svg width="40.000000" height="40.000000" viewBox="0 0 40 40" fill="none" xmlns="http://www.w3.org/2000/svg" xmlns:xlink="http://www.w3.org/1999/xlink">
	<desc>
			Created with Pixso.
	</desc>
	<defs>
		<clipPath id="clip2_469">
			<rect id="ic_public_trash" width="40.000000" height="40.000000" fill="white" fill-opacity="0"/>
		</clipPath>
	</defs>
	<g clip-path="url(#clip2_469)">
		<circle id="path2" cx="20.000000" cy="20.000000" r="20.000000" fill="#000000" fill-opacity="0.047059"/>
		<path id="path6" d="M29.31 15.38L28.24 28.32C28.16 29.27 27.77 30.06 27.07 30.7C26.38 31.34 25.55 31.66 24.61 31.66L15.39 31.66C14.44 31.66 13.62 31.34 12.92 30.7C12.57 30.38 12.3 30.02 12.1 29.62C11.91 29.23 11.79 28.79 11.75 28.32L10.68 15.38L29.31 15.38ZM18.29 27.34L18.29 18.78C18.29 18.37 17.97 18.05 17.56 18.05C17.16 18.05 16.84 18.37 16.84 18.78L16.84 27.34C16.84 27.75 17.16 28.07 17.56 28.07C17.97 28.07 18.29 27.75 18.29 27.34ZM22.43 18.05C22.83 18.05 23.15 18.37 23.15 18.78L23.15 27.34C23.15 27.75 22.83 28.07 22.43 28.07C22.02 28.07 21.7 27.75 21.7 27.34L21.7 18.78C21.7 18.37 22.02 18.05 22.43 18.05Z" fill="#000000" fill-opacity="0.600000" fill-rule="evenodd"/>
		<path id="path7" d="M25.59 12.48L24.72 10.16C24.67 10.01 24.6 9.88 24.53 9.75C24.46 9.63 24.39 9.52 24.3 9.41C24.22 9.31 24.13 9.21 24.03 9.11C23.93 9.02 23.82 8.92 23.7 8.84C23.58 8.76 23.46 8.69 23.33 8.63C23.21 8.57 23.08 8.52 22.95 8.47C22.82 8.43 22.69 8.4 22.56 8.38C22.41 8.36 22.26 8.34 22.11 8.34L17.77 8.34C17.61 8.34 17.46 8.36 17.32 8.38C17.18 8.4 17.05 8.43 16.92 8.47C16.82 8.51 16.71 8.55 16.61 8.6C16.48 8.66 16.3 8.76 16.18 8.84C16.06 8.92 15.95 9.01 15.85 9.11C15.75 9.2 15.66 9.3 15.57 9.41C15.49 9.52 15.41 9.63 15.35 9.75C15.27 9.88 15.21 10.01 15.16 10.16L14.29 12.48L25.59 12.48ZM30.93 12.48L9.06 12.48C8.65 12.48 8.33 12.81 8.33 13.21C8.33 13.61 8.65 13.94 9.06 13.94L30.93 13.94C31.34 13.94 31.66 13.61 31.66 13.21C31.66 12.81 31.34 12.48 30.93 12.48Z" fill="#000000" fill-opacity="0.600000" fill-rule="evenodd"/>
	</g>
</svg>
