<?xml version="1.0" encoding="UTF-8"?>
<svg width="25px" height="24px" viewBox="0 0 25 24" version="1.1" xmlns="http://www.w3.org/2000/svg" xmlns:xlink="http://www.w3.org/1999/xlink">
    <title>tab/ic_备份 68</title>
    <g id="tab/ic_备份-68" stroke="none" fill="none" transform="translate(0.9091, 0)">
        <rect id="矩形" opacity="0" fill-rule="nonzero" x="0" y="0" width="24" height="24"></rect>
        <path d="M21.631445,20.8044234 C20.8003896,21.3190256 18.9865209,21.6728146 16.1898388,21.8657905 C13.4003833,22.0516191 10.6037013,22.0444718 7.79979263,21.8443487 C5.00311057,21.6513729 3.18924184,21.3047311 2.35818645,20.8044234 C2.12693625,20.6686255 2.00769787,20.4291926 2.0004713,20.0861244 C1.99324473,19.7430562 2.0691237,19.4428716 2.22810821,19.1855705 C2.45213184,18.7710298 2.784554,18.4029463 3.22537468,18.0813199 C3.66619537,17.7525462 4.29490684,17.4166253 5.1115091,17.0735571 C6.83143243,16.3731263 8.23700003,15.5762076 9.3282119,14.6828009 C9.71122003,14.375469 9.93163038,14.0324009 9.98944293,13.6535965 C10.0472555,13.274792 9.94608351,12.8816931 9.68592704,12.4742997 L8.67782072,10.5123786 C8.62723474,10.3908753 8.55858234,10.297961 8.47186351,10.2336358 C8.38514469,10.1621632 8.30565243,10.1085588 8.23338675,10.0728226 C8.04549596,9.97276102 7.85760518,9.79407969 7.66971439,9.53677857 C7.48905018,9.27947746 7.33729224,8.95427743 7.21444057,8.5611785 C7.12772175,8.30387738 7.09520219,8.10732792 7.11688189,7.97153011 C7.13133503,7.82858504 7.18192101,7.6892136 7.26863983,7.55341579 L7.3228391,7.47836963 L7.47459704,7.19962675 C7.54686273,7.09241796 7.59022214,6.99235641 7.60467528,6.89944212 C7.62635498,6.80652782 7.63719483,6.57066847 7.63719483,6.19186404 L7.63719483,6.11681788 C7.63719483,5.61651016 7.66610111,5.16265957 7.72391366,4.75526614 C7.78895278,4.34072545 7.94071072,3.93690564 8.17918748,3.54380671 C8.51160964,3.00776271 8.98494989,2.61823741 9.59920822,2.3752308 C10.2134666,2.12507693 11.0156157,2 12.0056556,2 C12.9956955,2 13.7978446,2.12507693 14.4121029,2.3752308 C15.0263613,2.61823741 15.4997015,3.00776271 15.8321237,3.54380671 C16.0706004,3.95120014 16.2223584,4.36931446 16.2873975,4.79814966 C16.34521,5.22698485 16.3741163,5.69155631 16.3741163,6.19186404 C16.3741163,6.24189482 16.3741163,6.27763108 16.3741163,6.29907284 C16.3741163,6.31336735 16.3741163,6.34552999 16.3741163,6.39556076 C16.3741163,6.65286188 16.3921827,6.84226409 16.4283156,6.9637674 C16.4644484,7.0852707 16.5511672,7.25680478 16.6884721,7.47836963 L16.7426713,7.53197403 C16.8293901,7.68206635 16.8799761,7.82143779 16.8944293,7.95008835 C16.916109,8.07873891 16.8835894,8.28243563 16.7968706,8.5611785 C16.6740189,8.95427743 16.5150344,9.27947746 16.3199171,9.53677857 C16.1320263,9.79407969 15.9513621,9.97276102 15.7779244,10.0728226 C15.5683539,10.1943259 15.4310491,10.3229764 15.36601,10.4587742 L15.3118107,10.5445413 L14.2928645,12.4742997 C14.0327081,12.9174294 13.9351494,13.3176756 14.0001885,13.6750382 C14.0580011,14.0395481 14.285638,14.3826163 14.6830993,14.7042427 C15.2756779,15.1902559 15.8646432,15.5905021 16.4499953,15.9049812 C17.0425739,16.2194604 17.8230433,16.6018384 18.7914035,17.0521154 C18.8275364,17.0664099 18.8636692,17.084278 18.8998021,17.1057198 C19.7164043,17.4487879 20.3415025,17.7775616 20.7750966,18.0920407 C21.2086907,18.4065199 21.5374996,18.7710298 21.7615232,19.1855705 C21.9205077,19.4786079 22,19.7859398 22,20.1075662 C22,20.4363398 21.8771483,20.6686255 21.631445,20.8044234 Z" id="路径" fill="#317AF7" fill-rule="evenodd"></path>
    </g>
</svg>