<svg width="48.000000" height="48.000000" viewBox="0 0 48 48" fill="none" xmlns="http://www.w3.org/2000/svg" xmlns:xlink="http://www.w3.org/1999/xlink">
	<desc>
			Created with Pixso.
	</desc>
	<defs>
		<clipPath id="clip49_10353">
			<rect id="icon_envelope" width="48.000000" height="48.000000" fill="white" fill-opacity="0"/>
		</clipPath>
	</defs>
	<g clip-path="url(#clip49_10353)">
		<circle id="椭圆 4" cx="24.000000" cy="24.000000" r="24.000000" fill="#0084FF" fill-opacity="1.000000"/>
		<path id="矢量 219" d="M31.75 26.66C31.81 26.83 31.9 27 32.01 27.16L32.64 27.95C32.85 28.22 32.97 28.52 33 28.85C33.03 29.17 32.97 29.5 32.83 29.82C32.67 30.12 32.45 30.36 32.17 30.54C31.89 30.72 31.58 30.81 31.24 30.81L16.75 30.81C16.41 30.81 16.1 30.72 15.82 30.54C15.54 30.36 15.32 30.12 15.16 29.82C15.02 29.52 14.97 29.2 15 28.88C15.03 28.54 15.15 28.24 15.36 27.98L16 27.16C16.14 27 16.23 26.83 16.28 26.66C16.34 26.48 16.36 26.28 16.36 26.08L16.36 21.83Q16.36 20.98 16.55 20.17Q16.77 19.25 17.22 18.39C17.79 17.31 18.57 16.41 19.56 15.71C20.15 15.26 20.88 14.9 21.76 14.63C21.9 14.17 22.17 13.78 22.58 13.47C23 13.15 23.48 13 24.02 13C24.55 13 25.02 13.15 25.44 13.46C25.86 13.76 26.13 14.15 26.25 14.63L26.59 14.73L26.78 14.78C27.74 15.12 28.59 15.65 29.32 16.35C30.06 17.04 30.64 17.85 31.04 18.78C31.45 19.71 31.65 20.69 31.65 21.71L31.65 26.08C31.65 26.28 31.69 26.48 31.75 26.66ZM21.22 32.04C21.26 32 21.32 31.98 21.38 31.98L26.64 31.98C26.7 31.98 26.75 32 26.78 32.04C26.82 32.08 26.83 32.13 26.83 32.2C26.79 32.91 26.49 33.53 25.94 34.04C25.4 34.54 24.76 34.79 24.02 34.79C23.27 34.79 22.62 34.54 22.08 34.04Q21.63 33.61 21.39 33.09Q21.21 32.67 21.16 32.2C21.16 32.13 21.18 32.08 21.22 32.04Z" fill="#FFFFFF" fill-opacity="1.000000" fill-rule="evenodd"/>
	</g>
</svg>
