<?xml version="1.0" encoding="UTF-8"?>
<svg width="24px" height="24px" viewBox="0 0 24 24" version="1.1" xmlns="http://www.w3.org/2000/svg"
     xmlns:xlink="http://www.w3.org/1999/xlink">
    <title>Controls/ToolBar/Items/Icon/喜欢</title>
    <g id="Controls/ToolBar/Items/Icon/喜欢" stroke="none" fill="none" fill-rule="evenodd" stroke-width="1">
        <g id="heart">
            <rect id="矩形" fill="#000000" fill-rule="nonzero" opacity="0" x="0" y="0" width="24" height="24"></rect>
            <path d="M16.27,2.23 C15.49,2.23 14.7333333,2.37 14,2.65 C13.2733333,2.93 12.6066667,3.32666667 12,3.84 C11.3933333,3.32666667 10.7266667,2.93 10,2.65 C9.26666667,2.37 8.51,2.23 7.73,2.23 C6.43,2.23 5.27,2.54333333 4.25,3.17 C3.22333333,3.79 2.42666667,4.62666667 1.86,5.68 C1.29333333,6.72666667 1.01,7.87333333 1.01,9.12 C1.01,10.2266667 1.39666667,11.47 2.17,12.85 C2.95,14.2366667 3.96333333,15.5866667 5.21,16.9 C6.53666667,18.2866667 7.82666667,19.4466667 9.08,20.38 C10.34,21.3066667 11.3066667,21.77 11.98,21.77 C12.7266667,21.77 13.7066667,21.3166667 14.92,20.41 C16.1266667,19.51 17.41,18.34 18.77,16.9 C20.0033333,15.62 21.0133333,14.2833333 21.8,12.89 C22.5933333,11.4966667 22.99,10.24 22.99,9.12 C22.99,7.87333333 22.7033333,6.72666667 22.13,5.68 C21.55,4.62666667 20.75,3.79 19.73,3.17 C18.7033333,2.54333333 17.55,2.23 16.27,2.23 Z"
                  id="路径" fill="#E84026"></path>
        </g>
    </g>
</svg>