<?xml version="1.0" encoding="UTF-8"?>
<svg width="25px" height="24px" viewBox="0 0 25 24" version="1.1" xmlns="http://www.w3.org/2000/svg" xmlns:xlink="http://www.w3.org/1999/xlink">
    <title>tab/ic_备份 68</title>
    <g id="tab/ic_备份-68" stroke="none" fill="none" transform="translate(0.3409, 0)" fill-rule="evenodd" stroke-width="1">
        <g id="编组" fill="#000000">
            <rect id="矩形" fill-rule="nonzero" opacity="0" x="0" y="0" width="24" height="24"></rect>
            <path d="M20,15 C22.209139,15 24,16.790861 24,19 C24,21.209139 22.209139,23 20,23 L11,23 C8.790861,23 7,21.209139 7,19 C7,16.790861 8.790861,15 11,15 L20,15 Z M5.70994564,20.5102615 C5.8622408,21.044727 6.09334615,21.5459818 6.38989569,22.0006599 L4.01,22 C3.80333333,22 3.62333333,21.9266667 3.47,21.78 C3.31666667,21.64 3.24,21.4666667 3.24,21.26 C3.24,21.0466667 3.31666667,20.87 3.47,20.73 C3.62333333,20.5833333 3.80333333,20.51 4.01,20.51 L5.70994564,20.5102615 Z M16.5416431,16.0062273 L15.2841976,16.0062273 L14.1994615,22 L15.4569069,22 L16.5416431,16.0062273 Z M20.2988297,16.0062273 L17.5869894,16.0062273 L16.5052832,22 L17.7596987,22 L18.1111775,20.0601972 L19.5655723,20.0601972 C20.6927283,20.0601972 21.7683744,19.1043072 21.9683537,17.9927348 C22.165303,16.9091853 21.4229557,16.0062273 20.2988297,16.0062273 Z M10.2968354,16 L9,16 L10.6392241,21.9968863 L11.6027607,21.9968863 L14.8448491,16 L13.5449838,16 L11.2755219,20.3279709 L10.2968354,16 Z M19.8594813,17.1302543 C20.3685194,17.1302543 20.7169682,17.5350285 20.6260685,18.0332122 C20.5045278,18.5553233 20.0545797,18.9267573 19.5322424,18.9361702 L18.3141868,18.9361702 L18.6414256,17.1302543 L19.8594813,17.1302543 Z M4.19,10.34 C4.39,10.34 4.56,10.41 4.7,10.55 L8.36610577,14.1705047 C7.91580083,14.4166117 7.50369656,14.7238639 7.14095587,15.0810984 L3.67,11.61 C3.51,11.4633333 3.43,11.2866667 3.43,11.08 C3.43,10.8733333 3.51,10.6966667 3.67,10.55 C3.81666667,10.41 3.99,10.34 4.19,10.34 Z M11.95,2 C12.1566667,2 12.3366667,2.07333333 12.49,2.22 C12.6433333,2.36 12.72,2.53333333 12.72,2.74 L12.72,13.5 L11.209,13.5 L11.21,2.74 C11.21,2.53333333 11.28,2.36 11.42,2.22 C11.5666667,2.07333333 11.7433333,2 11.95,2 Z M19.78,10.38 C19.9866667,10.38 20.16,10.4533333 20.3,10.6 C20.4466667,10.7466667 20.52,10.9233333 20.52,11.13 C20.52,11.3366667 20.4466667,11.5133333 20.3,11.66 L18.459,13.5 L16.348,13.5 L19.25,10.6 C19.39,10.4533333 19.5666667,10.38 19.78,10.38 Z" id="形状结合" fill-opacity="0.901960784" fill-rule="nonzero"></path>
        </g>
    </g>
</svg>