<?xml version="1.0" encoding="UTF-8"?>
<svg width="24px" height="24px" viewBox="0 0 24 24" version="1.1" xmlns="http://www.w3.org/2000/svg"
     xmlns:xlink="http://www.w3.org/1999/xlink">
    <title>Controls/ToolBar/Items/Icon/下载备份</title>
    <g id="Controls/ToolBar/Items/Icon/下载备份" stroke="none" fill="none" fill-opacity="0.9" fill-rule="evenodd">
        <path d="M6.76,2 C7.18,2 7.52,2.34 7.52,2.76 C7.52,3.18 7.18,3.52 6.76,3.52 L5.51,3.52 C5.47,3.52 5.43,3.52 5.39,3.51 L5,3.51 C4.65,3.51 4.34,3.62 4.07,3.85 L3.96,3.95 C3.66,4.24 3.51,4.59 3.51,5 L3.51,19.02 C3.51,19.32 3.59,19.59 3.76,19.83 C3.82,19.91 3.87,19.98 3.95,20.06 L3.96,20.06 C4.25,20.36 4.6,20.51 5,20.51 L19.02,20.51 C19.43,20.51 19.77,20.36 20.06,20.06 L20.07,20.06 C20.14,19.99 20.21,19.91 20.26,19.83 C20.43,19.59 20.51,19.32 20.51,19.02 L20.51,5 C20.51,4.59 20.36,4.24 20.06,3.95 L19.95,3.85 C19.68,3.62 19.37,3.51 19.02,3.51 L18.63,3.51 C18.59,3.52 18.55,3.52 18.51,3.52 L17.26,3.52 C16.84,3.52 16.5,3.18 16.5,2.76 C16.5,2.34 16.84,2 17.26,2 L19.02,2 C19.56,2 20.06,2.14 20.52,2.41 C20.97,2.69 21.34,3.05 21.61,3.5 C21.88,3.96 22.02,4.46 22.02,5 L22.02,19.02 C22.02,19.56 21.88,20.06 21.61,20.52 C21.34,20.98 20.97,21.34 20.52,21.61 C20.06,21.89 19.56,22.02 19.02,22.02 L5,22.02 C4.46,22.02 3.96,21.89 3.5,21.61 C3.05,21.34 2.68,20.98 2.41,20.52 C2.14,20.06 2,19.56 2,19.02 L2,5 C2,4.46 2.14,3.96 2.41,3.5 C2.68,3.05 3.05,2.69 3.5,2.41 C3.96,2.14 4.46,2 5,2 L6.76,2 Z M12.01,2.01 C12.42,2.01 12.76,2.35 12.76,2.76 L12.76,13.88 L15.71,10.75 C15.86,10.59 16.06,10.51 16.26,10.51 C16.34,10.51 16.41,10.52 16.48,10.55 C16.54,10.57 16.6,10.6 16.66,10.63 L16.69,10.65 L16.77,10.72 C17.08,11 17.09,11.48 16.8,11.78 L12.55,16.28 L12.51,16.32 L12.49,16.33 L12.49,16.34 L12.43,16.38 C12.41,16.39 12.39,16.41 12.37,16.42 C12.35,16.43 12.33,16.44 12.3,16.45 C12.26,16.47 12.22,16.49 12.18,16.49 C12.13,16.5 12.08,16.51 12.02,16.51 L11.94,16.51 C11.9,16.5 11.87,16.5 11.84,16.49 L11.82,16.49 C11.79,16.48 11.77,16.47 11.74,16.46 C11.74,16.46 11.73,16.46 11.72,16.45 L11.65,16.42 L11.63,16.41 L11.59,16.38 C11.57,16.37 11.55,16.36 11.53,16.34 C11.52,16.34 11.51,16.33 11.51,16.32 C11.48,16.3 11.46,16.28 11.44,16.25 L7.21,11.78 C6.93,11.48 6.94,11 7.24,10.72 L7.36,10.63 C7.48,10.55 7.62,10.51 7.76,10.51 C7.96,10.51 8.15,10.59 8.3,10.75 L11.26,13.88 L11.26,2.76 C11.26,2.35 11.6,2.01 12.01,2.01 Z"
              id="形状结合" fill="#000000"></path>
    </g>
</svg>