<?xml version="1.0" encoding="UTF-8"?>
<svg width="25px" height="24px" viewBox="0 0 25 24" version="1.1" xmlns="http://www.w3.org/2000/svg" xmlns:xlink="http://www.w3.org/1999/xlink">
    <title>tab/ic_备份 68</title>
    <g id="tab/ic_备份-68" stroke="none" fill="none" transform="translate(0.3409, 0)" fill-rule="evenodd" stroke-width="1">
        <g id="编组" fill="#000000">
            <rect id="矩形" fill-rule="nonzero" opacity="0" x="0" y="0" width="24" height="24"></rect>
            <path d="M20,15 C22.209139,15 24,16.790861 24,19 C24,21.209139 22.209139,23 20,23 L11,23 C8.790861,23 7,21.209139 7,19 C7,16.790861 8.790861,15 11,15 L20,15 Z M18.07,1.99 C18.7766667,1.99 19.43,2.16666667 20.03,2.52 C20.63,2.87333333 21.1066667,3.35333333 21.46,3.96 C21.8066667,4.56666667 21.98,5.22333333 21.98,5.93 L21.9808317,13.8674961 C21.5147594,13.6875007 21.0180194,13.5691607 20.5006121,13.5224767 L20.5,5.93 C20.5,5.25666667 20.2633333,4.68333333 19.79,4.21 C19.3166667,3.73666667 18.7433333,3.5 18.07,3.5 L5.93,3.5 C5.25666667,3.5 4.68333333,3.73333333 4.21,4.2 C3.73666667,4.66666667 3.5,5.24333333 3.5,5.93 L3.5,18.29 L6.19259445,16.3260848 C5.79813735,17.0337595 5.55540693,17.8375698 5.50839468,18.6935244 L4.13,19.7 C4.35,19.94 4.61666667,20.1333333 4.93,20.28 C5.17546992,20.3949008 5.43321461,20.4647941 5.70323407,20.48968 C5.85716989,21.0350645 6.09246716,21.546572 6.39571508,22.0095635 L5.93,22.01 C5.22333333,22.01 4.56666667,21.8333333 3.96,21.48 C3.35333333,21.1266667 2.87333333,20.6466667 2.52,20.04 C2.16666667,19.4333333 1.99,18.77 1.99,18.05 L1.99,5.93 C1.99,5.22333333 2.16666667,4.56666667 2.52,3.96 C2.87333333,3.35333333 3.35333333,2.87333333 3.96,2.52 C4.56666667,2.16666667 5.22333333,1.99 5.93,1.99 L18.07,1.99 Z M16.5416431,16.0062273 L15.2841976,16.0062273 L14.1994615,22 L15.4569069,22 L16.5416431,16.0062273 Z M20.2988297,16.0062273 L17.5869894,16.0062273 L16.5052832,22 L17.7596987,22 L18.1111775,20.0601972 L19.5655723,20.0601972 C20.6927283,20.0601972 21.7683744,19.1043072 21.9683537,17.9927348 C22.165303,16.9091853 21.4229557,16.0062273 20.2988297,16.0062273 Z M10.2968354,16 L9,16 L10.6392241,21.9968863 L11.6027607,21.9968863 L14.8448491,16 L13.5449838,16 L11.2755219,20.3279709 L10.2968354,16 Z M19.8594813,17.1302543 C20.3685194,17.1302543 20.7169682,17.5350285 20.6260685,18.0332122 C20.5045278,18.5553233 20.0545797,18.9267573 19.5322424,18.9361702 L18.3141868,18.9361702 L18.6414256,17.1302543 L19.8594813,17.1302543 Z M14.9464198,10.4781481 L15.14,10.48 C15.7333333,10.5 16.2533333,10.71 16.7,11.11 L19.503,13.499 L17.196,13.499 L15.72,12.24 C15.5813333,12.112 15.4213333,12.0330667 15.24,12.0032 L15.1,11.99 C14.86,11.9833333 14.6333333,12.05 14.42,12.19 L12.625,13.499 L11,13.5 C10.6323608,13.5 10.2731465,13.5360709 9.92570296,13.6048666 L13.54,10.97 C13.9133333,10.6951852 14.31893,10.5353086 14.7567901,10.4903704 L14.9464198,10.4781481 Z M8.5,7.25 C8.98,7.25 9.39,7.42 9.73,7.76 C10.0766667,8.10666667 10.25,8.52 10.25,9 C10.25,9.48 10.0766667,9.89333333 9.73,10.24 C9.39,10.58 8.98,10.75 8.5,10.75 C8.02,10.75 7.60666667,10.58 7.26,10.24 C6.91333333,9.89333333 6.74,9.48 6.74,9 C6.74,8.52 6.91333333,8.10666667 7.26,7.76 C7.60666667,7.42 8.02,7.25 8.5,7.25 Z" id="形状结合" fill-opacity="0.901960784" fill-rule="nonzero"></path>
        </g>
    </g>
</svg>