<?xml version="1.0" encoding="UTF-8"?>
<svg width="24px" height="24px" viewBox="0 0 24 24" version="1.1" xmlns="http://www.w3.org/2000/svg"
     xmlns:xlink="http://www.w3.org/1999/xlink">
    <title>Controls/ToolBar/Items/Icon/设为壁纸备份</title>
    <g id="Controls/ToolBar/Items/Icon/设为壁纸备份" stroke="none" fill="none" fill-opacity="0.9" fill-rule="evenodd">
        <path d="M17.83,2 C18.65,2 19.47,2.18 20.15,2.61 C20.65,2.93 21.05,3.34 21.37,3.83 C21.81,4.52 21.98,5.34 21.98,6.15 L21.98,18.07 C21.98,18.24 21.97,18.41 21.95,18.58 C21.95,18.6 21.95,18.61 21.94,18.63 C21.92,18.77 21.9,18.92 21.86,19.06 C21.86,19.09 21.85,19.11 21.84,19.13 C21.79,19.29 21.74,19.45 21.67,19.61 C21.61,19.76 21.53,19.9 21.45,20.05 C21.41,20.12 21.37,20.2 21.32,20.27 C21.28,20.34 21.23,20.41 21.17,20.48 L21.17,20.49 C21.09,20.59 21.01,20.69 20.92,20.78 C20.67,21.05 20.37,21.28 20.04,21.48 C19.39,21.86 18.63,22.02 17.88,22.02 L5.9,22.02 C5.77,22.02 5.65,22.01 5.53,22 C5.25,21.97 4.98,21.91 4.71,21.83 L4.7,21.83 C4.55,21.78 4.4,21.72 4.26,21.65 C4.15,21.61 4.04,21.55 3.94,21.49 C3.35,21.14 2.87,20.66 2.53,20.06 C2.53,20.06 2.53,20.05 2.52,20.05 C2.44,19.9 2.36,19.75 2.3,19.59 C2.24,19.47 2.2,19.34 2.17,19.21 C2.14,19.14 2.12,19.07 2.11,19 C2.07,18.86 2.05,18.72 2.03,18.57 C2.01,18.42 2,18.26 2,18.1 L2,6.16 C2,5.35 2.17,4.53 2.61,3.84 C2.93,3.35 3.33,2.94 3.83,2.62 C4.51,2.19 5.33,2.01 6.15,2.01 Z M15.1,12.01 C14.87,12 14.64,12.07 14.43,12.21 L13.27,13.05 L12,13.99 L4.14,19.72 C4.25,19.84 4.36,19.94 4.49,20.03 L4.51,20.05 C4.62,20.13 4.75,20.2 4.89,20.27 C4.94,20.3 4.99,20.32 5.03,20.34 L5.18,20.4 C5.21,20.41 5.25,20.42 5.29,20.43 C5.4,20.47 5.52,20.49 5.65,20.5 C5.74,20.51 5.84,20.52 5.94,20.52 L18.08,20.52 C18.75,20.52 19.32,20.28 19.79,19.8 C20.27,19.32 20.51,18.74 20.51,18.07 L20.51,16.34 L20.47,16.31 L15.72,12.26 C15.55,12.1 15.35,12.02 15.1,12.01 Z M18.04,3.51 L5.94,3.52 C5.33,3.52 4.8,3.71 4.36,4.09 L4.22,4.22 C3.74,4.69 3.51,5.26 3.51,5.95 L3.51,18.31 L10.72,13.05 L12,12.12 L13.55,10.99 C13.87,10.75 14.23,10.59 14.62,10.53 C14.79,10.5 14.96,10.49 15.14,10.5 C15.44,10.51 15.73,10.57 15.99,10.68 C16.25,10.78 16.49,10.93 16.71,11.13 L20.47,14.34 L20.47,5.94 C20.47,5.25 20.24,4.68 19.76,4.21 L19.62,4.08 C19.18,3.7 18.65,3.51 18.04,3.51 Z M8.51,7.27 C8.98,7.27 9.4,7.44 9.73,7.78 C10.08,8.13 10.26,8.54 10.26,9.02 C10.26,9.5 10.08,9.91 9.73,10.26 C9.62,10.37 9.51,10.46 9.38,10.53 C9.12,10.69 8.83,10.77 8.51,10.77 C8.31,10.77 8.13,10.74 7.96,10.68 C7.7,10.6 7.47,10.46 7.27,10.26 C6.92,9.91 6.75,9.5 6.75,9.02 C6.75,8.54 6.92,8.13 7.27,7.78 C7.61,7.44 8.03,7.27 8.51,7.27 Z"
              id="形状结合" fill="#000000"></path>
    </g>
</svg>