<svg xmlns="http://www.w3.org/2000/svg" xmlns:xlink="http://www.w3.org/1999/xlink" fill="none" version="1.1" width="24" height="24" viewBox="0 0 24 24"><g><g style="opacity:0;"><rect x="0" y="0" width="24" height="24" rx="0" fill="#000000" fill-opacity="1"/></g><g><g><path d="M18.345455,22.359999Q18.655455,22.139999,18.785456,21.799999Q18.925455,21.469999,18.825455,21.109999L17.505455,15.78Q17.405455,15.440001,17.515455,15.110001Q17.625454,14.77,17.915455,14.56L22.065454,11.0799999Q22.355455,10.8400002,22.445456,10.4899998Q22.545454,10.1400003,22.425455,9.8000002Q22.305454,9.470000299999999,22.025455,9.2399998Q21.755455,9.0100002,21.395454,8.9899998L15.995455,8.5799999Q15.635455,8.5600004,15.355454,8.3600006Q15.085455,8.1700001,14.965455,7.8400002L12.845455,2.75Q12.705455,2.40999985,12.405455,2.20999992Q12.105454,2,11.745455,2Q11.385455,2,11.085455,2.20999992Q10.7854548,2.40999985,10.6454544,2.75L8.5254545,7.8400002Q8.405454599999999,8.1700001,8.1354551,8.3600006Q7.8554544,8.5600004,7.4954548,8.5799999L2.0954544999999998,8.9899998Q1.73545456,9.0100002,1.46545458,9.2399998Q1.18545461,9.470000299999999,1.065454602,9.8000002Q0.945454597,10.1400003,1.045454502,10.4899998Q1.13545454,10.8400002,1.4254545,11.0799999L5.5754547,14.56Q5.8454542,14.8,5.9654541,15.12Q6.0854549,15.440001,5.9854546,15.78L4.6654546,21.109999Q4.5654547,21.469999,4.7054545999999995,21.82Q4.8354547,22.16,5.1454544,22.359999Q5.4354544,22.57,5.795455,22.58Q6.1554546,22.599998,6.4654541,22.379999L11.075455,19.4Q11.385455,19.209999,11.735455,19.209999Q12.085455,19.209999,12.395454,19.4L17.005455,22.379999Q17.265455,22.57,17.675455,22.559999Q18.085455,22.549999,18.345455,22.359999Z" fill="#F9A01E" fill-opacity="1" style="mix-blend-mode:passthrough"/></g></g></g></svg>