<svg xmlns="http://www.w3.org/2000/svg" xmlns:xlink="http://www.w3.org/1999/xlink" fill="none" version="1.1" width="24" height="24" viewBox="0 0 24 24"><g><g style="opacity:0;"><rect x="0" y="0" width="24" height="24" rx="0" fill="#606060" fill-opacity="1"/></g><g><g><path d="M13.25,3C13.664213,3,14,3.33578643,14,3.75C14,4.1642135,13.664213,4.5,13.25,4.5L13.25,4.5L5.0675673,4.5C3.6735735,4.5,2.5390446,5.581667700000001,2.5009865,6.9300239L2.5,17C2.5,18.35731,3.6109021,19.461983,4.9957001000000005,19.499039L5.0675673,19.5L18.932432,19.5C20.326426,19.5,21.460955,18.418332,21.499014,17.069976L21.5,17L21.5,12L21.506847,11.8982296C21.556509,11.5321541,21.870304,11.25,22.25,11.25C22.664213,11.25,23,11.5857868,23,12L23,12L23,17C23,19.209139,21.209139,21,19,21L5,21C2.790861,21,1,19.209139,1,17L1,7C1,4.790861,2.790861,3,5,3L13.25,3Z" fill-rule="evenodd" fill="#606060" fill-opacity="1"/></g><g><path d="M16.995468000000002,2.10184197C16.896937,2.031859752,16.784461999999998,2,16.673093,2C16.3768,2,16.087424,2.22614732,16.087424,2.56181258L16.087424,5.383960500000001L15.7815781,5.416764000000001C11.7156696,5.910508200000001,8.1449006,8.6488981,6.6700455,12.433214C6.47290134,12.938704,6.31524369,13.455855,6.19217272,13.983533C6.18102393,14.031479,6.1650524,14.090462,6.14701803,14.157063C6.02937937,14.591507,5.82396701,15.350101,6.29679745,15.483786C6.33657214,15.49488,6.37375283,15.5,6.40891597,15.5C6.59770167,15.5,6.72307843,15.350373,6.82049757,15.192496C6.95682681,14.970901,7.0896974,14.749589,7.2401494,14.537096C7.5119431,14.153072,7.7949775,13.777298,8.1183631,13.433383C8.8112497,12.697195,9.5871446,12.058863,10.460458299999999,11.5400038C12.1554947,10.5324392,14.115983,10.3091364,16.087424,10.236599L16.087424,12.80586L16.095840000000003,12.903003C16.145481,13.183925,16.407035,13.367104,16.673957,13.367104C16.813169000000002,13.367104,16.953533,13.317607,17.066516,13.206098L22.836729,8.0840745L22.873045,8.040267C23.054625,7.8206625,23.040215,7.4852819,22.836729,7.2835979L17.066516,2.16157444L16.995468000000002,2.10184197ZM17.587635,6.7507219L17.587212,4.6279297L21.029211,7.6849298L17.587212,10.7379303L17.587635,8.6803217L16.032482,8.737542600000001L15.6097221,8.7557111C13.2527843,8.8723416,11.5436668,9.226842900000001,9.9705274,10.0924206L9.7412109,10.222929L9.9742258,9.9645329C11.5840545,8.2424803,13.816447700000001,7.1018333,16.226689999999998,6.8774309L17.587635,6.7507219Z" fill-rule="evenodd" fill="#606060" fill-opacity="1"/></g></g></g></svg>