<?xml version="1.0" standalone="no"?><!DOCTYPE svg PUBLIC "-//W3C//DTD SVG 1.1//EN"
        "http://www.w3.org/Graphics/SVG/1.1/DTD/svg11.dtd">
<svg t="1760232810572" class="icon" viewBox="0 0 1024 1024" version="1.1" xmlns="http://www.w3.org/2000/svg"
     p-id="15880" xmlns:xlink="http://www.w3.org/1999/xlink" width="200" height="200">
    <path d="M1000.96 349.696l-200.4736-255.5904A110.7456 110.7456 0 0 0 714.752 51.2h-404.48a107.8016 107.8016 0 0 0-85.6576 42.9056L24.1152 349.696a115.2 115.2 0 0 0 5.4784 147.3792l406.4256 440.32 5.4784 5.376a111.4624 111.4624 0 0 0 74.7264 29.952h3.456a109.9008 109.9008 0 0 0 76.544-35.328l397.312-438.528a118.144 118.144 0 0 0 7.296-149.248z m-60.1344 96.9984L543.488 885.12a35.4816 35.4816 0 0 1-25.6 11.136 43.008 43.008 0 0 1-25.6-9.2672L84.0448 444.8256a37.504 37.504 0 0 1-1.8176-48.4864l198.656-255.5904a37.7856 37.7856 0 0 1 29.1584-14.9248h404.48a37.8112 37.8112 0 0 1 29.184 14.9248l200.4736 255.5904a43.0336 43.0336 0 0 1-3.6352 50.3552z m0 0l-235.1104-20.48-189.44 207.0784-195.0208-210.816a36.8128 36.8128 0 0 0-52.864-1.8688 38.4 38.4 0 0 0-1.8176 52.2496l196.8384 212.6592 3.6352 3.7376a73.1392 73.1392 0 0 0 103.8848-3.7376l189.44-210.816a36.5568 36.5568 0 1 0-54.656-48.4864z m0 0"
          fill="#1296db" p-id="15881"></path>
</svg>