<svg viewBox="0 0 24 24" xmlns="http://www.w3.org/2000/svg" xmlns:xlink="http://www.w3.org/1999/xlink" width="24.000000" height="24.000000" fill="none" customFrame="#000000">
	<g id="编组 5">
		<circle id="椭圆形" cx="12" cy="12" r="12" fill="rgb(239,239,239)" />
		<circle id="椭圆形" cx="12" cy="12" r="11.5" stroke="rgb(151,151,151)" stroke-opacity="0" stroke-width="1" />
		<g id="导航 (4)">
			<path id="路径" d="M6.45731 12.2925C6.2468 12.2927 6.06339 12.149 6.01321 11.9446C5.96303 11.7402 6.05908 11.5279 6.24578 11.4306L16.5112 6.07945C16.7349 5.96282 17.0109 6.04964 17.1275 6.27336C17.2441 6.49708 17.1573 6.77299 16.9336 6.88962L6.66799 12.2407C6.60297 12.2747 6.53069 12.2924 6.45731 12.2925Z" fill="rgb(51,51,51)" fill-rule="evenodd" />
			<path id="形状" d="M13.3755 18.0276C13.231 18.0275 13.095 17.959 13.0089 17.8429C12.9229 17.7268 12.8968 17.5769 12.9387 17.4386L16.2878 6.35736C16.3622 6.11771 16.6161 5.98294 16.8563 6.05554C17.0965 6.12817 17.2331 6.38098 17.1623 6.6217L13.8125 17.7036C13.7541 17.8961 13.5766 18.0276 13.3755 18.0276ZM11.8806 12.6418C11.8904 12.6427 11.9001 12.6427 11.9098 12.6427C12.1566 12.6431 12.3591 12.4471 12.3668 12.2003C12.3745 11.9535 12.1847 11.7452 11.9382 11.7301L6.49286 11.3857C6.32996 11.3755 6.17402 11.4529 6.08374 11.5889C5.99347 11.7249 5.98261 11.8986 6.05521 12.0448C6.12781 12.1909 6.27289 12.2873 6.43576 12.2975L11.8806 12.6418Z" fill="rgb(51,51,51)" fill-rule="evenodd" />
			<path id="路径" d="M13.3689 18.0222C13.1627 18.0221 12.9822 17.8839 12.9283 17.6849L11.4685 12.3056C11.4258 12.1481 11.4703 11.9798 11.5853 11.864C11.7004 11.7483 11.8684 11.7027 12.0262 11.7444C12.1839 11.7862 12.3074 11.9089 12.3502 12.0664L13.8094 17.4457C13.8411 17.5626 13.825 17.6873 13.7648 17.7924C13.7045 17.8975 13.605 17.9744 13.4881 18.0061C13.4492 18.0168 13.4092 18.0222 13.3689 18.0222Z" fill="rgb(51,51,51)" fill-rule="evenodd" />
		</g>
	</g>
</svg>
