<svg viewBox="0 0 24 24" xmlns="http://www.w3.org/2000/svg" xmlns:xlink="http://www.w3.org/1999/xlink" width="24.000000" height="24.000000" fill="none" customFrame="#000000">
	<g id="编组 3">
		<circle id="椭圆形备份" cx="12" cy="12" r="12" fill="rgb(239,239,239)" />
		<circle id="椭圆形备份" cx="12" cy="12" r="11.5" stroke="rgb(151,151,151)" stroke-opacity="0" stroke-width="1" />
		<g id="3.1电话 (1)">
			<path id="形状" d="M17.8325 14.4689L17.6465 14.2298L17.6396 14.2226C17.5789 14.1588 17.4066 13.9835 17.1247 13.7415C16.7878 13.4515 16.1865 13.0239 16.1391 12.9922L15.2979 12.4842C15.1435 12.4068 14.9797 12.3906 14.8694 12.3906C14.7496 12.3906 14.6316 12.4098 14.5285 12.4461C14.1646 12.5732 13.8251 13.1466 13.7306 13.3198C13.6869 13.3998 13.639 13.4956 13.598 13.5798L13.5847 13.6064C13.5334 13.7086 13.4761 13.8232 13.4154 13.9348C13.3555 14.0425 13.2272 14.152 13.0972 14.152C13.057 14.152 13.0194 14.1422 12.9831 14.1216C12.4194 13.7979 11.7519 13.3788 11.0711 12.7228C10.303 11.9822 9.84713 11.3967 9.59484 10.8254C9.57943 10.7863 9.58114 10.609 9.6812 10.5596C9.81933 10.4908 9.93181 10.4457 10.031 10.4054L10.0541 10.3954C10.197 10.3374 10.3325 10.2827 10.4869 10.1886C10.5536 10.1456 10.5891 10.126 10.6194 10.1089L10.6348 10.0997C10.6904 10.0695 10.7426 10.0407 10.9025 9.9329C10.9094 9.92798 10.9385 9.90403 10.9693 9.87772L11.0719 9.78492C11.34 9.5264 11.4281 9.146 11.296 8.81675L11.2498 8.68354C11.249 8.68009 11.0787 8.28409 10.8059 7.81351C10.6733 7.58576 10.4723 7.28299 10.2944 7.04267C9.81377 6.39457 9.36901 6.18738 9.36687 6.18653C9.36217 6.18396 9.24669 6.12259 9.17574 6.09031C8.88579 5.96628 8.55819 5.97077 8.26571 6.09906C7.82863 6.26328 7.56051 6.48737 7.27529 6.72559L7.21282 6.77903C6.36608 7.48591 5.90746 8.40812 6.01565 9.18708C6.17794 10.365 7.53869 12.7694 9.30486 14.4715C11.0702 16.1722 13.5561 17.4795 14.7702 17.6339C14.8621 17.6459 14.9566 17.6519 15.0511 17.6519C15.9282 17.6519 16.6124 17.1169 17.1098 16.6508C17.3578 16.4181 17.6854 16.0345 17.8599 15.6548C18.0138 15.3212 18.0874 14.8354 17.8325 14.4689ZM10.4509 13.3656C9.59649 12.5428 9.07989 11.8697 8.77712 11.1848C8.60265 10.7912 8.68307 10.0562 9.28518 9.75861C9.45281 9.67588 9.5888 9.61985 9.71325 9.56983C9.83895 9.51914 9.92748 9.48322 10.0156 9.42933C10.1105 9.36927 10.1584 9.34296 10.1978 9.32157C10.238 9.29825 10.2769 9.27686 10.3902 9.20203C10.3971 9.19455 10.409 9.18323 10.4201 9.17273L10.4462 9.14688C10.4543 9.13895 10.459 9.13404 10.4608 9.1319C10.4599 9.1319 10.4591 9.12806 10.4561 9.12101L10.4167 9.00275C10.4133 8.99613 10.4094 8.9878 10.4047 8.97815C10.2837 8.72028 10.1584 8.4791 10.0327 8.26099C9.91808 8.06342 9.73934 7.79358 9.57598 7.57462C9.2484 7.13245 8.96316 6.98322 8.96017 6.98172L8.93194 6.96738C8.89944 6.94983 8.84643 6.92228 8.81478 6.90732C8.79082 6.89725 8.76302 6.8917 8.73693 6.8917C8.70016 6.8917 8.65612 6.90345 8.60137 6.92655C8.28451 7.0463 8.11129 7.19147 7.84957 7.4115L7.78499 7.46473C7.18288 7.96766 6.83565 8.59543 6.90063 9.06498C7.02379 9.95554 8.2336 12.1986 9.92406 13.8279C11.6201 15.4619 13.9554 16.6298 14.8834 16.7474C14.9437 16.7555 15.0036 16.7594 15.0614 16.7594C15.4992 16.7594 15.9291 16.5323 16.4995 15.9986C16.6774 15.8318 16.9276 15.5436 17.0486 15.281C17.1042 15.1591 17.114 15.0214 17.1042 14.9847L16.9674 14.8093C16.9622 14.8059 16.9571 14.8003 16.9489 14.7918C16.9028 14.7465 16.7612 14.6066 16.5419 14.4184C16.2904 14.2016 15.8418 13.8762 15.6605 13.7466L15.6481 13.7381L14.901 13.2865C14.8877 13.2852 14.8646 13.2848 14.8484 13.2856C14.7898 13.3386 14.6551 13.493 14.5135 13.7483C14.4874 13.7975 14.4588 13.8552 14.4272 13.9173L14.3989 13.9754C14.3305 14.1131 14.2681 14.2384 14.1975 14.3671C14.0093 14.7062 13.5971 15.0483 13.0976 15.0483C12.9035 15.0483 12.7149 14.9974 12.5387 14.897C11.925 14.5442 11.1976 14.0862 10.4509 13.3656Z" fill="rgb(35,31,32)" fill-rule="evenodd" />
		</g>
	</g>
</svg>
