<svg width="28.000000" height="28.000000" viewBox="0 0 28 28" fill="none" xmlns="http://www.w3.org/2000/svg" xmlns:xlink="http://www.w3.org/1999/xlink">
	<desc>
			Created with Pixso.
	</desc>
	<defs/>
	<rect id="icon_添加" width="28.000000" height="28.000000" fill="#FFFFFF" fill-opacity="0"/>
	<rect id="Rectangle 2" rx="14.000000" width="28.000000" height="28.000000" fill="#000000" fill-opacity="0.098039"/>
	<path id="path" d="M21.26 13.1C21.52 13.1 21.73 13.18 21.91 13.35C22.08 13.53 22.16 13.74 22.16 14C22.16 14.25 22.08 14.46 21.91 14.64C21.73 14.81 21.52 14.89 21.26 14.89L14.89 14.89L14.89 21.27C14.89 21.52 14.81 21.73 14.64 21.91C14.46 22.08 14.25 22.16 13.99 22.16C13.74 22.16 13.53 22.08 13.35 21.91C13.18 21.73 13.1 21.52 13.1 21.27L13.1 14.89L6.72 14.89C6.47 14.89 6.26 14.81 6.08 14.64C5.91 14.46 5.83 14.25 5.83 14C5.83 13.74 5.91 13.53 6.08 13.35C6.26 13.18 6.47 13.1 6.72 13.1L13.1 13.1L13.1 6.72C13.1 6.47 13.18 6.26 13.35 6.08C13.53 5.91 13.74 5.83 13.99 5.83C14.25 5.83 14.46 5.91 14.64 6.08C14.81 6.26 14.89 6.47 14.89 6.72L14.89 13.1L21.26 13.1Z" fill="#FFFFFF" fill-opacity="1.000000" fill-rule="nonzero"/>
</svg>
