<svg width="24.000000" height="24.000000" viewBox="0 0 24 24" fill="none" xmlns="http://www.w3.org/2000/svg" xmlns:xlink="http://www.w3.org/1999/xlink">
	<desc>
			Created with Pixso.
	</desc>
	<defs>
		<clipPath id="clip50_2818">
			<rect width="24.000000" height="24.000000" fill="white" fill-opacity="0"/>
		</clipPath>
	</defs>
	<g clip-path="url(#clip50_2818)">
		<g opacity="0.000000">
			<rect width="24.000000" height="24.000000" fill="#D8D8D8" fill-opacity="1.000000"/>
			<rect width="24.000000" height="24.000000" stroke="#000000" stroke-opacity="0" stroke-width="1.000000"/>
		</g>
		<path d="M12 2C17.51 2 22 6.48 22 12C22 17.51 17.51 22 12 22C6.48 22 2 17.51 2 12C2 6.48 6.48 2 12 2ZM12.02 6.25C11.6 6.25 11.27 6.58 11.27 7L11.27 11.25L7.02 11.25C6.6 11.25 6.27 11.58 6.27 12C6.27 12.41 6.6 12.75 7.02 12.75L11.27 12.75L11.27 17C11.27 17.41 11.6 17.75 12.02 17.75C12.43 17.75 12.77 17.41 12.77 17L12.77 12.75L17.02 12.75C17.43 12.75 17.77 12.41 17.77 12C17.77 11.58 17.43 11.25 17.02 11.25L12.77 11.25L12.77 7C12.77 6.58 12.43 6.25 12.02 6.25Z" fill="#000000" fill-opacity="0.400000" fill-rule="evenodd"/>
	</g>
</svg>
