<svg width="24.000000" height="24.000000" viewBox="0 0 24 24" fill="none" xmlns="http://www.w3.org/2000/svg" xmlns:xlink="http://www.w3.org/1999/xlink">
	<desc>
			Created with Pixso.
	</desc>
	<defs>
		<clipPath id="clip41_4006">
			<rect width="24.000000" height="24.000000" fill="white" fill-opacity="0"/>
		</clipPath>
	</defs>
	<g clip-path="url(#clip41_4006)">
		<rect width="24.000000" height="24.000000" fill="#000000" fill-opacity="0"/>
		<path d="M12 4.5C14.81 4.5 16.24 6.16 17.35 8.56C19.98 8.97 22 11.25 22 14C22 17.03 19.53 19.5 16.5 19.5L8.5 19.5L8.25 19.49C8.17 19.49 8.08 19.5 8 19.5L7 19.5C4.23 19.5 2 17.26 2 14.5L2 14.28L2.01 14.06L2.04 13.82L2.07 13.62L2.1 13.46L2.15 13.25L2.24 12.96L2.32 12.72L2.38 12.56L2.51 12.28L2.64 12.04L2.79 11.79L2.89 11.63L3.07 11.4L3.17 11.28L3.29 11.14L3.46 10.96L3.61 10.82C3.71 10.72 3.89 10.57 4.01 10.49L4.13 10.4L4.37 10.24L4.55 10.13L4.85 9.98L5.04 9.89L5.2 9.83L5.51 9.72L5.67 9.67L5.92 9.61L6.25 9.55C7.1 6.64 8.81 4.5 12 4.5ZM12 6C9.53 6 8.39 7.63 7.71 9.95C7.63 10.23 7.48 10.47 7.27 10.66L7.14 10.76C7 10.86 6.85 10.94 6.69 10.99L6.52 11.03L6.28 11.07L6.09 11.11L5.76 11.22L5.66 11.26L5.54 11.31L5.31 11.43L5.2 11.49L5.01 11.61L4.9 11.69L4.79 11.78L4.64 11.9L4.42 12.13L4.27 12.29L4.14 12.47L3.96 12.74L3.88 12.9L3.78 13.12L3.73 13.22L3.68 13.37L3.61 13.59L3.58 13.74L3.55 13.85L3.53 13.99L3.51 14.16L3.5 14.31L3.5 14.5C3.5 16.36 4.96 17.89 6.8 17.99L7 18L8 18L8.29 17.99L8.5 18L16.5 18C18.7 18 20.5 16.2 20.5 14C20.5 12.02 19.05 10.35 17.12 10.04C16.62 9.97 16.2 9.65 15.99 9.19C15.1 7.26 14.16 6 12 6ZM12.53 17.03L15.03 14.51C15.33 14.22 15.33 13.74 15.03 13.45C14.77 13.18 14.35 13.16 14.06 13.38L12.75 14.68L12.75 10.5C12.75 10.08 12.41 9.75 12 9.75C11.62 9.75 11.3 10.03 11.25 10.39L11.25 10.5L11.25 14.69L10.03 13.46C9.73 13.17 9.26 13.17 8.96 13.46C8.7 13.73 8.67 14.15 8.89 14.44L11.46 17.03C11.76 17.32 12.23 17.32 12.53 17.03Z" fill="#FFFFFF" fill-opacity="0.600000" fill-rule="nonzero"/>
	</g>
</svg>
