<svg width="16.000000" height="16.000000" viewBox="0 0 16 16" fill="none" xmlns="http://www.w3.org/2000/svg" xmlns:xlink="http://www.w3.org/1999/xlink">
	<desc>
			Created with Pixso.
	</desc>
	<defs>
		<clipPath id="clip41_3986">
			<rect width="16.000000" height="16.000000" fill="white" fill-opacity="0"/>
		</clipPath>
	</defs>
	<g clip-path="url(#clip41_3986)">
		<g opacity="0.000000">
			<rect width="16.000000" height="16.000000" fill="#000000" fill-opacity="0.898039"/>
		</g>
		<path d="M8 1.33C9.47 1.33 10.88 1.81 12.03 2.69C12.25 2.86 12.29 3.17 12.13 3.39C11.96 3.61 11.64 3.65 11.42 3.48C10.45 2.74 9.25 2.33 8 2.33C4.87 2.33 2.33 4.87 2.33 7.99C2.33 11.12 4.87 13.66 8 13.66C11.12 13.66 13.66 11.12 13.66 7.99C13.66 6.74 13.25 5.55 12.51 4.57C12.34 4.35 12.38 4.03 12.6 3.87C12.82 3.7 13.14 3.74 13.3 3.96C14.18 5.11 14.66 6.52 14.66 7.99C14.66 11.68 11.68 14.66 8 14.66C4.31 14.66 1.33 11.68 1.33 7.99C1.33 4.31 4.31 1.33 8 1.33ZM8 10.66C8.36 10.66 8.66 10.96 8.66 11.33C8.66 11.69 8.36 11.99 8 11.99C7.63 11.99 7.33 11.69 7.33 11.33C7.33 10.96 7.63 10.66 8 10.66ZM8.41 3.86C9.34 4.03 10.1 4.79 10.26 5.72C10.43 6.68 10 7.6 9.22 8.09L9.11 8.15C8.76 8.35 8.53 8.66 8.5 9L8.5 9.09L8.5 9.52C8.5 9.8 8.27 10.02 8 10.02C7.74 10.02 7.53 9.83 7.5 9.59L7.5 9.52L7.5 9.09C7.5 8.38 7.88 7.74 8.51 7.35L8.62 7.28C9.11 7.01 9.38 6.47 9.28 5.89C9.19 5.37 8.75 4.94 8.24 4.85C7.42 4.71 6.69 5.32 6.69 6.13C6.69 6.41 6.47 6.63 6.19 6.63C5.91 6.63 5.69 6.41 5.69 6.13C5.69 4.7 6.98 3.61 8.41 3.86Z" fill="#000000" fill-opacity="0.898039" fill-rule="evenodd"/>
	</g>
</svg>
