<svg viewBox="0 0 1024 1024" xmlns="http://www.w3.org/2000/svg" xmlns:xlink="http://www.w3.org/1999/xlink" width="1024.000000" height="1024.000000" fill="none">
	<defs>
		<clipPath id="clipPath_0">
			<rect width="682.000000" height="682.000000" x="171.000000" y="171.000000" fill="rgb(255,255,255)" />
		</clipPath>
	</defs>
	<rect id="Foreground" width="1024.000000" height="1024.000000" x="0.000000" y="0.000000" fill="rgb(137,129,247)" style="mix-blend-mode:normal" />
	<g id="svg" clip-path="url(#clipPath_0)" customFrame="url(#clipPath_0)">
		<rect id="svg" width="682.000000" height="682.000000" x="171.000000" y="171.000000" />
		<path id="矢量 2" d="M221.774 785C218.506 785 215.27 784.68 212.064 784.041C208.859 783.402 205.747 782.455 202.727 781.202C199.708 779.949 196.84 778.413 194.123 776.594C191.405 774.775 188.891 772.707 186.58 770.392C184.269 768.077 182.206 765.558 180.39 762.835C178.575 760.113 177.041 757.239 175.79 754.214C174.54 751.189 173.595 748.071 172.957 744.86C172.32 741.649 172 738.406 172 735.131L172 342.868C172 339.594 172.32 336.351 172.957 333.14C173.595 329.929 174.54 326.811 175.79 323.786C177.041 320.761 178.575 317.887 180.39 315.164C182.206 312.442 184.269 309.923 186.58 307.608C188.891 305.293 191.405 303.225 194.123 301.406C196.84 299.587 199.708 298.051 202.728 296.798C205.747 295.544 208.859 294.598 212.064 293.959C215.27 293.32 218.506 293 221.774 293L796.226 293C799.494 293 802.73 293.32 805.936 293.959C809.141 294.598 812.253 295.544 815.273 296.798C818.292 298.051 821.16 299.587 823.877 301.406C826.595 303.225 829.109 305.293 831.42 307.608C833.73 309.923 835.794 312.442 837.61 315.165C839.425 317.887 840.959 320.761 842.209 323.786C843.46 326.811 844.405 329.929 845.042 333.14C845.68 336.351 846 339.594 846 342.868L846 735.125C846 738.4 845.68 741.642 845.042 744.854C844.405 748.065 843.46 751.183 842.209 754.208C840.959 757.233 839.425 760.107 837.61 762.829C835.794 765.552 833.73 768.071 831.42 770.386C829.109 772.701 826.594 774.768 823.877 776.588C821.16 778.407 818.292 779.943 815.272 781.196C812.253 782.449 809.141 783.396 805.936 784.035C802.73 784.674 799.494 784.993 796.226 784.994L221.774 784.994L221.774 785Z" fill="rgb(255,255,255)" fill-rule="nonzero" />
		<path id="矢量 3" d="M846 676L846 735.238C846 738.506 845.68 741.741 845.042 744.946C844.405 748.15 843.46 751.262 842.209 754.28C840.959 757.299 839.425 760.166 837.61 762.883C835.794 765.6 833.73 768.113 831.42 770.423C829.109 772.734 826.594 774.796 823.877 776.612C821.16 778.427 818.292 779.96 815.272 781.21C812.253 782.461 809.141 783.405 805.936 784.043C802.73 784.681 799.494 785 796.226 785L221.774 785C218.506 785 215.27 784.681 212.064 784.043C208.859 783.405 205.747 782.461 202.727 781.211C199.708 779.96 196.84 778.427 194.123 776.612C191.405 774.797 188.891 772.734 186.58 770.423C184.269 768.113 182.206 765.6 180.39 762.883C178.575 760.166 177.041 757.299 175.79 754.28C174.54 751.262 173.595 748.15 172.957 744.946C172.32 741.741 172 738.506 172 735.238L172 676L846 676Z" fill="rgb(221,219,255)" fill-rule="nonzero" />
		<path id="矢量 4" d="M638.721 309.001C638.721 312.349 638.394 315.666 637.738 318.95C637.082 322.235 636.112 325.424 634.826 328.518C633.54 331.612 631.963 334.551 630.097 337.335C628.23 340.119 626.108 342.696 623.732 345.064C621.356 347.431 618.771 349.546 615.977 351.406C613.183 353.267 610.234 354.838 607.129 356.119C604.025 357.401 600.825 358.368 597.529 359.021C594.233 359.675 590.905 360.001 587.545 360.001L431.008 360.001C427.65 359.998 424.324 359.669 421.031 359.013C417.738 358.357 414.54 357.388 411.439 356.105C408.337 354.822 405.391 353.25 402.6 351.389C399.809 349.528 397.226 347.414 394.853 345.046C392.48 342.678 390.361 340.103 388.496 337.32C386.631 334.536 385.057 331.599 383.772 328.506C382.488 325.414 381.518 322.227 380.864 318.944C380.209 315.662 379.881 312.347 379.881 309.001C379.881 305.654 380.209 302.339 380.864 299.057C381.518 295.775 382.488 292.587 383.772 289.495C385.057 286.403 386.631 283.465 388.496 280.682C390.361 277.898 392.48 275.323 394.853 272.955C397.226 270.588 399.809 268.473 402.6 266.612C405.391 264.751 408.337 263.179 411.439 261.896C414.54 260.614 417.738 259.644 421.031 258.988C424.324 258.333 427.65 258.003 431.008 258L587.545 258C590.905 258 594.234 258.326 597.529 258.979C600.825 259.632 604.026 260.599 607.13 261.881C610.235 263.162 613.184 264.733 615.979 266.593C618.773 268.454 621.358 270.568 623.734 272.936C626.11 275.304 628.232 277.88 630.099 280.665C631.965 283.449 633.542 286.389 634.828 289.483C636.113 292.577 637.084 295.766 637.739 299.051C638.394 302.335 638.722 305.652 638.721 309.001L638.721 309.001ZM308.309 317.999C308.309 346.165 300.319 369 290.458 369L235.852 369C225.99 369 218 346.165 218 317.999C218 289.833 225.99 266.999 235.852 266.999L290.458 266.999C300.313 266.999 308.309 289.833 308.309 317.999ZM799 317.999C799 346.165 791.01 369 781.148 369L726.542 369C716.681 369 708.691 346.165 708.691 317.999C708.691 289.833 716.681 266.999 726.542 266.999L781.148 266.999C791.003 266.999 799 289.833 799 317.999Z" fill="rgb(255,255,255)" fill-rule="nonzero" />
		<path id="矢量 5" d="M846 402L846 342.762C846 339.494 845.68 336.259 845.042 333.054C844.405 329.85 843.46 326.738 842.209 323.72C840.959 320.701 839.425 317.834 837.61 315.117C835.794 312.4 833.73 309.887 831.42 307.577C829.109 305.266 826.595 303.204 823.877 301.388C821.16 299.573 818.292 298.04 815.273 296.79C812.253 295.539 809.141 294.595 805.936 293.957C802.73 293.319 799.494 293 796.226 293L221.774 293C218.506 293 215.27 293.319 212.064 293.957C208.859 294.595 205.747 295.539 202.728 296.79C199.708 298.04 196.84 299.573 194.123 301.388C191.405 303.204 188.891 305.266 186.58 307.577C184.269 309.887 182.206 312.4 180.39 315.117C178.575 317.834 177.041 320.701 175.79 323.72C174.54 326.738 173.595 329.85 172.957 333.054C172.32 336.259 172 339.494 172 342.762L172 402L846 402Z" fill="rgb(221,219,255)" fill-rule="nonzero" />
		<path id="矢量 6" d="M322 540.454C321.997 546.596 322.294 552.722 322.892 558.834C323.49 564.946 324.385 571.014 325.578 577.038C326.77 583.061 328.255 589.012 330.031 594.89C331.807 600.767 333.866 606.543 336.208 612.218C338.551 617.893 341.165 623.438 344.051 628.856C346.937 634.273 350.081 639.535 353.484 644.642C356.886 649.749 360.529 654.677 364.414 659.426C368.3 664.174 372.408 668.72 376.739 673.064C381.07 677.407 385.603 681.527 390.338 685.424C395.073 689.321 399.987 692.976 405.08 696.389C410.173 699.802 415.421 702.956 420.824 705.852C426.226 708.748 431.757 711.371 437.417 713.722C443.077 716.073 448.838 718.14 454.7 719.923C460.563 721.707 466.498 723.197 472.507 724.396C478.516 725.594 484.568 726.495 490.665 727.097C496.762 727.699 502.874 728 509 728C515.126 728 521.238 727.699 527.335 727.097C533.432 726.495 539.484 725.594 545.493 724.396C551.502 723.197 557.437 721.707 563.3 719.923C569.162 718.14 574.923 716.073 580.583 713.722C586.243 711.371 591.774 708.748 597.176 705.852C602.579 702.956 607.827 699.802 612.92 696.389C618.013 692.976 622.928 689.321 627.662 685.424C632.397 681.527 636.93 677.407 641.261 673.064C645.592 668.72 649.7 664.174 653.586 659.426C657.471 654.677 661.114 649.75 664.517 644.642C667.919 639.535 671.063 634.273 673.949 628.856C676.835 623.438 679.449 617.893 681.792 612.218C684.134 606.543 686.193 600.767 687.969 594.89C689.745 589.012 691.23 583.061 692.422 577.038C693.615 571.014 694.51 564.946 695.108 558.834C695.706 552.722 696.003 546.596 696 540.454C696 534.315 695.7 528.19 695.1 522.081C694.499 515.971 693.602 509.905 692.407 503.884C691.212 497.862 689.726 491.914 687.948 486.039C686.17 480.164 684.109 474.391 681.765 468.719C679.422 463.047 676.806 457.503 673.919 452.089C671.032 446.674 667.887 441.415 664.485 436.31C661.082 431.206 657.438 426.28 653.553 421.535C649.668 416.789 645.56 412.245 641.229 407.904C636.898 403.563 632.366 399.445 627.631 395.55C622.897 391.655 617.984 388.003 612.892 384.592C607.799 381.181 602.552 378.028 597.151 375.134C591.75 372.24 586.22 369.619 580.562 367.269C574.904 364.92 569.144 362.854 563.283 361.072C557.422 359.29 551.489 357.8 545.482 356.602C539.475 355.404 533.424 354.504 527.329 353.903C521.234 353.301 515.125 353 509 353C502.876 353 496.766 353.301 490.671 353.903C484.576 354.504 478.525 355.404 472.518 356.602C466.511 357.8 460.578 359.29 454.717 361.072C448.856 362.854 443.096 364.92 437.438 367.269C431.78 369.619 426.25 372.24 420.849 375.134C415.448 378.028 410.201 381.181 405.108 384.592C400.016 388.003 395.103 391.655 390.368 395.55C385.634 399.445 381.102 403.563 376.771 407.904C372.44 412.245 368.332 416.789 364.447 421.535C360.562 426.28 356.918 431.206 353.515 436.31C350.113 441.415 346.968 446.674 344.081 452.089C341.194 457.503 338.578 463.047 336.235 468.719C333.891 474.391 331.83 480.164 330.052 486.039C328.274 491.914 326.788 497.862 325.593 503.884C324.398 509.905 323.501 515.971 322.9 522.081C322.3 528.19 322 534.315 322 540.454L322 540.454Z" fill="rgb(137,129,247)" fill-rule="nonzero" />
		<path id="矢量 7" d="M370 541C370 545.552 370.222 550.094 370.667 554.624C371.112 559.155 371.776 563.653 372.661 568.118C373.546 572.582 374.647 576.993 375.964 581.35C377.28 585.706 378.807 589.987 380.543 594.193C382.279 598.399 384.216 602.509 386.354 606.524C388.492 610.539 390.821 614.439 393.341 618.224C395.862 622.009 398.56 625.662 401.438 629.181C404.316 632.7 407.358 636.069 410.566 639.288C413.773 642.507 417.13 645.56 420.637 648.448C424.143 651.336 427.782 654.045 431.553 656.574C435.325 659.103 439.211 661.441 443.212 663.587C447.212 665.733 451.308 667.677 455.498 669.419C459.689 671.161 463.955 672.693 468.296 674.015C472.636 675.336 477.031 676.441 481.48 677.329C485.929 678.217 490.41 678.884 494.925 679.331C499.439 679.777 503.964 680 508.5 680C513.036 680 517.561 679.777 522.075 679.331C526.59 678.884 531.071 678.217 535.52 677.329C539.969 676.441 544.364 675.336 548.704 674.015C553.045 672.693 557.311 671.161 561.502 669.419C565.692 667.677 569.788 665.733 573.788 663.587C577.789 661.441 581.675 659.103 585.446 656.574C589.218 654.045 592.857 651.336 596.363 648.448C599.87 645.56 603.227 642.507 606.434 639.288C609.642 636.069 612.684 632.7 615.562 629.181C618.44 625.662 621.138 622.009 623.659 618.224C626.179 614.439 628.508 610.539 630.646 606.524C632.784 602.509 634.721 598.399 636.457 594.193C638.193 589.987 639.719 585.706 641.036 581.35C642.353 576.993 643.454 572.582 644.339 568.117C645.224 563.653 645.888 559.155 646.333 554.624C646.778 550.094 647 545.552 647 541C647 536.448 646.778 531.906 646.333 527.376C645.888 522.845 645.224 518.347 644.339 513.882C643.454 509.417 642.353 505.007 641.036 500.65C639.719 496.294 638.193 492.013 636.457 487.807C634.721 483.601 632.784 479.491 630.646 475.476C628.508 471.461 626.179 467.561 623.659 463.776C621.138 459.991 618.44 456.338 615.562 452.819C612.684 449.3 609.642 445.931 606.434 442.712C603.227 439.493 599.87 436.44 596.363 433.552C592.857 430.664 589.218 427.955 585.446 425.426C581.675 422.897 577.789 420.559 573.788 418.413C569.788 416.267 565.692 414.323 561.502 412.581C557.311 410.839 553.045 409.307 548.704 407.985C544.364 406.664 539.969 405.559 535.52 404.671C531.071 403.783 526.59 403.116 522.075 402.669C517.561 402.223 513.036 402 508.5 402C503.964 402 499.439 402.223 494.925 402.669C490.41 403.116 485.929 403.783 481.48 404.671C477.031 405.559 472.636 406.664 468.296 407.985C463.955 409.307 459.689 410.839 455.498 412.581C451.308 414.323 447.212 416.267 443.212 418.413C439.211 420.559 435.325 422.897 431.553 425.426C427.782 427.955 424.143 430.664 420.637 433.552C417.13 436.44 413.773 439.493 410.566 442.712C407.358 445.931 404.316 449.3 401.438 452.819C398.56 456.338 395.862 459.991 393.341 463.776C390.821 467.561 388.492 471.461 386.354 475.476C384.216 479.491 382.279 483.601 380.543 487.807C378.807 492.013 377.28 496.294 375.964 500.65C374.647 505.007 373.546 509.417 372.661 513.882C371.776 518.347 371.112 522.845 370.667 527.376C370.222 531.906 370 536.448 370 541Z" fill="rgb(255,255,255)" style="mix-blend-mode:normal" fill-rule="nonzero" />
		<path id="矢量 8" d="M796 342C796 343.989 795.615 345.903 794.845 347.74C794.075 349.578 792.979 351.2 791.556 352.607C790.134 354.013 788.493 355.097 786.634 355.858C784.775 356.619 782.84 357 780.828 357L723.172 357C721.16 357 719.225 356.619 717.366 355.858C715.507 355.097 713.866 354.013 712.444 352.607C711.021 351.2 709.925 349.578 709.155 347.74C708.385 345.902 708 343.989 708 342C708 340.011 708.385 338.097 709.155 336.26C709.925 334.422 711.021 332.8 712.444 331.393C713.866 329.987 715.507 328.903 717.366 328.142C719.225 327.381 721.16 327 723.172 327L780.828 327C782.84 327 784.775 327.381 786.634 328.142C788.493 328.903 790.134 329.987 791.556 331.393C792.979 332.8 794.075 334.422 794.845 336.26C795.615 338.097 796 340.011 796 342Z" fill="rgb(255,255,255)" fill-rule="nonzero" />
	</g>
</svg>
