<svg viewBox="0 0 16 16" xmlns="http://www.w3.org/2000/svg" xmlns:xlink="http://www.w3.org/1999/xlink" width="16.000000" height="16.000000" fill="none">
	<rect id="svg" width="16.000000" height="16.000000" x="0.000000" y="0.000000" />
	<g id="编组">
		<rect id="矩形" width="16.000000" height="16.000000" x="0.000000" y="0.000000" opacity="0" fill="rgb(137,129,247)" style="mix-blend-mode:normal" />
		<path id="形状结合" d="M10.4406 2C11.1576 2 11.8198 2.3839 12.1762 3.00619L13.7369 5.73194C14.1317 6.4213 14.081 7.27891 13.6079 7.917L9.69698 13.1913C9.03907 14.0785 7.78646 14.2645 6.8992 13.6066C6.75509 13.4997 6.62601 13.3739 6.51544 13.2327L2.42756 8.00925C1.89421 7.32775 1.85967 6.38053 2.34197 5.66199L4.20574 2.88536C4.57718 2.33199 5.19987 2 5.86634 2L10.4406 2ZM10.9692 6.93525C10.7494 6.76816 10.4357 6.81094 10.2686 7.03079L8.13802 9.83267L6.06861 7.03591C5.89648 6.86334 5.57106 6.78208 5.36927 6.93141C5.14729 7.09567 5.10051 7.40878 5.26477 7.63076L7.73144 10.9641C7.94093 11.1737 8.34525 11.2142 8.53144 10.9692L11.0648 7.63588C11.1822 7.42231 11.1691 7.08715 10.9692 6.93525Z" fill="rgb(137,129,247)" style="mix-blend-mode:normal" fill-rule="evenodd" />
	</g>
</svg>
