<svg width="40" height="40" viewBox="0 0 40 40" fill="none" xmlns="http://www.w3.org/2000/svg">
<g id="Frame">
<path id="Vector" d="M28.0556 13.1889H25.2778V11.8C25.2778 8.88889 22.9111 6.52222 20 6.52222C17.0889 6.52222 14.7222 8.88889 14.7222 11.8V13.1889H11.9445V11.8C11.9445 7.35556 15.5556 3.74445 20 3.74445C24.4445 3.74445 28.0556 7.35556 28.0556 11.8V13.1889Z" fill="#FBB535"/>
<path id="Vector_2" d="M4.86667 12.7667C4.94445 11.6 5.91112 10.6889 7.08889 10.6889H32.9222C34.0889 10.6889 35.0667 11.6 35.1444 12.7667L36.3667 31.5111C36.4065 32.1178 36.3214 32.7261 36.1166 33.2985C35.9119 33.8709 35.5918 34.3952 35.1762 34.8389C34.7606 35.2826 34.2584 35.6363 33.7006 35.8781C33.1428 36.1199 32.5413 36.2446 31.9333 36.2445H8.07778C5.51112 36.2445 3.47778 34.0778 3.64445 31.5111L4.86667 12.7667Z" fill="url(#paint0_linear_105_7891)"/>
<path id="Vector_3" d="M20 25.4111C14.9445 25.4111 10.8334 21.8 10.8334 17.3556V15.9667H13.6112V17.3556C13.6112 20.2667 16.4778 22.6333 20 22.6333C23.5223 22.6333 26.3889 20.2667 26.3889 17.3556V15.9667H29.1667V17.3556C29.1667 21.8 25.0556 25.4111 20 25.4111Z" fill="white"/>
</g>
<defs>
<linearGradient id="paint0_linear_105_7891" x1="20.0056" y1="10.6889" x2="20.0056" y2="36.2445" gradientUnits="userSpaceOnUse">
<stop stop-color="#FF8031"/>
<stop offset="1" stop-color="#FBB535"/>
</linearGradient>
</defs>
</svg>
