<svg width="40.000000" height="40.000000" viewBox="0 0 40 40" fill="none" xmlns="http://www.w3.org/2000/svg" xmlns:xlink="http://www.w3.org/1999/xlink">
	<desc>
			Created with Pixso.
	</desc>
	<defs/>
	<rect id="ic_public_trash" rx="20.000000" width="40.000000" height="40.000000" fill="#000000" fill-opacity="0.047059"/>
	<path id="矢量 216" d="M8.76 12.1L14.3 12.1L15.15 9.82C15.21 9.66 15.28 9.51 15.37 9.36C15.43 9.26 15.49 9.16 15.57 9.07C15.65 8.96 15.75 8.86 15.85 8.76C15.95 8.66 16.06 8.58 16.18 8.49C16.3 8.41 16.42 8.34 16.55 8.28C16.67 8.22 16.8 8.17 16.93 8.13C17.21 8.04 17.49 8 17.78 8L22.09 8C22.38 8 22.67 8.04 22.94 8.13C23.21 8.21 23.46 8.33 23.69 8.5C23.93 8.66 24.13 8.85 24.3 9.07C24.48 9.3 24.62 9.55 24.72 9.82L25.57 12.1L31.23 12.1C31.66 12.1 32 12.43 32 12.86C32 13.29 31.66 13.63 31.23 13.63L25.04 13.63C24.86 13.63 24.71 13.59 24.6 13.5C24.48 13.42 24.38 13.3 24.32 13.13L23.29 10.35C23.24 10.23 23.17 10.11 23.09 10.01C23.02 9.91 22.93 9.83 22.82 9.75C22.6 9.6 22.36 9.53 22.09 9.53L17.78 9.53C17.51 9.53 17.27 9.6 17.05 9.75C16.94 9.83 16.85 9.91 16.78 10.01C16.69 10.11 16.63 10.23 16.58 10.36L15.54 13.13C15.48 13.3 15.39 13.42 15.27 13.5C15.15 13.59 15 13.63 14.83 13.63L8.76 13.63C8.33 13.63 8 13.29 8 12.86C8 12.43 8.33 12.1 8.76 12.1ZM29.77 15.14L28.65 28.49C28.61 28.97 28.48 29.43 28.27 29.87C28.06 30.29 27.78 30.66 27.43 30.98C27.25 31.15 27.05 31.3 26.85 31.43C26.66 31.54 26.46 31.64 26.25 31.73C26.04 31.81 25.83 31.87 25.61 31.92C25.36 31.97 25.1 32 24.84 32L15.15 32C14.89 32 14.63 31.97 14.37 31.92C14.16 31.87 13.94 31.81 13.74 31.73C13.53 31.64 13.33 31.54 13.14 31.43C12.93 31.3 12.74 31.15 12.56 30.98C12.21 30.66 11.93 30.29 11.72 29.87C11.62 29.67 11.54 29.46 11.48 29.25C11.4 29 11.35 28.75 11.33 28.48L10.21 15.14L11.75 15.14L12.86 28.36C12.87 28.52 12.9 28.68 12.95 28.84C12.99 28.96 13.03 29.08 13.09 29.19C13.22 29.44 13.38 29.66 13.59 29.86C13.8 30.05 14.04 30.2 14.3 30.3C14.42 30.35 14.54 30.39 14.66 30.41C14.82 30.45 14.98 30.46 15.15 30.46L24.84 30.46C25 30.46 25.16 30.45 25.32 30.41C25.45 30.39 25.57 30.35 25.68 30.3C25.95 30.2 26.18 30.05 26.39 29.86C26.6 29.66 26.77 29.44 26.89 29.19C27.02 28.93 27.1 28.65 27.13 28.36L28.24 15.14L29.77 15.14ZM18.21 18.72L18.21 27.71C18.21 28.13 17.87 28.47 17.44 28.47C17.01 28.47 16.68 28.13 16.68 27.71L16.68 18.72C16.68 18.29 17.01 17.95 17.44 17.95C17.87 17.95 18.21 18.29 18.21 18.72ZM23.31 18.72C23.31 18.29 22.98 17.95 22.55 17.95C22.12 17.95 21.78 18.29 21.78 18.72L21.78 27.71C21.78 28.13 22.12 28.47 22.55 28.47C22.98 28.47 23.31 28.13 23.31 27.71L23.31 18.72Z" fill="#191919" fill-opacity="1.000000" fill-rule="evenodd"/>
</svg>
