<svg viewBox="0 0 12 24" xmlns="http://www.w3.org/2000/svg" xmlns:xlink="http://www.w3.org/1999/xlink" width="12.000000" height="24.000000" fill="none" customFrame="#000000">
  <metadata>
    <agcit_code>agcit_huawei_book_read</agcit_code>
  </metadata>
	<defs>
		<clipPath id="clipPath_3">
			<rect width="12.000000" height="24.000000" x="0.000000" y="0.000000" fill="rgb(255,255,255)" />
		</clipPath>
	</defs>
	<rect id=".Arrow-right small" width="12.000000" height="24.000000" x="0.000000" y="0.000000" />
	<g id="chevron_right" clip-path="url(#clipPath_3)" customFrame="url(#clipPath_3)">
		<rect id="chevron_right" width="12.000000" height="24.000000" x="0.000000" y="0.000000" />
		<rect id="rect" width="12.000000" height="24.000000" x="0.000000" y="0.000000" opacity="0" fill="rgb(0,0,0)" fill-opacity="0.200000003" />
		<g id="g">
			<path id="path" d="M2.81004 18.84C2.98338 19.0133 3.17004 19.0967 3.37004 19.09C3.57004 19.0833 3.74338 19 3.89004 18.84L9.17004 12.77C9.37671 12.5433 9.47671 12.2867 9.47005 12C9.46338 11.7133 9.36338 11.4567 9.17004 11.23L3.89004 5.14001C3.76338 4.98001 3.59004 4.90334 3.37004 4.91001C3.15671 4.91667 2.97671 4.99334 2.83004 5.14001C2.69004 5.28001 2.62004 5.45001 2.62004 5.65001C2.62004 5.85001 2.69004 6.03001 2.83004 6.19001L7.85004 12L2.81004 17.78C2.68338 17.94 2.61338 18.12 2.60004 18.32C2.59338 18.52 2.66338 18.6933 2.81004 18.84Z" fill="rgb(0,0,0)" fill-opacity="0.200000003" fill-rule="nonzero" />
		</g>
	</g>
</svg>
