<svg width="21.529999" height="22.040039" viewBox="0 0 21.53 22.04" fill="none" xmlns="http://www.w3.org/2000/svg" xmlns:xlink="http://www.w3.org/1999/xlink">
  <metadata>
    <agcit_code>agcit_huawei_book_read</agcit_code>
  </metadata>
	<desc>
			Created with Pixso.
	</desc>
	<defs/>
	<path id="path" d="M19.49 7.87C19.36 6.41 18.9 5.08 18.11 3.89C17.31 2.68 16.28 1.74 15.02 1.04C13.74 0.35 12.37 0 10.9 0C9.34 0 7.92 0.35 6.62 1.04C5.31 1.74 4.25 2.68 3.45 3.89C2.64 5.08 2.17 6.41 2.03 7.87C1.45 8.04 0.96 8.36 0.58 8.85C0.19 9.33 0 9.89 0 10.52L0 13C0 13.5 0.12 13.97 0.38 14.39C0.62 14.81 0.96 15.15 1.38 15.39C1.8 15.64 2.26 15.77 2.75 15.77C3.25 15.77 3.71 15.64 4.13 15.39C4.55 15.15 4.88 14.81 5.13 14.39C5.37 13.97 5.5 13.5 5.5 13L5.5 10.52C5.5 9.9 5.32 9.35 4.96 8.87C4.6 8.39 4.13 8.07 3.56 7.89C3.66 6.71 4.05 5.63 4.73 4.66C5.4 3.68 6.28 2.91 7.36 2.35C8.43 1.79 9.62 1.52 10.9 1.52C12.1 1.52 13.22 1.79 14.26 2.35C15.3 2.91 16.15 3.68 16.82 4.66C17.48 5.63 17.87 6.71 18 7.89C17.42 8.07 16.95 8.39 16.59 8.87C16.22 9.35 16.04 9.9 16.04 10.52L16.04 13C16.04 13.6 16.2 14.13 16.54 14.6C16.87 15.08 17.31 15.4 17.86 15.58C17.65 16.81 17.28 17.69 16.76 18.22C16.22 18.74 15.6 19.04 14.88 19.12C14.72 18.73 14.46 18.4 14.1 18.14C13.74 17.89 13.34 17.75 12.92 17.75C12.53 17.75 12.17 17.85 11.85 18.04C11.52 18.24 11.26 18.5 11.07 18.83C10.87 19.15 10.78 19.51 10.78 19.89C10.78 20.28 10.87 20.64 11.07 20.97C11.26 21.29 11.52 21.55 11.85 21.75C12.17 21.94 12.53 22.04 12.92 22.04C13.36 22.04 13.77 21.9 14.13 21.64C14.49 21.37 14.75 21.03 14.91 20.62C15.99 20.52 16.94 20.1 17.75 19.35C18.55 18.59 19.09 17.38 19.35 15.72C19.96 15.59 20.49 15.27 20.91 14.77C21.32 14.27 21.53 13.68 21.53 13L21.53 10.52C21.53 9.89 21.34 9.33 20.96 8.85C20.57 8.36 20.08 8.04 19.49 7.87ZM4 13C4 13.36 3.89 13.66 3.64 13.89C3.41 14.14 3.11 14.25 2.75 14.25C2.41 14.25 2.11 14.14 1.88 13.89C1.64 13.66 1.52 13.36 1.52 13L1.52 10.52C1.52 10.16 1.64 9.87 1.88 9.62C2.11 9.39 2.41 9.27 2.75 9.27C3.11 9.27 3.41 9.39 3.64 9.62C3.89 9.87 4 10.16 4 10.52L4 13ZM12.92 20.52C12.74 20.52 12.59 20.45 12.47 20.33C12.35 20.22 12.29 20.07 12.29 19.89C12.29 19.72 12.35 19.58 12.47 19.45C12.59 19.33 12.74 19.27 12.92 19.27C13.09 19.27 13.24 19.33 13.36 19.45C13.48 19.58 13.54 19.72 13.54 19.89C13.54 20.07 13.48 20.22 13.36 20.33C13.24 20.45 13.09 20.52 12.92 20.52ZM20.04 13C20.04 13.36 19.92 13.66 19.68 13.89C19.44 14.14 19.14 14.25 18.79 14.25C18.44 14.25 18.15 14.14 17.91 13.89C17.67 13.66 17.54 13.36 17.54 13L17.54 10.52C17.54 10.16 17.67 9.87 17.91 9.62C18.15 9.39 18.44 9.27 18.79 9.27C19.14 9.27 19.44 9.39 19.68 9.62C19.92 9.87 20.04 10.16 20.04 10.52L20.04 13Z" fill="#000000" fill-opacity="1.000000" fill-rule="nonzero"/>
</svg>
