<svg width="23.500000" height="23.500000" viewBox="0 0 23.5 23.5" fill="none" xmlns="http://www.w3.org/2000/svg" xmlns:xlink="http://www.w3.org/1999/xlink">
  <metadata>
    <agcit_code>agcit_huawei_book_read</agcit_code>
  </metadata>
	<desc>
			Created with Pixso.
	</desc>
	<defs/>
	<path id="矢量 215" d="M0 11.75C0 5.26 5.26 0 11.75 0C18.23 0 23.5 5.26 23.5 11.75C23.5 18.23 18.23 23.5 11.75 23.5C5.26 23.5 0 18.23 0 11.75ZM1.5 11.75C1.5 6.08 6.08 1.5 11.75 1.5C17.41 1.5 22 6.08 22 11.75C22 17.41 17.41 22 11.75 22C6.08 22 1.5 17.41 1.5 11.75ZM10.99 14.97C10.99 15.09 11 15.17 11 15.2C11 15.62 11.33 15.95 11.75 15.95C12.17 15.95 12.5 15.62 12.5 15.2C12.5 15.15 12.49 15.06 12.49 14.92C12.48 14.48 12.48 14.2 12.49 14.09C12.5 14.01 12.51 13.94 12.53 13.89C12.56 13.81 12.61 13.72 12.68 13.61C12.82 13.38 13.25 13.05 13.97 12.61C14.08 12.54 14.16 12.49 14.19 12.47C14.45 12.29 14.67 12.09 14.88 11.86C15.12 11.6 15.33 11.31 15.5 10.98Q15.74 10.54 15.86 10.06Q15.86 10.05 15.87 10.04C15.95 9.7 16 9.35 16 9C16 8.68 15.96 8.37 15.9 8.07C15.84 7.82 15.76 7.58 15.66 7.34C15.56 7.1 15.44 6.87 15.3 6.66C15.14 6.42 14.96 6.2 14.75 5.99C14.54 5.78 14.32 5.6 14.08 5.44C13.87 5.3 13.64 5.18 13.4 5.08C13.16 4.98 12.91 4.9 12.66 4.84C12.36 4.78 12.06 4.75 11.75 4.75Q11.27 4.75 10.82 4.85Q10.45 4.93 10.09 5.08C9.85 5.18 9.62 5.3 9.4 5.45C9.16 5.6 8.94 5.78 8.74 5.99C8.53 6.19 8.35 6.41 8.2 6.65C8.05 6.87 7.93 7.1 7.83 7.34C7.73 7.58 7.65 7.82 7.6 8.07C7.53 8.37 7.5 8.68 7.5 9C7.5 9.41 7.83 9.75 8.25 9.75C8.67 9.75 9 9.41 9 9C9 8.78 9.02 8.57 9.07 8.36C9.1 8.21 9.15 8.07 9.21 7.92C9.28 7.77 9.35 7.63 9.44 7.49C9.54 7.33 9.66 7.19 9.8 7.05C9.94 6.91 10.08 6.79 10.24 6.69C10.38 6.6 10.52 6.53 10.67 6.46C10.82 6.4 10.96 6.35 11.11 6.32C11.32 6.27 11.53 6.25 11.75 6.25C11.95 6.25 12.16 6.27 12.36 6.31L12.36 6.31L12.36 6.31Q12.59 6.37 12.81 6.46C12.97 6.52 13.11 6.6 13.25 6.69C13.4 6.79 13.55 6.91 13.69 7.05C13.83 7.19 13.95 7.34 14.05 7.5C14.14 7.63 14.22 7.77 14.28 7.92C14.34 8.07 14.39 8.22 14.42 8.37C14.47 8.57 14.5 8.78 14.5 9C14.5 9.23 14.47 9.46 14.41 9.68C14.36 9.88 14.28 10.09 14.18 10.28C14.08 10.46 13.97 10.62 13.84 10.78C13.69 10.95 13.51 11.11 13.32 11.24Q13.31 11.25 13.18 11.33C12.83 11.55 12.55 11.73 12.33 11.89C11.9 12.21 11.59 12.52 11.4 12.81C11.28 13.02 11.18 13.21 11.12 13.39C11.06 13.56 11.02 13.73 11 13.92C10.98 14.1 10.98 14.45 10.99 14.97ZM11.75 17C11.26 17 10.87 17.39 10.87 17.87C10.87 18.35 11.26 18.75 11.75 18.75C12.23 18.75 12.62 18.35 12.62 17.87C12.62 17.39 12.23 17 11.75 17Z" fill="#191919" fill-opacity="1.000000" fill-rule="evenodd"/>
</svg>
