<svg viewBox="0 0 24 24" xmlns="http://www.w3.org/2000/svg" xmlns:xlink="http://www.w3.org/1999/xlink" width="24.000000" height="24.000000" fill="none">
  <metadata>
    <agcit_code>agcit_huawei_book_read</agcit_code>
  </metadata>
	<rect id="ic_public_folder" width="24.000000" height="24.000000" x="0.000000" y="0.000000" />
	<rect id="folder-文件夹/base/folder_qn65cwaoter467653_qn65cwaoter467653" width="24.000000" height="24.000000" x="0.000000" y="0.000000" fill="rgb(255,255,255)" fill-opacity="0" />
	<path id="矢量 219" d="M7.33295 2.23108C7.4789 2.33142 7.61622 2.44751 7.74226 2.57666L11.4559 6.37036C11.5745 6.49207 11.7112 6.58582 11.866 6.65137C12.0209 6.71716 12.1823 6.75 12.35 6.75L20 6.75Q20.1195 6.75 20.2373 6.75724C20.2143 6.53846 20.1596 6.32714 20.0733 6.12329Q19.9951 5.93846 19.8872 5.7729L19.8872 5.77287Q19.7596 5.57697 19.5906 5.40808C19.4789 5.29651 19.3583 5.19849 19.2289 5.11414Q19.2248 5.11143 19.2206 5.10874Q19.0572 5.00305 18.8751 4.92627C18.7557 4.87573 18.6338 4.83618 18.5094 4.80737C18.344 4.76917 18.1742 4.75 18 4.75L11.5 4.75C11.08 4.75 10.75 4.42004 10.75 4C10.75 3.57996 11.08 3.25 11.5 3.25L18 3.25C18.2755 3.25 18.5446 3.27893 18.8074 3.33667C19.029 3.38538 19.2462 3.45459 19.4588 3.54443C19.9075 3.73401 20.3048 4.00146 20.6507 4.34692C20.9967 4.6925 21.2647 5.08984 21.4547 5.5387C21.5437 5.7489 21.6125 5.96362 21.6613 6.18286C21.7204 6.44873 21.75 6.72107 21.75 7L21.75 7.18214C21.8588 7.23941 21.9643 7.30179 22.0664 7.36926C22.2752 7.5072 22.4699 7.66638 22.6507 7.84692C22.9967 8.1925 23.2647 8.58984 23.4547 9.0387C23.5437 9.2489 23.6125 9.46362 23.6613 9.68286C23.7204 9.94861 23.75 10.2211 23.75 10.5L23.75 18.5C23.75 19.0079 23.6515 19.4944 23.4546 19.9595C23.2647 20.408 22.9968 20.8052 22.651 21.151C22.3051 21.4968 21.9079 21.7646 21.4594 21.9546C21.2438 22.0459 21.0235 22.1161 20.7986 22.165C20.5386 22.2217 20.2724 22.25 20 22.25L4 22.25C3.49098 22.25 3.00386 22.1516 2.53864 21.9547C2.0898 21.7648 1.69254 21.4967 1.34686 21.1506C1.16637 20.97 1.00716 20.7751 0.869225 20.5664C0.743187 20.3756 0.634918 20.1731 0.544418 19.9587C0.348137 19.4941 0.25 19.0078 0.25 18.5L0.25 5.5Q0.25 5.07684 0.340408 4.67419C0.388885 4.45813 0.456871 4.24658 0.54435 4.03931Q0.681061 3.71539 0.871902 3.42737C1.00928 3.22009 1.16771 3.02661 1.34717 2.84717C1.52663 2.66772 1.72004 2.50928 1.92738 2.37195C2.11939 2.24463 2.32336 2.1355 2.53928 2.04431C2.74652 1.95691 2.95815 1.88892 3.17415 1.84045L3.17545 1.84016Q3.57762 1.75 4 1.75L5.775 1.75C5.97241 1.75 6.16549 1.77026 6.35425 1.81067C6.52008 1.84607 6.68257 1.89722 6.84173 1.96387C7.01638 2.03711 7.18012 2.1261 7.33295 2.23108ZM6.66774 3.62329C6.61237 3.56641 6.55267 3.51587 6.48868 3.47144C6.41833 3.42249 6.34279 3.38123 6.26202 3.34741C6.10714 3.28247 5.94479 3.25 5.775 3.25L4 3.25C3.8191 3.25 3.6431 3.27051 3.47198 3.3114C3.35316 3.33984 3.2367 3.37817 3.1226 3.42627C2.99669 3.47937 2.87753 3.54285 2.7651 3.61658C2.6373 3.70032 2.5182 3.79749 2.40783 3.90784C2.29745 4.01819 2.20037 4.13733 2.11658 4.26514C2.04286 4.37756 1.97943 4.4967 1.92628 4.62256Q1.85404 4.79376 1.8114 4.97192C1.77047 5.14307 1.75 5.31909 1.75 5.5L1.75 18.5C1.75 18.8053 1.80874 19.097 1.92621 19.3751C1.97878 19.4996 2.04139 19.6174 2.11404 19.7289C2.1985 19.8583 2.29653 19.9789 2.40813 20.0906C2.52051 20.2031 2.64185 20.3019 2.77218 20.3868Q2.93801 20.4949 3.12324 20.5732C3.24016 20.6228 3.35953 20.6619 3.48134 20.6906C3.64956 20.7302 3.82245 20.75 4 20.75L20 20.75C20.3049 20.75 20.5964 20.6912 20.8745 20.5734C21.1436 20.4594 21.3822 20.2983 21.5903 20.0903C21.7984 19.8822 21.9594 19.6437 22.0734 19.3745C22.1251 19.2523 22.1655 19.1274 22.1945 19.0001C22.2315 18.8376 22.25 18.6709 22.25 18.5L22.25 10.5C22.25 10.1938 22.1911 9.90161 22.0733 9.62329C22.021 9.49976 21.9589 9.38269 21.8868 9.27222C21.8018 9.14185 21.7031 9.02051 21.5906 8.90808C21.3828 8.70056 21.1443 8.53992 20.8751 8.42627C20.597 8.30872 20.3053 8.25 20 8.25L12.35 8.25C11.979 8.25 11.6224 8.17749 11.2803 8.03235Q11.0185 7.92133 10.7895 7.76299Q10.572 7.61266 10.384 7.41968L6.66774 3.62329Z" fill="rgb(25,25,25)" fill-rule="evenodd" />
	<g id="g">
		<path id="path" d="M19.5624 14.4326C19.7552 14.2722 19.8846 14.0729 19.9505 13.8349C20.0165 13.602 20.0165 13.3691 19.9505 13.1362C19.8846 12.9085 19.7552 12.7196 19.5624 12.5695L16.5108 10.2407C16.2927 10.0802 16.0669 10 15.8335 10C15.519 10 15.2476 10.1139 15.0193 10.3416C14.796 10.5745 14.6844 10.8513 14.6844 11.1722L14.6844 15.8299C14.6844 15.9542 14.7047 16.0784 14.7453 16.2026C14.791 16.3268 14.8493 16.4329 14.9203 16.5208C15.103 16.7796 15.349 16.9349 15.6585 16.9866C15.968 17.0332 16.2521 16.9582 16.5108 16.7615L19.5624 14.4326ZM4 13.4855C4 13.8582 4.11922 14.1454 4.35767 14.3472C4.59104 14.5542 4.91574 14.6577 5.33175 14.6577L15.4302 14.6577L15.4302 12.3289L5.33175 12.3289C4.91574 12.3289 4.59104 12.4272 4.35767 12.6239C4.11922 12.8257 4 13.1129 4 13.4855Z" fill="rgb(0,0,0)" fill-opacity="0.90196079" fill-rule="nonzero" />
	</g>
</svg>
