<svg viewBox="0 0 24 24" xmlns="http://www.w3.org/2000/svg" xmlns:xlink="http://www.w3.org/1999/xlink" width="24.000000" height="24.000000" fill="none">
  <metadata>
    <agcit_code>agcit_huawei_book_read</agcit_code>
  </metadata>
	<g id="组合 1809">
		<path id="矢量 245" d="M5.21 16.5401C4.95 16.8734 4.79 17.1034 4.73 17.2301L3.58 19.2501C3.5 19.3767 3.48333 19.5001 3.53 19.6201C3.57667 19.7401 3.66333 19.8201 3.79 19.8601C3.91667 19.9001 4.04667 19.8867 4.18 19.8201L6.17 18.6701C6.49 18.5101 6.73 18.3601 6.89 18.2201L5.21 16.5401ZM7.42 17.8301C7.46667 17.7701 7.61 17.6434 7.85 17.4501L18.94 6.34008C19.1933 6.06674 19.32 5.75008 19.32 5.39008C19.32 5.03008 19.1933 4.72008 18.94 4.46008C18.68 4.20674 18.37 4.08008 18.01 4.08008C17.65 4.08008 17.3333 4.20674 17.06 4.46008L5.98 15.5801C5.91333 15.6401 5.84667 15.7067 5.78 15.7801C5.72 15.8534 5.66667 15.9301 5.62 16.0101L7.42 17.8301ZM18.19 5.23008C18.27 5.29674 18.31 5.39008 18.31 5.51008C18.31 5.63008 18.27 5.73008 18.19 5.81008L7.58 16.3701L7.01 15.7901L17.59 5.23008C17.67 5.15008 17.77 5.11008 17.89 5.11008C18.01 5.11008 18.11 5.15008 18.19 5.23008Z" fill="rgb(0,0,0)" fill-opacity="0.898039222" fill-rule="nonzero" />
		<path id="矢量 246" d="M13.13 19.8198C13.8967 19.8198 14.7367 19.6065 15.65 19.1798C16.5633 18.7465 17.3 18.5798 17.86 18.6798C18.42 18.7865 18.89 19.0231 19.27 19.3898C19.4167 19.5498 19.5933 19.6265 19.8 19.6198C20.0067 19.6131 20.1833 19.5365 20.33 19.3898C20.47 19.2498 20.54 19.0732 20.54 18.8598C20.54 18.6531 20.47 18.4798 20.33 18.3398C19.7367 17.7598 19 17.3832 18.12 17.2098C17.24 17.0298 16.2 17.2365 15 17.8298C14.1067 18.2631 13.3833 18.4265 12.83 18.3198C12.2767 18.2198 11.8 17.9765 11.4 17.5898C11.2533 17.4498 11.0767 17.3798 10.87 17.3798C10.6633 17.3798 10.4867 17.4498 10.34 17.5898C10.2 17.7365 10.13 17.9132 10.13 18.1198C10.13 18.3265 10.2 18.5031 10.34 18.6498C11.16 19.4298 12.09 19.8198 13.13 19.8198Z" fill="rgb(0,0,0)" fill-opacity="0.898039222" fill-rule="nonzero" />
	</g>
</svg>
