<svg width="20.000000" height="18.335449" viewBox="0 0 20 18.3354" fill="none" xmlns="http://www.w3.org/2000/svg" xmlns:xlink="http://www.w3.org/1999/xlink">
  <metadata>
    <agcit_code>agcit_huawei_book_read</agcit_code>
  </metadata>
	<desc>
			Created with Pixso.
	</desc>
	<defs/>
	<path id="path" d="M10 1.58C11.3 0.48 12.25 0 13.65 0C16.6 0 18.63 1.78 19.47 4.71C19.57 5.1 19.34 5.51 18.95 5.62C18.55 5.73 18.14 5.5 18.02 5.11C17.36 2.78 15.88 1.48 13.65 1.48C12.67 1.48 12 1.84 10.9 2.77C10.85 2.81 10.56 3.05 10.48 3.12C10.2 3.36 9.79 3.36 9.51 3.12C9.42 3.05 9.14 2.81 9.09 2.77C7.99 1.84 7.32 1.48 6.34 1.48C3.39 1.48 1.49 3.83 1.49 7.21C1.49 9.79 4.15 12.99 9.55 16.71C9.81 16.89 10.16 16.89 10.42 16.7C11.53 15.93 12.27 15.39 12.63 15.12C12.96 14.87 13.43 14.92 13.68 15.25C13.93 15.57 13.88 16.04 13.55 16.29C13.17 16.59 12.41 17.13 11.28 17.92C10.51 18.46 9.47 18.47 8.69 17.93C2.92 13.96 0 10.43 0 7.21C0 3.07 2.48 0 6.34 0C7.74 0 8.69 0.48 10 1.58ZM17.25 10.15L19.24 10.15C19.66 10.15 20 10.49 20 10.9C20 11.31 19.66 11.64 19.24 11.64L17.25 11.64L17.25 13.62C17.25 14.03 16.91 14.36 16.49 14.36C16.08 14.36 15.74 14.03 15.74 13.62L15.74 11.64L13.74 11.64C13.33 11.64 12.99 11.31 12.99 10.9C12.99 10.49 13.33 10.15 13.74 10.15L15.74 10.15L15.74 8.17C15.74 7.76 16.08 7.43 16.49 7.43C16.91 7.43 17.25 7.76 17.25 8.17L17.25 10.15Z" fill="#000000" fill-opacity="0.898039" fill-rule="nonzero"/>
</svg>
