<svg width="20.000000" height="17.695557" viewBox="0 0 20 17.6956" fill="none" xmlns="http://www.w3.org/2000/svg" xmlns:xlink="http://www.w3.org/1999/xlink">
  <metadata>
    <agcit_code>agcit_huawei_book_read</agcit_code>
  </metadata>
	<desc>
			Created with Pixso.
	</desc>
	<defs>
		<linearGradient x1="0.000000" y1="1.921490" x2="15.809113" y2="13.701252" id="paint_linear_70_7887_0" gradientUnits="userSpaceOnUse">
			<stop stop-color="#F5C992"/>
			<stop offset="1.000000" stop-color="#E08A21"/>
		</linearGradient>
	</defs>
	<path id="形状结合" d="M13.96 0C14.51 0 15.03 0.25 15.36 0.69L19.64 6.34C20.16 7.03 20.1 8 19.5 8.62L11.27 17.15C10.94 17.5 10.48 17.69 10.01 17.69C9.53 17.69 9.07 17.5 8.74 17.16L0.49 8.64C-0.11 8.02 -0.17 7.05 0.35 6.36L4.63 0.69C4.96 0.25 5.48 0 6.03 0L13.96 0ZM6.37 5.64C6.1 5.42 5.7 5.45 5.46 5.71C5.23 5.97 5.24 6.37 5.49 6.62L9.53 10.66C9.79 10.87 10.22 10.9 10.46 10.66L14.5 6.62C14.72 6.34 14.74 5.9 14.48 5.66C14.22 5.43 13.82 5.44 13.57 5.68L9.99 9.26L6.37 5.64Z" fill="url(#paint_linear_70_7887_0)" fill-opacity="1.000000" fill-rule="nonzero"/>
	<path id="形状结合" d="M15.36 0.69L19.64 6.34C20.16 7.03 20.1 8 19.5 8.62L11.27 17.15C10.94 17.5 10.48 17.69 10.01 17.69C9.53 17.69 9.07 17.5 8.74 17.16L0.49 8.64C-0.11 8.02 -0.17 7.05 0.35 6.36L4.63 0.69C4.96 0.25 5.48 0 6.03 0L13.96 0C14.51 0 15.03 0.25 15.36 0.69ZM5.46 5.71C5.23 5.97 5.24 6.37 5.49 6.62L9.53 10.66C9.79 10.87 10.22 10.9 10.46 10.66L14.5 6.62C14.72 6.34 14.74 5.9 14.48 5.66C14.22 5.43 13.82 5.44 13.57 5.68L9.99 9.26L6.37 5.64C6.1 5.42 5.7 5.45 5.46 5.71Z" stroke="#000000" stroke-opacity="0" stroke-width="1.000000"/>
</svg>
