<svg viewBox="0 0 24 24" xmlns="http://www.w3.org/2000/svg" xmlns:xlink="http://www.w3.org/1999/xlink" width="24.000000" height="24.000000" fill="none">
  <metadata>
    <agcit_code>agcit_huawei_book_read</agcit_code>
  </metadata>
	<rect id="icon_book mall_off" width="24.000000" height="24.000000" x="0.000000" y="0.000000" />
	<rect id="rect" width="24.000000" height="24.000000" x="0.000000" y="0.000000" opacity="0" fill="rgb(0,0,0)" />
	<g id="g">
		<path id="path" d="M21.3099 5.23003C20.6899 4.83003 19.9133 4.54336 18.9799 4.37003L18.9799 3.55003C18.9999 3.25003 18.9066 2.99336 18.6999 2.78003C18.4866 2.57336 18.2366 2.47003 17.9499 2.47003C16.7833 2.42336 15.5999 2.77669 14.3999 3.53003C13.5866 4.02336 12.7133 4.80669 11.7799 5.88003C10.8866 5.14669 9.67327 4.63336 8.13994 4.34003C6.91994 4.12003 5.84661 4.12669 4.91994 4.36003C3.99327 4.58669 3.23994 4.87669 2.65994 5.23003C2.43994 5.35669 2.26661 5.53669 2.13994 5.77003C2.00661 6.00336 1.93994 6.24669 1.93994 6.50003L1.93994 19.51C1.93994 19.75 2.00994 19.96 2.14994 20.14C2.28327 20.3134 2.45994 20.4234 2.67994 20.47C2.89327 20.5167 3.11327 20.4934 3.33994 20.4L3.45994 20.35C4.03327 20.0967 4.64661 19.8734 5.29994 19.68C5.95994 19.4867 6.59994 19.4134 7.21994 19.46C7.99327 19.5267 8.69994 19.72 9.33994 20.04C9.97994 20.36 10.6199 20.7267 11.2599 21.14L11.3999 21.24C11.5599 21.3534 11.7433 21.41 11.9499 21.41C12.1566 21.41 12.3666 21.3534 12.5799 21.24C12.7533 21.1267 12.9266 21.0234 13.0999 20.93C13.6933 20.5634 14.2866 20.2434 14.8799 19.97C15.4733 19.6967 16.1066 19.5267 16.7799 19.46C17.3866 19.4134 18.0266 19.4867 18.6999 19.68C19.3666 19.8734 19.9666 20.09 20.4999 20.33L20.6599 20.4C20.8866 20.4934 21.1066 20.5167 21.3199 20.47C21.5399 20.4234 21.7166 20.3134 21.8499 20.14C21.9899 19.96 22.0599 19.75 22.0599 19.51L22.0599 6.50003C22.0599 6.24669 21.9899 6.00336 21.8499 5.77003C21.7166 5.53669 21.5366 5.35669 21.3099 5.23003ZM15.1699 4.80003C15.6033 4.52669 16.0133 4.32669 16.3999 4.20003C16.7933 4.07336 17.1599 3.99336 17.4999 3.96003L17.4999 16.34C16.9999 16.4067 16.4666 16.5267 15.8999 16.7C15.3333 16.88 14.8399 17.1134 14.4199 17.4C14.1799 17.56 13.7333 17.9367 13.0799 18.53L12.7399 18.84L12.7399 7.06003C13.6533 5.96669 14.4633 5.21336 15.1699 4.80003ZM6.88994 17.95C5.88327 17.95 4.73994 18.2 3.45994 18.7L3.45994 6.50003C3.93994 6.23336 4.54994 6.00669 5.28994 5.82003C6.03661 5.63336 6.89661 5.63669 7.86994 5.83003C8.82994 5.99003 9.57994 6.23003 10.1199 6.55003C10.6533 6.87003 11.0333 7.17336 11.2599 7.46003L11.2599 19.34C10.5999 18.94 9.87994 18.61 9.09994 18.35C8.31327 18.0834 7.57661 17.95 6.88994 17.95ZM20.5399 18.7C20.4466 18.6667 20.3766 18.6334 20.3299 18.6C19.9633 18.4734 19.5866 18.3667 19.1999 18.28C18.8133 18.1867 18.3799 18.13 17.8999 18.11C17.4199 18.0834 16.9099 18.1034 16.3699 18.17C16.7366 18.07 17.0266 17.9967 17.2399 17.95C17.4599 17.9034 17.6333 17.8634 17.7599 17.83C18.0799 17.8167 18.4266 17.6934 18.6599 17.46C18.8933 17.2267 19.0099 16.95 19.0099 16.63L19.0099 5.88003C19.3433 5.96003 19.6433 6.06003 19.9099 6.18003C20.1699 6.30003 20.3799 6.40669 20.5399 6.50003L20.5399 18.7Z" fill="rgb(255,255,255)" fill-opacity="0.600000024" fill-rule="nonzero" />
	</g>
</svg>
