<svg viewBox="0 0 40 40" xmlns="http://www.w3.org/2000/svg" xmlns:xlink="http://www.w3.org/1999/xlink" width="40.000000" height="40.000000" fill="none" customFrame="url(#clipPath_0)">
  <metadata>
    <agcit_code>agcit_huawei_book_read</agcit_code>
  </metadata>
	<defs>
		<clipPath id="clipPath_0">
			<rect width="40.000000" height="40.000000" x="0.000000" y="0.000000" rx="20.000000" fill="rgb(255,255,255)" />
		</clipPath>
	</defs>
	<rect id="icon_Select All" width="40.000000" height="40.000000" x="0.000000" y="0.000000" rx="20.000000" />
	<circle id="椭圆 54" cx="20" cy="20" r="20" fill="rgb(0,0,0)" fill-opacity="0.0470588244" />
	<g id="组合 1713">
		<rect id="ic_public_select_all-全选/base/ic_public_select_all" width="24.000000" height="24.000000" x="8.000000" y="8.000000" fill="rgb(255,255,255)" fill-opacity="0" />
		<path id="矢量 220" d="M30.95 15.7998L30.95 21.7998C30.95 22.2966 30.8977 22.7815 30.7932 23.2551C30.7053 23.6536 30.5803 24.0437 30.4185 24.4258C30.2585 24.8035 30.0676 25.1611 29.8457 25.4983C29.6809 25.7493 29.4988 25.989 29.2998 26.2175L29.2998 23.0532C29.3845 22.6775 29.45 22.1951 29.45 21.7998L29.45 15.7998C29.45 15.4033 29.4072 15.0164 29.322 14.6389C29.2542 14.3384 29.1592 14.0437 29.0371 13.7554Q28.8522 13.3185 28.5969 12.9277C28.3997 12.6262 28.1709 12.345 27.9106 12.0845C27.6487 11.8223 27.3657 11.592 27.062 11.3938C26.8035 11.2253 26.53 11.0798 26.2415 10.9575Q25.8057 10.7733 25.3516 10.6711C24.9771 10.5869 24.5933 10.5449 24.2 10.5449L18.2 10.5449C17.8 10.5449 17.4102 10.5881 17.03 10.6748C16.9949 10.6829 16.96 10.6914 16.925 10.7L13.7729 10.7C14.0017 10.5005 14.2419 10.3179 14.4932 10.1523C14.8323 9.9292 15.1917 9.7373 15.5715 9.57642C15.9502 9.41602 16.3367 9.29199 16.7314 9.20435C17.2092 9.09814 17.6987 9.04492 18.2 9.04492L24.2 9.04492C24.6948 9.04492 25.178 9.09668 25.6499 9.20044C26.05 9.28857 26.4424 9.41382 26.8264 9.57642C27.2046 9.73682 27.5627 9.92773 27.9006 10.1497C28.2837 10.4014 28.6409 10.6929 28.9717 11.0242C29.3008 11.3535 29.5908 11.7085 29.8413 12.0896C30.0652 12.4294 30.2576 12.7898 30.4187 13.1709C30.5801 13.5527 30.7048 13.9426 30.7927 14.3406C30.8975 14.8154 30.95 15.302 30.95 15.7998ZM12.2 12.7949L24.2 12.7949C25.855 12.7949 27.2 14.1399 27.2 15.7998L27.2 27.7949C27.2 29.4548 25.855 30.7998 24.2 30.7998L12.2 30.7998C10.54 30.7998 9.19995 29.4548 9.19995 27.7949L9.19995 15.7998C9.19995 14.1399 10.54 12.7949 12.2 12.7949ZM23.9587 18.6116L17.3037 25.6167C17.1541 25.7595 16.9495 25.8547 16.7424 25.8499C16.6389 25.8474 16.5435 25.8269 16.4561 25.7881C16.3684 25.7495 16.2891 25.6929 16.2175 25.6179L12.4575 21.6777C12.1675 21.374 12.1785 20.9075 12.4822 20.6174C12.7861 20.3274 13.2527 20.3384 13.5425 20.6423L16.7588 24.0125L22.8713 17.5784C23.1606 17.2739 23.6272 17.262 23.9316 17.5513C24.2361 17.8406 24.248 18.3071 23.9587 18.6116Z" fill="rgb(232,64,38)" fill-rule="evenodd" />
	</g>
</svg>
