<svg width="160.000000" height="160.000000" viewBox="0 0 160 160" fill="none" xmlns="http://www.w3.org/2000/svg" xmlns:xlink="http://www.w3.org/1999/xlink">
  <metadata>
    <agcit_code>agcit_huawei_book_read</agcit_code>
  </metadata>
	<desc>
			Created with Pixso.
	</desc>
	<defs>
		<clipPath id="clip87_10047">
			<rect width="160.000000" height="160.000000" fill="white" fill-opacity="0"/>
		</clipPath>
	</defs>
	<g clip-path="url(#clip87_10047)">
		<g opacity="0.150000">
			<ellipse cx="79.235718" cy="143.724609" rx="44.431393" ry="2.787394" fill="#A1A7B3" fill-opacity="1.000000"/>
			<ellipse cx="79.235718" cy="143.724609" rx="44.431393" ry="2.787394" stroke="#000000" stroke-opacity="0" stroke-width="1.000000"/>
		</g>
		<g opacity="0.600000">
			<path d="M55.28 23.57C54.18 25.12 53.49 26.98 53.34 28.99L46.91 28.99C46.22 28.99 45.66 29.5 45.58 30.16L45.57 30.32L45.57 120.59C45.57 121.27 46.09 121.84 46.75 121.91L46.91 121.92L109.02 121.92C109.71 121.92 110.27 121.41 110.35 120.74L110.35 120.59L110.35 92.61C112.06 91.59 113.85 90.49 115.7 89.36C116.9 88.61 118.09 87.89 119.26 87.18L119.26 132.19C119.26 135.14 116.87 137.52 113.92 137.52L41.63 137.52C38.68 137.52 36.29 135.14 36.29 132.19L36.29 28.91C36.29 25.96 38.68 23.58 41.63 23.58L55.28 23.57ZM100.64 23.57L113.92 23.58C116.87 23.58 119.26 25.96 119.26 28.91L119.26 68.98C116.29 71.95 113.21 75.57 110.36 79.24L110.35 30.32C110.35 29.58 109.76 28.99 109.02 28.99L102.59 28.99C102.44 26.98 101.74 25.12 100.64 23.57Z" fill="#A1A7B3" fill-opacity="1.000000" fill-rule="evenodd"/>
			<path d="M53.34 28.99L46.91 28.99C46.22 28.99 45.66 29.5 45.58 30.16L45.57 30.32L45.57 120.59C45.57 121.27 46.09 121.84 46.75 121.91L46.91 121.92L109.02 121.92C109.71 121.92 110.27 121.41 110.35 120.74L110.35 120.59L110.35 92.61C112.06 91.59 113.85 90.49 115.7 89.36C116.9 88.61 118.09 87.89 119.26 87.18L119.26 132.19C119.26 135.14 116.87 137.52 113.92 137.52L41.63 137.52C38.68 137.52 36.29 135.14 36.29 132.19L36.29 28.91C36.29 25.96 38.68 23.58 41.63 23.58L55.28 23.57C54.18 25.12 53.49 26.98 53.34 28.99ZM113.92 23.58C116.87 23.58 119.26 25.96 119.26 28.91L119.26 68.98C116.29 71.95 113.21 75.57 110.36 79.24L110.35 30.32C110.35 29.58 109.76 28.99 109.02 28.99L102.59 28.99C102.44 26.98 101.74 25.12 100.64 23.57L113.92 23.58Z" stroke="#000000" stroke-opacity="0" stroke-width="1.000000"/>
		</g>
		<g opacity="0.300000">
			<path d="M36.31 130.71C36.31 133.65 38.7 136.04 41.65 136.04L113.94 136.04C116.89 136.04 119.28 133.65 119.28 130.71L119.28 132.19C119.28 135.14 116.89 137.52 113.94 137.52L41.65 137.52C38.7 137.52 36.31 135.14 36.31 132.19L36.31 130.71Z" fill="#A1A7B3" fill-opacity="1.000000" fill-rule="evenodd"/>
			<path d="M41.65 136.04L113.94 136.04C116.89 136.04 119.28 133.65 119.28 130.71L119.28 132.19C119.28 135.14 116.89 137.52 113.94 137.52L41.65 137.52C38.7 137.52 36.31 135.14 36.31 132.19L36.31 130.71C36.31 133.65 38.7 136.04 41.65 136.04Z" stroke="#000000" stroke-opacity="0" stroke-width="1.000000"/>
		</g>
		<g opacity="0.800000">
			<path d="M110.35 92.61L110.35 120.59C110.35 121.32 109.76 121.92 109.02 121.92L46.91 121.92C46.22 121.92 45.66 121.41 45.58 120.74L45.57 120.59C45.6 121.33 46.17 121.95 46.91 121.92C82.91 120.74 102.36 118.67 105.17 115.82C106.54 114.43 107.64 107.07 108.49 93.73C109.1 93.37 109.72 93 110.35 92.61ZM109.02 28.99C109.76 28.99 110.35 29.58 110.35 30.32L110.36 79.24C109.95 79.76 109.55 80.28 109.16 80.8C109.7 68 110.08 51.72 110.32 31.95L110.35 30.32C110.35 29.63 109.83 29.07 109.16 29L109.02 28.99Z" fill="#A1A7B3" fill-opacity="1.000000" fill-rule="evenodd"/>
			<path d="M46.91 121.92C82.91 120.74 102.36 118.67 105.17 115.82C106.54 114.43 107.64 107.07 108.49 93.73C109.1 93.37 109.72 93 110.35 92.61L110.35 120.59C110.35 121.32 109.76 121.92 109.02 121.92L46.91 121.92C46.22 121.92 45.66 121.41 45.58 120.74L45.57 120.59C45.6 121.33 46.17 121.95 46.91 121.92M110.35 30.32C110.35 29.63 109.83 29.07 109.16 29L109.02 28.99C109.76 28.99 110.35 29.58 110.35 30.32L110.36 79.24C109.95 79.76 109.55 80.28 109.16 80.8C109.7 68 110.08 51.72 110.32 31.95L110.35 30.32Z" stroke="#000000" stroke-opacity="0" stroke-width="1.000000"/>
		</g>
		<g opacity="0.200000">
			<path d="M53.34 28.99L53.33 29.21L53.32 29.43L53.32 29.7L102.61 29.7C102.61 29.46 102.6 29.22 102.59 28.99L109.01 28.99C109.74 28.99 110.34 29.58 110.34 30.32C110.1 50.82 109.71 67.66 109.16 80.8C104.32 87.19 100.26 93.51 98.65 96.68L79.28 115.39L76.03 119.37C75.96 119.45 75.95 119.57 76.02 119.66C76.08 119.74 76.19 119.76 76.28 119.71L80.61 116.95L99.77 98.42C101.65 97.67 104.76 95.94 108.49 93.73C107.64 107.07 106.54 114.43 105.17 115.82C102.36 118.67 82.96 120.69 46.95 121.88C46.21 121.9 45.6 121.33 45.57 120.59L45.57 30.32C45.57 29.58 46.17 28.99 46.91 28.99L53.34 28.99ZM102.61 30.51L53.32 30.51L53.32 31.5C53.32 31.91 53.61 32.24 54 32.3L101.8 32.31C102.21 32.31 102.54 32.02 102.6 31.63L102.61 30.51Z" fill="#A1A7B3" fill-opacity="1.000000" fill-rule="evenodd"/>
			<path d="M53.33 29.21L53.32 29.43L53.32 29.7L102.61 29.7C102.61 29.46 102.6 29.22 102.59 28.99L109.01 28.99C109.74 28.99 110.34 29.58 110.34 30.32C110.1 50.82 109.71 67.66 109.16 80.8C104.32 87.19 100.26 93.51 98.65 96.68L79.28 115.39L76.03 119.37C75.96 119.45 75.95 119.57 76.02 119.66C76.08 119.74 76.19 119.76 76.28 119.71L80.61 116.95L99.77 98.42C101.65 97.67 104.76 95.94 108.49 93.73C107.64 107.07 106.54 114.43 105.17 115.82C102.36 118.67 82.96 120.69 46.95 121.88C46.21 121.9 45.6 121.33 45.57 120.59L45.57 30.32C45.57 29.58 46.17 28.99 46.91 28.99L53.34 28.99L53.33 29.21ZM53.32 30.51L53.32 31.5C53.32 31.91 53.61 32.24 54 32.3L101.8 32.31C102.21 32.31 102.54 32.02 102.6 31.63L102.61 30.51L53.32 30.51Z" stroke="#000000" stroke-opacity="0" stroke-width="1.000000"/>
		</g>
		<g opacity="0.100000">
			<path d="M53.34 28.99L53.33 29.21L53.32 29.43L53.32 29.7L102.61 29.7C102.61 29.46 102.6 29.22 102.59 28.99L109.01 28.99C109.74 28.99 110.34 29.58 110.34 30.32C110.1 50.82 109.71 67.66 109.16 80.8C104.32 87.19 100.26 93.51 98.65 96.68L79.28 115.39L76.03 119.37C75.96 119.45 75.95 119.57 76.02 119.66C76.08 119.74 76.19 119.76 76.28 119.71L80.61 116.95L99.77 98.42C101.65 97.67 104.76 95.94 108.49 93.73C107.64 107.07 106.54 114.43 105.17 115.82C102.36 118.67 82.96 120.69 46.95 121.88C46.21 121.9 45.6 121.33 45.57 120.59L45.57 30.32C45.57 29.58 46.17 28.99 46.91 28.99L53.34 28.99ZM102.61 30.51L53.32 30.51L53.32 31.5C53.32 31.91 53.61 32.24 54 32.3L101.8 32.31C102.21 32.31 102.54 32.02 102.6 31.63L102.61 30.51Z" fill="#A1A7B3" fill-opacity="1.000000" fill-rule="evenodd"/>
			<path d="M53.33 29.21L53.32 29.43L53.32 29.7L102.61 29.7C102.61 29.46 102.6 29.22 102.59 28.99L109.01 28.99C109.74 28.99 110.34 29.58 110.34 30.32C110.1 50.82 109.71 67.66 109.16 80.8C104.32 87.19 100.26 93.51 98.65 96.68L79.28 115.39L76.03 119.37C75.96 119.45 75.95 119.57 76.02 119.66C76.08 119.74 76.19 119.76 76.28 119.71L80.61 116.95L99.77 98.42C101.65 97.67 104.76 95.94 108.49 93.73C107.64 107.07 106.54 114.43 105.17 115.82C102.36 118.67 82.96 120.69 46.95 121.88C46.21 121.9 45.6 121.33 45.57 120.59L45.57 30.32C45.57 29.58 46.17 28.99 46.91 28.99L53.34 28.99L53.33 29.21ZM53.32 30.51L53.32 31.5C53.32 31.91 53.61 32.24 54 32.3L101.8 32.31C102.21 32.31 102.54 32.02 102.6 31.63L102.61 30.51L53.32 30.51Z" stroke="#000000" stroke-opacity="0" stroke-width="1.000000"/>
		</g>
		<g opacity="0.600000">
			<path d="M102.61 30.51L102.61 31.5C102.61 31.95 102.25 32.31 101.8 32.31L54.13 32.31C53.68 32.31 53.32 31.95 53.32 31.5L53.32 30.51L102.61 30.51ZM77.96 13.87C81.53 13.87 83.05 16.05 84.49 18.78L84.63 19.06L91.91 19.06C97.8 19.06 102.58 23.82 102.61 29.7L53.32 29.7L53.32 29.43C53.5 23.67 58.22 19.06 64.02 19.06L71.3 19.06C72.56 16.2 74.28 13.87 77.96 13.87ZM77.96 17.04C76.16 17.04 74.69 18.5 74.69 20.31C74.69 22.11 76.16 23.58 77.96 23.58C79.77 23.58 81.23 22.11 81.23 20.31C81.23 18.5 79.77 17.04 77.96 17.04Z" fill="#A1A7B3" fill-opacity="1.000000" fill-rule="evenodd"/>
			<path d="M102.61 31.5C102.61 31.95 102.25 32.31 101.8 32.31L54.13 32.31C53.68 32.31 53.32 31.95 53.32 31.5L53.32 30.51L102.61 30.51L102.61 31.5ZM84.49 18.78L84.63 19.06L91.91 19.06C97.8 19.06 102.58 23.82 102.61 29.7L53.32 29.7L53.32 29.43C53.5 23.67 58.22 19.06 64.02 19.06L71.3 19.06C72.56 16.2 74.28 13.87 77.96 13.87C81.53 13.87 83.05 16.05 84.49 18.78ZM74.69 20.31C74.69 22.11 76.16 23.58 77.96 23.58C79.77 23.58 81.23 22.11 81.23 20.31C81.23 18.5 79.77 17.04 77.96 17.04C76.16 17.04 74.69 18.5 74.69 20.31Z" stroke="#000000" stroke-opacity="0" stroke-width="1.000000"/>
		</g>
		<g opacity="0.500000">
			<path d="M151.26 46C154.89 47.03 147.92 62.16 140.2 70.83C132.49 79.5 124.61 83.87 115.7 89.36C108.92 93.52 102.77 97.22 99.77 98.42L80.61 116.95L76.28 119.71C76.19 119.76 76.08 119.74 76.02 119.66C75.95 119.57 75.96 119.45 76.03 119.37L79.28 115.39L98.65 96.68C101.46 91.17 111.64 76.14 120.49 67.78C122.35 66.03 124.38 64.2 126.47 62.38L127.32 61.66C127.74 61.29 128.17 60.93 128.59 60.57L129.45 59.85C129.59 59.73 129.73 59.61 129.88 59.49L130.74 58.78C139.63 51.47 148.68 45.27 151.26 46ZM128.43 71.25C127.17 71.65 124.91 71.99 125.49 72.56C126.06 73.13 128.88 72.96 134.27 70.57C139.37 68.31 137.66 68.32 135.3 69.01L135.03 69.09L134.89 69.13C132.33 69.93 129.69 70.86 128.43 71.25ZM131.52 66.18C130.43 66.46 129.37 66.75 129.78 67.17C130.36 67.74 133.18 67.56 138.57 65.17C143.96 62.78 141.75 62.94 139.19 63.74C136.63 64.54 133.99 65.46 132.73 65.86C132.48 65.94 132.19 66.01 131.89 66.09L131.52 66.18ZM136.47 60.06C135.44 60.32 134.52 60.6 134.91 60.99C135.48 61.56 138.31 61.39 143.7 59C148.8 56.74 147.09 56.75 144.72 57.44L144.45 57.52L144.31 57.56C141.75 58.36 139.11 59.28 137.86 59.68C137.6 59.76 137.31 59.84 137.01 59.92L136.47 60.06Z" fill="#A1A7B3" fill-opacity="1.000000" fill-rule="evenodd"/>
			<path d="M140.2 70.83C132.49 79.5 124.61 83.87 115.7 89.36C108.92 93.52 102.77 97.22 99.77 98.42L80.61 116.95L76.28 119.71C76.19 119.76 76.08 119.74 76.02 119.66C75.95 119.57 75.96 119.45 76.03 119.37L79.28 115.39L98.65 96.68C101.46 91.17 111.64 76.14 120.49 67.78C122.35 66.03 124.38 64.2 126.47 62.38L127.32 61.66C127.74 61.29 128.17 60.93 128.59 60.57L129.45 59.85C129.59 59.73 129.73 59.61 129.88 59.49L130.74 58.78C139.63 51.47 148.68 45.27 151.26 46C154.89 47.03 147.92 62.16 140.2 70.83ZM125.49 72.56C126.06 73.13 128.88 72.96 134.27 70.57C139.37 68.31 137.66 68.32 135.3 69.01L135.03 69.09L134.89 69.13C132.33 69.93 129.69 70.86 128.43 71.25C127.17 71.65 124.91 71.99 125.49 72.56ZM129.78 67.17C130.36 67.74 133.18 67.56 138.57 65.17C143.96 62.78 141.75 62.94 139.19 63.74C136.63 64.54 133.99 65.46 132.73 65.86C132.48 65.94 132.19 66.01 131.89 66.09L131.52 66.18C130.43 66.46 129.37 66.75 129.78 67.17ZM134.91 60.99C135.48 61.56 138.31 61.39 143.7 59C148.8 56.74 147.09 56.75 144.72 57.44L144.45 57.52L144.31 57.56C141.75 58.36 139.11 59.28 137.86 59.68C137.6 59.76 137.31 59.84 137.01 59.92L136.47 60.06C135.44 60.32 134.52 60.6 134.91 60.99Z" stroke="#000000" stroke-opacity="0" stroke-width="1.000000"/>
		</g>
	</g>
</svg>
