<svg viewBox="0 0 16 16" xmlns="http://www.w3.org/2000/svg" xmlns:xlink="http://www.w3.org/1999/xlink" width="16.000000" height="16.000000" fill="none">
  <metadata>
    <agcit_code>agcit_huawei_book_read</agcit_code>
  </metadata>
	<rect id="time_interval" width="16.000000" height="16.000000" x="0.000000" y="0.000000" />
	<rect id="矩形 3460" width="16.000000" height="16.000000" x="0.000000" y="0.000000" opacity="0" fill="none" />
	<g id="组合 1800">
		<path id="矢量 236" d="M8.50999 7.49001L8.50999 4.46001C8.50999 4.32668 8.45999 4.20668 8.35999 4.10001C8.25999 4.00001 8.13999 3.95001 7.99999 3.95001C7.85999 3.95001 7.73999 4.00001 7.63999 4.10001C7.53999 4.20668 7.48999 4.32668 7.48999 4.46001L7.48999 7.98001C7.48999 8.12001 7.53999 8.24668 7.63999 8.36001C7.73999 8.47334 7.85999 8.53001 7.99999 8.53001L12.7 8.53001C12.84 8.53001 12.9633 8.47668 13.07 8.37001C13.1767 8.26335 13.23 8.14001 13.23 8.00001C13.23 7.86001 13.1767 7.74001 13.07 7.64001C12.9633 7.54001 12.84 7.49001 12.7 7.49001L8.50999 7.49001Z" fill="rgb(0,0,0)" fill-opacity="0.600000024" fill-rule="nonzero" />
		<path id="矢量 237" d="M14.8299 8.53003C14.5032 8.53003 14.3066 8.71003 14.2399 9.07003C14.0666 10.0634 13.6866 10.9567 13.0999 11.75C12.5066 12.5434 11.7632 13.17 10.8699 13.63C9.98323 14.09 9.02656 14.32 7.99989 14.32C6.85989 14.32 5.80323 14.0367 4.82989 13.47C3.86323 12.9034 3.09656 12.14 2.52989 11.18C1.96323 10.2134 1.67989 9.15336 1.67989 8.00003C1.67989 6.97336 1.90656 6.0167 2.35989 5.13003C2.81323 4.23669 3.43323 3.49336 4.21989 2.90003C5.01323 2.31336 5.88989 1.93336 6.84989 1.76003C7.02989 1.74003 7.16656 1.67669 7.25989 1.57003C7.34656 1.46336 7.38989 1.33003 7.38989 1.17003C7.38989 1.01003 7.33656 0.890028 7.22989 0.810028C7.12323 0.730028 6.97323 0.700028 6.77989 0.720028C5.63989 0.900028 4.59989 1.33669 3.65989 2.03003C2.72656 2.72336 1.98989 3.59336 1.44989 4.64003C0.909893 5.6867 0.639893 6.80669 0.639893 8.00003C0.639893 9.33336 0.966559 10.5634 1.61989 11.69C2.27989 12.8167 3.17323 13.71 4.29989 14.37C5.43323 15.03 6.66656 15.36 7.99989 15.36C9.20656 15.36 10.3332 15.0867 11.3799 14.54C12.4199 14 13.2866 13.2534 13.9799 12.3C14.6666 11.3534 15.0999 10.3 15.2799 9.14003C15.2999 8.93336 15.2732 8.78003 15.1999 8.68003C15.1266 8.58003 15.0032 8.53003 14.8299 8.53003ZM14.8299 7.44003C15.0032 7.44003 15.1266 7.38669 15.1999 7.28003C15.2732 7.17336 15.2999 7.02336 15.2799 6.83003C15.1066 5.79669 14.7332 4.84336 14.1599 3.97003C13.5866 3.09669 12.8599 2.37669 11.9799 1.81003C11.1066 1.24336 10.1532 0.880028 9.11989 0.720028C8.92656 0.686695 8.77656 0.710028 8.66989 0.790028C8.56323 0.870028 8.50989 0.996695 8.50989 1.17003C8.50989 1.33669 8.55656 1.47003 8.64989 1.57003C8.73656 1.66336 8.87323 1.72669 9.05989 1.76003C9.91989 1.90669 10.7166 2.22003 11.4499 2.70003C12.1766 3.18003 12.7832 3.78336 13.2699 4.51003C13.7566 5.23669 14.0799 6.03336 14.2399 6.90003C14.2599 7.08003 14.3199 7.21336 14.4199 7.30003C14.5266 7.39336 14.6632 7.44003 14.8299 7.44003Z" fill="rgb(0,0,0)" fill-opacity="0.600000024" fill-rule="nonzero" />
	</g>
</svg>
