<svg width="24.000000" height="24.000000" viewBox="0 0 24 24" fill="none" xmlns="http://www.w3.org/2000/svg" xmlns:xlink="http://www.w3.org/1999/xlink">
	<desc>
		Created with Pixso.
	</desc>
	<defs/>
	<path id="矢量 1" d="M8.99 2.67L8.99 1.71C8.99 1.31 8.68 1 8.28 1C7.88 1 7.56 1.31 7.56 1.71L7.56 2.67L5.57 2.67C5.31 2.67 5.04 2.69 4.79 2.75C4.58 2.8 4.38 2.86 4.18 2.95C3.97 3.03 3.78 3.14 3.6 3.26C3.4 3.39 3.21 3.54 3.04 3.71C2.87 3.88 2.72 4.07 2.59 4.27C2.47 4.45 2.36 4.64 2.28 4.85C2.19 5.05 2.13 5.25 2.08 5.46C2.02 5.71 2 5.98 2 6.25L2 19.13C2 19.39 2.02 19.65 2.08 19.9C2.12 20.11 2.19 20.32 2.28 20.52C2.36 20.73 2.47 20.92 2.59 21.1C2.72 21.3 2.87 21.49 3.04 21.66C3.22 21.83 3.4 21.99 3.6 22.12C3.78 22.24 3.98 22.34 4.18 22.43C4.38 22.51 4.59 22.58 4.79 22.63C5.05 22.68 5.31 22.71 5.57 22.71L19.42 22.71C19.68 22.71 19.93 22.68 20.18 22.63C20.39 22.58 20.6 22.52 20.81 22.43C21.01 22.34 21.2 22.24 21.38 22.12C21.58 21.99 21.77 21.84 21.95 21.66C22.12 21.49 22.27 21.3 22.41 21.1C22.53 20.92 22.63 20.73 22.71 20.52C22.8 20.32 22.87 20.11 22.91 19.89Q23 19.52 23 19.13L23 6.25Q23 5.85 22.91 5.47L22.91 5.46C22.86 5.26 22.8 5.05 22.71 4.85C22.63 4.65 22.52 4.45 22.4 4.27C22.27 4.07 22.12 3.89 21.95 3.71C21.77 3.54 21.59 3.39 21.39 3.26C21.21 3.14 21.01 3.03 20.81 2.95C20.61 2.86 20.4 2.79 20.19 2.75C19.94 2.69 19.68 2.67 19.42 2.67L17.42 2.67L17.42 1.71C17.42 1.31 17.11 1 16.7 1C16.3 1 15.99 1.31 15.99 1.71L15.99 2.67L8.99 2.67ZM8.13 4.1C8.18 4.11 8.23 4.11 8.28 4.11C8.33 4.11 8.37 4.11 8.42 4.1L16.56 4.1C16.61 4.11 16.65 4.11 16.7 4.11C16.75 4.11 16.8 4.11 16.85 4.1L19.42 4.1C19.58 4.1 19.74 4.12 19.9 4.15C20.02 4.18 20.14 4.22 20.25 4.27C20.37 4.32 20.48 4.38 20.59 4.44C20.71 4.53 20.83 4.62 20.93 4.73C21.04 4.83 21.14 4.95 21.22 5.07C21.29 5.18 21.34 5.29 21.39 5.41C21.44 5.52 21.48 5.63 21.51 5.75C21.54 5.91 21.56 6.08 21.56 6.25L21.56 8.15L3.43 8.15L3.43 6.25C3.43 6.07 3.45 5.9 3.49 5.74C3.51 5.63 3.55 5.52 3.6 5.41C3.65 5.29 3.71 5.17 3.78 5.07C3.86 4.94 3.95 4.83 4.05 4.73C4.16 4.62 4.27 4.53 4.4 4.45C4.5 4.38 4.62 4.32 4.74 4.27C4.85 4.22 4.96 4.18 5.07 4.16C5.23 4.12 5.4 4.1 5.57 4.1L8.13 4.1ZM3.43 9.59L21.56 9.59L21.56 19.13C21.56 19.29 21.55 19.45 21.51 19.61C21.48 19.73 21.44 19.85 21.39 19.97C21.35 20.08 21.29 20.19 21.22 20.3C21.14 20.42 21.04 20.54 20.93 20.65C20.82 20.76 20.71 20.85 20.58 20.93C20.48 21 20.37 21.06 20.25 21.11C20.13 21.16 20.01 21.2 19.89 21.23C19.74 21.26 19.58 21.28 19.42 21.28L5.57 21.28C5.41 21.28 5.24 21.26 5.08 21.22C4.96 21.2 4.85 21.16 4.74 21.11C4.62 21.06 4.51 21 4.4 20.93C4.28 20.85 4.16 20.76 4.06 20.65C3.95 20.54 3.85 20.43 3.77 20.3C3.7 20.2 3.65 20.09 3.6 19.97C3.55 19.85 3.51 19.74 3.48 19.62C3.45 19.46 3.43 19.3 3.43 19.13L3.43 9.59ZM11.69 11.42L13.41 11.42C13.64 11.42 13.82 11.6 13.82 11.82L13.82 13.54C13.82 13.77 13.64 13.95 13.41 13.95L11.69 13.95C11.47 13.95 11.29 13.77 11.29 13.54L11.29 11.82C11.29 11.6 11.47 11.42 11.69 11.42ZM16.75 11.42L18.47 11.42C18.69 11.42 18.87 11.6 18.87 11.82L18.87 13.54C18.87 13.77 18.69 13.95 18.47 13.95L16.75 13.95C16.53 13.95 16.35 13.77 16.35 13.54L16.35 11.82C16.35 11.6 16.53 11.42 16.75 11.42ZM8.35 16.48L6.63 16.48C6.41 16.48 6.23 16.66 6.23 16.88L6.23 18.6C6.23 18.83 6.41 19.01 6.63 19.01L8.35 19.01C8.58 19.01 8.76 18.83 8.76 18.6L8.76 16.88C8.76 16.66 8.58 16.48 8.35 16.48ZM11.69 16.48L13.41 16.48C13.64 16.48 13.82 16.66 13.82 16.88L13.82 18.6C13.82 18.83 13.64 19.01 13.41 19.01L11.69 19.01C11.47 19.01 11.29 18.83 11.29 18.6L11.29 16.88C11.29 16.66 11.47 16.48 11.69 16.48Z" fill="#FFFFFF" fill-opacity="0.600000" fill-rule="evenodd"/>
</svg>
