<svg width="24.000000" height="24.000000" viewBox="0 0 24 24" fill="none" xmlns="http://www.w3.org/2000/svg" xmlns:xlink="http://www.w3.org/1999/xlink">
	<desc>
		Created with Pixso.
	</desc>
	<defs>
		<clipPath id="clip438_5086">
			<rect id="icon_house_off" width="24.000000" height="24.000000" fill="white" fill-opacity="0"/>
		</clipPath>
	</defs>
	<g clip-path="url(#clip438_5086)">
		<path id="path" d="M18 10.2C18 9.89 17.7 9.6 17.4 9.6L6.59 9.6C6.29 9.6 6 9.89 6 10.2C6 10.5 6.29 10.8 6.59 10.8L17.4 10.8C17.7 10.8 18 10.5 18 10.2ZM10.14 13.2L6.71 13.2C6.35 13.2 6.06 13.44 6.06 13.8C6.06 14.1 6.35 14.4 6.71 14.4L10.14 14.4C10.5 14.4 10.8 14.1 10.8 13.8C10.8 13.44 10.5 13.2 10.14 13.2ZM10.14 16.79L6.71 16.79C6.35 16.79 6.06 17.04 6.06 17.4C6.06 17.7 6.35 18 6.71 18L10.14 18C10.5 18 10.8 17.7 10.8 17.4C10.8 17.04 10.5 16.79 10.14 16.79ZM17.4 6L6.59 6C6.29 6 6 6.3 6 6.6C6 6.89 6.29 7.2 6.59 7.2L17.4 7.2C17.7 7.2 18 6.89 18 6.6C18 6.3 17.7 6 17.4 6Z" fill="#FFFFFF" fill-opacity="0.600000" fill-rule="nonzero"/>
		<path id="path" d="M12 21.6L3.6 21.6L3.6 2.4L20.4 2.4L20.4 11.4C20.4 11.76 20.64 12 21 12C21.36 12 21.6 11.76 21.6 11.4L21.6 1.8C21.6 1.5 21.3 1.2 21 1.2L3 1.2C2.7 1.2 2.4 1.5 2.4 1.8L2.4 22.2C2.4 22.5 2.7 22.8 3 22.8L12 22.8C12.36 22.8 12.6 22.56 12.6 22.2C12.6 21.84 12.36 21.6 12 21.6Z" fill="#FFFFFF" fill-opacity="0.600000" fill-rule="nonzero"/>
		<path id="path" d="M18 13.2C15.36 13.2 13.2 15.36 13.2 18C13.2 20.64 15.36 22.8 18 22.8C20.64 22.8 22.8 20.64 22.8 18C22.8 15.36 20.64 13.2 18 13.2ZM18 21.6C16.02 21.6 14.4 19.98 14.4 18C14.4 16.02 16.02 14.4 18 14.4C19.98 14.4 21.6 16.02 21.6 18C21.6 19.98 19.98 21.6 18 21.6Z" fill="#FFFFFF" fill-opacity="0.600000" fill-rule="nonzero"/>
		<path id="path" d="M19.79 17.4L18.6 17.4L18.6 16.2C18.6 15.9 18.29 15.6 17.99 15.6C17.7 15.6 17.4 15.9 17.4 16.2L17.4 18C17.4 18.29 17.7 18.6 17.99 18.6L19.79 18.6C20.1 18.6 20.4 18.29 20.4 18C20.4 17.7 20.1 17.4 19.79 17.4Z" fill="#FFFFFF" fill-opacity="0.600000" fill-rule="nonzero"/>
	</g>
</svg>
