<svg viewBox="0 0 24 24" xmlns="http://www.w3.org/2000/svg" xmlns:xlink="http://www.w3.org/1999/xlink" width="24.000000" height="24.000000" fill="none" customFrame="#000000">
	<rect id=".Arrow-bottom  filled" width="24.000000" height="24.000000" x="0.000000" y="0.000000" />
	<g id="g">
		<path id="path" d="M11.4667 14.7296C11.5588 14.8512 11.6699 14.9308 11.7997 14.9686C11.9296 15.0105 12.0658 15.0105 12.2082 14.9686C12.3507 14.9308 12.4721 14.8512 12.5727 14.7296L16.8522 9.11321C16.9653 8.95388 17.0135 8.78826 16.9968 8.61635C16.98 8.44444 16.9067 8.29769 16.7768 8.1761C16.6469 8.0587 16.4919 8 16.3118 8L7.67103 8C7.4867 8 7.33588 8.0587 7.21857 8.1761C7.09708 8.29769 7.02586 8.44654 7.00491 8.62264C6.98396 8.79874 7.03005 8.96226 7.14316 9.11321L11.4667 14.7296Z" fill="rgb(0,0,0)" fill-opacity="0.898039222" fill-rule="nonzero" />
	</g>
</svg>
