<svg viewBox="0 0 12 24" xmlns="http://www.w3.org/2000/svg" xmlns:xlink="http://www.w3.org/1999/xlink" width="12.000000" height="24.000000" fill="none">
	<rect id="chevron_left" width="12.000000" height="24.000000" x="0.000000" y="0.000000" />
	<rect id="rect" width="12.000000" height="24.000000" x="0.000000" y="0.000000" opacity="0" />
	<g id="g" opacity="0">
		<path id="path" d="M10.2371 19.7175C10.4207 19.552 10.5081 19.3565 10.4994 19.1308C10.4907 18.9051 10.4032 18.7021 10.2371 18.5215L3.6264 12L10.1977 5.44466C10.3901 5.26413 10.4863 5.06104 10.4863 4.83539C10.4863 4.60973 10.3901 4.41792 10.1977 4.25996C10.0141 4.09448 9.778 4.00797 9.48944 4.00045C9.20962 3.99293 8.98664 4.07943 8.8205 4.25996L1.89504 11.1312C1.64145 11.387 1.51029 11.6766 1.50154 12C1.48405 12.3235 1.61522 12.6131 1.89504 12.8688L8.8205 19.7175C9.00413 19.898 9.22711 19.9921 9.48944 19.9996C9.75177 20.0071 10.001 19.9131 10.2371 19.7175Z" fill="rgb(0,0,0)" fill-opacity="0.898039222" fill-rule="nonzero" />
	</g>
	<path id="" d="M2.08594 11.8828L9.04688 4.92188C9.19141 4.76172 9.26367 4.58203 9.26367 4.38281C9.26367 4.17969 9.19141 3.99805 9.04688 3.83789C8.90234 3.69727 8.72656 3.62695 8.51953 3.62695C8.3125 3.62695 8.13672 3.69727 7.99219 3.83789L1.00781 10.8223C0.71875 11.1113 0.574219 11.4648 0.574219 11.8828C0.574219 12.2969 0.71875 12.6484 1.00781 12.9375L7.96875 19.8691C8.09766 20.0137 8.26953 20.0859 8.48438 20.0859C8.69922 20.0859 8.87891 20.0137 9.02344 19.8691C9.16797 19.7285 9.24023 19.5547 9.24023 19.3477C9.24023 19.1367 9.16797 18.959 9.02344 18.8145L2.08594 11.8828Z" fill="rgb(0,0,0)" fill-opacity="0.898039222" fill-rule="nonzero" />
</svg>
