<svg width="16.000000" height="16.000000" viewBox="0 0 16 16" fill="none" xmlns="http://www.w3.org/2000/svg" xmlns:xlink="http://www.w3.org/1999/xlink">
	<desc>
			Created with Pixso.
	</desc>
	<defs>
		<clipPath id="clip83_9517">
			<rect id="ic_public_navigation" width="16.000000" height="16.000000" fill="white" fill-opacity="0"/>
		</clipPath>
	</defs>
	<g clip-path="url(#clip83_9517)">
		<path id="path-1" d="M12.46 2.01L1.27 6.37C0.95 6.49 0.7 6.75 0.59 7.07C0.38 7.68 0.7 8.34 1.31 8.56L5.85 10.13L7.42 14.67C7.54 14.99 7.79 15.25 8.1 15.38C8.7 15.61 9.38 15.31 9.61 14.71L13.97 3.52C14.07 3.25 14.07 2.95 13.97 2.68C13.73 2.08 13.06 1.78 12.46 2.01ZM13.04 3.04C13.05 3.08 13.05 3.12 13.04 3.16L8.68 14.35C8.65 14.43 8.55 14.48 8.47 14.44C8.42 14.43 8.39 14.39 8.37 14.34L6.79 9.81C6.69 9.52 6.46 9.29 6.18 9.19L1.64 7.61C1.55 7.58 1.51 7.49 1.54 7.4C1.55 7.35 1.59 7.32 1.63 7.3L12.82 2.95C12.91 2.91 13 2.95 13.04 3.04Z" fill="#000000" fill-opacity="0.600000" fill-rule="nonzero"/>
		<path id="path-1" d="M1.27 6.37C0.95 6.49 0.7 6.75 0.59 7.07C0.38 7.68 0.7 8.34 1.31 8.56L5.85 10.13L7.42 14.67C7.54 14.99 7.79 15.25 8.1 15.38C8.7 15.61 9.38 15.31 9.61 14.71L13.97 3.52C14.07 3.25 14.07 2.95 13.97 2.68C13.73 2.08 13.06 1.78 12.46 2.01L1.27 6.37ZM13.04 3.16L8.68 14.35C8.65 14.43 8.55 14.48 8.47 14.44C8.42 14.43 8.39 14.39 8.37 14.34L6.79 9.81C6.69 9.52 6.46 9.29 6.18 9.19L1.64 7.61C1.55 7.58 1.51 7.49 1.54 7.4C1.55 7.35 1.59 7.32 1.63 7.3L12.82 2.95C12.91 2.91 13 2.95 13.04 3.04C13.05 3.08 13.05 3.12 13.04 3.16Z" stroke="#000000" stroke-opacity="0" stroke-width="0.666667"/>
	</g>
</svg>
