<svg width="24.000000" height="24.000000" viewBox="0 0 24 24" fill="none" xmlns="http://www.w3.org/2000/svg" xmlns:xlink="http://www.w3.org/1999/xlink">
    <desc>
        Created with Pixso.
    </desc>
    <defs>
        <clipPath id="clip126_6047">
            <rect id="icon_arrow_up_and_down" width="24.000000" height="24.000000" fill="white" fill-opacity="0"/>
        </clipPath>
    </defs>
    <g clip-path="url(#clip126_6047)">
        <g opacity="0.000000">
            <rect id="rect" width="24.000000" height="24.000000" fill="#000000" fill-opacity="1.000000"/>
        </g>
        <path id="path" d="M12.48 6C12.68 6 12.86 5.92 13.01 5.78C13.15 5.63 13.22 5.46 13.22 5.25C13.22 5.04 13.15 4.86 13.01 4.71C12.86 4.56 12.68 4.48 12.48 4.48L2.22 4.48C2.02 4.48 1.84 4.56 1.69 4.71C1.55 4.86 1.48 5.04 1.48 5.25C1.48 5.46 1.55 5.63 1.69 5.78C1.84 5.92 2.02 6 2.22 6L12.48 6ZM2.22 11.26C2.02 11.26 1.84 11.33 1.69 11.47C1.55 11.61 1.48 11.79 1.48 12C1.48 12.2 1.55 12.38 1.69 12.53C1.84 12.67 2.02 12.74 2.22 12.74L15.77 12.74C15.97 12.74 16.15 12.67 16.29 12.53C16.43 12.38 16.51 12.2 16.51 12C16.51 11.79 16.43 11.61 16.29 11.47C16.15 11.33 15.97 11.26 15.77 11.26L2.22 11.26ZM2.22 18C2.02 18 1.84 18.07 1.69 18.21C1.55 18.36 1.48 18.53 1.48 18.74C1.48 18.95 1.55 19.12 1.69 19.27C1.84 19.41 2.02 19.49 2.22 19.49L12.48 19.49C12.68 19.49 12.86 19.41 13.01 19.27C13.15 19.12 13.22 18.95 13.22 18.74C13.22 18.53 13.15 18.36 13.01 18.21C12.86 18.07 12.68 18 12.48 18L2.22 18Z" fill="#000000" fill-opacity="0.901961" fill-rule="nonzero"/>
        <path id="path" d="M20.46 18.04L20.46 5.7L20.46 2.73C20.46 2.63 20.43 2.56 20.37 2.5C20.31 2.43 20.23 2.39 20.14 2.39C20.03 2.39 19.95 2.43 19.87 2.5L17.05 5.38C17 5.44 16.96 5.51 16.96 5.62C16.96 5.71 17 5.79 17.05 5.87C17.12 5.94 17.2 5.97 17.29 5.97L18.98 5.97L18.98 19.78L18.98 21.26C18.98 21.36 19.01 21.44 19.09 21.52C19.16 21.58 19.24 21.62 19.34 21.62C19.43 21.62 19.52 21.59 19.58 21.53L22.41 18.65C22.48 18.57 22.51 18.48 22.51 18.37C22.51 18.28 22.47 18.2 22.4 18.14C22.33 18.08 22.25 18.04 22.15 18.04L20.46 18.04Z" fill="#000000" fill-opacity="0.901961" fill-rule="nonzero"/>
    </g>
</svg>
