<svg width="24.000000" height="24.000000" viewBox="0 0 24 24" fill="none" xmlns="http://www.w3.org/2000/svg" xmlns:xlink="http://www.w3.org/1999/xlink">
    <desc>
        Created with Pixso.
    </desc>
    <defs>
        <clipPath id="clip126_6000">
            <rect id="icon_modify" width="24.000000" height="24.000000" fill="white" fill-opacity="0"/>
        </clipPath>
    </defs>
    <g clip-path="url(#clip126_6000)">
        <path id="path" d="M13.76 6.27L17.71 10.22C17.73 10.24 17.75 10.25 17.77 10.27C17.78 10.28 17.81 10.29 17.83 10.3C17.85 10.31 17.87 10.32 17.89 10.32C17.92 10.33 17.94 10.33 17.96 10.33C17.99 10.33 18.01 10.33 18.04 10.32C18.06 10.32 18.08 10.31 18.1 10.3C18.12 10.29 18.15 10.28 18.17 10.27C18.18 10.25 18.2 10.24 18.22 10.22L19.57 8.87C19.59 8.85 19.6 8.84 19.62 8.82C19.63 8.8 19.64 8.78 19.65 8.75C19.66 8.73 19.67 8.71 19.67 8.69C19.68 8.66 19.68 8.64 19.68 8.62C19.68 8.59 19.68 8.57 19.67 8.55C19.67 8.52 19.66 8.5 19.65 8.48C19.64 8.46 19.63 8.44 19.62 8.42C19.6 8.4 19.59 8.38 19.57 8.36L15.62 4.41C15.6 4.4 15.59 4.38 15.57 4.37C15.55 4.36 15.53 4.34 15.5 4.34C15.48 4.33 15.46 4.32 15.44 4.31C15.41 4.31 15.39 4.31 15.37 4.31C15.34 4.31 15.32 4.31 15.3 4.31C15.27 4.32 15.25 4.33 15.23 4.34C15.21 4.34 15.19 4.36 15.17 4.37C15.15 4.38 15.13 4.4 15.11 4.41L13.76 5.76C13.74 5.78 13.73 5.8 13.72 5.82C13.7 5.84 13.69 5.86 13.68 5.88C13.67 5.9 13.67 5.92 13.66 5.95C13.66 5.97 13.65 5.99 13.65 6.02C13.65 6.04 13.66 6.07 13.66 6.09C13.67 6.11 13.67 6.13 13.68 6.16C13.69 6.18 13.7 6.2 13.72 6.22C13.73 6.24 13.74 6.26 13.76 6.27ZM12.3 7.23L5.01 14.51C4.93 14.59 4.85 14.68 4.79 14.79C4.72 14.89 4.66 14.99 4.62 15.1C4.57 15.21 4.54 15.33 4.52 15.45C4.5 15.56 4.49 15.68 4.49 15.8L4.53 19.15C4.53 19.2 4.54 19.24 4.56 19.28C4.58 19.33 4.6 19.37 4.64 19.4C4.67 19.43 4.71 19.46 4.75 19.48C4.8 19.49 4.84 19.5 4.89 19.5L8.93 19.5C8.93 19.5 8.94 19.5 8.94 19.5L16.76 11.69C16.77 11.67 16.79 11.65 16.8 11.63C16.81 11.61 16.83 11.59 16.83 11.57C16.84 11.55 16.85 11.53 16.85 11.5C16.86 11.48 16.86 11.46 16.86 11.43C16.86 11.41 16.86 11.38 16.85 11.36C16.85 11.34 16.84 11.32 16.83 11.29C16.83 11.27 16.81 11.25 16.8 11.23C16.79 11.21 16.77 11.19 16.76 11.18L12.81 7.23C12.79 7.21 12.77 7.2 12.75 7.18C12.73 7.17 12.71 7.16 12.69 7.15C12.67 7.14 12.64 7.13 12.62 7.13C12.6 7.12 12.58 7.12 12.55 7.12C12.53 7.12 12.5 7.12 12.48 7.13C12.46 7.13 12.44 7.14 12.41 7.15C12.39 7.16 12.37 7.17 12.35 7.18C12.33 7.2 12.31 7.21 12.3 7.23ZM20.47 7.34C21.17 8.05 21.17 9.19 20.47 9.89L9.89 20.46C9.81 20.55 9.72 20.62 9.62 20.69C9.52 20.75 9.42 20.81 9.31 20.85C9.2 20.9 9.09 20.93 8.97 20.96C8.85 20.98 8.74 20.99 8.62 20.99L4.8 21C3.81 21 3 20.19 3 19.2L3 15.37C2.99 15.25 3.01 15.13 3.03 15.02C3.05 14.9 3.09 14.79 3.13 14.68C3.18 14.57 3.23 14.46 3.3 14.37C3.36 14.27 3.44 14.18 3.52 14.09L14.1 3.52C14.8 2.82 15.94 2.82 16.64 3.52L20.47 7.34ZM13.57 19.65L20.1 19.65C20.59 19.65 21 19.78 21 20.28C21 20.77 20.59 21 20.1 21L13.57 21C13.53 21 13.48 20.99 13.44 20.98C13.4 20.97 13.36 20.96 13.31 20.94C13.27 20.93 13.23 20.91 13.2 20.88C13.16 20.86 13.13 20.83 13.1 20.8C13.06 20.77 13.04 20.73 13.01 20.7C12.99 20.66 12.97 20.62 12.95 20.58C12.93 20.54 12.92 20.5 12.91 20.45C12.9 20.41 12.9 20.36 12.9 20.32C12.9 20.28 12.9 20.23 12.91 20.19C12.92 20.15 12.93 20.1 12.95 20.06C12.97 20.02 12.99 19.98 13.01 19.95C13.04 19.91 13.06 19.87 13.09 19.84C13.13 19.81 13.16 19.78 13.2 19.76C13.23 19.73 13.27 19.71 13.31 19.7C13.35 19.68 13.4 19.67 13.44 19.66C13.48 19.65 13.53 19.65 13.57 19.65Z" fill="#000000" fill-opacity="0.898039" fill-rule="nonzero"/>
    </g>
</svg>
