<svg width="52.000000" height="52.000000" viewBox="0 0 52 52" fill="none" xmlns="http://www.w3.org/2000/svg" xmlns:xlink="http://www.w3.org/1999/xlink">
    <desc>
        Created with Pixso.
    </desc>
    <defs>
        <filter id="filter_63_6108_dd" x="0.000000" y="0.000000" width="52.000000" height="52.000000" filterUnits="userSpaceOnUse" color-interpolation-filters="sRGB">
            <feFlood flood-opacity="0" result="BackgroundImageFix"/>
            <feColorMatrix in="SourceAlpha" type="matrix" values="0 0 0 0 0 0 0 0 0 0 0 0 0 0 0 0 0 0 127 0" result="hardAlpha"/>
            <feOffset dx="0" dy="4"/>
            <feGaussianBlur stdDeviation="1.33333"/>
            <feComposite in2="hardAlpha" operator="out" k2="-1" k3="1"/>
            <feColorMatrix type="matrix" values="0 0 0 0 0 0 0 0 0 0 0 0 0 0 0 0 0 0 0.25 0"/>
            <feBlend mode="normal" in2="BackgroundImageFix" result="effect_dropShadow_1"/>
            <feBlend mode="normal" in="SourceGraphic" in2="effect_dropShadow_1" result="shape"/>
        </filter>
    </defs>
    <g filter="url(#filter_63_6108_dd)">
        <circle id="椭圆 4" cx="26.000000" cy="22.000000" r="22.000000" fill="#64BB5C" fill-opacity="1.000000"/>
        <path id="合并" d="M27.3333 20.6668L27.3333 11.3333C27.3333 10.597 26.7364 10 26 10C25.2636 10 24.6667 10.597 24.6667 11.3333L24.6667 20.6668L15.3333 20.6668C14.597 20.6668 14 21.2638 14 22.0001C14 22.7365 14.597 23.3335 15.3333 23.3335L24.6667 23.3335L24.6667 32.6667C24.6667 33.403 25.2636 34 26 34C26.7364 34 27.3333 33.403 27.3333 32.6667L27.3333 23.3335L36.6667 23.3335C37.403 23.3335 38 22.7365 38 22.0001C38 21.2638 37.403 20.6668 36.6667 20.6668L27.3333 20.6668Z" clip-rule="evenodd" fill="#FFFFFF" fill-opacity="1.000000" fill-rule="evenodd"/>
    </g>
</svg>
