<svg width="8.000000" height="6.000000" viewBox="0 0 8 6" fill="none" xmlns="http://www.w3.org/2000/svg" xmlns:xlink="http://www.w3.org/1999/xlink">
    <desc>
        Created with Pixso.
    </desc>
    <defs/>
    <path id="path" d="M3.57 5.76C3.64 5.87 3.73 5.94 3.83 5.97C3.94 6 4.05 6 4.16 5.97C4.28 5.94 4.37 5.87 4.45 5.76L7.88 0.95C7.97 0.81 8.01 0.67 7.99 0.52C7.98 0.38 7.92 0.25 7.82 0.15C7.71 0.05 7.59 0 7.44 0L0.53 0C0.38 0 0.26 0.05 0.17 0.15C0.07 0.25 0.02 0.38 0 0.53C-0.02 0.68 0.02 0.82 0.11 0.95L3.57 5.76Z" fill="#000000" fill-opacity="0.200000" fill-rule="nonzero"/>
</svg>
