<svg width="13.645508" height="7.309937" viewBox="0 0 13.6455 7.30994" fill="none" xmlns="http://www.w3.org/2000/svg" xmlns:xlink="http://www.w3.org/1999/xlink">
    <desc>
        Created with Pixso.
    </desc>
    <defs/>
    <path id="path" d="M13.5 7.16C13.31 7.35 13.01 7.35 12.82 7.16L6.82 1.16L0.82 7.16C0.63 7.35 0.32 7.35 0.14 7.16C-0.05 6.98 -0.05 6.67 0.14 6.48L6.42 0.2C6.43 0.18 6.45 0.16 6.47 0.14C6.57 0.04 6.69 -0.01 6.82 6.1e-5C6.94 -0.01 7.07 0.04 7.16 0.14C7.19 0.16 7.2 0.18 7.22 0.2L13.5 6.48C13.69 6.67 13.69 6.98 13.5 7.16Z" fill="#000000" fill-opacity="0.600000" fill-rule="nonzero"/>
</svg>