<svg width="13.645508" height="7.309937" viewBox="0 0 13.6455 7.30994" fill="none" xmlns="http://www.w3.org/2000/svg" xmlns:xlink="http://www.w3.org/1999/xlink">
    <desc>
        Created with Pixso.
    </desc>
    <defs/>
    <path id="path" d="M13.5 0.14C13.31 -0.05 13.01 -0.05 12.82 0.14L6.82 6.14L0.82 0.14C0.63 -0.05 0.32 -0.05 0.14 0.14C-0.05 0.32 -0.05 0.63 0.14 0.82L6.42 7.1C6.43 7.12 6.45 7.14 6.47 7.16C6.57 7.26 6.69 7.31 6.82 7.3C6.94 7.31 7.07 7.26 7.16 7.16C7.19 7.14 7.2 7.12 7.22 7.1L13.5 0.82C13.69 0.63 13.69 0.32 13.5 0.14Z" fill="#000000" fill-opacity="0.600000" fill-rule="nonzero"/>
</svg>
