<svg width="24.000000" height="24.000000" viewBox="0 0 24 24" fill="none" xmlns="http://www.w3.org/2000/svg" xmlns:xlink="http://www.w3.org/1999/xlink">
	<desc>
			Created with Pixso.
	</desc>
	<defs>
		<clipPath id="clip375_2397">
			<rect id="svg" width="24.000000" height="24.000000" fill="white" fill-opacity="0"/>
		</clipPath>
	</defs>
	<g clip-path="url(#clip375_2397)">
		<path id="path" d="M24 16.43L24 4.61C24 4.46 23.99 4.31 23.97 4.16C23.96 4.01 23.94 3.86 23.91 3.71C23.88 3.56 23.84 3.41 23.8 3.27C23.75 3.13 23.7 2.98 23.64 2.84C23.59 2.7 23.52 2.57 23.45 2.43C23.38 2.3 23.3 2.17 23.22 2.05C23.13 1.92 23.04 1.8 22.95 1.68C22.85 1.57 22.75 1.45 22.64 1.35C22.54 1.24 22.42 1.14 22.31 1.04C22.19 0.95 22.07 0.86 21.94 0.77C21.82 0.69 21.69 0.61 21.56 0.54C21.42 0.47 21.29 0.4 21.15 0.35C21.01 0.29 20.87 0.24 20.72 0.19C20.58 0.15 20.43 0.11 20.28 0.08C20.13 0.05 19.98 0.03 19.83 0.02C19.68 0 19.53 0 19.38 0L4.61 0C4.46 0 4.31 0 4.16 0.02C4.01 0.03 3.86 0.05 3.71 0.08C3.56 0.11 3.41 0.15 3.27 0.19C3.13 0.24 2.98 0.29 2.84 0.35C2.7 0.4 2.57 0.47 2.43 0.54C2.3 0.61 2.17 0.69 2.05 0.77C1.92 0.86 1.8 0.95 1.68 1.04C1.57 1.14 1.45 1.24 1.35 1.35C1.24 1.45 1.14 1.57 1.04 1.68C0.95 1.8 0.86 1.92 0.77 2.05C0.69 2.17 0.61 2.3 0.54 2.43C0.47 2.57 0.4 2.7 0.35 2.84C0.29 2.98 0.24 3.13 0.19 3.27C0.15 3.41 0.11 3.56 0.08 3.71C0.05 3.86 0.03 4.01 0.02 4.16C0 4.31 6.1e-5 4.46 0 4.61L0 19.38C6.1e-5 19.53 0 19.68 0.02 19.83C0.03 19.98 0.05 20.13 0.08 20.28C0.11 20.43 0.15 20.58 0.19 20.72C0.24 20.86 0.29 21.01 0.35 21.15C0.4 21.29 0.47 21.42 0.54 21.56C0.61 21.69 0.69 21.82 0.77 21.94C0.86 22.07 0.95 22.19 1.04 22.31C1.14 22.42 1.24 22.54 1.35 22.64C1.45 22.75 1.57 22.85 1.68 22.95C1.8 23.04 1.92 23.13 2.05 23.22C2.17 23.3 2.3 23.38 2.43 23.45C2.57 23.52 2.7 23.59 2.84 23.64C2.98 23.7 3.13 23.75 3.27 23.8C3.41 23.84 3.56 23.88 3.71 23.91C3.86 23.94 4.01 23.96 4.16 23.97C4.31 23.99 4.46 24 4.61 24L19.38 24C19.52 23.99 19.65 23.99 19.78 23.98C19.92 23.97 20.05 23.95 20.18 23.92C20.31 23.9 20.44 23.87 20.57 23.84C20.7 23.8 20.83 23.76 20.96 23.72C21.08 23.67 21.21 23.62 21.33 23.56C21.45 23.51 21.57 23.45 21.68 23.38C21.8 23.31 21.91 23.24 22.02 23.16C22.13 23.09 22.24 23.01 22.34 22.92C22.44 22.83 22.54 22.74 22.64 22.65C22.73 22.55 22.82 22.46 22.91 22.35C23 22.25 23.08 22.14 23.16 22.03C23.23 21.93 23.3 21.81 23.37 21.7C23.44 21.58 23.5 21.46 23.56 21.34C23.62 21.22 23.67 21.1 23.71 20.97C23.76 20.84 23.8 20.72 23.84 20.59C23.87 20.46 23.9 20.33 23.92 20.2C22.7 19.67 17.4 17.38 14.63 16.06C12.53 18.6 10.33 20.13 7.01 20.13C3.69 20.13 1.47 18.09 1.74 15.58C1.91 13.94 3.04 11.26 7.93 11.72C10.51 11.96 11.69 12.44 13.8 13.14C14.34 12.14 14.79 11.04 15.14 9.87L5.81 9.87L5.81 8.95L10.42 8.95L10.42 7.29L4.79 7.29L4.79 6.27L10.42 6.27L10.42 3.88C10.42 3.88 10.47 3.5 10.89 3.5L13.2 3.5L13.2 6.27L19.2 6.27L19.2 7.29L13.2 7.29L13.2 8.95L18.09 8.95C17.67 10.7 17 12.37 16.1 13.93C17.52 14.45 24 16.43 24 16.43ZM6.64 18.55C3.13 18.55 2.58 16.33 2.76 15.41C2.95 14.49 3.96 13.29 5.91 13.29C8.15 13.29 10.16 13.86 12.57 15.03C10.88 17.24 8.8 18.55 6.64 18.55Z" fill="#009FE8" fill-opacity="1.000000" fill-rule="nonzero"/>
	</g>
</svg>
