<svg width="24.000000" height="24.000000" viewBox="0 0 24 24" fill="none" xmlns="http://www.w3.org/2000/svg" xmlns:xlink="http://www.w3.org/1999/xlink">
	<desc>
			Created with Pixso.
	</desc>
	<defs>
		<clipPath id="clip375_2399">
			<rect id="svg" width="24.000000" height="24.000000" fill="white" fill-opacity="0"/>
		</clipPath>
	</defs>
	<g clip-path="url(#clip375_2399)">
		<path id="path" d="M11.8 9.53C12.19 9.53 12.45 9.28 12.45 8.9C12.45 8.5 12.19 8.26 11.8 8.26C11.42 8.26 11.06 8.5 11.06 8.9C11.06 9.28 11.42 9.53 11.8 9.53ZM8.23 8.26C7.85 8.26 7.46 8.5 7.46 8.9C7.46 9.28 7.85 9.53 8.23 9.53C8.59 9.53 8.88 9.28 8.88 8.9C8.88 8.5 8.59 8.26 8.23 8.26ZM13.45 11.99C13.2 11.99 12.95 12.22 12.95 12.51C12.95 12.75 13.2 12.99 13.45 12.99C13.83 12.99 14.1 12.75 14.1 12.51C14.1 12.22 13.83 11.99 13.45 11.99ZM16.28 11.99C16.01 11.99 15.77 12.22 15.77 12.51C15.77 12.75 16.01 12.99 16.28 12.99C16.64 12.99 16.91 12.75 16.91 12.51C16.91 12.22 16.64 11.99 16.28 11.99Z" fill="#2AAE67" fill-opacity="1.000000" fill-rule="nonzero"/>
		<path id="path" d="M20.8 0L3.2 0C1.43 0 0 1.43 0 3.19L0 20.8C0 22.56 1.43 24 3.2 24L20.8 24C22.56 24 24 22.56 24 20.8L24 3.19C24 1.43 22.56 0 20.8 0ZM9.67 15.13C8.93 15.13 8.39 15.01 7.69 14.81L5.67 15.84L6.26 14.1C4.84 13.1 4 11.82 4 10.27C4 7.52 6.56 5.42 9.67 5.42C12.44 5.42 14.9 7.08 15.38 9.42C15.18 9.38 15 9.36 14.84 9.36C12.12 9.36 10.02 11.42 10.02 13.9C10.02 14.33 10.08 14.71 10.18 15.11C10.02 15.13 9.84 15.13 9.67 15.13ZM18.01 17.11L18.41 18.57L16.89 17.7C16.32 17.82 15.75 18 15.18 18C12.5 18 10.38 16.14 10.38 13.84C10.38 11.54 12.5 9.68 15.18 9.68C17.71 9.68 20 11.54 20 13.84C20 15.13 19.14 16.28 18.01 17.11Z" fill="#2AAE67" fill-opacity="1.000000" fill-rule="nonzero"/>
	</g>
</svg>
