<svg width="24.000000" height="24.000000" viewBox="0 0 24 24" fill="none" xmlns="http://www.w3.org/2000/svg" xmlns:xlink="http://www.w3.org/1999/xlink">
    <desc>
        Created with Pixso.
    </desc>
    <defs>
        <clipPath id="clip468_5316">
            <rect id="service" width="24.000000" height="24.000000" fill="white" fill-opacity="0"/>
        </clipPath>
    </defs>
    <g clip-path="url(#clip468_5316)">
        <g opacity="0.000000">
            <rect id="rect" width="24.000000" height="24.000000" fill="#000000" fill-opacity="1.000000"/>
        </g>
        <path id="path" d="M20.71 8.85C20.58 7.39 20.12 6.06 19.33 4.86C18.53 3.66 17.5 2.72 16.24 2.02C14.96 1.32 13.59 0.97 12.12 0.97C10.56 0.97 9.13 1.32 7.83 2.02C6.53 2.72 5.47 3.66 4.66 4.86C3.86 6.06 3.39 7.39 3.25 8.85C2.67 9.01 2.18 9.34 1.79 9.82C1.41 10.31 1.21 10.87 1.21 11.5L1.21 13.99C1.21 14.49 1.34 14.95 1.59 15.37C1.84 15.79 2.17 16.13 2.59 16.37C3.02 16.62 3.48 16.75 3.97 16.75C4.47 16.75 4.93 16.62 5.34 16.37C5.76 16.13 6.1 15.79 6.34 15.37C6.59 14.95 6.71 14.49 6.71 13.99L6.71 11.5C6.71 10.88 6.53 10.34 6.17 9.85C5.81 9.37 5.35 9.05 4.77 8.87C4.88 7.69 5.27 6.61 5.94 5.63C6.62 4.66 7.5 3.89 8.57 3.33C9.65 2.77 10.84 2.49 12.12 2.49C13.31 2.49 14.43 2.77 15.48 3.33C16.52 3.89 17.37 4.66 18.04 5.63C18.7 6.61 19.09 7.69 19.21 8.87C18.64 9.05 18.17 9.37 17.81 9.85C17.44 10.34 17.25 10.88 17.25 11.5L17.25 13.99C17.25 14.58 17.42 15.11 17.75 15.59C18.09 16.06 18.53 16.38 19.08 16.56C18.87 17.79 18.5 18.67 17.98 19.2C17.44 19.72 16.81 20.03 16.1 20.11C15.93 19.7 15.68 19.38 15.31 19.12C14.96 18.87 14.56 18.74 14.14 18.74C13.75 18.74 13.39 18.83 13.06 19.03C12.74 19.22 12.48 19.48 12.29 19.81C12.09 20.13 12 20.49 12 20.88C12 21.26 12.09 21.62 12.29 21.95C12.48 22.27 12.74 22.53 13.06 22.73C13.39 22.92 13.75 23.02 14.14 23.02C14.58 23.02 14.99 22.88 15.35 22.62C15.71 22.35 15.97 22.01 16.12 21.6C17.21 21.5 18.16 21.08 18.96 20.33C19.77 19.57 20.31 18.36 20.56 16.7C21.18 16.57 21.71 16.26 22.12 15.76C22.54 15.25 22.75 14.66 22.75 13.99L22.75 11.5C22.75 10.87 22.56 10.31 22.18 9.82C21.79 9.34 21.3 9.01 20.71 8.85ZM5.22 13.99C5.22 14.34 5.1 14.64 4.87 14.88C4.62 15.12 4.33 15.24 3.97 15.24C3.63 15.24 3.33 15.12 3.09 14.88C2.85 14.64 2.73 14.34 2.73 13.99L2.73 11.5C2.73 11.14 2.85 10.85 3.09 10.61C3.33 10.37 3.63 10.25 3.97 10.25C4.33 10.25 4.62 10.37 4.87 10.61C5.1 10.85 5.22 11.14 5.22 11.5L5.22 13.99ZM14.14 21.5C13.96 21.5 13.81 21.44 13.68 21.32C13.56 21.2 13.5 21.05 13.5 20.88C13.5 20.7 13.56 20.56 13.68 20.44C13.81 20.32 13.96 20.26 14.14 20.26C14.31 20.26 14.46 20.32 14.58 20.44C14.7 20.56 14.75 20.7 14.75 20.88C14.75 21.05 14.7 21.2 14.58 21.32C14.46 21.44 14.31 21.5 14.14 21.5ZM21.25 13.99C21.25 14.34 21.14 14.64 20.9 14.88C20.66 15.12 20.36 15.24 20.02 15.24C19.66 15.24 19.37 15.12 19.12 14.88C18.89 14.64 18.77 14.34 18.77 13.99L18.77 11.5C18.77 11.14 18.89 10.85 19.12 10.61C19.37 10.37 19.66 10.25 20.02 10.25C20.36 10.25 20.66 10.37 20.9 10.61C21.14 10.85 21.25 11.14 21.25 11.5L21.25 13.99Z" fill="#FFFFFF" fill-opacity="0.898039" fill-rule="nonzero"/>
    </g>
</svg>
