<svg width="48.000000" height="48.003418" viewBox="0 0 48 48.0034" fill="none" xmlns="http://www.w3.org/2000/svg" xmlns:xlink="http://www.w3.org/1999/xlink">
	<desc>
			Created with Pixso.
	</desc>
	<defs>
		<clipPath id="clip83_9659">
			<rect id="ic_bpit_scenic_spot_filled" width="36.000000" height="36.000000" transform="translate(6.000977 0.000000)" fill="white" fill-opacity="0"/>
		</clipPath>
		<linearGradient x1="24.000000" y1="0.003418" x2="24.000000" y2="48.003418" id="paint_linear_83_9644_0" gradientUnits="userSpaceOnUse">
			<stop stop-color="#64BB5C" stop-opacity="0.000000"/>
			<stop offset="1.000000" stop-color="#64BB5C" stop-opacity="0.200000"/>
		</linearGradient>
	</defs>
	<circle id="椭圆 22" cx="24.000000" cy="24.003418" r="24.000000" fill="url(#paint_linear_83_9644_0)" fill-opacity="1.000000"/>
	<g clip-path="url(#clip83_9659)">
		<path id="path1" d="M7.13 17.98C7.13 15.35 7.12 12.71 7.13 10.07C7.12 8.8 7.28 7.53 7.59 6.29C8.28 3.67 9.99 2.12 12.6 1.52C13.91 1.23 15.25 1.1 16.59 1.12C21.65 1.12 26.7 1.12 31.76 1.12C33.04 1.11 34.31 1.26 35.55 1.56C38.24 2.22 39.86 3.92 40.48 6.61C40.75 7.87 40.88 9.17 40.87 10.47C40.87 15.58 40.87 20.69 40.87 25.8C40.88 27.06 40.73 28.32 40.44 29.55C39.78 32.25 38.06 33.86 35.38 34.47C34.07 34.75 32.73 34.89 31.39 34.87C26.36 34.87 21.32 34.87 16.29 34.87C15 34.88 13.72 34.73 12.47 34.44C9.76 33.78 8.14 32.07 7.52 29.37C7.21 28 7.13 26.62 7.13 25.24C7.13 22.82 7.13 20.4 7.13 17.98Z" fill="#FFFFFF" fill-opacity="0" fill-rule="nonzero"/>
		<path id="path1" d="M7.13 10.07C7.12 8.8 7.28 7.53 7.59 6.29C8.28 3.67 9.99 2.12 12.6 1.52C13.91 1.23 15.25 1.1 16.59 1.12C21.65 1.12 26.7 1.12 31.76 1.12C33.04 1.11 34.31 1.26 35.55 1.56C38.24 2.22 39.86 3.92 40.48 6.61C40.75 7.87 40.88 9.17 40.87 10.47C40.87 15.58 40.87 20.69 40.87 25.8C40.88 27.06 40.73 28.32 40.44 29.55C39.78 32.25 38.06 33.86 35.38 34.47C34.07 34.75 32.73 34.89 31.39 34.87C26.36 34.87 21.32 34.87 16.29 34.87C15 34.88 13.72 34.73 12.47 34.44C9.76 33.78 8.14 32.07 7.52 29.37C7.21 28 7.13 26.62 7.13 25.24C7.13 22.82 7.13 20.4 7.13 17.98C7.13 15.35 7.12 12.71 7.13 10.07Z" stroke="#FFFFFF" stroke-opacity="0" stroke-width="1.800000"/>
		<g opacity="0.200000">
			<path id="path2" d="M7.13 17.98C7.13 15.35 7.12 12.71 7.13 10.07C7.12 8.8 7.28 7.53 7.59 6.29C8.28 3.67 9.99 2.12 12.6 1.52C13.91 1.23 15.25 1.1 16.59 1.12C21.65 1.12 26.7 1.12 31.76 1.12C33.04 1.11 34.31 1.26 35.55 1.56C38.24 2.22 39.86 3.92 40.48 6.61C40.75 7.87 40.88 9.17 40.87 10.47C40.87 15.58 40.87 20.69 40.87 25.8C40.88 27.06 40.73 28.32 40.44 29.55C39.78 32.25 38.06 33.86 35.38 34.47C34.07 34.75 32.73 34.89 31.39 34.87C26.36 34.87 21.32 34.87 16.29 34.87C15 34.88 13.72 34.73 12.47 34.44C9.76 33.78 8.14 32.07 7.52 29.37C7.21 28 7.13 26.62 7.13 25.24C7.13 22.82 7.13 20.4 7.13 17.98Z" fill="#000000" fill-opacity="0" fill-rule="nonzero"/>
			<path id="path2" d="M7.13 10.07C7.12 8.8 7.28 7.53 7.59 6.29C8.28 3.67 9.99 2.12 12.6 1.52C13.91 1.23 15.25 1.1 16.59 1.12C21.65 1.12 26.7 1.12 31.76 1.12C33.04 1.11 34.31 1.26 35.55 1.56C38.24 2.22 39.86 3.92 40.48 6.61C40.75 7.87 40.88 9.17 40.87 10.47C40.87 15.58 40.87 20.69 40.87 25.8C40.88 27.06 40.73 28.32 40.44 29.55C39.78 32.25 38.06 33.86 35.38 34.47C34.07 34.75 32.73 34.89 31.39 34.87C26.36 34.87 21.32 34.87 16.29 34.87C15 34.88 13.72 34.73 12.47 34.44C9.76 33.78 8.14 32.07 7.52 29.37C7.21 28 7.13 26.62 7.13 25.24C7.13 22.82 7.13 20.4 7.13 17.98C7.13 15.35 7.12 12.71 7.13 10.07Z" stroke="#FFFFFF" stroke-opacity="0" stroke-width="1.800000"/>
		</g>
		<circle id="path3" cx="24.000977" cy="18.000000" r="18.000000" fill="#FFFFFF" fill-opacity="0"/>
		<circle id="path3" cx="24.000977" cy="18.000000" r="18.000000" stroke="#000000" stroke-opacity="0" stroke-width="1.800000"/>
		<g opacity="0.400000">
			<path id="合并" d="M40.2742 15.0146L40.2688 15.3599L40.2434 15.8325C40.2388 15.8896 40.2305 15.9468 40.2185 16.0024C40.1968 16.105 40.1626 16.2046 40.116 16.3013C40.0801 16.3765 40.0381 16.4468 39.99 16.5132C39.9475 16.5713 39.9004 16.6265 39.8486 16.6777C39.7683 16.7578 39.6807 16.8252 39.5859 16.8809C39.5378 16.9087 39.488 16.9336 39.4365 16.9551C39.3337 16.9985 39.229 17.0269 39.1223 17.041C39.0391 17.0522 38.9546 17.0542 38.8687 17.0474C38.78 17.0405 38.6938 17.0249 38.6104 17.0005C38.532 16.9775 38.4556 16.9468 38.3816 16.9082C38.3093 16.8706 38.2419 16.8271 38.1792 16.7778C38.1143 16.7266 38.0542 16.6689 37.9993 16.6045C37.9446 16.54 37.8967 16.4722 37.8562 16.3999C37.8171 16.3301 37.7849 16.2563 37.759 16.1792C37.7327 16.1001 37.7144 16.02 37.7041 15.939C37.6929 15.8525 37.6909 15.7651 37.6978 15.6763L37.7073 15.5444C37.7188 15.3657 37.7244 15.1846 37.7244 15C37.7244 14.3569 37.655 13.7295 37.5161 13.1177C37.4067 12.6357 37.2544 12.1641 37.0588 11.7017C36.8589 11.229 36.6208 10.7817 36.3442 10.3599C36.0273 9.87598 35.6599 9.42529 35.2422 9.00732C34.8242 8.58936 34.3735 8.22217 33.8896 7.90527C33.4675 7.62891 33.0203 7.39062 32.5479 7.19092C32.0857 6.99512 31.6135 6.84277 31.1316 6.7334C30.52 6.59473 29.8926 6.5249 29.2493 6.5249C28.6646 6.5249 28.0916 6.58301 27.5305 6.69873C27.1208 6.7832 26.7175 6.89844 26.3206 7.04443C25.9082 7.19629 25.5127 7.37744 25.1335 7.58838L25.1333 7.58838L25.1333 7.58838C24.655 7.85449 24.2029 8.16797 23.7771 8.52832C23.7092 8.58594 23.637 8.63525 23.5603 8.67676C23.4885 8.71582 23.4128 8.74756 23.3333 8.77246C23.2554 8.79688 23.177 8.81348 23.0977 8.82227C23.0151 8.83154 22.9319 8.83301 22.8477 8.82568C22.7634 8.81885 22.6816 8.80371 22.6021 8.78125C22.5251 8.75928 22.4504 8.72998 22.3777 8.69287C22.3035 8.65527 22.2339 8.61133 22.1694 8.56104C22.1008 8.50781 22.0376 8.44678 21.9802 8.37891C21.9226 8.31104 21.8733 8.23877 21.8318 8.16211C21.7927 8.09033 21.761 8.01465 21.7361 7.93506C21.7119 7.85742 21.6953 7.77881 21.6863 7.69922C21.677 7.61719 21.6758 7.53369 21.6826 7.44971C21.6897 7.36523 21.7046 7.28369 21.7275 7.20361C21.7495 7.12695 21.7788 7.05225 21.8154 6.97949C21.853 6.90527 21.897 6.83594 21.9473 6.77148C22.001 6.70264 22.0615 6.63965 22.1296 6.58203C22.6699 6.12451 23.2432 5.72559 23.8491 5.38477L23.8491 5.38477C24.3564 5.09912 24.8865 4.85498 25.4397 4.65137C25.9783 4.45312 26.5254 4.29834 27.0813 4.1875C27.7898 4.0459 28.5125 3.9751 29.2493 3.9751C30.0706 3.9751 30.8723 4.0625 31.6545 4.23682C32.2964 4.37988 32.9253 4.58154 33.541 4.8418C34.1633 5.10498 34.7517 5.41943 35.3069 5.78467C35.9285 6.19385 36.5078 6.66699 37.0452 7.2041C37.5825 7.7417 38.0557 8.3208 38.4648 8.94287C38.8303 9.49756 39.1445 10.0864 39.4077 10.7085C39.668 11.3242 39.8699 11.9531 40.0129 12.5947C40.1873 13.3774 40.2742 14.1934 40.2742 15.0146Z" clip-rule="evenodd" fill="#64BB5C" fill-opacity="1.000000" fill-rule="evenodd"/>
		</g>
		<path id="合并" d="M6.6001 22.5C6.6001 22.1948 6.64087 21.9019 6.72266 21.6206C6.80444 21.3394 6.927 21.0698 7.09058 20.812L15.3354 7.81982C15.4587 7.62598 15.5991 7.44922 15.7571 7.28955C15.8926 7.15283 16.0408 7.02881 16.2019 6.91748C16.3628 6.80615 16.531 6.71094 16.7065 6.63232C16.8984 6.54688 17.0989 6.48047 17.3081 6.43359C17.5171 6.38672 17.7268 6.36133 17.9368 6.35742C18.1292 6.354 18.3218 6.36816 18.5146 6.40039C18.7078 6.43262 18.8948 6.48193 19.0757 6.54785L19.0757 6.54785C19.2866 6.625 19.489 6.7251 19.6831 6.84814C19.8894 6.979 20.0759 7.12939 20.2427 7.29932C20.4094 7.46875 20.5566 7.6582 20.6838 7.8667L26.1865 16.8828L29.5188 13.6523C29.6819 13.4941 29.8577 13.3564 30.0461 13.2393C30.209 13.1377 30.3813 13.0513 30.563 12.9805C30.7441 12.9097 30.9285 12.856 31.1162 12.8198C31.3208 12.7808 31.5295 12.7622 31.7422 12.7642C31.9548 12.7661 32.1633 12.7891 32.3672 12.832C32.5542 12.8721 32.7375 12.9287 32.917 13.0034C33.0969 13.0776 33.2671 13.167 33.4275 13.271C33.614 13.3926 33.7876 13.5342 33.948 13.6958L40.4802 20.2817C40.6421 20.4448 40.7832 20.6211 40.9036 20.8105C41.0068 20.9731 41.095 21.145 41.1677 21.3271C41.2407 21.5088 41.2959 21.6938 41.3335 21.8823L41.3335 21.8823C41.3745 22.0884 41.3945 22.2988 41.3938 22.5127C41.3928 22.7271 41.3711 22.937 41.3281 23.1431C41.2891 23.3311 41.2324 23.5156 41.1582 23.6968C41.0837 23.8779 40.9944 24.0493 40.8896 24.2109L40.8896 24.2114C40.7676 24.3994 40.625 24.5747 40.4619 24.7363C40.3145 24.8828 40.1558 25.0122 39.9861 25.125C39.8162 25.2378 39.6353 25.3335 39.4431 25.4126C39.2512 25.4917 39.0552 25.5513 38.8552 25.5908C38.6553 25.6304 38.4514 25.6499 38.2437 25.6499L9.75 25.6499C9.52026 25.6499 9.29565 25.626 9.07642 25.5781C8.88843 25.5371 8.7041 25.4785 8.52368 25.4019C8.34375 25.3262 8.17358 25.2349 8.01343 25.1289L8.01294 25.1284C7.83765 25.0127 7.67432 24.8789 7.52271 24.7275C7.37109 24.5757 7.2373 24.4126 7.12158 24.2373L7.12158 24.2373C7.01538 24.0767 6.92432 23.9067 6.8479 23.7266C6.77173 23.5459 6.71289 23.3618 6.67188 23.1738C6.62402 22.9541 6.6001 22.73 6.6001 22.5ZM38.7021 28.189C38.7524 28.0518 38.7776 27.9053 38.7776 27.7495C38.7776 27.6606 38.7686 27.5732 38.7507 27.4883L38.7507 27.4883C38.7341 27.4082 38.7095 27.3296 38.677 27.2529C38.6453 27.1782 38.6072 27.1074 38.5627 27.041C38.5166 26.9722 38.4639 26.9077 38.4041 26.8481C38.3442 26.7881 38.28 26.7354 38.2112 26.6895C38.1448 26.645 38.074 26.6069 37.999 26.5752C37.9231 26.543 37.8455 26.5186 37.7664 26.502C37.6802 26.4834 37.5923 26.4746 37.5024 26.4746L10.354 26.4805C10.2048 26.5078 9.98877 26.5713 9.86499 26.6426L9.86499 26.6426C9.7395 26.7148 9.62695 26.8101 9.52759 26.9277C9.42773 27.0464 9.35278 27.1738 9.30298 27.3105L9.30273 27.3105C9.25269 27.4478 9.22754 27.5938 9.22754 27.7495C9.22754 27.8384 9.23633 27.9258 9.25439 28.0107L9.25439 28.0112C9.271 28.0908 9.29565 28.1694 9.32812 28.2461C9.35986 28.3213 9.39795 28.3916 9.44238 28.458L9.44287 28.459C9.48877 28.5273 9.5415 28.5918 9.60107 28.6509C9.66064 28.7109 9.7251 28.7637 9.79395 28.8101C9.86035 28.854 9.93091 28.8921 10.0059 28.9238C10.082 28.9561 10.1594 28.9805 10.2388 28.9971L10.2388 28.9971L10.239 28.9971C10.325 29.0156 10.4128 29.0244 10.5027 29.0244L37.6511 29.0186C37.8003 28.9912 38.0164 28.9277 38.1399 28.8564C38.2656 28.7842 38.3779 28.689 38.4773 28.5713C38.5771 28.4531 38.6521 28.3252 38.7021 28.189ZM35.7021 31.564C35.7524 31.4268 35.7776 31.2803 35.7776 31.1245C35.7776 31.0356 35.7686 30.9482 35.7507 30.8633C35.7341 30.7832 35.7095 30.7046 35.677 30.6279C35.6453 30.5532 35.6072 30.4824 35.5627 30.416C35.5166 30.3472 35.4639 30.2827 35.4041 30.2231C35.3442 30.1631 35.28 30.1104 35.2112 30.0645C35.1448 30.02 35.074 29.9819 34.999 29.9502C34.9233 29.918 34.8459 29.8936 34.7668 29.877C34.6807 29.8589 34.5925 29.8496 34.5022 29.8496L13.354 29.8555C13.2048 29.8828 12.9888 29.9463 12.865 30.0176C12.7395 30.0898 12.627 30.1851 12.5276 30.3027C12.4277 30.4214 12.3528 30.5488 12.303 30.6855C12.2527 30.8228 12.2275 30.9688 12.2275 31.1245C12.2275 31.2134 12.2363 31.3008 12.2544 31.3857C12.271 31.4658 12.2957 31.5444 12.3281 31.6211C12.3599 31.6963 12.3979 31.7666 12.4424 31.833C12.4883 31.9019 12.5413 31.9663 12.6011 32.0259C12.6606 32.0859 12.7251 32.1387 12.7939 32.1846C12.8604 32.229 12.9309 32.2671 13.0059 32.2988C13.0818 32.3311 13.1592 32.3555 13.238 32.3721C13.3245 32.3906 13.4126 32.3994 13.5027 32.3994L34.6511 32.3936C34.8003 32.3662 35.0164 32.3027 35.1399 32.2314C35.2656 32.1592 35.3779 32.064 35.4773 31.9463C35.5771 31.8281 35.6521 31.7002 35.7021 31.564Z" clip-rule="evenodd" fill="#64BB5C" fill-opacity="1.000000" fill-rule="evenodd"/>
	</g>
</svg>
