<svg viewBox="0 0 120 120" xmlns="http://www.w3.org/2000/svg" xmlns:xlink="http://www.w3.org/1999/xlink" width="120.000000" height="120.000000" fill="none">
	<rect id="05 SearchNoResult" width="120.000000" height="120.000000" x="0.000000" y="0.000000" />
	<g id="EmptyPage/05-SearchNoResult">
		<g id="编组">
			<path id="shadow" d="M72.3174 96.515C73.868 96.5315 78.2712 97.1257 80.2099 90.7893C86.6692 92.1757 90.75 94.2175 90.75 96.494C90.75 100.675 76.9828 104.065 60 104.065C43.0172 104.065 29.25 100.675 29.25 96.494L29.251 96.5143L72.3174 96.515Z" opacity="0.150000006" fill="rgb(161,167,179)" fill-rule="evenodd" />
			<g id="名单">
				<path id="形状结合" d="M89.6271 15.4448C94.618 15.4448 98.1316 19.7487 98.1316 24.5402C98.1316 24.6405 98.1299 24.7403 98.1266 24.8397L98.1316 24.8394L98.1316 33.8145L81.1227 33.8145L81.1227 24.8394C81.1244 24.7403 81.1227 24.6405 81.1227 24.5402C81.1227 19.7487 84.6363 15.4448 89.6271 15.4448Z" opacity="0.600000024" fill="rgb(161,167,179)" fill-rule="evenodd" />
				<path id="形状结合" d="M89.754 15.5967C86.3875 15.5967 84.1818 17.358 83.0669 18.9025C81.6574 20.8553 81.169 22.6571 81.1459 24.3125C81.1356 25.0483 81.1321 25.7782 81.1356 26.5023L81.1459 27.5841L81.1458 51.4437C72.8733 53.2316 66.675 60.5913 66.675 69.3988C66.675 78.1243 72.7585 85.4289 80.9155 87.3025C79.7096 97.3247 74.1091 96.5342 72.3174 96.5152L25.3334 96.5149L25.333 96.4937L13.2834 96.4941C12.2927 96.4941 9.13546 94.2419 7.33516 90.6731C6.13496 88.2939 5.55848 84.7632 5.60572 80.0812L25.333 80.0807L25.3334 25.4942C25.3334 20.4597 27.7356 17.1923 32.5399 15.692L32.8566 15.5967L89.754 15.5967Z" opacity="0.300000012" fill="rgb(161,167,179)" fill-rule="evenodd" />
				<path id="矩形" d="M5.60572 80.0811L62.7295 80.0811C62.3526 85.7863 63.0813 89.8341 64.9157 92.2245C66.7501 94.6148 69.4661 96.038 73.0638 96.494C33.8707 96.494 13.9439 96.494 13.2834 96.494C12.2927 96.494 9.13546 94.2418 7.33516 90.673C6.13496 88.2938 5.55848 84.7631 5.60572 80.0811Z" opacity="0.400000006" fill="rgb(161,167,179)" fill-rule="evenodd" />
			</g>
			<g id="放大镜">
				<path id="形状结合" d="M98.5303 81.8699L102.098 85.4373C103.043 85.0546 104.167 85.2466 104.934 86.0134L114.175 95.2546C115.198 96.2775 115.198 97.936 114.175 98.9589L113.922 99.2117C112.9 100.235 111.241 100.235 110.218 99.2117L100.977 89.9705C100.21 89.2038 100.018 88.0802 100.401 87.1346L96.7894 83.5217C97.405 83.0093 97.9866 82.4574 98.5303 81.8699Z" opacity="0.600000024" fill="rgb(161,167,179)" fill-rule="evenodd" />
				<path id="形状结合" d="M85.0446 51.0269C95.1899 51.0269 103.414 59.2512 103.414 69.3965C103.414 79.5418 95.1899 87.7661 85.0446 87.7661C74.8994 87.7661 66.675 79.5418 66.675 69.3965C66.675 59.2512 74.8994 51.0269 85.0446 51.0269ZM85.0446 55.109C77.1539 55.109 70.7571 61.5057 70.7571 69.3965C70.7571 77.2873 77.1539 83.684 85.0446 83.684C92.9354 83.684 99.3321 77.2873 99.3321 69.3965C99.3321 61.5057 92.9354 55.109 85.0446 55.109Z" opacity="0.5" fill="rgb(161,167,179)" fill-rule="evenodd" />
				<circle id="椭圆形" cx="85.0446396" cy="69.3963852" r="14.2875004" opacity="0.200000003" fill="rgb(161,167,179)" />
				<rect id="矩形" width="8.164286" height="1.360714" x="0.000000" y="0.000000" rx="0.680357" opacity="0.200000003" fill="rgb(161,167,179)" transform="matrix(-0.258819,0.965926,-0.965926,-0.258819,95.4277,66.4165)" />
				<rect id="矩形备份" width="4.082142" height="1.360714" x="0.000000" y="0.000000" rx="0.680357" opacity="0.200000003" fill="rgb(161,167,179)" transform="matrix(-0.258819,0.965926,-0.965926,-0.258819,92.8584,63.6255)" />
			</g>
		</g>
		<path id="形状结合" d="M2.6754 1.88555L4.51456 8.74937C4.70906 9.47527 4.27828 10.2214 3.55239 10.4159C2.82649 10.6104 2.08036 10.1796 1.88586 9.45373L0.0467033 2.58991C-0.1478 1.86401 0.282978 1.11789 1.00887 0.923382C1.73477 0.728878 2.4809 1.15966 2.6754 1.88555ZM20.9393 0.923382C21.6652 1.11789 22.096 1.86401 21.9015 2.58991L20.0623 9.45373C19.8678 10.1796 19.1217 10.6104 18.3958 10.4159C17.6699 10.2214 17.2391 9.47527 17.4336 8.74937L19.2728 1.88555C19.4673 1.15966 20.2134 0.728878 20.9393 0.923382ZM11.3521 0C12.1036 0 12.7128 0.609211 12.7128 1.36071L12.7128 8.46667C12.7128 9.21817 12.1036 9.82738 11.3521 9.82738C10.6006 9.82738 9.99134 9.21817 9.99134 8.46667L9.99134 1.36071C9.99134 0.609211 10.6006 0 11.3521 0Z" opacity="0.300000012" fill="rgb(161,167,179)" fill-rule="evenodd" transform="matrix(0.601815,-0.798636,0.798636,0.601815,51.899,57.1116)" />
	</g>
</svg>
