<svg width="24.000000" height="24.000000" viewBox="0 0 24 24" fill="none" xmlns="http://www.w3.org/2000/svg" xmlns:xlink="http://www.w3.org/1999/xlink">
	<desc>
			Created with Pixso.
	</desc>
	<defs>
		<clipPath id="clip66_2058">
			<rect width="24.000000" height="24.000000" fill="white" fill-opacity="0"/>
		</clipPath>
	</defs>
	<g clip-path="url(#clip66_2058)">
		<g opacity="0.000000">
			<rect width="24.000000" height="24.000000" fill="#D8D8D8" fill-opacity="1.000000"/>
			<rect width="24.000000" height="24.000000" stroke="#000000" stroke-opacity="0" stroke-width="1.000000"/>
		</g>
		<path d="M20.46 5.78C20.76 5.48 21.23 5.48 21.53 5.78C21.79 6.04 21.82 6.46 21.6 6.75L10.59 17.78C9.75 18.61 8.42 18.65 7.53 17.89L7.4 17.78L2.46 12.84C2.17 12.54 2.17 12.07 2.46 11.78C2.73 11.51 3.15 11.49 3.44 11.7L8.46 16.71C8.73 16.98 9.15 17.01 9.44 16.79L20.46 5.78Z" fill="#191919" fill-opacity="1.000000" fill-rule="evenodd"/>
		<path d="M21.53 5.78C21.79 6.04 21.82 6.46 21.6 6.75L10.59 17.78C9.75 18.61 8.42 18.65 7.53 17.89L7.4 17.78L2.46 12.84C2.17 12.54 2.17 12.07 2.46 11.78C2.73 11.51 3.15 11.49 3.44 11.7L8.46 16.71C8.73 16.98 9.15 17.01 9.44 16.79L20.46 5.78C20.76 5.48 21.23 5.48 21.53 5.78Z" stroke="#000000" stroke-opacity="0" stroke-width="1.000000"/>
	</g>
</svg>
