<svg width="40.000000" height="40.000000" viewBox="0 0 40 40" fill="none" xmlns="http://www.w3.org/2000/svg" xmlns:xlink="http://www.w3.org/1999/xlink">
	<desc>
			Created with Pixso.
	</desc>
	<rect id="rect" rx="20.000000" width="40.000000" height="40.000000" fill="#000000" fill-opacity="0.047059"/>
	<g clip-path="url(#clip26_1787)">
		<g opacity="0.000000">
			<rect id="rect" x="8.000488" y="8.000000" width="24.000000" height="24.000000" fill="#000000" fill-opacity="1.000000"/>
		</g>
		<path id="path" d="M14 9C13.16 9 12.46 9.29 11.88 9.87C11.29 10.46 11 11.17 11 12L11 27.98C11 28.82 11.29 29.53 11.88 30.11C12.46 30.69 13.16 30.98 14 30.98L26 30.98C26.83 30.98 27.54 30.69 28.12 30.11C28.7 29.53 29 28.82 29 27.98L29 12C29 11.17 28.7 10.46 28.12 9.87C27.54 9.29 26.83 9 26 9L14 9ZM27.51 27.98C27.51 28.4 27.36 28.76 27.07 29.05C26.77 29.35 26.41 29.5 26 29.5L14 29.5C13.58 29.5 13.23 29.35 12.94 29.05C12.65 28.76 12.51 28.4 12.51 27.98L12.51 12C12.51 11.58 12.65 11.23 12.94 10.93C13.23 10.64 13.58 10.5 14 10.5L26 10.5C26.41 10.5 26.77 10.64 27.07 10.93C27.36 11.23 27.51 11.58 27.51 12L27.51 27.98ZM15.51 14.25C15.3 14.25 15.12 14.33 14.98 14.48C14.84 14.62 14.77 14.8 14.77 15C14.77 15.21 14.84 15.39 14.98 15.53C15.12 15.67 15.3 15.75 15.51 15.75L24.46 15.75C24.67 15.75 24.85 15.67 24.99 15.53C25.13 15.39 25.21 15.21 25.21 15C25.21 14.8 25.13 14.62 24.99 14.48C24.85 14.33 24.67 14.25 24.46 14.25L15.51 14.25ZM15.51 19.27C15.3 19.27 15.12 19.35 14.98 19.5C14.84 19.63 14.77 19.81 14.77 20.01C14.77 20.23 14.84 20.4 14.98 20.54C15.12 20.69 15.3 20.76 15.51 20.76L24.46 20.76C24.67 20.76 24.85 20.69 24.99 20.54C25.13 20.4 25.21 20.23 25.21 20.01C25.21 19.81 25.13 19.63 24.99 19.5C24.85 19.35 24.67 19.27 24.46 19.27L15.51 19.27ZM15.51 24.25C15.3 24.25 15.12 24.32 14.98 24.48C14.84 24.62 14.77 24.8 14.77 25.01C14.77 25.22 14.84 25.39 14.98 25.53C15.12 25.68 15.3 25.75 15.51 25.75L19.98 25.75C20.18 25.75 20.36 25.68 20.5 25.53C20.64 25.39 20.72 25.22 20.72 25.01C20.72 24.8 20.65 24.62 20.52 24.48C20.38 24.32 20.2 24.25 20 24.25L15.51 24.25Z" fill="#000000" fill-opacity="0.898039" fill-rule="nonzero"/>
	</g>
</svg>
