<svg width="40.000000" height="40.000000" viewBox="0 0 40 40" fill="none" xmlns="http://www.w3.org/2000/svg" xmlns:xlink="http://www.w3.org/1999/xlink">
	<desc>
			Created with Pixso.
	</desc>
	<rect id="ic_public_trash" rx="20.000000" width="40.000000" height="40.000000" fill="#000000" fill-opacity="0.047059"/>
	<g clip-path="url(#clip35_7628)">
		<g opacity="0.000000">
			<rect id="rect" x="8.000000" y="8.000000" width="24.000000" height="24.000000" fill="#000000" fill-opacity="1.000000"/>
		</g>
		<path id="path" d="M23.17 16.93C23.05 16.93 22.95 16.88 22.86 16.78C22.76 16.68 22.71 16.58 22.71 16.47L22.71 11.17C22.71 10.75 22.61 10.37 22.41 10.04C22.21 9.7 21.94 9.44 21.61 9.24C21.27 9.04 20.9 8.94 20.5 8.94C20.1 8.94 19.73 9.04 19.39 9.24C19.04 9.44 18.77 9.71 18.57 10.05C18.37 10.39 18.27 10.77 18.27 11.17L18.27 16.47C18.27 16.59 18.22 16.7 18.14 16.8C18.05 16.88 17.95 16.93 17.84 16.93L15.2 16.93C14.7 16.93 14.25 17.05 13.83 17.3C13.41 17.54 13.08 17.88 12.84 18.3C12.58 18.71 12.46 19.16 12.46 19.66L12.44 25.35C12.44 26.33 12.37 27.2 12.24 27.96C12.1 28.72 11.91 29.29 11.67 29.67C11.54 29.87 11.5 30.09 11.54 30.31C11.58 30.52 11.68 30.7 11.84 30.85C12 30.99 12.19 31.06 12.42 31.06L25.71 31.06C26.21 31.06 26.66 30.93 27.08 30.69C27.49 30.44 27.82 30.1 28.08 29.68C28.32 29.26 28.45 28.8 28.45 28.3L28.45 19.66C28.45 19.16 28.32 18.71 28.08 18.3C27.82 17.88 27.49 17.54 27.08 17.3C26.66 17.05 26.21 16.93 25.71 16.93L23.17 16.93ZM17.82 18.42C18.36 18.42 18.82 18.23 19.2 17.85C19.57 17.47 19.76 17.01 19.76 16.47L19.76 11.17C19.76 10.96 19.83 10.79 19.98 10.65C20.12 10.51 20.28 10.45 20.48 10.45C20.68 10.45 20.86 10.51 21 10.65C21.13 10.79 21.2 10.96 21.2 11.17L21.2 16.47C21.2 17.01 21.39 17.47 21.78 17.85C22.16 18.23 22.62 18.42 23.17 18.42L25.71 18.42C26.05 18.42 26.34 18.54 26.59 18.78C26.83 19.02 26.96 19.31 26.96 19.66C26.96 19.84 26.96 20.01 26.96 20.19L13.95 20.19L13.95 19.66C13.95 19.31 14.07 19.02 14.32 18.78C14.57 18.54 14.86 18.42 15.2 18.42L17.82 18.42ZM23.1 29.55C23.51 28.49 23.72 27.45 23.72 26.43L23.72 23.43C23.72 23.22 23.64 23.04 23.5 22.9C23.36 22.76 23.18 22.69 22.98 22.69C22.76 22.69 22.59 22.76 22.45 22.9C22.3 23.04 22.23 23.22 22.23 23.43L22.23 26.43C22.23 26.91 22.16 27.42 22.02 27.97C21.87 28.51 21.68 29.03 21.44 29.55L18.1 29.55C18.53 28.46 18.75 27.42 18.75 26.43L18.75 23.43C18.75 23.22 18.68 23.04 18.54 22.9C18.39 22.76 18.21 22.69 18.01 22.69C17.8 22.69 17.62 22.76 17.47 22.9C17.31 23.04 17.24 23.22 17.24 23.43L17.24 26.43C17.24 26.93 17.17 27.44 17.04 27.98C16.9 28.51 16.7 29.03 16.45 29.55L13.38 29.55C13.76 28.43 13.95 27.03 13.95 25.35L13.95 21.68L26.96 21.68L26.96 28.3C26.96 28.65 26.84 28.95 26.6 29.19C26.36 29.43 26.06 29.55 25.71 29.55L23.1 29.55Z" fill="#000000" fill-opacity="0.898039" fill-rule="nonzero"/>
	</g>
</svg>
