<svg width="48.000000" height="48.000000" viewBox="0 0 48 48" fill="none" xmlns="http://www.w3.org/2000/svg" xmlns:xlink="http://www.w3.org/1999/xlink">
	<desc>
			Created with Pixso.
	</desc>
	<g clip-path="url(#clip35_7376)">
		<circle id="椭圆 4" cx="24.000000" cy="24.000000" r="24.000000" fill="#64BB5C" fill-opacity="1.000000"/>
		<g clip-path="url(#clip78_18071)">
			<g opacity="0.000000">
				<rect id="rect" x="12.007812" y="11.895020" width="24.000000" height="24.000000" fill="#000000" fill-opacity="1.000000"/>
			</g>
			<path id="path" d="M31.01 34.88C31.57 34.88 32.04 34.69 32.42 34.31C32.81 33.92 33 33.45 33 32.89L33 31.55C33 31.29 32.92 31.07 32.74 30.9C32.56 30.72 32.35 30.63 32.09 30.63L19.85 30.63C19.27 30.63 18.78 30.84 18.37 31.27C17.97 31.7 17.76 32.2 17.76 32.79C17.76 33.37 17.97 33.86 18.37 34.27C18.78 34.68 19.27 34.88 19.85 34.88L31.01 34.88ZM16.44 32.75C16.44 32.12 16.6 31.55 16.9 31.03C17.2 30.51 17.62 30.1 18.14 29.79C18.68 29.49 19.25 29.34 19.85 29.34L32.09 29.34C32.39 29.34 32.7 29.4 33 29.53L33 14.89C33 14.33 32.81 13.85 32.41 13.46C32.02 13.07 31.54 12.87 30.98 12.87L19.01 12.87C18.27 12.87 17.6 13.05 16.99 13.41C16.39 13.77 15.9 14.26 15.54 14.88C15.18 15.49 15 16.16 15 16.88L15 30.87C15 31.56 15.16 32.2 15.48 32.78C15.8 33.37 16.24 33.84 16.78 34.21C16.56 33.73 16.44 33.24 16.44 32.75ZM20.66 20.15C20.46 20.15 20.28 20.07 20.14 19.92C20 19.77 19.92 19.59 19.92 19.38C19.92 19.17 20 19 20.14 18.85C20.28 18.7 20.46 18.63 20.66 18.63L28.68 18.63C28.89 18.63 29.07 18.7 29.21 18.85C29.35 19 29.42 19.17 29.42 19.38C29.42 19.59 29.35 19.77 29.21 19.92C29.07 20.07 28.89 20.15 28.68 20.15L20.66 20.15ZM20.66 24.13C20.46 24.13 20.28 24.06 20.14 23.91C20 23.77 19.92 23.6 19.92 23.39C19.92 23.18 20 23 20.14 22.86C20.28 22.71 20.46 22.64 20.66 22.64L25.66 22.64C25.87 22.64 26.04 22.71 26.18 22.86C26.33 23 26.4 23.18 26.4 23.39C26.4 23.6 26.33 23.77 26.18 23.91C26.04 24.06 25.87 24.13 25.66 24.13L20.66 24.13Z" fill="#FFFFFF" fill-opacity="1.000000" fill-rule="nonzero"/>
		</g>
	</g>
</svg>
