<svg width="40.000000" height="40.000000" viewBox="0 0 40 40" fill="none" xmlns="http://www.w3.org/2000/svg" xmlns:xlink="http://www.w3.org/1999/xlink">
	<desc>
			Created with Pixso.
	</desc>
	<defs>
		<clipPath id="clip24_2483">
			<rect id="icon_me_collection" width="40.000000" height="40.000000" fill="white" fill-opacity="0"/>
		</clipPath>
	</defs>
	<g clip-path="url(#clip24_2483)">
		<path id="uxs-a" d="M21.29 8.76L23.88 14.02C24.09 14.43 24.48 14.72 24.93 14.81L30.73 15.66C31.92 15.83 32.41 17.27 31.59 18.12L27.4 22.22L27.3 22.33C24.61 24.66 22.07 26.48 19.39 28.06L14.18 30.79C13.12 31.35 11.88 30.47 12.03 29.3L13.02 23.52C13.1 23.06 12.96 22.6 12.65 22.27L8.44 18.17C7.58 17.33 8.03 15.88 9.2 15.67L15 14.83C15.45 14.76 15.85 14.48 16.08 14.08L18.68 8.81C19.21 7.74 20.72 7.72 21.29 8.76Z" fill="#F7CE00" fill-opacity="1.000000" fill-rule="nonzero"/>
		<path id="uxs-a" d="M23.88 14.02C24.09 14.43 24.48 14.72 24.93 14.81L30.73 15.66C31.92 15.83 32.41 17.27 31.59 18.12L27.4 22.22L27.3 22.33C24.61 24.66 22.07 26.48 19.39 28.06L14.18 30.79C13.12 31.35 11.88 30.47 12.03 29.3L13.02 23.52C13.1 23.06 12.96 22.6 12.65 22.27L8.44 18.17C7.58 17.33 8.03 15.88 9.2 15.67L15 14.83C15.45 14.76 15.85 14.48 16.08 14.08L18.68 8.81C19.21 7.74 20.72 7.72 21.29 8.76L23.88 14.02Z" stroke="#000000" stroke-opacity="0" stroke-width="1.000000"/>
		<g opacity="0.400000">
			<path id="path" d="M26.95 23.45L27.94 29.24C28.14 30.42 26.92 31.33 25.86 30.81L20.67 28.09C20.26 27.87 19.79 27.86 19.38 28.05C22.05 26.47 24.56 24.7 27.25 22.37C27.01 22.67 26.9 23.06 26.95 23.45Z" fill="#F7CE00" fill-opacity="1.000000" fill-rule="evenodd"/>
			<path id="path" d="M27.94 29.24C28.14 30.42 26.92 31.33 25.86 30.81L20.67 28.09C20.26 27.87 19.79 27.86 19.38 28.05C22.05 26.47 24.56 24.7 27.25 22.37C27.01 22.67 26.9 23.06 26.95 23.45L27.94 29.24Z" stroke="#000000" stroke-opacity="0" stroke-width="1.000000"/>
		</g>
	</g>
</svg>
