<svg width="48.000000" height="48.000000" viewBox="0 0 48 48" fill="none" xmlns="http://www.w3.org/2000/svg" xmlns:xlink="http://www.w3.org/1999/xlink">
	<desc>
			Created with Pixso.
	</desc>
	<defs>
		<clipPath id="clip35_7360">
			<rect id="icon_system_message" width="48.000000" height="48.000000" fill="white" fill-opacity="0"/>
		</clipPath>
	</defs>
	<g clip-path="url(#clip35_7360)">
		<circle id="椭圆 4" cx="24.000000" cy="24.000000" r="24.000000" fill="#0084FF" fill-opacity="1.000000"/>
		<path id="矢量 219" d="M21.38 31.98C21.32 31.98 21.26 32 21.22 32.04C21.18 32.08 21.16 32.13 21.16 32.2C21.23 32.91 21.54 33.53 22.08 34.04C22.62 34.54 23.27 34.79 24.02 34.79C24.76 34.79 25.4 34.54 25.94 34.04C26.49 33.53 26.79 32.91 26.83 32.2C26.83 32.13 26.82 32.08 26.78 32.04C26.75 32 26.7 31.98 26.64 31.98L21.38 31.98Z" fill="#FFFFFF" fill-opacity="0.600000" fill-rule="nonzero"/>
		<path id="矢量 219" d="M32.01 27.15C31.9 26.99 31.81 26.83 31.75 26.65C31.69 26.47 31.65 26.28 31.65 26.07L31.65 21.7C31.65 20.68 31.45 19.71 31.04 18.77C30.64 17.85 30.06 17.04 29.32 16.34C28.59 15.64 27.74 15.12 26.78 14.77L26.59 14.72C26.48 14.69 26.37 14.66 26.25 14.62C26.13 14.14 25.86 13.75 25.44 13.45C25.02 13.15 24.55 12.99 24.02 12.99C23.48 12.99 23 13.15 22.58 13.46C22.17 13.78 21.9 14.16 21.76 14.62C20.88 14.9 20.15 15.26 19.56 15.7C18.57 16.41 17.79 17.3 17.22 18.38C16.65 19.46 16.36 20.61 16.36 21.82L16.36 26.07C16.36 26.28 16.34 26.47 16.28 26.65C16.23 26.83 16.14 26.99 16 27.15L15.36 27.97C15.15 28.24 15.03 28.54 15 28.87C14.97 29.2 15.02 29.51 15.16 29.81C15.32 30.12 15.54 30.36 15.82 30.53C16.1 30.71 16.41 30.8 16.75 30.8L31.24 30.8C31.58 30.8 31.89 30.71 32.17 30.53C32.45 30.36 32.67 30.12 32.83 29.81C32.97 29.49 33.03 29.17 33 28.84C32.97 28.52 32.85 28.22 32.64 27.94L32.01 27.15Z" fill="#FFFFFF" fill-opacity="1.000000" fill-rule="nonzero"/>
	</g>
</svg>
