<svg width="16.000000" height="16.000000" viewBox="0 0 16 16" fill="none" xmlns="http://www.w3.org/2000/svg" xmlns:xlink="http://www.w3.org/1999/xlink">
	<desc>
			Created with Pixso.
	</desc>
	<g clip-path="url(#clip78_18259)">
		<circle id="椭圆 4" cx="8.000000" cy="8.000000" r="8.000000" fill="#64BB5C" fill-opacity="1.000000"/>
		<g clip-path="url(#clip78_18261)">
			<g opacity="0.000000">
				<rect id="rect" x="4.002686" y="3.965088" width="8.000000" height="8.000000" fill="#000000" fill-opacity="1.000000"/>
			</g>
			<path id="path" d="M10.33 11.62C10.52 11.62 10.68 11.56 10.8 11.43C10.93 11.3 11 11.15 11 10.96L11 10.51C11 10.43 10.97 10.35 10.91 10.3C10.85 10.24 10.78 10.21 10.69 10.21L6.61 10.21C6.42 10.21 6.26 10.28 6.12 10.42C5.99 10.56 5.92 10.73 5.92 10.93C5.92 11.12 5.99 11.28 6.12 11.42C6.26 11.56 6.42 11.62 6.61 11.62L10.33 11.62ZM5.48 10.91C5.48 10.7 5.53 10.51 5.63 10.34C5.73 10.17 5.87 10.03 6.04 9.93C6.22 9.83 6.41 9.78 6.61 9.78L10.69 9.78C10.79 9.78 10.9 9.8 11 9.84L11 4.96C11 4.77 10.93 4.61 10.8 4.48C10.67 4.35 10.51 4.29 10.32 4.29L6.33 4.29C6.09 4.29 5.86 4.35 5.66 4.47C5.46 4.59 5.3 4.75 5.18 4.96C5.06 5.16 5 5.38 5 5.62L5 10.29C5 10.52 5.05 10.73 5.16 10.92C5.26 11.12 5.41 11.28 5.59 11.4C5.52 11.24 5.48 11.08 5.48 10.91ZM6.88 6.71C6.82 6.71 6.76 6.69 6.71 6.64C6.66 6.59 6.64 6.53 6.64 6.46C6.64 6.39 6.66 6.33 6.71 6.28C6.76 6.23 6.82 6.21 6.88 6.21L9.56 6.21C9.63 6.21 9.69 6.23 9.73 6.28C9.78 6.33 9.8 6.39 9.8 6.46C9.8 6.53 9.78 6.59 9.73 6.64C9.69 6.69 9.63 6.71 9.56 6.71L6.88 6.71ZM6.88 8.04C6.82 8.04 6.76 8.02 6.71 7.97C6.66 7.92 6.64 7.86 6.64 7.79C6.64 7.72 6.66 7.66 6.71 7.62C6.76 7.57 6.82 7.54 6.88 7.54L8.55 7.54C8.62 7.54 8.68 7.57 8.72 7.62C8.77 7.66 8.8 7.72 8.8 7.79C8.8 7.86 8.77 7.92 8.72 7.97C8.68 8.02 8.62 8.04 8.55 8.04L6.88 8.04Z" fill="#FFFFFF" fill-opacity="1.000000" fill-rule="nonzero"/>
		</g>
	</g>
</svg>
