<svg width="40.000000" height="40.000000" viewBox="0 0 40 40" fill="none" xmlns="http://www.w3.org/2000/svg" xmlns:xlink="http://www.w3.org/1999/xlink">
	<desc>
			Created with Pixso.
	</desc>
	<defs>
		<clipPath id="clip24_2493">
			<rect id="icon_me_download" width="40.000000" height="40.000000" fill="white" fill-opacity="0"/>
		</clipPath>
	</defs>
	<g clip-path="url(#clip24_2493)">
		<mask id="mask_24_2503" fill="white">
			<path id="减去顶层" d="M31.0036 12.554L31.0036 28.4877C31.0036 30.4274 29.4281 31.9999 27.4847 31.9999L12.5226 31.9999C10.5791 31.9999 9.00363 30.4274 9.00363 28.4877L9.00363 12.554C9.00363 12.3853 9.01553 12.2195 9.03854 12.0573C9.24534 13.3074 10.3326 14.2605 11.6429 14.2605L28.358 14.2605C29.6757 14.2605 30.7679 13.2966 30.9656 12.0354C30.9908 12.2072 31.0036 12.3791 31.0036 12.554ZM18.8688 18.25L21.0603 18.25C21.6655 18.25 22.1561 18.7471 22.1561 19.3603L22.1558 23.2963L23.8524 23.2968L23.9515 23.3035C24.308 23.3525 24.5829 23.6622 24.5829 24.0369C24.5829 24.2369 24.5031 24.4283 24.3616 24.5677L20.7649 28.1011C20.3473 28.4294 19.7484 28.4105 19.3512 28.0391L15.5774 24.5009C15.3539 24.2201 15.3611 23.8082 15.6098 23.535C15.7481 23.3831 15.9427 23.2968 16.1467 23.2968L17.7726 23.2963L17.773 19.3603L17.7787 19.2468C17.8348 18.6869 18.3015 18.25 18.8688 18.25Z" clip-rule="evenodd" fill="" fill-opacity="1.000000" fill-rule="evenodd"/>
		</mask>
		<path id="减去顶层" d="M31.0036 12.554L31.0036 28.4877C31.0036 30.4274 29.4281 31.9999 27.4847 31.9999L12.5226 31.9999C10.5791 31.9999 9.00363 30.4274 9.00363 28.4877L9.00363 12.554C9.00363 12.3853 9.01553 12.2195 9.03854 12.0573C9.24534 13.3074 10.3326 14.2605 11.6429 14.2605L28.358 14.2605C29.6757 14.2605 30.7679 13.2966 30.9656 12.0354C30.9908 12.2072 31.0036 12.3791 31.0036 12.554ZM18.8688 18.25L21.0603 18.25C21.6655 18.25 22.1561 18.7471 22.1561 19.3603L22.1558 23.2963L23.8524 23.2968L23.9515 23.3035C24.308 23.3525 24.5829 23.6622 24.5829 24.0369C24.5829 24.2369 24.5031 24.4283 24.3616 24.5677L20.7649 28.1011C20.3473 28.4294 19.7484 28.4105 19.3512 28.0391L15.5774 24.5009C15.3539 24.2201 15.3611 23.8082 15.6098 23.535C15.7481 23.3831 15.9427 23.2968 16.1467 23.2968L17.7726 23.2963L17.773 19.3603L17.7787 19.2468C17.8348 18.6869 18.3015 18.25 18.8688 18.25Z" clip-rule="evenodd" fill="#61CFBE" fill-opacity="1.000000" fill-rule="evenodd" mask="url(#mask_24_2503)"/>
		<path id="减去顶层" d="" fill="#000000" fill-opacity="0.000000" fill-rule="nonzero"/>
		<g opacity="0.400000">
			<rect id="rect" x="9.000000" y="9.000000" rx="2.353000" width="22.000000" height="5.268596" fill="#61CFBE" fill-opacity="1.000000"/>
			<rect id="rect" x="9.000000" y="9.000000" rx="2.353000" width="22.000000" height="5.268596" stroke="#000000" stroke-opacity="0" stroke-width="1.000000"/>
		</g>
	</g>
</svg>
