<svg width="24.000000" height="24.000000" viewBox="0 0 24 24" fill="none" xmlns="http://www.w3.org/2000/svg" xmlns:xlink="http://www.w3.org/1999/xlink">
	<desc>
			Created with Pixso.
	</desc>
	<defs>
		<clipPath id="clip78_17980">
			<rect id="icon_me_notification" width="24.000000" height="24.000000" fill="white" fill-opacity="0"/>
		</clipPath>
	</defs>
	<g clip-path="url(#clip78_17980)">
		<g opacity="0.000000">
			<rect id="rect" width="24.000000" height="24.000000" fill="#000000" fill-opacity="1.000000"/>
		</g>
		<path id="path" d="M9.35 20.11C9.21 20.11 9.14 20.17 9.14 20.29C9.2 21.04 9.51 21.65 10.06 22.15C10.6 22.65 11.24 22.9 12 22.9C12.75 22.9 13.39 22.64 13.93 22.14C14.47 21.63 14.77 21.01 14.83 20.28C14.83 20.16 14.76 20.11 14.64 20.11L9.35 20.11ZM19.99 15.26C19.75 14.94 19.62 14.58 19.62 14.18L19.62 9.82C19.62 8.24 19.18 6.82 18.29 5.56C17.41 4.28 16.24 3.39 14.78 2.88C14.68 2.84 14.59 2.82 14.51 2.79C14.42 2.77 14.33 2.74 14.23 2.71C14.1 2.25 13.83 1.86 13.42 1.54C13 1.23 12.52 1.08 12 1.08C11.47 1.08 10.99 1.23 10.57 1.56C10.14 1.88 9.87 2.28 9.74 2.76C8.92 2.98 8.19 3.34 7.53 3.82C6.54 4.5 5.76 5.39 5.2 6.48C4.62 7.56 4.34 8.72 4.34 9.93L4.34 14.18C4.34 14.58 4.23 14.94 4 15.26L3.34 16.08C3.1 16.44 2.98 16.81 2.98 17.18C2.98 17.42 3.04 17.67 3.17 17.93C3.31 18.23 3.52 18.46 3.8 18.65C4.07 18.82 4.39 18.91 4.73 18.91L19.25 18.91C19.58 18.91 19.89 18.82 20.17 18.65C20.45 18.46 20.66 18.23 20.81 17.93C20.93 17.67 21 17.4 21 17.14C21 16.71 20.88 16.36 20.64 16.06L19.99 15.26ZM19.49 17.28C19.41 17.36 19.33 17.4 19.25 17.4L4.73 17.4C4.63 17.4 4.55 17.36 4.5 17.28C4.44 17.18 4.46 17.09 4.53 16.99L5.16 16.18C5.62 15.58 5.85 14.91 5.85 14.16L5.85 9.91C5.85 8.95 6.08 8.04 6.53 7.17C6.97 6.31 7.6 5.6 8.39 5.04C9.45 4.28 10.65 3.91 12 3.91C12.78 3.91 13.54 4.04 14.26 4.29C15.4 4.71 16.33 5.42 17.04 6.42C17.76 7.43 18.12 8.55 18.12 9.79L18.12 14.16C18.12 14.91 18.34 15.58 18.79 16.18L19.44 16.96C19.5 17.08 19.52 17.18 19.49 17.28Z" fill="#000000" fill-opacity="0.600000" fill-rule="nonzero"/>
	</g>
</svg>
