<svg width="40.000000" height="40.000000" viewBox="0 0 40 40" fill="none" xmlns="http://www.w3.org/2000/svg" xmlns:xlink="http://www.w3.org/1999/xlink">
	<desc>
			Created with Pixso.
	</desc>
	<defs>
		<clipPath id="clip24_2475">
			<rect id="icon_me_course" width="40.000000" height="40.000000" fill="white" fill-opacity="0"/>
		</clipPath>
	</defs>
	<g clip-path="url(#clip24_2475)">
		<g opacity="0.400000" style="mix-blend-mode:multiply">
			<path id="path" d="M25.66 32L28.33 32C29.8 32 31 30.76 31 29.23L31 22.76C31 21.23 29.8 20 28.33 20L25.66 20C24.19 20 23 21.23 23 22.76L23 29.23C23 30.76 24.19 32 25.66 32Z" fill="#8981F7" fill-opacity="1.000000" fill-rule="evenodd"/>
		</g>
		<g style="mix-blend-mode:normal">
			<path id="path" d="M24.57 8C25.99 8 27.14 9.15 27.14 10.57L27.14 29.42C27.14 30.84 25.99 32 24.57 32L12.57 32C11.15 32 10 30.84 10 29.42L10 10.57C10 9.15 11.15 8 12.57 8L24.57 8ZM22.85 11.42L19.42 11.42C18.95 11.42 18.57 11.81 18.57 12.28L18.57 16.63C18.57 16.81 18.63 16.99 18.74 17.13C19.01 17.47 19.51 17.53 19.85 17.25L20.87 16.44C21.03 16.31 21.25 16.31 21.41 16.44L22.42 17.25C22.56 17.36 22.74 17.43 22.92 17.43C23.36 17.43 23.71 17.07 23.71 16.63L23.71 12.28C23.71 11.81 23.33 11.42 22.85 11.42Z" fill="#8981F7" fill-opacity="1.000000" fill-rule="evenodd"/>
		</g>
	</g>
</svg>
