<svg width="40.000000" height="40.000000" viewBox="0 0 40 40" fill="none" xmlns="http://www.w3.org/2000/svg" xmlns:xlink="http://www.w3.org/1999/xlink">
	<desc>
			Created with Pixso.
	</desc>
	<defs>
		<clipPath id="clip35_7006">
			<rect id="icon_me_answers" width="40.000000" height="40.000000" fill="white" fill-opacity="0"/>
		</clipPath>
	</defs>
	<g clip-path="url(#clip35_7006)">
		<mask id="mask_35_7013" fill="white">
			<path id="减去顶层" d="M16.1875 11L14.4912 11C12.5631 11 11.0001 12.563 11.0001 14.4911L11.0001 29.6196C11.0001 31.5477 12.5631 33.1108 14.4912 33.1108L26.1285 33.1108C28.0566 33.1108 29.6197 31.5477 29.6197 29.6196L29.6197 14.4911C29.6197 12.563 28.0566 11 26.1285 11L24.8101 11C25.1472 11.5804 25.0237 12.3751 24.5342 12.7748C24.3547 12.9215 24.1418 13 23.9238 13L17.0788 13C16.483 13 16 12.4272 16 11.7206C16 11.4636 16.0654 11.2124 16.1875 11ZM25.1393 15.6174L15.4804 15.6174C14.9341 15.6174 14.4912 16.0602 14.4912 16.6065C14.4912 17.1528 14.9341 17.5957 15.4804 17.5957L25.1393 17.5957C25.6856 17.5957 26.1285 17.1528 26.1285 16.6065C26.1285 16.0602 25.6856 15.6174 25.1393 15.6174ZM25.1393 20.6512L15.4804 20.6512C14.9341 20.6512 14.4912 21.0941 14.4912 21.6404C14.4912 22.1867 14.9341 22.6296 15.4804 22.6296L25.1393 22.6296C25.6856 22.6296 26.1285 22.1867 26.1285 21.6404C26.1285 21.0941 25.6856 20.6512 25.1393 20.6512ZM21.6481 25.6851L15.4804 25.6851C14.9341 25.6851 14.4912 26.1279 14.4912 26.6743C14.4912 27.2206 14.9341 27.6634 15.4804 27.6634L21.6481 27.6634C22.1945 27.6634 22.6373 27.2206 22.6373 26.6743C22.6373 26.1279 22.1945 25.6851 21.6481 25.6851Z" clip-rule="evenodd" fill="" fill-opacity="1.000000" fill-rule="evenodd"/>
		</mask>
		<path id="减去顶层" d="M16.1875 11L14.4912 11C12.5631 11 11.0001 12.563 11.0001 14.4911L11.0001 29.6196C11.0001 31.5477 12.5631 33.1108 14.4912 33.1108L26.1285 33.1108C28.0566 33.1108 29.6197 31.5477 29.6197 29.6196L29.6197 14.4911C29.6197 12.563 28.0566 11 26.1285 11L24.8101 11C25.1472 11.5804 25.0237 12.3751 24.5342 12.7748C24.3547 12.9215 24.1418 13 23.9238 13L17.0788 13C16.483 13 16 12.4272 16 11.7206C16 11.4636 16.0654 11.2124 16.1875 11ZM25.1393 15.6174L15.4804 15.6174C14.9341 15.6174 14.4912 16.0602 14.4912 16.6065C14.4912 17.1528 14.9341 17.5957 15.4804 17.5957L25.1393 17.5957C25.6856 17.5957 26.1285 17.1528 26.1285 16.6065C26.1285 16.0602 25.6856 15.6174 25.1393 15.6174ZM25.1393 20.6512L15.4804 20.6512C14.9341 20.6512 14.4912 21.0941 14.4912 21.6404C14.4912 22.1867 14.9341 22.6296 15.4804 22.6296L25.1393 22.6296C25.6856 22.6296 26.1285 22.1867 26.1285 21.6404C26.1285 21.0941 25.6856 20.6512 25.1393 20.6512ZM21.6481 25.6851L15.4804 25.6851C14.9341 25.6851 14.4912 26.1279 14.4912 26.6743C14.4912 27.2206 14.9341 27.6634 15.4804 27.6634L21.6481 27.6634C22.1945 27.6634 22.6373 27.2206 22.6373 26.6743C22.6373 26.1279 22.1945 25.6851 21.6481 25.6851Z" clip-rule="evenodd" fill="#F9A01E" fill-opacity="1.000000" fill-rule="evenodd" mask="url(#mask_35_7013)"/>
		<path id="减去顶层" d="" fill="#000000" fill-opacity="0.000000" fill-rule="nonzero"/>
		<g opacity="0.400000">
			<path id="path" d="M18.47 9L22.51 9C23.22 9 23.88 9.41 24.29 10.1L24.81 11C25.14 11.58 25.02 12.37 24.53 12.77C24.35 12.92 24.14 13 23.92 13L17.07 13C16.48 13 16 12.42 16 11.72C16 11.46 16.06 11.21 16.18 11L16.69 10.11C17.09 9.41 17.76 9 18.47 9Z" fill="#F9A01E" fill-opacity="1.000000" fill-rule="evenodd"/>
			<path id="path" d="M22.51 9C23.22 9 23.88 9.41 24.29 10.1L24.81 11C25.14 11.58 25.02 12.37 24.53 12.77C24.35 12.92 24.14 13 23.92 13L17.07 13C16.48 13 16 12.42 16 11.72C16 11.46 16.06 11.21 16.18 11L16.69 10.11C17.09 9.41 17.76 9 18.47 9L22.51 9Z" stroke="#000000" stroke-opacity="0" stroke-width="1.000000"/>
		</g>
	</g>
</svg>
