<svg width="24.000000" height="24.000000" viewBox="0 0 24 24" fill="none" xmlns="http://www.w3.org/2000/svg" xmlns:xlink="http://www.w3.org/1999/xlink">
  <metadata>
    <agcit_code>agcit_huawei_book_read_reader_tool_bar</agcit_code>
  </metadata>
	<desc>
			Created with Pixso.
	</desc>
	<defs/>
	<rect id="icon-setting" width="24.000000" height="24.000000" fill="#FFFFFF" fill-opacity="0"/>
	<path id="多边形 14" d="M5.42 21.39C5.77 22.01 6.44 22.39 7.15 22.39L16.84 22.39C17.55 22.39 18.22 22.01 18.57 21.39L23.42 13C23.77 12.38 23.77 11.61 23.42 11L18.57 2.6C18.22 1.98 17.55 1.6 16.84 1.6L7.15 1.6C6.44 1.6 5.77 1.98 5.42 2.6L0.57 11C0.22 11.61 0.22 12.38 0.57 13L5.42 21.39ZM6.72 20.64C6.81 20.79 6.97 20.89 7.15 20.89L16.84 20.89C17.02 20.89 17.18 20.79 17.27 20.64L22.12 12.25C22.21 12.09 22.21 11.9 22.12 11.75L17.27 3.35C17.18 3.2 17.02 3.1 16.84 3.1L7.15 3.1C6.97 3.1 6.81 3.2 6.72 3.35L1.87 11.75C1.78 11.9 1.78 12.09 1.87 12.25L6.72 20.64Z" fill="#FFFFFF" fill-opacity="0.600000" fill-rule="evenodd"/>
	<circle id="椭圆 50" cx="12.000000" cy="12.000000" r="4.250000" stroke="#FFFFFF" stroke-opacity="0.600000" stroke-width="1.500000" style=""/>
</svg>
