<svg width="24.000000" height="24.000000" viewBox="0 0 24 24" fill="none" xmlns="http://www.w3.org/2000/svg" xmlns:xlink="http://www.w3.org/1999/xlink">
  <metadata>
    <agcit_code>agcit_huawei_book_read_reader_tool_bar</agcit_code>
  </metadata>
	<desc>
			Created with Pixso.
	</desc>
	<defs>
		<clipPath id="clip169_10190">
			<rect width="24.000000" height="24.000000" fill="white" fill-opacity="0"/>
		</clipPath>
	</defs>
	<rect width="24.000000" height="24.000000" fill="#914646" fill-opacity="0"/>
	<g clip-path="url(#clip169_10190)">
		<path d="M15.17 16.13C16.87 15.07 18 13.18 18 11.02C18 7.69 15.31 5 12 5C8.68 5 6 7.69 6 11.02C6 13.18 7.12 15.07 8.82 16.13L8.82 18.29C8.82 18.68 9.13 19 9.52 19L14.47 19C14.86 19 15.17 18.68 15.17 18.29L15.17 16.13ZM16.87 9.88C16.95 10.25 17 10.63 17 11.02C17 11.49 16.93 11.95 16.81 12.38C16.7 12.77 16.55 13.14 16.35 13.49C16.25 13.67 16.15 13.83 16.03 13.99C15.9 14.17 15.76 14.34 15.6 14.5C15.44 14.67 15.27 14.82 15.09 14.97C14.95 15.08 14.8 15.19 14.64 15.29C14.49 15.38 14.38 15.5 14.3 15.65C14.21 15.8 14.17 15.96 14.17 16.13L14.17 18L9.82 18L9.82 16.13C9.82 15.96 9.78 15.8 9.69 15.65C9.61 15.5 9.5 15.38 9.35 15.29C9.19 15.19 9.04 15.08 8.9 14.97C8.72 14.82 8.55 14.67 8.39 14.5C8.23 14.34 8.09 14.17 7.96 13.99C7.84 13.83 7.74 13.67 7.64 13.49C7.44 13.14 7.29 12.77 7.18 12.38C7.06 11.95 7 11.49 7 11.02C7 10.63 7.04 10.25 7.12 9.88C7.19 9.6 7.28 9.33 7.39 9.06C7.51 8.78 7.65 8.51 7.82 8.25C8 7.97 8.22 7.71 8.46 7.47C8.71 7.21 8.99 6.99 9.28 6.8C9.52 6.64 9.78 6.5 10.05 6.39C10.32 6.27 10.6 6.18 10.89 6.12C11.25 6.04 11.62 6 12 6C12.37 6 12.74 6.04 13.1 6.12C13.39 6.18 13.67 6.27 13.94 6.39C14.21 6.5 14.47 6.64 14.71 6.8C15 6.99 15.28 7.21 15.53 7.47C15.77 7.71 15.99 7.97 16.17 8.25C16.34 8.51 16.48 8.78 16.6 9.06C16.71 9.33 16.8 9.6 16.87 9.88Z" fill="#FFFFFF" fill-opacity="0.600000" fill-rule="evenodd"/>
		<path d="M9.46 20C9.18 20 8.96 20.21 8.96 20.5C8.96 20.78 9.18 21 9.46 21L14.46 21C14.74 21 14.96 20.78 14.96 20.5C14.96 20.21 14.74 20 14.46 20L9.46 20Z" fill="#FFFFFF" fill-opacity="0.600000" fill-rule="evenodd"/>
		<path d="M11.93 3.54C12.16 3.54 12.35 3.46 12.51 3.3C12.67 3.13 12.74 2.94 12.74 2.7L12.74 1.83C12.74 1.6 12.67 1.4 12.51 1.23C12.35 1.07 12.16 1 11.93 1C11.69 1 11.5 1.07 11.34 1.23C11.18 1.4 11.1 1.6 11.1 1.83L11.1 2.7C11.1 2.94 11.18 3.13 11.34 3.3C11.5 3.46 11.69 3.54 11.93 3.54ZM3.7 10.87C3.94 10.87 4.13 10.78 4.28 10.62C4.44 10.46 4.52 10.27 4.52 10.05C4.52 9.82 4.44 9.62 4.28 9.46C4.13 9.3 3.94 9.22 3.7 9.22L2.8 9.22C2.57 9.22 2.38 9.3 2.22 9.46C2.07 9.62 2 9.82 2 10.05C2 10.27 2.07 10.46 2.22 10.62C2.38 10.78 2.57 10.87 2.8 10.87L3.7 10.87ZM21.19 10.87C21.42 10.87 21.61 10.78 21.77 10.62C21.92 10.46 22 10.27 22 10.05C22 9.82 21.92 9.62 21.77 9.46C21.61 9.3 21.42 9.22 21.19 9.22L20.29 9.22C20.05 9.22 19.86 9.3 19.71 9.46C19.55 9.62 19.47 9.82 19.47 10.05C19.47 10.27 19.55 10.46 19.71 10.62C19.86 10.78 20.05 10.87 20.29 10.87L21.19 10.87ZM6.14 5.98C6.34 5.98 6.54 5.89 6.73 5.73C6.89 5.54 6.97 5.34 6.97 5.14C6.97 4.92 6.89 4.73 6.73 4.57L6.09 3.93C5.93 3.77 5.74 3.69 5.51 3.69C5.29 3.69 5.09 3.77 4.93 3.93C4.77 4.09 4.69 4.29 4.69 4.52C4.69 4.74 4.77 4.93 4.93 5.1L5.57 5.73C5.73 5.89 5.92 5.98 6.14 5.98ZM17.85 5.98C18.04 5.98 18.23 5.89 18.42 5.73L19.06 5.1C19.22 4.93 19.3 4.74 19.3 4.52C19.3 4.29 19.22 4.09 19.06 3.93C18.9 3.77 18.7 3.69 18.47 3.69C18.25 3.69 18.06 3.77 17.9 3.93L17.26 4.57C17.1 4.73 17.02 4.92 17.02 5.14C17.02 5.34 17.1 5.54 17.26 5.73C17.45 5.89 17.65 5.98 17.85 5.98Z" fill="#FFFFFF" fill-opacity="0.600000" fill-rule="nonzero"/>
		<path d="M13.5 10.5L14 10.5C14.27 10.5 14.5 10.27 14.5 10C14.5 9.72 14.27 9.5 14 9.5L10 9.5C9.72 9.5 9.5 9.72 9.5 10C9.5 10.27 9.72 10.5 10 10.5L11.5 10.5L11.5 14C11.5 14.27 11.72 14.5 12 14.5C12.27 14.5 12.5 14.27 12.5 14L12.5 10.5L13.5 10.5Z" fill="#FFFFFF" fill-opacity="0.600000" fill-rule="evenodd"/>
	</g>
</svg>
