<svg width="24.000000" height="24.000000" viewBox="0 0 24 24" fill="none" xmlns="http://www.w3.org/2000/svg" xmlns:xlink="http://www.w3.org/1999/xlink">
  <metadata>
    <agcit_code>agcit_huawei_book_read_reader_tool_bar</agcit_code>
  </metadata>
	<desc>
			Created with Pixso.
	</desc>
	<defs>
		<clipPath id="clip74_9612">
			<rect width="24.000000" height="24.000000" fill="white" fill-opacity="0"/>
		</clipPath>
	</defs>
	<g clip-path="url(#clip74_9612)">
		<path d="M7.19 4.05L22.79 4.05C23.22 4.05 23.54 4.38 23.54 4.8C23.54 5.22 23.22 5.55 22.79 5.55L7.19 5.55C6.77 5.55 6.44 5.22 6.44 4.8C6.44 4.38 6.77 4.05 7.19 4.05ZM7.19 11.25L22.79 11.25C23.22 11.25 23.54 11.58 23.54 12C23.54 12.42 23.22 12.75 22.79 12.75L7.19 12.75C6.77 12.75 6.44 12.42 6.44 12C6.44 11.58 6.77 11.25 7.19 11.25ZM7.19 18.45L22.79 18.45C23.22 18.45 23.54 18.78 23.54 19.2C23.54 19.62 23.22 19.95 22.79 19.95L7.19 19.95C6.77 19.95 6.44 19.62 6.44 19.2C6.44 18.78 6.77 18.45 7.19 18.45Z" fill="#FFFFFF" fill-opacity="0.600000" fill-rule="evenodd"/>
		<path d="M1.2 4.05L3.6 4.05C4.02 4.05 4.35 4.38 4.35 4.8C4.35 5.22 4.02 5.55 3.6 5.55L1.2 5.55C0.78 5.55 0.45 5.22 0.45 4.8C0.45 4.38 0.78 4.05 1.2 4.05ZM1.2 11.25L3.6 11.25C4.02 11.25 4.35 11.58 4.35 12C4.35 12.42 4.02 12.75 3.6 12.75L1.2 12.75C0.78 12.75 0.45 12.42 0.45 12C0.45 11.58 0.78 11.25 1.2 11.25ZM1.2 18.45L3.6 18.45C4.02 18.45 4.35 18.78 4.35 19.2C4.35 19.62 4.02 19.95 3.6 19.95L1.2 19.95C0.78 19.95 0.45 19.62 0.45 19.2C0.45 18.78 0.78 18.45 1.2 18.45Z" fill="#FFFFFF" fill-opacity="0.600000" fill-rule="evenodd"/>
	</g>
</svg>
