<?xml version="1.0" standalone="no"?><!DOCTYPE svg PUBLIC "-//W3C//DTD SVG 1.1//EN"
        "http://www.w3.org/Graphics/SVG/1.1/DTD/svg11.dtd">
<svg class="icon" width="200px" height="200.00px" viewBox="0 0 1024 1024" version="1.1"
     xmlns="http://www.w3.org/2000/svg">
    <path d="M817.96608 464.47104l-111.60064-41.32864-70.25152-128.11776c-4.13696-4.13696-8.27904-8.2688-8.27904-12.40064-4.11648-4.13184-4.11648-4.13184-8.25344-8.26368-28.93312-28.93312-70.25152-33.06496-107.44832-16.53248l-194.2528 66.13504c-16.53248 4.12672-28.928 20.6592-33.05984 37.19168L268.288 514.06336c-4.12672 24.8064 16.53248 49.60256 41.32864 53.72416h4.13696c24.79616 0 45.4656-16.52224 45.4656-41.3184l12.39552-119.8592 74.38848-24.80128c-12.39552 28.928-24.79616 57.86112-33.05984 78.52544-16.53248 37.1968-16.53248 86.78912 4.13184 128.12288l-128.11776 297.5744c-12.39552 28.91264 0 66.11968 28.92288 78.52032 13.21472 4.61824 26.84928 1.34144 31.49312 0.768 19.05664-2.33984 42.90048-13.16864 51.1744-37.9648l95.0528-214.90688c57.856 103.31136 123.98592 223.17568 123.98592 227.30752 12.39552 20.66944 33.05984 33.06496 53.72928 33.06496 8.25344 0 20.65408-4.14208 28.92288-8.2688 28.93312-16.52736 41.33376-53.72416 24.80128-82.6624-4.13184-8.25344-103.31648-194.24256-169.44128-305.83296l57.84576-128.12288 20.66944 37.1968c4.13696 12.39552 16.53248 16.52736 24.79616 20.67456l128.11264 49.59232c4.1472 0 12.40064 4.12672 16.5376 4.12672 20.6592 0 37.1968-12.39552 45.47072-33.05472 4.1216-24.8064-8.2688-53.7344-33.06496-61.99808m-198.38464-231.44448c49.59232 0 90.9312-41.32864 90.9312-90.92096 0-49.59744-41.33888-90.92608-90.9312-90.92608s-90.92096 41.32864-90.92096 90.92608c0 49.5872 41.32864 90.92096 90.92096 90.92096"/>
</svg>