<?xml version="1.0" standalone="no"?><!DOCTYPE svg PUBLIC "-//W3C//DTD SVG 1.1//EN"
        "http://www.w3.org/Graphics/SVG/1.1/DTD/svg11.dtd">
<svg class="icon" width="200px" height="200.00px" viewBox="0 0 1024 1024" version="1.1"
     xmlns="http://www.w3.org/2000/svg">
    <path d="M632.470588 572.235294m-30.117647 0a30.117647 30.117647 0 1 0 60.235294 0 30.117647 30.117647 0 1 0-60.235294 0Z"
          fill="#029343"/>
    <path d="M391.529412 572.235294m-30.117647 0a30.117647 30.117647 0 1 0 60.235294 0 30.117647 30.117647 0 1 0-60.235294 0Z"
          fill="#029343"/>
    <path d="M331.294118 331.294118h361.411764v150.588235H331.294118z" fill="#029343"/>
    <path d="M512 0C228.894118 0 0 228.894118 0 512s228.894118 512 512 512 512-228.894118 512-512S795.105882 0 512 0z m240.941176 617.411765c0 57.223529-48.188235 105.411765-105.411764 105.411764l45.17647 45.176471v15.058824H331.294118v-15.058824l45.17647-45.176471C319.247059 722.823529 271.058824 674.635294 271.058824 617.411765V301.176471c0-105.411765 108.423529-120.470588 240.941176-120.470589s240.941176 15.058824 240.941176 120.470589v316.235294z"
          fill="#029343"/>
</svg>