<?xml version="1.0" standalone="no"?><!DOCTYPE svg PUBLIC "-//W3C//DTD SVG 1.1//EN"
        "http://www.w3.org/Graphics/SVG/1.1/DTD/svg11.dtd">
<svg class="icon" width="200px" height="200.00px" viewBox="0 0 1024 1024" version="1.1"
     xmlns="http://www.w3.org/2000/svg">
    <path d="M367.405 601.634c-8.723 0-15.921 2.945-21.59 8.835-5.672 5.888-8.508 12.977-8.508 21.263 0 8.288 2.835 15.376 8.508 21.266 5.668 5.889 12.867 8.832 21.59 8.832 8.288 0 15.375-2.943 21.265-8.832 5.889-5.89 8.833-12.978 8.833-21.266 0-8.286-2.944-15.375-8.833-21.263-5.889-5.89-12.977-8.835-21.265-8.835zM653.977 602.943c-8.287 0-15.156 2.835-20.608 8.508-5.453 5.669-8.181 12.431-8.181 20.28 0 7.852 2.728 14.613 8.181 20.283 5.452 5.672 12.321 8.506 20.608 8.506 7.851 0 14.502-2.834 19.955-8.506 5.452-5.67 8.18-12.432 8.18-20.283 0-7.85-2.728-14.611-8.18-20.28-5.453-5.673-12.105-8.508-19.955-8.508zM428.907 286.929h166.186c5.67 0 10.47-1.962 14.394-5.886 3.927-3.927 5.889-8.943 5.889-15.048 0-5.673-1.962-10.469-5.889-14.396-3.924-3.924-8.724-5.886-14.394-5.886H428.907c-5.669 0-10.469 1.962-14.393 5.886-3.927 3.928-5.889 8.724-5.889 14.396 0 6.105 1.962 11.121 5.889 15.048 3.924 3.924 8.724 5.886 14.393 5.886zM512 0C229.23 0 0 229.23 0 512c0 282.771 229.23 512 512 512s512-229.229 512-512C1024 229.23 794.77 0 512 0z m245.353 655.285v31.406c0 10.033-1.093 18.757-3.271 26.171-2.182 7.414-6.109 13.303-11.778 17.667-5.669 4.36-14.176 6.542-25.518 6.542v40.563c0 11.342-4.034 21.048-12.104 29.115-8.067 8.07-17.773 12.104-29.115 12.104-11.338 0-20.935-4.034-28.785-12.104-7.854-8.067-11.777-17.773-11.777-29.115v-40.563H388.997v40.563c0 11.342-3.927 21.048-11.778 29.115-7.851 8.07-17.447 12.104-28.789 12.104-11.338 0-21.045-4.034-29.116-12.104-8.067-8.067-12.101-17.773-12.101-29.115v-40.563c-10.904 0-19.192-2.182-24.864-6.542-5.669-4.364-9.597-10.253-11.775-17.667-2.182-7.414-3.381-16.031-3.601-25.844-0.217-9.813-0.327-20.392-0.327-31.733V286.929c0-11.338 2.182-21.917 6.542-31.73 4.364-9.816 10.252-18.43 17.667-25.844s16.028-13.303 25.844-17.667c9.813-4.36 20.392-6.542 31.73-6.542h327.136c11.342 0 21.921 2.182 31.733 6.542 9.816 4.364 18.43 10.252 25.844 17.667 7.415 7.415 13.304 16.028 17.667 25.844 4.36 9.813 6.542 20.392 6.542 31.73v368.356zM307.213 327.496h409.573v163.568H307.213z"/>
</svg>