<?xml version="1.0" standalone="no"?><!DOCTYPE svg PUBLIC "-//W3C//DTD SVG 1.1//EN"
        "http://www.w3.org/Graphics/SVG/1.1/DTD/svg11.dtd">
<svg class="icon" width="200px" height="200.00px" viewBox="0 0 1024 1024" version="1.1"
     xmlns="http://www.w3.org/2000/svg">
    <path d="M851.067392 299.650661c-8.452509-14.290471-20.608364-26.164916-35.163871-34.331923L815.903521 65.287959l-93.13212 0 0 200.021569c-14.562671 8.167007-26.723641 20.045545-35.17922 34.340109L393.250432 299.649638 393.250432 65.287959l-94.786807 0 0 234.362702L64.095807 299.650661l0 94.801133 234.366795 0 0 295.488875c-13.891382 8.143471-25.499767 19.755949-33.640168 33.651424L64.095807 723.592093l0 93.357248L264.006859 816.94934c8.1711 14.521738 20.093641 26.647917 34.455743 35.06768l0 106.695021 94.786807 0L393.249409 852.013951c14.361079-8.41874 26.28362-20.544919 34.456766-35.06461l248.384044 0c77.528748-0.025583 139.812279-62.820768 139.812279-139.704832L815.902498 428.782693c14.552437-8.167007 26.706245-20.040429 35.158754-34.3309l106.453521 0 0-94.801133L851.067392 299.650661zM346.679767 817.07623c-25.927509 0-46.947242-21.027919-46.947242-46.932915 0-25.90909 21.018709-46.937009 46.947242-46.937009 25.918299 0 46.918589 21.027919 46.918589 46.937009C393.598356 796.048311 372.598067 817.07623 346.679767 817.07623zM426.8906 723.592093c-8.141424-13.893428-19.750833-25.504884-33.640168-33.648354L393.250432 394.451794l294.347888 0c8.454556 14.294564 20.61348 26.172079 35.173081 34.339086l0.077771 294.865681L426.8906 723.592093zM769.31853 394.799718c-25.927509 0-46.927799-21.018709-46.927799-46.947242 0-25.89988 21.00029-46.918589 46.927799-46.918589 25.89988 0 46.932915 21.018709 46.932915 46.918589C816.251446 373.781008 795.21841 394.799718 769.31853 394.799718z"
          fill="#42485A"/>
</svg>