<svg viewBox="0 0 40 40" xmlns="http://www.w3.org/2000/svg" xmlns:xlink="http://www.w3.org/1999/xlink" width="40.000000" height="40.000000" fill="none" customFrame="#000000">
	<defs>
		<clipPath id="clipPath_3">
			<rect width="20.000000" height="20.000000" x="10.000000" y="10.000000" fill="rgb(255,255,255)" />
		</clipPath>
	</defs>
	<g id="组合 4100">
		<rect id="矩形 3400" width="40.000000" height="40.000000" x="0.000000" y="0.000000" rx="8.000000" fill="rgb(255,255,255)" style="mix-blend-mode:normal" fill-opacity="0.0980392173" />
		<g id="save.svg" clip-path="url(#clipPath_3)" customFrame="url(#clipPath_3)">
			<rect id="save.svg" width="20.000000" height="20.000000" x="10.000000" y="10.000000" />
			<rect id="rect" width="20.000000" height="20.000000" x="10.000000" y="10.000000" opacity="0" fill="rgb(0,0,0)" />
			<g id="g">
				<path id="path" d="M14.1582 11.6583C13.7082 11.6583 13.2915 11.7722 12.9082 12C12.5304 12.2278 12.2276 12.5305 11.9999 12.9083C11.7721 13.2917 11.6582 13.7083 11.6582 14.1583L11.6582 25.8417C11.6582 26.2917 11.7721 26.7083 11.9999 27.0917C12.2276 27.4694 12.5304 27.7722 12.9082 28C13.2915 28.2278 13.7082 28.3417 14.1582 28.3417L25.8415 28.3417C26.2915 28.3417 26.7082 28.2278 27.0915 28C27.4693 27.7722 27.7721 27.4694 27.9999 27.0917C28.2276 26.7083 28.3415 26.2917 28.3415 25.8417L28.3415 14.1583C28.3415 13.7083 28.2276 13.2917 27.9999 12.9083C27.7721 12.5305 27.4693 12.2278 27.0915 12C26.7082 11.7722 26.2915 11.6583 25.8415 11.6583L14.1582 11.6583ZM23.6165 16.6417C23.6165 16.775 23.5721 16.8833 23.4832 16.9667C23.3888 17.0555 23.2804 17.1 23.1582 17.1L16.8415 17.1C16.7193 17.1 16.611 17.0555 16.5165 16.9667C16.4276 16.8833 16.3832 16.775 16.3832 16.6417L16.3832 12.9417L23.6165 12.9417L23.6165 16.6417ZM27.0832 25.8417C27.0832 26.175 26.961 26.4639 26.7165 26.7083C26.4776 26.9583 26.186 27.0833 25.8415 27.0833L14.1582 27.0833C13.8249 27.0833 13.536 26.9583 13.2915 26.7083C13.0415 26.4639 12.9165 26.175 12.9165 25.8417L12.9165 14.1583C12.9165 13.8139 13.0415 13.5222 13.2915 13.2833C13.536 13.0389 13.8249 12.9167 14.1582 12.9167L15.1415 12.9167L15.1415 16.6417C15.1415 17.1083 15.3082 17.5111 15.6415 17.85C15.9749 18.1889 16.3749 18.3583 16.8415 18.3583L23.1582 18.3583C23.6249 18.3583 24.0249 18.1889 24.3582 17.85C24.6915 17.5111 24.8582 17.1083 24.8582 16.6417L24.8582 12.9167L25.8415 12.9167C26.186 12.9167 26.4776 13.0389 26.7165 13.2833C26.961 13.5222 27.0832 13.8139 27.0832 14.1583L27.0832 25.8417ZM15.8415 22.5C15.6693 22.5 15.5193 22.5611 15.3915 22.6833C15.2638 22.8 15.1999 22.9444 15.1999 23.1167C15.1999 23.2944 15.2638 23.4417 15.3915 23.5583C15.5193 23.6805 15.6693 23.7417 15.8415 23.7417L24.1582 23.7417C24.3304 23.7417 24.4804 23.6805 24.6082 23.5583C24.736 23.4417 24.7999 23.2944 24.7999 23.1167C24.7999 22.9444 24.736 22.8 24.6082 22.6833C24.4804 22.5611 24.3304 22.5 24.1582 22.5L15.8415 22.5Z" fill="rgb(255,255,255)" fill-opacity="0.898039222" fill-rule="nonzero" />
			</g>
		</g>
	</g>
</svg>
