<svg width="24.000000" height="24.000000" viewBox="0 0 24 24" fill="none" xmlns="http://www.w3.org/2000/svg" xmlns:xlink="http://www.w3.org/1999/xlink">
	<desc>
			Created with Pixso.
	</desc>
	<defs>
		<clipPath id="clip50_35837">
			<rect id="ic_public_share_arrow" width="24.000000" height="24.000000" fill="white" fill-opacity="0"/>
		</clipPath>
	</defs>
	<g clip-path="url(#clip50_35837)">
		<path id="path4 (边框)" d="M4.5 4.75L13.02 4.75C13.44 4.75 13.77 4.42 13.77 4C13.77 3.57 13.44 3.25 13.02 3.25L4.5 3.25C4.21 3.25 3.94 3.28 3.67 3.34C3.45 3.38 3.24 3.45 3.03 3.54C2.82 3.63 2.61 3.74 2.42 3.87C2.22 4 2.02 4.16 1.84 4.34C1.66 4.52 1.5 4.72 1.37 4.92C1.24 5.11 1.13 5.32 1.04 5.53C0.95 5.74 0.88 5.95 0.84 6.17C0.78 6.44 0.75 6.71 0.75 7L0.75 18.5C0.75 18.77 0.77 19.04 0.83 19.3C0.88 19.52 0.95 19.74 1.04 19.95C1.13 20.17 1.24 20.37 1.36 20.56C1.5 20.77 1.66 20.96 1.84 21.15C2.02 21.33 2.22 21.49 2.43 21.63C2.62 21.75 2.82 21.86 3.03 21.95C3.24 22.04 3.46 22.11 3.68 22.16C3.94 22.22 4.22 22.25 4.5 22.25L19 22.25C19.27 22.25 19.53 22.22 19.79 22.16C20.02 22.11 20.24 22.04 20.45 21.95C20.67 21.86 20.87 21.75 21.06 21.63C21.27 21.49 21.46 21.33 21.65 21.15C21.83 20.96 21.99 20.77 22.13 20.56C22.25 20.37 22.36 20.17 22.45 19.95C22.54 19.74 22.61 19.52 22.66 19.29C22.72 19.03 22.75 18.77 22.75 18.5L22.75 13C22.75 12.58 22.42 12.25 22 12.25C21.58 12.25 21.25 12.58 21.25 13L21.25 18.5C21.25 18.67 21.23 18.83 21.19 19C21.16 19.12 21.12 19.25 21.07 19.37C21.02 19.49 20.96 19.61 20.88 19.72C20.8 19.85 20.7 19.97 20.59 20.09C20.47 20.2 20.35 20.3 20.22 20.38C20.11 20.46 19.99 20.52 19.87 20.57C19.75 20.62 19.62 20.66 19.5 20.69C19.33 20.73 19.17 20.75 19 20.75L4.5 20.75C4.32 20.75 4.14 20.73 3.98 20.69C3.85 20.66 3.74 20.62 3.62 20.57C3.49 20.52 3.38 20.45 3.27 20.38C3.14 20.3 3.02 20.2 2.9 20.09C2.79 19.97 2.69 19.85 2.61 19.72C2.54 19.61 2.47 19.49 2.42 19.37C2.37 19.25 2.33 19.13 2.3 19C2.26 18.84 2.25 18.67 2.25 18.5L2.25 7C2.25 6.81 2.27 6.64 2.31 6.47C2.33 6.35 2.37 6.23 2.42 6.12C2.47 5.99 2.54 5.87 2.61 5.76C2.7 5.63 2.79 5.51 2.9 5.4C3.01 5.29 3.13 5.2 3.26 5.11C3.37 5.04 3.49 4.97 3.62 4.92C3.73 4.87 3.85 4.83 3.97 4.81C4.14 4.77 4.31 4.75 4.5 4.75Z" fill="#191919" fill-opacity="1.000000" fill-rule="evenodd"/>
		<path id="path5 (边框)" d="M16.11 16.04C16.19 16 16.27 15.96 16.34 15.89L23.49 9.51C23.65 9.38 23.73 9.2 23.74 9C23.76 8.79 23.69 8.61 23.55 8.46L16.36 1.6C16.21 1.45 16.03 1.39 15.82 1.39C15.61 1.4 15.44 1.47 15.3 1.62C15.23 1.69 15.18 1.77 15.14 1.86C15.11 1.95 15.09 2.04 15.09 2.14L15.09 5.48C14.89 5.49 14.68 5.51 14.47 5.54C13.94 5.61 13.43 5.72 12.92 5.87C12.36 6.04 11.81 6.25 11.28 6.52C10.82 6.74 10.38 7 9.97 7.29C9.1 7.89 8.32 8.63 7.64 9.5C6.4 11.09 5.51 13.08 4.98 15.48C4.93 15.68 4.97 15.87 5.08 16.04C5.19 16.22 5.34 16.33 5.55 16.37C5.66 16.4 5.78 16.4 5.9 16.37C6.02 16.34 6.12 16.28 6.21 16.2C7.6 14.96 8.96 13.98 10.29 13.25C11.33 12.68 12.33 12.29 13.29 12.07C13.94 11.92 14.55 11.85 15.09 11.88L15.09 15.34C15.09 15.54 15.16 15.72 15.31 15.87C15.46 16.01 15.63 16.09 15.84 16.09C15.93 16.09 16.02 16.07 16.11 16.04ZM16.59 13.66L16.59 11.23C16.59 11.06 16.54 10.91 16.44 10.78C16.34 10.64 16.21 10.55 16.06 10.51C15.99 10.49 15.9 10.47 15.79 10.45C15.6 10.41 15.4 10.39 15.17 10.38C14.49 10.35 13.75 10.42 12.95 10.61C11.86 10.86 10.73 11.3 9.57 11.94C8.76 12.38 7.94 12.9 7.12 13.52C7.57 12.34 8.13 11.3 8.82 10.42C9.43 9.64 10.13 8.98 10.92 8.45C11.24 8.23 11.58 8.04 11.94 7.86C12.4 7.63 12.87 7.45 13.36 7.31C13.79 7.18 14.22 7.09 14.67 7.03C14.97 6.99 15.25 6.97 15.51 6.96C15.64 6.96 15.73 6.96 15.79 6.96C16 6.96 16.22 6.89 16.37 6.75C16.52 6.6 16.59 6.42 16.59 6.22L16.59 3.89L21.89 8.94L16.59 13.66Z" fill="#191919" fill-opacity="1.000000" fill-rule="evenodd"/>
	</g>
</svg>
