<?xml version="1.0" encoding="UTF-8"?>
<svg width="24px" height="24px" viewBox="0 0 24 24" version="1.1"
     xmlns="http://www.w3.org/2000/svg">
    <title>编组</title>
    <defs>
        <linearGradient x1="50%" y1="0%" x2="50%" y2="100%" id="linearGradient-1">
            <stop stop-color="#FFCF74" offset="0%"></stop>
            <stop stop-color="#FC6100" offset="100%"></stop>
        </linearGradient>
    </defs>
    <g id="页面-1" stroke="none" stroke-width="1" fill="none" fill-rule="evenodd">
        <g id="站点详情_公交_收藏" transform="translate(-16, -680)">
            <g id="编组" transform="translate(16, 685)">
                <g transform="translate(0, -5)">
                    <circle id="椭圆形-2" fill="url(#linearGradient-1)" cx="12" cy="12" r="12"></circle>
                    <path d="M11.9934762,7.87890625 C12.258776,7.87890625 12.491457,7.96988932 12.6915191,8.15185547 L13.8788444,9.23095703 C15.0792171,10.3312174 16.2752408,11.4335937 17.4669152,12.5380859 C17.536502,12.610026 17.5930413,12.6946615 17.6365331,12.7919922 C17.6800249,12.8893229 17.7017707,12.9930013 17.7017707,13.1030273 L17.7017707,17.5654297 C17.7017707,17.8320312 17.6365331,18.0732422 17.5060578,18.2890625 C17.3755825,18.5091146 17.1972662,18.6826172 16.971109,18.8095703 C16.7449518,18.9365234 16.5013979,19 16.2404473,19 L7.77260019,19 C7.50295123,19 7.25504815,18.9365234 7.02889096,18.8095703 C6.80273377,18.6826172 6.62441752,18.5091146 6.49394222,18.2890625 C6.36346692,18.0732422 6.29822926,17.8320312 6.29822926,17.5654297 L6.29822926,13.1157227 C6.29822926,13.0141602 6.31997515,12.9125977 6.36346692,12.8110352 C6.40695868,12.7094727 6.47002175,12.6184896 6.5526561,12.5380859 L11.2954334,8.15185547 C11.4954955,7.96988932 11.7281765,7.87890625 11.9934762,7.87890625 Z M12,13.4204102 C11.4563529,13.4204102 10.9975148,13.589681 10.6234856,13.9282227 C10.2451072,14.2625326 10.055918,14.6687826 10.055918,15.1469727 L10.055918,18.0415039 L13.944082,18.0415039 L13.944082,15.1469727 C13.944082,14.6687826 13.7548928,14.2625326 13.3765144,13.9282227 C13.0024852,13.589681 12.5436471,13.4204102 12,13.4204102 Z M11.4193849,6.06982422 C11.8064616,5.97672526 12.1935384,5.97672526 12.5806151,6.06982422 C12.9676918,6.16715495 13.3069276,6.35335286 13.5983225,6.62841797 L18.8564772,11.4716797 C18.9521591,11.5647786 19,11.6769206 19,11.8081055 C19,11.9392904 18.9586828,12.0514323 18.8760485,12.1445313 C18.7803666,12.2460938 18.6651134,12.296875 18.5302889,12.296875 C18.3954644,12.296875 18.2802112,12.2503255 18.1845294,12.1572266 L12.9263747,7.31396484 C12.665424,7.06852214 12.3588071,6.94580078 12.0065238,6.94580078 C11.6585896,6.94580078 11.3541473,7.06852214 11.0931966,7.31396484 L5.82851817,12.1762695 C5.74588381,12.2566732 5.63280522,12.2947591 5.48928239,12.2905273 C5.34141038,12.2820638 5.22615719,12.2376302 5.14352283,12.1572266 C5.04784094,12.0556641 5,11.9392904 5,11.8081055 C5,11.6769206 5.05219012,11.5647786 5.15657036,11.4716797 L10.4016775,6.62841797 C10.6930724,6.35335286 11.0323082,6.16715495 11.4193849,6.06982422 Z"
                          id="形状结合" fill="#FFFFFF" fill-rule="nonzero"></path>
                </g>
            </g>
        </g>
    </g>
</svg>