<?xml version="1.0" encoding="UTF-8"?>
<svg width="52px" height="28px" viewBox="0 0 52 28" version="1.1"
     xmlns="http://www.w3.org/2000/svg">
    <title>编组</title>
    <g id="页面-1" stroke="none" stroke-width="1" fill="none" fill-rule="evenodd">
        <g id="线路详情_地铁" transform="translate(-280, -143)" fill="#000000">
            <g id="编组" transform="translate(16, 108)">
                <g transform="translate(264, 35)">
                    <rect id="矩形-9" fill-opacity="0.0480496066" x="0" y="0" width="52" height="28" rx="6"></rect>
                    <g transform="translate(26, 14) rotate(90) translate(-26, -14)translate(14, 2)" fill-rule="nonzero">
                        <rect id="矩形" opacity="0" x="0" y="0" width="24" height="24"></rect>
                        <path d="M9.74,2.69 C9.74,2.48333333 9.67,2.31333333 9.53,2.18 C9.38333333,2.05333333 9.21,1.99333333 9.01,2 C8.81,2.01333333 8.64666667,2.1 8.52,2.26 L5.4,6.02 C5.27333333,6.16666667 5.21666667,6.33333333 5.23,6.52 C5.25,6.7 5.32333333,6.85333333 5.45,6.98 C5.57666667,7.11333333 5.73666667,7.18 5.93,7.18 L8.26,7.18 L8.26,21.26 C8.26,21.4733333 8.33,21.65 8.47,21.79 C8.61666667,21.9366667 8.79333333,22.01 9,22.01 C9.20666667,22.01 9.38333333,21.9366667 9.53,21.79 C9.67,21.65 9.74,21.4733333 9.74,21.26 L9.74,5.26 L9.74,2.69 Z M15.74,16.82 L15.74,2.76 C15.74,2.55333333 15.67,2.37333333 15.53,2.22 C15.3833333,2.06666667 15.2066667,1.99 15,1.99 C14.7933333,1.99 14.6166667,2.06666667 14.47,2.22 C14.33,2.37333333 14.26,2.55333333 14.26,2.76 L14.26,18.74 L14.26,21.29 C14.26,21.4966667 14.33,21.6666667 14.47,21.8 C14.6166667,21.94 14.79,22.0066667 14.99,22 C15.19,21.9866667 15.3533333,21.9 15.48,21.74 L18.6,17.98 C18.7266667,17.8333333 18.7833333,17.6666667 18.77,17.48 C18.75,17.3 18.6766667,17.1466667 18.55,17.02 C18.4233333,16.8866667 18.2633333,16.82 18.07,16.82 L15.74,16.82 Z"
                              id="形状" fill-opacity="0.90196079"></path>
                    </g>
                </g>
            </g>
        </g>
    </g>
</svg>