<svg width="24.000000" height="24.000000" viewBox="0 0 24 24" fill="none" xmlns="http://www.w3.org/2000/svg" xmlns:xlink="http://www.w3.org/1999/xlink">
	<desc>
			Created with Pixso.
	</desc>
	<defs>
		<clipPath id="clip73_3353">
			<rect width="24.000000" height="24.000000" fill="white" fill-opacity="0"/>
		</clipPath>
	</defs>
	<g clip-path="url(#clip73_3353)">
		<g opacity="0.000000">
			<rect width="24.000000" height="24.000000" fill="#D8D8D8" fill-opacity="1.000000"/>
			<rect width="24.000000" height="24.000000" stroke="#000000" stroke-opacity="0" stroke-width="1.000000"/>
		</g>
		<path d="M5.5 9.32C6.05 11.11 7.16 12.71 8.22 13.94L8.22 19.67L3.07 22.17C2.97 22.22 2.86 22.25 2.74 22.25C2.61 22.25 2.47 22.21 2.35 22.13C2.13 21.99 1.99 21.75 1.99 21.5L1.99 12.9C1.99 11.76 2.66 10.7 3.68 10.2L5.5 9.32ZM20.92 7.82C21.15 7.71 21.42 7.72 21.64 7.86C21.86 8 22 8.24 22 8.5L22 17.09C22 18.23 21.33 19.29 20.31 19.79L15.84 21.96C15.8 21.98 15.76 21.99 15.72 22L15.72 13.98C16.86 12.67 18.06 10.92 18.56 8.97L20.92 7.82ZM9.72 15.49C9.96 15.71 10.16 15.9 10.33 16.04C10.52 16.24 10.75 16.41 11.01 16.53C11.31 16.67 11.63 16.75 11.97 16.75C12.25 16.75 12.53 16.69 12.79 16.59L12.9 16.54C13.12 16.44 13.38 16.27 13.55 16.11C13.73 15.96 13.96 15.76 14.22 15.52L14.22 21.91L9.72 19.72L9.72 15.49ZM11.97 1.74C14.88 1.78 17.32 4.18 17.32 7.09C17.32 10.86 13.29 14.38 12.54 15C12.48 15.07 12.4 15.12 12.32 15.16C12.22 15.2 12.07 15.24 11.97 15.24C11.86 15.24 11.75 15.22 11.65 15.17C11.54 15.12 11.45 15.05 11.38 14.96C10.54 14.26 6.65 10.79 6.65 7.09C6.65 4.19 9.07 1.8 11.97 1.74ZM11.99 5.47C11.1 5.47 10.37 6.2 10.37 7.09C10.37 7.99 11.1 8.71 11.99 8.71C12.89 8.71 13.62 7.99 13.62 7.09C13.62 6.2 12.89 5.47 11.99 5.47Z" fill="#000000" fill-opacity="0.400000" fill-rule="evenodd"/>
		<path d="M8.22 13.94L8.22 19.67L3.07 22.17C2.97 22.22 2.86 22.25 2.74 22.25C2.61 22.25 2.47 22.21 2.35 22.13C2.13 21.99 1.99 21.75 1.99 21.5L1.99 12.9C1.99 11.76 2.66 10.7 3.68 10.2L5.5 9.32C6.05 11.11 7.16 12.71 8.22 13.94ZM21.64 7.86C21.86 8 22 8.24 22 8.5L22 17.09C22 18.23 21.33 19.29 20.31 19.79L15.84 21.96C15.8 21.98 15.76 21.99 15.72 22L15.72 13.98C16.86 12.67 18.06 10.92 18.56 8.97L20.92 7.82C21.15 7.71 21.42 7.72 21.64 7.86ZM10.33 16.04C10.52 16.24 10.75 16.41 11.01 16.53C11.31 16.67 11.63 16.75 11.97 16.75C12.25 16.75 12.53 16.69 12.79 16.59L12.9 16.54C13.12 16.44 13.38 16.27 13.55 16.11C13.73 15.96 13.96 15.76 14.22 15.52L14.22 21.91L9.72 19.72L9.72 15.49C9.96 15.71 10.16 15.9 10.33 16.04ZM17.32 7.09C17.32 10.86 13.29 14.38 12.54 15C12.48 15.07 12.4 15.12 12.32 15.16C12.22 15.2 12.07 15.24 11.97 15.24C11.86 15.24 11.75 15.22 11.65 15.17C11.54 15.12 11.45 15.05 11.38 14.96C10.54 14.26 6.65 10.79 6.65 7.09C6.65 4.19 9.07 1.8 11.97 1.74C14.88 1.78 17.32 4.18 17.32 7.09ZM10.37 7.09C10.37 7.99 11.1 8.71 11.99 8.71C12.89 8.71 13.62 7.99 13.62 7.09C13.62 6.2 12.89 5.47 11.99 5.47C11.1 5.47 10.37 6.2 10.37 7.09Z" stroke="#000000" stroke-opacity="0" stroke-width="1.000000"/>
	</g>
</svg>
