<svg width="24.000000" height="24.000000" viewBox="0 0 24 24" fill="none" xmlns="http://www.w3.org/2000/svg" xmlns:xlink="http://www.w3.org/1999/xlink">
	<desc>
			Created with Pixso.
	</desc>
	<defs>
		<clipPath id="clip79_5491">
			<rect width="24.000000" height="24.000000" fill="white" fill-opacity="0"/>
		</clipPath>
		<clipPath id="clip79_5490">
			<rect width="24.000000" height="24.000000" fill="white" fill-opacity="0"/>
		</clipPath>
	</defs>
	<g clip-path="url(#clip79_5490)">
		<g clip-path="url(#clip79_5491)">
			<path d="M9.75 5.19C9.75 3.58 8.43 2.27 6.82 2.27C5.21 2.27 3.9 3.58 3.9 5.19C3.9 6.8 5.21 8.11 6.82 8.11C8.43 8.11 9.75 6.8 9.75 5.19Z" fill="#000000" fill-opacity="0.400000" fill-rule="nonzero"/>
			<path d="M5.32 8.35C3.2 9.02 1.81 11.07 1.81 13.29L1.81 16.82C1.81 16.99 1.95 17.13 2.13 17.13L3.82 17.13L3.82 21.39C3.82 21.53 3.94 21.65 4.08 21.65L9.59 21.65C9.73 21.65 9.85 21.53 9.85 21.39L9.85 17.13L11.16 17.13C11.54 17.13 11.86 16.81 11.86 16.43L11.86 12.98C11.86 9.79 8.57 7.31 5.32 8.35ZM20.46 6.16C20.46 4.55 19.15 3.24 17.54 3.24C15.93 3.24 14.62 4.55 14.62 6.16C14.62 7.77 15.93 9.08 17.54 9.08C19.15 9.08 20.46 7.77 20.46 6.16ZM22.19 17.61L20.71 11.81C20.39 10.23 18.98 9.08 17.35 9.08C15.72 9.08 14.31 10.23 14 11.76L12.51 17.61C12.44 17.9 12.5 18.2 12.68 18.44C12.86 18.67 13.14 18.81 13.43 18.82C13.43 18.82 14.16 18.83 14.73 18.84C14.92 19.39 15.19 20.2 15.44 20.99C15.56 21.39 15.93 21.65 16.35 21.65L18.36 21.65C18.77 21.65 19.13 21.39 19.26 21C19.51 20.21 19.78 19.37 19.97 18.82C20.54 18.82 21.26 18.81 21.26 18.81C21.56 18.8 21.84 18.67 22.02 18.43C22.2 18.2 22.26 17.9 22.19 17.61Z" fill="#000000" fill-opacity="0.400000" fill-rule="nonzero"/>
		</g>
	</g>
</svg>
