<svg width="24.000000" height="24.000000" viewBox="0 0 24 24" fill="none" xmlns="http://www.w3.org/2000/svg" xmlns:xlink="http://www.w3.org/1999/xlink">
	<desc>
			Created with Pixso.
	</desc>
	<defs>
		<clipPath id="clip79_5519">
			<rect width="24.000000" height="24.000000" fill="white" fill-opacity="0"/>
		</clipPath>
		<clipPath id="clip79_5518">
			<rect width="24.000000" height="24.000000" fill="white" fill-opacity="0"/>
		</clipPath>
	</defs>
	<g clip-path="url(#clip79_5518)">
		<g clip-path="url(#clip79_5519)">
			<path d="M3.73 3.43L12.51 1.22C12.54 1.21 12.57 1.21 12.6 1.2C12.63 1.2 12.66 1.2 12.69 1.2C12.72 1.2 12.75 1.2 12.78 1.2C12.81 1.2 12.84 1.21 12.87 1.21C12.9 1.22 12.92 1.23 12.95 1.24C12.98 1.25 13.01 1.26 13.03 1.27C13.06 1.28 13.09 1.3 13.11 1.31C13.14 1.33 13.16 1.35 13.19 1.36C13.21 1.38 13.23 1.4 13.25 1.42C13.27 1.44 13.29 1.47 13.31 1.49C13.33 1.51 13.35 1.54 13.36 1.56C13.38 1.59 13.39 1.62 13.4 1.64C13.42 1.67 13.43 1.7 13.44 1.72C13.45 1.75 13.45 1.78 13.46 1.81C13.46 1.84 13.47 1.87 13.47 1.9C13.47 1.93 13.47 1.96 13.47 1.99L13.47 11.57C13.21 11.71 12.96 11.87 12.72 12.04C12.47 12.21 12.24 12.4 12.03 12.61C11.81 12.81 11.61 13.03 11.42 13.27C11.24 13.5 11.07 13.74 10.91 14C10.76 14.25 10.62 14.52 10.51 14.79C10.39 15.06 10.29 15.34 10.21 15.63C10.13 15.92 10.07 16.21 10.03 16.51C9.99 16.8 9.97 17.1 9.96 17.4C9.96 19.62 11.08 21.6 12.78 22.79C12.7 22.8 12.63 22.8 12.56 22.78L3.77 21.15C3.71 21.14 3.64 21.12 3.57 21.09C3.51 21.07 3.44 21.03 3.38 21C3.32 20.96 3.26 20.92 3.21 20.88C3.15 20.83 3.1 20.78 3.06 20.73C3.01 20.67 2.97 20.61 2.94 20.55C2.9 20.49 2.87 20.43 2.85 20.36C2.82 20.3 2.8 20.23 2.79 20.16C2.78 20.09 2.77 20.02 2.77 19.95L2.77 4.63C2.77 4.56 2.77 4.49 2.79 4.42C2.8 4.36 2.82 4.29 2.84 4.22C2.86 4.16 2.89 4.1 2.93 4.04C2.96 3.98 3 3.92 3.04 3.86C3.08 3.81 3.13 3.76 3.18 3.71C3.23 3.67 3.29 3.63 3.35 3.59C3.41 3.55 3.47 3.52 3.53 3.49C3.59 3.47 3.66 3.44 3.73 3.43ZM16.57 10.8C18.03 10.8 19.39 11.28 20.49 12.09L20.49 4.44C20.49 4.35 20.48 4.26 20.46 4.17C20.44 4.08 20.41 3.99 20.38 3.9C20.34 3.82 20.3 3.74 20.25 3.66C20.2 3.59 20.14 3.52 20.08 3.45C20.01 3.39 19.94 3.33 19.87 3.28C19.79 3.23 19.71 3.19 19.63 3.15C19.54 3.12 19.45 3.09 19.36 3.07C19.27 3.05 19.18 3.05 19.09 3.05L15.54 3.05L15.54 10.88C15.87 10.82 16.22 10.8 16.57 10.8ZM10.3 10.34C9.77 10.34 9.29 11.06 9.29 11.98C9.29 12.89 9.73 13.61 10.3 13.61C10.88 13.61 11.31 12.89 11.31 11.98C11.31 11.07 10.83 10.34 10.3 10.34Z" fill="#000000" fill-opacity="0.400000" fill-rule="nonzero"/>
			<path d="M16.43 12.69C13.78 12.69 11.63 14.85 11.63 17.49C11.63 20.14 13.78 22.29 16.43 22.29C19.08 22.29 21.23 20.14 21.23 17.49C21.23 14.85 19.08 12.69 16.43 12.69ZM15.47 19.89L13.07 17.49L13.74 16.82L15.47 18.54L19.11 14.89L19.79 15.57L15.47 19.89Z" fill="#000000" fill-opacity="0.400000" fill-rule="nonzero"/>
		</g>
	</g>
</svg>
