<svg width="24.000000" height="24.000000" viewBox="0 0 24 24" fill="none" xmlns="http://www.w3.org/2000/svg" xmlns:xlink="http://www.w3.org/1999/xlink">
	<desc>
			Created with Pixso.
	</desc>
	<defs>
		<clipPath id="clip79_5587">
			<rect id="svg" width="20.000000" height="20.000000" transform="translate(2.000000 2.000000)" fill="white" fill-opacity="0"/>
		</clipPath>
		<clipPath id="clip79_5558">
			<rect id="svg" width="24.000000" height="24.000000" fill="white" fill-opacity="0"/>
		</clipPath>
	</defs>
	<g clip-path="url(#clip79_5558)">
		<g clip-path="url(#clip79_5587)">
			<path id="path" d="M5.1 4.86L12.43 3.02C12.45 3.01 12.48 3 12.5 3C12.52 3 12.55 3 12.57 3C12.6 3 12.62 3 12.65 3C12.67 3 12.7 3 12.72 3.01C12.75 3.01 12.77 3.02 12.79 3.03C12.82 3.04 12.84 3.05 12.86 3.06C12.88 3.07 12.91 3.08 12.93 3.09C12.95 3.11 12.97 3.12 12.99 3.14C13.01 3.15 13.03 3.17 13.04 3.19C13.06 3.2 13.08 3.22 13.09 3.24C13.11 3.26 13.12 3.28 13.13 3.3C13.15 3.32 13.16 3.35 13.17 3.37C13.18 3.39 13.19 3.41 13.2 3.44C13.2 3.46 13.21 3.48 13.21 3.51C13.22 3.53 13.22 3.56 13.23 3.58C13.23 3.61 13.23 3.63 13.23 3.66L13.23 11.64C13.01 11.76 12.8 11.89 12.6 12.03C12.39 12.18 12.2 12.34 12.02 12.51C11.84 12.68 11.67 12.86 11.52 13.05C11.36 13.25 11.22 13.45 11.09 13.66C10.97 13.88 10.85 14.1 10.75 14.32C10.66 14.55 10.57 14.79 10.51 15.03C10.44 15.26 10.39 15.51 10.35 15.75C10.32 16 10.3 16.25 10.3 16.5C10.3 18.35 11.23 20 12.65 20.99C12.59 21 12.53 21 12.47 20.98L5.15 19.62C5.09 19.61 5.03 19.6 4.98 19.57C4.92 19.55 4.87 19.53 4.82 19.5C4.77 19.47 4.72 19.43 4.67 19.4C4.63 19.36 4.59 19.32 4.55 19.27C4.51 19.23 4.48 19.18 4.45 19.13C4.42 19.08 4.39 19.02 4.37 18.97C4.35 18.91 4.33 18.86 4.32 18.8C4.31 18.74 4.31 18.68 4.31 18.62L4.31 5.86C4.31 5.8 4.31 5.74 4.32 5.69C4.33 5.63 4.35 5.57 4.37 5.52C4.38 5.46 4.41 5.41 4.44 5.36C4.46 5.31 4.5 5.26 4.53 5.22C4.57 5.17 4.61 5.13 4.65 5.09C4.69 5.06 4.74 5.02 4.79 4.99C4.84 4.96 4.89 4.93 4.94 4.91C4.99 4.89 5.05 4.87 5.1 4.86ZM15.8 11C17.02 11 18.16 11.4 19.07 12.08L19.07 5.7C19.07 5.62 19.06 5.55 19.05 5.47C19.03 5.4 19.01 5.32 18.98 5.25C18.95 5.18 18.92 5.12 18.87 5.05C18.83 4.99 18.78 4.93 18.73 4.88C18.68 4.82 18.62 4.77 18.55 4.73C18.49 4.69 18.42 4.65 18.35 4.63C18.28 4.6 18.21 4.57 18.14 4.56C18.06 4.54 17.99 4.54 17.91 4.54L14.95 4.54L14.95 11.06C15.23 11.02 15.51 11 15.8 11ZM10.59 10.62C10.15 10.62 9.75 11.22 9.75 11.98C9.75 12.74 10.11 13.34 10.59 13.34C11.07 13.34 11.43 12.74 11.43 11.98C11.43 11.22 11.03 10.62 10.59 10.62Z" fill="#000000" fill-opacity="0.600000" fill-rule="nonzero"/>
			<path id="path" d="M15.69 12.58C13.48 12.58 11.69 14.37 11.69 16.58C11.69 18.79 13.48 20.58 15.69 20.58C17.89 20.58 19.69 18.79 19.69 16.58C19.69 14.37 17.89 12.58 15.69 12.58ZM14.89 18.58L12.89 16.58L13.45 16.01L14.89 17.45L17.92 14.41L18.49 14.98L14.89 18.58Z" fill="#000000" fill-opacity="0.600000" fill-rule="nonzero"/>
		</g>
	</g>
</svg>
