<svg width="24.000000" height="24.000000" viewBox="0 0 24 24" fill="none" xmlns="http://www.w3.org/2000/svg" xmlns:xlink="http://www.w3.org/1999/xlink">
	<desc>
			Created with Pixso.
	</desc>
	<defs>
		<clipPath id="clip67_4191">
			<rect width="20.000000" height="20.000000" transform="translate(2.000000 2.000000)" fill="white" fill-opacity="0"/>
		</clipPath>
		<clipPath id="clip67_4189">
			<rect width="24.000000" height="24.000000" fill="white" fill-opacity="0"/>
		</clipPath>
	</defs>
	<g clip-path="url(#clip67_4189)">
		<g clip-path="url(#clip67_4191)">
			<path d="M21.21 8.95C21.22 8.91 21.22 8.87 21.21 8.83L19.59 4.85C19.55 4.74 19.51 4.65 19.45 4.55C19.4 4.46 19.34 4.37 19.28 4.29C19.21 4.2 19.14 4.12 19.06 4.05C18.98 3.98 18.9 3.91 18.81 3.85C18.72 3.79 18.63 3.74 18.53 3.7C18.43 3.65 18.33 3.62 18.23 3.59C18.13 3.56 18.02 3.54 17.91 3.53C17.81 3.52 17.7 3.51 17.6 3.52L6.44 3.52C6.34 3.51 6.24 3.51 6.13 3.52C6.03 3.53 5.92 3.55 5.82 3.58C5.72 3.6 5.62 3.64 5.53 3.68C5.43 3.73 5.34 3.78 5.25 3.83C5.16 3.89 5.08 3.96 5 4.03C4.93 4.1 4.86 4.18 4.79 4.26C4.73 4.34 4.67 4.43 4.62 4.52C4.57 4.62 4.53 4.71 4.5 4.81L2.83 8.85C2.82 8.88 2.82 8.91 2.83 8.94C2.79 9.04 2.76 9.14 2.74 9.25C2.71 9.36 2.69 9.46 2.68 9.57C2.66 9.68 2.65 9.79 2.64 9.9C2.64 10 2.64 10.11 2.64 10.22C2.64 10.33 2.65 10.44 2.66 10.55C2.68 10.65 2.69 10.76 2.72 10.87C2.74 10.98 2.76 11.08 2.8 11.18C2.83 11.29 2.86 11.39 2.9 11.49C2.94 11.59 2.99 11.69 3.04 11.79C3.09 11.89 3.14 11.98 3.2 12.07C3.26 12.17 3.32 12.26 3.38 12.34C3.45 12.43 3.52 12.51 3.59 12.6C3.66 12.68 3.74 12.75 3.82 12.83C3.9 12.9 3.98 12.97 4.07 13.04C4.15 13.11 4.24 13.17 4.33 13.23C4.42 13.29 4.52 13.34 4.61 13.4C4.88 13.53 5.17 13.64 5.46 13.7C5.76 13.77 6.06 13.8 6.36 13.8C6.63 13.8 6.9 13.77 7.16 13.71C7.43 13.65 7.68 13.56 7.93 13.45C8.17 13.33 8.41 13.19 8.62 13.03C8.83 12.86 9.03 12.68 9.2 12.47C9.25 12.52 9.29 12.57 9.34 12.62C9.38 12.67 9.43 12.72 9.48 12.76C9.53 12.81 9.58 12.86 9.63 12.9C9.68 12.94 9.73 12.99 9.78 13.03C9.84 13.07 9.89 13.11 9.94 13.15C10 13.18 10.06 13.22 10.11 13.26C10.17 13.29 10.23 13.32 10.29 13.36C10.35 13.39 10.41 13.42 10.47 13.45C10.53 13.48 10.59 13.5 10.65 13.53C10.72 13.55 10.78 13.58 10.84 13.6C10.91 13.62 10.97 13.64 11.03 13.66C11.1 13.68 11.16 13.69 11.23 13.71C11.29 13.72 11.36 13.73 11.43 13.74C11.49 13.76 11.56 13.77 11.63 13.77C11.69 13.78 11.76 13.79 11.83 13.79C11.89 13.79 11.96 13.79 12.03 13.79C12.1 13.79 12.16 13.79 12.23 13.79C12.3 13.79 12.36 13.78 12.43 13.77C12.5 13.77 12.56 13.76 12.63 13.74C12.7 13.73 12.76 13.72 12.83 13.71C12.89 13.69 12.96 13.68 13.02 13.66C13.09 13.64 13.15 13.62 13.22 13.6C13.28 13.58 13.34 13.55 13.4 13.53C13.47 13.5 13.53 13.48 13.59 13.45C13.65 13.42 13.71 13.39 13.77 13.36C13.83 13.32 13.89 13.29 13.94 13.26C14 13.22 14.06 13.18 14.11 13.15C14.17 13.11 14.22 13.07 14.27 13.03C14.33 12.99 14.38 12.94 14.43 12.9C14.48 12.86 14.53 12.81 14.58 12.76C14.63 12.72 14.67 12.67 14.72 12.62C14.77 12.57 14.81 12.52 14.85 12.47C15.03 12.68 15.22 12.86 15.44 13.03C15.65 13.2 15.88 13.33 16.13 13.45C16.38 13.56 16.63 13.65 16.9 13.71C17.16 13.77 17.43 13.8 17.7 13.8C18.01 13.8 18.32 13.76 18.63 13.69C18.93 13.62 19.22 13.51 19.5 13.37C19.59 13.32 19.68 13.26 19.77 13.2C19.86 13.14 19.95 13.08 20.03 13.01C20.12 12.95 20.2 12.88 20.28 12.8C20.35 12.73 20.43 12.65 20.5 12.57C20.57 12.49 20.64 12.41 20.7 12.32C20.77 12.23 20.83 12.14 20.88 12.05C20.94 11.96 20.99 11.87 21.04 11.77C21.09 11.67 21.13 11.58 21.17 11.48C21.21 11.38 21.25 11.27 21.28 11.17C21.31 11.07 21.34 10.96 21.36 10.86C21.38 10.75 21.4 10.65 21.41 10.54C21.42 10.43 21.43 10.32 21.43 10.22C21.44 10.11 21.44 10 21.43 9.89C21.43 9.79 21.41 9.68 21.4 9.57C21.38 9.47 21.36 9.36 21.34 9.26C21.32 9.15 21.29 9.05 21.25 8.95L21.21 8.95ZM17.46 9.55L6.72 9.55C6.68 9.55 6.64 9.55 6.6 9.54C6.56 9.53 6.52 9.52 6.48 9.51C6.44 9.49 6.41 9.47 6.37 9.45C6.34 9.43 6.31 9.4 6.28 9.37C6.25 9.34 6.22 9.31 6.2 9.28C6.18 9.24 6.16 9.21 6.14 9.17C6.13 9.13 6.12 9.09 6.11 9.05C6.1 9.01 6.1 8.97 6.1 8.93C6.1 8.89 6.1 8.85 6.11 8.81C6.12 8.77 6.13 8.73 6.14 8.69C6.16 8.65 6.18 8.62 6.2 8.58C6.22 8.55 6.25 8.52 6.28 8.49C6.31 8.46 6.34 8.43 6.37 8.41C6.41 8.39 6.44 8.37 6.48 8.35C6.52 8.34 6.56 8.32 6.6 8.32C6.64 8.31 6.68 8.3 6.72 8.3L17.46 8.3C17.5 8.3 17.55 8.3 17.59 8.31C17.63 8.32 17.67 8.33 17.71 8.34C17.75 8.36 17.79 8.38 17.83 8.4C17.86 8.42 17.9 8.45 17.93 8.48C17.96 8.5 17.99 8.54 18.01 8.57C18.04 8.61 18.06 8.64 18.08 8.68C18.1 8.72 18.11 8.76 18.12 8.8C18.13 8.84 18.14 8.89 18.14 8.93C18.13 8.97 18.13 9.01 18.12 9.05C18.11 9.1 18.09 9.14 18.08 9.17C18.06 9.21 18.04 9.25 18.01 9.28C17.99 9.32 17.96 9.35 17.93 9.38C17.9 9.41 17.86 9.43 17.83 9.46C17.79 9.48 17.75 9.5 17.71 9.51C17.67 9.53 17.63 9.54 17.59 9.54C17.55 9.55 17.5 9.55 17.46 9.55Z" fill="#000000" fill-opacity="0.600000" fill-rule="nonzero"/>
			<path d="M19.99 15.03C19.99 14.98 19.98 14.94 19.97 14.9C19.96 14.85 19.95 14.81 19.94 14.77C19.92 14.73 19.9 14.69 19.87 14.65C19.85 14.61 19.82 14.58 19.79 14.55C19.76 14.52 19.72 14.49 19.69 14.46C19.65 14.44 19.61 14.42 19.57 14.4C19.53 14.38 19.49 14.37 19.44 14.36C19.4 14.35 19.36 14.35 19.31 14.35C19.25 14.34 19.18 14.34 19.11 14.35C18.59 14.55 18.05 14.64 17.49 14.63C17.25 14.63 17.01 14.61 16.77 14.58C16.53 14.54 16.3 14.48 16.07 14.4C15.84 14.32 15.62 14.22 15.41 14.1C15.2 13.98 15.01 13.85 14.82 13.7C14.63 13.87 14.42 14.02 14.2 14.15C13.98 14.28 13.75 14.4 13.5 14.49C13.26 14.58 13.02 14.65 12.76 14.7C12.51 14.75 12.25 14.78 12 14.78C11.74 14.79 11.49 14.77 11.24 14.74C10.98 14.7 10.74 14.64 10.5 14.56C10.25 14.48 10.02 14.38 9.8 14.26C9.57 14.14 9.36 14 9.16 13.85C8.96 14.01 8.75 14.15 8.53 14.28C8.31 14.4 8.08 14.51 7.83 14.59C7.59 14.68 7.34 14.74 7.09 14.78C6.84 14.82 6.58 14.84 6.33 14.84C5.77 14.84 5.23 14.72 4.72 14.5L4.44 14.5C4.39 14.5 4.35 14.5 4.3 14.51C4.26 14.52 4.22 14.53 4.18 14.55C4.14 14.56 4.1 14.58 4.06 14.61C4.02 14.63 3.99 14.66 3.96 14.69C3.93 14.72 3.9 14.76 3.88 14.8C3.85 14.83 3.83 14.87 3.81 14.91C3.8 14.95 3.78 14.99 3.77 15.04C3.77 15.08 3.76 15.13 3.76 15.17L3.76 18.8C3.76 18.86 3.76 18.92 3.77 18.97C3.78 19.03 3.78 19.09 3.79 19.14C3.81 19.2 3.82 19.25 3.84 19.31C3.85 19.36 3.87 19.41 3.89 19.47C3.92 19.52 3.94 19.57 3.97 19.62C3.99 19.67 4.02 19.72 4.05 19.77C4.09 19.81 4.12 19.86 4.16 19.9C4.19 19.95 4.23 19.99 4.27 20.03C4.31 20.07 4.35 20.11 4.4 20.14C4.44 20.18 4.48 20.21 4.53 20.24C4.58 20.28 4.63 20.31 4.68 20.33C4.73 20.36 4.78 20.38 4.83 20.4C4.88 20.43 4.94 20.45 4.99 20.46C5.05 20.48 5.1 20.49 5.16 20.5C5.21 20.51 5.27 20.52 5.33 20.53C5.38 20.53 5.44 20.54 5.5 20.54L18.25 20.54C18.3 20.54 18.36 20.53 18.42 20.53C18.47 20.52 18.53 20.51 18.58 20.5C18.64 20.49 18.69 20.48 18.75 20.46C18.8 20.44 18.86 20.42 18.91 20.4C18.96 20.38 19.01 20.36 19.06 20.33C19.11 20.3 19.16 20.27 19.21 20.24C19.26 20.21 19.3 20.17 19.35 20.14C19.39 20.1 19.43 20.06 19.47 20.02C19.51 19.98 19.55 19.94 19.59 19.9C19.62 19.85 19.65 19.81 19.69 19.76C19.72 19.71 19.75 19.66 19.77 19.61C19.8 19.56 19.82 19.51 19.85 19.46C19.87 19.41 19.89 19.35 19.9 19.3C19.92 19.24 19.93 19.19 19.95 19.13C19.96 19.08 19.96 19.02 19.97 18.97C19.98 18.91 19.98 18.85 19.98 18.79L19.99 15.03Z" fill="#000000" fill-opacity="0.600000" fill-rule="nonzero"/>
		</g>
	</g>
</svg>
