<svg width="16.000000" height="16.000000" viewBox="0 0 16 16" fill="none" xmlns="http://www.w3.org/2000/svg" xmlns:xlink="http://www.w3.org/1999/xlink">
	<desc>
			Created with Pixso.
	</desc>
	<defs/>
	<path d="M4.99 10.43L5.45 9.97C3.84 8.06 3.93 5.21 5.73 3.42C7.62 1.53 10.68 1.53 12.57 3.42C14.46 5.31 14.46 8.37 12.57 10.26C10.82 12.02 8.05 12.14 6.15 10.64L5.67 11.12L6.64 12.09C6.66 12.11 6.68 12.13 6.7 12.16C6.72 12.19 6.73 12.22 6.75 12.24C6.76 12.27 6.77 12.3 6.77 12.34C6.78 12.37 6.78 12.4 6.78 12.43C6.78 12.46 6.78 12.49 6.77 12.52C6.77 12.56 6.76 12.59 6.75 12.62C6.73 12.64 6.72 12.67 6.7 12.7C6.68 12.73 6.66 12.75 6.64 12.77C6.62 12.79 6.59 12.81 6.57 12.83C6.54 12.85 6.51 12.86 6.48 12.88C6.45 12.89 6.42 12.9 6.39 12.9C6.36 12.91 6.33 12.91 6.3 12.91C6.27 12.91 6.23 12.91 6.2 12.9C6.17 12.9 6.14 12.89 6.11 12.88C6.08 12.86 6.06 12.85 6.03 12.83C6 12.81 5.98 12.79 5.96 12.77L4.99 11.8L4.16 12.63C4.14 12.65 4.11 12.67 4.09 12.69C4.06 12.71 4.03 12.72 4 12.73C3.97 12.75 3.94 12.76 3.91 12.76C3.88 12.77 3.85 12.77 3.82 12.77C3.78 12.77 3.75 12.77 3.72 12.76C3.69 12.76 3.66 12.75 3.63 12.73C3.6 12.72 3.57 12.71 3.55 12.69C3.52 12.67 3.5 12.65 3.47 12.63C3.45 12.61 3.43 12.58 3.41 12.56C3.4 12.53 3.38 12.5 3.37 12.47C3.36 12.44 3.35 12.41 3.34 12.38C3.34 12.35 3.33 12.32 3.33 12.29C3.33 12.26 3.34 12.22 3.34 12.19C3.35 12.16 3.36 12.13 3.37 12.1C3.38 12.07 3.4 12.04 3.41 12.02C3.43 11.99 3.45 11.97 3.47 11.95L4.3 11.12L3.22 10.03C3.2 10.01 3.18 9.99 3.16 9.96C3.14 9.93 3.13 9.91 3.11 9.88C3.1 9.85 3.09 9.82 3.09 9.79C3.08 9.76 3.08 9.72 3.08 9.69C3.08 9.66 3.08 9.63 3.09 9.6C3.09 9.57 3.1 9.54 3.11 9.51C3.13 9.48 3.14 9.45 3.16 9.42C3.18 9.4 3.2 9.37 3.22 9.35C3.24 9.33 3.26 9.31 3.29 9.29C3.32 9.27 3.35 9.26 3.37 9.24C3.4 9.23 3.43 9.22 3.47 9.22C3.5 9.21 3.53 9.21 3.56 9.21C3.59 9.21 3.62 9.21 3.65 9.22C3.69 9.22 3.72 9.23 3.75 9.24C3.77 9.26 3.8 9.27 3.83 9.29C3.86 9.31 3.88 9.33 3.9 9.35L4.99 10.43ZM6.41 9.58C7.92 11.09 10.38 11.09 11.89 9.58C13.4 8.07 13.4 5.61 11.89 4.1C10.38 2.59 7.92 2.59 6.41 4.1C4.9 5.61 4.9 8.07 6.41 9.58Z" fill="#000000" fill-opacity="1.000000" fill-rule="nonzero"/>
</svg>
