<svg width="24.000000" height="24.000000" viewBox="0 0 24 24" fill="none" xmlns="http://www.w3.org/2000/svg" xmlns:xlink="http://www.w3.org/1999/xlink">
	<desc>
			Created with Pixso.
	</desc>
	<defs>
		<clipPath id="clip67_4147">
			<rect width="24.000000" height="24.000000" transform="translate(0.000000 0.000183)" fill="white" fill-opacity="0"/>
		</clipPath>
		<clipPath id="clip65_4137">
			<rect width="24.000000" height="24.000000" fill="white" fill-opacity="0"/>
		</clipPath>
	</defs>
	<g clip-path="url(#clip65_4137)">
		<g clip-path="url(#clip67_4147)">
			<g opacity="0.000000">
				<rect y="0.000183" width="24.000000" height="24.000000" fill="#D8D8D8" fill-opacity="1.000000"/>
				<rect y="0.000183" width="24.000000" height="24.000000" stroke="#000000" stroke-opacity="0" stroke-width="1.000000"/>
			</g>
			<path d="M14.61 4.33C16.39 4.33 17.84 5.78 17.84 7.56C17.84 9.6 17.3 11.06 16.48 11.89L16.35 12.02L19.93 14.29C20.64 14.74 21.18 15.43 21.45 16.22L21.52 16.44L22.05 18.38C22.28 19.25 21.67 20.11 20.79 20.18L20.66 20.19L18.57 20.19C18.92 19.56 19.04 18.83 18.9 18.12L18.85 17.9L18.3 15.9L18.22 15.64C17.86 14.53 17.15 13.58 16.2 12.9L15.98 12.75L13.7 11.31L13.81 11.07C14.24 10.13 14.51 8.94 14.55 7.5L14.56 7.14L14.55 6.93C14.51 6.01 14.22 5.16 13.75 4.44C14.02 4.37 14.31 4.33 14.61 4.33ZM9.63 3.8C11.48 3.8 12.97 5.3 12.97 7.14C12.97 9.36 12.35 10.91 11.43 11.74L15.13 14.09C15.93 14.6 16.52 15.4 16.77 16.32L17.32 18.32C17.57 19.26 16.86 20.19 15.89 20.19L3.37 20.19C2.4 20.19 1.69 19.26 1.95 18.32L2.49 16.32C2.74 15.4 3.33 14.6 4.13 14.09L7.91 11.69C6.91 10.77 6.29 9.1 6.29 7.14C6.29 5.3 7.79 3.8 9.63 3.8Z" fill="#000000" fill-opacity="0.600000" fill-rule="evenodd"/>
			<path d="M17.84 7.56C17.84 9.6 17.3 11.06 16.48 11.89L16.35 12.02L19.93 14.29C20.64 14.74 21.18 15.43 21.45 16.22L21.52 16.44L22.05 18.38C22.28 19.25 21.67 20.11 20.79 20.18L20.66 20.19L18.57 20.19C18.92 19.56 19.04 18.83 18.9 18.12L18.85 17.9L18.3 15.9L18.22 15.64C17.86 14.53 17.15 13.58 16.2 12.9L15.98 12.75L13.7 11.31L13.81 11.07C14.24 10.13 14.51 8.94 14.55 7.5L14.56 7.14L14.55 6.93C14.51 6.01 14.22 5.16 13.75 4.44C14.02 4.37 14.31 4.33 14.61 4.33C16.39 4.33 17.84 5.78 17.84 7.56ZM12.97 7.14C12.97 9.36 12.35 10.91 11.43 11.74L15.13 14.09C15.93 14.6 16.52 15.4 16.77 16.32L17.32 18.32C17.57 19.26 16.86 20.19 15.89 20.19L3.37 20.19C2.4 20.19 1.69 19.26 1.95 18.32L2.49 16.32C2.74 15.4 3.33 14.6 4.13 14.09L7.91 11.69C6.91 10.77 6.29 9.1 6.29 7.14C6.29 5.3 7.79 3.8 9.63 3.8C11.48 3.8 12.97 5.3 12.97 7.14Z" stroke="#000000" stroke-opacity="0" stroke-width="1.000000"/>
		</g>
	</g>
</svg>
