<svg width="24.000000" height="24.000000" viewBox="0 0 24 24" fill="none" xmlns="http://www.w3.org/2000/svg" xmlns:xlink="http://www.w3.org/1999/xlink">
	<desc>
			Created with Pixso.
	</desc>
	<defs>
		<clipPath id="clip79_5483">
			<rect width="24.000000" height="24.000000" fill="white" fill-opacity="0"/>
		</clipPath>
		<clipPath id="clip79_5484">
			<rect width="24.000000" height="24.000000" fill="white" fill-opacity="0"/>
		</clipPath>
	</defs>
	<g clip-path="url(#clip79_5484)">
		<g clip-path="url(#clip79_5483)">
			<path d="M14.75 12.32C14.72 14 20.97 14.57 20.98 18.15L21 18.15L21 20.43C21 20.74 20.74 21 20.43 21L4.56 21C4.25 21 4 20.74 4 20.43L4 18.15L4.01 18.15C4.03 14.3 10.21 13.94 10.24 12.32C10.25 12.24 10.25 11.36 9.95 10.87C9.62 10.36 8.53 8.73 8.53 7.21C8.53 4.88 10.15 3 12.5 3C14.85 3 16.47 4.88 16.47 7.21C16.47 8.73 15.21 10.43 15.05 10.87C14.87 11.34 14.76 12.21 14.75 12.32Z" fill="#000000" fill-opacity="0.400000" fill-rule="nonzero"/>
		</g>
	</g>
</svg>
