<svg width="24.000000" height="24.000000" viewBox="0 0 24 24" fill="none" xmlns="http://www.w3.org/2000/svg" xmlns:xlink="http://www.w3.org/1999/xlink">
	<desc>
			Created with Pixso.
	</desc>
	<defs>
		<clipPath id="clip65_4144">
			<rect width="24.000000" height="24.000000" fill="white" fill-opacity="0"/>
		</clipPath>
		<clipPath id="clip65_4136">
			<rect width="24.000000" height="24.000000" fill="white" fill-opacity="0"/>
		</clipPath>
	</defs>
	<g clip-path="url(#clip65_4136)">
		<g clip-path="url(#clip65_4144)">
			<g opacity="0.000000">
				<rect width="24.000000" height="24.000000" fill="#D8D8D8" fill-opacity="1.000000"/>
				<rect width="24.000000" height="24.000000" stroke="#000000" stroke-opacity="0" stroke-width="1.000000"/>
			</g>
			<path d="M21 9.6L21 18.39C21 20.04 19.65 21.39 18 21.39L6 21.39C4.34 21.39 3 20.04 3 18.39L3 9.6L21 9.6ZM12.5 15.35L11.5 15.35C11.22 15.35 11 15.57 11 15.85L11 16.85C11 17.12 11.22 17.35 11.5 17.35L12.5 17.35C12.77 17.35 13 17.12 13 16.85L13 15.85C13 15.57 12.77 15.35 12.5 15.35ZM8.5 15.35L7.5 15.35C7.22 15.35 7 15.57 7 15.85L7 16.85C7 17.12 7.22 17.35 7.5 17.35L8.5 17.35C8.77 17.35 9 17.12 9 16.85L9 15.85C9 15.57 8.77 15.35 8.5 15.35ZM16.5 11.35L15.5 11.35C15.22 11.35 15 11.57 15 11.85L15 12.85C15 13.12 15.22 13.35 15.5 13.35L16.5 13.35C16.77 13.35 17 13.12 17 12.85L17 11.85C17 11.57 16.77 11.35 16.5 11.35ZM12.5 11.35L11.5 11.35C11.22 11.35 11 11.57 11 11.85L11 12.85C11 13.12 11.22 13.35 11.5 13.35L12.5 13.35C12.77 13.35 13 13.12 13 12.85L13 11.85C13 11.57 12.77 11.35 12.5 11.35ZM15.5 2.6C15.91 2.6 16.25 2.93 16.25 3.35L16.25 4.31L18 4.31C18.67 4.31 19.29 4.54 19.8 4.92L19.96 5.06C20.54 5.6 21 6.45 21 7.31L21 8.1L3 8.1L3 7.31C3 6.45 3.36 5.68 3.93 5.14C4.46 4.68 5.24 4.31 6 4.31L7.75 4.31L7.75 3.35C7.75 2.93 8.08 2.6 8.5 2.6C8.91 2.6 9.25 2.93 9.25 3.35L9.25 4.31L14.75 4.31L14.75 3.35C14.75 2.93 15.08 2.6 15.5 2.6Z" fill="#000000" fill-opacity="0.600000" fill-rule="evenodd"/>
			<path d="M21 18.39C21 20.04 19.65 21.39 18 21.39L6 21.39C4.34 21.39 3 20.04 3 18.39L3 9.6L21 9.6L21 18.39ZM11.5 15.35C11.22 15.35 11 15.57 11 15.85L11 16.85C11 17.12 11.22 17.35 11.5 17.35L12.5 17.35C12.77 17.35 13 17.12 13 16.85L13 15.85C13 15.57 12.77 15.35 12.5 15.35L11.5 15.35ZM7.5 15.35C7.22 15.35 7 15.57 7 15.85L7 16.85C7 17.12 7.22 17.35 7.5 17.35L8.5 17.35C8.77 17.35 9 17.12 9 16.85L9 15.85C9 15.57 8.77 15.35 8.5 15.35L7.5 15.35ZM15.5 11.35C15.22 11.35 15 11.57 15 11.85L15 12.85C15 13.12 15.22 13.35 15.5 13.35L16.5 13.35C16.77 13.35 17 13.12 17 12.85L17 11.85C17 11.57 16.77 11.35 16.5 11.35L15.5 11.35ZM11.5 11.35C11.22 11.35 11 11.57 11 11.85L11 12.85C11 13.12 11.22 13.35 11.5 13.35L12.5 13.35C12.77 13.35 13 13.12 13 12.85L13 11.85C13 11.57 12.77 11.35 12.5 11.35L11.5 11.35ZM16.25 3.35L16.25 4.31L18 4.31C18.67 4.31 19.29 4.54 19.8 4.92L19.96 5.06C20.54 5.6 21 6.45 21 7.31L21 8.1L3 8.1L3 7.31C3 6.45 3.36 5.68 3.93 5.14C4.46 4.68 5.24 4.31 6 4.31L7.75 4.31L7.75 3.35C7.75 2.93 8.08 2.6 8.5 2.6C8.91 2.6 9.25 2.93 9.25 3.35L9.25 4.31L14.75 4.31L14.75 3.35C14.75 2.93 15.08 2.6 15.5 2.6C15.91 2.6 16.25 2.93 16.25 3.35Z" stroke="#000000" stroke-opacity="0" stroke-width="1.000000"/>
		</g>
	</g>
</svg>
