<svg width="24.000000" height="24.000000" viewBox="0 0 24 24" fill="none" xmlns="http://www.w3.org/2000/svg" xmlns:xlink="http://www.w3.org/1999/xlink">
	<desc>
			Created with Pixso.
	</desc>
	<defs>
		<clipPath id="clip75_5384">
			<rect width="24.000000" height="24.000000" fill="white" fill-opacity="0"/>
		</clipPath>
		<clipPath id="clip75_5385">
			<rect width="24.000000" height="24.000000" fill="white" fill-opacity="0"/>
		</clipPath>
	</defs>
	<g clip-path="url(#clip75_5385)">
		<g clip-path="url(#clip75_5384)">
			<path d="M12.75 12.32C12.72 14 18.97 14.57 18.98 18.15L19 18.15L19 20.43C19 20.74 18.74 21 18.43 21L2.56 21C2.25 21 2 20.74 2 20.43L2 18.15L2.01 18.15C2.03 14.3 8.21 13.94 8.24 12.32C8.25 12.24 8.25 11.36 7.95 10.87C7.62 10.36 6.53 8.73 6.53 7.21C6.53 4.88 8.15 3 10.5 3C12.84 3 14.47 4.88 14.47 7.21C14.47 8.73 13.21 10.43 13.05 10.87C12.87 11.34 12.76 12.21 12.75 12.32Z" fill="#000000" fill-opacity="0.400000" fill-rule="nonzero"/>
			<path d="M21.98 16.62C21.98 13.64 17.27 13.17 17.3 11.77C17.3 11.67 17.38 10.95 17.52 10.56C17.64 10.19 18.58 8.78 18.58 7.51C18.58 5.59 17.39 4.02 15.65 4C16.24 4.93 16.57 6.08 16.57 7.3C16.57 7.97 16.41 8.7 16.1 9.51C15.86 10.14 15.58 10.69 15.37 11.09C15.3 11.23 15.21 11.4 15.18 11.46C15.11 11.7 15.03 12.17 15 12.46C15.05 12.52 15.17 12.61 15.38 12.75C15.68 12.95 16.08 13.16 16.5 13.39C17.37 13.86 18.36 14.39 19.17 15.13C19.66 15.58 20.02 16.05 20.28 16.56C20.56 17.11 20.72 17.7 20.75 18.31C20.77 18.39 20.78 18.47 20.78 18.56L20.78 19L21.57 19C21.8 19 22 18.79 22 18.53L22 16.62L21.98 16.62Z" fill="#000000" fill-opacity="0.400000" fill-rule="nonzero"/>
		</g>
	</g>
</svg>
