<svg width="16.000000" height="16.000000" viewBox="0 0 16 16" fill="none" xmlns="http://www.w3.org/2000/svg" xmlns:xlink="http://www.w3.org/1999/xlink">
	<desc>
			Created with Pixso.
	</desc>
	<defs/>
	<path d="M6.66 5.66C4.64 5.66 2.99 7.3 2.99 9.33C2.99 11.35 4.64 13 6.66 13C8.69 13 10.33 11.35 10.33 9.33C10.33 7.3 8.69 5.66 6.66 5.66ZM13.85 2.14L13.93 2.25L13.97 2.34L13.99 2.4L14 6.33L13.99 6.4C13.96 6.62 13.79 6.79 13.56 6.82L13.5 6.83L13.43 6.82C13.21 6.79 13.03 6.62 13 6.4L13 6.33L13 3.7L10.3 6.4C10.94 7.2 11.33 8.22 11.33 9.33C11.33 11.91 9.24 14 6.66 14C4.08 14 1.99 11.91 1.99 9.33C1.99 6.75 4.08 4.66 6.66 4.66C7.77 4.66 8.79 5.05 9.59 5.69L12.29 3L9.66 3L9.59 2.99C9.35 2.96 9.16 2.75 9.16 2.5C9.16 2.24 9.35 2.03 9.59 2L9.66 2L13.5 2L13.56 2L13.65 2.02L13.73 2.05L13.85 2.14Z" fill="#191919" fill-opacity="1.000000" fill-rule="nonzero"/>
	<path d="M2.99 9.33C2.99 11.35 4.64 13 6.66 13C8.69 13 10.33 11.35 10.33 9.33C10.33 7.3 8.69 5.66 6.66 5.66C4.64 5.66 2.99 7.3 2.99 9.33ZM13.93 2.25L13.97 2.34L13.99 2.4L14 6.33L13.99 6.4C13.96 6.62 13.79 6.79 13.56 6.82L13.5 6.83L13.43 6.82C13.21 6.79 13.03 6.62 13 6.4L13 6.33L13 3.7L10.3 6.4C10.94 7.2 11.33 8.22 11.33 9.33C11.33 11.91 9.24 14 6.66 14C4.08 14 1.99 11.91 1.99 9.33C1.99 6.75 4.08 4.66 6.66 4.66C7.77 4.66 8.79 5.05 9.59 5.69L12.29 3L9.66 3L9.59 2.99C9.35 2.96 9.16 2.75 9.16 2.5C9.16 2.24 9.35 2.03 9.59 2L9.66 2L13.5 2L13.56 2L13.65 2.02L13.73 2.05L13.85 2.14L13.93 2.25Z" stroke="#000000" stroke-opacity="0" stroke-width="1.000000"/>
</svg>
