<svg width="24.000000" height="24.000000" viewBox="0 0 24 24" fill="none" xmlns="http://www.w3.org/2000/svg" xmlns:xlink="http://www.w3.org/1999/xlink">
	<desc>
			Created with Pixso.
	</desc>
	<defs>
		<clipPath id="clip79_5770">
			<rect width="24.000000" height="24.000000" fill="white" fill-opacity="0"/>
		</clipPath>
		<clipPath id="clip79_5766">
			<rect width="24.000000" height="24.000000" fill="white" fill-opacity="0"/>
		</clipPath>
	</defs>
	<g clip-path="url(#clip79_5766)">
		<g clip-path="url(#clip79_5770)">
			<path d="M12 3.42C11.85 3.42 11.71 3.43 11.57 3.43C11.43 3.44 11.29 3.45 11.15 3.46C11.02 3.48 10.88 3.5 10.74 3.52C10.6 3.54 10.46 3.56 10.32 3.59C10.19 3.62 10.05 3.65 9.91 3.68C9.78 3.71 9.64 3.75 9.51 3.79C9.37 3.83 9.24 3.88 9.11 3.92C8.98 3.97 8.84 4.02 8.71 4.08C8.59 4.13 8.46 4.19 8.33 4.25C8.2 4.31 8.08 4.37 7.95 4.44C7.83 4.5 7.71 4.57 7.59 4.64C7.47 4.72 7.35 4.79 7.23 4.87C7.12 4.95 7 5.03 6.89 5.11C6.78 5.19 6.67 5.28 6.56 5.37C6.45 5.46 6.34 5.55 6.24 5.64C6.13 5.74 6.03 5.83 5.93 5.93C5.83 6.03 5.74 6.13 5.64 6.24C5.55 6.34 5.46 6.45 5.37 6.56C5.28 6.67 5.19 6.78 5.11 6.89C5.03 7 4.95 7.12 4.87 7.23C4.79 7.35 4.72 7.47 4.64 7.59C4.57 7.71 4.5 7.83 4.44 7.95C4.37 8.08 4.31 8.2 4.25 8.33C4.19 8.46 4.13 8.59 4.08 8.71C4.02 8.84 3.97 8.98 3.92 9.11C3.88 9.24 3.83 9.37 3.79 9.51C3.75 9.64 3.71 9.78 3.68 9.91C3.65 10.05 3.62 10.19 3.59 10.32C3.56 10.46 3.54 10.6 3.52 10.74C3.5 10.88 3.48 11.02 3.46 11.15C3.45 11.29 3.44 11.43 3.43 11.57C3.43 11.71 3.42 11.85 3.42 12C3.42 12.14 3.43 12.28 3.43 12.42C3.44 12.56 3.45 12.7 3.46 12.84C3.48 12.97 3.5 13.11 3.52 13.25C3.54 13.39 3.56 13.53 3.59 13.67C3.62 13.8 3.65 13.94 3.68 14.08C3.71 14.21 3.75 14.35 3.79 14.48C3.83 14.62 3.88 14.75 3.92 14.88C3.97 15.01 4.02 15.15 4.08 15.28C4.13 15.4 4.19 15.53 4.25 15.66C4.31 15.79 4.37 15.91 4.44 16.04C4.5 16.16 4.57 16.28 4.64 16.4C4.72 16.52 4.79 16.64 4.87 16.76C4.95 16.87 5.03 16.99 5.11 17.1C5.19 17.21 5.28 17.32 5.37 17.43C5.46 17.54 5.55 17.65 5.64 17.75C5.74 17.86 5.83 17.96 5.93 18.06C6.03 18.16 6.13 18.25 6.24 18.35C6.34 18.44 6.45 18.53 6.56 18.62C6.67 18.71 6.78 18.8 6.89 18.88C7 18.96 7.12 19.04 7.23 19.12C7.35 19.2 7.47 19.27 7.59 19.35C7.71 19.42 7.83 19.49 7.95 19.55C8.08 19.62 8.2 19.68 8.33 19.74C8.46 19.8 8.59 19.86 8.71 19.91C8.84 19.97 8.98 20.02 9.11 20.07C9.24 20.11 9.37 20.16 9.51 20.2C9.64 20.24 9.78 20.28 9.91 20.31C10.05 20.34 10.19 20.37 10.32 20.4C10.46 20.43 10.6 20.45 10.74 20.47C10.88 20.49 11.02 20.51 11.15 20.53C11.29 20.54 11.43 20.55 11.57 20.56C11.71 20.56 11.85 20.57 12 20.57C12.14 20.57 12.28 20.56 12.42 20.56C12.56 20.55 12.7 20.54 12.84 20.53C12.97 20.51 13.11 20.49 13.25 20.47C13.39 20.45 13.53 20.43 13.67 20.4C13.8 20.37 13.94 20.34 14.08 20.31C14.21 20.28 14.35 20.24 14.48 20.2C14.62 20.16 14.75 20.11 14.88 20.07C15.01 20.02 15.15 19.97 15.28 19.91C15.4 19.86 15.53 19.8 15.66 19.74C15.79 19.68 15.91 19.62 16.04 19.55C16.16 19.49 16.28 19.42 16.4 19.35C16.52 19.27 16.64 19.2 16.76 19.12C16.87 19.04 16.99 18.96 17.1 18.88C17.21 18.8 17.32 18.71 17.43 18.62C17.54 18.53 17.65 18.44 17.75 18.35C17.86 18.25 17.96 18.16 18.06 18.06C18.16 17.96 18.25 17.86 18.35 17.75C18.44 17.65 18.53 17.54 18.62 17.43C18.71 17.32 18.8 17.21 18.88 17.1C18.96 16.99 19.04 16.87 19.12 16.76C19.2 16.64 19.27 16.52 19.35 16.4C19.42 16.28 19.49 16.16 19.55 16.04C19.62 15.91 19.68 15.79 19.74 15.66C19.8 15.53 19.86 15.4 19.91 15.28C19.97 15.15 20.02 15.01 20.07 14.88C20.11 14.75 20.16 14.62 20.2 14.48C20.24 14.35 20.28 14.21 20.31 14.08C20.34 13.94 20.37 13.8 20.4 13.67C20.43 13.53 20.45 13.39 20.47 13.25C20.49 13.11 20.51 12.97 20.53 12.84C20.54 12.7 20.55 12.56 20.56 12.42C20.56 12.28 20.57 12.14 20.57 12C20.57 11.85 20.56 11.71 20.56 11.57C20.55 11.43 20.54 11.29 20.53 11.15C20.51 11.02 20.49 10.88 20.47 10.74C20.45 10.6 20.43 10.46 20.4 10.32C20.37 10.19 20.34 10.05 20.31 9.91C20.28 9.78 20.24 9.64 20.2 9.51C20.16 9.37 20.11 9.24 20.07 9.11C20.02 8.98 19.97 8.84 19.91 8.71C19.86 8.59 19.8 8.46 19.74 8.33C19.68 8.2 19.62 8.08 19.55 7.95C19.49 7.83 19.42 7.71 19.35 7.59C19.27 7.47 19.2 7.35 19.12 7.23C19.04 7.12 18.96 7 18.88 6.89C18.8 6.78 18.71 6.67 18.62 6.56C18.53 6.45 18.44 6.34 18.35 6.24C18.25 6.13 18.16 6.03 18.06 5.93C17.96 5.83 17.86 5.74 17.75 5.64C17.65 5.55 17.54 5.46 17.43 5.37C17.32 5.28 17.21 5.19 17.1 5.11C16.99 5.03 16.87 4.95 16.76 4.87C16.64 4.79 16.52 4.72 16.4 4.64C16.28 4.57 16.16 4.5 16.04 4.44C15.91 4.37 15.79 4.31 15.66 4.25C15.53 4.19 15.4 4.13 15.28 4.08C15.15 4.02 15.01 3.97 14.88 3.92C14.75 3.88 14.62 3.83 14.48 3.79C14.35 3.75 14.21 3.71 14.08 3.68C13.94 3.65 13.8 3.62 13.67 3.59C13.53 3.56 13.39 3.54 13.25 3.52C13.11 3.5 12.97 3.48 12.84 3.46C12.7 3.45 12.56 3.44 12.42 3.43C12.28 3.43 12.14 3.42 12 3.42ZM12.61 16.13C12.61 16.15 12.6 16.17 12.6 16.19C12.59 16.2 12.58 16.22 12.56 16.24C12.55 16.25 12.53 16.26 12.51 16.27C12.49 16.28 12.47 16.28 12.45 16.28L11.54 16.28C11.52 16.28 11.5 16.28 11.48 16.27C11.46 16.26 11.44 16.25 11.43 16.24C11.41 16.22 11.4 16.2 11.39 16.19C11.39 16.17 11.38 16.15 11.38 16.13L11.38 10.93C11.38 10.84 11.45 10.77 11.54 10.77L12.45 10.77C12.54 10.77 12.61 10.84 12.61 10.93L12.61 16.13L12.61 16.13ZM12 9.55C11.93 9.55 11.87 9.54 11.82 9.53C11.76 9.52 11.7 9.5 11.64 9.48C11.59 9.45 11.53 9.43 11.48 9.39C11.43 9.36 11.39 9.32 11.34 9.28C11.3 9.24 11.26 9.19 11.23 9.14C11.2 9.09 11.17 9.04 11.15 8.98C11.12 8.92 11.1 8.87 11.09 8.81C11.08 8.75 11.08 8.69 11.08 8.63C11.08 8.57 11.08 8.51 11.09 8.45C11.1 8.39 11.12 8.33 11.15 8.28C11.17 8.22 11.2 8.17 11.23 8.12C11.26 8.07 11.3 8.02 11.34 7.98C11.39 7.94 11.43 7.9 11.48 7.86C11.53 7.83 11.59 7.8 11.64 7.78C11.7 7.76 11.76 7.74 11.82 7.73C11.87 7.72 11.93 7.71 12 7.71C12.05 7.71 12.11 7.72 12.17 7.74C12.22 7.75 12.28 7.77 12.33 7.79C12.38 7.82 12.43 7.85 12.48 7.88C12.53 7.92 12.57 7.95 12.61 8C12.65 8.04 12.68 8.08 12.71 8.13C12.75 8.18 12.77 8.23 12.79 8.29C12.81 8.34 12.83 8.4 12.84 8.45C12.85 8.51 12.86 8.57 12.86 8.63C12.86 8.68 12.85 8.74 12.84 8.8C12.83 8.86 12.81 8.91 12.79 8.97C12.77 9.02 12.75 9.07 12.71 9.12C12.68 9.17 12.65 9.21 12.61 9.26C12.57 9.3 12.53 9.34 12.48 9.37C12.43 9.4 12.38 9.43 12.33 9.46C12.28 9.48 12.22 9.5 12.17 9.52C12.11 9.53 12.05 9.54 12 9.54L12 9.55Z" fill="#000000" fill-opacity="0.400000" fill-rule="nonzero"/>
		</g>
	</g>
</svg>
