<svg width="24.000000" height="24.000000" viewBox="0 0 24 24" fill="none" xmlns="http://www.w3.org/2000/svg" xmlns:xlink="http://www.w3.org/1999/xlink">
	<desc>
			Created with Pixso.
	</desc>
	<defs>
		<clipPath id="clip79_5813">
			<rect width="20.000000" height="20.000000" transform="translate(2.000244 2.000000)" fill="white" fill-opacity="0"/>
		</clipPath>
		<clipPath id="clip79_5812">
			<rect width="24.000000" height="24.000000" fill="white" fill-opacity="0"/>
		</clipPath>
	</defs>
	<g clip-path="url(#clip79_5812)">
		<g clip-path="url(#clip79_5813)">
			<path d="M18.04 4.7C19.3 4.7 20.33 5.73 20.33 7L20.33 9.91C20.33 9.95 20.32 9.99 20.32 10.03C20.31 10.07 20.3 10.11 20.28 10.15C20.27 10.19 20.25 10.22 20.22 10.26C20.2 10.29 20.17 10.32 20.15 10.35C20.12 10.38 20.09 10.41 20.05 10.43C20.02 10.45 19.98 10.47 19.94 10.49C19.9 10.5 19.87 10.52 19.83 10.52C19.79 10.53 19.74 10.54 19.7 10.54C19.66 10.54 19.61 10.54 19.56 10.54C19.51 10.55 19.47 10.56 19.42 10.56C19.37 10.57 19.33 10.59 19.28 10.6C19.23 10.61 19.19 10.63 19.15 10.65C19.1 10.67 19.06 10.69 19.02 10.71C18.97 10.73 18.93 10.76 18.89 10.78C18.85 10.81 18.82 10.84 18.78 10.87C18.74 10.9 18.71 10.93 18.67 10.96C18.64 11 18.61 11.03 18.58 11.07C18.55 11.11 18.52 11.15 18.49 11.18C18.46 11.22 18.44 11.27 18.42 11.31C18.4 11.35 18.37 11.39 18.36 11.44C18.34 11.48 18.32 11.53 18.31 11.57C18.29 11.62 18.28 11.66 18.27 11.71C18.26 11.76 18.26 11.8 18.25 11.85C18.25 11.9 18.25 11.95 18.25 12C18.25 12.04 18.25 12.09 18.25 12.14C18.26 12.19 18.26 12.23 18.27 12.28C18.28 12.33 18.29 12.37 18.31 12.42C18.32 12.46 18.34 12.51 18.36 12.55C18.37 12.6 18.4 12.64 18.42 12.68C18.44 12.72 18.46 12.77 18.49 12.81C18.52 12.84 18.55 12.88 18.58 12.92C18.61 12.96 18.64 12.99 18.67 13.03C18.71 13.06 18.74 13.09 18.78 13.12C18.82 13.15 18.85 13.18 18.89 13.21C18.93 13.23 18.97 13.26 19.02 13.28C19.06 13.3 19.1 13.32 19.15 13.34C19.19 13.36 19.23 13.38 19.28 13.39C19.33 13.4 19.37 13.42 19.42 13.43C19.47 13.43 19.51 13.44 19.56 13.45C19.61 13.45 19.66 13.45 19.7 13.45C19.74 13.45 19.79 13.46 19.83 13.47C19.87 13.47 19.9 13.49 19.94 13.5C19.98 13.52 20.02 13.54 20.05 13.56C20.09 13.58 20.12 13.61 20.15 13.64C20.17 13.67 20.2 13.7 20.22 13.73C20.25 13.77 20.27 13.8 20.28 13.84C20.3 13.88 20.31 13.92 20.32 13.96C20.32 14 20.33 14.04 20.33 14.08L20.33 17C20.33 18.26 19.3 19.29 18.04 19.29L5.95 19.29C4.69 19.29 3.66 18.26 3.66 17L3.66 14.08C3.66 14.04 3.67 14 3.67 13.96C3.68 13.92 3.69 13.88 3.71 13.84C3.73 13.8 3.74 13.77 3.77 13.73C3.79 13.7 3.82 13.67 3.84 13.64C3.87 13.61 3.91 13.58 3.94 13.56C3.97 13.54 4.01 13.52 4.05 13.5C4.09 13.49 4.12 13.47 4.16 13.47C4.21 13.46 4.25 13.45 4.29 13.45C4.33 13.45 4.38 13.45 4.43 13.45C4.48 13.44 4.52 13.43 4.57 13.43C4.62 13.42 4.66 13.4 4.71 13.39C4.76 13.38 4.8 13.36 4.85 13.34C4.89 13.32 4.93 13.3 4.97 13.28C5.02 13.26 5.06 13.23 5.1 13.21C5.14 13.18 5.18 13.15 5.21 13.12C5.25 13.09 5.28 13.06 5.32 13.03C5.35 12.99 5.38 12.96 5.41 12.92C5.44 12.88 5.47 12.84 5.5 12.81C5.53 12.77 5.55 12.72 5.57 12.68C5.6 12.64 5.62 12.6 5.63 12.55C5.65 12.51 5.67 12.46 5.68 12.42C5.7 12.37 5.71 12.33 5.72 12.28C5.73 12.23 5.73 12.19 5.74 12.14C5.74 12.09 5.75 12.04 5.75 12C5.75 11.95 5.74 11.9 5.74 11.85C5.73 11.8 5.73 11.76 5.72 11.71C5.71 11.66 5.7 11.62 5.68 11.57C5.67 11.53 5.65 11.48 5.63 11.44C5.62 11.39 5.6 11.35 5.57 11.31C5.55 11.27 5.53 11.22 5.5 11.18C5.47 11.15 5.44 11.11 5.41 11.07C5.38 11.03 5.35 11 5.32 10.96C5.28 10.93 5.25 10.9 5.21 10.87C5.18 10.84 5.14 10.81 5.1 10.78C5.06 10.76 5.02 10.73 4.97 10.71C4.93 10.69 4.89 10.67 4.85 10.65C4.8 10.63 4.76 10.61 4.71 10.6C4.66 10.59 4.62 10.57 4.57 10.56C4.52 10.56 4.48 10.55 4.43 10.54C4.38 10.54 4.33 10.54 4.29 10.54C4.25 10.54 4.21 10.53 4.16 10.52C4.12 10.52 4.09 10.5 4.05 10.49C4.01 10.47 3.97 10.45 3.94 10.43C3.91 10.41 3.87 10.38 3.84 10.35C3.82 10.32 3.79 10.29 3.77 10.26C3.74 10.22 3.73 10.19 3.71 10.15C3.69 10.11 3.68 10.07 3.67 10.03C3.67 9.99 3.66 9.95 3.66 9.91L3.66 7C3.66 5.73 4.69 4.7 5.95 4.7L18.04 4.7ZM14.5 13.04L9.5 13.04C9.45 13.04 9.41 13.04 9.37 13.05C9.33 13.06 9.29 13.07 9.26 13.08C9.22 13.1 9.18 13.12 9.15 13.14C9.11 13.16 9.08 13.19 9.05 13.22C9.02 13.25 9 13.28 8.98 13.31C8.95 13.35 8.93 13.38 8.92 13.42C8.9 13.46 8.89 13.5 8.88 13.54C8.87 13.58 8.87 13.62 8.87 13.66C8.87 13.7 8.87 13.74 8.88 13.78C8.89 13.82 8.9 13.86 8.92 13.9C8.93 13.94 8.95 13.97 8.98 14.01C9 14.04 9.02 14.07 9.05 14.1C9.08 14.13 9.11 14.16 9.15 14.18C9.18 14.2 9.22 14.22 9.26 14.24C9.29 14.25 9.33 14.27 9.37 14.27C9.41 14.28 9.45 14.29 9.5 14.29L14.5 14.29C14.54 14.29 14.58 14.28 14.62 14.27C14.66 14.27 14.7 14.25 14.73 14.24C14.77 14.22 14.81 14.2 14.84 14.18C14.88 14.16 14.91 14.13 14.94 14.1C14.97 14.07 14.99 14.04 15.02 14.01C15.04 13.97 15.06 13.94 15.07 13.9C15.09 13.86 15.1 13.82 15.11 13.78C15.12 13.74 15.12 13.7 15.12 13.66C15.12 13.62 15.12 13.58 15.11 13.54C15.1 13.5 15.09 13.46 15.07 13.42C15.06 13.38 15.04 13.35 15.02 13.31C14.99 13.28 14.97 13.25 14.94 13.22C14.91 13.19 14.88 13.16 14.84 13.14C14.81 13.12 14.77 13.1 14.73 13.08C14.7 13.07 14.66 13.06 14.62 13.05C14.58 13.04 14.54 13.04 14.5 13.04ZM14.5 9.7L9.5 9.7C9.45 9.7 9.41 9.71 9.37 9.72C9.33 9.72 9.29 9.74 9.26 9.75C9.22 9.77 9.18 9.79 9.15 9.81C9.11 9.83 9.08 9.86 9.05 9.89C9.02 9.92 9 9.95 8.98 9.98C8.95 10.02 8.93 10.05 8.92 10.09C8.9 10.13 8.89 10.17 8.88 10.21C8.87 10.25 8.87 10.29 8.87 10.33C8.87 10.37 8.87 10.41 8.88 10.45C8.89 10.49 8.9 10.53 8.92 10.57C8.93 10.61 8.95 10.64 8.98 10.68C9 10.71 9.02 10.74 9.05 10.77C9.08 10.8 9.11 10.83 9.15 10.85C9.18 10.87 9.22 10.89 9.26 10.91C9.29 10.92 9.33 10.93 9.37 10.94C9.41 10.95 9.45 10.95 9.5 10.95L14.5 10.95C14.54 10.95 14.58 10.95 14.62 10.94C14.66 10.93 14.7 10.92 14.73 10.91C14.77 10.89 14.81 10.87 14.84 10.85C14.88 10.83 14.91 10.8 14.94 10.77C14.97 10.74 14.99 10.71 15.02 10.68C15.04 10.64 15.06 10.61 15.07 10.57C15.09 10.53 15.1 10.49 15.11 10.45C15.12 10.41 15.12 10.37 15.12 10.33C15.12 10.29 15.12 10.25 15.11 10.21C15.1 10.17 15.09 10.13 15.07 10.09C15.06 10.05 15.04 10.02 15.02 9.98C14.99 9.95 14.97 9.92 14.94 9.89C14.91 9.86 14.88 9.83 14.84 9.81C14.81 9.79 14.77 9.77 14.73 9.75C14.7 9.74 14.66 9.72 14.62 9.72C14.58 9.71 14.54 9.7 14.5 9.7Z" fill="#000000" fill-opacity="0.400000" fill-rule="nonzero"/>
		</g>
	</g>
</svg>
