<svg width="24.000000" height="24.000000" viewBox="0 0 24 24" fill="none" xmlns="http://www.w3.org/2000/svg" xmlns:xlink="http://www.w3.org/1999/xlink">
	<desc>
			Created with Pixso.
	</desc>
	<defs>
		<clipPath id="clip79_5798">
			<rect width="20.000000" height="20.000000" transform="translate(2.000244 2.000000)" fill="white" fill-opacity="0"/>
		</clipPath>
		<clipPath id="clip79_5780">
			<rect width="24.000000" height="24.000000" fill="white" fill-opacity="0"/>
		</clipPath>
	</defs>
	<g clip-path="url(#clip79_5780)">
		<g clip-path="url(#clip79_5798)">
			<path d="M12.13 13.24L12 13.24L12.11 13.24L12.2 13.24L12.27 13.24L12.39 13.24C14.15 13.21 15.77 12.96 16.98 12.55C17.41 12.4 17.76 12.24 18.03 12.08C18.62 11.8 19.12 11.48 19.49 11.13L19.5 11.58L19.5 12.46L19.5 19.29C19.5 19.33 19.49 19.37 19.48 19.41C19.48 19.45 19.46 19.49 19.45 19.53C19.43 19.56 19.41 19.6 19.39 19.63C19.37 19.67 19.34 19.7 19.31 19.73C19.28 19.76 19.25 19.78 19.22 19.81C19.18 19.83 19.15 19.85 19.11 19.86C19.07 19.88 19.03 19.89 18.99 19.9C18.95 19.91 18.91 19.91 18.87 19.91C18.83 19.91 18.79 19.91 18.75 19.9C18.71 19.89 18.67 19.88 18.63 19.86C18.59 19.85 18.56 19.83 18.52 19.81C18.49 19.78 18.46 19.76 18.43 19.73C18.4 19.7 18.37 19.67 18.35 19.63C18.33 19.6 18.31 19.56 18.29 19.53C18.28 19.49 18.27 19.45 18.26 19.41C18.25 19.37 18.25 19.33 18.25 19.29L18.25 13.37C17.82 13.58 17.33 13.76 16.78 13.92L16.58 13.97L16.58 17.62C16.58 17.66 16.57 17.7 16.57 17.74C16.56 17.78 16.55 17.82 16.53 17.86C16.52 17.9 16.5 17.93 16.47 17.97C16.45 18 16.42 18.03 16.4 18.06C16.37 18.09 16.34 18.12 16.3 18.14C16.27 18.16 16.23 18.18 16.19 18.2C16.15 18.21 16.12 18.23 16.08 18.23C16.04 18.24 15.99 18.25 15.95 18.25C15.91 18.25 15.87 18.24 15.83 18.23C15.79 18.23 15.75 18.21 15.71 18.2C15.68 18.18 15.64 18.16 15.61 18.14C15.57 18.12 15.54 18.09 15.51 18.06C15.48 18.03 15.46 18 15.43 17.97C15.41 17.93 15.39 17.9 15.38 17.86C15.36 17.82 15.35 17.78 15.34 17.74C15.33 17.7 15.33 17.66 15.33 17.62L15.33 14.24L15.23 14.25L14.86 14.31L14.56 14.35L14.1 14.4L13.63 14.44L13.31 14.46L13.15 14.47L12.83 14.48C12.66 14.49 12.5 14.49 12.33 14.49L12 14.5L11.66 14.49C11.49 14.49 11.33 14.49 11.16 14.48L10.76 14.46L10.36 14.44L9.89 14.4L9.43 14.35L9.13 14.31L8.84 14.26L8.66 14.24L8.66 17.62C8.66 17.66 8.66 17.7 8.65 17.74C8.64 17.78 8.63 17.82 8.61 17.86C8.6 17.9 8.58 17.93 8.56 17.97C8.53 18 8.51 18.03 8.48 18.06C8.45 18.09 8.42 18.12 8.38 18.14C8.35 18.16 8.31 18.18 8.28 18.2C8.24 18.21 8.2 18.23 8.16 18.23C8.12 18.24 8.08 18.25 8.04 18.25C8 18.25 7.96 18.24 7.91 18.23C7.87 18.23 7.84 18.21 7.8 18.2C7.76 18.18 7.72 18.16 7.69 18.14C7.66 18.12 7.62 18.09 7.59 18.06C7.57 18.03 7.54 18 7.52 17.97C7.49 17.93 7.48 17.9 7.46 17.86C7.44 17.82 7.43 17.78 7.42 17.74C7.42 17.7 7.41 17.66 7.41 17.62L7.41 13.97L7.21 13.92C6.66 13.76 6.17 13.58 5.74 13.37L5.75 18.87C5.75 18.91 5.74 18.95 5.73 18.99C5.73 19.03 5.71 19.07 5.7 19.11C5.68 19.15 5.66 19.18 5.64 19.22C5.62 19.25 5.59 19.28 5.56 19.31C5.53 19.34 5.5 19.37 5.47 19.39C5.43 19.41 5.4 19.43 5.36 19.45C5.32 19.46 5.28 19.48 5.24 19.48C5.2 19.49 5.16 19.5 5.12 19.5C5.08 19.5 5.04 19.49 5 19.48C4.96 19.48 4.92 19.46 4.88 19.45C4.84 19.43 4.81 19.41 4.77 19.39C4.74 19.37 4.71 19.34 4.68 19.31C4.65 19.28 4.62 19.25 4.6 19.22C4.58 19.18 4.56 19.15 4.54 19.11C4.53 19.07 4.52 19.03 4.51 18.99C4.5 18.95 4.5 18.91 4.5 18.87L4.49 12.46L4.5 11.58L4.5 11.13C4.87 11.48 5.37 11.8 5.96 12.08C6.23 12.24 6.58 12.4 7.01 12.54C8.22 12.96 9.84 13.21 11.6 13.24L11.72 13.24L11.77 13.24L11.88 13.24L12 13.24L12.19 13.24L12.13 13.24ZM12 4.08C16.6 4.08 20.33 5.94 20.33 8.25C20.33 10.55 16.6 12.41 12 12.41C7.39 12.41 3.66 10.55 3.66 8.25C3.66 5.94 7.39 4.08 12 4.08Z" fill="#000000" fill-opacity="0.400000" fill-rule="nonzero"/>
		</g>
	</g>
</svg>
