<svg width="24.000000" height="24.000000" viewBox="0 0 24 24" fill="none" xmlns="http://www.w3.org/2000/svg" xmlns:xlink="http://www.w3.org/1999/xlink">
	<desc>
			Created with Pixso.
	</desc>
	<defs>
		<clipPath id="clip79_5822">
			<rect width="20.000000" height="20.000000" transform="translate(2.000000 2.000000)" fill="white" fill-opacity="0"/>
		</clipPath>
		<clipPath id="clip79_5821">
			<rect width="24.000000" height="24.000000" fill="white" fill-opacity="0"/>
		</clipPath>
	</defs>
	<g clip-path="url(#clip79_5821)">
		<g clip-path="url(#clip79_5822)">
			<path d="M12.8 5.12C13.05 5.12 13.25 5.32 13.25 5.95L13.25 18.02C13.25 18.67 13.03 18.87 12.77 18.87C12.47 18.87 12.11 18.61 11.95 18.48C10.93 17.72 8.55 16.53 7.12 15.46C7.1 15.45 7.09 15.39 7.07 15.38C6.9 15.28 6.82 15.01 5.87 15L4.01 15C3.52 15 3.25 14.75 3.25 14.24L3.25 9.71C3.25 9.2 3.54 8.98 4.01 8.98L5.87 8.98C6.82 8.98 6.89 8.7 7.07 8.6C7.09 8.59 7.1 8.53 7.12 8.52C8.6 7.46 10.97 6.34 11.95 5.55C12.11 5.42 12.49 5.12 12.8 5.12L12.8 5.12ZM16.06 15.12C16.17 15.12 16.27 15.16 16.36 15.24L18.95 17.48L18.99 17.52C19.2 17.74 19.25 18.13 19.09 18.41L18.99 18.58L18.97 18.63C18.86 18.79 18.71 18.87 18.55 18.87C18.45 18.87 18.34 18.83 18.25 18.75L15.66 16.51L15.62 16.47C15.41 16.25 15.37 15.87 15.53 15.58L15.62 15.41L15.65 15.36C15.75 15.2 15.91 15.12 16.06 15.12ZM20.11 11.06C20.45 11.06 20.73 11.34 20.74 11.7L20.74 11.72L20.74 11.94L20.74 11.97L20.74 11.97L20.74 11.98L20.74 11.99L20.74 12.01L20.74 12.03L20.74 12.04L20.74 12.06L20.73 12.08L20.73 12.08L20.73 12.11L20.72 12.12L20.72 12.15L20.71 12.16L20.71 12.16L20.71 12.17L20.7 12.19L20.7 12.2C20.7 12.21 20.69 12.21 20.69 12.22L20.69 12.22L20.69 12.23L20.68 12.25L20.67 12.26L20.66 12.29L20.64 12.32L20.63 12.33L20.62 12.34L20.61 12.35L20.61 12.37L20.59 12.39L20.58 12.4L20.58 12.4L20.57 12.42L20.56 12.42L20.56 12.43L20.54 12.44L20.53 12.45L20.53 12.45L20.52 12.46L20.52 12.46L20.49 12.49L20.47 12.5L20.46 12.51L20.45 12.52L20.44 12.52L20.42 12.54L20.41 12.54L20.39 12.55L20.38 12.55L20.37 12.56L20.35 12.57C20.35 12.57 20.35 12.57 20.34 12.57L20.33 12.58L20.31 12.59L20.3 12.59L20.29 12.59L20.28 12.6L20.27 12.6L20.26 12.6L20.25 12.6C20.25 12.6 20.24 12.61 20.24 12.61L20.22 12.61L20.21 12.61L20.19 12.62L20.18 12.62L20.17 12.62L20.15 12.62L20.15 12.62L20.14 12.62L20.13 12.62L17.01 12.62L16.96 12.62C16.63 12.59 16.37 12.3 16.37 11.94L16.37 11.73L16.37 11.69C16.39 11.33 16.67 11.06 17.01 11.06L20.11 11.06ZM18.55 5.12C18.72 5.12 18.89 5.22 18.99 5.41L19.09 5.58L19.11 5.63C19.25 5.93 19.18 6.31 18.95 6.51L16.36 8.75L16.32 8.78C16.24 8.84 16.16 8.87 16.06 8.87C15.89 8.87 15.73 8.77 15.62 8.58L15.53 8.41L15.5 8.36C15.37 8.06 15.43 7.68 15.66 7.48L18.25 5.24L18.29 5.21C18.37 5.15 18.46 5.12 18.55 5.12Z" fill="#000000" fill-opacity="0.400000" fill-rule="nonzero"/>
		</g>
	</g>
</svg>
