<svg width="12.000000" height="12.000000" viewBox="0 0 12 12" fill="none" xmlns="http://www.w3.org/2000/svg" xmlns:xlink="http://www.w3.org/1999/xlink">
	<desc>
			Created with Pixso.
	</desc>
	<defs>
		<clipPath id="clip72_2215">
			<rect width="12.000000" height="12.000000" transform="matrix(-1 0 0 1 12 0)" fill="white" fill-opacity="0"/>
		</clipPath>
	</defs>
	<g clip-path="url(#clip72_2215)">
		<g opacity="0.000000">
			<rect width="12.000000" height="12.000000" transform="matrix(-1 0 0 1 12 0)" fill="#D8D8D8" fill-opacity="1.000000"/>
			<rect width="12.000000" height="12.000000" transform="matrix(-1 0 0 1 12 0)" stroke="#000000" stroke-opacity="0" stroke-width="1.000000"/>
		</g>
		<path d="M4.03 10.75C4.15 10.75 4.28 10.7 4.38 10.6L8.1 6.88C8.33 6.64 8.46 6.33 8.46 6C8.46 5.66 8.33 5.35 8.1 5.11L4.38 1.39C4.18 1.2 3.87 1.2 3.67 1.39C3.48 1.59 3.48 1.9 3.67 2.1L7.39 5.82C7.46 5.88 7.46 5.96 7.46 6C7.46 6.03 7.46 6.11 7.39 6.17L3.67 9.89C3.48 10.09 3.48 10.4 3.67 10.6C3.77 10.7 3.9 10.75 4.03 10.75Z" fill="#000000" fill-opacity="0.400000" fill-rule="evenodd"/>
	</g>
</svg>
