<svg width="40.000000" height="40.000000" viewBox="0 0 40 40" fill="none" xmlns="http://www.w3.org/2000/svg" xmlns:xlink="http://www.w3.org/1999/xlink">
	<desc>
			Created with Pixso.
	</desc>
	<defs>
		<clipPath id="clip179_889">
			<rect width="18.000000" height="18.000000" transform="translate(11.000000 11.000000)" fill="white" fill-opacity="0"/>
		</clipPath>
	</defs>
	<rect rx="20.000000" width="40.000000" height="40.000000" fill="#000000" fill-opacity="0.047059"/>
	<g opacity="0.000000">
		<rect x="11.000000" y="11.034180" width="18.000000" height="18.055901" fill="#000000" fill-opacity="1.000000"/>
	</g>
	<path d="M18.13 24.72C18.55 24.72 18.92 24.57 19.22 24.27L27.14 16.36C27.25 16.25 27.31 16.12 27.31 15.96C27.31 15.8 27.25 15.67 27.14 15.57C27.03 15.45 26.9 15.39 26.74 15.39C26.59 15.39 26.45 15.45 26.33 15.57L18.41 23.47C18.33 23.56 18.23 23.6 18.13 23.6C18.04 23.6 17.94 23.56 17.83 23.47L13.64 19.3C13.53 19.19 13.4 19.13 13.24 19.13C13.09 19.13 12.96 19.19 12.85 19.3C12.73 19.42 12.67 19.55 12.67 19.7C12.67 19.84 12.73 19.97 12.85 20.09L17.05 24.27C17.33 24.57 17.69 24.72 18.13 24.72Z" fill="#191919" fill-opacity="1.000000" fill-rule="nonzero"/>
</svg>
