<svg width="80.000000" height="80.000000" viewBox="0 0 80 80" fill="none" xmlns="http://www.w3.org/2000/svg" xmlns:xlink="http://www.w3.org/1999/xlink">
	<desc>
			Created with Pixso.
	</desc>
	<defs>
		<clipPath id="clip149_9582">
			<rect width="80.000000" height="80.000000" fill="white" fill-opacity="0"/>
		</clipPath>
	</defs>
	<g clip-path="url(#clip149_9582)">
		<g opacity="0.200000">
			<path d="M5.33 15.39C5.33 14.29 6.38 14.07 7 14.22C7.42 14.32 12.42 16.08 22.02 19.52L22.02 28.6C21.41 28.48 20.78 28.41 20.14 28.41C15.18 28.41 11.15 32.3 11.15 37.09C11.15 41.89 16.57 51.53 20.13 51.53C20.72 51.53 21.36 51.26 22.02 50.8L22.02 66.29L6.62 59.38C5.76 59.07 5.33 58.46 5.33 57.54L5.33 15.39ZM20.46 33.55C21.02 33.55 21.55 33.68 22.02 33.91L22.02 40.25C21.55 40.48 21.02 40.61 20.46 40.61C18.51 40.61 16.93 39.03 16.93 37.08C16.93 35.13 18.51 33.55 20.46 33.55Z" fill="#A1A7B3" fill-opacity="1.000000" fill-rule="evenodd"/>
			<path d="M7 14.22C7.42 14.32 12.42 16.08 22.02 19.52L22.02 28.6C21.41 28.48 20.78 28.41 20.14 28.41C15.18 28.41 11.15 32.3 11.15 37.09C11.15 41.89 16.57 51.53 20.13 51.53C20.72 51.53 21.36 51.26 22.02 50.8L22.02 66.29L6.62 59.38C5.76 59.07 5.33 58.46 5.33 57.54L5.33 15.39C5.33 14.29 6.38 14.07 7 14.22ZM22.02 33.91L22.02 40.25C21.55 40.48 21.02 40.61 20.46 40.61C18.51 40.61 16.93 39.03 16.93 37.08C16.93 35.13 18.51 33.55 20.46 33.55C21.02 33.55 21.55 33.68 22.02 33.91Z" stroke="#000000" stroke-opacity="0" stroke-width="1.000000"/>
		</g>
		<g opacity="0.800000">
			<path d="M20.14 28.41C25.1 28.41 29.13 32.3 29.13 37.09C29.13 41.89 23.69 51.53 20.13 51.53C16.57 51.53 11.15 41.89 11.15 37.09C11.15 32.3 15.18 28.41 20.14 28.41ZM20.46 33.55C18.51 33.55 16.93 35.13 16.93 37.08C16.93 39.03 18.51 40.61 20.46 40.61C22.41 40.61 23.99 39.03 23.99 37.08C23.99 35.13 22.41 33.55 20.46 33.55Z" fill="#A1A7B3" fill-opacity="1.000000" fill-rule="evenodd"/>
			<path d="M29.13 37.09C29.13 41.89 23.69 51.53 20.13 51.53C16.57 51.53 11.15 41.89 11.15 37.09C11.15 32.3 15.18 28.41 20.14 28.41C25.1 28.41 29.13 32.3 29.13 37.09ZM16.93 37.08C16.93 39.03 18.51 40.61 20.46 40.61C22.41 40.61 23.99 39.03 23.99 37.08C23.99 35.13 22.41 33.55 20.46 33.55C18.51 33.55 16.93 35.13 16.93 37.08Z" stroke="#000000" stroke-opacity="0" stroke-width="1.000000"/>
		</g>
		<g opacity="0.400000">
			<path d="M72.09 15.39L72.09 22.19L59.78 28.18L63.92 29.46L66.71 32.48L67.76 30.8L71.44 31.81L72.09 28.73L72.09 57.54C72.09 58.46 71.66 59.07 70.81 59.38L55.4 66.29L55.4 19.52C65 16.08 70.01 14.32 70.42 14.22C71.04 14.07 72.09 14.29 72.09 15.39Z" fill="#A1A7B3" fill-opacity="1.000000" fill-rule="evenodd"/>
			<path d="M72.09 22.19L59.78 28.18L63.92 29.46L66.71 32.48L67.76 30.8L71.44 31.81L72.09 28.73L72.09 57.54C72.09 58.46 71.66 59.07 70.81 59.38L55.4 66.29L55.4 19.52C65 16.08 70.01 14.32 70.42 14.22C71.04 14.07 72.09 14.29 72.09 15.39L72.09 22.19Z" stroke="#000000" stroke-opacity="0" stroke-width="1.000000"/>
		</g>
		<g opacity="0.400000">
			<path d="M38.71 13.65L38.71 58.8L22.02 66.29L22.02 50.8C25.34 48.46 29.13 41.09 29.13 37.09C29.13 32.92 26.08 29.44 22.02 28.6L22.02 19.52L38.71 13.65ZM22.02 33.91C23.19 34.49 23.99 35.69 23.99 37.08C23.99 38.47 23.19 39.67 22.02 40.25L22.02 33.91Z" fill="#A1A7B3" fill-opacity="1.000000" fill-rule="evenodd"/>
			<path d="M38.71 58.8L22.02 66.29L22.02 50.8C25.34 48.46 29.13 41.09 29.13 37.09C29.13 32.92 26.08 29.44 22.02 28.6L22.02 19.52L38.71 13.65L38.71 58.8ZM23.99 37.08C23.99 38.47 23.19 39.67 22.02 40.25L22.02 33.91C23.19 34.49 23.99 35.69 23.99 37.08Z" stroke="#000000" stroke-opacity="0" stroke-width="1.000000"/>
		</g>
		<g opacity="0.200000">
			<path d="M38.71 13.65L38.71 58.8L55.4 66.29L55.4 19.52L38.71 13.65Z" fill="#A1A7B3" fill-opacity="1.000000" fill-rule="evenodd"/>
			<path d="M38.71 58.8L55.4 66.29L55.4 19.52L38.71 13.65L38.71 58.8Z" stroke="#000000" stroke-opacity="0" stroke-width="1.000000"/>
		</g>
		<g opacity="0.800000">
			<path d="M66.71 32.48L67.76 30.8L66.27 30.39L66.71 32.48Z" fill="#A1A7B3" fill-opacity="1.000000" fill-rule="evenodd"/>
			<path d="M67.76 30.8L66.27 30.39L66.71 32.48L67.76 30.8Z" stroke="#000000" stroke-opacity="0" stroke-width="1.000000"/>
		</g>
		<g opacity="0.700000">
			<path d="M73.64 21.44L71.44 31.81L66.27 30.38L73.64 21.44Z" fill="#A1A7B3" fill-opacity="1.000000" fill-rule="evenodd"/>
			<path d="M71.44 31.81L66.27 30.38L73.64 21.44L71.44 31.81Z" stroke="#000000" stroke-opacity="0" stroke-width="1.000000"/>
		</g>
		<g opacity="0.700000">
			<path d="M73.64 21.44L63.92 29.46L59.78 28.18L73.64 21.44Z" fill="#A1A7B3" fill-opacity="1.000000" fill-rule="evenodd"/>
			<path d="M63.92 29.46L59.78 28.18L73.64 21.44L63.92 29.46Z" stroke="#000000" stroke-opacity="0" stroke-width="1.000000"/>
		</g>
		<g opacity="0.500000">
			<path d="M73.64 21.44L66.27 30.38L66.71 32.48L63.92 29.46L73.64 21.44Z" fill="#A1A7B3" fill-opacity="1.000000" fill-rule="evenodd"/>
			<path d="M66.27 30.38L66.71 32.48L63.92 29.46L73.64 21.44L66.27 30.38Z" stroke="#000000" stroke-opacity="0" stroke-width="1.000000"/>
		</g>
		<g opacity="0.200000">
			<path d="M65.82 31.52L66.71 32.48L66.27 30.39L73.62 21.46C73.26 21.85 73.07 22.06 73.04 22.1C73.01 22.13 70.49 24.79 65.46 30.07L65.82 31.52Z" fill="#A1A7B3" fill-opacity="1.000000" fill-rule="evenodd"/>
			<path d="M66.71 32.48L66.27 30.39L73.62 21.46C73.26 21.85 73.07 22.06 73.04 22.1C73.01 22.13 70.49 24.79 65.46 30.07L65.82 31.52L66.71 32.48Z" stroke="#000000" stroke-opacity="0" stroke-width="1.000000"/>
		</g>
		<g opacity="0.600000">
			<ellipse cx="20.089500" cy="54.278076" rx="3.842580" ry="1.104655" fill="#A1A7B3" fill-opacity="1.000000"/>
			<ellipse cx="20.089500" cy="54.278076" rx="3.842580" ry="1.104655" stroke="#000000" stroke-opacity="0" stroke-width="1.000000"/>
		</g>
		<g opacity="0.200000">
			<path d="M17.46 58.83C18.09 58.97 18.73 59.08 19.37 59.17C19.55 59.2 19.71 59.08 19.74 58.9C19.76 58.73 19.64 58.56 19.47 58.54C18.83 58.45 18.21 58.33 17.6 58.2C17.42 58.16 17.25 58.27 17.21 58.44C17.17 58.62 17.28 58.79 17.46 58.83ZM21.32 59.38C21.96 59.43 22.61 59.45 23.26 59.45C23.44 59.46 23.58 59.31 23.58 59.13C23.59 58.96 23.44 58.81 23.27 58.81C22.62 58.81 21.99 58.79 21.36 58.74C21.18 58.73 21.03 58.86 21.02 59.04C21.01 59.22 21.14 59.37 21.32 59.38ZM25.23 59.4C25.87 59.36 26.51 59.31 27.16 59.23C27.34 59.21 27.47 59.05 27.45 58.88C27.43 58.7 27.27 58.57 27.09 58.59C26.45 58.67 25.82 58.72 25.19 58.76C25.01 58.77 24.88 58.92 24.89 59.1C24.9 59.28 25.05 59.41 25.23 59.4ZM29.08 58.96C29.71 58.85 30.34 58.73 30.99 58.59C31.16 58.55 31.27 58.38 31.23 58.21C31.19 58.04 31.02 57.93 30.85 57.96C30.22 58.1 29.59 58.22 28.97 58.33C28.8 58.36 28.68 58.52 28.71 58.7C28.74 58.87 28.91 58.99 29.08 58.96ZM32.89 58.13C33.22 58.04 33.56 57.95 33.9 57.85C34.21 57.76 34.5 57.67 34.76 57.59C34.93 57.53 35.02 57.35 34.97 57.18C34.91 57.01 34.73 56.92 34.56 56.98C34.3 57.06 34.02 57.15 33.72 57.24C33.39 57.33 33.05 57.42 32.73 57.51C32.55 57.56 32.45 57.73 32.5 57.9C32.54 58.07 32.72 58.18 32.89 58.13ZM36.6 56.8C37.62 56.2 37.85 55.49 37.33 54.76C37.22 54.62 37.02 54.59 36.88 54.69C36.73 54.8 36.7 55 36.81 55.14C37.09 55.53 36.99 55.82 36.27 56.25C36.12 56.34 36.07 56.54 36.16 56.69C36.25 56.84 36.45 56.89 36.6 56.8ZM35.73 53.46L35.12 53.06L34.9 52.91L34.71 52.78C34.68 52.75 34.65 52.73 34.62 52.71L34.47 52.6C34.42 52.56 34.38 52.52 34.33 52.48L34.21 52.37C34.08 52.25 33.87 52.26 33.75 52.39C33.63 52.52 33.64 52.72 33.77 52.84L33.91 52.97C33.96 53.01 34.01 53.05 34.06 53.09L34.23 53.22L34.41 53.35L34.63 53.5L35.02 53.76L35.38 54C35.53 54.1 35.73 54.05 35.82 53.91C35.92 53.76 35.88 53.56 35.73 53.46ZM33.97 51.15C34.35 50.79 34.9 50.46 35.51 50.28C35.68 50.23 35.77 50.06 35.72 49.89C35.67 49.72 35.49 49.62 35.32 49.67C34.63 49.88 34.05 50.19 33.59 50.62L33.51 50.7C33.38 50.83 33.39 51.03 33.52 51.16C33.64 51.28 33.85 51.27 33.97 51.15ZM37.34 49.99C37.89 49.96 38.51 49.95 39.23 49.97C39.41 49.97 39.56 49.84 39.56 49.66C39.57 49.48 39.43 49.33 39.25 49.33C38.5 49.31 37.87 49.31 37.29 49.35C37.12 49.36 36.98 49.51 36.99 49.69C37.01 49.87 37.16 50 37.34 49.99ZM41.19 50.06L43.11 50.18C43.29 50.19 43.44 50.05 43.45 49.87C43.46 49.7 43.32 49.55 43.15 49.54L41.23 49.42C41.05 49.41 40.9 49.54 40.89 49.72C40.88 49.9 41.01 50.05 41.19 50.06ZM45.01 50.27C45.69 50.29 46.32 50.3 46.95 50.3C47.12 50.3 47.27 50.16 47.27 49.98C47.27 49.8 47.12 49.66 46.94 49.66C46.33 49.66 45.7 49.65 45.03 49.63C44.85 49.62 44.71 49.76 44.7 49.93C44.69 50.11 44.83 50.26 45.01 50.27ZM48.91 50.24C49.57 50.21 50.21 50.15 50.85 50.08C51.02 50.05 51.15 49.89 51.13 49.72C51.1 49.54 50.94 49.42 50.77 49.44C50.15 49.51 49.52 49.57 48.87 49.6C48.69 49.61 48.56 49.77 48.57 49.94C48.58 50.12 48.73 50.25 48.91 50.24ZM52.8 49.77C53.44 49.64 54.07 49.49 54.7 49.31C54.87 49.26 54.96 49.08 54.92 48.91C54.87 48.74 54.69 48.64 54.52 48.69C53.91 48.87 53.3 49.01 52.67 49.14C52.5 49.17 52.39 49.34 52.42 49.52C52.45 49.69 52.62 49.8 52.8 49.77ZM56.54 48.68C57.48 48.27 58 47.78 58.12 47.18C58.15 47.01 58.04 46.84 57.86 46.8C57.69 46.77 57.52 46.88 57.49 47.06C57.42 47.41 57.05 47.76 56.28 48.09C56.12 48.17 56.04 48.36 56.11 48.52C56.18 48.68 56.37 48.75 56.54 48.68ZM57.27 45.15L57.09 44.94L56.88 44.71L56.45 44.27L55.93 43.74C55.81 43.61 55.61 43.61 55.48 43.73C55.35 43.85 55.35 44.06 55.47 44.18L56.17 44.9L56.4 45.15L56.6 45.37L56.78 45.57C56.9 45.7 57.1 45.72 57.23 45.61C57.37 45.49 57.38 45.29 57.27 45.15ZM54.68 42.33C54.45 42.03 54.26 41.75 54.1 41.48C53.97 41.25 53.9 41.02 53.89 40.79C53.88 40.62 53.73 40.48 53.55 40.49C53.38 40.5 53.24 40.65 53.25 40.83C53.27 41.16 53.36 41.48 53.54 41.79C53.71 42.1 53.92 42.4 54.17 42.72C54.28 42.86 54.48 42.89 54.62 42.78C54.76 42.67 54.79 42.47 54.68 42.33ZM54.55 39.25C54.88 38.85 55.34 38.44 55.92 38.01C56.07 37.9 56.1 37.7 55.99 37.56C55.89 37.42 55.69 37.39 55.54 37.49C54.92 37.95 54.43 38.39 54.06 38.83C53.94 38.97 53.96 39.17 54.1 39.29C54.23 39.4 54.43 39.38 54.55 39.25ZM57.5 36.99C58.01 36.69 58.57 36.39 59.19 36.09C59.34 36.01 59.41 35.82 59.33 35.66C59.25 35.5 59.06 35.44 58.9 35.51C58.27 35.82 57.7 36.13 57.18 36.43C57.03 36.52 56.98 36.72 57.07 36.87C57.16 37.02 57.35 37.08 57.5 36.99ZM60.94 35.26C61.5 35.01 62.09 34.76 62.71 34.51C62.87 34.44 62.95 34.26 62.88 34.09C62.82 33.93 62.63 33.85 62.46 33.92C61.84 34.17 61.25 34.43 60.68 34.68C60.52 34.75 60.45 34.94 60.52 35.1C60.59 35.26 60.78 35.33 60.94 35.26Z" fill="#A1A7B3" fill-opacity="1.000000" fill-rule="evenodd"/>
			<path d="M19.37 59.17C19.55 59.2 19.71 59.08 19.74 58.9C19.76 58.73 19.64 58.56 19.47 58.54C18.83 58.45 18.21 58.33 17.6 58.2C17.42 58.16 17.25 58.27 17.21 58.44C17.17 58.62 17.28 58.79 17.46 58.83C18.09 58.97 18.73 59.08 19.37 59.17ZM23.26 59.45C23.44 59.46 23.58 59.31 23.58 59.13C23.59 58.96 23.44 58.81 23.27 58.81C22.62 58.81 21.99 58.79 21.36 58.74C21.18 58.73 21.03 58.86 21.02 59.04C21.01 59.22 21.14 59.37 21.32 59.38C21.96 59.43 22.61 59.45 23.26 59.45ZM27.16 59.23C27.34 59.21 27.47 59.05 27.45 58.88C27.43 58.7 27.27 58.57 27.09 58.59C26.45 58.67 25.82 58.72 25.19 58.76C25.01 58.77 24.88 58.92 24.89 59.1C24.9 59.28 25.05 59.41 25.23 59.4C25.87 59.36 26.51 59.31 27.16 59.23ZM30.99 58.59C31.16 58.55 31.27 58.38 31.23 58.21C31.19 58.04 31.02 57.93 30.85 57.96C30.22 58.1 29.59 58.22 28.97 58.33C28.8 58.36 28.68 58.52 28.71 58.7C28.74 58.87 28.91 58.99 29.08 58.96C29.71 58.85 30.34 58.73 30.99 58.59ZM33.9 57.85C34.21 57.76 34.5 57.67 34.76 57.59C34.93 57.53 35.02 57.35 34.97 57.18C34.91 57.01 34.73 56.92 34.56 56.98C34.3 57.06 34.02 57.15 33.72 57.24C33.39 57.33 33.05 57.42 32.73 57.51C32.55 57.56 32.45 57.73 32.5 57.9C32.54 58.07 32.72 58.18 32.89 58.13C33.22 58.04 33.56 57.95 33.9 57.85ZM37.33 54.76C37.22 54.62 37.02 54.59 36.88 54.69C36.73 54.8 36.7 55 36.81 55.14C37.09 55.53 36.99 55.82 36.27 56.25C36.12 56.34 36.07 56.54 36.16 56.69C36.25 56.84 36.45 56.89 36.6 56.8C37.62 56.2 37.85 55.49 37.33 54.76ZM35.12 53.06L34.9 52.91L34.71 52.78C34.68 52.75 34.65 52.73 34.62 52.71L34.47 52.6C34.42 52.56 34.38 52.52 34.33 52.48L34.21 52.37C34.08 52.25 33.87 52.26 33.75 52.39C33.63 52.52 33.64 52.72 33.77 52.84L33.91 52.97C33.96 53.01 34.01 53.05 34.06 53.09L34.23 53.22L34.41 53.35L34.63 53.5L35.02 53.76L35.38 54C35.53 54.1 35.73 54.05 35.82 53.91C35.92 53.76 35.88 53.56 35.73 53.46L35.12 53.06ZM35.51 50.28C35.68 50.23 35.77 50.06 35.72 49.89C35.67 49.72 35.49 49.62 35.32 49.67C34.63 49.88 34.05 50.19 33.59 50.62L33.51 50.7C33.38 50.83 33.39 51.03 33.52 51.16C33.64 51.28 33.85 51.27 33.97 51.15C34.35 50.79 34.9 50.46 35.51 50.28ZM39.23 49.97C39.41 49.97 39.56 49.84 39.56 49.66C39.57 49.48 39.43 49.33 39.25 49.33C38.5 49.31 37.87 49.31 37.29 49.35C37.12 49.36 36.98 49.51 36.99 49.69C37.01 49.87 37.16 50 37.34 49.99C37.89 49.96 38.51 49.95 39.23 49.97ZM43.11 50.18C43.29 50.19 43.44 50.05 43.45 49.87C43.46 49.7 43.32 49.55 43.15 49.54L41.23 49.42C41.05 49.41 40.9 49.54 40.89 49.72C40.88 49.9 41.01 50.05 41.19 50.06L43.11 50.18ZM46.95 50.3C47.12 50.3 47.27 50.16 47.27 49.98C47.27 49.8 47.12 49.66 46.94 49.66C46.33 49.66 45.7 49.65 45.03 49.63C44.85 49.62 44.71 49.76 44.7 49.93C44.69 50.11 44.83 50.26 45.01 50.27C45.69 50.29 46.32 50.3 46.95 50.3ZM50.85 50.08C51.02 50.05 51.15 49.89 51.13 49.72C51.1 49.54 50.94 49.42 50.77 49.44C50.15 49.51 49.52 49.57 48.87 49.6C48.69 49.61 48.56 49.77 48.57 49.94C48.58 50.12 48.73 50.25 48.91 50.24C49.57 50.21 50.21 50.15 50.85 50.08ZM54.7 49.31C54.87 49.26 54.96 49.08 54.92 48.91C54.87 48.74 54.69 48.64 54.52 48.69C53.91 48.87 53.3 49.01 52.67 49.14C52.5 49.17 52.39 49.34 52.42 49.52C52.45 49.69 52.62 49.8 52.8 49.77C53.44 49.64 54.07 49.49 54.7 49.31ZM58.12 47.18C58.15 47.01 58.04 46.84 57.86 46.8C57.69 46.77 57.52 46.88 57.49 47.06C57.42 47.41 57.05 47.76 56.28 48.09C56.12 48.17 56.04 48.36 56.11 48.52C56.18 48.68 56.37 48.75 56.54 48.68C57.48 48.27 58 47.78 58.12 47.18ZM57.09 44.94L56.88 44.71L56.45 44.27L55.93 43.74C55.81 43.61 55.61 43.61 55.48 43.73C55.35 43.85 55.35 44.06 55.47 44.18L56.17 44.9L56.4 45.15L56.6 45.37L56.78 45.57C56.9 45.7 57.1 45.72 57.23 45.61C57.37 45.49 57.38 45.29 57.27 45.15L57.09 44.94ZM54.1 41.48C53.97 41.25 53.9 41.02 53.89 40.79C53.88 40.62 53.73 40.48 53.55 40.49C53.38 40.5 53.24 40.65 53.25 40.83C53.27 41.16 53.36 41.48 53.54 41.79C53.71 42.1 53.92 42.4 54.17 42.72C54.28 42.86 54.48 42.89 54.62 42.78C54.76 42.67 54.79 42.47 54.68 42.33C54.45 42.03 54.26 41.75 54.1 41.48ZM55.92 38.01C56.07 37.9 56.1 37.7 55.99 37.56C55.89 37.42 55.69 37.39 55.54 37.49C54.92 37.95 54.43 38.39 54.06 38.83C53.94 38.97 53.96 39.17 54.1 39.29C54.23 39.4 54.43 39.38 54.55 39.25C54.88 38.85 55.34 38.44 55.92 38.01ZM59.19 36.09C59.34 36.01 59.41 35.82 59.33 35.66C59.25 35.5 59.06 35.44 58.9 35.51C58.27 35.82 57.7 36.13 57.18 36.43C57.03 36.52 56.98 36.72 57.07 36.87C57.16 37.02 57.35 37.08 57.5 36.99C58.01 36.69 58.57 36.39 59.19 36.09ZM62.71 34.51C62.87 34.44 62.95 34.26 62.88 34.09C62.82 33.93 62.63 33.85 62.46 33.92C61.84 34.17 61.25 34.43 60.68 34.68C60.52 34.75 60.45 34.94 60.52 35.1C60.59 35.26 60.78 35.33 60.94 35.26C61.5 35.01 62.09 34.76 62.71 34.51Z" stroke="#000000" stroke-opacity="0" stroke-width="1.000000"/>
		</g>
		<g opacity="0.150000">
			<ellipse cx="40.333336" cy="70.118652" rx="16.333334" ry="1.451854" fill="#A1A7B3" fill-opacity="1.000000"/>
			<ellipse cx="40.333336" cy="70.118652" rx="16.333334" ry="1.451854" stroke="#000000" stroke-opacity="0" stroke-width="1.000000"/>
		</g>
	</g>
</svg>
