<svg width="39.999969" height="40.000000" viewBox="0 0 40 40" fill="none" xmlns="http://www.w3.org/2000/svg" xmlns:xlink="http://www.w3.org/1999/xlink">
	<desc>
			Created with Pixso.
	</desc>
	<defs/>
	<path d="M20 0C31.04 0 40 8.95 40 20C40 31.04 31.04 40 20 40C8.95 40 0 31.04 0 20C0 8.95 8.95 0 20 0ZM4 20C4 20.37 4.01 20.74 4.03 21.11C4.06 21.48 4.1 21.85 4.15 22.22C4.2 22.59 4.27 22.95 4.34 23.32C4.42 23.68 4.51 24.04 4.61 24.4C4.72 24.76 4.83 25.11 4.96 25.46C5.08 25.81 5.22 26.15 5.37 26.49C5.53 26.83 5.69 27.17 5.86 27.5C6.04 27.83 6.22 28.15 6.42 28.46C6.62 28.78 6.82 29.09 7.04 29.39C7.26 29.69 7.49 29.98 7.73 30.27C7.97 30.55 8.22 30.83 8.47 31.1C8.73 31.36 9 31.62 9.27 31.87C9.55 32.12 9.84 32.36 10.13 32.59C10.42 32.82 10.72 33.04 11.03 33.25C11.34 33.46 11.65 33.65 11.97 33.84C12.3 34.03 12.62 34.2 12.96 34.36C13.29 34.53 13.63 34.68 13.98 34.82C14.32 34.96 14.67 35.09 15.02 35.2C15.38 35.32 15.73 35.42 16.09 35.51C16.46 35.6 16.82 35.68 17.18 35.75C17.55 35.81 17.92 35.86 18.29 35.9C18.66 35.94 19.03 35.97 19.4 35.98C19.77 36 20.14 36 20.52 35.99C20.89 35.97 21.26 35.95 21.63 35.91C22 35.87 22.37 35.82 22.73 35.76C23.1 35.7 23.46 35.62 23.83 35.53C24.19 35.44 24.54 35.34 24.9 35.23C25.25 35.11 25.6 34.99 25.95 34.85C26.29 34.71 26.63 34.56 26.97 34.4C27.3 34.23 27.63 34.06 27.95 33.88C28.28 33.69 28.59 33.49 28.9 33.29C29.21 33.08 29.51 32.86 29.81 32.63L7.35 10.19C6.81 10.88 6.33 11.62 5.91 12.39C5.49 13.17 5.14 13.98 4.85 14.81C4.57 15.64 4.35 16.5 4.21 17.37C4.07 18.24 3.99 19.11 4 20ZM20 4C16.3 4 12.9 5.25 10.18 7.36L32.64 29.81C32.87 29.51 33.08 29.21 33.29 28.9C33.5 28.59 33.69 28.28 33.88 27.95C34.06 27.63 34.24 27.3 34.4 26.97C34.56 26.63 34.71 26.29 34.85 25.95C34.99 25.6 35.11 25.25 35.23 24.9C35.34 24.54 35.44 24.19 35.53 23.82C35.62 23.46 35.7 23.1 35.76 22.73C35.82 22.37 35.88 22 35.91 21.63C35.95 21.26 35.98 20.89 35.99 20.52C36 20.14 36 19.77 35.99 19.4C35.97 19.03 35.95 18.66 35.91 18.29C35.87 17.92 35.81 17.55 35.75 17.18C35.68 16.82 35.61 16.45 35.51 16.09C35.42 15.73 35.32 15.38 35.2 15.02C35.09 14.67 34.96 14.32 34.82 13.98C34.68 13.63 34.53 13.29 34.37 12.96C34.2 12.62 34.03 12.3 33.84 11.97C33.65 11.65 33.46 11.34 33.25 11.03C33.04 10.72 32.82 10.42 32.59 10.13C32.36 9.83 32.12 9.55 31.87 9.27C31.63 9 31.37 8.73 31.1 8.47C30.83 8.21 30.55 7.97 30.27 7.73C29.98 7.49 29.69 7.26 29.39 7.04C29.09 6.82 28.78 6.62 28.46 6.42C28.15 6.22 27.83 6.04 27.5 5.86C27.17 5.69 26.84 5.53 26.5 5.37C26.16 5.22 25.81 5.08 25.46 4.96C25.11 4.83 24.76 4.72 24.4 4.61C24.04 4.51 23.68 4.42 23.32 4.34C22.95 4.27 22.59 4.2 22.22 4.15C21.85 4.1 21.48 4.06 21.11 4.03C20.74 4.01 20.37 4 20 4Z" fill="#E84026" fill-opacity="1.000000" fill-rule="nonzero"/>
</svg>
