<svg width="40.000061" height="40.000061" viewBox="0 0 40.0001 40.0001" fill="none" xmlns="http://www.w3.org/2000/svg"
     xmlns:xlink="http://www.w3.org/1999/xlink">
    <desc>
        Created with Pixso.
    </desc>
    <defs/>
    <g opacity="0.500000">
        <circle cx="20.000000" cy="20.000031" r="20.000031" fill="#999999" fill-opacity="1.000000"/>
    </g>
    <path d="M26.09 14.36C26.45 14.72 26.48 15.29 26.16 15.69L26.09 15.77L21.14 20.72L26.09 25.67C26.48 26.06 26.48 26.7 26.09 27.09C25.72 27.45 25.15 27.48 24.76 27.16L24.67 27.09L19.72 22.14L14.77 27.09C14.38 27.48 13.75 27.48 13.36 27.09C13 26.72 12.97 26.15 13.28 25.76L13.36 25.67L18.31 20.72L13.36 15.77C12.97 15.38 12.97 14.75 13.36 14.36C13.72 14 14.29 13.97 14.69 14.28L14.77 14.36L19.72 19.31L24.67 14.36C25.06 13.97 25.7 13.97 26.09 14.36Z"
          fill="#FFFFFF" fill-opacity="1.000000" fill-rule="evenodd"/>
</svg>
