<svg width="34.000000" height="34.000000" viewBox="0 0 34 34" fill="none" xmlns="http://www.w3.org/2000/svg" xmlns:xlink="http://www.w3.org/1999/xlink">
	<desc>
			Created with Pixso.
	</desc>
	<defs/>
	<rect id="画板 19" width="32.000000" height="32.000000" transform="translate(1.000000 1.000000)" fill="#FFFFFF" fill-opacity="0"/>
	<circle id="椭圆 9" cx="17.000000" cy="17.000000" r="16.000000" fill="#DDE9FF" fill-opacity="1.000000"/>
	<circle id="椭圆 9" cx="17.000000" cy="17.000000" r="16.500000" stroke="#FFFFFF" stroke-opacity="1.000000" stroke-width="1.000000" style=""/>
	<path id="path" d="M16.99 8.27C11.64 8.27 7.3 12.61 7.3 17.96L7.3 20.87C7.3 20.94 7.3 21 7.32 21.06C7.33 21.13 7.35 21.19 7.37 21.24C7.4 21.3 7.43 21.36 7.46 21.41C7.5 21.47 7.54 21.51 7.58 21.56C7.63 21.6 7.68 21.64 7.73 21.68C7.78 21.72 7.84 21.75 7.9 21.77C7.96 21.79 8.02 21.81 8.08 21.82C8.14 21.84 8.2 21.84 8.27 21.84L8.27 22.33C8.27 22.38 8.27 22.42 8.27 22.47C8.28 22.52 8.29 22.57 8.3 22.61C8.31 22.66 8.32 22.7 8.33 22.75C8.34 22.8 8.36 22.84 8.38 22.88C8.4 22.93 8.42 22.97 8.44 23.01C8.46 23.06 8.49 23.1 8.51 23.14C8.54 23.18 8.57 23.21 8.6 23.25C8.63 23.29 8.66 23.32 8.69 23.36C8.73 23.39 8.76 23.42 8.8 23.45C8.84 23.48 8.87 23.51 8.91 23.54C8.95 23.56 8.99 23.59 9.04 23.61C9.08 23.63 9.12 23.65 9.17 23.67C9.21 23.69 9.25 23.71 9.3 23.72C9.35 23.73 9.39 23.75 9.44 23.75C9.49 23.76 9.53 23.77 9.58 23.78C9.63 23.78 9.67 23.78 9.72 23.78C9.77 23.78 9.82 23.78 9.86 23.78C9.91 23.77 9.96 23.76 10.01 23.75C10.05 23.75 10.1 23.73 10.14 23.72C10.19 23.71 10.23 23.69 10.28 23.67C10.32 23.65 10.37 23.63 10.41 23.61C10.45 23.59 10.49 23.56 10.53 23.54C10.57 23.51 10.61 23.48 10.64 23.45C10.68 23.42 10.72 23.39 10.75 23.36C10.78 23.32 10.82 23.29 10.85 23.25C10.88 23.21 10.91 23.18 10.93 23.14C10.96 23.1 10.98 23.06 11 23.01C11.03 22.97 11.05 22.93 11.07 22.88C11.08 22.84 11.1 22.8 11.11 22.75C11.13 22.7 11.14 22.66 11.15 22.61C11.16 22.57 11.17 22.52 11.17 22.47C11.17 22.42 11.18 22.38 11.18 22.33L11.18 19.42C11.18 19.36 11.17 19.3 11.17 19.25C11.16 19.19 11.15 19.13 11.14 19.08C11.12 19.02 11.11 18.96 11.08 18.91C11.06 18.85 11.04 18.8 11.01 18.75C10.99 18.7 10.96 18.65 10.93 18.6C10.89 18.55 10.86 18.51 10.82 18.46C10.78 18.42 10.74 18.38 10.7 18.34C10.65 18.3 10.61 18.26 10.56 18.23C10.52 18.2 10.47 18.17 10.41 18.14C10.36 18.11 10.31 18.09 10.26 18.07C10.2 18.04 10.15 18.03 10.09 18.01C10.04 18 9.98 17.99 9.92 17.98C9.86 17.97 9.81 17.97 9.75 17.96C9.69 17.96 9.63 17.97 9.58 17.97C9.52 17.98 9.46 17.99 9.4 18C9.35 18.01 9.29 18.03 9.24 18.05L9.24 17.96C9.24 17.84 9.24 17.71 9.25 17.58C9.25 17.46 9.26 17.33 9.27 17.2C9.29 17.08 9.3 16.95 9.32 16.83C9.34 16.7 9.36 16.58 9.39 16.45C9.41 16.33 9.44 16.2 9.47 16.08C9.5 15.96 9.53 15.83 9.57 15.71C9.61 15.59 9.65 15.47 9.69 15.35C9.73 15.23 9.78 15.11 9.83 15C9.88 14.88 9.93 14.76 9.98 14.65C10.04 14.53 10.09 14.42 10.15 14.31C10.21 14.2 10.28 14.09 10.34 13.98C10.41 13.87 10.47 13.76 10.54 13.65C10.62 13.55 10.69 13.45 10.76 13.34C10.84 13.24 10.92 13.14 11 13.04C11.08 12.95 11.16 12.85 11.25 12.76C11.33 12.66 11.42 12.57 11.51 12.48C11.6 12.39 11.69 12.3 11.79 12.22C11.88 12.13 11.98 12.05 12.07 11.97C12.17 11.89 12.27 11.81 12.37 11.73C12.48 11.66 12.58 11.59 12.69 11.51C12.79 11.44 12.9 11.38 13.01 11.31C13.12 11.25 13.23 11.18 13.34 11.12C13.45 11.06 13.56 11.01 13.68 10.95C13.79 10.9 13.91 10.85 14.03 10.8C14.14 10.75 14.26 10.7 14.38 10.66C14.5 10.62 14.62 10.58 14.74 10.54C14.86 10.5 14.99 10.47 15.11 10.44C15.23 10.41 15.36 10.38 15.48 10.36C15.61 10.33 15.73 10.31 15.86 10.29C15.98 10.27 16.11 10.26 16.23 10.24C16.36 10.23 16.49 10.22 16.61 10.22C16.74 10.21 16.87 10.21 16.99 10.21C17.12 10.21 17.25 10.21 17.38 10.22C17.5 10.22 17.63 10.23 17.76 10.24C17.88 10.26 18.01 10.27 18.13 10.29C18.26 10.31 18.38 10.33 18.51 10.36C18.63 10.38 18.76 10.41 18.88 10.44C19 10.47 19.13 10.5 19.25 10.54C19.37 10.58 19.49 10.62 19.61 10.66C19.73 10.7 19.85 10.75 19.96 10.8C20.08 10.85 20.2 10.9 20.31 10.95C20.43 11.01 20.54 11.06 20.65 11.12C20.76 11.18 20.87 11.25 20.98 11.31C21.09 11.38 21.2 11.44 21.3 11.51C21.41 11.59 21.51 11.66 21.62 11.73C21.72 11.81 21.82 11.89 21.92 11.97C22.01 12.05 22.11 12.13 22.2 12.22C22.3 12.3 22.39 12.39 22.48 12.48C22.57 12.57 22.66 12.66 22.74 12.76C22.83 12.85 22.91 12.95 22.99 13.04C23.07 13.14 23.15 13.24 23.23 13.34C23.3 13.45 23.37 13.55 23.45 13.65C23.52 13.76 23.58 13.87 23.65 13.98C23.71 14.09 23.78 14.2 23.84 14.31C23.9 14.42 23.95 14.53 24.01 14.65C24.06 14.76 24.11 14.88 24.16 15C24.21 15.11 24.26 15.23 24.3 15.35C24.34 15.47 24.38 15.59 24.42 15.71C24.46 15.83 24.49 15.96 24.52 16.08C24.55 16.2 24.58 16.33 24.6 16.45C24.63 16.58 24.65 16.7 24.67 16.83C24.69 16.95 24.7 17.08 24.72 17.2C24.73 17.33 24.74 17.46 24.74 17.58C24.75 17.71 24.75 17.84 24.75 17.96L24.75 18.05C24.7 18.03 24.64 18.01 24.59 18C24.53 17.99 24.47 17.98 24.41 17.97C24.36 17.97 24.3 17.96 24.24 17.96C24.18 17.97 24.13 17.97 24.07 17.98C24.01 17.99 23.95 18 23.9 18.01C23.84 18.03 23.79 18.04 23.73 18.07C23.68 18.09 23.63 18.11 23.58 18.14C23.52 18.17 23.47 18.2 23.43 18.23C23.38 18.26 23.34 18.3 23.29 18.34C23.25 18.38 23.21 18.42 23.17 18.46C23.13 18.51 23.1 18.55 23.06 18.6C23.03 18.65 23 18.7 22.98 18.75C22.95 18.8 22.93 18.85 22.91 18.91C22.89 18.96 22.87 19.02 22.85 19.08C22.84 19.13 22.83 19.19 22.82 19.25C22.82 19.3 22.81 19.36 22.81 19.42L22.81 22.33C22.81 22.38 22.82 22.42 22.82 22.47C22.82 22.52 22.83 22.57 22.84 22.61C22.85 22.66 22.86 22.71 22.88 22.75C22.89 22.8 22.91 22.84 22.92 22.89C22.94 22.93 22.96 22.97 22.98 23.01C23.01 23.06 23.03 23.1 23.06 23.14C23.08 23.18 23.11 23.21 23.14 23.25C23.17 23.29 23.21 23.32 23.24 23.36C23.27 23.39 23.31 23.42 23.34 23.45C23.38 23.48 23.42 23.51 23.46 23.54C23.5 23.56 23.54 23.59 23.58 23.61C23.62 23.63 23.67 23.65 23.71 23.67C23.76 23.69 23.8 23.71 23.85 23.72C23.89 23.73 23.94 23.75 23.98 23.75C24.03 23.76 24.08 23.77 24.13 23.78C24.17 23.78 24.22 23.78 24.27 23.78C24.32 23.78 24.36 23.78 24.41 23.78C24.46 23.77 24.5 23.76 24.55 23.75C24.6 23.75 24.64 23.73 24.69 23.72C24.74 23.71 24.78 23.69 24.82 23.67C24.87 23.65 24.91 23.63 24.95 23.61C25 23.59 25.04 23.56 25.08 23.54C25.12 23.51 25.15 23.48 25.19 23.45C25.23 23.42 25.26 23.39 25.3 23.36C25.33 23.32 25.36 23.29 25.39 23.25C25.42 23.21 25.45 23.18 25.48 23.14C25.5 23.1 25.53 23.06 25.55 23.01C25.57 22.97 25.59 22.93 25.61 22.89C25.63 22.84 25.65 22.8 25.66 22.75C25.67 22.71 25.69 22.66 25.69 22.61C25.7 22.57 25.71 22.52 25.72 22.47C25.72 22.42 25.72 22.38 25.72 22.33L25.72 21.84C25.79 21.84 25.85 21.84 25.91 21.82C25.97 21.81 26.03 21.79 26.09 21.77C26.15 21.75 26.21 21.72 26.26 21.68C26.31 21.64 26.36 21.6 26.41 21.56C26.45 21.51 26.49 21.47 26.53 21.41C26.56 21.36 26.59 21.3 26.62 21.24C26.64 21.19 26.66 21.13 26.67 21.06C26.69 21 26.69 20.94 26.69 20.87L26.69 17.96C26.69 12.61 22.35 8.27 16.99 8.27Z" fill="#333333" fill-opacity="1.000000" fill-rule="nonzero"/>
	<path id="path" d="M15.14 17.64C14.51 17.27 14 17.64 14 18.47L14 24.52C14 25.35 14.51 25.72 15.14 25.35L20.52 22.17C21.15 21.8 21.15 21.19 20.52 20.82L15.14 17.64Z" fill="#1478F0" fill-opacity="1.000000" fill-rule="nonzero"/>
</svg>
