<svg width="32.000000" height="32.000000" viewBox="0 0 32 32" fill="none" xmlns="http://www.w3.org/2000/svg" xmlns:xlink="http://www.w3.org/1999/xlink">
	<desc>
			Created with Pixso.
	</desc>
	<defs/>
	<circle id="椭圆 9" cx="16.000000" cy="16.000000" r="16.000000" fill="#DDE9FF" fill-opacity="1.000000"/>
	<circle id="椭圆 9" cx="16.000000" cy="16.000000" r="15.500000" stroke="#FFFFFF" stroke-opacity="1.000000" stroke-width="1.000000"/>
	<path id="path" d="M14 17C14.06 17 14.13 17 14.19 17.02C14.25 17.04 14.32 17.06 14.38 17.1C14.44 17.13 14.5 17.17 14.55 17.22C14.61 17.27 14.66 17.32 14.7 17.39C14.75 17.45 14.79 17.51 14.83 17.59C14.86 17.66 14.89 17.74 14.92 17.82C14.94 17.9 14.96 17.98 14.98 18.07C14.99 18.15 15 18.24 15 18.33L15 23.66C15 23.75 14.99 23.84 14.98 23.92C14.96 24.01 14.94 24.09 14.92 24.17C14.89 24.25 14.86 24.33 14.83 24.4C14.79 24.48 14.75 24.54 14.7 24.6C14.66 24.67 14.61 24.72 14.55 24.77C14.5 24.82 14.44 24.86 14.38 24.89C14.32 24.93 14.25 24.95 14.19 24.97C14.13 24.99 14.06 25 14 25C13.93 25 13.86 24.99 13.8 24.97C13.74 24.95 13.67 24.93 13.61 24.89C13.55 24.86 13.49 24.82 13.44 24.77C13.38 24.72 13.33 24.67 13.29 24.6C13.24 24.54 13.2 24.48 13.16 24.4C13.13 24.33 13.1 24.25 13.07 24.17C13.05 24.09 13.03 24.01 13.01 23.92C13 23.84 13 23.75 13 23.66L13 18.33C13 18.24 13 18.15 13.01 18.07C13.03 17.98 13.05 17.9 13.07 17.82C13.1 17.74 13.13 17.66 13.16 17.59C13.2 17.51 13.24 17.45 13.29 17.39C13.33 17.32 13.38 17.27 13.44 17.22C13.49 17.17 13.55 17.13 13.61 17.1C13.67 17.06 13.74 17.04 13.8 17.02C13.86 17 13.93 17 14 17Z" fill="#1478F0" fill-opacity="1.000000" fill-rule="nonzero"/>
	<path id="path" d="M18 17C18.06 17 18.13 17 18.19 17.02C18.25 17.04 18.32 17.06 18.38 17.1C18.44 17.13 18.5 17.17 18.55 17.22C18.61 17.27 18.66 17.32 18.7 17.39C18.75 17.45 18.79 17.51 18.83 17.59C18.86 17.66 18.89 17.74 18.92 17.82C18.94 17.9 18.96 17.98 18.98 18.07C18.99 18.15 19 18.24 19 18.33L19 23.66C19 23.75 18.99 23.84 18.98 23.92C18.96 24.01 18.94 24.09 18.92 24.17C18.89 24.25 18.86 24.33 18.83 24.4C18.79 24.48 18.75 24.54 18.7 24.6C18.66 24.67 18.61 24.72 18.55 24.77C18.5 24.82 18.44 24.86 18.38 24.89C18.32 24.93 18.25 24.95 18.19 24.97C18.13 24.99 18.06 25 18 25C17.93 25 17.86 24.99 17.8 24.97C17.74 24.95 17.67 24.93 17.61 24.89C17.55 24.86 17.49 24.82 17.44 24.77C17.38 24.72 17.33 24.67 17.29 24.6C17.24 24.54 17.2 24.48 17.16 24.4C17.13 24.33 17.1 24.25 17.07 24.17C17.05 24.09 17.03 24.01 17.01 23.92C17 23.84 17 23.75 17 23.66L17 18.33C17 18.24 17 18.15 17.01 18.07C17.03 17.98 17.05 17.9 17.07 17.82C17.1 17.74 17.13 17.66 17.16 17.59C17.2 17.51 17.24 17.45 17.29 17.39C17.33 17.32 17.38 17.27 17.44 17.22C17.49 17.17 17.55 17.13 17.61 17.1C17.67 17.06 17.74 17.04 17.8 17.02C17.86 17 17.93 17 18 17Z" fill="#1478F0" fill-opacity="1.000000" fill-rule="nonzero"/>
	<path id="path" d="M16 7.27C10.64 7.27 6.3 11.61 6.3 16.96L6.3 19.87C6.3 19.94 6.3 20 6.32 20.06C6.33 20.13 6.35 20.19 6.37 20.24C6.4 20.3 6.43 20.36 6.46 20.41C6.5 20.47 6.54 20.51 6.58 20.56C6.63 20.6 6.68 20.64 6.73 20.68C6.78 20.72 6.84 20.75 6.9 20.77C6.96 20.79 7.02 20.81 7.08 20.82C7.14 20.84 7.2 20.84 7.27 20.84L7.27 21.33C7.27 21.38 7.27 21.42 7.27 21.47C7.28 21.52 7.29 21.57 7.3 21.61C7.31 21.66 7.32 21.7 7.33 21.75C7.34 21.8 7.36 21.84 7.38 21.88C7.4 21.93 7.42 21.97 7.44 22.01C7.46 22.06 7.49 22.1 7.51 22.14C7.54 22.18 7.57 22.21 7.6 22.25C7.63 22.29 7.66 22.32 7.69 22.36C7.73 22.39 7.76 22.42 7.8 22.45C7.84 22.48 7.87 22.51 7.91 22.54C7.95 22.56 7.99 22.59 8.04 22.61C8.08 22.63 8.12 22.65 8.17 22.67C8.21 22.69 8.25 22.71 8.3 22.72C8.35 22.73 8.39 22.75 8.44 22.75C8.49 22.76 8.53 22.77 8.58 22.78C8.63 22.78 8.67 22.78 8.72 22.78C8.77 22.78 8.82 22.78 8.86 22.78C8.91 22.77 8.96 22.76 9.01 22.75C9.05 22.75 9.1 22.73 9.14 22.72C9.19 22.71 9.23 22.69 9.28 22.67C9.32 22.65 9.37 22.63 9.41 22.61C9.45 22.59 9.49 22.56 9.53 22.54C9.57 22.51 9.61 22.48 9.64 22.45C9.68 22.42 9.72 22.39 9.75 22.36C9.78 22.32 9.82 22.29 9.85 22.25C9.88 22.21 9.91 22.18 9.93 22.14C9.96 22.1 9.98 22.06 10 22.01C10.03 21.97 10.05 21.93 10.07 21.88C10.08 21.84 10.1 21.8 10.11 21.75C10.13 21.7 10.14 21.66 10.15 21.61C10.16 21.57 10.17 21.52 10.17 21.47C10.17 21.42 10.18 21.38 10.18 21.33L10.18 18.42C10.18 18.36 10.17 18.3 10.17 18.25C10.16 18.19 10.15 18.13 10.14 18.08C10.12 18.02 10.1 17.96 10.08 17.91C10.06 17.85 10.04 17.8 10.01 17.75C9.99 17.7 9.96 17.65 9.93 17.6C9.89 17.55 9.86 17.51 9.82 17.46C9.78 17.42 9.74 17.38 9.7 17.34C9.65 17.3 9.61 17.26 9.56 17.23C9.52 17.2 9.47 17.17 9.41 17.14C9.36 17.11 9.31 17.09 9.26 17.07C9.2 17.04 9.15 17.03 9.09 17.01C9.04 17 8.98 16.99 8.92 16.98C8.86 16.97 8.81 16.97 8.75 16.96C8.69 16.96 8.63 16.97 8.58 16.97C8.52 16.98 8.46 16.99 8.4 17C8.35 17.01 8.29 17.03 8.24 17.05L8.24 16.96C8.24 16.84 8.24 16.71 8.25 16.58C8.25 16.46 8.26 16.33 8.27 16.2C8.29 16.08 8.3 15.95 8.32 15.83C8.34 15.7 8.36 15.58 8.39 15.45C8.41 15.33 8.44 15.2 8.47 15.08C8.5 14.96 8.53 14.83 8.57 14.71C8.61 14.59 8.65 14.47 8.69 14.35C8.73 14.23 8.78 14.11 8.83 14C8.88 13.88 8.93 13.76 8.98 13.65C9.04 13.53 9.09 13.42 9.15 13.31C9.21 13.2 9.28 13.09 9.34 12.98C9.41 12.87 9.47 12.76 9.54 12.65C9.62 12.55 9.69 12.45 9.76 12.34C9.84 12.24 9.92 12.14 10 12.04C10.08 11.95 10.16 11.85 10.25 11.76C10.33 11.66 10.42 11.57 10.51 11.48C10.6 11.39 10.69 11.3 10.79 11.22C10.88 11.13 10.98 11.05 11.07 10.97C11.17 10.89 11.27 10.81 11.37 10.73C11.48 10.66 11.58 10.59 11.69 10.51C11.79 10.44 11.9 10.38 12.01 10.31C12.12 10.25 12.23 10.18 12.34 10.12C12.45 10.06 12.56 10.01 12.68 9.95C12.79 9.9 12.91 9.85 13.03 9.8C13.14 9.75 13.26 9.7 13.38 9.66C13.5 9.62 13.62 9.58 13.74 9.54C13.86 9.5 13.99 9.47 14.11 9.44C14.23 9.41 14.36 9.38 14.48 9.36C14.61 9.33 14.73 9.31 14.86 9.29C14.98 9.27 15.11 9.26 15.23 9.24C15.36 9.23 15.49 9.22 15.61 9.22C15.74 9.21 15.87 9.21 16 9.21C16.12 9.21 16.25 9.21 16.38 9.22C16.5 9.22 16.63 9.23 16.76 9.24C16.88 9.26 17.01 9.27 17.13 9.29C17.26 9.31 17.38 9.33 17.51 9.36C17.63 9.38 17.76 9.41 17.88 9.44C18 9.47 18.13 9.5 18.25 9.54C18.37 9.58 18.49 9.62 18.61 9.66C18.73 9.7 18.85 9.75 18.96 9.8C19.08 9.85 19.2 9.9 19.31 9.95C19.43 10.01 19.54 10.06 19.65 10.12C19.76 10.18 19.87 10.25 19.98 10.31C20.09 10.38 20.2 10.44 20.3 10.51C20.41 10.59 20.51 10.66 20.62 10.73C20.72 10.81 20.82 10.89 20.92 10.97C21.01 11.05 21.11 11.13 21.2 11.22C21.3 11.3 21.39 11.39 21.48 11.48C21.57 11.57 21.66 11.66 21.74 11.76C21.83 11.85 21.91 11.95 21.99 12.04C22.07 12.14 22.15 12.24 22.23 12.34C22.3 12.45 22.37 12.55 22.45 12.65C22.52 12.76 22.58 12.87 22.65 12.98C22.71 13.09 22.78 13.2 22.84 13.31C22.9 13.42 22.95 13.53 23.01 13.65C23.06 13.76 23.11 13.88 23.16 14C23.21 14.11 23.26 14.23 23.3 14.35C23.34 14.47 23.38 14.59 23.42 14.71C23.46 14.83 23.49 14.96 23.52 15.08C23.55 15.2 23.58 15.33 23.6 15.45C23.63 15.58 23.65 15.7 23.67 15.83C23.69 15.95 23.7 16.08 23.72 16.2C23.73 16.33 23.74 16.46 23.74 16.58C23.75 16.71 23.75 16.84 23.75 16.96L23.75 17.05C23.7 17.03 23.64 17.01 23.59 17C23.53 16.99 23.47 16.98 23.41 16.97C23.36 16.97 23.3 16.96 23.24 16.96C23.18 16.97 23.13 16.97 23.07 16.98C23.01 16.99 22.95 17 22.9 17.01C22.84 17.03 22.79 17.04 22.73 17.07C22.68 17.09 22.63 17.11 22.58 17.14C22.52 17.17 22.48 17.2 22.43 17.23C22.38 17.26 22.34 17.3 22.29 17.34C22.25 17.38 22.21 17.42 22.17 17.46C22.13 17.51 22.1 17.55 22.06 17.6C22.03 17.65 22 17.7 21.98 17.75C21.95 17.8 21.93 17.85 21.91 17.91C21.89 17.96 21.87 18.02 21.85 18.08C21.84 18.13 21.83 18.19 21.82 18.25C21.82 18.3 21.81 18.36 21.81 18.42L21.81 21.33C21.81 21.38 21.82 21.42 21.82 21.47C21.82 21.52 21.83 21.57 21.84 21.61C21.85 21.66 21.86 21.71 21.88 21.75C21.89 21.8 21.91 21.84 21.92 21.89C21.94 21.93 21.96 21.97 21.98 22.01C22.01 22.06 22.03 22.1 22.06 22.14C22.08 22.18 22.11 22.21 22.14 22.25C22.17 22.29 22.21 22.32 22.24 22.36C22.27 22.39 22.31 22.42 22.35 22.45C22.38 22.48 22.42 22.51 22.46 22.54C22.5 22.56 22.54 22.59 22.58 22.61C22.62 22.63 22.67 22.65 22.71 22.67C22.76 22.69 22.8 22.71 22.85 22.72C22.89 22.73 22.94 22.75 22.98 22.75C23.03 22.76 23.08 22.77 23.13 22.78C23.17 22.78 23.22 22.78 23.27 22.78C23.32 22.78 23.36 22.78 23.41 22.78C23.46 22.77 23.5 22.76 23.55 22.75C23.6 22.75 23.64 22.73 23.69 22.72C23.74 22.71 23.78 22.69 23.82 22.67C23.87 22.65 23.91 22.63 23.95 22.61C24 22.59 24.04 22.56 24.08 22.54C24.12 22.51 24.15 22.48 24.19 22.45C24.23 22.42 24.26 22.39 24.3 22.36C24.33 22.32 24.36 22.29 24.39 22.25C24.42 22.21 24.45 22.18 24.48 22.14C24.5 22.1 24.53 22.06 24.55 22.01C24.57 21.97 24.59 21.93 24.61 21.89C24.63 21.84 24.65 21.8 24.66 21.75C24.67 21.71 24.69 21.66 24.69 21.61C24.7 21.57 24.71 21.52 24.72 21.47C24.72 21.42 24.72 21.38 24.72 21.33L24.72 20.84C24.79 20.84 24.85 20.84 24.91 20.82C24.97 20.81 25.03 20.79 25.09 20.77C25.15 20.75 25.21 20.72 25.26 20.68C25.31 20.64 25.36 20.6 25.41 20.56C25.45 20.51 25.49 20.47 25.53 20.41C25.56 20.36 25.59 20.3 25.62 20.24C25.64 20.19 25.66 20.13 25.67 20.06C25.69 20 25.69 19.94 25.69 19.87L25.69 16.96C25.69 11.61 21.35 7.27 16 7.27Z" fill="#333333" fill-opacity="1.000000" fill-rule="nonzero"/>
</svg>
