<?xml version="1.0" encoding="UTF-8"?>
<svg width="24px" height="24px" viewBox="0 0 24 24" version="1.1" xmlns="http://www.w3.org/2000/svg"
     xmlns:xlink="http://www.w3.org/1999/xlink">
    <title>Navigation/BottomTabBar/Items/Icon/组件_选中</title>
    <defs>
        <linearGradient x1="70.5147097%" y1="0%" x2="70.5147097%" y2="100%" id="linearGradient-1">
            <stop stop-color="#0A59F7" offset="0%"></stop>
            <stop stop-color="#2C79F4" offset="100%"></stop>
        </linearGradient>
    </defs>
    <g id="Navigation/BottomTabBar/Items/Icon/组件_选中" stroke="none" fill="none" fill-rule="evenodd">
        <path d="M3.5,2.5 L9,2.5 C10.1045695,2.5 11,3.3954305 11,4.5 L11,10 C11,11.1045695 10.1045695,12 9,12 L3.5,12 C2.3954305,12 1.5,11.1045695 1.5,10 L1.5,4.5 C1.5,3.3954305 2.3954305,2.5 3.5,2.5 Z M20.6488646,14.5 C21.6712184,14.5 22.5,15.3287816 22.5,16.3511354 L22.5,20.6488646 C22.5,21.6712184 21.6712184,22.5 20.6488646,22.5 L3.35113544,22.5 C2.32878157,22.5 1.5,21.6712184 1.5,20.6488646 L1.5,16.3511354 C1.5,15.3287816 2.32878157,14.5 3.35113544,14.5 L20.6488646,14.5 Z M10,17.5 L5,17.5 C4.44771525,17.5 4,17.9477153 4,18.5 C4,19.0522847 4.44771525,19.5 5,19.5 L10,19.5 C10.5522847,19.5 11,19.0522847 11,18.5 C11,17.9477153 10.5522847,17.5 10,17.5 Z M12.4449894,6.19104958 L16.1910496,2.44498939 C16.9139629,1.72207603 18.0860371,1.72207603 18.8089504,2.44498939 L22.5550106,6.19104958 C23.277924,6.91396293 23.277924,8.08603707 22.5550106,8.80895042 L18.8089504,12.5550106 C18.0860371,13.277924 16.9139629,13.277924 16.1910496,12.5550106 L12.4449894,8.80895042 C11.722076,8.08603707 11.722076,6.91396293 12.4449894,6.19104958 Z"
              id="形状结合" fill="#000000"></path>
    </g>
</svg>