<?xml version="1.0" encoding="UTF-8"?>
<svg width="24px" height="24px" viewBox="0 0 24 24" version="1.1" xmlns="http://www.w3.org/2000/svg"
     xmlns:xlink="http://www.w3.org/1999/xlink">
    <title>Navigation/BottomTabBar/Items/Icon/我的_选中</title>
    <defs>
        <linearGradient x1="70.5147097%" y1="0%" x2="70.5147097%" y2="100%" id="linearGradient-1">
            <stop stop-color="#0A59F7" offset="0%"></stop>
            <stop stop-color="#2C79F4" offset="100%"></stop>
        </linearGradient>
    </defs>
    <g id="Navigation/BottomTabBar/Items/Icon/我的_选中" stroke="none" fill="none" fill-rule="evenodd">
        <path d="M12,1.5 C17.7989899,1.5 22.5,6.20101013 22.5,12 C22.5,17.7989899 17.7989899,22.5 12,22.5 C6.20101013,22.5 1.5,17.7989899 1.5,12 C1.5,6.20101013 6.20101013,1.5 12,1.5 Z M7.5,6.5 C6.67157288,6.5 6,7.17157288 6,8 L6,11 C6,11.8284271 6.67157288,12.5 7.5,12.5 C8.32842712,12.5 9,11.8284271 9,11 L9,8 C9,7.17157288 8.32842712,6.5 7.5,6.5 Z M13.5,6.5 C12.6715729,6.5 12,7.17157288 12,8 L12,11 C12,11.8284271 12.6715729,12.5 13.5,12.5 C14.3284271,12.5 15,11.8284271 15,11 L15,8 C15,7.17157288 14.3284271,6.5 13.5,6.5 Z"
              id="形状结合" fill="#000000"></path>
    </g>
</svg>