<?xml version="1.0" encoding="UTF-8"?>
<svg width="24px" height="24px" viewBox="0 0 24 24" version="1.1" xmlns="http://www.w3.org/2000/svg"
     xmlns:xlink="http://www.w3.org/1999/xlink">
    <title>Navigation/BottomTabBar/Items/Icon/Activated</title>
    <defs>
        <linearGradient x1="70.5147097%" y1="0%" x2="70.5147097%" y2="100%" id="linearGradient-1">
            <stop stop-color="#0A59F7" offset="0%"></stop>
            <stop stop-color="#2C79F4" offset="100%"></stop>
        </linearGradient>
    </defs>
    <g id="Navigation/BottomTabBar/Items/Icon/Activated" stroke="none" fill="none" fill-rule="evenodd">
        <path d="M20.51,16.33 L15.73,12.25 C15.56,12.09 15.35,12.01 15.11,12 C14.87,11.99 14.64,12.06 14.43,12.2 L4.15,19.7 L4.15,19.7 C3.788,18.87 4.051,17.901 4.782,17.368 L13.421,11.074 C13.862,10.753 14.671,10.461 15.216,10.493 C15.779,10.526 16.277,10.735 16.71,11.12 L19.887,14.022 C20.245,14.348 20.457,14.803 20.48,15.286 C20.496,15.612 20.51,15.994 20.51,16.33 Z M7.27,7.77 C7.62,7.43 8.03,7.26 8.51,7.26 C8.99,7.26 9.4,7.43 9.74,7.77 C10.09,8.12 10.26,8.53 10.26,9.01 C10.26,9.49 10.09,9.9 9.74,10.25 C9.4,10.59 8.99,10.76 8.51,10.76 C8.03,10.76 7.62,10.59 7.27,10.25 C6.92,9.9 6.75,9.49 6.75,9.01 C6.75,8.53 6.92,8.12 7.27,7.77 L7.27,7.77 Z M21.47,3.97 C21.12,3.36 20.64,2.88 20.04,2.53 C19.44,2.18 18.79,2 18.08,2 L5.94,2 C5.23,2 4.58,2.18 3.97,2.53 C3.36,2.88 2.88,3.36 2.53,3.97 C2.18,4.58 2,5.23 2,5.94 L2,18.06 C2,18.78 2.18,19.44 2.53,20.05 C2.88,20.66 3.36,21.14 3.97,21.49 C4.58,21.84 5.23,22.02 5.94,22.02 L18.08,22.02 C18.79,22.02 19.44,21.84 20.04,21.49 C20.64,21.14 21.12,20.66 21.47,20.05 C21.82,19.44 21.99,18.78 21.99,18.06 L21.99,5.94 C21.99,5.23 21.82,4.58 21.47,3.97 L21.47,3.97 Z"
              id="Fill-1" fill="#000000"></path>
    </g>
</svg>
