<?xml version="1.0" encoding="UTF-8"?>
<svg xmlns:xlink="http://www.w3.org/1999/xlink" width="16px" height="16px" viewBox="0 0 16 16" version="1.1"
     xmlns="http://www.w3.org/2000/svg">
    <title>Public/Icon/删除</title>
    <g id="页面-1" stroke="none" stroke-width="1" fill="none" fill-rule="evenodd">
        <g id="我的组件_编辑" transform="translate(-60, -295)" fill="#000000">
            <g id="编组" transform="translate(54, 289)">
                <g id="编组" transform="translate(6, 6)">
                    <rect id="矩形" fill-rule="nonzero" opacity="0" x="0" y="0" width="16" height="16"></rect>
                    <path d="M6.06666667,4.03333333 C6.20444444,4.03333333 6.32,3.98444444 6.41333333,3.88666667 C6.51111111,3.79333333 6.56,3.67555556 6.56,3.53333333 C6.56,3.12888889 6.70666667,2.77777778 7,2.48 C7.29333333,2.18222222 7.64888889,2.03333333 8.06666667,2.03333333 C8.48,2.03333333 8.83333333,2.18222222 9.12666667,2.48 C9.42,2.77777778 9.56666667,3.12888889 9.56666667,3.53333333 C9.56666667,3.67555556 9.61555556,3.79333333 9.71333333,3.88666667 C9.80666667,3.98444444 9.92444444,4.03333333 10.0666667,4.03333333 L13.6933333,4.03333333 C13.8355556,4.03333333 13.9533333,3.98444444 14.0466667,3.88666667 C14.1444444,3.79333333 14.1933333,3.67555556 14.1933333,3.53333333 C14.1933333,3.39555556 14.1444444,3.28 14.0466667,3.18666667 C13.9533333,3.08888889 13.8355556,3.04 13.6933333,3.04 L10.5133333,3.04 C10.3933333,2.46222222 10.1044444,1.98444444 9.64666667,1.60666667 C9.18888889,1.22888889 8.65555556,1.04 8.04666667,1.04 C7.45111111,1.04 6.92444444,1.22888889 6.46666667,1.60666667 C6.00444444,1.98444444 5.71555556,2.46222222 5.6,3.04 L2.28666667,3.04 C2.14888889,3.04 2.03111111,3.08888889 1.93333333,3.18666667 C1.84,3.28 1.79333333,3.39555556 1.79333333,3.53333333 C1.79333333,3.67555556 1.84,3.79333333 1.93333333,3.88666667 C2.03111111,3.98444444 2.14888889,4.03333333 2.28666667,4.03333333 L6.06666667,4.03333333 Z M9.16666667,11.92 C9.30444444,11.92 9.42222222,11.8755556 9.52,11.7866667 C9.61777778,11.6933333 9.67111111,11.5777778 9.68,11.44 L9.84,6.76666667 C9.84888889,6.62888889 9.80444444,6.50888889 9.70666667,6.40666667 C9.60444444,6.30444444 9.48444444,6.24888889 9.34666667,6.24 C9.20444444,6.24 9.08666667,6.28444444 8.99333333,6.37333333 C8.89555556,6.46666667 8.84666667,6.58222222 8.84666667,6.72 L8.67333333,11.3933333 C8.66,11.5311111 8.70444444,11.6511111 8.80666667,11.7533333 C8.90888889,11.8555556 9.02888889,11.9111111 9.16666667,11.92 Z M6.84666667,11.92 C6.98444444,11.9111111 7.10444444,11.8555556 7.20666667,11.7533333 C7.30888889,11.6511111 7.35555556,11.5311111 7.34666667,11.3933333 L7.15333333,6.72 C7.15333333,6.58222222 7.10444444,6.46666667 7.00666667,6.37333333 C6.91333333,6.28444444 6.79111111,6.24 6.64,6.24 C6.50222222,6.24888889 6.38444444,6.30444444 6.28666667,6.40666667 C6.19333333,6.50888889 6.15111111,6.62888889 6.16,6.76666667 L6.33333333,11.44 C6.34666667,11.5688889 6.4,11.68 6.49333333,11.7733333 C6.59111111,11.8711111 6.70888889,11.92 6.84666667,11.92 Z M11.4733333,13.2 C11.4511111,13.4133333 11.36,13.5911111 11.2,13.7333333 C11.04,13.88 10.8533333,13.9533333 10.64,13.9533333 L5.36,13.9533333 C5.13777778,13.9533333 4.94888889,13.88 4.79333333,13.7333333 C4.63777778,13.5911111 4.54888889,13.4133333 4.52666667,13.2 L3.87333333,4.81333333 L2.88,4.81333333 L3.53333333,13.28 C3.57777778,13.76 3.77333333,14.16 4.12,14.48 C4.46666667,14.8 4.88,14.96 5.36,14.96 L10.64,14.96 C11.12,14.96 11.5311111,14.8 11.8733333,14.48 C12.2155556,14.16 12.4133333,13.76 12.4666667,13.28 L13.1066667,4.81333333 L12.1133333,4.81333333 L11.4733333,13.2 Z"
                          id="形状" fill-opacity="0.90196079" fill-rule="nonzero"></path>
                </g>
            </g>
        </g>
    </g>
</svg>