<svg viewBox="0 0 40 40" xmlns="http://www.w3.org/2000/svg" xmlns:xlink="http://www.w3.org/1999/xlink" width="40.000000" height="40.000000" fill="none" customFrame="#000000">
	<mask id="mask_0" width="20.000000" height="20.000000" x="10.000000" y="10.000000" maskUnits="userSpaceOnUse">
		<g filter="url(#pixso_custom_mask_type_luminance)">
			<g id="hms_mask_0">
				<rect id="rect" width="20.000000" height="20.000000" x="10.000000" y="10.000000" fill="rgb(255,255,255)" />
				<g id="g">
					<path id="path" d="M28.4417 22.1834C28.025 21.7667 27.5472 21.45 27.0083 21.2334C26.4694 21.0111 25.9 20.9 25.3 20.9C24.7 20.9 24.1333 21.0111 23.6 21.2334C23.0667 21.45 22.5944 21.7667 22.1833 22.1834C21.6222 22.7389 21.2417 23.3972 21.0417 24.1584C20.8417 24.9195 20.8417 25.6806 21.0417 26.4417C21.2417 27.2028 21.6222 27.8695 22.1833 28.4417C22.6056 28.8528 23.0833 29.1695 23.6167 29.3917C24.15 29.6084 24.7111 29.7167 25.3 29.7167C25.9 29.7167 26.4667 29.6084 27 29.3917C27.5333 29.1695 28.0139 28.8528 28.4417 28.4417C29.0028 27.8695 29.3833 27.2028 29.5833 26.4417C29.7833 25.6806 29.7833 24.9195 29.5833 24.1584C29.3833 23.3972 29.0028 22.7389 28.4417 22.1834Z" fill="rgb(0,0,0)" fill-rule="nonzero" />
				</g>
			</g>
		</g>
	</mask>
	<defs>
		<clipPath id="clipPath_0">
			<rect width="20.000000" height="20.000000" x="10.000000" y="10.000000" fill="rgb(255,255,255)" />
		</clipPath>
		<filter id="pixso_custom_mask_type_luminance">
			<feColorMatrix type="matrix" values="1 0 0 0 0 0 1 0 0 0 0 0 1 0 0 0 0 0 1 0 " />
		</filter>
	</defs>
	<g id="组合 4100">
		<rect id="矩形 3400" width="40.000000" height="40.000000" x="0.000000" y="0.000000" rx="8.000000" fill="rgb(255,255,255)" />
		<g id="picture_badge_arrow_down.svg" clip-path="url(#clipPath_0)" customFrame="url(#clipPath_0)">
			<rect id="picture_badge_arrow_down.svg" width="20.000000" height="20.000000" x="10.000000" y="10.000000" />
			<rect id="rect" width="20.000000" height="20.000000" x="10.000000" y="10.000000" opacity="0" fill="rgb(0,0,0)" />
			<g id="mask" mask="url(#mask_0)">
				<g id="g">
					<path id="path" d="M17.0833 16.0417C16.6833 16.0417 16.3389 16.1833 16.05 16.4667C15.7611 16.7555 15.6167 17.1 15.6167 17.5C15.6167 17.9 15.7611 18.2444 16.05 18.5333C16.3389 18.8167 16.6833 18.9583 17.0833 18.9583C17.4833 18.9583 17.825 18.8167 18.1083 18.5333C18.3972 18.2444 18.5417 17.9 18.5417 17.5C18.5417 17.1 18.3972 16.7555 18.1083 16.4667C17.825 16.1833 17.4833 16.0417 17.0833 16.0417ZM14.9417 11.6583C14.3528 11.6583 13.8055 11.8055 13.3 12.1C12.7944 12.3944 12.3944 12.7944 12.1 13.3C11.8055 13.8055 11.6583 14.3528 11.6583 14.9417L11.6583 25.0417C11.6583 25.6417 11.8055 26.1944 12.1 26.7C12.3944 27.2055 12.7944 27.6055 13.3 27.9C13.8055 28.1944 14.3528 28.3417 14.9417 28.3417L25.0583 28.3417C25.6472 28.3417 26.1917 28.1944 26.6917 27.9C27.1917 27.6055 27.5889 27.2055 27.8833 26.7C28.1722 26.1944 28.3167 25.6417 28.3167 25.0417L28.3167 14.9417C28.3167 14.3528 28.1722 13.8055 27.8833 13.3C27.5889 12.7944 27.1917 12.3944 26.6917 12.1C26.1917 11.8055 25.6472 11.6583 25.0583 11.6583L14.9417 11.6583ZM12.9167 14.9417C12.9167 14.3694 13.1139 13.8889 13.5083 13.5C13.9028 13.1111 14.3805 12.9167 14.9417 12.9167L25.0583 12.9167C25.6194 12.9167 26.0972 13.1139 26.4917 13.5083C26.8861 13.9028 27.0833 14.3805 27.0833 14.9417L27.0833 21.9583L23.9167 19.2583C23.5444 18.925 23.1111 18.75 22.6167 18.7333C22.1278 18.7111 21.6833 18.8472 21.2833 19.1417L12.9167 25.2417C12.9167 25.175 12.9167 25.1083 12.9167 25.0417L12.9167 14.9417ZM14.9417 27.0833C14.6472 27.0833 14.3694 27.0222 14.1083 26.9C13.8472 26.7778 13.625 26.6167 13.4417 26.4167L22.0167 20.1583C22.1944 20.0417 22.3833 19.9861 22.5833 19.9917C22.7833 19.9972 22.9555 20.0667 23.1 20.2L27.0833 23.6L27.0833 25.0417C27.0833 25.6028 26.8861 26.0833 26.4917 26.4833C26.0972 26.8833 25.6194 27.0833 25.0583 27.0833L14.9417 27.0833Z" fill="rgb(0,0,0)" fill-opacity="0.898039222" fill-rule="nonzero" />
				</g>
			</g>
			<g id="g">
				<path id="path" d="M25.3167 21.9833C24.8778 21.9833 24.4556 22.0611 24.05 22.2167C23.6444 22.3778 23.2806 22.6194 22.9583 22.9417C22.5306 23.3694 22.2444 23.8694 22.1 24.4417C21.9556 25.0139 21.9556 25.5861 22.1 26.1583C22.2444 26.7306 22.5306 27.2306 22.9583 27.6583C23.2639 27.9806 23.625 28.225 24.0417 28.3917C24.4528 28.5583 24.8778 28.6417 25.3167 28.6417C25.7611 28.6417 26.1861 28.5583 26.5917 28.3917C26.9972 28.225 27.3611 27.9806 27.6833 27.6583C28.1056 27.2306 28.3917 26.7306 28.5417 26.1583C28.6861 25.5861 28.6861 25.0139 28.5417 24.4417C28.3917 23.8694 28.1056 23.3694 27.6833 22.9417C27.3611 22.6194 26.9972 22.3778 26.5917 22.2167C26.1861 22.0611 25.7611 21.9833 25.3167 21.9833ZM27.2167 25.1167C27.2833 25.2 27.3167 25.2944 27.3167 25.4C27.3167 25.5056 27.2778 25.5917 27.2 25.6583L25.7417 27.1167C25.6472 27.2278 25.5194 27.2833 25.3583 27.2833C25.2139 27.2833 25.0889 27.2278 24.9833 27.1167L23.5167 25.6583C23.4389 25.5917 23.4 25.5056 23.4 25.4C23.4 25.2944 23.4389 25.2083 23.5167 25.1417C23.5833 25.0583 23.6722 25.0167 23.7833 25.0167C23.8889 25.0167 23.975 25.0583 24.0417 25.1417L24.9833 26.0583L24.9833 23.7417C24.9833 23.6361 25.0194 23.5444 25.0917 23.4667C25.1639 23.3944 25.2528 23.3583 25.3583 23.3583C25.4528 23.3583 25.5361 23.3944 25.6083 23.4667C25.6806 23.5444 25.7167 23.6361 25.7167 23.7417L25.7167 26.0833L26.6833 25.1167C26.7611 25.05 26.85 25.0167 26.95 25.0167C27.05 25.0167 27.1389 25.05 27.2167 25.1167Z" fill="rgb(0,0,0)" fill-opacity="0.898039222" fill-rule="nonzero" />
			</g>
		</g>
	</g>
</svg>
