<svg width="32.000000" height="32.000000" viewBox="0 0 32 32" fill="none" xmlns="http://www.w3.org/2000/svg" xmlns:xlink="http://www.w3.org/1999/xlink">
	<desc>
			Created with Pixso.
	</desc>
	<defs/>
	<rect id="矩形" width="32.000000" height="32.000000" fill="#D8D8D8" fill-opacity="0"/>
	<rect id="矩形" x="0.500000" y="0.500000" width="31.000000" height="31.000000" stroke="#979797" stroke-opacity="0" stroke-width="1.000000"/>
	<path id="形状" d="M26.9136 17.4097L26.9258 17.417L31.3356 19.9121C31.6719 20.0986 31.8812 20.4517 31.886 20.8301L31.886 25.8579C31.886 26.2368 31.6867 26.5859 31.3536 26.7817L31.3418 26.7886L26.932 29.2959C26.5961 29.4883 26.1878 29.4907 25.8501 29.3032L25.8373 29.2959L21.4275 26.7886C21.0974 26.5962 20.8881 26.2495 20.8832 25.8711L20.8832 20.8555C20.8832 20.4766 21.0826 20.127 21.4157 19.9312L21.4275 19.9243L25.8435 17.417C26.1733 17.2246 26.5876 17.2222 26.9136 17.4097ZM17.2201 5.75L17.4814 5.75049L17.7402 5.75146L17.9965 5.75244L18.2502 5.75391L18.5014 5.75537L18.7501 5.75732L18.9145 5.75879L19.159 5.76123L19.3206 5.76318L19.481 5.76514L19.7196 5.76807L19.9557 5.77148L20.1892 5.77539L20.3435 5.77783L20.4966 5.78076L20.6486 5.78369L20.7996 5.78662L20.9494 5.79004L21.1719 5.79492L21.3189 5.79834L21.5373 5.8042L21.7531 5.81006L21.8956 5.81396L22.1073 5.82031L22.247 5.82471L22.3855 5.8291L22.523 5.83398L22.7271 5.84131L22.9286 5.84863L23.0616 5.854L23.1934 5.85938L23.3241 5.86475L23.4537 5.87012L23.6461 5.87891L23.7729 5.88477L23.8986 5.89111L24.0231 5.89697L24.2079 5.90674L24.3296 5.91309L24.4503 5.91992C27.2116 6.07471 29.4425 8.20801 29.6951 10.936L29.7378 11.4023L29.7809 11.8813L29.8139 12.2578L29.8355 12.5088L29.8586 12.7832L29.8749 12.98L29.8975 13.2607L29.9114 13.439L29.9306 13.6919L29.944 13.8765L29.9545 14.0269L29.9655 14.1929L29.9685 14.2383C29.9701 14.2632 29.9708 14.2881 29.9708 14.313C29.9708 14.9229 29.4915 15.436 28.8682 15.4751C28.2194 15.5156 27.6603 15.0278 27.6193 14.3853L27.6105 14.251L27.5991 14.0845L27.5883 13.9336L27.5724 13.7202L27.5594 13.5518L27.5381 13.2842L27.5175 13.0317L27.5009 12.834L27.4743 12.5225L27.439 12.1187L27.4005 11.6895L27.3589 11.2344L27.351 11.1489C27.2049 9.5708 25.9146 8.33691 24.3173 8.24756L24.1984 8.24072L24.0783 8.23438L23.9571 8.22803L23.8347 8.22168L23.7111 8.21582L23.5864 8.20996L23.4605 8.2041L23.3335 8.19873L23.2053 8.19287L23.0109 8.18506L22.8138 8.17725L22.6142 8.16992L22.4796 8.16504L22.2757 8.1582L22.1382 8.15381L21.9299 8.14746L21.7896 8.14307L21.5769 8.13721L21.3617 8.13184L21.2167 8.12793L20.9972 8.12305L20.775 8.11816L20.5502 8.11377L20.3228 8.10938L20.0928 8.10547L19.8603 8.10156L19.6251 8.09863L19.4669 8.09619L19.2274 8.09375L19.0663 8.0918L18.9041 8.09033L18.7406 8.08887L18.5761 8.0874L18.3271 8.08545L18.0755 8.08398L17.8213 8.08301L17.5645 8.08203L17.3919 8.08203L17.1308 8.08154L16.8658 8.08154L16.6894 8.08154L16.4271 8.08203L16.1673 8.08252L15.9957 8.0835L15.7403 8.08447L15.4877 8.08643L15.3207 8.0874L15.1549 8.08887L14.9083 8.09131L14.6644 8.09375L14.4232 8.09668L14.1846 8.09961L13.9486 8.10352L13.7153 8.10693L13.5612 8.10986L13.3322 8.11426L13.1059 8.11865L12.9565 8.12207L12.7346 8.12695L12.5882 8.13086L12.4429 8.13428L12.2988 8.13818L12.1558 8.14209L12.0141 8.14648L11.8037 8.15283L11.5959 8.15967L11.4588 8.16406L11.2554 8.17139L11.1213 8.17627L10.9883 8.18164L10.8565 8.18701L10.7259 8.19238L10.5965 8.19775L10.4683 8.20361L10.3412 8.20898L10.2153 8.21533L10.0906 8.22119L9.96706 8.22754L9.8447 8.23389L9.72351 8.24023L9.6035 8.24707L9.48466 8.25342C7.88051 8.34619 6.58888 9.59229 6.45392 11.1782C6.43923 11.3506 6.42529 11.5244 6.41214 11.7002L6.40103 11.8506L6.39029 12.0024L6.38506 12.0786L6.37489 12.231C6.33325 12.8687 6.30123 13.5259 6.27884 14.2031L6.27364 14.3657L6.26883 14.5293L6.26437 14.6938C6.258 14.9409 6.25286 15.1904 6.24895 15.4424L6.24654 15.6108C6.24247 15.9204 6.24026 16.2339 6.23993 16.5508L6.23988 16.6377C6.23988 16.9839 6.24209 17.3262 6.24654 17.6636L6.24895 17.832C6.25155 18 6.25469 18.167 6.25842 18.333L6.2623 18.4985L6.26656 18.6631C6.29989 19.895 6.36445 21.064 6.46015 22.1694C6.59602 23.7388 7.86561 24.9771 9.45237 25.0869L9.63314 25.0991L9.75517 25.1074L9.87844 25.1152L10.0029 25.1226L10.1286 25.1299L10.2555 25.1372L10.3837 25.1445L10.4482 25.1479L10.5782 25.1548L10.7094 25.1616L10.8417 25.1685L10.9754 25.1748L11.1102 25.1807L11.2463 25.187L11.3836 25.1929L11.5221 25.1987L11.5918 25.2012L11.7321 25.207L11.8737 25.2124L12.0164 25.2173L12.1604 25.2222L12.3056 25.2271L12.4521 25.2319L12.674 25.2383L12.8234 25.2427L12.9741 25.2466L13.126 25.2505L13.2791 25.2544L13.4335 25.2578L13.6673 25.2632L13.8246 25.2661L13.9832 25.269L14.143 25.272L14.3041 25.2749L14.4663 25.2773L14.6297 25.2793L14.7944 25.2817L15.0437 25.2847L15.2114 25.2861L15.3803 25.2881L15.5505 25.2896L15.808 25.291L15.9811 25.292L16.2432 25.2935L16.4194 25.2939L16.686 25.2944L16.9553 25.2949C17.6053 25.2949 18.1322 25.8164 18.1322 26.4604C18.1322 27.104 17.6053 27.626 16.9553 27.626L16.7724 27.626L16.5003 27.6255L16.3204 27.625L16.1418 27.624L15.9643 27.6235L15.7004 27.6216L15.5259 27.6206L15.3527 27.6191L15.1807 27.6177L15.0099 27.6157L14.7559 27.6128L14.5881 27.6104L14.4215 27.6079L14.2561 27.6055L14.0103 27.6016L13.7672 27.5967L13.6066 27.5938L13.4473 27.5903L13.2891 27.5864L13.0542 27.5811L12.899 27.5767L12.7451 27.5728L12.5164 27.5659L12.3655 27.5615L12.1414 27.5542L11.9935 27.5493L11.8468 27.5439L11.7013 27.5386L11.557 27.5332L11.4139 27.5273L11.272 27.5215L11.1313 27.5156L10.9918 27.5093L10.8535 27.5029L10.7848 27.4995L10.6484 27.4927L10.5131 27.4858L10.379 27.479L10.2462 27.4717L10.1145 27.4644L9.98404 27.457L9.85476 27.4492L9.72671 27.4414L9.59984 27.4336L9.47417 27.4253L9.41182 27.4209L9.28796 27.4126C6.5447 27.2222 4.34978 25.082 4.11491 22.3687C4.10605 22.2661 4.09746 22.1636 4.08912 22.0601L4.07681 21.9053C4.05021 21.563 4.02666 21.2207 4.00616 20.8779L3.99676 20.7173C3.9752 20.3413 3.95683 19.9595 3.94157 19.5713L3.93523 19.4048C3.91966 18.9805 3.90788 18.5557 3.8999 18.1313L3.89684 17.958C3.89301 17.7271 3.8902 17.4941 3.88839 17.2588L3.88725 17.0825L3.88647 16.9048L3.88604 16.7266L3.88604 16.5483L3.88647 16.3701L3.88725 16.1924L3.88839 16.0156C3.89914 14.6055 3.9468 13.2661 4.03146 11.9976L4.04223 11.8394C4.06235 11.5498 4.08439 11.2642 4.1084 10.9824C4.34177 8.24072 6.57469 6.08594 9.34803 5.92627L9.47108 5.91943L9.59535 5.9126L9.7208 5.90576L9.8474 5.89941L9.97523 5.89258L10.1042 5.88623L10.2344 5.88037L10.3658 5.87451L10.4983 5.86865L10.6321 5.86279L10.767 5.85742L10.9031 5.85156L11.0404 5.84668L11.2486 5.83887L11.3889 5.83398L11.5303 5.8291L11.6729 5.82471L11.8168 5.81982L12.0347 5.81348L12.2553 5.80713L12.4786 5.80127L12.629 5.79785L12.7805 5.79395L13.0101 5.78906L13.2423 5.78418L13.3986 5.78125L13.6352 5.77686L13.8745 5.77295L14.1165 5.76904L14.3613 5.76611L14.6086 5.7627L14.8586 5.76025L15.1113 5.75781L15.2813 5.75635L15.4525 5.75537L15.7114 5.75342L15.973 5.75244L16.2374 5.75146L16.5044 5.75049L16.774 5.75L17.2201 5.75ZM22.9634 21.4268L26.3855 19.4839L29.8059 21.4189L29.8059 25.2861L26.3847 27.2314L22.9634 25.2861L22.9634 21.4268ZM26.3982 21.9878C27.1616 21.9878 27.7804 22.6006 27.7804 23.3564C27.7804 24.1123 27.1616 24.7256 26.3982 24.7256C25.6348 24.7256 25.016 24.1123 25.016 23.3564C25.016 22.6006 25.6348 21.9878 26.3982 21.9878ZM15.1186 19.1465C15.6961 19.1465 16.1643 19.6108 16.1643 20.1836C16.1643 20.7559 15.6961 21.2202 15.1186 21.2202L11.3978 21.2202C10.8203 21.2202 10.3521 20.7559 10.3521 20.1836C10.3521 19.6108 10.8203 19.1465 11.3978 19.1465L15.1186 19.1465L15.1186 19.1465ZM16.5783 15.374C17.1559 15.374 17.624 15.8384 17.624 16.4111C17.624 16.9834 17.1559 17.4478 16.5783 17.4478L12.224 17.4478C11.6465 17.4478 11.1783 16.9834 11.1783 16.4111C11.1783 15.8384 11.6465 15.374 12.224 15.374L16.5783 15.374ZM22.5876 15.374C23.1651 15.374 23.6333 15.8384 23.6333 16.4111C23.6333 16.9834 23.1651 17.4478 22.5876 17.4478L21.4631 17.4478C20.8855 17.4478 20.4174 16.9834 20.4174 16.4111C20.4174 15.8384 20.8855 15.374 21.4631 15.374L22.5876 15.374ZM20.4076 11.6025C20.9851 11.6025 21.4533 12.0664 21.4533 12.6392C21.4533 13.2114 20.9851 13.6758 20.4076 13.6758L10.7644 13.6758C10.1869 13.6758 9.71868 13.2119 9.71868 12.6392C9.71868 12.0664 10.1869 11.6025 10.7644 11.6025L20.4076 11.6025Z" clip-rule="evenodd" fill="#000000" fill-opacity="0.898039" fill-rule="evenodd"/>
</svg>
