<svg viewBox="0 0 40 40" xmlns="http://www.w3.org/2000/svg" xmlns:xlink="http://www.w3.org/1999/xlink" width="40.000000" height="40.000000" fill="none" customFrame="url(#clipPath_0)">
	<defs>
		<clipPath id="clipPath_0">
			<rect width="40.000000" height="40.000000" x="0.000000" y="0.000000" rx="20.000000" fill="rgb(255,255,255)" />
		</clipPath>
		<clipPath id="clipPath_1">
			<rect width="32.000000" height="32.000000" x="4.000000" y="4.000000" fill="rgb(255,255,255)" />
		</clipPath>
	</defs>
	<rect id="icon_barrage_off" width="40.000000" height="40.000000" x="0.000000" y="0.000000" rx="20.000000" fill="rgb(0,0,0)" fill-opacity="0.400000006" />
	<g id="barrage_off" customFrame="url(#clipPath_1)">
		<rect id="barrage_off" width="32.000000" height="32.000000" x="4.000000" y="4.000000" />
		<rect id="矩形" width="32.000000" height="32.000000" x="4.000000" y="4.000000" fill="rgb(216,216,216)" fill-opacity="0" />
		<rect id="矩形" width="31.000000" height="31.000000" x="4.500000" y="4.500000" stroke="rgb(151,151,151)" stroke-opacity="0" stroke-width="1" />
		<path id="形状结合" d="M19.6499 9.7642L19.4238 9.7637L19.0378 9.7637L18.8045 9.76405L18.5735 9.76466L18.3448 9.76551L18.1184 9.76668L17.8943 9.76809L17.7462 9.76917L17.5991 9.77039L17.3805 9.77243L17.1641 9.77477L16.9501 9.77738L16.7383 9.78026L16.5289 9.78341L16.3218 9.78683L16.1171 9.79054L15.9818 9.79314L15.7809 9.79731L15.5823 9.80172L15.4512 9.80484L15.3211 9.80808L15.1279 9.81315L14.9369 9.8185L14.7484 9.82413L14.6239 9.82802L14.5005 9.83203L14.3781 9.83618L14.2567 9.84045L14.0766 9.84709L13.9578 9.85166L13.84 9.85635L13.7233 9.86119L13.6075 9.86611L13.4928 9.87118L13.3792 9.87636L13.2665 9.88166L13.1549 9.8871L13.0443 9.89266L12.9348 9.89832L12.8262 9.90413L12.7187 9.91004L12.6122 9.9161C10.2125 10.0543 8.28033 11.9187 8.07839 14.2911C8.05762 14.535 8.03855 14.7821 8.02113 15.0325L8.01181 15.1694C7.93856 16.267 7.89732 17.426 7.88802 18.6465L7.88703 18.7994L7.88636 18.9529L7.88599 19.1071L7.88599 19.2617L7.88636 19.4159L7.88703 19.5693L7.88802 19.7222C7.88958 19.9256 7.89202 20.1272 7.89533 20.3272L7.89798 20.4769C7.90489 20.8443 7.91508 21.2117 7.92855 21.5789L7.93404 21.7231C7.94724 22.0589 7.96314 22.3894 7.98179 22.7147L7.98992 22.8538C8.00766 23.1502 8.02804 23.4464 8.05106 23.7424L8.06171 23.8767C8.06893 23.966 8.07635 24.0549 8.08402 24.1434C8.28726 26.4915 10.1865 28.3433 12.5602 28.508L12.6674 28.5153L12.7213 28.5189L12.8301 28.526L12.9399 28.533L13.0507 28.5398L13.1625 28.5464L13.2754 28.5529L13.3893 28.5593L13.5043 28.5655L13.6203 28.5716L13.7374 28.5775L13.8555 28.5832L13.9149 28.5861L14.0346 28.5916L14.1553 28.597L14.277 28.6022L14.3998 28.6073L14.5236 28.6123L14.6484 28.6171L14.7743 28.6218L14.9013 28.6263L15.0293 28.6306L15.2232 28.6369L15.3538 28.6408L15.5516 28.6465L15.6848 28.6502L15.8191 28.6536L16.0224 28.6586L16.1592 28.6616L16.2971 28.6646L16.4361 28.6674L16.6464 28.6713L16.8591 28.6749L17.0022 28.6772L17.1464 28.6792L17.2916 28.6811L17.5113 28.6837L17.6591 28.6853L17.808 28.6867L17.9579 28.6879L18.1088 28.689L18.3372 28.6904L18.4908 28.6912L18.6454 28.6917L18.801 28.6922L19.0364 28.6926L19.1947 28.6926C19.7571 28.6926 20.2131 28.2411 20.2131 27.684C20.2131 27.127 19.7571 26.6754 19.1947 26.6754L18.9617 26.6753L18.731 26.6748L18.5785 26.6743L18.3518 26.6732L18.2019 26.6724L17.9791 26.6708L17.8319 26.6696L17.6857 26.6682L17.5406 26.6667L17.3249 26.6642L17.1824 26.6623L17.041 26.6603L16.9006 26.6581L16.7613 26.6558L16.623 26.6534L16.4858 26.6508L16.3496 26.6481L16.1473 26.6437L16.0137 26.6406L15.8813 26.6373L15.7498 26.634L15.6194 26.6304L15.4901 26.6268L15.2981 26.621L15.1714 26.6169L15.0457 26.6128L14.9212 26.6085L14.7976 26.604L14.6751 26.5994L14.5537 26.5947L14.4934 26.5922L14.3735 26.5873L14.2547 26.5822L14.137 26.5769L14.0203 26.5715L13.9047 26.566L13.7901 26.5603L13.6766 26.5545L13.5642 26.5485L13.5083 26.5455L13.3974 26.5394L13.2876 26.533L13.1789 26.5265L13.0712 26.52L12.9645 26.5132L12.8589 26.5063L12.7025 26.4957C11.3295 26.4005 10.2309 25.3293 10.1133 23.9711C10.0305 23.0147 9.97467 22.0033 9.94583 20.9371L9.94214 20.7946L9.93878 20.6515C9.93556 20.508 9.93284 20.3636 9.93059 20.2182L9.92851 20.0725C9.92465 19.7803 9.92274 19.4843 9.92274 19.1844L9.92278 19.1095C9.92307 18.8351 9.92498 18.564 9.92851 18.2962L9.93059 18.1504C9.93398 17.9322 9.93842 17.7163 9.94394 17.5025L9.94779 17.3603L9.95196 17.2188L9.95645 17.0779C9.97583 16.4922 10.0035 15.9234 10.0396 15.3716L10.0484 15.2395L10.0529 15.1737L10.0622 15.0425L10.0718 14.9121C10.0832 14.7602 10.0952 14.6097 10.1079 14.4605C10.2247 13.0883 11.3424 12.0098 12.7304 11.9299L12.8333 11.9241L12.9371 11.9184L13.042 11.9127L13.1478 11.9073L13.2548 11.9019L13.3626 11.8966L13.4716 11.8915L13.5815 11.8865L13.6925 11.8816L13.8045 11.8768L13.9175 11.8721L14.0315 11.8676L14.1466 11.8631L14.2626 11.8588L14.4386 11.8525L14.5572 11.8485L14.737 11.8427L14.9191 11.8371L15.0418 11.8335L15.1655 11.8301L15.2902 11.8268L15.4159 11.8236L15.5426 11.8205L15.7346 11.816L15.8639 11.8132L16.0597 11.8092L16.2578 11.8055L16.3911 11.8032L16.593 11.7999L16.7972 11.7968L17.0037 11.7941L17.2124 11.7916L17.4235 11.7893L17.6368 11.7874L17.7803 11.7862L17.9248 11.7851L18.1434 11.7838L18.3643 11.7827L18.5129 11.7821L18.7376 11.7814L18.9646 11.781L19.1172 11.7809L19.3465 11.781L19.5725 11.7813L19.7219 11.7816L19.944 11.7823L20.164 11.7833L20.3817 11.7846L20.5971 11.7861L20.7395 11.7872L20.8809 11.7885L21.0213 11.7899L21.1607 11.7914L21.368 11.7938L21.5049 11.7956L21.7083 11.7985L21.9096 11.8017L22.1086 11.8051L22.3053 11.8088L22.4998 11.8127L22.6921 11.8168L22.8821 11.8213L23.0075 11.8244L23.1937 11.8293L23.3777 11.8344L23.4992 11.838L23.6794 11.8435L23.7983 11.8474L23.9749 11.8534L24.0913 11.8575L24.264 11.8639L24.4345 11.8706L24.6028 11.8775L24.7137 11.8823L24.8236 11.8872L24.9325 11.8922L25.0404 11.8973L25.1473 11.9025L25.2533 11.9079L25.3582 11.9133L25.4621 11.9189L25.565 11.9246C26.9471 12.002 28.0636 13.0699 28.19 14.4352L28.1969 14.5091L28.2329 14.9027L28.2661 15.2743L28.2967 15.6237L28.3197 15.8931L28.3341 16.0645L28.3519 16.2827L28.3703 16.5142L28.3816 16.6603L28.3953 16.8447L28.4046 16.9754L28.4146 17.1194L28.4222 17.2356C28.4576 17.7916 28.9414 18.2138 29.5028 18.1786C30.0641 18.1435 30.4904 17.6643 30.4549 17.1084L30.4523 17.069L30.4427 16.9255L30.4337 16.7954L30.4221 16.6354L30.4055 16.4167L30.3935 16.2627L30.3739 16.0195L30.3598 15.8492L30.3398 15.612L30.3211 15.3948L30.2926 15.0692L30.2553 14.6543L30.2183 14.251C29.9997 11.8906 28.0694 10.0445 25.6801 9.91056L25.5756 9.90479L25.4703 9.89916L25.3104 9.8909L25.2026 9.88553L25.0939 9.88028L24.9842 9.87516L24.8177 9.86768L24.7056 9.86285L24.5925 9.85811L24.4784 9.85352L24.3633 9.84901L24.189 9.84249L24.0124 9.83623L23.8934 9.83219L23.7735 9.82828L23.6526 9.82448L23.4695 9.81899L23.3462 9.81547L23.1594 9.81043L22.9705 9.80562L22.8433 9.80257L22.6507 9.79823L22.5211 9.79546L22.3905 9.79281L22.259 9.79028L22.1264 9.78786L21.9929 9.78556L21.7909 9.78233L21.5866 9.77935L21.3802 9.77663L21.2414 9.77496L21.1015 9.77341L20.89 9.7713L20.7477 9.77004L20.5326 9.76835L20.3152 9.76694L20.0956 9.76577L19.8739 9.76485L19.6499 9.7642ZM23.0858 15.7251C23.0858 15.2297 22.6807 14.8281 22.1809 14.8281L22.1809 14.8281L13.8368 14.8281C13.3371 14.8281 12.9319 15.2297 12.9319 15.7252C12.9319 16.2206 13.3371 16.6222 13.8368 16.6222L22.1809 16.6222C22.6807 16.6222 23.0858 16.2206 23.0858 15.7251ZM19.7734 18.9888C19.7734 18.4934 19.3683 18.0918 18.8686 18.0918L15.1008 18.0918C14.6011 18.0918 14.196 18.4934 14.196 18.9888C14.196 19.4843 14.6011 19.8859 15.1008 19.8859L18.8686 19.8859C19.3683 19.8859 19.7734 19.4843 19.7734 18.9888ZM24.0674 18.0918C24.5671 18.0918 24.9723 18.4934 24.9723 18.9888C24.9723 19.4843 24.5671 19.8859 24.0674 19.8859L23.0944 19.8859C22.5946 19.8859 22.1895 19.4843 22.1895 18.9888C22.1895 18.4934 22.5946 18.0918 23.0944 18.0918L24.0674 18.0918ZM27.1412 19.9745C24.4201 19.9745 22.1681 22.3472 22.1681 25.0996C22.1681 27.9469 24.4201 30.2247 27.1412 30.2247C29.8624 30.2247 32.1144 27.852 32.1144 25.0996C32.2082 22.3472 29.9562 19.9745 27.1412 19.9745ZM17.6054 21.3564C18.1052 21.3564 18.5103 21.758 18.5103 22.2535C18.5103 22.7489 18.1052 23.1505 17.6054 23.1505L14.3859 23.1505C13.8862 23.1505 13.4811 22.7489 13.4811 22.2535C13.4811 21.758 13.8862 21.3564 14.3859 21.3564L17.6054 21.3564L17.6054 21.3564ZM23.6294 25.126C23.6294 27.1292 25.2499 28.7683 27.1404 28.7683C29.1209 28.7683 30.7414 27.1292 30.6513 25.126C30.6513 23.1227 29.0309 21.4837 27.1404 21.4837C25.2499 21.4837 23.6294 23.1227 23.6294 25.126ZM25.8185 27.3887L29.3539 23.8536C29.5519 23.6556 29.5519 23.3445 29.3539 23.1465C29.1559 22.9485 28.8448 22.9485 28.6468 23.1465L25.1114 26.6816C24.9134 26.8796 24.9134 27.1907 25.1113 27.3887C25.3093 27.5867 25.6205 27.5867 25.8185 27.3887Z" fill="rgb(255,255,255)" fill-opacity="0.898039222" fill-rule="evenodd" />
	</g>
</svg>
