<svg viewBox="0 0 40 40" xmlns="http://www.w3.org/2000/svg" xmlns:xlink="http://www.w3.org/1999/xlink" width="40.000000" height="40.000000" fill="none" customFrame="url(#clipPath_2)">
	<defs>
		<clipPath id="clipPath_2">
			<rect width="40.000000" height="40.000000" x="0.000000" y="0.000000" rx="20.000000" fill="rgb(255,255,255)" />
		</clipPath>
		<clipPath id="clipPath_3">
			<rect width="32.000000" height="32.000000" x="4.000000" y="4.000000" fill="rgb(255,255,255)" />
		</clipPath>
	</defs>
	<rect id="icon_barrage_on" width="40.000000" height="40.000000" x="0.000000" y="0.000000" rx="20.000000" fill="rgb(0,0,0)" fill-opacity="0.400000006" />
	<g id="barrage_on" customFrame="url(#clipPath_3)">
		<rect id="barrage_on" width="32.000000" height="32.000000" x="4.000000" y="4.000000" />
		<rect id="矩形" width="32.000000" height="32.000000" x="4.000000" y="4.000000" fill="rgb(216,216,216)" fill-opacity="0" />
		<rect id="矩形" width="31.000000" height="31.000000" x="4.500000" y="4.500000" stroke="rgb(151,151,151)" stroke-opacity="0" stroke-width="1" />
		<path id="形状结合" d="M19.6499 9.75239L19.4238 9.75189L19.0378 9.75189L18.8045 9.75224L18.5735 9.75285L18.3448 9.7537L18.1184 9.75487L17.8943 9.75628L17.7462 9.75736L17.5991 9.75858L17.3805 9.76062L17.1641 9.76296L16.9501 9.76557L16.7383 9.76845L16.5289 9.7716L16.3218 9.77502L16.1171 9.77873L15.9818 9.78133L15.7809 9.7855L15.5823 9.78991L15.4512 9.79303L15.3211 9.79627L15.1279 9.80134L14.9369 9.80669L14.7484 9.81231L14.6239 9.81621L14.5005 9.82022L14.3781 9.82437L14.2567 9.82864L14.0766 9.83528L13.9578 9.83985L13.84 9.84454L13.7233 9.84937L13.6075 9.8543L13.4928 9.85937L13.3792 9.86455L13.2665 9.86985L13.1549 9.87529L13.0443 9.88085L12.9348 9.88651L12.8262 9.89232L12.7187 9.89823L12.6122 9.90429C10.2125 10.0425 8.28033 11.9069 8.07839 14.2792C8.05762 14.5232 8.03855 14.7703 8.02113 15.0207L8.01181 15.1576C7.93856 16.2552 7.89732 17.4142 7.88802 18.6347L7.88703 18.7876L7.88636 18.9411L7.88599 19.0953L7.88599 19.2499L7.88636 19.404L7.88703 19.5575L7.88802 19.7104C7.88958 19.9138 7.89202 20.1154 7.89533 20.3154L7.89798 20.4651C7.90489 20.8325 7.91508 21.1998 7.92855 21.5671L7.93404 21.7113C7.94724 22.0471 7.96314 22.3776 7.98179 22.7029L7.98992 22.842C8.00766 23.1384 8.02804 23.4346 8.05106 23.7306L8.06171 23.8649C8.06893 23.9542 8.07635 24.0431 8.08402 24.1316C8.28726 26.4797 10.1865 28.3315 12.5602 28.4962L12.6674 28.5035L12.7213 28.5071L12.8301 28.5142L12.9399 28.5212L13.0507 28.528L13.1625 28.5346L13.2754 28.5411L13.3893 28.5475L13.5043 28.5537L13.6203 28.5597L13.7374 28.5657L13.8555 28.5714L13.9149 28.5743L14.0346 28.5798L14.1553 28.5852L14.277 28.5904L14.3998 28.5955L14.5236 28.6005L14.6484 28.6053L14.7743 28.6099L14.9013 28.6144L15.0293 28.6188L15.2232 28.625L15.3538 28.629L15.5516 28.6347L15.6848 28.6383L15.8191 28.6418L16.0224 28.6467L16.1592 28.6498L16.2971 28.6528L16.4361 28.6556L16.6464 28.6595L16.8591 28.6631L17.0022 28.6653L17.1464 28.6674L17.2916 28.6693L17.5113 28.6719L17.6591 28.6735L17.808 28.6749L17.9579 28.6761L18.1088 28.6772L18.3372 28.6786L18.4908 28.6793L18.6454 28.6799L18.801 28.6804L19.0364 28.6808L19.1947 28.6808C19.7571 28.6808 20.2131 28.2292 20.2131 27.6722C20.2131 27.1152 19.7571 26.6636 19.1947 26.6636L18.9617 26.6634L18.731 26.663L18.5785 26.6625L18.3518 26.6614L18.2019 26.6606L17.9791 26.659L17.8319 26.6578L17.6857 26.6564L17.5406 26.6549L17.3249 26.6524L17.1824 26.6505L17.041 26.6485L16.9006 26.6463L16.7613 26.644L16.623 26.6415L16.4858 26.639L16.3496 26.6362L16.1473 26.6319L16.0137 26.6288L15.8813 26.6255L15.7498 26.6221L15.6194 26.6186L15.4901 26.6149L15.2981 26.6092L15.1714 26.6051L15.0457 26.601L14.9212 26.5967L14.7976 26.5922L14.6751 26.5876L14.5537 26.5829L14.4934 26.5804L14.3735 26.5755L14.2547 26.5704L14.137 26.5651L14.0203 26.5597L13.9047 26.5542L13.7901 26.5485L13.6766 26.5427L13.5642 26.5367L13.5083 26.5337L13.3974 26.5275L13.2876 26.5212L13.1789 26.5147L13.0712 26.5081L12.9645 26.5014L12.8589 26.4945L12.7025 26.4839C11.3295 26.3887 10.2309 25.3175 10.1133 23.9593C10.0305 23.0029 9.97467 21.9915 9.94583 20.9253L9.94214 20.7828L9.93878 20.6397C9.93556 20.4962 9.93284 20.3518 9.93059 20.2064L9.92851 20.0606C9.92465 19.7685 9.92274 19.4725 9.92274 19.1726L9.92278 19.0977C9.92307 18.8233 9.92498 18.5522 9.92851 18.2843L9.93059 18.1386C9.93398 17.9204 9.93842 17.7044 9.94394 17.4907L9.94779 17.3485L9.95196 17.2069L9.95645 17.066C9.97583 16.4804 10.0035 15.9116 10.0396 15.3598L10.0484 15.2277L10.0529 15.1619L10.0622 15.0307L10.0718 14.9003C10.0832 14.7484 10.0952 14.5979 10.1079 14.4487C10.2247 13.0765 11.3424 11.998 12.7304 11.9181L12.8333 11.9123L12.9371 11.9066L13.042 11.9009L13.1478 11.8955L13.2548 11.8901L13.3626 11.8848L13.4716 11.8797L13.5815 11.8747L13.6925 11.8698L13.8045 11.865L13.9175 11.8603L14.0315 11.8558L14.1466 11.8513L14.2626 11.847L14.4386 11.8407L14.5572 11.8367L14.737 11.8309L14.9191 11.8253L15.0418 11.8217L15.1655 11.8183L15.2902 11.815L15.4159 11.8117L15.5426 11.8087L15.7346 11.8042L15.8639 11.8014L16.0597 11.7974L16.2578 11.7937L16.3911 11.7913L16.593 11.7881L16.7972 11.785L17.0037 11.7823L17.2124 11.7798L17.4235 11.7775L17.6368 11.7756L17.7803 11.7744L17.9248 11.7733L18.1434 11.772L18.3643 11.7709L18.5129 11.7703L18.7376 11.7696L18.9646 11.7692L19.1172 11.7691L19.3465 11.7692L19.5725 11.7695L19.7219 11.7698L19.944 11.7705L20.164 11.7715L20.3817 11.7728L20.5971 11.7743L20.7395 11.7754L20.8809 11.7767L21.0213 11.7781L21.1607 11.7796L21.368 11.782L21.5049 11.7838L21.7083 11.7867L21.9096 11.7899L22.1086 11.7933L22.3053 11.7969L22.4998 11.8009L22.6921 11.805L22.8821 11.8095L23.0075 11.8126L23.1937 11.8175L23.3777 11.8226L23.4992 11.8261L23.6794 11.8317L23.7983 11.8356L23.9749 11.8416L24.0913 11.8457L24.264 11.8521L24.4345 11.8588L24.6028 11.8657L24.7137 11.8705L24.8236 11.8754L24.9325 11.8804L25.0404 11.8855L25.1473 11.8907L25.2533 11.896L25.3582 11.9015L25.4621 11.9071L25.565 11.9127C26.9471 11.9902 28.0636 13.0581 28.19 14.4234L28.1969 14.4973L28.2329 14.8909L28.2661 15.2625L28.2967 15.6119L28.3197 15.8813L28.3341 16.0527L28.3519 16.2709L28.3703 16.5024L28.3816 16.6485L28.3953 16.8329L28.4046 16.9635L28.4146 17.1076L28.4222 17.2238C28.4576 17.7798 28.9414 18.2019 29.5028 18.1668C30.0641 18.1316 30.4904 17.6525 30.4549 17.0966L30.4523 17.0572L30.4427 16.9137L30.4337 16.7836L30.4221 16.6236L30.4055 16.4049L30.3935 16.2509L30.3739 16.0077L30.3598 15.8374L30.3398 15.6001L30.3211 15.383L30.2926 15.0573L30.2553 14.6425L30.2183 14.2392C29.9997 11.8788 28.0694 10.0327 25.6801 9.89875L25.5756 9.89298L25.4703 9.88735L25.3104 9.87909L25.2026 9.87372L25.0939 9.86847L24.9842 9.86335L24.8177 9.85587L24.7056 9.85104L24.5925 9.8463L24.4784 9.84171L24.3633 9.8372L24.189 9.83068L24.0124 9.82442L23.8934 9.82038L23.7735 9.81647L23.6526 9.81267L23.4695 9.80718L23.3462 9.80366L23.1594 9.79862L22.9705 9.79381L22.8433 9.79076L22.6507 9.78642L22.5211 9.78365L22.3905 9.781L22.259 9.77847L22.1264 9.77605L21.9929 9.77375L21.7909 9.77052L21.5866 9.76754L21.3802 9.76482L21.2414 9.76315L21.1015 9.7616L20.89 9.75949L20.7477 9.75823L20.5326 9.75654L20.3152 9.75513L20.0956 9.75396L19.8739 9.75304L19.6499 9.75239ZM23.0858 15.7134C23.0858 15.2179 22.6807 14.8163 22.1809 14.8163L22.1809 14.8164L13.8368 14.8164C13.3371 14.8164 12.9319 15.218 12.9319 15.7134C12.9319 16.2088 13.3371 16.6105 13.8368 16.6105L22.1809 16.6105C22.6807 16.6105 23.0858 16.2088 23.0858 15.7134ZM19.7734 18.9771C19.7734 18.4816 19.3683 18.08 18.8686 18.08L15.1008 18.08C14.6011 18.08 14.196 18.4816 14.196 18.9771C14.196 19.4725 14.6011 19.8741 15.1008 19.8741L18.8686 19.8741C19.3683 19.8741 19.7734 19.4725 19.7734 18.9771ZM24.0674 18.08C24.5671 18.08 24.9723 18.4816 24.9723 18.9771C24.9723 19.4725 24.5671 19.8741 24.0674 19.8741L23.0944 19.8741C22.5946 19.8741 22.1895 19.4725 22.1895 18.9771C22.1895 18.4816 22.5946 18.08 23.0944 18.08L24.0674 18.08ZM27.1412 19.997C24.4201 19.997 22.1681 22.3697 22.1681 25.1221C22.1681 27.9694 24.4201 30.2472 27.1412 30.2472C29.8624 30.2472 32.1144 27.8745 32.1144 25.1221C32.2082 22.3697 29.9562 19.997 27.1412 19.997ZM17.6054 21.3447C18.1052 21.3447 18.5103 21.7463 18.5103 22.2417C18.5103 22.7371 18.1052 23.1388 17.6054 23.1388L14.3859 23.1388C13.8862 23.1388 13.4811 22.7371 13.4811 22.2417C13.4811 21.7463 13.8862 21.3447 14.3859 21.3447L17.6054 21.3447L17.6054 21.3447ZM23.6294 25.126C23.6294 27.1293 25.2499 28.7683 27.1404 28.7683C29.1209 28.7683 30.7414 27.1293 30.6513 25.126C30.6513 23.1227 29.0309 21.4837 27.1404 21.4837C25.2499 21.4837 23.6294 23.1227 23.6294 25.126ZM29.9241 23.7578C29.6531 23.4837 29.2918 23.4837 29.0209 23.7578L26.7628 26.0417L25.408 24.6714C25.137 24.3973 24.7757 24.3973 24.5048 24.6714C24.2338 24.9454 24.2338 25.3109 24.5048 25.5849L26.3112 27.4121C26.5822 27.6862 26.9435 27.6862 27.2144 27.4121L29.9241 24.6714C30.1951 24.3973 30.1951 24.0318 29.9241 23.7578Z" fill="rgb(124,115,255)" fill-rule="evenodd" />
		<path id="形状结合" d="M19.4238 9.75189L19.6499 9.75239L19.8739 9.75304L20.0956 9.75396L20.3152 9.75513L20.5326 9.75654L20.7477 9.75823L20.89 9.75949L21.1015 9.7616L21.2414 9.76315L21.3802 9.76482L21.5866 9.76754L21.7909 9.77052L21.9929 9.77375L22.1264 9.77605L22.259 9.77847L22.3905 9.781L22.5211 9.78365L22.6507 9.78642L22.8433 9.79076L22.9705 9.79381L23.1594 9.79862L23.3462 9.80366L23.4695 9.80718L23.6526 9.81267L23.7735 9.81647L23.8934 9.82038L24.0124 9.82442L24.189 9.83068L24.3633 9.8372L24.4784 9.84171L24.5925 9.8463L24.7056 9.85104L24.8177 9.85587L24.9842 9.86335L25.0939 9.86847L25.2026 9.87372L25.3104 9.87909L25.4703 9.88735L25.5756 9.89298L25.6801 9.89875C28.0694 10.0327 29.9997 11.8788 30.2183 14.2392L30.2553 14.6425L30.2926 15.0573L30.3211 15.383L30.3398 15.6001L30.3598 15.8374L30.3739 16.0077L30.3935 16.2509L30.4055 16.4049L30.4221 16.6236L30.4337 16.7836L30.4427 16.9137L30.4523 17.0572L30.4549 17.0966C30.4562 17.1182 30.4569 17.1398 30.4569 17.1612C30.4569 17.6892 30.0422 18.133 29.5028 18.1668C28.9414 18.2019 28.4576 17.7798 28.4222 17.2238L28.4146 17.1076L28.4046 16.9635L28.3953 16.8329L28.3816 16.6485L28.3703 16.5024L28.3519 16.2709L28.3341 16.0527L28.3197 15.8813L28.2967 15.6119L28.2661 15.2625L28.2329 14.8909L28.1969 14.4973L28.19 14.4234C28.0636 13.0581 26.9471 11.9902 25.565 11.9127L25.4621 11.9071L25.3582 11.9015L25.2533 11.896L25.1473 11.8907L25.0404 11.8855L24.9325 11.8804L24.8236 11.8754L24.7137 11.8705L24.6028 11.8657L24.4345 11.8588L24.264 11.8521L24.0913 11.8457L23.9749 11.8416L23.7983 11.8356L23.6794 11.8317L23.4992 11.8261L23.3777 11.8226L23.1937 11.8175L23.0075 11.8126L22.8821 11.8095L22.6921 11.805L22.4998 11.8009L22.3053 11.7969L22.1086 11.7933L21.9096 11.7899L21.7083 11.7867L21.5049 11.7838L21.368 11.782L21.1607 11.7796L21.0213 11.7781L20.8809 11.7767L20.7395 11.7754L20.5971 11.7743L20.3817 11.7728L20.164 11.7715L19.944 11.7705L19.7219 11.7698L19.5725 11.7695L19.3465 11.7692L19.1172 11.7691L18.9646 11.7692L18.7376 11.7696L18.5129 11.7703L18.3643 11.7709L18.1434 11.772L17.9248 11.7733L17.7803 11.7744L17.6368 11.7756L17.4235 11.7775L17.2124 11.7798L17.0037 11.7823L16.7972 11.785L16.593 11.7881L16.3911 11.7913L16.2578 11.7937L16.0597 11.7974L15.8639 11.8014L15.7346 11.8042L15.5426 11.8087L15.4159 11.8117L15.2902 11.815L15.1655 11.8183L15.0418 11.8217L14.9191 11.8253L14.737 11.8309L14.5572 11.8367L14.4386 11.8407L14.2626 11.847L14.1466 11.8513L14.0315 11.8558L13.9175 11.8603L13.8045 11.865L13.6925 11.8698L13.5815 11.8747L13.4716 11.8797L13.3626 11.8848L13.2548 11.8901L13.1478 11.8955L13.042 11.9009L12.9371 11.9066L12.8333 11.9123L12.7304 11.9181C11.3424 11.998 10.2247 13.0765 10.1079 14.4487C10.0952 14.5979 10.0832 14.7484 10.0718 14.9003L10.0622 15.0307L10.0529 15.1619L10.0484 15.2277L10.0396 15.3598C10.0035 15.9116 9.97583 16.4804 9.95645 17.066L9.95196 17.2069L9.94779 17.3485L9.94394 17.4907C9.93842 17.7044 9.93398 17.9204 9.93059 18.1386L9.92851 18.2843C9.92498 18.5522 9.92307 18.8233 9.92278 19.0977L9.92274 19.1726C9.92274 19.4725 9.92465 19.7685 9.92851 20.0606L9.93059 20.2064C9.93284 20.3518 9.93556 20.4962 9.93878 20.6397L9.94214 20.7828L9.94583 20.9253C9.97467 21.9915 10.0305 23.0029 10.1133 23.9593C10.2309 25.3175 11.3295 26.3887 12.7025 26.4839L12.8589 26.4945L12.9645 26.5014L13.0712 26.5081L13.1789 26.5147L13.2876 26.5212L13.3974 26.5275L13.5083 26.5337L13.5642 26.5367L13.6766 26.5427L13.7901 26.5485L13.9047 26.5542L14.0203 26.5597L14.137 26.5651L14.2547 26.5704L14.3735 26.5755L14.4934 26.5804L14.5537 26.5829L14.6751 26.5876L14.7976 26.5922L14.9212 26.5967L15.0457 26.601L15.1714 26.6051L15.2981 26.6092L15.4901 26.6149L15.6194 26.6186L15.7498 26.6221L15.8813 26.6255L16.0137 26.6288L16.1473 26.6319L16.3496 26.6362L16.4858 26.639L16.623 26.6415L16.7613 26.644L16.9006 26.6463L17.041 26.6485L17.1824 26.6505L17.3249 26.6524L17.5406 26.6549L17.6857 26.6564L17.8319 26.6578L17.9791 26.659L18.2019 26.6606L18.3518 26.6614L18.5785 26.6625L18.731 26.663L18.9617 26.6634L19.1947 26.6636C19.7571 26.6636 20.2131 27.1152 20.2131 27.6722C20.2131 28.2292 19.7571 28.6808 19.1947 28.6808L19.0364 28.6808L18.801 28.6804L18.6454 28.6799L18.4908 28.6793L18.3372 28.6786L18.1088 28.6772L17.9579 28.6761L17.808 28.6749L17.6591 28.6735L17.5113 28.6719L17.2916 28.6693L17.1464 28.6674L17.0022 28.6653L16.8591 28.6631L16.6464 28.6595L16.4361 28.6556L16.2971 28.6528L16.1592 28.6498L16.0224 28.6467L15.8191 28.6418L15.6848 28.6383L15.5516 28.6347L15.3538 28.629L15.2232 28.625L15.0293 28.6188L14.9013 28.6144L14.7743 28.6099L14.6484 28.6053L14.5236 28.6005L14.3998 28.5955L14.277 28.5904L14.1553 28.5852L14.0346 28.5798L13.9149 28.5743L13.8555 28.5714L13.7374 28.5657L13.6203 28.5597L13.5043 28.5537L13.3893 28.5475L13.2754 28.5411L13.1625 28.5346L13.0507 28.528L12.9399 28.5212L12.8301 28.5142L12.7213 28.5071L12.6674 28.5035L12.5602 28.4962C10.1865 28.3315 8.28726 26.4797 8.08402 24.1316C8.07635 24.0431 8.06893 23.9542 8.06171 23.8649L8.05106 23.7306C8.02804 23.4346 8.00766 23.1384 7.98992 22.842L7.98179 22.7029C7.96314 22.3776 7.94724 22.0471 7.93404 21.7113L7.92855 21.5671C7.91508 21.1998 7.90489 20.8325 7.89798 20.4651L7.89533 20.3154Q7.89036 20.0154 7.88802 19.7104L7.88703 19.5575L7.88636 19.404L7.88599 19.2499L7.88599 19.0953L7.88636 18.9411L7.88703 18.7876L7.88802 18.6347C7.89732 17.4142 7.93856 16.2552 8.01181 15.1576L8.02113 15.0207C8.03855 14.7703 8.05762 14.5232 8.07839 14.2792C8.28033 11.9069 10.2125 10.0425 12.6122 9.90429L12.7187 9.89823L12.8262 9.89232L12.9348 9.88651L13.0443 9.88085L13.1549 9.87529L13.2665 9.86985L13.3792 9.86455L13.4928 9.85937L13.6075 9.8543L13.7233 9.84937L13.84 9.84454L13.9578 9.83985L14.0766 9.83528L14.2567 9.82864L14.3781 9.82437L14.5005 9.82022L14.6239 9.81621L14.7484 9.81231L14.9369 9.80669L15.1279 9.80134L15.3211 9.79627L15.4512 9.79303L15.5823 9.78991L15.7809 9.7855L15.9818 9.78133L16.1171 9.77873L16.3218 9.77502L16.5289 9.7716L16.7383 9.76845L16.9501 9.76557L17.1641 9.76296L17.3805 9.76062L17.5991 9.75858L17.7462 9.75736L17.8943 9.75628L18.1184 9.75487L18.3448 9.7537L18.5735 9.75285L18.8045 9.75224L19.0378 9.75189L19.4238 9.75189ZM19.6477 10.7524L19.647 10.7524L19.4216 10.7519L19.0378 10.7519L18.806 10.7522L18.5761 10.7529L18.3484 10.7537L18.1236 10.7549L17.9006 10.7563L17.7535 10.7573L17.6074 10.7585L17.3898 10.7606L17.175 10.7629L16.9623 10.7655L16.752 10.7684L16.544 10.7715L16.3384 10.7749L16.1352 10.7786L16.0011 10.7811L15.8017 10.7853L15.6045 10.7897L15.4749 10.7928L15.346 10.796L15.1541 10.801L14.9649 10.8063L14.7782 10.8119L14.6552 10.8157L14.533 10.8197L14.412 10.8238L14.2919 10.828L14.1134 10.8346L13.9963 10.8391L13.8798 10.8438L13.7646 10.8485L13.6501 10.8534L13.537 10.8584L13.4247 10.8635L13.3136 10.8687L13.2036 10.8741L13.0945 10.8796L12.9863 10.8852L12.8797 10.8909L12.7736 10.8967L12.6689 10.9027Q12.2713 10.9256 11.8943 11.0259L11.8942 11.0259L11.8942 11.0259Q11.6035 11.1033 11.3251 11.2268Q11.0147 11.3644 10.7373 11.551Q10.4599 11.7377 10.2155 11.9736Q9.94039 12.239 9.72726 12.5474L9.7272 12.5474L9.72719 12.5474Q9.56242 12.7858 9.43469 13.0498Q9.29605 13.3363 9.20877 13.6378L9.20877 13.6378Q9.10657 13.9907 9.07479 14.3641L9.01816 15.0977L9.0095 15.2255Q8.90172 16.8405 8.88799 18.6423L8.88701 18.7941L8.88636 18.9454L8.88598 19.0977L8.88599 19.2499L8.88636 19.4016L8.88702 19.5532L8.888 19.7039L8.89526 20.3033L8.89783 20.4474L8.90767 20.8864L8.92806 21.5358L8.93332 21.6733L8.98063 22.6548L8.98822 22.7836L8.9971 22.9284L9.0486 23.6605L9.05858 23.7859L9.08054 24.0482C9.11992 24.5032 9.23855 24.9362 9.43643 25.3473C9.62911 25.7477 9.88574 26.1041 10.2063 26.4167C10.5274 26.7298 10.8923 26.979 11.3008 27.1641Q11.5705 27.2864 11.8523 27.3652L11.8523 27.3652L11.8523 27.3652Q12.23 27.4709 12.6294 27.4986L12.7355 27.5058L12.7882 27.5093L12.8953 27.5163L13.003 27.5232L13.1119 27.5298L13.222 27.5364L13.3329 27.5428L13.445 27.549L13.5583 27.5551L13.6724 27.5611L13.7878 27.5669L13.9043 27.5726L13.9626 27.5754L14.0808 27.5809L14.1999 27.5862L14.3199 27.5913L14.4414 27.5964L14.5635 27.6013L14.6867 27.606L14.8114 27.6106L14.9367 27.6151L15.0632 27.6194L15.2555 27.6256L15.3843 27.6295L15.5804 27.6351L15.7119 27.6387L15.8449 27.6422L16.0466 27.647L16.1819 27.6501L16.3185 27.653L16.4563 27.6558L16.665 27.6597L16.876 27.6633L17.0178 27.6655L17.1607 27.6675L17.3048 27.6694L17.5231 27.672L17.6696 27.6735L17.8174 27.6749L17.9662 27.6761L18.1161 27.6772L18.3433 27.6786L18.4956 27.6794L18.6492 27.6799L18.8037 27.6804L19.0384 27.6808L19.1947 27.6808C19.2017 27.6808 19.2071 27.6789 19.2111 27.6749C19.2124 27.6736 19.2131 27.6727 19.2131 27.6722C19.2131 27.6717 19.2124 27.6708 19.2111 27.6695C19.2071 27.6656 19.2016 27.6636 19.1947 27.6636L18.961 27.6634L18.729 27.663L18.5751 27.6625L18.3472 27.6614L18.1961 27.6605L17.9722 27.659L17.8235 27.6577L17.6764 27.6564L17.5301 27.6548L17.3132 27.6523L17.1692 27.6504L17.0267 27.6484L16.8852 27.6462L16.7448 27.6439L16.6052 27.6414L16.467 27.6388L16.3296 27.636L16.1256 27.6316L15.9906 27.6285L15.8568 27.6252L15.7241 27.6218L15.5925 27.6183L15.4616 27.6145L15.268 27.6087L15.1396 27.6046L15.0127 27.6004L14.8865 27.5961L14.7616 27.5916L14.6374 27.5869L14.5147 27.5821L14.4534 27.5796L14.3321 27.5746L14.2119 27.5695L14.0924 27.5641L13.9741 27.5587L13.8569 27.553L13.7406 27.5473L13.6255 27.5414L13.5112 27.5353L13.4542 27.5322L13.3419 27.526L13.23 27.5196L13.1194 27.513L13.0101 27.5063L12.9013 27.4994L12.7937 27.4924L12.6349 27.4816C12.1758 27.4498 11.7383 27.3396 11.3224 27.151C10.918 26.9677 10.5569 26.7211 10.239 26.4112C9.92058 26.1007 9.66536 25.746 9.47335 25.347Q9.33138 25.0521 9.24373 24.7418L9.24373 24.7417Q9.14799 24.4028 9.11707 24.0455Q8.99024 22.5808 8.94619 20.9523L8.94247 20.8087L8.93905 20.6631L8.93077 20.2252L8.92861 20.0749L8.92276 19.1791L8.92278 19.097L8.92853 18.2773L8.93069 18.1243L8.94415 17.4701L8.94816 17.3214L8.95239 17.1775L8.95696 17.0342C8.97672 16.437 9.00496 15.8571 9.04169 15.2946L9.05058 15.1612L9.05524 15.0934L9.06469 14.96L9.07449 14.8268L9.11114 14.3689Q9.14532 13.9671 9.26008 13.5899L9.26009 13.5899L9.26009 13.5899L9.26009 13.5899L9.2601 13.5899Q9.34421 13.3134 9.47161 13.0501Q9.60668 12.7709 9.78298 12.5209L9.78298 12.5208L9.78299 12.5208Q9.98772 12.2304 10.2481 11.9792Q10.4899 11.7458 10.7645 11.561L10.7645 11.561L10.7645 11.561L10.7645 11.561Q11.039 11.3762 11.3462 11.2401Q11.6355 11.1118 11.9377 11.0339Q12.2962 10.9414 12.6729 10.9198L12.7765 10.9139L12.8823 10.9081L12.9883 10.9024L13.0963 10.8968L13.2044 10.8913L13.3142 10.886L13.4243 10.8808L13.5362 10.8757L13.6482 10.8707L13.762 10.8659L13.876 10.8612L13.9916 10.8565L14.1081 10.8521L14.2253 10.8477L14.403 10.8413L14.5232 10.8373L14.7047 10.8314L14.8886 10.8258L15.0127 10.8222L15.1376 10.8187L15.2635 10.8153L15.3903 10.8121L15.5182 10.8089L15.7115 10.8045L15.8421 10.8016L16.0393 10.7976L16.239 10.7939L16.3735 10.7915L16.5768 10.7882L16.7824 10.7851L16.9903 10.7824L17.2004 10.7798L17.4129 10.7776L17.6276 10.7756L17.7721 10.7744L17.9175 10.7734L18.1372 10.772L18.3594 10.7709L18.5089 10.7703L18.7347 10.7696L18.9629 10.7692L19.1165 10.7691L19.3468 10.7692L19.5738 10.7695L19.7241 10.7698L19.9474 10.7705L20.1685 10.7715L20.3874 10.7728L20.6041 10.7743L20.7478 10.7755L20.8897 10.7767L21.0313 10.7781L21.1715 10.7796L21.3797 10.7821L21.5179 10.7839L21.7226 10.7868L21.9252 10.79L22.1257 10.7934L22.324 10.7971L22.52 10.8011L22.7138 10.8053L22.9055 10.8098L23.0322 10.8129L23.2199 10.8178L23.4055 10.823L23.5285 10.8266L23.7102 10.8322L23.8309 10.8361L24.0087 10.8421L24.1267 10.8463L24.3012 10.8528L24.4737 10.8596L24.6439 10.8666L24.7568 10.8714L24.8679 10.8764L24.9784 10.8814L25.0878 10.8866L25.196 10.8919L25.3037 10.8973L25.41 10.9028L25.5157 10.9085L25.6201 10.9143C26.0816 10.9401 26.5225 11.0455 26.9429 11.2303C27.3515 11.4099 27.717 11.654 28.0396 11.9624C28.3627 12.2715 28.6223 12.6257 28.8185 13.0252C29.0209 13.4373 29.1433 13.8727 29.1858 14.3312L29.1926 14.4052L29.2287 14.7999L29.2622 15.1732L29.2929 15.5246L29.3161 15.7963L29.3306 15.9693L29.3486 16.1893L29.3672 16.4232L29.3786 16.5717L29.3925 16.7586L29.4021 16.8922L29.4122 17.0389L29.42 17.1585C29.4202 17.1603 29.4211 17.162 29.4228 17.1635C29.4273 17.1675 29.4331 17.1692 29.4403 17.1688Q29.4492 17.1682 29.4543 17.1635L29.4555 17.1623L29.4569 17.1603L29.4544 17.1213L29.445 16.9803L29.4361 16.8533L29.4247 16.6959L29.4084 16.4804L29.3965 16.3289L29.3771 16.088L29.3632 15.9196L29.3434 15.6841L29.3248 15.4688L29.2964 15.1448L29.2593 14.732L29.2225 14.3305Q29.1888 13.9665 29.088 13.6222L29.088 13.6222L29.0876 13.6211Q28.998 13.3152 28.8554 13.0249C28.6585 12.6239 28.3974 12.2679 28.072 11.9567Q27.8277 11.7231 27.5509 11.5382L27.5493 11.5372Q27.2729 11.3528 26.964 11.217C26.5387 11.03 26.0921 10.9234 25.6241 10.8972L25.5205 10.8915L25.4169 10.8859L25.2588 10.8778L25.1529 10.8725L25.0456 10.8673L24.9376 10.8623L24.7728 10.8549L24.6625 10.8501L24.5506 10.8454L24.4381 10.8409L24.3242 10.8364L24.1516 10.83L23.9769 10.8238L23.8595 10.8198L23.7409 10.8159L23.6212 10.8122L23.4396 10.8067L23.3177 10.8033L23.1324 10.7983L22.945 10.7935L22.8193 10.7905L22.6282 10.7862L22.4998 10.7834L22.3702 10.7808L22.2397 10.7783L22.1082 10.7759L21.9757 10.7736L21.7749 10.7704L21.572 10.7674L21.367 10.7647L21.2294 10.7631L21.0905 10.7615L20.88 10.7594L20.7388 10.7582L20.5247 10.7565L20.3087 10.7551L20.0903 10.7539L19.8697 10.753L19.6477 10.7524ZM22.1809 14.8163C22.6807 14.8163 23.0858 15.2179 23.0858 15.7134C23.0858 16.2088 22.6807 16.6105 22.1809 16.6105L13.8368 16.6105C13.3371 16.6105 12.9319 16.2088 12.9319 15.7134C12.9319 15.218 13.3371 14.8164 13.8368 14.8164L22.1809 14.8164L22.1809 14.8163ZM18.8686 18.08C19.3683 18.08 19.7734 18.4816 19.7734 18.9771C19.7734 19.4725 19.3683 19.8741 18.8686 19.8741L15.1008 19.8741C14.6011 19.8741 14.196 19.4725 14.196 18.9771C14.196 18.4816 14.6011 18.08 15.1008 18.08L18.8686 18.08ZM24.0674 18.08C24.5671 18.08 24.9723 18.4816 24.9723 18.9771C24.9723 19.4725 24.5671 19.8741 24.0674 19.8741L23.0944 19.8741C22.5946 19.8741 22.1895 19.4725 22.1895 18.9771C22.1895 18.4816 22.5946 18.08 23.0944 18.08L24.0674 18.08ZM22.1681 25.1221C22.1681 22.3697 24.4201 19.997 27.1412 19.997C29.8995 19.997 32.1172 22.275 32.1172 24.9562C32.1172 25.0113 32.1163 25.0666 32.1144 25.1221C32.1144 27.8745 29.8624 30.2472 27.1412 30.2472C24.4201 30.2472 22.1681 27.9694 22.1681 25.1221ZM17.6054 21.3447C18.1052 21.3447 18.5103 21.7463 18.5103 22.2417C18.5103 22.7371 18.1052 23.1388 17.6054 23.1388L14.3859 23.1388C13.8862 23.1388 13.4811 22.7371 13.4811 22.2417C13.4811 21.7463 13.8862 21.3447 14.3859 21.3447L17.6054 21.3447L17.6054 21.3447ZM23.6294 25.126C23.6294 27.1293 25.2499 28.7683 27.1404 28.7683C29.0682 28.7683 30.6549 27.2153 30.6549 25.285C30.6549 25.2323 30.6537 25.1793 30.6513 25.126C30.6513 23.1227 29.0309 21.4837 27.1404 21.4837C25.2499 21.4837 23.6294 23.1227 23.6294 25.126ZM29.0209 23.7578C29.2918 23.4837 29.6531 23.4837 29.9241 23.7578C30.0596 23.8948 30.1273 24.0547 30.1273 24.2146C30.1273 24.3744 30.0596 24.5343 29.9241 24.6714L27.2144 27.4121C26.9435 27.6862 26.5822 27.6862 26.3112 27.4121L24.5048 25.5849C24.3693 25.4479 24.3015 25.288 24.3015 25.1282C24.3015 24.9683 24.3693 24.8084 24.5048 24.6714C24.7757 24.3973 25.137 24.3973 25.408 24.6714L26.7628 26.0417L29.0209 23.7578Z" fill="rgb(151,151,151)" fill-opacity="0" fill-rule="evenodd" />
	</g>
</svg>
