<svg viewBox="0 0 40 40" xmlns="http://www.w3.org/2000/svg" xmlns:xlink="http://www.w3.org/1999/xlink" width="40.000000" height="40.000000" fill="none" customFrame="url(#clipPath_4)">
	<defs>
		<clipPath id="clipPath_4">
			<rect width="40.000000" height="40.000000" x="0.000000" y="0.000000" rx="20.000000" fill="rgb(255,255,255)" />
		</clipPath>
		<clipPath id="clipPath_5">
			<rect width="32.000000" height="32.000000" x="4.000000" y="4.000000" fill="rgb(255,255,255)" />
		</clipPath>
	</defs>
	<rect id="icon_barrage_setting" width="40.000000" height="40.000000" x="0.000000" y="0.000000" rx="20.000000" fill="rgb(0,0,0)" fill-opacity="0.400000006" />
	<g id="barrage_setting" customFrame="url(#clipPath_5)">
		<rect id="barrage_setting" width="32.000000" height="32.000000" x="4.000000" y="4.000000" />
		<rect id="矩形" width="32.000000" height="32.000000" x="4.000000" y="4.000000" fill="rgb(216,216,216)" fill-opacity="0" />
		<rect id="矩形" width="31.000000" height="31.000000" x="4.500000" y="4.500000" stroke="rgb(151,151,151)" stroke-opacity="0" stroke-width="1" />
		<path id="形状" d="M27.8112 19.8387L27.8217 19.8449L31.6374 22.0039C31.9284 22.1652 32.1095 22.4706 32.1137 22.7981L32.1137 27.1485C32.1137 27.4764 31.9412 27.7785 31.653 27.9482L31.6427 27.9541L27.8271 30.1236C27.5364 30.29 27.1832 30.2921 26.8909 30.1299L26.8799 30.1236L23.0642 27.9541C22.7786 27.7876 22.5975 27.4873 22.5933 27.16L22.5933 22.82C22.5933 22.4922 22.7658 22.19 23.054 22.0203L23.0642 22.0144L26.8852 19.8449C27.1706 19.6785 27.5291 19.6764 27.8112 19.8387ZM19.4238 9.75L19.6499 9.75049L19.8738 9.75115L20.0956 9.75206L20.3151 9.75324L20.5325 9.75464L20.7477 9.75633L20.8899 9.7576L21.1015 9.75971L21.2413 9.76126L21.3801 9.76292L21.5865 9.76565L21.7908 9.76862L21.9928 9.77186L22.1263 9.77416L22.2588 9.77658L22.3904 9.77911L22.521 9.78176L22.6506 9.78453L22.8432 9.78887L22.9704 9.79191L23.1593 9.79672L23.3461 9.80177L23.4694 9.80528L23.6525 9.81077L23.7734 9.81457L23.8933 9.81849L24.0122 9.82252L24.1888 9.82879L24.3632 9.83531L24.4782 9.83981L24.5923 9.84441L24.7054 9.84915L24.8176 9.85398L24.984 9.86146L25.0937 9.86657L25.2025 9.87183L25.3102 9.8772L25.4701 9.88546L25.5755 9.89108L25.6799 9.89685C28.0692 10.0308 29.9994 11.8769 30.218 14.2372L30.255 14.6405L30.2922 15.0553L30.3208 15.381L30.3395 15.5981L30.3595 15.8354L30.3736 16.0056L30.3932 16.2489L30.4052 16.4028L30.4218 16.6216L30.4334 16.7815L30.4424 16.9116L30.452 17.0551L30.4546 17.0945C30.4559 17.1162 30.4566 17.1377 30.4566 17.1591C30.4566 17.6871 30.0419 18.1309 29.5025 18.1647C28.9412 18.1998 28.4574 17.7777 28.4219 17.2218L28.4143 17.1055L28.4044 16.9615L28.395 16.8309L28.3813 16.6464L28.3701 16.5003L28.3517 16.2689L28.3338 16.0506L28.3195 15.8793L28.2965 15.6098L28.2659 15.2604L28.2326 14.8889L28.1966 14.4953L28.1898 14.4214C28.0634 13.0561 26.9468 11.9883 25.5648 11.9108L25.4619 11.9051L25.358 11.8995L25.2531 11.8941L25.1472 11.8888L25.0403 11.8835L24.9324 11.8784L24.8234 11.8734L24.7135 11.8686L24.6026 11.8638L24.4344 11.8569L24.2639 11.8502L24.0911 11.8437L23.9747 11.8396L23.7982 11.8336L23.6793 11.8298L23.499 11.8242L23.3776 11.8206L23.1936 11.8155L23.0074 11.8106L22.8819 11.8076L22.692 11.8031L22.4997 11.7989L22.3052 11.795L22.1085 11.7913L21.9095 11.7879L21.7082 11.7848L21.5048 11.7819L21.3679 11.7801L21.1606 11.7776L21.0212 11.7761L20.8809 11.7747L20.7395 11.7735L20.5971 11.7723L20.3816 11.7708L20.1639 11.7696L19.944 11.7686L19.7218 11.7678L19.5724 11.7675L19.3465 11.7672L19.1172 11.7672L18.9646 11.7673L18.7376 11.7677L18.5129 11.7683L18.3643 11.7689L18.1434 11.77L17.9248 11.7714L17.7803 11.7724L17.6368 11.7736L17.4235 11.7756L17.2125 11.7778L17.0037 11.7803L16.7972 11.7831L16.593 11.7861L16.3912 11.7894L16.2578 11.7917L16.0597 11.7955L15.8639 11.7995L15.7347 11.8023L15.5427 11.8067L15.4159 11.8098L15.2902 11.813L15.1655 11.8163L15.0418 11.8198L14.9192 11.8234L14.7371 11.8289L14.5573 11.8347L14.4387 11.8388L14.2627 11.845L14.1467 11.8494L14.0316 11.8538L13.9176 11.8584L13.8046 11.863L13.6926 11.8678L13.5817 11.8727L13.4717 11.8777L13.3628 11.8829L13.2549 11.8881L13.1479 11.8935L13.0421 11.899L12.9372 11.9046L12.8334 11.9103L12.7305 11.9162C11.3425 11.9961 10.2249 13.0745 10.1081 14.4467C10.0954 14.5959 10.0834 14.7464 10.072 14.8982L10.0624 15.0287L10.0531 15.1598L10.0486 15.2257L10.0398 15.3578C10.0037 15.9095 9.97602 16.4783 9.95665 17.064L9.95215 17.2049L9.94799 17.3464L9.94413 17.4886C9.93862 17.7024 9.93417 17.9183 9.93079 18.1365L9.9287 18.2822C9.92518 18.5501 9.92326 18.8212 9.92298 19.0956L9.92293 19.1705C9.92293 19.4704 9.92485 19.7664 9.9287 20.0585L9.93079 20.2042C9.93303 20.3496 9.93575 20.494 9.93897 20.6375L9.94233 20.7806L9.94602 20.9231C9.97486 21.9893 10.0307 23.0006 10.1135 23.9571C10.2311 25.3152 11.3296 26.3864 12.7026 26.4816L12.859 26.4922L12.9646 26.4991L13.0713 26.5058L13.179 26.5124L13.2877 26.5189L13.3976 26.5252L13.5084 26.5314L13.5643 26.5344L13.6767 26.5404L13.7902 26.5462L13.9048 26.5519L14.0204 26.5574L14.1371 26.5628L14.2548 26.5681L14.3736 26.5732L14.4935 26.5781L14.5538 26.5805L14.6752 26.5853L14.7977 26.5899L14.9212 26.5944L15.0458 26.5987L15.1714 26.6028L15.2981 26.6069L15.4902 26.6126L15.6195 26.6163L15.7499 26.6198L15.8813 26.6232L16.0138 26.6264L16.1473 26.6295L16.3496 26.6339L16.4858 26.6367L16.623 26.6392L16.7613 26.6417L16.9006 26.644L17.041 26.6462L17.1824 26.6482L17.3249 26.65L17.5406 26.6526L17.6857 26.6541L17.8319 26.6555L17.9791 26.6567L18.2019 26.6583L18.3517 26.6591L18.5785 26.6602L18.731 26.6607L18.9616 26.6611L19.1947 26.6613C19.7571 26.6613 20.213 27.1129 20.213 27.6699C20.213 28.2269 19.7571 28.6785 19.1947 28.6785L19.0364 28.6785L18.801 28.678L18.6453 28.6776L18.4907 28.677L18.3372 28.6762L18.1088 28.6749L17.9579 28.6738L17.808 28.6725L17.6591 28.6711L17.5113 28.6696L17.2916 28.667L17.1464 28.6651L17.0022 28.663L16.8591 28.6608L16.6464 28.6572L16.4361 28.6533L16.2972 28.6504L16.1593 28.6475L16.0224 28.6444L15.8191 28.6395L15.6849 28.636L15.5517 28.6324L15.3539 28.6267L15.2233 28.6227L15.0293 28.6164L14.9014 28.6121L14.7744 28.6076L14.6485 28.6029L14.5237 28.5981L14.3998 28.5932L14.2771 28.5881L14.1553 28.5828L14.0347 28.5774L13.915 28.5719L13.8556 28.5691L13.7375 28.5633L13.6204 28.5574L13.5044 28.5513L13.3894 28.5451L13.2755 28.5388L13.1626 28.5323L13.0508 28.5256L12.94 28.5188L12.8302 28.5119L12.7215 28.5048L12.6675 28.5011L12.5603 28.4938C10.1867 28.3292 8.28749 26.4774 8.08426 24.1294C8.07659 24.0409 8.06917 23.952 8.06195 23.8627L8.0513 23.7284C8.02828 23.4324 8.0079 23.1362 7.99017 22.8398L7.98203 22.7007C7.96338 22.3754 7.94748 22.0449 7.93428 21.7091L7.92879 21.5649C7.91532 21.1977 7.90513 20.8303 7.89823 20.4629L7.89558 20.3133C7.89226 20.1133 7.88983 19.9116 7.88827 19.7083L7.88727 19.5554L7.88661 19.4019L7.88623 19.2478L7.88623 19.0931L7.88661 18.939L7.88727 18.7855L7.88827 18.6326C7.89756 17.4121 7.9388 16.2531 8.01205 15.1556L8.02137 15.0187C8.03879 14.7683 8.05786 14.5212 8.07863 14.2772C8.28056 11.905 10.2126 10.0406 12.6123 9.90239L12.7188 9.89634L12.8263 9.89043L12.9349 9.88461L13.0444 9.87896L13.155 9.8734L13.2666 9.86796L13.3793 9.86266L13.493 9.85747L13.6077 9.85241L13.7234 9.84748L13.8401 9.84265L13.9579 9.83796L14.0767 9.83338L14.2568 9.82675L14.3782 9.82248L14.5006 9.81833L14.624 9.81431L14.7484 9.81042L14.937 9.80479L15.1279 9.79944L15.3211 9.79438L15.4512 9.79114L15.5823 9.78802L15.781 9.78361L15.9819 9.77944L16.1171 9.77683L16.3219 9.77313L16.529 9.7697L16.7384 9.76656L16.9501 9.76367L17.1641 9.76107L17.3805 9.75873L17.5991 9.75669L17.7462 9.75547L17.8943 9.75439L18.1184 9.75298L18.3447 9.75181L18.5735 9.75096L18.8045 9.75035L19.0378 9.75L19.4238 9.75ZM24.3932 23.3146L27.3542 21.6334L30.3138 23.308L30.3138 26.6542L27.3535 28.3374L24.3932 26.6542L24.3932 23.3146ZM27.3652 23.7998C28.0257 23.7998 28.5612 24.3301 28.5612 24.9843C28.5612 25.6384 28.0257 26.1688 27.3652 26.1688C26.7047 26.1688 26.1692 25.6384 26.1692 24.9843C26.1692 24.3301 26.7047 23.7998 27.3652 23.7998ZM17.6054 21.3416C18.1051 21.3416 18.5102 21.7432 18.5102 22.2387C18.5102 22.7341 18.1051 23.1357 17.6054 23.1357L14.3859 23.1357C13.8862 23.1357 13.4811 22.7341 13.4811 22.2387C13.4811 21.7432 13.8862 21.3416 14.3859 21.3416L17.6054 21.3416L17.6054 21.3416ZM18.8684 18.0777C19.3682 18.0777 19.7733 18.4793 19.7733 18.9748C19.7733 19.4702 19.3682 19.8718 18.8684 19.8718L15.1008 19.8718C14.601 19.8718 14.1959 19.4702 14.1959 18.9748C14.1959 18.4793 14.601 18.0777 15.1008 18.0777L18.8684 18.0777ZM24.068 18.0777C24.5677 18.0777 24.9729 18.4793 24.9729 18.9748C24.9729 19.4702 24.5677 19.8718 24.068 19.8718L23.095 19.8718C22.5953 19.8718 22.1902 19.4702 22.1902 18.9748C22.1902 18.4793 22.5953 18.0777 23.095 18.0777L24.068 18.0777ZM22.1817 14.8138C22.6814 14.8138 23.0865 15.2154 23.0865 15.7108C23.0865 16.2062 22.6814 16.6079 22.1817 16.6079L13.8378 16.6079C13.3381 16.6079 12.9329 16.2063 12.9329 15.7108C12.9329 15.2154 13.3381 14.8138 13.8378 14.8138L22.1817 14.8138L22.1817 14.8138Z" fill="rgb(255,255,255)" fill-rule="evenodd" />
	</g>
</svg>
