<svg viewBox="0 0 40 40" xmlns="http://www.w3.org/2000/svg" xmlns:xlink="http://www.w3.org/1999/xlink" width="40.000000" height="40.000000" fill="none" customFrame="url(#clipPath_6)">
	<defs>
		<clipPath id="clipPath_6">
			<rect width="40.000000" height="40.000000" x="0.000000" y="0.000000" rx="20.000000" fill="rgb(255,255,255)" />
		</clipPath>
		<clipPath id="clipPath_7">
			<rect width="24.000000" height="24.000000" x="8.000000" y="8.000000" fill="rgb(255,255,255)" />
		</clipPath>
	</defs>
	<rect id="icon_screen" width="40.000000" height="40.000000" x="0.000000" y="0.000000" rx="20.000000" fill="rgb(0,0,0)" fill-opacity="0.400000006" />
	<g id="multi_screen_collaboration" clip-path="url(#clipPath_7)" customFrame="url(#clipPath_7)">
		<rect id="multi_screen_collaboration" width="24.000000" height="24.000000" x="8.000000" y="8.000000" />
		<rect id="rect" width="24.000000" height="24.000000" x="8.000000" y="8.000000" opacity="0" fill="rgb(0,0,0)" />
		<g id="g">
			<path id="path" d="M27.9401 28.95C28.4201 28.95 28.8668 28.83 29.2801 28.59C29.6868 28.35 30.0101 28.0267 30.2501 27.62C30.4901 27.2133 30.6101 26.77 30.6101 26.29L30.6101 18.08C30.6101 17.6 30.4901 17.16 30.2501 16.76C30.0101 16.36 29.6868 16.04 29.2801 15.8C28.8668 15.56 28.4201 15.44 27.9401 15.44L24.7501 15.44C24.2901 15.44 23.8534 15.56 23.4401 15.8C23.0334 16.04 22.7101 16.3633 22.4701 16.77C22.2301 17.1767 22.1101 17.6133 22.1101 18.08L22.1101 26.29C22.1101 26.77 22.2301 27.2133 22.4701 27.62C22.7101 28.0267 23.0301 28.35 23.4301 28.59C23.8301 28.83 24.2701 28.95 24.7501 28.95L27.9401 28.95ZM27.9401 16.93C28.2601 16.93 28.5334 17.04 28.7601 17.26C28.9868 17.4867 29.1001 17.76 29.1001 18.08L29.1001 26.29C29.1001 26.61 28.9868 26.88 28.7601 27.1C28.5334 27.3267 28.2601 27.44 27.9401 27.44L24.7501 27.44C24.4301 27.44 24.1601 27.3267 23.9401 27.1C23.7134 26.88 23.6001 26.61 23.6001 26.29L23.6001 18.08C23.6001 17.76 23.7168 17.4867 23.9501 17.26C24.1834 17.04 24.4501 16.93 24.7501 16.93L27.9401 16.93Z" fill="rgb(255,255,255)" fill-opacity="0.898039222" fill-rule="nonzero" />
			<path id="path" d="M11.9401 24.03C11.6468 24.03 11.3968 23.93 11.1901 23.73C10.9835 23.53 10.8801 23.2867 10.8801 23L10.8801 13.59C10.8801 13.3033 10.9835 13.06 11.1901 12.86C11.3968 12.66 11.6468 12.56 11.9401 12.56L24.3701 12.56C24.6435 12.56 24.8835 12.66 25.0901 12.86C25.2968 13.06 25.4001 13.3033 25.4001 13.59L25.4001 14.14L26.9101 14.14L26.9101 13.59C26.9101 13.13 26.7935 12.7067 26.5601 12.32C26.3335 11.9333 26.0268 11.6267 25.6401 11.4C25.2535 11.1667 24.8301 11.05 24.3701 11.05L11.9401 11.05C11.4735 11.05 11.0435 11.1667 10.6501 11.4C10.2568 11.6267 9.95014 11.9333 9.73014 12.32C9.50347 12.7067 9.39014 13.13 9.39014 13.59L9.39014 23C9.39014 23.4667 9.50347 23.89 9.73014 24.27C9.95014 24.6567 10.2568 24.9667 10.6501 25.2C11.0435 25.4267 11.4735 25.54 11.9401 25.54L20.7901 25.54L20.7901 24.03L11.9401 24.03Z" fill="rgb(255,255,255)" fill-opacity="0.898039222" fill-rule="nonzero" />
		</g>
	</g>
</svg>
