<svg width="24.000000" height="24.000000" viewBox="0 0 24 24" fill="none" xmlns="http://www.w3.org/2000/svg" xmlns:xlink="http://www.w3.org/1999/xlink">
	<desc>
			Created with Pixso.
	</desc>
	<defs>
		<clipPath id="clip118_26891">
			<rect id="paperplane" width="24.000000" height="24.000000" fill="white" fill-opacity="0"/>
		</clipPath>
	</defs>
	<g clip-path="url(#clip118_26891)">
		<g opacity="0.000000">
			<rect id="rect" width="24.000000" height="24.000000" fill="#000000" fill-opacity="1.000000"/>
		</g>
		<path id="path" d="M13.32 2.47C13.17 2.25 12.98 2.07 12.74 1.94C12.5 1.81 12.25 1.75 12 1.75C11.72 1.75 11.46 1.83 11.21 1.99C10.95 2.15 10.75 2.36 10.63 2.64L2.93 20.11C2.73 20.55 2.73 20.96 2.92 21.34C3.09 21.7 3.39 21.96 3.79 22.1C4.19 22.24 4.57 22.24 4.94 22.08L12 18.74L19.06 22.08C19.42 22.24 19.81 22.24 20.2 22.1C20.61 21.96 20.9 21.7 21.08 21.34C21.26 20.96 21.25 20.55 21.05 20.11L13.39 2.64L13.32 2.47ZM12.29 5.81C12.29 5.68 12.23 5.59 12.13 5.54C12.03 5.49 11.93 5.49 11.83 5.54C11.73 5.59 11.69 5.68 11.69 5.81L11.02 17.54L4.3 20.71L12 3.26L19.68 20.71L12.96 17.52L12.29 5.81Z" fill="#000000" fill-opacity="0.901961" fill-rule="nonzero"/>
	</g>
</svg>
