<svg width="14" height="14" viewBox="0 0 14 14" fill="none" xmlns="http://www.w3.org/2000/svg">
<g id="Frame">
<path id="Vector" d="M6.76677 2.21667L5.62344 4.5325C5.58169 4.61779 5.51974 4.69159 5.44299 4.7475C5.36624 4.80341 5.277 4.83974 5.18302 4.85333L2.62511 5.22375C2.51684 5.23898 2.41502 5.28432 2.33128 5.35462C2.24754 5.42491 2.18524 5.51733 2.15149 5.62132C2.11774 5.72532 2.11389 5.8367 2.14039 5.94278C2.16689 6.04885 2.22266 6.14535 2.30136 6.22125L4.15052 8.02667C4.21848 8.09254 4.2694 8.17396 4.29887 8.2639C4.32834 8.35384 4.33549 8.4496 4.31969 8.54292L3.88511 11.0833C3.86628 11.191 3.87806 11.3017 3.91911 11.403C3.96016 11.5043 4.02883 11.592 4.11729 11.6561C4.20575 11.7202 4.31045 11.7583 4.41946 11.7658C4.52847 11.7733 4.6374 11.7501 4.73386 11.6988L7.02052 10.5C7.10419 10.4561 7.19727 10.4331 7.29177 10.4331C7.38627 10.4331 7.47936 10.4561 7.56302 10.5L9.84969 11.7017C9.94638 11.7533 10.0557 11.7766 10.165 11.769C10.2743 11.7614 10.3793 11.7231 10.4679 11.6586C10.5565 11.594 10.6251 11.5058 10.6659 11.4041C10.7066 11.3024 10.7179 11.1912 10.6984 11.0833L10.2609 8.53709C10.2451 8.44377 10.2523 8.34801 10.2818 8.25807C10.3112 8.16812 10.3621 8.08671 10.4301 8.02083L12.2793 6.22125C12.3579 6.14554 12.4137 6.04928 12.4404 5.94342C12.467 5.83756 12.4634 5.72635 12.43 5.62243C12.3966 5.51851 12.3347 5.42606 12.2513 5.35558C12.1679 5.2851 12.0665 5.23943 11.9584 5.22375L9.40344 4.85333C9.30946 4.83974 9.22022 4.80341 9.14347 4.7475C9.06672 4.69159 9.00478 4.61779 8.96302 4.5325L7.81677 2.21667C7.76901 2.11804 7.69443 2.03487 7.60157 1.97667C7.50872 1.91847 7.40136 1.8876 7.29177 1.8876C7.18219 1.8876 7.07482 1.91847 6.98197 1.97667C6.88912 2.03487 6.81454 2.11804 6.76677 2.21667Z" fill="#FBB535"/>
</g>
</svg>
