<svg width="18.000000" height="18.000000" viewBox="0 0 18 18" fill="none" xmlns="http://www.w3.org/2000/svg" xmlns:xlink="http://www.w3.org/1999/xlink">
	<desc>
			Created with Pixso.
	</desc>
	<defs>
		<clipPath id="clip66_2064">
			<rect width="16.000000" height="16.000000" transform="translate(1.000000 1.000000)" fill="white" fill-opacity="0"/>
		</clipPath>
	</defs>
	<rect rx="9.000000" width="18.000000" height="18.000000" fill="#ED6F21" fill-opacity="1.000000"/>
	<g clip-path="url(#clip66_2064)">
		<g opacity="0.000000">
			<rect x="1.000000" y="1.000000" width="16.000000" height="16.000000" fill="#D8D8D8" fill-opacity="1.000000"/>
		</g>
		<path d="M14.64 4.85C14.84 4.65 15.15 4.65 15.35 4.85C15.53 5.03 15.54 5.3 15.4 5.5L8.06 12.85C7.5 13.41 6.61 13.43 6.02 12.93L5.93 12.85L2.64 9.56C2.45 9.36 2.45 9.04 2.64 8.85C2.82 8.67 3.1 8.65 3.29 8.8L6.64 12.14C6.82 12.32 7.1 12.34 7.29 12.19L14.64 4.85Z" fill="#FFFFFF" fill-opacity="1.000000" fill-rule="evenodd"/>
	</g>
</svg>
