<svg width="24.000000" height="24.000000" viewBox="0 0 24 24" fill="none" xmlns="http://www.w3.org/2000/svg" xmlns:xlink="http://www.w3.org/1999/xlink">
	<desc>
			Created with Pixso.
	</desc>
	<defs>
		<clipPath id="clip111_1099">
			<rect width="24.000000" height="24.000000" transform="matrix(-1 0 0 1 24 0)" fill="white" fill-opacity="0"/>
		</clipPath>
	</defs>
	<g clip-path="url(#clip111_1099)">
		<g opacity="0.000000">
			<rect width="24.000000" height="24.000000" transform="matrix(-1 0 0 1 24 0)" fill="#D8D8D8" fill-opacity="1.000000"/>
			<rect width="24.000000" height="24.000000" transform="matrix(-1 0 0 1 24 0)" stroke="#000000" stroke-opacity="0" stroke-width="1.000000"/>
		</g>
		<path d="M4.61 7.06C4.94 6.81 5.41 6.88 5.66 7.21C5.88 7.51 5.85 7.93 5.59 8.19L4.99 8.64L17.78 8.64C20.04 8.64 21.88 10.42 21.99 12.65L22 12.86C22 15.12 20.22 16.97 17.99 17.08L17.78 17.08L5.06 17.08C4.64 17.08 4.31 16.75 4.31 16.33C4.31 15.95 4.59 15.64 4.96 15.59L5.06 15.58L17.78 15.58C19.28 15.58 20.5 14.36 20.5 12.86C20.5 11.42 19.37 10.23 17.94 10.15L17.78 10.14L2.75 10.14C2.06 10.14 1.75 9.32 2.22 8.86L4.61 7.06Z" fill="#000000" fill-opacity="0.898039" fill-rule="evenodd"/>
	</g>
</svg>
