<svg width="32.000000" height="32.000000" viewBox="0 0 32 32" fill="none" xmlns="http://www.w3.org/2000/svg" xmlns:xlink="http://www.w3.org/1999/xlink">
	<desc>
			Created with Pixso.
	</desc>
	<defs>
		<clipPath id="clip69_2466">
			<rect width="32.000000" height="32.000000" fill="white" fill-opacity="0"/>
		</clipPath>
	</defs>
	<g clip-path="url(#clip69_2466)">
		<g opacity="0.000000">
			<rect width="32.000000" height="32.000000" fill="#000000" fill-opacity="0.898039"/>
		</g>
		<path d="M24.66 6.07C24.66 5.95 24.63 5.84 24.57 5.76C24.52 5.65 24.44 5.56 24.32 5.5C24.19 5.44 24.04 5.42 23.86 5.44L7.93 9.41C7.76 9.44 7.62 9.53 7.5 9.68C7.39 9.82 7.33 9.97 7.33 10.14L7.33 15.01L5.34 15.01L5.34 10.14C5.34 9.5 5.53 8.94 5.91 8.45C6.3 7.95 6.8 7.62 7.42 7.45L23.38 3.52C23.79 3.41 24.19 3.4 24.58 3.49C24.98 3.57 25.34 3.74 25.66 4C25.98 4.25 26.23 4.56 26.41 4.93C26.6 5.28 26.69 5.67 26.69 6.07L26.69 14.97L24.66 14.97L24.66 6.07ZM26.69 25.85C26.69 26.26 26.6 26.65 26.41 27.02C26.23 27.4 25.98 27.71 25.66 27.97C25.3 28.24 24.93 28.42 24.57 28.49C24.2 28.57 23.8 28.56 23.36 28.48L7.42 24.5C6.8 24.36 6.3 24.04 5.91 23.54C5.53 23.05 5.34 22.48 5.34 21.82L5.34 16.98L7.33 16.98L7.33 21.82C7.33 22.01 7.39 22.17 7.5 22.32C7.62 22.46 7.76 22.55 7.93 22.58L23.84 26.53C23.94 26.56 24.07 26.56 24.21 26.5C24.34 26.45 24.45 26.36 24.54 26.25C24.62 26.13 24.66 26 24.66 25.85L24.66 16.98L26.69 16.98L26.69 25.85ZM26.69 16.98L30.72 16.98L30.72 14.97L26.69 14.97L26.69 16.98ZM1.34 16.98L5.34 16.98L5.34 15.01L1.34 15.01L1.34 16.98ZM12 16.98L19.97 16.98L19.97 15.01L12 15.01L12 16.98Z" fill="#000000" fill-opacity="0.898039" fill-rule="nonzero"/>
	</g>
</svg>
