<svg width="32.000000" height="32.000000" viewBox="0 0 32 32" fill="none" xmlns="http://www.w3.org/2000/svg" xmlns:xlink="http://www.w3.org/1999/xlink">
	<desc>
			Created with Pixso.
	</desc>
	<defs>
		<clipPath id="clip69_2461">
			<rect width="32.000000" height="32.000000" fill="white" fill-opacity="0"/>
		</clipPath>
	</defs>
	<g clip-path="url(#clip69_2461)">
		<g opacity="0.000000">
			<rect width="32.000000" height="32.000000" fill="#000000" fill-opacity="1.000000"/>
		</g>
		<path d="M6.17 26.65C5.77 26.65 5.38 26.56 5.01 26.38C4.64 26.2 4.32 25.94 4.06 25.62C3.79 25.27 3.61 24.91 3.53 24.54C3.46 24.18 3.46 23.77 3.54 23.33L7.52 7.38C7.67 6.77 7.99 6.27 8.47 5.89C8.96 5.5 9.54 5.3 10.21 5.3L15.04 5.3L15.04 7.29L10.21 7.29C10.01 7.29 9.84 7.35 9.7 7.46C9.57 7.59 9.48 7.73 9.43 7.9L5.5 23.81C5.46 23.91 5.46 24.03 5.52 24.17C5.57 24.31 5.65 24.42 5.77 24.5C5.88 24.59 6.02 24.64 6.17 24.64L15.04 24.64L15.04 26.65L6.17 26.65ZM17.05 26.65L15.04 26.65L15.04 30.69L17.05 30.69L17.05 26.65ZM15.04 1.3L15.04 5.3L17.02 5.3L17.02 1.3L15.04 1.3ZM15.04 11.97L15.04 19.93L17.02 19.93L17.02 11.97L15.04 11.97ZM25.94 24.64C26.08 24.64 26.18 24.6 26.26 24.54C26.37 24.5 26.46 24.41 26.53 24.29C26.59 24.15 26.61 24 26.58 23.84L22.62 7.9C22.58 7.73 22.48 7.59 22.34 7.46C22.21 7.35 22.06 7.29 21.89 7.29L17.02 7.29L17.02 5.3L21.89 5.3C22.53 5.3 23.09 5.5 23.58 5.89C24.07 6.27 24.4 6.77 24.57 7.38L28.5 23.36C28.61 23.76 28.62 24.16 28.54 24.55C28.45 24.95 28.28 25.3 28.02 25.62C27.77 25.94 27.47 26.2 27.1 26.38C26.74 26.56 26.35 26.65 25.94 26.65L17.05 26.65L17.05 24.64L25.94 24.64Z" fill="#ED6F21" fill-opacity="1.000000" fill-rule="nonzero"/>
	</g>
</svg>
