<svg width="32.000000" height="32.000000" viewBox="0 0 32 32" fill="none" xmlns="http://www.w3.org/2000/svg" xmlns:xlink="http://www.w3.org/1999/xlink">
	<desc>
			Created with Pixso.
	</desc>
	<defs>
		<clipPath id="clip67_2460">
			<rect width="32.000000" height="32.000000" transform="matrix(-1 0 0 1 32 0)" fill="white" fill-opacity="0"/>
		</clipPath>
	</defs>
	<g clip-path="url(#clip67_2460)">
		<g opacity="0.000000">
			<rect width="32.000000" height="32.000000" transform="matrix(-1 0 0 1 32 0)" fill="#000000" fill-opacity="0.898039"/>
		</g>
		<path d="M19.52 3.49C18.57 3.49 17.66 3.63 16.78 3.9C15.89 4.18 15.07 4.58 14.3 5.11C14.06 5.27 13.8 5.31 13.53 5.26C13.25 5.21 13.04 5.07 12.89 4.86C12.74 4.62 12.69 4.36 12.74 4.09C12.8 3.81 12.93 3.6 13.14 3.45C15.06 2.15 17.19 1.5 19.52 1.5C21.01 1.5 22.44 1.78 23.81 2.34C25.17 2.91 26.37 3.72 27.42 4.77C28.35 5.7 29.11 6.77 29.67 7.98C30.24 9.18 30.57 10.43 30.65 11.74C30.76 12.61 30.73 13.55 30.57 14.57C30.41 15.58 30.13 16.53 29.73 17.41C29.66 17.55 29.56 17.65 29.42 17.7C29.28 17.75 29.15 17.75 29.02 17.7C28.89 17.65 28.79 17.55 28.73 17.41L27.2 13.69C27.15 13.54 27.15 13.39 27.2 13.26C27.24 13.12 27.34 13.03 27.49 12.98L28.7 12.48C28.66 11.28 28.4 10.15 27.94 9.06C27.49 7.99 26.84 7.03 26.01 6.21C25.15 5.33 24.16 4.65 23.04 4.18C21.91 3.72 20.73 3.49 19.52 3.49Z" fill="#000000" fill-opacity="0.898039" fill-rule="nonzero"/>
		<path d="M20 7.77C20.72 7.77 21.39 7.95 22 8.31C22.6 8.68 23.08 9.17 23.45 9.78C23.81 10.4 24 11.07 24 11.77L24 26.49C24 27.22 23.81 27.88 23.45 28.49C23.08 29.1 22.6 29.59 22 29.94C21.39 30.31 20.72 30.49 20 30.49L5.28 30.49C4.57 30.49 3.91 30.31 3.29 29.94C2.67 29.59 2.19 29.1 1.82 28.49C1.46 27.88 1.28 27.22 1.28 26.49L1.28 11.77C1.28 11.07 1.46 10.4 1.82 9.78C2.19 9.17 2.67 8.68 3.29 8.31C3.91 7.95 4.57 7.77 5.28 7.77L20 7.77ZM3.29 26.49C3.29 27.05 3.48 27.52 3.86 27.9C4.25 28.28 4.72 28.48 5.28 28.48L20 28.48C20.55 28.48 21.02 28.28 21.41 27.9C21.79 27.52 21.98 27.05 21.98 26.49L21.98 11.77C21.98 11.22 21.79 10.75 21.41 10.37C21.02 9.98 20.55 9.78 20 9.78L5.28 9.78C4.72 9.78 4.25 9.98 3.86 10.37C3.48 10.75 3.29 11.22 3.29 11.77L3.29 26.49Z" fill="#000000" fill-opacity="0.898039" fill-rule="nonzero"/>
	</g>
</svg>
