<svg width="32.000000" height="32.000000" viewBox="0 0 32 32" fill="none" xmlns="http://www.w3.org/2000/svg" xmlns:xlink="http://www.w3.org/1999/xlink">
	<desc>
			Created with Pixso.
	</desc>
	<defs>
		<clipPath id="clip67_2224">
			<rect width="28.000000" height="28.000000" transform="translate(2.000000 2.000000)" fill="white" fill-opacity="0"/>
		</clipPath>
		<clipPath id="clip67_2223">
			<rect width="32.000000" height="32.000000" fill="white" fill-opacity="0"/>
		</clipPath>
	</defs>
	<g clip-path="url(#clip67_2223)">
		<g opacity="0.000000">
			<rect width="32.000000" height="32.000000" fill="#000000" fill-opacity="0.898039"/>
		</g>
		<g clip-path="url(#clip67_2224)">
			<g opacity="0.000000">
				<rect x="2.000000" y="2.000000" width="28.000000" height="28.000000" fill="#000000" fill-opacity="0.898039"/>
			</g>
			<path d="M25.73 27.66C26.08 27.66 26.41 27.58 26.7 27.4C26.99 27.22 27.22 26.98 27.4 26.68C27.58 26.38 27.66 26.06 27.66 25.7L27.66 6.26C27.66 5.72 27.48 5.26 27.1 4.89C26.73 4.51 26.27 4.33 25.73 4.33L6.29 4.33C5.93 4.33 5.61 4.41 5.31 4.59C5.01 4.77 4.77 5 4.59 5.29C4.41 5.58 4.33 5.91 4.33 6.26L4.33 25.7C4.33 26.24 4.52 26.7 4.9 27.09C5.29 27.47 5.75 27.66 6.29 27.66L25.73 27.66ZM25.73 6.26L25.73 25.7L6.29 25.7L6.29 6.26L25.73 6.26Z" fill="#000000" fill-opacity="0.898039" fill-rule="nonzero"/>
			<path d="M16 18.35C16.22 18.35 16.4 18.29 16.53 18.17C16.65 18.05 16.71 17.87 16.71 17.64C16.71 17.43 16.64 17.27 16.51 17.14C16.38 17 16.2 16.93 16 16.93C15.8 16.93 15.65 17 15.52 17.15C15.38 17.3 15.31 17.46 15.31 17.64C15.31 17.85 15.37 18.02 15.5 18.16C15.62 18.29 15.79 18.35 16 18.35ZM16 15C16.22 15 16.4 14.93 16.53 14.8C16.65 14.66 16.71 14.49 16.71 14.28C16.71 14.08 16.64 13.9 16.51 13.77C16.38 13.64 16.2 13.57 16 13.57C15.8 13.57 15.65 13.64 15.52 13.79C15.38 13.93 15.31 14.09 15.31 14.28C15.31 14.49 15.37 14.66 15.5 14.8C15.62 14.93 15.79 15 16 15ZM12.91 19.42C13.1 19.42 13.25 19.36 13.35 19.24C13.45 19.11 13.51 18.94 13.51 18.73L13.51 13.22C13.51 13 13.47 12.82 13.4 12.7C13.32 12.57 13.17 12.5 12.95 12.48C12.86 12.48 12.77 12.5 12.66 12.55C12.56 12.58 12.46 12.63 12.35 12.7L11.02 13.51C10.79 13.63 10.65 13.76 10.58 13.91C10.52 14.05 10.52 14.2 10.58 14.35C10.66 14.53 10.77 14.63 10.89 14.65C11.02 14.66 11.19 14.62 11.42 14.53L12.29 14.04L12.29 18.73C12.29 18.96 12.34 19.14 12.44 19.25C12.55 19.36 12.7 19.42 12.91 19.42ZM20.29 19.42C20.48 19.42 20.62 19.36 20.73 19.24C20.83 19.11 20.88 18.94 20.88 18.73L20.88 13.22C20.88 13 20.84 12.82 20.77 12.7C20.7 12.57 20.54 12.5 20.29 12.48C20.14 12.48 19.92 12.57 19.64 12.75L18.39 13.51C18.16 13.63 18.01 13.76 17.95 13.91C17.89 14.05 17.89 14.2 17.95 14.35C18.04 14.53 18.14 14.63 18.26 14.65C18.39 14.66 18.57 14.62 18.79 14.53L19.64 14.04L19.64 18.73C19.64 18.94 19.69 19.11 19.81 19.24C19.92 19.36 20.08 19.42 20.29 19.42Z" fill="#000000" fill-opacity="0.898039" fill-rule="nonzero"/>
		</g>
	</g>
</svg>
