<svg width="32.000000" height="32.000000" viewBox="0 0 32 32" fill="none" xmlns="http://www.w3.org/2000/svg" xmlns:xlink="http://www.w3.org/1999/xlink">
	<desc>
			Created with Pixso.
	</desc>
	<defs>
		<clipPath id="clip67_2191">
			<rect width="32.000000" height="32.000000" fill="white" fill-opacity="0"/>
		</clipPath>
	</defs>
	<g clip-path="url(#clip67_2191)">
		<g opacity="0.000000">
			<rect width="32.000000" height="32.000000" fill="#000000" fill-opacity="0.898039"/>
		</g>
		<path d="M30.01 26.33C30.37 26.33 30.71 26.24 31.01 26.06C31.3 25.88 31.54 25.63 31.73 25.33C31.91 25.02 32 24.68 32 24.32L32 7.68C32 7.12 31.8 6.65 31.42 6.25C31.04 5.86 30.57 5.66 30.01 5.66L2.01 5.66C1.46 5.66 0.98 5.86 0.58 6.25C0.19 6.65 0 7.12 0 7.68L0 24.32C0 24.87 0.19 25.34 0.58 25.74C0.98 26.13 1.46 26.33 2.01 26.33L30.01 26.33ZM30.01 7.68L30.01 24.32L2.01 24.32L2.01 7.68L30.01 7.68Z" fill="#000000" fill-opacity="0.898039" fill-rule="nonzero"/>
		<path d="M18.01 18.33C18.22 18.33 18.4 18.26 18.53 18.13C18.65 17.99 18.72 17.81 18.72 17.6C18.72 17.4 18.64 17.24 18.5 17.1C18.37 16.96 18.2 16.89 18.01 16.89C17.84 16.89 17.68 16.96 17.53 17.12C17.38 17.27 17.3 17.43 17.3 17.6C17.3 17.79 17.38 17.96 17.53 18.1C17.68 18.25 17.84 18.33 18.01 18.33ZM18.01 15.01C18.22 15.01 18.4 14.94 18.53 14.81C18.65 14.68 18.72 14.52 18.72 14.3C18.72 14.09 18.65 13.91 18.53 13.77C18.4 13.64 18.22 13.57 18.01 13.57C17.84 13.57 17.68 13.64 17.53 13.77C17.38 13.91 17.3 14.09 17.3 14.3C17.3 14.49 17.37 14.65 17.52 14.79C17.66 14.94 17.82 15.01 18.01 15.01ZM23.68 16.77C23.95 16.27 24.14 15.89 24.25 15.62C24.36 15.36 24.41 15.08 24.41 14.78C24.41 14.12 24.2 13.58 23.78 13.17C23.37 12.75 22.84 12.54 22.17 12.54C21.53 12.54 21 12.75 20.57 13.17C20.14 13.58 19.93 14.09 19.93 14.72C19.93 15.42 20.17 15.97 20.65 16.37C21.13 16.76 21.67 16.92 22.26 16.86L21.37 18.33C21.29 18.54 21.26 18.72 21.29 18.87C21.32 19.03 21.43 19.14 21.6 19.22C21.75 19.29 21.88 19.29 22.01 19.22C22.14 19.16 22.26 19.04 22.37 18.87L23.68 16.77ZM22.21 13.66C22.5 13.66 22.74 13.76 22.93 13.94C23.11 14.14 23.2 14.4 23.2 14.72C23.2 15.03 23.11 15.3 22.93 15.5C22.74 15.71 22.5 15.81 22.21 15.81C21.91 15.81 21.67 15.71 21.49 15.5C21.3 15.3 21.21 15.03 21.21 14.72C21.21 14.4 21.3 14.14 21.49 13.94C21.67 13.76 21.91 13.66 22.21 13.66ZM9.92 19.42C10.11 19.42 10.26 19.37 10.37 19.26C10.48 19.15 10.53 19 10.53 18.78L10.53 13.3C10.53 12.88 10.4 12.64 10.16 12.58C9.91 12.53 9.61 12.61 9.28 12.82L8.02 13.57C7.79 13.69 7.65 13.83 7.59 13.97C7.54 14.1 7.54 14.24 7.58 14.4C7.66 14.59 7.77 14.7 7.9 14.72C8.03 14.73 8.2 14.69 8.41 14.58L9.28 14.1L9.28 18.78C9.28 19 9.33 19.15 9.45 19.26C9.56 19.37 9.72 19.42 9.92 19.42ZM13.78 19.22C14.45 19.22 14.99 19.01 15.41 18.58C15.82 18.15 16.02 17.64 16.02 17.02C16.02 16.4 15.83 15.89 15.44 15.5C15.04 15.1 14.55 14.9 13.94 14.9C13.88 14.9 13.84 14.91 13.81 14.93C13.77 14.94 13.72 14.94 13.66 14.94L14.58 13.46C14.72 13.27 14.73 13.09 14.62 12.9C14.52 12.72 14.35 12.63 14.13 12.62C13.9 12.61 13.71 12.72 13.57 12.96L12.32 14.97C12.04 15.46 11.84 15.84 11.73 16.1C11.6 16.37 11.54 16.66 11.54 16.98C11.54 17.65 11.75 18.19 12.17 18.61C12.59 19.02 13.12 19.22 13.78 19.22ZM13.78 16C14.08 16 14.32 16.09 14.5 16.29C14.69 16.48 14.78 16.73 14.78 17.05C14.78 17.37 14.69 17.63 14.5 17.82C14.32 18.01 14.08 18.1 13.78 18.1C13.49 18.1 13.25 18.01 13.06 17.84C12.88 17.66 12.8 17.4 12.8 17.05C12.8 16.73 12.88 16.48 13.06 16.29C13.25 16.09 13.49 16 13.78 16Z" fill="#000000" fill-opacity="0.898039" fill-rule="nonzero"/>
	</g>
</svg>
