<svg width="32.000000" height="32.000000" viewBox="0 0 32 32" fill="none" xmlns="http://www.w3.org/2000/svg" xmlns:xlink="http://www.w3.org/1999/xlink">
	<desc>
			Created with Pixso.
	</desc>
	<defs>
		<clipPath id="clip67_2235">
			<rect width="32.000000" height="32.000000" fill="white" fill-opacity="0"/>
		</clipPath>
		<clipPath id="clip67_2234">
			<rect width="32.000000" height="32.000000" fill="white" fill-opacity="0"/>
		</clipPath>
	</defs>
	<g clip-path="url(#clip67_2234)">
		<g clip-path="url(#clip67_2235)">
			<g opacity="0.000000">
				<rect width="32.000000" height="32.000000" fill="#000000" fill-opacity="0.898039"/>
			</g>
			<path d="M28.66 26.65C29.03 26.65 29.36 26.56 29.66 26.38C29.96 26.2 30.2 25.96 30.38 25.66C30.56 25.36 30.65 25.03 30.65 24.66L30.65 7.33C30.65 6.77 30.46 6.3 30.08 5.92C29.69 5.53 29.22 5.34 28.66 5.34L3.33 5.34C2.77 5.34 2.3 5.53 1.92 5.92C1.53 6.3 1.34 6.77 1.34 7.33L1.34 24.66C1.34 25.2 1.54 25.66 1.93 26.06C2.33 26.45 2.8 26.65 3.33 26.65L28.66 26.65ZM28.66 7.33L28.66 24.66L3.33 24.66L3.33 7.33L28.66 7.33Z" fill="#000000" fill-opacity="0.898039" fill-rule="nonzero"/>
			<path d="M16.09 18.42C16.3 18.42 16.48 18.36 16.61 18.23C16.73 18.11 16.79 17.93 16.79 17.69C16.79 17.48 16.73 17.3 16.61 17.17C16.48 17.03 16.3 16.95 16.09 16.95C15.88 16.95 15.7 17.03 15.57 17.17C15.43 17.3 15.36 17.48 15.36 17.69C15.36 17.9 15.42 18.08 15.54 18.22C15.67 18.36 15.86 18.42 16.09 18.42ZM16.09 14.97C16.3 14.97 16.48 14.91 16.61 14.78C16.73 14.65 16.79 14.47 16.79 14.23C16.79 14.02 16.73 13.84 16.61 13.7C16.48 13.57 16.3 13.5 16.09 13.5C15.86 13.5 15.67 13.57 15.54 13.7C15.42 13.84 15.36 14.02 15.36 14.23C15.36 14.45 15.42 14.63 15.54 14.77C15.67 14.9 15.86 14.97 16.09 14.97ZM21.57 19.36C21.78 19.36 21.95 19.31 22.06 19.21C22.18 19.11 22.24 18.98 22.24 18.81C22.24 18.64 22.18 18.51 22.06 18.41C21.95 18.31 21.78 18.26 21.57 18.26L19.58 18.26L20.73 16.98C21.2 16.48 21.53 16.04 21.73 15.69C21.91 15.34 22.01 14.97 22.01 14.58C22.01 13.97 21.83 13.48 21.46 13.11C21.11 12.75 20.62 12.57 20 12.57C19.57 12.57 19.17 12.67 18.81 12.87C18.44 13.08 18.17 13.36 17.98 13.73C17.87 13.96 17.87 14.16 17.98 14.34C18.09 14.53 18.25 14.62 18.46 14.62C18.67 14.62 18.86 14.49 19.01 14.23C19.12 14.07 19.25 13.93 19.41 13.84C19.57 13.74 19.74 13.69 19.93 13.69C20.19 13.69 20.39 13.77 20.54 13.94C20.69 14.12 20.77 14.35 20.77 14.62C20.77 14.85 20.72 15.06 20.62 15.25C20.52 15.43 20.32 15.7 20.02 16.06L19.84 16.25L18.05 18.23C17.84 18.49 17.74 18.73 17.76 18.94C17.8 19.07 17.88 19.17 18 19.25C18.11 19.32 18.25 19.36 18.42 19.36L21.57 19.36ZM11.9 19.42C12.59 19.42 13.13 19.23 13.54 18.85C13.96 18.46 14.17 17.95 14.17 17.34C14.17 16.98 14.09 16.66 13.93 16.38C13.77 16.11 13.53 15.89 13.21 15.74C13.45 15.59 13.63 15.4 13.76 15.17C13.88 14.93 13.94 14.66 13.94 14.37C13.94 13.81 13.76 13.36 13.38 13.02C13.01 12.67 12.52 12.5 11.93 12.5C11.5 12.5 11.12 12.6 10.78 12.79C10.43 12.99 10.17 13.26 9.98 13.6C9.89 13.75 9.87 13.9 9.9 14.05C9.93 14.19 10.03 14.31 10.21 14.42C10.38 14.53 10.52 14.55 10.62 14.49C10.73 14.43 10.84 14.3 10.97 14.1C11.08 13.93 11.2 13.81 11.36 13.74C11.51 13.66 11.67 13.62 11.84 13.62C12.09 13.62 12.3 13.69 12.45 13.84C12.59 13.98 12.66 14.16 12.66 14.39C12.66 14.7 12.58 14.92 12.41 15.06C12.24 15.21 12 15.29 11.67 15.29C11.52 15.29 11.4 15.34 11.29 15.45C11.18 15.55 11.13 15.68 11.13 15.84C11.13 16 11.18 16.14 11.28 16.25C11.37 16.36 11.48 16.41 11.61 16.41C12.12 16.41 12.47 16.49 12.64 16.65C12.8 16.81 12.89 17.04 12.89 17.34C12.89 17.63 12.8 17.87 12.62 18.05C12.43 18.22 12.2 18.3 11.9 18.3C11.49 18.3 11.18 18.16 10.97 17.89C10.83 17.69 10.64 17.5 10.53 17.45C10.42 17.39 10.28 17.42 10.1 17.53C9.93 17.63 9.83 17.76 9.78 17.91C9.75 18.07 9.78 18.23 9.89 18.39C10.08 18.71 10.35 18.96 10.72 19.14C11.08 19.33 11.48 19.42 11.9 19.42Z" fill="#000000" fill-opacity="0.898039" fill-rule="nonzero"/>
		</g>
	</g>
</svg>
