<svg viewBox="0 0 12 24" xmlns="http://www.w3.org/2000/svg" xmlns:xlink="http://www.w3.org/1999/xlink" width="12.000000" height="24.000000" fill="none">
	<rect id="chevron_right" width="12.000000" height="24.000000" x="0.000000" y="0.000000" />
	<rect id="矩形 3606" width="12.000000" height="24.000000" x="0.000000" y="0.000000" opacity="0" fill="rgb(0,0,0)" />
	<g id="组合 4135">
		<path id="矢量 24" d="M2.77982 18C2.97316 18.16 3.16649 18.24 3.35982 18.24C3.55316 18.24 3.71982 18.16 3.85982 18L9.13982 12.65L9.23982 12.55C9.38649 12.3567 9.45982 12.1334 9.45982 11.88C9.45982 11.56 9.35316 11.3034 9.13982 11.11L3.85982 5.74002C3.71982 5.59335 3.54649 5.52002 3.33982 5.52002C3.12649 5.52002 2.94982 5.59335 2.80982 5.74002C2.68316 5.86669 2.61316 6.02669 2.59982 6.22002C2.59316 6.40669 2.64649 6.58002 2.75982 6.74002L2.80982 6.79002L7.81982 11.88L2.77982 16.94C2.63982 17.0867 2.56982 17.2634 2.56982 17.47C2.56982 17.6767 2.63982 17.8534 2.77982 18Z" fill="rgb(255,255,255)" fill-opacity="0.90196079" fill-rule="nonzero" />
	</g>
</svg>
