<svg width="40.000000" height="40.000000" viewBox="0 0 40 40" fill="none" xmlns="http://www.w3.org/2000/svg" xmlns:xlink="http://www.w3.org/1999/xlink">
	<desc>
			Created with Pixso.
	</desc>
	<defs/>
	<circle id="椭圆 54" cx="20.000000" cy="20.000000" r="20.000000" fill="#000000" fill-opacity="0.047059"/>
	<rect id="ic_public_select_all-全选/base/ic_public_select_all" x="8.000000" y="8.000000" width="24.000000" height="24.000000" fill="#FFFFFF" fill-opacity="0"/>
	<path id="矢量 220" d="M30.95 21.79L30.95 15.79C30.95 15.3 30.89 14.81 30.79 14.34C30.7 13.94 30.58 13.55 30.41 13.17C30.25 12.79 30.06 12.42 29.84 12.08C29.59 11.7 29.3 11.35 28.97 11.02C28.64 10.69 28.28 10.4 27.9 10.14C27.56 9.92 27.2 9.73 26.82 9.57C26.44 9.41 26.05 9.28 25.64 9.2C25.17 9.09 24.69 9.04 24.2 9.04L18.2 9.04C17.69 9.04 17.2 9.09 16.73 9.2C16.33 9.29 15.95 9.41 15.57 9.57C15.19 9.73 14.83 9.92 14.49 10.15C14.24 10.31 14 10.5 13.77 10.7L16.92 10.7C16.95 10.69 16.99 10.68 17.03 10.67C17.41 10.58 17.79 10.54 18.2 10.54L24.2 10.54C24.59 10.54 24.97 10.58 25.35 10.67Q25.8 10.77 26.24 10.95C26.53 11.08 26.8 11.22 27.06 11.39C27.36 11.59 27.64 11.82 27.91 12.08C28.17 12.34 28.39 12.62 28.59 12.92Q28.85 13.31 29.03 13.75C29.15 14.04 29.25 14.33 29.32 14.63C29.4 15.01 29.45 15.4 29.45 15.79L29.45 21.79C29.45 22.19 29.38 22.67 29.29 23.05L29.29 26.21C29.49 25.98 29.68 25.74 29.84 25.49C30.06 25.16 30.25 24.8 30.41 24.42C30.58 24.04 30.7 23.65 30.79 23.25C30.89 22.78 30.95 22.29 30.95 21.79ZM12.2 12.79L24.2 12.79C25.85 12.79 27.2 14.13 27.2 15.79L27.2 27.79C27.2 29.45 25.85 30.79 24.2 30.79L12.2 30.79C10.54 30.79 9.19 29.45 9.19 27.79L9.19 15.79C9.19 14.13 10.54 12.79 12.2 12.79ZM23.95 18.61L17.3 25.61C17.15 25.75 16.94 25.85 16.74 25.84C16.63 25.84 16.54 25.82 16.45 25.78C16.36 25.74 16.28 25.69 16.21 25.61L12.45 21.67C12.16 21.37 12.17 20.9 12.48 20.61C12.78 20.32 13.25 20.33 13.54 20.64L16.75 24.01L22.87 17.57C23.16 17.27 23.62 17.26 23.93 17.55C24.23 17.84 24.24 18.3 23.95 18.61Z" fill="#E84026" fill-opacity="1.000000" fill-rule="evenodd"/>
</svg>
