<svg width="20.470215" height="19.300049" viewBox="0 0 20.4702 19.3" fill="none" xmlns="http://www.w3.org/2000/svg" xmlns:xlink="http://www.w3.org/1999/xlink">
	<desc>
			Created with Pixso.
	</desc>
	<defs/>
	<path id="path" d="M20.47 11.59C20.47 12.55 20.25 13.46 19.83 14.34C19.41 15.21 18.81 15.97 18.02 16.61C17.96 16.64 17.95 16.77 17.99 16.99C18.02 17.21 18.16 17.58 18.41 18.1L18.45 18.27C18.5 18.36 18.52 18.45 18.52 18.54C18.52 18.7 18.47 18.87 18.35 19.03C18.22 19.2 18.02 19.29 17.79 19.29L17.62 19.29C17.1 19.18 16.66 19.05 16.29 18.9C15.93 18.77 15.55 18.59 15.16 18.38C14.88 18.24 14.72 18.16 14.68 18.16C14.12 18.29 13.54 18.36 12.93 18.36C11.81 18.36 10.75 18.14 9.75 17.73C8.75 17.3 7.89 16.72 7.18 15.99C7.3 16 7.46 16.01 7.64 16.03C7.83 16.04 8.04 16.06 8.31 16.06C8.57 16.06 9 16.02 9.58 15.96C10.6 16.55 11.71 16.85 12.91 16.85C13.33 16.85 13.83 16.79 14.43 16.67C14.49 16.66 14.57 16.65 14.68 16.65C14.86 16.65 15.02 16.68 15.18 16.75C15.35 16.81 15.56 16.91 15.83 17.04C15.9 17.07 16 17.12 16.12 17.2C16.25 17.27 16.38 17.33 16.5 17.37C16.46 17.15 16.43 16.94 16.43 16.75C16.43 16.16 16.64 15.71 17.06 15.4C17.67 14.91 18.14 14.34 18.48 13.67C18.81 13.02 18.99 12.33 18.99 11.59C18.99 10.44 18.58 9.39 17.75 8.44C17.82 8 17.85 7.64 17.85 7.38C17.85 7.05 17.83 6.73 17.79 6.42C18.63 7.07 19.29 7.84 19.77 8.73C20.23 9.63 20.47 10.58 20.47 11.59ZM2.93 15.79C2.68 15.79 2.49 15.7 2.35 15.53C2.24 15.35 2.18 15.19 2.18 15.05C2.18 14.95 2.21 14.86 2.25 14.76L2.33 14.57C2.64 13.86 2.81 13.36 2.81 13.08C2.81 12.98 2.77 12.9 2.7 12.84C1.85 12.13 1.18 11.31 0.7 10.36C0.23 9.4 0 8.4 0 7.37C0 6.04 0.37 4.81 1.12 3.68C1.85 2.55 2.86 1.65 4.14 1C5.41 0.33 6.79 0 8.27 0C9.76 0 11.14 0.33 12.41 1C13.67 1.65 14.68 2.55 15.41 3.68C16.16 4.81 16.54 6.04 16.54 7.37C16.54 8.71 16.16 9.95 15.41 11.08C14.68 12.2 13.67 13.1 12.41 13.77C11.14 14.42 9.76 14.76 8.27 14.76C7.58 14.76 6.91 14.67 6.29 14.52L5.79 14.79C5.29 15.03 4.85 15.23 4.47 15.38C4.1 15.55 3.64 15.67 3.1 15.77L2.93 15.79ZM8.27 1.51C7.06 1.51 5.93 1.77 4.89 2.31C3.85 2.83 3.03 3.54 2.43 4.43C1.81 5.34 1.5 6.31 1.5 7.37C1.5 8.18 1.69 8.96 2.06 9.71C2.43 10.47 2.96 11.12 3.64 11.66C4.08 12 4.29 12.48 4.29 13.11C4.29 13.39 4.26 13.65 4.2 13.89C4.5 13.77 4.8 13.62 5.08 13.47C5.58 13.19 5.98 13.06 6.29 13.06C6.43 13.06 6.54 13.06 6.6 13.08C7.24 13.19 7.79 13.25 8.27 13.25C9.5 13.25 10.62 12.98 11.66 12.46C12.71 11.93 13.53 11.21 14.14 10.31C14.74 9.4 15.04 8.42 15.04 7.37C15.04 6.31 14.74 5.34 14.14 4.43C13.53 3.54 12.71 2.83 11.66 2.31C10.62 1.77 9.5 1.51 8.27 1.51Z" fill="#000000" fill-opacity="0.600000" fill-rule="nonzero"/>
</svg>
