<svg width="15.516602" height="17.433350" viewBox="0 0 15.5166 17.4333" fill="none" xmlns="http://www.w3.org/2000/svg" xmlns:xlink="http://www.w3.org/1999/xlink">
	<desc>
			Created with Pixso.
	</desc>
	<defs/>
	<path id="path" d="M11.54 17.43C11.99 17.43 12.38 17.27 12.72 16.96C13.06 16.65 13.26 16.27 13.29 15.81L14.24 5.15C14.24 5.05 14.19 4.91 14.1 4.83C14.01 4.75 13.92 4.71 13.81 4.71L1.7 4.71C1.57 4.71 1.47 4.76 1.39 4.84C1.3 4.93 1.26 5.03 1.27 5.15L2.21 15.81C2.25 16.28 2.44 16.66 2.79 16.97C3.13 17.28 3.52 17.43 3.97 17.43L11.54 17.43ZM9.21 14.41C9.04 14.41 8.89 14.35 8.76 14.22C8.63 14.09 8.58 13.94 8.6 13.77L8.81 7.93C8.81 7.76 8.87 7.61 9 7.5C9.11 7.39 9.26 7.33 9.44 7.33C9.61 7.34 9.76 7.42 9.89 7.55C10.01 7.67 10.06 7.82 10.05 8L9.85 13.81C9.84 13.98 9.78 14.13 9.65 14.25C9.53 14.36 9.38 14.41 9.21 14.41ZM6.31 14.41C6.14 14.41 5.99 14.36 5.87 14.25C5.75 14.13 5.69 13.98 5.67 13.81L5.45 8C5.44 7.82 5.5 7.67 5.61 7.55C5.73 7.42 5.88 7.34 6.05 7.33C6.23 7.32 6.38 7.37 6.5 7.5C6.63 7.61 6.7 7.76 6.7 7.93L6.94 13.77C6.95 13.94 6.89 14.09 6.76 14.22C6.63 14.35 6.48 14.41 6.31 14.41ZM10.89 2.5C10.75 1.77 10.38 1.18 9.81 0.7C9.24 0.23 8.58 0 7.84 0C7.09 0 6.43 0.23 5.85 0.7C5.28 1.18 4.92 1.77 4.77 2.5L0.61 2.5C0.44 2.5 0.29 2.55 0.17 2.67C0.05 2.79 0 2.94 0 3.11C0 3.28 0.05 3.43 0.17 3.56C0.29 3.69 0.44 3.75 0.61 3.75L5.2 3.75L10.5 3.75L14.89 3.73C15.07 3.73 15.21 3.67 15.34 3.55C15.45 3.43 15.51 3.28 15.51 3.11C15.51 2.94 15.45 2.79 15.34 2.67C15.21 2.55 15.07 2.5 14.89 2.5L10.89 2.5Z" fill="#FFFFFF" fill-opacity="1.000000" fill-rule="nonzero"/>
</svg>
