<?xml version="1.0" encoding="UTF-8"?>
<svg width="40px" height="40px" viewBox="0 0 40 40" version="1.1"
     xmlns="http://www.w3.org/2000/svg">
    <title>Container/bindSheet/Phone/Items/close btn</title>
    <g id="控件" stroke="none" stroke-width="1" fill="none" fill-rule="evenodd">
        <g id="Container/bindSheet/Phone/Items/Title/关闭、取消" transform="translate(0, -8)" fill="#000000">
            <g id="Container/bindSheet/Phone/Items/close-btn备份" transform="translate(0, 8)">
                <circle id="椭圆形" fill-opacity="0.0509803922" cx="20" cy="20" r="20"></circle>
                <g id="Public/ic_cancel" transform="translate(11, 11)" stroke-width="1">
                    <g id="xmark">
                        <g id="group" fill-rule="nonzero" opacity="0">
                            <rect id="矩形" x="0" y="0" width="18" height="18"></rect>
                        </g>
                        <g id="group0" transform="translate(3.0075, 2.985)" fill-opacity="0.901960784"
                           fill-rule="nonzero">
                            <g id="layers">
                                <path d="M11.8275,0.975 C11.9325,0.855 11.985,0.72 11.985,0.57 C11.985,0.42 11.9325,0.29 11.8275,0.18 C11.7175,0.06 11.585,0 11.43,0 C11.275,0 11.1425,0.06 11.0325,0.18 L5.9925,5.22 L0.9525,0.18 C0.8425,0.06 0.71,0 0.555,0 C0.4,0 0.2625,0.06 0.1425,0.18 C0.0475,0.29 0,0.42 0,0.57 C0,0.72 0.0475,0.855 0.1425,0.975 L5.1975,6.015 L0.1425,11.04 C0.0475,11.16 0,11.2975 0,11.4525 C0,11.6075 0.0475,11.74 0.1425,11.85 C0.2625,11.945 0.4,11.995 0.555,12 C0.71,12.005 0.8425,11.955 0.9525,11.85 L5.9925,6.81 L11.0325,11.85 C11.1425,11.955 11.275,12.0075 11.43,12.0075 C11.585,12.0075 11.7175,11.955 11.8275,11.85 C11.9325,11.74 11.985,11.6075 11.985,11.4525 C11.985,11.2975 11.9325,11.16 11.8275,11.04 L6.7875,6.015 L11.8275,0.975 Z"
                                      id="路径"></path>
                            </g>
                        </g>
                    </g>
                </g>
            </g>
        </g>
    </g>
</svg>