<?xml version="1.0" encoding="UTF-8"?>
<svg width="40px" height="40px" viewBox="0 0 40 40" version="1.1"
     xmlns="http://www.w3.org/2000/svg">
    <title>Container/bindSheet/Phone/Items/close btn备份</title>
    <g id="控件" stroke="none" stroke-width="1" fill="none" fill-rule="evenodd">
        <g id="Container/bindSheet/Phone/Items/Title/关闭、取消" transform="translate(-288, -8)" fill="#000000">
            <g id="编组" transform="translate(288, 8)">
                <circle id="椭圆形" fill-opacity="0.0509803922" cx="20" cy="20" r="20"></circle>
                <g id="编组" transform="translate(8, 8)">
                    <rect id="矩形" fill-rule="nonzero" opacity="0" x="0" y="0" width="24" height="24"></rect>
                    <path d="M9.5,18.19 C9.77333333,18.19 10.04,18.14 10.3,18.04 C10.5533333,17.9333333 10.7766667,17.7833333 10.97,17.59 L21.53,7.08 C21.67,6.93333333 21.74,6.75666667 21.74,6.55 C21.74,6.34333333 21.67,6.16666667 21.53,6.02 C21.3833333,5.86 21.2066667,5.78 21,5.78 C20.7933333,5.78 20.61,5.86 20.45,6.02 L9.89,16.54 C9.77666667,16.6466667 9.64666667,16.7 9.5,16.7 C9.36,16.7 9.23333333,16.6466667 9.12,16.54 L3.53,10.99 C3.38333333,10.83 3.20666667,10.7533333 3,10.76 C2.79333333,10.7733333 2.61666667,10.85 2.47,10.99 C2.31,11.1366667 2.23,11.3133333 2.23,11.52 C2.23,11.7266667 2.31,11.9033333 2.47,12.05 L8.06,17.59 C8.25333333,17.7833333 8.47333333,17.9333333 8.72,18.04 C8.97333333,18.14 9.23333333,18.19 9.5,18.19 Z"
                          id="路径" fill-opacity="0.9" fill-rule="nonzero"></path>
                </g>
            </g>
        </g>
    </g>
</svg>