<svg viewBox="0 0 40 40" xmlns="http://www.w3.org/2000/svg" xmlns:xlink="http://www.w3.org/1999/xlink" width="40.000000" height="40.000000" fill="none" customFrame="#000000">
	<defs>
		<clipPath id="clipPath_3">
			<rect width="20.000000" height="20.000000" x="10.000000" y="10.000000" fill="rgb(255,255,255)" />
		</clipPath>
	</defs>
	<g id="组合 4100">
		<rect id="矩形 3400" width="40.000000" height="40.000000" x="0.000000" y="0.000000" rx="8.000000" fill="rgb(255,255,255)" />
		<g id="save.svg" clip-path="url(#clipPath_3)" customFrame="url(#clipPath_3)">
			<rect id="save.svg" width="20.000000" height="20.000000" x="10.000000" y="10.000000" />
			<rect id="rect" width="20.000000" height="20.000000" x="10.000000" y="10.000000" opacity="0" fill="rgb(0,0,0)" />
			<g id="g">
				<path id="path" d="M14.1583 11.6583C13.7083 11.6583 13.2917 11.7722 12.9083 12C12.5305 12.2278 12.2278 12.5305 12 12.9083C11.7722 13.2917 11.6583 13.7083 11.6583 14.1583L11.6583 25.8417C11.6583 26.2917 11.7722 26.7083 12 27.0917C12.2278 27.4694 12.5305 27.7722 12.9083 28C13.2917 28.2278 13.7083 28.3417 14.1583 28.3417L25.8417 28.3417C26.2917 28.3417 26.7083 28.2278 27.0917 28C27.4694 27.7722 27.7722 27.4694 28 27.0917C28.2278 26.7083 28.3417 26.2917 28.3417 25.8417L28.3417 14.1583C28.3417 13.7083 28.2278 13.2917 28 12.9083C27.7722 12.5305 27.4694 12.2278 27.0917 12C26.7083 11.7722 26.2917 11.6583 25.8417 11.6583L14.1583 11.6583ZM23.6167 16.6417C23.6167 16.775 23.5722 16.8833 23.4833 16.9667C23.3889 17.0555 23.2805 17.1 23.1583 17.1L16.8417 17.1C16.7194 17.1 16.6111 17.0555 16.5167 16.9667C16.4278 16.8833 16.3833 16.775 16.3833 16.6417L16.3833 12.9417L23.6167 12.9417L23.6167 16.6417ZM27.0833 25.8417C27.0833 26.175 26.9611 26.4639 26.7167 26.7083C26.4778 26.9583 26.1861 27.0833 25.8417 27.0833L14.1583 27.0833C13.825 27.0833 13.5361 26.9583 13.2917 26.7083C13.0417 26.4639 12.9167 26.175 12.9167 25.8417L12.9167 14.1583C12.9167 13.8139 13.0417 13.5222 13.2917 13.2833C13.5361 13.0389 13.825 12.9167 14.1583 12.9167L15.1417 12.9167L15.1417 16.6417C15.1417 17.1083 15.3083 17.5111 15.6417 17.85C15.975 18.1889 16.375 18.3583 16.8417 18.3583L23.1583 18.3583C23.625 18.3583 24.025 18.1889 24.3583 17.85C24.6917 17.5111 24.8583 17.1083 24.8583 16.6417L24.8583 12.9167L25.8417 12.9167C26.1861 12.9167 26.4778 13.0389 26.7167 13.2833C26.9611 13.5222 27.0833 13.8139 27.0833 14.1583L27.0833 25.8417ZM15.8417 22.5C15.6694 22.5 15.5194 22.5611 15.3917 22.6833C15.2639 22.8 15.2 22.9444 15.2 23.1167C15.2 23.2944 15.2639 23.4417 15.3917 23.5583C15.5194 23.6805 15.6694 23.7417 15.8417 23.7417L24.1583 23.7417C24.3305 23.7417 24.4805 23.6805 24.6083 23.5583C24.7361 23.4417 24.8 23.2944 24.8 23.1167C24.8 22.9444 24.7361 22.8 24.6083 22.6833C24.4805 22.5611 24.3305 22.5 24.1583 22.5L15.8417 22.5Z" fill="rgb(0,0,0)" fill-opacity="0.90196079" fill-rule="nonzero" />
			</g>
		</g>
	</g>
</svg>
