<svg viewBox="0 0 40 40" xmlns="http://www.w3.org/2000/svg" xmlns:xlink="http://www.w3.org/1999/xlink" width="40.000000" height="40.000000" fill="none" showMaskRef="url(#show_mask_0)" customFrame="#000000" mask="url(#mask_0)">
	<defs>
		<filter id="pixso_custom_mask_type_outline">
			<feColorMatrix type="matrix" values="0 0 0 0 1 0 0 0 0 1 0 0 0 0 1 0 0 0 1 0 " />
		</filter>
		<clipPath id="clipPath_0">
			<rect width="28.000000" height="28.000000" x="6.000000" y="6.000000" fill="rgb(255,255,255)" />
		</clipPath>
	</defs>
	<mask id="mask_0" width="40.000000" height="40.000000" x="0.000000" y="0.000000" maskUnits="userSpaceOnUse">
		<g filter="url(#pixso_custom_mask_type_outline)">
			<rect id="蒙版" width="40.000000" height="40.000000" x="0.000000" y="0.000000" rx="8.000000" fill="rgb(255,255,255)" />
			<rect id="蒙版" width="39.000000" height="39.000000" x="0.500000" y="0.500000" rx="7.500000" stroke="rgb(0,0,0)" stroke-opacity="0" stroke-width="1" />
		</g>
	</mask>
	<rect id="朋友圈" width="40.000000" height="40.000000" x="0.000000" y="0.000000" />
	<g id="show_mask_0">
		<rect id="蒙版" width="40.000000" height="40.000000" x="0.000000" y="0.000000" rx="8.000000" fill="rgb(255,255,255)" />
		<rect id="蒙版" width="39.000000" height="39.000000" x="0.500000" y="0.500000" rx="7.500000" stroke="rgb(0,0,0)" stroke-opacity="0" stroke-width="1" />
	</g>
	<g id="朋友圈 1" clip-path="url(#clipPath_0)" customFrame="url(#clipPath_0)">
		<rect id="朋友圈 1" width="28.000000" height="28.000000" x="6.000000" y="6.000000" />
		<path id="矢量 1" d="M16.4406 6.51685C17.6064 6.20757 18.8032 6.05194 20.0009 6.05194C21.8734 6.05194 23.6943 6.42026 25.415 7.14846L25.1863 17.2578L16.4406 6.51685Z" fill="rgb(245,118,89)" fill-rule="nonzero" />
		<path id="矢量 2" d="M7.94691 12.9833C8.55608 11.9365 9.29274 10.9787 10.1381 10.1371C11.4613 8.81378 13.0086 7.78668 14.7396 7.08374L21.7291 14.3929L7.94691 12.9833Z" fill="rgb(240,179,96)" fill-rule="nonzero" />
		<path id="矢量 3" d="M6.51682 23.5622C6.20847 22.4011 6.05197 21.2043 6.05197 20C6.05197 18.1256 6.42118 16.3047 7.14844 14.5878L17.2588 14.8146L6.51682 23.5622Z" fill="rgb(239,222,88)" fill-rule="nonzero" />
		<path id="矢量 4" d="M12.9833 32.0531C11.944 31.4476 10.9881 30.711 10.139 29.8619C8.81477 28.5405 7.78761 26.9932 7.08568 25.2604L14.3947 18.2737L12.9833 32.0531Z" fill="rgb(187,239,92)" fill-rule="nonzero" />
		<path id="矢量 5" d="M20.0009 33.9481C18.1284 33.9481 16.3075 33.5797 14.5869 32.8535L14.8155 22.7441L23.5613 33.4851C22.3935 33.7925 21.1977 33.9481 20.0009 33.9481Z" fill="rgb(97,241,94)" fill-rule="nonzero" />
		<path id="矢量 6" d="M18.2727 25.6081L32.055 27.0176C31.4505 28.0551 30.7158 29.011 29.8629 29.8619C28.5414 31.1871 26.9923 32.2143 25.2614 32.9172L18.2727 25.6081Z" fill="rgb(91,228,238)" fill-rule="nonzero" />
		<path id="矢量 7" d="M22.7431 25.1873L33.4841 16.4396C33.7925 17.6017 33.9481 18.7995 33.9481 20C33.9481 21.88 33.5788 23.6991 32.8525 25.4141L22.7431 25.1873Z" fill="rgb(92,155,246)" fill-rule="nonzero" />
		<path id="矢量 8" d="M27.0167 7.94788C28.0551 8.5505 29.0129 9.28615 29.8629 10.1371C31.1881 11.4586 32.2152 13.0077 32.9162 14.7387L25.6071 21.7272L27.0167 7.94788Z" fill="rgb(109,88,241)" fill-rule="nonzero" />
	</g>
</svg>
