<svg viewBox="0 0 24 24" xmlns="http://www.w3.org/2000/svg" xmlns:xlink="http://www.w3.org/1999/xlink" width="24.000000" height="24.000000" fill="none">
	<rect id="ic_appassist_sales" width="24.000000" height="24.000000" x="0.000000" y="0.000000" />
	<g id="组合 1642">
		<circle id="椭圆 22" cx="12" cy="12" r="12" fill="rgb(255,155,0)" />
		<g id="组合 1643">
			<path id="uxs-a" d="M8.7318 6.45826L11.8977 7.23058C12.216 7.30823 12.4887 7.51265 12.6525 7.79639L16.0965 13.7617C16.4279 14.3356 16.2313 15.0695 15.6573 15.4009L11.5774 17.7565C11.0034 18.0878 10.2695 17.8912 9.93815 17.3172L6.49409 11.3519C6.33027 11.0682 6.28959 10.7298 6.38149 10.4153L7.29557 7.28746C7.47558 6.67149 8.10835 6.30616 8.7318 6.45826ZM11.9601 9.21021C11.9014 9.04792 11.7265 8.95603 11.5577 9.00334C11.392 9.04977 11.2877 9.20928 11.3065 9.37582L11.3147 9.42134L11.8146 11.4241L9.77554 10.9522L9.74781 10.9469C9.59081 10.9237 9.43833 11.0104 9.37727 11.1553L9.36041 11.2058L9.35873 11.2129L9.35394 11.2391C9.33313 11.3874 9.41903 11.5299 9.558 11.5816L9.59956 11.594L11.6742 12.062L11.0454 12.6907L11.0263 12.7118C10.9305 12.8279 10.9368 12.9999 11.0454 13.1085C11.1492 13.2123 11.3111 13.2227 11.4266 13.1397L11.4632 13.1085L12.1877 12.384L12.8054 13.0018L12.1044 13.7028L12.0852 13.7237C11.9764 13.8528 11.9828 14.0459 12.1044 14.1674C12.221 14.2841 12.4035 14.2947 12.5321 14.1992L12.569 14.1674L13.27 13.4664L14.4776 14.6739L14.5001 14.6949C14.6763 14.8488 14.9441 14.8418 15.112 14.6739C15.2737 14.5122 15.2861 14.2578 15.1493 14.0818L15.112 14.0396L13.9044 12.832L14.6208 12.1156L14.64 12.0947C14.7488 11.9656 14.7424 11.7725 14.6208 11.651C14.5042 11.5343 14.3217 11.5237 14.1931 11.6192L14.1562 11.651L13.4398 12.3674L12.8221 11.7496L13.5619 11.0098L13.581 10.9887C13.6768 10.8727 13.6705 10.7006 13.5619 10.592C13.4581 10.4882 13.2962 10.4778 13.1807 10.5609L13.1441 10.592L12.5001 11.2361L11.9677 9.23387L11.9601 9.21021ZM9.7149 8.05726C9.36777 7.71012 8.80495 7.71012 8.45782 8.05726C8.11069 8.40439 8.11069 8.9672 8.45782 9.31433C8.80495 9.66147 9.36777 9.66147 9.7149 9.31433C10.062 8.9672 10.062 8.40439 9.7149 8.05726Z" fill="rgb(255,255,255)" fill-opacity="0.600000024" fill-rule="evenodd" />
			<path id="uxs-b" d="M8.7318 6.45826L11.8977 7.23058C12.216 7.30823 12.4887 7.51265 12.6525 7.79639L16.0965 13.7617C16.2509 14.029 16.2907 14.331 16.2312 14.6109C16.2056 14.4912 16.1611 14.3734 16.0965 14.2617L14.7168 11.872C14.7141 11.7917 14.6821 11.7122 14.6208 11.651C14.6028 11.6329 14.5831 11.6174 14.5624 11.6044L12.6525 8.29639C12.4887 8.01265 12.216 7.80823 11.8977 7.73058L8.7318 6.95826C8.10835 6.80616 7.47558 7.17149 7.29557 7.78746L6.38149 10.9153C6.37311 10.944 6.36583 10.9729 6.35964 11.0019C6.31865 10.8095 6.32521 10.6079 6.38149 10.4153L7.29557 7.28746C7.47558 6.67149 8.10835 6.30616 8.7318 6.45826ZM13.0721 11.9996L13.5619 11.5098L13.581 11.4887C13.6768 11.3727 13.6705 11.2006 13.5619 11.092C13.5478 11.078 13.5327 11.0656 13.5167 11.055L12.8221 11.7496L13.0721 11.9996ZM11.3684 9.63653C11.3203 9.70443 11.2967 9.78918 11.3065 9.87582L11.3147 9.92134L11.6822 11.3935L11.8146 11.4241L11.3684 9.63653ZM9.46776 11.5298C9.42932 11.5636 9.39801 11.6061 9.37727 11.6553L9.36041 11.7058L9.35873 11.7129L9.35394 11.7391C9.33313 11.8874 9.41903 12.0299 9.558 12.0816L9.59956 12.094L11.2662 12.47L11.6742 12.062L9.59956 11.594L9.558 11.5816C9.52461 11.5692 9.49428 11.5515 9.46776 11.5298ZM11.0906 13.1456L11.0454 13.1907L11.0263 13.2118C10.9305 13.3279 10.9368 13.4999 11.0454 13.6085C11.1492 13.7123 11.3111 13.7227 11.4266 13.6397L11.4632 13.6085L12.1877 12.884L12.5554 13.2518L12.8054 13.0018L12.1877 12.384L11.4632 13.1085L11.4266 13.1397C11.3268 13.2114 11.1923 13.2134 11.0906 13.1456ZM12.1227 14.1845L12.1044 14.2028L12.0852 14.2237C11.9764 14.3528 11.9828 14.5459 12.1044 14.6674C12.221 14.7841 12.4035 14.7947 12.5321 14.6992L12.569 14.6674L13.27 13.9664L14.4776 15.1739L14.5001 15.1949C14.6763 15.3488 14.9441 15.3418 15.112 15.1739C15.2662 15.0197 15.2847 14.7812 15.1674 14.6068C15.1514 14.6305 15.133 14.653 15.112 14.6739C14.9441 14.8418 14.6763 14.8488 14.5001 14.6949L14.4776 14.6739L13.27 13.4664L12.569 14.1674L12.5321 14.1992C12.4101 14.2898 12.2395 14.2849 12.1227 14.1845ZM14.1544 13.082L14.6208 12.6156L14.64 12.5947C14.7488 12.4656 14.7424 12.2725 14.6208 12.151C14.6149 12.145 14.6087 12.1393 14.6025 12.1339L13.9044 12.832L14.1544 13.082ZM8.23318 8.93579C8.1451 9.23739 8.21998 9.57649 8.45782 9.81433C8.80495 10.1615 9.36777 10.1615 9.7149 9.81433C9.95274 9.57649 10.0276 9.23739 9.93954 8.93579C9.89907 9.07438 9.82419 9.20505 9.7149 9.31433C9.36777 9.66147 8.80495 9.66147 8.45782 9.31433C8.34853 9.20505 8.27365 9.07438 8.23318 8.93579Z" fill="rgb(255,255,255)" fill-opacity="0.649999976" fill-rule="evenodd" />
			<path id="uxs-c" d="M11.2307 6C11.5846 5.99979 11.924 6.14028 12.1743 6.39052L17.6917 11.908C18.2124 12.4287 18.2124 13.2729 17.6917 13.7936L14.1562 17.3291C13.6355 17.8498 12.7913 17.8498 12.2706 17.3291L6.75313 11.8117C6.50289 11.5614 6.3624 11.222 6.36261 10.8681L6.3647 7.33463C6.36513 6.59887 6.96148 6.00252 7.69724 6.00209L11.2307 6ZM11.5577 9.00339C11.392 9.04982 11.2877 9.20934 11.3065 9.37588L11.3148 9.42139L11.8146 11.4242L9.77557 10.9522L9.74783 10.947C9.7386 10.9456 9.72938 10.9446 9.72019 10.944L9.69275 10.9433C9.55622 10.9449 9.43117 11.0275 9.37729 11.1554L9.36044 11.2058L9.35876 11.2129C9.32324 11.3704 9.41088 11.5269 9.55803 11.5817L9.59959 11.5941L11.6742 12.0621L11.0454 12.6908C10.9301 12.8062 10.9301 12.9932 11.0454 13.1086C11.1038 13.167 11.1806 13.1958 11.2572 13.1951L11.2826 13.1937C11.3335 13.1889 11.3833 13.1708 11.4266 13.1397L11.4632 13.1086L12.1877 12.3841L12.8055 13.0018L12.1044 13.7029C11.9761 13.8312 11.9761 14.0392 12.1044 14.1675C12.1661 14.2292 12.2463 14.2613 12.3272 14.2636L12.3542 14.2632C12.4171 14.2599 12.4792 14.2386 12.5321 14.1993L12.569 14.1675L13.2701 13.4664L14.4777 14.674C14.5652 14.7616 14.68 14.8054 14.7948 14.8054L14.8235 14.8045C14.9286 14.7978 15.0317 14.7543 15.112 14.674C15.2737 14.5123 15.2862 14.2578 15.1494 14.0819L15.112 14.0396L13.9044 12.832L14.6208 12.1156L14.64 12.0947C14.7488 11.9656 14.7424 11.7726 14.6208 11.651C14.566 11.5961 14.4965 11.5647 14.4249 11.5568L14.398 11.5549C14.3261 11.5529 14.2536 11.5743 14.1931 11.6192L14.1562 11.651L13.4398 12.3674L12.8221 11.7497L13.5619 11.0098L13.5811 10.9888C13.6769 10.8727 13.6705 10.7007 13.5619 10.5921C13.51 10.5402 13.4436 10.5116 13.3757 10.5064L13.3502 10.5056C13.2907 10.5061 13.2313 10.5246 13.1808 10.5609L13.1442 10.5921L12.5001 11.2361L11.9677 9.23392L11.9601 9.21026C11.9154 9.08661 11.8033 9.00383 11.6777 8.99234L11.654 8.99103C11.6222 8.99042 11.5899 8.99438 11.5577 9.00339ZM8.45785 8.05731C8.11072 8.40444 8.11072 8.96725 8.45785 9.31439C8.62646 9.48299 8.84595 9.56971 9.06689 9.57452L9.10589 9.57452L9.14485 9.57282C9.35248 9.55922 9.55624 9.47308 9.71493 9.31439C10.0621 8.96725 10.0621 8.40444 9.71493 8.05731C9.3678 7.71018 8.80498 7.71018 8.45785 8.05731Z" fill="rgb(255,255,255)" fill-rule="evenodd" />
			<path id="uxs-d" d="M11.2307 6C11.5846 5.99979 11.924 6.14028 12.1743 6.39052L17.6917 11.908C18.016 12.2322 18.1383 12.6819 18.0588 13.1008C18.0105 12.847 17.8882 12.6044 17.6917 12.408L12.1743 6.89052C11.924 6.64028 11.5846 6.49979 11.2307 6.5L7.69724 6.50209C6.96148 6.50252 6.36513 7.09887 6.3647 7.83463L6.36289 10.8961C6.3627 10.8868 6.3626 10.8774 6.36261 10.8681L6.3647 7.33463C6.36513 6.59887 6.96148 6.00252 7.69724 6.00209L11.2307 6ZM8.23321 8.93585C8.27368 9.07443 8.34856 9.2051 8.45785 9.31439C8.62646 9.48299 8.84595 9.56971 9.06689 9.57452L9.10589 9.57452L9.14485 9.57282C9.35248 9.55922 9.55624 9.47308 9.71493 9.31439C9.82422 9.2051 9.8991 9.07443 9.93957 8.93585C10.0277 9.23745 9.95277 9.57654 9.71493 9.81439C9.55624 9.97308 9.35248 10.0592 9.14485 10.0728L9.10589 10.0745L9.06689 10.0745C8.84595 10.0697 8.62646 9.98299 8.45785 9.81439C8.22001 9.57654 8.14513 9.23745 8.23321 8.93585ZM11.3685 9.63658C11.3203 9.70448 11.2968 9.78923 11.3065 9.87588L11.3148 9.92139L11.6822 11.3935L11.8146 11.4242L11.3685 9.63658ZM9.46779 11.5298C9.42934 11.5636 9.39804 11.6061 9.37729 11.6554L9.36044 11.7058L9.35876 11.7129C9.32324 11.8704 9.41088 12.0269 9.55803 12.0817L9.59959 12.0941L11.2662 12.47L11.6742 12.0621L9.59959 11.5941L9.55803 11.5817C9.52464 11.5693 9.49431 11.5516 9.46779 11.5298ZM11.0906 13.1456L11.0454 13.1908C10.9301 13.3062 10.9301 13.4932 11.0454 13.6086C11.1038 13.667 11.1806 13.6958 11.2572 13.6951L11.2826 13.6937C11.3335 13.6889 11.3833 13.6708 11.4266 13.6397L11.4632 13.6086L12.1877 12.8841L12.5555 13.2518L12.8055 13.0018L12.1877 12.3841L11.4632 13.1086L11.4266 13.1397C11.3833 13.1708 11.3335 13.1889 11.2826 13.1937L11.2572 13.1951C11.1991 13.1956 11.1408 13.1791 11.0906 13.1456ZM12.1227 14.1845L12.1044 14.2029C11.9761 14.3312 11.9761 14.5392 12.1044 14.6675C12.1661 14.7292 12.2463 14.7613 12.3272 14.7636L12.3542 14.7632C12.4171 14.7599 12.4792 14.7386 12.5321 14.6993L12.569 14.6675L13.2701 13.9664L14.4777 15.174C14.5652 15.2616 14.68 15.3054 14.7948 15.3054L14.8235 15.3045C14.9286 15.2978 15.0317 15.2543 15.112 15.174C15.2663 15.0198 15.2847 14.7812 15.1674 14.6068C15.1515 14.6305 15.133 14.653 15.112 14.674C15.0317 14.7543 14.9286 14.7978 14.8235 14.8045L14.7948 14.8054C14.68 14.8054 14.5652 14.7616 14.4777 14.674L13.2701 13.4664L12.569 14.1675L12.5321 14.1993C12.4792 14.2386 12.4171 14.2599 12.3542 14.2632L12.3272 14.2636C12.2541 14.2615 12.1816 14.2351 12.1227 14.1845ZM14.1544 13.082L14.6208 12.6156L14.64 12.5947C14.7488 12.4656 14.7424 12.2726 14.6208 12.151C14.6149 12.1451 14.6088 12.1394 14.6025 12.134L13.9044 12.832L14.1544 13.082ZM13.0721 11.9997L13.5619 11.5098L13.5811 11.4888C13.6769 11.3727 13.6705 11.2007 13.5619 11.0921C13.5478 11.078 13.5327 11.0657 13.5167 11.055L12.8221 11.7497L13.0721 11.9997Z" fill="rgb(255,255,255)" fill-opacity="0.649999976" fill-rule="evenodd" />
		</g>
	</g>
</svg>
