<svg viewBox="0 0 48 48" xmlns="http://www.w3.org/2000/svg" xmlns:xlink="http://www.w3.org/1999/xlink" width="48.000000" height="48.000000" fill="none" customFrame="#000000">
	<g id="ic_success_lined">
		<rect id="矩形" width="48.000000" height="48.000000" x="0.000000" y="0.000000" opacity="0" fill="rgb(216,216,216)" />
		<rect id="矩形" width="48.000000" height="48.000000" x="0.000000" y="0.000000" opacity="0" stroke="rgb(100,187,92)" stroke-opacity="0" stroke-width="1" />
		<path id="Stroke-1" d="M21.8021 4.1177C28.572 3.39311 35.0288 6.06123 39.2877 11.1032C40.7003 12.7756 40.631 15.2304 39.2268 16.8771L38.9804 17.1438L23.0064 33.1178C22.4739 33.6504 21.6406 33.6988 21.0534 33.2631L12.8851 25.1178C12.2993 24.5321 12.2993 23.5823 12.8851 22.9965C13.4177 22.464 14.251 22.4156 14.8382 22.8513L21.9459 29.9358L36.8591 15.0225C37.3564 14.5253 37.4492 13.7661 37.1209 13.2146C33.4972 8.92458 27.8891 6.48334 22.1215 7.10066C14.2066 7.94809 7.78956 14.4789 7.0717 22.4121C6.11193 33.0375 14.9255 41.8689 25.5499 40.931C33.3971 40.2385 39.9119 33.9578 40.867 26.1539C41.1574 23.7946 41.0754 21.8776 40.44 19.68C40.2099 18.8842 40.6642 18.0501 41.46 17.82C42.2559 17.5899 43.0899 18.0442 43.32 18.84C44.0678 21.4261 44.1846 23.758 43.8447 26.5194C42.7175 35.7296 35.0696 43.1025 25.8137 43.9194C13.327 45.0217 2.9559 34.6297 4.08388 22.142C4.93063 12.7844 12.464 5.11752 21.8021 4.1177Z" fill="rgb(100,187,92)" fill-rule="evenodd" />
	</g>
</svg>
