<svg viewBox="0 0 120 120" xmlns="http://www.w3.org/2000/svg" xmlns:xlink="http://www.w3.org/1999/xlink" width="120.000000" height="120.000000" fill="none">
	<rect id="05+SearchNoResult.svg" width="120.000000" height="120.000000" x="0.000000" y="0.000000" />
	<g id="EmptyPage/05-SearchNoResult">
		<g id="编组">
			<path id="shadow" d="M72.3171 96.5151C73.8677 96.5315 78.271 97.1258 80.2097 90.7894C86.669 92.1757 90.7498 94.2175 90.7498 96.494C90.7498 100.675 76.9825 104.065 59.9998 104.065C43.017 104.065 29.2498 100.675 29.2498 96.494L72.3171 96.5151Z" opacity="0.150000006" fill="rgb(161,167,179)" fill-rule="evenodd" />
			<path id="shadow" d="M80.2097 90.7894C86.669 92.1757 90.7498 94.2175 90.7498 96.494C90.7498 100.675 76.9825 104.065 59.9998 104.065C43.017 104.065 29.2498 100.675 29.2498 96.494L72.3171 96.5151C73.8677 96.5315 78.271 97.1258 80.2097 90.7894Z" opacity="0.150000006" fill-rule="evenodd" stroke="rgb(0,0,0)" stroke-opacity="0" stroke-width="1" />
			<g id="名单">
				<path id="形状结合" d="M89.6268 15.4449C94.6176 15.4449 98.1312 19.7487 98.1312 24.5403C98.1312 24.6405 98.1296 24.7404 98.1263 24.8398L98.1312 33.8145L81.1223 33.8145L81.1223 24.8395C81.124 24.7404 81.1223 24.6405 81.1223 24.5403C81.1223 19.7487 84.636 15.4449 89.6268 15.4449Z" opacity="0.600000024" fill="rgb(161,167,179)" fill-rule="evenodd" />
				<path id="形状结合" d="M98.1312 24.5403C98.1312 24.6405 98.1296 24.7404 98.1263 24.8398L98.1312 33.8145L81.1223 33.8145L81.1223 24.8395C81.124 24.7404 81.1223 24.6405 81.1223 24.5403C81.1223 19.7487 84.636 15.4449 89.6268 15.4449C94.6176 15.4449 98.1312 19.7487 98.1312 24.5403Z" opacity="0.600000024" fill-rule="evenodd" stroke="rgb(0,0,0)" stroke-opacity="0" stroke-width="1" />
				<path id="形状结合" d="M89.7537 15.5966C86.3873 15.5966 84.1816 17.3578 83.0667 18.9024C81.6571 20.8552 81.1688 22.657 81.1456 24.3124C81.1353 25.0482 81.1319 25.7781 81.1353 26.5022L81.1456 27.584L81.1455 51.4436C72.8731 53.2315 66.6748 60.5912 66.6748 69.3986C66.6748 78.1241 72.7583 85.4288 80.9152 87.3024C79.7094 97.3246 74.1089 96.5341 72.3171 96.5151L25.3331 96.5148L13.2832 96.494C12.2925 96.494 9.1352 94.2418 7.33491 90.673C6.13471 88.2938 5.55823 84.7631 5.60547 80.081L25.3328 80.0806L25.3331 25.494C25.3331 20.4596 27.7353 17.1922 32.5396 15.6919L32.8564 15.5966L89.7537 15.5966Z" opacity="0.300000012" fill="rgb(161,167,179)" fill-rule="evenodd" />
				<path id="形状结合" d="M83.0667 18.9024C81.6571 20.8552 81.1688 22.657 81.1456 24.3124C81.1353 25.0482 81.1319 25.7781 81.1353 26.5022L81.1456 27.584L81.1455 51.4436C72.8731 53.2315 66.6748 60.5912 66.6748 69.3986C66.6748 78.1241 72.7583 85.4288 80.9152 87.3024C79.7094 97.3246 74.1089 96.5341 72.3171 96.5151L25.3331 96.5148L13.2832 96.494C12.2925 96.494 9.1352 94.2418 7.33491 90.673C6.13471 88.2938 5.55823 84.7631 5.60547 80.081L25.3328 80.0806L25.3331 25.494C25.3331 20.4596 27.7353 17.1922 32.5396 15.6919L32.8564 15.5966L89.7537 15.5966C86.3873 15.5966 84.1816 17.3578 83.0667 18.9024Z" opacity="0.300000012" fill-rule="evenodd" stroke="rgb(0,0,0)" stroke-opacity="0" stroke-width="1" />
				<path id="矩形" d="M5.60547 80.0811L62.7293 80.0811C62.3523 85.7863 63.0811 89.8341 64.9154 92.2245C66.7498 94.6148 69.4659 96.038 73.0636 96.494C33.8705 96.494 13.9437 96.494 13.2832 96.494C12.2925 96.494 9.1352 94.2418 7.33491 90.673C6.13471 88.2938 5.55823 84.7631 5.60547 80.0811Z" opacity="0.400000006" fill="rgb(161,167,179)" fill-rule="evenodd" />
				<path id="矩形" d="M62.7293 80.0811C62.3523 85.7863 63.0811 89.8341 64.9154 92.2245C66.7498 94.6148 69.4659 96.038 73.0636 96.494C33.8705 96.494 13.9437 96.494 13.2832 96.494C12.2925 96.494 9.1352 94.2418 7.33491 90.673C6.13471 88.2938 5.55823 84.7631 5.60547 80.0811L62.7293 80.0811Z" opacity="0.400000006" fill-rule="evenodd" stroke="rgb(0,0,0)" stroke-opacity="0" stroke-width="1" />
			</g>
			<g id="放大镜">
				<path id="形状结合" d="M98.5302 81.8698L102.098 85.4373C103.043 85.0545 104.167 85.2465 104.934 86.0133L114.175 95.2545C115.198 96.2774 115.198 97.9359 114.175 98.9588L113.922 99.2116C112.899 100.234 111.241 100.234 110.218 99.2116L100.977 89.9704C100.21 89.2037 100.018 88.0801 100.401 87.1345L96.7893 83.5216C97.4049 83.0092 97.9865 82.4573 98.5302 81.8698Z" opacity="0.600000024" fill="rgb(161,167,179)" fill-rule="evenodd" />
				<path id="形状结合" d="M102.098 85.4373C103.043 85.0545 104.167 85.2465 104.934 86.0133L114.175 95.2545C115.198 96.2774 115.198 97.9359 114.175 98.9588L113.922 99.2116C112.899 100.234 111.241 100.234 110.218 99.2116L100.977 89.9704C100.21 89.2037 100.018 88.0801 100.401 87.1345L96.7893 83.5216C97.4049 83.0092 97.9865 82.4573 98.5302 81.8698L102.098 85.4373Z" opacity="0.600000024" fill-rule="evenodd" stroke="rgb(0,0,0)" stroke-opacity="0" stroke-width="1" />
				<path id="形状结合" d="M85.0444 51.0268C95.1897 51.0268 103.414 59.2512 103.414 69.3964C103.414 79.5417 95.1897 87.7661 85.0444 87.7661C74.8992 87.7661 66.6748 79.5417 66.6748 69.3964C66.6748 59.2512 74.8992 51.0268 85.0444 51.0268ZM85.0444 55.1089C77.1537 55.1089 70.757 61.5057 70.757 69.3964C70.757 77.2872 77.1537 83.6839 85.0444 83.6839C92.9352 83.6839 99.3319 77.2872 99.3319 69.3964C99.3319 61.5057 92.9352 55.1089 85.0444 55.1089Z" opacity="0.5" fill="rgb(161,167,179)" fill-rule="evenodd" />
				<path id="形状结合" d="M103.414 69.3964C103.414 79.5417 95.1897 87.7661 85.0444 87.7661C74.8992 87.7661 66.6748 79.5417 66.6748 69.3964C66.6748 59.2512 74.8992 51.0268 85.0444 51.0268C95.1897 51.0268 103.414 59.2512 103.414 69.3964ZM70.757 69.3964C70.757 77.2872 77.1537 83.6839 85.0444 83.6839C92.9352 83.6839 99.3319 77.2872 99.3319 69.3964C99.3319 61.5057 92.9352 55.1089 85.0444 55.1089C77.1537 55.1089 70.757 61.5057 70.757 69.3964Z" opacity="0.5" fill-rule="evenodd" stroke="rgb(0,0,0)" stroke-opacity="0" stroke-width="1" />
				<circle id="椭圆形" cx="85.0445786" cy="69.3964157" r="14.2875004" opacity="0.200000003" fill="rgb(161,167,179)" />
				<circle id="椭圆形" cx="85.0445786" cy="69.3964157" r="14.2875004" opacity="0.200000003" stroke="rgb(0,0,0)" stroke-opacity="0" stroke-width="1" />
				<rect id="矩形" width="8.164286" height="1.360714" x="0.000000" y="0.000000" rx="0.680357" opacity="0.200000003" fill="rgb(161,167,179)" transform="matrix(-0.258819,0.965926,-0.965926,-0.258819,95.4275,66.4164)" />
				<rect id="矩形" width="8.164286" height="1.360714" x="0.000000" y="0.000000" rx="0.680357" opacity="0.200000003" stroke="rgb(0,0,0)" stroke-opacity="0" stroke-width="1" transform="matrix(-0.258819,0.965926,-0.965926,-0.258819,95.4275,66.4164)" />
				<rect id="矩形备份" width="4.082142" height="1.360714" x="0.000000" y="0.000000" rx="0.680357" opacity="0.200000003" fill="rgb(161,167,179)" transform="matrix(-0.258819,0.965926,-0.965926,-0.258819,92.8582,63.6254)" />
				<rect id="矩形备份" width="4.082142" height="1.360714" x="0.000000" y="0.000000" rx="0.680357" opacity="0.200000003" stroke="rgb(0,0,0)" stroke-opacity="0" stroke-width="1" transform="matrix(-0.258819,0.965926,-0.965926,-0.258819,92.8582,63.6254)" />
			</g>
		</g>
		<path id="形状结合" d="M2.6754 1.88555L4.51456 8.74937C4.70906 9.47527 4.27828 10.2214 3.55239 10.4159C2.82649 10.6104 2.08036 10.1796 1.88586 9.45373L0.0467033 2.58991C-0.1478 1.86401 0.282978 1.11789 1.00887 0.923382C1.73477 0.728878 2.4809 1.15966 2.6754 1.88555ZM20.9393 0.923382C21.6652 1.11789 22.096 1.86401 21.9015 2.58991L20.0623 9.45373C19.8678 10.1796 19.1217 10.6104 18.3958 10.4159C17.6699 10.2214 17.2391 9.47527 17.4336 8.74937L19.2728 1.88555C19.4673 1.15966 20.2134 0.728878 20.9393 0.923382ZM11.3521 0C12.1036 0 12.7128 0.609211 12.7128 1.36071L12.7128 8.46667C12.7128 9.21817 12.1036 9.82738 11.3521 9.82738C10.6006 9.82738 9.99134 9.21817 9.99134 8.46667L9.99134 1.36071C9.99134 0.609211 10.6006 0 11.3521 0Z" opacity="0.300000012" fill="rgb(161,167,179)" fill-rule="evenodd" transform="matrix(0.601815,-0.798635,0.798635,0.601815,51.8989,57.1116)" />
		<path id="形状结合" d="M4.51456 8.74937C4.70906 9.47527 4.27828 10.2214 3.55239 10.4159C2.82649 10.6104 2.08036 10.1796 1.88586 9.45373L0.0467033 2.58991C-0.1478 1.86401 0.282978 1.11789 1.00887 0.923382C1.73477 0.728878 2.4809 1.15966 2.6754 1.88555L4.51456 8.74937ZM21.9015 2.58991L20.0623 9.45373C19.8678 10.1796 19.1217 10.6104 18.3958 10.4159C17.6699 10.2214 17.2391 9.47527 17.4336 8.74937L19.2728 1.88555C19.4673 1.15966 20.2134 0.728878 20.9393 0.923382C21.6652 1.11789 22.096 1.86401 21.9015 2.58991ZM12.7128 1.36071L12.7128 8.46667C12.7128 9.21817 12.1036 9.82738 11.3521 9.82738C10.6006 9.82738 9.99134 9.21817 9.99134 8.46667L9.99134 1.36071C9.99134 0.609211 10.6006 0 11.3521 0C12.1036 0 12.7128 0.609211 12.7128 1.36071Z" opacity="0.300000012" fill-rule="evenodd" stroke="rgb(0,0,0)" stroke-opacity="0" stroke-width="1" transform="matrix(0.601815,-0.798635,0.798635,0.601815,51.8989,57.1116)" />
	</g>
</svg>
