<svg viewBox="0 0 16 16" xmlns="http://www.w3.org/2000/svg" xmlns:xlink="http://www.w3.org/1999/xlink" width="16.000000" height="16.000000" fill="none">
	<rect id="ic_public_doc_list" width="16.000000" height="16.000000" x="0.000000" y="0.000000" />
	<path id="矢量 19" d="M14.1097 9.23923L14.1097 3.21518C14.1097 3.05229 14.0925 2.89307 14.0583 2.73753C14.0295 2.60666 13.9885 2.47837 13.9354 2.35291C13.8821 2.22679 13.8184 2.10781 13.7443 1.99553C13.6625 1.87158 13.568 1.75606 13.4609 1.64876C13.3537 1.54168 13.2381 1.44715 13.1142 1.36538C13.0019 1.29118 12.8828 1.22758 12.7569 1.17436C12.6313 1.12114 12.5031 1.08026 12.3723 1.05149C12.2168 1.01709 12.0575 1 11.8945 1L4.21518 1C4.05218 1 3.89297 1.01709 3.73748 1.05149C3.6066 1.08026 3.47838 1.12114 3.3528 1.17436C3.22679 1.22758 3.1077 1.29139 2.99543 1.36538C2.87153 1.44715 2.75595 1.54168 2.64882 1.64876C2.54163 1.75606 2.44715 1.87158 2.36538 1.99553C2.29123 2.10781 2.22758 2.22679 2.17425 2.35291C2.12114 2.47837 2.0802 2.60666 2.05138 2.73753C2.01714 2.89307 2 3.05229 2 3.21518L2 12.7848C2 12.9479 2.01714 13.1071 2.05138 13.2625C2.0802 13.3933 2.12114 13.5216 2.17425 13.6471C2.22758 13.7732 2.29123 13.8924 2.36538 14.0045C2.44715 14.1284 2.54163 14.2439 2.64882 14.3512C2.75601 14.4583 2.87153 14.5529 2.99543 14.6346C3.1077 14.7088 3.22679 14.7724 3.3528 14.8256C3.47832 14.8789 3.60655 14.9197 3.73743 14.9487C3.89291 14.9829 4.05218 15 4.21518 15L10.1224 15C10.1835 15 10.2403 14.9892 10.2925 14.9676C10.3022 14.9635 10.3117 14.9592 10.3211 14.9544C10.3762 14.9273 10.4246 14.889 10.4635 14.8424L13.98 11.3259C14.0844 11.2214 14.1366 11.1172 14.1366 11.0127C14.1366 10.9082 14.0844 10.8039 13.98 10.6994C13.8935 10.6129 13.789 10.5696 13.6667 10.5696L11.3038 10.5696C11.0837 10.5696 10.8729 10.6123 10.6714 10.6975C10.5785 10.7366 10.4908 10.7838 10.4082 10.8383C10.3178 10.8982 10.2334 10.9672 10.1552 11.0453C10.0769 11.1236 10.0079 11.208 9.94811 11.2984C9.89343 11.3811 9.84649 11.4689 9.80722 11.5617C9.76791 11.6545 9.73767 11.7495 9.71653 11.8462C9.69176 11.9595 9.67937 12.0755 9.67937 12.194L9.67937 14.1139L4.21518 14.1139C4.11205 14.1139 4.01151 14.1027 3.91368 14.08C3.84029 14.0629 3.76836 14.0395 3.69795 14.0097C3.62504 13.9787 3.55587 13.9422 3.49054 13.8995C3.41353 13.8494 3.34182 13.7912 3.27535 13.7245C3.20894 13.6581 3.15064 13.5865 3.10045 13.5095C3.05789 13.4442 3.02117 13.375 2.99034 13.3021C2.96054 13.2315 2.93713 13.1597 2.92014 13.0864C2.89743 12.9884 2.88607 12.888 2.88607 12.7848L2.88607 3.21518C2.88607 3.112 2.89743 3.01162 2.92014 2.91362C2.93713 2.84029 2.96054 2.76847 2.99034 2.69795C3.02117 2.62504 3.05789 2.55604 3.1004 2.49071C3.15059 2.41369 3.20889 2.34187 3.27535 2.27546C3.34182 2.20905 3.41353 2.15064 3.49054 2.10045C3.55587 2.05784 3.62504 2.02128 3.69795 1.99034C3.76841 1.96049 3.84034 1.93713 3.91373 1.92025C4.01157 1.89754 4.11205 1.88607 4.21518 1.88607L11.8945 1.88607C11.9976 1.88607 12.0981 1.89754 12.196 1.92025C12.2694 1.93713 12.3413 1.96049 12.4117 1.99034C12.4846 2.02128 12.5537 2.05784 12.619 2.10045C12.6961 2.15064 12.7679 2.20905 12.8343 2.27546C12.9007 2.34187 12.9591 2.41369 13.0092 2.49071C13.0518 2.55604 13.0885 2.62504 13.1193 2.69795C13.1491 2.76847 13.1725 2.84029 13.1895 2.91384C13.2123 3.01162 13.2236 3.112 13.2236 3.21518L13.2236 9.23923C13.2236 9.48735 13.4185 9.68226 13.6667 9.68226C13.9147 9.68226 14.1097 9.48735 14.1097 9.23923ZM3.79816 5.0797C3.79816 4.83157 3.99307 4.63666 4.2412 4.63666L9.00471 4.63666C9.25283 4.63666 9.44774 4.83157 9.44774 5.0797C9.44774 5.32783 9.25283 5.52274 9.00471 5.52274L4.2412 5.52274C3.99307 5.52274 3.79816 5.32783 3.79816 5.0797ZM7.21839 7.61397L4.2412 7.61397C3.99307 7.61397 3.79816 7.80888 3.79816 8.057C3.79816 8.30491 3.99307 8.50004 4.2412 8.50004L7.21839 8.50004C7.46652 8.50004 7.66143 8.30491 7.66143 8.057C7.66143 7.80888 7.46652 7.61397 7.21839 7.61397ZM12.5971 11.4557L10.5654 13.4874L10.5654 12.194C10.5654 11.9902 10.6375 11.8161 10.7817 11.672C10.8538 11.5998 10.9334 11.5459 11.0204 11.5098C11.1074 11.4737 11.2019 11.4557 11.3038 11.4557L12.5971 11.4557Z" fill="rgb(0,0,0)" fill-opacity="0.898039222" fill-rule="evenodd" />
</svg>
