<svg viewBox="0 0 16 16" xmlns="http://www.w3.org/2000/svg" xmlns:xlink="http://www.w3.org/1999/xlink" width="16.000000" height="16.000000" fill="none">
	<rect id="coins 1" width="16.000000" height="16.000000" x="0.000000" y="0.000000" />
	<rect id="矩形 3524" width="16.000000" height="16.000000" x="0.000000" y="0.000000" opacity="0" fill="rgb(0,0,0)" />
	<g id="组合 1631">
		<path id="矢量 85" d="M8 1.32666C6.99555 1.32666 6.07778 1.45777 5.24666 1.71999C4.41555 1.98222 3.76 2.34222 3.28 2.79999C2.8 3.25777 2.56 3.75999 2.56 4.30666L2.56 11.6933C2.56 12.24 2.8 12.7422 3.28 13.2C3.76 13.6578 4.41555 14.0178 5.24666 14.28C6.07778 14.5422 6.99555 14.6733 8 14.6733C9.00444 14.6733 9.92 14.54 10.7467 14.2733C11.5733 14.0067 12.2289 13.6467 12.7133 13.1933C13.1978 12.74 13.44 12.24 13.44 11.6933L13.44 4.30666C13.44 3.75999 13.1978 3.25999 12.7133 2.80666C12.2289 2.35333 11.5733 1.99333 10.7467 1.72666C9.92 1.45999 9.00444 1.32666 8 1.32666ZM8 2.33333C8.83111 2.33333 9.58667 2.4311 10.2667 2.62666C10.9422 2.81777 11.4711 3.06444 11.8533 3.36666C12.24 3.67333 12.4333 3.98666 12.4333 4.30666C12.4333 4.61333 12.24 4.91999 11.8533 5.22666C11.4711 5.52888 10.9422 5.77555 10.2667 5.96666C9.58667 6.15777 8.83111 6.25333 8 6.25333C7.15555 6.25333 6.39778 6.15777 5.72666 5.96666C5.05555 5.77555 4.52889 5.52888 4.14666 5.22666C3.76 4.91999 3.56666 4.61333 3.56666 4.30666C3.56666 3.98666 3.75555 3.67333 4.13333 3.36666C4.51555 3.06444 5.04444 2.81777 5.72 2.62666C6.39555 2.4311 7.15555 2.33333 8 2.33333ZM8 13.6667C7.15555 13.6667 6.39555 13.5689 5.72 13.3733C5.04444 13.1822 4.51555 12.9355 4.13333 12.6333C3.75555 12.3267 3.56666 12.0133 3.56666 11.6933L3.56666 9.72666C4.06 10.1133 4.69333 10.4155 5.46666 10.6333C6.24 10.8511 7.08444 10.96 8 10.96C8.91555 10.96 9.75778 10.8511 10.5267 10.6333C11.2956 10.4155 11.9311 10.1133 12.4333 9.72666L12.4333 11.6933C12.4333 12.0133 12.24 12.3267 11.8533 12.6333C11.4711 12.9355 10.9422 13.1822 10.2667 13.3733C9.58667 13.5689 8.83111 13.6667 8 13.6667ZM8 9.96666C7.15555 9.96666 6.39778 9.87111 5.72666 9.67999C5.05555 9.48888 4.52889 9.23777 4.14666 8.92666C3.76 8.61999 3.56666 8.3111 3.56666 7.99999L3.56666 6.03333C4.06 6.41555 4.69333 6.71555 5.46666 6.93333C6.24 7.15555 7.08444 7.26666 8 7.26666C8.91555 7.26666 9.75778 7.15555 10.5267 6.93333C11.2956 6.71555 11.9311 6.41555 12.4333 6.03333L12.4333 7.99999C12.4333 8.3111 12.24 8.61999 11.8533 8.92666C11.4711 9.23777 10.9422 9.48888 10.2667 9.67999C9.58667 9.87111 8.83111 9.96666 8 9.96666Z" fill="rgb(0,0,0)" fill-opacity="0.400000006" fill-rule="nonzero" />
	</g>
</svg>
