<svg viewBox="0 0 16 16" xmlns="http://www.w3.org/2000/svg" xmlns:xlink="http://www.w3.org/1999/xlink" width="16.000000" height="16.000000" fill="none">
	<rect id="ic_public_clock" width="16.000000" height="16.000000" x="0.000000" y="0.000000" />
	<path id="矢量 18" d="M11.4027 2.91969C11.5017 2.9861 11.5987 3.05533 11.6938 3.12758C11.8914 3.27771 12.1645 3.24029 12.3146 3.04278C12.4646 2.84506 12.4273 2.57205 12.2297 2.42192C12.1243 2.34188 12.0167 2.26487 11.9071 2.1911C11.8464 2.15021 11.7852 2.11019 11.7232 2.07125C11.4283 1.88564 11.123 1.72383 10.8074 1.58538C10.5359 1.46662 10.2568 1.36516 9.9699 1.28123C9.72096 1.20832 9.46954 1.14948 9.21562 1.10492C8.81655 1.03505 8.41132 1 8.00003 1C7.4777 1 6.96777 1.0556 6.47027 1.16657C6.06363 1.25743 5.66526 1.38528 5.27517 1.55034C4.88059 1.71712 4.50731 1.91636 4.1553 2.14805C3.76012 2.40807 3.39177 2.70877 3.05024 3.05035C2.70872 3.39171 2.40797 3.76012 2.14799 4.15535C1.91642 4.50731 1.71718 4.88048 1.55028 5.27506C1.38528 5.66531 1.25738 6.06357 1.16663 6.47027Q1.16574 6.47426 1.16485 6.47824Q1 7.22078 1 7.99992C1 8.52235 1.05554 9.03223 1.16663 9.52979C1.25738 9.93648 1.38528 10.3347 1.55028 10.7248C1.71718 11.1194 1.91636 11.4927 2.14794 11.8447C2.40797 12.2399 2.70872 12.6081 3.05024 12.9497C3.39177 13.2913 3.76012 13.592 4.1553 13.852C4.50731 14.0837 4.88059 14.2829 5.27517 14.4497C5.66526 14.6148 6.06363 14.7426 6.47032 14.8335C6.96782 14.9445 7.4777 15.0001 8.00003 15.0001C8.52229 15.0001 9.03218 14.9445 9.52968 14.8335C9.93637 14.7426 10.3347 14.6148 10.7249 14.4497C11.1194 14.2829 11.4926 14.0837 11.8447 13.852C12.2398 13.592 12.6082 13.2913 12.9498 12.9497C13.2913 12.6081 13.5921 12.2399 13.8521 11.8447C14.0836 11.4927 14.2829 11.1194 14.4497 10.7248C14.6147 10.3347 14.7426 9.93626 14.8334 9.52979C14.9445 9.03223 15 8.52235 15 7.99992C15 7.54628 14.9577 7.10086 14.873 6.66366C14.812 6.34869 14.729 6.03805 14.6241 5.73151C14.5125 5.40551 14.3784 5.09118 14.2219 4.78832C14.0387 4.43398 13.8247 4.09543 13.58 3.77288C13.4301 3.57516 13.1569 3.53774 12.9593 3.68765C12.7616 3.83757 12.7241 4.11079 12.8741 4.30829C13.0901 4.5932 13.2787 4.89194 13.4397 5.20497C13.5742 5.46629 13.6897 5.73757 13.7859 6.01858C13.8748 6.2786 13.9457 6.54209 13.9986 6.80925C14.0755 7.19864 14.1139 7.59539 14.1139 7.99992C14.1139 8.46243 14.0642 8.91369 13.9647 9.35348C13.8856 9.70263 13.7753 10.0446 13.6337 10.3797C13.4892 10.7211 13.317 11.0445 13.117 11.3495C12.8886 11.6978 12.624 12.0223 12.3232 12.3232C12.0224 12.6241 11.6978 12.8887 11.3494 13.1169C11.0444 13.317 10.7212 13.4892 10.3797 13.6337C10.0447 13.7754 9.70263 13.8858 9.35343 13.9647C8.91358 14.0642 8.46243 14.114 8.00003 14.114C7.53757 14.114 7.08642 14.0642 6.64652 13.9647C6.29737 13.8858 5.9553 13.7754 5.62032 13.6337C5.27885 13.4892 4.95554 13.317 4.65047 13.1169C4.30218 12.8887 3.97758 12.6239 3.67678 12.3232C3.37598 12.0223 3.11141 11.6978 2.88302 11.3495C2.68303 11.0445 2.51078 10.7211 2.36638 10.3797C2.22468 10.0446 2.11436 9.70263 2.03534 9.35348C1.93583 8.91369 1.88608 8.46243 1.88608 7.99992C1.88608 7.53763 1.93583 7.08637 2.03534 6.64636C2.11436 6.29742 2.22468 5.95519 2.36638 5.62032C2.51083 5.27874 2.68303 4.95554 2.88307 4.65052C3.11141 4.30224 3.37603 3.97753 3.67678 3.67683Q4.12799 3.22547 4.65042 2.88313C4.95549 2.68303 5.27879 2.51083 5.62032 2.36632C5.95525 2.22463 6.29732 2.1143 6.64641 2.03534L6.64699 2.03521Q7.30665 1.88608 8.00003 1.88608C8.36903 1.88608 8.73224 1.91831 9.08967 1.98256C9.30216 2.02085 9.51259 2.0706 9.72096 2.13161C9.96828 2.20386 10.2091 2.29126 10.4433 2.39336C10.7219 2.51494 10.9912 2.6575 11.2514 2.82126C11.3023 2.85328 11.3528 2.88616 11.4027 2.91969ZM8.00003 3.41205C8.24815 3.41205 8.44307 3.60696 8.44307 3.85509L8.44307 7.70918L10.2543 9.62908C10.4246 9.8095 10.4166 10.0851 10.2361 10.2553C10.0556 10.4256 9.78008 10.4176 9.60983 10.2372L7.67775 8.18921C7.63898 8.1481 7.60918 8.10116 7.5883 8.04859C7.56743 7.99624 7.55699 7.94173 7.55699 7.88505L7.55699 3.85509C7.55699 3.60696 7.7519 3.41205 8.00003 3.41205Z" fill="rgb(0,0,0)" fill-opacity="0.898039222" fill-rule="evenodd" />
</svg>
