<svg viewBox="0 0 16 16" xmlns="http://www.w3.org/2000/svg" xmlns:xlink="http://www.w3.org/1999/xlink" width="16.000000" height="16.000000" fill="none">
	<rect id="store 1" width="16.000000" height="16.000000" x="0.000000" y="0.000000" />
	<rect id="矩形 3523" width="16.000000" height="16.000000" x="0.000000" y="0.000000" opacity="0" fill="rgb(0,0,0)" />
	<g id="组合 1630">
		<path id="矢量 84" d="M3.44001 1.34666C3.14223 1.34666 2.88001 1.44222 2.65334 1.63333C2.43112 1.82444 2.26223 2.06888 2.14667 2.36666L0.926673 5.35999C0.851118 5.55111 0.791118 5.76444 0.746673 5.99999C0.697784 6.23555 0.67334 6.47555 0.67334 6.71999C0.67334 7.12444 0.804451 7.54222 1.06667 7.97333C1.32445 8.40888 1.66667 8.74222 2.09334 8.97333C2.82223 9.27555 3.51334 9.39333 4.16667 9.32666C4.82445 9.26444 5.35556 8.97777 5.76001 8.46666C6.15556 8.85777 6.60667 9.11999 7.11334 9.25333C7.62001 9.38666 8.14445 9.38666 8.68667 9.25333C9.23334 9.11999 9.75112 8.85777 10.24 8.46666C10.4978 8.78666 10.8445 9.01999 11.28 9.16666C11.7156 9.31777 12.16 9.37999 12.6133 9.35333C13.0667 9.32666 13.46 9.22222 13.7933 9.03999C14.4645 8.67555 14.9356 8.18222 15.2067 7.55999C15.4778 6.93777 15.4711 6.26888 15.1867 5.55333L13.8267 2.15999C13.72 1.89333 13.5267 1.68888 13.2467 1.54666C12.9711 1.39999 12.6622 1.32666 12.32 1.32666L3.44001 1.34666ZM12.5733 2.31999C12.64 2.31999 12.7 2.3311 12.7533 2.35333C12.8067 2.37555 12.8533 2.40888 12.8933 2.45333C12.9378 2.50222 12.9756 2.56444 13.0067 2.63999L14.2867 5.99999C14.3933 6.26666 14.4133 6.54444 14.3467 6.83333C14.2756 7.12222 14.1422 7.38666 13.9467 7.62666C13.7467 7.86666 13.52 8.05555 13.2667 8.19333C12.8711 8.38444 12.4356 8.42888 11.96 8.32666C11.4845 8.22444 11.1022 7.95555 10.8133 7.51999C10.6889 7.31555 10.5489 7.18222 10.3933 7.11999C10.2378 7.05777 10.0889 7.05999 9.94667 7.12666C9.80001 7.19777 9.66223 7.32888 9.53334 7.51999C9.36445 7.78666 9.14445 7.99777 8.87334 8.15333C8.60223 8.30888 8.31112 8.38666 8.00001 8.38666C7.63556 8.38666 7.30001 8.29333 6.99334 8.10666C6.68223 7.91999 6.42001 7.65555 6.20667 7.31333C6.14445 7.21555 6.05778 7.1511 5.94667 7.11999C5.83112 7.08888 5.71556 7.08888 5.60001 7.11999C5.48445 7.1511 5.3889 7.20888 5.31334 7.29333C4.89556 7.81777 4.4489 8.15777 3.97334 8.31333C3.50223 8.46888 3.06223 8.45555 2.65334 8.27333C2.4089 8.12222 2.19112 7.92888 2.00001 7.69333C1.8089 7.46222 1.68001 7.18888 1.61334 6.87333C1.55112 6.55777 1.59556 6.22444 1.74667 5.87333L3.07334 2.62666C3.11334 2.52888 3.17112 2.4511 3.24667 2.39333C3.32223 2.33555 3.43556 2.30666 3.58667 2.30666L12.5733 2.31999ZM4.11334 5.03999C3.98445 5.03999 3.88001 5.09333 3.80001 5.19999C3.72001 5.30666 3.68001 5.42888 3.68001 5.56666C3.68001 5.69555 3.72001 5.79999 3.80001 5.87999C3.88001 5.95999 3.98445 6.01111 4.11334 6.03333L4.19334 6.03333L11.8867 6.03333L11.9533 6.03333C12.0689 6.01111 12.16 5.95999 12.2267 5.87999C12.2889 5.79999 12.32 5.69555 12.32 5.56666C12.32 5.40666 12.2711 5.27999 12.1733 5.18666C12.08 5.08888 11.9578 5.03999 11.8067 5.03999L4.11334 5.03999ZM13.7133 9.66666C13.5533 9.66666 13.4245 9.72222 13.3267 9.83333C13.2333 9.94444 13.1867 10.0844 13.1867 10.2533L13.1867 13.3467C13.1867 13.4178 13.1756 13.4755 13.1533 13.52C13.1311 13.5644 13.0933 13.5933 13.04 13.6067C12.9867 13.6244 12.9178 13.6333 12.8333 13.6333L2.86667 13.6133C2.80001 13.6133 2.75112 13.6044 2.72001 13.5867C2.6889 13.5644 2.66667 13.5267 2.65334 13.4733C2.64445 13.42 2.64001 13.36 2.64001 13.2933L2.64001 10.2867C2.64001 10.1178 2.58667 9.97999 2.48001 9.87333C2.37334 9.76666 2.24445 9.71333 2.09334 9.71333C1.94667 9.71333 1.82445 9.76888 1.72667 9.87999C1.63334 9.99111 1.58667 10.1378 1.58667 10.32L1.58667 13.5067C1.58667 13.8444 1.71556 14.1244 1.97334 14.3467C2.23556 14.5644 2.5489 14.6733 2.91334 14.6733L13.04 14.6733C13.4578 14.6733 13.7645 14.5511 13.96 14.3067C14.1556 14.0578 14.2533 13.7111 14.2533 13.2667L14.2533 10.2533C14.2533 10.0533 14.2 9.90444 14.0933 9.80666C13.9867 9.71333 13.86 9.66666 13.7133 9.66666Z" fill="rgb(0,0,0)" fill-opacity="0.400000006" fill-rule="nonzero" />
	</g>
</svg>
