<svg width="24.000000" height="24.000000" viewBox="0 0 24 24" fill="none" xmlns="http://www.w3.org/2000/svg" xmlns:xlink="http://www.w3.org/1999/xlink">
	<desc>
			Created with Pixso.
	</desc>
	<defs>
		<clipPath id="clip79_5479">
			<rect width="24.000000" height="24.000000" fill="white" fill-opacity="0"/>
		</clipPath>
		<clipPath id="clip79_5480">
			<rect width="24.000000" height="24.000000" fill="white" fill-opacity="0"/>
		</clipPath>
	</defs>
	<g clip-path="url(#clip79_5480)">
		<g clip-path="url(#clip79_5479)">
			<g opacity="0.000000">
				<rect width="24.000000" height="24.000000" fill="#D8D8D8" fill-opacity="1.000000"/>
				<rect width="24.000000" height="24.000000" stroke="#000000" stroke-opacity="0" stroke-width="1.000000"/>
			</g>
			<path d="M6.96 3.42C7.77 3.42 8.46 4.03 8.56 4.83C8.71 5.96 9 7.06 9.45 8.1C9.79 8.91 9.54 9.83 8.87 10.34C10.05 12.29 11.65 14.03 13.6 15.2C14.08 14.57 15.01 14.28 15.78 14.53L15.93 14.59C16.97 15.03 18.06 15.33 19.19 15.47C19.99 15.57 20.59 16.26 20.59 17.07L20.59 18.94C20.59 20.34 19.44 21.32 18.04 21.15C9.93 20.15 3.56 13.6 2.8 5.44C2.7 4.36 3.57 3.42 4.66 3.42L6.96 3.42ZM12.45 6.72C15.12 6.72 17.29 8.89 17.29 11.57C17.29 11.98 16.95 12.32 16.54 12.32C16.12 12.32 15.79 11.98 15.79 11.57C15.79 9.72 14.29 8.22 12.45 8.22C12.03 8.22 11.7 7.89 11.7 7.47C11.7 7.06 12.03 6.72 12.45 6.72ZM12.54 2.82C17.32 2.82 21.2 6.69 21.2 11.47C21.2 11.88 20.86 12.22 20.45 12.22C20.03 12.22 19.7 11.88 19.7 11.47C19.7 7.52 16.49 4.32 12.54 4.32C12.13 4.32 11.79 3.98 11.79 3.57C11.79 3.15 12.13 2.82 12.54 2.82Z" fill="#000000" fill-opacity="0.400000" fill-rule="evenodd"/>
			<path d="M8.56 4.83C8.71 5.96 9 7.06 9.45 8.1C9.79 8.91 9.54 9.83 8.87 10.34C10.05 12.29 11.65 14.03 13.6 15.2C14.08 14.57 15.01 14.28 15.78 14.53L15.93 14.59C16.97 15.03 18.06 15.33 19.19 15.47C19.99 15.57 20.59 16.26 20.59 17.07L20.59 18.94C20.59 20.34 19.44 21.32 18.04 21.15C9.93 20.15 3.56 13.6 2.8 5.44C2.7 4.36 3.57 3.42 4.66 3.42L6.96 3.42C7.77 3.42 8.46 4.03 8.56 4.83ZM17.29 11.57C17.29 11.98 16.95 12.32 16.54 12.32C16.12 12.32 15.79 11.98 15.79 11.57C15.79 9.72 14.29 8.22 12.45 8.22C12.03 8.22 11.7 7.89 11.7 7.47C11.7 7.06 12.03 6.72 12.45 6.72C15.12 6.72 17.29 8.89 17.29 11.57ZM21.2 11.47C21.2 11.88 20.86 12.22 20.45 12.22C20.03 12.22 19.7 11.88 19.7 11.47C19.7 7.52 16.49 4.32 12.54 4.32C12.13 4.32 11.79 3.98 11.79 3.57C11.79 3.15 12.13 2.82 12.54 2.82C17.32 2.82 21.2 6.69 21.2 11.47Z" stroke="#000000" stroke-opacity="0" stroke-width="1.000000"/>
		</g>
	</g>
</svg>
