<svg width="24.000000" height="24.000000" viewBox="0 0 24 24" fill="none" xmlns="http://www.w3.org/2000/svg" xmlns:xlink="http://www.w3.org/1999/xlink">
	<desc>
			Created with Pixso.
	</desc>
	<defs>
		<clipPath id="clip79_5775">
			<rect width="20.000000" height="20.000000" transform="translate(2.000000 2.000000)" fill="white" fill-opacity="0"/>
		</clipPath>
		<clipPath id="clip79_5774">
			<rect width="24.000000" height="24.000000" fill="white" fill-opacity="0"/>
		</clipPath>
	</defs>
	<g clip-path="url(#clip79_5774)">
		<g clip-path="url(#clip79_5775)">
			<path d="M12.01 16.07C12.83 16.07 13.49 15.58 13.49 14.97C13.49 14.36 12.83 13.86 12.01 13.86C11.2 13.86 10.54 14.36 10.54 14.97C10.54 15.58 11.2 16.07 12.01 16.07ZM12.01 13.13C12.42 13.13 12.75 12.8 12.75 12.39C12.75 11.98 12.42 11.65 12.01 11.65C11.61 11.65 11.28 11.98 11.28 12.39C11.28 12.8 11.61 13.13 12.01 13.13ZM18.65 4.28L5.38 4.28C4.57 4.28 3.91 4.94 3.91 5.76L3.91 9.07C3.91 9.89 4.57 10.55 5.38 10.55L5.38 8.33L5.01 8.33L5.01 7.6L19.01 7.6L19.01 8.33L18.65 8.33L18.65 10.55C19.46 10.55 20.12 9.89 20.12 9.07L20.12 5.76C20.12 4.94 19.46 4.28 18.65 4.28ZM6.12 10.55L6.12 19.02C6.53 19.02 6.86 19.35 6.86 19.76L8.33 19.76C8.33 19.35 8.66 19.02 9.07 19.02C9.47 19.02 9.8 19.35 9.8 19.76L11.28 19.76C11.28 19.35 11.61 19.02 12.01 19.02C12.42 19.02 12.75 19.35 12.75 19.76L14.23 19.76C14.23 19.35 14.56 19.02 14.96 19.02C15.37 19.02 15.7 19.35 15.7 19.76L17.17 19.76C17.17 19.35 17.5 19.02 17.91 19.02L17.91 8.33L6.12 8.33L6.12 10.55ZM10.92 13.37C10.69 13.11 10.54 12.77 10.54 12.39C10.54 11.58 11.2 10.91 12.01 10.91C12.83 10.91 13.49 11.58 13.49 12.39C13.49 12.77 13.34 13.11 13.1 13.37C13.77 13.69 14.23 14.28 14.23 14.97C14.23 15.99 13.24 16.81 12.01 16.81C10.79 16.81 9.8 15.99 9.8 14.97C9.8 14.28 10.26 13.69 10.92 13.37Z" fill="#000000" fill-opacity="0.400000" fill-rule="nonzero"/>
		</g>
	</g>
</svg>
