<?xml version="1.0" encoding="UTF-8"?>
<svg width="20px" height="20px" viewBox="0 0 20 20" version="1.1" xmlns="http://www.w3.org/2000/svg"
>
    <title>编组</title>
    <defs>
        <linearGradient x1="50%" y1="0%" x2="50%" y2="100%" id="linearGradient-1">
            <stop stop-color="#51B2FF" offset="0%"></stop>
            <stop stop-color="#0A59F7" offset="100%"></stop>
        </linearGradient>
    </defs>
    <g id="页面-1" stroke="none" stroke-width="1" fill="none" fill-rule="evenodd">
        <g id="搜索" transform="translate(-16, -370)">
            <g id="编组备份-6" transform="translate(16, 380)">
                <g id="编组" transform="translate(0, -10)">
                    <rect id="矩形-2" fill="url(#linearGradient-1)" x="0" y="0" width="20" height="20"
                          rx="3.63636374"></rect>
                    <path d="M10.0046001,4 C13.129426,4 14.4074646,4.6380442 14.4074646,4.6380442 C14.7621411,4.81504734 15.0523948,5.28400342 15.0523948,5.68000577 L15.052,6.401 L15.7598152,6.40184758 C15.8924656,6.40184758 16,6.50938195 16,6.64203233 L15.9953975,6.68742273 C15.998425,6.70571531 16,6.72449821 16,6.74364896 L16,7.88452656 C16,7.9712595 15.9296891,8.04157044 15.8429561,8.04157044 L15.6581986,8.04157044 C15.4694269,8.04157044 15.3163972,7.88854075 15.3163972,7.69976905 L15.3162286,6.88184758 L15.052,6.881 L15.0523948,13.9600046 C15.0523948,14.2371129 14.8931379,14.4783928 14.6616663,14.59846 L14.5716495,14.6376365 L14.5716495,15.0399985 C14.5716495,15.5679849 14.138995,16 13.6101713,16 C13.0813477,16 12.6486932,15.56801 12.6486932,15.0399985 L12.6486932,14.6799964 L7.36054467,14.6799964 L7.36054467,15.0399985 C7.36054467,15.5679849 6.92789019,16 6.39906654,16 C5.87024289,16 5.43758841,15.56801 5.43758841,15.0399985 L5.43758841,14.6376365 C5.15839003,14.5381656 4.95684307,14.2718769 4.95684307,13.9600046 L4.956,6.881 L4.68377136,6.88184758 L4.68360277,7.69976905 C4.68360277,7.88854075 4.53057308,8.04157044 4.34180139,8.04157044 L4.15704388,8.04157044 C4.07031094,8.04157044 4,7.9712595 4,7.88452656 L4,6.74364896 C4,6.72449821 4.00157497,6.70571531 4.00460246,6.68742273 L4,6.64203233 C4,6.50938195 4.10753438,6.40184758 4.24018476,6.40184758 L4.956,6.401 L4.95684307,5.68000577 C4.95684307,5.28400342 5.24709683,4.81504734 5.60187375,4.6380442 C5.60187375,4.6380442 6.8797742,4 10.0046001,4 Z M7.59167813,12.5753861 L5.85361659,12.5753861 C5.72141696,12.5753861 5.6132502,12.6833868 5.6132502,12.8153834 L5.6132502,13.2953904 C5.6132502,13.427387 5.72141696,13.5353876 5.85361659,13.5353876 L7.59167813,13.5353876 C7.72387776,13.5353876 7.83204452,13.427387 7.83204452,13.2953904 L7.83204452,12.8153834 C7.83204452,12.6833868 7.72387776,12.5753861 7.59167813,12.5753861 Z M14.1556188,12.5753861 L12.4175572,12.5753861 C12.2853576,12.5753861 12.1771908,12.6833868 12.1771908,12.8153834 L12.1771908,13.2953904 C12.1771908,13.427387 12.2853576,13.5353876 12.4175572,13.5353876 L14.1556188,13.5353876 C14.2878184,13.5353876 14.3959852,13.427387 14.3959852,13.2953904 L14.3959852,12.8153834 C14.3959852,12.6833868 14.2878184,12.5753861 14.1556188,12.5753861 Z M13.8505252,6.88001706 L6.15868759,6.88001706 C6.02648796,6.88001706 5.9183212,6.9880177 5.9183212,7.1200143 L5.9183212,10.9600329 C5.9183212,11.0920295 6.02648796,11.2000301 6.15868759,11.2000301 L13.8505252,11.2000301 C13.9827248,11.2000301 14.0908916,11.0920295 14.0908916,10.9600329 L14.0908916,7.1200143 C14.0908916,6.9880177 13.9827248,6.88001706 13.8505252,6.88001706 Z M12.1679227,4.96000151 L7.84126489,4.96000151 C7.70906526,4.96000151 7.6008985,5.06800214 7.6008985,5.19999875 L7.6008985,5.68000577 C7.6008985,5.81200237 7.70906526,5.92000301 7.84126489,5.92000301 L12.1679227,5.92000301 C12.3001224,5.92000301 12.4082891,5.81200237 12.4082891,5.68000577 L12.4082891,5.19999875 C12.4082891,5.06800214 12.3001224,4.96000151 12.1679227,4.96000151 Z"
                          id="形状结合" fill="#FFFFFF"></path>
                </g>
            </g>
        </g>
    </g>
</svg>