<?xml version="1.0" standalone="no"?><!DOCTYPE svg PUBLIC "-//W3C//DTD SVG 1.1//EN"
        "http://www.w3.org/Graphics/SVG/1.1/DTD/svg11.dtd">
<svg t="1758715847400" class="icon" viewBox="0 0 1024 1024" version="1.1" xmlns="http://www.w3.org/2000/svg" p-id="4931"
     width="200" height="200">
    <path d="M932.244 262.558l-19.133 0 0-95.666c0-31.57-23.103-68.956-51.335-83.067 0 0-101.731-50.866-350.465-50.866s-350.454 50.866-350.454 50.866c-28.24 14.111-51.344 51.497-51.344 83.067l0 95.666-19.133 0c-31.57 0-57.399 25.829-57.399 57.399l0 57.399c0 31.57 25.829 57.399 57.399 57.399l19.133 0 0 392.233c0 24.863 16.043 46.092 38.267 54.022l0 32.077c0 42.094 34.439 76.533 76.533 76.533s76.533-34.441 76.533-76.533l0-28.7 420.933 0 0 28.7c0 42.094 34.439 76.533 76.533 76.533s76.533-34.441 76.533-76.533l0-32.077c22.223-7.931 38.267-29.169 38.267-54.022l0-392.233 19.133 0c31.57 0 57.399-25.829 57.399-57.399l0-57.399c0-31.569-25.829-57.399-57.399-57.399zM319.978 128.625c0-10.523 8.61-19.133 19.133-19.133l344.399 0c10.523 0 19.133 8.61 19.133 19.133l0 38.267c0 10.523-8.61 19.133-19.133 19.133l-344.399 0c-10.523 0-19.133-8.61-19.133-19.133l0-38.267zM233.878 807.857c-26.423 0-47.833-21.429-47.833-47.833s21.41-47.833 47.833-47.833c26.414 0 47.833 21.429 47.833 47.833s-21.419 47.833-47.833 47.833zM788.745 807.857c-26.423 0-47.833-21.429-47.833-47.833s21.41-47.833 47.833-47.833 47.833 21.429 47.833 47.833-21.411 47.833-47.833 47.833zM836.577 587.825c0 10.523-8.61 19.133-19.133 19.133l-612.265 0c-10.523 0-19.133-8.61-19.133-19.133l0-306.133c0-10.523 8.61-19.133 19.133-19.133l612.265 0c10.523 0 19.133 8.61 19.133 19.133l0 306.133z"
          fill="#272636" p-id="4932"></path>
</svg>