<?xml version="1.0" encoding="UTF-8"?>
<svg width="20px" height="20px" viewBox="0 0 20 20" version="1.1" xmlns="http://www.w3.org/2000/svg"
>
    <title>编组</title>
    <defs>
        <linearGradient x1="50%" y1="0%" x2="50%" y2="100%" id="linearGradient-1">
            <stop stop-color="#51B2FF" offset="0%"></stop>
            <stop stop-color="#0A59F7" offset="100%"></stop>
        </linearGradient>
    </defs>
    <g id="页面-1" stroke="none" stroke-width="1" fill="none" fill-rule="evenodd">
        <g id="搜索" transform="translate(-16, -322)">
            <g id="编组备份-4" transform="translate(16, 332)">
                <g id="编组" transform="translate(0, -10)">
                    <path d="M10,3.05555556 C13.8353108,3.05555556 16.9444444,6.16468924 16.9444444,10 L16.9444444,14.1666667 C16.9444444,15.700791 15.700791,16.9444444 14.1666667,16.9444444 L5.83333333,16.9444444 C4.29920903,16.9444444 3.05555556,15.700791 3.05555556,14.1666667 L3.05555556,10 C3.05555556,6.16468924 6.16468924,3.05555556 10,3.05555556 Z"
                          id="矩形-3" fill="#FFFFFF"></path>
                    <path d="M16.3636364,0 C18.3719445,-4.4408921e-16 20,1.62805546 20,3.63636364 L20,16.3636364 C20,18.3719445 18.3719445,20 16.3636364,20 L3.63636364,20 C1.62805546,20 4.4408921e-16,18.3719445 4.4408921e-16,16.3636364 L0,3.63636364 C-4.4408921e-16,1.62805546 1.62805546,8.8817842e-16 3.63636364,4.4408921e-16 L16.3636364,0 Z M10,3.05555556 C6.16468924,3.05555556 3.05555556,6.16468924 3.05555556,10 L3.05555556,14.1666667 C3.05555556,15.700791 4.29920903,16.9444444 5.83333333,16.9444444 L6.407,16.944 L7.09991825,14.5789253 C6.36605746,14.5647009 5.64556491,13.961422 5.56334039,13.2394922 L5.55555556,13.1028547 L5.55555556,8.59907641 C5.55555556,7.17338371 6.66729548,5.9945424 8.08589574,5.90890008 C8.81028737,5.86859782 9.52964849,5.83333333 10.0025152,5.83333333 C10.475382,5.83333333 11.1897126,5.86859782 11.9141043,5.90890008 C13.3327045,5.9945424 14.4444444,7.17338371 14.4444444,8.59907641 L14.4444444,13.1028547 C14.4444444,13.8837112 13.6798088,14.5638119 12.9000817,14.5789253 L13.622,16.944 L14.1666667,16.9444444 C15.700791,16.9444444 16.9444444,15.700791 16.9444444,14.1666667 L16.9444444,10 C16.9444444,6.16468924 13.8353108,3.05555556 10,3.05555556 Z M11.3355971,14.7048699 C10.9331573,14.725021 10.475382,14.7401343 10.0025152,14.7401343 C9.5195875,14.7401343 9.06684273,14.725021 8.66440294,14.7048699 L8.016,16.944 L12.013,16.944 Z M12.7777778,12.2222222 C12.3164683,12.2222222 11.9444444,12.594246 11.9444444,13.0555556 C11.9444444,13.5119048 12.3164683,13.8888889 12.7777778,13.8888889 C13.234127,13.8888889 13.6111111,13.5119048 13.6111111,13.0555556 C13.6111111,12.594246 13.234127,12.2222222 12.7777778,12.2222222 Z M7.22222222,12.2222222 C6.76587302,12.2222222 6.38888889,12.594246 6.38888889,13.0555556 C6.38888889,13.5119048 6.76587302,13.8888889 7.22222222,13.8888889 C7.68353175,13.8888889 8.05555556,13.5119048 8.05555556,13.0555556 C8.05555556,12.594246 7.68353175,12.2222222 7.22222222,12.2222222 Z M12.8849903,7.67212427 L7.11500975,7.67212427 C6.72263095,7.67212427 6.40570961,7.98950462 6.40570961,8.38245172 L6.40570961,10.7653233 C6.40570961,11.1582704 6.72263095,11.4806885 7.11500975,11.4806885 L12.8849903,11.4806885 C13.277369,11.4806885 13.5993209,11.1582704 13.5993209,10.7653233 L13.5993209,8.38245172 C13.5993209,7.98950462 13.277369,7.67212427 12.8849903,7.67212427 Z M11.1111111,6.38888889 L8.88888889,6.38888889 C8.58206403,6.38888889 8.33333333,6.63761958 8.33333333,6.94444444 L11.6666667,6.94444444 L11.6593954,6.85433045 C11.6163396,6.59036075 11.3872535,6.38888889 11.1111111,6.38888889 Z"
                          id="形状结合" fill="url(#linearGradient-1)"></path>
                </g>
            </g>
        </g>
    </g>
</svg>