<svg width="24.000000" height="24.000000" viewBox="0 0 24 24" fill="none" xmlns="http://www.w3.org/2000/svg" xmlns:xlink="http://www.w3.org/1999/xlink">
  <metadata>
    <agcit_code>agcit_huawei_book_read_reader_tool_bar</agcit_code>
  </metadata>
	<desc>
			Created with Pixso.
	</desc>
	<defs>
		<clipPath id="clip74_9651">
			<rect width="24.000000" height="24.000000" fill="white" fill-opacity="0"/>
		</clipPath>
	</defs>
	<g clip-path="url(#clip74_9651)">
		<path d="M12 6.49C12.99 6.49 13.91 6.74 14.75 7.24C15.59 7.74 16.25 8.4 16.75 9.24C17.25 10.08 17.5 11 17.5 11.99C17.5 12.99 17.25 13.9 16.75 14.74C16.25 15.58 15.59 16.25 14.75 16.74C13.91 17.24 12.99 17.49 12 17.49C11 17.49 10.08 17.24 9.23 16.74C8.39 16.25 7.72 15.58 7.23 14.74C6.74 13.9 6.5 12.99 6.5 11.99C6.5 11 6.74 10.08 7.23 9.24C7.72 8.4 8.39 7.74 9.23 7.24C10.08 6.74 11 6.49 12 6.49ZM12 4.98C10.73 4.98 9.56 5.3 8.5 5.93C7.42 6.57 6.57 7.42 5.94 8.49C5.3 9.56 4.98 10.73 4.98 11.99C4.98 13.26 5.3 14.43 5.94 15.49C6.57 16.57 7.42 17.42 8.5 18.05C9.56 18.69 10.73 19 12 19C13.26 19 14.43 18.69 15.5 18.05C16.57 17.42 17.42 16.57 18.06 15.49C18.69 14.43 19.01 13.26 19.01 11.99C19.01 10.73 18.69 9.56 18.06 8.49C17.42 7.42 16.57 6.57 15.5 5.93C14.43 5.3 13.26 4.98 12 4.98ZM11.98 3.54C12.2 3.54 12.39 3.46 12.55 3.3C12.71 3.14 12.79 2.95 12.79 2.73C12.79 2.51 12.71 2.31 12.55 2.15C12.39 1.99 12.2 1.91 11.98 1.91C11.75 1.91 11.56 1.99 11.4 2.15C11.24 2.31 11.16 2.51 11.16 2.73C11.16 2.95 11.24 3.14 11.4 3.3C11.56 3.46 11.75 3.54 11.98 3.54ZM11.98 22.07C12.2 22.07 12.39 21.99 12.55 21.83C12.71 21.67 12.79 21.48 12.79 21.25C12.79 21.03 12.71 20.84 12.55 20.68C12.39 20.52 12.2 20.44 11.98 20.44C11.75 20.44 11.56 20.52 11.4 20.68C11.24 20.84 11.16 21.03 11.16 21.25C11.16 21.48 11.24 21.67 11.4 21.83C11.56 21.99 11.75 22.07 11.98 22.07ZM17.95 6.01C18.11 6.17 18.3 6.25 18.53 6.25C18.75 6.25 18.94 6.17 19.1 6.01C19.26 5.85 19.34 5.66 19.34 5.44C19.34 5.22 19.26 5.02 19.1 4.86C18.94 4.7 18.75 4.62 18.53 4.62C18.3 4.62 18.11 4.7 17.95 4.86C17.79 5.02 17.71 5.22 17.71 5.44C17.71 5.66 17.79 5.85 17.95 6.01ZM4.84 19.12C5.01 19.28 5.2 19.36 5.42 19.36C5.64 19.36 5.83 19.28 6 19.12C6.17 18.96 6.26 18.77 6.26 18.54C6.26 18.32 6.17 18.13 6 17.97C5.83 17.79 5.64 17.7 5.42 17.7C5.2 17.7 5.01 17.79 4.84 17.97C4.69 18.13 4.6 18.32 4.6 18.54C4.6 18.77 4.69 18.96 4.84 19.12ZM20.42 11.99C20.4 12.22 20.48 12.42 20.65 12.58C20.81 12.75 21.01 12.83 21.24 12.81C21.46 12.81 21.66 12.73 21.82 12.55C21.98 12.39 22.06 12.2 22.06 11.99C22.06 11.77 21.98 11.57 21.82 11.41C21.66 11.25 21.46 11.17 21.24 11.17C21.01 11.16 20.81 11.24 20.65 11.4C20.48 11.57 20.4 11.77 20.42 11.99ZM1.9 11.99C1.9 12.2 1.98 12.39 2.15 12.55C2.31 12.73 2.5 12.81 2.71 12.81C2.93 12.83 3.13 12.75 3.3 12.58C3.46 12.42 3.54 12.22 3.53 11.99C3.54 11.77 3.46 11.57 3.3 11.4C3.13 11.24 2.93 11.16 2.71 11.17C2.5 11.17 2.31 11.25 2.15 11.41C1.98 11.57 1.9 11.77 1.9 11.99ZM17.95 17.97C17.79 18.13 17.71 18.32 17.71 18.54C17.71 18.77 17.79 18.96 17.95 19.12C18.11 19.28 18.3 19.36 18.53 19.36C18.75 19.36 18.94 19.28 19.1 19.12C19.26 18.96 19.34 18.77 19.34 18.54C19.34 18.32 19.26 18.13 19.1 17.97C18.94 17.79 18.75 17.7 18.53 17.7C18.3 17.7 18.11 17.79 17.95 17.97ZM4.84 4.86C4.69 5.02 4.6 5.22 4.6 5.44C4.6 5.66 4.69 5.85 4.84 6.01C5.01 6.17 5.2 6.25 5.42 6.25C5.64 6.25 5.83 6.17 6 6.01C6.17 5.85 6.26 5.66 6.26 5.44C6.26 5.22 6.17 5.02 6 4.86C5.83 4.7 5.64 4.62 5.42 4.62C5.2 4.62 5.01 4.7 4.84 4.86Z" fill="#FFFFFF" fill-opacity="0.600000" fill-rule="nonzero"/>
	</g>
</svg>
