<svg viewBox="0 0 40 40" xmlns="http://www.w3.org/2000/svg" xmlns:xlink="http://www.w3.org/1999/xlink" width="40.000000" height="40.000000" fill="none" customFrame="#000000">
	<defs>
		<clipPath id="clipPath_2">
			<rect width="20.000000" height="20.000000" x="10.000000" y="10.000000" fill="rgb(255,255,255)" />
		</clipPath>
	</defs>
	<g id="组合 4102">
		<rect id="矩形 3400" width="40.000000" height="40.000000" x="0.000000" y="0.000000" rx="8.000000" fill="rgb(255,255,255)" />
		<g id="dot_radiowaves_left_and_right.svg" clip-path="url(#clipPath_2)" customFrame="url(#clipPath_2)">
			<rect id="dot_radiowaves_left_and_right.svg" width="20.000000" height="20.000000" x="10.000000" y="10.000000" />
			<rect id="rect" width="20.000000" height="20.000000" x="10.000000" y="10.000000" opacity="0" fill="rgb(0,0,0)" />
			<g id="g">
				<path id="path" d="M20 18.3417C19.5333 18.3417 19.1361 18.5056 18.8083 18.8333C18.4806 19.1556 18.3167 19.5445 18.3167 20C18.3167 20.4556 18.4833 20.85 18.8167 21.1833C19.15 21.5167 19.5444 21.6833 20 21.6833C20.4556 21.6833 20.8444 21.5195 21.1667 21.1917C21.4944 20.8639 21.6583 20.4667 21.6583 20C21.6583 19.5333 21.5 19.1389 21.1833 18.8167C20.8611 18.5 20.4667 18.3417 20 18.3417Z" fill="rgb(0,0,0)" fill-opacity="0.90196079" fill-rule="nonzero" />
				<path id="path" d="M14.3583 20C14.3583 20.9611 14.5889 21.8611 15.05 22.7C15.5111 23.5389 16.1472 24.2195 16.9583 24.7417C17.1083 24.8361 17.2667 24.8611 17.4333 24.8167C17.6 24.7778 17.7278 24.6861 17.8167 24.5417C17.9111 24.3917 17.9389 24.2333 17.9 24.0667C17.8611 23.9 17.775 23.7722 17.6417 23.6833C17.0139 23.2667 16.5194 22.7361 16.1583 22.0917C15.7972 21.4417 15.6167 20.7445 15.6167 20C15.6167 19.2556 15.7944 18.5556 16.15 17.9C16.5056 17.2445 17.0028 16.7111 17.6417 16.3C17.7861 16.2056 17.875 16.075 17.9083 15.9083C17.9417 15.7417 17.9111 15.5861 17.8167 15.4417C17.7278 15.2917 17.6 15.1972 17.4333 15.1583C17.2667 15.1195 17.1083 15.1528 16.9583 15.2583C16.1472 15.7806 15.5111 16.4583 15.05 17.2917C14.5889 18.125 14.3583 19.0278 14.3583 20ZM22.1583 24.5417C22.2528 24.6861 22.3778 24.7778 22.5333 24.8167C22.6833 24.8611 22.8528 24.8361 23.0417 24.7417C23.575 24.3917 24.0333 23.9722 24.4167 23.4833C24.8056 22.9889 25.1028 22.4445 25.3083 21.85C25.5139 21.2556 25.6167 20.6389 25.6167 20C25.6167 19.0278 25.3917 18.125 24.9417 17.2917C24.4861 16.4583 23.8528 15.7806 23.0417 15.2583C22.8917 15.1528 22.7306 15.1195 22.5583 15.1583C22.3861 15.1972 22.2528 15.2917 22.1583 15.4417C22.0639 15.5861 22.0333 15.7389 22.0667 15.9C22.1 16.0611 22.1917 16.1889 22.3417 16.2833C22.9694 16.6945 23.4806 17.2445 23.8417 17.9C24.2028 18.5556 24.3833 19.2556 24.3833 20C24.3833 20.4945 24.3028 20.9722 24.1417 21.4333C23.9806 21.8889 23.7472 22.3111 23.4417 22.7C23.1361 23.0889 22.775 23.4167 22.3583 23.6833C22.2139 23.7722 22.1222 23.9 22.0833 24.0667C22.0389 24.2333 22.0639 24.3917 22.1583 24.5417Z" fill="rgb(0,0,0)" fill-opacity="0.90196079" fill-rule="nonzero" />
				<path id="path" d="M10.6417 20C10.6417 21.3889 10.9333 22.7056 11.5167 23.95C12.1056 25.1945 12.9278 26.2639 13.9833 27.1583C14.1167 27.2639 14.2667 27.3111 14.4333 27.3C14.6 27.2889 14.7417 27.2222 14.8583 27.1C14.9639 26.9667 15.0111 26.8139 15 26.6417C14.9889 26.4694 14.9167 26.3222 14.7833 26.2C13.8611 25.4278 13.1472 24.5 12.6417 23.4167C12.1361 22.3389 11.8833 21.2 11.8833 20C11.8833 18.8 12.1361 17.6556 12.6417 16.5667C13.1472 15.4833 13.8667 14.5556 14.8 13.7833C14.9222 13.6611 14.9917 13.5139 15.0083 13.3417C15.0306 13.1695 14.9806 13.0222 14.8583 12.9C14.7528 12.7667 14.6139 12.6945 14.4417 12.6833C14.2694 12.6667 14.1167 12.7111 13.9833 12.8167C12.9278 13.7111 12.1056 14.7861 11.5167 16.0417C10.9333 17.2917 10.6417 18.6111 10.6417 20ZM25.1417 27.0833C25.2472 27.2167 25.3861 27.2889 25.5583 27.3C25.7306 27.3111 25.8833 27.2639 26.0167 27.1583C26.7278 26.575 27.3333 25.9028 27.8333 25.1417C28.3333 24.3806 28.7111 23.5639 28.9667 22.6917C29.2278 21.8195 29.3583 20.9222 29.3583 20C29.3583 19.0778 29.2278 18.1806 28.9667 17.3083C28.7111 16.4361 28.3333 15.6167 27.8333 14.85C27.3333 14.0833 26.7278 13.4056 26.0167 12.8167C25.8833 12.7111 25.7306 12.6667 25.5583 12.6833C25.3861 12.6945 25.2472 12.7667 25.1417 12.9C25.0194 13.0333 24.9667 13.1861 24.9833 13.3583C24.9944 13.5306 25.0667 13.6722 25.2 13.7833C25.8111 14.2889 26.3333 14.875 26.7667 15.5417C27.2 16.2083 27.5306 16.9167 27.7583 17.6667C27.9861 18.4222 28.1 19.2 28.1 20C28.1 20.8 27.9861 21.5778 27.7583 22.3333C27.5306 23.0833 27.2055 23.7889 26.7833 24.45C26.3555 25.1111 25.8333 25.6945 25.2167 26.2C25.0833 26.3056 25.0111 26.4445 25 26.6167C24.9889 26.7945 25.0361 26.95 25.1417 27.0833Z" fill="rgb(0,0,0)" fill-opacity="0.90196079" fill-rule="nonzero" />
			</g>
		</g>
	</g>
</svg>
