<svg width="48.000000" height="48.000000" viewBox="0 0 48 48" fill="none" xmlns="http://www.w3.org/2000/svg" xmlns:xlink="http://www.w3.org/1999/xlink">
	<desc>
			Created with Pixso.
	</desc>
	<defs/>
	<rect id="矩形 3401" width="48.000000" height="48.000000" fill="#FFFFFF" fill-opacity="0"/>
	<rect id="矩形 3400" rx="8.000000" width="48.000000" height="48.000000" fill="#28C445" fill-opacity="1.000000"/>
	<path id="path" d="M36.04 34.31L36.89 37.03L33.79 35.39C32.67 35.71 31.54 35.89 30.39 35.94C24.99 35.94 20.75 32.4 20.75 28.05C20.75 23.69 24.99 20.15 30.39 20.15C35.48 20.15 40.01 23.7 40.01 28.05C40.01 30.5 38.32 32.67 36.04 34.31ZM27.26 24.51C27.19 24.51 27.12 24.52 27.05 24.54C26.98 24.55 26.91 24.58 26.85 24.61C26.78 24.63 26.72 24.67 26.66 24.71C26.6 24.75 26.54 24.79 26.49 24.84C26.44 24.89 26.39 24.94 26.35 25C26.31 25.06 26.27 25.12 26.24 25.19C26.21 25.25 26.18 25.32 26.17 25.39C26.15 25.45 26.13 25.52 26.13 25.6C26.13 25.67 26.15 25.74 26.16 25.81C26.18 25.88 26.21 25.94 26.24 26.01C26.27 26.07 26.31 26.13 26.35 26.19C26.39 26.25 26.44 26.3 26.49 26.35C26.54 26.4 26.6 26.45 26.66 26.49C26.72 26.53 26.78 26.56 26.84 26.59C26.91 26.62 26.98 26.64 27.05 26.65C27.12 26.67 27.19 26.68 27.26 26.68C27.34 26.69 27.42 26.7 27.51 26.69C27.59 26.68 27.67 26.67 27.75 26.65C27.83 26.63 27.91 26.6 27.98 26.56C28.06 26.52 28.13 26.48 28.19 26.43C28.26 26.38 28.32 26.32 28.37 26.26C28.43 26.2 28.48 26.13 28.52 26.06C28.56 25.99 28.59 25.91 28.62 25.84C28.65 25.76 28.67 25.68 28.68 25.6C28.67 25.51 28.65 25.43 28.62 25.36C28.59 25.28 28.56 25.2 28.52 25.13C28.47 25.06 28.43 24.99 28.37 24.93C28.32 24.87 28.26 24.81 28.19 24.76C28.12 24.71 28.05 24.67 27.98 24.63C27.91 24.6 27.83 24.57 27.75 24.55C27.67 24.52 27.59 24.51 27.51 24.5C27.42 24.5 27.34 24.5 27.26 24.51ZM33.49 24.51C33.42 24.51 33.35 24.52 33.28 24.54C33.21 24.55 33.15 24.58 33.08 24.61C33.01 24.63 32.95 24.67 32.89 24.71C32.83 24.75 32.78 24.79 32.73 24.84C32.68 24.89 32.63 24.95 32.59 25C32.55 25.06 32.51 25.12 32.48 25.19C32.45 25.25 32.42 25.32 32.4 25.39C32.39 25.46 32.37 25.52 32.37 25.6C32.37 25.67 32.38 25.74 32.4 25.81C32.42 25.88 32.45 25.94 32.48 26.01C32.51 26.07 32.54 26.13 32.59 26.19C32.63 26.25 32.67 26.3 32.73 26.35C32.78 26.4 32.83 26.45 32.89 26.49C32.95 26.53 33.01 26.56 33.08 26.59C33.15 26.62 33.21 26.64 33.28 26.65C33.35 26.67 33.42 26.68 33.49 26.68C33.58 26.69 33.66 26.7 33.74 26.69C33.82 26.68 33.9 26.67 33.98 26.65C34.06 26.62 34.14 26.6 34.21 26.56C34.29 26.52 34.36 26.48 34.42 26.43C34.49 26.38 34.55 26.32 34.6 26.26C34.66 26.2 34.71 26.13 34.75 26.06C34.79 25.99 34.83 25.91 34.85 25.84C34.88 25.76 34.9 25.68 34.91 25.6C34.9 25.51 34.88 25.43 34.85 25.36C34.82 25.28 34.79 25.2 34.75 25.13C34.71 25.06 34.66 25 34.6 24.93C34.55 24.87 34.49 24.82 34.42 24.77C34.36 24.72 34.29 24.67 34.21 24.64C34.14 24.6 34.06 24.57 33.98 24.55C33.9 24.52 33.82 24.51 33.74 24.5C33.66 24.5 33.58 24.5 33.49 24.51ZM20.03 28.18C20.04 28.95 20.15 29.71 20.38 30.45C20.03 30.48 19.68 30.5 19.33 30.5C17.98 30.45 16.66 30.27 15.36 29.95L11.4 31.86L12.53 28.59C9.69 26.68 8 24.23 8 21.25C8 16.07 13.1 12 19.33 12C24.9 12 29.78 15.25 30.76 19.63C30.4 19.59 30.03 19.57 29.67 19.57C24.28 19.57 20.03 23.42 20.03 28.18ZM15.64 16.62C15.54 16.61 15.44 16.61 15.34 16.62C15.24 16.63 15.14 16.65 15.05 16.68C14.95 16.71 14.86 16.74 14.77 16.79C14.68 16.84 14.6 16.89 14.52 16.95C14.44 17.02 14.37 17.09 14.3 17.16C14.23 17.24 14.18 17.32 14.13 17.41C14.08 17.5 14.04 17.59 14.01 17.69C13.97 17.78 13.95 17.88 13.94 17.98C13.95 18.08 13.97 18.18 14.01 18.27C14.04 18.37 14.08 18.46 14.13 18.55C14.18 18.63 14.24 18.72 14.3 18.79C14.37 18.87 14.44 18.94 14.52 19C14.6 19.07 14.68 19.12 14.77 19.17C14.86 19.21 14.95 19.25 15.05 19.28C15.14 19.31 15.24 19.33 15.34 19.34C15.44 19.35 15.54 19.35 15.64 19.34C15.69 19.34 15.74 19.34 15.78 19.34C15.83 19.34 15.87 19.34 15.92 19.33C15.97 19.33 16.01 19.32 16.06 19.31C16.1 19.3 16.15 19.28 16.19 19.27C16.23 19.25 16.28 19.23 16.32 19.21C16.36 19.19 16.4 19.17 16.44 19.15C16.48 19.12 16.52 19.1 16.55 19.07C16.59 19.04 16.62 19.01 16.66 18.98C16.69 18.95 16.72 18.91 16.75 18.88C16.78 18.84 16.81 18.8 16.84 18.77C16.86 18.73 16.88 18.69 16.91 18.65C16.93 18.61 16.95 18.56 16.96 18.52C16.98 18.48 17 18.43 17.01 18.39C17.02 18.35 17.03 18.3 17.04 18.26C17.05 18.21 17.05 18.16 17.06 18.12C17.06 18.07 17.06 18.03 17.06 17.98C17.06 17.93 17.06 17.89 17.06 17.84C17.05 17.79 17.05 17.75 17.04 17.7C17.03 17.66 17.02 17.61 17.01 17.57C17 17.52 16.98 17.48 16.97 17.44C16.95 17.39 16.93 17.35 16.91 17.31C16.89 17.27 16.86 17.23 16.84 17.19C16.81 17.15 16.78 17.12 16.75 17.08C16.72 17.05 16.69 17.01 16.66 16.98C16.63 16.95 16.59 16.92 16.55 16.89C16.52 16.86 16.48 16.83 16.44 16.81C16.4 16.79 16.36 16.76 16.32 16.74C16.28 16.72 16.23 16.71 16.19 16.69C16.15 16.67 16.1 16.66 16.06 16.65C16.01 16.64 15.97 16.63 15.92 16.63C15.88 16.62 15.83 16.62 15.78 16.61C15.74 16.61 15.69 16.61 15.64 16.62ZM23.58 16.62C23.48 16.61 23.37 16.61 23.27 16.62C23.17 16.63 23.08 16.65 22.98 16.68C22.88 16.71 22.79 16.74 22.7 16.79C22.61 16.84 22.53 16.89 22.45 16.95C22.37 17.02 22.3 17.09 22.23 17.16C22.17 17.24 22.11 17.32 22.06 17.41C22.01 17.5 21.97 17.59 21.94 17.69C21.91 17.78 21.89 17.88 21.87 17.98C21.89 18.08 21.91 18.18 21.94 18.27C21.97 18.37 22.01 18.46 22.06 18.55C22.11 18.63 22.17 18.72 22.24 18.79C22.3 18.87 22.37 18.94 22.45 19C22.53 19.06 22.61 19.12 22.7 19.17C22.79 19.21 22.88 19.25 22.98 19.28C23.08 19.31 23.17 19.33 23.28 19.34C23.38 19.35 23.48 19.35 23.58 19.34C23.62 19.34 23.67 19.35 23.71 19.34C23.76 19.34 23.81 19.34 23.85 19.33C23.9 19.33 23.94 19.32 23.99 19.31C24.03 19.3 24.08 19.28 24.12 19.27C24.16 19.25 24.21 19.23 24.25 19.21C24.29 19.19 24.33 19.17 24.37 19.15C24.41 19.12 24.45 19.1 24.48 19.07C24.52 19.04 24.56 19.01 24.59 18.98C24.62 18.95 24.65 18.91 24.68 18.88C24.71 18.84 24.74 18.81 24.77 18.77C24.79 18.73 24.82 18.69 24.84 18.65C24.86 18.61 24.88 18.57 24.9 18.52C24.92 18.48 24.93 18.44 24.94 18.39C24.96 18.35 24.97 18.3 24.97 18.26C24.98 18.21 24.99 18.16 24.99 18.12C24.99 18.07 24.99 18.03 24.99 17.98C24.99 17.93 24.99 17.89 24.99 17.84C24.99 17.79 24.98 17.75 24.98 17.7C24.97 17.66 24.96 17.61 24.94 17.57C24.93 17.52 24.92 17.48 24.9 17.44C24.88 17.39 24.86 17.35 24.84 17.31C24.82 17.27 24.8 17.23 24.77 17.19C24.74 17.15 24.72 17.12 24.69 17.08C24.66 17.04 24.63 17.01 24.59 16.98C24.56 16.95 24.52 16.92 24.49 16.89C24.45 16.86 24.41 16.83 24.37 16.81C24.33 16.78 24.29 16.76 24.25 16.74C24.21 16.72 24.17 16.7 24.12 16.69C24.08 16.67 24.03 16.66 23.99 16.65C23.94 16.64 23.9 16.63 23.85 16.62C23.81 16.62 23.76 16.62 23.71 16.61C23.67 16.61 23.62 16.61 23.58 16.62Z" fill="#FFFFFF" fill-opacity="1.000000" fill-rule="nonzero"/>
</svg>
