<svg width="10.989990" height="7.129883" viewBox="0 0 10.99 7.12988" fill="none" xmlns="http://www.w3.org/2000/svg" xmlns:xlink="http://www.w3.org/1999/xlink">
	<desc>
			Created with Pixso.
	</desc>
	<defs/>
	<path id="path" d="M10.56 1.18C10.42 1.1 10.29 1.06 10.14 1.06C9.99 1.05 9.85 1.09 9.71 1.16L8.46 1.82L8.46 1.33C8.46 1.08 8.4 0.85 8.28 0.65C8.16 0.45 7.99 0.29 7.79 0.17C7.58 0.05 7.36 0 7.12 0L1.33 0C1.09 0 0.86 0.05 0.66 0.17C0.46 0.29 0.3 0.45 0.17 0.65C0.06 0.85 0 1.08 0 1.33L0 5.79C0 6.04 0.06 6.27 0.17 6.47C0.3 6.67 0.46 6.83 0.66 6.95C0.86 7.07 1.09 7.12 1.33 7.12L7.12 7.12C7.36 7.12 7.58 7.07 7.79 6.95C7.99 6.83 8.16 6.67 8.28 6.47C8.4 6.27 8.46 6.04 8.46 5.79L8.46 5.17L9.7 5.87C9.83 5.95 9.97 6 10.12 6C10.27 6 10.42 5.96 10.56 5.9C10.69 5.82 10.8 5.72 10.87 5.59C10.95 5.46 10.99 5.32 10.99 5.17L10.99 1.88C10.99 1.73 10.95 1.59 10.87 1.47C10.8 1.34 10.69 1.25 10.56 1.18ZM7.7 5.79C7.7 5.95 7.65 6.08 7.54 6.2C7.44 6.3 7.31 6.35 7.16 6.35L1.3 6.35C1.15 6.35 1.02 6.3 0.91 6.2C0.8 6.08 0.75 5.95 0.75 5.79L0.75 1.33C0.75 1.17 0.8 1.04 0.91 0.93C1.02 0.82 1.15 0.77 1.3 0.77L7.16 0.77C7.31 0.77 7.44 0.82 7.54 0.93C7.65 1.04 7.7 1.17 7.7 1.33L7.7 5.79ZM10.23 5.16C10.23 5.19 10.22 5.21 10.21 5.22C10.19 5.23 10.16 5.24 10.12 5.23L8.46 4.27L8.46 2.72L10.13 1.83C10.15 1.82 10.17 1.81 10.2 1.83C10.22 1.84 10.23 1.86 10.23 1.89L10.23 5.16Z" fill="#FFFFFF" fill-opacity="1.000000" fill-rule="nonzero"/>
</svg>
