<svg width="24.000000" height="24.000000" viewBox="0 0 24 24" fill="none" xmlns="http://www.w3.org/2000/svg" xmlns:xlink="http://www.w3.org/1999/xlink">
	<desc>
			Created with Pixso.
	</desc>
	<defs>
		<clipPath id="clip167_8975">
			<rect width="24.000000" height="24.000000" fill="white" fill-opacity="0"/>
		</clipPath>
		<linearGradient x1="12.339961" y1="1.419983" x2="12.339961" y2="21.259983" id="paint_linear_167_8973_0" gradientUnits="userSpaceOnUse">
			<stop stop-color="#F1D1A5"/>
			<stop offset="1.000000" stop-color="#E3AC58"/>
		</linearGradient>
	</defs>
	<g clip-path="url(#clip167_8975)">
		<g opacity="0.000000">
			<rect width="24.000000" height="24.000000" fill="#000000" fill-opacity="1.000000"/>
		</g>
		<path d="M17.05 21.22C17.24 21.24 17.37 21.26 17.43 21.26C17.55 21.26 17.68 21.24 17.85 21.22C19.3 20.76 20.48 19.93 21.38 18.73C22.27 17.52 22.72 16.16 22.72 14.64L22.72 12.07C22.72 11.79 22.64 11.54 22.5 11.32C22.36 11.08 22.16 10.91 21.92 10.8L18.05 8.99C17.89 8.91 17.69 8.87 17.43 8.87C17.2 8.87 16.99 8.91 16.81 8.99L12.98 10.8C12.72 10.92 12.52 11.1 12.38 11.33C12.23 11.55 12.15 11.79 12.15 12.07L12.15 14.64C12.15 15.63 12.36 16.57 12.77 17.46C13.2 18.37 13.77 19.14 14.52 19.79C15.26 20.45 16.11 20.92 17.05 21.22ZM16.77 17.33C16.37 17.33 16.03 17.19 15.76 16.92L14.31 15.46C14.17 15.31 14.1 15.13 14.1 14.93C14.1 14.72 14.17 14.54 14.31 14.4C14.46 14.25 14.64 14.18 14.85 14.18C15.05 14.18 15.23 14.25 15.38 14.4L16.77 15.77L19.54 13.01C19.69 12.86 19.87 12.79 20.08 12.79C20.28 12.79 20.46 12.86 20.61 13.01C20.75 13.15 20.81 13.32 20.81 13.54C20.81 13.74 20.75 13.92 20.61 14.06L17.75 16.92C17.47 17.19 17.14 17.33 16.77 17.33ZM1.97 17.95C1.97 18.54 2.13 19.09 2.42 19.6C2.72 20.1 3.12 20.5 3.62 20.8C4.11 21.09 4.65 21.24 5.25 21.24C5.84 21.24 6.38 21.09 6.88 20.8C7.37 20.5 7.77 20.1 8.06 19.6C8.36 19.09 8.51 18.54 8.51 17.95L8.51 15.26C8.51 14.67 8.36 14.13 8.06 13.63C7.77 13.13 7.37 12.74 6.88 12.44C6.38 12.14 5.84 12 5.25 12C4.81 12 4.38 12.08 3.94 12.26L3.94 11.35C3.94 9.9 4.3 8.58 5.02 7.37C5.73 6.17 6.69 5.21 7.89 4.49C9.1 3.78 10.42 3.42 11.87 3.42C13.43 3.42 14.87 3.84 16.16 4.68C17.46 5.52 18.42 6.63 19.06 8.01L21.53 9.18C21.22 7.71 20.59 6.38 19.65 5.2C18.72 4.02 17.58 3.09 16.21 2.41C14.86 1.75 13.4 1.41 11.87 1.41C10.07 1.41 8.41 1.86 6.89 2.75C5.38 3.65 4.17 4.85 3.28 6.37C2.4 7.89 1.95 9.55 1.95 11.35L1.95 17.57L1.97 17.95Z" fill="url(#paint_linear_167_8973_0)" fill-opacity="1.000000" fill-rule="nonzero"/>
	</g>
</svg>
