<svg width="24.000000" height="24.000000" viewBox="0 0 24 24" fill="none" xmlns="http://www.w3.org/2000/svg" xmlns:xlink="http://www.w3.org/1999/xlink">
	<desc>
			Created with Pixso.
	</desc>
	<defs>
		<clipPath id="clip74_3773">
			<rect width="24.000000" height="24.000000" fill="white" fill-opacity="0"/>
		</clipPath>
	</defs>
	<g clip-path="url(#clip74_3773)">
		<g opacity="0.000000">
			<rect width="24.000000" height="24.000000" fill="#000000" fill-opacity="1.000000"/>
		</g>
		<path d="M12.29 18.24C13.1 18.24 13.88 18.1 14.63 17.82C15.37 17.54 15.98 17.14 16.45 16.62C17.37 15.68 17.8 14.5 17.76 13.06L17.76 3.47C17.76 3.27 17.68 3.09 17.54 2.94C17.4 2.8 17.21 2.73 16.99 2.73C16.78 2.75 16.6 2.83 16.45 2.97C16.32 3.12 16.25 3.29 16.27 3.5L16.27 13.08C16.29 13.59 16.22 14.05 16.07 14.47C15.91 14.88 15.68 15.26 15.38 15.58C15.03 15.94 14.58 16.23 14.03 16.43C13.47 16.64 12.89 16.75 12.29 16.75L11.74 16.75C11.08 16.73 10.48 16.62 9.94 16.41C9.4 16.2 8.96 15.9 8.62 15.53C8.31 15.21 8.08 14.84 7.94 14.43C7.79 14.02 7.73 13.56 7.75 13.06L7.75 3.47C7.75 3.27 7.67 3.09 7.53 2.94C7.39 2.8 7.21 2.73 7.01 2.73C6.8 2.73 6.62 2.8 6.46 2.94C6.31 3.09 6.23 3.27 6.23 3.47L6.23 13.03C6.2 14.45 6.63 15.63 7.51 16.58C8.01 17.09 8.62 17.49 9.33 17.78C10.06 18.07 10.85 18.22 11.71 18.24L12.29 18.24ZM19.25 21.24C19.45 21.24 19.63 21.16 19.78 21.02C19.92 20.87 19.99 20.7 19.99 20.5C19.99 20.28 19.92 20.11 19.78 19.96C19.63 19.82 19.45 19.75 19.25 19.75L4.72 19.75C4.52 19.75 4.34 19.82 4.19 19.96C4.05 20.11 3.97 20.28 3.97 20.5C3.97 20.7 4.05 20.87 4.19 21.02C4.34 21.16 4.52 21.24 4.72 21.24L19.25 21.24Z" fill="#000000" fill-opacity="0.901961" fill-rule="nonzero"/>
	</g>
</svg>
