<svg width="24.000000" height="24.000000" viewBox="0 0 24 24" fill="none" xmlns="http://www.w3.org/2000/svg" xmlns:xlink="http://www.w3.org/1999/xlink">
	<desc>
			Created with Pixso.
	</desc>
	<defs>
		<clipPath id="clip241_3218">
			<rect id="svg" width="24.000000" height="24.000000" fill="white" fill-opacity="0"/>
		</clipPath>
	</defs>
	<g clip-path="url(#clip241_3218)">
		<path id="path" d="M8.18 0L20.18 0C21.38 0 22.36 0.97 22.36 2.18L22.36 17.45C22.36 18.65 21.38 19.63 20.18 19.63L8.18 19.63C6.97 19.63 6 18.65 6 17.45L6 2.18C6 0.97 6.97 0 8.18 0Z" fill="#84A4FF" fill-opacity="0.600000" fill-rule="nonzero"/>
		<path id="path" d="M3.81 3.27L16.9 3.27C18.11 3.27 19.09 4.24 19.09 5.45L19.09 21.81C19.09 23.02 18.11 24 16.9 24L3.81 24C2.61 24 1.63 23.02 1.63 21.81L1.63 5.45C1.63 4.24 2.61 3.27 3.81 3.27Z" fill="#84A4FF" fill-opacity="1.000000" fill-rule="nonzero"/>
		<path id="path" d="M5.45 8.72L10.9 8.72C11.21 8.72 11.45 8.97 11.45 9.27C11.45 9.57 11.21 9.81 10.9 9.81L5.45 9.81C5.15 9.81 4.9 9.57 4.9 9.27C4.9 8.97 5.15 8.72 5.45 8.72ZM5.45 13.09L15.27 13.09C15.57 13.09 15.81 13.33 15.81 13.63C15.81 13.93 15.57 14.18 15.27 14.18L5.45 14.18C5.15 14.18 4.9 13.93 4.9 13.63C4.9 13.33 5.15 13.09 5.45 13.09ZM5.45 17.45L15.27 17.45C15.57 17.45 15.81 17.69 15.81 18C15.81 18.3 15.57 18.54 15.27 18.54L5.45 18.54C5.15 18.54 4.9 18.3 4.9 18C4.9 17.69 5.15 17.45 5.45 17.45Z" fill="#FFFFFF" fill-opacity="1.000000" fill-rule="nonzero"/>
	</g>
</svg>
