<svg width="24.000000" height="24.000000" viewBox="0 0 24 24" fill="none" xmlns="http://www.w3.org/2000/svg" xmlns:xlink="http://www.w3.org/1999/xlink">
	<desc>
			Created with Pixso.
	</desc>
	<defs>
		<clipPath id="clip22_848">
			<rect width="24.000000" height="24.000000" fill="white" fill-opacity="0"/>
		</clipPath>
	</defs>
	<g clip-path="url(#clip22_848)">
		<path d="M19.89 4.66L9.74 4.66C9.74 4.04 9.23 3.54 8.61 3.54L4.1 3.54C3.48 3.54 2.97 4.04 2.97 4.66L2.97 8.05C2.97 8.67 3.48 9.18 4.1 9.18L19.89 9.18C20.51 9.18 21.02 8.67 21.02 8.05L21.02 5.79C21.02 5.17 20.51 4.66 19.89 4.66Z" fill="#CCA352" fill-opacity="1.000000" fill-rule="nonzero"/>
		<path d="M18.76 5.79L5.23 5.79C4.6 5.79 4.1 6.3 4.1 6.92L4.1 8.05C4.1 8.67 4.6 9.18 5.23 9.18L18.76 9.18C19.38 9.18 19.89 8.67 19.89 8.05L19.89 6.92C19.89 6.3 19.39 5.79 18.76 5.79Z" fill="#FFFFFF" fill-opacity="1.000000" fill-rule="nonzero"/>
		<path d="M19.89 6.92L4.1 6.92C3.48 6.92 2.97 7.42 2.97 8.05L2.97 19.33C2.97 19.95 3.48 20.45 4.1 20.45L19.89 20.45C20.51 20.45 21.02 19.95 21.02 19.33L21.02 8.05C21.02 7.42 20.51 6.92 19.89 6.92Z" fill="#FFCC66" fill-opacity="1.000000" fill-rule="nonzero"/>
		<path d="M9.02 12.87L14.47 12.87L14.47 13.41L9.02 13.41L9.02 12.87Z" fill="#CCA352" fill-opacity="1.000000" fill-rule="nonzero"/>
		<path d="M11.5 10.54L11.99 10.54L11.99 15.74L11.5 15.74L11.5 10.54Z" fill="#CCA352" fill-opacity="1.000000" fill-rule="nonzero"/>
	</g>
</svg>
