<svg width="24.000000" height="24.000000" viewBox="0 0 24 24" fill="none" xmlns="http://www.w3.org/2000/svg" xmlns:xlink="http://www.w3.org/1999/xlink">
	<desc>
			Created with Pixso.
	</desc>
	<defs>
		<clipPath id="clip209_1972">
			<rect id="svg" width="24.000000" height="24.000000" fill="white" fill-opacity="0"/>
		</clipPath>
	</defs>
	<g clip-path="url(#clip209_1972)">
		<path id="path" d="M16.59 23L8.4 23C6.52 23 5 21.41 5 19.45L5 7L20 7L20 19.45C19.99 21.41 18.47 23 16.59 23Z" fill="#FF5D50" fill-opacity="1.000000" fill-rule="nonzero"/>
		<path id="path" d="M20.04 3.68L15.68 3.68C15.47 2.16 14.13 1 12.5 1C10.87 1 9.52 2.16 9.31 3.68L4.95 3.68C4.42 3.68 4 4.09 4 4.6C4 5.11 4.42 5.52 4.95 5.52L20.04 5.52C20.57 5.52 21 5.11 21 4.6C21 4.09 20.57 3.68 20.04 3.68ZM10.41 17C9.89 17 9.46 16.58 9.46 16.08L9.46 9.75C9.46 9.24 9.89 8.83 10.41 8.83C10.94 8.83 11.36 9.24 11.36 9.75L11.36 16.08C11.36 16.58 10.94 17 10.41 17ZM14.49 17C13.96 17 13.54 16.58 13.54 16.08L13.54 9.75C13.54 9.24 13.96 8.83 14.49 8.83C15.02 8.83 15.44 9.24 15.44 9.75L15.44 16.08C15.44 16.58 15.01 17 14.49 17Z" fill="#FFDF99" fill-opacity="1.000000" fill-rule="nonzero"/>
	</g>
</svg>
