<svg width="24.000000" height="24.000000" viewBox="0 0 24 24" fill="none" xmlns="http://www.w3.org/2000/svg" xmlns:xlink="http://www.w3.org/1999/xlink">
	<desc>
			Created with Pixso.
	</desc>
	<defs>
		<clipPath id="clip220_2323">
			<rect id="svg" width="24.000000" height="24.000000" fill="white" fill-opacity="0"/>
		</clipPath>
	</defs>
	<g clip-path="url(#clip220_2323)">
		<path id="path" d="M12 10.07L19.68 2.39C20.21 1.86 21.07 1.86 21.6 2.39C22.13 2.92 22.13 3.78 21.6 4.31L13.92 12L21.6 19.68C22.13 20.21 22.13 21.07 21.6 21.6C21.07 22.13 20.21 22.13 19.68 21.6L12 13.92L4.31 21.6C3.78 22.13 2.92 22.13 2.39 21.6C1.86 21.07 1.86 20.21 2.39 19.68L10.07 12L2.39 4.31C1.86 3.78 1.86 2.92 2.39 2.39C2.92 1.86 3.78 1.86 4.31 2.39L12 10.07Z" fill="#000000" fill-opacity="0.400000" fill-rule="nonzero"/>
	</g>
</svg>
