<svg width="16.000000" height="16.000000" viewBox="0 0 16 16" fill="none" xmlns="http://www.w3.org/2000/svg" xmlns:xlink="http://www.w3.org/1999/xlink">
	<desc>
			Created with Pixso.
	</desc>
	<defs>
		<clipPath id="clip11_512">
			<rect width="16.000000" height="16.000000" fill="white" fill-opacity="0"/>
		</clipPath>
	</defs>
	<g clip-path="url(#clip11_512)">
		<path d="M9.99 1.95C9.14 1.95 8.36 2.5 8.11 3.28L2.66 3.28C2.61 3.28 2.57 3.29 2.52 3.29C2.48 3.3 2.44 3.32 2.4 3.33C2.36 3.35 2.32 3.37 2.28 3.39C2.25 3.42 2.21 3.45 2.18 3.48C2.15 3.51 2.13 3.54 2.1 3.58C2.08 3.61 2.06 3.65 2.04 3.69C2.02 3.73 2.01 3.78 2 3.82C1.99 3.86 1.99 3.9 1.99 3.95C1.99 3.99 1.99 4.04 2 4.08C2.01 4.12 2.02 4.16 2.04 4.2C2.06 4.24 2.08 4.28 2.1 4.32C2.13 4.36 2.15 4.39 2.18 4.42C2.21 4.45 2.25 4.48 2.28 4.5C2.32 4.53 2.36 4.55 2.4 4.56C2.44 4.58 2.48 4.59 2.52 4.6C2.57 4.61 2.61 4.62 2.66 4.62L8.11 4.61C8.41 5.43 9.14 5.95 9.99 5.95C10.83 5.95 11.58 5.43 11.88 4.61L13.32 4.62C13.37 4.62 13.41 4.61 13.45 4.6C13.49 4.59 13.54 4.58 13.58 4.56C13.62 4.55 13.66 4.53 13.69 4.5C13.73 4.48 13.76 4.45 13.79 4.42C13.82 4.39 13.85 4.36 13.88 4.32C13.9 4.28 13.92 4.24 13.94 4.2C13.95 4.16 13.97 4.12 13.98 4.08C13.98 4.04 13.99 3.99 13.99 3.95C13.99 3.9 13.98 3.86 13.98 3.82C13.97 3.78 13.95 3.73 13.94 3.69C13.92 3.65 13.9 3.61 13.88 3.58C13.85 3.54 13.82 3.51 13.79 3.48C13.76 3.45 13.73 3.42 13.69 3.39C13.66 3.37 13.62 3.35 13.58 3.33C13.54 3.32 13.49 3.3 13.45 3.29C13.41 3.29 13.37 3.28 13.32 3.28L11.88 3.28C11.55 2.47 10.83 1.95 9.99 1.95ZM5.99 5.95C5.11 5.95 4.38 6.5 4.11 7.28C4.01 7.29 2.66 7.28 2.66 7.28C2.61 7.28 2.57 7.29 2.53 7.29C2.48 7.3 2.44 7.32 2.4 7.33C2.36 7.35 2.32 7.37 2.29 7.39C2.25 7.42 2.22 7.45 2.18 7.48C2.15 7.51 2.13 7.54 2.1 7.58C2.08 7.61 2.06 7.65 2.04 7.69C2.02 7.73 2.01 7.78 2 7.82C1.99 7.86 1.99 7.9 1.99 7.95C1.99 7.99 1.99 8.04 2 8.08C2.01 8.12 2.02 8.16 2.04 8.2C2.06 8.24 2.08 8.28 2.1 8.32C2.13 8.36 2.15 8.39 2.18 8.42C2.22 8.45 2.25 8.48 2.29 8.5C2.32 8.53 2.36 8.55 2.4 8.56C2.44 8.58 2.48 8.59 2.53 8.6C2.57 8.61 2.61 8.62 2.66 8.62C2.66 8.62 4.02 8.6 4.11 8.61C4.14 8.71 4.18 8.8 4.23 8.89C4.28 8.98 4.33 9.07 4.39 9.15C4.46 9.24 4.52 9.31 4.6 9.39C4.67 9.46 4.75 9.52 4.83 9.58C4.92 9.64 5 9.7 5.1 9.74C5.19 9.79 5.28 9.83 5.38 9.86C5.48 9.89 5.58 9.91 5.68 9.93C5.78 9.94 5.89 9.95 5.99 9.95C6.83 9.95 7.56 9.43 7.88 8.62L13.32 8.62C13.37 8.62 13.41 8.61 13.45 8.6C13.49 8.59 13.54 8.58 13.58 8.56C13.62 8.55 13.66 8.53 13.69 8.5C13.73 8.48 13.76 8.45 13.79 8.42C13.82 8.39 13.85 8.36 13.88 8.32C13.9 8.28 13.92 8.24 13.94 8.2C13.95 8.16 13.97 8.12 13.98 8.08C13.98 8.04 13.99 7.99 13.99 7.95C13.99 7.9 13.98 7.86 13.98 7.82C13.97 7.78 13.95 7.73 13.94 7.69C13.92 7.65 13.9 7.61 13.88 7.58C13.85 7.54 13.82 7.51 13.79 7.48C13.76 7.45 13.73 7.42 13.69 7.39C13.66 7.37 13.62 7.35 13.58 7.33C13.54 7.32 13.49 7.3 13.45 7.29C13.41 7.29 13.37 7.28 13.32 7.28L7.87 7.28C7.84 7.18 7.8 7.09 7.75 7C7.7 6.91 7.64 6.82 7.58 6.74C7.52 6.66 7.45 6.58 7.38 6.51C7.3 6.44 7.22 6.37 7.14 6.31C7.06 6.26 6.97 6.2 6.88 6.16C6.78 6.11 6.69 6.07 6.59 6.04C6.49 6.01 6.4 5.99 6.29 5.97C6.19 5.96 6.09 5.95 5.99 5.95ZM9.99 9.95C9.14 9.95 8.37 10.51 8.11 11.28L2.66 11.28C2.61 11.28 2.57 11.29 2.52 11.29C2.48 11.3 2.44 11.32 2.4 11.33C2.36 11.35 2.32 11.37 2.28 11.39C2.25 11.42 2.21 11.45 2.18 11.48C2.15 11.51 2.13 11.54 2.1 11.58C2.08 11.61 2.06 11.65 2.04 11.69C2.02 11.73 2.01 11.78 2 11.82C1.99 11.86 1.99 11.9 1.99 11.95C1.99 11.99 1.99 12.04 2 12.08C2.01 12.12 2.02 12.16 2.04 12.2C2.06 12.24 2.08 12.28 2.1 12.32C2.13 12.36 2.15 12.39 2.18 12.42C2.21 12.45 2.25 12.48 2.28 12.5C2.32 12.53 2.36 12.55 2.4 12.56C2.44 12.58 2.48 12.59 2.52 12.6C2.57 12.61 2.61 12.62 2.66 12.62L8.1 12.62C8.13 12.71 8.18 12.81 8.23 12.9C8.27 12.99 8.33 13.07 8.39 13.15C8.45 13.24 8.52 13.31 8.6 13.38C8.67 13.46 8.75 13.52 8.83 13.58C8.92 13.64 9.01 13.69 9.1 13.74C9.19 13.78 9.29 13.82 9.38 13.85C9.48 13.88 9.58 13.91 9.68 13.92C9.78 13.94 9.89 13.95 9.99 13.95C10.83 13.95 11.56 13.42 11.88 12.62L13.32 12.62C13.37 12.62 13.41 12.61 13.45 12.6C13.5 12.59 13.54 12.58 13.58 12.56C13.62 12.55 13.66 12.53 13.69 12.5C13.73 12.48 13.76 12.45 13.79 12.42C13.82 12.39 13.85 12.36 13.88 12.32C13.9 12.28 13.92 12.24 13.94 12.2C13.96 12.16 13.97 12.12 13.98 12.08C13.98 12.04 13.99 11.99 13.99 11.95C13.99 11.9 13.98 11.86 13.98 11.82C13.97 11.78 13.96 11.73 13.94 11.69C13.92 11.65 13.9 11.61 13.88 11.58C13.85 11.54 13.82 11.51 13.79 11.48C13.76 11.45 13.73 11.42 13.69 11.39C13.66 11.37 13.62 11.35 13.58 11.33C13.54 11.32 13.5 11.3 13.45 11.29C13.41 11.29 13.37 11.28 13.32 11.28L11.88 11.28C11.84 11.18 11.8 11.09 11.75 11C11.7 10.91 11.65 10.82 11.58 10.74C11.52 10.66 11.45 10.58 11.38 10.51C11.3 10.44 11.23 10.38 11.14 10.32C11.06 10.26 10.97 10.21 10.88 10.16C10.79 10.11 10.69 10.08 10.59 10.04C10.5 10.01 10.4 9.99 10.3 9.97C10.19 9.96 10.09 9.95 9.99 9.95Z" fill="#000000" fill-opacity="0.600000" fill-rule="nonzero"/>
	</g>
</svg>
