<svg width="16.000000" height="16.000000" viewBox="0 0 16 16" fill="none" xmlns="http://www.w3.org/2000/svg" xmlns:xlink="http://www.w3.org/1999/xlink">
	<desc>
			Created with Pixso.
	</desc>
	<defs>
		<clipPath id="clip42_1039">
			<rect width="16.000000" height="16.000000" fill="white" fill-opacity="0"/>
		</clipPath>
	</defs>
	<g clip-path="url(#clip42_1039)">
		<path d="M0.72 13.25L0.72 11.35L2.05 5.93L14.03 5.93C14.06 5.93 14.09 5.94 14.12 5.94C14.15 5.94 14.19 5.95 14.22 5.96C14.25 5.96 14.28 5.97 14.31 5.98C14.34 6 14.37 6.01 14.4 6.02C14.42 6.04 14.45 6.05 14.48 6.07C14.51 6.09 14.53 6.11 14.56 6.13C14.58 6.15 14.6 6.17 14.63 6.19C14.65 6.22 14.67 6.24 14.69 6.27C14.71 6.29 14.72 6.32 14.74 6.35C14.76 6.37 14.77 6.4 14.78 6.43C14.8 6.46 14.81 6.49 14.82 6.52C14.83 6.55 14.83 6.58 14.84 6.61C14.84 6.65 14.85 6.68 14.85 6.71C14.85 6.74 14.85 6.77 14.85 6.81C14.85 6.84 14.85 6.87 14.84 6.9C14.83 6.93 14.83 6.96 14.82 6.99L14.45 8.24L13.15 13.45C13.14 13.49 13.13 13.54 13.11 13.58C13.09 13.62 13.07 13.66 13.05 13.7C13.02 13.74 12.99 13.77 12.96 13.81C12.93 13.84 12.9 13.87 12.86 13.9C12.82 13.93 12.79 13.95 12.75 13.98C12.71 14 12.66 14.02 12.62 14.03C12.58 14.05 12.53 14.06 12.49 14.06C12.44 14.07 12.4 14.08 12.35 14.08L1.55 14.08C1.5 14.08 1.44 14.07 1.39 14.06C1.34 14.05 1.28 14.03 1.23 14.01C1.18 13.99 1.14 13.97 1.09 13.94C1.05 13.91 1 13.87 0.97 13.83C0.93 13.8 0.89 13.75 0.86 13.71C0.83 13.66 0.81 13.62 0.79 13.57C0.77 13.52 0.75 13.46 0.74 13.41C0.73 13.36 0.72 13.3 0.72 13.25Z" fill="#FFEBC0" fill-opacity="1.000000" fill-rule="nonzero"/>
		<path d="M1.89 6.97L0.72 11.34L0.72 2.96C0.72 2.53 1.07 2.18 1.49 2.18L5.12 2.18C5.23 2.18 5.32 2.2 5.42 2.24C5.51 2.28 5.59 2.33 5.66 2.41L7.23 4.01C7.26 4.04 7.3 4.06 7.34 4.06L12.81 4.06C13.23 4.06 13.57 4.41 13.57 4.84L13.57 5.93L3.22 5.93C3.14 5.94 3.07 5.94 2.99 5.95C2.92 5.97 2.84 5.99 2.77 6.01C2.7 6.04 2.63 6.07 2.57 6.1C2.5 6.14 2.44 6.18 2.38 6.23C2.32 6.27 2.26 6.33 2.21 6.38C2.16 6.44 2.11 6.5 2.07 6.56C2.03 6.62 1.99 6.69 1.96 6.76C1.93 6.83 1.91 6.9 1.89 6.97Z" fill="#FFA000" fill-opacity="1.000000" fill-rule="nonzero"/>
		<path d="M14.5 6.56L3.22 6.56C2.87 6.56 2.57 6.8 2.48 7.14L0.95 13.09C0.94 13.15 0.93 13.2 0.93 13.26C0.92 13.32 0.93 13.38 0.94 13.44C0.95 13.5 0.97 13.56 0.99 13.61C1.02 13.67 1.05 13.72 1.08 13.77C1.23 13.96 1.45 14.08 1.69 14.08L12.98 14.08C13.02 14.08 13.06 14.07 13.1 14.06C13.14 14.06 13.18 14.05 13.22 14.03C13.26 14.02 13.3 14 13.34 13.98C13.38 13.96 13.41 13.94 13.44 13.91C13.48 13.89 13.51 13.86 13.54 13.83C13.56 13.8 13.59 13.76 13.61 13.73C13.64 13.69 13.66 13.66 13.67 13.62C13.69 13.58 13.7 13.54 13.71 13.5L15.24 7.55C15.26 7.49 15.26 7.43 15.27 7.37C15.27 7.31 15.26 7.25 15.25 7.19C15.24 7.13 15.22 7.08 15.2 7.02C15.18 6.97 15.15 6.92 15.11 6.87C15.08 6.82 15.04 6.78 14.99 6.74C14.94 6.7 14.9 6.67 14.84 6.64C14.79 6.61 14.74 6.59 14.68 6.58C14.62 6.57 14.56 6.56 14.5 6.56Z" fill="#FFCA28" fill-opacity="1.000000" fill-rule="nonzero"/>
		<path d="M9.29 8.42L11.72 10.1C11.74 10.11 11.76 10.12 11.77 10.14C11.78 10.15 11.79 10.17 11.8 10.19C11.81 10.21 11.82 10.22 11.82 10.24C11.83 10.26 11.83 10.28 11.83 10.3C11.83 10.32 11.83 10.34 11.82 10.36C11.82 10.38 11.81 10.4 11.8 10.42C11.79 10.44 11.78 10.45 11.77 10.47C11.76 10.48 11.74 10.49 11.73 10.51L9.29 12.21C9.27 12.22 9.24 12.23 9.21 12.24C9.18 12.24 9.15 12.23 9.12 12.22C9.09 12.2 9.07 12.18 9.06 12.16C9.04 12.13 9.03 12.1 9.03 12.07L9.03 11.17L5.58 11.17C5.55 11.17 5.53 11.17 5.51 11.16C5.49 11.15 5.47 11.14 5.46 11.12C5.44 11.11 5.43 11.09 5.42 11.07C5.41 11.05 5.41 11.03 5.41 11.01L5.41 9.62C5.41 9.55 5.46 9.48 5.53 9.46L5.57 9.45L9.03 9.45L9.03 8.55C9.03 8.52 9.04 8.49 9.05 8.47C9.07 8.44 9.09 8.42 9.12 8.41C9.15 8.39 9.17 8.38 9.21 8.39C9.24 8.39 9.26 8.4 9.29 8.42Z" fill="#FFFFFF" fill-opacity="1.000000" fill-rule="nonzero"/>
	</g>
</svg>
