<svg width="40.000000" height="40.000000" viewBox="0 0 40 40" fill="none" xmlns="http://www.w3.org/2000/svg" xmlns:xlink="http://www.w3.org/1999/xlink">
	<desc>
			Created with Pixso.
	</desc>
	<defs/>
	<rect id="ic_public_trash" rx="20.000000" width="40.000000" height="40.000000" fill="#000000" fill-opacity="0.047059"/>
	<path id="path" d="M28.7 15.24L25.17 18.78C25.12 18.82 25.07 18.86 25.01 18.9C24.96 18.94 24.9 18.97 24.84 18.99C24.78 19.02 24.72 19.04 24.65 19.05C24.59 19.06 24.52 19.07 24.46 19.07C24.39 19.07 24.33 19.06 24.26 19.05C24.2 19.04 24.14 19.02 24.07 18.99C24.01 18.97 23.96 18.94 23.9 18.9C23.85 18.86 23.8 18.82 23.75 18.78C23.7 18.73 23.66 18.68 23.63 18.62C23.59 18.57 23.56 18.51 23.53 18.45C23.51 18.39 23.49 18.33 23.48 18.26C23.46 18.2 23.46 18.13 23.46 18.07C23.46 18 23.46 17.94 23.48 17.87C23.49 17.81 23.51 17.75 23.53 17.69C23.56 17.62 23.59 17.57 23.63 17.51C23.66 17.46 23.7 17.41 23.75 17.36L25.58 15.53L18.23 15.52C18.06 15.52 17.89 15.53 17.72 15.54C17.55 15.56 17.38 15.58 17.21 15.62C17.04 15.65 16.87 15.69 16.71 15.74C16.55 15.79 16.39 15.85 16.23 15.92C16.07 15.98 15.91 16.05 15.76 16.13C15.61 16.22 15.46 16.3 15.32 16.4C15.18 16.49 15.04 16.6 14.91 16.7C14.78 16.81 14.65 16.93 14.53 17.05C14.41 17.17 14.29 17.3 14.18 17.43C14.08 17.56 13.97 17.7 13.88 17.84C13.78 17.99 13.7 18.13 13.61 18.28C13.53 18.43 13.46 18.59 13.39 18.75C13.33 18.91 13.27 19.07 13.22 19.23C13.17 19.39 13.13 19.56 13.1 19.73C13.06 19.9 13.04 20.07 13.02 20.24C13 20.41 13 20.58 13 20.75C13 20.92 13 21.09 13.02 21.26C13.04 21.43 13.06 21.6 13.1 21.77C13.13 21.94 13.17 22.1 13.22 22.27C13.27 22.43 13.33 22.59 13.39 22.75C13.46 22.91 13.53 23.06 13.61 23.22C13.7 23.37 13.78 23.51 13.88 23.66C13.97 23.8 14.08 23.94 14.18 24.07C14.29 24.2 14.41 24.33 14.53 24.45C14.65 24.57 14.78 24.69 14.91 24.79C15.04 24.9 15.18 25 15.32 25.1C15.46 25.2 15.61 25.28 15.76 25.36C15.91 25.44 16.07 25.52 16.23 25.58C16.39 25.65 16.55 25.71 16.71 25.76C16.87 25.81 17.04 25.85 17.21 25.88C17.38 25.91 17.55 25.94 17.72 25.96C17.89 25.97 18.06 25.98 18.23 25.98L26.79 25.99C26.85 25.99 26.92 26 26.98 26.01C27.05 26.03 27.11 26.05 27.17 26.07C27.23 26.1 27.29 26.13 27.34 26.16C27.4 26.2 27.45 26.24 27.5 26.29C27.54 26.33 27.58 26.38 27.62 26.44C27.66 26.49 27.69 26.55 27.71 26.61C27.74 26.67 27.76 26.74 27.77 26.8C27.78 26.86 27.79 26.93 27.79 27C27.79 27.06 27.78 27.13 27.77 27.19C27.76 27.25 27.74 27.32 27.71 27.38C27.69 27.44 27.66 27.5 27.62 27.55C27.58 27.61 27.54 27.66 27.5 27.7C27.45 27.75 27.4 27.79 27.34 27.83C27.29 27.86 27.23 27.89 27.17 27.92C27.11 27.94 27.05 27.96 26.98 27.98C26.92 27.99 26.85 27.99 26.79 27.99L18.23 27.98C18.11 27.98 17.99 27.98 17.87 27.97C17.76 27.97 17.64 27.96 17.52 27.95C17.4 27.94 17.29 27.92 17.17 27.9C17.05 27.89 16.93 27.87 16.82 27.84C16.7 27.82 16.59 27.79 16.47 27.76C16.36 27.74 16.24 27.7 16.13 27.67C16.02 27.64 15.9 27.6 15.79 27.56C15.68 27.52 15.57 27.48 15.46 27.43C15.35 27.39 15.24 27.34 15.14 27.29C15.03 27.24 14.93 27.18 14.82 27.13C14.72 27.07 14.61 27.01 14.51 26.95C14.41 26.89 14.31 26.83 14.21 26.76C14.11 26.7 14.02 26.63 13.92 26.56C13.83 26.49 13.73 26.41 13.64 26.34C13.55 26.26 13.46 26.19 13.37 26.11C13.29 26.03 13.2 25.95 13.12 25.86C13.03 25.78 12.95 25.69 12.87 25.61C12.79 25.52 12.72 25.43 12.64 25.34C12.56 25.25 12.49 25.15 12.42 25.06C12.35 24.96 12.28 24.87 12.22 24.77C12.15 24.67 12.09 24.57 12.03 24.47C11.97 24.37 11.91 24.26 11.85 24.16C11.8 24.05 11.74 23.95 11.69 23.84C11.64 23.73 11.59 23.63 11.55 23.52C11.5 23.41 11.46 23.3 11.42 23.19C11.38 23.07 11.34 22.96 11.31 22.85C11.28 22.74 11.24 22.62 11.22 22.51C11.19 22.39 11.16 22.28 11.14 22.16C11.11 22.04 11.09 21.93 11.08 21.81C11.06 21.69 11.05 21.58 11.03 21.46C11.02 21.34 11.01 21.22 11.01 21.1C11 20.99 11 20.87 11 20.75C11 20.63 11 20.51 11.01 20.39C11.01 20.28 11.02 20.16 11.03 20.04C11.05 19.92 11.06 19.81 11.08 19.69C11.09 19.57 11.11 19.45 11.14 19.34C11.16 19.22 11.19 19.11 11.22 18.99C11.24 18.88 11.28 18.76 11.31 18.65C11.34 18.54 11.38 18.42 11.42 18.31C11.46 18.2 11.5 18.09 11.55 17.98C11.59 17.87 11.64 17.76 11.69 17.66C11.74 17.55 11.8 17.45 11.85 17.34C11.91 17.24 11.97 17.13 12.03 17.03C12.09 16.93 12.15 16.83 12.22 16.73C12.28 16.63 12.35 16.54 12.42 16.44C12.49 16.35 12.56 16.25 12.64 16.16C12.72 16.07 12.79 15.98 12.87 15.89C12.95 15.81 13.03 15.72 13.12 15.64C13.2 15.55 13.29 15.47 13.37 15.39C13.46 15.31 13.55 15.23 13.64 15.16C13.73 15.08 13.83 15.01 13.92 14.94C14.02 14.87 14.11 14.8 14.21 14.74C14.31 14.67 14.41 14.61 14.51 14.55C14.61 14.49 14.72 14.43 14.82 14.37C14.93 14.32 15.03 14.26 15.14 14.21C15.24 14.16 15.35 14.11 15.46 14.07C15.57 14.02 15.68 13.98 15.79 13.94C15.9 13.9 16.02 13.86 16.13 13.83C16.24 13.79 16.36 13.76 16.47 13.73C16.59 13.71 16.7 13.68 16.82 13.66C16.93 13.63 17.05 13.61 17.17 13.6C17.29 13.58 17.4 13.56 17.52 13.55C17.64 13.54 17.76 13.53 17.87 13.53C17.99 13.52 18.11 13.52 18.23 13.52L25.58 13.53L23.75 11.7C23.7 11.66 23.66 11.61 23.63 11.55C23.59 11.5 23.56 11.44 23.53 11.38C23.51 11.32 23.49 11.26 23.48 11.19C23.46 11.13 23.46 11.06 23.46 11C23.46 10.93 23.46 10.86 23.48 10.8C23.49 10.74 23.51 10.67 23.53 10.61C23.56 10.55 23.59 10.49 23.63 10.44C23.66 10.39 23.7 10.33 23.75 10.29C23.8 10.24 23.85 10.2 23.9 10.16C23.96 10.13 24.01 10.1 24.08 10.07C24.14 10.05 24.2 10.03 24.26 10.01C24.33 10 24.39 10 24.46 10C24.52 10 24.59 10 24.65 10.02C24.72 10.03 24.78 10.05 24.84 10.07C24.9 10.1 24.96 10.13 25.01 10.16C25.07 10.2 25.12 10.24 25.17 10.29L28.7 13.82C28.75 13.87 28.79 13.92 28.82 13.98C28.86 14.03 28.89 14.09 28.92 14.15C28.94 14.21 28.96 14.27 28.97 14.34C28.99 14.4 28.99 14.47 28.99 14.53C28.99 14.6 28.99 14.66 28.97 14.73C28.96 14.79 28.94 14.85 28.92 14.91C28.89 14.97 28.86 15.03 28.82 15.09C28.79 15.14 28.75 15.19 28.7 15.24Z" fill="#000000" fill-opacity="0.898039" fill-rule="nonzero"/>
</svg>
