<svg width="24.000000" height="24.000000" viewBox="0 0 24 24" fill="none" xmlns="http://www.w3.org/2000/svg" xmlns:xlink="http://www.w3.org/1999/xlink">
	<desc>
			Created with Pixso.
	</desc>
	<defs>
		<clipPath id="clip209_2002">
			<rect id="svg" width="24.000000" height="24.000000" fill="white" fill-opacity="0"/>
		</clipPath>
	</defs>
	<g clip-path="url(#clip209_2002)">
		<path id="path" d="M5.43 12C5.29 12 5.17 11.97 5.04 11.92C4.92 11.87 4.81 11.79 4.71 11.7L1.3 8.28C1.26 8.23 1.21 8.18 1.17 8.12C1.14 8.07 1.1 8.01 1.08 7.94C1.05 7.88 1.03 7.81 1.02 7.75C1 7.68 1 7.61 1 7.54C0.99 7.47 1 7.4 1.01 7.34C1.02 7.27 1.04 7.2 1.07 7.14C1.09 7.07 1.12 7.01 1.16 6.96C1.2 6.9 1.24 6.84 1.29 6.79C1.33 6.74 1.38 6.7 1.44 6.66C1.49 6.62 1.55 6.59 1.61 6.56C1.68 6.53 1.74 6.51 1.81 6.5C1.87 6.49 1.94 6.48 2.01 6.48C2.07 6.48 2.14 6.48 2.2 6.49C2.27 6.51 2.34 6.53 2.4 6.55C2.46 6.58 2.52 6.61 2.58 6.65C2.63 6.68 2.68 6.73 2.73 6.78L5.36 9.41L11.18 2.38C11.22 2.33 11.27 2.28 11.32 2.23C11.38 2.19 11.43 2.15 11.49 2.12C11.55 2.08 11.62 2.06 11.68 2.04C11.75 2.02 11.81 2.01 11.88 2C11.95 1.99 12.02 1.99 12.08 2C12.15 2.01 12.22 2.02 12.28 2.04C12.35 2.07 12.41 2.09 12.47 2.13C12.53 2.16 12.58 2.2 12.64 2.25C12.69 2.29 12.73 2.34 12.78 2.4C12.82 2.45 12.85 2.51 12.89 2.57C12.92 2.63 12.94 2.7 12.96 2.77C12.98 2.83 12.99 2.9 12.99 2.97C13 3.04 13 3.11 12.99 3.18C12.98 3.25 12.96 3.32 12.94 3.38C12.92 3.45 12.89 3.51 12.86 3.57C12.82 3.63 12.78 3.69 12.74 3.74L6.2 11.63C6.11 11.74 6 11.82 5.88 11.89C5.75 11.95 5.62 11.99 5.47 12L5.43 12Z" fill="#000000" fill-opacity="0.400000" fill-rule="nonzero"/>
		<path id="path" d="M17.65 10.68C15.43 10.68 13.62 8.87 13.62 6.65C13.62 4.43 15.43 2.62 17.65 2.62C19.87 2.62 21.68 4.43 21.68 6.65C21.68 8.87 19.87 10.68 17.65 10.68Z" fill="#0A59F7" fill-opacity="1.000000" fill-rule="evenodd"/>
		<path id="path" d="M17.65 21.68C15.43 21.68 13.62 19.87 13.62 17.65C13.62 15.43 15.43 13.62 17.65 13.62C19.87 13.62 21.68 15.43 21.68 17.65C21.68 19.87 19.87 21.68 17.65 21.68Z" fill="#0A59F7" fill-opacity="0.400000" fill-rule="evenodd"/>
		<path id="path" d="M6.65 21.68C4.43 21.68 2.62 19.87 2.62 17.65C2.62 15.43 4.43 13.62 6.65 13.62C8.87 13.62 10.68 15.43 10.68 17.65C10.68 19.87 8.87 21.68 6.65 21.68Z" fill="#0A59F7" fill-opacity="1.000000" fill-rule="evenodd"/>
	</g>
</svg>
