<svg width="24.000000" height="24.000000" viewBox="0 0 24 24" fill="none" xmlns="http://www.w3.org/2000/svg" xmlns:xlink="http://www.w3.org/1999/xlink">
	<desc>
			Created with Pixso.
	</desc>
	<defs/>
	<path id="矢量 2" d="M12 2C17.52 2 22 6.47 22 12C22 17.52 17.52 22 12 22C6.47 22 2 17.52 2 12C2 6.47 6.47 2 12 2Z" fill="#0A59F7" fill-opacity="1.000000" fill-rule="evenodd"/>
	<path id="矢量 2" d="M17.56 8.09C17.16 7.71 16.53 7.73 16.15 8.14L10.53 14.17L7.6 11.44C7.2 11.06 6.57 11.09 6.19 11.49C5.81 11.89 5.83 12.53 6.24 12.9L9.82 16.25C10.11 16.52 10.58 16.65 10.92 16.52C11.07 16.47 11.2 16.38 11.31 16.26L17.61 9.5C17.99 9.1 17.97 8.46 17.56 8.09Z" fill="#FFFFFF" fill-opacity="1.000000" fill-rule="evenodd"/>
</svg>
