<svg width="24.000000" height="24.000000" viewBox="0 0 24 24" fill="none" xmlns="http://www.w3.org/2000/svg" xmlns:xlink="http://www.w3.org/1999/xlink">
	<desc>
			Created with Pixso.
	</desc>
	<defs>
		<clipPath id="clip241_3210">
			<rect id="svg" width="24.000000" height="24.000000" fill="white" fill-opacity="0"/>
		</clipPath>
	</defs>
	<g clip-path="url(#clip241_3210)">
		<path id="path" d="M21.14 6.82L16.22 3.01C15.19 2.21 13.69 2.95 13.69 4.25L13.69 5.31C9.26 5.34 5.68 9.05 5.68 13.65C5.68 14.65 5.84 15.54 6.12 16.43C7.23 13.21 10.18 10.87 13.69 10.87L13.69 11.87C13.69 13.17 15.18 13.91 16.22 13.11L21.14 9.3C21.96 8.68 21.96 7.45 21.14 6.82Z" fill="#2867CE" fill-opacity="1.000000" fill-rule="nonzero"/>
		<path id="path" d="M18 21.13L6.03 21.13C3.85 21.13 2.09 19.36 2.09 17.18L2.09 8.28C2.09 6.1 3.86 4.33 6.03 4.33L7.2 4.33C7.82 4.33 8.32 4.84 8.32 5.46C8.32 6.08 7.82 6.59 7.2 6.59L6.03 6.59C5.1 6.59 4.34 7.35 4.34 8.28L4.34 17.19C4.34 18.12 5.1 18.88 6.03 18.88L18 18.88C18.94 18.88 19.7 18.12 19.7 17.19L19.7 14.09C19.7 13.47 20.2 12.97 20.82 12.97C21.45 12.97 21.95 13.47 21.95 14.09L21.95 17.19C21.95 19.37 20.18 21.13 18 21.13Z" fill="#BDD2EF" fill-opacity="1.000000" fill-rule="nonzero"/>
	</g>
</svg>
