<svg width="40.000000" height="40.000000" viewBox="0 0 40 40" fill="none" xmlns="http://www.w3.org/2000/svg" xmlns:xlink="http://www.w3.org/1999/xlink">
	<desc>
			Created with Pixso.
	</desc>
	<defs/>
	<rect id="ic_public_trash" rx="20.000000" width="40.000000" height="40.000000" fill="#000000" fill-opacity="0.047059"/>
	<path id="path" d="M20 14.99C20.06 15 20.13 14.99 20.19 14.99C20.26 14.98 20.33 14.98 20.39 14.96C20.46 14.95 20.52 14.94 20.59 14.92C20.65 14.9 20.71 14.88 20.78 14.86C20.84 14.83 20.9 14.81 20.96 14.77C21.02 14.74 21.07 14.71 21.13 14.67C21.19 14.64 21.24 14.6 21.29 14.56C21.34 14.52 21.39 14.47 21.44 14.43C21.49 14.38 21.53 14.33 21.58 14.28C21.62 14.23 21.66 14.18 21.7 14.12C21.73 14.07 21.77 14.01 21.8 13.95C21.83 13.89 21.86 13.83 21.89 13.77C21.91 13.71 21.94 13.65 21.96 13.58C21.98 13.52 21.99 13.46 22 13.39C22.02 13.33 22.03 13.26 22.03 13.19C22.04 13.13 22.04 13.06 22.04 12.99C22.04 12.93 22.04 12.86 22.03 12.8C22.03 12.73 22.02 12.66 22 12.6C21.99 12.53 21.98 12.47 21.96 12.41C21.94 12.34 21.91 12.28 21.89 12.22C21.86 12.16 21.83 12.1 21.8 12.04C21.77 11.98 21.73 11.92 21.7 11.87C21.66 11.81 21.62 11.76 21.58 11.71C21.53 11.66 21.49 11.61 21.44 11.56C21.39 11.52 21.34 11.47 21.29 11.43C21.24 11.39 21.19 11.35 21.13 11.31C21.07 11.28 21.02 11.25 20.96 11.22C20.9 11.18 20.84 11.16 20.78 11.13C20.71 11.11 20.65 11.09 20.59 11.07C20.52 11.05 20.46 11.04 20.39 11.02C20.33 11.01 20.26 11.01 20.19 11C20.13 11 20.06 10.99 20 11C19.93 11 19.87 11 19.8 11.01C19.74 11.02 19.67 11.03 19.61 11.04C19.55 11.06 19.49 11.07 19.43 11.09C19.36 11.11 19.3 11.14 19.24 11.16C19.19 11.19 19.13 11.22 19.07 11.25C19.02 11.28 18.96 11.31 18.91 11.35C18.85 11.39 18.8 11.42 18.75 11.47C18.7 11.51 18.66 11.55 18.61 11.6C18.57 11.64 18.52 11.69 18.48 11.74C18.44 11.79 18.41 11.84 18.37 11.9C18.34 11.95 18.3 12.01 18.27 12.07C18.24 12.12 18.22 12.18 18.19 12.24C18.17 12.3 18.15 12.36 18.13 12.42C18.11 12.48 18.09 12.55 18.08 12.61C18.07 12.67 18.06 12.74 18.05 12.8C18.05 12.87 18.04 12.93 18.04 12.99C18.04 13.06 18.05 13.12 18.05 13.19C18.06 13.25 18.07 13.32 18.08 13.38C18.09 13.44 18.11 13.5 18.13 13.57C18.15 13.63 18.17 13.69 18.19 13.75C18.22 13.81 18.24 13.87 18.27 13.92C18.3 13.98 18.34 14.04 18.37 14.09C18.41 14.14 18.44 14.2 18.48 14.25C18.52 14.3 18.57 14.35 18.61 14.39C18.66 14.44 18.7 14.48 18.75 14.52C18.8 14.57 18.85 14.6 18.91 14.64C18.96 14.68 19.02 14.71 19.07 14.74C19.13 14.77 19.19 14.8 19.24 14.83C19.3 14.85 19.36 14.88 19.43 14.9C19.49 14.92 19.55 14.93 19.61 14.95C19.67 14.96 19.74 14.97 19.8 14.98C19.87 14.99 19.93 14.99 20 14.99Z" fill="#000000" fill-opacity="0.898039" fill-rule="nonzero"/>
	<path id="path" d="M17.99 20C17.99 20.06 18 20.13 18 20.19C18.01 20.26 18.02 20.32 18.03 20.39C18.05 20.45 18.06 20.51 18.08 20.58C18.1 20.64 18.12 20.7 18.15 20.76C18.17 20.82 18.2 20.88 18.23 20.94C18.26 21 18.3 21.05 18.33 21.11C18.37 21.16 18.41 21.21 18.45 21.26C18.49 21.31 18.53 21.36 18.58 21.41C18.63 21.46 18.68 21.5 18.73 21.54C18.78 21.58 18.83 21.62 18.88 21.66C18.94 21.69 18.99 21.73 19.05 21.76C19.11 21.79 19.17 21.82 19.23 21.84C19.29 21.87 19.35 21.89 19.41 21.91C19.48 21.93 19.54 21.94 19.6 21.96C19.67 21.97 19.73 21.98 19.8 21.99C19.86 21.99 19.93 22 20 22C20.06 22 20.13 21.99 20.19 21.99C20.26 21.98 20.32 21.97 20.39 21.96C20.45 21.94 20.51 21.93 20.58 21.91C20.64 21.89 20.7 21.87 20.76 21.84C20.82 21.82 20.88 21.79 20.94 21.76C21 21.73 21.05 21.69 21.11 21.66C21.16 21.62 21.21 21.58 21.26 21.54C21.31 21.5 21.36 21.46 21.41 21.41C21.46 21.36 21.5 21.31 21.54 21.26C21.58 21.21 21.62 21.16 21.66 21.11C21.69 21.05 21.73 21 21.76 20.94C21.79 20.88 21.82 20.82 21.84 20.76C21.87 20.7 21.89 20.64 21.91 20.58C21.93 20.51 21.94 20.45 21.96 20.39C21.97 20.32 21.98 20.26 21.99 20.19C21.99 20.13 22 20.06 22 20C22 19.93 21.99 19.86 21.99 19.8C21.98 19.73 21.97 19.67 21.96 19.6C21.94 19.54 21.93 19.48 21.91 19.41C21.89 19.35 21.87 19.29 21.84 19.23C21.82 19.17 21.79 19.11 21.76 19.05C21.73 18.99 21.69 18.94 21.66 18.88C21.62 18.83 21.58 18.78 21.54 18.73C21.5 18.68 21.46 18.63 21.41 18.58C21.36 18.53 21.31 18.49 21.26 18.45C21.21 18.41 21.16 18.37 21.11 18.33C21.05 18.3 21 18.26 20.94 18.23C20.88 18.2 20.82 18.17 20.76 18.15C20.7 18.12 20.64 18.1 20.58 18.08C20.51 18.06 20.45 18.05 20.39 18.03C20.32 18.02 20.26 18.01 20.19 18C20.13 18 20.06 17.99 20 17.99C19.93 17.99 19.86 18 19.8 18C19.73 18.01 19.67 18.02 19.6 18.03C19.54 18.05 19.48 18.06 19.41 18.08C19.35 18.1 19.29 18.12 19.23 18.15C19.17 18.17 19.11 18.2 19.05 18.23C18.99 18.26 18.94 18.3 18.88 18.33C18.83 18.37 18.78 18.41 18.73 18.45C18.68 18.49 18.63 18.53 18.58 18.58C18.53 18.63 18.49 18.68 18.45 18.73C18.41 18.78 18.37 18.83 18.33 18.88C18.3 18.94 18.26 18.99 18.23 19.05C18.2 19.11 18.17 19.17 18.15 19.23C18.12 19.29 18.1 19.35 18.08 19.41C18.06 19.48 18.05 19.54 18.03 19.6C18.02 19.67 18.01 19.73 18 19.8C18 19.86 17.99 19.93 17.99 20Z" fill="#000000" fill-opacity="0.898039" fill-rule="nonzero"/>
	<path id="path" d="M20 29C20.06 29 20.13 28.99 20.19 28.99C20.26 28.98 20.32 28.97 20.39 28.96C20.45 28.94 20.51 28.93 20.58 28.91C20.64 28.89 20.7 28.87 20.76 28.84C20.82 28.82 20.88 28.79 20.94 28.76C21 28.73 21.05 28.69 21.11 28.66C21.16 28.62 21.21 28.58 21.26 28.54C21.31 28.5 21.36 28.46 21.41 28.41C21.46 28.36 21.5 28.31 21.54 28.26C21.58 28.21 21.62 28.16 21.66 28.11C21.69 28.05 21.73 28 21.76 27.94C21.79 27.88 21.82 27.82 21.84 27.76C21.87 27.7 21.89 27.64 21.91 27.58C21.93 27.51 21.94 27.45 21.96 27.38C21.97 27.32 21.98 27.26 21.99 27.19C21.99 27.13 22 27.06 22 26.99C22 26.93 21.99 26.86 21.99 26.8C21.98 26.73 21.97 26.67 21.96 26.6C21.94 26.54 21.93 26.48 21.91 26.41C21.89 26.35 21.87 26.29 21.84 26.23C21.82 26.17 21.79 26.11 21.76 26.05C21.73 25.99 21.69 25.94 21.66 25.88C21.62 25.83 21.58 25.78 21.54 25.73C21.5 25.67 21.46 25.63 21.41 25.58C21.36 25.53 21.31 25.49 21.26 25.45C21.21 25.41 21.16 25.37 21.11 25.33C21.05 25.29 21 25.26 20.94 25.23C20.88 25.2 20.82 25.17 20.76 25.15C20.7 25.12 20.64 25.1 20.58 25.08C20.51 25.06 20.45 25.05 20.39 25.03C20.32 25.02 20.26 25.01 20.19 25C20.13 25 20.06 24.99 20 24.99C19.93 24.99 19.86 25 19.8 25C19.73 25.01 19.67 25.02 19.6 25.03C19.54 25.05 19.48 25.06 19.41 25.08C19.35 25.1 19.29 25.12 19.23 25.15C19.17 25.17 19.11 25.2 19.05 25.23C18.99 25.26 18.94 25.29 18.88 25.33C18.83 25.37 18.78 25.41 18.73 25.45C18.68 25.49 18.63 25.53 18.58 25.58C18.53 25.63 18.49 25.67 18.45 25.73C18.41 25.78 18.37 25.83 18.33 25.88C18.3 25.94 18.26 25.99 18.23 26.05C18.2 26.11 18.17 26.17 18.15 26.23C18.12 26.29 18.1 26.35 18.08 26.41C18.06 26.48 18.05 26.54 18.03 26.6C18.02 26.67 18.01 26.73 18 26.8C18 26.86 17.99 26.93 17.99 26.99C17.99 27.06 18 27.13 18 27.19C18.01 27.26 18.02 27.32 18.03 27.38C18.05 27.45 18.06 27.51 18.08 27.58C18.1 27.64 18.12 27.7 18.15 27.76C18.17 27.82 18.2 27.88 18.23 27.94C18.26 28 18.3 28.05 18.33 28.11C18.37 28.16 18.41 28.21 18.45 28.26C18.49 28.31 18.53 28.36 18.58 28.41C18.63 28.46 18.68 28.5 18.73 28.54C18.78 28.58 18.83 28.62 18.88 28.66C18.94 28.69 18.99 28.73 19.05 28.76C19.11 28.79 19.17 28.82 19.23 28.84C19.29 28.87 19.35 28.89 19.41 28.91C19.48 28.93 19.54 28.94 19.6 28.96C19.67 28.97 19.73 28.98 19.8 28.99C19.86 28.99 19.93 29 20 29Z" fill="#000000" fill-opacity="0.898039" fill-rule="nonzero"/>
</svg>
