<svg width="40.000000" height="40.000000" viewBox="0 0 40 40" fill="none" xmlns="http://www.w3.org/2000/svg" xmlns:xlink="http://www.w3.org/1999/xlink">
	<desc>
			Created with Pixso.
	</desc>
	<defs/>
	<rect id="ic_public_trash" rx="20.000000" width="40.000000" height="40.000000" fill="#000000" fill-opacity="0.047059"/>
	<path id="path" d="M11.29 15.24L14.83 18.78C14.87 18.82 14.92 18.86 14.98 18.9C15.03 18.94 15.09 18.97 15.15 18.99C15.21 19.02 15.27 19.04 15.34 19.05C15.4 19.06 15.47 19.07 15.53 19.07C15.6 19.07 15.66 19.06 15.73 19.05C15.79 19.04 15.85 19.02 15.92 18.99C15.98 18.97 16.03 18.94 16.09 18.9C16.14 18.86 16.19 18.82 16.24 18.78C16.29 18.73 16.33 18.68 16.36 18.62C16.4 18.57 16.43 18.51 16.46 18.45C16.48 18.39 16.5 18.33 16.51 18.26C16.53 18.2 16.53 18.13 16.53 18.07C16.53 18 16.53 17.94 16.51 17.87C16.5 17.81 16.48 17.75 16.46 17.69C16.43 17.62 16.4 17.57 16.36 17.51C16.33 17.46 16.29 17.41 16.24 17.36L14.41 15.53L21.76 15.52C21.93 15.52 22.1 15.53 22.27 15.54C22.44 15.56 22.61 15.58 22.78 15.62C22.95 15.65 23.12 15.69 23.28 15.74C23.44 15.79 23.61 15.85 23.76 15.92C23.92 15.98 24.08 16.05 24.23 16.13C24.38 16.22 24.53 16.3 24.67 16.4C24.81 16.49 24.95 16.6 25.08 16.7C25.21 16.81 25.34 16.93 25.46 17.05C25.58 17.17 25.7 17.3 25.81 17.43C25.91 17.56 26.02 17.7 26.11 17.84C26.21 17.99 26.29 18.13 26.38 18.28C26.46 18.43 26.53 18.59 26.6 18.75C26.66 18.91 26.72 19.07 26.77 19.23C26.82 19.39 26.86 19.56 26.89 19.73C26.93 19.9 26.95 20.07 26.97 20.24C26.99 20.41 26.99 20.58 26.99 20.75C26.99 20.92 26.99 21.09 26.97 21.26C26.95 21.43 26.93 21.6 26.89 21.77C26.86 21.94 26.82 22.1 26.77 22.27C26.72 22.43 26.66 22.59 26.6 22.75C26.53 22.91 26.46 23.06 26.38 23.22C26.29 23.37 26.21 23.51 26.11 23.66C26.02 23.8 25.91 23.94 25.81 24.07C25.7 24.2 25.58 24.33 25.46 24.45C25.34 24.57 25.21 24.69 25.08 24.79C24.95 24.9 24.81 25 24.67 25.1C24.53 25.2 24.38 25.28 24.23 25.36C24.08 25.44 23.92 25.52 23.76 25.58C23.61 25.65 23.44 25.71 23.28 25.76C23.12 25.81 22.95 25.85 22.78 25.88C22.61 25.91 22.44 25.94 22.27 25.96C22.1 25.97 21.93 25.98 21.76 25.98L13.2 25.99C13.14 25.99 13.07 26 13.01 26.01C12.94 26.03 12.88 26.05 12.82 26.07C12.76 26.1 12.7 26.13 12.65 26.16C12.59 26.2 12.54 26.24 12.49 26.29C12.45 26.33 12.41 26.38 12.37 26.44C12.33 26.49 12.3 26.55 12.28 26.61C12.25 26.67 12.23 26.74 12.22 26.8C12.21 26.86 12.2 26.93 12.2 27C12.2 27.06 12.21 27.13 12.22 27.19C12.23 27.25 12.25 27.32 12.28 27.38C12.3 27.44 12.33 27.5 12.37 27.55C12.41 27.61 12.45 27.66 12.5 27.7C12.54 27.75 12.59 27.79 12.65 27.83C12.7 27.86 12.76 27.89 12.82 27.92C12.88 27.94 12.94 27.96 13.01 27.98C13.07 27.99 13.14 27.99 13.2 27.99L21.76 27.98C21.88 27.98 22 27.98 22.12 27.97C22.23 27.97 22.35 27.96 22.47 27.95C22.59 27.94 22.7 27.92 22.82 27.9C22.94 27.89 23.06 27.87 23.17 27.84C23.29 27.82 23.4 27.79 23.52 27.76C23.63 27.74 23.75 27.7 23.86 27.67C23.97 27.64 24.09 27.6 24.2 27.56C24.31 27.52 24.42 27.48 24.53 27.43C24.64 27.39 24.75 27.34 24.85 27.29C24.96 27.24 25.07 27.18 25.17 27.13C25.27 27.07 25.38 27.01 25.48 26.95C25.58 26.89 25.68 26.83 25.78 26.76C25.88 26.7 25.97 26.63 26.07 26.56C26.16 26.49 26.26 26.41 26.35 26.34C26.44 26.26 26.53 26.19 26.62 26.11C26.7 26.03 26.79 25.95 26.87 25.86C26.96 25.78 27.04 25.69 27.12 25.61C27.2 25.52 27.27 25.43 27.35 25.34C27.43 25.25 27.5 25.15 27.57 25.06C27.64 24.96 27.71 24.87 27.77 24.77C27.84 24.67 27.9 24.57 27.96 24.47C28.02 24.37 28.08 24.26 28.14 24.16C28.19 24.05 28.25 23.95 28.3 23.84C28.35 23.73 28.4 23.63 28.44 23.52C28.49 23.41 28.53 23.3 28.57 23.19C28.61 23.07 28.65 22.96 28.68 22.85C28.71 22.74 28.75 22.62 28.77 22.51C28.8 22.39 28.83 22.28 28.85 22.16C28.88 22.04 28.9 21.93 28.91 21.81C28.93 21.69 28.94 21.58 28.96 21.46C28.97 21.34 28.98 21.22 28.98 21.1C28.99 20.99 28.99 20.87 28.99 20.75C28.99 20.63 28.99 20.51 28.98 20.39C28.98 20.28 28.97 20.16 28.96 20.04C28.94 19.92 28.93 19.81 28.91 19.69C28.9 19.57 28.88 19.45 28.85 19.34C28.83 19.22 28.8 19.11 28.77 18.99C28.75 18.88 28.71 18.76 28.68 18.65C28.65 18.54 28.61 18.42 28.57 18.31C28.53 18.2 28.49 18.09 28.44 17.98C28.4 17.87 28.35 17.76 28.3 17.66C28.25 17.55 28.19 17.45 28.14 17.34C28.08 17.24 28.02 17.13 27.96 17.03C27.9 16.93 27.84 16.83 27.77 16.73C27.71 16.63 27.64 16.54 27.57 16.44C27.5 16.35 27.43 16.25 27.35 16.16C27.27 16.07 27.2 15.98 27.12 15.89C27.04 15.81 26.96 15.72 26.87 15.64C26.79 15.55 26.7 15.47 26.62 15.39C26.53 15.31 26.44 15.23 26.35 15.16C26.26 15.08 26.16 15.01 26.07 14.94C25.97 14.87 25.88 14.8 25.78 14.74C25.68 14.67 25.58 14.61 25.48 14.55C25.38 14.49 25.27 14.43 25.17 14.37C25.07 14.32 24.96 14.26 24.85 14.21C24.75 14.16 24.64 14.11 24.53 14.07C24.42 14.02 24.31 13.98 24.2 13.94C24.09 13.9 23.97 13.86 23.86 13.83C23.75 13.79 23.63 13.76 23.52 13.73C23.4 13.71 23.29 13.68 23.17 13.66C23.06 13.63 22.94 13.61 22.82 13.6C22.7 13.58 22.59 13.56 22.47 13.55C22.35 13.54 22.23 13.53 22.12 13.53C22 13.52 21.88 13.52 21.76 13.52L14.41 13.53L16.24 11.7C16.29 11.66 16.33 11.61 16.36 11.55C16.4 11.5 16.43 11.44 16.46 11.38C16.48 11.32 16.5 11.26 16.51 11.19C16.53 11.13 16.53 11.06 16.53 11C16.53 10.93 16.53 10.86 16.51 10.8C16.5 10.74 16.48 10.67 16.46 10.61C16.43 10.55 16.4 10.49 16.36 10.44C16.33 10.39 16.29 10.33 16.24 10.29C16.19 10.24 16.14 10.2 16.09 10.16C16.03 10.13 15.98 10.1 15.91 10.07C15.85 10.05 15.79 10.03 15.73 10.01C15.66 10 15.6 10 15.53 10C15.47 10 15.4 10 15.34 10.02C15.27 10.03 15.21 10.05 15.15 10.07C15.09 10.1 15.03 10.13 14.98 10.16C14.92 10.2 14.87 10.24 14.83 10.29L11.29 13.82C11.24 13.87 11.2 13.92 11.17 13.98C11.13 14.03 11.1 14.09 11.07 14.15C11.05 14.21 11.03 14.27 11.02 14.34C11 14.4 11 14.47 11 14.53C11 14.6 11 14.66 11.02 14.73C11.03 14.79 11.05 14.85 11.07 14.91C11.1 14.97 11.13 15.03 11.17 15.09C11.2 15.14 11.24 15.19 11.29 15.24Z" fill="#000000" fill-opacity="0.400000" fill-rule="nonzero"/>
</svg>
