<svg width="16.000000" height="16.000000" viewBox="0 0 16 16" fill="none" xmlns="http://www.w3.org/2000/svg" xmlns:xlink="http://www.w3.org/1999/xlink">
	<desc>
			Created with Pixso.
	</desc>
	<defs>
		<clipPath id="clip635_16018">
			<rect id="clock_fill" width="16.000000" height="16.000000" fill="white" fill-opacity="0"/>
		</clipPath>
	</defs>
	<g clip-path="url(#clip635_16018)">
		<path id="path" d="M8 8L8 1.33C7.89 1.33 7.78 1.33 7.67 1.34C7.56 1.34 7.45 1.35 7.34 1.36C7.23 1.37 7.12 1.38 7.02 1.4C6.91 1.42 6.8 1.44 6.69 1.46C6.59 1.48 6.48 1.5 6.38 1.53C6.27 1.55 6.16 1.58 6.06 1.62C5.96 1.65 5.85 1.68 5.75 1.72C5.65 1.75 5.54 1.79 5.44 1.84C5.34 1.88 5.24 1.92 5.14 1.97C5.05 2.02 4.95 2.06 4.85 2.12C4.76 2.17 4.66 2.22 4.57 2.28C4.47 2.33 4.38 2.39 4.29 2.45C4.2 2.51 4.11 2.58 4.02 2.64C3.94 2.71 3.85 2.77 3.77 2.84C3.68 2.91 3.6 2.98 3.52 3.06C3.44 3.13 3.36 3.2 3.28 3.28C3.2 3.36 3.13 3.44 3.06 3.52C2.98 3.6 2.91 3.68 2.84 3.77C2.77 3.85 2.71 3.94 2.64 4.02C2.58 4.11 2.51 4.2 2.45 4.29C2.39 4.38 2.33 4.47 2.28 4.57C2.22 4.66 2.17 4.76 2.12 4.85C2.06 4.95 2.02 5.05 1.97 5.14C1.92 5.24 1.88 5.34 1.84 5.44C1.79 5.54 1.75 5.65 1.72 5.75C1.68 5.85 1.65 5.96 1.62 6.06C1.58 6.16 1.55 6.27 1.53 6.38C1.5 6.48 1.48 6.59 1.46 6.69C1.44 6.8 1.42 6.91 1.4 7.02C1.38 7.12 1.37 7.23 1.36 7.34C1.35 7.45 1.34 7.56 1.34 7.67C1.33 7.78 1.33 7.89 1.33 8C1.33 8.1 1.33 8.21 1.34 8.32C1.34 8.43 1.35 8.54 1.36 8.65C1.37 8.76 1.38 8.87 1.4 8.97C1.42 9.08 1.44 9.19 1.46 9.3C1.48 9.4 1.5 9.51 1.53 9.62C1.55 9.72 1.58 9.83 1.62 9.93C1.65 10.04 1.68 10.14 1.72 10.24C1.75 10.34 1.79 10.45 1.84 10.55C1.88 10.65 1.92 10.75 1.97 10.85C2.02 10.94 2.06 11.04 2.12 11.14C2.17 11.23 2.22 11.33 2.28 11.42C2.33 11.52 2.39 11.61 2.45 11.7C2.51 11.79 2.58 11.88 2.64 11.97C2.71 12.05 2.77 12.14 2.84 12.22C2.91 12.31 2.98 12.39 3.06 12.47C3.13 12.55 3.2 12.63 3.28 12.71C3.36 12.79 3.44 12.86 3.52 12.93C3.6 13.01 3.68 13.08 3.77 13.15C3.85 13.22 3.94 13.29 4.02 13.35C4.11 13.41 4.2 13.48 4.29 13.54C4.38 13.6 4.47 13.66 4.57 13.71C4.66 13.77 4.76 13.82 4.85 13.87C4.95 13.93 5.05 13.98 5.14 14.02C5.24 14.07 5.34 14.11 5.44 14.15C5.54 14.2 5.65 14.24 5.75 14.27C5.85 14.31 5.96 14.34 6.06 14.37C6.16 14.41 6.27 14.44 6.38 14.46C6.48 14.49 6.59 14.51 6.69 14.53C6.8 14.56 6.91 14.57 7.02 14.59C7.12 14.61 7.23 14.62 7.34 14.63C7.45 14.64 7.56 14.65 7.67 14.65C7.78 14.66 7.89 14.66 8 14.66C8.1 14.66 8.21 14.66 8.32 14.65C8.43 14.65 8.54 14.64 8.65 14.63C8.76 14.62 8.87 14.61 8.97 14.59C9.08 14.57 9.19 14.56 9.3 14.53C9.4 14.51 9.51 14.49 9.61 14.46C9.72 14.44 9.83 14.41 9.93 14.37C10.03 14.34 10.14 14.31 10.24 14.27C10.34 14.24 10.45 14.2 10.55 14.15C10.65 14.11 10.75 14.07 10.85 14.02C10.94 13.98 11.04 13.93 11.14 13.87C11.23 13.82 11.33 13.77 11.42 13.71C11.52 13.66 11.61 13.6 11.7 13.54C11.79 13.48 11.88 13.41 11.97 13.35C12.05 13.29 12.14 13.22 12.22 13.15C12.31 13.08 12.39 13.01 12.47 12.93C12.55 12.86 12.63 12.79 12.71 12.71C12.79 12.63 12.86 12.55 12.93 12.47C13.01 12.39 13.08 12.31 13.15 12.22C13.22 12.14 13.28 12.05 13.35 11.97C13.41 11.88 13.48 11.79 13.54 11.7C13.6 11.61 13.66 11.52 13.71 11.42C13.77 11.33 13.82 11.23 13.87 11.14C13.93 11.04 13.98 10.94 14.02 10.85C14.07 10.75 14.11 10.65 14.15 10.55C14.2 10.45 14.24 10.34 14.27 10.24C14.31 10.14 14.34 10.04 14.37 9.93C14.41 9.83 14.44 9.72 14.46 9.62C14.49 9.51 14.51 9.4 14.53 9.3C14.55 9.19 14.57 9.08 14.59 8.97C14.61 8.87 14.62 8.76 14.63 8.65C14.64 8.54 14.65 8.43 14.65 8.32C14.66 8.21 14.66 8.1 14.66 8L8 8Z" fill="#0A59F7" fill-opacity="1.000000" fill-rule="nonzero"/>
		<path id="path" d="M9 1.41L9 7L14.58 7C14.55 6.82 14.52 6.65 14.48 6.48C14.44 6.31 14.39 6.14 14.34 5.97C14.28 5.8 14.22 5.63 14.16 5.47C14.09 5.31 14.02 5.15 13.94 4.99C13.86 4.83 13.77 4.68 13.68 4.53C13.59 4.38 13.49 4.23 13.39 4.09C13.29 3.95 13.18 3.81 13.06 3.67C12.95 3.54 12.83 3.41 12.7 3.29C12.58 3.16 12.45 3.04 12.32 2.93C12.18 2.81 12.04 2.7 11.9 2.6C11.76 2.5 11.61 2.4 11.46 2.31C11.31 2.22 11.16 2.13 11 2.05C10.84 1.97 10.68 1.9 10.52 1.83C10.36 1.77 10.19 1.71 10.02 1.65C9.85 1.6 9.69 1.55 9.51 1.51C9.34 1.47 9.17 1.44 9 1.41Z" fill="#0A59F7" fill-opacity="1.000000" fill-rule="nonzero"/>
	</g>
</svg>
