<svg width="16.000000" height="16.000000" viewBox="0 0 16 16" fill="none" xmlns="http://www.w3.org/2000/svg" xmlns:xlink="http://www.w3.org/1999/xlink">
	<desc>
			Created with Pixso.
	</desc>
	<defs>
		<clipPath id="clip635_16010">
			<rect id="externaldrive_fill_3" width="16.000000" height="16.000000" fill="white" fill-opacity="0"/>
		</clipPath>
	</defs>
	<g clip-path="url(#clip635_16010)">
		<g opacity="0.000000">
			<rect id="rect" width="16.000000" height="16.000000" fill="#000000" fill-opacity="1.000000"/>
		</g>
		<mask id="mask635_16006" mask-type="alpha" maskUnits="userSpaceOnUse" x="0.000000" y="0.000000" width="16.000000" height="16.000000">
			<rect id="rect" width="16.000000" height="16.000000" fill="#FFFFFF" fill-opacity="1.000000"/>
			<path id="path" d="M3 3.66C3 3.43 3.08 3.23 3.24 3.07C3.4 2.91 3.6 2.83 3.83 2.83C4.06 2.83 4.25 2.91 4.42 3.07C4.59 3.23 4.67 3.43 4.67 3.66C4.67 3.89 4.59 4.09 4.42 4.25C4.25 4.41 4.06 4.49 3.83 4.49C3.6 4.49 3.4 4.41 3.24 4.25C3.08 4.09 3 3.89 3 3.66ZM3 8C3 7.76 3.08 7.56 3.24 7.4C3.4 7.24 3.6 7.16 3.83 7.16C4.06 7.16 4.25 7.24 4.42 7.4C4.59 7.56 4.67 7.76 4.67 8C4.67 8.23 4.59 8.43 4.42 8.59C4.25 8.75 4.06 8.83 3.83 8.83C3.6 8.83 3.4 8.75 3.24 8.59C3.08 8.43 3 8.23 3 8ZM3 12.33C3 12.1 3.08 11.9 3.24 11.74C3.4 11.58 3.6 11.5 3.83 11.5C4.06 11.5 4.25 11.58 4.42 11.74C4.59 11.9 4.67 12.1 4.67 12.33C4.67 12.56 4.59 12.76 4.42 12.92C4.25 13.08 4.06 13.16 3.83 13.16C3.6 13.16 3.4 13.08 3.24 12.92C3.08 12.76 3 12.56 3 12.33Z" fill="#000000" fill-opacity="1.000000" fill-rule="nonzero"/>
		</mask>
		<g mask="url(#mask635_16006)">
			<path id="path" d="M3.5 1.83C3.17 1.83 2.86 1.92 2.58 2.08C2.3 2.25 2.07 2.47 1.91 2.75C1.74 3.02 1.66 3.33 1.66 3.66C1.66 3.99 1.74 4.3 1.91 4.58C2.07 4.86 2.3 5.08 2.58 5.25C2.86 5.42 3.17 5.5 3.5 5.5L12.49 5.5C12.82 5.5 13.13 5.42 13.41 5.25C13.69 5.08 13.92 4.86 14.08 4.58C14.25 4.3 14.33 3.99 14.33 3.66C14.33 3.33 14.25 3.02 14.08 2.75C13.92 2.47 13.69 2.25 13.41 2.08C13.13 1.92 12.82 1.83 12.49 1.83L3.5 1.83ZM3.5 6.15C3.17 6.15 2.86 6.24 2.58 6.4C2.3 6.57 2.07 6.79 1.91 7.08C1.74 7.36 1.66 7.67 1.66 8C1.66 8.32 1.74 8.63 1.91 8.91C2.07 9.2 2.3 9.42 2.58 9.59C2.86 9.75 3.17 9.83 3.5 9.83L12.49 9.83C12.82 9.83 13.13 9.75 13.41 9.59C13.69 9.42 13.92 9.2 14.08 8.91C14.25 8.63 14.33 8.32 14.33 8C14.33 7.67 14.25 7.36 14.08 7.08C13.92 6.79 13.69 6.57 13.41 6.4C13.13 6.24 12.82 6.15 12.49 6.15L3.5 6.15ZM3.5 10.48C3.17 10.48 2.86 10.56 2.58 10.72C2.3 10.89 2.07 11.11 1.91 11.39C1.74 11.68 1.66 11.99 1.66 12.31C1.66 12.64 1.74 12.95 1.91 13.23C2.07 13.52 2.3 13.74 2.58 13.91C2.86 14.07 3.17 14.15 3.5 14.15L12.49 14.15C12.82 14.15 13.13 14.07 13.41 13.91C13.69 13.74 13.92 13.52 14.08 13.23C14.25 12.95 14.33 12.64 14.33 12.31C14.33 11.99 14.25 11.68 14.08 11.39C13.92 11.11 13.69 10.89 13.41 10.72C13.13 10.56 12.82 10.48 12.49 10.48L3.5 10.48Z" fill="#0A59F7" fill-opacity="1.000000" fill-rule="nonzero"/>
		</g>
	</g>
</svg>
