<svg width="16.000000" height="16.000000" viewBox="0 0 16 16" fill="none" xmlns="http://www.w3.org/2000/svg" xmlns:xlink="http://www.w3.org/1999/xlink">
	<desc>
			Created with Pixso.
	</desc>
	<defs>
		<clipPath id="clip635_15996">
			<rect id="clock_fill" width="16.000000" height="16.000000" fill="white" fill-opacity="0"/>
		</clipPath>
	</defs>
	<g clip-path="url(#clip635_15996)">
		<path id="path" d="M8 0.79C4.02 0.79 0.8 4.02 0.8 8C0.8 11.97 4.02 15.19 8 15.19C11.97 15.19 15.2 11.97 15.2 8C15.2 4.02 11.97 0.79 8 0.79ZM5.62 10.56L4.94 10.56L4.94 5.43L5.62 5.43L5.62 10.56ZM10.92 9C10.83 9.3 10.71 9.55 10.57 9.75C10.42 9.95 10.27 10.1 10.1 10.21C9.93 10.33 9.73 10.41 9.49 10.47C9.25 10.53 8.97 10.56 8.66 10.56L6.81 10.56L6.81 5.43L8.58 5.43C8.98 5.43 9.28 5.45 9.49 5.5C9.79 5.57 10.04 5.69 10.24 5.87C10.52 6.1 10.72 6.39 10.85 6.75C10.99 7.1 11.05 7.51 11.05 7.97C11.05 8.36 11.01 8.7 10.92 9Z" fill="#0A59F7" fill-opacity="1.000000" fill-rule="nonzero"/>
		<path id="path" d="M9.45 6.14C9.27 6.07 8.97 6.04 8.57 6.04L7.49 6.04L7.49 9.95L8.59 9.95C8.92 9.95 9.19 9.92 9.38 9.86C9.57 9.8 9.73 9.71 9.84 9.59C10 9.43 10.13 9.22 10.22 8.95C10.31 8.67 10.35 8.34 10.35 7.96C10.35 7.42 10.27 7.01 10.09 6.72C9.91 6.43 9.7 6.24 9.45 6.14Z" fill="#0A59F7" fill-opacity="1.000000" fill-rule="nonzero"/>
	</g>
</svg>
