<svg width="16.000000" height="16.000000" viewBox="0 0 16 16" fill="none" xmlns="http://www.w3.org/2000/svg" xmlns:xlink="http://www.w3.org/1999/xlink">
	<desc>
			Created with Pixso.
	</desc>
	<defs>
		<clipPath id="clip635_15986">
			<rect id="clock_fill" width="16.000000" height="16.000000" fill="white" fill-opacity="0"/>
		</clipPath>
	</defs>
	<g clip-path="url(#clip635_15986)">
		<path id="path" d="M5.91 7.3L4.53 7.3L4.53 8.69L5.91 8.69L5.91 7.3ZM8.69 7.3L7.3 7.3L7.3 8.69L8.69 8.69L8.69 7.3ZM11.46 7.3L10.08 7.3L10.08 8.69L11.46 8.69L11.46 7.3ZM12.85 2.45L12.16 2.45L12.16 1.06L10.77 1.06L10.77 2.45L5.22 2.45L5.22 1.06L3.83 1.06L3.83 2.45L3.14 2.45C2.37 2.45 1.76 3.07 1.76 3.83L1.75 13.54C1.75 14.31 2.37 14.93 3.14 14.93L12.85 14.93C13.61 14.93 14.24 14.31 14.24 13.54L14.24 3.83C14.24 3.07 13.61 2.45 12.85 2.45ZM12.85 13.54L3.14 13.54L3.14 5.91L12.85 5.91L12.85 13.54Z" fill="#0A59F7" fill-opacity="1.000000" fill-rule="nonzero"/>
		<rect id="矩形 3533" x="3.000000" y="10.500000" width="10.000000" height="4.000000" fill="#0A59F7" fill-opacity="1.000000"/>
	</g>
</svg>
