<svg width="16.000000" height="16.000000" viewBox="0 0 16 16" fill="none" xmlns="http://www.w3.org/2000/svg" xmlns:xlink="http://www.w3.org/1999/xlink">
	<desc>
			Created with Pixso.
	</desc>
	<defs>
		<clipPath id="clip635_16034">
			<rect id="clock_fill" width="16.000000" height="16.000000" fill="white" fill-opacity="0"/>
		</clipPath>
	</defs>
	<g clip-path="url(#clip635_16034)">
		<path id="path" d="M9.29 1.33L13.33 1.33C13.37 1.33 13.42 1.33 13.46 1.34C13.5 1.35 13.54 1.36 13.58 1.38C13.62 1.4 13.66 1.42 13.7 1.44C13.74 1.47 13.77 1.49 13.8 1.52C13.83 1.55 13.86 1.59 13.88 1.62C13.91 1.66 13.93 1.7 13.94 1.74C13.96 1.78 13.97 1.82 13.98 1.87C13.99 1.91 14 1.95 14 2L14 14C14 14.04 13.99 14.08 13.98 14.13C13.97 14.17 13.96 14.21 13.94 14.25C13.93 14.29 13.91 14.33 13.88 14.37C13.86 14.4 13.83 14.44 13.8 14.47C13.77 14.5 13.74 14.53 13.7 14.55C13.66 14.57 13.62 14.59 13.58 14.61C13.54 14.63 13.5 14.64 13.46 14.65C13.42 14.66 13.37 14.66 13.33 14.66L2.66 14.66C2.62 14.66 2.57 14.66 2.53 14.65C2.49 14.64 2.45 14.63 2.41 14.61C2.37 14.59 2.33 14.57 2.29 14.55C2.25 14.53 2.22 14.5 2.19 14.47C2.16 14.44 2.13 14.4 2.11 14.37C2.08 14.33 2.06 14.29 2.05 14.25C2.03 14.21 2.02 14.17 2.01 14.13C2 14.08 2 14.04 2 14L2 8.63C2.21 8.65 2.44 8.66 2.66 8.66C6.34 8.66 9.33 5.68 9.33 2C9.33 1.77 9.32 1.55 9.29 1.33ZM10 10.66L10 12L11.33 12L11.33 10.66L10 10.66ZM7.95 1.33C7.97 1.43 7.98 1.53 7.98 1.63C7.99 1.73 7.99 1.83 8 1.93C8 2.04 7.99 2.14 7.99 2.24C7.99 2.34 7.98 2.44 7.97 2.54C7.96 2.64 7.94 2.74 7.93 2.84C7.91 2.94 7.89 3.04 7.87 3.14C7.85 3.24 7.83 3.34 7.8 3.43C7.77 3.53 7.74 3.63 7.71 3.72C7.68 3.82 7.64 3.91 7.6 4.01C7.56 4.1 7.52 4.19 7.48 4.29C7.44 4.38 7.39 4.47 7.34 4.56C7.29 4.64 7.24 4.73 7.19 4.82C7.13 4.9 7.08 4.99 7.02 5.07C6.96 5.15 6.9 5.23 6.84 5.31C6.77 5.39 6.71 5.47 6.64 5.55C6.57 5.62 6.51 5.7 6.43 5.77C6.36 5.84 6.29 5.91 6.21 5.98C6.14 6.04 6.06 6.11 5.98 6.17C5.9 6.23 5.82 6.29 5.74 6.35C5.65 6.41 5.57 6.47 5.48 6.52C5.4 6.57 5.31 6.63 5.22 6.67C5.13 6.72 5.04 6.77 4.95 6.81C4.86 6.86 4.77 6.9 4.67 6.93C4.58 6.97 4.49 7.01 4.39 7.04C4.29 7.07 4.2 7.1 4.1 7.13C4 7.16 3.9 7.18 3.81 7.2C3.71 7.23 3.61 7.25 3.51 7.26C3.41 7.28 3.31 7.29 3.21 7.3C3.11 7.31 3.01 7.32 2.9 7.32C2.8 7.33 2.7 7.33 2.6 7.33C2.5 7.33 2.4 7.32 2.3 7.32C2.2 7.31 2.1 7.3 2 7.29L2 2C2 1.95 2 1.91 2.01 1.87C2.02 1.82 2.03 1.78 2.05 1.74C2.06 1.7 2.08 1.66 2.11 1.62C2.13 1.59 2.16 1.55 2.19 1.52C2.22 1.49 2.25 1.47 2.29 1.44C2.33 1.42 2.37 1.4 2.41 1.38C2.45 1.36 2.49 1.35 2.53 1.34C2.57 1.33 2.62 1.33 2.66 1.33L7.95 1.33Z" fill="#0A59F7" fill-opacity="1.000000" fill-rule="nonzero"/>
	</g>
</svg>
