<svg width="16.000000" height="16.000000" viewBox="0 0 16 16" fill="none" xmlns="http://www.w3.org/2000/svg" xmlns:xlink="http://www.w3.org/1999/xlink">
	<desc>
			Created with Pixso.
	</desc>
	<defs>
		<clipPath id="clip635_16027">
			<rect id="clock_fill" width="16.000000" height="16.000000" fill="white" fill-opacity="0"/>
		</clipPath>
	</defs>
	<g clip-path="url(#clip635_16027)">
		<path id="path" d="M2.14 5.83L7.21 8.28C7.36 8.35 7.45 8.49 7.44 8.65L7.44 13.99C7.45 14.1 7.4 14.2 7.33 14.28C7.25 14.36 7.15 14.4 7.04 14.4C6.98 14.4 6.93 14.39 6.87 14.36L1.8 11.91C1.66 11.84 1.57 11.69 1.57 11.53L1.57 6.2C1.57 5.97 1.75 5.79 1.97 5.79C2.03 5.79 2.09 5.8 2.14 5.83Z" fill="#0A59F7" fill-opacity="1.000000" fill-rule="nonzero"/>
		<path id="path" d="M8.14 1.64L13.54 4.05C13.68 4.12 13.77 4.26 13.78 4.42C13.78 4.58 13.69 4.73 13.54 4.8L8.16 7.38C8.05 7.43 7.93 7.43 7.82 7.38L2.39 4.79C2.25 4.72 2.15 4.57 2.16 4.41C2.16 4.25 2.25 4.11 2.4 4.04L7.82 1.64C7.93 1.59 8.04 1.59 8.14 1.64Z" fill="#0A59F7" fill-opacity="1.000000" fill-rule="nonzero"/>
		<path id="path" d="M14.37 6.2L14.37 11.53C14.37 11.69 14.28 11.84 14.14 11.91L9.08 14.35C8.99 14.4 8.87 14.4 8.77 14.36C8.67 14.33 8.59 14.25 8.55 14.15C8.53 14.1 8.51 14.04 8.51 13.97L8.51 8.65C8.51 8.49 8.6 8.34 8.74 8.28L13.8 5.83C13.9 5.78 14.01 5.77 14.11 5.81C14.21 5.85 14.29 5.93 14.33 6.02C14.36 6.08 14.37 6.14 14.37 6.2Z" fill="#0A59F7" fill-opacity="1.000000" fill-rule="nonzero"/>
	</g>
</svg>
