<svg width="16.000000" height="16.000000" viewBox="0 0 16 16" fill="none" xmlns="http://www.w3.org/2000/svg" xmlns:xlink="http://www.w3.org/1999/xlink">
	<desc>
			Created with Pixso.
	</desc>
	<defs>
		<clipPath id="clip635_15982">
			<rect id="square_and_pencil" width="16.000000" height="16.000000" fill="white" fill-opacity="0"/>
		</clipPath>
	</defs>
	<g clip-path="url(#clip635_15982)">
		<g opacity="0.000000">
			<rect id="rect" width="16.000000" height="16.000000" fill="#000000" fill-opacity="1.000000"/>
		</g>
		<mask id="mask635_15976" mask-type="alpha" maskUnits="userSpaceOnUse" x="0.000000" y="0.000000" width="16.000000" height="16.000000">
			<rect id="rect" width="16.000000" height="16.000000" fill="#FFFFFF" fill-opacity="1.000000"/>
			<path id="path" d="M15.57 0.45C15.43 0.31 15.26 0.2 15.08 0.12C14.89 0.05 14.7 0.02 14.5 0.02C14.29 0.02 14.09 0.05 13.91 0.12C13.72 0.2 13.56 0.31 13.42 0.45L7.07 6.81C6.97 6.91 6.9 7 6.85 7.1L5.94 8.72C5.85 8.89 5.81 9.06 5.81 9.24C5.81 9.41 5.85 9.56 5.95 9.7C6.03 9.86 6.15 9.98 6.31 10.06C6.46 10.16 6.62 10.21 6.8 10.21C6.96 10.21 7.11 10.16 7.26 10.08L8.9 9.14C8.99 9.1 9.09 9.03 9.2 8.93L15.57 2.58C15.85 2.27 16 1.92 16 1.51C16 1.1 15.85 0.75 15.57 0.45Z" fill="#000000" fill-opacity="1.000000" fill-rule="nonzero"/>
		</mask>
		<g mask="url(#mask635_15976)">
			<path id="path" d="M11.74 14.4C12.19 14.4 12.61 14.28 12.99 14.06C13.37 13.84 13.68 13.53 13.9 13.15C14.12 12.77 14.24 12.35 14.24 11.9L14.24 4.24C14.24 3.79 14.12 3.37 13.9 2.99C13.68 2.61 13.37 2.3 12.99 2.08C12.61 1.85 12.19 1.74 11.74 1.74L4.08 1.74C3.62 1.74 3.2 1.85 2.82 2.08C2.43 2.3 2.12 2.61 1.9 2.99C1.68 3.37 1.57 3.79 1.57 4.24L1.57 11.9C1.57 12.35 1.68 12.77 1.9 13.15C2.12 13.53 2.43 13.84 2.82 14.06C3.2 14.28 3.62 14.4 4.08 14.4L11.74 14.4ZM11.74 2.74C12.14 2.74 12.5 2.88 12.8 3.18C13.1 3.47 13.25 3.82 13.25 4.24L13.25 11.89C13.25 12.3 13.1 12.65 12.8 12.95C12.5 13.24 12.14 13.39 11.74 13.39L4.08 13.39C3.66 13.39 3.31 13.24 3.02 12.95C2.72 12.65 2.58 12.3 2.58 11.89L2.58 4.24C2.58 3.82 2.72 3.47 3.02 3.18C3.31 2.88 3.66 2.74 4.08 2.74L11.74 2.74Z" fill="#000000" fill-opacity="0.400000" fill-rule="nonzero"/>
		</g>
		<path id="path" d="M6.6 9.13C6.57 9.19 6.56 9.24 6.58 9.29C6.6 9.35 6.65 9.38 6.7 9.4C6.77 9.42 6.82 9.42 6.88 9.4L8.07 8.73C8.16 8.68 8.24 8.63 8.31 8.57L8.42 8.5L7.52 7.59L7.42 7.73C7.39 7.78 7.37 7.82 7.34 7.84C7.33 7.87 7.31 7.9 7.28 7.94L6.6 9.13ZM15.02 0.98C14.88 0.84 14.72 0.77 14.52 0.77C14.31 0.77 14.15 0.84 14.02 0.98L8.02 6.98C7.98 7.02 7.88 7.14 7.83 7.19L8.81 8.17C8.87 8.14 8.93 8.08 9.02 8L15.02 2C15.17 1.85 15.25 1.69 15.25 1.5C15.25 1.29 15.17 1.12 15.02 0.98Z" fill="#000000" fill-opacity="0.400000" fill-rule="nonzero"/>
	</g>
</svg>
