<svg width="16.000000" height="16.000000" viewBox="0 0 16 16" fill="none" xmlns="http://www.w3.org/2000/svg" xmlns:xlink="http://www.w3.org/1999/xlink">
	<desc>
			Created with Pixso.
	</desc>
	<defs/>
	<circle id="椭圆 51" cx="8.000000" cy="8.000000" r="8.000000" fill="#0A59F7" fill-opacity="0.400000"/>
	<path id="2" d="M11.26 11.95L7.44 11.95L9.28 9.91Q10.24 8.87 10.62 8.18Q10.81 7.83 10.91 7.45Q11 7.1 11 6.72Q11 5.93 10.66 5.35Q10.49 5.04 10.24 4.82Q10.02 4.61 9.73 4.46Q9.7 4.44 9.67 4.43Q9.1 4.15 8.39 4.15Q7.86 4.15 7.38 4.31Q6.98 4.45 6.61 4.7Q6.34 4.89 6.13 5.13Q5.72 5.6 5.53 6.26L6.57 6.85Q6.77 6.14 7.23 5.74Q7.49 5.51 7.8 5.41Q8.03 5.33 8.29 5.33Q8.69 5.33 8.99 5.5Q9.13 5.58 9.25 5.71Q9.28 5.74 9.31 5.77Q9.63 6.14 9.63 6.78Q9.63 7.05 9.56 7.3Q9.49 7.58 9.33 7.83Q9.04 8.32 8.28 9.15L5.51 12.26L5.51 13.09L11.26 13.09L11.26 11.95Z" fill="#FFFFFF" fill-opacity="1.000000" fill-rule="evenodd"/>
</svg>
