<svg width="16.000000" height="16.000000" viewBox="0 0 16 16" fill="none" xmlns="http://www.w3.org/2000/svg" xmlns:xlink="http://www.w3.org/1999/xlink">
	<desc>
			Created with Pixso.
	</desc>
	<defs/>
	<circle id="椭圆 51" cx="8.000000" cy="8.000000" r="8.000000" fill="#0A59F7" fill-opacity="0.400000"/>
	<path id="3" d="M10.85 11.92Q11.17 11.37 11.17 10.62Q11.17 9.82 10.8 9.28Q10.79 9.26 10.78 9.25Q10.77 9.22 10.75 9.2Q10.36 8.69 9.63 8.44Q10.16 8.21 10.46 7.8Q10.51 7.74 10.56 7.67Q10.6 7.6 10.63 7.52Q10.86 7.07 10.86 6.5Q10.86 5.91 10.63 5.44Q10.59 5.36 10.54 5.28Q10.43 5.09 10.29 4.94Q10.01 4.64 9.63 4.45Q9.04 4.15 8.27 4.15Q7.45 4.15 6.8 4.49Q6.66 4.57 6.52 4.66Q6.38 4.76 6.25 4.88Q5.73 5.36 5.49 6.15L6.51 6.74Q6.72 6.05 7.15 5.68Q7.29 5.56 7.45 5.48Q7.78 5.32 8.19 5.32Q8.63 5.32 8.94 5.51Q9.04 5.57 9.13 5.65Q9.23 5.74 9.3 5.85Q9.5 6.15 9.5 6.56Q9.5 6.9 9.36 7.17Q9.26 7.39 9.06 7.57Q8.63 7.97 7.82 7.97L7.37 7.97L7.37 9.1L7.72 9.1Q9.11 9.1 9.57 9.75Q9.81 10.08 9.81 10.57Q9.81 11.08 9.57 11.43Q9.49 11.56 9.37 11.67Q9.23 11.79 9.08 11.88Q8.73 12.07 8.27 12.07Q8 12.07 7.75 12Q7.43 11.92 7.14 11.72Q7.06 11.66 6.99 11.6Q6.59 11.25 6.4 10.68L5.37 11.27Q5.55 11.86 5.93 12.28Q6.16 12.53 6.47 12.73Q6.76 12.9 7.06 13.01Q7.63 13.22 8.28 13.22Q9.05 13.22 9.69 12.94Q9.71 12.93 9.74 12.92Q10.14 12.73 10.44 12.44Q10.63 12.25 10.78 12.03Q10.82 11.98 10.85 11.92Z" fill="#FFFFFF" fill-opacity="1.000000" fill-rule="evenodd"/>
</svg>
