<svg width="24.000000" height="24.000000" viewBox="0 0 24 24" fill="none" xmlns="http://www.w3.org/2000/svg" xmlns:xlink="http://www.w3.org/1999/xlink">
	<desc>
			Created with Pixso.
	</desc>
	<defs>
		<clipPath id="clip618_14065">
			<rect id="book_1" width="24.000000" height="24.000000" fill="white" fill-opacity="0"/>
		</clipPath>
	</defs>
	<g clip-path="url(#clip618_14065)">
		<g opacity="0.000000">
			<rect id="rect" width="24.000000" height="24.000000" fill="#000000" fill-opacity="1.000000"/>
		</g>
		<path id="path" d="M5.59 1.85C5.13 1.85 4.73 2.01 4.39 2.35C4.05 2.68 3.89 3.09 3.89 3.55L3.89 19.8C3.89 20.29 4.01 20.71 4.27 21.07C4.53 21.42 4.84 21.68 5.21 21.85C5.57 22.04 5.92 22.12 6.26 22.12L19.87 22.12C19.93 22.12 19.99 22.1 20.03 22.07C20.07 22.03 20.09 21.98 20.09 21.93C20.09 21.87 20.06 21.82 20.02 21.78C19.96 21.74 19.91 21.72 19.87 21.72L6.5 21.72C5.89 21.72 5.37 21.5 4.94 21.07C4.51 20.63 4.29 20.11 4.29 19.51C4.29 18.9 4.51 18.38 4.94 17.95C5.37 17.51 5.89 17.3 6.5 17.3L20.11 17.3L20.11 3.55C20.11 3.09 19.94 2.68 19.61 2.35C19.27 2.01 18.87 1.85 18.41 1.85L5.59 1.85ZM6.65 5.09C6.44 5.09 6.29 5 6.2 4.84C6.11 4.66 6.11 4.49 6.2 4.33C6.29 4.16 6.44 4.08 6.65 4.08L12.72 4.08C12.92 4.08 13.07 4.16 13.16 4.33C13.25 4.49 13.25 4.66 13.16 4.84C13.07 5 12.92 5.09 12.72 5.09L6.65 5.09ZM6.65 7.39C6.44 7.39 6.29 7.3 6.2 7.14C6.11 6.97 6.11 6.81 6.2 6.64C6.29 6.49 6.44 6.41 6.65 6.41L16.03 6.41C16.22 6.41 16.36 6.49 16.44 6.66C16.52 6.82 16.52 6.99 16.44 7.14C16.36 7.31 16.22 7.39 16.03 7.39L6.65 7.39Z" fill="#000000" fill-opacity="0.400000" fill-rule="nonzero"/>
		<path id="path" d="M19.85 21.18C19.8 20.96 19.75 20.75 19.7 20.54C19.64 20.09 19.61 19.69 19.61 19.33C19.61 19.02 19.63 18.71 19.68 18.43C19.72 18.14 19.78 17.9 19.85 17.7L6.53 17.7C6.05 17.7 5.63 17.88 5.29 18.23C4.95 18.56 4.78 18.98 4.78 19.45C4.78 19.93 4.95 20.35 5.29 20.68C5.63 21.02 6.05 21.18 6.53 21.18L19.85 21.18Z" fill="#000000" fill-opacity="0.400000" fill-rule="nonzero"/>
	</g>
</svg>
