<svg width="24.000000" height="24.000000" viewBox="0 0 24 24" fill="none" xmlns="http://www.w3.org/2000/svg" xmlns:xlink="http://www.w3.org/1999/xlink">
	<desc>
			Created with Pixso.
	</desc>
	<defs>
		<clipPath id="clip167_8945">
			<rect width="24.000000" height="24.000000" fill="white" fill-opacity="0"/>
		</clipPath>
		<linearGradient x1="11.926147" y1="0.783691" x2="11.926147" y2="22.783691" id="paint_linear_167_8985_0" gradientUnits="userSpaceOnUse">
			<stop stop-color="#F1D1A5"/>
			<stop offset="1.000000" stop-color="#E3AC58"/>
		</linearGradient>
	</defs>
	<g clip-path="url(#clip167_8945)">
		<g opacity="0.000000">
			<rect width="24.000000" height="24.000000" fill="#000000" fill-opacity="1.000000"/>
		</g>
		<path d="M11.92 0.78C18 0.78 22.92 5.7 22.92 11.78C22.92 17.85 18 22.78 11.92 22.78C5.85 22.78 0.92 17.85 0.92 11.78C0.92 5.7 5.85 0.78 11.92 0.78ZM6.14 9.02L3.61 15.78L6.27 15.78L6.67 14.38L9.63 14.38L10.05 15.78L12.77 15.78L11.37 12.04L8.41 10.33L9.1 12.68L7.27 12.68L8.03 10.11L6.14 9.02ZM12.77 12.85L12.77 15.78L16.63 15.78C16.95 15.78 17.29 15.74 17.65 15.67L12.77 12.85ZM16.63 7.33L12.77 7.33L12.77 11.71L15.44 13.25L15.44 9.3L16.09 9.3C16.77 9.3 17.25 9.47 17.54 9.8C17.83 10.13 17.98 10.75 17.98 11.65C17.98 12.33 17.91 12.82 17.78 13.13C17.65 13.43 17.47 13.64 17.24 13.77C17.1 13.84 16.88 13.9 16.61 13.92L18.89 15.24C19.05 15.13 19.21 15.01 19.35 14.88C19.72 14.54 20 14.12 20.21 13.63C20.41 13.13 20.52 12.43 20.52 11.52C20.52 10.95 20.45 10.4 20.31 9.89C20.17 9.37 19.95 8.92 19.64 8.53C19.34 8.14 18.95 7.85 18.48 7.64C18.01 7.43 17.39 7.33 16.63 7.33ZM9.61 7.33L6.77 7.33L6.49 8.08L10.82 10.58L9.61 7.33Z" fill="url(#paint_linear_167_8985_0)" fill-opacity="1.000000" fill-rule="nonzero"/>
	</g>
</svg>
