<svg width="16.000000" height="16.000000" viewBox="0 0 16 16" fill="none" xmlns="http://www.w3.org/2000/svg" xmlns:xlink="http://www.w3.org/1999/xlink">
	<desc>
			Created with Pixso.
	</desc>
	<defs>
		<clipPath id="clip1_1522">
			<rect width="16.000000" height="16.000000" fill="white" fill-opacity="0"/>
		</clipPath>
	</defs>
	<g clip-path="url(#clip1_1522)">
		<path d="M7.52 1.01L7.5 1C7.5 0.71 7.71 0.5 8 0.5C8.28 0.5 8.5 0.71 8.5 1L8.47 1.01L7.52 1.01ZM8.5 2L8.47 1.98L7.52 1.98L7.5 2C7.5 2.28 7.71 2.5 8 2.5C8.28 2.5 8.5 2.28 8.5 2ZM12.59 2.72L12.59 2.69C12.79 2.49 13.1 2.49 13.3 2.69C13.5 2.89 13.5 3.2 13.3 3.4L13.27 3.4L12.59 2.72ZM2.69 3.4L2.72 3.4L3.4 2.72L3.4 2.69C3.2 2.49 2.89 2.49 2.69 2.69C2.49 2.89 2.49 3.2 2.69 3.4ZM12.59 4.11L12.59 4.08L11.91 3.4L11.88 3.4C11.69 3.6 11.69 3.91 11.88 4.11C12.08 4.3 12.39 4.3 12.59 4.11ZM4.08 3.4L4.11 3.4C4.3 3.6 4.3 3.91 4.11 4.11C3.91 4.3 3.6 4.3 3.4 4.11L3.4 4.08L4.08 3.4ZM3.66 7.99C3.66 5.6 5.6 3.66 7.99 3.66C10.39 3.66 12.33 5.6 12.33 7.99C12.33 10.39 10.39 12.33 7.99 12.33C5.6 12.33 3.66 10.39 3.66 7.99ZM1.02 8.48L1 8.5C0.71 8.5 0.5 8.28 0.5 8C0.5 7.71 0.71 7.5 1 7.5L1.02 7.51L1.02 8.48ZM2 7.5L1.97 7.51L1.97 8.48L2 8.5C2.28 8.5 2.5 8.28 2.5 8C2.5 7.71 2.28 7.5 2 7.5ZM14.02 8.48L14 8.5C13.72 8.5 13.5 8.28 13.5 8C13.5 7.71 13.72 7.5 14 7.5L14.02 7.51L14.02 8.48ZM15 7.5L14.98 7.51L14.98 8.48L15 8.5C15.28 8.5 15.5 8.28 15.5 8C15.5 7.71 15.28 7.5 15 7.5ZM3.4 11.91L3.4 11.88C3.6 11.69 3.91 11.69 4.11 11.88C4.3 12.08 4.3 12.39 4.11 12.59L4.08 12.59L3.4 11.91ZM11.88 12.59L11.91 12.59L12.59 11.91L12.59 11.88C12.39 11.69 12.08 11.69 11.88 11.88C11.69 12.08 11.69 12.39 11.88 12.59ZM3.4 13.3L3.4 13.27L2.72 12.59L2.69 12.59C2.49 12.79 2.49 13.1 2.69 13.3C2.89 13.5 3.2 13.5 3.4 13.3ZM13.27 12.59L13.3 12.59C13.5 12.79 13.5 13.1 13.3 13.3C13.1 13.5 12.79 13.5 12.59 13.3L12.59 13.27L13.27 12.59ZM7.52 14.01L7.5 14C7.5 13.71 7.71 13.5 8 13.5C8.28 13.5 8.5 13.71 8.5 14L8.47 14.01L7.52 14.01ZM8.5 15L8.47 14.98L7.52 14.98L7.5 15C7.5 15.28 7.71 15.5 8 15.5C8.28 15.5 8.5 15.28 8.5 15Z" fill="#FFFFFF" fill-opacity="0" fill-rule="evenodd"/>
		<path d="M7.99 3.66C10.39 3.66 12.33 5.6 12.33 7.99C12.33 10.39 10.39 12.33 7.99 12.33C5.6 12.33 3.66 10.39 3.66 7.99C3.66 5.6 5.6 3.66 7.99 3.66ZM14 8L15 8M1 8L2 8M8 14L8 15M8 1L8 2M3.75 12.24L3.05 12.95M12.94 3.04L12.24 3.75M3.75 3.75L3.05 3.04M12.94 12.95L12.24 12.24" stroke="#F77C0A" stroke-opacity="1.000000" stroke-width="1.000000" stroke-linejoin="round" stroke-linecap="round"/>
	</g>
</svg>
