<svg width="24.000000" height="24.000000" viewBox="0 0 24 24" fill="none" xmlns="http://www.w3.org/2000/svg" xmlns:xlink="http://www.w3.org/1999/xlink">
	<desc>
			Created with Pixso.
	</desc>
	<defs>
		<clipPath id="clip1_1963">
			<rect width="24.000000" height="24.000000" fill="white" fill-opacity="0"/>
		</clipPath>
	</defs>
	<g clip-path="url(#clip1_1963)">
		<path d="M12 1C12.28 1 12.5 1.21 12.5 1.5L12.5 3C12.5 3.28 12.28 3.5 12 3.5C11.72 3.5 11.5 3.28 11.5 3L11.5 1.5C11.5 1.21 11.72 1 12 1ZM4.22 4.22C4.41 4.02 4.73 4.02 4.92 4.22L5.98 5.28C6.18 5.48 6.18 5.79 5.98 5.98C5.79 6.18 5.48 6.18 5.28 5.98L4.22 4.92C4.02 4.73 4.02 4.41 4.22 4.22ZM18.71 5.98L19.77 4.92C19.97 4.73 19.97 4.41 19.77 4.22C19.58 4.02 19.26 4.02 19.07 4.22L18.01 5.28C17.81 5.48 17.81 5.79 18.01 5.98C18.2 6.18 18.51 6.18 18.71 5.98ZM12 5C8.13 5 5 8.13 5 12C5 15.86 8.13 19 12 19C15.86 19 19 15.86 19 12C19 8.13 15.86 5 12 5ZM12 6C8.68 6 6 8.68 6 12C6 15.31 8.68 18 12 18C15.31 18 18 15.31 18 12C18 8.68 15.31 6 12 6ZM3 11.5L1.5 11.5C1.21 11.5 1 11.71 1 12C1 12.28 1.21 12.5 1.5 12.5L3 12.5C3.28 12.5 3.5 12.28 3.5 12C3.5 11.71 3.28 11.5 3 11.5ZM22.5 11.5L21 11.5C20.72 11.5 20.5 11.71 20.5 12C20.5 12.28 20.72 12.5 21 12.5L22.5 12.5C22.78 12.5 23 12.28 23 12C23 11.71 22.78 11.5 22.5 11.5ZM4.92 19.77L5.98 18.71C6.18 18.51 6.18 18.2 5.98 18.01C5.79 17.81 5.48 17.81 5.28 18.01L4.22 19.07C4.02 19.26 4.02 19.58 4.22 19.77C4.41 19.97 4.73 19.97 4.92 19.77ZM18.01 18.01C18.2 17.81 18.51 17.81 18.71 18.01L19.77 19.07C19.97 19.26 19.97 19.58 19.77 19.77C19.58 19.97 19.26 19.97 19.07 19.77L18.01 18.71C17.81 18.51 17.81 18.2 18.01 18.01ZM12 20.5C12.28 20.5 12.5 20.71 12.5 21L12.5 22.5C12.5 22.78 12.28 23 12 23C11.72 23 11.5 22.78 11.5 22.5L11.5 21C11.5 20.71 11.72 20.5 12 20.5Z" fill="#000000" fill-opacity="0.600000" fill-rule="evenodd"/>
	</g>
</svg>
