<svg width="24.000000" height="24.000000" viewBox="0 0 24 24" fill="none" xmlns="http://www.w3.org/2000/svg" xmlns:xlink="http://www.w3.org/1999/xlink">
	<desc>
			Created with Pixso.
	</desc>
	<defs>
		<clipPath id="clip1_1929">
			<rect width="24.000000" height="24.000000" fill="white" fill-opacity="0"/>
		</clipPath>
	</defs>
	<g opacity="0.900000">
		<g clip-path="url(#clip1_1929)">
			<path d="M19.56 3.66C19.76 3.66 19.94 3.74 20.09 3.88C21.16 4.96 21.99 6.2 22.57 7.59C23.15 9 23.45 10.46 23.45 12C23.45 13.51 23.15 14.98 22.57 16.38C21.99 17.79 21.17 19.03 20.11 20.11C19.96 20.25 19.79 20.33 19.58 20.33Q19.41 20.33 19.27 20.26Q19.15 20.21 19.06 20.11Q18.96 20.02 18.91 19.91Q18.83 19.76 18.83 19.58C18.82 19.37 18.9 19.2 19.06 19.05C19.98 18.11 20.7 17.03 21.2 15.82C21.7 14.59 21.96 13.32 21.96 12C21.96 10.65 21.7 9.37 21.2 8.16C20.7 6.94 19.97 5.87 19.03 4.93C18.89 4.79 18.82 4.62 18.82 4.41C18.82 4.2 18.89 4.03 19.03 3.88C19.17 3.74 19.35 3.66 19.56 3.66ZM10.8 18.08C10.64 18.33 10.42 18.52 10.15 18.65C9.89 18.77 9.62 18.82 9.34 18.78C9.04 18.74 8.78 18.63 8.54 18.45L5.11 15.65L2.5 15.65Q2.06 15.65 1.7 15.48L1.7 15.48Q1.38 15.34 1.12 15.07C0.74 14.68 0.55 14.22 0.55 13.67L0.55 10.38C0.55 9.84 0.74 9.38 1.12 9Q1.36 8.76 1.66 8.62Q2.04 8.45 2.5 8.45L5.11 8.45L8.54 5.63C8.76 5.44 9.02 5.33 9.31 5.29C9.59 5.27 9.87 5.32 10.15 5.45C10.42 5.56 10.64 5.74 10.8 6C10.96 6.25 11.04 6.53 11.04 6.83L11.04 17.25C11.04 17.55 10.96 17.83 10.8 18.08ZM16.94 6.41C16.79 6.26 16.62 6.19 16.42 6.19C16.2 6.19 16.03 6.26 15.89 6.41C15.74 6.55 15.67 6.72 15.67 6.94C15.67 7.14 15.74 7.32 15.89 7.45C16.48 8.05 16.94 8.74 17.27 9.54C17.59 10.33 17.76 11.15 17.76 12C17.76 12.84 17.6 13.66 17.28 14.44C16.96 15.21 16.5 15.9 15.91 16.51C15.75 16.65 15.67 16.83 15.67 17.04C15.67 17.24 15.75 17.42 15.91 17.57C16.05 17.73 16.23 17.81 16.44 17.81C16.64 17.81 16.82 17.73 16.97 17.57C17.7 16.83 18.27 15.98 18.67 15.02C19.07 14.06 19.27 13.05 19.27 12C19.27 10.94 19.07 9.93 18.67 8.95C18.27 7.99 17.69 7.14 16.94 6.41ZM9.55 6.83L5.64 9.93L2.5 9.93C2.36 9.93 2.25 9.98 2.17 10.07C2.08 10.15 2.04 10.26 2.04 10.38L2.04 13.67C2.04 13.8 2.08 13.91 2.17 14.01C2.25 14.11 2.36 14.16 2.5 14.16L5.64 14.16L9.48 17.28L9.55 6.83ZM13.57 8.88C13.77 8.89 13.95 8.97 14.11 9.12C14.47 9.5 14.76 9.95 14.98 10.45C15.18 10.95 15.29 11.48 15.29 12.02C15.29 12.56 15.18 13.09 14.96 13.59C14.74 14.09 14.44 14.54 14.06 14.92C13.92 15.08 13.74 15.16 13.54 15.16C13.32 15.16 13.15 15.08 13.01 14.92C12.86 14.78 12.79 14.6 12.79 14.4C12.79 14.19 12.86 14.01 13.01 13.87C13.26 13.62 13.45 13.34 13.58 13.03C13.71 12.71 13.78 12.36 13.78 12C13.78 11.64 13.71 11.31 13.58 11L13.57 10.99L13.57 10.99Q13.38 10.53 13.03 10.15C12.89 10 12.82 9.83 12.82 9.62C12.82 9.41 12.89 9.24 13.03 9.09C13.19 8.95 13.37 8.88 13.57 8.88Z" fill="#F77C0A" fill-opacity="1.000000" fill-rule="evenodd"/>
		</g>
	</g>
</svg>
