<svg width="24.000000" height="24.000000" viewBox="0 0 24 24" fill="none" xmlns="http://www.w3.org/2000/svg" xmlns:xlink="http://www.w3.org/1999/xlink">
	<desc>
			Created with Pixso.
	</desc>
	<defs>
		<clipPath id="clip1_1950">
			<rect width="24.000000" height="24.000000" fill="white" fill-opacity="0"/>
		</clipPath>
	</defs>
	<g clip-path="url(#clip1_1950)">
		<path d="M11.52 1.51L11.5 1.5C11.5 1.21 11.72 1 12 1C12.28 1 12.5 1.21 12.5 1.5L12.48 1.51L11.52 1.51ZM12.5 3L12.48 2.98L11.52 2.98L11.5 3C11.5 3.28 11.72 3.5 12 3.5C12.28 3.5 12.5 3.28 12.5 3ZM19.07 4.25L19.07 4.22C19.26 4.02 19.58 4.02 19.77 4.22C19.97 4.41 19.97 4.73 19.77 4.92L19.74 4.92L19.07 4.25ZM4.22 4.92L4.25 4.92L4.92 4.25L4.92 4.22C4.73 4.02 4.41 4.02 4.22 4.22C4.02 4.41 4.02 4.73 4.22 4.92ZM18.71 5.98L18.71 5.96L18.03 5.28L18.01 5.28C17.81 5.48 17.81 5.79 18.01 5.98C18.2 6.18 18.51 6.18 18.71 5.98ZM5.96 5.28L5.98 5.28C6.18 5.48 6.18 5.79 5.98 5.98C5.79 6.18 5.48 6.18 5.28 5.98L5.28 5.96L5.96 5.28ZM5.5 12C5.5 8.41 8.41 5.5 12 5.5C15.58 5.5 18.5 8.41 18.5 12C18.5 15.58 15.58 18.5 12 18.5C8.41 18.5 5.5 15.58 5.5 12ZM1.52 12.48L1.5 12.5C1.21 12.5 1 12.28 1 12C1 11.71 1.21 11.5 1.5 11.5L1.52 11.51L1.52 12.48ZM3 11.5L2.97 11.51L2.97 12.48L3 12.5C3.28 12.5 3.5 12.28 3.5 12C3.5 11.71 3.28 11.5 3 11.5ZM21.02 12.48L21 12.5C20.72 12.5 20.5 12.28 20.5 12C20.5 11.71 20.72 11.5 21 11.5L21.02 11.51L21.02 12.48ZM22.5 11.5L22.48 11.51L22.48 12.48L22.5 12.5C22.78 12.5 23 12.28 23 12C23 11.71 22.78 11.5 22.5 11.5ZM5.28 18.03L5.28 18.01C5.48 17.81 5.79 17.81 5.98 18.01C6.18 18.2 6.18 18.51 5.98 18.71L5.96 18.71L5.28 18.03ZM18.01 18.71L18.03 18.71L18.71 18.03L18.71 18.01C18.51 17.81 18.2 17.81 18.01 18.01C17.81 18.2 17.81 18.51 18.01 18.71ZM4.92 19.77L4.92 19.75L4.25 19.07L4.22 19.07C4.02 19.26 4.02 19.58 4.22 19.77C4.41 19.97 4.73 19.97 4.92 19.77ZM19.74 19.07L19.77 19.07C19.97 19.26 19.97 19.58 19.77 19.77C19.58 19.97 19.26 19.97 19.07 19.77L19.07 19.75L19.74 19.07ZM11.52 21.01L11.5 21C11.5 20.71 11.72 20.5 12 20.5C12.28 20.5 12.5 20.71 12.5 21L12.48 21.01L11.52 21.01ZM12.5 22.5L12.48 22.48L11.52 22.48L11.5 22.5C11.5 22.78 11.72 23 12 23C12.28 23 12.5 22.78 12.5 22.5Z" fill="#FFFFFF" fill-opacity="0" fill-rule="evenodd"/>
		<path d="M12 5.5C15.58 5.5 18.5 8.41 18.5 12C18.5 15.58 15.58 18.5 12 18.5C8.41 18.5 5.5 15.58 5.5 12C5.5 8.41 8.41 5.5 12 5.5ZM21 12L22.5 12M1.5 12L3 12M12 21L12 22.5M12 1.5L12 3M5.63 18.36L4.57 19.42M19.42 4.57L18.36 5.63M5.63 5.63L4.57 4.57M19.42 19.42L18.36 18.36" stroke="#F77C0A" stroke-opacity="1.000000" stroke-width="1.000000" stroke-linejoin="round" stroke-linecap="round"/>
	</g>
</svg>
