<svg width="24.000000" height="24.000000" viewBox="0 0 24 24" fill="none" xmlns="http://www.w3.org/2000/svg" xmlns:xlink="http://www.w3.org/1999/xlink">
	<desc>
			Created with Pixso.
	</desc>
	<defs>
		<clipPath id="clip1_1136">
			<rect width="24.000000" height="24.000000" fill="white" fill-opacity="0"/>
		</clipPath>
	</defs>
	<g clip-path="url(#clip1_1136)">
		<path d="M5.52 5.52C5.71 5.32 6.03 5.32 6.22 5.52L9.45 8.75L9.45 6.58C9.45 6.3 9.67 6.08 9.95 6.08C10.23 6.08 10.45 6.3 10.45 6.58L10.45 9.95C10.45 10.12 10.41 10.25 10.33 10.33C10.25 10.41 10.12 10.45 9.95 10.45L6.58 10.45C6.3 10.45 6.08 10.23 6.08 9.95C6.08 9.67 6.3 9.45 6.58 9.45L8.75 9.45L5.52 6.22C5.32 6.03 5.32 5.71 5.52 5.52ZM15.24 9.45L18.47 6.22C18.67 6.03 18.67 5.71 18.47 5.52C18.28 5.32 17.96 5.32 17.77 5.52L14.54 8.75L14.54 6.58C14.54 6.3 14.32 6.08 14.04 6.08C13.76 6.08 13.54 6.3 13.54 6.58L13.54 9.95C13.54 10.12 13.58 10.25 13.66 10.33C13.75 10.41 13.87 10.45 14.04 10.45L17.41 10.45C17.69 10.45 17.91 10.23 17.91 9.95C17.91 9.67 17.69 9.45 17.41 9.45L15.24 9.45ZM13.54 17.41L13.54 14.04C13.54 13.87 13.58 13.74 13.66 13.66C13.75 13.58 13.87 13.54 14.04 13.54L17.41 13.54C17.69 13.54 17.91 13.76 17.91 14.04C17.91 14.32 17.69 14.54 17.41 14.54L15.25 14.54L18.47 17.77C18.67 17.96 18.67 18.28 18.47 18.47C18.28 18.67 17.96 18.67 17.77 18.47L14.54 15.24L14.54 17.41C14.54 17.69 14.32 17.91 14.04 17.91C13.76 17.91 13.54 17.69 13.54 17.41ZM9.95 13.54L6.58 13.54C6.3 13.54 6.08 13.76 6.08 14.04C6.08 14.32 6.3 14.54 6.58 14.54L8.75 14.54L5.52 17.77C5.32 17.96 5.32 18.28 5.52 18.47C5.71 18.67 6.03 18.67 6.22 18.47L9.45 15.24L9.45 17.41C9.45 17.69 9.67 17.91 9.95 17.91C10.23 17.91 10.45 17.69 10.45 17.41L10.45 14.04C10.45 13.87 10.41 13.75 10.33 13.66C10.25 13.58 10.12 13.54 9.95 13.54Z" fill="#FFFFFF" fill-opacity="1.000000" fill-rule="evenodd"/>
	</g>
</svg>
