<svg width="24.000000" height="24.000000" viewBox="0 0 24 24" fill="none" xmlns="http://www.w3.org/2000/svg" xmlns:xlink="http://www.w3.org/1999/xlink">
	<desc>
			Created with Pixso.
	</desc>
	<defs>
		<clipPath id="clip1_1131">
			<rect width="24.000000" height="24.000000" fill="white" fill-opacity="0"/>
		</clipPath>
	</defs>
	<g clip-path="url(#clip1_1131)">
		<path d="M11.35 11.4C11.15 11.6 10.84 11.59 10.64 11.39L7 7.71L7 10.28C7 10.56 6.78 10.78 6.5 10.78C6.21 10.78 6 10.56 6 10.28L6 6.5C6 6.33 6.04 6.2 6.12 6.12C6.2 6.04 6.33 6 6.5 6L10.23 6C10.51 6 10.73 6.21 10.73 6.5C10.73 6.78 10.51 7 10.23 7L7.69 7L11.35 10.69C11.55 10.89 11.55 11.2 11.35 11.4ZM12.14 12.2C12.34 12.01 12.65 12.01 12.85 12.21L16.5 15.89L16.5 13.33C16.5 13.05 16.72 12.83 17 12.83C17.28 12.83 17.5 13.05 17.5 13.33L17.5 17.11C17.5 17.27 17.45 17.4 17.37 17.48C17.29 17.57 17.16 17.61 17 17.61L13.26 17.61C12.98 17.61 12.76 17.39 12.76 17.11C12.76 16.83 12.98 16.61 13.26 16.61L15.8 16.61L12.14 12.91C11.94 12.71 11.94 12.4 12.14 12.2Z" fill="#FFFFFF" fill-opacity="1.000000" fill-rule="evenodd"/>
	</g>
</svg>
