<svg width="24.000000" height="24.000000" viewBox="0 0 24 24" fill="none" xmlns="http://www.w3.org/2000/svg" xmlns:xlink="http://www.w3.org/1999/xlink">
	<desc>
			Created with Pixso.
	</desc>
	<defs>
		<clipPath id="clip1_1115">
			<rect width="24.000000" height="24.000000" fill="white" fill-opacity="0"/>
		</clipPath>
	</defs>
	<g clip-path="url(#clip1_1115)">
		<path d="M9.34 16.81L15.43 13.01C15.59 12.91 15.72 12.78 15.81 12.63C16.16 12.07 15.99 11.33 15.43 10.98L9.34 7.18C9.15 7.06 8.93 7 8.71 7C8.05 7 7.52 7.53 7.52 8.19L7.52 15.8C7.52 16.03 7.58 16.25 7.7 16.43C8.05 16.99 8.78 17.16 9.34 16.81ZM17.5 7C17.22 7 17 7.22 17 7.5L17 16.5C17 16.77 17.22 17 17.5 17C17.77 17 18 16.77 18 16.5L18 7.5C18 7.22 17.77 7 17.5 7Z" fill="#FFFFFF" fill-opacity="1.000000" fill-rule="evenodd"/>
	</g>
</svg>
