<svg width="60.000000" height="60.000000" viewBox="0 0 60 60" fill="none" xmlns="http://www.w3.org/2000/svg" xmlns:xlink="http://www.w3.org/1999/xlink">
	<desc>
			Created with Pixso.
	</desc>
	<defs/>
	<rect width="60.000000" height="60.000000" fill="#FFFFFF" fill-opacity="0"/>
	<path d="M24 18C22.89 18 22 18.89 22 20L22 40C22 41.1 22.89 42 24 42C25.1 42 26 41.1 26 40L26 20C26 18.89 25.1 18 24 18ZM36 18C34.89 18 34 18.89 34 20L34 40C34 41.1 34.89 42 36 42C37.1 42 38 41.1 38 40L38 20C38 18.89 37.1 18 36 18Z" fill="#FFFFFF" fill-opacity="1.000000" fill-rule="evenodd"/>
</svg>
