<svg width="16" height="16" viewBox="0 0 16 16" fill="none" xmlns="http://www.w3.org/2000/svg">
<g id="&#229;&#133;&#179;&#230;&#179;&#168;">
<path id="Vector" d="M10.7383 1.41667C12.7977 1.41667 14.575 2.89667 15.0973 4.969C15.1983 5.37 15.25 5.785 15.25 6.20667C15.25 7.15067 15.001 7.97233 14.546 8.8C14.4714 8.93557 14.3461 9.03597 14.1975 9.0791C14.0489 9.12223 13.8892 9.10457 13.7537 9.03C13.6181 8.95543 13.5177 8.83006 13.4746 8.68147C13.4314 8.53288 13.4491 8.37324 13.5237 8.23767C13.8907 7.57034 14.0833 6.93433 14.0833 6.20667C14.0833 5.88133 14.0433 5.562 13.966 5.25433C13.5707 3.686 12.247 2.58333 10.7383 2.58333C9.87233 2.58333 9.04833 2.94267 8.42067 3.59567C8.3663 3.65217 8.30109 3.69713 8.22895 3.72785C8.15681 3.75858 8.07922 3.77445 8.00081 3.77452C7.9224 3.77458 7.84478 3.75883 7.77259 3.72822C7.7004 3.6976 7.63513 3.65275 7.58067 3.59633C6.958 2.95133 6.115 2.58333 5.26167 2.58333C3.427 2.58333 1.91667 4.20067 1.91667 6.20667C1.91667 7.191 2.194 7.84267 2.90867 8.944C3.476 9.82467 4.46433 10.873 5.703 11.9787C6.05967 12.2967 6.41833 12.6033 6.769 12.892L7.103 13.1637L7.366 13.3727L7.618 13.5683L7.65633 13.5977C7.75733 13.6757 7.874 13.7157 7.99967 13.7157C8.12633 13.7157 8.243 13.6757 8.34867 13.5933L8.59533 13.4017L8.857 13.193L9.16267 12.944C9.2821 12.8456 9.43572 12.7988 9.58972 12.8137C9.74371 12.8286 9.88548 12.9041 9.98383 13.0235C10.0822 13.1429 10.1291 13.2966 10.1142 13.4505C10.0992 13.6045 10.0238 13.7463 9.90433 13.8447L9.58767 14.1027L9.20133 14.4093L9.05933 14.5187C8.7567 14.7547 8.38378 14.8826 8 14.882C7.64929 14.8828 7.30678 14.776 7.01867 14.576L6.90867 14.4943L6.64633 14.291L6.29733 14.0123C5.83091 13.6358 5.37378 13.2479 4.92633 12.849C3.61567 11.679 2.56533 10.565 1.92933 9.57733C1.102 8.30333 0.75 7.476 0.75 6.20667C0.75 3.57333 2.764 1.41667 5.26167 1.41667C6.23333 1.41667 7.185 1.759 7.95967 2.37L7.99867 2.40133L8.041 2.36733C8.783 1.77867 9.67767 1.44533 10.6157 1.41833L10.7383 1.41667Z" fill="#888888"/>
<path id="Vector_2" d="M13.6666 10.75C13.8172 10.7501 13.9618 10.8083 14.0704 10.9125C14.1789 11.0168 14.243 11.1589 14.2492 11.3093C14.2554 11.4597 14.2033 11.6066 14.1036 11.7195C14.004 11.8323 13.8646 11.9022 13.7146 11.9147L13.6666 11.9167H10.3333C10.1828 11.9166 10.0382 11.8584 9.92959 11.7541C9.82102 11.6499 9.75694 11.5077 9.75074 11.3574C9.74454 11.207 9.79671 11.06 9.89633 10.9472C9.99595 10.8344 10.1353 10.7645 10.2853 10.752L10.3333 10.75H13.6666Z" fill="#888888"/>
<path id="Vector_3" d="M12 9.08333C12.1464 9.08334 12.2874 9.13839 12.3951 9.23756C12.5028 9.33673 12.5692 9.47277 12.5813 9.61867L12.5833 9.66667V13C12.5832 13.1505 12.525 13.2952 12.4208 13.4037C12.3165 13.5123 12.1744 13.5764 12.024 13.5826C11.8736 13.5888 11.7266 13.5366 11.6138 13.437C11.501 13.3374 11.4311 13.198 11.4186 13.048L11.4166 13V9.66667C11.4166 9.34467 11.678 9.08333 12 9.08333Z" fill="#888888"/>
</g>
</svg>
