<svg width="48.000000" height="48.000000" viewBox="0 0 48 48" fill="none" xmlns="http://www.w3.org/2000/svg" xmlns:xlink="http://www.w3.org/1999/xlink">
	<desc>
			Created with Pixso.
	</desc>
	<defs/>
	<g opacity="0.400000">
		<circle id="椭圆 20" cx="24.000000" cy="24.000000" r="23.000000" stroke="#ED6F21" stroke-opacity="1.000000" stroke-width="2.000000" style=""/>
		<circle id="椭圆 20" cx="24.000000" cy="24.000000" r="18.500000" stroke="#ED6F21" stroke-opacity="1.000000" stroke-width="1.000000" style=""/>
		<path id="已领取" d="M18.81 26L19.57 26.37Q19.81 25.42 19.88 24.47Q19.92 23.82 19.89 23.17L22.08 23.84L22.28 23L24.37 26.62L25.15 26.17L23.37 23.1L25.54 21.85L27.29 24.89L28.06 24.44L25.92 20.73L24.23 21.7Q24.08 21.2 23.95 20.69L25.81 19.61L25.4 18.9L20.94 21.48L21.35 22.19L23.11 21.17L23.41 22.17L22.2 22.87L22.28 23L19.8 22.32L19.74 21.81L18.92 21.96Q19.06 22.92 19.07 23.86Q19.05 24.91 18.81 26ZM33.9 21.57L33.63 21.18L33.43 20.84Q33.1 21.13 32.8 21.39L30.26 16.99L30.76 16.71L30.33 15.96L26.38 18.25L26.81 18.99L27.35 18.68L30.17 23.55Q29.83 23.83 29.44 24.1L30 24.82Q31.28 23.76 32.55 22.67L33.39 24.13L34.13 23.7L33.23 22.14Q33.57 21.86 33.9 21.57ZM15.91 24.48L9.51 28.17L9.98 28.98L15.53 25.78L16.62 27.67L12.12 30.27L11.47 29.15L10.6 29.65L12.94 33.72Q13.16 34.09 13.48 34.4Q13.61 34.57 13.79 34.63Q13.81 34.64 13.83 34.64Q14.07 34.71 14.3 34.67Q14.38 34.66 14.47 34.64Q14.9 34.52 15.27 34.31L19.09 32.11Q19.46 31.89 19.79 31.61Q19.92 31.49 20.01 31.34Q20.09 31.23 20.14 31.1Q20.19 30.88 20.16 30.68Q20.06 30.34 19.89 29.98Q19.61 29.32 19.31 28.73L18.31 29.04L18.9 30.14Q18.99 30.36 19.07 30.58Q19.08 30.62 19.08 30.65Q19.08 30.74 19.04 30.83Q19.03 30.87 19.01 30.9Q18.96 31.02 18.84 31.12Q18.62 31.29 18.37 31.39L15.05 33.31Q15.01 33.34 14.97 33.37Q14.78 33.49 14.56 33.56Q14.49 33.6 14.41 33.61Q14.32 33.62 14.21 33.57Q14.08 33.51 13.99 33.43Q13.81 33.26 13.7 33.01L12.57 31.05L17.92 27.96L15.91 24.48ZM32.01 16.67L31.36 17.17Q31.48 17.35 31.61 17.52Q32.24 18.35 33 19.08Q33.06 19.14 33.12 19.2Q33.72 19.78 34.46 20.21Q34.4 20.88 34.21 21.57Q34.03 22.27 33.77 22.91L34.62 23.23Q34.93 22.42 35.14 21.59Q35.25 21.11 35.33 20.62Q35.87 20.84 36.4 20.98Q37.15 21.18 37.91 21.34L38.06 20.35Q37.25 20.27 36.5 20.07Q35.92 19.91 35.35 19.65Q35.36 18.99 35.27 18.35Q35.22 18.02 35.14 17.7Q34.96 16.89 34.69 16.1Q34.55 15.65 34.37 15.21L33.92 14.43L30.71 16.29L31.16 17.07L33.59 15.66Q33.97 16.61 34.24 17.64Q34.44 18.37 34.49 19.16Q34.35 19.07 34.21 18.97Q33.73 18.63 33.31 18.21Q32.62 17.48 32.01 16.67ZM28.1 18.24L29.52 17.43L30.14 18.51L28.72 19.33L28.1 18.24ZM20.26 24.13L19.95 24.84Q20.26 24.97 20.57 25.11Q21.07 25.33 21.55 25.59L21.9 24.85L20.26 24.13ZM29.13 20.04L30.55 19.22L31.16 20.27L29.74 21.09L29.13 20.04ZM24.34 28.62L25.22 28.97Q25.75 28.16 26.17 27.25Q26.41 26.72 26.43 26.06Q27.86 26.28 29.26 26.51L29.43 25.55L26.35 25.21Q26.14 24.61 25.81 24.04L25.01 22.65L24.26 23.08L24.96 24.29Q25.08 24.49 25.17 24.69Q25.33 25.02 25.44 25.37Q25.48 25.52 25.51 25.68Q25.55 26 25.5 26.33Q25.41 26.79 25.22 27.17Q25.09 27.43 24.95 27.69Q24.67 28.17 24.34 28.62ZM21.14 27.68L21.03 28.5Q22.57 28.84 24.11 29.16L24.29 28.3L23.23 28.09Q23.31 26.92 23.33 25.69L22.9 24.94L19.78 26.74L20.18 27.43L22.52 26.08Q22.52 27.02 22.41 27.94L21.14 27.68ZM30.85 23.02L30.15 21.8L31.57 20.98L32.12 21.93L30.85 23.02Z" fill="#ED6F21" fill-opacity="1.000000" fill-rule="evenodd"/>
	</g>
</svg>
