<svg viewBox="0 0 48 48" xmlns="http://www.w3.org/2000/svg" xmlns:xlink="http://www.w3.org/1999/xlink" width="48.000000" height="48.000000" fill="none" customFrame="#000000">
	<g id="组合 1610">
		<circle id="椭圆 20" cx="24" cy="24" r="23" stroke="rgb(0,0,0)" stroke-opacity="0.200000003" stroke-width="2" />
		<circle id="椭圆 20" cx="24" cy="24" r="18.5" stroke="rgb(0,0,0)" stroke-opacity="0.200000003" stroke-width="1" />
		<path id="" d="M1.08887 3.14111L8.479 3.14111L8.479 7.15967L2.2998 7.15967L2.2998 9.43018C2.28027 9.61084 2.29329 9.77767 2.33887 9.93066C2.36654 10.0104 2.40723 10.0902 2.46094 10.1699C2.54069 10.2773 2.64404 10.3311 2.771 10.3311C2.95654 10.3766 3.13965 10.3864 3.32031 10.3604L7.15088 10.3604C7.32992 10.3864 7.51302 10.3864 7.7002 10.3604C7.82715 10.3408 7.9305 10.2904 8.01025 10.209C8.09001 10.1569 8.13965 10.0902 8.15918 10.0088C8.18685 9.85579 8.2137 9.69954 8.23975 9.54004L8.27881 8.29004L9.29932 8.5293C9.27327 8.97038 9.2334 9.42692 9.17969 9.89893C9.15365 10.1593 9.11377 10.4067 9.06006 10.6411C9.00635 10.7664 8.92985 10.8828 8.83057 10.9902C8.66943 11.1237 8.48551 11.2132 8.27881 11.2588C7.99235 11.3125 7.70589 11.3394 7.41943 11.3394L3.01025 11.3394C2.7238 11.3394 2.43734 11.2995 2.15088 11.2197C1.94417 11.1725 1.76025 11.0692 1.59912 10.9097C1.49984 10.8104 1.43717 10.6802 1.41113 10.519C1.32975 10.2326 1.28906 9.94613 1.28906 9.65967L1.28906 4.96973L2.2998 4.96973L2.2998 6.25879L7.5 6.25879L7.5 4.08105L1.08887 4.08105L1.08887 3.14111ZM11.1304 11.6909L10.5908 10.79C10.9766 10.637 11.3664 10.4702 11.7603 10.2896C12.1997 10.0503 12.6164 9.79069 13.0103 9.51074C13.3228 9.24382 13.6092 8.95654 13.8696 8.64893C14.104 8.36247 14.2741 8.04915 14.3799 7.70898L10.7007 7.70898L10.7007 6.76904L14.5703 6.76904C14.5703 6.24984 14.5833 5.7168 14.6094 5.16992L12.5 5.16992C12.2933 5.66309 12.0467 6.13346 11.7603 6.58105L10.9009 6.14893C11.2134 5.67692 11.4868 5.19434 11.7212 4.70117C11.9539 4.12663 12.1598 3.53988 12.3389 2.94092L13.2397 3.18018C13.1405 3.53988 13.0241 3.90283 12.8906 4.26904L14.6094 4.26904C14.6094 3.7238 14.6094 3.17773 14.6094 2.63086L15.5908 2.63086C15.5908 3.17773 15.5908 3.7238 15.5908 4.26904L18.7891 4.26904L18.7891 5.16992L15.5908 5.16992C15.5632 5.69075 15.5493 6.2238 15.5493 6.76904L19.2603 6.76904L19.2603 7.70898L15.6592 7.70898C15.9456 8.35677 16.3623 8.91748 16.9092 9.39111C17.2493 9.67757 17.6164 9.92415 18.0103 10.1309C18.4774 10.3636 18.9575 10.5736 19.4507 10.7607L18.9502 11.6494C18.4766 11.4704 18.02 11.2637 17.5806 11.0293C17.1867 10.7965 16.8099 10.5369 16.4502 10.2505C15.9033 9.77686 15.4468 9.21696 15.0806 8.5708C14.8934 8.91097 14.6834 9.22428 14.4507 9.51074C14.1642 9.81673 13.8542 10.0999 13.5205 10.3604C12.7865 10.9137 11.9897 11.3573 11.1304 11.6909ZM25.271 6.93018L24.729 6.18066C25.0903 5.61426 25.4004 5.00391 25.6592 4.34961C25.8724 3.80273 26.0425 3.22982 26.1694 2.63086L27.0703 2.75049C26.9629 3.24365 26.8197 3.7238 26.6406 4.19092L29.5288 4.19092L29.5288 5.08936L28.7891 5.08936C28.6833 5.86898 28.527 6.63883 28.3203 7.39893C28.1396 7.9458 27.9061 8.46582 27.6196 8.95898C28.2202 9.71257 28.9103 10.3628 29.6899 10.9097L29.0991 11.6909C28.3195 11.1164 27.6294 10.4661 27.0288 9.74023C26.7424 10.0804 26.4429 10.3807 26.1304 10.6411C25.717 11.0073 25.2865 11.3573 24.8389 11.6909L24.2212 10.9512C24.7144 10.637 25.1839 10.2863 25.6299 9.89893C25.9359 9.64014 26.2329 9.34066 26.521 9.00049C26.0262 8.2404 25.6893 7.42008 25.5103 6.53955C25.4305 6.6665 25.3507 6.79671 25.271 6.93018ZM22.9297 5.51904L23.5889 5.05029C24.1357 5.78271 24.6965 6.49967 25.271 7.20117L24.6094 7.70898C24.5036 7.54948 24.3872 7.40625 24.2603 7.2793C24.0731 7.85384 23.8363 8.40072 23.5498 8.91992C23.9437 9.38704 24.3368 9.84359 24.729 10.2896L24.021 10.8706L23.0103 9.70117C22.7498 10.0674 22.4634 10.3937 22.1509 10.6802C21.731 11.0399 21.3143 11.3768 20.9009 11.6909L20.3101 10.9512C20.7039 10.6908 21.084 10.4173 21.4502 10.1309C21.8099 9.79069 22.133 9.44076 22.4194 9.08105L21.25 7.75049L21.9092 7.20117C22.2493 7.56738 22.5895 7.92057 22.9297 8.26074C23.1364 7.84082 23.3195 7.3973 23.479 6.93018L24.2212 7.20117C23.7996 6.62663 23.3691 6.06592 22.9297 5.51904ZM22.0703 2.78955L22.9297 2.55029C23.1364 2.99626 23.3333 3.4528 23.5205 3.91992L23.1299 4.00049L25.0806 4.00049L25.0806 4.93066L20.5493 4.93066L20.5493 4.00049L22.6196 4.00049C22.4325 3.60661 22.2493 3.20296 22.0703 2.78955ZM27.9297 5.08936L26.2891 5.08936C26.237 5.19678 26.1841 5.30013 26.1304 5.39941C26.2101 5.94629 26.3403 6.46956 26.521 6.96924C26.6545 7.38265 26.8376 7.7863 27.0703 8.18018C27.277 7.76025 27.4471 7.33057 27.5806 6.89111C27.7336 6.29053 27.8499 5.68994 27.9297 5.08936ZM20.9009 7.86035L20.271 7.3208C20.5575 7.00667 20.8301 6.67952 21.0889 6.33936C21.377 5.92594 21.6406 5.49626 21.8799 5.05029L22.6196 5.44092C22.1265 6.32633 21.5535 7.13281 20.9009 7.86035Z" fill="rgb(0,0,0)" fill-opacity="0.400000006" fill-rule="nonzero" transform="matrix(0.866025,-0.5,0.5,0.866025,7,26)" />
	</g>
</svg>
