<svg viewBox="0 0 48 48" xmlns="http://www.w3.org/2000/svg" xmlns:xlink="http://www.w3.org/1999/xlink" width="48.000000" height="48.000000" fill="none" customFrame="#000000">
	<rect id="容器 84" width="48.000000" height="48.000000" x="0.000000" y="0.000000" />
	<circle id="椭圆 20" cx="24" cy="24" r="23" stroke="rgb(230,69,102)" stroke-opacity="0.200000003" stroke-width="2" />
	<circle id="椭圆 20" cx="24" cy="24" r="18.5" stroke="rgb(230,69,102)" stroke-opacity="0.200000003" stroke-width="1" />
	<path id="" d="M1.08887 3.14111L8.479 3.14111L8.479 7.15967L2.2998 7.15967L2.2998 9.43018C2.28027 9.61084 2.29329 9.77767 2.33887 9.93066C2.36654 10.0104 2.40723 10.0902 2.46094 10.1699C2.54069 10.2773 2.64404 10.3311 2.771 10.3311C2.95654 10.3766 3.13965 10.3864 3.32031 10.3604L7.15088 10.3604C7.32992 10.3864 7.51302 10.3864 7.7002 10.3604C7.82715 10.3408 7.9305 10.2904 8.01025 10.209C8.09001 10.1569 8.13965 10.0902 8.15918 10.0088C8.18685 9.85579 8.2137 9.69954 8.23975 9.54004L8.27881 8.29004L9.29932 8.5293C9.27327 8.97038 9.2334 9.42692 9.17969 9.89893C9.15365 10.1593 9.11377 10.4067 9.06006 10.6411C9.00635 10.7664 8.92985 10.8828 8.83057 10.9902C8.66943 11.1237 8.48551 11.2132 8.27881 11.2588C7.99235 11.3125 7.70589 11.3394 7.41943 11.3394L3.01025 11.3394C2.7238 11.3394 2.43734 11.2995 2.15088 11.2197C1.94417 11.1725 1.76025 11.0692 1.59912 10.9097C1.49984 10.8104 1.43717 10.6802 1.41113 10.519C1.32975 10.2326 1.28906 9.94613 1.28906 9.65967L1.28906 4.96973L2.2998 4.96973L2.2998 6.25879L7.5 6.25879L7.5 4.08105L1.08887 4.08105L1.08887 3.14111ZM11.0889 11.73L10.6299 10.9097C11.0693 10.7827 11.486 10.6126 11.8799 10.3994C12.1126 10.3001 12.3063 10.1569 12.4609 9.96973C12.6676 9.76302 12.8109 9.52946 12.8906 9.26904C12.9964 8.98258 13.0493 8.68311 13.0493 8.37061L13.0493 8.3291L10.7007 8.3291L10.7007 7.46973L19.2993 7.46973L19.2993 8.3291L16.521 8.3291L16.521 9.93066C16.4933 10.0365 16.4933 10.1431 16.521 10.2505C16.547 10.3237 16.5869 10.3734 16.6406 10.3994C16.6943 10.4531 16.7611 10.493 16.8408 10.519C16.9401 10.5467 17.0435 10.5605 17.1509 10.5605L17.7295 10.5605C17.863 10.5605 17.9834 10.5467 18.0908 10.519C18.1364 10.519 18.186 10.493 18.2397 10.4409C18.3195 10.4132 18.3594 10.3628 18.3594 10.2896C18.387 10.1561 18.4139 10.0365 18.4399 9.93066C18.4399 9.62305 18.453 9.29915 18.479 8.95898L19.3408 9.14941C19.3132 9.51725 19.2863 9.8973 19.2603 10.2896C19.2603 10.4702 19.2204 10.6501 19.1406 10.8291C19.0869 10.9365 19.0234 11.0301 18.9502 11.1099C18.8167 11.2091 18.6735 11.2856 18.5205 11.3394C18.2796 11.367 18.0428 11.3809 17.8101 11.3809L16.8799 11.3809C16.6667 11.3809 16.4567 11.354 16.25 11.3003C16.097 11.2466 15.9668 11.1701 15.8594 11.0708C15.7536 10.9634 15.6868 10.86 15.6592 10.7607C15.6136 10.5475 15.5908 10.3376 15.5908 10.1309L15.5908 8.3291L14.0601 8.3291C14.034 8.35677 14.021 8.39746 14.021 8.45117C14.021 8.87109 13.9575 9.2609 13.8306 9.62061C13.6971 9.98682 13.5002 10.3001 13.2397 10.5605C13.007 10.7673 12.7604 10.9504 12.5 11.1099C12.0605 11.3703 11.5902 11.577 11.0889 11.73ZM10.8594 3.64893L14.729 3.64893C14.5695 3.33643 14.4132 3.02311 14.2603 2.70898L15.2002 2.46973C15.3809 2.86361 15.5607 3.25667 15.7397 3.64893L19.0991 3.64893L19.0991 5.71924L18.2007 5.71924L18.2007 4.46924L11.7603 4.46924L11.7603 5.71924L10.8594 5.71924L10.8594 3.64893ZM11.9897 6.38086L11.9897 5.51904L17.9712 5.51904L17.9712 6.38086L11.9897 6.38086ZM24.7998 11.2588L24.2212 10.5996C24.8934 10.1325 25.5298 9.58561 26.1304 8.95898C25.9497 8.43978 25.8065 7.90674 25.7007 7.35986C25.5477 6.55257 25.4305 5.75586 25.3491 4.96973L22.229 4.96973L22.229 6.21973L24.729 6.21973C24.703 7.26628 24.6501 8.29655 24.5703 9.31055C24.5426 9.51725 24.5028 9.72396 24.4507 9.93066C24.3774 10.0902 24.2741 10.2236 24.1406 10.3311C24.0332 10.4043 23.916 10.4539 23.7891 10.48C23.5563 10.5597 23.3236 10.5996 23.0908 10.5996L22.3804 10.5996L22.1899 9.70117L22.8491 9.70117C23.0103 9.70117 23.1535 9.68734 23.2788 9.65967C23.3602 9.65967 23.4269 9.63281 23.479 9.5791C23.5522 9.55306 23.6027 9.50342 23.6304 9.43018C23.6564 9.29671 23.6694 9.18034 23.6694 9.08105C23.7231 8.42676 23.763 7.75944 23.7891 7.0791L22.229 7.0791C22.203 7.5804 22.1631 8.0638 22.1094 8.5293C22.0833 8.84342 22.0304 9.14372 21.9507 9.43018C21.7977 10.1838 21.5104 10.9007 21.0889 11.5811L20.2002 11.1489C20.4069 10.8364 20.5868 10.5101 20.7397 10.1699C20.8993 9.82975 21.0156 9.47656 21.0889 9.11035C21.1702 8.82389 21.224 8.54069 21.25 8.26074C21.3037 7.7334 21.3306 7.21012 21.3306 6.69092L21.3306 4.08105L25.271 4.08105L25.2002 2.58936L26.0889 2.58936C26.1165 3.08252 26.1572 3.57975 26.2109 4.08105L27.771 4.08105C27.4373 3.71322 27.0874 3.35921 26.7212 3.01904L27.2998 2.43066C27.7197 2.82292 28.1364 3.229 28.5498 3.64893L28.0493 4.08105L29.3408 4.08105L29.3408 4.96973L26.2891 4.96973C26.3428 5.57031 26.4201 6.18392 26.521 6.81055C26.5731 7.25 26.6659 7.67969 26.7993 8.09961C27.0597 7.75944 27.2803 7.39648 27.4609 7.01074C27.6676 6.50944 27.8638 5.99919 28.0493 5.47998L28.8696 5.8291C28.6369 6.45573 28.3634 7.08236 28.0493 7.70898C27.7905 8.20378 27.491 8.6709 27.1509 9.11035C27.2502 9.42285 27.4064 9.72233 27.6196 10.0088C27.6929 10.1423 27.7962 10.2725 27.9297 10.3994C28.0094 10.4531 28.0998 10.48 28.2007 10.48C28.3065 10.48 28.3862 10.4401 28.4399 10.3604C28.5392 10.1797 28.6027 9.986 28.6304 9.7793C28.7101 9.41309 28.7899 9.04688 28.8696 8.68066L29.6509 8.91992C29.5695 9.35938 29.4792 9.78906 29.3799 10.209C29.3262 10.3896 29.2733 10.5597 29.2212 10.7192C29.1398 10.8999 29.0365 11.057 28.9111 11.1904C28.6963 11.3971 28.4456 11.5005 28.1592 11.5005C27.9264 11.4728 27.7067 11.3792 27.5 11.2197C27.3665 11.1204 27.2502 11.0041 27.1509 10.8706C26.9897 10.6899 26.8595 10.5101 26.7603 10.3311C26.6528 10.1699 26.5592 10.0129 26.4795 9.85986C25.9603 10.3807 25.4004 10.847 24.7998 11.2588Z" fill="rgb(230,69,102)" fill-opacity="0.400000006" fill-rule="nonzero" transform="matrix(0.866025,-0.5,0.5,0.866025,7,26)" />
</svg>
