<svg viewBox="0 0 48 48" xmlns="http://www.w3.org/2000/svg" xmlns:xlink="http://www.w3.org/1999/xlink" width="48.000000" height="48.000000" fill="none" customFrame="#000000">
	<g id="组合 1609">
		<circle id="椭圆 20" cx="24" cy="24" r="23" stroke="rgb(0,0,0)" stroke-opacity="0.200000003" stroke-width="2" />
		<circle id="椭圆 20" cx="24" cy="24" r="18.5" stroke="rgb(0,0,0)" stroke-opacity="0.200000003" stroke-width="1" />
		<path id="" d="M1.08887 3.14111L8.479 3.14111L8.479 7.15967L2.2998 7.15967L2.2998 9.43018C2.28027 9.61084 2.29329 9.77767 2.33887 9.93066C2.36654 10.0104 2.40723 10.0902 2.46094 10.1699C2.54069 10.2773 2.64404 10.3311 2.771 10.3311C2.95654 10.3766 3.13965 10.3864 3.32031 10.3604L7.15088 10.3604C7.32992 10.3864 7.51302 10.3864 7.7002 10.3604C7.82715 10.3408 7.9305 10.2904 8.01025 10.209C8.09001 10.1569 8.13965 10.0902 8.15918 10.0088C8.18685 9.85579 8.2137 9.69954 8.23975 9.54004L8.27881 8.29004L9.29932 8.5293C9.27327 8.97038 9.2334 9.42692 9.17969 9.89893C9.15365 10.1593 9.11377 10.4067 9.06006 10.6411C9.00635 10.7664 8.92985 10.8828 8.83057 10.9902C8.66943 11.1237 8.48551 11.2132 8.27881 11.2588C7.99235 11.3125 7.70589 11.3394 7.41943 11.3394L3.01025 11.3394C2.7238 11.3394 2.43734 11.2995 2.15088 11.2197C1.94417 11.1725 1.76025 11.0692 1.59912 10.9097C1.49984 10.8104 1.43717 10.6802 1.41113 10.519C1.32975 10.2326 1.28906 9.94613 1.28906 9.65967L1.28906 4.96973L2.2998 4.96973L2.2998 6.25879L7.5 6.25879L7.5 4.08105L1.08887 4.08105L1.08887 3.14111ZM15.4712 9.14941L15.5103 9.62061C15.2238 9.67432 14.9373 9.72721 14.6509 9.7793L14.6509 11.5811L13.7891 11.5811L13.7891 9.89893C12.6969 10.1056 11.604 10.2993 10.5103 10.48L10.3906 9.5791C10.7031 9.55306 11.0026 9.51644 11.2891 9.46924L11.2891 3.83936L10.6592 3.83936L10.6592 2.97998L15.2295 2.97998L15.2295 3.83936L14.6509 3.83936L14.6509 8.91992C14.9097 8.86621 15.1831 8.8125 15.4712 8.75879L15.4712 9.14941ZM15.5103 4.54004L16.3306 4.43018C16.4103 5.104 16.5267 5.76725 16.6797 6.41992C16.8132 6.91309 16.9963 7.38346 17.229 7.83105C17.4634 7.35742 17.644 6.87402 17.771 6.38086C17.9565 5.70052 18.0998 5.02344 18.2007 4.34961L15.3906 4.34961L15.3906 3.45117L19.0991 3.45117L19.0991 4.34961C18.9738 5.21061 18.7809 6.05778 18.5205 6.89111C18.3333 7.51774 18.0697 8.11426 17.7295 8.68066C17.9704 9.02083 18.2341 9.33415 18.5205 9.62061C18.8802 9.98682 19.283 10.327 19.729 10.6411L19.0991 11.4199C18.7134 11.0798 18.3374 10.7266 17.9712 10.3604C17.7108 10.0999 17.4634 9.81673 17.229 9.51074C16.6561 10.2106 16.0164 10.847 15.3101 11.4199L14.729 10.7192C15.0903 10.4328 15.4403 10.1195 15.7788 9.7793C16.119 9.43913 16.4193 9.08594 16.6797 8.71973C16.3672 8.17285 16.1336 7.60319 15.979 7.01074C15.7463 6.19694 15.59 5.37337 15.5103 4.54004ZM13.7891 3.83936L12.1509 3.83936L12.1509 5.08936L13.7891 5.08936L13.7891 3.83936ZM13.7891 5.90967L12.1509 5.90967L12.1509 7.12061L13.7891 7.12061L13.7891 5.90967ZM12.1509 7.94092L12.1509 9.34961L13.7891 9.03955L13.7891 7.94092L12.1509 7.94092ZM23.479 5.28955L25.7397 5.28955L25.7397 2.58936L26.6406 2.58936L26.6406 5.28955L28.9111 5.28955L28.9111 10.3311C28.9111 10.5378 28.8843 10.7306 28.8306 10.9097C28.8029 11.0171 28.7492 11.1107 28.6694 11.1904C28.5701 11.2897 28.4399 11.3532 28.2788 11.3809C28.0737 11.4329 27.854 11.459 27.6196 11.459L26.4795 11.459L26.2891 10.5996L27.2998 10.5996C27.4333 10.5996 27.5537 10.5866 27.6611 10.5605C27.7344 10.5329 27.797 10.506 27.8491 10.48C27.9028 10.4539 27.9435 10.4043 27.9712 10.3311C27.9972 10.2497 28.0103 10.1561 28.0103 10.0503L28.0103 9.5791L24.3799 9.5791L24.3799 11.5005L23.479 11.5005L23.479 5.28955ZM22.3389 7.86035L22.8101 8.01904C22.4227 9.14046 22.0459 10.2741 21.6797 11.4199L20.7788 11.1489C21.2004 10.0291 21.5771 8.88249 21.9092 7.70898L22.3389 7.86035ZM20.3906 5.68018L20.9399 4.93066C21.5666 5.4043 22.1899 5.87386 22.8101 6.33936L22.2705 7.12061C21.6699 6.62744 21.0433 6.1473 20.3906 5.68018ZM20.8594 3.5708L21.3696 2.83105C21.9897 3.27051 22.6131 3.7238 23.2397 4.19092L22.7295 4.93066C22.1094 4.46354 21.486 4.01025 20.8594 3.5708ZM27.7295 5.13086L27.0703 4.54004C27.5635 4.02083 28.0566 3.48779 28.5498 2.94092L29.2212 3.49023C28.7264 4.06315 28.2292 4.61003 27.7295 5.13086ZM23.2007 3.45117L23.8306 2.89941C24.3237 3.42025 24.8169 3.95736 25.3101 4.51074L24.6509 5.08936C24.1838 4.51644 23.7004 3.97038 23.2007 3.45117ZM28.0103 6.10986L24.3799 6.10986L24.3799 7.04004L28.0103 7.04004L28.0103 6.10986ZM28.0103 7.86035L24.3799 7.86035L24.3799 8.75879L28.0103 8.75879L28.0103 7.86035Z" fill="rgb(0,0,0)" fill-opacity="0.400000006" fill-rule="nonzero" transform="matrix(0.866025,-0.5,0.5,0.866025,7,26)" />
	</g>
</svg>
