<svg width="17" height="17" viewBox="0 0 17 17" fill="none" xmlns="http://www.w3.org/2000/svg">
<path opacity="0.655132" d="M12.4743 15.0097C14.5918 13.6699 16 11.2912 16 8.58012C16 4.39374 12.6421 1 8.5 1C4.35786 1 1 4.39374 1 8.58012C1 11.4005 2.52409 13.8612 4.7853 15.1667" stroke="#D4D4D4" stroke-width="2" stroke-linecap="round"/>
<path d="M1.1084 9.38135C1.29222 12.0101 2.87511 14.204 5.07071 15.2731" stroke="#E04537" stroke-width="2" stroke-linecap="round"/>
<path d="M11.1206 13.2669C12.5269 12.3328 13.4621 10.6745 13.4621 8.78451C13.4621 5.86595 11.232 3.5 8.48105 3.5C5.73009 3.5 3.5 5.86595 3.5 8.78451C3.5 10.7508 4.51221 12.4662 6.01397 13.3763" stroke="#D4D4D4" stroke-width="2" stroke-linecap="round"/>
<path d="M3.49414 8.81006C3.52676 10.7949 4.54829 12.5081 6.03674 13.3995" stroke="#F2B73F" stroke-width="2" stroke-linecap="round"/>
<path d="M9.82477 10.954C10.5306 10.5599 11 9.86032 11 9.06294C11 7.83165 9.88071 6.8335 8.5 6.8335C7.11929 6.8335 6 7.83165 6 9.06294C6 9.89248 6.50803 10.6162 7.26177 11.0002" stroke="#D4D4D4" stroke-width="2" stroke-linecap="round"/>
<path d="M5.96191 8.58545C5.89248 9.57847 6.42315 10.4862 7.26823 11.0071" stroke="#3E78F7" stroke-width="2" stroke-linecap="round"/>
</svg>
