<?xml version="1.0" standalone="no"?><!DOCTYPE svg PUBLIC "-//W3C//DTD SVG 1.1//EN" "http://www.w3.org/Graphics/SVG/1.1/DTD/svg11.dtd"><svg class="icon" width="200px" height="200.00px" viewBox="0 0 1024 1024" version="1.1" xmlns="http://www.w3.org/2000/svg"><path d="M81.515789 108.463158h862.31579c16.168421 0 26.947368 10.778947 26.947368 26.947368v53.894737c0 16.168421-10.778947 26.947368-26.947368 26.947369h-862.31579c-16.168421 0-26.947368-10.778947-26.947368-26.947369v-53.894737c0-16.168421 10.778947-26.947368 26.947368-26.947368zM81.515789 458.778947h862.31579c16.168421 0 26.947368 10.778947 26.947368 26.947369v53.894737c0 16.168421-10.778947 26.947368-26.947368 26.947368h-862.31579c-16.168421 0-26.947368-10.778947-26.947368-26.947368v-53.894737c0-16.168421 10.778947-26.947368 26.947368-26.947369zM81.515789 809.094737h862.31579c16.168421 0 26.947368 10.778947 26.947368 26.947368v53.894737c0 16.168421-10.778947 26.947368-26.947368 26.947369h-862.31579c-16.168421 0-26.947368-10.778947-26.947368-26.947369v-53.894737c0-16.168421 10.778947-26.947368 26.947368-26.947368z" /></svg>