<?xml version="1.0" standalone="no"?><!DOCTYPE svg PUBLIC "-//W3C//DTD SVG 1.1//EN" "http://www.w3.org/Graphics/SVG/1.1/DTD/svg11.dtd"><svg class="icon" width="200px" height="200.00px" viewBox="0 0 1024 1024" version="1.1" xmlns="http://www.w3.org/2000/svg"><path d="M376 528.8h428c8 0 12-6.4 12-16.8s-4.8-16.8-12-16.8H376c-8 0-12 6.4-12 16.8s4 16.8 12 16.8zM376 245.6h428c8 0 12-6.4 12-16.8s-4.8-16.8-12-16.8H376c-8 0-12 6.4-12 16.8 0 11.2 4 16.8 12 16.8zM376 811.2h428c8 0 12-6.4 12-16.8s-4.8-16.8-12-16.8H376c-8 0-12 6.4-12 16.8 0 11.2 4 16.8 12 16.8zM214.4 528.8h72c1.6 0 2.4-6.4 2.4-16.8s-0.8-16.8-2.4-16.8h-72c-1.6 0-2.4 6.4-2.4 16.8 0 11.2 0.8 16.8 2.4 16.8zM214.4 246.4h72c1.6 0 2.4-6.4 2.4-16.8s-0.8-16.8-2.4-16.8h-72c-1.6 0-2.4 6.4-2.4 16.8s0.8 16.8 2.4 16.8zM214.4 812h72c1.6 0 2.4-6.4 2.4-16.8s-0.8-16.8-2.4-16.8h-72c-1.6 0-2.4 6.4-2.4 16.8s0.8 16.8 2.4 16.8z" fill="#040000" /></svg>