<?xml version="1.0" standalone="no"?><!DOCTYPE svg PUBLIC "-//W3C//DTD SVG 1.1//EN" "http://www.w3.org/Graphics/SVG/1.1/DTD/svg11.dtd"><svg class="icon" width="200px" height="200.00px" viewBox="0 0 1024 1024" version="1.1" xmlns="http://www.w3.org/2000/svg"><path d="M512 939.804c-57.613 0-113.57-11.274-166.322-33.616-50.89-21.514-96.505-52.337-135.81-91.54-39.201-39.2-70.025-84.919-91.54-135.808-22.134-52.648-33.512-108.606-33.512-166.22s11.275-113.57 33.616-166.322c21.515-50.89 52.338-96.504 91.54-135.81 39.201-39.2 84.92-70.024 135.809-91.539 52.648-22.238 108.606-33.616 166.322-33.616h1.035l-0.104 57.924h-0.93c-98.677 0-191.354 38.374-261.069 108.192C181.217 321.267 142.74 413.944 142.74 512.62s38.375 191.353 108.193 261.068C320.646 843.507 413.427 881.88 512 881.88c98.573 0 191.25-38.374 261.068-108.089 69.715-69.714 108.193-162.392 108.193-260.965h57.923c0 57.613-11.378 113.571-33.616 166.22-21.515 50.89-52.338 96.504-91.54 135.705s-84.92 69.922-135.706 91.436C625.571 928.53 569.716 939.804 512 939.804z m426.15-587.093h-57.924V145.74H672.53V87.816h265.62V352.71z m0 0M888.372 96.013l40.96 40.96-368.847 368.834-40.96-40.96L888.372 96.013z m0 0" /></svg>