<?xml version="1.0" standalone="no"?><!DOCTYPE svg PUBLIC "-//W3C//DTD SVG 1.1//EN" "http://www.w3.org/Graphics/SVG/1.1/DTD/svg11.dtd"><svg class="icon" width="200px" height="200.00px" viewBox="0 0 1024 1024" version="1.1" xmlns="http://www.w3.org/2000/svg"><path d="M791.8 925.9H232.7C159 925.9 99.1 866 99.1 792.4V231.7C99.1 158 159 98.1 232.7 98.1h559.1c73.7 0 133.6 59.9 133.6 133.6v560.7c0 73.6-59.9 133.5-133.6 133.5zM232.7 187.6c-24.3 0-44.1 19.8-44.1 44.1v560.7c0 24.3 19.8 44.1 44.1 44.1h559.1c24.3 0 44.1-19.8 44.1-44.1V231.7c0-24.3-19.8-44.1-44.1-44.1H232.7z" fill="#333333" /><path d="M674.9 550.4H353.6c-24.7 0-44.7-20-44.7-44.7s20-44.7 44.7-44.7h321.3c24.7 0 44.7 20 44.7 44.7s-20 44.7-44.7 44.7z" fill="#333333" /><path d="M514.2 711c-24.7 0-44.7-20-44.7-44.7V345c0-24.7 20-44.7 44.7-44.7s44.7 20 44.7 44.7v321.3c0.1 24.7-20 44.7-44.7 44.7z" fill="#333333" /></svg>