<svg width="16.000000" height="16.000000" viewBox="0 0 16 16" fill="none" xmlns="http://www.w3.org/2000/svg" xmlns:xlink="http://www.w3.org/1999/xlink">
	<desc>
			Created with Pixso.
	</desc>
	<defs>
		<clipPath id="clip110_2628">
			<rect width="16.000000" height="16.000000" fill="white" fill-opacity="0"/>
		</clipPath>
	</defs>
	<g clip-path="url(#clip110_2628)">
		<path d="M13.66 4.23L2.33 4.23C2.14 4.23 2 4.08 2 3.9C2 3.71 2.14 3.57 2.33 3.57L13.66 3.57C13.85 3.57 14 3.71 14 3.9C14 4.08 13.85 4.23 13.66 4.23Z" fill="#000000" fill-opacity="0.600000" fill-rule="nonzero"/>
		<path d="M10.01 4.23L5.98 4.23C5.6 4.23 5.29 3.92 5.29 3.54L5.29 2.68C5.29 2.3 5.6 2 5.98 2L10.01 2C10.39 2 10.7 2.3 10.7 2.68L10.7 3.54C10.7 3.92 10.39 4.23 10.01 4.23ZM5.98 2.66C5.97 2.66 5.96 2.67 5.96 2.68L5.96 3.54C5.96 3.56 5.97 3.57 5.98 3.57L10.01 3.57C10.02 3.57 10.03 3.56 10.03 3.54L10.03 2.68C10.03 2.67 10.02 2.66 10.01 2.66L5.98 2.66Z" fill="#000000" fill-opacity="0.600000" fill-rule="nonzero"/>
		<path d="M11.27 14L4.72 14C4.18 14 3.73 13.58 3.71 13.04L3.35 3.91C3.35 3.82 3.38 3.73 3.45 3.66C3.51 3.6 3.6 3.56 3.69 3.56L12.3 3.56C12.39 3.56 12.48 3.6 12.54 3.66C12.61 3.73 12.64 3.82 12.64 3.91L12.28 13.04C12.26 13.58 11.81 14 11.27 14ZM4.05 4.24L4.39 13.01C4.4 13.18 4.54 13.32 4.72 13.32L11.27 13.32C11.45 13.32 11.59 13.18 11.6 13.01L11.94 4.24L4.05 4.24Z" fill="#000000" fill-opacity="0.600000" fill-rule="nonzero"/>
		<path d="M6.51 12.14C6.31 12.14 6.15 11.97 6.15 11.77L6.15 5.79C6.15 5.59 6.31 5.42 6.51 5.42C6.71 5.42 6.88 5.59 6.88 5.79L6.88 11.77C6.88 11.97 6.71 12.14 6.51 12.14ZM9.48 12.14C9.28 12.14 9.11 11.97 9.11 11.77L9.11 5.79C9.11 5.59 9.28 5.42 9.48 5.42C9.68 5.42 9.84 5.59 9.84 5.79L9.84 11.77C9.84 11.97 9.68 12.14 9.48 12.14Z" fill="#000000" fill-opacity="0.600000" fill-rule="nonzero"/>
	</g>
</svg>
