<?xml version="1.0" standalone="no"?><!DOCTYPE svg PUBLIC "-//W3C//DTD SVG 1.1//EN" "http://www.w3.org/Graphics/SVG/1.1/DTD/svg11.dtd"><svg class="icon" width="200px" height="200.00px" viewBox="0 0 1024 1024" version="1.1" xmlns="http://www.w3.org/2000/svg"><path d="M484.072727 218.763636c-44.218182-60.509091-95.418182-90.763636-158.254545-90.763636-121.018182 0-221.090909 109.381818-221.090909 246.690909 0 67.490909 18.618182 111.709091 67.490909 190.836364 6.981818 9.309091 13.963636 20.945455 20.945454 30.254545 30.254545 41.890909 72.145455 86.109091 121.018182 130.327273 39.563636 37.236364 81.454545 72.145455 123.345455 104.727273 13.963636 11.636364 27.927273 23.272727 41.890909 32.581818 6.981818 4.654545 18.618182 13.963636 20.945454 13.963636 4.654545 6.981818 6.981818 6.981818 11.636364 6.981818s6.981818-2.327273 11.636364-4.654545l20.945454-13.963636c13.963636-9.309091 27.927273-20.945455 41.890909-32.581819 41.890909-32.581818 83.781818-69.818182 123.345455-104.727272 48.872727-46.545455 90.763636-90.763636 121.018182-130.327273 6.981818-11.636364 13.963636-20.945455 20.945454-30.254546 51.2-79.127273 67.490909-123.345455 67.490909-190.836363 0-137.309091-100.072727-246.690909-221.090909-246.690909-62.836364 0-114.036364 30.254545-158.254545 90.763636L512 256l-27.927273-37.236364zM698.181818 58.181818c160.581818 0 290.909091 141.963636 290.909091 316.509091 0 83.781818-23.272727 139.636364-79.127273 228.072727-6.981818 11.636364-16.290909 23.272727-23.272727 34.909091-32.581818 44.218182-76.8 90.763636-128 139.636364-39.563636 37.236364-83.781818 74.472727-128 109.381818-25.6 20.945455-72.145455 53.527273-62.836364 46.545455-18.618182 13.963636-37.236364 20.945455-55.854545 20.945454-18.618182 0-39.563636-6.981818-53.527273-18.618182 9.309091 6.981818-37.236364-27.927273-62.836363-46.545454-44.218182-34.909091-88.436364-72.145455-128-109.381818-51.2-48.872727-95.418182-95.418182-128-139.636364-9.309091-11.636364-16.290909-23.272727-23.272728-34.909091-55.854545-90.763636-79.127273-144.290909-79.127272-228.072727C34.909091 200.145455 162.909091 58.181818 325.818182 58.181818c72.145455 0 134.981818 30.254545 186.181818 83.781818 51.2-53.527273 114.036364-83.781818 186.181818-83.781818z" fill="#333333" /></svg>