<svg viewBox="0 0 14 14.7159" xmlns="http://www.w3.org/2000/svg" xmlns:xlink="http://www.w3.org/1999/xlink" width="14.000000" height="14.715881" fill="none">
	<path d="M14 12.3295L14 3.73862C14 3.56113 13.9812 3.3878 13.9435 3.21867C13.9125 3.07917 13.8687 2.94249 13.8121 2.80866C13.6912 2.52304 13.5206 2.27025 13.3004 2.05025C13.0804 1.83047 12.8275 1.66023 12.5419 1.53963C12.2462 1.41472 11.9368 1.35226 11.6136 1.35226L2.38636 1.35226C2.20686 1.35226 2.03167 1.37143 1.86079 1.40979C1.72335 1.44064 1.58871 1.4839 1.45681 1.53957C1.31943 1.59757 1.18963 1.66704 1.0674 1.74803C0.935493 1.83545 0.812388 1.93627 0.698197 2.05046C0.584006 2.16465 0.483156 2.28772 0.395765 2.41969C0.314783 2.54186 0.245336 2.67166 0.187308 2.80907C0.131669 2.94094 0.0883816 3.07561 0.0575034 3.21308C0.0191678 3.38396 0 3.55915 0 3.73862L0 12.3295C0 12.6527 0.0624555 12.9621 0.187367 13.2578C0.307966 13.5434 0.478204 13.7962 0.698022 14.0163C0.813378 14.1318 0.937823 14.2337 1.0713 14.3219C1.19225 14.4018 1.3206 14.4705 1.4564 14.528C1.75248 14.6532 2.06243 14.7159 2.38636 14.7159L11.6136 14.7159C11.9368 14.7159 12.2464 14.6532 12.5423 14.5279C12.8278 14.407 13.0805 14.2366 13.3006 14.0165C13.5207 13.7964 13.6912 13.5437 13.812 13.2582C13.9373 12.9623 14 12.6528 14 12.3295ZM13.0076 3.40863C13.0328 3.51566 13.0455 3.62565 13.0455 3.73862L13.0455 12.3295C13.0455 12.5236 13.008 12.7091 12.933 12.886C12.8605 13.0573 12.7581 13.2091 12.6256 13.3415C12.4932 13.4739 12.3414 13.5764 12.1701 13.6489C11.9931 13.7239 11.8076 13.7613 11.6136 13.7613L2.38636 13.7613C2.27339 13.7613 2.16334 13.7487 2.05631 13.7235C1.97883 13.7053 1.90285 13.6804 1.8284 13.6489C1.65723 13.5764 1.50552 13.4741 1.37338 13.3417C1.24125 13.2095 1.139 13.0577 1.0667 12.8864C1.03459 12.8104 1.00937 12.7329 0.991074 12.6537C0.966721 12.5484 0.954544 12.4404 0.954544 12.3295L0.954544 3.73862C0.954544 3.6235 0.967595 3.51149 0.993637 3.4026C1.0117 3.32698 1.03605 3.25287 1.0667 3.18028C1.10055 3.10014 1.14092 3.02432 1.18782 2.95277C1.24113 2.87144 1.30294 2.79567 1.37315 2.72544C1.44341 2.65518 1.51921 2.59339 1.60054 2.54008C1.67208 2.49318 1.74788 2.45281 1.82799 2.41899C1.90064 2.38834 1.97475 2.36396 2.05037 2.34587C2.15926 2.31983 2.27124 2.30681 2.38636 2.30681L11.6136 2.30681C11.8079 2.30681 11.9936 2.34418 12.1705 2.41893C12.3418 2.49129 12.4936 2.59351 12.6258 2.72561C12.6974 2.7971 12.7602 2.87432 12.8143 2.95723C12.8601 3.02761 12.8997 3.10209 12.933 3.18069C12.9645 3.25512 12.9894 3.33109 13.0076 3.40863Z" fill="rgb(255,255,255)" fill-rule="evenodd" />
	<path d="M4.90322 0.715908L4.90322 1.83909C4.90322 2.24001 4.58821 2.555 4.18732 2.555C3.78642 2.555 3.47141 2.24001 3.47141 1.83909L3.47141 0.715908C3.47141 0.314987 3.78642 0 4.18732 0C4.58821 0 4.90322 0.314987 4.90322 0.715908ZM10.5223 0.715908C10.5223 0.314987 10.2073 0 9.80639 0C9.4055 0 9.09048 0.314987 9.09048 0.715908L9.09048 1.83909C9.09048 2.24001 9.4055 2.555 9.80639 2.555C10.2073 2.555 10.5223 2.24001 10.5223 1.83909L10.5223 0.715908Z" fill="rgb(255,255,255)" fill-rule="evenodd" />
    <path d="M0.477272 5.01136L13.5227 5.01136L13.5227 5.9659L0.477272 5.9659L0.477272 5.01136Z" fill="rgb(255,255,255)" fill-rule="evenodd" />
    <path d="M7.61089 7.18769L6.46543 7.18769C6.31587 7.18769 6.19498 7.30861 6.19498 7.45813L6.19498 8.6036C6.19498 8.75315 6.31587 8.87404 6.46543 8.87404L7.61089 8.87404C7.76045 8.87404 7.88134 8.75315 7.88134 8.6036L7.88134 7.45813C7.88134 7.30861 7.76045 7.18769 7.61089 7.18769ZM10.9805 7.18769L9.83814 7.18769C9.68865 7.18769 9.5677 7.30861 9.5677 7.45813L9.5677 8.6036C9.5677 8.75315 9.68865 8.87404 9.83814 8.87404L10.9805 8.87404C11.13 8.87404 11.2509 8.75315 11.2509 8.6036L11.2509 7.45813C11.2509 7.30861 11.13 7.18769 10.9805 7.18769ZM3.09271 10.5604L4.23818 10.5604C4.38773 10.5604 4.50862 10.6813 4.50862 10.8309L4.50862 11.9763C4.50862 12.1259 4.38773 12.2468 4.23818 12.2468L3.09271 12.2468C2.94316 12.2468 2.82227 12.1259 2.82227 11.9763L2.82227 10.8309C2.82227 10.6813 2.94316 10.5604 3.09271 10.5604ZM7.61089 10.5604L6.46543 10.5604C6.31587 10.5604 6.19498 10.6813 6.19498 10.8309L6.19498 11.9763C6.19498 12.1259 6.31587 12.2468 6.46543 12.2468L7.61089 12.2468C7.76045 12.2468 7.88134 12.1259 7.88134 11.9763L7.88134 10.8309C7.88134 10.6813 7.76045 10.5604 7.61089 10.5604Z" fill="rgb(255,255,255)" fill-rule="evenodd" />
</svg>
