<svg viewBox="0 0 37.995 37.995" xmlns="http://www.w3.org/2000/svg" xmlns:xlink="http://www.w3.org/1999/xlink" width="37.994995" height="37.994995" fill="none" customFrame="#000000">
	<mask id="mask_0" width="36.000000" height="2.808000" x="0.997498" y="34.189514" maskUnits="userSpaceOnUse">
		<g filter="url(#pixso_custom_mask_type_luminance)">
			<g id="mask-2">
				<g id="use">
					<path id="path-1" d="M36.9975 34.1895L36.9975 36.9975L0.997498 36.9975L0.997498 34.1895L36.9975 34.1895Z" fill="rgb(255,255,255)" fill-rule="nonzero" />
				</g>
			</g>
		</g>
	</mask>
	<g>
		<g id="mask" mask="url(#mask_0)">
			<circle id="path5" cx="18.6224976" cy="28.7894897" r="6.75" fill="rgb(255,255,255)" fill-opacity="1" />
		</g>
		<path id="path6" d="M18.5638 4.98474C23.1177 4.98474 26.9553 8.03021 28.1242 12.1821C28.3375 12.9112 28.4633 13.704 28.486 14.56C28.4884 14.6538 28.4897 14.7477 28.4897 14.8419C28.4897 21.8143 29.9332 26.8156 32.8202 29.8459C33.0901 30.127 33.0785 30.5736 32.7959 30.8419C32.6653 30.9659 32.4921 31.0353 32.312 31.0358L5.36091 31.0358C4.97122 31.0346 4.65625 30.7178 4.65741 30.3281C4.65791 30.1626 4.71651 30.0026 4.8234 29.8764C7.36646 26.8492 8.63799 21.8377 8.63799 14.8419L8.64071 14.6092L8.63799 14.8419C8.63799 14.7023 8.64069 14.5644 8.64603 14.4281C8.64859 14.3797 8.65095 14.3315 8.65366 14.2833C8.69244 13.5384 8.81146 12.8433 8.99926 12.1975C10.1627 8.03788 14.0042 4.98474 18.5638 4.98474Z" fill="rgb(255,255,255)" fill-opacity="1" fill-rule="evenodd" />
		<path id="path8" d="M18.5637 2.42249C18.8122 2.42249 19.0137 2.62396 19.0137 2.87249L19.0137 4.82565C19.0137 5.07418 18.8122 5.27565 18.5637 5.27565C18.3152 5.27565 18.1137 5.07418 18.1137 4.82565L18.1137 2.87249C18.1137 2.62396 18.3152 2.42249 18.5637 2.42249Z" fill="rgb(255,255,255)" fill-opacity="1" fill-rule="nonzero" />
	</g>
</svg>
