<svg viewBox="0 0 37.995 37.995" xmlns="http://www.w3.org/2000/svg" xmlns:xlink="http://www.w3.org/1999/xlink" width="37.994995" height="37.994995" fill="none">
	<mask id="mask_1" width="36.000000" height="2.808000" x="0.997498" y="34.189514" maskUnits="userSpaceOnUse">
		<g filter="url(#pixso_custom_mask_type_luminance)">
			<g id="mask-2">
				<g id="use">
					<path id="path-1" d="M36.9975 34.1895L36.9975 36.9975L0.997498 36.9975L0.997498 34.1895L36.9975 34.1895Z" fill="rgb(255,255,255)" fill-rule="nonzero" />
				</g>
			</g>
		</g>
	</mask>
	<g id="ic_public_notice">
		<path id="path1" d="M2.1266 18.9838C2.1266 16.3474 2.11737 13.7111 2.1266 11.0748C2.12129 9.79911 2.27809 8.52789 2.59323 7.29171C3.28394 4.67517 4.98831 3.12238 7.60222 2.51998C8.91286 2.23681 10.2515 2.10413 11.5923 2.12454C16.6478 2.12454 21.7038 2.12454 26.7603 2.12454C28.0373 2.11661 29.3106 2.26266 30.5526 2.55953C33.2456 3.21861 34.8617 4.9243 35.4772 7.60807C35.754 8.87646 35.8862 10.1721 35.8714 11.4703C35.8714 16.5803 35.8714 21.6908 35.8714 26.8017C35.8783 28.0664 35.7327 29.3273 35.4377 30.5572C34.7786 33.2515 33.065 34.8596 30.3813 35.4752C29.0704 35.7573 27.7319 35.89 26.3912 35.8707C21.3567 35.8707 16.3227 35.8707 11.2891 35.8707C10.0023 35.8812 8.71896 35.7373 7.46645 35.4423C4.76159 34.7832 3.13762 33.0696 2.52336 30.3726C2.20964 29.0017 2.1266 27.6269 2.1266 26.2402C2.1266 23.8218 2.1266 21.403 2.1266 18.9838Z" fill="rgb(255,255,255)" fill-opacity="0" fill-rule="nonzero" />
		<path id="path1" d="M2.1266 11.0748C2.12129 9.79911 2.27809 8.52789 2.59323 7.29171C3.28394 4.67517 4.98831 3.12238 7.60222 2.51998C8.91286 2.23681 10.2515 2.10413 11.5923 2.12454C16.6478 2.12454 21.7038 2.12454 26.7603 2.12454C28.0373 2.11661 29.3106 2.26266 30.5526 2.55953C33.2456 3.21861 34.8617 4.9243 35.4772 7.60807C35.754 8.87646 35.8862 10.1721 35.8714 11.4703C35.8714 16.5803 35.8714 21.6908 35.8714 26.8017C35.8783 28.0664 35.7327 29.3273 35.4377 30.5572C34.7786 33.2515 33.065 34.8596 30.3813 35.4752C29.0704 35.7573 27.7319 35.89 26.3912 35.8707C21.3567 35.8707 16.3227 35.8707 11.2891 35.8707C10.0023 35.8812 8.71896 35.7373 7.46645 35.4423C4.76159 34.7832 3.13762 33.0696 2.52336 30.3726C2.20964 29.0017 2.1266 27.6269 2.1266 26.2402C2.1266 23.8218 2.1266 21.403 2.1266 18.9838C2.1266 16.3474 2.11737 13.7111 2.1266 11.0748Z" fill-rule="nonzero" stroke="rgb(255,255,255)" stroke-opacity="0" stroke-width="1.99500012" />
		<path id="path2" d="M2.1266 18.9838C2.1266 16.3474 2.11737 13.7111 2.1266 11.0748C2.12129 9.79911 2.27809 8.52789 2.59323 7.29171C3.28394 4.67517 4.98831 3.12238 7.60222 2.51998C8.91286 2.23681 10.2515 2.10413 11.5923 2.12454C16.6478 2.12454 21.7038 2.12454 26.7603 2.12454C28.0373 2.11661 29.3106 2.26266 30.5526 2.55953C33.2456 3.21861 34.8617 4.9243 35.4772 7.60807C35.754 8.87646 35.8862 10.1721 35.8714 11.4703C35.8714 16.5803 35.8714 21.6908 35.8714 26.8017C35.8783 28.0664 35.7327 29.3273 35.4377 30.5572C34.7786 33.2515 33.065 34.8596 30.3813 35.4752C29.0704 35.7573 27.7319 35.89 26.3912 35.8707C21.3567 35.8707 16.3227 35.8707 11.2891 35.8707C10.0023 35.8812 8.71896 35.7373 7.46645 35.4423C4.76159 34.7832 3.13762 33.0696 2.52336 30.3726C2.20964 29.0017 2.1266 27.6269 2.1266 26.2402C2.1266 23.8218 2.1266 21.403 2.1266 18.9838Z" opacity="0.200000003" fill="rgb(0,0,0)" fill-opacity="0" fill-rule="nonzero" />
		<path id="path2" d="M2.1266 11.0748C2.12129 9.79911 2.27809 8.52789 2.59323 7.29171C3.28394 4.67517 4.98831 3.12238 7.60222 2.51998C8.91286 2.23681 10.2515 2.10413 11.5923 2.12454C16.6478 2.12454 21.7038 2.12454 26.7603 2.12454C28.0373 2.11661 29.3106 2.26266 30.5526 2.55953C33.2456 3.21861 34.8617 4.9243 35.4772 7.60807C35.754 8.87646 35.8862 10.1721 35.8714 11.4703C35.8714 16.5803 35.8714 21.6908 35.8714 26.8017C35.8783 28.0664 35.7327 29.3273 35.4377 30.5572C34.7786 33.2515 33.065 34.8596 30.3813 35.4752C29.0704 35.7573 27.7319 35.89 26.3912 35.8707C21.3567 35.8707 16.3227 35.8707 11.2891 35.8707C10.0023 35.8812 8.71896 35.7373 7.46645 35.4423C4.76159 34.7832 3.13762 33.0696 2.52336 30.3726C2.20964 29.0017 2.1266 27.6269 2.1266 26.2402C2.1266 23.8218 2.1266 21.403 2.1266 18.9838C2.1266 16.3474 2.11737 13.7111 2.1266 11.0748Z" opacity="0.200000003" fill-rule="nonzero" stroke="rgb(255,255,255)" stroke-opacity="0" stroke-width="1.99500012" />
		<circle id="path3" cx="18.9974976" cy="18.9974976" r="18" fill="rgb(255,255,255)" fill-opacity="0" />
		<circle id="path3" cx="18.9974976" cy="18.9974976" r="18" stroke="rgb(0,0,0)" stroke-opacity="0" stroke-width="1.99500012" />
		<g id="path4">
			<path id="path-1" d="M36.9975 34.1895L36.9975 36.9975L0.997498 36.9975L0.997498 34.1895L36.9975 34.1895Z" fill="rgb(255,255,255)" fill-opacity="0" fill-rule="nonzero" />
			<path id="path-1" d="M36.9975 36.9975L0.997498 36.9975L0.997498 34.1895L36.9975 34.1895L36.9975 36.9975Z" fill-rule="nonzero" stroke="rgb(0,0,0)" stroke-opacity="0" stroke-width="1.99500012" />
		</g>
		<g id="mask" mask="url(#mask_1)">
			<circle id="path5" cx="18.6224976" cy="28.7894897" r="6.75" fill="rgb(0,0,0)" fill-opacity="0.400000006" />
			<circle id="path5" cx="18.6224976" cy="28.7894897" r="6.75" stroke="rgb(255,255,255)" stroke-opacity="0.400000006" stroke-linejoin="round" stroke-width="1.99500012" />
		</g>
		<path id="path6" d="M18.5638 4.98474C23.1177 4.98474 26.9553 8.03021 28.1242 12.1821C28.3375 12.9112 28.4633 13.704 28.486 14.56C28.4884 14.6538 28.4897 14.7477 28.4897 14.8419C28.4897 21.8143 29.9332 26.8156 32.8202 29.8459C33.0901 30.127 33.0785 30.5736 32.7959 30.8419C32.6653 30.9659 32.4921 31.0353 32.312 31.0358L5.36091 31.0358C4.97122 31.0346 4.65625 30.7178 4.65741 30.3281C4.65791 30.1626 4.71651 30.0026 4.8234 29.8764C7.36646 26.8492 8.63799 21.8377 8.63799 14.8419L8.64071 14.6092L8.63799 14.8419C8.63799 14.7023 8.64069 14.5644 8.64603 14.4281C8.64859 14.3797 8.65095 14.3315 8.65366 14.2833C8.69244 13.5384 8.81146 12.8433 8.99926 12.1975C10.1627 8.03788 14.0042 4.98474 18.5638 4.98474Z" fill="rgb(0,0,0)" fill-opacity="0.400000006" fill-rule="evenodd" />
		<path id="path6" d="M28.1242 12.1821C28.3375 12.9112 28.4633 13.704 28.486 14.56C28.4884 14.6538 28.4897 14.7477 28.4897 14.8419C28.4897 21.8143 29.9332 26.8156 32.8202 29.8459C33.0901 30.127 33.0785 30.5736 32.7959 30.8419C32.6653 30.9659 32.4921 31.0353 32.312 31.0358L5.36091 31.0358C4.97122 31.0346 4.65625 30.7178 4.65741 30.3281C4.65791 30.1626 4.71651 30.0026 4.8234 29.8764C7.36646 26.8492 8.63799 21.8377 8.63799 14.8419C8.63799 14.7023 8.64069 14.5644 8.64603 14.4281C8.64859 14.3797 8.65095 14.3315 8.65366 14.2833C8.69244 13.5384 8.81146 12.8433 8.99926 12.1975C10.1627 8.03788 14.0042 4.98474 18.5638 4.98474C23.1177 4.98474 26.9553 8.03021 28.1242 12.1821ZM8.63799 14.8419L8.64071 14.6092" fill-rule="evenodd" stroke="rgb(255,255,255)" stroke-opacity="0.400000006" stroke-linecap="round" stroke-linejoin="round" stroke-width="1.99500012" />
		<line id="path7" x1="0" x2="1.95316458" y1="0" y2="0" stroke="rgb(255,255,255)" stroke-opacity="0" stroke-linecap="round" stroke-linejoin="round" stroke-width="1.99500012" transform="matrix(0,1,-1,0,18.5638,2.8725)" />
		<path id="path8" d="M18.5637 2.42249C18.8122 2.42249 19.0137 2.62396 19.0137 2.87249L19.0137 4.82565C19.0137 5.07418 18.8122 5.27565 18.5637 5.27565C18.3152 5.27565 18.1137 5.07418 18.1137 4.82565L18.1137 2.87249C18.1137 2.62396 18.3152 2.42249 18.5637 2.42249Z" fill="rgb(0,0,0)" fill-opacity="0.400000006" fill-rule="nonzero" />
		<path id="path8" d="M19.0137 2.87249L19.0137 4.82565C19.0137 5.07418 18.8122 5.27565 18.5637 5.27565C18.3152 5.27565 18.1137 5.07418 18.1137 4.82565L18.1137 2.87249C18.1137 2.62396 18.3152 2.42249 18.5637 2.42249C18.8122 2.42249 19.0137 2.62396 19.0137 2.87249Z" fill-rule="nonzero" stroke="rgb(255,255,255)" stroke-opacity="0.400000006" stroke-linejoin="round" stroke-width="1.99500012" />
	</g>
</svg>
