<svg width="24.000000" height="24.000000" viewBox="0 0 24 24" fill="none" xmlns="http://www.w3.org/2000/svg" xmlns:xlink="http://www.w3.org/1999/xlink">
	<desc>
			Created with Pixso.
	</desc>
	<defs>
		<clipPath id="clip56_677">
			<rect id="svg" width="24.000000" height="24.000000" fill="white" fill-opacity="0"/>
		</clipPath>
	</defs>
	<g clip-path="url(#clip56_677)">
		<path id="path" d="M9.39 23.11C6.17 23.11 3.02 20.07 1.69 17.2C-0.99 11.47 1.18 5.13 6.86 2.13C9.69 0.63 13.31 0.48 16.57 1.71C19.59 2.86 21.91 5.07 22.93 7.78C24.09 10.88 23.2 14.8 20.92 16.74C19.76 17.72 17.23 19.04 13.31 16.77C12.38 16.23 11.64 16.1 11.32 16.42C10.95 16.81 10.92 17.87 11.44 18.71C12.13 19.83 12.25 21.02 11.75 21.91C11.5 22.36 10.87 23.12 9.4 23.12L9.39 23.11ZM12.09 2.68C10.53 2.68 9.01 3.03 7.7 3.73C2.91 6.26 1.06 11.61 3.32 16.45C4.57 19.14 7.3 21.32 9.39 21.32C9.68 21.32 10.04 21.27 10.17 21.03C10.3 20.79 10.28 20.28 9.89 19.66C8.97 18.16 9.03 16.2 10.02 15.16C10.57 14.6 11.85 13.84 14.2 15.21C16.42 16.5 18.34 16.56 19.75 15.36C21.45 13.92 22.12 10.8 21.22 8.41C20.38 6.18 18.45 4.35 15.92 3.39C14.68 2.92 13.4 2.69 12.08 2.68L12.09 2.68Z" fill="#F1F3F5" fill-opacity="1.000000" fill-rule="nonzero"/>
		<path id="path" d="M17.54 11.4C17.54 11.48 17.55 11.57 17.56 11.65C17.58 11.73 17.61 11.82 17.64 11.9C17.67 11.97 17.71 12.05 17.76 12.12C17.81 12.19 17.86 12.26 17.92 12.32C17.98 12.38 18.05 12.43 18.12 12.48C18.19 12.53 18.27 12.57 18.35 12.6C18.43 12.64 18.51 12.66 18.59 12.68C18.68 12.69 18.76 12.7 18.85 12.7C18.93 12.7 19.02 12.69 19.1 12.68C19.19 12.66 19.27 12.64 19.35 12.6C19.43 12.57 19.5 12.53 19.57 12.48C19.65 12.43 19.71 12.38 19.77 12.32C19.83 12.26 19.89 12.19 19.93 12.12C19.98 12.05 20.02 11.97 20.06 11.9C20.09 11.82 20.11 11.73 20.13 11.65C20.15 11.57 20.16 11.48 20.16 11.4C20.16 11.31 20.15 11.22 20.13 11.14C20.11 11.06 20.09 10.97 20.06 10.89C20.02 10.81 19.98 10.74 19.94 10.67C19.89 10.6 19.83 10.53 19.77 10.47C19.71 10.41 19.65 10.35 19.57 10.31C19.5 10.26 19.43 10.22 19.35 10.19C19.27 10.15 19.19 10.13 19.1 10.11C19.02 10.09 18.93 10.09 18.85 10.09C18.76 10.09 18.68 10.09 18.59 10.11C18.51 10.13 18.43 10.15 18.35 10.19C18.27 10.22 18.19 10.26 18.12 10.31C18.05 10.35 17.98 10.41 17.92 10.47C17.86 10.53 17.81 10.6 17.76 10.67C17.71 10.74 17.67 10.81 17.64 10.89C17.61 10.97 17.58 11.06 17.56 11.14C17.55 11.22 17.54 11.31 17.54 11.4ZM14.94 6.71C14.94 6.8 14.94 6.89 14.96 6.97C14.98 7.05 15 7.14 15.03 7.22C15.07 7.29 15.11 7.37 15.16 7.44C15.2 7.51 15.26 7.58 15.32 7.64C15.38 7.7 15.44 7.75 15.52 7.8C15.59 7.85 15.66 7.89 15.74 7.92C15.82 7.96 15.9 7.98 15.99 8C16.07 8.01 16.16 8.02 16.24 8.02C16.33 8.02 16.41 8.01 16.5 8C16.58 7.98 16.66 7.96 16.74 7.92C16.82 7.89 16.9 7.85 16.97 7.8C17.04 7.75 17.11 7.7 17.17 7.64C17.23 7.58 17.28 7.51 17.33 7.44C17.38 7.37 17.42 7.29 17.45 7.22C17.48 7.14 17.51 7.05 17.53 6.97C17.54 6.89 17.55 6.8 17.55 6.71C17.55 6.63 17.54 6.54 17.53 6.46C17.51 6.38 17.48 6.29 17.45 6.21C17.42 6.14 17.38 6.06 17.33 5.99C17.28 5.92 17.23 5.85 17.17 5.79C17.11 5.73 17.04 5.68 16.97 5.63C16.9 5.58 16.82 5.54 16.74 5.51C16.66 5.47 16.58 5.45 16.5 5.43C16.41 5.42 16.33 5.41 16.24 5.41C16.16 5.41 16.07 5.42 15.99 5.43C15.9 5.45 15.82 5.47 15.74 5.51C15.66 5.54 15.59 5.58 15.52 5.63C15.44 5.68 15.38 5.73 15.32 5.79C15.26 5.85 15.2 5.92 15.16 5.99C15.11 6.06 15.07 6.14 15.03 6.21C15 6.29 14.98 6.38 14.96 6.46C14.94 6.54 14.94 6.63 14.94 6.71ZM9.65 5.8C9.65 5.89 9.66 5.97 9.68 6.06C9.7 6.14 9.72 6.22 9.75 6.3C9.79 6.38 9.83 6.46 9.88 6.53C9.92 6.6 9.98 6.67 10.04 6.73C10.1 6.79 10.16 6.84 10.24 6.89C10.31 6.94 10.38 6.98 10.46 7.01C10.54 7.04 10.62 7.07 10.71 7.09C10.79 7.1 10.88 7.11 10.96 7.11C11.05 7.11 11.13 7.1 11.22 7.09C11.3 7.07 11.38 7.04 11.46 7.01C11.54 6.98 11.62 6.94 11.69 6.89C11.76 6.84 11.83 6.79 11.89 6.73C11.95 6.67 12 6.6 12.05 6.53C12.1 6.46 12.14 6.38 12.17 6.3C12.2 6.22 12.23 6.14 12.25 6.06C12.26 5.97 12.27 5.89 12.27 5.8C12.27 5.72 12.26 5.63 12.25 5.55C12.23 5.46 12.2 5.38 12.17 5.3C12.14 5.22 12.1 5.15 12.05 5.08C12 5 11.95 4.94 11.89 4.88C11.83 4.82 11.76 4.76 11.69 4.72C11.62 4.67 11.54 4.63 11.46 4.59C11.38 4.56 11.3 4.54 11.22 4.52C11.13 4.5 11.05 4.5 10.96 4.5C10.88 4.5 10.79 4.5 10.71 4.52C10.62 4.54 10.54 4.56 10.46 4.59C10.38 4.63 10.31 4.67 10.24 4.72C10.16 4.76 10.1 4.82 10.04 4.88C9.98 4.94 9.92 5 9.88 5.08C9.83 5.15 9.79 5.22 9.75 5.3C9.72 5.38 9.7 5.46 9.68 5.55C9.66 5.63 9.65 5.72 9.65 5.8ZM4.73 9.23C4.73 9.32 4.74 9.41 4.76 9.49C4.78 9.57 4.8 9.66 4.83 9.74C4.87 9.81 4.91 9.89 4.96 9.96C5 10.03 5.06 10.1 5.12 10.16C5.18 10.22 5.24 10.27 5.32 10.32C5.39 10.37 5.46 10.41 5.54 10.44C5.62 10.48 5.7 10.5 5.79 10.52C5.87 10.53 5.96 10.54 6.04 10.54C6.13 10.54 6.21 10.53 6.3 10.52C6.38 10.5 6.46 10.48 6.54 10.44C6.62 10.41 6.7 10.37 6.77 10.32C6.84 10.27 6.91 10.22 6.97 10.16C7.03 10.1 7.08 10.03 7.13 9.96C7.18 9.89 7.22 9.81 7.25 9.74C7.28 9.66 7.31 9.57 7.33 9.49C7.34 9.41 7.35 9.32 7.35 9.23C7.35 9.15 7.34 9.06 7.33 8.98C7.31 8.9 7.28 8.81 7.25 8.73C7.22 8.66 7.18 8.58 7.13 8.51C7.08 8.44 7.03 8.37 6.97 8.31C6.91 8.25 6.84 8.2 6.77 8.15C6.7 8.1 6.62 8.06 6.54 8.03C6.46 7.99 6.38 7.97 6.3 7.95C6.21 7.94 6.13 7.93 6.04 7.93C5.96 7.93 5.87 7.94 5.79 7.95C5.7 7.97 5.62 7.99 5.54 8.03C5.46 8.06 5.39 8.1 5.32 8.15C5.24 8.2 5.18 8.25 5.12 8.31C5.06 8.37 5 8.44 4.96 8.51C4.91 8.58 4.87 8.66 4.83 8.73C4.8 8.81 4.78 8.9 4.76 8.98C4.74 9.06 4.73 9.15 4.73 9.23Z" fill="#F1F3F5" fill-opacity="1.000000" fill-rule="nonzero"/>
	</g>
</svg>
