<svg width="28.000000" height="26.000000" viewBox="0 0 28 26" fill="none" xmlns="http://www.w3.org/2000/svg" xmlns:xlink="http://www.w3.org/1999/xlink">
	<desc>
			Created with Pixso.
	</desc>
	<defs/>
	<path id="矢量 1" d="M27.5 2.67L24.79 0C24.79 0 23.09 4.35 20.04 7.36C18.34 9.03 16.37 10.22 14.95 10.95L14.95 10.87L13.04 11.82L13.04 11.82L13.04 11.82L11.12 12.77L14.95 14.66L14.95 14.64C16.2 15.28 18.46 16.59 20.53 18.63C23.58 21.64 25.28 26 25.28 26L28 23.32C28 23.32 26.3 18.96 23.24 15.95C21.94 14.66 20.39 13.62 19.04 12.85C20.26 12.11 21.6 11.17 22.75 10.04C25.8 7.03 27.5 2.67 27.5 2.67Z" fill="#D1B380" fill-opacity="1.000000" fill-rule="evenodd"/>
	<path id="矢量 2" d="M16.38 2.67L13.67 0C13.67 0 11.97 4.35 8.91 7.36C7.22 9.03 5.25 10.22 3.83 10.95L3.83 10.87L1.92 11.82L1.91 11.82L1.91 11.82L0 12.77L3.83 14.66L3.83 14.64C5.08 15.28 7.34 16.59 9.41 18.63C12.46 21.64 14.16 26 14.16 26L16.87 23.32C16.87 23.32 15.18 18.96 12.12 15.95C10.82 14.66 9.27 13.62 7.92 12.85C9.14 12.11 10.48 11.17 11.63 10.04C14.68 7.03 16.38 2.67 16.38 2.67Z" fill="#D1B380" fill-opacity="1.000000" fill-rule="evenodd"/>
</svg>
