<svg width="28.000000" height="26.000000" viewBox="0 0 28 26" fill="none" xmlns="http://www.w3.org/2000/svg" xmlns:xlink="http://www.w3.org/1999/xlink">
	<desc>
			Created with Pixso.
	</desc>
	<defs/>
	<path id="矢量 1" d="M0.49 2.67L3.2 0C3.2 0 4.9 4.35 7.95 7.36C9.65 9.03 11.62 10.22 13.04 10.95L13.04 10.87L14.95 11.82L14.95 11.82L14.95 11.82L16.87 12.77L13.04 14.66L13.04 14.64C11.79 15.28 9.53 16.59 7.46 18.63C4.41 21.64 2.71 26 2.71 26L0 23.32C0 23.32 1.69 18.96 4.75 15.95C6.05 14.66 7.6 13.62 8.95 12.85C7.73 12.11 6.39 11.17 5.24 10.04C2.19 7.03 0.49 2.67 0.49 2.67Z" fill="#D1B380" fill-opacity="1.000000" fill-rule="evenodd"/>
	<path id="矢量 2" d="M11.61 2.67L14.32 0C14.32 0 16.02 4.35 19.08 7.36C20.77 9.03 22.74 10.22 24.16 10.95L24.16 10.87L26.08 11.82L26.08 11.82L26.08 11.82L28 12.77L24.16 14.66L24.16 14.64C22.91 15.28 20.65 16.59 18.58 18.63C15.53 21.64 13.83 26 13.83 26L11.12 23.32C11.12 23.32 12.81 18.96 15.87 15.95C17.17 14.66 18.72 13.62 20.07 12.85C18.85 12.11 17.51 11.17 16.36 10.04C13.31 7.03 11.61 2.67 11.61 2.67Z" fill="#D1B380" fill-opacity="1.000000" fill-rule="evenodd"/>
</svg>
