<svg width="24.000000" height="24.000000" viewBox="0 0 24 24" fill="none" xmlns="http://www.w3.org/2000/svg" xmlns:xlink="http://www.w3.org/1999/xlink">
	<desc>
			Created with Pixso.
	</desc>
	<defs>
		<clipPath id="clip258_4131">
			<rect id="svg" width="24.000000" height="24.000000" fill="white" fill-opacity="0"/>
		</clipPath>
	</defs>
	<g clip-path="url(#clip258_4131)">
		<path id="path" d="M19.87 9.37C21.33 9.37 22.4 9.75 23.09 10.52C23.69 11.19 24 12.16 24 13.43L24 20.1L22.12 20.1L22.12 18.63C21.73 19.15 21.25 19.58 20.68 19.88C20.03 20.2 19.26 20.39 18.38 20.39C17.34 20.39 16.54 20.1 15.96 19.56C15.33 19.01 15.02 18.3 15.02 17.43C15.02 16.26 15.46 15.35 16.34 14.72C17.15 14.12 18.3 13.81 19.76 13.77L21.98 13.71L21.98 13.29C21.98 11.83 21.23 11.11 19.74 11.11C19.1 11.11 18.59 11.23 18.2 11.47C17.74 11.75 17.46 12.18 17.34 12.76L15.33 12.58C15.54 11.45 16.07 10.6 16.92 10.07C17.65 9.59 18.64 9.37 19.87 9.37ZM8.74 3.6L14.77 20.1L12.2 20.1L10.73 15.85L4.01 15.85L2.54 20.1L0 20.1L6.02 3.6L8.74 3.6ZM21.98 15.27L19.89 15.33C18.03 15.37 17.11 16.06 17.11 17.35C17.11 17.76 17.26 18.08 17.59 18.34C17.9 18.61 18.32 18.75 18.84 18.75C19.7 18.75 20.43 18.46 21.04 17.92C21.66 17.37 21.98 16.69 21.98 15.88L21.98 15.27ZM7.42 6.31L7.34 6.31L4.73 13.77L10.01 13.77L7.42 6.31Z" fill="#000000" fill-opacity="0.898039" fill-rule="nonzero"/>
	</g>
</svg>
