<svg width="21.544922" height="21.544922" viewBox="0 0 21.5449 21.5449" fill="none" xmlns="http://www.w3.org/2000/svg" xmlns:xlink="http://www.w3.org/1999/xlink">
	<desc>
			Created with Pixso.
	</desc>
	<defs/>
	<path id="path" d="M15.02 0.86C14.63 0.49 14.18 0.24 13.66 0.1C13.14 -0.04 12.62 -0.04 12.11 0.09C11.6 0.21 11.16 0.47 10.77 0.86L0.86 10.77C0.47 11.15 0.22 11.61 0.09 12.13C-0.04 12.65 -0.04 13.16 0.09 13.67C0.22 14.18 0.47 14.63 0.86 15.02L6.52 20.66C6.92 21.06 7.38 21.32 7.9 21.45C8.42 21.57 8.94 21.57 9.45 21.44C9.96 21.3 10.4 21.04 10.77 20.66L20.66 10.77C21.04 10.38 21.3 9.93 21.44 9.41C21.57 8.89 21.57 8.37 21.44 7.87C21.3 7.35 21.04 6.9 20.66 6.52L15.02 0.86ZM9.71 19.6C9.41 19.9 9.06 20.06 8.65 20.06C8.24 20.06 7.88 19.9 7.58 19.6L1.94 13.94C1.63 13.65 1.48 13.3 1.48 12.88C1.48 12.46 1.63 12.11 1.94 11.83L4 9.74L11.8 17.54L9.71 19.6ZM12.86 16.46L5.08 8.68L11.83 1.94C12.13 1.63 12.48 1.48 12.89 1.48C13.3 1.48 13.66 1.63 13.96 1.94L19.6 7.58C19.91 7.88 20.06 8.23 20.06 8.65C20.06 9.05 19.91 9.41 19.6 9.71L12.86 16.46Z" fill="#000000" fill-opacity="0.898039" fill-rule="nonzero"/>
</svg>
