<svg width="19.509766" height="21.879883" viewBox="0 0 19.5098 21.8799" fill="none" xmlns="http://www.w3.org/2000/svg" xmlns:xlink="http://www.w3.org/1999/xlink">
	<desc>
			Created with Pixso.
	</desc>
	<defs/>
	<path id="path" d="M6.72 4.62C6.91 4.62 7.08 4.55 7.22 4.41C7.37 4.27 7.43 4.09 7.43 3.87C7.43 3.45 7.54 3.04 7.77 2.66C7.98 2.29 8.27 2 8.64 1.77C9.02 1.56 9.43 1.45 9.87 1.45C10.29 1.45 10.7 1.56 11.08 1.77C11.45 2 11.75 2.29 11.97 2.66C12.18 3.04 12.29 3.45 12.29 3.87C12.29 4.09 12.36 4.27 12.5 4.41C12.64 4.55 12.82 4.62 13.02 4.62L18.77 4.62C18.97 4.62 19.15 4.55 19.29 4.41C19.43 4.27 19.5 4.09 19.5 3.87C19.5 3.67 19.43 3.5 19.29 3.35C19.15 3.21 18.97 3.14 18.77 3.14L13.68 3.14C13.52 2.24 13.08 1.5 12.35 0.89C11.64 0.29 10.79 0 9.83 0C8.89 0 8.07 0.29 7.35 0.89C6.64 1.5 6.2 2.24 6.02 3.14L0.75 3.14C0.53 3.14 0.35 3.21 0.22 3.35C0.07 3.5 0 3.67 0 3.87C0 4.09 0.07 4.27 0.22 4.41C0.35 4.55 0.53 4.62 0.75 4.62L6.72 4.62ZM11.62 17.08C11.82 17.08 12 17.01 12.14 16.87C12.29 16.74 12.37 16.57 12.39 16.35L12.62 9C12.64 8.78 12.57 8.6 12.41 8.45C12.26 8.3 12.08 8.22 11.87 8.2C11.68 8.2 11.52 8.27 11.37 8.41C11.23 8.54 11.16 8.71 11.16 8.91L10.87 16.29C10.85 16.49 10.92 16.67 11.08 16.83C11.23 16.98 11.41 17.06 11.62 17.08ZM7.95 17.08C8.15 17.06 8.33 16.98 8.49 16.83C8.63 16.67 8.7 16.49 8.68 16.29L8.37 8.91C8.37 8.71 8.31 8.54 8.16 8.41C8.03 8.27 7.85 8.2 7.62 8.2C7.42 8.22 7.25 8.3 7.1 8.45C6.96 8.6 6.89 8.78 6.91 9L7.18 16.35C7.21 16.57 7.29 16.74 7.43 16.87C7.56 17.01 7.73 17.08 7.95 17.08ZM15.31 19.14C15.26 19.51 15.11 19.81 14.85 20.04C14.6 20.28 14.29 20.39 13.95 20.39L5.58 20.39C5.24 20.39 4.93 20.28 4.66 20.04C4.4 19.81 4.25 19.51 4.22 19.14L3.18 5.95L1.72 5.95L2.75 19.29C2.79 19.79 2.94 20.23 3.2 20.62C3.47 21.01 3.81 21.32 4.22 21.54C4.64 21.77 5.09 21.87 5.58 21.87L13.95 21.87C14.44 21.87 14.89 21.77 15.29 21.54C15.7 21.32 16.04 21.01 16.31 20.62C16.57 20.23 16.73 19.79 16.77 19.29L17.79 5.95L16.31 5.95L15.31 19.14Z" fill="#000000" fill-opacity="0.4" fill-rule="nonzero"/>
</svg>
