<svg width="24.000000" height="24.000000" viewBox="0 0 24 24" fill="none" xmlns="http://www.w3.org/2000/svg" xmlns:xlink="http://www.w3.org/1999/xlink">
	<desc>
			Created with Pixso.
	</desc>
	<defs>
		<clipPath id="clip213_10099">
			<rect id="ic_play_circle" width="24.000000" height="24.000000" fill="white" fill-opacity="0"/>
		</clipPath>
	</defs>
	<g clip-path="url(#clip213_10099)">
		<g opacity="0.000000">
			<rect id="rect" width="24.000000" height="24.000000" fill="#000000" fill-opacity="1.000000"/>
		</g>
		<path id="path" d="M10.19 7.6C9.99 7.49 9.77 7.45 9.54 7.5C9.32 7.54 9.14 7.65 8.98 7.83C8.83 8.02 8.75 8.22 8.75 8.47L8.75 15.54C8.75 15.79 8.83 16 8.98 16.18C9.14 16.35 9.32 16.45 9.54 16.5C9.77 16.54 9.99 16.5 10.19 16.39L16.33 12.83C16.55 12.72 16.69 12.56 16.77 12.33C16.85 12.11 16.85 11.89 16.77 11.68C16.69 11.46 16.55 11.28 16.33 11.16L10.19 7.6Z" fill="#2070F3" fill-opacity="1.000000" fill-rule="nonzero"/>
		<path id="path" d="M12 2.5C13.71 2.5 15.29 2.92 16.75 3.77C18.2 4.63 19.36 5.78 20.21 7.25C21.07 8.7 21.5 10.28 21.5 12C21.5 13.71 21.07 15.29 20.21 16.75C19.36 18.2 18.2 19.36 16.75 20.21C15.29 21.07 13.71 21.5 12 21.5C10.28 21.5 8.7 21.07 7.25 20.21C5.78 19.36 4.63 18.2 3.77 16.75C2.92 15.29 2.5 13.71 2.5 12C2.5 10.28 2.92 8.7 3.77 7.25C4.63 5.78 5.78 4.63 7.25 3.77C8.7 2.92 10.28 2.5 12 2.5ZM12 1C10 1 8.15 1.5 6.47 2.47C4.79 3.46 3.46 4.79 2.47 6.47C1.5 8.15 1 10 1 12C1 14 1.5 15.83 2.47 17.51C3.46 19.19 4.79 20.53 6.47 21.51C8.15 22.5 10 22.98 12 22.98C13.98 22.98 15.82 22.5 17.5 21.51C19.19 20.53 20.53 19.19 21.51 17.5C22.5 15.82 22.98 13.98 22.98 12C22.98 10.01 22.5 8.17 21.51 6.48C20.53 4.8 19.19 3.46 17.5 2.47C15.82 1.5 13.98 1 12 1Z" fill="#2070F3" fill-opacity="1.000000" fill-rule="nonzero"/>
	</g>
</svg>
