<svg width="24.000000" height="24.000000" viewBox="0 0 24 24" fill="none" xmlns="http://www.w3.org/2000/svg" xmlns:xlink="http://www.w3.org/1999/xlink">
	<desc>
			Created with Pixso.
	</desc>
	<defs>
		<clipPath id="clip200_9930">
			<rect id="ic_public_copy" width="24.000000" height="24.000000" fill="white" fill-opacity="0"/>
		</clipPath>
	</defs>
	<g clip-path="url(#clip200_9930)">
		<g opacity="0.000000">
			<rect id="rect" width="24.000000" height="24.000000" fill="#000000" fill-opacity="1.000000"/>
		</g>
		<path id="path" d="M15.25 7.22C15.67 7.22 16.03 7.37 16.31 7.67C16.6 7.96 16.75 8.32 16.75 8.74L16.75 18.72C16.75 19.13 16.6 19.49 16.31 19.79C16.03 20.08 15.67 20.23 15.25 20.23L5.25 20.23C4.83 20.23 4.48 20.08 4.19 19.79C3.91 19.49 3.76 19.13 3.76 18.72L3.76 8.74C3.76 8.32 3.91 7.96 4.19 7.67C4.48 7.37 4.83 7.22 5.25 7.22L15.25 7.22ZM5.25 5.74C4.71 5.74 4.21 5.87 3.75 6.14C3.29 6.41 2.93 6.78 2.65 7.24C2.39 7.69 2.25 8.19 2.25 8.74L2.25 18.72C2.25 19.26 2.39 19.77 2.65 20.23C2.93 20.69 3.29 21.06 3.75 21.32C4.21 21.58 4.71 21.72 5.25 21.72L15.25 21.72C15.8 21.72 16.3 21.58 16.75 21.32C17.21 21.06 17.58 20.69 17.85 20.23C18.12 19.77 18.25 19.26 18.25 18.72L18.25 8.74C18.25 8.19 18.12 7.69 17.85 7.24C17.58 6.78 17.21 6.41 16.75 6.14C16.3 5.87 15.8 5.74 15.25 5.74L5.25 5.74ZM10.93 13.08L10.93 9.82C10.93 9.51 10.81 9.3 10.56 9.18C10.32 9.06 10.07 9.06 9.81 9.18C9.55 9.3 9.42 9.51 9.42 9.82L9.42 13.08L6.18 13.08C5.88 13.08 5.67 13.2 5.53 13.45C5.41 13.69 5.41 13.94 5.53 14.2C5.67 14.44 5.88 14.57 6.18 14.57L9.42 14.57L9.42 17.81C9.42 18.13 9.55 18.35 9.81 18.48C10.07 18.6 10.32 18.6 10.56 18.48C10.81 18.35 10.93 18.13 10.93 17.81L10.93 14.57L14.17 14.57C14.5 14.57 14.72 14.44 14.85 14.2C14.98 13.94 14.98 13.69 14.85 13.45C14.72 13.2 14.5 13.08 14.17 13.08L10.93 13.08Z" fill="#000000" fill-opacity="0.898039" fill-rule="nonzero"/>
		<path id="path" d="M9.71 2.25C8.96 2.25 8.27 2.45 7.64 2.83C7.01 3.23 6.52 3.75 6.18 4.41L8.04 4.41C8.27 4.2 8.54 4.04 8.81 3.93C9.1 3.82 9.39 3.76 9.71 3.76L17.73 3.76C18.18 3.76 18.6 3.87 18.98 4.09C19.36 4.32 19.67 4.63 19.89 5.01C20.12 5.39 20.23 5.81 20.23 6.25L20.23 14.25C20.23 14.57 20.16 14.88 20.04 15.16C19.93 15.45 19.76 15.71 19.56 15.93L19.56 17.77C20.21 17.44 20.73 16.96 21.12 16.32C21.52 15.69 21.71 15 21.71 14.25L21.71 6.25C21.71 5.53 21.54 4.87 21.18 4.25C20.81 3.64 20.33 3.15 19.73 2.79C19.12 2.43 18.45 2.25 17.73 2.25L9.71 2.25Z" fill="#000000" fill-opacity="0.898039" fill-rule="nonzero"/>
	</g>
</svg>
