<svg width="24.000000" height="24.000000" viewBox="0 0 24 24" fill="none" xmlns="http://www.w3.org/2000/svg" xmlns:xlink="http://www.w3.org/1999/xlink">
	<desc>
			Created with Pixso.
	</desc>
	<defs>
		<clipPath id="clip213_10473">
			<rect id="ic_public_speed" width="24.000000" height="24.000000" fill="white" fill-opacity="0"/>
		</clipPath>
	</defs>
	<g clip-path="url(#clip213_10473)">
		<g opacity="0.000000">
			<rect id="rect" width="24.000000" height="24.000000" fill="#000000" fill-opacity="1.000000"/>
		</g>
		<path id="path" d="M11.25 15.36C11.41 15.36 11.54 15.3 11.62 15.2C11.7 15.1 11.74 14.96 11.74 14.78L11.74 12.82C11.74 12.62 11.69 12.47 11.58 12.37C11.49 12.27 11.35 12.22 11.16 12.22L8.16 12.22C7.98 12.22 7.84 12.27 7.74 12.37C7.63 12.47 7.58 12.62 7.58 12.82L7.58 14.78C7.58 14.96 7.62 15.1 7.7 15.2C7.78 15.3 7.9 15.36 8.05 15.36C8.2 15.36 8.32 15.32 8.41 15.26C8.52 15.2 8.57 15.1 8.58 14.98L10.78 14.98C10.79 15.12 10.83 15.22 10.9 15.28C10.96 15.33 11.08 15.36 11.25 15.36ZM8.57 13.1L10.78 13.1L10.78 14.09L8.57 14.09L8.57 13.1ZM7 8.11C6.86 8.06 6.73 8.07 6.62 8.14C6.51 8.22 6.42 8.34 6.36 8.52C6 9.54 5.57 10.42 5.05 11.16C5 11.27 4.96 11.4 4.95 11.51C4.94 11.61 4.96 11.72 5.02 11.86C5.09 12.03 5.22 12.11 5.38 12.11C5.55 12.1 5.69 12 5.8 11.81L5.86 14.76C5.86 14.93 5.9 15.07 5.99 15.18C6.07 15.3 6.19 15.36 6.33 15.36C6.5 15.36 6.61 15.3 6.67 15.2C6.75 15.1 6.79 14.95 6.79 14.76L6.79 10.01C6.88 9.83 7.05 9.43 7.29 8.83C7.36 8.63 7.36 8.47 7.32 8.35C7.27 8.22 7.16 8.14 7 8.11ZM17.25 8.11C17.11 8.11 16.99 8.16 16.91 8.27C16.82 8.37 16.78 8.51 16.78 8.68L16.78 8.81L15.42 8.81C15.25 8.81 15.11 8.85 15 8.93C14.91 9.01 14.86 9.11 14.86 9.24C14.86 9.38 14.91 9.5 15 9.58C15.11 9.66 15.25 9.7 15.42 9.7L16.78 9.7L16.78 10.03L15.65 10.03C15.46 10.03 15.33 10.08 15.23 10.18C15.12 10.29 15.07 10.43 15.07 10.61L15.07 11.66C15.07 11.84 15.12 11.98 15.23 12.08C15.33 12.18 15.46 12.24 15.65 12.24L16.38 12.24C16.11 12.51 15.73 12.8 15.24 13.1C15.08 13.2 14.97 13.31 14.91 13.43C14.86 13.56 14.87 13.69 14.98 13.82C15.07 13.95 15.18 14.02 15.32 14.04C15.46 14.05 15.59 14 15.74 13.89C16.21 13.54 16.56 13.26 16.78 13.06L16.78 13.8C16.78 13.97 16.82 14.11 16.9 14.22C16.98 14.32 17.09 14.38 17.25 14.38C17.41 14.38 17.54 14.32 17.62 14.22C17.7 14.11 17.74 13.97 17.74 13.8L17.74 13.08C18.36 13.52 18.7 13.77 18.77 13.82C18.92 13.93 19.08 13.98 19.21 13.98C19.36 13.97 19.47 13.89 19.54 13.75C19.62 13.62 19.63 13.49 19.59 13.37C19.55 13.24 19.46 13.13 19.32 13.03C18.77 12.71 18.35 12.44 18.07 12.24L18.88 12.24C19.08 12.25 19.23 12.21 19.33 12.11C19.43 12 19.49 11.85 19.49 11.66L19.49 10.63C19.49 10.43 19.43 10.29 19.33 10.18C19.23 10.08 19.08 10.03 18.88 10.03L17.74 10.03L17.74 9.7L19.12 9.7C19.3 9.7 19.44 9.66 19.55 9.58C19.67 9.5 19.73 9.39 19.73 9.26C19.73 9.13 19.67 9.02 19.55 8.93C19.44 8.85 19.3 8.81 19.12 8.81L17.74 8.81L17.74 8.59C17.74 8.43 17.7 8.31 17.62 8.22C17.54 8.14 17.41 8.11 17.25 8.11ZM15.98 11.39L15.98 10.85L16.78 10.85L16.78 11.39L15.98 11.39ZM18.58 11.39L17.74 11.39L17.74 10.85L18.58 10.85L18.58 11.39ZM13.7 9.91C13.83 10.05 13.96 10.14 14.09 10.18C14.23 10.2 14.35 10.17 14.46 10.08C14.58 9.98 14.64 9.87 14.65 9.72C14.65 9.59 14.6 9.45 14.5 9.31C14.38 9.13 14.25 8.97 14.08 8.83L13.84 8.54C13.75 8.43 13.64 8.38 13.54 8.38C13.42 8.38 13.3 8.41 13.17 8.5C13.04 8.59 12.98 8.7 13 8.83C13 8.95 13.06 9.1 13.17 9.26L13.7 9.91ZM12.65 11.23C12.65 11.39 12.69 11.5 12.79 11.58C12.88 11.65 13.03 11.68 13.21 11.68L13.55 11.68L13.55 13.46L12.86 14.26C12.75 14.36 12.7 14.49 12.7 14.63C12.7 14.76 12.74 14.89 12.82 15.02C12.9 15.15 13.01 15.2 13.16 15.18C13.31 15.15 13.44 15.06 13.55 14.89L14.04 14.3C14.32 14.64 14.63 14.88 14.96 15.02C15.29 15.16 15.73 15.25 16.27 15.29C16.97 15.32 17.55 15.34 18 15.34C18.6 15.34 19.05 15.33 19.33 15.31C19.66 15.27 19.86 15.11 19.94 14.83C19.97 14.68 19.92 14.57 19.8 14.48C19.69 14.39 19.53 14.36 19.33 14.38C19.02 14.39 18.57 14.39 18 14.39C17.28 14.39 16.73 14.38 16.37 14.35C15.88 14.33 15.59 14.18 15.32 14.04C15.04 13.89 14.71 13.73 14.46 13.39L14.46 11.35C14.46 11.15 14.41 11.01 14.32 10.91C14.21 10.8 14.06 10.75 13.87 10.75L13.2 10.75C13.02 10.75 12.88 10.79 12.79 10.87C12.69 10.95 12.65 11.07 12.65 11.23ZM7 11.28C7 11.42 7.06 11.54 7.17 11.62C7.28 11.7 7.42 11.74 7.61 11.74L11.74 11.74C11.91 11.74 12.05 11.7 12.16 11.62C12.28 11.54 12.33 11.42 12.33 11.28C12.33 11.12 12.28 11 12.16 10.91C12.05 10.84 11.91 10.8 11.74 10.8L11.11 10.8L11.17 10.41C11.25 10.18 11.3 9.95 11.33 9.74L11.58 9.74C11.73 9.74 11.85 9.7 11.94 9.62C12.02 9.54 12.07 9.43 12.07 9.29C12.07 9.14 12.01 9.03 11.9 8.95C11.79 8.87 11.65 8.83 11.46 8.83L10.2 8.83C10.1 8.55 10.04 8.39 10.03 8.33C9.96 8.18 9.87 8.07 9.75 8C9.63 7.93 9.5 7.91 9.36 7.93C9.21 7.97 9.11 8.06 9.07 8.2C9.02 8.35 9.03 8.5 9.09 8.66C9.12 8.71 9.15 8.77 9.16 8.83L7.96 8.83C7.79 8.83 7.64 8.87 7.54 8.95C7.42 9.03 7.37 9.14 7.37 9.29C7.37 9.43 7.42 9.54 7.54 9.62C7.64 9.7 7.79 9.74 7.96 9.74C8.04 10.09 8.19 10.44 8.25 10.8L7.61 10.8C7.42 10.8 7.28 10.84 7.17 10.93C7.06 11.01 7 11.13 7 11.28ZM10.37 9.74C10.33 9.93 10.29 10.13 10.25 10.34L10.15 10.8L9.21 10.8C9.2 10.56 9.13 10.2 9.02 9.74L10.37 9.74Z" fill="#000000" fill-opacity="0.898039" fill-rule="nonzero"/>
		<path id="path" d="M3.04 7L2.74 10.12C2.74 10.18 2.75 10.24 2.79 10.29C2.83 10.34 2.89 10.37 2.95 10.37C3.03 10.37 3.08 10.34 3.12 10.29L6.25 6.33C6.31 6.25 6.32 6.18 6.28 6.1C6.24 6.03 6.17 6 6.09 6L4.67 6L4.99 2.85C4.99 2.79 4.96 2.73 4.92 2.68C4.88 2.64 4.83 2.62 4.78 2.62C4.71 2.62 4.65 2.64 4.61 2.68L1.49 6.64C1.42 6.7 1.41 6.78 1.45 6.87C1.51 6.96 1.58 7 1.66 7L3.04 7ZM12 0.97C11.07 0.97 10.16 1.09 9.25 1.31C8.36 1.54 7.51 1.88 6.71 2.33C6.54 2.42 6.42 2.56 6.36 2.77C6.29 2.97 6.31 3.16 6.42 3.33C6.53 3.51 6.66 3.63 6.84 3.7C7.03 3.75 7.21 3.75 7.38 3.66C8.07 3.28 8.86 2.97 9.63 2.77C10.41 2.56 11.2 2.47 12 2.47C13.72 2.47 15.32 2.89 16.78 3.75C18.23 4.61 19.38 5.76 20.24 7.22C21.09 8.68 21.53 10.27 21.53 12C21.53 13.72 21.09 15.31 20.24 16.77C19.38 18.23 18.23 19.38 16.78 20.23C15.32 21.1 13.72 21.52 12 21.52C10.27 21.52 8.69 21.11 7.25 20.29C5.82 19.47 4.68 18.35 3.83 16.93C2.96 15.53 2.51 13.97 2.46 12.25C2.46 12.05 2.38 11.87 2.22 11.73C2.07 11.59 1.89 11.52 1.7 11.54C1.49 11.54 1.32 11.61 1.17 11.77C1.03 11.92 0.95 12.1 0.95 12.31C1 14.27 1.53 16.07 2.53 17.7C3.53 19.34 4.86 20.63 6.54 21.58C8.21 22.54 10.03 23.02 12 23.02C13.98 23.02 15.82 22.52 17.5 21.52C19.19 20.53 20.53 19.19 21.53 17.5C22.52 15.82 23.01 13.98 23.01 12C23.01 10.01 22.52 8.17 21.53 6.48C20.53 4.8 19.19 3.46 17.5 2.47C15.82 1.47 13.98 0.97 12 0.97Z" fill="#000000" fill-opacity="0.898039" fill-rule="nonzero"/>
	</g>
</svg>
