<svg width="64.000000" height="64.000000" viewBox="0 0 64 64" fill="none" xmlns="http://www.w3.org/2000/svg" xmlns:xlink="http://www.w3.org/1999/xlink">
	<desc>
			Created with Pixso.
	</desc>
	<defs>
		<clipPath id="clip197_8954">
			<rect id="ic_public_mic_filled.svg" width="64.000000" height="64.000000" fill="white" fill-opacity="0"/>
		</clipPath>
	</defs>
	<g clip-path="url(#clip197_8954)">
		<circle id="path2" cx="32.000000" cy="32.000000" r="32.000000" fill="#FFFFFF" fill-opacity="0"/>
		<path id="合并" d="M32 0C25 0 19.33 5.66 19.33 12.66L19.33 28.66C19.33 35.65 25 41.33 32 41.33C38.98 41.33 44.66 35.65 44.66 28.66L44.66 12.66C44.66 5.66 38.98 0 32 0ZM14 28.66C14 31.14 14.42 33.43 15.3 35.57C16.18 37.69 17.5 39.62 19.26 41.38C21.02 43.14 22.96 44.46 25.08 45.34C27.2 46.21 29.5 46.66 32 46.66C34.48 46.66 36.78 46.21 38.9 45.34C41.02 44.46 42.96 43.14 44.72 41.38C46.48 39.62 47.8 37.69 48.68 35.57C49.56 33.43 50 31.14 50 28.66C50 26.78 51.45 25.33 53.33 25.33C55.2 25.33 56.66 26.78 56.66 28.66C56.66 32.06 56.05 35.21 54.85 38.11C53.65 41.03 51.84 43.69 49.43 46.1C47.02 48.5 44.37 50.31 41.46 51.51C39.53 52.31 37.48 52.85 35.33 53.11L35.33 57.33L40 57.33C41.86 57.33 43.33 58.78 43.33 60.66C43.33 62.53 41.86 64 40 64L24 64C22.13 64 20.66 62.53 20.66 60.66C20.66 58.78 22.13 57.33 24 57.33L28.66 57.33L28.66 53.11C26.5 52.85 24.46 52.31 22.52 51.51C19.61 50.31 16.95 48.5 14.54 46.1C12.14 43.69 10.33 41.03 9.13 38.11C7.93 35.21 7.33 32.06 7.33 28.66C7.33 26.78 8.78 25.33 10.66 25.33C12.53 25.33 14 26.78 14 28.66Z" fill="#FFFFFF" fill-opacity="1.000000" fill-rule="evenodd"/>
	</g>
</svg>
