<svg viewBox="0 0 40 40" xmlns="http://www.w3.org/2000/svg" xmlns:xlink="http://www.w3.org/1999/xlink" width="40.000000" height="40.000000" fill="none" customFrame="url(#clipPath_0)">
	<defs>
		<clipPath id="clipPath_0">
			<rect width="40.000000" height="40.000000" x="0.000000" y="0.000000" rx="20.000000" fill="rgb(255,255,255)" />
		</clipPath>
		<clipPath id="clipPath_1">
			<rect width="18.000000" height="18.000000" x="11.000000" y="11.000000" fill="rgb(255,255,255)" />
		</clipPath>
		<clipPath id="clipPath_2">
			<rect width="18.000000" height="18.000000" x="11.000000" y="11.000000" fill="rgb(255,255,255)" />
		</clipPath>
	</defs>
	<rect id=".close btn" width="40.000000" height="40.000000" x="0.000000" y="0.000000" rx="20.000000" fill="rgb(0,0,0)" fill-opacity="0.0470588244" />
	<g id=".Small cancel" customFrame="url(#clipPath_1)">
		<rect id=".Small cancel" width="18.000000" height="18.000000" x="11.000000" y="11.000000" />
		<g id="xmark" clip-path="url(#clipPath_2)" customFrame="url(#clipPath_2)">
			<rect id="xmark" width="18.000000" height="18.000000" x="11.000000" y="11.000000" />
			<rect id="rect" width="18.000000" height="18.000000" x="11.000000" y="11.000000" opacity="0" />
			<path id="" d="M25.8315 15.1216C25.9399 15.0015 25.9941 14.8667 25.9941 14.7173C25.9941 14.5649 25.9399 14.4346 25.8315 14.3262C25.7231 14.2061 25.5913 14.146 25.436 14.146C25.2808 14.146 25.1489 14.2061 25.0405 14.3262L20 19.3667L14.9595 14.3262C14.8511 14.2061 14.7192 14.146 14.564 14.146C14.4087 14.146 14.271 14.2061 14.1509 14.3262C14.0542 14.4346 14.0059 14.5649 14.0059 14.7173C14.0059 14.8667 14.0542 15.0015 14.1509 15.1216L19.209 20.1621L14.1509 25.1807C14.0542 25.3008 14.0059 25.4399 14.0059 25.5981C14.0059 25.7534 14.0542 25.8853 14.1509 25.9937C14.271 26.0874 14.4087 26.1372 14.564 26.1431C14.7192 26.1489 14.8511 26.0991 14.9595 25.9937L20 20.9531L25.0405 25.9937C25.1489 26.0991 25.2808 26.1519 25.436 26.1519C25.5913 26.1519 25.7231 26.0991 25.8315 25.9937C25.9399 25.8853 25.9941 25.7534 25.9941 25.5981C25.9941 25.4399 25.9399 25.3008 25.8315 25.1807L20.791 20.1621L25.8315 15.1216Z" fill="rgb(0,0,0)" fill-opacity="0.898039222" fill-rule="nonzero" />
		</g>
	</g>
</svg>
