<svg width="56.000000" height="56.000000" viewBox="0 0 56 56" fill="none" xmlns="http://www.w3.org/2000/svg" xmlns:xlink="http://www.w3.org/1999/xlink">
	<desc>
			Created with Pixso.
	</desc>
	<defs>
		<clipPath id="clip200_8816">
			<rect id="ic_StopButton" width="56.000000" height="56.000000" fill="white" fill-opacity="0"/>
		</clipPath>
	</defs>
	<g clip-path="url(#clip200_8816)">
		<g opacity="0.000000">
			<rect id="rect" x="-5.000000" width="56.000000" height="56.000000" fill="#000000" fill-opacity="1.000000"/>
		</g>
		<path id="path" d="M21.64 38.7C21.1 38.7 20.65 38.52 20.29 38.17C19.92 37.83 19.74 37.39 19.74 36.86L19.74 19.13C19.74 18.6 19.92 18.15 20.29 17.78C20.65 17.41 21.1 17.23 21.64 17.23C22.16 17.23 22.61 17.41 22.98 17.78C23.35 18.15 23.54 18.6 23.54 19.13L23.54 36.86C23.54 37.39 23.35 37.83 22.98 38.17C22.61 38.52 22.16 38.7 21.64 38.7ZM34.35 38.7C33.83 38.7 33.38 38.52 33.01 38.17C32.64 37.83 32.45 37.39 32.45 36.86L32.45 19.13C32.45 18.6 32.64 18.15 33.01 17.78C33.38 17.41 33.83 17.23 34.35 17.23C34.89 17.23 35.34 17.41 35.7 17.78C36.07 18.15 36.25 18.6 36.25 19.13L36.25 36.86C36.25 37.39 36.07 37.83 35.7 38.17C35.34 38.52 34.89 38.7 34.35 38.7ZM28 0C22.94 0 18.26 1.25 13.96 3.75C9.66 6.26 6.26 9.66 3.75 13.96C1.25 18.26 0 22.94 0 28C0 33.05 1.25 37.73 3.75 42.03C6.26 46.33 9.66 49.73 13.96 52.24C18.26 54.74 22.94 56 28 56C33.05 56 37.73 54.74 42.03 52.24C46.33 49.73 49.73 46.33 52.24 42.03C54.74 37.73 56 33.05 56 28C56 22.94 54.74 18.26 52.24 13.96C49.73 9.66 46.33 6.26 42.03 3.75C37.73 1.25 33.05 0 28 0Z" fill="#2070F3" fill-opacity="1.000000" fill-rule="nonzero"/>
	</g>
</svg>
