<svg width="24.000000" height="24.000000" viewBox="0 0 24 24" fill="none" xmlns="http://www.w3.org/2000/svg" xmlns:xlink="http://www.w3.org/1999/xlink">
	<desc>
			Created with Pixso.
	</desc>
	<defs>
		<clipPath id="clip213_10479">
			<rect id="ic_slider_vertical_3" width="24.000000" height="24.000000" fill="white" fill-opacity="0"/>
		</clipPath>
	</defs>
	<g clip-path="url(#clip213_10479)">
		<g opacity="0.000000">
			<rect id="rect" width="24.000000" height="24.000000" fill="#000000" fill-opacity="1.000000"/>
		</g>
		<path id="path" d="M12.74 2.76C12.74 2.55 12.66 2.37 12.53 2.22C12.38 2.06 12.2 1.99 12 1.99C11.79 1.99 11.61 2.06 11.46 2.22C11.3 2.37 11.22 2.55 11.22 2.76L11.22 4.8C10.68 4.96 10.24 5.27 9.87 5.74C9.51 6.2 9.33 6.72 9.33 7.32C9.33 7.91 9.51 8.44 9.86 8.9C10.21 9.36 10.66 9.68 11.22 9.86L11.22 21.24C11.22 21.44 11.3 21.62 11.46 21.77C11.61 21.91 11.79 21.98 12 21.98C12.2 21.98 12.38 21.91 12.53 21.77C12.66 21.62 12.74 21.44 12.74 21.24L12.74 9.86C13.29 9.68 13.75 9.37 14.12 8.92C14.47 8.46 14.66 7.92 14.66 7.32C14.66 6.72 14.47 6.2 14.12 5.74C13.75 5.27 13.29 4.96 12.74 4.8L12.74 2.76ZM12 8.5C11.67 8.5 11.4 8.38 11.17 8.15C10.96 7.91 10.84 7.64 10.84 7.32C10.84 7 10.96 6.72 11.17 6.5C11.4 6.28 11.67 6.17 12 6.17C12.32 6.17 12.59 6.28 12.82 6.5C13.04 6.72 13.14 7 13.14 7.32C13.14 7.64 13.04 7.91 12.82 8.15C12.59 8.38 12.32 8.5 12 8.5ZM22.37 16.66C22.37 16.06 22.19 15.53 21.83 15.07C21.48 14.61 21.02 14.29 20.45 14.11L20.45 2.76C20.45 2.55 20.37 2.37 20.22 2.22C20.08 2.06 19.91 1.99 19.7 1.99C19.51 1.99 19.34 2.06 19.18 2.22C19.03 2.37 18.95 2.55 18.95 2.76L18.95 14.11C18.41 14.29 17.95 14.61 17.59 15.07C17.24 15.53 17.05 16.06 17.05 16.66C17.05 17.24 17.23 17.77 17.58 18.24C17.94 18.7 18.39 19.02 18.95 19.2L18.95 21.24C18.95 21.44 19.03 21.62 19.18 21.77C19.34 21.91 19.51 21.98 19.7 21.98C19.91 21.98 20.08 21.91 20.22 21.77C20.37 21.62 20.45 21.44 20.45 21.24L20.45 19.2C21.02 19.02 21.48 18.71 21.83 18.25C22.19 17.79 22.37 17.26 22.37 16.66ZM19.7 17.81C19.37 17.81 19.11 17.69 18.88 17.47C18.66 17.25 18.54 16.98 18.54 16.66C18.54 16.34 18.66 16.06 18.88 15.84C19.11 15.61 19.37 15.5 19.7 15.5C20.01 15.5 20.29 15.61 20.53 15.84C20.76 16.06 20.87 16.34 20.87 16.66C20.87 16.98 20.76 17.25 20.53 17.47C20.29 17.69 20.01 17.81 19.7 17.81ZM5.01 2.76C5.01 2.55 4.94 2.37 4.79 2.22C4.65 2.06 4.47 1.99 4.26 1.99C4.06 1.99 3.88 2.06 3.74 2.22C3.59 2.37 3.53 2.55 3.53 2.76L3.53 14.11C2.96 14.29 2.51 14.61 2.16 15.07C1.8 15.53 1.62 16.06 1.62 16.66C1.62 17.26 1.8 17.79 2.16 18.25C2.51 18.71 2.96 19.02 3.53 19.2L3.53 21.24C3.53 21.44 3.59 21.62 3.74 21.77C3.88 21.91 4.06 21.98 4.26 21.98C4.47 21.98 4.65 21.91 4.79 21.77C4.94 21.62 5.01 21.44 5.01 21.24L5.01 19.2C5.58 19.02 6.04 18.71 6.39 18.25C6.75 17.79 6.93 17.26 6.93 16.66C6.93 16.06 6.75 15.53 6.39 15.07C6.04 14.61 5.58 14.29 5.01 14.11L5.01 2.76ZM4.26 17.81C3.95 17.81 3.67 17.69 3.45 17.47C3.23 17.25 3.12 16.98 3.12 16.66C3.12 16.34 3.23 16.06 3.45 15.84C3.67 15.61 3.95 15.5 4.26 15.5C4.58 15.5 4.86 15.61 5.09 15.84C5.33 16.06 5.45 16.34 5.45 16.66C5.45 16.98 5.33 17.25 5.09 17.47C4.86 17.69 4.58 17.81 4.26 17.81Z" fill="#000000" fill-opacity="0.898039" fill-rule="nonzero"/>
	</g>
</svg>
