<svg width="24.000000" height="24.000000" viewBox="0 0 24 24" fill="none" xmlns="http://www.w3.org/2000/svg" xmlns:xlink="http://www.w3.org/1999/xlink">
	<desc>
			Created with Pixso.
	</desc>
	<defs>
		<clipPath id="clip234_10521">
			<rect id="ic_save" width="24.000000" height="24.000000" fill="white" fill-opacity="0"/>
		</clipPath>
	</defs>
	<g clip-path="url(#clip234_10521)">
		<g opacity="0.000000">
			<rect id="rect" width="24.000000" height="24.000000" fill="#000000" fill-opacity="1.000000"/>
		</g>
		<path id="path" d="M4.99 1.99C4.45 1.99 3.95 2.12 3.49 2.4C3.03 2.67 2.67 3.03 2.4 3.49C2.12 3.95 1.99 4.45 1.99 4.99L1.99 19.01C1.99 19.55 2.12 20.05 2.4 20.51C2.67 20.96 3.03 21.32 3.49 21.6C3.95 21.87 4.45 22.01 4.99 22.01L19.01 22.01C19.55 22.01 20.05 21.87 20.51 21.6C20.96 21.32 21.32 20.96 21.6 20.51C21.87 20.05 22.01 19.55 22.01 19.01L22.01 4.99C22.01 4.45 21.87 3.95 21.6 3.49C21.32 3.03 20.96 2.67 20.51 2.4C20.05 2.12 19.55 1.99 19.01 1.99L4.99 1.99ZM16.34 7.97C16.34 8.13 16.28 8.26 16.18 8.36C16.06 8.46 15.93 8.52 15.79 8.52L8.21 8.52C8.06 8.52 7.93 8.46 7.82 8.36C7.71 8.26 7.66 8.13 7.66 7.97L7.66 3.53L16.34 3.53L16.34 7.97ZM20.5 19.01C20.5 19.41 20.35 19.75 20.06 20.05C19.77 20.35 19.42 20.5 19.01 20.5L4.99 20.5C4.59 20.5 4.24 20.35 3.95 20.05C3.65 19.75 3.5 19.41 3.5 19.01L3.5 4.99C3.5 4.57 3.65 4.22 3.95 3.94C4.24 3.64 4.59 3.5 4.99 3.5L6.17 3.5L6.17 7.97C6.17 8.53 6.37 9.01 6.77 9.42C7.17 9.82 7.65 10.03 8.21 10.03L15.79 10.03C16.35 10.03 16.83 9.82 17.23 9.42C17.63 9.01 17.83 8.53 17.83 7.97L17.83 3.5L19.01 3.5C19.42 3.5 19.77 3.64 20.06 3.94C20.35 4.22 20.5 4.57 20.5 4.99L20.5 19.01ZM7.01 15C6.8 15 6.62 15.07 6.47 15.22C6.31 15.36 6.24 15.53 6.24 15.74C6.24 15.95 6.31 16.13 6.47 16.27C6.62 16.41 6.8 16.49 7.01 16.49L16.99 16.49C17.19 16.49 17.37 16.41 17.53 16.27C17.68 16.13 17.76 15.95 17.76 15.74C17.76 15.53 17.68 15.36 17.53 15.22C17.37 15.07 17.19 15 16.99 15L7.01 15Z" fill="#000000" fill-opacity="0.898039" fill-rule="nonzero"/>
	</g>
</svg>
