<svg width="40.000000" height="40.000000" viewBox="0 0 40 40" fill="none" xmlns="http://www.w3.org/2000/svg" xmlns:xlink="http://www.w3.org/1999/xlink">
	<desc>
			Created with Pixso.
	</desc>
	<defs>
		<clipPath id="clip229_10368">
			<rect id="ic_stop_circle_fill" width="40.000000" height="40.000000" fill="white" fill-opacity="0"/>
		</clipPath>
	</defs>
	<g clip-path="url(#clip229_10368)">
		<g opacity="0.000000">
			<rect id="rect" x="-3.571289" width="40.000000" height="40.000000" fill="#000000" fill-opacity="1.000000"/>
		</g>
		<path id="path" d="M15.46 27.64C15.07 27.64 14.75 27.51 14.49 27.27C14.23 27.02 14.1 26.7 14.1 26.33L14.1 13.66C14.1 13.29 14.23 12.96 14.49 12.7C14.75 12.44 15.07 12.31 15.46 12.31C15.83 12.31 16.15 12.44 16.41 12.7C16.68 12.96 16.81 13.29 16.81 13.66L16.81 26.33C16.81 26.7 16.68 27.02 16.41 27.27C16.15 27.51 15.83 27.64 15.46 27.64ZM24.54 27.64C24.16 27.64 23.84 27.51 23.58 27.27C23.31 27.02 23.18 26.7 23.18 26.33L23.18 13.66C23.18 13.29 23.31 12.96 23.58 12.7C23.84 12.44 24.16 12.31 24.54 12.31C24.92 12.31 25.24 12.44 25.5 12.7C25.76 12.96 25.89 13.29 25.89 13.66L25.89 26.33C25.89 26.7 25.76 27.02 25.5 27.27C25.24 27.51 24.92 27.64 24.54 27.64ZM20 0C16.39 0 13.04 0.89 9.97 2.68C6.9 4.47 4.47 6.9 2.68 9.97C0.89 13.04 0 16.39 0 20C0 23.6 0.89 26.95 2.68 30.02C4.47 33.09 6.9 35.52 9.97 37.31C13.04 39.1 16.39 40 20 40C23.6 40 26.95 39.1 30.02 37.31C33.09 35.52 35.52 33.09 37.31 30.02C39.1 26.95 40 23.6 40 20C40 16.39 39.1 13.04 37.31 9.97C35.52 6.9 33.09 4.47 30.02 2.68C26.95 0.89 23.6 0 20 0Z" fill="#2070F3" fill-opacity="1.000000" fill-rule="nonzero"/>
	</g>
</svg>
