<svg width="24.000000" height="24.000000" viewBox="0 0 24 24" fill="none" xmlns="http://www.w3.org/2000/svg" xmlns:xlink="http://www.w3.org/1999/xlink">
	<desc>
			Created with Pixso.
	</desc>
	<defs>
		<clipPath id="clip234_10490">
			<rect id="ic_voice_convert_text" width="24.000000" height="24.000000" fill="white" fill-opacity="0"/>
		</clipPath>
	</defs>
	<g clip-path="url(#clip234_10490)">
		<g opacity="0.000000">
			<rect id="rect" width="24.000000" height="24.000000" fill="#000000" fill-opacity="1.000000"/>
		</g>
		<path id="path" d="M17.41 5.76C17 5.31 16.47 4.91 15.81 4.56C15.15 4.2 14.45 3.91 13.69 3.66C13.43 3.57 13.22 3.61 13.07 3.79C12.93 3.97 12.88 4.18 12.93 4.41C12.98 4.66 13.11 4.81 13.31 4.87C13.99 5.06 14.61 5.33 15.19 5.68C15.78 6.02 16.33 6.44 16.84 6.95L16.19 8.33C16.18 8.42 16.19 8.52 16.23 8.62C16.27 8.71 16.33 8.78 16.41 8.83L19.41 10.27C19.57 10.35 19.7 10.37 19.8 10.34C19.91 10.31 19.97 10.24 19.98 10.12C20 10.01 19.98 9.88 19.91 9.74C19.82 9.4 19.58 8.86 19.18 8.12C18.79 7.37 18.2 6.59 17.41 5.76Z" fill="#000000" fill-opacity="0.898039" fill-rule="nonzero"/>
		<path id="path" d="M18.98 19.78C19.25 19.78 19.43 19.69 19.51 19.51C19.59 19.33 19.57 19.11 19.45 18.84L17.83 14.81C17.75 14.6 17.64 14.45 17.53 14.35C17.41 14.25 17.27 14.21 17.1 14.21C16.93 14.21 16.79 14.25 16.66 14.35C16.55 14.45 16.45 14.6 16.37 14.81L14.81 18.84C14.71 19.06 14.65 19.29 14.68 19.44C14.7 19.58 14.81 19.68 15.02 19.73C15.24 19.79 15.4 19.78 15.49 19.72C15.57 19.64 15.66 19.49 15.77 19.25L16.03 18.48L18.14 18.48L18.43 19.22C18.51 19.41 18.59 19.55 18.66 19.64C18.75 19.73 18.85 19.78 18.98 19.78ZM16.39 17.52L17.09 15.65L17.78 17.52L16.39 17.52ZM20.18 22.03C20.72 22.03 21.18 21.84 21.56 21.46C21.93 21.07 22.12 20.6 22.12 20.06L22.12 13.92C22.12 13.37 21.93 12.91 21.56 12.53C21.18 12.14 20.72 11.95 20.18 11.95L14.09 11.95C13.56 11.95 13.1 12.14 12.72 12.53C12.33 12.91 12.14 13.37 12.14 13.92L12.14 20.06C12.14 20.6 12.33 21.07 12.71 21.46C13.08 21.84 13.54 22.03 14.09 22.03L20.18 22.03ZM20.18 13.46C20.31 13.46 20.42 13.5 20.51 13.6C20.59 13.68 20.64 13.79 20.64 13.92L20.64 20.06C20.64 20.19 20.59 20.3 20.51 20.39C20.42 20.47 20.31 20.52 20.18 20.52L14.09 20.52C13.96 20.52 13.85 20.47 13.76 20.39C13.67 20.3 13.62 20.19 13.62 20.06L13.62 13.92C13.62 13.79 13.67 13.68 13.76 13.6C13.85 13.5 13.96 13.46 14.09 13.46L20.18 13.46ZM7.1 12.46C7.64 12.46 8.14 12.32 8.6 12.05C9.06 11.77 9.42 11.41 9.7 10.96C9.96 10.5 10.1 10 10.1 9.46L10.1 4.97C10.1 4.42 9.96 3.92 9.7 3.47C9.42 3.01 9.06 2.64 8.6 2.38C8.14 2.1 7.64 1.97 7.1 1.97C6.57 1.97 6.08 2.1 5.62 2.38C5.15 2.64 4.78 3.01 4.51 3.47C4.23 3.92 4.1 4.42 4.1 4.97L4.1 9.46C4.1 10 4.23 10.5 4.51 10.96C4.78 11.41 5.15 11.77 5.62 12.05C6.08 12.32 6.57 12.46 7.1 12.46ZM5.62 4.97C5.62 4.55 5.76 4.19 6.05 3.91C6.33 3.62 6.68 3.47 7.1 3.47C7.52 3.47 7.87 3.62 8.16 3.91C8.47 4.19 8.62 4.55 8.62 4.97L8.62 9.46C8.62 9.87 8.47 10.22 8.16 10.52C7.87 10.82 7.52 10.97 7.1 10.97C6.68 10.97 6.33 10.82 6.05 10.52C5.76 10.22 5.62 9.87 5.62 9.46L5.62 4.97ZM12.35 9.43C12.35 9.22 12.28 9.04 12.14 8.9C12 8.76 11.82 8.69 11.62 8.69C11.4 8.69 11.23 8.76 11.09 8.9C10.94 9.04 10.87 9.22 10.87 9.43C10.87 10.11 10.7 10.75 10.37 11.33C10.03 11.9 9.57 12.36 9 12.7C8.42 13.03 7.79 13.2 7.1 13.2C6.43 13.2 5.81 13.03 5.22 12.7C4.65 12.36 4.2 11.9 3.85 11.33C3.52 10.75 3.35 10.11 3.35 9.43C3.35 9.22 3.28 9.04 3.12 8.9C2.97 8.76 2.79 8.69 2.59 8.69C2.38 8.69 2.2 8.76 2.06 8.9C1.91 9.04 1.85 9.22 1.85 9.43C1.85 10.29 2.05 11.1 2.45 11.86C2.85 12.6 3.39 13.22 4.08 13.72C4.76 14.2 5.52 14.5 6.35 14.62L6.35 16.37C6.35 16.57 6.43 16.75 6.58 16.9C6.72 17.04 6.89 17.11 7.1 17.11C7.31 17.11 7.49 17.04 7.64 16.9C7.79 16.75 7.87 16.57 7.87 16.37L7.87 14.62C8.7 14.5 9.46 14.2 10.14 13.7C10.83 13.2 11.37 12.58 11.77 11.84C12.16 11.1 12.35 10.29 12.35 9.43Z" fill="#000000" fill-opacity="0.898039" fill-rule="nonzero"/>
	</g>
</svg>
