<svg width="24.000000" height="24.000000" viewBox="0 0 24 24" fill="none" xmlns="http://www.w3.org/2000/svg" xmlns:xlink="http://www.w3.org/1999/xlink">
	<desc>
			Created with Pixso.
	</desc>
	<defs>
		<clipPath id="clip234_10502">
			<rect id="ic_waveform_cut" width="24.000000" height="24.000000" fill="white" fill-opacity="0"/>
		</clipPath>
	</defs>
	<g clip-path="url(#clip234_10502)">
		<g opacity="0.000000">
			<rect id="rect" width="24.000000" height="24.000000" fill="#000000" fill-opacity="1.000000"/>
		</g>
		<path id="path" d="M17.89 16.96C17.56 16.96 17.25 17.02 16.95 17.13C16.66 17.24 16.39 17.4 16.14 17.61L13.27 15.59L17.45 12.64C17.62 12.53 17.73 12.37 17.77 12.16C17.81 11.96 17.77 11.77 17.66 11.61C17.53 11.43 17.37 11.33 17.16 11.29C16.97 11.27 16.79 11.31 16.62 11.41L11.98 14.65L7.31 11.41C7.14 11.29 6.95 11.25 6.76 11.28C6.56 11.32 6.4 11.43 6.29 11.61C6.16 11.79 6.12 11.98 6.16 12.17C6.2 12.37 6.3 12.53 6.47 12.64L10.68 15.59L7.79 17.58C7.28 17.17 6.7 16.96 6.04 16.96C5.54 16.96 5.08 17.09 4.66 17.33C4.24 17.58 3.9 17.92 3.66 18.34C3.41 18.77 3.29 19.23 3.29 19.73C3.29 20.22 3.41 20.68 3.66 21.1C3.9 21.52 4.24 21.86 4.66 22.11C5.08 22.36 5.54 22.48 6.04 22.48C6.54 22.48 7 22.36 7.43 22.11C7.85 21.86 8.18 21.52 8.43 21.1C8.68 20.68 8.81 20.22 8.81 19.73C8.81 19.38 8.76 19.09 8.66 18.83L12 16.48L15.33 18.83C15.24 19.12 15.18 19.42 15.18 19.73C15.18 20.22 15.31 20.68 15.56 21.1C15.81 21.52 16.14 21.86 16.56 22.11C16.99 22.36 17.45 22.48 17.95 22.48C18.45 22.48 18.9 22.36 19.31 22.11C19.73 21.86 20.06 21.52 20.33 21.1C20.58 20.68 20.71 20.22 20.71 19.73C20.71 19.23 20.58 18.77 20.33 18.34C20.06 17.92 19.72 17.58 19.29 17.33C18.86 17.09 18.39 16.96 17.89 16.96ZM6.02 21C5.68 21 5.39 20.87 5.14 20.62C4.9 20.38 4.78 20.08 4.78 19.73C4.78 19.37 4.89 19.07 5.14 18.82C5.37 18.58 5.67 18.45 6.02 18.45C6.37 18.45 6.67 18.58 6.91 18.82C7.17 19.07 7.29 19.37 7.29 19.73C7.29 20.08 7.17 20.38 6.91 20.62C6.67 20.87 6.37 21 6.02 21ZM17.89 21C17.55 21 17.25 20.87 17 20.62C16.75 20.38 16.62 20.08 16.62 19.73C16.62 19.37 16.75 19.07 17 18.82C17.25 18.58 17.55 18.45 17.89 18.45C18.25 18.45 18.54 18.58 18.79 18.82C19.03 19.07 19.14 19.37 19.14 19.73C19.14 20.08 19.03 20.38 18.79 20.62C18.54 20.87 18.25 21 17.89 21Z" fill="#000000" fill-opacity="0.898039" fill-rule="nonzero"/>
		<path id="path" d="M2.5 4.21C2.28 4.21 2.1 4.29 1.97 4.43C1.82 4.58 1.75 4.76 1.75 4.96L1.75 11.23C1.75 11.43 1.82 11.61 1.97 11.75C2.1 11.9 2.28 11.98 2.5 11.98C2.7 11.98 2.87 11.9 3.02 11.75C3.16 11.61 3.24 11.43 3.24 11.23L3.24 4.96C3.24 4.76 3.16 4.58 3.02 4.43C2.87 4.29 2.7 4.21 2.5 4.21ZM5.64 9.25C5.84 9.25 6.02 9.18 6.16 9.04C6.31 8.9 6.37 8.72 6.37 8.51L6.37 2.25C6.37 2.04 6.31 1.86 6.16 1.72C6.02 1.58 5.84 1.5 5.64 1.5C5.43 1.5 5.25 1.58 5.1 1.72C4.97 1.86 4.89 2.04 4.89 2.25L4.89 8.51C4.89 8.72 4.97 8.9 5.1 9.04C5.25 9.18 5.43 9.25 5.64 9.25Z" fill="#000000" fill-opacity="0.898039" fill-rule="nonzero"/>
		<path id="path" d="M8.83 10.39C9.03 10.39 9.21 10.32 9.35 10.18C9.5 10.03 9.58 9.85 9.58 9.64L9.58 3.41C9.58 3.2 9.5 3.02 9.35 2.87C9.21 2.71 9.03 2.64 8.83 2.64C8.62 2.64 8.44 2.71 8.29 2.87C8.15 3.02 8.08 3.2 8.08 3.41L8.08 9.64C8.08 9.85 8.15 10.03 8.29 10.18C8.44 10.32 8.62 10.39 8.83 10.39ZM12 12.12C12.2 12.12 12.38 12.04 12.52 11.89C12.66 11.76 12.73 11.58 12.73 11.38L12.73 5.11C12.73 4.9 12.66 4.72 12.52 4.58C12.38 4.43 12.2 4.37 12 4.37C11.79 4.37 11.61 4.43 11.46 4.58C11.33 4.72 11.25 4.9 11.25 5.11L11.25 11.38C11.25 11.58 11.33 11.76 11.46 11.89C11.61 12.04 11.79 12.12 12 12.12ZM15.16 10.39C15.37 10.39 15.55 10.32 15.69 10.18C15.83 10.03 15.9 9.85 15.9 9.64L15.9 3.41C15.9 3.2 15.83 3.02 15.69 2.87C15.55 2.71 15.37 2.64 15.16 2.64C14.96 2.64 14.78 2.71 14.63 2.87C14.49 3.02 14.41 3.2 14.41 3.41L14.41 9.64C14.41 9.85 14.49 10.03 14.63 10.18C14.78 10.32 14.96 10.39 15.16 10.39Z" fill="#000000" fill-opacity="0.898039" fill-rule="nonzero"/>
		<path id="path" d="M18.35 9.25C18.56 9.25 18.74 9.18 18.88 9.04C19.02 8.9 19.09 8.72 19.09 8.51L19.09 2.25C19.09 2.04 19.02 1.86 18.88 1.72C18.74 1.58 18.56 1.5 18.35 1.5C18.15 1.5 17.97 1.58 17.81 1.72C17.66 1.86 17.58 2.04 17.58 2.25L17.58 8.51C17.58 8.72 17.66 8.9 17.81 9.04C17.97 9.18 18.15 9.25 18.35 9.25ZM21.5 4.36C21.29 4.36 21.11 4.43 20.98 4.57C20.83 4.72 20.75 4.9 20.75 5.1L20.75 11.37C20.75 11.58 20.83 11.75 20.98 11.89C21.11 12.04 21.29 12.11 21.5 12.11C21.71 12.11 21.88 12.04 22.02 11.89C22.17 11.75 22.25 11.58 22.25 11.37L22.25 5.1C22.25 4.9 22.17 4.72 22.02 4.57C21.88 4.43 21.71 4.36 21.5 4.36Z" fill="#000000" fill-opacity="0.898039" fill-rule="nonzero"/>
	</g>
</svg>
