<svg width="40.000000" height="40.000000" viewBox="0 0 40 40" fill="none" xmlns="http://www.w3.org/2000/svg" xmlns:xlink="http://www.w3.org/1999/xlink">
	<desc>
			Created with Pixso.
	</desc>
	<defs>
		<clipPath id="clip1671_26470">
			<rect id="svg" width="20.000000" height="20.000000" transform="translate(10.006348 9.912598)" fill="white" fill-opacity="0"/>
		</clipPath>
		<clipPath id="clip1671_26468">
			<rect id="icon_envelope" width="40.000000" height="40.000000" fill="white" fill-opacity="0"/>
		</clipPath>
	</defs>
	<g clip-path="url(#clip1671_26468)">
		<circle id="椭圆 4" cx="20.000000" cy="20.000000" r="20.000000" fill="#E84026" fill-opacity="1.000000"/>
		<g clip-path="url(#clip1671_26470)">
			<g opacity="0.000000">
				<rect id="rect" x="10.006348" y="9.912598" width="20.000000" height="20.000000" fill="#000000" fill-opacity="1.000000"/>
			</g>
			<path id="path" d="M23.78 28.62C24.23 28.62 24.63 28.47 24.97 28.16C25.31 27.85 25.5 27.46 25.54 27.01L26.48 16.35C26.48 16.24 26.44 16.11 26.35 16.02C26.26 15.95 26.17 15.91 26.06 15.91L13.94 15.91C13.82 15.91 13.72 15.95 13.63 16.04C13.55 16.12 13.51 16.23 13.52 16.35L14.46 27.01C14.5 27.47 14.69 27.86 15.03 28.17C15.37 28.47 15.77 28.62 16.22 28.62L23.78 28.62ZM21.46 25.61C21.29 25.61 21.14 25.54 21.01 25.42C20.88 25.29 20.83 25.14 20.84 24.97L21.06 19.12C21.06 18.95 21.12 18.81 21.24 18.7C21.36 18.58 21.51 18.52 21.68 18.52C21.86 18.54 22.01 18.61 22.13 18.74C22.26 18.86 22.31 19.01 22.3 19.19L22.1 25.01C22.09 25.18 22.02 25.32 21.9 25.44C21.78 25.55 21.63 25.61 21.46 25.61ZM18.56 25.61C18.39 25.61 18.24 25.55 18.12 25.44C18 25.32 17.93 25.18 17.92 25.01L17.7 19.19C17.69 19.01 17.74 18.86 17.86 18.74C17.98 18.61 18.13 18.54 18.3 18.52C18.47 18.51 18.62 18.57 18.75 18.69C18.88 18.81 18.94 18.95 18.94 19.12L19.18 24.97C19.2 25.14 19.14 25.29 19.01 25.42C18.88 25.54 18.73 25.61 18.56 25.61ZM23.14 13.69C22.99 12.97 22.63 12.37 22.06 11.9C21.49 11.43 20.83 11.19 20.08 11.19C19.33 11.19 18.67 11.43 18.1 11.9C17.53 12.37 17.17 12.97 17.02 13.69L12.86 13.69C12.69 13.69 12.54 13.75 12.42 13.87C12.3 13.99 12.24 14.14 12.24 14.31C12.24 14.48 12.3 14.63 12.42 14.76C12.54 14.89 12.69 14.95 12.86 14.95L17.44 14.95L22.74 14.95L27.14 14.92C27.32 14.92 27.46 14.87 27.58 14.75C27.7 14.63 27.76 14.48 27.76 14.31C27.76 14.14 27.7 13.99 27.58 13.87C27.46 13.75 27.32 13.69 27.14 13.69L23.14 13.69Z" fill="#FFFFFF" fill-opacity="1.000000" fill-rule="nonzero"/>
		</g>
	</g>
</svg>
