<svg width="32.000000" height="32.000000" viewBox="0 0 32 32" fill="none" xmlns="http://www.w3.org/2000/svg" xmlns:xlink="http://www.w3.org/1999/xlink">
	<desc>
			Created with Pixso.
	</desc>
	<defs>
		<clipPath id="clip70_4033">
			<rect width="32.000000" height="32.000000" fill="white" fill-opacity="0"/>
		</clipPath>
	</defs>
	<g clip-path="url(#clip70_4033)">
		<path d="M1.99 13.99L29.91 13.99L29.91 27.95C29.91 30.15 28.13 31.94 25.92 31.94L5.98 31.94C3.77 31.94 1.99 30.15 1.99 27.95L1.99 13.99Z" fill="#FE283A" fill-opacity="1.000000" fill-rule="nonzero"/>
		<path d="M15.92 8.73L16.27 10L14.96 10C7.77 10 3.99 8.71 3.99 5.59C3.98 1.84 5.65 0.03 8.85 0.03C11.38 0.03 13.14 1.84 14.43 4.53C15.04 5.89 15.54 7.29 15.92 8.73ZM12.63 5.39C11.64 3.33 10.37 2.02 8.85 2.02C6.79 2.02 5.98 2.91 5.98 5.59C5.98 6.91 8.43 7.85 13.61 7.99C13.34 7.1 13.02 6.23 12.63 5.39Z" fill="#FFB400" fill-opacity="1.000000" fill-rule="nonzero"/>
		<path d="M15.92 8.73L16.27 10L14.96 10C7.77 10 3.99 8.71 3.99 5.59C3.98 1.84 5.65 0.03 8.85 0.03C11.38 0.03 13.14 1.84 14.43 4.53C15.04 5.89 15.54 7.29 15.92 8.73ZM12.63 6.26C12.53 6.1 12.42 5.94 12.3 5.79C12.19 5.64 12.06 5.5 11.92 5.37C11.79 5.23 11.64 5.11 11.49 4.99C11.34 4.87 11.19 4.76 11.02 4.67C10.86 4.57 10.69 4.48 10.51 4.41C10.34 4.33 10.16 4.26 9.98 4.21C9.79 4.15 9.61 4.11 9.42 4.08C9.23 4.04 9.04 4.02 8.85 4.02C6.79 4.02 5.98 4.6 5.98 6.39C5.98 7.27 8.43 7.9 13.61 7.99C13.33 7.38 13.01 6.81 12.63 6.26L12.63 6.26Z" fill="#FED546" fill-opacity="1.000000" fill-rule="nonzero"/>
		<path d="M16.3 8.73L15.95 10L17.26 10C24.45 10 28.23 8.71 28.23 5.59C28.23 1.84 26.57 0.02 23.37 0.02C20.83 0.02 19.08 1.84 17.79 4.53C17.17 5.89 16.68 7.29 16.3 8.73ZM19.59 6.26C19.69 6.1 19.8 5.94 19.91 5.79C20.03 5.64 20.16 5.5 20.29 5.37C20.43 5.23 20.57 5.11 20.72 4.99C20.88 4.87 21.03 4.76 21.2 4.67C21.36 4.57 21.53 4.48 21.71 4.41C21.88 4.33 22.06 4.26 22.24 4.21C22.43 4.15 22.61 4.11 22.8 4.08C22.99 4.04 23.18 4.02 23.37 4.02C25.42 4.02 26.24 4.6 26.24 6.39C26.24 7.27 23.79 7.9 18.61 7.99C18.88 7.38 19.21 6.81 19.59 6.26L19.59 6.26Z" fill="#FED546" fill-opacity="1.000000" fill-rule="nonzero"/>
		<path d="M3.98 8L27.92 8C30.12 8 31.91 9.79 31.91 11.99C31.91 14.2 30.12 15.98 27.92 15.98L3.98 15.98C1.78 15.98 0 14.2 0 11.99C0 9.79 1.78 8 3.98 8Z" fill="#FF6060" fill-opacity="1.000000" fill-rule="nonzero"/>
		<path d="M11.96 15.98L19.94 15.98L19.94 31.94L11.96 31.94L11.96 15.98Z" fill="#FFB81E" fill-opacity="1.000000" fill-rule="nonzero"/>
		<path d="M11.96 8C12.01 7.92 12.07 7.83 12.12 7.75C12.18 7.67 12.24 7.58 12.3 7.5C12.36 7.42 12.42 7.35 12.49 7.27C12.56 7.2 12.62 7.12 12.7 7.05C12.77 6.98 12.84 6.91 12.91 6.85C12.99 6.78 13.07 6.72 13.15 6.66C13.23 6.59 13.31 6.54 13.39 6.48C13.48 6.42 13.56 6.37 13.65 6.32C13.74 6.27 13.82 6.22 13.91 6.18C14 6.13 14.1 6.09 14.19 6.05C14.28 6.02 14.38 5.98 14.47 5.95C14.57 5.92 14.66 5.89 14.76 5.86C14.86 5.84 14.95 5.81 15.05 5.79C15.15 5.77 15.25 5.76 15.35 5.74C15.45 5.73 15.55 5.72 15.65 5.71C15.75 5.71 15.85 5.7 15.95 5.7C16.05 5.7 16.15 5.71 16.25 5.71C16.35 5.72 16.45 5.73 16.55 5.74C16.65 5.76 16.75 5.77 16.85 5.79C16.95 5.81 17.05 5.84 17.14 5.86C17.24 5.89 17.34 5.92 17.43 5.95C17.53 5.98 17.62 6.02 17.71 6.05C17.81 6.09 17.9 6.13 17.99 6.18C18.08 6.22 18.17 6.27 18.25 6.32C18.34 6.37 18.43 6.42 18.51 6.48C18.59 6.54 18.67 6.59 18.75 6.66C18.83 6.72 18.91 6.78 18.99 6.85C19.06 6.91 19.14 6.98 19.21 7.05C19.28 7.12 19.35 7.2 19.41 7.27C19.48 7.35 19.54 7.42 19.61 7.5C19.67 7.58 19.73 7.67 19.78 7.75C19.84 7.83 19.89 7.92 19.94 8L19.94 15.98L11.96 15.98L11.96 8Z" fill="#FED546" fill-opacity="1.000000" fill-rule="nonzero"/>
	</g>
</svg>
