<svg width="18.000000" height="18.000000" viewBox="0 0 18 18" fill="none" xmlns="http://www.w3.org/2000/svg" xmlns:xlink="http://www.w3.org/1999/xlink">
	<desc>
			Created with Pixso.
	</desc>
	<defs/>
	<path id="合并" d="M10 8L10 1C10 0.447693 9.55228 0 9 0C8.44772 0 8 0.447693 8 1L8 8L1 8C0.447708 8 0 8.44769 0 9C0 9.55231 0.447708 10 1 10L8 10L8 17C8 17.5523 8.44772 18 9 18C9.55229 18 10 17.5523 10 17L10 10L17 10C17.5523 10 18 9.55231 18 9C18 8.44769 17.5523 8 17 8L10 8Z" clip-rule="evenodd" fill="#000000" fill-opacity="0.898039" fill-rule="evenodd"/>
</svg>
