<svg width="12.000000" height="24.000000" viewBox="0 0 12 24" fill="none" xmlns="http://www.w3.org/2000/svg" xmlns:xlink="http://www.w3.org/1999/xlink">
	<desc>
			Created with Pixso.
	</desc>
	<defs>
		<clipPath id="clip41_3928">
			<rect width="12.000000" height="24.000000" transform="matrix(-1 0 0 1 12 0)" fill="white" fill-opacity="0"/>
		</clipPath>
	</defs>
	<g clip-path="url(#clip41_3928)">
		<g opacity="0.000000">
			<rect width="12.000000" height="24.000000" transform="matrix(-1 0 0 1 12 0)" fill="#000000" fill-opacity="1.000000"/>
		</g>
		<path d="M2.77 18C2.63 17.85 2.56 17.67 2.56 17.46C2.56 17.26 2.63 17.08 2.77 16.94L7.81 11.88L2.8 6.78C2.69 6.62 2.59 6.4 2.59 6.21C2.61 6.02 2.68 5.86 2.8 5.73C2.94 5.59 3.12 5.51 3.33 5.51C3.54 5.51 3.71 5.59 3.85 5.73L9.13 11.11C9.35 11.3 9.45 11.56 9.45 11.88C9.45 12.13 9.38 12.35 9.23 12.55L3.85 18C3.71 18.16 3.55 18.24 3.35 18.24C3.16 18.24 2.97 18.16 2.77 18Z" fill="#000000" fill-opacity="0.400000" fill-rule="nonzero"/>
	</g>
</svg>
