<svg viewBox="0 0 24 24" xmlns="http://www.w3.org/2000/svg" xmlns:xlink="http://www.w3.org/1999/xlink" width="24.000000" height="24.000000" fill="none">
	<defs>
		<filter id="pixso_custom_mask_type_luminance">
			<feColorMatrix type="matrix" values="1 0 0 0 0 0 1 0 0 0 0 0 1 0 0 0 0 0 1 0 " />
		</filter>
	</defs>
	<mask id="mask_1" width="24.000000" height="24.000000" x="0.000000" y="0.000000" maskUnits="userSpaceOnUse">
		<g filter="url(#pixso_custom_mask_type_luminance)">
			<g id="hms_mask_0">
				<rect id="矩形 3632" width="24.000000" height="24.000000" x="0.000000" y="0.000000" fill="rgb(255,255,255)" />
				<g id="组合 4165">
					<path id="矢量 373" d="M17.6898 16.63C17.8298 16.7767 17.8998 16.9533 17.8998 17.16C17.8998 17.3667 17.8298 17.55 17.6898 17.71C17.5431 17.8567 17.3664 17.93 17.1598 17.93C16.9531 17.93 16.7764 17.8567 16.6298 17.71L11.4698 12.53L11.3998 12.46C11.3064 12.3467 11.2598 12.1867 11.2598 11.98L11.2598 5.76C11.2598 5.55333 11.3298 5.37333 11.4698 5.22C11.6164 5.06666 11.7931 4.99 11.9998 4.99C12.2064 4.99 12.3831 5.06666 12.5298 5.22C12.6698 5.37333 12.7398 5.55333 12.7398 5.76L12.7398 11.69L17.6898 16.63Z" fill="rgb(0,0,0)" fill-rule="evenodd" />
				</g>
			</g>
		</g>
	</mask>
	<rect id="clock_fill" width="24.000000" height="24.000000" x="0.000000" y="0.000000" />
	<rect id="矩形 3631" width="24.000000" height="24.000000" x="0.000000" y="0.000000" opacity="0" fill="rgb(0,0,0)" />
	<g id="mask" mask="url(#mask_1)">
		<g id="组合 4164">
			<path id="矢量 372" d="M12 1.25C10.0467 1.25 8.24667 1.73333 6.6 2.7C4.95333 3.66667 3.65 4.97 2.69 6.61C1.73 8.25 1.25 10.0467 1.25 12C1.25 13.9533 1.73 15.75 2.69 17.39C3.65 19.03 4.95333 20.3333 6.6 21.3C8.24667 22.2667 10.0467 22.75 12 22.75C13.9333 22.75 15.7267 22.2667 17.38 21.3C19.0267 20.3333 20.3333 19.0267 21.3 17.38C22.2667 15.7267 22.75 13.9333 22.75 12C22.75 10.0667 22.2667 8.27333 21.3 6.62C20.3333 4.97333 19.0267 3.66667 17.38 2.7C15.7267 1.73333 13.9333 1.25 12 1.25Z" fill="rgb(0,0,0)" fill-opacity="0.600000024" fill-rule="evenodd" />
		</g>
	</g>
</svg>
