<svg viewBox="0 0 24 24" xmlns="http://www.w3.org/2000/svg" xmlns:xlink="http://www.w3.org/1999/xlink" width="24.000000" height="24.000000" fill="none">
	<rect id="flame_fill_1" width="24.000000" height="24.000000" x="0.000000" y="0.000000" />
	<rect id="矩形 3630" width="24.000000" height="24.000000" x="0.000000" y="0.000000" opacity="0" fill="rgb(0,0,0)" />
	<g id="组合 4162">
		<path id="矢量 371" d="M18.4296 10.22C18.2362 9.53333 18.1696 8.93333 18.2296 8.42C18.2829 7.91333 18.3496 7.57 18.4296 7.39C17.9162 7.45667 17.4562 7.70667 17.0496 8.14C16.6429 8.56667 16.3196 9.07 16.0796 9.65C15.9329 8.21 15.5329 6.95333 14.8796 5.88C14.2262 4.80667 13.4262 3.94333 12.4796 3.29C11.5329 2.63 10.5329 2.15667 9.47958 1.87C9.84624 2.27 9.99958 2.87333 9.93958 3.68C9.87291 4.49333 9.65958 5.31 9.29958 6.13C8.93958 6.95667 8.54291 7.59333 8.10958 8.04C7.43624 8.69333 6.92958 9.37667 6.58958 10.09C6.24291 10.8033 6.02291 11.44 5.92958 12C5.78291 11.52 5.52624 10.9833 5.15958 10.39C4.19958 12.81 3.89958 14.8333 4.25958 16.46C4.61958 18.0933 5.27291 19.3267 6.21958 20.16C7.15958 20.9933 8.13291 21.6 9.13958 21.98C9.25291 22.0133 9.34291 22.04 9.40958 22.06C9.46958 22.0733 9.55624 22.0967 9.66958 22.13C9.50958 21.97 9.38958 21.8167 9.30958 21.67C9.19625 21.4967 9.09624 21.3133 9.00958 21.12C8.92291 20.9267 8.85625 20.7267 8.80958 20.52C8.69625 19.9267 8.79291 19.28 9.09958 18.58C9.17958 18.4 9.27958 18.22 9.39958 18.04C9.51958 17.8533 9.64291 17.68 9.76958 17.52C9.84958 17.4067 9.92624 17.2933 9.99958 17.18C10.0662 17.0733 10.1396 16.9633 10.2196 16.85C10.4329 16.4633 10.6429 16.08 10.8496 15.7C11.0229 15.4067 11.1996 15.06 11.3796 14.66C11.4596 14.52 11.5296 14.3767 11.5896 14.23C11.6562 14.09 11.7196 13.9467 11.7796 13.8C12.1196 14.0733 12.7362 14.76 13.6296 15.86C14.1762 16.6 14.6062 17.41 14.9196 18.29C15.2262 19.17 15.2996 19.9933 15.1396 20.76C15.0929 20.9867 15.0296 21.1933 14.9496 21.38C14.8696 21.5733 14.7729 21.75 14.6596 21.91L14.6396 21.96C14.8129 21.9133 14.9396 21.8767 15.0196 21.85C15.0996 21.83 15.2296 21.7933 15.4096 21.74L15.5296 21.7C17.2096 20.98 18.3862 19.9933 19.0596 18.74C19.7262 17.4933 19.9762 16.1333 19.8096 14.66C19.6429 13.1933 19.1829 11.7133 18.4296 10.22Z" fill="rgb(0,0,0)" fill-opacity="0.600000024" fill-rule="nonzero" />
	</g>
</svg>
