<svg viewBox="0 0 40 40" xmlns="http://www.w3.org/2000/svg" xmlns:xlink="http://www.w3.org/1999/xlink" width="40.000000" height="40.000000" fill="none">
	<defs>
		<filter id="pixso_custom_mask_type_luminance">
			<feColorMatrix type="matrix" values="1 0 0 0 0 0 1 0 0 0 0 0 1 0 0 0 0 0 1 0 " />
		</filter>
	</defs>
	<mask id="mask_0" width="40.000000" height="40.000000" x="0.000000" y="0.000000" maskUnits="userSpaceOnUse">
		<g filter="url(#pixso_custom_mask_type_luminance)">
			<g id="hms_mask_0">
				<rect id="矩形 3617" width="40.000000" height="40.000000" x="0.000000" y="0.000000" fill="rgb(255,255,255)" />
				<g id="组合 4153">
					<path id="矢量 364" d="M27.6333 18.6C27.9889 18.8111 28.2333 19.1056 28.3667 19.4833C28.5 19.85 28.5 20.2167 28.3667 20.5833C28.2333 20.9389 27.9889 21.2222 27.6333 21.4333L17.4 27.3167C17.0556 27.5278 16.6944 27.5944 16.3167 27.5167C15.95 27.4389 15.6389 27.2556 15.3833 26.9667C15.1278 26.6667 15 26.3167 15 25.9167L15 14.1167C15 13.7167 15.1278 13.3722 15.3833 13.0833C15.6389 12.7833 15.95 12.5944 16.3167 12.5167C16.6944 12.4389 17.0556 12.5056 17.4 12.7167L27.6333 18.6Z" fill="rgb(0,0,0)" fill-rule="evenodd" />
				</g>
			</g>
		</g>
	</mask>
	<rect id="play_circle_fill" width="40.000000" height="40.000000" x="0.000000" y="0.000000" />
	<rect id="矩形 3616" width="40.000000" height="40.000000" x="0.000000" y="0.000000" opacity="0" fill="rgb(0,0,0)" />
	<g id="mask" mask="url(#mask_0)">
		<g id="组合 4152">
			<path id="矢量 363" d="M20.0003 1.68333C16.6669 1.68333 13.6003 2.5 10.8003 4.13333C8.00026 5.77778 5.77804 8 4.13359 10.8C2.50026 13.6 1.68359 16.6667 1.68359 20C1.68359 23.3333 2.50026 26.4 4.13359 29.2C5.77804 32 8.00026 34.2222 10.8003 35.8667C13.6003 37.5 16.6669 38.3167 20.0003 38.3167C23.3114 38.3167 26.3725 37.5 29.1836 35.8667C31.9947 34.2222 34.2225 31.9944 35.8669 29.1833C37.5003 26.3722 38.3169 23.3111 38.3169 20C38.3169 16.6889 37.5003 13.6278 35.8669 10.8167C34.2225 8.00556 31.9947 5.77778 29.1836 4.13333C26.3725 2.5 23.3114 1.68333 20.0003 1.68333Z" fill="rgb(255,255,255)" fill-opacity="0.898039222" fill-rule="evenodd" />
		</g>
	</g>
</svg>
