<svg width="24.000000" height="24.000000" viewBox="0 0 24 24" fill="none" xmlns="http://www.w3.org/2000/svg" xmlns:xlink="http://www.w3.org/1999/xlink">
	<desc>
			Created with Pixso.
	</desc>
	<defs>
		<clipPath id="clip167_8978">
			<rect width="24.000000" height="24.000000" fill="white" fill-opacity="0"/>
		</clipPath>
		<linearGradient x1="11.988807" y1="2.810028" x2="11.988807" y2="21.190029" id="paint_linear_167_8981_0" gradientUnits="userSpaceOnUse">
			<stop offset="0.001861" stop-color="#F1D1A5"/>
			<stop offset="1.000000" stop-color="#E3AC58"/>
		</linearGradient>
	</defs>
	<g clip-path="url(#clip167_8978)">
		<g opacity="0.000000">
			<rect width="24.000000" height="24.000000" fill="#000000" fill-opacity="1.000000"/>
		</g>
		<path d="M16.86 21.14C17.47 21.12 17.98 20.9 18.4 20.48C18.82 20.06 19.02 19.55 19.02 18.95L18.95 11.54L20.32 11.98C20.45 12 20.55 12.02 20.61 12.02C20.77 12.02 20.93 11.98 21.09 11.9C21.35 11.74 21.5 11.53 21.54 11.28L22.84 5.81C22.86 5.76 22.86 5.68 22.86 5.57C22.86 5.37 22.81 5.19 22.69 5.03C22.59 4.86 22.44 4.74 22.24 4.68L17.05 2.81L15.47 2.81C15.23 2.81 15.03 2.89 14.85 3.06C14.67 3.22 14.58 3.43 14.56 3.67C14.53 4.35 14.26 4.93 13.75 5.4C13.25 5.86 12.67 6.1 11.99 6.1C11.31 6.1 10.71 5.86 10.21 5.4C9.72 4.93 9.45 4.35 9.4 3.67C9.38 3.43 9.29 3.23 9.11 3.07C8.94 2.91 8.74 2.83 8.51 2.83L7.02 2.83L1.72 4.75C1.5 4.83 1.33 4.98 1.21 5.2C1.11 5.41 1.08 5.64 1.12 5.88L2.46 11.35C2.54 11.62 2.7 11.83 2.94 11.98C3.04 12.06 3.19 12.1 3.37 12.1C3.45 12.1 3.56 12.08 3.69 12.05L5.05 11.62L5.05 19.03C5.05 19.62 5.26 20.13 5.68 20.56C6.1 20.98 6.6 21.19 7.19 21.19L16.86 21.14Z" fill="url(#paint_linear_167_8981_0)" fill-opacity="1.000000" fill-rule="nonzero"/>
	</g>
</svg>
