<svg width="24.000000" height="24.000000" viewBox="0 0 24 24" fill="none" xmlns="http://www.w3.org/2000/svg" xmlns:xlink="http://www.w3.org/1999/xlink">
	<desc>
			Created with Pixso.
	</desc>
	<defs>
		<clipPath id="clip61_2339">
			<rect width="24.000000" height="24.000000" fill="white" fill-opacity="0"/>
		</clipPath>
	</defs>
	<g clip-path="url(#clip61_2339)">
		<path d="M12 2C17.52 2 22 6.47 22 12C22 17.52 17.52 22 12 22C6.47 22 2 17.52 2 12C2 6.47 6.47 2 12 2ZM16.28 8.96C16.24 8.93 16.2 8.9 16.16 8.87C16.12 8.84 16.08 8.82 16.03 8.8C15.99 8.78 15.94 8.77 15.89 8.76C15.84 8.75 15.79 8.74 15.74 8.75C15.7 8.75 15.65 8.75 15.6 8.76C15.55 8.77 15.5 8.78 15.46 8.8C15.41 8.82 15.37 8.84 15.33 8.87C15.29 8.9 15.25 8.93 15.21 8.96L10.75 13.43L8.77 11.47C8.74 11.43 8.7 11.4 8.66 11.37C8.62 11.35 8.58 11.33 8.53 11.31C8.49 11.29 8.44 11.27 8.39 11.27C8.34 11.26 8.29 11.25 8.24 11.25C8.2 11.25 8.15 11.26 8.1 11.27C8.05 11.28 8 11.29 7.96 11.31C7.91 11.33 7.87 11.35 7.83 11.38C7.79 11.41 7.75 11.44 7.72 11.47C7.68 11.51 7.65 11.55 7.63 11.59C7.6 11.63 7.58 11.67 7.56 11.72C7.54 11.76 7.52 11.81 7.51 11.86C7.5 11.9 7.5 11.95 7.5 12C7.5 12.05 7.5 12.1 7.51 12.15C7.52 12.19 7.54 12.24 7.56 12.29C7.57 12.33 7.6 12.37 7.62 12.42C7.65 12.46 7.68 12.49 7.72 12.53L10.22 15.03C10.26 15.06 10.3 15.09 10.34 15.12C10.38 15.15 10.42 15.17 10.47 15.19C10.51 15.21 10.56 15.22 10.61 15.23C10.66 15.24 10.7 15.25 10.75 15.25C10.8 15.25 10.85 15.24 10.9 15.23C10.95 15.22 10.99 15.21 11.04 15.19C11.09 15.17 11.13 15.15 11.17 15.12C11.21 15.09 11.25 15.06 11.28 15.03L16.28 10.03C16.31 9.99 16.34 9.95 16.37 9.91C16.4 9.87 16.42 9.83 16.44 9.78C16.46 9.74 16.47 9.69 16.48 9.64C16.49 9.59 16.5 9.54 16.5 9.49C16.5 9.45 16.49 9.4 16.48 9.35C16.47 9.3 16.46 9.25 16.44 9.21C16.42 9.16 16.4 9.12 16.37 9.08C16.34 9.04 16.31 9 16.28 8.96Z" fill="#FFFFFF" fill-opacity="1.000000" fill-rule="nonzero"/>
	</g>
</svg>
