<svg width="24.000000" height="24.000000" viewBox="0 0 24 24" fill="none" xmlns="http://www.w3.org/2000/svg" xmlns:xlink="http://www.w3.org/1999/xlink">
	<desc>
			Created with Pixso.
	</desc>
	<defs>
		<clipPath id="clip61_1972">
			<rect id="svg" width="24.000000" height="24.000000" fill="white" fill-opacity="0"/>
		</clipPath>
	</defs>
	<g clip-path="url(#clip61_1972)">
		<path id="path" d="M12 22.46C6.23 22.46 1.54 17.77 1.54 12C1.54 6.22 6.23 1.53 12 1.53C17.78 1.53 22.46 6.22 22.46 12C22.46 17.77 17.78 22.46 12 22.46ZM14.17 8.16L11.96 11.97L9.73 8.16L8.72 8.16L11.04 12.04L9.05 12.04L9.05 12.73L11.5 12.73L11.5 13.82L9.05 13.82L9.05 14.51L11.5 14.51L11.5 16.8L12.4 16.8L12.4 14.51L14.86 14.51L14.86 13.82L12.4 13.82L12.4 12.73L14.86 12.73L14.86 12.04L12.85 12.04L15.15 8.16L14.17 8.16Z" fill="#666666" fill-opacity="1.000000" fill-rule="nonzero"/>
	</g>
</svg>
