<svg width="16.000000" height="16.000000" viewBox="0 0 16 16" fill="none" xmlns="http://www.w3.org/2000/svg" xmlns:xlink="http://www.w3.org/1999/xlink">
	<desc>
			Created with Pixso.
	</desc>
	<defs>
		<clipPath id="clip61_1706">
			<rect width="16.000000" height="16.000000" fill="white" fill-opacity="0"/>
		</clipPath>
	</defs>
	<g clip-path="url(#clip61_1706)">
		<path d="M14.29 7.45L8.54 7.45L8.54 1.7C8.54 1.41 8.29 1.16 7.99 1.16C7.7 1.16 7.45 1.41 7.45 1.7L7.45 7.45L1.7 7.45C1.41 7.45 1.16 7.7 1.16 8C1.16 8.29 1.41 8.54 1.7 8.54L7.45 8.54L7.45 14.29C7.45 14.58 7.7 14.83 7.99 14.83C8.29 14.83 8.54 14.58 8.54 14.29L8.54 8.54L14.29 8.54C14.58 8.54 14.83 8.29 14.83 8C14.83 7.7 14.58 7.45 14.29 7.45Z" fill="#FFFFFF" fill-opacity="1.000000" fill-rule="nonzero"/>
	</g>
</svg>
