<svg width="24.000000" height="24.000000" viewBox="0 0 24 24" fill="none" xmlns="http://www.w3.org/2000/svg" xmlns:xlink="http://www.w3.org/1999/xlink">
	<desc>
			Created with Pixso.
	</desc>
	<defs>
		<clipPath id="clip61_1977">
			<rect id="svg" width="22.000000" height="22.000000" transform="translate(1.000000 1.000000)" fill="white" fill-opacity="0"/>
		</clipPath>
		<clipPath id="clip61_1970">
			<rect id="svg" width="24.000000" height="24.000000" fill="white" fill-opacity="0"/>
		</clipPath>
	</defs>
	<g clip-path="url(#clip61_1970)">
		<g clip-path="url(#clip61_1977)">
			<path id="path" d="M17.78 19.29C17.78 19.37 17.77 19.45 17.76 19.53C17.74 19.61 17.72 19.69 17.68 19.77C17.65 19.84 17.61 19.92 17.57 19.99C17.52 20.05 17.47 20.12 17.41 20.18C17.35 20.23 17.29 20.29 17.22 20.33C17.15 20.38 17.08 20.42 17 20.45C16.93 20.48 16.85 20.5 16.77 20.52C16.69 20.54 16.6 20.54 16.52 20.54L7.47 20.54C7.39 20.54 7.3 20.54 7.22 20.52C7.14 20.5 7.06 20.48 6.99 20.45C6.91 20.42 6.84 20.38 6.77 20.33C6.7 20.29 6.64 20.23 6.58 20.17C6.52 20.12 6.47 20.05 6.42 19.98C6.38 19.92 6.34 19.84 6.31 19.77C6.27 19.69 6.25 19.61 6.23 19.53C6.22 19.45 6.21 19.37 6.21 19.29L6.21 5.94L17.78 5.94L17.78 19.29ZM8.72 3.69C8.72 3.66 8.73 3.62 8.74 3.59C8.75 3.56 8.77 3.53 8.8 3.51C8.82 3.48 8.85 3.46 8.88 3.45C8.91 3.44 8.95 3.43 8.98 3.43L15.02 3.43C15.06 3.43 15.09 3.44 15.12 3.45C15.15 3.46 15.18 3.48 15.21 3.51C15.23 3.53 15.25 3.56 15.26 3.59C15.28 3.62 15.28 3.66 15.28 3.69L15.28 4.43L8.72 4.43L8.72 3.69ZM21.55 4.43L16.78 4.43L16.78 3.69C16.78 3.63 16.78 3.58 16.77 3.52C16.77 3.46 16.76 3.4 16.75 3.35C16.74 3.29 16.72 3.24 16.7 3.18C16.69 3.13 16.67 3.07 16.65 3.02C16.62 2.96 16.6 2.91 16.57 2.86C16.55 2.81 16.52 2.76 16.48 2.71C16.45 2.67 16.42 2.62 16.38 2.58C16.34 2.53 16.31 2.49 16.27 2.45C16.22 2.41 16.18 2.37 16.14 2.33C16.09 2.3 16.05 2.26 16 2.23C15.95 2.2 15.9 2.17 15.85 2.14C15.8 2.11 15.75 2.09 15.7 2.07C15.64 2.05 15.59 2.03 15.53 2.01C15.48 1.99 15.42 1.98 15.37 1.97C15.31 1.96 15.25 1.95 15.2 1.94C15.14 1.94 15.08 1.93 15.02 1.93L8.98 1.93C8.92 1.93 8.87 1.94 8.81 1.94C8.75 1.95 8.69 1.96 8.64 1.97C8.58 1.98 8.53 1.99 8.47 2.01C8.42 2.03 8.36 2.05 8.31 2.07C8.26 2.09 8.2 2.12 8.15 2.14C8.1 2.17 8.05 2.2 8.01 2.23C7.96 2.26 7.91 2.3 7.87 2.33C7.82 2.37 7.78 2.41 7.74 2.45C7.7 2.49 7.66 2.53 7.62 2.58C7.59 2.62 7.55 2.67 7.52 2.72C7.49 2.76 7.46 2.81 7.43 2.86C7.41 2.91 7.38 2.97 7.36 3.02C7.34 3.07 7.32 3.13 7.3 3.18C7.28 3.24 7.27 3.29 7.26 3.35C7.25 3.4 7.24 3.46 7.23 3.52C7.23 3.58 7.22 3.63 7.22 3.69L7.22 4.43L2.44 4.43C2.39 4.44 2.34 4.44 2.3 4.46C2.25 4.47 2.21 4.48 2.16 4.5C2.12 4.52 2.08 4.55 2.04 4.58C2 4.61 1.97 4.64 1.93 4.67C1.9 4.71 1.87 4.74 1.85 4.78C1.82 4.82 1.8 4.87 1.78 4.91C1.77 4.96 1.75 5 1.74 5.05C1.73 5.1 1.73 5.14 1.73 5.19C1.73 5.24 1.73 5.29 1.74 5.33C1.75 5.38 1.77 5.42 1.78 5.47C1.8 5.51 1.82 5.56 1.85 5.6C1.87 5.64 1.9 5.67 1.93 5.71C1.97 5.74 2 5.78 2.04 5.8C2.08 5.83 2.12 5.86 2.16 5.88C2.21 5.9 2.25 5.91 2.3 5.93C2.34 5.94 2.39 5.95 2.44 5.95L4.7 5.95L4.7 19.29C4.7 19.38 4.7 19.47 4.71 19.56C4.72 19.65 4.73 19.74 4.75 19.83C4.77 19.92 4.79 20 4.82 20.09C4.84 20.18 4.87 20.26 4.91 20.35C4.94 20.43 4.98 20.51 5.02 20.59C5.07 20.67 5.11 20.75 5.16 20.83C5.21 20.9 5.27 20.97 5.33 21.04C5.38 21.11 5.44 21.18 5.51 21.25C5.57 21.31 5.64 21.37 5.71 21.43C5.78 21.49 5.85 21.54 5.93 21.59C6 21.64 6.08 21.69 6.16 21.73C6.24 21.77 6.32 21.81 6.41 21.85C6.49 21.88 6.58 21.91 6.66 21.94C6.75 21.96 6.84 21.99 6.93 22C7.02 22.02 7.11 22.03 7.2 22.04C7.29 22.05 7.38 22.06 7.47 22.06L16.52 22.06C16.61 22.06 16.7 22.05 16.79 22.04C16.88 22.03 16.97 22.02 17.06 22C17.15 21.99 17.24 21.96 17.33 21.94C17.41 21.91 17.5 21.88 17.58 21.85C17.67 21.81 17.75 21.77 17.83 21.73C17.91 21.69 17.99 21.64 18.06 21.59C18.14 21.54 18.21 21.49 18.28 21.43C18.35 21.37 18.42 21.31 18.48 21.25C18.55 21.18 18.61 21.11 18.66 21.04C18.72 20.97 18.78 20.9 18.83 20.83C18.88 20.75 18.92 20.67 18.97 20.59C19.01 20.51 19.05 20.43 19.08 20.35C19.12 20.26 19.15 20.18 19.17 20.09C19.2 20 19.22 19.92 19.24 19.83C19.26 19.74 19.27 19.65 19.28 19.56C19.29 19.47 19.29 19.38 19.29 19.29L19.29 5.94L21.55 5.94C21.6 5.94 21.65 5.94 21.7 5.93C21.75 5.92 21.79 5.91 21.84 5.89C21.89 5.87 21.93 5.85 21.97 5.82C22.01 5.79 22.05 5.76 22.09 5.72C22.12 5.69 22.15 5.65 22.18 5.61C22.21 5.57 22.23 5.52 22.25 5.48C22.27 5.43 22.28 5.39 22.29 5.34C22.3 5.29 22.31 5.24 22.31 5.19C22.31 5.14 22.3 5.09 22.3 5.04C22.29 4.99 22.27 4.94 22.25 4.9C22.24 4.85 22.21 4.81 22.18 4.77C22.16 4.72 22.13 4.69 22.09 4.65C22.05 4.61 22.02 4.58 21.97 4.56C21.93 4.53 21.89 4.51 21.84 4.49C21.8 4.47 21.75 4.45 21.7 4.44C21.65 4.44 21.6 4.43 21.55 4.43ZM12 18.27C12.04 18.27 12.09 18.27 12.14 18.26C12.19 18.25 12.24 18.23 12.29 18.21C12.33 18.2 12.37 18.17 12.42 18.14C12.46 18.12 12.5 18.08 12.53 18.05C12.57 18.01 12.6 17.98 12.62 17.93C12.65 17.89 12.68 17.85 12.69 17.8C12.71 17.76 12.73 17.71 12.74 17.66C12.75 17.61 12.75 17.56 12.75 17.51L12.75 9.46C12.75 9.41 12.75 9.36 12.74 9.31C12.73 9.26 12.71 9.21 12.69 9.17C12.67 9.12 12.65 9.08 12.62 9.04C12.6 9 12.57 8.96 12.53 8.92C12.49 8.89 12.46 8.86 12.42 8.83C12.37 8.8 12.33 8.78 12.28 8.76C12.24 8.74 12.19 8.73 12.14 8.72C12.09 8.71 12.04 8.7 12 8.7C11.95 8.7 11.9 8.71 11.85 8.72C11.8 8.73 11.75 8.74 11.71 8.76C11.66 8.78 11.62 8.8 11.57 8.83C11.53 8.86 11.5 8.89 11.46 8.92C11.42 8.96 11.39 9 11.37 9.04C11.34 9.08 11.32 9.12 11.3 9.17C11.28 9.21 11.26 9.26 11.25 9.31C11.24 9.36 11.24 9.41 11.24 9.46L11.24 17.51C11.24 17.56 11.24 17.61 11.25 17.66C11.26 17.71 11.28 17.76 11.3 17.8C11.31 17.85 11.34 17.89 11.36 17.93C11.39 17.98 11.42 18.01 11.46 18.05C11.49 18.08 11.53 18.12 11.57 18.14C11.62 18.17 11.66 18.2 11.7 18.21C11.75 18.23 11.8 18.25 11.85 18.26C11.9 18.27 11.95 18.27 12 18.27ZM8.46 18.27C8.51 18.27 8.56 18.27 8.61 18.26C8.66 18.25 8.71 18.23 8.76 18.21C8.8 18.2 8.85 18.17 8.89 18.14C8.93 18.12 8.97 18.08 9 18.05C9.04 18.01 9.07 17.98 9.1 17.93C9.12 17.89 9.15 17.85 9.17 17.8C9.19 17.76 9.2 17.71 9.21 17.66C9.22 17.61 9.22 17.56 9.22 17.51L9.22 9.46C9.23 9.41 9.23 9.35 9.22 9.3C9.21 9.25 9.2 9.2 9.18 9.15C9.16 9.1 9.14 9.06 9.12 9.01C9.09 8.97 9.06 8.93 9.02 8.89C8.99 8.85 8.95 8.82 8.9 8.79C8.86 8.76 8.82 8.73 8.77 8.71C8.72 8.69 8.67 8.67 8.62 8.66C8.57 8.65 8.52 8.65 8.47 8.65C8.41 8.65 8.36 8.65 8.31 8.66C8.26 8.67 8.21 8.69 8.16 8.71C8.12 8.73 8.07 8.76 8.03 8.79C7.99 8.82 7.95 8.85 7.91 8.89C7.88 8.93 7.84 8.97 7.82 9.01C7.79 9.06 7.77 9.1 7.75 9.15C7.73 9.2 7.72 9.25 7.71 9.3C7.71 9.35 7.7 9.41 7.71 9.46L7.71 17.51C7.71 17.56 7.72 17.61 7.73 17.66C7.74 17.71 7.75 17.75 7.77 17.8C7.79 17.84 7.81 17.89 7.84 17.93C7.87 17.97 7.9 18.01 7.94 18.04C7.97 18.08 8.01 18.11 8.05 18.14C8.09 18.16 8.13 18.19 8.18 18.21C8.22 18.23 8.27 18.24 8.32 18.25C8.37 18.26 8.42 18.27 8.46 18.27ZM15.53 18.27C15.58 18.27 15.62 18.27 15.67 18.26C15.72 18.25 15.77 18.23 15.81 18.21C15.86 18.19 15.9 18.17 15.95 18.14C15.99 18.11 16.03 18.08 16.06 18.05C16.1 18.01 16.13 17.97 16.15 17.93C16.18 17.89 16.2 17.85 16.22 17.8C16.24 17.76 16.26 17.71 16.27 17.66C16.28 17.61 16.28 17.56 16.28 17.51L16.28 9.46C16.29 9.41 16.28 9.35 16.28 9.3C16.27 9.25 16.26 9.2 16.24 9.15C16.22 9.1 16.2 9.06 16.17 9.01C16.15 8.97 16.11 8.93 16.08 8.89C16.04 8.85 16 8.82 15.96 8.79C15.92 8.76 15.87 8.73 15.83 8.71C15.78 8.69 15.73 8.67 15.68 8.66C15.63 8.65 15.58 8.65 15.52 8.65C15.47 8.65 15.42 8.65 15.37 8.66C15.32 8.67 15.27 8.69 15.22 8.71C15.17 8.73 15.13 8.76 15.09 8.79C15.04 8.82 15 8.85 14.97 8.89C14.93 8.93 14.9 8.97 14.87 9.01C14.85 9.06 14.83 9.1 14.81 9.15C14.79 9.2 14.78 9.25 14.77 9.3C14.76 9.35 14.76 9.41 14.77 9.46L14.77 17.51C14.77 17.56 14.77 17.61 14.78 17.66C14.79 17.71 14.8 17.76 14.82 17.8C14.84 17.85 14.87 17.89 14.89 17.93C14.92 17.98 14.95 18.01 14.99 18.05C15.02 18.08 15.06 18.12 15.1 18.14C15.14 18.17 15.19 18.2 15.23 18.21C15.28 18.23 15.33 18.25 15.38 18.26C15.43 18.27 15.48 18.27 15.53 18.27Z" fill="#E84026" fill-opacity="1.000000" fill-rule="nonzero"/>
		</g>
	</g>
</svg>
