<svg width="8.669998" height="16.469971" viewBox="0 0 8.67 16.47" fill="none" xmlns="http://www.w3.org/2000/svg" xmlns:xlink="http://www.w3.org/1999/xlink">
	<desc>
			Created with Pixso.
	</desc>
	<defs/>
	<path id="path" d="M1.5 8.26L8.46 1.29C8.6 1.14 8.67 0.96 8.67 0.76C8.67 0.55 8.6 0.38 8.46 0.21C8.32 0.07 8.14 0 7.94 0C7.73 0 7.55 0.07 7.39 0.21L0.41 7.2C0.13 7.48 0 7.84 0 8.26C0 8.66 0.13 9.02 0.41 9.32L7.39 16.25C7.5 16.39 7.67 16.46 7.89 16.46C8.12 16.46 8.28 16.39 8.43 16.25C8.58 16.11 8.64 15.93 8.64 15.72C8.64 15.51 8.58 15.34 8.43 15.2L1.5 8.26Z" fill="#FFFFFF" fill-opacity="1.000000" fill-rule="nonzero"/>
</svg>
