<svg width="19.488281" height="19.482422" viewBox="0 0 19.4883 19.4824" fill="none" xmlns="http://www.w3.org/2000/svg" xmlns:xlink="http://www.w3.org/1999/xlink">
	<desc>
			Created with Pixso.
	</desc>
	<defs/>
	<path id="󰀵" d="M10.48 9L10.48 0.74C10.48 0.53 10.41 0.35 10.27 0.21C10.12 0.07 9.95 0 9.74 0C9.53 0 9.36 0.07 9.21 0.21C9.07 0.35 9 0.53 9 0.74L9 9L0.74 9C0.53 9 0.36 9.07 0.21 9.21C0.07 9.35 0 9.53 0 9.74C0 9.95 0.07 10.12 0.21 10.27C0.36 10.41 0.53 10.48 0.74 10.48L9 10.48L9 18.74C9 18.95 9.07 19.12 9.21 19.26C9.36 19.41 9.53 19.48 9.74 19.48C9.95 19.48 10.12 19.41 10.27 19.26C10.41 19.12 10.48 18.95 10.48 18.74L10.48 10.48L18.74 10.48C18.95 10.48 19.12 10.41 19.27 10.27C19.41 10.12 19.48 9.95 19.48 9.74C19.48 9.53 19.41 9.35 19.27 9.21C19.12 9.07 18.95 9 18.74 9L10.48 9Z" fill="#000000" fill-opacity="0.600000" fill-rule="nonzero"/>
</svg>
