<svg viewBox="0 0 48 48" xmlns="http://www.w3.org/2000/svg" xmlns:xlink="http://www.w3.org/1999/xlink" width="48.000000" height="48.000000" fill="none">
	<defs>
		<clipPath id="clipPath_11">
			<rect width="24.000000" height="24.000000" x="12.000000" y="12.500000" fill="rgb(255,255,255)" />
		</clipPath>
		<clipPath id="clipPath_12">
			<rect width="24.000000" height="24.000000" x="12.000000" y="12.500000" fill="rgb(255,255,255)" />
		</clipPath>
	</defs>
	<rect id="cc" width="48.000000" height="48.000000" x="0.000000" y="0.000000" />
	<circle id="path3" cx="24" cy="24" r="24" fill="rgb(243,252,255)" />
	<circle id="path3" cx="24" cy="24" r="24" stroke="rgb(0,0,0)" stroke-opacity="0" stroke-width="1" />
	<g id="paintbrush_fill" clip-path="url(#clipPath_11)" customFrame="url(#clipPath_11)">
		<rect id="paintbrush_fill" width="24.000000" height="24.000000" x="12.000000" y="12.500000" />
		<rect id="矩形 3633" width="24.000000" height="24.000000" x="12.000000" y="12.500000" opacity="0" fill="rgb(0,0,0)" />
		<g id="svg 4" clip-path="url(#clipPath_12)" customFrame="url(#clipPath_12)">
			<rect id="svg 4" width="24.000000" height="24.000000" x="12.000000" y="12.500000" />
			<path id="减去顶层" d="M15.3371 16.0908L32.639 16.0908C34.068 16.0908 35.2271 17.2498 35.2293 18.6789L35.2293 30.3218C35.2293 31.7486 34.0702 32.9077 32.6412 32.9077L15.3371 32.9077C13.908 32.9077 12.749 31.7508 12.749 30.3218L12.749 18.6789C12.749 17.2498 13.908 16.0908 15.3371 16.0908ZM20.962 20.122L23.855 20.595C24.207 20.595 24.493 20.881 24.493 21.233L24.493 24.3515C24.493 26.744 21.71 28.3775 20.7915 28.8505C20.61 28.944 20.39 28.944 20.2085 28.8505C19.29 28.3775 16.507 26.7385 16.507 24.3515L16.507 21.233C16.507 20.881 16.793 20.595 17.145 20.595L20.049 20.122C20.2012 20.0971 20.3533 20.0846 20.5055 20.0846C20.6577 20.0846 20.8098 20.0971 20.962 20.122ZM30.7381 21.2274L27.1446 21.2274C26.8593 21.2274 26.5959 21.6159 26.5959 21.9013C26.5959 22.1867 26.8593 22.5752 27.1446 22.5752L30.7381 22.5752C31.0234 22.5752 31.2869 22.1867 31.2869 21.9013C31.2869 21.6159 31.0234 21.2274 30.7381 21.2274ZM21.7375 24.8355C21.7595 25.732 21.886 26.26 22.348 26.26C22.7 26.26 22.854 26.0785 22.898 25.4405C22.7715 25.402 22.579 25.292 22.4745 25.1985C22.458 25.5945 22.425 25.765 22.3645 25.765C22.1885 25.765 22.216 24.687 22.293 22.971L21.2975 22.971C21.3085 22.6905 21.3085 22.3935 21.303 22.08L20.786 22.0855C20.797 22.3935 20.797 22.696 20.797 22.971L20.2085 22.971L20.2085 23.4495L20.786 23.4495C20.775 23.6585 20.7585 23.851 20.7365 24.038C20.6265 23.972 20.522 23.917 20.423 23.862L20.159 24.1865L20.17 24.2525C20.3185 24.335 20.4835 24.4285 20.643 24.533C20.5055 25.0995 20.247 25.5395 19.785 25.8475C19.906 25.952 20.0985 26.1775 20.159 26.2875C20.6375 25.9135 20.9235 25.4295 21.0885 24.8245C21.259 24.9345 21.402 25.05 21.512 25.138L21.7375 24.8355ZM19.29 26.1555C19.4275 26.0675 19.4715 25.9245 19.4715 25.6715L19.4825 25.6715L19.4825 24.5825C19.642 24.533 19.796 24.478 19.95 24.423L19.9225 24.269L19.9115 24.203L19.8675 23.95L19.477 24.071L19.477 23.444L19.873 23.444L19.873 22.9545L19.477 22.9545L19.477 22.102L18.971 22.102L18.971 22.9545L18.4925 22.9545L18.4925 23.444L18.971 23.444L18.971 24.2195C18.7675 24.28 18.5805 24.335 18.4265 24.3735L18.5475 24.8795L18.971 24.7475L18.971 25.6715C18.971 25.7375 18.9545 25.754 18.894 25.754C18.839 25.754 18.6795 25.754 18.5255 25.743C18.586 25.897 18.652 26.117 18.6685 26.26C18.96 26.2655 19.158 26.238 19.29 26.1555ZM21.204 24.302C21.4075 24.423 21.5945 24.544 21.7375 24.643C21.7375 24.291 21.7485 23.8895 21.754 23.444L21.2865 23.444C21.27 23.7465 21.2425 24.038 21.204 24.302ZM30.7381 24.1074L27.1446 24.1074C26.8593 24.1074 26.5959 24.4959 26.5959 24.7813C26.5959 25.0667 26.8593 25.4552 27.1446 25.4552L30.7381 25.4552C31.0234 25.4552 31.2869 25.0667 31.2869 24.7813C31.2869 24.4959 31.0234 24.1074 30.7381 24.1074ZM27.1446 28.3352L32.4656 28.3352C32.751 28.3352 33.0144 27.9467 33.0144 27.6613C33.0144 27.3759 32.751 26.9874 32.4656 26.9874L27.1446 26.9874C26.8593 26.9874 26.5959 27.3759 26.5959 27.6613C26.5959 27.9467 26.8593 28.3352 27.1446 28.3352Z" fill="rgb(70,177,227)" fill-rule="evenodd" />
		</g>
	</g>
</svg>
