<svg viewBox="0 0 48 48" xmlns="http://www.w3.org/2000/svg" xmlns:xlink="http://www.w3.org/1999/xlink" width="48.000000" height="48.000000" fill="none">
	<mask id="mask_1" width="24.000000" height="24.000000" x="12.000000" y="12.500000" maskUnits="userSpaceOnUse">
		<g filter="url(#pixso_custom_mask_type_luminance)">
			<g id="hms_mask_0">
				<rect id="矩形 3636" width="24.000000" height="24.000000" x="12.000000" y="12.500000" fill="rgb(255,255,255)" />
				<g id="组合 4174">
					<path id="矢量 309" d="M22.03 22.8401C21.8234 22.8401 21.6467 22.7701 21.5 22.6301C21.36 22.4834 21.29 22.3067 21.29 22.1001C21.29 21.8934 21.36 21.7134 21.5 21.5601C21.6467 21.4067 21.8234 21.3301 22.03 21.3301L30.1 21.3301C30.3067 21.3301 30.48 21.4067 30.62 21.5601C30.7667 21.7134 30.84 21.8934 30.84 22.1001C30.84 22.3067 30.7667 22.4834 30.62 22.6301C30.48 22.7701 30.3067 22.8401 30.1 22.8401L22.03 22.8401ZM22.03 27.6701C21.8234 27.6701 21.6467 27.5934 21.5 27.4401C21.36 27.2867 21.29 27.1067 21.29 26.9001C21.29 26.6934 21.36 26.5167 21.5 26.3701C21.6467 26.2301 21.8234 26.1601 22.03 26.1601L27.34 26.1601C27.5467 26.1601 27.72 26.2301 27.86 26.3701C28.0067 26.5167 28.08 26.6934 28.08 26.9001C28.08 27.1067 28.0067 27.2867 27.86 27.4401C27.72 27.5934 27.5467 27.6701 27.34 27.6701L22.03 27.6701Z" fill="rgb(0,0,0)" fill-rule="evenodd" />
				</g>
			</g>
		</g>
	</mask>
	<defs>
		<clipPath id="clipPath_6">
			<rect width="24.000000" height="24.000000" x="12.000000" y="12.500000" fill="rgb(255,255,255)" />
		</clipPath>
		<filter id="pixso_custom_mask_type_luminance">
			<feColorMatrix type="matrix" values="1 0 0 0 0 0 1 0 0 0 0 0 1 0 0 0 0 0 1 0 " />
		</filter>
	</defs>
	<rect id="qq" width="48.000000" height="48.000000" x="0.000000" y="0.000000" />
	<circle id="path3" cx="24" cy="24" r="24" fill="rgb(243,252,255)" />
	<circle id="path3" cx="24" cy="24" r="24" stroke="rgb(0,0,0)" stroke-opacity="0" stroke-width="1" />
	<g id="ticket_fill" clip-path="url(#clipPath_6)" customFrame="url(#clipPath_6)">
		<rect id="ticket_fill" width="24.000000" height="24.000000" x="12.000000" y="12.500000" />
		<rect id="矩形 3635" width="24.000000" height="24.000000" x="12.000000" y="12.500000" opacity="0" fill="rgb(0,0,0)" />
		<g id="mask" mask="url(#mask_1)">
			<g id="组合 4173">
				<path id="矢量 308" d="M18.2598 32.4001C18.3731 32.4001 18.4864 32.3701 18.5998 32.3101C18.7131 32.2567 18.7998 32.1801 18.8598 32.0801L18.9098 31.9901C18.9898 31.7967 19.1198 31.6434 19.2998 31.5301C19.4731 31.4167 19.6631 31.3601 19.8698 31.3601C20.0631 31.3601 20.2464 31.4167 20.4198 31.5301C20.5998 31.6434 20.7298 31.7967 20.8098 31.9901C20.8698 32.1167 20.9564 32.2167 21.0698 32.2901C21.1831 32.3634 21.3131 32.4001 21.4598 32.4001L32.9298 32.4001C33.5031 32.4001 33.9898 32.2001 34.3898 31.8001C34.7898 31.4001 34.9898 30.9101 34.9898 30.3301L34.9898 18.6401C34.9898 18.0801 34.7898 17.5967 34.3898 17.1901C33.9898 16.7834 33.5031 16.5801 32.9298 16.5801L21.4598 16.5801C21.3264 16.5801 21.1998 16.6167 21.0798 16.6901C20.9598 16.7634 20.8698 16.8634 20.8098 16.9901C20.7298 17.1834 20.6064 17.3334 20.4398 17.4401C20.2664 17.5534 20.0764 17.6101 19.8698 17.6101C19.6631 17.6101 19.4731 17.5534 19.2998 17.4401C19.1198 17.3334 18.9898 17.1834 18.9098 16.9901C18.8631 16.8767 18.7764 16.7801 18.6498 16.7001C18.5231 16.6201 18.3931 16.5801 18.2598 16.5801L15.0498 16.5801C14.4898 16.5801 14.0098 16.7834 13.6098 17.1901C13.2098 17.5967 13.0098 18.0801 13.0098 18.6401L13.0098 30.3301C13.0098 30.9101 13.2098 31.4001 13.6098 31.8001C14.0098 32.2001 14.4898 32.4001 15.0498 32.4001L18.2598 32.4001Z" fill="rgb(97,207,190)" fill-rule="evenodd" />
			</g>
		</g>
	</g>
</svg>
