<svg viewBox="0 0 48 48" xmlns="http://www.w3.org/2000/svg" xmlns:xlink="http://www.w3.org/1999/xlink" width="48.000000" height="48.000000" fill="none">
	<defs>
		<clipPath id="clipPath_8">
			<rect width="24.000000" height="24.000000" x="12.000000" y="12.500000" fill="rgb(255,255,255)" />
		</clipPath>
	</defs>
	<rect id="vvf" width="48.000000" height="48.000000" x="0.000000" y="0.000000" />
	<circle id="path3" cx="24" cy="24" r="24" fill="rgb(243,252,255)" />
	<circle id="path3" cx="24" cy="24" r="24" stroke="rgb(0,0,0)" stroke-opacity="0" stroke-width="1" />
	<g id="creditcard_fill" clip-path="url(#clipPath_8)" customFrame="url(#clipPath_8)">
		<rect id="creditcard_fill" width="24.000000" height="24.000000" x="12.000000" y="12.500000" />
		<rect id="矩形 3638" width="24.000000" height="24.000000" x="12.000000" y="12.500000" opacity="0" fill="rgb(0,0,0)" />
		<g id="组合 4176">
			<path id="矢量 312" d="M13.0098 30.5C13.0098 31.0467 13.1398 31.5467 13.3998 32C13.6664 32.4533 14.0331 32.8167 14.4998 33.09C14.9598 33.3633 15.4631 33.5 16.0098 33.5L31.9898 33.5C32.5364 33.5 33.0364 33.3633 33.4898 33.09C33.9498 32.8167 34.3131 32.4533 34.5798 32C34.8531 31.5467 34.9898 31.0467 34.9898 30.5L34.9898 21.26L13.0098 21.26L13.0098 30.5ZM16.0098 15.5C15.4631 15.5 14.9598 15.6367 14.4998 15.91C14.0331 16.1833 13.6664 16.5467 13.3998 17C13.1398 17.4533 13.0098 17.9533 13.0098 18.5L13.0098 19.77L34.9898 19.77L34.9898 18.5C34.9898 17.9533 34.8531 17.4533 34.5798 17C34.3131 16.5467 33.9498 16.1833 33.4898 15.91C33.0364 15.6367 32.5364 15.5 31.9898 15.5L16.0098 15.5ZM16.7498 24.5C16.5431 24.5 16.3664 24.4267 16.2198 24.28C16.0798 24.14 16.0098 23.9667 16.0098 23.76C16.0098 23.5467 16.0798 23.3667 16.2198 23.22C16.3664 23.0667 16.5431 22.99 16.7498 22.99L23.2298 22.99C23.4364 22.99 23.6164 23.0667 23.7698 23.22C23.9231 23.3667 23.9998 23.5467 23.9998 23.76C23.9998 23.9667 23.9231 24.14 23.7698 24.28C23.6164 24.4267 23.4364 24.5 23.2298 24.5L16.7498 24.5Z" fill="rgb(70,177,227)" fill-rule="nonzero" />
		</g>
	</g>
</svg>
