<svg viewBox="0 0 24 24" xmlns="http://www.w3.org/2000/svg" xmlns:xlink="http://www.w3.org/1999/xlink" width="24.000000" height="24.000000" fill="none">
	<rect id="plus_square_on_square" width="24.000000" height="24.000000" x="0.000000" y="0.000000" />
	<rect id="矩形 3639" width="24.000000" height="24.000000" x="0.000000" y="0.000000" opacity="0" fill="rgb(0,0,0)" />
	<g id="组合 4180">
		<path id="矢量 318" d="M15.2598 7.22023C15.6798 7.22023 16.0331 7.37023 16.3198 7.67023C16.6064 7.96357 16.7498 8.32023 16.7498 8.74023L16.7498 18.7202C16.7498 19.1336 16.6064 19.4902 16.3198 19.7902C16.0331 20.0836 15.6798 20.2302 15.2598 20.2302L5.25977 20.2302C4.83977 20.2302 4.48643 20.0836 4.19977 19.7902C3.9131 19.4902 3.76977 19.1336 3.76977 18.7202L3.76977 8.74023C3.76977 8.32023 3.9131 7.96357 4.19977 7.67023C4.48643 7.37023 4.83977 7.22023 5.25977 7.22023L15.2598 7.22023ZM5.25977 5.74023C4.7131 5.74023 4.2131 5.87357 3.75977 6.14023C3.29977 6.41357 2.9331 6.78023 2.65977 7.24023C2.3931 7.69357 2.25977 8.19357 2.25977 8.74023L2.25977 18.7202C2.25977 19.2669 2.3931 19.7702 2.65977 20.2302C2.9331 20.6969 3.29977 21.0602 3.75977 21.3202C4.2131 21.5869 4.7131 21.7202 5.25977 21.7202L15.2598 21.7202C15.8064 21.7202 16.3064 21.5869 16.7598 21.3202C17.2198 21.0602 17.5864 20.6969 17.8598 20.2302C18.1264 19.7702 18.2598 19.2669 18.2598 18.7202L18.2598 8.74023C18.2598 8.19357 18.1264 7.69357 17.8598 7.24023C17.5864 6.78023 17.2198 6.41357 16.7598 6.14023C16.3064 5.87357 15.8064 5.74023 15.2598 5.74023L5.25977 5.74023ZM10.9398 13.0802L10.9398 9.82023C10.9398 9.51357 10.8164 9.30023 10.5698 9.18023C10.3231 9.06024 10.0731 9.06024 9.81977 9.18023C9.55976 9.30023 9.42977 9.51357 9.42977 9.82023L9.42977 13.0802L6.18977 13.0802C5.88977 13.0802 5.6731 13.2036 5.53977 13.4502C5.4131 13.6969 5.4131 13.9469 5.53977 14.2002C5.6731 14.4469 5.88977 14.5702 6.18977 14.5702L9.42977 14.5702L9.42977 17.8102C9.42977 18.1302 9.55976 18.3536 9.81977 18.4802C10.0731 18.6069 10.3231 18.6069 10.5698 18.4802C10.8164 18.3536 10.9398 18.1302 10.9398 17.8102L10.9398 14.5702L14.1798 14.5702C14.4998 14.5702 14.7264 14.4469 14.8598 14.2002C14.9864 13.9469 14.9864 13.6969 14.8598 13.4502C14.7264 13.2036 14.4998 13.0802 14.1798 13.0802L10.9398 13.0802Z" fill="rgb(0,0,0)" fill-opacity="0.898039222" fill-rule="nonzero" />
		<path id="矢量 319" d="M9.72043 2.25977C8.9671 2.25977 8.27376 2.4531 7.64043 2.83977C7.01376 3.2331 6.53043 3.75977 6.19043 4.41977L8.04043 4.41977C8.28043 4.20643 8.54043 4.04643 8.82043 3.93977C9.10043 3.82643 9.40043 3.76977 9.72043 3.76977L17.7404 3.76977C18.1871 3.76977 18.6004 3.87977 18.9804 4.09977C19.3671 4.32643 19.6738 4.6331 19.9004 5.01977C20.1204 5.39977 20.2304 5.8131 20.2304 6.25977L20.2304 14.2598C20.2304 14.5798 20.1704 14.8831 20.0504 15.1698C19.9304 15.4564 19.7671 15.7131 19.5604 15.9398L19.5604 17.7798C20.2138 17.4464 20.7371 16.9631 21.1304 16.3298C21.5238 15.6964 21.7204 15.0064 21.7204 14.2598L21.7204 6.25977C21.7204 5.53977 21.5404 4.8731 21.1804 4.25977C20.8204 3.64643 20.3371 3.15977 19.7304 2.79977C19.1238 2.43977 18.4604 2.25977 17.7404 2.25977L9.72043 2.25977Z" fill="rgb(0,0,0)" fill-opacity="0.898039222" fill-rule="nonzero" />
	</g>
</svg>
