<svg viewBox="0 0 48 48" xmlns="http://www.w3.org/2000/svg" xmlns:xlink="http://www.w3.org/1999/xlink" width="48.000000" height="48.000000" fill="none">
	<defs>
		<clipPath id="clipPath_5">
			<rect width="24.000000" height="24.000000" x="12.000000" y="12.500000" fill="rgb(255,255,255)" />
		</clipPath>
	</defs>
	<rect id="cc" width="48.000000" height="48.000000" x="0.000000" y="0.000000" />
	<circle id="path3" cx="24" cy="24" r="24" fill="rgb(241,255,240)" />
	<circle id="path3" cx="24" cy="24" r="24" stroke="rgb(0,0,0)" stroke-opacity="0" stroke-width="1" />
	<g id="paintbrush_fill" clip-path="url(#clipPath_5)" customFrame="url(#clipPath_5)">
		<rect id="paintbrush_fill" width="24.000000" height="24.000000" x="12.000000" y="12.500000" />
		<rect id="矩形 3633" width="24.000000" height="24.000000" x="12.000000" y="12.500000" opacity="0" fill="rgb(0,0,0)" />
		<g id="组合 4169">
			<path id="矢量 306" d="M33.4102 17.6401C33.5502 17.1067 33.5535 16.6601 33.4202 16.3001C33.2868 15.9401 33.0335 15.7001 32.6602 15.5801C32.2935 15.4601 31.8468 15.4801 31.3202 15.6401C30.4068 15.9134 29.3868 16.4801 28.2602 17.3401C27.1335 18.1934 26.1868 18.9801 25.4202 19.7001C24.5535 20.4867 23.1535 21.9434 21.2202 24.0701L20.9802 24.3301C20.7202 24.6167 20.5935 24.9534 20.6002 25.3401C20.6135 25.7267 20.7535 26.0534 21.0202 26.3201L22.7002 28.0001C22.9935 28.2934 23.3268 28.4401 23.7002 28.4401C24.0735 28.4401 24.3968 28.3201 24.6702 28.0801C25.2302 27.6134 26.0135 26.8801 27.0202 25.8801C28.0335 24.8801 29.0035 23.8601 29.9302 22.8201C31.8635 20.6467 33.0235 18.9201 33.4102 17.6401ZM19.4202 27.4001C18.9202 27.2934 18.4202 27.3334 17.9202 27.5201C17.4135 27.7134 17.0235 28.0334 16.7502 28.4801C16.6102 28.7201 16.4902 29.0334 16.3902 29.4201C16.3102 29.7534 16.1302 30.0934 15.8502 30.4401C15.5702 30.7867 15.2635 31.0934 14.9302 31.3601C14.6235 31.6001 14.4635 31.8167 14.4502 32.0101C14.4302 32.2034 14.5668 32.3867 14.8602 32.5601C15.1602 32.7734 15.6002 32.9834 16.1802 33.1901C16.7535 33.3967 17.3035 33.5001 17.8302 33.5001C18.3902 33.5001 18.9235 33.3934 19.4302 33.1801C19.9302 32.9601 20.3502 32.6501 20.6902 32.2501C21.1502 31.7367 21.4402 31.1401 21.5602 30.4601C21.6802 29.7801 21.5402 29.1467 21.1402 28.5601C20.9535 28.2667 20.7068 28.0201 20.4002 27.8201C20.0935 27.6201 19.7668 27.4801 19.4202 27.4001Z" fill="rgb(100,187,92)" fill-rule="nonzero" />
		</g>
	</g>
</svg>
