<svg viewBox="0 0 49 49" xmlns="http://www.w3.org/2000/svg" xmlns:xlink="http://www.w3.org/1999/xlink" width="49.000000" height="49.000000" fill="none" customFrame="#000000">
	<defs>
		<clipPath id="clipPath_0">
			<rect width="24.000000" height="24.000000" x="12.500000" y="12.500000" fill="rgb(255,255,255)" />
		</clipPath>
	</defs>
	<g id="组合 4177">
		<circle id="path3" cx="24.5" cy="24.5" r="24" fill="rgb(243,252,255)" />
		<circle id="path3" cx="24.5" cy="24.5" r="24" stroke="rgb(0,0,0)" stroke-opacity="0" stroke-width="1" />
		<g id="svg 4" clip-path="url(#clipPath_0)" customFrame="url(#clipPath_0)">
			<rect id="svg 4" width="24.000000" height="24.000000" x="12.500000" y="12.500000" />
			<path id="矢量 313" d="M33.139 16.0908L15.8371 16.0908C14.408 16.0908 13.249 17.2498 13.249 18.6789L13.249 30.3218C13.249 31.7508 14.408 32.9077 15.8371 32.9077L33.1412 32.9077C34.5702 32.9077 35.7293 31.7486 35.7293 30.3218L35.7293 18.6789C35.7271 17.2498 34.568 16.0908 33.139 16.0908L33.139 16.0908ZM27.6446 21.2274L31.2381 21.2274C31.5234 21.2274 31.7869 21.6159 31.7869 21.9013C31.7869 22.1867 31.5234 22.5752 31.2381 22.5752L27.6446 22.5752C27.3593 22.5752 27.0959 22.1867 27.0959 21.9013C27.0959 21.6159 27.3593 21.2274 27.6446 21.2274ZM27.6446 24.1074L31.2381 24.1074C31.5234 24.1074 31.7869 24.4959 31.7869 24.7813C31.7869 25.0667 31.5234 25.4552 31.2381 25.4552L27.6446 25.4552C27.3593 25.4552 27.0959 25.0667 27.0959 24.7813C27.0959 24.4959 27.3593 24.1074 27.6446 24.1074ZM15.9139 29.1145C15.6329 29.0596 15.4485 28.7896 15.5034 28.5086C15.8371 26.7657 17.1388 25.4223 18.7807 24.9503C17.929 24.4937 17.3407 23.6047 17.3407 22.5708C17.3407 21.0759 18.5568 19.862 20.0495 19.862C21.5422 19.862 22.7583 21.0781 22.7583 22.5708C22.7583 23.6047 22.17 24.4937 21.3183 24.9503C22.9646 25.4223 24.2663 26.7723 24.5956 28.5218C24.6483 28.8028 24.4639 29.0728 24.1829 29.1254C24.15 29.132 24.1171 29.1342 24.0863 29.1342M32.9656 28.3352L27.6446 28.3352C27.3593 28.3352 27.0959 27.9467 27.0959 27.6613C27.0959 27.3759 27.3593 26.9874 27.6446 26.9874L32.9656 26.9874C33.251 26.9874 33.5144 27.3759 33.5144 27.6613C33.5144 27.9467 33.251 28.3352 32.9656 28.3352Z" fill="rgb(70,177,227)" fill-rule="nonzero" />
		</g>
	</g>
</svg>
