<svg viewBox="0 0 24 24" xmlns="http://www.w3.org/2000/svg" xmlns:xlink="http://www.w3.org/1999/xlink" width="24.000000" height="24.000000" fill="none">
	<rect id="Public/ic_public_save" width="24.000000" height="24.000000" x="0.000000" y="0.000000" />
	<g id="Public/ic_public_save">
		<g id="形状结合">
			<path id="path-1" d="M17.75 2C18.8627 2.05389 19.3944 2.24102 19.9121 2.51223C20.5329 2.84425 21.0681 3.3461 21.4148 3.95414C21.7634 4.606 22 5.34473 22 7.12777L22 16.8722L21.999 17.0938C21.9842 18.6744 21.8076 19.3016 21.4878 19.9121C21.1558 20.5329 20.6539 21.0681 20.0459 21.4148C19.394 21.7634 18.6553 22 16.8722 22L7.12777 22L6.90623 21.999C5.32562 21.9842 4.69844 21.8076 4.08792 21.4878C3.46711 21.1558 2.93192 20.6539 2.58517 20.0459C2.23656 19.394 2 18.6553 2 16.8722L2 7.12777C2 5.38267 2.17784 4.72619 2.51223 4.08792C2.84425 3.46711 3.3461 2.93192 3.95414 2.58517C4.48553 2.30099 5.10557 2.07418 6.24846 2.01888L17.75 2ZM17.7515 3.518L17.75 7.25C17.75 8.76878 16.5188 10 15 10L9 10C7.48122 10 6.25 8.76878 6.25 7.25L6.24878 3.51799C5.49137 3.556 5.12616 3.6578 4.75371 3.85699C4.36326 4.0658 4.0658 4.36326 3.85699 4.75371C3.5929 5.2475 3.5 5.72858 3.5 7.12777L3.50018 16.9755L3.50166 17.1769C3.51518 18.3449 3.61306 18.7902 3.85699 19.2463C4.0658 19.6367 4.36326 19.9342 4.75371 20.143C5.22281 20.3939 5.68044 20.4903 6.92466 20.4993L7.12777 20.5L16.8722 20.5C18.2714 20.5 18.7525 20.4071 19.2463 20.143C19.6367 19.9342 19.9342 19.6367 20.143 19.2463C20.3939 18.7772 20.4903 18.3196 20.4993 17.0753L20.5 16.8722L20.5 7.12777C20.5 5.72858 20.4071 5.2475 20.143 4.75371C19.9342 4.36326 19.6367 4.0658 19.2463 3.85699C18.8739 3.65782 18.5087 3.55602 17.7515 3.518ZM17 15C17.4142 15 17.75 15.3358 17.75 15.75C17.75 16.1494 17.4378 16.4759 17.0441 16.4987L7 16.5C6.58579 16.5 6.25 16.1642 6.25 15.75C6.25 15.3506 6.56223 15.0241 6.95593 15.0013L17 15ZM16.25 3.5L7.75 3.5L7.75 7.25C7.75 7.92219 8.28058 8.47045 8.94578 8.49885L15 8.5C15.6904 8.5 16.25 7.94036 16.25 7.25L16.25 3.5Z" fill="rgb(0,0,0)" fill-rule="nonzero" />
			<path id="path-1" d="M19.9121 2.51223C20.5329 2.84425 21.0681 3.3461 21.4148 3.95414C21.7634 4.606 22 5.34473 22 7.12777L22 16.8722L21.999 17.0938C21.9842 18.6744 21.8076 19.3016 21.4878 19.9121C21.1558 20.5329 20.6539 21.0681 20.0459 21.4148C19.394 21.7634 18.6553 22 16.8722 22L7.12777 22L6.90623 21.999C5.32562 21.9842 4.69844 21.8076 4.08792 21.4878C3.46711 21.1558 2.93192 20.6539 2.58517 20.0459C2.23656 19.394 2 18.6553 2 16.8722L2 7.12777C2 5.38267 2.17784 4.72619 2.51223 4.08792C2.84425 3.46711 3.3461 2.93192 3.95414 2.58517C4.48553 2.30099 5.10557 2.07418 6.24846 2.01888L17.75 2C18.8627 2.05389 19.3944 2.24102 19.9121 2.51223ZM17.75 7.25C17.75 8.76878 16.5188 10 15 10L9 10C7.48122 10 6.25 8.76878 6.25 7.25L6.24878 3.51799C5.49137 3.556 5.12616 3.6578 4.75371 3.85699C4.36326 4.0658 4.0658 4.36326 3.85699 4.75371C3.5929 5.2475 3.5 5.72858 3.5 7.12777L3.50018 16.9755L3.50166 17.1769C3.51518 18.3449 3.61306 18.7902 3.85699 19.2463C4.0658 19.6367 4.36326 19.9342 4.75371 20.143C5.22281 20.3939 5.68044 20.4903 6.92466 20.4993L7.12777 20.5L16.8722 20.5C18.2714 20.5 18.7525 20.4071 19.2463 20.143C19.6367 19.9342 19.9342 19.6367 20.143 19.2463C20.3939 18.7772 20.4903 18.3196 20.4993 17.0753L20.5 16.8722L20.5 7.12777C20.5 5.72858 20.4071 5.2475 20.143 4.75371C19.9342 4.36326 19.6367 4.0658 19.2463 3.85699C18.8739 3.65782 18.5087 3.55602 17.7515 3.518L17.75 7.25ZM17.75 15.75C17.75 16.1494 17.4378 16.4759 17.0441 16.4987L7 16.5C6.58579 16.5 6.25 16.1642 6.25 15.75C6.25 15.3506 6.56223 15.0241 6.95593 15.0013L17 15C17.4142 15 17.75 15.3358 17.75 15.75ZM7.75 3.5L7.75 7.25C7.75 7.92219 8.28058 8.47045 8.94578 8.49885L15 8.5C15.6904 8.5 16.25 7.94036 16.25 7.25L16.25 3.5L7.75 3.5Z" fill-rule="nonzero" stroke="rgb(0,0,0)" stroke-opacity="0" stroke-width="1" />
		</g>
	</g>
</svg>
