<svg viewBox="0 0 48 48" xmlns="http://www.w3.org/2000/svg" xmlns:xlink="http://www.w3.org/1999/xlink" width="48.000000" height="48.000000" fill="none">
	<defs>
		<clipPath id="clipPath_3">
			<rect width="24.000000" height="24.000000" x="12.000000" y="12.500000" fill="rgb(255,255,255)" />
		</clipPath>
	</defs>
	<rect id="bb" width="48.000000" height="48.000000" x="0.000000" y="0.000000" />
	<circle id="path2" cx="24" cy="24" r="24" fill="rgb(242,241,255)" />
	<g id="camera_fill" clip-path="url(#clipPath_3)" customFrame="url(#clipPath_3)">
		<rect id="camera_fill" width="24.000000" height="24.000000" x="12.000000" y="12.500000" />
		<rect id="矩形 3632" width="24.000000" height="24.000000" x="12.000000" y="12.500000" opacity="0" fill="rgb(0,0,0)" />
		<g id="组合 4168">
			<path id="矢量 305" d="M29.38 18.16C29.3267 18.16 29.2767 18.15 29.23 18.13C29.1833 18.1033 29.1533 18.0667 29.14 18.02L28.61 16.7C28.4633 16.3333 28.2267 16.04 27.9 15.82C27.5733 15.6067 27.21 15.5 26.81 15.5L21.26 15.5C20.86 15.5 20.4967 15.6067 20.17 15.82C19.8433 16.04 19.6 16.3333 19.44 16.7L18.94 18.02C18.92 18.0667 18.8867 18.1033 18.84 18.13C18.7933 18.15 18.7467 18.16 18.7 18.16L16.01 18.16C15.51 18.16 15.05 18.2867 14.63 18.54C14.2033 18.7867 13.8667 19.1167 13.62 19.53C13.3733 19.95 13.25 20.4067 13.25 20.9L13.25 30.79C13.25 31.2833 13.3733 31.7333 13.62 32.14C13.8667 32.5533 14.2033 32.8833 14.63 33.13C15.05 33.3767 15.51 33.5 16.01 33.5L31.99 33.5C32.49 33.5 32.95 33.38 33.37 33.14C33.7967 32.9 34.1333 32.5733 34.38 32.16C34.6267 31.74 34.75 31.2833 34.75 30.79L34.75 20.9C34.75 20.4067 34.6267 19.95 34.38 19.53C34.1333 19.1167 33.7967 18.7867 33.37 18.54C32.95 18.2867 32.49 18.16 31.99 18.16L29.38 18.16ZM24 29.92C23.2 29.92 22.46 29.72 21.78 29.32C21.1 28.92 20.56 28.38 20.16 27.7C19.76 27.02 19.56 26.2733 19.56 25.46C19.56 24.66 19.76 23.92 20.16 23.24C20.56 22.56 21.1 22.02 21.78 21.62C22.46 21.22 23.2 21.02 24 21.02C24.8 21.02 25.54 21.22 26.22 21.62C26.9 22.02 27.44 22.56 27.84 23.24C28.24 23.92 28.44 24.66 28.44 25.46C28.44 26.2733 28.24 27.02 27.84 27.7C27.44 28.38 26.9 28.92 26.22 29.32C25.54 29.72 24.8 29.92 24 29.92ZM24 22.53C23.4733 22.53 22.98 22.6633 22.52 22.93C22.0667 23.19 21.7067 23.5467 21.44 24C21.18 24.4467 21.05 24.9333 21.05 25.46C21.05 25.9867 21.18 26.48 21.44 26.94C21.7067 27.3933 22.0667 27.7533 22.52 28.02C22.98 28.28 23.4733 28.41 24 28.41C24.5267 28.41 25.02 28.28 25.48 28.02C25.9333 27.7533 26.2933 27.3933 26.56 26.94C26.82 26.48 26.95 25.9867 26.95 25.46C26.95 24.9333 26.82 24.4467 26.56 24C26.2933 23.5467 25.9333 23.19 25.48 22.93C25.02 22.6633 24.5267 22.53 24 22.53Z" fill="rgb(86,74,247)" fill-rule="nonzero" />
		</g>
	</g>
</svg>
