<svg viewBox="0 0 48 48" xmlns="http://www.w3.org/2000/svg" xmlns:xlink="http://www.w3.org/1999/xlink" width="48.000000" height="48.000000" fill="none">
	<defs>
		<clipPath id="clipPath_9">
			<rect width="24.000000" height="24.000000" x="12.000000" y="12.000000" fill="rgb(255,255,255)" />
		</clipPath>
	</defs>
	<rect id="cc" width="48.000000" height="48.000000" x="0.000000" y="0.000000" />
	<circle id="path3" cx="24" cy="24" r="24" fill="rgb(243,252,255)" />
	<circle id="path3" cx="24" cy="24" r="24" stroke="rgb(0,0,0)" stroke-opacity="0" stroke-width="1" />
	<g id="svg 5" clip-path="url(#clipPath_9)" customFrame="url(#clipPath_9)">
		<rect id="svg 5" width="24.000000" height="24.000000" x="12.000000" y="12.000000" />
		<path id="矢量 314" d="M16.8802 24.4005L15.2402 24.4005C15.3202 25.3205 15.6802 26.2005 16.2802 26.9205C16.5602 26.6805 16.8402 26.4805 17.1202 26.3205C17.0002 25.6805 16.9202 25.0405 16.8802 24.4005L16.8802 24.4005ZM18.1602 26.7605C18.2402 26.9605 18.3202 27.1205 18.4002 27.3205C18.8002 28.0805 19.2802 28.5205 19.7602 28.5205C20.2402 28.5205 20.7602 28.0805 21.1202 27.3205C21.2002 27.1605 21.2802 26.9605 21.3602 26.7605C20.3202 26.3605 19.2002 26.3605 18.1602 26.7605ZM17.4002 27.1205C17.2002 27.2405 17.0402 27.3605 16.8802 27.4805C16.9202 27.5205 16.9202 27.5205 16.9602 27.5205C17.0402 27.6005 17.1202 27.6405 17.2002 27.7205C17.2402 27.7605 17.2802 27.7605 17.3202 27.8005L17.5602 27.9205C17.6002 27.9605 17.6802 27.9605 17.7202 28.0005C17.7602 28.0405 17.8402 28.0405 17.8802 28.0805C17.8002 27.9205 17.7202 27.8005 17.6402 27.6405C17.5602 27.5205 17.4802 27.3205 17.4002 27.1205L17.4002 27.1205ZM17.1602 21.6805C16.8402 21.5205 16.5602 21.3205 16.3202 21.0805C15.7202 21.8005 15.3602 22.6805 15.2802 23.6005L16.9202 23.6005C16.9202 22.9605 17.0002 22.3205 17.1602 21.6805L17.1602 21.6805ZM17.6402 20.3205C17.7202 20.1605 17.8002 20.0005 17.8802 19.8805C17.7602 19.9205 17.6802 20.0005 17.5602 20.0405L17.3202 20.1605C17.2802 20.2005 17.2402 20.2005 17.2002 20.2405C17.1202 20.3205 17.0002 20.3605 16.9202 20.4405C16.8802 20.4405 16.8802 20.4805 16.8402 20.4805C17.0002 20.6005 17.2002 20.7205 17.3602 20.8405C17.4802 20.6805 17.5602 20.4805 17.6402 20.3205L17.6402 20.3205ZM22.1202 20.8805C22.3202 20.7605 22.4802 20.6405 22.6402 20.5205C22.6002 20.4805 22.6002 20.4805 22.5602 20.4805C22.4802 20.4005 22.4002 20.3605 22.3202 20.2805C22.2802 20.2405 22.2402 20.2405 22.2002 20.2005L21.9602 20.0805C21.9202 20.0405 21.8402 20.0405 21.8002 20.0005C21.7602 19.9605 21.6802 19.9605 21.6402 19.9205C21.7202 20.0805 21.8002 20.2005 21.8802 20.3605C21.9602 20.4805 22.0402 20.6805 22.1202 20.8805L22.1202 20.8805ZM21.3602 21.2405C21.2802 21.0405 21.2002 20.8805 21.1202 20.6805C20.7202 19.9205 20.2402 19.4805 19.7602 19.4805C19.2802 19.4805 18.7602 19.9205 18.4002 20.6805C18.3202 20.8405 18.2402 21.0405 18.1602 21.2405C19.2002 21.6405 20.3202 21.6405 21.3602 21.2405ZM21.8002 23.6005C21.7602 23.0805 21.7202 22.5605 21.6002 22.0405C20.4002 22.4805 19.1202 22.4805 17.9202 22.0405C17.8002 22.5605 17.7202 23.0805 17.7202 23.6005L21.8002 23.6005ZM17.7202 24.4005C17.7602 24.9205 17.8002 25.4405 17.9202 25.9605C19.1202 25.5205 20.4002 25.5205 21.6002 25.9605C21.7202 25.4405 21.8002 24.9205 21.8002 24.4005L17.7202 24.4005Z" fill="rgb(70,177,227)" fill-rule="nonzero" />
		<path id="矢量 315" d="M33.1604 15.2002L15.0804 15.2002C13.6004 15.2002 12.3604 16.4002 12.3604 17.9202L12.3604 30.1202C12.3604 31.6002 13.5604 32.8402 15.0804 32.8402L33.2003 32.8402C34.6804 32.8402 35.9203 31.6402 35.9203 30.1202L35.9203 17.9202C35.8804 16.4002 34.6804 15.2002 33.1604 15.2002ZM27.6003 20.6802L31.3603 20.6802C31.6403 20.6802 31.9203 21.0802 31.9203 21.4002C31.9203 21.6802 31.6403 22.1202 31.3603 22.1202L27.6003 22.1202C27.3204 22.1202 27.0404 21.7202 27.0404 21.4002C27.0404 21.0802 27.3204 20.6802 27.6003 20.6802ZM27.6003 23.7202L31.3603 23.7202C31.6403 23.7202 31.9203 24.1202 31.9203 24.4402C31.9203 24.7202 31.6403 25.1602 31.3603 25.1602L27.6003 25.1602C27.3204 25.1602 27.0404 24.7602 27.0404 24.4402C27.0404 24.1202 27.3204 23.7202 27.6003 23.7202L27.6003 23.7202ZM23.1604 28.1602C22.3604 28.8402 21.3604 29.2402 20.3204 29.3202C20.1604 29.3202 19.9604 29.3602 19.8004 29.3602C17.5204 29.3602 15.5204 27.9202 14.7604 25.8002C14.0004 23.6802 14.6804 21.2802 16.4004 19.8402C17.2004 19.1602 18.2004 18.7602 19.2404 18.6802C19.4004 18.6802 19.6004 18.6402 19.7604 18.6402C22.0404 18.6402 24.0404 20.0802 24.8004 22.2002C25.5604 24.3202 24.8804 26.7202 23.1604 28.1602L23.1604 28.1602ZM33.2003 28.1202L27.6003 28.1202C27.3204 28.1202 27.0404 27.7202 27.0404 27.4002C27.0404 27.1202 27.3204 26.6802 27.6003 26.6802L33.2003 26.6802C33.4803 26.6802 33.7603 27.0802 33.7603 27.4002C33.7603 27.7202 33.4803 28.1202 33.2003 28.1202Z" fill="rgb(70,177,227)" fill-rule="nonzero" />
		<path id="矢量 316" d="M22.3596 21.6801C22.5196 22.3201 22.5996 22.9601 22.6396 23.6001L24.2796 23.6001C24.1996 22.6801 23.8396 21.8001 23.2396 21.0801C22.9596 21.3201 22.6796 21.5201 22.3596 21.6801L22.3596 21.6801ZM21.8796 27.6801C21.7996 27.8401 21.7196 28.0001 21.6396 28.1201C21.6796 28.0801 21.7596 28.0801 21.7996 28.0401C21.8396 28.0001 21.8796 28.0001 21.9596 27.9601L22.1996 27.8401C22.2396 27.8001 22.2796 27.8001 22.3196 27.7601C22.3996 27.6801 22.5196 27.6401 22.5996 27.5601C22.6396 27.5601 22.6396 27.5201 22.6796 27.5201C22.5196 27.4001 22.3196 27.2801 22.1596 27.1601C22.0396 27.3201 21.9596 27.5201 21.8796 27.6801L21.8796 27.6801ZM22.3596 26.3201C22.6796 26.4801 22.9596 26.6801 23.1996 26.9201C23.7996 26.2001 24.1596 25.3201 24.2396 24.4001L22.5996 24.4001C22.5996 25.0401 22.5196 25.6801 22.3596 26.3201L22.3596 26.3201Z" fill="rgb(70,177,227)" fill-rule="nonzero" />
	</g>
</svg>
