<svg viewBox="0 0 48 48" xmlns="http://www.w3.org/2000/svg" xmlns:xlink="http://www.w3.org/1999/xlink" width="48.000000" height="48.000000" fill="none">
	<defs>
		<clipPath id="clipPath_7">
			<rect width="24.000000" height="24.000000" x="12.000000" y="12.500000" fill="rgb(255,255,255)" />
		</clipPath>
	</defs>
	<rect id="qq" width="48.000000" height="48.000000" x="0.000000" y="0.000000" />
	<circle id="path3" cx="24" cy="24" r="24" fill="rgb(243,252,255)" />
	<circle id="path3" cx="24" cy="24" r="24" stroke="rgb(0,0,0)" stroke-opacity="0" stroke-width="1" />
	<g id="printer_fill" clip-path="url(#clipPath_7)" customFrame="url(#clipPath_7)">
		<rect id="printer_fill" width="24.000000" height="24.000000" x="12.000000" y="12.500000" />
		<rect id="矩形 3637" width="24.000000" height="24.000000" x="12.000000" y="12.500000" opacity="0" fill="rgb(0,0,0)" />
		<g id="组合 4175">
			<path id="矢量 310" d="M17.2095 18.9102C16.4895 18.9102 15.8295 19.0868 15.2295 19.4402C14.6295 19.7868 14.1529 20.2668 13.7995 20.8802C13.4462 21.4868 13.2695 22.1502 13.2695 22.8702L13.2695 28.4802C13.2695 29.4935 13.6029 30.3668 14.2695 31.1002C14.9295 31.8335 15.7495 32.2568 16.7295 32.3702C16.7295 32.2568 16.7195 32.1702 16.6995 32.1102L16.6795 31.8702L16.6795 29.9002C16.6795 29.1135 16.8729 28.3935 17.2595 27.7402C17.6395 27.0868 18.1629 26.5668 18.8295 26.1802C19.4895 25.7935 20.2062 25.6002 20.9795 25.6002L26.9995 25.6002C27.7862 25.6002 28.5062 25.7935 29.1595 26.1802C29.8129 26.5668 30.3329 27.0868 30.7195 27.7402C31.1062 28.3935 31.2995 29.1135 31.2995 29.9002L31.2995 31.8702C31.2995 31.9635 31.2829 32.1402 31.2495 32.4002C31.9029 32.3335 32.4929 32.1168 33.0195 31.7502C33.5529 31.3835 33.9729 30.9102 34.2795 30.3302C34.5929 29.7568 34.7495 29.1402 34.7495 28.4802L34.7495 22.8702C34.7495 22.1502 34.5729 21.4868 34.2195 20.8802C33.8729 20.2668 33.3929 19.7868 32.7795 19.4402C32.1729 19.0868 31.5095 18.9102 30.7895 18.9102L17.2095 18.9102ZM30.4795 21.9102C30.8329 21.9102 31.1329 22.0302 31.3795 22.2702C31.6262 22.5102 31.7495 22.8068 31.7495 23.1602C31.7495 23.5068 31.6262 23.8002 31.3795 24.0402C31.1329 24.2802 30.8329 24.4002 30.4795 24.4002C30.1462 24.4002 29.8529 24.2802 29.5995 24.0402C29.3529 23.8002 29.2295 23.5068 29.2295 23.1602C29.2295 22.8068 29.3529 22.5102 29.5995 22.2702C29.8529 22.0302 30.1462 21.9102 30.4795 21.9102Z" fill="rgb(97,207,190)" fill-rule="nonzero" />
			<path id="矢量 311" d="M30.7405 17.1299C30.7405 16.5899 30.6071 16.0899 30.3405 15.6299C30.0671 15.1765 29.7005 14.8132 29.2405 14.5399C28.7871 14.2665 28.2871 14.1299 27.7405 14.1299L20.2305 14.1299C19.6905 14.1299 19.1905 14.2665 18.7305 14.5399C18.2771 14.8132 17.9138 15.1765 17.6405 15.6299C17.3671 16.0899 17.2305 16.5899 17.2305 17.1299L17.2305 17.6099L30.7405 17.6099L30.7405 17.1299ZM17.9805 31.8699C17.9805 32.3965 18.1138 32.8866 18.3805 33.3399C18.6538 33.7999 19.0205 34.1665 19.4805 34.4399C19.9338 34.7066 20.4338 34.8399 20.9805 34.8399L27.0005 34.8399C27.5471 34.8399 28.0471 34.7066 28.5005 34.4399C28.9538 34.1665 29.3171 33.7999 29.5905 33.3399C29.8638 32.8866 30.0005 32.3965 30.0005 31.8699L30.0005 29.8999C30.0005 29.3532 29.8638 28.8532 29.5905 28.3999C29.3171 27.9465 28.9538 27.5832 28.5005 27.3099C28.0471 27.0365 27.5471 26.8999 27.0005 26.8999L20.9805 26.8999C20.4338 26.8999 19.9338 27.0365 19.4805 27.3099C19.0205 27.5832 18.6538 27.9465 18.3805 28.3999C18.1138 28.8532 17.9805 29.3532 17.9805 29.8999L17.9805 31.8699Z" fill="rgb(97,207,190)" fill-rule="nonzero" />
		</g>
	</g>
</svg>
