<svg viewBox="0 0 48 48" xmlns="http://www.w3.org/2000/svg" xmlns:xlink="http://www.w3.org/1999/xlink" width="48.000000" height="48.000000" fill="none">
	<defs>
		<clipPath id="clipPath_10">
			<rect width="24.000000" height="24.000000" x="12.000000" y="12.500000" fill="rgb(255,255,255)" />
		</clipPath>
	</defs>
	<rect id="tt" width="48.000000" height="48.000000" x="0.000000" y="0.000000" />
	<circle id="path3" cx="24" cy="24" r="24" fill="rgb(243,252,255)" />
	<circle id="path3" cx="24" cy="24" r="24" stroke="rgb(0,0,0)" stroke-opacity="0" stroke-width="1" />
	<g id="svg 4" clip-path="url(#clipPath_10)" customFrame="url(#clipPath_10)">
		<rect id="svg 4" width="24.000000" height="24.000000" x="12.000000" y="12.500000" />
		<path id="减去顶层" d="M32.639 16.0908L15.3371 16.0908C13.908 16.0908 12.749 17.2498 12.749 18.6789L12.749 30.3218C12.749 31.7508 13.908 32.9077 15.3371 32.9077L32.6412 32.9077C34.0702 32.9077 35.2293 31.7486 35.2293 30.3218L35.2293 18.6789C35.2271 17.2498 34.068 16.0908 32.639 16.0908ZM23.7649 22.5563L23.7651 22.5563C23.7805 22.5563 23.7956 22.5578 23.8107 22.5608C23.8258 22.5638 23.8404 22.5682 23.8547 22.574C23.8689 22.5799 23.8824 22.587 23.8952 22.5955C23.908 22.6039 23.9199 22.6136 23.9308 22.6243C23.9417 22.6351 23.9514 22.6468 23.96 22.6595C23.9686 22.6721 23.9759 22.6855 23.9818 22.6996C23.9877 22.7137 23.9922 22.7282 23.9953 22.7431C23.9984 22.7581 23.9999 22.7732 24 22.7884L24 22.9896C24 23.0049 23.9985 23.02 23.9955 23.035C23.9925 23.05 23.988 23.0645 23.9821 23.0786C23.9762 23.0927 23.9689 23.1061 23.9604 23.1188C23.9518 23.1315 23.942 23.1432 23.9311 23.154C23.9202 23.1648 23.9083 23.1744 23.8955 23.1829C23.8826 23.1913 23.8691 23.1985 23.8548 23.2043C23.8406 23.2101 23.8259 23.2145 23.8107 23.2174C23.7956 23.2204 23.7803 23.2218 23.7649 23.2218L23.4531 23.2741C23.5541 23.4693 23.6118 23.6919 23.6118 23.9518L23.7302 25.2867C23.7302 25.3254 23.7271 25.3648 23.7223 25.4046C23.7273 25.4295 23.7302 25.4548 23.7302 25.4801L23.7302 27.0863C23.7301 27.1135 23.7274 27.1405 23.722 27.1671C23.7167 27.1938 23.7087 27.2197 23.6982 27.2448C23.6876 27.2699 23.6747 27.2938 23.6594 27.3164C23.6441 27.339 23.6268 27.3599 23.6073 27.3791C23.5879 27.3983 23.5667 27.4154 23.5438 27.4305C23.521 27.4456 23.4969 27.4583 23.4715 27.4687C23.4461 27.4791 23.4199 27.4869 23.393 27.4922C23.366 27.4974 23.3388 27.5 23.3113 27.5L22.6718 27.5C22.4405 27.5 22.253 27.315 22.253 27.0863L22.253 26.5705L16.7546 26.5705L16.7546 27.0863C16.7546 27.1135 16.7519 27.1405 16.7465 27.1672C16.7411 27.1938 16.7332 27.2197 16.7226 27.2449C16.7121 27.27 16.6991 27.2938 16.6838 27.3165C16.6685 27.3391 16.6512 27.36 16.6317 27.3792C16.6122 27.3984 16.5911 27.4155 16.5682 27.4306C16.5453 27.4457 16.5212 27.4584 16.4958 27.4688C16.4704 27.4791 16.4442 27.4869 16.4172 27.4922C16.3903 27.4975 16.3631 27.5001 16.3356 27.5L15.6965 27.5C15.4652 27.5 15.2777 27.315 15.2777 27.0863L15.2777 25.4803C15.2781 25.4549 15.2806 25.4296 15.2853 25.4046C15.2805 25.3648 15.2777 25.3254 15.2777 25.2869L15.3959 23.952C15.3925 23.7135 15.4451 23.488 15.5539 23.2752L15.2349 23.2211C15.1051 23.2211 15 23.1168 15 22.989L15 22.7878C15 22.7803 15.0004 22.7729 15.0011 22.7655C15.0019 22.7578 15.003 22.7501 15.0046 22.7424C15.0076 22.7275 15.012 22.713 15.018 22.6989C15.0239 22.6848 15.0311 22.6714 15.0397 22.6587C15.0482 22.6461 15.058 22.6344 15.0689 22.6236C15.0798 22.6128 15.0917 22.6032 15.1045 22.5947C15.1173 22.5863 15.1308 22.5792 15.1451 22.5733C15.1593 22.5675 15.174 22.5632 15.1891 22.5602C15.2042 22.5573 15.2195 22.5558 15.2349 22.5558L16.0778 22.5558C16.1196 22.5564 16.1585 22.5673 16.1945 22.5885L16.5755 21.4535C16.6795 20.9167 17.0719 20.5 17.7186 20.5L21.2893 20.5C21.8523 20.5 22.3109 20.8109 22.4322 21.4541L22.8121 22.5855C22.8455 22.5671 22.8835 22.5569 22.922 22.5563L23.7649 22.5563ZM27.1446 21.2274L30.7381 21.2274C31.0234 21.2274 31.2869 21.6159 31.2869 21.9013C31.2869 22.1867 31.0234 22.5752 30.7381 22.5752L27.1446 22.5752C26.8593 22.5752 26.5959 22.1867 26.5959 21.9013C26.5959 21.6159 26.8593 21.2274 27.1446 21.2274ZM17.1359 21.585L16.8569 22.3189L16.7525 22.7283C16.7758 23.0277 17.14 23.264 17.4429 23.264L21.5633 23.264C21.8654 23.264 22.2296 23.0277 22.2532 22.7285L22.1492 22.3196L21.8654 21.5666C21.8403 21.4262 21.7826 21.3964 21.69 21.2787L17.3207 21.2787C17.229 21.3929 17.1671 21.4197 17.1394 21.5677L17.1359 21.585ZM27.1446 24.1074L30.7381 24.1074C31.0234 24.1074 31.2869 24.4959 31.2869 24.7813C31.2869 25.0667 31.0234 25.4552 30.7381 25.4552L27.1446 25.4552C26.8593 25.4552 26.5959 25.0667 26.5959 24.7813C26.5959 24.4959 26.8593 24.1074 27.1446 24.1074ZM16.9265 25.7949C16.9679 25.8038 17.0098 25.8086 17.0522 25.8092C17.093 25.8098 17.1335 25.8065 17.1737 25.7993C17.2139 25.7921 17.253 25.7812 17.291 25.7666C17.3291 25.7519 17.3654 25.7338 17.3999 25.7122C17.4344 25.6906 17.4665 25.6659 17.4962 25.6382C17.5259 25.6104 17.5526 25.5801 17.5764 25.5473C17.6002 25.5144 17.6206 25.4796 17.6375 25.4428C17.6545 25.4061 17.6678 25.368 17.6774 25.3287C17.6869 25.2894 17.6926 25.2496 17.6944 25.2092C17.6961 25.1688 17.694 25.1286 17.6879 25.0886C17.6819 25.0487 17.672 25.0096 17.6583 24.9715C17.6446 24.9334 17.6274 24.897 17.6066 24.8622C17.5972 24.8465 17.5872 24.8313 17.5765 24.8165C17.5635 24.7985 17.5496 24.7813 17.5347 24.7647C17.5076 24.7345 17.4778 24.7072 17.4453 24.6827C17.4306 24.6716 17.4154 24.6611 17.3998 24.6514C17.381 24.6396 17.3617 24.6289 17.3417 24.6191C17.3051 24.6012 17.2671 24.587 17.2277 24.5764C17.1883 24.5658 17.1482 24.559 17.1075 24.556C17.0652 24.553 17.0231 24.5541 16.981 24.5594C16.939 24.5648 16.8979 24.5742 16.8578 24.5876C16.8176 24.6011 16.7793 24.6184 16.7426 24.6395C16.706 24.6607 16.6719 24.6852 16.6402 24.7131C16.6085 24.741 16.58 24.7717 16.5545 24.8053C16.5291 24.8388 16.5073 24.8746 16.4891 24.9125C16.4709 24.9504 16.4567 24.9897 16.4465 25.0304C16.4363 25.0712 16.4302 25.1125 16.4284 25.1544C16.4265 25.1964 16.4289 25.238 16.4355 25.2795C16.4421 25.321 16.4528 25.3614 16.4676 25.4007C16.4824 25.44 16.5009 25.4775 16.5233 25.5131C16.5457 25.5488 16.5714 25.5819 16.6005 25.6124C16.6296 25.6429 16.6615 25.6703 16.6961 25.6945C16.7307 25.7187 16.7674 25.7392 16.8062 25.7561C16.845 25.773 16.8851 25.7859 16.9265 25.7949ZM21.8302 25.7973C21.8711 25.8053 21.9123 25.8092 21.9539 25.8092C21.9955 25.8092 22.0367 25.8052 22.0775 25.7972C22.1183 25.7892 22.1579 25.7774 22.1964 25.7616C22.2348 25.7459 22.2713 25.7266 22.306 25.7038C22.3406 25.6809 22.3726 25.655 22.4021 25.6259C22.4315 25.5968 22.4578 25.5652 22.481 25.5309C22.5041 25.4967 22.5237 25.4606 22.5397 25.4226C22.5557 25.3846 22.5678 25.3453 22.576 25.305C22.5842 25.2646 22.5883 25.2238 22.5884 25.1826C22.5883 25.1414 22.5842 25.1006 22.576 25.0602C22.5679 25.0198 22.5558 24.9806 22.5398 24.9426C22.5238 24.9045 22.5043 24.8684 22.4811 24.8342C22.4579 24.7999 22.4316 24.7683 22.4022 24.7392C22.3727 24.7101 22.3407 24.6841 22.3061 24.6613C22.2714 24.6385 22.2349 24.6192 22.1964 24.6035C22.158 24.5878 22.1183 24.5759 22.0775 24.5679C22.0367 24.5599 21.9955 24.556 21.9539 24.556C21.9123 24.556 21.8711 24.5599 21.8302 24.5679C21.7894 24.5759 21.7498 24.5877 21.7113 24.6034C21.6728 24.6191 21.6363 24.6384 21.6016 24.6612C21.567 24.6841 21.5349 24.71 21.5055 24.7391C21.476 24.7682 21.4497 24.7999 21.4265 24.8341C21.4033 24.8683 21.3838 24.9045 21.3678 24.9425C21.3518 24.9806 21.3397 25.0198 21.3316 25.0602C21.3234 25.1006 21.3193 25.1414 21.3192 25.1826C21.3193 25.2238 21.3234 25.2646 21.3316 25.305C21.3397 25.3454 21.3518 25.3846 21.3678 25.4227C21.3838 25.4607 21.4033 25.4969 21.4265 25.5311C21.4497 25.5653 21.476 25.597 21.5055 25.6261C21.5349 25.6552 21.567 25.6811 21.6016 25.704C21.6363 25.7268 21.6728 25.7461 21.7113 25.7618C21.7498 25.7775 21.7894 25.7894 21.8302 25.7973ZM20.5925 25.3832C20.595 25.3712 20.5962 25.3591 20.5962 25.3468L20.5962 24.823C20.5962 24.7203 20.5115 24.637 20.4075 24.637L18.6275 24.637C18.5235 24.637 18.4387 24.7202 18.4387 24.8232L18.4387 25.347C18.4388 25.3593 18.44 25.3714 18.4425 25.3834C18.445 25.3954 18.4486 25.407 18.4533 25.4183C18.4581 25.4296 18.4639 25.4403 18.4708 25.4505C18.4777 25.4606 18.4856 25.47 18.4943 25.4787C18.5031 25.4873 18.5126 25.495 18.5229 25.5018C18.5332 25.5086 18.544 25.5143 18.5554 25.519C18.5669 25.5236 18.5786 25.5272 18.5908 25.5295C18.6029 25.5319 18.6151 25.5331 18.6275 25.5331L20.4075 25.5331C20.4198 25.5331 20.4321 25.5319 20.4442 25.5295C20.4506 25.5283 20.4569 25.5267 20.4631 25.5248C20.4687 25.5231 20.4741 25.5211 20.4796 25.5189C20.491 25.5143 20.5019 25.5085 20.5121 25.5017C20.5224 25.4949 20.532 25.4872 20.5407 25.4786C20.5495 25.4699 20.5573 25.4605 20.5642 25.4504C20.5711 25.4402 20.5769 25.4295 20.5817 25.4182C20.5864 25.4069 20.5901 25.3952 20.5925 25.3832ZM32.4656 28.3352L27.1446 28.3352C26.8593 28.3352 26.5959 27.9467 26.5959 27.6613C26.5959 27.3759 26.8593 26.9874 27.1446 26.9874L32.4656 26.9874C32.751 26.9874 33.0144 27.3759 33.0144 27.6613C33.0144 27.9467 32.751 28.3352 32.4656 28.3352Z" fill="rgb(70,177,227)" fill-rule="evenodd" />
	</g>
</svg>
