<svg viewBox="0 0 48 48" xmlns="http://www.w3.org/2000/svg" xmlns:xlink="http://www.w3.org/1999/xlink" width="48.000000" height="48.000000" fill="none">
	<defs>
		<clipPath id="clipPath_2">
			<rect width="24.000000" height="24.000000" x="12.000000" y="12.500000" fill="rgb(255,255,255)" />
		</clipPath>
	</defs>
	<rect id="vv" width="48.000000" height="48.000000" x="0.000000" y="0.000000" />
	<circle id="path2" cx="24.0185547" cy="24" r="24" fill="rgb(238,243,254)" />
	<g id="doc_plaintext_fill" clip-path="url(#clipPath_2)" customFrame="url(#clipPath_2)">
		<rect id="doc_plaintext_fill" width="24.000000" height="24.000000" x="12.000000" y="12.500000" />
		<rect id="矩形 3631" width="24.000000" height="24.000000" x="12.000000" y="12.500000" opacity="0" fill="rgb(0,0,0)" />
		<g id="组合 4167">
			<path id="矢量 304" d="M19.51 20.2498C19.3033 20.2498 19.1267 20.1798 18.98 20.0398C18.84 19.8931 18.77 19.7164 18.77 19.5098C18.77 19.3031 18.84 19.1264 18.98 18.9798C19.1267 18.8331 19.3033 18.7598 19.51 18.7598L28.46 18.7598C28.6733 18.7598 28.85 18.8331 28.99 18.9798C29.1367 19.1264 29.21 19.3031 29.21 19.5098C29.21 19.7164 29.1367 19.8931 28.99 20.0398C28.85 20.1798 28.6733 20.2498 28.46 20.2498L19.51 20.2498ZM19.51 25.2698C19.3033 25.2698 19.1267 25.1964 18.98 25.0498C18.84 24.9098 18.77 24.7331 18.77 24.5198C18.77 24.3131 18.84 24.1398 18.98 23.9998C19.1267 23.8531 19.3033 23.7798 19.51 23.7798L28.46 23.7798C28.6733 23.7798 28.85 23.8531 28.99 23.9998C29.1367 24.1398 29.21 24.3131 29.21 24.5198C29.21 24.7331 29.1367 24.9098 28.99 25.0498C28.85 25.1964 28.6733 25.2698 28.46 25.2698L19.51 25.2698ZM19.51 30.2598C19.3033 30.2598 19.1267 30.1864 18.98 30.0398C18.84 29.8998 18.77 29.7264 18.77 29.5198C18.77 29.3064 18.84 29.1264 18.98 28.9798C19.1267 28.8264 19.3033 28.7498 19.51 28.7498L23.98 28.7498C24.1867 28.7498 24.36 28.8264 24.5 28.9798C24.6467 29.1264 24.72 29.3064 24.72 29.5198C24.72 29.7264 24.6533 29.8998 24.52 30.0398C24.38 30.1864 24.2067 30.2598 24 30.2598L19.51 30.2598ZM18 13.5098C17.4533 13.5098 16.9533 13.6398 16.5 13.8998C16.0467 14.1664 15.6833 14.5331 15.41 14.9998C15.1367 15.4598 15 15.9631 15 16.5098L15 32.4898C15 33.0364 15.1367 33.5364 15.41 33.9898C15.6833 34.4498 16.0467 34.8131 16.5 35.0798C16.9533 35.3531 17.4533 35.4898 18 35.4898L30 35.4898C30.5467 35.4898 31.0467 35.3531 31.5 35.0798C31.9533 34.8131 32.3167 34.4498 32.59 33.9898C32.8633 33.5364 33 33.0364 33 32.4898L33 16.5098C33 15.9631 32.8633 15.4598 32.59 14.9998C32.3167 14.5331 31.9533 14.1664 31.5 13.8998C31.0467 13.6398 30.5467 13.5098 30 13.5098L18 13.5098Z" fill="rgb(10,89,247)" fill-rule="nonzero" />
		</g>
	</g>
</svg>
