<svg viewBox="0 0 48 48" xmlns="http://www.w3.org/2000/svg" xmlns:xlink="http://www.w3.org/1999/xlink" width="48.000000" height="48.000000" fill="none">
	<defs>
		<clipPath id="clipPath_1">
			<rect width="24.000000" height="24.000000" x="12.000000" y="12.500000" fill="rgb(255,255,255)" />
		</clipPath>
	</defs>
	<rect id="aaa" width="48.000000" height="48.000000" x="0.000000" y="0.000000" />
	<circle id="path3" cx="24" cy="24" r="24" fill="rgb(254,247,224)" />
	<circle id="path3" cx="24" cy="24" r="24" stroke="rgb(0,0,0)" stroke-opacity="0" stroke-width="1" />
	<g id="qrcode" clip-path="url(#clipPath_1)" customFrame="url(#clipPath_1)">
		<rect id="qrcode" width="24.000000" height="24.000000" x="12.000000" y="12.500000" />
		<rect id="矩形 3630" width="24.000000" height="24.000000" x="12.000000" y="12.500000" opacity="0" fill="rgb(0,0,0)" />
		<g id="组合 4166">
			<path id="矢量 303" d="M31.0098 23.7598C31.5031 23.7598 31.9598 23.6331 32.3798 23.3798C32.7931 23.1331 33.1231 22.7998 33.3698 22.3798C33.6164 21.9531 33.7398 21.4931 33.7398 20.9998L33.7398 17.4898C33.7398 16.9964 33.6164 16.5398 33.3698 16.1198C33.1231 15.7064 32.7931 15.3764 32.3798 15.1298C31.9598 14.8831 31.5031 14.7598 31.0098 14.7598L27.4998 14.7598C27.0064 14.7598 26.5464 14.8831 26.1198 15.1298C25.6998 15.3764 25.3664 15.7064 25.1198 16.1198C24.8664 16.5398 24.7398 16.9964 24.7398 17.4898L24.7398 20.9998C24.7398 21.4931 24.8664 21.9531 25.1198 22.3798C25.3664 22.7998 25.6998 23.1331 26.1198 23.3798C26.5464 23.6331 27.0064 23.7598 27.4998 23.7598L31.0098 23.7598ZM31.0098 16.2398C31.3431 16.2398 31.6331 16.3664 31.8798 16.6198C32.1331 16.8664 32.2598 17.1564 32.2598 17.4898L32.2598 20.9998C32.2598 21.3464 32.1331 21.6398 31.8798 21.8798C31.6331 22.1198 31.3431 22.2398 31.0098 22.2398L27.4998 22.2398C27.1531 22.2398 26.8598 22.1198 26.6198 21.8798C26.3798 21.6398 26.2598 21.3464 26.2598 20.9998L26.2598 17.4898C26.2598 17.1564 26.3798 16.8664 26.6198 16.6198C26.8598 16.3664 27.1531 16.2398 27.4998 16.2398L31.0098 16.2398ZM20.4998 34.2398C20.9931 34.2398 21.4531 34.1164 21.8798 33.8698C22.2998 33.6231 22.6331 33.2931 22.8798 32.8798C23.1331 32.4598 23.2598 32.0031 23.2598 31.5098L23.2598 27.9998C23.2598 27.5064 23.1331 27.0464 22.8798 26.6198C22.6331 26.1998 22.2998 25.8664 21.8798 25.6198C21.4531 25.3664 20.9931 25.2398 20.4998 25.2398L16.9898 25.2398C16.4964 25.2398 16.0398 25.3664 15.6198 25.6198C15.2064 25.8664 14.8764 26.1998 14.6298 26.6198C14.3831 27.0464 14.2598 27.5064 14.2598 27.9998L14.2598 31.5098C14.2598 32.0031 14.3831 32.4598 14.6298 32.8798C14.8764 33.2931 15.2064 33.6231 15.6198 33.8698C16.0398 34.1164 16.4964 34.2398 16.9898 34.2398L20.4998 34.2398ZM20.4998 26.7598C20.8464 26.7598 21.1398 26.8798 21.3798 27.1198C21.6198 27.3598 21.7398 27.6531 21.7398 27.9998L21.7398 31.5098C21.7398 31.8431 21.6198 32.1331 21.3798 32.3798C21.1398 32.6331 20.8464 32.7598 20.4998 32.7598L16.9898 32.7598C16.6564 32.7598 16.3664 32.6331 16.1198 32.3798C15.8664 32.1331 15.7398 31.8431 15.7398 31.5098L15.7398 27.9998C15.7398 27.6531 15.8664 27.3598 16.1198 27.1198C16.3664 26.8798 16.6564 26.7598 16.9898 26.7598L20.4998 26.7598ZM20.4998 23.7598C20.9931 23.7598 21.4531 23.6331 21.8798 23.3798C22.2998 23.1331 22.6331 22.7998 22.8798 22.3798C23.1331 21.9531 23.2598 21.4931 23.2598 20.9998L23.2598 17.4898C23.2598 16.9964 23.1331 16.5398 22.8798 16.1198C22.6331 15.7064 22.2998 15.3764 21.8798 15.1298C21.4531 14.8831 20.9931 14.7598 20.4998 14.7598L16.9898 14.7598C16.4964 14.7598 16.0398 14.8831 15.6198 15.1298C15.2064 15.3764 14.8764 15.7064 14.6298 16.1198C14.3831 16.5398 14.2598 16.9964 14.2598 17.4898L14.2598 20.9998C14.2598 21.4931 14.3831 21.9531 14.6298 22.3798C14.8764 22.7998 15.2064 23.1331 15.6198 23.3798C16.0398 23.6331 16.4964 23.7598 16.9898 23.7598L20.4998 23.7598ZM20.4998 16.2398C20.8464 16.2398 21.1398 16.3664 21.3798 16.6198C21.6198 16.8664 21.7398 17.1564 21.7398 17.4898L21.7398 20.9998C21.7398 21.3464 21.6198 21.6398 21.3798 21.8798C21.1398 22.1198 20.8464 22.2398 20.4998 22.2398L16.9898 22.2398C16.6564 22.2398 16.3664 22.1198 16.1198 21.8798C15.8664 21.6398 15.7398 21.3464 15.7398 20.9998L15.7398 17.4898C15.7398 17.1564 15.8664 16.8664 16.1198 16.6198C16.3664 16.3664 16.6564 16.2398 16.9898 16.2398L20.4998 16.2398ZM17.5898 20.3998L19.8998 20.3998L19.8998 18.0898L17.5898 18.0898L17.5898 20.3998ZM17.5898 30.9098L19.8998 30.9098L19.8998 28.5998L17.5898 28.5998L17.5898 30.9098ZM28.0098 30.9998L30.4998 30.9998L30.4998 28.5098L28.0098 28.5098L28.0098 30.9998ZM25.0998 28.0998L27.5998 28.0998L27.5998 25.5998L25.0998 25.5998L25.0998 28.0998ZM30.9098 28.0998L33.4298 28.0998L33.4298 25.5998L30.9098 25.5998L30.9098 28.0998ZM25.0998 33.9098L27.5998 33.9098L27.5998 31.4098L25.0998 31.4098L25.0998 33.9098ZM30.9098 33.9098L33.4298 33.9098L33.4298 31.4098L30.9098 31.4098L30.9098 33.9098ZM28.0998 20.3998L30.4098 20.3998L30.4098 18.0898L28.0998 18.0898L28.0998 20.3998Z" fill="rgb(237,111,33)" fill-rule="nonzero" />
		</g>
	</g>
</svg>
