<svg viewBox="0 0 24 24" xmlns="http://www.w3.org/2000/svg" xmlns:xlink="http://www.w3.org/1999/xlink" width="24.000000" height="24.000000" fill="none">
	<rect id="share" width="24.000000" height="24.000000" x="0.000000" y="0.000000" />
	<rect id="矩形 3638" width="24.000000" height="24.000000" x="0.000000" y="0.000000" opacity="0" fill="rgb(0,0,0)" />
	<g id="组合 4179">
		<path id="矢量 316" d="M11.9998 22.2199C13.7598 22.2199 15.4065 21.7932 16.9398 20.9399C18.4798 20.0865 19.7265 18.9199 20.6798 17.4399C21.6265 15.9599 22.1498 14.3232 22.2498 12.5299C22.2632 12.3232 22.1998 12.1432 22.0598 11.9899C21.9132 11.8365 21.7365 11.7532 21.5298 11.7399C21.3232 11.7199 21.1432 11.7799 20.9898 11.9199C20.8365 12.0532 20.7532 12.2232 20.7398 12.4299C20.6732 13.9165 20.2465 15.2899 19.4598 16.5499C18.6798 17.8032 17.6532 18.8065 16.3798 19.5599C15.1065 20.3132 13.7265 20.7065 12.2398 20.7399C10.6532 20.7865 9.17983 20.4332 7.81983 19.6799C6.45983 18.9265 5.36983 17.8899 4.54983 16.5699C3.72317 15.2499 3.2865 13.7999 3.23983 12.2199C3.2065 10.6799 3.53983 9.24986 4.23983 7.92986C4.93317 6.60986 5.90317 5.52987 7.14983 4.68987C8.3965 3.84986 9.78983 3.3732 11.3298 3.25987C11.5365 3.2332 11.7032 3.1432 11.8298 2.98987C11.9565 2.83653 12.0132 2.65653 11.9998 2.44987C11.9865 2.2432 11.9032 2.06987 11.7498 1.92987C11.5965 1.79653 11.4165 1.73653 11.2098 1.74987C9.4165 1.89653 7.79317 2.45653 6.33983 3.42987C4.87983 4.40987 3.73983 5.67986 2.91983 7.23986C2.09317 8.79986 1.70317 10.4732 1.74983 12.2599C1.7965 14.0865 2.28983 15.7599 3.22983 17.2799C4.16317 18.7999 5.4065 20.0032 6.95983 20.8899C8.51317 21.7765 10.1932 22.2199 11.9998 22.2199Z" fill="rgb(0,0,0)" fill-opacity="0.898039222" fill-rule="nonzero" />
		<path id="矢量 317" d="M15.3802 1.96969C15.1736 1.90302 14.9836 1.91969 14.8102 2.01969C14.6302 2.11302 14.5102 2.26302 14.4502 2.46969C14.3836 2.67635 14.4002 2.86969 14.5002 3.04969C14.5936 3.22302 14.7369 3.34302 14.9302 3.40969L18.7202 4.55969C16.5136 5.23302 14.8369 6.23635 13.6902 7.56969C12.5502 8.90969 11.8136 10.133 11.4802 11.2397C11.1536 12.353 10.9902 13.143 10.9902 13.6097C10.9902 13.8164 11.0602 13.9964 11.2002 14.1497C11.3336 14.303 11.5036 14.3797 11.7102 14.3797C11.9169 14.3797 12.0969 14.3064 12.2502 14.1597C12.4036 14.013 12.4802 13.8464 12.4802 13.6597C12.4802 13.2597 12.6336 12.5664 12.9402 11.5797C13.2402 10.593 13.9236 9.52969 14.9902 8.38969C16.0502 7.24302 17.6136 6.40635 19.6802 5.87969L18.4302 9.97969C18.3702 10.173 18.3869 10.363 18.4802 10.5497C18.5736 10.7297 18.7169 10.853 18.9102 10.9197C19.0902 10.9664 19.2802 10.9464 19.4802 10.8597C19.6802 10.773 19.8102 10.6264 19.8702 10.4197L21.6002 4.67969C21.6669 4.47302 21.6502 4.27635 21.5502 4.08969C21.4569 3.90969 21.3136 3.78635 21.1202 3.71969L15.3802 1.96969Z" fill="rgb(0,0,0)" fill-opacity="0.898039222" fill-rule="nonzero" />
	</g>
</svg>
