<svg viewBox="0 0 24 24" xmlns="http://www.w3.org/2000/svg" xmlns:xlink="http://www.w3.org/1999/xlink" width="24.000000" height="24.000000" fill="none">
	<rect id="character_viewfinder" width="24.000000" height="24.000000" x="0.000000" y="0.000000" />
	<rect id="矩形 3640" width="24.000000" height="24.000000" x="0.000000" y="0.000000" opacity="0" fill="rgb(0,0,0)" />
	<g id="组合 4181">
		<path id="矢量 320" d="M2.76023 9.53023C2.9669 9.53023 3.14357 9.4569 3.29023 9.31024C3.43023 9.17023 3.50023 8.99357 3.50023 8.78023L3.50023 5.76023C3.50023 5.13357 3.72023 4.60023 4.16023 4.16023C4.60023 3.72023 5.13357 3.50023 5.76023 3.50023L8.71023 3.50023C8.9169 3.50023 9.0969 3.43023 9.25023 3.29023C9.40357 3.14357 9.48023 2.9669 9.48023 2.76023C9.48023 2.53357 9.4069 2.35023 9.26023 2.21023C9.12024 2.06357 8.9369 1.99023 8.71023 1.99023L5.76023 1.99023C5.0869 1.99023 4.46357 2.16357 3.89023 2.51023C3.31023 2.85023 2.85023 3.31023 2.51023 3.89023C2.16357 4.46357 1.99023 5.0869 1.99023 5.76023L1.99023 8.78023C1.99023 8.99357 2.0669 9.17023 2.22023 9.31024C2.37357 9.4569 2.55357 9.53023 2.76023 9.53023ZM8.69023 22.0102C8.8969 22.0102 9.0769 21.9336 9.23023 21.7802C9.38357 21.6269 9.46023 21.4469 9.46023 21.2402C9.46023 21.0336 9.38357 20.8569 9.23023 20.7102C9.0769 20.5702 8.8969 20.5002 8.69023 20.5002L5.76023 20.5002C5.13357 20.5002 4.60023 20.2802 4.16023 19.8402C3.72023 19.4002 3.50023 18.8669 3.50023 18.2402L3.50023 15.2202C3.50023 15.0069 3.43023 14.8302 3.29023 14.6902C3.14357 14.5436 2.9669 14.4702 2.76023 14.4702C2.55357 14.4702 2.37357 14.5436 2.22023 14.6902C2.0669 14.8302 1.99023 15.0136 1.99023 15.2402L1.99023 18.2402C1.99023 18.9136 2.16357 19.5369 2.51023 20.1102C2.85023 20.6902 3.31023 21.1502 3.89023 21.4902C4.46357 21.8369 5.0869 22.0102 5.76023 22.0102L8.69023 22.0102ZM18.2402 22.0102C18.9136 22.0102 19.5369 21.8369 20.1102 21.4902C20.6902 21.1502 21.1502 20.6902 21.4902 20.1102C21.8369 19.5369 22.0102 18.9136 22.0102 18.2402L22.0102 15.2402C22.0102 15.0336 21.9336 14.8536 21.7802 14.7002C21.6269 14.5469 21.4469 14.4702 21.2402 14.4702C21.0336 14.4702 20.8569 14.5469 20.7102 14.7002C20.5702 14.8536 20.5002 15.0336 20.5002 15.2402L20.5002 18.2402C20.5002 18.8669 20.2802 19.4002 19.8402 19.8402C19.4002 20.2802 18.8669 20.5002 18.2402 20.5002L15.2402 20.5002C15.0336 20.5002 14.8536 20.5702 14.7002 20.7102C14.5469 20.8569 14.4702 21.0336 14.4702 21.2402C14.4702 21.4469 14.5469 21.6269 14.7002 21.7802C14.8536 21.9336 15.0336 22.0102 15.2402 22.0102L18.2402 22.0102ZM21.2402 9.53023C21.4469 9.53023 21.6269 9.4569 21.7802 9.31024C21.9336 9.17023 22.0102 8.99357 22.0102 8.78023L22.0102 5.76023C22.0102 5.0869 21.8369 4.46357 21.4902 3.89023C21.1502 3.31023 20.6902 2.85023 20.1102 2.51023C19.5369 2.16357 18.9136 1.99023 18.2402 1.99023L15.3102 1.99023C15.1036 1.99023 14.9236 2.06357 14.7702 2.21023C14.6169 2.35023 14.5402 2.53357 14.5402 2.76023C14.5402 2.9669 14.6169 3.14357 14.7702 3.29023C14.9236 3.43023 15.1036 3.50023 15.3102 3.50023L18.2402 3.50023C18.8669 3.50023 19.4002 3.72023 19.8402 4.16023C20.2802 4.60023 20.5002 5.13357 20.5002 5.76023L20.5002 8.78023C20.5002 8.99357 20.5702 9.17023 20.7102 9.31024C20.8569 9.4569 21.0336 9.53023 21.2402 9.53023Z" fill="rgb(0,0,0)" fill-opacity="0.898039222" fill-rule="nonzero" />
		<path id="矢量 321" d="M12.7398 6.24016C12.6798 6.06682 12.5898 5.92682 12.4698 5.82016C12.3498 5.71349 12.1998 5.66016 12.0198 5.66016C11.8598 5.66016 11.7265 5.71349 11.6198 5.82016C11.5065 5.92682 11.4265 6.04349 11.3798 6.17016L7.29979 16.5102C7.21979 16.7035 7.22312 16.8968 7.30979 17.0902C7.39645 17.2835 7.53645 17.4102 7.72979 17.4702C7.90312 17.5368 8.06645 17.5468 8.21979 17.5002C8.37312 17.4468 8.49645 17.3502 8.58979 17.2102L8.68979 17.0602L9.73979 14.3302L14.2298 14.3302L15.2898 17.0602C15.3231 17.1135 15.3465 17.1635 15.3598 17.2102C15.4531 17.3502 15.5765 17.4468 15.7298 17.5002C15.8831 17.5468 16.0631 17.5468 16.2698 17.5002C16.4631 17.4335 16.6031 17.3002 16.6898 17.1002C16.7765 16.9002 16.7798 16.7035 16.6998 16.5102L12.7398 6.24016ZM12.0198 8.57016L13.6798 12.8202L10.3698 12.8202L12.0198 8.57016Z" fill="rgb(0,0,0)" fill-opacity="0.898039222" fill-rule="nonzero" />
	</g>
</svg>
