<svg viewBox="0 0 24 24" xmlns="http://www.w3.org/2000/svg" xmlns:xlink="http://www.w3.org/1999/xlink" width="24.000000" height="24.000000" fill="none">
	<rect id="pdf_doc" width="24.000000" height="24.000000" x="0.000000" y="0.000000" />
	<rect id="矩形 3641" width="24.000000" height="24.000000" x="0.000000" y="0.000000" opacity="0" fill="rgb(0,0,0)" />
	<g id="组合 4182">
		<path id="矢量 322" d="M6.59953 14.6201C6.43953 14.6201 6.30286 14.6735 6.18953 14.7801C6.0762 14.8935 6.01953 15.0301 6.01953 15.1901L6.01953 19.1501C6.01953 19.2968 6.06953 19.4168 6.16953 19.5101C6.26286 19.6101 6.38286 19.6601 6.52953 19.6601C6.66953 19.6601 6.78953 19.6101 6.88953 19.5101C6.98286 19.4168 7.02953 19.2968 7.02953 19.1501L7.02953 17.9301L7.77953 17.9301C8.15953 17.9301 8.50286 17.8668 8.80953 17.7401C9.42953 17.4468 9.73953 16.9568 9.73953 16.2701C9.73953 15.7435 9.55286 15.3368 9.17953 15.0501C8.8062 14.7635 8.33953 14.6201 7.77953 14.6201L6.59953 14.6201ZM7.02953 17.0601L7.02953 15.4601L7.65953 15.4601C7.81953 15.4601 7.96286 15.4735 8.08953 15.5001C8.2162 15.5335 8.31953 15.5835 8.39953 15.6501C8.59286 15.7901 8.68953 15.9968 8.68953 16.2701C8.68953 16.5301 8.59286 16.7301 8.39953 16.8701C8.23953 16.9835 8.03286 17.0468 7.77953 17.0601L7.65953 17.0601L7.02953 17.0601ZM10.5595 14.6201C10.3995 14.6201 10.2629 14.6735 10.1495 14.7801C10.0362 14.8935 9.97953 15.0301 9.97953 15.1901L9.97953 19.0801C9.97953 19.2401 10.0362 19.3768 10.1495 19.4901C10.2629 19.6035 10.3995 19.6601 10.5595 19.6601L11.6595 19.6601C12.1262 19.6601 12.5662 19.5535 12.9795 19.3401C13.3795 19.1535 13.6995 18.8668 13.9395 18.4801C14.1662 18.0801 14.2795 17.6235 14.2795 17.1101C14.2795 16.6168 14.1662 16.1701 13.9395 15.7701C13.7195 15.4168 13.3995 15.1268 12.9795 14.9001C12.5995 14.7135 12.1595 14.6201 11.6595 14.6201L10.5595 14.6201ZM10.9695 18.7901L10.9695 15.4301L11.5195 15.4301C12.0462 15.4301 12.4629 15.5835 12.7695 15.8901C13.0695 16.1768 13.2195 16.5835 13.2195 17.1101C13.2195 17.6368 13.0695 18.0535 12.7695 18.3601C12.5095 18.6468 12.0995 18.7901 11.5395 18.7901L10.9695 18.7901ZM15.2395 14.6201C15.0795 14.6201 14.9429 14.6735 14.8295 14.7801C14.7162 14.8935 14.6595 15.0301 14.6595 15.1901L14.6595 19.1501C14.6595 19.2968 14.7095 19.4168 14.8095 19.5101C14.9029 19.6101 15.0229 19.6601 15.1695 19.6601C15.2962 19.6601 15.4062 19.6101 15.4995 19.5101C15.5995 19.4168 15.6495 19.2968 15.6495 19.1501L15.6495 17.6401L17.2795 17.6401C17.4062 17.6401 17.5095 17.5968 17.5895 17.5101C17.6695 17.4235 17.7095 17.3235 17.7095 17.2101C17.7095 17.0835 17.6695 16.9801 17.5895 16.9001C17.5095 16.8201 17.4062 16.7801 17.2795 16.7801L15.6495 16.7801L15.6495 15.4801L17.5195 15.4801C17.6462 15.4801 17.7495 15.4368 17.8295 15.3501C17.9095 15.2635 17.9495 15.1635 17.9495 15.0501C17.9495 14.9235 17.9095 14.8201 17.8295 14.7401C17.7495 14.6601 17.6462 14.6201 17.5195 14.6201L15.2395 14.6201Z" fill="rgb(0,0,0)" fill-opacity="0.898039222" fill-rule="nonzero" />
		<path id="矢量 323" d="M15.2605 1.50977C15.1005 1.34977 14.9138 1.22643 14.7005 1.13977C14.4871 1.0531 14.2605 1.00977 14.0205 1.00977L6.22047 1.00977C5.64047 1.00977 5.1038 1.15643 4.61047 1.44977C4.11047 1.74977 3.7138 2.14643 3.42047 2.63977C3.12714 3.1331 2.98047 3.66977 2.98047 4.24977L2.98047 19.7498C2.98047 20.3431 3.12714 20.8864 3.42047 21.3798C3.7138 21.8798 4.11047 22.2731 4.61047 22.5598C5.1038 22.8464 5.64047 22.9898 6.22047 22.9898L17.7605 22.9898C18.3538 22.9898 18.8971 22.8464 19.3905 22.5598C19.8905 22.2731 20.2871 21.8798 20.5805 21.3798C20.8738 20.8864 21.0205 20.3431 21.0205 19.7498L21.0205 7.96977C21.0205 7.5031 20.8538 7.08643 20.5205 6.71977L15.2605 1.50977ZM18.8905 7.21977L15.4805 7.21977C15.2738 7.21977 15.0938 7.14977 14.9405 7.00977C14.7871 6.8631 14.7105 6.68643 14.7105 6.47977L14.7105 3.09977L18.8905 7.21977ZM6.22047 21.4998C5.74047 21.4998 5.32714 21.3298 4.98047 20.9898C4.6338 20.6431 4.46047 20.2298 4.46047 19.7498L4.46047 4.24977C4.46047 3.76977 4.6338 3.35643 4.98047 3.00977C5.32714 2.66977 5.74047 2.49977 6.22047 2.49977L13.2205 2.49977L13.2205 6.47977C13.2205 7.08643 13.4405 7.60977 13.8805 8.04977C14.3205 8.48977 14.8538 8.70977 15.4805 8.70977L19.5105 8.70977L19.5105 19.7498C19.5105 20.2298 19.3405 20.6431 19.0005 20.9898C18.6538 21.3298 18.2405 21.4998 17.7605 21.4998L6.22047 21.4998Z" fill="rgb(0,0,0)" fill-opacity="0.898039222" fill-rule="nonzero" />
	</g>
</svg>
