<svg viewBox="0 0 48 48" xmlns="http://www.w3.org/2000/svg" xmlns:xlink="http://www.w3.org/1999/xlink" width="48.000000" height="48.000000" fill="none">
	<mask id="mask_0" width="24.000000" height="24.000000" x="12.000000" y="12.500000" maskUnits="userSpaceOnUse">
		<g filter="url(#pixso_custom_mask_type_luminance)">
			<g id="hms_mask_0">
				<rect id="矩形 3634" width="24.000000" height="24.000000" x="12.000000" y="12.500000" fill="rgb(255,255,255)" />
				<g id="组合 4171">
					<path id="矢量 307" d="M31.18 29.4003C31.26 29.5737 31.2634 29.7437 31.19 29.9103C31.1167 30.077 31 30.1937 30.84 30.2603C30.6667 30.327 30.5 30.327 30.34 30.2603C30.18 30.1937 30.06 30.0803 29.98 29.9203L28.97 27.6203L27.48 27.6203L26.93 26.3203L28.42 26.3203L27.19 23.4703L26.5 25.2703L25.75 23.5403L26.52 21.5203C26.5867 21.3603 26.6934 21.247 26.84 21.1803C26.9934 21.107 27.15 21.0937 27.31 21.1403C27.47 21.187 27.6067 21.2903 27.72 21.4503L31.18 29.4003ZM27.1 29.2803C27.18 29.467 27.18 29.657 27.1 29.8503C27.02 30.0437 26.8834 30.1803 26.69 30.2603C26.4634 30.327 26.2634 30.3237 26.09 30.2503C25.91 30.177 25.78 30.0437 25.7 29.8503L24.46 26.9003L19.56 26.9003L18.31 29.8503C18.2167 30.057 18.0867 30.1937 17.92 30.2603C17.7467 30.327 17.55 30.327 17.33 30.2603C17.1234 30.1803 16.9834 30.0437 16.91 29.8503C16.8367 29.657 16.84 29.467 16.92 29.2803L21.31 18.9103C21.3767 18.7837 21.4667 18.6803 21.58 18.6003C21.6867 18.5203 21.8067 18.4703 21.94 18.4503C22.08 18.437 22.2134 18.467 22.34 18.5403C22.4734 18.607 22.58 18.707 22.66 18.8403C23.62 21.0937 24.58 23.357 25.54 25.6303L27.1 29.2803ZM23.81 25.3903L22.01 21.1203L20.21 25.3903L23.81 25.3903Z" fill="rgb(0,0,0)" fill-rule="evenodd" />
				</g>
			</g>
		</g>
	</mask>
	<defs>
		<clipPath id="clipPath_4">
			<rect width="24.000000" height="24.000000" x="12.000000" y="12.500000" fill="rgb(255,255,255)" />
		</clipPath>
		<filter id="pixso_custom_mask_type_luminance">
			<feColorMatrix type="matrix" values="1 0 0 0 0 0 1 0 0 0 0 0 1 0 0 0 0 0 1 0 " />
		</filter>
	</defs>
	<rect id="ic_public_scissors_waveform" width="48.000000" height="48.000000" x="0.000000" y="0.000000" />
	<circle id="path3" cx="24" cy="24" r="24" fill="rgb(241,255,240)" />
	<circle id="path3" cx="24" cy="24" r="24" stroke="rgb(0,0,0)" stroke-opacity="0" stroke-width="1" />
	<g id="textformat_size_square_fill" clip-path="url(#clipPath_4)" customFrame="url(#clipPath_4)">
		<rect id="textformat_size_square_fill" width="24.000000" height="24.000000" x="12.000000" y="12.500000" />
		<rect id="矩形 3633" width="24.000000" height="24.000000" x="12.000000" y="12.500000" opacity="0" fill="rgb(0,0,0)" />
		<g id="mask" mask="url(#mask_0)">
			<g id="组合 4170">
				<path id="矢量 306" d="M31.0102 34.5102C31.5369 34.5102 32.0336 34.3736 32.5002 34.1002C32.9602 33.8269 33.3269 33.4602 33.6002 33.0002C33.8736 32.5336 34.0102 32.0369 34.0102 31.5102L34.0102 17.4902C34.0102 16.9636 33.8736 16.4669 33.6002 16.0002C33.3269 15.5402 32.9602 15.1736 32.5002 14.9002C32.0336 14.6269 31.5369 14.4902 31.0102 14.4902L16.9902 14.4902C16.4636 14.4902 15.9669 14.6269 15.5002 14.9002C15.0402 15.1736 14.6736 15.5402 14.4002 16.0002C14.1269 16.4669 13.9902 16.9636 13.9902 17.4902L13.9902 31.5102C13.9902 32.0369 14.1269 32.5336 14.4002 33.0002C14.6736 33.4602 15.0402 33.8269 15.5002 34.1002C15.9669 34.3736 16.4636 34.5102 16.9902 34.5102L31.0102 34.5102Z" fill="rgb(100,187,92)" fill-rule="evenodd" />
			</g>
		</g>
	</g>
</svg>
