<svg width="48.000000" height="48.000000" viewBox="0 0 48 48" fill="none" xmlns="http://www.w3.org/2000/svg" xmlns:xlink="http://www.w3.org/1999/xlink">
	<desc>
			Created with Pixso.
	</desc>
	<defs>
		<clipPath id="clip1108_24877">
			<rect id="ic_normal_compress" width="48.000000" height="48.000000" fill="white" fill-opacity="0"/>
		</clipPath>
		<linearGradient x1="24.000000" y1="0.000000" x2="24.000000" y2="48.000000" id="paint_linear_1108_24878_0" gradientUnits="userSpaceOnUse">
			<stop stop-color="#399CFF"/>
			<stop offset="1.000000" stop-color="#55C0F2"/>
		</linearGradient>
	</defs>
	<g clip-path="url(#clip1108_24877)">
		<path id="矩形备份 113" d="M8.52 0L39.47 0C40.86 0 42 1.13 42 2.52L42 45.47C42 46.86 40.86 48 39.47 48L8.52 48C7.13 48 6 46.86 6 45.47L6 2.52C6 1.13 7.13 0 8.52 0Z" fill="url(#paint_linear_1108_24878_0)" fill-opacity="1.000000" fill-rule="evenodd"/>
		<mask id="mask1108_24882" mask-type="alpha" maskUnits="userSpaceOnUse" x="21.000000" y="12.000000" width="6.000000" height="7.200195">
			<path id="形状结合" d="M21.59 12L26.4 12C26.73 12 27 12.26 27 12.6L27 18.6C27 18.93 26.73 19.2 26.4 19.2L21.59 19.2C21.26 19.2 21 18.93 21 18.6L21 12.6C21 12.26 21.26 12 21.59 12ZM25.5 15.6L22.5 15.6C22.33 15.6 22.2 15.73 22.2 15.89L22.2 17.7C22.2 17.86 22.33 18 22.5 18L25.5 18C25.66 18 25.79 17.86 25.79 17.7L25.79 15.89C25.79 15.73 25.66 15.6 25.5 15.6Z" fill="#FFFFFF" fill-opacity="1.000000" fill-rule="evenodd"/>
		</mask>
		<g mask="url(#mask1108_24882)">
			<path id="形状结合" d="M21.59 12L26.4 12C26.73 12 27 12.26 27 12.6L27 18.6C27 18.93 26.73 19.2 26.4 19.2L21.59 19.2C21.26 19.2 21 18.93 21 18.6L21 12.6C21 12.26 21.26 12 21.59 12ZM25.5 15.6L22.5 15.6C22.33 15.6 22.2 15.73 22.2 15.89L22.2 17.7C22.2 17.86 22.33 18 22.5 18L25.5 18C25.66 18 25.79 17.86 25.79 17.7L25.79 15.89C25.79 15.73 25.66 15.6 25.5 15.6Z" fill="#FFFFFF" fill-opacity="1.000000" fill-rule="evenodd"/>
		</g>
		<rect id="矩形" x="21.000000" y="9.000000" rx="0.900000" width="6.000000" height="1.800000" fill="#FFFFFF" fill-opacity="1.000000"/>
		<rect id="矩形" x="21.075195" y="9.075195" rx="0.825000" width="5.850000" height="1.650000" fill="#000000" fill-opacity="0"/>
		<rect id="矩形" x="21.075195" y="9.075195" rx="0.825000" width="5.850000" height="1.650000" stroke="#979797" stroke-opacity="0" stroke-width="1.000000"/>
		<rect id="矩形备份 4" x="21.000000" y="6.000000" rx="0.900000" width="6.000000" height="1.800000" fill="#FFFFFF" fill-opacity="1.000000"/>
		<rect id="矩形备份 4" x="21.075195" y="6.075195" rx="0.825000" width="5.850000" height="1.650000" fill="#000000" fill-opacity="0"/>
		<rect id="矩形备份 4" x="21.075195" y="6.075195" rx="0.825000" width="5.850000" height="1.650000" stroke="#979797" stroke-opacity="0" stroke-width="1.000000"/>
		<rect id="矩形备份 5" x="21.000000" y="3.000000" rx="0.900000" width="6.000000" height="1.800000" fill="#FFFFFF" fill-opacity="1.000000"/>
		<rect id="矩形备份 5" x="21.075195" y="3.075195" rx="0.825000" width="5.850000" height="1.650000" fill="#000000" fill-opacity="0"/>
		<rect id="矩形备份 5" x="21.075195" y="3.075195" rx="0.825000" width="5.850000" height="1.650000" stroke="#979797" stroke-opacity="0" stroke-width="1.000000"/>
		<path id="矩形备份 7" d="M21 0L27 0L27 0.6C27 1.26 26.46 1.79 25.79 1.79L22.2 1.79C21.53 1.79 21 1.26 21 0.6L21 0Z" fill="#FFFFFF" fill-opacity="1.000000" fill-rule="evenodd"/>
		<path id="矩形备份 7" d="M27 0L27 0.6C27 1.26 26.46 1.79 25.79 1.79L22.2 1.79C21.53 1.79 21 1.26 21 0.6L21 0L27 0ZM26.84 0.14L26.84 0.6C26.84 1.17 26.37 1.64 25.79 1.64L22.2 1.64C21.61 1.64 21.15 1.17 21.15 0.6L21.15 0.14L26.84 0.14Z" fill="#979797" fill-opacity="0" fill-rule="evenodd"/>
	</g>
</svg>
