<svg viewBox="0 0 40 40" xmlns="http://www.w3.org/2000/svg" xmlns:xlink="http://www.w3.org/1999/xlink" width="40.000000" height="40.000000" fill="none" clip-path="url(#clipPath_2)" customFrame="url(#clipPath_2)">
	<defs>
		<clipPath id="clipPath_2">
			<rect width="40.000000" height="40.000000" x="0.000000" y="0.000000" rx="20.000000" fill="rgb(255,255,255)" />
		</clipPath>
		<clipPath id="clipPath_3">
			<rect width="24.000000" height="24.000000" x="8.000000" y="8.000000" fill="rgb(255,255,255)" />
		</clipPath>
	</defs>
	<rect id="svg" width="40.000000" height="40.000000" x="0.000000" y="0.000000" rx="20.000000" fill="rgb(232,64,38)" />
	<g id="calculator" clip-path="url(#clipPath_3)" customFrame="url(#clipPath_3)">
		<rect id="calculator" width="24.000000" height="24.000000" x="8.000000" y="8.000000" />
		<rect id="矩形 3496" width="24.000000" height="24.000000" x="8.000000" y="8.000000" opacity="0" fill="rgb(0,0,0)" />
		<g id="组合 1603">
			<path id="矢量 82" d="M15.61 9.01001C14.6967 9.01001 13.98 9.13001 13.46 9.37001C12.94 9.61001 12.5667 9.99001 12.34 10.51C12.12 11.03 12.01 11.73 12.01 12.61L12.01 27.39C12.01 28.29 12.1333 29.0033 12.38 29.53C12.6267 30.0567 13.01 30.4333 13.53 30.66C14.05 30.88 14.7433 30.99 15.61 30.99L24.39 30.99C25.2567 30.99 25.9533 30.87 26.48 30.63C27.0067 30.39 27.39 30.0067 27.63 29.48C27.87 28.9533 27.99 28.2567 27.99 27.39L27.99 12.61C27.99 11.7433 27.8733 11.05 27.64 10.53C27.4133 10.01 27.04 9.62668 26.52 9.38001C26 9.13334 25.29 9.01001 24.39 9.01001L15.61 9.01001ZM15.99 26C16.2633 26 16.5 26.0967 16.7 26.29C16.9 26.4833 17 26.7233 17 27.01C17 27.2833 16.9 27.5133 16.7 27.7C16.5 27.8933 16.2633 27.99 15.99 27.99C15.7167 27.99 15.4867 27.8933 15.3 27.7C15.1067 27.5133 15.01 27.2833 15.01 27.01C15.01 26.7233 15.1067 26.4833 15.3 26.29C15.4867 26.0967 15.7167 26 15.99 26ZM20 26C20.2733 26 20.51 26.0967 20.71 26.29C20.91 26.4833 21.01 26.7233 21.01 27.01C21.01 27.2833 20.91 27.5133 20.71 27.7C20.51 27.8933 20.2733 27.99 20 27.99C19.7267 27.99 19.49 27.8933 19.29 27.7C19.09 27.5133 18.99 27.2833 18.99 27.01C18.99 26.7233 19.09 26.4833 19.29 26.29C19.49 26.0967 19.7267 26 20 26ZM24.01 21.99C24.2833 21.99 24.5133 22.09 24.7 22.29C24.8933 22.49 24.99 22.7267 24.99 23L24.99 27.01C24.99 27.2833 24.8933 27.5133 24.7 27.7C24.5133 27.8933 24.2833 27.99 24.01 27.99C23.7233 27.99 23.4833 27.8933 23.29 27.7C23.0967 27.5133 23 27.2833 23 27.01L23 23C23 22.7267 23.0967 22.49 23.29 22.29C23.4833 22.09 23.7233 21.99 24.01 21.99ZM15.99 21.99C16.2633 21.99 16.5 22.09 16.7 22.29C16.9 22.49 17 22.7267 17 23C17 23.2733 16.9 23.51 16.7 23.71C16.5 23.91 16.2633 24.01 15.99 24.01C15.7167 24.01 15.4867 23.91 15.3 23.71C15.1067 23.51 15.01 23.2733 15.01 23C15.01 22.7267 15.1067 22.49 15.3 22.29C15.4867 22.09 15.7167 21.99 15.99 21.99ZM20 21.99C20.2733 21.99 20.51 22.09 20.71 22.29C20.91 22.49 21.01 22.7267 21.01 23C21.01 23.2733 20.91 23.51 20.71 23.71C20.51 23.91 20.2733 24.01 20 24.01C19.7267 24.01 19.49 23.91 19.29 23.71C19.09 23.51 18.99 23.2733 18.99 23C18.99 22.7267 19.09 22.49 19.29 22.29C19.49 22.09 19.7267 21.99 20 21.99ZM15.99 18.01C16.2633 18.01 16.5 18.1067 16.7 18.3C16.9 18.4867 17 18.7167 17 18.99C17 19.2633 16.9 19.5 16.7 19.7C16.5 19.9 16.2633 20 15.99 20C15.7167 20 15.4867 19.9 15.3 19.7C15.1067 19.5 15.01 19.2633 15.01 18.99C15.01 18.7167 15.1067 18.4867 15.3 18.3C15.4867 18.1067 15.7167 18.01 15.99 18.01ZM20 18.01C20.2733 18.01 20.51 18.1067 20.71 18.3C20.91 18.4867 21.01 18.7167 21.01 18.99C21.01 19.2633 20.91 19.5 20.71 19.7C20.51 19.9 20.2733 20 20 20C19.7267 20 19.49 19.9 19.29 19.7C19.09 19.5 18.99 19.2633 18.99 18.99C18.99 18.7167 19.09 18.4867 19.29 18.3C19.49 18.1067 19.7267 18.01 20 18.01ZM24.01 18.01C24.2833 18.01 24.5133 18.1067 24.7 18.3C24.8933 18.4867 24.99 18.7167 24.99 18.99C24.99 19.2633 24.8933 19.5 24.7 19.7C24.5133 19.9 24.2833 20 24.01 20C23.7233 20 23.4833 19.9 23.29 19.7C23.0967 19.5 23 19.2633 23 18.99C23 18.7167 23.0967 18.4867 23.29 18.3C23.4833 18.1067 23.7233 18.01 24.01 18.01ZM23.72 12.01C24.1867 12.01 24.5133 12.0933 24.7 12.26C24.8933 12.4267 24.99 12.7667 24.99 13.28L24.99 14.72C24.99 15.2133 24.9033 15.55 24.73 15.73C24.55 15.9033 24.2133 15.99 23.72 15.99L16.28 15.99C15.8133 15.99 15.4867 15.9067 15.3 15.74C15.1067 15.5733 15.01 15.2333 15.01 14.72L15.01 13.28C15.01 12.8133 15.0933 12.4867 15.26 12.3C15.4267 12.1067 15.7667 12.01 16.28 12.01L23.72 12.01ZM24.39 10.5C24.9367 10.5 25.3567 10.5633 25.65 10.69C25.95 10.8167 26.1667 11.0333 26.3 11.34C26.4333 11.64 26.5 12.0633 26.5 12.61L26.5 27.39C26.5 27.9033 26.4367 28.3133 26.31 28.62C26.1833 28.92 25.9633 29.1433 25.65 29.29C25.3367 29.43 24.9167 29.5 24.39 29.5L15.61 29.5C15.0967 29.5 14.6833 29.43 14.37 29.29C14.0567 29.1433 13.8333 28.92 13.7 28.62C13.5667 28.3133 13.5 27.9033 13.5 27.39L13.5 12.61C13.5 12.13 13.57 11.7333 13.71 11.42C13.8567 11.1067 14.0867 10.8733 14.4 10.72C14.7067 10.5733 15.11 10.5 15.61 10.5L24.39 10.5Z" fill="rgb(255,255,255)" fill-rule="nonzero" />
		</g>
	</g>
</svg>
