<svg viewBox="0 0 40 40" xmlns="http://www.w3.org/2000/svg" xmlns:xlink="http://www.w3.org/1999/xlink" width="40.000000" height="40.000000" fill="none" clip-path="url(#clipPath_0)" customFrame="url(#clipPath_0)">
	<mask id="mask_0" width="24.000000" height="24.000000" x="8.000000" y="8.000000" maskUnits="userSpaceOnUse">
		<g filter="url(#pixso_custom_mask_type_luminance)">
			<g id="hms_mask_0">
				<rect id="矩形 3495" width="24.000000" height="24.000000" x="8.000000" y="8.000000" fill="rgb(255,255,255)" />
				<g id="组合 1601">
					<path id="矢量 80" d="M31.09 17.0001C30.8833 16.7934 30.6433 16.6301 30.37 16.5101C30.0967 16.3901 29.8067 16.3301 29.5 16.3301C28.8933 16.3301 28.3667 16.5534 27.92 17.0001L23.72 21.1501L22.04 19.5001C21.6267 19.0467 21.1 18.8201 20.46 18.8201C20.1533 18.8201 19.8633 18.8801 19.59 19.0001C19.3167 19.1201 19.0767 19.2867 18.87 19.5001C18.65 19.7201 18.4833 19.9634 18.37 20.2301C18.2567 20.4901 18.2 20.7734 18.2 21.0801C18.2 21.7201 18.4233 22.2467 18.87 22.6601L21.34 25.1601C21.66 25.4667 22.0267 25.7034 22.44 25.8701C22.8467 26.0367 23.2733 26.1201 23.72 26.1201C24.6333 26.1201 25.4267 25.8001 26.1 25.1601L31.09 20.1701C31.5367 19.7501 31.76 19.2201 31.76 18.5801C31.76 18.2801 31.7 17.9934 31.58 17.7201C31.46 17.4467 31.2967 17.2067 31.09 17.0001Z" fill="rgb(0,0,0)" fill-rule="evenodd" />
				</g>
			</g>
		</g>
	</mask>
	<defs>
		<clipPath id="clipPath_0">
			<rect width="40.000000" height="40.000000" x="0.000000" y="0.000000" rx="20.000000" fill="rgb(255,255,255)" />
		</clipPath>
		<clipPath id="clipPath_1">
			<rect width="24.000000" height="24.000000" x="8.000000" y="8.000000" fill="rgb(255,255,255)" />
		</clipPath>
		<filter id="pixso_custom_mask_type_luminance">
			<feColorMatrix type="matrix" values="1 0 0 0 0 0 1 0 0 0 0 0 1 0 0 0 0 0 1 0 " />
		</filter>
	</defs>
	<rect id="svg" width="40.000000" height="40.000000" x="0.000000" y="0.000000" rx="20.000000" fill="rgb(232,64,38)" />
	<g id="doc_plaintext_doc_plaintext_and_checkmark" clip-path="url(#clipPath_1)" customFrame="url(#clipPath_1)">
		<rect id="doc_plaintext_doc_plaintext_and_checkmark" width="24.000000" height="24.000000" x="8.000000" y="8.000000" />
		<rect id="矩形 3494" width="24.000000" height="24.000000" x="8.000000" y="8.000000" opacity="0" fill="rgb(0,0,0)" />
		<g id="mask" mask="url(#mask_0)">
			<g id="组合 1600">
				<path id="矢量 79" d="M13.26 11.7901C12.7133 11.7901 12.2133 11.9234 11.76 12.1901C11.3 12.4501 10.9333 12.8134 10.66 13.2801C10.3933 13.7468 10.26 14.2501 10.26 14.7901L10.26 28.2101C10.26 28.7501 10.3933 29.2501 10.66 29.7101C10.9333 30.1634 11.3 30.5268 11.76 30.8001C12.2133 31.0734 12.7133 31.2101 13.26 31.2101L23.29 31.2101C23.83 31.2101 24.33 31.0734 24.79 30.8001C25.2433 30.5268 25.6067 30.1634 25.88 29.7101C26.1533 29.2501 26.29 28.7501 26.29 28.2101L26.29 14.7901C26.29 14.2501 26.1533 13.7468 25.88 13.2801C25.6067 12.8134 25.2433 12.4501 24.79 12.1901C24.33 11.9234 23.83 11.7901 23.29 11.7901L13.26 11.7901ZM24.8 28.2101C24.8 28.6234 24.6533 28.9801 24.36 29.2801C24.06 29.5734 23.7033 29.7201 23.29 29.7201L13.26 29.7201C12.84 29.7201 12.4867 29.5734 12.2 29.2801C11.9133 28.9801 11.77 28.6234 11.77 28.2101L11.77 14.7901C11.77 14.3768 11.9133 14.0201 12.2 13.7201C12.4867 13.4268 12.84 13.2801 13.26 13.2801L23.29 13.2801C23.7033 13.2801 24.06 13.4268 24.36 13.7201C24.6533 14.0201 24.8 14.3768 24.8 14.7901L24.8 28.2101ZM14.77 16.3001C14.5633 16.3001 14.3867 16.3734 14.24 16.5201C14.0933 16.6668 14.02 16.8434 14.02 17.0501C14.02 17.2568 14.0933 17.4334 14.24 17.5801C14.3867 17.7201 14.5633 17.7901 14.77 17.7901L21.75 17.7901C21.9567 17.7901 22.1333 17.7201 22.28 17.5801C22.4267 17.4334 22.5 17.2568 22.5 17.0501C22.5 16.8434 22.4267 16.6668 22.28 16.5201C22.1333 16.3734 21.9567 16.3001 21.75 16.3001L14.77 16.3001ZM14.77 20.6501C14.5633 20.6501 14.3867 20.7201 14.24 20.8601C14.0933 21.0068 14.02 21.1834 14.02 21.3901C14.02 21.5968 14.0933 21.7734 14.24 21.9201C14.3867 22.0668 14.5633 22.1401 14.77 22.1401L16.47 22.1401C16.6767 22.1401 16.8533 22.0668 17 21.9201C17.1467 21.7734 17.22 21.5968 17.22 21.3901C17.22 21.1834 17.1467 21.0068 17 20.8601C16.8533 20.7201 16.6767 20.6501 16.47 20.6501L14.77 20.6501ZM17.72 8.34009C16.9667 8.34009 16.2733 8.53342 15.64 8.92009C15.0133 9.31342 14.53 9.84009 14.19 10.5001L16.04 10.5001C16.28 10.2868 16.54 10.1268 16.82 10.0201C17.1 9.90675 17.4 9.85009 17.72 9.85009L25.74 9.85009C26.1867 9.85009 26.6 9.96009 26.98 10.1801C27.3667 10.4068 27.6733 10.7134 27.9 11.1001C28.12 11.4801 28.23 11.8934 28.23 12.3401L28.23 23.7901C28.23 24.1101 28.17 24.4134 28.05 24.7001C27.93 24.9934 27.7667 25.2501 27.56 25.4701L27.56 27.3201C28.2133 26.9868 28.7367 26.5034 29.13 25.8701C29.5233 25.2368 29.72 24.5434 29.72 23.7901L29.72 12.3401C29.72 11.6201 29.54 10.9534 29.18 10.3401C28.82 9.72675 28.3367 9.24009 27.73 8.88009C27.1233 8.52009 26.46 8.34009 25.74 8.34009L17.72 8.34009Z" fill="rgb(255,255,255)" fill-rule="evenodd" />
			</g>
		</g>
		<g id="组合 1602">
			<path id="矢量 81" d="M22.4 24.1001C22.5733 24.2801 22.7733 24.4134 23 24.5001C23.2267 24.5868 23.4667 24.6301 23.72 24.6301C23.96 24.6301 24.1967 24.5834 24.43 24.4901C24.6633 24.3901 24.8667 24.2601 25.04 24.1001L30.03 19.1101C30.1767 18.9701 30.25 18.7934 30.25 18.5801C30.25 18.3734 30.1767 18.2001 30.03 18.0601C29.89 17.9134 29.7133 17.8401 29.5 17.8401C29.2933 17.8401 29.12 17.9134 28.98 18.0601L23.96 23.0501C23.88 23.1301 23.8 23.1701 23.72 23.1701C23.64 23.1701 23.56 23.1301 23.48 23.0501L20.98 20.5501C20.84 20.4101 20.6667 20.3401 20.46 20.3401C20.2467 20.3401 20.07 20.4101 19.93 20.5501C19.7833 20.6968 19.71 20.8734 19.71 21.0801C19.71 21.2868 19.7833 21.4634 19.93 21.6101L22.4 24.1001Z" fill="rgb(255,255,255)" fill-rule="nonzero" />
		</g>
	</g>
</svg>
