<svg viewBox="0 0 40 40" xmlns="http://www.w3.org/2000/svg" xmlns:xlink="http://www.w3.org/1999/xlink" width="40.000000" height="40.000000" fill="none" clip-path="url(#clipPath_4)" customFrame="url(#clipPath_4)">
	<defs>
		<clipPath id="clipPath_4">
			<rect width="40.000000" height="40.000000" x="0.000000" y="0.000000" rx="20.000000" fill="rgb(255,255,255)" />
		</clipPath>
		<clipPath id="clipPath_5">
			<rect width="24.000000" height="24.000000" x="7.854782" y="8.000000" fill="rgb(255,255,255)" />
		</clipPath>
	</defs>
	<rect id="svg" width="40.000000" height="40.000000" x="0.000000" y="0.000000" rx="20.000000" fill="rgb(232,64,38)" />
	<g id="service_fill" clip-path="url(#clipPath_5)" customFrame="url(#clipPath_5)">
		<rect id="service_fill" width="24.000000" height="24.000000" x="7.854782" y="8.000000" />
		<rect id="矩形 3497" width="24.000000" height="24.000000" x="7.854782" y="8.000000" opacity="0" fill="rgb(0,0,0)" />
		<g id="组合 1604">
			<path id="矢量 83" d="M28.0848 16.86C27.9248 15.48 27.4615 14.2266 26.6948 13.1C25.9281 11.9733 24.9448 11.0866 23.7448 10.44C22.5448 9.78663 21.2481 9.45996 19.8548 9.45996C18.4615 9.45996 17.1748 9.77329 15.9948 10.4C14.8081 11.0266 13.8348 11.8833 13.0748 12.97C12.3148 14.0566 11.8381 15.2733 11.6448 16.62C11.6115 16.8066 11.5948 16.98 11.5948 17.14L11.5948 19.33L10.8348 19.33C10.5615 19.33 10.3281 19.42 10.1348 19.6C9.94145 19.7866 9.84479 20.0233 9.84479 20.31L9.84479 22.9C9.84479 23.1733 9.94145 23.4033 10.1348 23.59C10.3281 23.77 10.5615 23.86 10.8348 23.86L12.8948 23.86C13.1815 23.86 13.4181 23.77 13.6048 23.59C13.7848 23.4033 13.8748 23.1733 13.8748 22.9L13.8748 17.24C13.8748 17.08 13.9081 16.7933 13.9748 16.38C14.1681 15.5466 14.5248 14.7933 15.0448 14.12C15.5648 13.4466 16.2015 12.9033 16.9548 12.49C17.3548 13.5766 17.9548 14.5466 18.7548 15.4C19.5548 16.26 20.4948 16.93 21.5748 17.41C22.6548 17.89 23.8015 18.13 25.0148 18.13C25.1748 18.13 25.4481 18.1133 25.8348 18.08L25.8348 20.17L25.7848 23.22C25.7848 23.44 25.8315 23.6 25.9248 23.7C26.0248 23.7933 26.1681 23.84 26.3548 23.84L28.8748 23.84C29.1481 23.84 29.3815 23.7466 29.5748 23.56C29.7681 23.38 29.8648 23.1533 29.8648 22.88L29.8648 20.29C29.8648 20.0166 29.7681 19.7833 29.5748 19.59C29.3815 19.3966 29.1481 19.3 28.8748 19.3L28.0848 19.33L28.0848 16.86ZM21.6748 23.19C21.4348 23.43 21.1615 23.61 20.8548 23.73C20.5415 23.85 20.2081 23.91 19.8548 23.91C19.5215 23.91 19.1981 23.85 18.8848 23.73C18.5715 23.61 18.2881 23.43 18.0348 23.19C17.9348 23.0633 17.8048 23.0033 17.6448 23.01C17.4848 23.0166 17.3581 23.0866 17.2648 23.22C17.1515 23.3266 17.0948 23.4566 17.0948 23.61C17.0948 23.7633 17.1515 23.8966 17.2648 24.01C17.6181 24.3433 18.0181 24.6033 18.4648 24.79C18.9115 24.97 19.3748 25.06 19.8548 25.06C20.3481 25.06 20.8148 24.97 21.2548 24.79C21.6948 24.6033 22.0915 24.3433 22.4448 24.01C22.5715 23.8966 22.6415 23.7633 22.6548 23.61C22.6615 23.4566 22.6081 23.3266 22.4948 23.22C22.3815 23.0866 22.2448 23.0166 22.0848 23.01C21.9248 23.0033 21.7881 23.0633 21.6748 23.19Z" fill="rgb(255,255,255)" fill-rule="nonzero" />
		</g>
		<g id="组合 1605">
			<path id="矢量 84" d="M26.3548 23.84C26.1681 23.84 26.0248 23.7933 25.9248 23.7C25.8314 23.6 25.7848 23.44 25.7848 23.22C25.5914 24.3066 25.1914 25.27 24.5848 26.11C23.9781 26.95 23.2248 27.6066 22.3248 28.08C21.4314 28.5466 20.4714 28.78 19.4448 28.78C19.1714 28.8133 18.9548 28.91 18.7948 29.07C18.6348 29.23 18.5548 29.4233 18.5548 29.65C18.5548 29.89 18.6414 30.0933 18.8148 30.26C18.9814 30.4266 19.1848 30.51 19.4248 30.51C20.7981 30.4766 22.0548 30.1666 23.1948 29.58C24.3281 28.9866 25.2681 28.19 26.0148 27.19C26.7548 26.19 27.2281 25.0733 27.4348 23.84L26.3548 23.84Z" fill="rgb(255,255,255)" fill-rule="nonzero" />
		</g>
	</g>
</svg>
