<svg width="24" height="24" viewBox="0 0 24 24" fill="none" xmlns="http://www.w3.org/2000/svg">
<g id="tab/ic_&#229;&#164;&#135;&#228;&#187;&#189; 68">
<path id="Vector" d="M19.7626 11.4043L21.9095 6.25561C22.1921 5.5466 21.7911 4.96762 21.0117 4.96762H7.26462L7.1498 4.1713C7.01195 3.49981 6.38747 3 5.68967 3H2.05791C1.47365 3 1 3.46495 1 4.03846C1 4.61197 1.47365 5.07692 2.05791 5.07692H5.17728L7.19407 14.9027C5.88883 15.2891 4.93782 16.4774 4.93782 17.8846C4.93782 19.6052 6.35875 21 8.11158 21C9.86439 21 11.2853 19.6052 11.2853 17.8846C11.2853 17.4995 11.2108 17.1322 11.0806 16.7917H15.3634C15.2332 17.1322 15.1587 17.4995 15.1587 17.8846C15.1587 19.6052 16.5796 21 18.3324 21C20.0852 21 21.5062 19.6052 21.5062 17.8846C21.5062 16.2844 20.2766 14.9676 18.6946 14.791C18.5726 14.7428 18.4401 14.7148 18.3006 14.7148H9.3139L8.89877 12.6923H17.8396C18.6152 12.6923 19.479 12.1157 19.7626 11.4043ZM18.3324 18.9231C17.7481 18.9231 17.2745 18.4582 17.2745 17.8846C17.2745 17.3111 17.7482 16.8462 18.3324 16.8462C18.9167 16.8462 19.3903 17.3111 19.3903 17.8846C19.3903 18.4582 18.9167 18.9231 18.3324 18.9231ZM9.16951 17.8846C9.16951 18.4582 8.69584 18.9231 8.1116 18.9231C7.52732 18.9231 7.05369 18.4582 7.05369 17.8846C7.05369 17.3111 7.52734 16.8462 8.1116 16.8462C8.69584 16.8462 9.16951 17.3111 9.16951 17.8846Z" fill="url(#paint0_linear_137_40500)"/>
</g>
<defs>
<linearGradient id="paint0_linear_137_40500" x1="11.5" y1="3" x2="11.5" y2="21" gradientUnits="userSpaceOnUse">
<stop stop-color="#B2B2B2" stop-opacity="0.5"/>
<stop offset="1" stop-opacity="0.6"/>
</linearGradient>
</defs>
</svg>
