<svg width="24" height="24" viewBox="0 0 24 24" fill="none" xmlns="http://www.w3.org/2000/svg">
<g id="Group 23">
<path id="Vector" d="M4.36104 15.8969C4.37249 16.3048 4.53973 16.6915 4.82636 16.9729C5.113 17.2543 5.49583 17.4076 5.89158 17.3995C6.27818 17.3995 6.64894 17.2412 6.9223 16.9594C7.19567 16.6776 7.34924 16.2954 7.34924 15.8969C7.34924 15.4984 7.19567 15.1162 6.9223 14.8344C6.64894 14.5526 6.27818 14.3943 5.89158 14.3943C5.49583 14.3862 5.113 14.5396 4.82636 14.821C4.53973 15.1024 4.37249 15.4891 4.36104 15.8969ZM17.2662 17.3995C17.5509 17.3848 17.8253 17.2844 18.0552 17.1106C18.2851 16.9368 18.4606 16.6973 18.5598 16.4218C18.659 16.1463 18.6777 15.8468 18.6135 15.5604C18.5493 15.2741 18.405 15.0134 18.1986 14.8107C17.9921 14.608 17.7325 14.4722 17.4519 14.4201C17.1713 14.3679 16.8821 14.4017 16.6199 14.5173C16.3578 14.6329 16.1343 14.8253 15.9771 15.0705C15.82 15.3157 15.736 15.603 15.7356 15.8969C15.7471 16.3048 15.9143 16.6915 16.201 16.9729C16.4876 17.2543 16.8704 17.4076 17.2662 17.3995ZM15.9106 10.9233H17.4362C17.4863 10.9185 17.5368 10.9185 17.5869 10.9233H20.2641C21.1095 10.9233 22.3048 12.2556 22.3048 13.0871V13.4377C22.3048 13.9836 21.6926 13.9385 20.9152 13.9385C21.236 14.5363 21.4033 15.2087 21.4011 15.8919C21.3794 16.9994 20.9333 18.0531 20.1603 18.8226C19.3874 19.5922 18.3504 20.0151 17.2759 19.999C16.5358 20.0059 15.8072 19.8096 15.1651 19.4302C14.5229 19.0508 13.9903 18.5021 13.622 17.8403H9.54545C9.17557 18.5018 8.64196 19.0502 7.99915 19.4294C7.35633 19.8087 6.62736 20.0053 5.88672 19.999C5.35199 20.011 4.8202 19.9142 4.32174 19.7143C3.82329 19.5143 3.36794 19.2151 2.98169 18.8337C2.59545 18.4523 2.28589 17.9962 2.0707 17.4914C1.85551 16.9867 1.7389 16.4431 1.72754 15.8919C1.73203 15.2289 1.8943 14.5771 2.20012 13.9937C2.50594 13.4104 2.94597 12.9133 3.48159 12.5461C3.45641 12.4395 3.44336 12.3303 3.44272 12.2206L4.41449 10.6378C4.04681 10.4754 3.72732 10.2157 3.48839 9.88495C3.24947 9.55422 3.09962 9.16426 3.05401 8.75459V8.21366C3.05655 7.99791 3.10028 7.7848 3.18273 7.58648C3.26517 7.38816 3.38471 7.20852 3.5345 7.05783C3.6843 6.90714 3.86143 6.78833 4.05577 6.70821C4.25011 6.62809 4.45786 6.58821 4.66715 6.59086H7.98575C8.66599 5.85959 9.81754 5.02816 10.3909 5.35372C11.1294 5.77445 10.8768 6.89638 10.5804 7.5976L10.0459 8.9349V9.29553C10.0434 9.6497 9.92779 9.99315 9.71703 10.2729C9.50627 10.5526 9.21205 10.753 8.87978 10.8432C8.13152 13.5779 10.9837 15.0204 12.8349 12.9819C12.8993 12.8709 12.9561 12.7554 13.005 12.6363C13.656 11.1838 15.274 10.9484 15.9203 10.9133L15.9106 10.9233ZM21.1095 9.62109H15.1671C14.7558 9.6374 14.3549 9.48545 14.0519 9.19835C13.7488 8.91126 13.5681 8.5123 13.5491 8.08844V5.53403C13.5668 5.10972 13.7471 4.70998 14.0505 4.42261C14.3539 4.13524 14.7555 3.98374 15.1671 4.00139H21.1095C21.5212 3.98374 21.9228 4.13524 22.2262 4.42261C22.5295 4.70998 22.7099 5.10972 22.7275 5.53403V8.08844C22.7086 8.5123 22.5279 8.91126 22.2248 9.19835C21.9217 9.48545 21.5208 9.6374 21.1095 9.62109Z" fill="url(#paint0_linear_39_5059)"/>
</g>
<defs>
<linearGradient id="paint0_linear_39_5059" x1="12.2275" y1="4" x2="12.2275" y2="20" gradientUnits="userSpaceOnUse">
<stop stop-color="#FBB535"/>
<stop offset="1" stop-color="#F17D00"/>
</linearGradient>
</defs>
</svg>
