<svg width="27" height="25" viewBox="0 0 27 25" fill="none" xmlns="http://www.w3.org/2000/svg">
<g id="tab/ic_&#229;&#164;&#135;&#228;&#187;&#189; 68">
<path id="Vector" d="M14.5142 4C9.79717 4 6 7.2574 6 11.2732C6 13.7461 7.45387 15.9283 9.64893 17.2662V19.5062C9.64893 19.7969 9.85609 20 10.1241 20C10.2134 20 10.3027 19.9702 10.3616 19.9422L12.6745 18.4291C13.2675 18.5446 13.8604 18.5744 14.4838 18.5744C19.2027 18.5744 22.9998 15.317 22.9998 11.3012C23.0284 7.2574 19.2027 4 14.5142 4ZM10.6866 12.4659C10.1222 12.4659 9.67744 12 9.67744 11.4764C9.67744 10.9229 10.1526 10.4868 10.6866 10.4868C11.251 10.4868 11.6958 10.9527 11.6958 11.4764C11.7243 12 11.251 12.4659 10.6866 12.4659ZM14.5731 12.4659C14.0086 12.4659 13.5639 12 13.5639 11.4764C13.5639 10.9229 14.0391 10.4868 14.5731 10.4868C15.1375 10.4868 15.5822 10.9527 15.5822 11.4764C15.5822 12 15.1071 12.4659 14.5731 12.4659ZM18.3113 12.4659C17.7469 12.4659 17.3022 12 17.3022 11.4764C17.3022 10.9229 17.7773 10.4868 18.3113 10.4868C18.8758 10.4868 19.3205 10.9527 19.3205 11.4764C19.3205 12 18.8758 12.4659 18.3113 12.4659Z" fill="url(#paint0_linear_137_40519)"/>
</g>
<defs>
<linearGradient id="paint0_linear_137_40519" x1="14.5" y1="4" x2="14.5" y2="20" gradientUnits="userSpaceOnUse">
<stop stop-color="#B2B2B2" stop-opacity="0.5"/>
<stop offset="1" stop-opacity="0.6"/>
</linearGradient>
</defs>
</svg>
