<svg width="16.000000" height="16.000000" viewBox="0 0 16 16" fill="none" xmlns="http://www.w3.org/2000/svg" xmlns:xlink="http://www.w3.org/1999/xlink">
	<desc>
			Created with Pixso.
	</desc>
	<defs>
		<clipPath id="clip33_3097">
			<rect width="16.000000" height="16.000000" fill="white" fill-opacity="0"/>
		</clipPath>
	</defs>
	<g clip-path="url(#clip33_3097)">
		<g opacity="0.000000">
			<rect width="16.000000" height="16.000000" fill="#000000" fill-opacity="1.000000"/>
		</g>
		<path d="M10.71 4.71C11.03 4.38 11.2 3.99 11.19 3.52C11.19 3.06 11.03 2.66 10.69 2.32L9.17 0.8C8.84 0.47 8.44 0.31 7.98 0.31C7.52 0.31 7.12 0.47 6.79 0.8L5.27 2.32C4.93 2.66 4.77 3.06 4.77 3.52C4.76 3.99 4.92 4.38 5.25 4.71L6.78 6.24C7.11 6.57 7.51 6.74 7.98 6.73C8.45 6.74 8.85 6.57 9.18 6.24L10.71 4.71ZM15.26 9.27C15.59 8.94 15.75 8.55 15.75 8.08C15.75 7.62 15.59 7.22 15.26 6.89L13.74 5.37C13.4 5.04 13 4.87 12.54 4.87C12.07 4.87 11.68 5.03 11.35 5.36L9.82 6.88C9.49 7.22 9.32 7.62 9.33 8.08C9.32 8.55 9.49 8.95 9.82 9.28L11.35 10.81C11.68 11.14 12.07 11.3 12.54 11.3C13 11.3 13.4 11.13 13.74 10.8L15.26 9.27ZM10.69 13.84C11.03 13.51 11.19 13.11 11.19 12.64C11.2 12.18 11.03 11.78 10.71 11.45L9.18 9.93C8.85 9.59 8.45 9.43 7.98 9.43C7.51 9.43 7.11 9.59 6.78 9.93L5.25 11.45C4.92 11.78 4.76 12.18 4.77 12.64C4.77 13.11 4.93 13.51 5.27 13.84L6.79 15.37C7.12 15.69 7.52 15.86 7.98 15.86C8.44 15.86 8.84 15.69 9.17 15.37L10.69 13.84ZM4.61 10.81C4.28 11.14 3.88 11.31 3.41 11.3C2.94 11.31 2.54 11.14 2.21 10.81L0.68 9.28C0.35 8.95 0.19 8.56 0.2 8.09C0.2 7.63 0.36 7.23 0.7 6.89L2.22 5.37C2.55 5.04 2.94 4.88 3.41 4.88C3.87 4.88 4.27 5.04 4.6 5.37L6.12 6.89C6.46 7.23 6.62 7.63 6.62 8.09C6.62 8.56 6.46 8.96 6.14 9.28L4.61 10.81Z" fill="#966426" fill-opacity="1.000000" fill-rule="nonzero"/>
	</g>
</svg>
