<svg viewBox="0 0 48 48" xmlns="http://www.w3.org/2000/svg" xmlns:xlink="http://www.w3.org/1999/xlink" width="48.000000" height="48.000000" fill="none">
	<defs>
		<filter id="pixso_custom_mask_type_alpha">
			<feColorMatrix type="matrix" values="0 0 0 0 1 0 0 0 0 1 0 0 0 0 1 0 0 0 1 0 " />
		</filter>
		<linearGradient id="paint_linear_0" x1="24.0000782" x2="24.0000782" y1="0.5" y2="46.5914001" gradientUnits="userSpaceOnUse">
			<stop stop-color="rgb(143,248,133)" offset="0" stop-opacity="1" />
			<stop stop-color="rgb(54,165,44)" offset="1" stop-opacity="1" />
		</linearGradient>
		<linearGradient id="paint_linear_1" x1="30.6700783" x2="44.3300819" y1="3.93522716" y2="18.2459164" gradientUnits="userSpaceOnUse">
			<stop stop-color="rgb(255,255,255)" offset="0" stop-opacity="1" />
			<stop stop-color="rgb(255,255,255)" offset="1" stop-opacity="0.0549019985" />
			<stop stop-color="rgb(255,255,255)" offset="1" stop-opacity="0" />
		</linearGradient>
		<linearGradient id="paint_linear_2" x1="23" x2="23" y1="17.8100204" y2="38.8112411" gradientUnits="userSpaceOnUse">
			<stop stop-color="rgb(255,255,255)" offset="0" stop-opacity="0.800000012" />
			<stop stop-color="rgb(255,255,255)" offset="1" stop-opacity="0.501960993" />
		</linearGradient>
	</defs>
	<mask id="mask_0" width="48.000000" height="48.000000" x="0.000000" y="0.000000" maskUnits="userSpaceOnUse">
		<g filter="url(#pixso_custom_mask_type_alpha)">
			<g id="clip177_15098">
				<rect id="ic_public_audio_file_ textured-音频文件_质感" width="48.000000" height="48.000000" x="0.000000" y="0.000000" fill="rgb(0,0,0)" />
			</g>
		</g>
	</mask>
	<rect id="ic_public_audio_file_ textured" width="48.000000" height="48.000000" x="0.000000" y="0.000000" />
	<g id="clip path group" mask="url(#mask_0)">
		<g id="组合 4239">
			<path id="path3" d="M31.3002 0.5L11.1602 0.5C7.02016 0.5 3.66016 3.85 3.66016 8L3.66016 40C3.66016 44.14 7.02016 47.5 11.1602 47.5L36.8302 47.5C40.9702 47.5 44.3302 44.14 44.3302 40L44.3302 13.52C44.3302 12.99 44.1102 12.48 43.7402 12.11L32.7102 1.08C32.3402 0.71 31.8302 0.5 31.3002 0.5Z" fill="url(#paint_linear_0)" fill-rule="evenodd" />
			<path id="path3" />
			<g id="组合 4240" opacity="0.600000024">
				<path id="pah4" d="M31.3002 0.5L30.6602 0.5C31.4702 0.5 32.1202 1.15 32.1202 1.95L32.1202 8.7C32.1202 10.9 33.9202 12.7 36.1202 12.7L42.8702 12.7C43.6702 12.7 44.3302 13.35 44.3302 14.15L44.3302 13.52C44.3302 12.99 44.1102 12.48 43.7402 12.11L32.7102 1.08C32.3402 0.71 31.8302 0.5 31.3002 0.5Z" fill="url(#paint_linear_1)" fill-rule="evenodd" />
			</g>
			<path id="path5" d="M17.78 30.1805C17.93 30.2104 18.08 30.2505 18.22 30.3004L18.22 24.1304C18.22 23.8405 18.25 23.5604 18.3 23.2805C18.34 23.0305 18.41 22.7805 18.5 22.5405C18.58 22.2905 18.68 22.0604 18.81 21.8405C18.94 21.6005 19.09 21.3804 19.26 21.1604C19.43 20.9505 19.61 20.7505 19.81 20.5704C20 20.4004 20.2 20.2505 20.42 20.1105C20.64 19.9704 20.86 19.8505 21.1 19.7505C21.36 19.6404 21.63 19.5504 21.91 19.4804L28.64 17.9104C28.97 17.8305 29.3 17.8004 29.63 17.8104C29.9 17.8104 30.17 17.8505 30.45 17.9104C31.02 18.0504 31.54 18.3004 32 18.6604C32.46 19.0305 32.82 19.4804 33.08 20.0005C33.21 20.2605 33.31 20.5105 33.37 20.7805C33.46 21.1005 33.5 21.4205 33.5 21.7605L33.5 31.5805C33.5 31.8904 33.46 32.2005 33.4 32.5005C33.34 32.7604 33.26 33.0205 33.15 33.2804C32.93 33.8004 32.62 34.2604 32.22 34.6604C31.81 35.0704 31.35 35.3805 30.83 35.6004C30.29 35.8305 29.72 35.9404 29.13 35.9404C28.54 35.9404 27.97 35.8305 27.43 35.6004C27.18 35.4905 26.95 35.3704 26.73 35.2205C26.48 35.0605 26.26 34.8704 26.05 34.6604C25.84 34.4505 25.65 34.2304 25.49 33.9804C25.34 33.7604 25.22 33.5304 25.11 33.2804C24.88 32.7405 24.77 32.1704 24.77 31.5805C24.77 31.2605 24.8 30.9604 24.86 30.6604C24.92 30.3904 25 30.1304 25.11 29.8804C25.33 29.3605 25.64 28.9004 26.05 28.4904C26.45 28.0905 26.91 27.7805 27.43 27.5604C27.97 27.3305 28.54 27.2204 29.13 27.2204C29.45 27.2204 29.75 27.2505 30.05 27.3104C30.2 27.3405 30.35 27.3804 30.5 27.4305L30.5 24.5805L21.22 26.6805L21.22 34.4404C21.22 34.7604 21.19 35.0605 21.13 35.3605C21.07 35.6305 20.99 35.8904 20.88 36.1404C20.77 36.3904 20.65 36.6305 20.5 36.8504C20.34 37.0905 20.15 37.3204 19.94 37.5304C19.54 37.9305 19.08 38.2405 18.56 38.4604C18.3 38.5704 18.04 38.6505 17.78 38.7104C17.48 38.7705 17.17 38.8105 16.86 38.8105C16.54 38.8105 16.24 38.7705 15.94 38.7104C15.67 38.6505 15.41 38.5704 15.16 38.4604C14.91 38.3605 14.67 38.2304 14.45 38.0805C14.21 37.9204 13.98 37.7405 13.77 37.5304C13.37 37.1305 13.06 36.6604 12.84 36.1404C12.61 35.6004 12.5 35.0304 12.5 34.4404C12.5 33.8504 12.61 33.2905 12.84 32.7405C12.94 32.4905 13.07 32.2604 13.22 32.0405C13.38 31.7905 13.56 31.5704 13.77 31.3605C13.98 31.1504 14.21 30.9604 14.45 30.8004C14.67 30.6504 14.91 30.5305 15.16 30.4205C15.41 30.3204 15.67 30.2304 15.94 30.1805C16.24 30.1105 16.54 30.0805 16.86 30.0805C17.17 30.0805 17.48 30.1105 17.78 30.1805Z" fill="url(#paint_linear_2)" fill-rule="evenodd" />
		</g>
	</g>
</svg>
