<svg viewBox="0 0 40 40" xmlns="http://www.w3.org/2000/svg" xmlns:xlink="http://www.w3.org/1999/xlink" width="40.000000" height="40.000000" fill="none" customFrame="url(#clipPath_0)">
	<defs>
		<clipPath id="clipPath_0">
			<rect width="40.000000" height="40.000000" x="0.000000" y="0.000000" rx="20.000000" fill="rgb(255,255,255)" />
		</clipPath>
		<clipPath id="clipPath_1">
			<rect width="24.000000" height="24.000000" x="8.000000" y="8.000000" fill="rgb(255,255,255)" />
		</clipPath>
	</defs>
	<rect id="3.Icon Button" width="40.000000" height="40.000000" x="0.000000" y="0.000000" rx="20.000000" fill="rgb(255,255,255)" fill-opacity="0.100000001" />
	<g id="chevron_backward" clip-path="url(#clipPath_1)" customFrame="url(#clipPath_1)">
		<rect id="chevron_backward" width="24.000000" height="24.000000" x="8.000000" y="8.000000" />
		<rect id="rect" width="24.000000" height="24.000000" x="8.000000" y="8.000000" opacity="0" />
		<g id="g">
			<path id="path" d="M16.0901 20.0002L23.0501 13.0402C23.1901 12.8802 23.2601 12.7002 23.2601 12.5002C23.2601 12.3002 23.1901 12.1202 23.0501 11.9602C22.9034 11.8136 22.7267 11.7402 22.5201 11.7402C22.3134 11.7402 22.1367 11.8136 21.9901 11.9602L15.0101 18.9402C14.7234 19.2336 14.5801 19.5869 14.5801 20.0002C14.5801 20.4136 14.7234 20.7669 15.0101 21.0602L21.9701 27.9902C22.0967 28.1369 22.2667 28.2102 22.4801 28.2102C22.7001 28.2102 22.8801 28.1369 23.0201 27.9902C23.1667 27.8502 23.2401 27.6736 23.2401 27.4602C23.2401 27.2536 23.1667 27.0802 23.0201 26.9402L16.0901 20.0002Z" fill="rgb(255,255,255)" fill-opacity="0.898039222" fill-rule="nonzero" />
		</g>
	</g>
</svg>
