<svg viewBox="0 0 40 40" xmlns="http://www.w3.org/2000/svg" xmlns:xlink="http://www.w3.org/1999/xlink" width="40.000000" height="40.000000" fill="none">
	<defs>
		<linearGradient id="paint_linear_0" x1="20" x2="20" y1="0" y2="40" gradientUnits="userSpaceOnUse">
			<stop stop-color="rgb(86,74,247)" offset="0" stop-opacity="1" />
			<stop stop-color="rgb(183,178,255)" offset="1" stop-opacity="1" />
		</linearGradient>
		<clipPath id="clipPath_0">
			<rect width="24.000000" height="24.000000" x="8.000000" y="8.000000" fill="rgb(255,255,255)" />
		</clipPath>
	</defs>
	<rect id="容器 96" width="40.000000" height="40.000000" x="0.000000" y="0.000000" />
	<circle id="椭圆 83" cx="20" cy="20" r="20" fill="url(#paint_linear_0)" />
	<g id="wireless_projection" clip-path="url(#clipPath_0)" customFrame="url(#clipPath_0)">
		<rect id="wireless_projection" width="24.000000" height="24.000000" x="8.000000" y="8.000000" />
		<rect id="矩形 3667" width="24.000000" height="24.000000" x="8.000000" y="8.000000" opacity="0" fill="rgb(0,0,0)" />
		<g id="组合 4215">
			<path id="矢量 353" d="M15.6304 22.8104C15.5038 22.9704 15.4404 23.1504 15.4404 23.3504C15.4404 23.5504 15.5204 23.7204 15.6804 23.8604C15.8071 23.9938 15.9671 24.0638 16.1604 24.0704C16.3538 24.0771 16.5304 24.0171 16.6904 23.8904C16.7038 23.8704 16.7104 23.8604 16.7104 23.8604C16.7104 23.8604 16.7204 23.8538 16.7404 23.8404C17.1538 23.3938 17.6404 23.0504 18.2004 22.8104C18.7604 22.5704 19.3604 22.4504 20.0004 22.4504C20.6271 22.4504 21.2204 22.5704 21.7804 22.8104C22.3404 23.0504 22.8338 23.3938 23.2604 23.8404C23.4204 24.0004 23.5938 24.0804 23.7804 24.0804C23.9671 24.0804 24.1471 24.0071 24.3204 23.8604C24.4671 23.7338 24.5438 23.5671 24.5504 23.3604C24.5571 23.1538 24.4871 22.9704 24.3404 22.8104C23.7671 22.2038 23.1071 21.7404 22.3604 21.4204C21.6204 21.1004 20.8338 20.9404 20.0004 20.9404C19.1671 20.9404 18.3738 21.1004 17.6204 21.4204C16.8738 21.7404 16.2104 22.2038 15.6304 22.8104ZM15.7304 28.0404C15.7304 27.3071 15.9204 26.6338 16.3004 26.0204C16.6871 25.4138 17.2071 24.9304 17.8604 24.5704C18.5204 24.2104 19.2338 24.0304 20.0004 24.0304C20.7671 24.0304 21.4804 24.2104 22.1404 24.5704C22.7938 24.9304 23.3138 25.4138 23.7004 26.0204C24.0804 26.6338 24.2704 27.3071 24.2704 28.0404C24.2704 28.2338 24.2538 28.3871 24.2204 28.5004C24.1938 28.6071 24.1138 28.7271 23.9804 28.8604C23.8871 28.9671 23.7371 29.0204 23.5304 29.0204L16.5004 29.0204C16.3204 29.0204 16.1738 28.9738 16.0604 28.8804C15.8404 28.7204 15.7304 28.4638 15.7304 28.1104L15.7304 28.0404Z" fill="rgb(255,255,255)" fill-opacity="0.90196079" fill-rule="nonzero" />
			<path id="矢量 354" d="M28.2298 28.3305C28.7298 28.3305 29.1898 28.2071 29.6098 27.9605C30.0364 27.7071 30.3731 27.3705 30.6198 26.9505C30.8664 26.5238 30.9898 26.0638 30.9898 25.5705L30.9898 13.7105C30.9898 13.2171 30.8664 12.7605 30.6198 12.3405C30.3731 11.9271 30.0364 11.5971 29.6098 11.3505C29.1898 11.1038 28.7298 10.9805 28.2298 10.9805L11.7398 10.9805C11.2464 10.9805 10.7931 11.1038 10.3798 11.3505C9.95977 11.5971 9.62643 11.9271 9.37977 12.3405C9.1331 12.7605 9.00977 13.2171 9.00977 13.7105L9.00977 25.5705C9.00977 26.0638 9.1331 26.5238 9.37977 26.9505C9.62643 27.3705 9.95977 27.7071 10.3798 27.9605C10.7931 28.2071 11.2464 28.3305 11.7398 28.3305L14.0198 28.3305C14.2331 28.3305 14.4098 28.2538 14.5498 28.1005C14.6964 27.9471 14.7698 27.7671 14.7698 27.5605C14.7698 27.3538 14.6964 27.1771 14.5498 27.0305C14.4098 26.8905 14.2331 26.8205 14.0198 26.8205L11.7398 26.8205C11.3931 26.8205 11.0998 26.7005 10.8598 26.4605C10.6198 26.2205 10.4998 25.9238 10.4998 25.5705L10.4998 13.7105C10.4998 13.3771 10.6198 13.0871 10.8598 12.8405C11.0998 12.5871 11.3931 12.4605 11.7398 12.4605L28.2298 12.4605C28.5831 12.4605 28.8798 12.5871 29.1198 12.8405C29.3598 13.0871 29.4798 13.3771 29.4798 13.7105L29.4798 25.5705C29.4798 25.9238 29.3598 26.2205 29.1198 26.4605C28.8798 26.7005 28.5831 26.8205 28.2298 26.8205L26.0198 26.8205C25.8131 26.8205 25.6398 26.8905 25.4998 27.0305C25.3531 27.1771 25.2798 27.3538 25.2798 27.5605C25.2798 27.7671 25.3531 27.9471 25.4998 28.1005C25.6398 28.2538 25.8131 28.3305 26.0198 28.3305L28.2298 28.3305Z" fill="rgb(255,255,255)" fill-opacity="0.90196079" fill-rule="nonzero" />
		</g>
	</g>
</svg>
