<svg viewBox="0 0 12 24" xmlns="http://www.w3.org/2000/svg" xmlns:xlink="http://www.w3.org/1999/xlink" width="12.000000" height="24.000000" fill="none" customFrame="#000000">
	<defs>
		<clipPath id="clipPath_0">
			<rect width="12.000000" height="24.000000" x="0.000000" y="0.000000" fill="rgb(255,255,255)" />
		</clipPath>
	</defs>
	<rect id=".Arrow-right small" width="12.000000" height="24.000000" x="0.000000" y="0.000000" />
	<g id="chevron_right" clip-path="url(#clipPath_0)" customFrame="url(#clipPath_0)">
		<rect id="chevron_right" width="12.000000" height="24.000000" x="0.000000" y="0.000000" />
		<rect id="rect" width="12.000000" height="24.000000" x="0.000000" y="0.000000" opacity="0" fill="rgb(0,0,0)" fill-opacity="0.200000003" />
		<g id="g">
			<path id="path" d="M2.81004 18.8396C2.98338 19.0129 3.17004 19.0962 3.37004 19.0896C3.57004 19.0829 3.74338 18.9996 3.89004 18.8396L9.17004 12.7696C9.37671 12.5429 9.47671 12.2862 9.47005 11.9996C9.46338 11.7129 9.36338 11.4562 9.17004 11.2296L3.89004 5.13958C3.76338 4.97958 3.59004 4.90291 3.37004 4.90958C3.15671 4.91625 2.97671 4.99291 2.83004 5.13958C2.69004 5.27958 2.62004 5.44958 2.62004 5.64958C2.62004 5.84958 2.69004 6.02958 2.83004 6.18958L7.85004 11.9996L2.81004 17.7796C2.68338 17.9396 2.61338 18.1196 2.60004 18.3196C2.59338 18.5196 2.66338 18.6929 2.81004 18.8396Z" fill="rgb(0,0,0)" fill-opacity="0.200000003" fill-rule="nonzero" />
		</g>
	</g>
</svg>
