<svg viewBox="0 0 24 24" xmlns="http://www.w3.org/2000/svg" xmlns:xlink="http://www.w3.org/1999/xlink" width="24.000000" height="24.000000" fill="none">
	<rect id="play_fill" width="24.000000" height="24.000000" x="0.000000" y="0.000000" />
	<rect id="rect" width="24.000000" height="24.000000" x="0.000000" y="0.000000" opacity="0" fill="rgb(0,0,0)" />
	<g id="g">
		<path id="path" d="M19.5098 14.26C19.8964 14.0333 20.2164 13.7033 20.4698 13.27C20.7098 12.8566 20.8264 12.4166 20.8198 11.95C20.8131 11.49 20.6964 11.06 20.4698 10.66C20.2498 10.26 19.9298 9.93996 19.5098 9.69996L7.93977 3.04996C7.55977 2.82329 7.11977 2.70996 6.61977 2.70996C6.13977 2.70996 5.69977 2.82663 5.29977 3.05996C4.89977 3.29329 4.58643 3.60996 4.35977 4.00996C4.12643 4.40996 4.00977 4.84996 4.00977 5.32996L4.00977 18.6C4.00977 19.0933 4.11977 19.5333 4.33977 19.92C4.57977 20.3333 4.89977 20.6566 5.29977 20.89C5.69977 21.1233 6.13643 21.2433 6.60977 21.25C7.0831 21.2566 7.52643 21.14 7.93977 20.9L19.5098 14.26Z" fill="rgb(255,255,255)" fill-opacity="0.600000024" fill-rule="nonzero" />
	</g>
</svg>
