<svg viewBox="0 0 21.9805 18.04" xmlns="http://www.w3.org/2000/svg" xmlns:xlink="http://www.w3.org/1999/xlink" width="21.980469" height="18.040039" fill="none" customFrame="#000000">
	<g id="组合 4221">
		<path id="矢量 365" d="M6.62066 11.83C6.494 11.99 6.43066 12.17 6.43066 12.37C6.43066 12.57 6.51066 12.74 6.67066 12.88C6.79733 13.0133 6.95733 13.0833 7.15066 13.09C7.344 13.0966 7.52066 13.0366 7.68066 12.91C7.694 12.89 7.70066 12.88 7.70066 12.88C7.70066 12.88 7.71066 12.8733 7.73066 12.86C8.144 12.4133 8.63066 12.07 9.19066 11.83C9.75066 11.59 10.3507 11.47 10.9907 11.47C11.6173 11.47 12.2107 11.59 12.7707 11.83C13.3307 12.07 13.824 12.4133 14.2507 12.86C14.4107 13.02 14.584 13.1 14.7707 13.1C14.9573 13.1 15.1373 13.0266 15.3107 12.88C15.4573 12.7533 15.534 12.5866 15.5407 12.38C15.5473 12.1733 15.4773 11.99 15.3307 11.83C14.7573 11.2233 14.0973 10.76 13.3507 10.44C12.6107 10.12 11.824 9.95996 10.9907 9.95996C10.1573 9.95996 9.364 10.12 8.61066 10.44C7.864 10.76 7.20066 11.2233 6.62066 11.83ZM6.72066 17.06C6.72066 16.3266 6.91066 15.6533 7.29066 15.04C7.67733 14.4333 8.19733 13.95 8.85066 13.59C9.51066 13.23 10.224 13.05 10.9907 13.05C11.7573 13.05 12.4707 13.23 13.1307 13.59C13.784 13.95 14.304 14.4333 14.6907 15.04C15.0707 15.6533 15.2607 16.3266 15.2607 17.06C15.2607 17.2533 15.244 17.4066 15.2107 17.52C15.184 17.6266 15.104 17.7466 14.9707 17.88C14.8773 17.9866 14.7273 18.04 14.5207 18.04L7.49066 18.04C7.31066 18.04 7.164 17.9933 7.05066 17.9C6.83066 17.74 6.72066 17.4833 6.72066 17.13L6.72066 17.06Z" fill="rgb(0,0,0)" fill-opacity="0.90196079" fill-rule="nonzero" />
		<path id="矢量 366" d="M19.22 17.35C19.72 17.35 20.18 17.2267 20.6 16.98C21.0267 16.7267 21.3633 16.39 21.61 15.97C21.8567 15.5433 21.98 15.0833 21.98 14.59L21.98 2.73C21.98 2.23667 21.8567 1.78 21.61 1.36C21.3633 0.946667 21.0267 0.616667 20.6 0.37C20.18 0.123333 19.72 0 19.22 0L2.73 0C2.23667 0 1.78333 0.123333 1.37 0.37C0.95 0.616667 0.616667 0.946667 0.37 1.36C0.123333 1.78 0 2.23667 0 2.73L0 14.59C0 15.0833 0.123333 15.5433 0.37 15.97C0.616667 16.39 0.95 16.7267 1.37 16.98C1.78333 17.2267 2.23667 17.35 2.73 17.35L5.01 17.35C5.22333 17.35 5.4 17.2733 5.54 17.12C5.68667 16.9667 5.76 16.7867 5.76 16.58C5.76 16.3733 5.68667 16.1967 5.54 16.05C5.4 15.91 5.22333 15.84 5.01 15.84L2.73 15.84C2.38333 15.84 2.09 15.72 1.85 15.48C1.61 15.24 1.49 14.9433 1.49 14.59L1.49 2.73C1.49 2.39667 1.61 2.10667 1.85 1.86C2.09 1.60667 2.38333 1.48 2.73 1.48L19.22 1.48C19.5733 1.48 19.87 1.60667 20.11 1.86C20.35 2.10667 20.47 2.39667 20.47 2.73L20.47 14.59C20.47 14.9433 20.35 15.24 20.11 15.48C19.87 15.72 19.5733 15.84 19.22 15.84L17.01 15.84C16.8033 15.84 16.63 15.91 16.49 16.05C16.3433 16.1967 16.27 16.3733 16.27 16.58C16.27 16.7867 16.3433 16.9667 16.49 17.12C16.63 17.2733 16.8033 17.35 17.01 17.35L19.22 17.35Z" fill="rgb(0,0,0)" fill-opacity="0.90196079" fill-rule="nonzero" />
	</g>
</svg>
