<svg viewBox="0 0 64 64" xmlns="http://www.w3.org/2000/svg" xmlns:xlink="http://www.w3.org/1999/xlink" width="64.000000" height="64.000000" fill="none" clip-path="url(#clipPath_0)" customFrame="url(#clipPath_0)">
	<defs>
		<clipPath id="clipPath_0">
			<rect width="64.000000" height="64.000000" x="0.000000" y="0.000000" rx="12.000000" fill="rgb(255,255,255)" />
		</clipPath>
		<clipPath id="clipPath_1">
			<rect width="40.000000" height="40.000000" x="12.000000" y="12.000000" fill="rgb(255,255,255)" />
		</clipPath>
	</defs>
	<rect id="容器 104" width="64.000000" height="64.000000" x="0.000000" y="0.000000" rx="12.000000" fill="rgb(86,74,247)" />
	<g id="music_fill" clip-path="url(#clipPath_1)" customFrame="url(#clipPath_1)">
		<rect id="music_fill" width="40.000000" height="40.000000" x="12.000000" y="12.000000" />
		<rect id="矩形 3672" width="40.000000" height="40.000000" x="12.000000" y="12.000000" opacity="0" fill="rgb(0,0,0)" />
		<g id="组合 4222">
			<path id="矢量 367" d="M28.117 17.2002C27.1281 17.3557 26.317 17.8168 25.6837 18.5835C25.0392 19.3391 24.717 20.2224 24.717 21.2335L24.717 35.5168C24.717 36.2168 24.5726 36.8224 24.2837 37.3335C23.9837 37.8557 23.5837 38.3113 23.0837 38.7002C22.5726 39.0891 21.9448 39.4557 21.2003 39.8002L20.6003 40.0835L20.517 40.1168C19.717 40.4613 19.0781 40.828 18.6003 41.2168C18.1226 41.6057 17.667 42.228 17.2337 43.0835C16.8892 43.8279 16.7503 44.5891 16.817 45.3668C16.8837 46.1335 17.1448 46.8224 17.6003 47.4335C18.1114 48.1335 18.7781 48.6224 19.6003 48.9002C20.4226 49.1779 21.1948 49.2668 21.917 49.1668C23.1503 49.0335 24.1503 48.6502 24.917 48.0168C25.6948 47.3946 26.2614 46.6891 26.617 45.9002C26.9837 45.1113 27.1781 44.3724 27.2003 43.6835L27.2003 26.1168L44.6837 23.0002L44.6837 31.7668C44.6837 32.3224 44.5948 32.8391 44.417 33.3168C44.2503 33.7946 43.8837 34.2613 43.317 34.7168C42.7059 35.228 41.8392 35.7224 40.717 36.2002C39.817 36.6224 39.1003 37.0335 38.567 37.4335C38.0337 37.8335 37.567 38.4613 37.167 39.3168C36.8114 40.0613 36.667 40.8224 36.7337 41.6002C36.8003 42.3779 37.0614 43.0724 37.517 43.6835C37.9726 44.3168 38.5892 44.7891 39.367 45.1002C40.1337 45.4113 40.9559 45.5113 41.8337 45.4002C43.067 45.2446 44.067 44.8502 44.8337 44.2168C45.6114 43.5946 46.1781 42.8891 46.5337 42.1002C46.9003 41.3113 47.1114 40.5724 47.167 39.8835L47.167 19.0335C47.167 18.1891 46.9392 17.4113 46.4837 16.7002C46.0281 15.9891 45.4226 15.4668 44.667 15.1335C43.9003 14.8002 43.0892 14.7002 42.2337 14.8335L28.117 17.2002Z" fill="rgb(255,255,255)" fill-opacity="0.90196079" fill-rule="nonzero" />
		</g>
	</g>
</svg>
