<svg viewBox="0 0 48 48" xmlns="http://www.w3.org/2000/svg" xmlns:xlink="http://www.w3.org/1999/xlink" width="48.000000" height="48.000000" fill="none">
	<defs>
		<filter id="pixso_custom_mask_type_alpha">
			<feColorMatrix type="matrix" values="0 0 0 0 1 0 0 0 0 1 0 0 0 0 1 0 0 0 1 0 " />
		</filter>
		<linearGradient id="paint_linear_4" x1="24.0000782" x2="24.0000782" y1="0.5" y2="46.5914001" gradientUnits="userSpaceOnUse">
			<stop stop-color="rgb(243,157,236)" offset="0" stop-opacity="1" />
			<stop stop-color="rgb(212,29,188)" offset="1" stop-opacity="1" />
		</linearGradient>
		<linearGradient id="paint_linear_5" x1="30.6700783" x2="44.3300819" y1="3.93522716" y2="18.2459164" gradientUnits="userSpaceOnUse">
			<stop stop-color="rgb(255,255,255)" offset="0" stop-opacity="1" />
			<stop stop-color="rgb(255,255,255)" offset="1" stop-opacity="0.0549019985" />
			<stop stop-color="rgb(255,255,255)" offset="1" stop-opacity="0" />
		</linearGradient>
		<linearGradient id="paint_linear_6" x1="24" x2="24" y1="17.8108501" y2="38.8108521" gradientUnits="userSpaceOnUse">
			<stop stop-color="rgb(255,255,255)" offset="0" stop-opacity="0.800000012" />
			<stop stop-color="rgb(255,255,255)" offset="1" stop-opacity="0.501960993" />
		</linearGradient>
	</defs>
	<mask id="mask_2" width="48.000000" height="48.000000" x="0.000000" y="0.000000" maskUnits="userSpaceOnUse">
		<g filter="url(#pixso_custom_mask_type_alpha)">
			<g id="clip177_15096">
				<rect id="ic_public_pic_file_ textured-图片文件_质感" width="48.000000" height="48.000000" x="0.000000" y="0.000000" fill="rgb(0,0,0)" />
			</g>
		</g>
	</mask>
	<rect id="ic_public_pic_file_ textured" width="48.000000" height="48.000000" x="0.000000" y="0.000000" />
	<g id="clip path group" mask="url(#mask_2)">
		<g id="组合 4228">
			<path id="path3" d="M31.3002 0.5L11.1602 0.5C7.02016 0.5 3.66016 3.85 3.66016 8L3.66016 40C3.66016 44.14 7.02016 47.5 11.1602 47.5L36.8302 47.5C40.9702 47.5 44.3302 44.14 44.3302 40L44.3302 13.52C44.3302 12.99 44.1102 12.48 43.7402 12.11L32.7102 1.08C32.3402 0.71 31.8302 0.5 31.3002 0.5Z" fill="url(#paint_linear_4)" fill-rule="evenodd" />
			<path id="path3" />
			<g id="组合 4229" opacity="0.600000024">
				<path id="pah4" d="M31.3002 0.5L30.6602 0.5C31.4702 0.5 32.1202 1.15 32.1202 1.95L32.1202 8.7C32.1202 10.9 33.9202 12.7 36.1202 12.7L42.8702 12.7C43.6702 12.7 44.3302 13.35 44.3302 14.15L44.3302 13.52C44.3302 12.99 44.1102 12.48 43.7402 12.11L32.7102 1.08C32.3402 0.71 31.8302 0.5 31.3002 0.5Z" fill="url(#paint_linear_5)" fill-rule="evenodd" />
			</g>
			<path id="path5" d="M31.24 17.8996C31.49 17.9496 31.73 18.0296 31.97 18.1296C32.47 18.3396 32.91 18.6396 33.28 19.0196C33.48 19.2096 33.66 19.4296 33.81 19.6596C33.95 19.8696 34.07 20.0896 34.17 20.3296C34.27 20.5696 34.35 20.8096 34.4 21.0596C34.46 21.3496 34.5 21.6396 34.5 21.9396L34.5 34.6796C34.5 35.2396 34.39 35.7696 34.17 36.2796C33.96 36.7796 33.66 37.2096 33.28 37.5896C32.9 37.9696 32.46 38.2596 31.97 38.4696C31.46 38.6896 30.93 38.7996 30.38 38.8096L17.6 38.8096C17.25 38.7996 16.9 38.7596 16.57 38.6696C16.34 38.6096 16.13 38.5296 15.91 38.4396C15.67 38.3196 15.44 38.1896 15.22 38.0396C14.99 37.8696 14.77 37.6796 14.58 37.4596C14.23 37.0896 13.97 36.6696 13.78 36.1996C13.7 35.9796 13.63 35.7496 13.58 35.5196C13.52 35.2496 13.5 34.9596 13.5 34.6796L13.5 21.9396C13.5 21.6396 13.53 21.3496 13.59 21.0596C13.64 20.8096 13.72 20.5696 13.82 20.3296C13.92 20.0896 14.04 19.8696 14.18 19.6596C14.33 19.4296 14.51 19.2096 14.71 19.0196C14.9 18.8196 15.12 18.6396 15.34 18.4896C15.56 18.3496 15.78 18.2296 16.02 18.1296C16.26 18.0296 16.5 17.9496 16.75 17.8996C17.03 17.8396 17.33 17.8096 17.63 17.8096L30.36 17.8096C30.66 17.8096 30.96 17.8396 31.24 17.8996ZM19.9 22.4596C18.93 22.4596 18.15 23.2396 18.15 24.2096C18.15 25.1696 18.93 25.9596 19.9 25.9596C20.86 25.9596 21.65 25.1696 21.65 24.2096C21.65 23.2396 20.86 22.4596 19.9 22.4596ZM30.35 35.8096L18.45 35.8096L26.98 27.2696C27.14 27.1196 27.32 26.9996 27.52 26.9196C27.71 26.8396 27.91 26.7996 28.13 26.7996C28.34 26.7996 28.54 26.8396 28.74 26.9196C28.94 26.9996 29.12 27.1196 29.28 27.2696L31.5 29.4896L31.5 34.6796C31.5 34.7596 31.49 34.8396 31.47 34.9196C31.45 34.9796 31.43 35.0496 31.41 35.1096C31.35 35.2396 31.27 35.3596 31.16 35.4696C31.06 35.5696 30.93 35.6596 30.8 35.7096C30.65 35.7696 30.51 35.8096 30.35 35.8096Z" fill="url(#paint_linear_6)" fill-rule="evenodd" />
		</g>
	</g>
</svg>
