<svg viewBox="0 0 24 24" xmlns="http://www.w3.org/2000/svg" xmlns:xlink="http://www.w3.org/1999/xlink" width="24.000000" height="24.000000" fill="none">
	<defs>
		<filter id="pixso_custom_mask_type_luminance">
			<feColorMatrix type="matrix" values="1 0 0 0 0 0 1 0 0 0 0 0 1 0 0 0 0 0 1 0 " />
		</filter>
	</defs>
	<mask id="mask_0" width="24.000000" height="24.000000" x="0.000000" y="0.000000" maskUnits="userSpaceOnUse">
		<g filter="url(#pixso_custom_mask_type_luminance)">
			<g id="hms_mask_0">
				<rect id="矩形 3668" width="24.000000" height="24.000000" x="0.000000" y="0.000000" fill="rgb(255,255,255)" />
				<g id="组合 4217">
					<path id="矢量 357" d="M21.7197 13.1796C21.2264 12.6796 20.653 12.2996 19.9997 12.0396C19.353 11.773 18.6797 11.6396 17.9797 11.6396C17.273 11.6396 16.5997 11.773 15.9597 12.0396C15.3197 12.2996 14.743 12.6796 14.2297 13.1796C13.5564 13.8463 13.0997 14.6363 12.8597 15.5496C12.6197 16.463 12.6197 17.3763 12.8597 18.2896C13.0997 19.203 13.5564 20.003 14.2297 20.6896C14.743 21.183 15.3197 21.563 15.9597 21.8296C16.5997 22.0896 17.273 22.2196 17.9797 22.2196C18.6797 22.2196 19.353 22.0896 19.9997 21.8296C20.653 21.563 21.2264 21.183 21.7197 20.6896C22.4064 20.003 22.8697 19.203 23.1097 18.2896C23.3497 17.3763 23.3497 16.463 23.1097 15.5496C22.8697 14.6363 22.4064 13.8463 21.7197 13.1796Z" fill="rgb(0,0,0)" fill-rule="evenodd" />
				</g>
			</g>
		</g>
	</mask>
	<rect id="wifi_badge_minus" width="24.000000" height="24.000000" x="0.000000" y="0.000000" />
	<rect id="矩形 3667" width="24.000000" height="24.000000" x="0.000000" y="0.000000" opacity="0" fill="rgb(0,0,0)" />
	<g id="mask" mask="url(#mask_0)">
		<g id="组合 4216">
			<path id="矢量 353" d="M10.0996 18.3602C10.0996 18.8869 10.2896 19.3336 10.6696 19.7002C11.0429 20.0736 11.4863 20.2602 11.9996 20.2602C12.5129 20.2602 12.9563 20.0736 13.3296 19.7002C13.7096 19.3336 13.8996 18.8869 13.8996 18.3602C13.8996 17.8469 13.7096 17.4069 13.3296 17.0402C12.9563 16.6736 12.5129 16.4902 11.9996 16.4902C11.4863 16.4902 11.0429 16.6736 10.6696 17.0402C10.2896 17.4069 10.0996 17.8469 10.0996 18.3602Z" fill="rgb(232,64,38)" fill-rule="evenodd" />
			<path id="矢量 354" d="M7.0302 14.2997C6.91686 14.4597 6.87353 14.6297 6.9002 14.8097C6.92686 14.983 7.0102 15.133 7.1502 15.2597C7.3102 15.373 7.48686 15.423 7.6802 15.4097C7.87353 15.3897 8.03353 15.3097 8.1602 15.1697C8.62686 14.5897 9.19353 14.1397 9.8602 13.8197C10.5335 13.4997 11.2469 13.3397 12.0002 13.3397C12.7535 13.3397 13.4669 13.4997 14.1402 13.8197C14.8069 14.1397 15.3735 14.5897 15.8402 15.1697C15.9535 15.2964 16.1102 15.373 16.3102 15.3997C16.5102 15.4197 16.6802 15.373 16.8202 15.2597C16.9669 15.133 17.0469 14.973 17.0602 14.7797C17.0802 14.593 17.0335 14.4197 16.9202 14.2597C16.3135 13.5197 15.5769 12.9464 14.7102 12.5397C13.8502 12.133 12.9469 11.9297 12.0002 11.9297C11.0402 11.9297 10.1235 12.133 9.2502 12.5397C8.37686 12.9464 7.64686 13.5197 7.0602 14.2597L7.0302 14.2997Z" fill="rgb(232,64,38)" fill-rule="evenodd" />
			<path id="矢量 355" d="M19.5798 12.5501C19.7264 12.4368 19.8164 12.2868 19.8498 12.1001C19.8831 11.9068 19.8498 11.7368 19.7498 11.5901L19.6998 11.5401C18.7398 10.3735 17.5898 9.47012 16.2498 8.83012C14.9031 8.19012 13.4864 7.87012 11.9998 7.87012C10.4931 7.87012 9.06977 8.19012 7.72977 8.83012C6.38311 9.47012 5.23977 10.3735 4.29977 11.5401C4.18644 11.6868 4.13977 11.8601 4.15977 12.0601C4.18644 12.2601 4.27311 12.4235 4.41977 12.5501C4.57977 12.6635 4.74977 12.7068 4.92977 12.6801C5.11644 12.6601 5.27311 12.5768 5.39977 12.4301C6.19977 11.4368 7.17644 10.6701 8.32977 10.1301C9.48311 9.58345 10.7064 9.31012 11.9998 9.31012C13.2931 9.31012 14.5164 9.58345 15.6698 10.1301C16.8231 10.6701 17.7998 11.4368 18.5998 12.4301C18.7131 12.5901 18.8664 12.6835 19.0598 12.7101C19.2464 12.7301 19.4198 12.6768 19.5798 12.5501Z" fill="rgb(232,64,38)" fill-rule="evenodd" />
			<path id="矢量 356" d="M1.03031 9.22023C1.17698 9.3469 1.34698 9.41023 1.54031 9.41023C1.72698 9.41023 1.89365 9.3469 2.04031 9.22023C3.38698 7.9069 4.90698 6.8969 6.60031 6.19023C8.29365 5.49023 10.077 5.14023 11.9503 5.14023C13.857 5.14023 15.6703 5.49357 17.3903 6.20023C19.1103 6.91357 20.6336 7.94357 21.9603 9.29023C22.087 9.4169 22.2503 9.48023 22.4503 9.48023C22.6503 9.48023 22.8236 9.4169 22.9703 9.29023C23.097 9.14357 23.1603 8.97357 23.1603 8.78023C23.1603 8.59357 23.097 8.4269 22.9703 8.28023C21.497 6.8269 19.807 5.7069 17.9003 4.92023C16.0003 4.13357 14.017 3.74023 11.9503 3.74023C9.90365 3.74023 7.93698 4.1269 6.05031 4.90023C4.16365 5.6669 2.49031 6.77023 1.03031 8.21023C0.890312 8.35023 0.820312 8.5169 0.820312 8.71023C0.820312 8.90357 0.890312 9.07357 1.03031 9.22023Z" fill="rgb(232,64,38)" fill-rule="evenodd" />
		</g>
	</g>
	<g id="组合 4218">
		<path id="矢量 358" d="M17.9999 12.9404C17.4732 12.9404 16.9599 13.0404 16.4599 13.2404C15.9665 13.4404 15.5365 13.7304 15.1699 14.1104C14.6565 14.6104 14.3132 15.2038 14.1399 15.8904C13.9599 16.5771 13.9599 17.2638 14.1399 17.9504C14.3132 18.6371 14.6565 19.2371 15.1699 19.7504C15.5499 20.1371 15.9799 20.4304 16.4599 20.6304C16.9399 20.8304 17.4532 20.9304 17.9999 20.9304C18.5266 20.9304 19.0299 20.8304 19.5099 20.6304C19.9899 20.4304 20.4232 20.1371 20.8099 19.7504C21.3232 19.2371 21.6665 18.6371 21.8399 17.9504C22.0132 17.2638 22.0132 16.5804 21.8399 15.9004C21.6665 15.2204 21.3232 14.6238 20.8099 14.1104C20.4232 13.7304 19.9899 13.4404 19.5099 13.2404C19.0299 13.0404 18.5266 12.9404 17.9999 12.9404ZM16.0099 17.4204C15.8632 17.4204 15.7432 17.3738 15.6499 17.2804C15.5499 17.1871 15.4999 17.0671 15.4999 16.9204C15.4999 16.7938 15.5499 16.6804 15.6499 16.5804C15.7432 16.4871 15.8632 16.4404 16.0099 16.4404L19.9399 16.4404C20.0865 16.4404 20.2066 16.4871 20.2999 16.5804C20.3999 16.6804 20.4499 16.7938 20.4499 16.9204C20.4499 17.0671 20.3999 17.1871 20.2999 17.2804C20.2066 17.3738 20.0865 17.4204 19.9399 17.4204L16.0099 17.4204Z" fill="rgb(232,64,38)" fill-rule="nonzero" />
	</g>
</svg>
