<svg viewBox="0 0 24 24" xmlns="http://www.w3.org/2000/svg" xmlns:xlink="http://www.w3.org/1999/xlink" width="24.000000" height="24.000000" fill="none">
	<rect id="wifi" width="24.000000" height="24.000000" x="0.000000" y="0.000000" />
	<rect id="矩形 3669" width="24.000000" height="24.000000" x="0.000000" y="0.000000" opacity="0" fill="rgb(0,0,0)" />
	<g id="组合 4219">
		<path id="矢量 359" d="M1.03031 9.22023C1.17698 9.3469 1.34698 9.41023 1.54031 9.41023C1.72698 9.41023 1.89365 9.3469 2.04031 9.22023C3.38698 7.9069 4.90698 6.8969 6.60031 6.19023C8.29365 5.49023 10.077 5.14023 11.9503 5.14023C13.857 5.14023 15.6703 5.49357 17.3903 6.20023C19.1103 6.91357 20.6336 7.94357 21.9603 9.29023C22.087 9.4169 22.2503 9.48023 22.4503 9.48023C22.6503 9.48023 22.8236 9.4169 22.9703 9.29023C23.097 9.14357 23.1603 8.97357 23.1603 8.78023C23.1603 8.59357 23.097 8.4269 22.9703 8.28023C21.497 6.8269 19.807 5.7069 17.9003 4.92023C16.0003 4.13357 14.017 3.74023 11.9503 3.74023C9.90365 3.74023 7.93698 4.1269 6.05031 4.90023C4.16365 5.6669 2.49031 6.77023 1.03031 8.21023C0.890312 8.35023 0.820312 8.5169 0.820312 8.71023C0.820312 8.90357 0.890312 9.07357 1.03031 9.22023Z" fill="rgb(100,187,92)" fill-rule="nonzero" />
		<path id="矢量 360" d="M19.5798 12.5501C19.7264 12.4368 19.8164 12.2868 19.8498 12.1001C19.8831 11.9068 19.8498 11.7368 19.7498 11.5901L19.6998 11.5401C18.7398 10.3735 17.5898 9.47012 16.2498 8.83012C14.9031 8.19012 13.4864 7.87012 11.9998 7.87012C10.4931 7.87012 9.06977 8.19012 7.72977 8.83012C6.38311 9.47012 5.23977 10.3735 4.29977 11.5401C4.18644 11.6868 4.13977 11.8601 4.15977 12.0601C4.18644 12.2601 4.27311 12.4235 4.41977 12.5501C4.57977 12.6635 4.74977 12.7068 4.92977 12.6801C5.11644 12.6601 5.27311 12.5768 5.39977 12.4301C6.19977 11.4368 7.17644 10.6701 8.32977 10.1301C9.48311 9.58345 10.7064 9.31012 11.9998 9.31012C13.2931 9.31012 14.5164 9.58345 15.6698 10.1301C16.8231 10.6701 17.7998 11.4368 18.5998 12.4301C18.7131 12.5901 18.8664 12.6835 19.0598 12.7101C19.2464 12.7301 19.4198 12.6768 19.5798 12.5501Z" fill="rgb(100,187,92)" fill-rule="nonzero" />
		<path id="矢量 361" d="M7.0302 14.2997C6.91686 14.4597 6.87353 14.6297 6.9002 14.8097C6.92686 14.983 7.0102 15.133 7.1502 15.2597C7.3102 15.373 7.48686 15.423 7.6802 15.4097C7.87353 15.3897 8.03353 15.3097 8.1602 15.1697C8.62686 14.5897 9.19353 14.1397 9.8602 13.8197C10.5335 13.4997 11.2469 13.3397 12.0002 13.3397C12.7535 13.3397 13.4669 13.4997 14.1402 13.8197C14.8069 14.1397 15.3735 14.5897 15.8402 15.1697C15.9535 15.2964 16.1102 15.373 16.3102 15.3997C16.5102 15.4197 16.6802 15.373 16.8202 15.2597C16.9669 15.133 17.0469 14.973 17.0602 14.7797C17.0802 14.593 17.0335 14.4197 16.9202 14.2597C16.3135 13.5197 15.5769 12.9464 14.7102 12.5397C13.8502 12.133 12.9469 11.9297 12.0002 11.9297C11.0402 11.9297 10.1235 12.133 9.2502 12.5397C8.37686 12.9464 7.64686 13.5197 7.0602 14.2597L7.0302 14.2997Z" fill="rgb(100,187,92)" fill-rule="nonzero" />
		<path id="矢量 362" d="M10.0996 18.3602C10.0996 18.8869 10.2896 19.3336 10.6696 19.7002C11.0429 20.0736 11.4863 20.2602 11.9996 20.2602C12.5129 20.2602 12.9563 20.0736 13.3296 19.7002C13.7096 19.3336 13.8996 18.8869 13.8996 18.3602C13.8996 17.8469 13.7096 17.4069 13.3296 17.0402C12.9563 16.6736 12.5129 16.4902 11.9996 16.4902C11.4863 16.4902 11.0429 16.6736 10.6696 17.0402C10.2896 17.4069 10.0996 17.8469 10.0996 18.3602Z" fill="rgb(100,187,92)" fill-rule="nonzero" />
	</g>
</svg>
