<svg width="19.740234" height="20.000000" viewBox="0 0 19.7402 20" fill="none" xmlns="http://www.w3.org/2000/svg" xmlns:xlink="http://www.w3.org/1999/xlink">
	<desc>
		Created with Pixso.
	</desc>
	<defs/>
	<path id="path-1" d="M9.87 0C12.88 0 15.32 2.44 15.32 5.45C15.32 8.39 13 10.78 10.09 10.9L9.87 10.9C9 10.9 8.16 11.04 7.38 11.28L7.14 11.36C6.98 11.42 6.81 11.48 6.65 11.55C6.61 11.57 6.57 11.58 6.53 11.6L6.65 11.55C6.58 11.58 6.6 11.57 6.53 11.6C6.45 11.63 6.38 11.67 6.3 11.7L6.53 11.6C6.44 11.64 6.26 11.72 6.17 11.77L6.3 11.7C6.23 11.74 6.24 11.73 6.17 11.77C6.08 11.81 5.99 11.86 5.9 11.91L6.17 11.77C6.1 11.8 5.97 11.87 5.9 11.91C5.76 11.98 5.62 12.07 5.48 12.15C5.43 12.18 5.38 12.22 5.33 12.25C5.21 12.33 5.09 12.41 4.98 12.49C4.9 12.55 4.83 12.6 4.76 12.66L4.98 12.49C4.91 12.54 4.82 12.61 4.76 12.66C4.69 12.71 4.63 12.76 4.57 12.81L4.76 12.66C4.68 12.72 4.64 12.75 4.57 12.81C4.5 12.87 4.44 12.92 4.37 12.98L4.57 12.81C4.5 12.87 4.43 12.92 4.37 12.98C4.3 13.04 4.24 13.1 4.17 13.16L4.37 12.98C4.32 13.03 4.23 13.11 4.17 13.16C4.03 13.29 3.9 13.43 3.77 13.57C3.66 13.68 3.56 13.8 3.46 13.91C3.42 13.97 3.37 14.03 3.33 14.08L3.46 13.91C3.42 13.97 3.37 14.02 3.33 14.08C3.27 14.15 3.22 14.22 3.17 14.29L3.33 14.08C3.27 14.16 3.15 14.32 3.09 14.4L3.17 14.29C3.12 14.36 3.07 14.43 3.01 14.51L3.09 14.4C3.04 14.47 3.06 14.44 3.01 14.51C2.97 14.58 2.92 14.65 2.87 14.73L3.01 14.51C2.96 14.58 2.85 14.76 2.8 14.84L2.87 14.73C2.83 14.79 2.84 14.77 2.8 14.84C2.64 15.09 2.5 15.35 2.37 15.62C2.35 15.66 2.33 15.69 2.32 15.73L2.37 15.62C2.33 15.7 2.3 15.78 2.26 15.86L2.32 15.73C2.29 15.8 2.29 15.79 2.26 15.86C2.22 15.95 2.18 16.04 2.15 16.13L2.26 15.86C2.23 15.94 2.18 16.04 2.15 16.13C2.12 16.2 2.09 16.28 2.06 16.35L2.15 16.13C2.11 16.22 2.05 16.37 2.02 16.47L2.06 16.35C2.04 16.4 2.04 16.42 2.02 16.47C1.89 16.82 1.79 17.19 1.72 17.56C1.71 17.62 1.7 17.67 1.69 17.73L1.72 17.56C1.7 17.65 1.7 17.64 1.69 17.73C1.67 17.82 1.65 17.91 1.64 18L1.69 17.73C1.67 17.83 1.64 18.03 1.62 18.13L1.64 18C1.63 18.08 1.62 18.17 1.61 18.25L1.62 18.13C1.61 18.21 1.6 18.3 1.6 18.38L1.61 18.25C1.6 18.35 1.59 18.46 1.58 18.56L1.6 18.38C1.58 18.56 1.56 18.75 1.56 18.94C1.56 19.03 1.55 19.12 1.55 19.21L1.56 18.94C1.56 19.03 1.55 19.12 1.55 19.21C1.55 19.64 1.2 20 0.77 20C0.34 20 0 19.65 0 19.22C0 19.01 0 18.81 0.01 18.6C0.02 18.55 0.02 18.5 0.02 18.44C0.03 18.4 0.03 18.36 0.04 18.31C0.04 18.27 0.04 18.22 0.05 18.17C0.06 18.11 0.06 18.06 0.07 18C0.07 17.97 0.08 17.93 0.08 17.89C0.12 17.6 0.17 17.31 0.24 17.03C0.27 16.9 0.31 16.74 0.34 16.61C0.36 16.54 0.38 16.48 0.4 16.41C0.42 16.35 0.46 16.22 0.48 16.15C0.49 16.11 0.51 16.07 0.52 16.04C0.53 15.99 0.55 15.94 0.57 15.89C0.58 15.85 0.6 15.81 0.61 15.77C0.68 15.59 0.75 15.42 0.82 15.25C0.92 15.03 1.03 14.81 1.14 14.6C1.16 14.55 1.19 14.5 1.22 14.45C1.24 14.41 1.31 14.29 1.34 14.24C1.36 14.2 1.39 14.15 1.42 14.1C1.47 14.03 1.58 13.86 1.63 13.78C1.71 13.66 1.79 13.54 1.87 13.42C1.97 13.3 2.13 13.08 2.23 12.96C2.27 12.91 2.38 12.78 2.42 12.74C2.47 12.68 2.6 12.54 2.65 12.48C2.84 12.27 3.06 12.06 3.27 11.87C3.32 11.82 3.38 11.78 3.43 11.73C3.48 11.69 3.59 11.6 3.64 11.55C3.67 11.53 3.78 11.45 3.81 11.42C3.87 11.38 3.93 11.33 3.99 11.28C4.04 11.24 4.14 11.17 4.19 11.14C4.27 11.08 4.43 10.97 4.51 10.92C4.55 10.89 4.6 10.87 4.64 10.84C4.68 10.82 4.72 10.79 4.76 10.77C4.82 10.73 4.95 10.65 5.02 10.62C5.09 10.58 5.2 10.52 5.27 10.48C5.31 10.46 5.45 10.39 5.5 10.36C5.85 10.19 6.3 10 6.67 9.87C5.3 8.88 4.41 7.27 4.41 5.45C4.41 2.44 6.85 0 9.87 0ZM14.15 10.33C17.46 11.92 19.74 15.3 19.74 19.22C19.74 19.65 19.39 20 18.96 20C18.53 20 18.18 19.65 18.18 19.22C18.18 15.57 15.83 12.48 12.57 11.35C13.15 11.09 13.68 10.74 14.15 10.33ZM9.87 1.55C7.71 1.55 5.97 3.3 5.97 5.45C5.97 7.6 7.71 9.35 9.87 9.35C12.02 9.35 13.76 7.6 13.76 5.45C13.76 3.3 12.02 1.55 9.87 1.55Z" fill="#000000" fill-opacity="0.600000" fill-rule="nonzero"/>
	<path id="path-1" d="M1.69 17.73C1.67 17.83 1.64 18.03 1.62 18.13C1.61 18.21 1.6 18.3 1.6 18.38C1.58 18.56 1.56 18.75 1.56 18.94C1.56 19.03 1.55 19.12 1.55 19.21C1.55 19.64 1.2 20 0.77 20C0.34 20 0 19.65 0 19.22C0 19.01 0 18.81 0.01 18.6C0.02 18.55 0.02 18.5 0.02 18.44C0.03 18.4 0.03 18.36 0.04 18.31C0.04 18.27 0.04 18.22 0.05 18.17C0.06 18.11 0.06 18.06 0.07 18C0.07 17.97 0.08 17.93 0.08 17.89C0.12 17.6 0.17 17.31 0.24 17.03C0.27 16.9 0.31 16.74 0.34 16.61C0.36 16.54 0.38 16.48 0.4 16.41C0.42 16.35 0.46 16.22 0.48 16.15C0.49 16.11 0.51 16.07 0.52 16.04C0.53 15.99 0.55 15.94 0.57 15.89C0.58 15.85 0.6 15.81 0.61 15.77C0.68 15.59 0.75 15.42 0.82 15.25C0.92 15.03 1.03 14.81 1.14 14.6C1.16 14.55 1.19 14.5 1.22 14.45C1.24 14.41 1.31 14.29 1.34 14.24C1.36 14.2 1.39 14.15 1.42 14.1C1.47 14.03 1.58 13.86 1.63 13.78C1.71 13.66 1.79 13.54 1.87 13.42C1.97 13.3 2.13 13.08 2.23 12.96C2.27 12.91 2.38 12.78 2.42 12.74C2.47 12.68 2.6 12.54 2.65 12.48C2.84 12.27 3.06 12.06 3.27 11.87C3.32 11.82 3.38 11.78 3.43 11.73C3.48 11.69 3.59 11.6 3.64 11.55C3.67 11.53 3.78 11.45 3.81 11.42C3.87 11.38 3.93 11.33 3.99 11.28C4.04 11.24 4.14 11.17 4.19 11.14C4.27 11.08 4.43 10.97 4.51 10.92C4.55 10.89 4.6 10.87 4.64 10.84C4.68 10.82 4.72 10.79 4.76 10.77C4.82 10.73 4.95 10.65 5.02 10.62C5.09 10.58 5.2 10.52 5.27 10.48C5.31 10.46 5.45 10.39 5.5 10.36C5.85 10.19 6.3 10 6.67 9.87C5.3 8.88 4.41 7.27 4.41 5.45C4.41 2.44 6.85 0 9.87 0C12.88 0 15.32 2.44 15.32 5.45C15.32 8.39 13 10.78 10.09 10.9L9.87 10.9C9 10.9 8.16 11.04 7.38 11.28L7.14 11.36C6.98 11.42 6.81 11.48 6.65 11.55C6.58 11.58 6.6 11.57 6.53 11.6C6.44 11.64 6.26 11.72 6.17 11.77M6.65 11.55C6.61 11.57 6.57 11.58 6.53 11.6M6.53 11.6L6.65 11.55M6.53 11.6C6.45 11.63 6.38 11.67 6.3 11.7C6.23 11.74 6.24 11.73 6.17 11.77C6.1 11.8 5.97 11.87 5.9 11.91M6.3 11.7L6.53 11.6M6.17 11.77L6.3 11.7M6.17 11.77C6.08 11.81 5.99 11.86 5.9 11.91C5.76 11.98 5.62 12.07 5.48 12.15C5.43 12.18 5.38 12.22 5.33 12.25C5.21 12.33 5.09 12.41 4.98 12.49C4.9 12.55 4.83 12.6 4.76 12.66M5.9 11.91L6.17 11.77M4.76 12.66L4.98 12.49M4.98 12.49C4.91 12.54 4.82 12.61 4.76 12.66C4.68 12.72 4.64 12.75 4.57 12.81M4.76 12.66C4.69 12.71 4.63 12.76 4.57 12.81C4.5 12.87 4.44 12.92 4.37 12.98M4.57 12.81L4.76 12.66M4.37 12.98L4.57 12.81M4.57 12.81C4.5 12.87 4.43 12.92 4.37 12.98C4.32 13.03 4.23 13.11 4.17 13.16M4.37 12.98C4.3 13.04 4.24 13.1 4.17 13.16C4.03 13.29 3.9 13.43 3.77 13.57C3.66 13.68 3.56 13.8 3.46 13.91C3.42 13.97 3.37 14.03 3.33 14.08C3.27 14.15 3.22 14.22 3.17 14.29C3.12 14.36 3.07 14.43 3.01 14.51C2.97 14.58 2.92 14.65 2.87 14.73C2.83 14.79 2.84 14.77 2.8 14.84M4.17 13.16L4.37 12.98M3.33 14.08L3.46 13.91M3.46 13.91C3.42 13.97 3.37 14.02 3.33 14.08M3.17 14.29L3.33 14.08M3.33 14.08C3.27 14.16 3.15 14.32 3.09 14.4C3.04 14.47 3.06 14.44 3.01 14.51M3.09 14.4L3.17 14.29M3.01 14.51L3.09 14.4M2.87 14.73L3.01 14.51M3.01 14.51C2.96 14.58 2.85 14.76 2.8 14.84C2.64 15.09 2.5 15.35 2.37 15.62C2.33 15.7 2.3 15.78 2.26 15.86M2.8 14.84L2.87 14.73M2.37 15.62C2.35 15.66 2.33 15.69 2.32 15.73C2.29 15.8 2.29 15.79 2.26 15.86C2.23 15.94 2.18 16.04 2.15 16.13C2.11 16.22 2.05 16.37 2.02 16.47C1.89 16.82 1.79 17.19 1.72 17.56C1.7 17.65 1.7 17.64 1.69 17.73M2.32 15.73L2.37 15.62M2.26 15.86L2.32 15.73M2.26 15.86C2.22 15.95 2.18 16.04 2.15 16.13M2.15 16.13L2.26 15.86M2.15 16.13C2.12 16.2 2.09 16.28 2.06 16.35C2.04 16.4 2.04 16.42 2.02 16.47M2.06 16.35L2.15 16.13M2.02 16.47L2.06 16.35M1.72 17.56C1.71 17.62 1.7 17.67 1.69 17.73C1.67 17.82 1.65 17.91 1.64 18C1.63 18.08 1.62 18.17 1.61 18.25C1.6 18.35 1.59 18.46 1.58 18.56L1.6 18.38M1.69 17.73L1.72 17.56M1.64 18L1.69 17.73M1.62 18.13L1.64 18M1.61 18.25L1.62 18.13M1.6 18.38L1.61 18.25M1.56 18.94C1.56 19.03 1.55 19.12 1.55 19.21M1.55 19.21L1.56 18.94M19.74 19.22C19.74 19.65 19.39 20 18.96 20C18.53 20 18.18 19.65 18.18 19.22C18.18 15.57 15.83 12.48 12.57 11.35C13.15 11.09 13.68 10.74 14.15 10.33C17.46 11.92 19.74 15.3 19.74 19.22ZM5.97 5.45C5.97 7.6 7.71 9.35 9.87 9.35C12.02 9.35 13.76 7.6 13.76 5.45C13.76 3.3 12.02 1.55 9.87 1.55C7.71 1.55 5.97 3.3 5.97 5.45Z" stroke="#000000" stroke-opacity="0" stroke-width="1.000000"/>
</svg>
