<svg width="18.892899" height="21.500000" viewBox="0 0 18.8929 21.5" fill="none" xmlns="http://www.w3.org/2000/svg" xmlns:xlink="http://www.w3.org/1999/xlink">
	<desc>
		Created with Pixso.
	</desc>
	<defs/>
	<path id="path-1" d="M0.51 17.27C1.16 15.95 2.85 12 9.45 12C16.05 12 17.77 15.95 18.39 17.27C18.63 17.77 18.79 18.45 18.88 19.29C18.99 20.39 18.19 21.37 17.1 21.48C17.03 21.49 16.96 21.5 16.89 21.5L2 21.5C0.89 21.5 0 20.6 0 19.5C0 19.43 0 19.36 0.01 19.29C0.09 18.45 0.26 17.78 0.51 17.27Z" fill="#64BB5C" fill-opacity="1.000000" fill-rule="nonzero"/>
	<path id="path-1" d="M9.45 12C16.05 12 17.77 15.95 18.39 17.27C18.63 17.77 18.79 18.45 18.88 19.29C18.99 20.39 18.19 21.37 17.1 21.48C17.03 21.49 16.96 21.5 16.89 21.5L2 21.5C0.89 21.5 0 20.6 0 19.5C0 19.43 0 19.36 0.01 19.29C0.09 18.45 0.26 17.78 0.51 17.27C1.16 15.95 2.85 12 9.45 12Z" stroke="#000000" stroke-opacity="0" stroke-width="1.000000"/>
	<path id="path-1" d="M9 0C6.23 0 4 2.23 4 5C4 7.76 6.23 10 9 10C11.76 10 14 7.76 14 5C14 2.23 11.76 0 9 0Z" fill="#A5D61D" fill-opacity="1.000000" fill-rule="evenodd"/>
	<path id="path-1" d="M4 5C4 7.76 6.23 10 9 10C11.76 10 14 7.76 14 5C14 2.23 11.76 0 9 0C6.23 0 4 2.23 4 5Z" stroke="#000000" stroke-opacity="0" stroke-width="1.000000"/>
</svg>
