<svg width="20.399994" height="21.600006" viewBox="0 0 20.4 21.6" fill="none" xmlns="http://www.w3.org/2000/svg" xmlns:xlink="http://www.w3.org/1999/xlink">
	<desc>
		Created with Pixso.
	</desc>
	<defs/>
	<path id="path" d="M15.6 9C15.6 8.69 15.3 8.39 15 8.39L4.19 8.39C3.89 8.39 3.59 8.69 3.59 9C3.59 9.29 3.89 9.59 4.19 9.59L15 9.59C15.3 9.59 15.6 9.29 15.6 9ZM7.73 12L4.31 12C3.95 12 3.65 12.24 3.65 12.6C3.65 12.9 3.95 13.2 4.31 13.2L7.73 13.2C8.09 13.2 8.39 12.9 8.39 12.6C8.39 12.24 8.09 12 7.73 12ZM7.73 15.6L4.31 15.6C3.95 15.6 3.65 15.84 3.65 16.2C3.65 16.5 3.95 16.79 4.31 16.79L7.73 16.79C8.09 16.79 8.39 16.5 8.39 16.2C8.39 15.84 8.09 15.6 7.73 15.6ZM15 4.79L4.19 4.79C3.89 4.79 3.59 5.09 3.59 5.39C3.59 5.69 3.89 6 4.19 6L15 6C15.3 6 15.6 5.69 15.6 5.39C15.6 5.09 15.3 4.79 15 4.79Z" fill="#000000" fill-opacity="0.600000" fill-rule="nonzero"/>
	<path id="path" d="M9.6 20.4L1.2 20.4L1.2 1.2L18 1.2L18 10.2C18 10.56 18.24 10.8 18.6 10.8C18.95 10.8 19.2 10.56 19.2 10.2L19.2 0.6C19.2 0.29 18.9 0 18.6 0L0.6 0C0.3 0 0 0.29 0 0.6L0 21C0 21.3 0.3 21.6 0.6 21.6L9.6 21.6C9.95 21.6 10.2 21.36 10.2 21C10.2 20.64 9.95 20.4 9.6 20.4Z" fill="#000000" fill-opacity="0.600000" fill-rule="nonzero"/>
	<path id="path" d="M15.6 12C12.96 12 10.8 14.16 10.8 16.79C10.8 19.44 12.96 21.6 15.6 21.6C18.24 21.6 20.4 19.44 20.4 16.79C20.4 14.16 18.24 12 15.6 12ZM15.6 20.4C13.62 20.4 12 18.78 12 16.79C12 14.82 13.62 13.2 15.6 13.2C17.58 13.2 19.2 14.82 19.2 16.79C19.2 18.78 17.58 20.4 15.6 20.4Z" fill="#000000" fill-opacity="0.600000" fill-rule="nonzero"/>
</svg>
