<svg width="18.982056" height="21.328125" viewBox="0 0 18.9821 21.3281" fill="none" xmlns="http://www.w3.org/2000/svg" xmlns:xlink="http://www.w3.org/1999/xlink">
	<desc>
		Created with Pixso.
	</desc>
	<defs/>
	<path id="path" d="M15 12.64C15.94 12.64 16.88 12.95 17.61 13.48L17.71 13.48L17.71 1.05C17.71 0.42 17.3 0 16.67 0L1.04 0C0.41 0 0 0.42 0 1.05L0 18.96C0 19.59 0.41 20.01 1.04 20.01L11.15 20.01C10.63 19.27 10.31 18.33 10.31 17.38C10.31 14.74 12.4 12.64 15 12.64ZM3.41 4.26L14.24 4.26C14.25 4.26 14.25 4.26 14.26 4.26C14.27 4.26 14.29 4.26 14.3 4.26C14.67 4.26 14.97 4.56 14.97 4.93C14.97 5.3 14.67 5.6 14.3 5.6C14.29 5.6 14.27 5.6 14.26 5.59C14.25 5.59 14.25 5.6 14.24 5.6L3.41 5.6C3.04 5.6 2.74 5.3 2.74 4.93C2.74 4.56 3.04 4.26 3.41 4.26ZM3.41 9.18L14.24 9.18C14.25 9.18 14.25 9.18 14.26 9.18C14.27 9.18 14.29 9.18 14.3 9.18C14.67 9.18 14.97 9.48 14.97 9.85C14.97 10.22 14.67 10.52 14.3 10.52C14.29 10.52 14.27 10.52 14.26 10.52C14.25 10.52 14.25 10.52 14.24 10.52L3.41 10.52C3.04 10.52 2.74 10.22 2.74 9.85C2.74 9.48 3.04 9.18 3.41 9.18ZM8.16 15.97C8.15 15.97 8.13 15.97 8.12 15.96C8.11 15.96 8.11 15.97 8.1 15.97L3.26 15.97C2.89 15.97 2.59 15.67 2.59 15.3C2.59 14.93 2.89 14.63 3.26 14.63L8.1 14.63C8.11 14.63 8.11 14.63 8.12 14.63C8.13 14.63 8.15 14.63 8.16 14.63C8.53 14.63 8.83 14.93 8.83 15.3C8.83 15.67 8.53 15.97 8.16 15.97Z" fill="#64BB5C" fill-opacity="1.000000" fill-rule="nonzero"/>
	<path id="path" d="M15.2 13.78C13.16 13.78 11.43 15.5 11.43 17.55C11.43 19.6 13.16 21.32 15.2 21.32C17.25 21.32 18.98 19.6 18.98 17.55C18.98 15.5 17.25 13.78 15.2 13.78ZM17.36 18.09L15.2 18.09C14.99 18.09 14.77 18.09 14.77 17.98C14.77 17.87 14.66 17.66 14.66 17.55L14.66 15.39C14.66 15.07 14.88 14.85 15.2 14.85C15.53 14.85 15.74 15.07 15.74 15.39L15.74 17.01L17.36 17.01C17.68 17.01 17.9 17.23 17.9 17.55C17.9 17.87 17.68 18.09 17.36 18.09Z" fill="#A5D61D" fill-opacity="1.000000" fill-rule="nonzero"/>
</svg>
