<svg width="16.000000" height="16.000000" viewBox="0 0 16 16" fill="none" xmlns="http://www.w3.org/2000/svg" xmlns:xlink="http://www.w3.org/1999/xlink">
	<desc>
			Created with Pixso.
	</desc>
	<defs>
		<clipPath id="clip18_3565">
			<rect width="16.000000" height="16.000000" fill="white" fill-opacity="0"/>
		</clipPath>
	</defs>
	<g clip-path="url(#clip18_3565)">
		<path d="M9.99 7.5L5.35 2.86C5.26 2.75 5.21 2.64 5.21 2.5C5.21 2.37 5.26 2.25 5.35 2.14C5.45 2.04 5.56 2 5.7 2C5.84 2 5.96 2.04 6.06 2.14L10.71 6.8C10.9 6.99 11 7.23 11 7.5C11 7.78 10.9 8.01 10.71 8.21L6.07 12.83C5.98 12.93 5.87 12.98 5.73 12.98C5.58 12.98 5.46 12.93 5.37 12.83C5.27 12.74 5.22 12.62 5.22 12.48C5.22 12.34 5.27 12.22 5.37 12.13L9.99 7.5Z" fill="#000000" fill-opacity="0.600000" fill-rule="nonzero"/>
	</g>
</svg>
