<svg width="8.689453" height="16.458984" viewBox="0 0 8.68945 16.459" fill="none" xmlns="http://www.w3.org/2000/svg" xmlns:xlink="http://www.w3.org/1999/xlink">
	<desc>
			Created with Pixso.
	</desc>
	<defs/>
	<path id="󰣒" d="M8.47 1.29L1.51 8.25L8.44 15.18Q8.54 15.28 8.59 15.4Q8.66 15.54 8.66 15.72Q8.66 15.88 8.6 16.02Q8.54 16.14 8.44 16.24Q8.35 16.33 8.25 16.38Q8.09 16.45 7.91 16.45Q7.69 16.45 7.54 16.36Q7.46 16.31 7.39 16.24L0.43 9.31Q0.22 9.1 0.11 8.85Q0 8.57 0 8.25Q0 7.91 0.12 7.63Q0.23 7.39 0.43 7.19L7.41 0.21Q7.51 0.11 7.63 0.06Q7.77 0 7.94 0Q8.11 0 8.25 0.06Q8.37 0.11 8.47 0.21Q8.6 0.35 8.65 0.53Q8.68 0.63 8.68 0.75Q8.68 0.85 8.66 0.95Q8.61 1.13 8.47 1.29Z" fill="#000000" fill-opacity="0.898039" fill-rule="evenodd"/>
</svg>
