<?xml version="1.0" encoding="UTF-8"?>
<svg width="20px" height="20px" viewBox="0 0 20 20" version="1.1" xmlns="http://www.w3.org/2000/svg"
     xmlns:xlink="http://www.w3.org/1999/xlink">
    <title>编组 2</title>
    <defs>
        <path d="M12.8791681,12.1003973 L15.6777184,14.8980016 C15.9217961,15.1420793 15.9217961,15.5378074 15.6777184,15.7818851 C15.4336407,16.0259628 15.0379126,16.0259628 14.7938349,15.7818851 L11.9880794,12.974908 C12.3078326,12.7074957 12.6058721,12.4149822 12.8791681,12.1003973 Z M11.9141827,11.9141827 L11.8786726,11.9494407 C11.8619711,11.965906 11.8451869,11.9822877 11.8283208,11.9985851 C11.7762957,12.0488528 11.7236741,12.098153 11.6702982,12.1466375 C11.6521615,12.1631115 11.6340547,12.1793872 11.6158627,12.1955692 C11.5474035,12.2564662 11.4776543,12.3161042 11.406736,12.3743712 C11.403334,12.3771667 11.3996055,12.380224 11.3958738,12.3832775 L11.2439274,12.5041363 C10.0645367,13.4158543 8.58520305,13.9583333 6.97916667,13.9583333 C3.12467935,13.9583333 0,10.833654 0,6.97916667 C0,3.12467935 3.12467935,0 6.97916667,0 C10.833654,0 13.9583333,3.12467935 13.9583333,6.97916667 C13.9583333,8.7080176 13.3297146,10.2900468 12.2885773,11.509154 L12.2577357,11.5450222 C12.2282863,11.5790386 12.1985136,11.6127674 12.1684224,11.6462038 L12.0802197,11.7423988 L12.0695243,11.7538224 C12.0185947,11.8080979 11.9668069,11.8615585 11.9141827,11.9141827 Z M6.97916667,1.25 C3.81503529,1.25 1.25,3.81503529 1.25,6.97916667 C1.25,10.143298 3.81503529,12.7083333 6.97916667,12.7083333 C10.143298,12.7083333 12.7083333,10.143298 12.7083333,6.97916667 C12.7083333,3.81503529 10.143298,1.25 6.97916667,1.25 Z"
              id="path-1"></path>
    </defs>
    <g id="页面-1" stroke="none" stroke-width="1" fill="none" fill-rule="evenodd">
        <g id="搜索_关联" transform="translate(-16, -120)">
            <g id="编组-4" transform="translate(16, 108)">
                <g id="编组-2" transform="translate(0, 12)">
                    <rect id="矩形" x="0" y="0" width="20" height="20"></rect>
                    <g id="编组" transform="translate(1.6667, 1.6667)">
                        <mask id="mask-2" fill="white">
                            <use xlink:href="#path-1"></use>
                        </mask>
                        <g id="形状结合" fill-rule="nonzero"></g>
                        <g id="Public/Icon/Symbol/Color/Light/Primary" mask="url(#mask-2)" fill="#000000"
                           fill-opacity="0.901960784">
                            <g transform="translate(-1.6667, -1.6667)" id="矩形">
                                <rect x="0" y="0" width="24" height="24"></rect>
                            </g>
                        </g>
                    </g>
                </g>
            </g>
        </g>
    </g>
</svg>