<?xml version="1.0" standalone="no"?>
<svg xmlns="http://www.w3.org/2000/svg" width="48" height="48"><rect width="48" height="48" opacity="0"></rect><g><path d="M35.52 9.5Q34.03 9.5 33.02 10.51Q32.02 11.52 32.02 13.01Q32.02 14.45 33.02 15.48Q34.03 16.51 35.52 16.51Q36.96 16.51 37.99 15.48Q39.02 14.45 39.02 13.01Q39.02 11.52 37.99 10.51Q36.96 9.5 35.52 9.5ZM12.48 9.5Q11.04 9.5 10.03 10.51Q9.02 11.52 9.02 13.01Q9.02 14.45 10.03 15.48Q11.04 16.51 12.48 16.51Q13.92 16.51 14.95 15.48Q15.98 14.45 15.98 13.01Q15.98 11.52 14.95 10.51Q13.92 9.5 12.48 9.5ZM35.52 31.49Q34.03 31.49 33.02 32.52Q32.02 33.55 32.02 34.99Q32.02 36.43 33.02 37.46Q34.03 38.5 35.52 38.5Q36.96 38.5 37.99 37.46Q39.02 36.43 39.02 34.99Q39.02 33.55 37.99 32.52Q36.96 31.49 35.52 31.49ZM12.48 31.49Q11.04 31.49 10.03 32.52Q9.02 33.55 9.02 34.99Q9.02 36.43 10.03 37.46Q11.04 38.5 12.48 38.5Q13.92 38.5 14.95 37.46Q15.98 36.43 15.98 34.99Q15.98 33.55 14.95 32.52Q13.92 31.49 12.48 31.49Z" fill="rgba(255,255,255,1)"></path></g></svg>