<?xml version="1.0" encoding="UTF-8"?>
<svg width="24px" height="24px" viewBox="0 0 24 24" version="1.1" xmlns="http://www.w3.org/2000/svg"
     xmlns:xlink="http://www.w3.org/1999/xlink">
    <title>icon_听_multiple_w</title>
    <defs>
        <path d="M0,0 L24,0 L24,24 L0,24 L0,0 Z" id="path-1"></path>
        <rect id="path-2" x="0" y="0" width="24" height="24"></rect>
        <path d="M20.96,19.39 C20.96,20.45 20.1,21.32 19.03,21.32 C17.96,21.32 17.1,20.45 17.1,19.39 L17.1,16.44 C17.1,15.37 17.96,14.51 19.03,14.51 C19.57,14.51 20.05,14.73 20.4,15.07 C20.75,15.42 20.96,15.91 20.96,16.44 L20.96,19.39 Z M3.04,16.44 C3.04,15.37 3.9,14.51 4.97,14.51 C5.51,14.51 5.99,14.73 6.34,15.07 C6.69,15.42 6.9,15.91 6.9,16.44 L6.9,19.39 C6.9,20.45 6.04,21.32 4.97,21.32 C3.9,21.32 3.04,20.45 3.04,19.39 L3.04,16.44 Z M21.13,6.34 C20.18,4.72 18.89,3.44 17.28,2.5 C15.67,1.55 13.91,1.08 12,1.08 C10.09,1.08 8.33,1.55 6.71,2.5 C5.08,3.44 3.8,4.72 2.86,6.34 C1.91,7.95 1.44,9.71 1.44,11.62 L1.44,19.42 C1.44,20.06 1.6,20.64 1.92,21.18 C2.24,21.71 2.67,22.13 3.2,22.45 C3.74,22.76 4.33,22.92 4.97,22.92 C5.61,22.92 6.2,22.76 6.73,22.45 C7.27,22.13 7.7,21.71 8.02,21.18 C8.34,20.64 8.5,20.06 8.5,19.42 L8.5,16.44 C8.5,15.8 8.34,15.21 8.02,14.68 C7.7,14.14 7.27,13.71 6.73,13.39 C6.2,13.07 5.61,12.91 4.97,12.91 C4.23,12.91 3.56,13.12 2.95,13.56 L2.95,11.62 C2.95,9.98 3.36,8.47 4.18,7.09 C4.99,5.71 6.09,4.61 7.48,3.79 C8.86,2.97 10.37,2.57 12,2.57 C13.63,2.57 15.14,2.97 16.52,3.79 C17.91,4.61 19.01,5.71 19.82,7.09 C20.64,8.47 21.05,9.98 21.05,11.62 L21.05,13.56 C20.44,13.12 19.77,12.91 19.03,12.91 C18.39,12.91 17.8,13.07 17.27,13.39 C16.73,13.71 16.3,14.14 15.98,14.68 C15.66,15.21 15.5,15.8 15.5,16.44 L15.5,19.42 C15.5,20.06 15.66,20.64 15.98,21.18 C16.3,21.71 16.73,22.13 17.27,22.45 C17.8,22.76 18.39,22.92 19.03,22.92 C19.67,22.92 20.26,22.76 20.8,22.45 C21.33,22.13 21.76,21.71 22.08,21.18 C22.4,20.64 22.56,20.06 22.56,19.42 L22.56,11.62 C22.56,9.71 22.08,7.95 21.13,6.34 L21.13,6.34 Z"
              id="path-4"></path>
    </defs>
    <g id="icon_听_multiple_w" stroke="none" fill="none" xlink:href="#path-1">
        <mask id="mask-3" fill="white">
            <use xlink:href="#path-2"></use>
        </mask>
        <g id="icon_speed_multiple_w"></g>
        <g id="Fill-1" mask="url(#mask-3)" fill-rule="evenodd">
            <use fill-opacity="0.901960784" fill="#000000" xlink:href="#path-4"></use>
            <use fill="#FFFFFF" xlink:href="#path-4"></use>
        </g>
    </g>
</svg>