<?xml version="1.0" standalone="no"?>
<svg xmlns="http://www.w3.org/2000/svg" width="48" height="48"><rect width="48" height="48" opacity="0"></rect><g><path d="M24 2.16Q18.29 2.16 13.42 4.99Q8.54 7.82 5.71 12.67Q2.88 17.52 2.88 23.23L2.88 38.83Q2.88 40.75 3.84 42.36Q4.8 43.97 6.41 44.9Q8.02 45.84 9.94 45.84Q11.86 45.84 13.46 44.9Q15.07 43.97 16.03 42.36Q16.99 40.75 16.99 38.83L16.99 32.88Q16.99 30.96 16.03 29.35Q15.07 27.74 13.46 26.78Q11.86 25.82 9.94 25.82Q7.73 25.82 5.9 27.12L5.9 23.23Q5.9 18.34 8.35 14.18Q10.8 10.03 14.95 7.58Q19.1 5.14 24 5.14Q28.9 5.14 33.05 7.58Q37.2 10.03 39.65 14.18Q42.1 18.34 42.1 23.23L42.1 27.12Q40.27 25.82 38.06 25.82Q36.14 25.82 34.54 26.78Q32.93 27.74 31.97 29.35Q31.01 30.96 31.01 32.88L31.01 38.83Q31.01 40.75 31.97 42.36Q32.93 43.97 34.54 44.9Q36.14 45.84 38.06 45.84Q39.98 45.84 41.59 44.9Q43.2 43.97 44.16 42.36Q45.12 40.75 45.12 38.83L45.12 23.23Q45.12 17.52 42.26 12.67Q39.41 7.82 34.56 4.99Q29.71 2.16 24 2.16Z" fill="rgba(253,96,62,1)"></path></g></svg>