<svg width="24.000000" height="24.000000" viewBox="0 0 24 24" fill="none" xmlns="http://www.w3.org/2000/svg" xmlns:xlink="http://www.w3.org/1999/xlink">
	<desc>
			Created with Pixso.
	</desc>
	<defs>
		<clipPath id="clip186_1833">
			<rect id="svg" width="24.000000" height="24.000000" fill="white" fill-opacity="0"/>
		</clipPath>
	</defs>
	<g clip-path="url(#clip186_1833)">
		<path id="path" d="M17.43 20.41C17.16 20.41 16.89 20.39 16.62 20.33C16.35 20.28 16.09 20.2 15.84 20.1C15.59 20 15.35 19.87 15.12 19.72C14.9 19.57 14.69 19.4 14.49 19.2C14.11 18.82 13.81 18.38 13.6 17.88C13.38 17.37 13.27 16.84 13.27 16.28C13.27 15.71 13.38 15.18 13.6 14.68C13.81 14.18 14.11 13.74 14.49 13.37C14.88 12.99 15.32 12.7 15.82 12.49C16.33 12.27 16.87 12.16 17.43 12.17C18 12.17 18.54 12.27 19.04 12.49C19.54 12.7 19.98 12.99 20.36 13.37C20.55 13.56 20.72 13.76 20.87 13.99C21.02 14.21 21.15 14.45 21.25 14.7C21.36 14.95 21.44 15.21 21.49 15.47C21.54 15.74 21.57 16.01 21.57 16.28C21.57 16.84 21.46 17.37 21.24 17.88C21.03 18.38 20.74 18.82 20.36 19.2C19.98 19.59 19.54 19.88 19.04 20.09C18.53 20.31 17.99 20.42 17.43 20.41ZM19.48 15.61L17.98 15.61L17.98 14.22C17.98 14.13 17.97 14.05 17.93 13.96C17.9 13.88 17.86 13.8 17.8 13.74C17.74 13.67 17.67 13.62 17.59 13.59C17.5 13.55 17.42 13.53 17.33 13.54C17.24 13.53 17.16 13.55 17.08 13.58C17 13.62 16.94 13.67 16.88 13.74C16.77 13.88 16.72 14.04 16.72 14.22L16.72 15.61L15.4 15.61C15.31 15.61 15.22 15.63 15.14 15.67C15.05 15.7 14.98 15.75 14.92 15.82C14.85 15.88 14.8 15.95 14.76 16.04C14.73 16.12 14.71 16.21 14.71 16.3C14.71 16.49 14.78 16.63 14.92 16.72C15.06 16.82 15.23 16.87 15.4 16.86L16.72 16.86L16.72 18.3C16.72 18.49 16.77 18.65 16.88 18.78C16.99 18.92 17.16 18.99 17.33 18.98C17.51 18.99 17.68 18.91 17.8 18.78C17.92 18.65 17.98 18.48 17.98 18.3L17.98 16.87L19.48 16.87L19.48 16.91C19.66 16.91 19.82 16.86 19.97 16.74C20.1 16.64 20.18 16.47 20.17 16.3C20.17 16.21 20.15 16.12 20.12 16.04C20.08 15.95 20.03 15.88 19.97 15.82C19.9 15.75 19.83 15.7 19.74 15.67C19.66 15.63 19.57 15.61 19.48 15.61ZM14.47 10.59C14.42 10.79 14.37 10.99 14.31 11.18C14.25 11.34 14.18 11.49 14.11 11.63C14.04 11.77 13.95 11.88 13.84 11.98C13.73 12.06 13.65 12.17 13.59 12.29C13.54 12.4 13.5 12.51 13.47 12.62C13.43 12.74 13.39 12.86 13.35 12.97C13.31 13.1 13.24 13.23 13.15 13.34C12.84 13.74 12.61 14.13 12.45 14.51C12.3 14.86 12.2 15.22 12.13 15.59C12.07 15.94 12.05 16.28 12.08 16.63C12.1 16.98 12.16 17.31 12.24 17.63C12.29 17.87 12.38 18.12 12.48 18.39C12.61 18.68 12.77 18.95 12.96 19.19C13.17 19.47 13.44 19.74 13.76 20C14.09 20.26 14.49 20.51 14.98 20.76C14.65 20.82 14.28 20.89 13.84 20.94C12.78 21.05 11.72 21.1 10.66 21.1C10.31 21.1 9.9 21.09 9.43 21.06C8.95 21.03 8.47 21 7.99 20.96C7.5 20.92 7.02 20.87 6.53 20.82C6.09 20.77 5.65 20.71 5.21 20.65C4.87 20.6 4.53 20.53 4.2 20.46C3.92 20.39 3.75 20.33 3.68 20.27C3.56 20.17 3.47 19.87 3.4 19.38C3.33 18.89 3.35 18.24 3.46 17.45C3.53 17.01 3.71 16.67 4 16.43C4.29 16.2 4.63 16.01 5.02 15.88C5.42 15.74 5.83 15.62 6.25 15.51C6.65 15.4 7.02 15.24 7.37 15.03C7.63 14.87 7.82 14.72 7.96 14.58C8.08 14.45 8.18 14.31 8.24 14.14C8.3 14 8.33 13.84 8.33 13.68C8.32 13.51 8.32 13.33 8.3 13.16C8.3 13.03 8.27 12.91 8.22 12.8C8.17 12.68 8.1 12.58 8.01 12.49C7.84 12.32 7.66 12.16 7.47 12.01C7.35 11.91 7.26 11.79 7.19 11.64C7.11 11.49 7.05 11.34 6.99 11.18C6.91 10.99 6.86 10.79 6.82 10.59C6.73 10.57 6.64 10.53 6.56 10.47C6.48 10.4 6.4 10.32 6.34 10.23C6.24 10.08 6.16 9.92 6.11 9.75C6.05 9.57 6.03 9.38 6.04 9.18C6.06 9.03 6.1 8.88 6.15 8.74C6.2 8.6 6.28 8.47 6.38 8.36C6.38 7.9 6.4 7.44 6.46 6.99C6.52 6.56 6.6 6.15 6.71 5.74C6.82 5.3 7.01 4.91 7.27 4.55C7.51 4.21 7.77 3.93 8.05 3.72C8.31 3.51 8.6 3.34 8.91 3.22C9.2 3.1 9.5 3.01 9.8 2.96C10.09 2.92 10.37 2.89 10.66 2.89C11.01 2.89 11.35 2.93 11.67 3.01C11.99 3.09 12.3 3.2 12.57 3.34C12.85 3.47 13.1 3.62 13.31 3.79C13.53 3.96 13.7 4.13 13.84 4.3C14.15 4.69 14.38 5.12 14.52 5.6C14.66 6.07 14.77 6.51 14.83 6.93C14.9 7.41 14.93 7.89 14.91 8.38C15 8.44 15.06 8.53 15.12 8.62C15.18 8.72 15.22 8.83 15.24 8.94C15.27 9.11 15.27 9.28 15.24 9.45C15.21 9.7 15.16 9.9 15.08 10.05C15.01 10.18 14.92 10.3 14.81 10.39C14.71 10.48 14.6 10.55 14.47 10.59L14.47 10.59Z" fill="#D1B380" fill-opacity="1.000000" fill-rule="nonzero"/>
	</g>
</svg>
