<svg width="24.000000" height="24.000000" viewBox="0 0 24 24" fill="none" xmlns="http://www.w3.org/2000/svg" xmlns:xlink="http://www.w3.org/1999/xlink">
	<desc>
			Created with Pixso.
	</desc>
	<defs>
		<clipPath id="clip61_1814">
			<rect width="24.000000" height="24.000000" fill="white" fill-opacity="0"/>
		</clipPath>
	</defs>
	<g clip-path="url(#clip61_1814)">
		<path d="M12 3.29C9.04 3.29 6.64 5.7 6.64 8.65C6.64 11.6 9.04 14 12 14C14.95 14 17.35 11.6 17.35 8.65C17.35 5.7 14.95 3.29 12 3.29Z" fill="#707070" fill-opacity="1.000000" fill-rule="nonzero"/>
		<path d="M16.12 13.88C14.98 14.78 13.56 15.34 12 15.34C10.43 15.34 9.01 14.78 7.87 13.88C5.7 15.26 4.19 17.68 3.99 20.48C4.74 20.59 6.09 20.7 8.02 20.7L15.97 20.7C17.89 20.7 19.24 20.59 20 20.48C19.8 17.68 18.29 15.26 16.12 13.88Z" fill="#707070" fill-opacity="1.000000" fill-rule="nonzero"/>
	</g>
</svg>
