<?xml version="1.0" encoding="UTF-8"?>
<svg width="24px" height="24px" viewBox="0 0 24 24" version="1.1" xmlns="http://www.w3.org/2000/svg"
     xmlns:xlink="http://www.w3.org/1999/xlink">
    <title>编组</title>
    <g id="页面-1" stroke="none" stroke-width="1" fill="none" fill-rule="evenodd">
        <g id="首页" transform="translate(-320, -196)" fill="#000000">
            <g id="编组-2" transform="translate(16, 180)">
                <g id="编组" transform="translate(304, 16)" fill-rule="nonzero">
                    <rect id="矩形" opacity="0" x="0" y="0" width="24" height="24"></rect>
                    <path d="M21.26,5.02 C21.4733333,5.02 21.65,4.94666667 21.79,4.8 C21.9366667,4.65333333 22.01,4.47666667 22.01,4.27 C22.01,4.06333333 21.9366667,3.88333333 21.79,3.73 C21.65,3.57666667 21.4733333,3.5 21.26,3.5 L2.74,3.5 C2.52666667,3.5 2.35,3.57666667 2.21,3.73 C2.06333333,3.88333333 1.99,4.06333333 1.99,4.27 C1.99,4.47666667 2.06333333,4.65333333 2.21,4.8 C2.35,4.94666667 2.52666667,5.02 2.74,5.02 L21.26,5.02 Z M14.83,12.74 C15.0366667,12.74 15.2133333,12.67 15.36,12.53 C15.5066667,12.3833333 15.58,12.2066667 15.58,12 C15.58,11.7933333 15.5066667,11.6166667 15.36,11.47 C15.2133333,11.33 15.0366667,11.26 14.83,11.26 L2.74,11.26 C2.52666667,11.26 2.35,11.33 2.21,11.47 C2.06333333,11.6166667 1.99,11.7933333 1.99,12 C1.99,12.2066667 2.06333333,12.3833333 2.21,12.53 C2.35,12.67 2.52666667,12.74 2.74,12.74 L14.83,12.74 Z M9.38,20.47 C9.57333333,20.47 9.74666667,20.4 9.9,20.26 C10.0533333,20.1133333 10.13,19.9366667 10.13,19.73 C10.13,19.5233333 10.0533333,19.3466667 9.9,19.2 C9.74666667,19.0533333 9.57333333,18.98 9.38,18.98 L2.74,18.98 C2.52666667,18.98 2.35,19.0533333 2.21,19.2 C2.06333333,19.3466667 1.99,19.5233333 1.99,19.73 C1.99,19.9366667 2.06333333,20.1133333 2.21,20.26 C2.35,20.4 2.52666667,20.47 2.74,20.47 L9.38,20.47 Z"
                          id="形状" fill-opacity="0.90196079"></path>
                </g>
            </g>
        </g>
    </g>
</svg>