<?xml version="1.0" standalone="no"?><!DOCTYPE svg PUBLIC "-//W3C//DTD SVG 1.1//EN"
        "http://www.w3.org/Graphics/SVG/1.1/DTD/svg11.dtd">
<svg t="1757416511310" class="icon" viewBox="0 0 1024 1024" version="1.1" xmlns="http://www.w3.org/2000/svg" p-id="4886"
     xmlns:xlink="http://www.w3.org/1999/xlink" width="200" height="200">
    <path d="M896 160H128v704h768z m-704 64h640v423.68L706.08 496l-157.12 157.12L352 358.24l-160 240z m0 576v-86.24l160-240 187.04 280.48L701.92 592 832 747.52V800z"
          fill="#cdcdcd" p-id="4887"></path>
    <path d="M672 448a96 96 0 1 0-96-96 96 96 0 0 0 96 96z m0-128a32 32 0 1 1-32 32 32 32 0 0 1 32-32z" fill="#cdcdcd"
          p-id="4888"></path>
</svg>