<svg width="58.000000" height="58.000000" viewBox="0 0 58 58" fill="none" xmlns="http://www.w3.org/2000/svg" xmlns:xlink="http://www.w3.org/1999/xlink">
	<desc>
			Created with Pixso.
	</desc>
	<defs>
		<clipPath id="clip97_2311">
			<rect width="58.000000" height="58.000000" fill="white" fill-opacity="0"/>
		</clipPath>
		<linearGradient x1="5.437134" y1="28.151535" x2="52.562874" y2="28.151535" id="paint_linear_97_2316_0" gradientUnits="userSpaceOnUse">
			<stop stop-color="#C458FF"/>
			<stop offset="0.327020" stop-color="#D4A7F7"/>
			<stop offset="0.467820" stop-color="#C03EFF"/>
			<stop offset="0.669920" stop-color="#971DCE"/>
			<stop offset="0.832779" stop-color="#B32BEB"/>
			<stop offset="1.000000" stop-color="#AD10EB"/>
		</linearGradient>
	</defs>
	<g clip-path="url(#clip97_2311)">
		<g opacity="0.000000">
			<rect width="58.000000" height="58.000000" fill="#FFFFFF" fill-opacity="1.000000"/>
			<rect width="58.000000" height="58.000000" stroke="#000000" stroke-opacity="0" stroke-width="1.000000"/>
		</g>
		<path d="M52.53 18.07C52.53 18.17 52.52 18.26 52.5 18.36C52.49 18.44 52.46 18.52 52.44 18.59C52.42 18.69 52.4 18.78 52.36 18.87C52.34 18.94 52.3 19.02 52.27 19.09C52.23 19.19 52.19 19.28 52.14 19.38C52.1 19.45 52.05 19.51 52.01 19.58C51.95 19.69 51.88 19.8 51.8 19.9C51.75 19.96 51.7 20.03 51.65 20.09C51.53 20.23 51.4 20.37 51.26 20.51C51.21 20.56 51.16 20.61 51.11 20.65C51.02 20.73 50.92 20.81 50.83 20.89C50.74 20.96 50.66 21.02 50.57 21.09C50.47 21.17 50.35 21.24 50.24 21.31C50.12 21.39 50.01 21.46 49.89 21.53L36.33 29.42L36.32 32.2C36.28 32.34 36.25 32.47 36.2 32.6C36.16 32.72 36.11 32.84 36.06 32.95C35.99 33.12 35.92 33.29 35.83 33.45C35.73 33.63 35.63 33.82 35.51 34C35.37 34.22 35.17 34.49 34.99 34.7C34.94 34.76 34.89 34.82 34.83 34.89C34.67 35.07 34.49 35.26 34.31 35.44C34.27 35.47 34.24 35.5 34.2 35.54C34.04 35.69 33.85 35.84 33.67 35.99C33.58 36.07 33.5 36.14 33.4 36.22C33.12 36.44 32.81 36.65 32.49 36.85L32.01 37.15C31.67 37.35 31.32 37.53 30.96 37.7C30.86 37.75 30.77 37.79 30.67 37.83C30.35 37.99 30.02 38.13 29.67 38.26C29.63 38.28 29.59 38.3 29.55 38.31C29.18 38.45 28.81 38.58 28.43 38.7C28.17 38.78 27.9 38.85 27.63 38.92C27.43 38.98 27.23 39.04 27.02 39.09C26.74 39.16 26.45 39.21 26.17 39.27C25.97 39.31 25.78 39.36 25.58 39.39C25 39.49 24.41 39.57 23.81 39.64C23.63 39.66 23.44 39.67 23.26 39.68C22.91 39.71 22.56 39.74 22.21 39.75C21.98 39.76 21.76 39.77 21.53 39.77C21.25 39.78 20.97 39.78 20.68 39.78C20.45 39.77 20.21 39.77 19.97 39.76C19.71 39.75 19.45 39.73 19.18 39.71C18.94 39.7 18.7 39.68 18.47 39.65C18.21 39.63 17.95 39.6 17.69 39.57C17.46 39.54 17.23 39.5 17 39.47C16.72 39.43 16.45 39.38 16.17 39.33C15.96 39.28 15.74 39.24 15.53 39.2C15.2 39.12 14.88 39.04 14.56 38.96C14.36 38.9 14.15 38.85 13.94 38.79C13.83 38.76 13.72 38.72 13.62 38.69C13.3 38.59 12.98 38.48 12.67 38.37C12.58 38.33 12.49 38.3 12.4 38.27C12.12 38.16 11.85 38.04 11.57 37.92C11.44 37.86 11.3 37.81 11.18 37.74C10.78 37.56 10.4 37.36 10.04 37.15C6.97 35.38 5.44 33.06 5.45 30.74L5.43 36.5C5.43 38.82 6.96 41.14 10.02 42.91C10.39 43.12 10.77 43.31 11.16 43.5C11.29 43.56 11.43 43.62 11.56 43.67C11.79 43.78 12.02 43.89 12.26 43.98C12.3 44 12.34 44.01 12.39 44.03C12.47 44.06 12.56 44.09 12.65 44.12C12.96 44.24 13.28 44.35 13.6 44.45C13.71 44.48 13.82 44.52 13.93 44.55C14 44.57 14.07 44.6 14.15 44.62C14.28 44.65 14.41 44.68 14.55 44.71C14.87 44.8 15.19 44.88 15.51 44.95C15.6 44.97 15.68 45 15.77 45.01C15.9 45.04 16.03 45.06 16.16 45.08C16.43 45.13 16.7 45.18 16.98 45.23C17.09 45.24 17.2 45.27 17.31 45.28C17.43 45.3 17.55 45.31 17.67 45.32C17.93 45.36 18.19 45.39 18.45 45.41C18.58 45.42 18.7 45.44 18.82 45.45C18.94 45.46 19.05 45.46 19.17 45.47C19.43 45.49 19.69 45.5 19.96 45.51C20.09 45.52 20.22 45.53 20.35 45.53C20.46 45.54 20.56 45.53 20.67 45.53C20.95 45.54 21.24 45.53 21.52 45.53C21.66 45.53 21.8 45.53 21.94 45.53C22.03 45.52 22.11 45.51 22.19 45.51C22.54 45.49 22.89 45.47 23.24 45.44C23.39 45.43 23.53 45.42 23.67 45.41C23.71 45.41 23.75 45.4 23.79 45.39C24.39 45.33 24.98 45.25 25.56 45.15C25.59 45.14 25.62 45.14 25.65 45.14C25.82 45.11 25.98 45.06 26.15 45.03C26.44 44.97 26.72 44.91 27.01 44.85C27.21 44.8 27.41 44.74 27.62 44.68C27.88 44.61 28.15 44.54 28.41 44.45C28.47 44.44 28.53 44.42 28.59 44.4C28.91 44.3 29.22 44.19 29.53 44.07C29.57 44.05 29.62 44.03 29.66 44.02C30 43.88 30.33 43.74 30.66 43.59C30.75 43.55 30.85 43.5 30.94 43.46C31.3 43.28 31.65 43.1 31.99 42.91L32.47 42.61C32.8 42.41 33.1 42.19 33.39 41.97C33.48 41.9 33.56 41.82 33.65 41.75C33.82 41.61 34 41.47 34.15 41.33C34.19 41.29 34.26 41.23 34.29 41.19C34.48 41.01 34.65 40.83 34.82 40.64C34.87 40.58 34.92 40.52 34.98 40.45C35.02 40.4 35.07 40.35 35.12 40.29C35.24 40.13 35.36 39.97 35.46 39.81C35.55 39.68 35.66 39.5 35.74 39.37C35.77 39.31 35.78 39.26 35.81 39.21C35.9 39.04 35.98 38.88 36.05 38.71C36.08 38.63 36.12 38.56 36.15 38.48C36.17 38.44 36.17 38.4 36.19 38.36C36.24 38.2 36.29 38.04 36.33 37.88C36.35 37.79 36.38 37.7 36.4 37.61C36.41 37.58 36.41 37.55 36.41 37.52C36.44 37.35 36.46 37.17 36.47 37C36.48 36.91 36.5 36.82 36.5 36.73C36.5 36.68 36.5 36.64 36.5 36.59L36.51 35.06L49.87 27.29C49.91 27.27 49.95 27.25 49.99 27.23C50.07 27.17 50.14 27.12 50.22 27.07C50.33 26.99 50.45 26.92 50.55 26.85C50.64 26.78 50.72 26.71 50.81 26.64C50.91 26.57 51 26.49 51.09 26.41C51.13 26.38 51.21 26.3 51.24 26.26C51.38 26.12 51.51 25.99 51.63 25.84C51.66 25.81 51.69 25.78 51.72 25.75C51.74 25.72 51.76 25.69 51.78 25.66C51.86 25.55 51.93 25.45 52 25.34C52.02 25.29 52.06 25.25 52.09 25.2C52.1 25.18 52.11 25.16 52.12 25.13C52.17 25.04 52.21 24.95 52.25 24.85C52.28 24.79 52.31 24.74 52.33 24.68C52.36 24.59 52.4 24.44 52.43 24.35C52.44 24.29 52.47 24.23 52.48 24.17C52.5 24.07 52.51 23.92 52.52 23.83C52.52 23.76 52.54 23.7 52.54 23.64C52.54 23.61 52.54 23.59 52.54 23.56L52.56 17.8C52.56 17.89 52.54 17.98 52.53 18.07Z" fill="url(#paint_linear_97_2316_0)" fill-opacity="1.000000" fill-rule="evenodd"/>
		<path d="M52.5 18.36C52.49 18.44 52.46 18.52 52.44 18.59C52.42 18.69 52.4 18.78 52.36 18.87C52.34 18.94 52.3 19.02 52.27 19.09C52.23 19.19 52.19 19.28 52.14 19.38C52.1 19.45 52.05 19.51 52.01 19.58C51.95 19.69 51.88 19.8 51.8 19.9C51.75 19.96 51.7 20.03 51.65 20.09C51.53 20.23 51.4 20.37 51.26 20.51C51.21 20.56 51.16 20.61 51.11 20.65C51.02 20.73 50.92 20.81 50.83 20.89C50.74 20.96 50.66 21.02 50.57 21.09C50.47 21.17 50.35 21.24 50.24 21.31C50.12 21.39 50.01 21.46 49.89 21.53L36.33 29.42L36.32 32.2C36.28 32.34 36.25 32.47 36.2 32.6C36.16 32.72 36.11 32.84 36.06 32.95C35.99 33.12 35.92 33.29 35.83 33.45C35.73 33.63 35.63 33.82 35.51 34C35.37 34.22 35.17 34.49 34.99 34.7C34.94 34.76 34.89 34.82 34.83 34.89C34.67 35.07 34.49 35.26 34.31 35.44C34.27 35.47 34.24 35.5 34.2 35.54C34.04 35.69 33.85 35.84 33.67 35.99C33.58 36.07 33.5 36.14 33.4 36.22C33.12 36.44 32.81 36.65 32.49 36.85L32.01 37.15C31.67 37.35 31.32 37.53 30.96 37.7C30.86 37.75 30.77 37.79 30.67 37.83C30.35 37.99 30.02 38.13 29.67 38.26C29.63 38.28 29.59 38.3 29.55 38.31C29.18 38.45 28.81 38.58 28.43 38.7C28.17 38.78 27.9 38.85 27.63 38.92C27.43 38.98 27.23 39.04 27.02 39.09C26.74 39.16 26.45 39.21 26.17 39.27C25.97 39.31 25.78 39.36 25.58 39.39C25 39.49 24.41 39.57 23.81 39.64C23.63 39.66 23.44 39.67 23.26 39.68C22.91 39.71 22.56 39.74 22.21 39.75C21.98 39.76 21.76 39.77 21.53 39.77C21.25 39.78 20.97 39.78 20.68 39.78C20.45 39.77 20.21 39.77 19.97 39.76C19.71 39.75 19.45 39.73 19.18 39.71C18.94 39.7 18.7 39.68 18.47 39.65C18.21 39.63 17.95 39.6 17.69 39.57C17.46 39.54 17.23 39.5 17 39.47C16.72 39.43 16.45 39.38 16.17 39.33C15.96 39.28 15.74 39.24 15.53 39.2C15.2 39.12 14.88 39.04 14.56 38.96C14.36 38.9 14.15 38.85 13.94 38.79C13.83 38.76 13.72 38.72 13.62 38.69C13.3 38.59 12.98 38.48 12.67 38.37C12.58 38.33 12.49 38.3 12.4 38.27C12.12 38.16 11.85 38.04 11.57 37.92C11.44 37.86 11.3 37.81 11.18 37.74C10.78 37.56 10.4 37.36 10.04 37.15C6.97 35.38 5.44 33.06 5.45 30.74L5.43 36.5C5.43 38.82 6.96 41.14 10.02 42.91C10.39 43.12 10.77 43.31 11.16 43.5C11.29 43.56 11.43 43.62 11.56 43.67C11.79 43.78 12.02 43.89 12.26 43.98C12.3 44 12.34 44.01 12.39 44.03C12.47 44.06 12.56 44.09 12.65 44.12C12.96 44.24 13.28 44.35 13.6 44.45C13.71 44.48 13.82 44.52 13.93 44.55C14 44.57 14.07 44.6 14.15 44.62C14.28 44.65 14.41 44.68 14.55 44.71C14.87 44.8 15.19 44.88 15.51 44.95C15.6 44.97 15.68 45 15.77 45.01C15.9 45.04 16.03 45.06 16.16 45.08C16.43 45.13 16.7 45.18 16.98 45.23C17.09 45.24 17.2 45.27 17.31 45.28C17.43 45.3 17.55 45.31 17.67 45.32C17.93 45.36 18.19 45.39 18.45 45.41C18.58 45.42 18.7 45.44 18.82 45.45C18.94 45.46 19.05 45.46 19.17 45.47C19.43 45.49 19.69 45.5 19.96 45.51C20.09 45.52 20.22 45.53 20.35 45.53C20.46 45.54 20.56 45.53 20.67 45.53C20.95 45.54 21.24 45.53 21.52 45.53C21.66 45.53 21.8 45.53 21.94 45.53C22.03 45.52 22.11 45.51 22.19 45.51C22.54 45.49 22.89 45.47 23.24 45.44C23.39 45.43 23.53 45.42 23.67 45.41C23.71 45.41 23.75 45.4 23.79 45.39C24.39 45.33 24.98 45.25 25.56 45.15C25.59 45.14 25.62 45.14 25.65 45.14C25.82 45.11 25.98 45.06 26.15 45.03C26.44 44.97 26.72 44.91 27.01 44.85C27.21 44.8 27.41 44.74 27.62 44.68C27.88 44.61 28.15 44.54 28.41 44.45C28.47 44.44 28.53 44.42 28.59 44.4C28.91 44.3 29.22 44.19 29.53 44.07C29.57 44.05 29.62 44.03 29.66 44.02C30 43.88 30.33 43.74 30.66 43.59C30.75 43.55 30.85 43.5 30.94 43.46C31.3 43.28 31.65 43.1 31.99 42.91L32.47 42.61C32.8 42.41 33.1 42.19 33.39 41.97C33.48 41.9 33.56 41.82 33.65 41.75C33.82 41.61 34 41.47 34.15 41.33C34.19 41.29 34.26 41.23 34.29 41.19C34.48 41.01 34.65 40.83 34.82 40.64C34.87 40.58 34.92 40.52 34.98 40.45C35.02 40.4 35.07 40.35 35.12 40.29C35.24 40.13 35.36 39.97 35.46 39.81C35.55 39.68 35.66 39.5 35.74 39.37C35.77 39.31 35.78 39.26 35.81 39.21C35.9 39.04 35.98 38.88 36.05 38.71C36.08 38.63 36.12 38.56 36.15 38.48C36.17 38.44 36.17 38.4 36.19 38.36C36.24 38.2 36.29 38.04 36.33 37.88C36.35 37.79 36.38 37.7 36.4 37.61C36.41 37.58 36.41 37.55 36.41 37.52C36.44 37.35 36.46 37.17 36.47 37C36.48 36.91 36.5 36.82 36.5 36.73C36.5 36.68 36.5 36.64 36.5 36.59L36.51 35.06L49.87 27.29C49.91 27.27 49.95 27.25 49.99 27.23C50.07 27.17 50.14 27.12 50.22 27.07C50.33 26.99 50.45 26.92 50.55 26.85C50.64 26.78 50.72 26.71 50.81 26.64C50.91 26.57 51 26.49 51.09 26.41C51.13 26.38 51.21 26.3 51.24 26.26C51.38 26.12 51.51 25.99 51.63 25.84C51.66 25.81 51.69 25.78 51.72 25.75C51.74 25.72 51.76 25.69 51.78 25.66C51.86 25.55 51.93 25.45 52 25.34C52.02 25.29 52.06 25.25 52.09 25.2C52.1 25.18 52.11 25.16 52.12 25.13C52.17 25.04 52.21 24.95 52.25 24.85C52.28 24.79 52.31 24.74 52.33 24.68C52.36 24.59 52.4 24.44 52.43 24.35C52.44 24.29 52.47 24.23 52.48 24.17C52.5 24.07 52.51 23.92 52.52 23.83C52.52 23.76 52.54 23.7 52.54 23.64C52.54 23.61 52.54 23.59 52.54 23.56L52.56 17.8C52.56 17.89 52.54 17.98 52.53 18.07C52.53 18.17 52.52 18.26 52.5 18.36Z" stroke="#000000" stroke-opacity="0" stroke-width="1.000000"/>
		<path d="M32.49 36.85L32.01 37.15C25.96 40.67 16.12 40.66 10.04 37.15C3.95 33.63 3.92 27.94 9.96 24.42C13.47 22.39 18.35 21.48 23.13 21.88L23.31 21.89L36.87 14.02C40.32 12.01 45.86 11.93 49.48 13.8L49.85 14.02C53.45 16.09 53.46 19.46 49.89 21.54L36.33 29.42L36.36 29.52C37.02 32.15 35.65 34.85 32.49 36.85Z" fill="#C458FF" fill-opacity="1.000000" fill-rule="evenodd"/>
		<path d="M32.01 37.15C25.96 40.67 16.12 40.66 10.04 37.15C3.95 33.63 3.92 27.94 9.96 24.42C13.47 22.39 18.35 21.48 23.13 21.88L23.31 21.89L36.87 14.02C40.32 12.01 45.86 11.93 49.48 13.8L49.85 14.02C53.45 16.09 53.46 19.46 49.89 21.54L36.33 29.42L36.36 29.52C37.02 32.15 35.65 34.85 32.49 36.85L32.01 37.15Z" stroke="#000000" stroke-opacity="0" stroke-width="1.000000"/>
		<path d="M49.48 13.8L49.85 14.02C53.45 16.09 53.46 19.46 49.89 21.54L36.33 29.42L36.36 29.52C37.02 32.15 35.65 34.85 32.49 36.85L32.01 37.15C25.96 40.67 16.12 40.66 10.04 37.15C3.95 33.63 3.92 27.94 9.96 24.42C13.47 22.39 18.35 21.48 23.13 21.88L23.31 21.89L36.87 14.02C40.32 12.01 45.86 11.93 49.48 13.8ZM48.98 14.23C45.61 12.6 40.58 12.68 37.38 14.42L37.17 14.54L23.61 22.42C23.52 22.47 23.43 22.49 23.33 22.5L23.25 22.5L23.08 22.48C18.37 22.09 13.62 23 10.27 24.95C4.62 28.23 4.65 33.34 10.34 36.63C16.15 39.98 25.56 40.03 31.43 36.78L31.69 36.64L32.17 36.34C35.03 34.52 36.31 32.15 35.82 29.85L35.78 29.7L35.75 29.6C35.67 29.35 35.76 29.08 35.97 28.93L49.59 21.01C52.71 19.2 52.74 16.47 49.69 14.63L49.55 14.54L49.19 14.34L48.98 14.23Z" fill="#D4A7F7" fill-opacity="1.000000" fill-rule="nonzero"/>
		<path d="M49.85 14.02C53.45 16.09 53.46 19.46 49.89 21.54L36.33 29.42L36.36 29.52C37.02 32.15 35.65 34.85 32.49 36.85L32.01 37.15C25.96 40.67 16.12 40.66 10.04 37.15C3.95 33.63 3.92 27.94 9.96 24.42C13.47 22.39 18.35 21.48 23.13 21.88L23.31 21.89L36.87 14.02C40.32 12.01 45.86 11.93 49.48 13.8L49.85 14.02ZM37.38 14.42L37.17 14.54L23.61 22.42C23.52 22.47 23.43 22.49 23.33 22.5L23.25 22.5L23.08 22.48C18.37 22.09 13.62 23 10.27 24.95C4.62 28.23 4.65 33.34 10.34 36.63C16.15 39.98 25.56 40.03 31.43 36.78L31.69 36.64L32.17 36.34C35.03 34.52 36.31 32.15 35.82 29.85L35.78 29.7L35.75 29.6C35.67 29.35 35.76 29.08 35.97 28.93L49.59 21.01C52.71 19.2 52.74 16.47 49.69 14.63L49.55 14.54L49.19 14.34L48.98 14.23C45.61 12.6 40.58 12.68 37.38 14.42Z" stroke="#000000" stroke-opacity="0" stroke-width="1.000000"/>
		<path d="M51.97 26.38L52.1 26.23L52.16 26.16L52.28 26L52.35 25.91L52.43 25.78L52.53 25.63C52.57 25.58 52.59 25.55 52.62 25.5L52.66 25.41L52.71 25.31L52.83 25.05L52.87 24.97L52.9 24.9L52.95 24.72L53.02 24.47L53.05 24.37L53.09 24.14L53.1 24.06L53.13 23.84L53.14 23.74L53.14 23.62L53.16 17.8C53.18 16.14 52.1 14.62 50.15 13.49L49.76 13.27L49.53 13.16C45.73 11.3 40.12 11.43 36.57 13.5L23.17 21.27C18.21 20.86 13.24 21.82 9.66 23.9C6.61 25.68 4.9 28.08 4.85 30.64L4.83 36.5L4.83 36.67C4.9 39.24 6.64 41.65 9.72 43.43C9.99 43.59 10.28 43.74 10.59 43.89L10.94 44.07L11.36 44.25L11.69 44.39L11.91 44.49L12.04 44.54L12.45 44.69C12.66 44.77 12.87 44.84 13.09 44.92L13.98 45.2L14.11 45.23L14.39 45.3C14.65 45.37 14.9 45.43 15.14 45.49L15.41 45.55L15.61 45.6L15.77 45.63L16.04 45.68C16.2 45.7 16.34 45.73 16.48 45.76L17.23 45.88L17.6 45.92L18 45.97L18.54 46.03L18.69 46.05L18.87 46.06L19.13 46.07L19.52 46.1L20.04 46.12L20.29 46.14L20.42 46.14L20.66 46.14L20.82 46.14L21.16 46.14L21.6 46.13L21.87 46.13L21.97 46.13L22.23 46.11L22.58 46.09L22.84 46.08L23.72 46.01L23.85 46C24.32 45.95 24.77 45.89 25.22 45.82L25.77 45.73L25.99 45.68L26.35 45.6L26.85 45.5L27.08 45.45L27.27 45.4L28.25 45.13L28.77 44.98C28.98 44.91 29.2 44.84 29.42 44.76L29.88 44.58C30.11 44.49 30.33 44.4 30.56 44.3L31.1 44.05L31.21 44C31.62 43.8 31.97 43.62 32.29 43.43L32.79 43.13L33.04 42.96C33.29 42.8 33.53 42.63 33.75 42.45L33.82 42.4L34.14 42.13L34.36 41.95L34.47 41.86L34.58 41.76L34.71 41.62C34.91 41.43 35.1 41.24 35.27 41.04L35.56 40.7C35.7 40.53 35.85 40.33 35.97 40.15L36.12 39.9C36.14 39.87 36.16 39.84 36.17 39.82L36.26 39.66C36.28 39.63 36.29 39.61 36.31 39.58L36.35 39.49C36.41 39.38 36.46 39.26 36.52 39.14L36.62 38.91L36.68 38.78L36.73 38.65L36.76 38.55L36.78 38.49L36.82 38.36L36.89 38.12L36.92 37.98C36.94 37.94 36.96 37.86 36.97 37.83L36.99 37.73L37.01 37.61L37.03 37.48L37.05 37.33L37.08 37.02L37.09 36.95C37.09 36.9 37.1 36.85 37.1 36.81L37.11 36.63L37.11 35.41L50.18 27.81L50.38 27.69L50.81 27.4L50.9 27.34L51.02 27.25L51.4 26.94L51.5 26.86L51.59 26.78L51.68 26.68C51.78 26.58 51.88 26.48 51.97 26.38ZM49.48 13.8L49.85 14.02C51.67 15.07 52.57 16.45 52.56 17.83L52.54 23.56C52.54 23.59 52.54 23.61 52.54 23.64C52.54 23.7 52.52 23.77 52.52 23.83L52.5 24.02C52.5 24.05 52.49 24.08 52.49 24.12C52.47 24.18 52.44 24.29 52.43 24.35L52.39 24.49L52.33 24.68C52.31 24.74 52.28 24.79 52.25 24.85L52.19 24.99L52.09 25.2C52.06 25.25 52.02 25.29 52 25.34C51.95 25.41 51.91 25.48 51.86 25.55L51.78 25.66L51.72 25.75L51.63 25.84C51.51 25.99 51.38 26.13 51.24 26.26L51.15 26.36L50.95 26.53L50.81 26.64C50.72 26.71 50.64 26.78 50.55 26.85C50.45 26.92 50.33 26.99 50.22 27.07C50.14 27.12 50.07 27.17 49.99 27.23L49.87 27.29L36.51 35.06L36.5 36.59C36.5 36.64 36.5 36.68 36.5 36.73L36.5 36.82L36.47 37C36.46 37.17 36.44 37.35 36.41 37.52L36.4 37.61C36.38 37.7 36.35 37.79 36.33 37.88C36.29 38.04 36.24 38.2 36.19 38.36L36.15 38.48C36.12 38.56 36.08 38.63 36.05 38.71C35.98 38.88 35.9 39.04 35.81 39.21L35.74 39.37L35.62 39.56L35.46 39.81C35.36 39.97 35.24 40.13 35.12 40.29L34.98 40.46C34.92 40.52 34.87 40.58 34.82 40.64C34.71 40.77 34.59 40.89 34.47 41.01L34.15 41.33L33.99 41.47L33.65 41.75L33.48 41.9C33.45 41.92 33.42 41.95 33.39 41.97C33.17 42.14 32.95 42.3 32.71 42.46L32.47 42.61L31.99 42.91C31.65 43.1 31.3 43.28 30.94 43.46C30.85 43.5 30.75 43.55 30.66 43.59C30.44 43.69 30.22 43.79 30 43.88L29.53 44.07C29.22 44.19 28.91 44.3 28.59 44.4L28.41 44.45C28.24 44.51 28.06 44.56 27.88 44.61L27.62 44.68C27.41 44.74 27.21 44.8 27.01 44.85C26.72 44.91 26.44 44.97 26.15 45.03C25.98 45.06 25.82 45.11 25.65 45.14L25.56 45.15C24.98 45.25 24.39 45.33 23.79 45.39L23.67 45.41L23.24 45.44C23.01 45.46 22.78 45.48 22.54 45.49L22.19 45.51L21.94 45.53C21.8 45.53 21.66 45.53 21.52 45.53C21.24 45.53 20.95 45.54 20.67 45.53L20.35 45.53C20.22 45.53 20.09 45.52 19.96 45.51C19.69 45.5 19.43 45.49 19.17 45.47L18.82 45.45C18.7 45.44 18.57 45.42 18.45 45.41C18.19 45.39 17.93 45.36 17.67 45.32L17.31 45.28L16.98 45.23C16.7 45.18 16.43 45.13 16.16 45.08C16.03 45.06 15.9 45.04 15.77 45.01C15.68 45 15.6 44.97 15.51 44.95C15.19 44.88 14.87 44.8 14.55 44.71C14.41 44.68 14.28 44.65 14.15 44.62L13.6 44.45C13.39 44.38 13.17 44.31 12.97 44.24L12.52 44.08L12.26 43.98L12.02 43.88L11.56 43.67C11.43 43.62 11.29 43.56 11.16 43.5C10.77 43.31 10.39 43.12 10.02 42.91C7.03 41.18 5.5 38.93 5.43 36.66L5.43 36.5L5.45 30.65C5.5 28.39 7 26.15 9.96 24.42C13.47 22.39 18.35 21.48 23.13 21.88L23.31 21.89L36.87 14.02C40.32 12.01 45.86 11.93 49.48 13.8Z" fill="#8217B0" fill-opacity="1.000000" fill-rule="nonzero"/>
		<path d="M52.1 26.23L52.16 26.16L52.28 26L52.35 25.91L52.43 25.78L52.53 25.63C52.57 25.58 52.59 25.55 52.62 25.5L52.66 25.41L52.71 25.31L52.83 25.05L52.87 24.97L52.9 24.9L52.95 24.72L53.02 24.47L53.05 24.37L53.09 24.14L53.1 24.06L53.13 23.84L53.14 23.74L53.14 23.62L53.16 17.8C53.18 16.14 52.1 14.62 50.15 13.49L49.76 13.27L49.53 13.16C45.73 11.3 40.12 11.43 36.57 13.5L23.17 21.27C18.21 20.86 13.24 21.82 9.66 23.9C6.61 25.68 4.9 28.08 4.85 30.64L4.83 36.5L4.83 36.67C4.9 39.24 6.64 41.65 9.72 43.43C9.99 43.59 10.28 43.74 10.59 43.89L10.94 44.07L11.36 44.25L11.69 44.39L11.91 44.49L12.04 44.54L12.45 44.69C12.66 44.77 12.87 44.84 13.09 44.92L13.98 45.2L14.11 45.23L14.39 45.3C14.65 45.37 14.9 45.43 15.14 45.49L15.41 45.55L15.61 45.6L15.77 45.63L16.04 45.68C16.2 45.7 16.34 45.73 16.48 45.76L17.23 45.88L17.6 45.92L18 45.97L18.54 46.03L18.69 46.05L18.87 46.06L19.13 46.07L19.52 46.1L20.04 46.12L20.29 46.14L20.42 46.14L20.66 46.14L20.82 46.14L21.16 46.14L21.6 46.13L21.87 46.13L21.97 46.13L22.23 46.11L22.58 46.09L22.84 46.08L23.72 46.01L23.85 46C24.32 45.95 24.77 45.89 25.22 45.82L25.77 45.73L25.99 45.68L26.35 45.6L26.85 45.5L27.08 45.45L27.27 45.4L28.25 45.13L28.77 44.98C28.98 44.91 29.2 44.84 29.42 44.76L29.88 44.58C30.11 44.49 30.33 44.4 30.56 44.3L31.1 44.05L31.21 44C31.62 43.8 31.97 43.62 32.29 43.43L32.79 43.13L33.04 42.96C33.29 42.8 33.53 42.63 33.75 42.45L33.82 42.4L34.14 42.13L34.36 41.95L34.47 41.86L34.58 41.76L34.71 41.62C34.91 41.43 35.1 41.24 35.27 41.04L35.56 40.7C35.7 40.53 35.85 40.33 35.97 40.15L36.12 39.9C36.14 39.87 36.16 39.84 36.17 39.82L36.26 39.66C36.28 39.63 36.29 39.61 36.31 39.58L36.35 39.49C36.41 39.38 36.46 39.26 36.52 39.14L36.62 38.91L36.68 38.78L36.73 38.65L36.76 38.55L36.78 38.49L36.82 38.36L36.89 38.12L36.92 37.98C36.94 37.94 36.96 37.86 36.97 37.83L36.99 37.73L37.01 37.61L37.03 37.48L37.05 37.33L37.08 37.02L37.09 36.95C37.09 36.9 37.1 36.85 37.1 36.81L37.11 36.63L37.11 35.41L50.18 27.81L50.38 27.69L50.81 27.4L50.9 27.34L51.02 27.25L51.4 26.94L51.5 26.86L51.59 26.78L51.68 26.68C51.78 26.58 51.88 26.48 51.97 26.38L52.1 26.23ZM49.85 14.02C51.67 15.07 52.57 16.45 52.56 17.83L52.54 23.56C52.54 23.59 52.54 23.61 52.54 23.64C52.54 23.7 52.52 23.77 52.52 23.83L52.5 24.02C52.5 24.05 52.49 24.08 52.49 24.12C52.47 24.18 52.44 24.29 52.43 24.35L52.39 24.49L52.33 24.68C52.31 24.74 52.28 24.79 52.25 24.85L52.19 24.99L52.09 25.2C52.06 25.25 52.02 25.29 52 25.34C51.95 25.41 51.91 25.48 51.86 25.55L51.78 25.66L51.72 25.75L51.63 25.84C51.51 25.99 51.38 26.13 51.24 26.26L51.15 26.36L50.95 26.53L50.81 26.64C50.72 26.71 50.64 26.78 50.55 26.85C50.45 26.92 50.33 26.99 50.22 27.07C50.14 27.12 50.07 27.17 49.99 27.23L49.87 27.29L36.51 35.06L36.5 36.59C36.5 36.64 36.5 36.68 36.5 36.73L36.5 36.82L36.47 37C36.46 37.17 36.44 37.35 36.41 37.52L36.4 37.61C36.38 37.7 36.35 37.79 36.33 37.88C36.29 38.04 36.24 38.2 36.19 38.36L36.15 38.48C36.12 38.56 36.08 38.63 36.05 38.71C35.98 38.88 35.9 39.04 35.81 39.21L35.74 39.37L35.62 39.56L35.46 39.81C35.36 39.97 35.24 40.13 35.12 40.29L34.98 40.46C34.92 40.52 34.87 40.58 34.82 40.64C34.71 40.77 34.59 40.89 34.47 41.01L34.15 41.33L33.99 41.47L33.65 41.75L33.48 41.9C33.45 41.92 33.42 41.95 33.39 41.97C33.17 42.14 32.95 42.3 32.71 42.46L32.47 42.61L31.99 42.91C31.65 43.1 31.3 43.28 30.94 43.46C30.85 43.5 30.75 43.55 30.66 43.59C30.44 43.69 30.22 43.79 30 43.88L29.53 44.07C29.22 44.19 28.91 44.3 28.59 44.4L28.41 44.45C28.24 44.51 28.06 44.56 27.88 44.61L27.62 44.68C27.41 44.74 27.21 44.8 27.01 44.85C26.72 44.91 26.44 44.97 26.15 45.03C25.98 45.06 25.82 45.11 25.65 45.14L25.56 45.15C24.98 45.25 24.39 45.33 23.79 45.39L23.67 45.41L23.24 45.44C23.01 45.46 22.78 45.48 22.54 45.49L22.19 45.51L21.94 45.53C21.8 45.53 21.66 45.53 21.52 45.53C21.24 45.53 20.95 45.54 20.67 45.53L20.35 45.53C20.22 45.53 20.09 45.52 19.96 45.51C19.69 45.5 19.43 45.49 19.17 45.47L18.82 45.45C18.7 45.44 18.57 45.42 18.45 45.41C18.19 45.39 17.93 45.36 17.67 45.32L17.31 45.28L16.98 45.23C16.7 45.18 16.43 45.13 16.16 45.08C16.03 45.06 15.9 45.04 15.77 45.01C15.68 45 15.6 44.97 15.51 44.95C15.19 44.88 14.87 44.8 14.55 44.71C14.41 44.68 14.28 44.65 14.15 44.62L13.6 44.45C13.39 44.38 13.17 44.31 12.97 44.24L12.52 44.08L12.26 43.98L12.02 43.88L11.56 43.67C11.43 43.62 11.29 43.56 11.16 43.5C10.77 43.31 10.39 43.12 10.02 42.91C7.03 41.18 5.5 38.93 5.43 36.66L5.43 36.5L5.45 30.65C5.5 28.39 7 26.15 9.96 24.42C13.47 22.39 18.35 21.48 23.13 21.88L23.31 21.89L36.87 14.02C40.32 12.01 45.86 11.93 49.48 13.8L49.85 14.02Z" stroke="#000000" stroke-opacity="0" stroke-width="1.000000"/>
		<path d="M31.91 29.23C32.8 31.38 31.73 33.65 28.99 35.24C24.68 37.75 17.65 37.75 13.31 35.24C8.96 32.73 8.94 28.66 13.26 26.15C16 24.56 19.92 23.94 23.64 24.45L24.77 24.6L39.67 15.94C41.55 14.84 44.62 14.84 46.52 15.94C48.42 17.04 48.44 18.82 46.55 19.92L31.65 28.58L31.91 29.23Z" fill="#EFE4F9" fill-opacity="1.000000" fill-rule="evenodd"/>
		<path d="M28.99 35.24C24.68 37.75 17.65 37.75 13.31 35.24C8.96 32.73 8.94 28.66 13.26 26.15C16 24.56 19.92 23.94 23.64 24.45L24.77 24.6L39.67 15.94C41.55 14.84 44.62 14.84 46.52 15.94C48.42 17.04 48.44 18.82 46.55 19.92L31.65 28.58L31.91 29.23C32.8 31.38 31.73 33.65 28.99 35.24Z" stroke="#000000" stroke-opacity="0" stroke-width="1.000000"/>
		<path d="M39.01 19.86C38.9 19.84 38.77 19.81 38.68 19.76L36.33 18.4C36.25 18.36 36.2 18.31 36.17 18.25C36.16 18.23 36.15 18.21 36.15 18.18C36.15 18.15 36.15 18.12 36.16 18.08C36.18 18.03 36.22 17.98 36.28 17.93C36.35 17.89 36.48 17.83 36.58 17.82C36.65 17.8 36.73 17.8 36.81 17.8C36.94 17.81 37.07 17.84 37.18 17.9L39.53 19.26C39.77 19.4 39.77 19.62 39.54 19.76C39.39 19.84 39.19 19.87 39.01 19.86Z" fill="#8217B0" fill-opacity="1.000000" fill-rule="nonzero"/>
		<path d="M38.68 19.76L36.33 18.4C36.25 18.36 36.2 18.31 36.17 18.25C36.16 18.23 36.15 18.21 36.15 18.18C36.15 18.15 36.15 18.12 36.16 18.08C36.18 18.03 36.22 17.98 36.28 17.93C36.35 17.89 36.48 17.83 36.58 17.82C36.65 17.8 36.73 17.8 36.81 17.8C36.94 17.81 37.07 17.84 37.18 17.9L39.53 19.26C39.77 19.4 39.77 19.62 39.54 19.76C39.39 19.84 39.19 19.87 39.01 19.86C38.9 19.84 38.77 19.81 38.68 19.76Z" stroke="#000000" stroke-opacity="0" stroke-width="1.000000"/>
		<path d="M36.13 21.5C36.03 21.48 35.89 21.45 35.81 21.4L33.45 20.04C33.38 20 33.32 19.95 33.3 19.89C33.29 19.87 33.28 19.85 33.27 19.82C33.27 19.79 33.27 19.76 33.28 19.72C33.3 19.67 33.34 19.62 33.4 19.57C33.48 19.53 33.61 19.47 33.7 19.46C33.78 19.44 33.85 19.44 33.93 19.44C34.07 19.45 34.2 19.48 34.3 19.54L36.66 20.9C36.89 21.04 36.89 21.26 36.66 21.4C36.51 21.48 36.32 21.51 36.13 21.5Z" fill="#8217B0" fill-opacity="1.000000" fill-rule="nonzero"/>
		<path d="M35.81 21.4L33.45 20.04C33.38 20 33.32 19.95 33.3 19.89C33.29 19.87 33.28 19.85 33.27 19.82C33.27 19.79 33.27 19.76 33.28 19.72C33.3 19.67 33.34 19.62 33.4 19.57C33.48 19.53 33.61 19.47 33.7 19.46C33.78 19.44 33.85 19.44 33.93 19.44C34.07 19.45 34.2 19.48 34.3 19.54L36.66 20.9C36.89 21.04 36.89 21.26 36.66 21.4C36.51 21.48 36.32 21.51 36.13 21.5C36.03 21.48 35.89 21.45 35.81 21.4Z" stroke="#000000" stroke-opacity="0" stroke-width="1.000000"/>
		<path d="M14.39 30.46C14.45 30.65 14.24 30.83 13.91 30.87C13.88 30.87 13.81 30.87 13.79 30.87C13.76 30.87 13.69 30.87 13.67 30.86C13.65 30.86 13.63 30.86 13.61 30.86C13.59 30.85 13.52 30.83 13.51 30.83C13.49 30.82 13.43 30.8 13.41 30.79C13.4 30.78 13.34 30.75 13.33 30.75C13.31 30.73 13.27 30.7 13.26 30.69C13.25 30.67 13.2 30.6 13.2 30.59C12.9 29.66 13.42 28.81 14.72 28.05C16.02 27.29 17.5 26.99 19.09 27.17C19.12 27.17 19.19 27.18 19.2 27.18C19.22 27.19 19.3 27.21 19.31 27.22C19.34 27.23 19.39 27.25 19.4 27.26C19.42 27.27 19.47 27.3 19.48 27.31C19.49 27.32 19.55 27.39 19.56 27.4C19.56 27.42 19.58 27.46 19.58 27.47C19.58 27.48 19.59 27.52 19.59 27.53C19.52 27.72 19.2 27.89 18.87 27.85C17.69 27.72 16.61 27.94 15.58 28.54C14.55 29.14 14.16 29.77 14.39 30.46Z" fill="#8217B0" fill-opacity="1.000000" fill-rule="nonzero"/>
		<path d="M13.91 30.87C13.88 30.87 13.81 30.87 13.79 30.87C13.76 30.87 13.69 30.87 13.67 30.86C13.65 30.86 13.63 30.86 13.61 30.86C13.59 30.85 13.52 30.83 13.51 30.83C13.49 30.82 13.43 30.8 13.41 30.79C13.4 30.78 13.34 30.75 13.33 30.75C13.31 30.73 13.27 30.7 13.26 30.69C13.25 30.67 13.2 30.6 13.2 30.59C12.9 29.66 13.42 28.81 14.72 28.05C16.02 27.29 17.5 26.99 19.09 27.17C19.12 27.17 19.19 27.18 19.2 27.18C19.22 27.19 19.3 27.21 19.31 27.22C19.34 27.23 19.39 27.25 19.4 27.26C19.42 27.27 19.47 27.3 19.48 27.31C19.49 27.32 19.55 27.39 19.56 27.4C19.56 27.42 19.58 27.46 19.58 27.47C19.58 27.48 19.59 27.52 19.59 27.53C19.52 27.72 19.2 27.89 18.87 27.85C17.69 27.72 16.61 27.94 15.58 28.54C14.55 29.14 14.16 29.77 14.39 30.46C14.45 30.65 14.24 30.83 13.91 30.87Z" stroke="#000000" stroke-opacity="0" stroke-width="1.000000"/>
	</g>
</svg>
