<svg width="58.000000" height="58.000000" viewBox="0 0 58 58" fill="none" xmlns="http://www.w3.org/2000/svg" xmlns:xlink="http://www.w3.org/1999/xlink">
	<desc>
			Created with Pixso.
	</desc>
	<defs>
		<clipPath id="clip97_2268">
			<rect width="58.000000" height="58.000000" fill="white" fill-opacity="0"/>
		</clipPath>
		<linearGradient x1="5.437500" y1="28.572075" x2="52.562187" y2="28.572075" id="paint_linear_97_2273_0" gradientUnits="userSpaceOnUse">
			<stop stop-color="#34AAB8"/>
			<stop offset="0.630323" stop-color="#6DC6D4"/>
			<stop offset="0.721423" stop-color="#188E9B"/>
			<stop offset="1.000000" stop-color="#1E7883"/>
		</linearGradient>
		<linearGradient x1="13.433007" y1="34.115105" x2="21.950180" y2="34.115105" id="paint_linear_97_2276_0" gradientUnits="userSpaceOnUse">
			<stop stop-color="#34AAB8"/>
			<stop offset="0.340212" stop-color="#49AEBE"/>
			<stop offset="0.580765" stop-color="#188E9B"/>
			<stop offset="1.000000" stop-color="#1E7883"/>
		</linearGradient>
	</defs>
	<g clip-path="url(#clip97_2268)">
		<rect width="58.000000" height="58.000000" fill="#000000" fill-opacity="0"/>
		<rect width="58.000000" height="58.000000" stroke="#000000" stroke-opacity="0" stroke-width="1.000000"/>
		<path d="M52.56 21.58L52.54 27.13C52.54 27.18 52.54 27.22 52.54 27.27C52.53 27.49 52.51 27.71 52.47 27.93L52.46 28.04C52.45 28.08 52.45 28.12 52.44 28.16C52.4 28.37 52.34 28.57 52.27 28.78C52.26 28.81 52.25 28.85 52.24 28.89C52.22 28.94 52.2 28.99 52.19 29.04C52.11 29.23 52.02 29.42 51.93 29.62C51.91 29.65 51.89 29.69 51.87 29.73C51.84 29.79 51.81 29.86 51.77 29.92C51.67 30.1 51.56 30.27 51.44 30.45C51.41 30.49 51.39 30.52 51.36 30.55C51.29 30.65 51.23 30.75 51.15 30.84C51.06 30.96 50.95 31.08 50.85 31.19C50.82 31.23 50.79 31.27 50.75 31.31C50.58 31.5 50.4 31.68 50.2 31.86C50.16 31.91 50.11 31.95 50.06 31.99L49.95 32.09C49.7 32.3 49.44 32.51 49.15 32.72C49.11 32.74 49.07 32.77 49.03 32.8C48.78 32.98 48.52 33.15 48.24 33.32C48.18 33.36 48.11 33.4 48.05 33.43L44.56 35.46C44.35 35.58 44.15 35.7 43.96 35.83C43.76 35.95 43.56 36.08 43.37 36.2C43.25 36.28 43.13 36.36 43.01 36.44C42.81 36.57 42.62 36.71 42.43 36.85C42.33 36.92 42.23 36.99 42.13 37.07C41.9 37.24 41.69 37.4 41.48 37.57C41.42 37.62 41.36 37.67 41.3 37.72C41.03 37.94 40.78 38.17 40.53 38.39C40.49 38.43 40.45 38.47 40.41 38.5C40.16 38.74 39.92 38.99 39.68 39.23C39.61 39.31 39.54 39.38 39.47 39.46C39.21 39.74 38.96 40.02 38.73 40.32C38.61 40.48 38.49 40.63 38.39 40.79C38.37 40.81 38.36 40.83 38.35 40.86C38.27 40.98 38.19 41.1 38.12 41.22C38.11 41.25 38.09 41.27 38.08 41.3C38.02 41.41 37.97 41.51 37.92 41.61C37.9 41.66 37.88 41.71 37.86 41.75C37.83 41.83 37.8 41.91 37.77 41.99C37.73 42.08 37.7 42.18 37.68 42.28C37.66 42.32 37.65 42.36 37.64 42.39C37.6 42.53 37.57 42.66 37.55 42.79C37.5 43.02 37.46 43.27 37.43 43.51C37.39 43.73 37.36 43.94 37.32 44.15C37.31 44.2 37.3 44.24 37.3 44.29C37.28 44.36 37.27 44.43 37.25 44.49C37.25 44.52 37.24 44.54 37.23 44.57L37.19 44.65C37.17 44.68 37.14 44.73 37.12 44.76C37.1 44.79 37.05 44.84 37.02 44.87C36.96 44.93 36.85 45.02 36.78 45.07C36.66 45.13 36.49 45.22 36.35 45.27C36.25 45.3 36.1 45.34 36 45.36C35.93 45.37 35.81 45.39 35.73 45.4C35.66 45.41 35.59 45.41 35.53 45.42C35.48 45.42 35.39 45.42 35.34 45.42C35.28 45.41 35.22 45.41 35.16 45.41C35.1 45.4 35.05 45.4 35 45.39C34.93 45.38 34.85 45.37 34.79 45.35C34.73 45.34 34.66 45.32 34.6 45.31C34.58 45.3 34.51 45.27 34.49 45.27C34.45 45.26 34.41 45.24 34.37 45.23C34.28 45.19 34.19 45.15 34.1 45.1L5.98 28.87C5.63 28.66 5.43 28.38 5.43 28.1L5.45 22.55C5.45 22.83 5.64 23.11 6 23.31L34.12 39.55C34.23 39.61 34.36 39.67 34.5 39.72C34.64 39.76 34.85 39.81 35 39.83C35.16 39.85 35.33 39.86 35.5 39.86C35.67 39.86 35.85 39.84 36.02 39.81C36.12 39.79 36.21 39.76 36.3 39.74C36.44 39.69 36.63 39.61 36.74 39.55C36.82 39.5 36.94 39.42 36.99 39.37C37.02 39.34 37.1 39.26 37.12 39.23C37.15 39.2 37.18 39.14 37.2 39.1C37.22 39.06 37.26 38.98 37.27 38.94C37.29 38.83 37.31 38.71 37.34 38.6C37.37 38.38 37.41 38.17 37.44 37.95C37.48 37.72 37.51 37.49 37.56 37.26C37.59 37.13 37.62 36.97 37.66 36.84C37.67 36.8 37.68 36.76 37.69 36.72C37.72 36.63 37.75 36.53 37.79 36.43C37.81 36.37 37.85 36.26 37.88 36.2C37.9 36.15 37.92 36.11 37.94 36.06C37.98 35.96 38.04 35.85 38.1 35.74C38.11 35.72 38.12 35.69 38.14 35.67C38.2 35.55 38.29 35.42 38.37 35.29C38.38 35.27 38.39 35.25 38.41 35.23C38.51 35.08 38.62 34.93 38.74 34.77C38.97 34.48 39.23 34.19 39.49 33.9C39.56 33.83 39.63 33.75 39.7 33.68C39.93 33.43 40.18 33.19 40.43 32.95C40.46 32.92 40.49 32.89 40.51 32.87C40.76 32.64 41.05 32.39 41.31 32.17L41.5 32.02C41.71 31.85 41.92 31.68 42.14 31.52C42.24 31.44 42.35 31.37 42.45 31.29C42.64 31.15 42.83 31.02 43.03 30.89C43.14 30.81 43.26 30.73 43.38 30.65C43.58 30.52 43.77 30.4 43.97 30.27C44.04 30.23 44.11 30.19 44.18 30.14C44.31 30.06 44.44 29.99 44.57 29.91L48.06 27.88C48.41 27.68 48.73 27.47 49.04 27.25C49.08 27.22 49.13 27.19 49.17 27.16C49.45 26.96 49.72 26.75 49.96 26.53C50 26.5 50.04 26.47 50.08 26.43C50.32 26.21 50.56 25.99 50.77 25.75C50.8 25.72 50.83 25.68 50.87 25.64C51.05 25.43 51.22 25.22 51.38 25C51.4 24.97 51.43 24.93 51.45 24.9C51.61 24.66 51.76 24.42 51.88 24.18C51.91 24.14 51.92 24.1 51.94 24.06C52.06 23.82 52.17 23.58 52.25 23.34C52.26 23.3 52.28 23.26 52.29 23.22C52.37 22.98 52.43 22.73 52.47 22.48L52.49 22.37C52.53 22.11 52.56 21.84 52.56 21.58ZM50.29 14.95L50.27 20.5C50.27 20.54 50.27 20.59 50.26 20.63C50.25 20.65 50.25 20.67 50.24 20.69C50.23 20.73 50.2 20.8 50.18 20.84C50.17 20.85 50.13 20.91 50.12 20.92C50.09 20.96 50.03 21.03 49.99 21.07C49.95 21.1 49.89 21.14 49.85 21.17C49.82 21.2 49.79 21.22 49.76 21.24L49.22 21.56L49.23 16L49.75 15.7C49.79 15.68 49.83 15.65 49.86 15.62C49.91 15.59 49.96 15.56 49.99 15.53C50.05 15.47 50.1 15.42 50.14 15.36C50.18 15.31 50.23 15.22 50.25 15.16C50.27 15.1 50.29 15.01 50.29 14.95Z" fill="url(#paint_linear_97_2273_0)" fill-opacity="1.000000" fill-rule="evenodd"/>
		<path d="M52.54 27.13C52.54 27.18 52.54 27.22 52.54 27.27C52.53 27.49 52.51 27.71 52.47 27.93L52.46 28.04C52.45 28.08 52.45 28.12 52.44 28.16C52.4 28.37 52.34 28.57 52.27 28.78C52.26 28.81 52.25 28.85 52.24 28.89C52.22 28.94 52.2 28.99 52.19 29.04C52.11 29.23 52.02 29.42 51.93 29.62C51.91 29.65 51.89 29.69 51.87 29.73C51.84 29.79 51.81 29.86 51.77 29.92C51.67 30.1 51.56 30.27 51.44 30.45C51.41 30.49 51.39 30.52 51.36 30.55C51.29 30.65 51.23 30.75 51.15 30.84C51.06 30.96 50.95 31.08 50.85 31.19C50.82 31.23 50.79 31.27 50.75 31.31C50.58 31.5 50.4 31.68 50.2 31.86C50.16 31.91 50.11 31.95 50.06 31.99L49.95 32.09C49.7 32.3 49.44 32.51 49.15 32.72C49.11 32.74 49.07 32.77 49.03 32.8C48.78 32.98 48.52 33.15 48.24 33.32C48.18 33.36 48.11 33.4 48.05 33.43L44.56 35.46C44.35 35.58 44.15 35.7 43.96 35.83C43.76 35.95 43.56 36.08 43.37 36.2C43.25 36.28 43.13 36.36 43.01 36.44C42.81 36.57 42.62 36.71 42.43 36.85C42.33 36.92 42.23 36.99 42.13 37.07C41.9 37.24 41.69 37.4 41.48 37.57C41.42 37.62 41.36 37.67 41.3 37.72C41.03 37.94 40.78 38.17 40.53 38.39C40.49 38.43 40.45 38.47 40.41 38.5C40.16 38.74 39.92 38.99 39.68 39.23C39.61 39.31 39.54 39.38 39.47 39.46C39.21 39.74 38.96 40.02 38.73 40.32C38.61 40.48 38.49 40.63 38.39 40.79C38.37 40.81 38.36 40.83 38.35 40.86C38.27 40.98 38.19 41.1 38.12 41.22C38.11 41.25 38.09 41.27 38.08 41.3C38.02 41.41 37.97 41.51 37.92 41.61C37.9 41.66 37.88 41.71 37.86 41.75C37.83 41.83 37.8 41.91 37.77 41.99C37.73 42.08 37.7 42.18 37.68 42.28C37.66 42.32 37.65 42.36 37.64 42.39C37.6 42.53 37.57 42.66 37.55 42.79C37.5 43.02 37.46 43.27 37.43 43.51C37.39 43.73 37.36 43.94 37.32 44.15C37.31 44.2 37.3 44.24 37.3 44.29C37.28 44.36 37.27 44.43 37.25 44.49C37.25 44.52 37.24 44.54 37.23 44.57L37.19 44.65C37.17 44.68 37.14 44.73 37.12 44.76C37.1 44.79 37.05 44.84 37.02 44.87C36.96 44.93 36.85 45.02 36.78 45.07C36.66 45.13 36.49 45.22 36.35 45.27C36.25 45.3 36.1 45.34 36 45.36C35.93 45.37 35.81 45.39 35.73 45.4C35.66 45.41 35.59 45.41 35.53 45.42C35.48 45.42 35.39 45.42 35.34 45.42C35.28 45.41 35.22 45.41 35.16 45.41C35.1 45.4 35.05 45.4 35 45.39C34.93 45.38 34.85 45.37 34.79 45.35C34.73 45.34 34.66 45.32 34.6 45.31C34.58 45.3 34.51 45.27 34.49 45.27C34.45 45.26 34.41 45.24 34.37 45.23C34.28 45.19 34.19 45.15 34.1 45.1L5.98 28.87C5.63 28.66 5.43 28.38 5.43 28.1L5.45 22.55C5.45 22.83 5.64 23.11 6 23.31L34.12 39.55C34.23 39.61 34.36 39.67 34.5 39.72C34.64 39.76 34.85 39.81 35 39.83C35.16 39.85 35.33 39.86 35.5 39.86C35.67 39.86 35.85 39.84 36.02 39.81C36.12 39.79 36.21 39.76 36.3 39.74C36.44 39.69 36.63 39.61 36.74 39.55C36.82 39.5 36.94 39.42 36.99 39.37C37.02 39.34 37.1 39.26 37.12 39.23C37.15 39.2 37.18 39.14 37.2 39.1C37.22 39.06 37.26 38.98 37.27 38.94C37.29 38.83 37.31 38.71 37.34 38.6C37.37 38.38 37.41 38.17 37.44 37.95C37.48 37.72 37.51 37.49 37.56 37.26C37.59 37.13 37.62 36.97 37.66 36.84C37.67 36.8 37.68 36.76 37.69 36.72C37.72 36.63 37.75 36.53 37.79 36.43C37.81 36.37 37.85 36.26 37.88 36.2C37.9 36.15 37.92 36.11 37.94 36.06C37.98 35.96 38.04 35.85 38.1 35.74C38.11 35.72 38.12 35.69 38.14 35.67C38.2 35.55 38.29 35.42 38.37 35.29C38.38 35.27 38.39 35.25 38.41 35.23C38.51 35.08 38.62 34.93 38.74 34.77C38.97 34.48 39.23 34.19 39.49 33.9C39.56 33.83 39.63 33.75 39.7 33.68C39.93 33.43 40.18 33.19 40.43 32.95C40.46 32.92 40.49 32.89 40.51 32.87C40.76 32.64 41.05 32.39 41.31 32.17L41.5 32.02C41.71 31.85 41.92 31.68 42.14 31.52C42.24 31.44 42.35 31.37 42.45 31.29C42.64 31.15 42.83 31.02 43.03 30.89C43.14 30.81 43.26 30.73 43.38 30.65C43.58 30.52 43.77 30.4 43.97 30.27C44.04 30.23 44.11 30.19 44.18 30.14C44.31 30.06 44.44 29.99 44.57 29.91L48.06 27.88C48.41 27.68 48.73 27.47 49.04 27.25C49.08 27.22 49.13 27.19 49.17 27.16C49.45 26.96 49.72 26.75 49.96 26.53C50 26.5 50.04 26.47 50.08 26.43C50.32 26.21 50.56 25.99 50.77 25.75C50.8 25.72 50.83 25.68 50.87 25.64C51.05 25.43 51.22 25.22 51.38 25C51.4 24.97 51.43 24.93 51.45 24.9C51.61 24.66 51.76 24.42 51.88 24.18C51.91 24.14 51.92 24.1 51.94 24.06C52.06 23.82 52.17 23.58 52.25 23.34C52.26 23.3 52.28 23.26 52.29 23.22C52.37 22.98 52.43 22.73 52.47 22.48L52.49 22.37C52.53 22.11 52.56 21.84 52.56 21.58L52.54 27.13ZM50.27 20.5C50.27 20.54 50.27 20.59 50.26 20.63C50.25 20.65 50.25 20.67 50.24 20.69C50.23 20.73 50.2 20.8 50.18 20.84C50.17 20.85 50.13 20.91 50.12 20.92C50.09 20.96 50.03 21.03 49.99 21.07C49.95 21.1 49.89 21.14 49.85 21.17C49.82 21.2 49.79 21.22 49.76 21.24L49.22 21.56L49.23 16L49.75 15.7C49.79 15.68 49.83 15.65 49.86 15.62C49.91 15.59 49.96 15.56 49.99 15.53C50.05 15.47 50.1 15.42 50.14 15.36C50.18 15.31 50.23 15.22 50.25 15.16C50.27 15.1 50.29 15.01 50.29 14.95L50.27 20.5Z" stroke="#000000" stroke-opacity="0" stroke-width="1.000000"/>
		<path d="M37.27 38.94C37.17 39.34 36.68 39.68 36.02 39.81C35.35 39.94 34.62 39.84 34.12 39.55L6 23.31C5.5 23.03 5.32 22.6 5.54 22.22C5.75 21.83 6.32 21.55 7.01 21.49C7.57 21.44 8.12 21.4 8.69 21.37L9.09 21.35C10.71 21.25 12.3 21.11 14.47 20.51C17.49 19.68 20.23 18.57 22.62 17.22L26.1 15.2C31.67 11.96 40.51 11.72 46.6 14.48L47.11 14.18C47.83 13.76 49.01 13.76 49.74 14.18C50.46 14.6 50.47 15.28 49.75 15.7L49.23 16C54.02 19.52 53.64 24.64 48.06 27.88L44.57 29.91C42.14 31.33 40.18 32.96 38.75 34.76C37.72 36.06 37.59 36.98 37.44 37.95C37.39 38.29 37.34 38.61 37.27 38.94Z" fill="#34AAB8" fill-opacity="1.000000" fill-rule="evenodd"/>
		<path d="M36.02 39.81C35.35 39.94 34.62 39.84 34.12 39.55L6 23.31C5.5 23.03 5.32 22.6 5.54 22.22C5.75 21.83 6.32 21.55 7.01 21.49C7.57 21.44 8.12 21.4 8.69 21.37L9.09 21.35C10.71 21.25 12.3 21.11 14.47 20.51C17.49 19.68 20.23 18.57 22.62 17.22L26.1 15.2C31.67 11.96 40.51 11.72 46.6 14.48L47.11 14.18C47.83 13.76 49.01 13.76 49.74 14.18C50.46 14.6 50.47 15.28 49.75 15.7L49.23 16C54.02 19.52 53.64 24.64 48.06 27.88L44.57 29.91C42.14 31.33 40.18 32.96 38.75 34.76C37.72 36.06 37.59 36.98 37.44 37.95C37.39 38.29 37.34 38.61 37.27 38.94C37.17 39.34 36.68 39.68 36.02 39.81Z" stroke="#000000" stroke-opacity="0" stroke-width="1.000000"/>
		<path d="M35.25 35.31C35.24 35.38 35.19 35.44 35.1 35.49C34.9 35.61 34.58 35.61 34.38 35.49L12.61 22.93C12.54 22.88 12.49 22.82 12.48 22.76C12.45 22.61 12.64 22.48 12.9 22.47C14.99 22.36 16.85 22.07 18.49 21.62C21.81 20.71 24.17 19.57 25.65 18.72L28.55 17.04C32.95 14.49 40.09 14.49 44.52 17.04C48.94 19.6 48.97 23.74 44.57 26.29L41.68 27.97C40.2 28.83 38.14 30.24 36.55 32.26C35.84 33.15 35.41 34.17 35.25 35.31Z" fill="#BEE3EB" fill-opacity="1.000000" fill-rule="evenodd"/>
		<path d="M35.1 35.49C34.9 35.61 34.58 35.61 34.38 35.49L12.61 22.93C12.54 22.88 12.49 22.82 12.48 22.76C12.45 22.61 12.64 22.48 12.9 22.47C14.99 22.36 16.85 22.07 18.49 21.62C21.81 20.71 24.17 19.57 25.65 18.72L28.55 17.04C32.95 14.49 40.09 14.49 44.52 17.04C48.94 19.6 48.97 23.74 44.57 26.29L41.68 27.97C40.2 28.83 38.14 30.24 36.55 32.26C35.84 33.15 35.41 34.17 35.25 35.31C35.24 35.38 35.19 35.44 35.1 35.49Z" stroke="#000000" stroke-opacity="0" stroke-width="1.000000"/>
		<path d="M22.91 37.29C22.91 36.93 22.91 36.55 22.91 36.2L22.91 35.61C22.7 35.64 22.49 35.67 22.28 35.69C22.14 35.71 22 35.74 21.86 35.75C21.53 35.79 21.19 35.8 20.86 35.81C20.77 35.82 20.69 35.81 20.6 35.81C20.36 35.82 20.11 35.81 19.87 35.8C19.77 35.8 19.67 35.79 19.57 35.79C19.52 35.78 19.47 35.78 19.42 35.77C19.21 35.76 19.01 35.74 18.8 35.72C18.74 35.71 18.67 35.7 18.61 35.69C18.29 35.65 17.98 35.6 17.68 35.53C17.59 35.51 17.5 35.49 17.41 35.47C17.19 35.41 16.98 35.36 16.77 35.3C16.61 35.25 16.46 35.19 16.3 35.14C16.12 35.08 15.95 35.01 15.78 34.94C15.71 34.92 15.65 34.89 15.59 34.86C15.32 34.74 15.06 34.62 14.82 34.47C14.23 34.13 13.75 33.75 13.38 33.35C13.35 33.31 13.33 33.28 13.3 33.24C13.28 33.22 13.26 33.19 13.24 33.17C13.12 33.01 13.01 32.86 12.92 32.7C12.89 32.22 12.86 31.74 12.83 31.27L12.84 29.79L12.78 29.9C12.74 29.99 12.7 30.09 12.66 30.18C12.61 30.31 12.57 30.46 12.54 30.6C12.54 30.62 12.53 30.68 12.52 30.71C12.5 30.82 12.49 30.93 12.48 31.05C12.48 31.07 12.48 31.09 12.48 31.11C12.48 31.13 12.47 31.16 12.47 31.18L12.46 36.73C12.46 36.77 12.47 36.81 12.47 36.84C12.47 36.99 12.49 37.15 12.52 37.3C12.57 37.54 12.65 37.78 12.76 38.01C12.89 38.27 13.09 38.57 13.3 38.82C13.32 38.85 13.34 38.87 13.37 38.9C13.61 39.17 13.91 39.43 14.25 39.67C14.42 39.8 14.6 39.91 14.8 40.03C15.04 40.17 15.31 40.3 15.57 40.41C15.6 40.43 15.63 40.45 15.66 40.46C15.7 40.47 15.73 40.48 15.76 40.5C15.82 40.52 15.88 40.55 15.95 40.58C16.06 40.62 16.17 40.65 16.28 40.69C16.44 40.75 16.6 40.8 16.76 40.85C16.81 40.87 16.85 40.88 16.9 40.9C17.06 40.94 17.23 40.98 17.39 41.02C17.48 41.04 17.57 41.07 17.66 41.09C17.69 41.09 17.71 41.1 17.73 41.1C17.99 41.16 18.26 41.2 18.52 41.24C18.55 41.24 18.57 41.24 18.59 41.25C18.66 41.26 18.72 41.26 18.79 41.27C18.96 41.29 19.13 41.31 19.3 41.33C19.39 41.33 19.47 41.34 19.56 41.34C19.65 41.35 19.75 41.35 19.85 41.36C19.93 41.36 20.02 41.37 20.1 41.37C20.26 41.37 20.42 41.37 20.59 41.37C20.67 41.37 20.76 41.37 20.84 41.37C20.87 41.37 20.9 41.37 20.93 41.37C21.24 41.36 21.54 41.34 21.84 41.31C21.99 41.29 22.14 41.26 22.28 41.24C22.48 41.22 22.69 41.2 22.89 41.16L22.91 37.29Z" fill="url(#paint_linear_97_2276_0)" fill-opacity="1.000000" fill-rule="evenodd"/>
		<path d="M22.91 36.2L22.91 35.61C22.7 35.64 22.49 35.67 22.28 35.69C22.14 35.71 22 35.74 21.86 35.75C21.53 35.79 21.19 35.8 20.86 35.81C20.77 35.82 20.69 35.81 20.6 35.81C20.36 35.82 20.11 35.81 19.87 35.8C19.77 35.8 19.67 35.79 19.57 35.79C19.52 35.78 19.47 35.78 19.42 35.77C19.21 35.76 19.01 35.74 18.8 35.72C18.74 35.71 18.67 35.7 18.61 35.69C18.29 35.65 17.98 35.6 17.68 35.53C17.59 35.51 17.5 35.49 17.41 35.47C17.19 35.41 16.98 35.36 16.77 35.3C16.61 35.25 16.46 35.19 16.3 35.14C16.12 35.08 15.95 35.01 15.78 34.94C15.71 34.92 15.65 34.89 15.59 34.86C15.32 34.74 15.06 34.62 14.82 34.47C14.23 34.13 13.75 33.75 13.38 33.35C13.35 33.31 13.33 33.28 13.3 33.24C13.28 33.22 13.26 33.19 13.24 33.17C13.12 33.01 13.01 32.86 12.92 32.7C12.89 32.22 12.86 31.74 12.83 31.27L12.84 29.79L12.78 29.9C12.74 29.99 12.7 30.09 12.66 30.18C12.61 30.31 12.57 30.46 12.54 30.6C12.54 30.62 12.53 30.68 12.52 30.71C12.5 30.82 12.49 30.93 12.48 31.05C12.48 31.07 12.48 31.09 12.48 31.11C12.48 31.13 12.47 31.16 12.47 31.18L12.46 36.73C12.46 36.77 12.47 36.81 12.47 36.84C12.47 36.99 12.49 37.15 12.52 37.3C12.57 37.54 12.65 37.78 12.76 38.01C12.89 38.27 13.09 38.57 13.3 38.82C13.32 38.85 13.34 38.87 13.37 38.9C13.61 39.17 13.91 39.43 14.25 39.67C14.42 39.8 14.6 39.91 14.8 40.03C15.04 40.17 15.31 40.3 15.57 40.41C15.6 40.43 15.63 40.45 15.66 40.46C15.7 40.47 15.73 40.48 15.76 40.5C15.82 40.52 15.88 40.55 15.95 40.58C16.06 40.62 16.17 40.65 16.28 40.69C16.44 40.75 16.6 40.8 16.76 40.85C16.81 40.87 16.85 40.88 16.9 40.9C17.06 40.94 17.23 40.98 17.39 41.02C17.48 41.04 17.57 41.07 17.66 41.09C17.69 41.09 17.71 41.1 17.73 41.1C17.99 41.16 18.26 41.2 18.52 41.24C18.55 41.24 18.57 41.24 18.59 41.25C18.66 41.26 18.72 41.26 18.79 41.27C18.96 41.29 19.13 41.31 19.3 41.33C19.39 41.33 19.47 41.34 19.56 41.34C19.65 41.35 19.75 41.35 19.85 41.36C19.93 41.36 20.02 41.37 20.1 41.37C20.26 41.37 20.42 41.37 20.59 41.37C20.67 41.37 20.76 41.37 20.84 41.37C20.87 41.37 20.9 41.37 20.93 41.37C21.24 41.36 21.54 41.34 21.84 41.31C21.99 41.29 22.14 41.26 22.28 41.24C22.48 41.22 22.69 41.2 22.89 41.16L22.91 37.29C22.91 36.93 22.91 36.55 22.91 36.2Z" stroke="#000000" stroke-opacity="0" stroke-width="1.000000"/>
		<path d="M12.78 29.9L12.84 29.79L22.91 35.6C20.15 36.1 17.01 35.74 14.82 34.48C12.67 33.24 12.02 31.47 12.78 29.9Z" fill="#34AAB8" fill-opacity="1.000000" fill-rule="evenodd"/>
		<path d="M12.84 29.79L22.91 35.6C20.15 36.1 17.01 35.74 14.82 34.48C12.67 33.24 12.02 31.47 12.78 29.9L12.84 29.79Z" stroke="#000000" stroke-opacity="0" stroke-width="1.000000"/>
		<path d="M12.78 29.9L12.84 29.79L22.91 35.6C20.15 36.1 17.01 35.74 14.82 34.48C12.67 33.24 12.02 31.47 12.78 29.9Z" fill="#BEE3EB" fill-opacity="1.000000" fill-rule="evenodd"/>
		<path d="M12.84 29.79L22.91 35.6C20.15 36.1 17.01 35.74 14.82 34.48C12.67 33.24 12.02 31.47 12.78 29.9L12.84 29.79Z" stroke="#000000" stroke-opacity="0" stroke-width="1.000000"/>
		<path d="M46.6 14.48L47.11 14.18C47.83 13.76 49.01 13.76 49.74 14.18C50.46 14.6 50.47 15.28 49.75 15.7L49.23 16C54.02 19.52 53.64 24.64 48.06 27.88L44.57 29.91C42.14 31.33 40.18 32.96 38.75 34.76C38.04 35.67 37.75 36.39 37.6 37.07L37.55 37.32C37.54 37.37 37.53 37.41 37.52 37.45L37.46 37.83L37.44 37.95C37.39 38.29 37.34 38.61 37.27 38.94C37.17 39.34 36.68 39.68 36.02 39.81C35.35 39.94 34.62 39.84 34.12 39.55L6 23.31C5.5 23.03 5.32 22.6 5.54 22.22C5.75 21.83 6.32 21.55 7.01 21.49C7.38 21.45 7.75 21.43 8.13 21.41L9.09 21.35L9.58 21.31L10.09 21.28C11.39 21.17 12.74 20.99 14.47 20.51C17.49 19.68 20.23 18.57 22.62 17.22L26.1 15.2C31.67 11.96 40.51 11.72 46.6 14.48ZM6.95 22.1C6.5 22.17 6.16 22.34 6.06 22.52C6.03 22.57 6.06 22.64 6.24 22.75L6.3 22.79L34.42 39.02C34.79 39.24 35.38 39.32 35.91 39.21C36.36 39.13 36.65 38.93 36.68 38.8L36.71 38.67L36.76 38.42L36.85 37.87C37.07 36.34 37.34 35.57 38.28 34.39C39.69 32.61 41.59 31 43.93 29.59L44.27 29.39L47.76 27.36C52.87 24.39 53.33 19.87 49.03 16.6L48.88 16.49L48.13 15.94L49.45 15.18C49.76 15 49.76 14.89 49.43 14.7C48.93 14.41 48.07 14.39 47.52 14.65L47.42 14.7L46.63 15.16L46.35 15.03C40.48 12.37 32.03 12.6 26.66 15.58L26.4 15.72L22.92 17.74C20.47 19.13 17.69 20.25 14.63 21.09C13 21.54 11.68 21.76 10.01 21.89L9.62 21.92L7.57 22.05L7.06 22.09L6.95 22.1Z" fill="#6DC6D4" fill-opacity="1.000000" fill-rule="nonzero"/>
		<path d="M47.11 14.18C47.83 13.76 49.01 13.76 49.74 14.18C50.46 14.6 50.47 15.28 49.75 15.7L49.23 16C54.02 19.52 53.64 24.64 48.06 27.88L44.57 29.91C42.14 31.33 40.18 32.96 38.75 34.76C38.04 35.67 37.75 36.39 37.6 37.07L37.55 37.32C37.54 37.37 37.53 37.41 37.52 37.45L37.46 37.83L37.44 37.95C37.39 38.29 37.34 38.61 37.27 38.94C37.17 39.34 36.68 39.68 36.02 39.81C35.35 39.94 34.62 39.84 34.12 39.55L6 23.31C5.5 23.03 5.32 22.6 5.54 22.22C5.75 21.83 6.32 21.55 7.01 21.49C7.38 21.45 7.75 21.43 8.13 21.41L9.09 21.35L9.58 21.31L10.09 21.28C11.39 21.17 12.74 20.99 14.47 20.51C17.49 19.68 20.23 18.57 22.62 17.22L26.1 15.2C31.67 11.96 40.51 11.72 46.6 14.48L47.11 14.18ZM6.06 22.52C6.03 22.57 6.06 22.64 6.24 22.75L6.3 22.79L34.42 39.02C34.79 39.24 35.38 39.32 35.91 39.21C36.36 39.13 36.65 38.93 36.68 38.8L36.71 38.67L36.76 38.42L36.85 37.87C37.07 36.34 37.34 35.57 38.28 34.39C39.69 32.61 41.59 31 43.93 29.59L44.27 29.39L47.76 27.36C52.87 24.39 53.33 19.87 49.03 16.6L48.88 16.49L48.13 15.94L49.45 15.18C49.76 15 49.76 14.89 49.43 14.7C48.93 14.41 48.07 14.39 47.52 14.65L47.42 14.7L46.63 15.16L46.35 15.03C40.48 12.37 32.03 12.6 26.66 15.58L26.4 15.72L22.92 17.74C20.47 19.13 17.69 20.25 14.63 21.09C13 21.54 11.68 21.76 10.01 21.89L9.62 21.92L7.57 22.05L7.06 22.09L6.95 22.1C6.5 22.17 6.16 22.34 6.06 22.52Z" stroke="#000000" stroke-opacity="0" stroke-width="1.000000"/>
		<path d="M12.84 29.79L22.91 35.6C20.15 36.1 17.01 35.74 14.82 34.48C12.67 33.24 12.02 31.47 12.78 29.9L12.84 29.79ZM13.14 30.66L13.13 30.75C12.89 31.88 13.56 33.05 15.12 33.95C16.67 34.85 18.8 35.28 20.94 35.21L21.01 35.21L13.14 30.66Z" fill="#6DC6D4" fill-opacity="1.000000" fill-rule="nonzero"/>
		<path d="M22.91 35.6C20.15 36.1 17.01 35.74 14.82 34.48C12.67 33.24 12.02 31.47 12.78 29.9L12.84 29.79L22.91 35.6ZM13.13 30.75C12.89 31.88 13.56 33.05 15.12 33.95C16.67 34.85 18.8 35.28 20.94 35.21L21.01 35.21L13.14 30.66L13.13 30.75Z" stroke="#000000" stroke-opacity="0" stroke-width="1.000000"/>
		<path d="M37.42 45.33L37.51 45.24L37.6 45.14L37.68 45.02L37.73 44.92L37.78 44.8C37.81 44.75 37.82 44.7 37.84 44.65L37.87 44.49L37.96 43.97L38.02 43.6L38.11 43.07L38.14 42.88C38.16 42.82 38.17 42.74 38.19 42.67L38.25 42.48C38.27 42.41 38.29 42.33 38.31 42.27L38.35 42.15L38.47 41.87L38.53 41.74L38.64 41.52C38.67 41.47 38.7 41.42 38.74 41.37L38.9 41.11C38.99 40.98 39.09 40.84 39.21 40.69C39.28 40.61 39.34 40.52 39.42 40.43L39.65 40.16L40.01 39.77L40.12 39.65C40.27 39.49 40.43 39.33 40.59 39.18L40.94 38.84C41.1 38.69 41.26 38.54 41.43 38.4L41.7 38.17L42.19 37.79C42.24 37.74 42.29 37.71 42.34 37.67L42.59 37.48L42.79 37.34C42.92 37.24 43.04 37.15 43.17 37.07L43.47 36.86L43.7 36.71C43.82 36.63 43.94 36.55 44.07 36.47L44.62 36.13L44.74 36.05L48.45 33.9L48.55 33.84C48.75 33.71 48.96 33.58 49.16 33.44L49.46 33.24C49.76 33.02 50.08 32.77 50.34 32.54L50.6 32.32C50.81 32.12 51 31.93 51.2 31.72L51.51 31.36L51.63 31.21L51.7 31.12L51.92 30.81C52.07 30.59 52.19 30.4 52.3 30.21L52.47 29.89C52.59 29.65 52.68 29.45 52.75 29.25L52.85 28.96C52.93 28.72 52.99 28.5 53.03 28.28L53.07 28.02L53.1 27.79C53.12 27.67 53.13 27.56 53.14 27.45L53.15 27.19L53.16 21.56L53.16 21.36C53.1 19.73 52.37 18.15 51.03 16.76L50.89 16.62L50.89 14.95L50.89 15.01C50.92 14.46 50.59 13.98 50.04 13.66L49.9 13.59C48.99 13.13 47.68 13.15 46.81 13.66L46.56 13.8L46.26 13.67C39.98 11.09 31.32 11.46 25.79 14.67L22.32 16.7C19.97 18.02 17.28 19.11 14.31 19.93C12.8 20.34 11.64 20.54 10.06 20.67L9.4 20.72L7.48 20.84L6.96 20.88C6.09 20.97 5.34 21.34 5.01 21.93C4.9 22.12 4.84 22.33 4.84 22.55L4.83 28.1L4.83 28.21L4.85 28.33C4.94 28.78 5.24 29.14 5.68 29.39L11.87 32.96L11.85 36.74L11.86 36.83L11.87 36.89C11.87 37.05 11.89 37.23 11.93 37.42C11.99 37.72 12.09 38 12.22 38.27L12.25 38.35L12.34 38.5C12.44 38.69 12.56 38.87 12.7 39.04L12.85 39.22L12.93 39.31L12.85 39.22C13.16 39.57 13.53 39.9 13.9 40.17C14.02 40.26 14.15 40.34 14.29 40.43L14.49 40.55C14.69 40.66 14.9 40.77 15.14 40.88L15.33 40.97L15.43 41.02L15.52 41.05L15.69 41.12L15.78 41.16L16.19 41.3L16.44 41.38L16.62 41.44L16.7 41.47L16.85 41.51L17.6 41.69L17.88 41.75L18.16 41.8L18.51 41.85L19.14 41.92L19.33 41.93L20.08 41.97L20.93 41.97L21.26 41.96C21.48 41.94 21.69 41.93 21.9 41.91L22.08 41.88L22.51 41.82L22.82 41.78L23.04 41.75C23.3 41.68 23.5 41.45 23.5 41.16L23.51 39.68L33.8 45.62L33.9 45.68C33.99 45.72 34.07 45.76 34.15 45.79L34.4 45.88C34.46 45.9 34.59 45.93 34.67 45.95L34.79 45.97L34.9 45.98L35.11 46.01C35.18 46.01 35.25 46.02 35.32 46.02L35.41 46.02L35.53 46.02L35.66 46.01L35.78 46C35.85 46 35.91 45.99 35.97 45.98L36.11 45.96L36.24 45.93L36.35 45.9L36.44 45.87L36.5 45.86L36.67 45.8C36.75 45.76 36.84 45.72 36.91 45.68L37.1 45.58L37.21 45.51C37.24 45.49 37.27 45.46 37.3 45.44L37.42 45.33ZM46.6 14.48L47.11 14.18C47.83 13.76 49.01 13.76 49.74 14.18C50.12 14.4 50.3 14.69 50.29 14.98L50.28 16.87C51.74 18.25 52.49 19.81 52.55 21.37L52.56 21.58L52.54 27.13C52.54 27.18 52.54 27.22 52.54 27.27C52.54 27.42 52.52 27.56 52.51 27.71L52.47 27.93L52.44 28.16C52.41 28.3 52.37 28.44 52.33 28.57L52.25 28.83L52.19 29.04C52.11 29.23 52.02 29.42 51.93 29.62L51.77 29.92C51.67 30.1 51.56 30.27 51.44 30.45L51.36 30.55C51.29 30.65 51.23 30.75 51.15 30.84L51 31.02L50.75 31.31C50.58 31.5 50.4 31.68 50.2 31.86L49.95 32.09C49.7 32.3 49.44 32.51 49.15 32.72L49.03 32.8C48.78 32.98 48.52 33.15 48.24 33.32L44.56 35.46C44.35 35.58 44.15 35.7 43.96 35.83L43.66 36.01L43.37 36.2C43.25 36.28 43.13 36.36 43.01 36.44L42.72 36.64L42.43 36.85C42.33 36.92 42.23 36.99 42.13 37.07C41.9 37.24 41.69 37.4 41.48 37.57L41.3 37.72C41.03 37.94 40.78 38.17 40.53 38.39L40.41 38.5C40.16 38.74 39.92 38.99 39.68 39.23L39.47 39.46C39.21 39.74 38.96 40.02 38.73 40.32C38.61 40.48 38.49 40.63 38.39 40.79L38.35 40.86C38.27 40.98 38.19 41.1 38.12 41.22L38.08 41.3C38.02 41.41 37.97 41.51 37.92 41.62L37.86 41.75C37.83 41.83 37.8 41.91 37.77 41.99L37.72 42.13L37.64 42.39L37.59 42.59L37.54 42.81C37.5 43.04 37.46 43.27 37.43 43.51L37.37 43.83L37.3 44.29L37.25 44.49L37.23 44.57L37.18 44.68L37.1 44.79C37.08 44.82 37.05 44.84 37.02 44.87C36.96 44.93 36.85 45.02 36.78 45.07C36.7 45.11 36.57 45.18 36.48 45.22L36.35 45.27C36.28 45.29 36.17 45.33 36.1 45.34L35.96 45.37C35.88 45.38 35.81 45.39 35.73 45.4L35.63 45.41L35.53 45.42L35.34 45.42C35.28 45.41 35.22 45.41 35.16 45.41L35.08 45.4L34.98 45.39C34.92 45.38 34.85 45.37 34.79 45.35C34.73 45.34 34.66 45.32 34.6 45.31L34.37 45.23C34.31 45.2 34.25 45.18 34.19 45.15L34.1 45.1L22.91 38.64L22.9 41.16L22.69 41.19L22.28 41.24L22.06 41.28L21.84 41.31C21.64 41.33 21.44 41.34 21.24 41.35L20.93 41.37L20.59 41.37C20.42 41.37 20.26 41.37 20.1 41.37L19.3 41.33L19.05 41.3L18.52 41.24C18.35 41.22 18.17 41.19 17.99 41.15L17.73 41.1L17.66 41.09C17.57 41.07 17.48 41.04 17.39 41.02C17.23 40.98 17.06 40.94 16.9 40.9L16.76 40.85C16.6 40.8 16.44 40.75 16.28 40.69C16.17 40.65 16.05 40.62 15.95 40.58L15.76 40.5L15.66 40.46L15.57 40.41C15.39 40.34 15.22 40.25 15.05 40.16L14.8 40.03L14.61 39.91C14.48 39.84 14.36 39.76 14.25 39.67C13.98 39.48 13.73 39.28 13.53 39.07L13.37 38.9L13.3 38.82C13.13 38.62 12.99 38.42 12.87 38.22L12.78 38.06C12.67 37.83 12.57 37.54 12.52 37.3C12.49 37.15 12.47 36.99 12.47 36.84L12.46 36.73L12.47 32.61L5.98 28.87C5.66 28.68 5.47 28.43 5.44 28.18L5.43 28.1L5.45 22.55C5.45 22.44 5.48 22.33 5.54 22.22C5.75 21.83 6.32 21.55 7.01 21.49C7.38 21.46 7.75 21.43 8.13 21.41L9.34 21.33L9.82 21.3C11.2 21.19 12.62 21.02 14.47 20.51C17.49 19.68 20.23 18.57 22.62 17.22L26.1 15.2C31.67 11.96 40.51 11.72 46.6 14.48Z" fill="#205A62" fill-opacity="1.000000" fill-rule="nonzero"/>
		<path d="M12.85 39.22C13.16 39.57 13.53 39.9 13.9 40.17C14.02 40.26 14.15 40.34 14.29 40.43L14.49 40.55C14.69 40.66 14.9 40.77 15.14 40.88L15.33 40.97L15.43 41.02L15.52 41.05L15.69 41.12L15.78 41.16L16.19 41.3L16.44 41.38L16.62 41.44L16.7 41.47L16.85 41.51L17.6 41.69L17.88 41.75L18.16 41.8L18.51 41.85L19.14 41.92L19.33 41.93L20.08 41.97L20.93 41.97L21.26 41.96C21.48 41.94 21.69 41.93 21.9 41.91L22.08 41.88L22.51 41.82L22.82 41.78L23.04 41.75C23.3 41.68 23.5 41.45 23.5 41.16L23.51 39.68L33.8 45.62L33.9 45.68C33.99 45.72 34.07 45.76 34.15 45.79L34.4 45.88C34.46 45.9 34.59 45.93 34.67 45.95L34.79 45.97L34.9 45.98L35.11 46.01C35.18 46.01 35.25 46.02 35.32 46.02L35.41 46.02L35.53 46.02L35.66 46.01L35.78 46C35.85 46 35.91 45.99 35.97 45.98L36.11 45.96L36.24 45.93L36.35 45.9L36.44 45.87L36.5 45.86L36.67 45.8C36.75 45.76 36.84 45.72 36.91 45.68L37.1 45.58L37.21 45.51C37.24 45.49 37.27 45.46 37.3 45.44L37.42 45.33L37.51 45.24L37.6 45.14L37.68 45.02L37.73 44.92L37.78 44.8C37.81 44.75 37.82 44.7 37.84 44.65L37.87 44.49L37.96 43.97L38.02 43.6L38.11 43.07L38.14 42.88C38.16 42.82 38.17 42.74 38.19 42.67L38.25 42.48C38.27 42.41 38.29 42.33 38.31 42.27L38.35 42.15L38.47 41.87L38.53 41.74L38.64 41.52C38.67 41.47 38.7 41.42 38.74 41.37L38.9 41.11C38.99 40.98 39.09 40.84 39.21 40.69C39.28 40.61 39.34 40.52 39.42 40.43L39.65 40.16L40.01 39.77L40.12 39.65C40.27 39.49 40.43 39.33 40.59 39.18L40.94 38.84C41.1 38.69 41.26 38.54 41.43 38.4L41.7 38.17L42.19 37.79C42.24 37.74 42.29 37.71 42.34 37.67L42.59 37.48L42.79 37.34C42.92 37.24 43.04 37.15 43.17 37.07L43.47 36.86L43.7 36.71C43.82 36.63 43.94 36.55 44.07 36.47L44.62 36.13L44.74 36.05L48.45 33.9L48.55 33.84C48.75 33.71 48.96 33.58 49.16 33.44L49.46 33.24C49.76 33.02 50.08 32.77 50.34 32.54L50.6 32.32C50.81 32.12 51 31.93 51.2 31.72L51.51 31.36L51.63 31.21L51.7 31.12L51.92 30.81C52.07 30.59 52.19 30.4 52.3 30.21L52.47 29.89C52.59 29.65 52.68 29.45 52.75 29.25L52.85 28.96C52.93 28.72 52.99 28.5 53.03 28.28L53.07 28.02L53.1 27.79C53.12 27.67 53.13 27.56 53.14 27.45L53.15 27.19L53.16 21.56L53.16 21.36C53.1 19.73 52.37 18.15 51.03 16.76L50.89 16.62L50.89 14.95L50.89 15.01C50.92 14.46 50.59 13.98 50.04 13.66L49.9 13.59C48.99 13.13 47.68 13.15 46.81 13.66L46.56 13.8L46.26 13.67C39.98 11.09 31.32 11.46 25.79 14.67L22.32 16.7C19.97 18.02 17.28 19.11 14.31 19.93C12.8 20.34 11.64 20.54 10.06 20.67L9.4 20.72L7.48 20.84L6.96 20.88C6.09 20.97 5.34 21.34 5.01 21.93C4.9 22.12 4.84 22.33 4.84 22.55L4.83 28.1L4.83 28.21L4.85 28.33C4.94 28.78 5.24 29.14 5.68 29.39L11.87 32.96L11.85 36.74L11.86 36.83L11.87 36.89C11.87 37.05 11.89 37.23 11.93 37.42C11.99 37.72 12.09 38 12.22 38.27L12.25 38.35L12.34 38.5C12.44 38.69 12.56 38.87 12.7 39.04L12.85 39.22L12.93 39.31M47.11 14.18C47.83 13.76 49.01 13.76 49.74 14.18C50.12 14.4 50.3 14.69 50.29 14.98L50.28 16.87C51.74 18.25 52.49 19.81 52.55 21.37L52.56 21.58L52.54 27.13C52.54 27.18 52.54 27.22 52.54 27.27C52.54 27.42 52.52 27.56 52.51 27.71L52.47 27.93L52.44 28.16C52.41 28.3 52.37 28.44 52.33 28.57L52.25 28.83L52.19 29.04C52.11 29.23 52.02 29.42 51.93 29.62L51.77 29.92C51.67 30.1 51.56 30.27 51.44 30.45L51.36 30.55C51.29 30.65 51.23 30.75 51.15 30.84L51 31.02L50.75 31.31C50.58 31.5 50.4 31.68 50.2 31.86L49.95 32.09C49.7 32.3 49.44 32.51 49.15 32.72L49.03 32.8C48.78 32.98 48.52 33.15 48.24 33.32L44.56 35.46C44.35 35.58 44.15 35.7 43.96 35.83L43.66 36.01L43.37 36.2C43.25 36.28 43.13 36.36 43.01 36.44L42.72 36.64L42.43 36.85C42.33 36.92 42.23 36.99 42.13 37.07C41.9 37.24 41.69 37.4 41.48 37.57L41.3 37.72C41.03 37.94 40.78 38.17 40.53 38.39L40.41 38.5C40.16 38.74 39.92 38.99 39.68 39.23L39.47 39.46C39.21 39.74 38.96 40.02 38.73 40.32C38.61 40.48 38.49 40.63 38.39 40.79L38.35 40.86C38.27 40.98 38.19 41.1 38.12 41.22L38.08 41.3C38.02 41.41 37.97 41.51 37.92 41.62L37.86 41.75C37.83 41.83 37.8 41.91 37.77 41.99L37.72 42.13L37.64 42.39L37.59 42.59L37.54 42.81C37.5 43.04 37.46 43.27 37.43 43.51L37.37 43.83L37.3 44.29L37.25 44.49L37.23 44.57L37.18 44.68L37.1 44.79C37.08 44.82 37.05 44.84 37.02 44.87C36.96 44.93 36.85 45.02 36.78 45.07C36.7 45.11 36.57 45.18 36.48 45.22L36.35 45.27C36.28 45.29 36.17 45.33 36.1 45.34L35.96 45.37C35.88 45.38 35.81 45.39 35.73 45.4L35.63 45.41L35.53 45.42L35.34 45.42C35.28 45.41 35.22 45.41 35.16 45.41L35.08 45.4L34.98 45.39C34.92 45.38 34.85 45.37 34.79 45.35C34.73 45.34 34.66 45.32 34.6 45.31L34.37 45.23C34.31 45.2 34.25 45.18 34.19 45.15L34.1 45.1L22.91 38.64L22.9 41.16L22.69 41.19L22.28 41.24L22.06 41.28L21.84 41.31C21.64 41.33 21.44 41.34 21.24 41.35L20.93 41.37L20.59 41.37C20.42 41.37 20.26 41.37 20.1 41.37L19.3 41.33L19.05 41.3L18.52 41.24C18.35 41.22 18.17 41.19 17.99 41.15L17.73 41.1L17.66 41.09C17.57 41.07 17.48 41.04 17.39 41.02C17.23 40.98 17.06 40.94 16.9 40.9L16.76 40.85C16.6 40.8 16.44 40.75 16.28 40.69C16.17 40.65 16.05 40.62 15.95 40.58L15.76 40.5L15.66 40.46L15.57 40.41C15.39 40.34 15.22 40.25 15.05 40.16L14.8 40.03L14.61 39.91C14.48 39.84 14.36 39.76 14.25 39.67C13.98 39.48 13.73 39.28 13.53 39.07L13.37 38.9L13.3 38.82C13.13 38.62 12.99 38.42 12.87 38.22L12.78 38.06C12.67 37.83 12.57 37.54 12.52 37.3C12.49 37.15 12.47 36.99 12.47 36.84L12.46 36.73L12.47 32.61L5.98 28.87C5.66 28.68 5.47 28.43 5.44 28.18L5.43 28.1L5.45 22.55C5.45 22.44 5.48 22.33 5.54 22.22C5.75 21.83 6.32 21.55 7.01 21.49C7.38 21.46 7.75 21.43 8.13 21.41L9.34 21.33L9.82 21.3C11.2 21.19 12.62 21.02 14.47 20.51C17.49 19.68 20.23 18.57 22.62 17.22L26.1 15.2C31.67 11.96 40.51 11.72 46.6 14.48L47.11 14.18Z" stroke="#000000" stroke-opacity="0" stroke-width="1.000000"/>
	</g>
</svg>
