<svg width="58.000000" height="58.000000" viewBox="0 0 58 58" fill="none" xmlns="http://www.w3.org/2000/svg" xmlns:xlink="http://www.w3.org/1999/xlink">
	<desc>
			Created with Pixso.
	</desc>
	<defs>
		<clipPath id="clip97_2432">
			<rect width="58.000000" height="58.000000" fill="white" fill-opacity="0"/>
		</clipPath>
		<linearGradient x1="5.437500" y1="32.023075" x2="52.562832" y2="32.023075" id="paint_linear_97_2440_0" gradientUnits="userSpaceOnUse">
			<stop stop-color="#C458FF"/>
			<stop offset="0.301868" stop-color="#C03EFF"/>
			<stop offset="0.424654" stop-color="#D4A7F7"/>
			<stop offset="0.509129" stop-color="#C03EFF"/>
			<stop offset="1.000000" stop-color="#AD10EB"/>
		</linearGradient>
	</defs>
	<g clip-path="url(#clip97_2432)">
		<rect width="58.000000" height="58.000000" fill="#000000" fill-opacity="0"/>
		<rect width="58.000000" height="58.000000" stroke="#000000" stroke-opacity="0" stroke-width="1.000000"/>
		<path d="M51.67 23.03C52.85 23.71 52.85 24.81 51.69 25.49L27.21 39.72C26.54 40.1 25.58 40.24 24.68 40.07C24.29 40 23.95 39.88 23.67 39.72C23.31 39.51 23.06 39.24 22.97 38.93L20.68 31.17L7.27 29.87C6.86 29.66 6.63 29.56 6.39 29.37C5.09 28.32 5.34 27.74 5.9 27.42L30.38 13.19C31.55 12.51 33.45 12.51 34.62 13.19L51.67 23.03Z" fill="#C458FF" fill-opacity="1.000000" fill-rule="evenodd"/>
		<path d="M51.69 25.49L27.21 39.72C26.54 40.1 25.58 40.24 24.68 40.07C24.29 40 23.95 39.88 23.67 39.72C23.31 39.51 23.06 39.24 22.97 38.93L20.68 31.17L7.27 29.87C6.86 29.66 6.63 29.56 6.39 29.37C5.09 28.32 5.34 27.74 5.9 27.42L30.38 13.19C31.55 12.51 33.45 12.51 34.62 13.19L51.67 23.03C52.85 23.71 52.85 24.81 51.69 25.49Z" stroke="#000000" stroke-opacity="0" stroke-width="1.000000"/>
		<path d="M46.99 23.04C47.87 23.55 47.87 24.37 47 24.88L28.69 35.52C28.19 35.81 27.47 35.91 26.8 35.79C26.51 35.73 26.25 35.64 26.04 35.52C25.77 35.36 25.58 35.16 25.51 34.93L23.8 29.13L13.84 28.01C13.49 27.92 13.29 27.92 13.11 27.78C12.14 27 12.33 26.56 12.75 26.32L31.06 15.68C31.93 15.17 33.35 15.17 34.23 15.68L46.99 23.04Z" fill="#EFE4F9" fill-opacity="1.000000" fill-rule="evenodd"/>
		<path d="M47 24.88L28.69 35.52C28.19 35.81 27.47 35.91 26.8 35.79C26.51 35.73 26.25 35.64 26.04 35.52C25.77 35.36 25.58 35.16 25.51 34.93L23.8 29.13L13.84 28.01C13.49 27.92 13.29 27.92 13.11 27.78C12.14 27 12.33 26.56 12.75 26.32L31.06 15.68C31.93 15.17 33.35 15.17 34.23 15.68L46.99 23.04C47.87 23.55 47.87 24.37 47 24.88Z" stroke="#000000" stroke-opacity="0" stroke-width="1.000000"/>
		<path d="M34.62 13.19L51.67 23.03C52.85 23.71 52.85 24.81 51.69 25.49L27.21 39.72C26.54 40.1 25.58 40.24 24.68 40.07C24.29 40 23.95 39.88 23.67 39.72C23.31 39.51 23.06 39.24 22.97 38.93L20.68 31.17L7.27 29.87L6.91 29.69L6.72 29.59C6.6 29.52 6.49 29.45 6.39 29.37C5.16 28.39 5.32 27.81 5.81 27.48L5.9 27.42L30.38 13.19C31.55 12.51 33.45 12.51 34.62 13.19ZM34.32 13.72C33.38 13.17 31.81 13.14 30.82 13.64L30.68 13.71L6.21 27.94C6.01 28.06 5.95 28.15 6.21 28.41L6.31 28.51L6.44 28.62L6.67 28.82L6.77 28.9C6.85 28.96 6.92 29.01 7.02 29.06L7.18 29.15L7.44 29.28L20.74 30.57C20.96 30.59 21.15 30.73 21.23 30.93L21.26 31L23.55 38.76C23.59 38.9 23.73 39.05 23.97 39.19C24.19 39.32 24.47 39.42 24.79 39.48C25.5 39.61 26.26 39.52 26.79 39.25L26.9 39.19L51.38 24.97C52.12 24.54 52.14 24.04 51.45 23.61L51.37 23.56L34.32 13.72Z" fill="#D4A7F7" fill-opacity="1.000000" fill-rule="nonzero"/>
		<path d="M51.67 23.03C52.85 23.71 52.85 24.81 51.69 25.49L27.21 39.72C26.54 40.1 25.58 40.24 24.68 40.07C24.29 40 23.95 39.88 23.67 39.72C23.31 39.51 23.06 39.24 22.97 38.93L20.68 31.17L7.27 29.87L6.91 29.69L6.72 29.59C6.6 29.52 6.49 29.45 6.39 29.37C5.16 28.39 5.32 27.81 5.81 27.48L5.9 27.42L30.38 13.19C31.55 12.51 33.45 12.51 34.62 13.19L51.67 23.03ZM30.82 13.64L30.68 13.71L6.21 27.94C6.01 28.06 5.95 28.15 6.21 28.41L6.31 28.51L6.44 28.62L6.67 28.82L6.77 28.9C6.85 28.96 6.92 29.01 7.02 29.06L7.18 29.15L7.44 29.28L20.74 30.57C20.96 30.59 21.15 30.73 21.23 30.93L21.26 31L23.55 38.76C23.59 38.9 23.73 39.05 23.97 39.19C24.19 39.32 24.47 39.42 24.79 39.48C25.5 39.61 26.26 39.52 26.79 39.25L26.9 39.19L51.38 24.97C52.12 24.54 52.14 24.04 51.45 23.61L51.37 23.56L34.32 13.72C33.38 13.17 31.81 13.14 30.82 13.64Z" stroke="#000000" stroke-opacity="0" stroke-width="1.000000"/>
		<path d="M52.5 24.61C52.46 24.71 52.41 24.8 52.35 24.89C52.29 24.98 52.17 25.12 52.08 25.21C51.97 25.3 51.82 25.41 51.69 25.49L27.21 39.72C27.12 39.77 27.04 39.81 26.94 39.85C26.91 39.86 26.87 39.88 26.84 39.89C26.78 39.91 26.72 39.94 26.65 39.96C26.53 40 26.37 40.04 26.23 40.06C26.19 40.07 26.15 40.08 26.1 40.09C26.05 40.1 26 40.1 25.95 40.11C25.89 40.12 25.83 40.12 25.76 40.13C25.73 40.13 25.69 40.13 25.65 40.14C25.57 40.14 25.49 40.14 25.4 40.14C25.3 40.14 25.15 40.13 25.05 40.12C25.02 40.12 24.99 40.12 24.97 40.11C24.87 40.1 24.78 40.09 24.68 40.07C24.51 40.04 24.34 40 24.19 39.94C24.16 39.93 24.13 39.92 24.1 39.91C23.94 39.86 23.8 39.79 23.67 39.72C23.31 39.51 23.06 39.24 22.97 38.93L20.68 31.17C11.74 30.31 7.27 29.87 7.27 29.87C6.88 29.67 6.64 29.57 6.39 29.37C5.73 28.83 5.45 28.29 5.45 28L5.43 32.9C5.43 33.19 5.51 33.75 6.23 34.31C6.46 34.5 6.92 34.55 7.27 34.66C7.51 34.73 11.97 35.2 20.66 36.07L22.95 43.83C23.04 44.14 23.29 44.41 23.65 44.61C23.76 44.68 23.88 44.74 24.01 44.79C24.04 44.8 24.06 44.8 24.09 44.81C24.11 44.82 24.14 44.83 24.17 44.84C24.22 44.86 24.27 44.88 24.32 44.89C24.41 44.92 24.5 44.94 24.6 44.96C24.62 44.96 24.64 44.97 24.67 44.97C24.72 44.98 24.78 44.99 24.83 45C24.87 45 24.91 45.01 24.95 45.01C24.98 45.01 25.01 45.02 25.03 45.02C25.11 45.03 25.24 45.04 25.32 45.04C25.34 45.04 25.37 45.04 25.39 45.04C25.45 45.04 25.51 45.04 25.57 45.04C25.6 45.04 25.62 45.03 25.64 45.03C25.68 45.03 25.71 45.03 25.75 45.03C25.78 45.02 25.82 45.02 25.85 45.02C25.88 45.02 25.91 45.01 25.93 45.01C25.99 45 26.04 44.99 26.09 44.99C26.12 44.98 26.14 44.98 26.17 44.97C26.3 44.95 26.49 44.9 26.61 44.86C26.68 44.84 26.77 44.81 26.84 44.78C26.87 44.77 26.9 44.76 26.93 44.75C27.02 44.71 27.11 44.66 27.19 44.61L51.67 30.39C51.79 30.32 51.93 30.22 52.03 30.13C52.1 30.07 52.22 29.95 52.27 29.89C52.29 29.87 52.33 29.81 52.34 29.79C52.36 29.76 52.38 29.73 52.4 29.71C52.43 29.65 52.45 29.59 52.47 29.54C52.49 29.5 52.52 29.4 52.52 29.37C52.53 29.31 52.54 29.25 52.54 29.19L52.56 24.27C52.56 24.37 52.53 24.51 52.5 24.61Z" fill="url(#paint_linear_97_2440_0)" fill-opacity="1.000000" fill-rule="evenodd"/>
		<path d="M52.35 24.89C52.29 24.98 52.17 25.12 52.08 25.21C51.97 25.3 51.82 25.41 51.69 25.49L27.21 39.72C27.12 39.77 27.04 39.81 26.94 39.85C26.91 39.86 26.87 39.88 26.84 39.89C26.78 39.91 26.72 39.94 26.65 39.96C26.53 40 26.37 40.04 26.23 40.06C26.19 40.07 26.15 40.08 26.1 40.09C26.05 40.1 26 40.1 25.95 40.11C25.89 40.12 25.83 40.12 25.76 40.13C25.73 40.13 25.69 40.13 25.65 40.14C25.57 40.14 25.49 40.14 25.4 40.14C25.3 40.14 25.15 40.13 25.05 40.12C25.02 40.12 24.99 40.12 24.97 40.11C24.87 40.1 24.78 40.09 24.68 40.07C24.51 40.04 24.34 40 24.19 39.94C24.16 39.93 24.13 39.92 24.1 39.91C23.94 39.86 23.8 39.79 23.67 39.72C23.31 39.51 23.06 39.24 22.97 38.93L20.68 31.17C11.74 30.31 7.27 29.87 7.27 29.87C6.88 29.67 6.64 29.57 6.39 29.37C5.73 28.83 5.45 28.29 5.45 28L5.43 32.9C5.43 33.19 5.51 33.75 6.23 34.31C6.46 34.5 6.92 34.55 7.27 34.66C7.51 34.73 11.97 35.2 20.66 36.07L22.95 43.83C23.04 44.14 23.29 44.41 23.65 44.61C23.76 44.68 23.88 44.74 24.01 44.79C24.04 44.8 24.06 44.8 24.09 44.81C24.11 44.82 24.14 44.83 24.17 44.84C24.22 44.86 24.27 44.88 24.32 44.89C24.41 44.92 24.5 44.94 24.6 44.96C24.62 44.96 24.64 44.97 24.67 44.97C24.72 44.98 24.78 44.99 24.83 45C24.87 45 24.91 45.01 24.95 45.01C24.98 45.01 25.01 45.02 25.03 45.02C25.11 45.03 25.24 45.04 25.32 45.04C25.34 45.04 25.37 45.04 25.39 45.04C25.45 45.04 25.51 45.04 25.57 45.04C25.6 45.04 25.62 45.03 25.64 45.03C25.68 45.03 25.71 45.03 25.75 45.03C25.78 45.02 25.82 45.02 25.85 45.02C25.88 45.02 25.91 45.01 25.93 45.01C25.99 45 26.04 44.99 26.09 44.99C26.12 44.98 26.14 44.98 26.17 44.97C26.3 44.95 26.49 44.9 26.61 44.86C26.68 44.84 26.77 44.81 26.84 44.78C26.87 44.77 26.9 44.76 26.93 44.75C27.02 44.71 27.11 44.66 27.19 44.61L51.67 30.39C51.79 30.32 51.93 30.22 52.03 30.13C52.1 30.07 52.22 29.95 52.27 29.89C52.29 29.87 52.33 29.81 52.34 29.79C52.36 29.76 52.38 29.73 52.4 29.71C52.43 29.65 52.45 29.59 52.47 29.54C52.49 29.5 52.52 29.4 52.52 29.37C52.53 29.31 52.54 29.25 52.54 29.19L52.56 24.27C52.56 24.37 52.53 24.51 52.5 24.61C52.46 24.71 52.41 24.8 52.35 24.89Z" stroke="#000000" stroke-opacity="0" stroke-width="1.000000"/>
		<path d="M52.75 30.26L52.85 30.11C52.87 30.08 52.89 30.06 52.9 30.03C52.95 29.96 53.01 29.83 53.04 29.74L53.09 29.6L53.11 29.52C53.13 29.42 53.14 29.35 53.14 29.28L53.15 29.17L53.16 24.27C53.17 23.57 52.73 22.95 51.97 22.51L34.93 12.67C33.56 11.88 31.43 11.88 30.08 12.67L5.6 26.89L5.5 26.95C5.13 27.2 4.88 27.53 4.84 27.97L5.14 27.99L4.84 27.97L4.84 28.04L4.84 28.13L4.83 32.96C4.85 33.6 5.15 34.23 5.85 34.79C6.02 34.92 6.17 34.99 6.43 35.07L6.65 35.12L6.97 35.2L7.12 35.24L7.19 35.25L7.43 35.29L8.57 35.43L12.25 35.82L20.2 36.63L22.37 44L22.42 44.12C22.59 44.55 22.91 44.89 23.35 45.14C23.49 45.22 23.64 45.29 23.79 45.35L24.12 45.46L24.31 45.51L24.53 45.56L24.74 45.6L25.01 45.63L25.24 45.64L25.34 45.64L25.54 45.64L25.9 45.62L26.25 45.57L26.48 45.52L26.64 45.48L26.84 45.43L26.94 45.39L27.16 45.3C27.28 45.25 27.39 45.2 27.5 45.14L52.01 30.89L52.16 30.8C52.2 30.76 52.25 30.73 52.29 30.7L52.48 30.55C52.57 30.46 52.68 30.35 52.75 30.26ZM5.9 27.42L30.38 13.19C31.55 12.51 33.45 12.51 34.62 13.19L51.67 23.03C52.27 23.38 52.56 23.83 52.56 24.28L52.54 29.19C52.54 29.25 52.53 29.31 52.52 29.37L52.47 29.54C52.45 29.59 52.43 29.65 52.4 29.71L52.27 29.88C52.22 29.95 52.16 30.02 52.09 30.09C51.99 30.17 51.83 30.29 51.71 30.37L27.19 44.61C27.11 44.66 27.02 44.71 26.93 44.75L26.84 44.78L26.74 44.82L26.63 44.86C26.55 44.89 26.44 44.91 26.35 44.93L26.22 44.96L26.01 45L25.85 45.02L25.57 45.04L25.48 45.04L25.32 45.04C25.24 45.04 25.16 45.03 25.07 45.03L24.83 45L24.75 44.99L24.63 44.96C24.54 44.94 24.41 44.91 24.32 44.89L24.01 44.79C23.88 44.74 23.76 44.68 23.65 44.61C23.33 44.43 23.1 44.19 22.98 43.92L22.95 43.83L20.66 36.07L12.1 35.2L8.48 34.81L7.48 34.69L7.32 34.67C7.24 34.64 7.11 34.61 7.02 34.59L6.77 34.53C6.56 34.48 6.36 34.42 6.23 34.31C5.59 33.81 5.46 33.31 5.44 33L5.43 32.9L5.45 28.1L5.45 28.02C5.47 27.75 5.66 27.56 5.9 27.42Z" fill="#8217B0" fill-opacity="1.000000" fill-rule="nonzero"/>
		<path d="M52.85 30.11C52.87 30.08 52.89 30.06 52.9 30.03C52.95 29.96 53.01 29.83 53.04 29.74L53.09 29.6L53.11 29.52C53.13 29.42 53.14 29.35 53.14 29.28L53.15 29.17L53.16 24.27C53.17 23.57 52.73 22.95 51.97 22.51L34.93 12.67C33.56 11.88 31.43 11.88 30.08 12.67L5.6 26.89L5.5 26.95C5.13 27.2 4.88 27.53 4.84 27.97L4.84 28.04L4.84 28.13L4.83 32.96C4.85 33.6 5.15 34.23 5.85 34.79C6.02 34.92 6.17 34.99 6.43 35.07L6.65 35.12L6.97 35.2L7.12 35.24L7.19 35.25L7.43 35.29L8.57 35.43L12.25 35.82L20.2 36.63L22.37 44L22.42 44.12C22.59 44.55 22.91 44.89 23.35 45.14C23.49 45.22 23.64 45.29 23.79 45.35L24.12 45.46L24.31 45.51L24.53 45.56L24.74 45.6L25.01 45.63L25.24 45.64L25.34 45.64L25.54 45.64L25.9 45.62L26.25 45.57L26.48 45.52L26.64 45.48L26.84 45.43L26.94 45.39L27.16 45.3C27.28 45.25 27.39 45.2 27.5 45.14L52.01 30.89L52.16 30.8C52.2 30.76 52.25 30.73 52.29 30.7L52.48 30.55C52.57 30.46 52.68 30.35 52.75 30.26L52.85 30.11ZM4.84 27.97L5.14 27.99M30.38 13.19C31.55 12.51 33.45 12.51 34.62 13.19L51.67 23.03C52.27 23.38 52.56 23.83 52.56 24.28L52.54 29.19C52.54 29.25 52.53 29.31 52.52 29.37L52.47 29.54C52.45 29.59 52.43 29.65 52.4 29.71L52.27 29.88C52.22 29.95 52.16 30.02 52.09 30.09C51.99 30.17 51.83 30.29 51.71 30.37L27.19 44.61C27.11 44.66 27.02 44.71 26.93 44.75L26.84 44.78L26.74 44.82L26.63 44.86C26.55 44.89 26.44 44.91 26.35 44.93L26.22 44.96L26.01 45L25.85 45.02L25.57 45.04L25.48 45.04L25.32 45.04C25.24 45.04 25.16 45.03 25.07 45.03L24.83 45L24.75 44.99L24.63 44.96C24.54 44.94 24.41 44.91 24.32 44.89L24.01 44.79C23.88 44.74 23.76 44.68 23.65 44.61C23.33 44.43 23.1 44.19 22.98 43.92L22.95 43.83L20.66 36.07L12.1 35.2L8.48 34.81L7.48 34.69L7.32 34.67C7.24 34.64 7.11 34.61 7.02 34.59L6.77 34.53C6.56 34.48 6.36 34.42 6.23 34.31C5.59 33.81 5.46 33.31 5.44 33L5.43 32.9L5.45 28.1L5.45 28.02C5.47 27.75 5.66 27.56 5.9 27.42L30.38 13.19Z" stroke="#000000" stroke-opacity="0" stroke-width="1.000000"/>
		<path d="M31.54 19.94C31.3 19.81 31.3 19.58 31.53 19.45C31.77 19.31 32.15 19.31 32.39 19.45L40.96 24.4C41.2 24.53 41.2 24.75 40.96 24.89C40.73 25.03 40.35 25.03 40.11 24.89L31.54 19.94Z" fill="#8217B0" fill-opacity="1.000000" fill-rule="nonzero"/>
		<path d="M31.53 19.45C31.77 19.31 32.15 19.31 32.39 19.45L40.96 24.4C41.2 24.53 41.2 24.75 40.96 24.89C40.73 25.03 40.35 25.03 40.11 24.89L31.54 19.94C31.3 19.81 31.3 19.58 31.53 19.45Z" stroke="#000000" stroke-opacity="0" stroke-width="1.000000"/>
	</g>
</svg>
