<svg width="58.000000" height="58.000000" viewBox="0 0 58 58" fill="none" xmlns="http://www.w3.org/2000/svg" xmlns:xlink="http://www.w3.org/1999/xlink">
	<desc>
			Created with Pixso.
	</desc>
	<defs>
		<clipPath id="clip97_2407">
			<rect width="58.000000" height="58.000000" fill="white" fill-opacity="0"/>
		</clipPath>
		<linearGradient x1="4.833313" y1="35.403988" x2="53.166920" y2="35.403988" id="paint_linear_97_2416_0" gradientUnits="userSpaceOnUse">
			<stop stop-color="#34AAB8"/>
			<stop offset="0.492202" stop-color="#6DC6D4"/>
			<stop offset="0.580765" stop-color="#188E9B"/>
			<stop offset="1.000000" stop-color="#1E7883"/>
		</linearGradient>
	</defs>
	<g clip-path="url(#clip97_2407)">
		<rect width="58.000000" height="58.000000" fill="#000000" fill-opacity="0"/>
		<rect width="58.000000" height="58.000000" stroke="#000000" stroke-opacity="0" stroke-width="1.000000"/>
		<path d="M39.14 15.74C39.12 15.79 39.09 15.85 39.06 15.9C39.02 15.95 38.97 16.02 38.92 16.06C38.89 16.09 38.85 16.11 38.81 16.14C38.78 16.16 38.75 16.19 38.72 16.21L37.34 17L37.33 22.02L38.7 21.22C38.73 21.2 38.77 21.17 38.8 21.15C38.83 21.13 38.87 21.1 38.9 21.07C38.94 21.04 38.98 21 39.01 20.96C39.02 20.95 39.06 20.89 39.07 20.87C39.09 20.84 39.1 20.82 39.11 20.79C39.12 20.77 39.13 20.72 39.14 20.7C39.14 20.67 39.15 20.64 39.15 20.61L39.16 15.58C39.16 15.64 39.15 15.69 39.14 15.74Z" fill="#1E7883" fill-opacity="1.000000" fill-rule="evenodd"/>
		<path d="M39.06 15.9C39.02 15.95 38.97 16.02 38.92 16.06C38.89 16.09 38.85 16.11 38.81 16.14C38.78 16.16 38.75 16.19 38.72 16.21L37.34 17L37.33 22.02L38.7 21.22C38.73 21.2 38.77 21.17 38.8 21.15C38.83 21.13 38.87 21.1 38.9 21.07C38.94 21.04 38.98 21 39.01 20.96C39.02 20.95 39.06 20.89 39.07 20.87C39.09 20.84 39.1 20.82 39.11 20.79C39.12 20.77 39.13 20.72 39.14 20.7C39.14 20.67 39.15 20.64 39.15 20.61L39.16 15.58C39.16 15.64 39.15 15.69 39.14 15.74C39.12 15.79 39.09 15.85 39.06 15.9Z" stroke="#000000" stroke-opacity="0" stroke-width="1.000000"/>
		<path d="M49.32 21.62C49.3 21.67 49.27 21.73 49.24 21.78C49.21 21.83 49.15 21.9 49.1 21.94C49.07 21.97 49.03 21.99 49 22.02C48.96 22.04 48.94 22.07 48.9 22.09L47.53 22.89L47.51 27.9L48.89 27.1C48.92 27.08 48.96 27.05 48.98 27.03C49.02 27.01 49.06 26.98 49.09 26.95C49.13 26.92 49.17 26.88 49.2 26.84C49.2 26.83 49.25 26.77 49.26 26.75C49.27 26.72 49.29 26.69 49.3 26.66C49.3 26.65 49.32 26.6 49.32 26.58C49.33 26.55 49.33 26.52 49.33 26.49L49.35 21.46C49.35 21.52 49.34 21.57 49.32 21.62Z" fill="#1E7883" fill-opacity="1.000000" fill-rule="evenodd"/>
		<path d="M49.24 21.78C49.21 21.83 49.15 21.9 49.1 21.94C49.07 21.97 49.03 21.99 49 22.02C48.96 22.04 48.94 22.07 48.9 22.09L47.53 22.89L47.51 27.9L48.89 27.1C48.92 27.08 48.96 27.05 48.98 27.03C49.02 27.01 49.06 26.98 49.09 26.95C49.13 26.92 49.17 26.88 49.2 26.84C49.2 26.83 49.25 26.77 49.26 26.75C49.27 26.72 49.29 26.69 49.3 26.66C49.3 26.65 49.32 26.6 49.32 26.58C49.33 26.55 49.33 26.52 49.33 26.49L49.35 21.46C49.35 21.52 49.34 21.57 49.32 21.62C49.3 21.67 49.27 21.73 49.24 21.78Z" stroke="#000000" stroke-opacity="0" stroke-width="1.000000"/>
		<path d="M52.25 25.61C53.46 26.31 53.46 27.44 52.27 28.13L31.92 39.96C30.72 40.66 28.77 40.66 27.57 39.96L5.75 27.36C4.54 26.67 4.54 25.54 5.74 24.84L26.09 13.02C27.28 12.32 29.23 12.32 30.44 13.02L35.16 15.74L36.53 14.95C37.13 14.6 38.1 14.6 38.71 14.95C39.31 15.3 39.31 15.86 38.72 16.21L37.34 17L45.35 21.63L46.72 20.83C47.32 20.48 48.29 20.48 48.89 20.83C49.5 21.18 49.5 21.74 48.9 22.09L47.53 22.89L52.25 25.61Z" fill="#34AAB8" fill-opacity="1.000000" fill-rule="evenodd"/>
		<path d="M52.27 28.13L31.92 39.96C30.72 40.66 28.77 40.66 27.57 39.96L5.75 27.36C4.54 26.67 4.54 25.54 5.74 24.84L26.09 13.02C27.28 12.32 29.23 12.32 30.44 13.02L35.16 15.74L36.53 14.95C37.13 14.6 38.1 14.6 38.71 14.95C39.31 15.3 39.31 15.86 38.72 16.21L37.34 17L45.35 21.63L46.72 20.83C47.32 20.48 48.29 20.48 48.89 20.83C49.5 21.18 49.5 21.74 48.9 22.09L47.53 22.89L52.25 25.61C53.46 26.31 53.46 27.44 52.27 28.13Z" stroke="#000000" stroke-opacity="0" stroke-width="1.000000"/>
		<path d="M28.26 12.8C28.99 12.8 29.73 12.96 30.29 13.28L35.16 16.09L36.69 15.21C36.94 15.06 37.28 14.99 37.62 14.99C37.96 14.99 38.3 15.06 38.55 15.21C38.73 15.31 38.86 15.44 38.86 15.58C38.75 15.82 38.67 15.89 38.57 15.95L36.74 17L45.35 21.98L46.87 21.09C47.13 20.94 47.47 20.87 47.81 20.87C48.14 20.87 48.48 20.94 48.74 21.09C48.92 21.19 49.04 21.32 49.05 21.46C48.93 21.7 48.85 21.77 48.75 21.83L46.93 22.89L52.1 25.87C52.58 26.15 52.86 26.5 52.86 26.88C52.86 27.05 52.8 27.22 52.69 27.38C52.56 27.56 52.37 27.73 52.12 27.87L31.77 39.7C31.21 40.02 30.48 40.18 29.75 40.18C29.01 40.18 28.28 40.02 27.72 39.7L5.9 27.1C5.42 26.83 5.15 26.47 5.14 26.1C5.14 25.93 5.2 25.76 5.32 25.6C5.45 25.42 5.64 25.25 5.89 25.11L26.24 13.28C26.8 12.96 27.53 12.8 28.26 12.8Z" fill="#000000" fill-opacity="0" fill-rule="evenodd"/>
		<path d="M30.29 13.28L35.16 16.09L36.69 15.21C36.94 15.06 37.28 14.99 37.62 14.99C37.96 14.99 38.3 15.06 38.55 15.21C38.73 15.31 38.86 15.44 38.86 15.58C38.75 15.82 38.67 15.89 38.57 15.95L36.74 17L45.35 21.98L46.87 21.09C47.13 20.94 47.47 20.87 47.81 20.87C48.14 20.87 48.48 20.94 48.74 21.09C48.92 21.19 49.04 21.32 49.05 21.46C48.93 21.7 48.85 21.77 48.75 21.83L46.93 22.89L52.1 25.87C52.58 26.15 52.86 26.5 52.86 26.88C52.86 27.05 52.8 27.22 52.69 27.38C52.56 27.56 52.37 27.73 52.12 27.87L31.77 39.7C31.21 40.02 30.48 40.18 29.75 40.18C29.01 40.18 28.28 40.02 27.72 39.7L5.9 27.1C5.42 26.83 5.15 26.47 5.14 26.1C5.14 25.93 5.2 25.76 5.32 25.6C5.45 25.42 5.64 25.25 5.89 25.11L26.24 13.28C26.8 12.96 27.53 12.8 28.26 12.8C28.99 12.8 29.73 12.96 30.29 13.28Z" stroke="#6DC6D4" stroke-opacity="1.000000" stroke-width="1.000000"/>
		<path d="M53.11 27.2C53.07 27.3 53.01 27.42 52.95 27.52C52.88 27.61 52.77 27.76 52.67 27.85C52.56 27.94 52.41 28.05 52.27 28.13L31.92 39.96C31.79 40.04 31.64 40.1 31.49 40.16C31.45 40.18 31.41 40.19 31.37 40.21C31.28 40.24 31.18 40.27 31.08 40.3C30.98 40.33 30.88 40.35 30.77 40.37C30.65 40.4 30.52 40.42 30.4 40.44C30.37 40.44 30.34 40.45 30.31 40.45C30.14 40.47 29.96 40.48 29.79 40.48C29.76 40.48 29.73 40.48 29.71 40.48C29.54 40.48 29.37 40.47 29.2 40.45C29.17 40.45 29.15 40.45 29.12 40.44C28.95 40.42 28.79 40.39 28.63 40.36C28.6 40.35 28.57 40.34 28.54 40.34C28.39 40.3 28.25 40.26 28.11 40.21C28.09 40.2 28.06 40.19 28.04 40.18C27.87 40.12 27.71 40.04 27.57 39.96L5.75 27.36C5.14 27.01 4.84 26.55 4.84 26.1L4.83 31.11C4.83 31.57 5.13 32.03 5.74 32.38L27.55 44.97C27.69 45.05 27.84 45.12 28 45.19C28.02 45.2 28.07 45.21 28.1 45.22C28.19 45.25 28.28 45.29 28.37 45.31C28.42 45.33 28.47 45.34 28.52 45.35C28.55 45.36 28.58 45.36 28.61 45.37C28.64 45.38 28.67 45.39 28.69 45.39C28.79 45.41 28.89 45.43 29 45.44C29.03 45.45 29.07 45.45 29.11 45.46C29.13 45.46 29.16 45.46 29.18 45.47C29.22 45.47 29.26 45.47 29.3 45.48C29.4 45.49 29.5 45.49 29.6 45.49C29.63 45.49 29.66 45.49 29.69 45.49C29.72 45.49 29.75 45.49 29.78 45.49C29.82 45.49 29.87 45.49 29.91 45.49C30.03 45.49 30.14 45.48 30.26 45.47C30.29 45.47 30.35 45.46 30.38 45.45C30.47 45.44 30.56 45.43 30.65 45.42C30.69 45.41 30.72 45.4 30.76 45.39C30.86 45.37 30.96 45.34 31.07 45.31C31.12 45.3 31.18 45.29 31.23 45.27C31.27 45.26 31.31 45.24 31.36 45.22C31.4 45.21 31.43 45.19 31.47 45.18C31.62 45.12 31.77 45.05 31.9 44.97L52.25 33.15C52.38 33.07 52.52 32.97 52.62 32.89C52.69 32.82 52.82 32.7 52.87 32.63C52.88 32.62 52.93 32.55 52.94 32.53C52.96 32.5 52.98 32.48 52.99 32.45C53.03 32.39 53.05 32.33 53.08 32.27C53.08 32.26 53.09 32.22 53.09 32.21C53.11 32.17 53.12 32.14 53.13 32.1C53.14 32.04 53.15 31.98 53.15 31.92L53.16 26.88C53.16 26.99 53.14 27.09 53.11 27.2Z" fill="url(#paint_linear_97_2416_0)" fill-opacity="1.000000" fill-rule="evenodd"/>
		<path d="M52.95 27.52C52.88 27.61 52.77 27.76 52.67 27.85C52.56 27.94 52.41 28.05 52.27 28.13L31.92 39.96C31.79 40.04 31.64 40.1 31.49 40.16C31.45 40.18 31.41 40.19 31.37 40.21C31.28 40.24 31.18 40.27 31.08 40.3C30.98 40.33 30.88 40.35 30.77 40.37C30.65 40.4 30.52 40.42 30.4 40.44C30.37 40.44 30.34 40.45 30.31 40.45C30.14 40.47 29.96 40.48 29.79 40.48C29.76 40.48 29.73 40.48 29.71 40.48C29.54 40.48 29.37 40.47 29.2 40.45C29.17 40.45 29.15 40.45 29.12 40.44C28.95 40.42 28.79 40.39 28.63 40.36C28.6 40.35 28.57 40.34 28.54 40.34C28.39 40.3 28.25 40.26 28.11 40.21C28.09 40.2 28.06 40.19 28.04 40.18C27.87 40.12 27.71 40.04 27.57 39.96L5.75 27.36C5.14 27.01 4.84 26.55 4.84 26.1L4.83 31.11C4.83 31.57 5.13 32.03 5.74 32.38L27.55 44.97C27.69 45.05 27.84 45.12 28 45.19C28.02 45.2 28.07 45.21 28.1 45.22C28.19 45.25 28.28 45.29 28.37 45.31C28.42 45.33 28.47 45.34 28.52 45.35C28.55 45.36 28.58 45.36 28.61 45.37C28.64 45.38 28.67 45.39 28.69 45.39C28.79 45.41 28.89 45.43 29 45.44C29.03 45.45 29.07 45.45 29.11 45.46C29.13 45.46 29.16 45.46 29.18 45.47C29.22 45.47 29.26 45.47 29.3 45.48C29.4 45.49 29.5 45.49 29.6 45.49C29.63 45.49 29.66 45.49 29.69 45.49C29.72 45.49 29.75 45.49 29.78 45.49C29.82 45.49 29.87 45.49 29.91 45.49C30.03 45.49 30.14 45.48 30.26 45.47C30.29 45.47 30.35 45.46 30.38 45.45C30.47 45.44 30.56 45.43 30.65 45.42C30.69 45.41 30.72 45.4 30.76 45.39C30.86 45.37 30.96 45.34 31.07 45.31C31.12 45.3 31.18 45.29 31.23 45.27C31.27 45.26 31.31 45.24 31.36 45.22C31.4 45.21 31.43 45.19 31.47 45.18C31.62 45.12 31.77 45.05 31.9 44.97L52.25 33.15C52.38 33.07 52.52 32.97 52.62 32.89C52.69 32.82 52.82 32.7 52.87 32.63C52.88 32.62 52.93 32.55 52.94 32.53C52.96 32.5 52.98 32.48 52.99 32.45C53.03 32.39 53.05 32.33 53.08 32.27C53.08 32.26 53.09 32.22 53.09 32.21C53.11 32.17 53.12 32.14 53.13 32.1C53.14 32.04 53.15 31.98 53.15 31.92L53.16 26.88C53.16 26.99 53.14 27.09 53.11 27.2C53.07 27.3 53.01 27.42 52.95 27.52Z" stroke="#000000" stroke-opacity="0" stroke-width="1.000000"/>
		<path d="M5.44 24.32L5.31 24.4C4.67 24.81 4.28 25.37 4.24 26L4.24 26.1L4.22 31.11L4.23 31.23C4.29 31.91 4.72 32.49 5.43 32.9L27.25 45.5L27.41 45.58C27.53 45.65 27.65 45.7 27.77 45.75L28.03 45.84L28.19 45.89L28.55 45.98C28.68 46.01 28.79 46.03 28.91 46.04L29.23 46.08C29.36 46.09 29.47 46.09 29.58 46.1L29.92 46.1L30.11 46.09L30.31 46.07L30.59 46.03L30.74 46.01L31.05 45.94L31.22 45.89L31.38 45.86L31.44 45.84L31.69 45.74C31.9 45.66 32.06 45.58 32.21 45.5L52.56 33.67L52.73 33.56C52.81 33.51 52.87 33.46 52.93 33.42L53.05 33.31L53.16 33.21C53.24 33.13 53.3 33.07 53.35 33L53.47 32.83C53.53 32.72 53.61 32.57 53.64 32.48L53.69 32.33L53.71 32.25C53.74 32.13 53.75 32.04 53.75 31.94L53.77 26.9L53.76 26.78C53.73 26.11 53.28 25.51 52.56 25.09L49.94 23.58L49.95 21.46L49.95 21.37C49.9 20.91 49.62 20.55 49.2 20.31L49.07 20.24C48.28 19.85 47.16 19.87 46.42 20.31L45.35 20.93L39.76 17.7L39.77 15.6C39.78 15.12 39.49 14.7 39.01 14.42L38.88 14.36C38.09 13.97 36.97 13.99 36.23 14.42L35.16 15.05L30.74 12.49C29.35 11.69 27.17 11.69 25.78 12.5L5.44 24.32ZM4.84 26.12L4.84 26.04C4.87 25.6 5.17 25.18 5.74 24.84L26.09 13.02C27.28 12.32 29.23 12.32 30.44 13.02L35.16 15.74L36.53 14.95C37.13 14.6 38.1 14.6 38.71 14.95C39.02 15.13 39.17 15.36 39.16 15.6L39.15 18.05L45.35 21.63L46.72 20.83C47.32 20.48 48.29 20.48 48.89 20.83C49.17 20.99 49.32 21.19 49.34 21.4L49.34 23.93L52.25 25.61C52.87 25.97 53.17 26.43 53.16 26.89L53.15 31.92C53.15 31.98 53.14 32.04 53.13 32.1L53.08 32.27C53.05 32.33 53.03 32.39 52.99 32.45L52.87 32.63C52.83 32.68 52.79 32.73 52.75 32.77L52.67 32.85C52.6 32.9 52.49 33 52.41 33.05L52.25 33.15L31.9 44.97C31.77 45.05 31.62 45.12 31.47 45.18L31.23 45.27L31.07 45.31L30.91 45.35L30.76 45.39L30.65 45.42L30.52 45.44L30.26 45.47L30.09 45.48L29.91 45.49L29.6 45.49C29.5 45.49 29.4 45.49 29.3 45.48L29 45.44C28.89 45.43 28.79 45.41 28.69 45.39L28.37 45.31L28.23 45.27L28 45.19C27.89 45.15 27.79 45.1 27.7 45.05L27.55 44.97L5.74 32.38C5.17 32.05 4.87 31.63 4.83 31.2L4.83 31.11L4.84 26.12Z" fill="#205A62" fill-opacity="1.000000" fill-rule="nonzero"/>
		<path d="M5.31 24.4C4.67 24.81 4.28 25.37 4.24 26L4.24 26.1L4.22 31.11L4.23 31.23C4.29 31.91 4.72 32.49 5.43 32.9L27.25 45.5L27.41 45.58C27.53 45.65 27.65 45.7 27.77 45.75L28.03 45.84L28.19 45.89L28.55 45.98C28.68 46.01 28.79 46.03 28.91 46.04L29.23 46.08C29.36 46.09 29.47 46.09 29.58 46.1L29.92 46.1L30.11 46.09L30.31 46.07L30.59 46.03L30.74 46.01L31.05 45.94L31.22 45.89L31.38 45.86L31.44 45.84L31.69 45.74C31.9 45.66 32.06 45.58 32.21 45.5L52.56 33.67L52.73 33.56C52.81 33.51 52.87 33.46 52.93 33.42L53.05 33.31L53.16 33.21C53.24 33.13 53.3 33.07 53.35 33L53.47 32.83C53.53 32.72 53.61 32.57 53.64 32.48L53.69 32.33L53.71 32.25C53.74 32.13 53.75 32.04 53.75 31.94L53.77 26.9L53.76 26.78C53.73 26.11 53.28 25.51 52.56 25.09L49.94 23.58L49.95 21.46L49.95 21.37C49.9 20.91 49.62 20.55 49.2 20.31L49.07 20.24C48.28 19.85 47.16 19.87 46.42 20.31L45.35 20.93L39.76 17.7L39.77 15.6C39.78 15.12 39.49 14.7 39.01 14.42L38.88 14.36C38.09 13.97 36.97 13.99 36.23 14.42L35.16 15.05L30.74 12.49C29.35 11.69 27.17 11.69 25.78 12.5L5.44 24.32L5.31 24.4ZM4.84 26.04C4.87 25.6 5.17 25.18 5.74 24.84L26.09 13.02C27.28 12.32 29.23 12.32 30.44 13.02L35.16 15.74L36.53 14.95C37.13 14.6 38.1 14.6 38.71 14.95C39.02 15.13 39.17 15.36 39.16 15.6L39.15 18.05L45.35 21.63L46.72 20.83C47.32 20.48 48.29 20.48 48.89 20.83C49.17 20.99 49.32 21.19 49.34 21.4L49.34 23.93L52.25 25.61C52.87 25.97 53.17 26.43 53.16 26.89L53.15 31.92C53.15 31.98 53.14 32.04 53.13 32.1L53.08 32.27C53.05 32.33 53.03 32.39 52.99 32.45L52.87 32.63C52.83 32.68 52.79 32.73 52.75 32.77L52.67 32.85C52.6 32.9 52.49 33 52.41 33.05L52.25 33.15L31.9 44.97C31.77 45.05 31.62 45.12 31.47 45.18L31.23 45.27L31.07 45.31L30.91 45.35L30.76 45.39L30.65 45.42L30.52 45.44L30.26 45.47L30.09 45.48L29.91 45.49L29.6 45.49C29.5 45.49 29.4 45.49 29.3 45.48L29 45.44C28.89 45.43 28.79 45.41 28.69 45.39L28.37 45.31L28.23 45.27L28 45.19C27.89 45.15 27.79 45.1 27.7 45.05L27.55 44.97L5.74 32.38C5.17 32.05 4.87 31.63 4.83 31.2L4.83 31.11L4.84 26.12L4.84 26.04Z" stroke="#000000" stroke-opacity="0" stroke-width="1.000000"/>
		<path d="M25 14.34L49.99 28.77L47.66 30.13L22.67 15.7L25 14.34Z" fill="#BEE3EB" fill-opacity="1.000000" fill-rule="evenodd"/>
		<path d="M49.99 28.77L47.66 30.13L22.67 15.7L25 14.34L49.99 28.77Z" stroke="#000000" stroke-opacity="0" stroke-width="1.000000"/>
		<path d="M41.92 29.51C42.94 30.09 42.94 31.04 41.93 31.63L31.13 37.91C30.12 38.49 28.48 38.49 27.47 37.91L9.09 27.3C8.07 26.71 8.07 25.76 9.08 25.17L19.88 18.9C20.89 18.31 22.53 18.31 23.54 18.9L41.92 29.51Z" fill="#BEE3EB" fill-opacity="1.000000" fill-rule="evenodd"/>
		<path d="M41.93 31.63L31.13 37.91C30.12 38.49 28.48 38.49 27.47 37.91L9.09 27.3C8.07 26.71 8.07 25.76 9.08 25.17L19.88 18.9C20.89 18.31 22.53 18.31 23.54 18.9L41.92 29.51C42.94 30.09 42.94 31.04 41.93 31.63Z" stroke="#000000" stroke-opacity="0" stroke-width="1.000000"/>
		<path d="M36.84 30.59L38.1 31.32C38.45 31.52 38.45 31.84 38.1 32.05L36.85 32.77C36.5 32.97 35.94 32.97 35.59 32.77L34.33 32.04C33.98 31.84 33.98 31.52 34.32 31.32L35.58 30.59C35.92 30.39 36.49 30.39 36.84 30.59ZM24.88 29.5L26.14 30.22C26.49 30.42 26.49 30.75 26.15 30.95L24.9 31.68C24.55 31.88 23.99 31.88 23.64 31.68L22.38 30.95C22.03 30.75 22.02 30.43 22.37 30.22L23.62 29.5C23.97 29.3 24.53 29.29 24.88 29.5ZM32.11 27.86L33.37 28.58C33.72 28.79 33.72 29.11 33.37 29.31L32.12 30.04C31.77 30.24 31.21 30.24 30.86 30.04L29.6 29.31C29.25 29.11 29.24 28.79 29.59 28.58L30.84 27.86C31.19 27.65 31.76 27.65 32.11 27.86ZM20.15 26.76L21.41 27.49C21.76 27.69 21.76 28.02 21.41 28.22L20.16 28.95C19.82 29.15 19.25 29.15 18.91 28.95L17.64 28.22C17.29 28.02 17.29 27.69 17.64 27.49L18.89 26.76C19.24 26.56 19.8 26.56 20.15 26.76ZM27.37 25.12L28.63 25.85C28.98 26.05 28.99 26.38 28.64 26.58L27.39 27.31C27.04 27.51 26.48 27.51 26.13 27.31L24.87 26.58C24.52 26.38 24.52 26.05 24.86 25.85L26.11 25.13C26.46 24.92 27.02 24.92 27.37 25.12ZM15.42 24.03L16.68 24.76C17.03 24.96 17.03 25.29 16.68 25.49L15.43 26.22C15.08 26.42 14.52 26.42 14.17 26.22L12.91 25.49C12.56 25.29 12.56 24.96 12.91 24.76L14.16 24.03C14.51 23.83 15.07 23.83 15.42 24.03Z" fill="#205A62" fill-opacity="1.000000" fill-rule="evenodd"/>
		<path d="M38.1 31.32C38.45 31.52 38.45 31.84 38.1 32.05L36.85 32.77C36.5 32.97 35.94 32.97 35.59 32.77L34.33 32.04C33.98 31.84 33.98 31.52 34.32 31.32L35.58 30.59C35.92 30.39 36.49 30.39 36.84 30.59L38.1 31.32ZM26.14 30.22C26.49 30.42 26.49 30.75 26.15 30.95L24.9 31.68C24.55 31.88 23.99 31.88 23.64 31.68L22.38 30.95C22.03 30.75 22.02 30.43 22.37 30.22L23.62 29.5C23.97 29.3 24.53 29.29 24.88 29.5L26.14 30.22ZM33.37 28.58C33.72 28.79 33.72 29.11 33.37 29.31L32.12 30.04C31.77 30.24 31.21 30.24 30.86 30.04L29.6 29.31C29.25 29.11 29.24 28.79 29.59 28.58L30.84 27.86C31.19 27.65 31.76 27.65 32.11 27.86L33.37 28.58ZM21.41 27.49C21.76 27.69 21.76 28.02 21.41 28.22L20.16 28.95C19.82 29.15 19.25 29.15 18.91 28.95L17.64 28.22C17.29 28.02 17.29 27.69 17.64 27.49L18.89 26.76C19.24 26.56 19.8 26.56 20.15 26.76L21.41 27.49ZM28.63 25.85C28.98 26.05 28.99 26.38 28.64 26.58L27.39 27.31C27.04 27.51 26.48 27.51 26.13 27.31L24.87 26.58C24.52 26.38 24.52 26.05 24.86 25.85L26.11 25.13C26.46 24.92 27.02 24.92 27.37 25.12L28.63 25.85ZM16.68 24.76C17.03 24.96 17.03 25.29 16.68 25.49L15.43 26.22C15.08 26.42 14.52 26.42 14.17 26.22L12.91 25.49C12.56 25.29 12.56 24.96 12.91 24.76L14.16 24.03C14.51 23.83 15.07 23.83 15.42 24.03L16.68 24.76Z" stroke="#000000" stroke-opacity="0" stroke-width="1.000000"/>
	</g>
</svg>
