<svg width="58.000000" height="58.000000" viewBox="0 0 58 58" fill="none" xmlns="http://www.w3.org/2000/svg" xmlns:xlink="http://www.w3.org/1999/xlink">
	<desc>
			Created with Pixso.
	</desc>
	<defs>
		<clipPath id="clip97_2324">
			<rect width="58.000000" height="58.000000" fill="white" fill-opacity="0"/>
		</clipPath>
		<linearGradient x1="4.833374" y1="28.260624" x2="53.166718" y2="28.260624" id="paint_linear_97_2329_0" gradientUnits="userSpaceOnUse">
			<stop stop-color="#0F6AD7"/>
			<stop offset="0.401880" stop-color="#6C99FB"/>
			<stop offset="0.486750" stop-color="#145EBE"/>
			<stop offset="1.000000" stop-color="#1550A2"/>
		</linearGradient>
	</defs>
	<g clip-path="url(#clip97_2324)">
		<g opacity="0.000000">
			<rect width="58.000000" height="58.000000" fill="#FFFFFF" fill-opacity="1.000000"/>
			<rect width="58.000000" height="58.000000" stroke="#000000" stroke-opacity="0" stroke-width="1.000000"/>
		</g>
		<path d="M34.06 18.34L34.19 18.41L39.79 21.65L41.74 20.52C42.33 20.17 43.04 20.15 43.65 20.45L43.76 20.52L47.66 22.79C47.75 22.85 47.82 22.92 47.87 23.01C48.03 23.28 47.96 23.61 47.71 23.79L47.13 24.14L53.16 24.14L53.16 29.96C53.14 30.17 53.02 30.38 52.83 30.52L52.76 30.56L27.78 44.89C26.34 45.71 24.58 45.74 23.13 44.96L22.96 44.87L5.31 34.57C5.19 34.5 5.09 34.4 5.02 34.28C4.96 34.18 4.92 34.07 4.91 33.97L4.83 33.97L4.83 28.35L13.05 28.35L13.05 28.73L30.98 18.41C31.93 17.86 33.09 17.84 34.06 18.34ZM46.34 24.59L45.6 25.02L46.34 25.45L46.34 24.59Z" fill="url(#paint_linear_97_2329_0)" fill-opacity="1.000000" fill-rule="evenodd"/>
		<path d="M34.19 18.41L39.79 21.65L41.74 20.52C42.33 20.17 43.04 20.15 43.65 20.45L43.76 20.52L47.66 22.79C47.75 22.85 47.82 22.92 47.87 23.01C48.03 23.28 47.96 23.61 47.71 23.79L47.13 24.14L53.16 24.14L53.16 29.96C53.14 30.17 53.02 30.38 52.83 30.52L52.76 30.56L27.78 44.89C26.34 45.71 24.58 45.74 23.13 44.96L22.96 44.87L5.31 34.57C5.19 34.5 5.09 34.4 5.02 34.28C4.96 34.18 4.92 34.07 4.91 33.97L4.83 33.97L4.83 28.35L13.05 28.35L13.05 28.73L30.98 18.41C31.93 17.86 33.09 17.84 34.06 18.34L34.19 18.41ZM45.6 25.02L46.34 25.45L46.34 24.59L45.6 25.02Z" stroke="#000000" stroke-opacity="0" stroke-width="1.000000"/>
		<path d="M48.01 17.69L48.01 21.39L44.1 19.93L45.2 17.48L48.01 17.69Z" fill="#2359B8" fill-opacity="1.000000" fill-rule="evenodd"/>
		<path d="M48.01 21.39L44.1 19.93L45.2 17.48L48.01 17.69L48.01 21.39Z" stroke="#000000" stroke-opacity="0" stroke-width="1.000000"/>
		<path d="M30.98 12.79C31.98 12.22 33.2 12.22 34.19 12.8L39.79 16.04L41.74 14.9C42.33 14.56 43.04 14.54 43.65 14.84L43.76 14.9L47.66 17.18C47.75 17.23 47.82 17.31 47.87 17.4C48.04 17.68 47.94 18.05 47.66 18.22L45.6 19.41L52.76 23.56C52.86 23.61 52.94 23.69 53.01 23.78L53.05 23.85C53.27 24.23 53.14 24.72 52.76 24.95L27.78 39.27C26.29 40.13 24.45 40.12 22.96 39.25L5.31 28.96C5.19 28.89 5.09 28.79 5.02 28.66C4.79 28.28 4.93 27.79 5.31 27.57L30.98 12.79Z" fill="#6C99FB" fill-opacity="1.000000" fill-rule="evenodd"/>
		<path d="M34.19 12.8L39.79 16.04L41.74 14.9C42.33 14.56 43.04 14.54 43.65 14.84L43.76 14.9L47.66 17.18C47.75 17.23 47.82 17.31 47.87 17.4C48.04 17.68 47.94 18.05 47.66 18.22L45.6 19.41L52.76 23.56C52.86 23.61 52.94 23.69 53.01 23.78L53.05 23.85C53.27 24.23 53.14 24.72 52.76 24.95L27.78 39.27C26.29 40.13 24.45 40.12 22.96 39.25L5.31 28.96C5.19 28.89 5.09 28.79 5.02 28.66C4.79 28.28 4.93 27.79 5.31 27.57L30.98 12.79C31.98 12.22 33.2 12.22 34.19 12.8Z" stroke="#000000" stroke-opacity="0" stroke-width="1.000000"/>
		<path d="M31.13 13.06C31.99 12.56 33.04 12.54 33.91 12.99L39.79 16.39L41.9 15.16C42.39 14.87 42.99 14.85 43.5 15.1L47.5 17.44L45 19.41L52.61 23.82C52.83 24.08 52.86 24.22 52.84 24.35C52.82 24.47 52.76 24.57 52.66 24.65L27.63 39.01C26.29 39.78 24.64 39.81 23.27 39.08L5.46 28.7C5.21 28.4 5.2 28.28 5.22 28.16C5.25 28.05 5.31 27.94 5.41 27.87L31.13 13.06Z" fill="#000000" fill-opacity="0" fill-rule="evenodd"/>
		<path d="M33.91 12.99L39.79 16.39L41.9 15.16C42.39 14.87 42.99 14.85 43.5 15.1L47.5 17.44L45 19.41L52.61 23.82C52.83 24.08 52.86 24.22 52.84 24.35C52.82 24.47 52.76 24.57 52.66 24.65L27.63 39.01C26.29 39.78 24.64 39.81 23.27 39.08L5.46 28.7C5.21 28.4 5.2 28.28 5.22 28.16C5.25 28.05 5.31 27.94 5.41 27.87L31.13 13.06C31.99 12.56 33.04 12.54 33.91 12.99Z" stroke="#A1B7F7" stroke-opacity="1.000000" stroke-width="1.000000"/>
		<path d="M30.83 12.53C31.9 11.92 33.2 11.91 34.27 12.5L39.79 15.69L41.59 14.64C42.29 14.23 43.15 14.22 43.85 14.61L47.81 16.92C47.97 17.01 48.1 17.15 48.17 17.32L48.31 20.63L52.91 23.29C53.06 23.38 53.18 23.5 53.28 23.64C53.4 23.84 53.44 23.98 53.45 24.12L53.46 29.97C53.43 30.3 53.25 30.61 52.95 30.8L27.93 45.15C26.37 46.04 24.46 46.05 22.89 45.18L5.15 34.83C4.99 34.74 4.85 34.6 4.75 34.43C4.67 34.29 4.63 34.13 4.61 33.98L4.61 28.37C4.59 28.17 4.63 27.97 4.71 27.79C4.8 27.61 4.94 27.45 5.12 27.33L30.83 12.53Z" fill="#000000" fill-opacity="0" fill-rule="evenodd"/>
		<path d="M34.27 12.5L39.79 15.69L41.59 14.64C42.29 14.23 43.15 14.22 43.85 14.61L47.81 16.92C47.97 17.01 48.1 17.15 48.17 17.32L48.31 20.63L52.91 23.29C53.06 23.38 53.18 23.5 53.28 23.64C53.4 23.84 53.44 23.98 53.45 24.12L53.46 29.97C53.43 30.3 53.25 30.61 52.95 30.8L27.93 45.15C26.37 46.04 24.46 46.05 22.89 45.18L5.15 34.83C4.99 34.74 4.85 34.6 4.75 34.43C4.67 34.29 4.63 34.13 4.61 33.98L4.61 28.37C4.59 28.17 4.63 27.97 4.71 27.79C4.8 27.61 4.94 27.45 5.12 27.33L30.83 12.53C31.9 11.92 33.2 11.91 34.27 12.5Z" stroke="#144287" stroke-opacity="1.000000" stroke-width="1.000000"/>
		<path d="M9.06 28.8L23.1 36.81C24.58 37.65 26.39 37.65 27.87 36.81L45.32 26.89C45.7 26.67 45.84 26.18 45.62 25.8C45.55 25.67 45.45 25.57 45.32 25.5L30.48 17.02C29.5 16.46 28.29 16.46 27.31 17.02L9.06 27.4C8.68 27.62 8.54 28.11 8.76 28.5C8.83 28.62 8.93 28.72 9.06 28.8Z" fill="#D5DCF7" fill-opacity="1.000000" fill-rule="evenodd"/>
		<path d="M23.1 36.81C24.58 37.65 26.39 37.65 27.87 36.81L45.32 26.89C45.7 26.67 45.84 26.18 45.62 25.8C45.55 25.67 45.45 25.57 45.32 25.5L30.48 17.02C29.5 16.46 28.29 16.46 27.31 17.02L9.06 27.4C8.68 27.62 8.54 28.11 8.76 28.5C8.83 28.62 8.93 28.72 9.06 28.8L23.1 36.81Z" stroke="#000000" stroke-opacity="0" stroke-width="1.000000"/>
		<path d="M25.99 27.12L20.73 29.13C20.54 29.2 20.45 29.37 20.51 29.52C20.53 29.56 20.55 29.6 20.59 29.64C20.68 29.73 20.82 29.78 20.98 29.78L32.23 29.59C32.4 29.58 32.55 29.51 32.62 29.4C32.69 29.28 32.67 29.14 32.56 29.04L29.79 26.37L34.46 24.93C34.66 24.87 34.77 24.71 34.73 24.55C34.68 24.39 34.49 24.28 34.27 24.27L23.75 24.06C23.57 24.06 23.41 24.13 23.33 24.24C23.26 24.36 23.28 24.5 23.39 24.61L25.99 27.12Z" fill="#144287" fill-opacity="1.000000" fill-rule="nonzero"/>
		<path d="M25.99 27.12L20.73 29.13C20.54 29.2 20.45 29.37 20.51 29.52C20.53 29.56 20.55 29.6 20.59 29.64C20.68 29.73 20.82 29.78 20.98 29.78L32.23 29.59C32.4 29.58 32.55 29.51 32.62 29.4C32.69 29.28 32.67 29.14 32.56 29.04L29.79 26.37L34.46 24.93C34.66 24.87 34.77 24.71 34.73 24.55C34.68 24.39 34.49 24.28 34.27 24.27L23.75 24.06C23.57 24.06 23.41 24.13 23.33 24.24C23.26 24.36 23.28 24.5 23.39 24.61" stroke="#000000" stroke-opacity="0" stroke-width="1.000000"/>
	</g>
</svg>
