<svg width="58.000000" height="58.000000" viewBox="0 0 58 58" fill="none" xmlns="http://www.w3.org/2000/svg" xmlns:xlink="http://www.w3.org/1999/xlink">
	<desc>
			Created with Pixso.
	</desc>
	<defs>
		<clipPath id="clip97_2396">
			<rect width="58.000000" height="58.000000" fill="white" fill-opacity="0"/>
		</clipPath>
		<linearGradient x1="18.608521" y1="21.557331" x2="48.416649" y2="21.557331" id="paint_linear_97_2401_0" gradientUnits="userSpaceOnUse">
			<stop stop-color="#0F6AD7"/>
			<stop offset="0.453486" stop-color="#638DEA"/>
			<stop offset="0.649234" stop-color="#145EBE"/>
			<stop offset="1.000000" stop-color="#1550A2"/>
		</linearGradient>
		<linearGradient x1="15.448552" y1="29.629955" x2="15.510427" y2="31.903645" id="paint_linear_97_2402_0" gradientUnits="userSpaceOnUse">
			<stop stop-color="#0F6AD7"/>
			<stop offset="1.000000" stop-color="#2D6CC3"/>
		</linearGradient>
		<linearGradient x1="5.018005" y1="32.372696" x2="53.166683" y2="32.372696" id="paint_linear_97_2403_0" gradientUnits="userSpaceOnUse">
			<stop stop-color="#0F6AD7"/>
			<stop offset="0.653547" stop-color="#6C99FB"/>
			<stop offset="0.771986" stop-color="#145EBE"/>
			<stop offset="1.000000" stop-color="#1550A2"/>
		</linearGradient>
	</defs>
	<g clip-path="url(#clip97_2396)">
		<rect width="58.000000" height="58.000000" fill="#000000" fill-opacity="0"/>
		<rect width="58.000000" height="58.000000" stroke="#000000" stroke-opacity="0" stroke-width="1.000000"/>
		<path d="M48.41 24.53C48.41 24.01 48.33 23.5 48.16 23L48.12 22.86C48.1 22.8 48.08 22.75 48.06 22.69C48.05 22.67 48.04 22.65 48.04 22.63C48.02 22.59 48.01 22.56 47.99 22.52C47.98 22.5 47.97 22.47 47.96 22.45C47.95 22.42 47.93 22.38 47.92 22.35C47.9 22.32 47.89 22.3 47.88 22.28C47.87 22.24 47.85 22.21 47.83 22.18C47.82 22.15 47.81 22.13 47.8 22.11C47.78 22.07 47.76 22.04 47.74 22C47.73 21.98 47.72 21.96 47.71 21.94C47.69 21.9 47.66 21.86 47.64 21.82C47.58 21.72 47.55 21.66 47.52 21.61C47.5 21.59 47.49 21.57 47.48 21.55C47.45 21.52 47.43 21.48 47.41 21.45C47.4 21.43 47.38 21.4 47.36 21.38C47.34 21.35 47.32 21.32 47.3 21.29C47.28 21.26 47.26 21.24 47.25 21.22C47.23 21.19 47.2 21.16 47.18 21.13C47.16 21.1 47.15 21.08 47.13 21.06C47.1 21.03 47.08 21 47.06 20.97C47.04 20.94 47.02 20.92 47 20.9C46.98 20.87 46.95 20.83 46.93 20.8C46.91 20.78 46.89 20.76 46.87 20.74C46.83 20.69 46.79 20.64 46.74 20.59C46.71 20.56 46.63 20.47 46.6 20.44C46.58 20.42 46.56 20.4 46.54 20.37C46.51 20.35 46.49 20.32 46.46 20.29C46.44 20.27 46.41 20.25 46.39 20.22C46.36 20.2 46.34 20.17 46.31 20.14C46.29 20.12 46.26 20.1 46.24 20.07C46.21 20.05 46.18 20.02 46.15 19.99C46.13 19.97 46.1 19.95 46.08 19.93C46.05 19.9 46.02 19.87 45.99 19.84C45.96 19.82 45.94 19.8 45.92 19.78C45.88 19.75 45.84 19.71 45.8 19.68C45.77 19.66 45.74 19.63 45.72 19.61C45.67 19.58 45.63 19.54 45.59 19.51C45.56 19.49 45.54 19.47 45.52 19.45C45.48 19.42 45.45 19.4 45.41 19.37C45.39 19.35 45.36 19.33 45.33 19.31C45.3 19.28 45.26 19.26 45.23 19.23C45.2 19.21 45.18 19.19 45.15 19.17C45.12 19.15 45.08 19.12 45.04 19.1C45.02 19.08 44.99 19.06 44.96 19.04C44.92 19.01 44.89 18.99 44.85 18.96C44.82 18.94 44.8 18.93 44.77 18.91C44.72 18.88 44.68 18.85 44.63 18.81C44.51 18.74 44.45 18.7 44.38 18.66C44.27 18.59 44.22 18.56 44.17 18.53C44.15 18.52 44.12 18.5 44.1 18.49L44.01 18.44C43.92 18.39 43.87 18.36 43.82 18.33C43.79 18.31 43.76 18.29 43.73 18.28C43.67 18.25 43.61 18.21 43.55 18.18C43.4 18.1 43.31 18.06 43.23 18.01C43.11 17.96 43.04 17.92 42.97 17.89C42.94 17.87 42.91 17.86 42.88 17.84C42.82 17.82 42.76 17.79 42.7 17.76C42.67 17.75 42.63 17.73 42.6 17.72C42.54 17.69 42.49 17.67 42.44 17.64C42.4 17.63 42.36 17.61 42.32 17.59C42.27 17.57 42.22 17.55 42.16 17.53C42.12 17.51 42.08 17.5 42.04 17.48C41.99 17.46 41.93 17.44 41.88 17.41C41.85 17.4 41.82 17.39 41.79 17.38C41.74 17.36 41.65 17.32 41.59 17.3C41.55 17.29 41.52 17.27 41.48 17.26C41.4 17.23 41.31 17.2 41.23 17.17C41.07 17.11 40.99 17.09 40.9 17.06C40.86 17.04 40.83 17.03 40.79 17.02C40.73 17 40.67 16.98 40.61 16.96C40.56 16.95 40.52 16.93 40.48 16.92C40.42 16.9 40.36 16.89 40.31 16.87C40.26 16.85 40.21 16.84 40.17 16.83C40.12 16.81 40.07 16.8 40.03 16.79C39.98 16.77 39.91 16.75 39.86 16.74C39.8 16.72 39.75 16.71 39.69 16.69C39.64 16.68 39.6 16.67 39.55 16.66C39.49 16.64 39.43 16.63 39.37 16.61C39.32 16.6 39.28 16.59 39.23 16.58C39.16 16.56 39.1 16.54 39.03 16.53C38.99 16.52 38.95 16.51 38.92 16.5C38.81 16.48 38.71 16.46 38.6 16.43C38.58 16.43 38.52 16.42 38.5 16.41L38.42 16.4C38.38 16.39 38.33 16.38 38.28 16.37C38.23 16.36 38.19 16.35 38.14 16.34C38.08 16.33 38.01 16.32 37.95 16.3C37.9 16.29 37.85 16.29 37.8 16.28C37.74 16.27 37.68 16.26 37.62 16.25C37.57 16.24 37.52 16.23 37.47 16.22C37.41 16.21 37.34 16.2 37.28 16.19C37.23 16.18 37.18 16.18 37.13 16.17C37.1 16.16 37.07 16.16 37.04 16.16C37.01 16.15 36.97 16.15 36.93 16.14C36.89 16.13 36.84 16.13 36.79 16.12C36.72 16.11 36.64 16.1 36.56 16.09L36.45 16.08C36.34 16.07 36.22 16.05 36.11 16.04C35.94 16.02 35.85 16.01 35.76 16.01C35.72 16 35.68 16 35.64 16C35.6 15.99 35.57 15.99 35.54 15.99C35.49 15.98 35.45 15.98 35.41 15.98C35.36 15.97 35.32 15.97 35.27 15.97C35.2 15.96 35.13 15.96 35.05 15.95C35.01 15.95 34.96 15.95 34.91 15.95C34.84 15.94 34.77 15.94 34.69 15.93C34.65 15.93 34.6 15.93 34.55 15.93C34.48 15.92 34.4 15.92 34.33 15.92C34.28 15.92 34.24 15.92 34.19 15.91C34.13 15.91 34.01 15.91 33.94 15.91L33.83 15.91C33.71 15.91 33.59 15.9 33.47 15.9C33.17 15.9 32.87 15.91 32.58 15.92C32.48 15.92 32.38 15.93 32.28 15.94C31.98 15.95 31.68 15.97 31.38 16C31.24 16.01 31.09 16.01 30.94 16.03C30.83 16.04 30.72 16.06 30.61 16.07C30.51 16.08 30.4 16.09 30.3 16.11C29.88 16.16 29.46 16.22 29.05 16.29C28.57 16.38 28.09 16.48 27.64 16.59C27.53 16.62 27.44 16.65 27.34 16.68C26.99 16.77 26.64 16.86 26.31 16.97C25.94 17.09 25.56 17.22 25.21 17.36C25.11 17.4 25.02 17.44 24.92 17.48C24.66 17.59 24.39 17.7 24.14 17.82C24.04 17.86 23.95 17.91 23.85 17.96C23.52 18.12 23.21 18.28 22.9 18.46C22.85 18.49 22.79 18.53 22.74 18.56C22.69 18.59 22.66 18.62 22.61 18.65C22.36 18.8 22.11 18.97 21.88 19.13C21.81 19.18 21.74 19.24 21.67 19.29C21.4 19.49 21.14 19.7 20.9 19.92C20.79 20.03 20.65 20.17 20.54 20.28C20.49 20.33 20.44 20.37 20.39 20.42C20.23 20.6 20.08 20.77 19.94 20.95C19.82 21.1 19.68 21.31 19.57 21.47C19.54 21.53 19.5 21.58 19.47 21.63C19.43 21.7 19.39 21.77 19.35 21.83C19.31 21.9 19.28 21.97 19.24 22.04C19.22 22.08 19.2 22.12 19.18 22.17C19.09 22.34 19.02 22.5 18.96 22.67L18.89 22.86C18.82 23.07 18.76 23.28 18.72 23.49C18.72 23.51 18.72 23.53 18.71 23.55C18.71 23.58 18.7 23.61 18.7 23.64C18.66 23.87 18.63 24.09 18.62 24.32C18.62 24.37 18.62 24.44 18.62 24.49L18.6 30.3C18.6 30.24 18.6 30.18 18.61 30.13C18.61 30 18.63 29.87 18.65 29.74L18.65 30.97L18.65 31.05L18.66 29.67C18.67 29.59 18.67 29.52 18.68 29.45C18.69 29.42 18.69 29.39 18.7 29.36C18.74 29.13 18.8 28.9 18.87 28.67L18.92 28.54C18.99 28.35 19.07 28.16 19.16 27.98C19.18 27.93 19.2 27.89 19.23 27.84C19.3 27.71 19.37 27.58 19.45 27.44C19.49 27.39 19.52 27.33 19.56 27.28C19.66 27.12 19.77 26.96 19.89 26.8C20.03 26.62 20.22 26.41 20.38 26.23C20.42 26.18 20.48 26.13 20.53 26.09C20.64 25.97 20.76 25.85 20.88 25.73C21.12 25.51 21.38 25.3 21.65 25.09C21.72 25.04 21.8 24.99 21.87 24.94C22.1 24.77 22.34 24.61 22.59 24.45C22.69 24.39 22.78 24.33 22.89 24.27C23.19 24.09 23.51 23.93 23.84 23.76C23.93 23.72 24.03 23.67 24.13 23.63C24.38 23.51 24.64 23.4 24.9 23.29C25 23.25 25.1 23.21 25.2 23.17C25.55 23.03 25.92 22.9 26.29 22.78C26.63 22.67 26.98 22.57 27.34 22.48C27.43 22.46 27.52 22.43 27.62 22.4C28.07 22.29 28.54 22.19 29.02 22.1C29.43 22.03 29.85 21.97 30.28 21.91C30.39 21.9 30.49 21.89 30.6 21.88C30.85 21.85 31.11 21.83 31.36 21.81C31.66 21.78 31.96 21.76 32.27 21.75C32.66 21.73 33.05 21.71 33.45 21.71C33.57 21.71 33.69 21.71 33.81 21.72C33.85 21.72 33.89 21.72 33.93 21.72C34.01 21.72 34.09 21.72 34.18 21.72C34.22 21.72 34.27 21.73 34.31 21.73C34.39 21.73 34.46 21.73 34.54 21.74C34.58 21.74 34.63 21.74 34.68 21.74C34.75 21.75 34.82 21.75 34.9 21.75L35.04 21.76C35.11 21.77 35.18 21.77 35.25 21.78C35.3 21.78 35.35 21.78 35.39 21.79C35.47 21.79 35.54 21.8 35.62 21.8C35.66 21.81 35.7 21.81 35.75 21.82C35.83 21.82 35.92 21.83 36.09 21.85C36.21 21.86 36.32 21.87 36.44 21.89C36.47 21.89 36.51 21.9 36.55 21.9C36.62 21.91 36.7 21.92 36.78 21.93C36.82 21.94 36.87 21.94 36.92 21.95C36.98 21.96 37.05 21.97 37.12 21.98C37.16 21.98 37.21 21.99 37.26 22C37.33 22.01 37.39 22.02 37.45 22.03C37.5 22.04 37.55 22.05 37.6 22.05C37.66 22.06 37.72 22.07 37.79 22.09C37.84 22.1 37.89 22.1 37.93 22.11C38 22.12 38.06 22.14 38.12 22.15C38.17 22.16 38.22 22.17 38.26 22.17C38.33 22.19 38.4 22.2 38.47 22.22C38.51 22.23 38.55 22.23 38.59 22.24C38.69 22.26 38.8 22.29 38.9 22.31C38.94 22.32 38.97 22.33 39.01 22.34C39.08 22.35 39.15 22.37 39.22 22.39C39.26 22.4 39.31 22.41 39.35 22.42C39.41 22.43 39.47 22.45 39.53 22.47C39.58 22.48 39.62 22.49 39.67 22.5C39.73 22.52 39.79 22.53 39.84 22.55C39.89 22.56 39.94 22.57 39.98 22.59C40.04 22.6 40.1 22.62 40.15 22.64C40.2 22.65 40.24 22.66 40.29 22.68C40.35 22.69 40.4 22.71 40.46 22.73C40.5 22.74 40.55 22.76 40.59 22.77C40.65 22.79 40.71 22.81 40.77 22.83C40.81 22.84 40.85 22.85 40.89 22.87C40.97 22.89 41.05 22.92 41.21 22.98C41.3 23.01 41.38 23.04 41.46 23.07C41.5 23.08 41.53 23.1 41.57 23.11C41.63 23.13 41.69 23.15 41.75 23.18C41.79 23.19 41.82 23.21 41.86 23.22C41.92 23.24 41.97 23.27 42.03 23.29C42.07 23.3 42.11 23.32 42.15 23.34C42.2 23.36 42.25 23.38 42.3 23.4C42.34 23.42 42.38 23.44 42.42 23.45C42.47 23.48 42.53 23.5 42.58 23.53C42.62 23.54 42.65 23.56 42.69 23.57C42.75 23.6 42.8 23.63 42.86 23.65C42.89 23.67 42.92 23.68 42.95 23.7C43.02 23.73 43.09 23.76 43.21 23.82C43.3 23.87 43.38 23.91 43.53 23.99C43.59 24.02 43.65 24.05 43.71 24.09C43.74 24.1 43.77 24.12 43.8 24.14C43.85 24.16 43.91 24.19 43.99 24.24C44.02 24.26 44.05 24.28 44.08 24.29C44.11 24.31 44.13 24.32 44.16 24.34C44.21 24.37 44.25 24.4 44.36 24.46C44.43 24.51 44.5 24.55 44.61 24.62C44.66 24.65 44.71 24.69 44.76 24.72C44.78 24.73 44.81 24.75 44.83 24.77C44.87 24.8 44.91 24.82 44.95 24.85C44.97 24.87 45 24.89 45.03 24.9C45.06 24.93 45.1 24.96 45.13 24.98C45.16 25 45.19 25.02 45.21 25.04C45.25 25.07 45.28 25.09 45.32 25.12C45.34 25.14 45.37 25.16 45.39 25.18C45.43 25.2 45.47 25.23 45.5 25.26C45.52 25.28 45.55 25.3 45.57 25.31C45.62 25.35 45.66 25.39 45.7 25.42C45.73 25.44 45.75 25.46 45.78 25.49C45.82 25.52 45.86 25.56 45.9 25.59C45.93 25.61 45.95 25.63 45.97 25.65C46 25.68 46.03 25.71 46.06 25.74L46.14 25.8C46.16 25.83 46.19 25.85 46.22 25.88C46.24 25.9 46.27 25.93 46.29 25.95C46.32 25.98 46.35 26 46.37 26.03C46.4 26.05 46.42 26.08 46.44 26.1C46.47 26.13 46.5 26.15 46.52 26.18C46.54 26.2 46.57 26.23 46.59 26.25C46.62 26.28 46.65 26.31 46.67 26.34C46.72 26.39 46.81 26.5 46.86 26.55C46.87 26.57 46.89 26.59 46.91 26.61C46.93 26.64 46.96 26.67 46.99 26.71C47.01 26.73 47.02 26.75 47.04 26.77C47.06 26.8 47.09 26.83 47.11 26.86C47.13 26.89 47.15 26.91 47.17 26.93C47.19 26.96 47.21 26.99 47.23 27.02C47.25 27.05 47.27 27.07 47.28 27.1C47.3 27.13 47.33 27.16 47.35 27.19C47.36 27.21 47.38 27.23 47.39 27.26C47.42 27.29 47.44 27.32 47.46 27.36C47.47 27.38 47.49 27.4 47.5 27.42C47.53 27.47 47.57 27.53 47.62 27.63C47.65 27.67 47.67 27.71 47.69 27.75C47.7 27.77 47.72 27.79 47.73 27.81C47.75 27.85 47.76 27.88 47.78 27.91L47.82 27.98C47.83 28.02 47.85 28.05 47.87 28.08C47.88 28.11 47.89 28.13 47.9 28.16C47.91 28.19 47.93 28.22 47.94 28.26C47.95 28.28 47.96 28.3 47.97 28.33C47.99 28.36 48 28.4 48.02 28.44C48.03 28.46 48.04 28.48 48.04 28.5C48.06 28.55 48.08 28.61 48.11 28.67L48.15 28.81C48.31 29.31 48.39 29.82 48.4 30.34L48.41 24.53Z" fill="url(#paint_linear_97_2401_0)" fill-opacity="1.000000" fill-rule="evenodd"/>
		<path d="M48.16 23L48.12 22.86C48.1 22.8 48.08 22.75 48.06 22.69C48.05 22.67 48.04 22.65 48.04 22.63C48.02 22.59 48.01 22.56 47.99 22.52C47.98 22.5 47.97 22.47 47.96 22.45C47.95 22.42 47.93 22.38 47.92 22.35C47.9 22.32 47.89 22.3 47.88 22.28C47.87 22.24 47.85 22.21 47.83 22.18C47.82 22.15 47.81 22.13 47.8 22.11C47.78 22.07 47.76 22.04 47.74 22C47.73 21.98 47.72 21.96 47.71 21.94C47.69 21.9 47.66 21.86 47.64 21.82C47.58 21.72 47.55 21.66 47.52 21.61C47.5 21.59 47.49 21.57 47.48 21.55C47.45 21.52 47.43 21.48 47.41 21.45C47.4 21.43 47.38 21.4 47.36 21.38C47.34 21.35 47.32 21.32 47.3 21.29C47.28 21.26 47.26 21.24 47.25 21.22C47.23 21.19 47.2 21.16 47.18 21.13C47.16 21.1 47.15 21.08 47.13 21.06C47.1 21.03 47.08 21 47.06 20.97C47.04 20.94 47.02 20.92 47 20.9C46.98 20.87 46.95 20.83 46.93 20.8C46.91 20.78 46.89 20.76 46.87 20.74C46.83 20.69 46.79 20.64 46.74 20.59C46.71 20.56 46.63 20.47 46.6 20.44C46.58 20.42 46.56 20.4 46.54 20.37C46.51 20.35 46.49 20.32 46.46 20.29C46.44 20.27 46.41 20.25 46.39 20.22C46.36 20.2 46.34 20.17 46.31 20.14C46.29 20.12 46.26 20.1 46.24 20.07C46.21 20.05 46.18 20.02 46.15 19.99C46.13 19.97 46.1 19.95 46.08 19.93C46.05 19.9 46.02 19.87 45.99 19.84C45.96 19.82 45.94 19.8 45.92 19.78C45.88 19.75 45.84 19.71 45.8 19.68C45.77 19.66 45.74 19.63 45.72 19.61C45.67 19.58 45.63 19.54 45.59 19.51C45.56 19.49 45.54 19.47 45.52 19.45C45.48 19.42 45.45 19.4 45.41 19.37C45.39 19.35 45.36 19.33 45.33 19.31C45.3 19.28 45.26 19.26 45.23 19.23C45.2 19.21 45.18 19.19 45.15 19.17C45.12 19.15 45.08 19.12 45.04 19.1C45.02 19.08 44.99 19.06 44.96 19.04C44.92 19.01 44.89 18.99 44.85 18.96C44.82 18.94 44.8 18.93 44.77 18.91C44.72 18.88 44.68 18.85 44.63 18.81C44.51 18.74 44.45 18.7 44.38 18.66C44.27 18.59 44.22 18.56 44.17 18.53C44.15 18.52 44.12 18.5 44.1 18.49L44.01 18.44C43.92 18.39 43.87 18.36 43.82 18.33C43.79 18.31 43.76 18.29 43.73 18.28C43.67 18.25 43.61 18.21 43.55 18.18C43.4 18.1 43.31 18.06 43.23 18.01C43.11 17.96 43.04 17.92 42.97 17.89C42.94 17.87 42.91 17.86 42.88 17.84C42.82 17.82 42.76 17.79 42.7 17.76C42.67 17.75 42.63 17.73 42.6 17.72C42.54 17.69 42.49 17.67 42.44 17.64C42.4 17.63 42.36 17.61 42.32 17.59C42.27 17.57 42.22 17.55 42.16 17.53C42.12 17.51 42.08 17.5 42.04 17.48C41.99 17.46 41.93 17.44 41.88 17.41C41.85 17.4 41.82 17.39 41.79 17.38C41.74 17.36 41.65 17.32 41.59 17.3C41.55 17.29 41.52 17.27 41.48 17.26C41.4 17.23 41.31 17.2 41.23 17.17C41.07 17.11 40.99 17.09 40.9 17.06C40.86 17.04 40.83 17.03 40.79 17.02C40.73 17 40.67 16.98 40.61 16.96C40.56 16.95 40.52 16.93 40.48 16.92C40.42 16.9 40.36 16.89 40.31 16.87C40.26 16.85 40.21 16.84 40.17 16.83C40.12 16.81 40.07 16.8 40.03 16.79C39.98 16.77 39.91 16.75 39.86 16.74C39.8 16.72 39.75 16.71 39.69 16.69C39.64 16.68 39.6 16.67 39.55 16.66C39.49 16.64 39.43 16.63 39.37 16.61C39.32 16.6 39.28 16.59 39.23 16.58C39.16 16.56 39.1 16.54 39.03 16.53C38.99 16.52 38.95 16.51 38.92 16.5C38.81 16.48 38.71 16.46 38.6 16.43C38.58 16.43 38.52 16.42 38.5 16.41L38.42 16.4C38.38 16.39 38.33 16.38 38.28 16.37C38.23 16.36 38.19 16.35 38.14 16.34C38.08 16.33 38.01 16.32 37.95 16.3C37.9 16.29 37.85 16.29 37.8 16.28C37.74 16.27 37.68 16.26 37.62 16.25C37.57 16.24 37.52 16.23 37.47 16.22C37.41 16.21 37.34 16.2 37.28 16.19C37.23 16.18 37.18 16.18 37.13 16.17C37.1 16.16 37.07 16.16 37.04 16.16C37.01 16.15 36.97 16.15 36.93 16.14C36.89 16.13 36.84 16.13 36.79 16.12C36.72 16.11 36.64 16.1 36.56 16.09L36.45 16.08C36.34 16.07 36.22 16.05 36.11 16.04C35.94 16.02 35.85 16.01 35.76 16.01C35.72 16 35.68 16 35.64 16C35.6 15.99 35.57 15.99 35.54 15.99C35.49 15.98 35.45 15.98 35.41 15.98C35.36 15.97 35.32 15.97 35.27 15.97C35.2 15.96 35.13 15.96 35.05 15.95C35.01 15.95 34.96 15.95 34.91 15.95C34.84 15.94 34.77 15.94 34.69 15.93C34.65 15.93 34.6 15.93 34.55 15.93C34.48 15.92 34.4 15.92 34.33 15.92C34.28 15.92 34.24 15.92 34.19 15.91C34.13 15.91 34.01 15.91 33.94 15.91L33.83 15.91C33.71 15.91 33.59 15.9 33.47 15.9C33.17 15.9 32.87 15.91 32.58 15.92C32.48 15.92 32.38 15.93 32.28 15.94C31.98 15.95 31.68 15.97 31.38 16C31.24 16.01 31.09 16.01 30.94 16.03C30.83 16.04 30.72 16.06 30.61 16.07C30.51 16.08 30.4 16.09 30.3 16.11C29.88 16.16 29.46 16.22 29.05 16.29C28.57 16.38 28.09 16.48 27.64 16.59C27.53 16.62 27.44 16.65 27.34 16.68C26.99 16.77 26.64 16.86 26.31 16.97C25.94 17.09 25.56 17.22 25.21 17.36C25.11 17.4 25.02 17.44 24.92 17.48C24.66 17.59 24.39 17.7 24.14 17.82C24.04 17.86 23.95 17.91 23.85 17.96C23.52 18.12 23.21 18.28 22.9 18.46C22.85 18.49 22.79 18.53 22.74 18.56C22.69 18.59 22.66 18.62 22.61 18.65C22.36 18.8 22.11 18.97 21.88 19.13C21.81 19.18 21.74 19.24 21.67 19.29C21.4 19.49 21.14 19.7 20.9 19.92C20.79 20.03 20.65 20.17 20.54 20.28C20.49 20.33 20.44 20.37 20.39 20.42C20.23 20.6 20.08 20.77 19.94 20.95C19.82 21.1 19.68 21.31 19.57 21.47C19.54 21.53 19.5 21.58 19.47 21.63C19.43 21.7 19.39 21.77 19.35 21.83C19.31 21.9 19.28 21.97 19.24 22.04C19.22 22.08 19.2 22.12 19.18 22.17C19.09 22.34 19.02 22.5 18.96 22.67L18.89 22.86C18.82 23.07 18.76 23.28 18.72 23.49C18.72 23.51 18.72 23.53 18.71 23.55C18.71 23.58 18.7 23.61 18.7 23.64C18.66 23.87 18.63 24.09 18.62 24.32C18.62 24.37 18.62 24.44 18.62 24.49L18.6 30.3C18.6 30.24 18.6 30.18 18.61 30.13C18.61 30 18.63 29.87 18.65 29.74L18.65 30.97L18.65 31.05L18.66 29.67C18.67 29.59 18.67 29.52 18.68 29.45C18.69 29.42 18.69 29.39 18.7 29.36C18.74 29.13 18.8 28.9 18.87 28.67L18.92 28.54C18.99 28.35 19.07 28.16 19.16 27.98C19.18 27.93 19.2 27.89 19.23 27.84C19.3 27.71 19.37 27.58 19.45 27.44C19.49 27.39 19.52 27.33 19.56 27.28C19.66 27.12 19.77 26.96 19.89 26.8C20.03 26.62 20.22 26.41 20.38 26.23C20.42 26.18 20.48 26.13 20.53 26.09C20.64 25.97 20.76 25.85 20.88 25.73C21.12 25.51 21.38 25.3 21.65 25.09C21.72 25.04 21.8 24.99 21.87 24.94C22.1 24.77 22.34 24.61 22.59 24.45C22.69 24.39 22.78 24.33 22.89 24.27C23.19 24.09 23.51 23.93 23.84 23.76C23.93 23.72 24.03 23.67 24.13 23.63C24.38 23.51 24.64 23.4 24.9 23.29C25 23.25 25.1 23.21 25.2 23.17C25.55 23.03 25.92 22.9 26.29 22.78C26.63 22.67 26.98 22.57 27.34 22.48C27.43 22.46 27.52 22.43 27.62 22.4C28.07 22.29 28.54 22.19 29.02 22.1C29.43 22.03 29.85 21.97 30.28 21.91C30.39 21.9 30.49 21.89 30.6 21.88C30.85 21.85 31.11 21.83 31.36 21.81C31.66 21.78 31.96 21.76 32.27 21.75C32.66 21.73 33.05 21.71 33.45 21.71C33.57 21.71 33.69 21.71 33.81 21.72C33.85 21.72 33.89 21.72 33.93 21.72C34.01 21.72 34.09 21.72 34.18 21.72C34.22 21.72 34.27 21.73 34.31 21.73C34.39 21.73 34.46 21.73 34.54 21.74C34.58 21.74 34.63 21.74 34.68 21.74C34.75 21.75 34.82 21.75 34.9 21.75L35.04 21.76C35.11 21.77 35.18 21.77 35.25 21.78C35.3 21.78 35.35 21.78 35.39 21.79C35.47 21.79 35.54 21.8 35.62 21.8C35.66 21.81 35.7 21.81 35.75 21.82C35.83 21.82 35.92 21.83 36.09 21.85C36.21 21.86 36.32 21.87 36.44 21.89C36.47 21.89 36.51 21.9 36.55 21.9C36.62 21.91 36.7 21.92 36.78 21.93C36.82 21.94 36.87 21.94 36.92 21.95C36.98 21.96 37.05 21.97 37.12 21.98C37.16 21.98 37.21 21.99 37.26 22C37.33 22.01 37.39 22.02 37.45 22.03C37.5 22.04 37.55 22.05 37.6 22.05C37.66 22.06 37.72 22.07 37.79 22.09C37.84 22.1 37.89 22.1 37.93 22.11C38 22.12 38.06 22.14 38.12 22.15C38.17 22.16 38.22 22.17 38.26 22.17C38.33 22.19 38.4 22.2 38.47 22.22C38.51 22.23 38.55 22.23 38.59 22.24C38.69 22.26 38.8 22.29 38.9 22.31C38.94 22.32 38.97 22.33 39.01 22.34C39.08 22.35 39.15 22.37 39.22 22.39C39.26 22.4 39.31 22.41 39.35 22.42C39.41 22.43 39.47 22.45 39.53 22.47C39.58 22.48 39.62 22.49 39.67 22.5C39.73 22.52 39.79 22.53 39.84 22.55C39.89 22.56 39.94 22.57 39.98 22.59C40.04 22.6 40.1 22.62 40.15 22.64C40.2 22.65 40.24 22.66 40.29 22.68C40.35 22.69 40.4 22.71 40.46 22.73C40.5 22.74 40.55 22.76 40.59 22.77C40.65 22.79 40.71 22.81 40.77 22.83C40.81 22.84 40.85 22.85 40.89 22.87C40.97 22.89 41.05 22.92 41.21 22.98C41.3 23.01 41.38 23.04 41.46 23.07C41.5 23.08 41.53 23.1 41.57 23.11C41.63 23.13 41.69 23.15 41.75 23.18C41.79 23.19 41.82 23.21 41.86 23.22C41.92 23.24 41.97 23.27 42.03 23.29C42.07 23.3 42.11 23.32 42.15 23.34C42.2 23.36 42.25 23.38 42.3 23.4C42.34 23.42 42.38 23.44 42.42 23.45C42.47 23.48 42.53 23.5 42.58 23.53C42.62 23.54 42.65 23.56 42.69 23.57C42.75 23.6 42.8 23.63 42.86 23.65C42.89 23.67 42.92 23.68 42.95 23.7C43.02 23.73 43.09 23.76 43.21 23.82C43.3 23.87 43.38 23.91 43.53 23.99C43.59 24.02 43.65 24.05 43.71 24.09C43.74 24.1 43.77 24.12 43.8 24.14C43.85 24.16 43.91 24.19 43.99 24.24C44.02 24.26 44.05 24.28 44.08 24.29C44.11 24.31 44.13 24.32 44.16 24.34C44.21 24.37 44.25 24.4 44.36 24.46C44.43 24.51 44.5 24.55 44.61 24.62C44.66 24.65 44.71 24.69 44.76 24.72C44.78 24.73 44.81 24.75 44.83 24.77C44.87 24.8 44.91 24.82 44.95 24.85C44.97 24.87 45 24.89 45.03 24.9C45.06 24.93 45.1 24.96 45.13 24.98C45.16 25 45.19 25.02 45.21 25.04C45.25 25.07 45.28 25.09 45.32 25.12C45.34 25.14 45.37 25.16 45.39 25.18C45.43 25.2 45.47 25.23 45.5 25.26C45.52 25.28 45.55 25.3 45.57 25.31C45.62 25.35 45.66 25.39 45.7 25.42C45.73 25.44 45.75 25.46 45.78 25.49C45.82 25.52 45.86 25.56 45.9 25.59C45.93 25.61 45.95 25.63 45.97 25.65C46 25.68 46.03 25.71 46.06 25.74L46.14 25.8C46.16 25.83 46.19 25.85 46.22 25.88C46.24 25.9 46.27 25.93 46.29 25.95C46.32 25.98 46.35 26 46.37 26.03C46.4 26.05 46.42 26.08 46.44 26.1C46.47 26.13 46.5 26.15 46.52 26.18C46.54 26.2 46.57 26.23 46.59 26.25C46.62 26.28 46.65 26.31 46.67 26.34C46.72 26.39 46.81 26.5 46.86 26.55C46.87 26.57 46.89 26.59 46.91 26.61C46.93 26.64 46.96 26.67 46.99 26.71C47.01 26.73 47.02 26.75 47.04 26.77C47.06 26.8 47.09 26.83 47.11 26.86C47.13 26.89 47.15 26.91 47.17 26.93C47.19 26.96 47.21 26.99 47.23 27.02C47.25 27.05 47.27 27.07 47.28 27.1C47.3 27.13 47.33 27.16 47.35 27.19C47.36 27.21 47.38 27.23 47.39 27.26C47.42 27.29 47.44 27.32 47.46 27.36C47.47 27.38 47.49 27.4 47.5 27.42C47.53 27.47 47.57 27.53 47.62 27.63C47.65 27.67 47.67 27.71 47.69 27.75C47.7 27.77 47.72 27.79 47.73 27.81C47.75 27.85 47.76 27.88 47.78 27.91L47.82 27.98C47.83 28.02 47.85 28.05 47.87 28.08C47.88 28.11 47.89 28.13 47.9 28.16C47.91 28.19 47.93 28.22 47.94 28.26C47.95 28.28 47.96 28.3 47.97 28.33C47.99 28.36 48 28.4 48.02 28.44C48.03 28.46 48.04 28.48 48.04 28.5C48.06 28.55 48.08 28.61 48.11 28.67L48.15 28.81C48.31 29.31 48.39 29.82 48.4 30.34L48.41 24.53C48.41 24.01 48.33 23.5 48.16 23Z" stroke="#000000" stroke-opacity="0" stroke-width="1.000000"/>
		<path d="M16.75 30.44C16.59 30.29 16.5 30.2 16.42 30.11C16.32 30.02 16.23 29.92 16.14 29.82C15.73 29.37 15.37 28.9 15.06 28.42C15 28.31 14.93 28.2 14.87 28.09C14.84 28.04 14.81 27.99 14.78 27.93C14.66 27.71 14.55 27.49 14.45 27.27C14.43 27.21 14.41 27.15 14.38 27.1C14.34 26.99 14.29 26.87 14.25 26.76C14.24 26.7 14.22 26.64 14.2 26.59C14.11 26.3 14.03 26.01 13.98 25.72C13.97 25.66 13.96 25.6 13.95 25.54C13.94 25.47 13.93 25.42 13.93 25.37C13.88 25.01 13.87 24.77 13.87 24.53L13.85 30.32C13.85 30.56 13.87 30.81 13.91 31.18C13.92 31.23 13.92 31.28 13.93 31.35C13.94 31.41 13.95 31.47 13.96 31.52C14.02 31.82 14.09 32.11 14.18 32.39C14.2 32.45 14.22 32.51 14.24 32.57C14.28 32.68 14.32 32.79 14.37 32.91C14.39 32.96 14.41 33.02 14.44 33.07C14.53 33.3 14.64 33.52 14.76 33.74C14.79 33.79 14.82 33.85 14.85 33.9C14.91 34.01 14.98 34.12 15.05 34.23C15.35 34.71 15.71 35.18 16.12 35.63C16.21 35.72 16.31 35.82 16.4 35.92C16.49 36.01 16.58 36.1 16.73 36.25C16.82 36.33 16.91 36.42 17.02 36.51L17.04 30.7C16.93 30.61 16.84 30.53 16.75 30.44Z" fill="url(#paint_linear_97_2402_0)" fill-opacity="1.000000" fill-rule="evenodd"/>
		<path d="M16.42 30.11C16.32 30.02 16.23 29.92 16.14 29.82C15.73 29.37 15.37 28.9 15.06 28.42C15 28.31 14.93 28.2 14.87 28.09C14.84 28.04 14.81 27.99 14.78 27.93C14.66 27.71 14.55 27.49 14.45 27.27C14.43 27.21 14.41 27.15 14.38 27.1C14.34 26.99 14.29 26.87 14.25 26.76C14.24 26.7 14.22 26.64 14.2 26.59C14.11 26.3 14.03 26.01 13.98 25.72C13.97 25.66 13.96 25.6 13.95 25.54C13.94 25.47 13.93 25.42 13.93 25.37C13.88 25.01 13.87 24.77 13.87 24.53L13.85 30.32C13.85 30.56 13.87 30.81 13.91 31.18C13.92 31.23 13.92 31.28 13.93 31.35C13.94 31.41 13.95 31.47 13.96 31.52C14.02 31.82 14.09 32.11 14.18 32.39C14.2 32.45 14.22 32.51 14.24 32.57C14.28 32.68 14.32 32.79 14.37 32.91C14.39 32.96 14.41 33.02 14.44 33.07C14.53 33.3 14.64 33.52 14.76 33.74C14.79 33.79 14.82 33.85 14.85 33.9C14.91 34.01 14.98 34.12 15.05 34.23C15.35 34.71 15.71 35.18 16.12 35.63C16.21 35.72 16.31 35.82 16.4 35.92C16.49 36.01 16.58 36.1 16.73 36.25C16.82 36.33 16.91 36.42 17.02 36.51L17.04 30.7C16.93 30.61 16.84 30.53 16.75 30.44C16.59 30.29 16.5 30.2 16.42 30.11Z" stroke="#000000" stroke-opacity="0" stroke-width="1.000000"/>
		<path d="M53.16 24.79C53.15 25.05 53.12 25.31 53.08 25.57C53.07 25.63 53.06 25.69 53.05 25.74C53.01 26.01 52.95 26.27 52.87 26.52C52.8 26.76 52.72 26.98 52.62 27.21C52.6 27.28 52.57 27.34 52.54 27.41C52.44 27.64 52.33 27.87 52.2 28.09C52.07 28.32 51.92 28.56 51.77 28.78C51.72 28.85 51.67 28.92 51.62 28.99C51.51 29.14 51.39 29.28 51.27 29.43C51.19 29.54 51.1 29.64 51 29.75C50.89 29.87 50.78 29.99 50.66 30.12C50.56 30.22 50.46 30.32 50.36 30.42C50.25 30.52 50.14 30.62 50.03 30.72C49.83 30.9 49.62 31.08 49.4 31.25C49.3 31.33 49.21 31.41 49.11 31.48C48.79 31.72 48.46 31.96 48.11 32.18C47.93 32.3 47.74 32.41 47.56 32.52C46.9 32.91 46.19 33.27 45.45 33.6C45.34 33.64 45.23 33.69 45.12 33.74C44.91 33.83 44.69 33.92 44.46 34C43.94 34.21 43.39 34.39 42.83 34.57C42.74 34.6 42.64 34.62 42.55 34.65C42.01 34.81 41.45 34.97 40.88 35.1C40.63 35.16 40.37 35.22 40.11 35.27C39.78 35.34 39.44 35.39 39.11 35.45C38.91 35.48 38.72 35.52 38.52 35.54C38.29 35.58 38.06 35.61 37.83 35.64C37.63 35.67 37.43 35.69 37.23 35.71C37.05 35.73 36.87 35.75 36.68 35.77C36.06 35.82 35.44 35.87 34.8 35.89C34.7 35.9 34.6 35.9 34.49 35.9C34.19 35.91 33.89 35.91 33.58 35.91C33.5 35.91 33.43 35.91 33.35 35.91C33.13 35.91 32.9 35.91 32.68 35.9C32.36 35.89 32.13 35.88 31.89 35.87C31.74 35.86 31.58 35.86 31.43 35.85C31.19 35.83 30.96 35.82 30.73 35.8C30.17 35.75 29.63 35.69 29.08 35.61C28.87 35.58 28.66 35.56 28.45 35.52C28.3 35.5 28.15 35.48 28 35.45C27.7 35.4 27.4 35.34 27.11 35.29C26.96 35.26 26.82 35.22 26.67 35.19C26.45 35.14 26.23 35.1 26.02 35.04C25.94 35.03 25.87 35.01 25.8 34.99C25.66 34.95 25.51 34.92 25.37 34.88C24.78 34.72 24.2 34.54 23.64 34.35C23.58 34.33 23.52 34.31 23.45 34.28C22.93 34.1 22.42 33.91 21.94 33.71C21.83 33.66 21.72 33.62 21.62 33.57C21.41 33.48 21.2 33.38 21 33.28C20.9 33.23 20.8 33.18 20.7 33.13C20.5 33.03 20.3 32.93 20.11 32.83L9.09 39.23C8.94 39.31 8.78 39.38 8.61 39.43C8.55 39.45 8.49 39.47 8.43 39.49C8.35 39.51 8.28 39.53 8.2 39.55C8.11 39.57 8.01 39.58 7.91 39.6C7.89 39.6 7.87 39.6 7.84 39.6C7.7 39.62 7.55 39.63 7.41 39.63C7.27 39.63 7.13 39.62 6.99 39.6C6.86 39.59 6.67 39.56 6.55 39.53C6.52 39.53 6.5 39.52 6.48 39.52C6.36 39.49 6.25 39.45 6.14 39.41C6.01 39.36 5.84 39.29 5.73 39.22C5.35 39.01 5.13 38.73 5.05 38.45C5.04 38.41 5.03 38.36 5.03 38.32L5.01 44.1C5.02 44.14 5.02 44.21 5.04 44.26C5.11 44.54 5.33 44.82 5.71 45.03C5.82 45.09 5.94 45.15 6.06 45.2C6.07 45.21 6.11 45.21 6.13 45.22C6.2 45.25 6.27 45.27 6.35 45.3C6.38 45.31 6.42 45.31 6.46 45.32C6.48 45.33 6.51 45.34 6.53 45.34C6.55 45.35 6.57 45.35 6.6 45.36C6.67 45.37 6.75 45.39 6.83 45.4C6.86 45.4 6.88 45.4 6.91 45.41C6.94 45.41 7.03 45.42 7.06 45.42C7.14 45.43 7.22 45.43 7.29 45.44C7.33 45.44 7.36 45.44 7.39 45.44C7.44 45.44 7.49 45.44 7.54 45.43C7.62 45.43 7.71 45.43 7.8 45.42C7.82 45.41 7.87 45.41 7.9 45.4C7.96 45.39 8.03 45.39 8.1 45.38C8.13 45.37 8.16 45.36 8.19 45.35C8.26 45.34 8.34 45.32 8.41 45.3C8.45 45.29 8.5 45.28 8.54 45.27C8.71 45.21 8.92 45.12 9.07 45.03L20.09 38.63C20.28 38.74 20.48 38.84 20.68 38.94C20.78 38.99 20.88 39.04 20.98 39.09C21.19 39.19 21.39 39.28 21.6 39.38C21.71 39.42 21.81 39.47 21.92 39.52C22.12 39.6 22.31 39.68 22.51 39.76C22.81 39.88 23.12 39.98 23.43 40.09C23.5 40.12 23.56 40.14 23.63 40.16C24.05 40.31 24.47 40.44 24.91 40.57C25.06 40.61 25.21 40.65 25.35 40.69C25.5 40.73 25.64 40.76 25.78 40.8C25.86 40.82 25.93 40.83 26 40.85C26.22 40.9 26.44 40.95 26.65 41C26.76 41.02 26.86 41.05 26.96 41.07C27 41.08 27.05 41.08 27.09 41.09C27.39 41.15 27.68 41.21 27.98 41.26C28.13 41.28 28.28 41.31 28.43 41.33C28.58 41.36 28.72 41.38 28.87 41.4C28.93 41.41 29 41.41 29.06 41.42C29.61 41.49 30.16 41.56 30.71 41.6C30.94 41.62 31.18 41.64 31.41 41.66C31.57 41.66 31.72 41.67 31.88 41.68C32.11 41.69 32.35 41.7 32.66 41.71C32.73 41.71 32.79 41.71 32.86 41.72C33.02 41.72 33.18 41.72 33.34 41.72C33.41 41.72 33.49 41.72 33.56 41.72C33.87 41.72 34.18 41.72 34.48 41.71C34.58 41.71 34.68 41.7 34.77 41.7C35.41 41.68 36.05 41.63 36.67 41.57C36.74 41.57 36.82 41.57 36.9 41.56C37 41.55 37.11 41.53 37.22 41.52C37.42 41.5 37.62 41.48 37.81 41.45C38.05 41.42 38.28 41.39 38.51 41.35C38.7 41.32 38.9 41.29 39.09 41.26C39.19 41.24 39.29 41.23 39.39 41.21C39.63 41.17 39.86 41.12 40.1 41.08C40.35 41.02 40.61 40.97 40.86 40.91C41.44 40.78 41.99 40.62 42.53 40.46C42.63 40.43 42.72 40.41 42.82 40.38C42.89 40.35 42.97 40.33 43.04 40.31C43.52 40.16 43.99 39.99 44.45 39.81C44.67 39.73 44.89 39.64 45.11 39.55C45.22 39.5 45.32 39.45 45.43 39.41C46.18 39.08 46.88 38.72 47.54 38.33C47.6 38.29 47.66 38.26 47.72 38.22C47.85 38.14 47.97 38.07 48.09 37.99C48.44 37.76 48.77 37.53 49.09 37.29C49.19 37.21 49.28 37.14 49.38 37.06C49.6 36.89 49.81 36.71 50.01 36.53C50.07 36.48 50.13 36.44 50.18 36.39C50.23 36.34 50.28 36.28 50.34 36.23C50.44 36.13 50.55 36.03 50.64 35.92C50.76 35.8 50.88 35.68 50.99 35.55C51.08 35.45 51.17 35.34 51.26 35.24C51.3 35.18 51.35 35.13 51.4 35.08C51.47 34.98 51.53 34.89 51.6 34.8C51.65 34.73 51.7 34.66 51.75 34.59C51.9 34.37 52.05 34.14 52.18 33.91C52.31 33.68 52.42 33.45 52.53 33.22C52.55 33.15 52.58 33.09 52.61 33.02C52.64 32.95 52.67 32.88 52.7 32.8C52.76 32.65 52.81 32.49 52.86 32.33C52.92 32.13 52.97 31.92 53.01 31.71C53.02 31.66 53.03 31.6 53.04 31.55C53.05 31.49 53.06 31.44 53.07 31.38C53.1 31.12 53.13 30.86 53.14 30.6C53.14 30.54 53.15 30.46 53.15 30.4L53.16 24.59C53.16 24.66 53.16 24.72 53.16 24.79Z" fill="url(#paint_linear_97_2403_0)" fill-opacity="1.000000" fill-rule="evenodd"/>
		<path d="M53.08 25.57C53.07 25.63 53.06 25.69 53.05 25.74C53.01 26.01 52.95 26.27 52.87 26.52C52.8 26.76 52.72 26.98 52.62 27.21C52.6 27.28 52.57 27.34 52.54 27.41C52.44 27.64 52.33 27.87 52.2 28.09C52.07 28.32 51.92 28.56 51.77 28.78C51.72 28.85 51.67 28.92 51.62 28.99C51.51 29.14 51.39 29.28 51.27 29.43C51.19 29.54 51.1 29.64 51 29.75C50.89 29.87 50.78 29.99 50.66 30.12C50.56 30.22 50.46 30.32 50.36 30.42C50.25 30.52 50.14 30.62 50.03 30.72C49.83 30.9 49.62 31.08 49.4 31.25C49.3 31.33 49.21 31.41 49.11 31.48C48.79 31.72 48.46 31.96 48.11 32.18C47.93 32.3 47.74 32.41 47.56 32.52C46.9 32.91 46.19 33.27 45.45 33.6C45.34 33.64 45.23 33.69 45.12 33.74C44.91 33.83 44.69 33.92 44.46 34C43.94 34.21 43.39 34.39 42.83 34.57C42.74 34.6 42.64 34.62 42.55 34.65C42.01 34.81 41.45 34.97 40.88 35.1C40.63 35.16 40.37 35.22 40.11 35.27C39.78 35.34 39.44 35.39 39.11 35.45C38.91 35.48 38.72 35.52 38.52 35.54C38.29 35.58 38.06 35.61 37.83 35.64C37.63 35.67 37.43 35.69 37.23 35.71C37.05 35.73 36.87 35.75 36.68 35.77C36.06 35.82 35.44 35.87 34.8 35.89C34.7 35.9 34.6 35.9 34.49 35.9C34.19 35.91 33.89 35.91 33.58 35.91C33.5 35.91 33.43 35.91 33.35 35.91C33.13 35.91 32.9 35.91 32.68 35.9C32.36 35.89 32.13 35.88 31.89 35.87C31.74 35.86 31.58 35.86 31.43 35.85C31.19 35.83 30.96 35.82 30.73 35.8C30.17 35.75 29.63 35.69 29.08 35.61C28.87 35.58 28.66 35.56 28.45 35.52C28.3 35.5 28.15 35.48 28 35.45C27.7 35.4 27.4 35.34 27.11 35.29C26.96 35.26 26.82 35.22 26.67 35.19C26.45 35.14 26.23 35.1 26.02 35.04C25.94 35.03 25.87 35.01 25.8 34.99C25.66 34.95 25.51 34.92 25.37 34.88C24.78 34.72 24.2 34.54 23.64 34.35C23.58 34.33 23.52 34.31 23.45 34.28C22.93 34.1 22.42 33.91 21.94 33.71C21.83 33.66 21.72 33.62 21.62 33.57C21.41 33.48 21.2 33.38 21 33.28C20.9 33.23 20.8 33.18 20.7 33.13C20.5 33.03 20.3 32.93 20.11 32.83L9.09 39.23C8.94 39.31 8.78 39.38 8.61 39.43C8.55 39.45 8.49 39.47 8.43 39.49C8.35 39.51 8.28 39.53 8.2 39.55C8.11 39.57 8.01 39.58 7.91 39.6C7.89 39.6 7.87 39.6 7.84 39.6C7.7 39.62 7.55 39.63 7.41 39.63C7.27 39.63 7.13 39.62 6.99 39.6C6.86 39.59 6.67 39.56 6.55 39.53C6.52 39.53 6.5 39.52 6.48 39.52C6.36 39.49 6.25 39.45 6.14 39.41C6.01 39.36 5.84 39.29 5.73 39.22C5.35 39.01 5.13 38.73 5.05 38.45C5.04 38.41 5.03 38.36 5.03 38.32L5.01 44.1C5.02 44.14 5.02 44.21 5.04 44.26C5.11 44.54 5.33 44.82 5.71 45.03C5.82 45.09 5.94 45.15 6.06 45.2C6.07 45.21 6.11 45.21 6.13 45.22C6.2 45.25 6.27 45.27 6.35 45.3C6.38 45.31 6.42 45.31 6.46 45.32C6.48 45.33 6.51 45.34 6.53 45.34C6.55 45.35 6.57 45.35 6.6 45.36C6.67 45.37 6.75 45.39 6.83 45.4C6.86 45.4 6.88 45.4 6.91 45.41C6.94 45.41 7.03 45.42 7.06 45.42C7.14 45.43 7.22 45.43 7.29 45.44C7.33 45.44 7.36 45.44 7.39 45.44C7.44 45.44 7.49 45.44 7.54 45.43C7.62 45.43 7.71 45.43 7.8 45.42C7.82 45.41 7.87 45.41 7.9 45.4C7.96 45.39 8.03 45.39 8.1 45.38C8.13 45.37 8.16 45.36 8.19 45.35C8.26 45.34 8.34 45.32 8.41 45.3C8.45 45.29 8.5 45.28 8.54 45.27C8.71 45.21 8.92 45.12 9.07 45.03L20.09 38.63C20.28 38.74 20.48 38.84 20.68 38.94C20.78 38.99 20.88 39.04 20.98 39.09C21.19 39.19 21.39 39.28 21.6 39.38C21.71 39.42 21.81 39.47 21.92 39.52C22.12 39.6 22.31 39.68 22.51 39.76C22.81 39.88 23.12 39.98 23.43 40.09C23.5 40.12 23.56 40.14 23.63 40.16C24.05 40.31 24.47 40.44 24.91 40.57C25.06 40.61 25.21 40.65 25.35 40.69C25.5 40.73 25.64 40.76 25.78 40.8C25.86 40.82 25.93 40.83 26 40.85C26.22 40.9 26.44 40.95 26.65 41C26.76 41.02 26.86 41.05 26.96 41.07C27 41.08 27.05 41.08 27.09 41.09C27.39 41.15 27.68 41.21 27.98 41.26C28.13 41.28 28.28 41.31 28.43 41.33C28.58 41.36 28.72 41.38 28.87 41.4C28.93 41.41 29 41.41 29.06 41.42C29.61 41.49 30.16 41.56 30.71 41.6C30.94 41.62 31.18 41.64 31.41 41.66C31.57 41.66 31.72 41.67 31.88 41.68C32.11 41.69 32.35 41.7 32.66 41.71C32.73 41.71 32.79 41.71 32.86 41.72C33.02 41.72 33.18 41.72 33.34 41.72C33.41 41.72 33.49 41.72 33.56 41.72C33.87 41.72 34.18 41.72 34.48 41.71C34.58 41.71 34.68 41.7 34.77 41.7C35.41 41.68 36.05 41.63 36.67 41.57C36.74 41.57 36.82 41.57 36.9 41.56C37 41.55 37.11 41.53 37.22 41.52C37.42 41.5 37.62 41.48 37.81 41.45C38.05 41.42 38.28 41.39 38.51 41.35C38.7 41.32 38.9 41.29 39.09 41.26C39.19 41.24 39.29 41.23 39.39 41.21C39.63 41.17 39.86 41.12 40.1 41.08C40.35 41.02 40.61 40.97 40.86 40.91C41.44 40.78 41.99 40.62 42.53 40.46C42.63 40.43 42.72 40.41 42.82 40.38C42.89 40.35 42.97 40.33 43.04 40.31C43.52 40.16 43.99 39.99 44.45 39.81C44.67 39.73 44.89 39.64 45.11 39.55C45.22 39.5 45.32 39.45 45.43 39.41C46.18 39.08 46.88 38.72 47.54 38.33C47.6 38.29 47.66 38.26 47.72 38.22C47.85 38.14 47.97 38.07 48.09 37.99C48.44 37.76 48.77 37.53 49.09 37.29C49.19 37.21 49.28 37.14 49.38 37.06C49.6 36.89 49.81 36.71 50.01 36.53C50.07 36.48 50.13 36.44 50.18 36.39C50.23 36.34 50.28 36.28 50.34 36.23C50.44 36.13 50.55 36.03 50.64 35.92C50.76 35.8 50.88 35.68 50.99 35.55C51.08 35.45 51.17 35.34 51.26 35.24C51.3 35.18 51.35 35.13 51.4 35.08C51.47 34.98 51.53 34.89 51.6 34.8C51.65 34.73 51.7 34.66 51.75 34.59C51.9 34.37 52.05 34.14 52.18 33.91C52.31 33.68 52.42 33.45 52.53 33.22C52.55 33.15 52.58 33.09 52.61 33.02C52.64 32.95 52.67 32.88 52.7 32.8C52.76 32.65 52.81 32.49 52.86 32.33C52.92 32.13 52.97 31.92 53.01 31.71C53.02 31.66 53.03 31.6 53.04 31.55C53.05 31.49 53.06 31.44 53.07 31.38C53.1 31.12 53.13 30.86 53.14 30.6C53.14 30.54 53.15 30.46 53.15 30.4L53.16 24.59C53.16 24.66 53.16 24.72 53.16 24.79C53.15 25.05 53.12 25.31 53.08 25.57Z" stroke="#000000" stroke-opacity="0" stroke-width="1.000000"/>
		<path d="M43.95 30.71C44.09 30.62 44.23 30.54 44.37 30.46C44.5 30.38 44.63 30.3 44.75 30.21C45.03 30.03 45.27 29.85 45.5 29.67C45.56 29.63 45.62 29.58 45.68 29.53C46.19 29.12 46.64 28.67 47.02 28.2C47.1 28.11 47.16 28.02 47.23 27.93C47.26 27.89 47.29 27.85 47.31 27.81C47.37 27.73 47.43 27.64 47.49 27.56C47.54 27.48 47.59 27.39 47.64 27.31C47.73 27.15 47.82 26.99 47.89 26.82C47.93 26.75 47.95 26.69 47.98 26.62C48.04 26.48 48.1 26.34 48.14 26.2L48.19 26.07C48.34 25.57 48.41 25.06 48.41 24.53C48.41 24.01 48.33 23.5 48.17 23L48.12 22.86C48.1 22.8 48.08 22.75 48.06 22.69C48.05 22.67 48.04 22.65 48.04 22.63C48.02 22.59 48.01 22.56 47.99 22.52C47.98 22.5 47.97 22.47 47.96 22.45C47.95 22.42 47.93 22.38 47.92 22.35C47.9 22.32 47.89 22.3 47.88 22.28C47.87 22.24 47.85 22.21 47.83 22.18C47.82 22.15 47.81 22.13 47.8 22.11C47.78 22.07 47.76 22.04 47.74 22C47.73 21.98 47.72 21.96 47.71 21.94C47.69 21.9 47.66 21.86 47.64 21.82C47.58 21.72 47.55 21.66 47.52 21.61C47.5 21.59 47.49 21.57 47.48 21.55C47.45 21.52 47.43 21.48 47.41 21.45C47.39 21.43 47.38 21.4 47.36 21.38C47.34 21.35 47.32 21.32 47.3 21.29C47.28 21.26 47.26 21.24 47.25 21.22C47.23 21.19 47.2 21.16 47.18 21.13C47.16 21.1 47.15 21.08 47.13 21.06C47.1 21.02 47.08 21 47.06 20.97C47.04 20.94 47.02 20.92 47 20.9C46.98 20.87 46.95 20.83 46.93 20.8C46.91 20.78 46.89 20.76 46.87 20.74C46.83 20.69 46.79 20.64 46.74 20.59C46.72 20.56 46.63 20.47 46.6 20.44C46.58 20.42 46.56 20.4 46.54 20.37C46.51 20.35 46.49 20.32 46.46 20.29C46.44 20.27 46.41 20.25 46.39 20.22C46.36 20.2 46.34 20.17 46.31 20.14C46.29 20.12 46.26 20.1 46.24 20.07C46.21 20.05 46.18 20.02 46.15 19.99C46.13 19.97 46.11 19.95 46.08 19.93C46.05 19.9 46.02 19.87 45.99 19.84C45.97 19.82 45.94 19.8 45.92 19.78C45.88 19.75 45.84 19.71 45.8 19.68C45.77 19.66 45.74 19.63 45.72 19.61C45.67 19.58 45.63 19.54 45.59 19.51C45.56 19.49 45.54 19.47 45.52 19.45C45.48 19.42 45.45 19.4 45.41 19.37C45.39 19.35 45.36 19.33 45.33 19.31C45.3 19.28 45.26 19.26 45.23 19.23C45.2 19.21 45.18 19.19 45.15 19.17C45.11 19.15 45.08 19.12 45.04 19.1C45.02 19.08 44.99 19.06 44.96 19.04C44.92 19.01 44.89 18.99 44.85 18.96C44.82 18.94 44.8 18.93 44.77 18.91C44.72 18.88 44.68 18.85 44.63 18.81C44.51 18.74 44.45 18.7 44.38 18.66C44.27 18.59 44.22 18.56 44.17 18.53C44.15 18.52 44.12 18.5 44.1 18.49C44.07 18.47 44.04 18.45 44.01 18.44C43.92 18.39 43.87 18.36 43.82 18.33C43.79 18.31 43.76 18.29 43.73 18.28C43.67 18.25 43.61 18.21 43.55 18.18C43.4 18.1 43.31 18.06 43.23 18.01C43.11 17.96 43.04 17.92 42.97 17.89C42.94 17.87 42.91 17.86 42.88 17.84C42.82 17.82 42.76 17.79 42.7 17.76C42.67 17.75 42.63 17.73 42.6 17.72C42.54 17.69 42.49 17.67 42.44 17.65C42.4 17.63 42.36 17.61 42.32 17.6C42.27 17.57 42.22 17.55 42.16 17.53C42.12 17.51 42.08 17.5 42.04 17.48C41.99 17.46 41.93 17.43 41.88 17.41C41.84 17.4 41.8 17.38 41.76 17.37C41.7 17.34 41.65 17.32 41.59 17.3C41.55 17.29 41.51 17.27 41.48 17.26C41.4 17.23 41.31 17.2 41.23 17.17C41.07 17.11 40.99 17.09 40.9 17.06C40.86 17.04 40.83 17.03 40.79 17.02C40.73 17 40.67 16.98 40.61 16.96C40.56 16.95 40.52 16.93 40.48 16.92C40.42 16.9 40.36 16.89 40.31 16.87C40.26 16.85 40.21 16.84 40.17 16.83C40.11 16.81 40.06 16.79 40 16.78C39.95 16.77 39.91 16.75 39.86 16.74C39.8 16.72 39.75 16.71 39.69 16.69C39.64 16.68 39.6 16.67 39.55 16.66C39.49 16.64 39.43 16.63 39.37 16.61C39.32 16.6 39.28 16.59 39.23 16.58C39.17 16.56 39.1 16.54 39.03 16.53C38.99 16.52 38.95 16.51 38.92 16.5C38.81 16.48 38.71 16.46 38.6 16.43C38.56 16.42 38.52 16.42 38.48 16.41C38.42 16.39 38.35 16.38 38.28 16.37C38.23 16.36 38.19 16.35 38.14 16.34C38.08 16.33 38.01 16.32 37.95 16.3C37.9 16.29 37.85 16.29 37.8 16.28C37.74 16.27 37.68 16.26 37.62 16.25C37.57 16.24 37.52 16.23 37.47 16.22C37.41 16.21 37.34 16.2 37.28 16.19C37.23 16.18 37.18 16.18 37.13 16.17C37.07 16.16 37 16.15 36.93 16.14C36.89 16.13 36.84 16.13 36.79 16.12C36.72 16.11 36.64 16.1 36.56 16.09L36.45 16.08C36.34 16.07 36.22 16.05 36.11 16.04C35.94 16.02 35.85 16.02 35.76 16.01C35.72 16 35.68 16 35.64 16C35.56 15.99 35.49 15.98 35.41 15.98C35.36 15.97 35.32 15.97 35.27 15.97C35.2 15.96 35.13 15.96 35.05 15.95C35.01 15.95 34.96 15.95 34.91 15.95C34.84 15.94 34.77 15.94 34.69 15.93C34.65 15.93 34.6 15.93 34.55 15.93C34.48 15.92 34.4 15.92 34.33 15.92C34.28 15.92 34.24 15.92 34.19 15.91C34.11 15.91 34.03 15.91 33.94 15.91C33.91 15.91 33.87 15.91 33.83 15.91C33.71 15.91 33.59 15.9 33.47 15.9C29.33 15.9 25.6 16.88 22.9 18.46C20.94 19.61 19.53 21.09 18.93 22.73L18.89 22.86C18.73 23.34 18.64 23.82 18.62 24.32C18.62 24.39 18.62 24.46 18.62 24.53C18.62 24.63 18.62 24.72 18.63 24.81C18.63 24.91 18.64 25 18.65 25.09C18.66 25.14 18.67 25.19 18.67 25.24L18.66 25.16C18.85 26.56 19.62 27.92 20.91 29.11C20.94 29.14 20.98 29.17 21.01 29.2C21.03 29.22 21.08 29.26 21.12 29.29C21.19 29.36 21.22 29.38 21.25 29.41C21.32 29.47 21.35 29.49 21.38 29.52C21.46 29.58 21.5 29.61 21.54 29.64C21.61 29.7 21.65 29.73 21.7 29.77C21.77 29.82 21.81 29.85 21.84 29.87C21.92 29.93 21.96 29.96 21.99 29.98C22.08 30.04 22.11 30.06 22.15 30.09C22.24 30.15 22.29 30.18 22.34 30.22C22.41 30.26 22.45 30.29 22.49 30.32C22.57 30.37 22.61 30.39 22.65 30.42C22.74 30.47 22.78 30.49 22.82 30.52C22.91 30.58 22.97 30.61 23.02 30.64C23.09 30.68 23.15 30.71 23.22 30.75C23.24 30.76 23.26 30.77 23.28 30.79C23.33 30.81 23.37 30.83 23.42 30.86C23.44 30.87 23.47 30.89 23.5 30.9C23.54 30.92 23.58 30.94 23.62 30.97C23.65 30.98 23.68 30.99 23.7 31.01C23.75 31.03 23.79 31.05 23.84 31.07C23.86 31.09 23.89 31.1 23.91 31.11C23.96 31.14 24.02 31.16 24.07 31.19C24.19 31.25 24.26 31.28 24.33 31.31C24.45 31.37 24.5 31.39 24.55 31.41C24.58 31.42 24.61 31.43 24.64 31.45C24.68 31.47 24.73 31.49 24.78 31.51C24.81 31.52 24.84 31.53 24.87 31.54L25 31.6C25.03 31.61 25.06 31.62 25.09 31.64C25.14 31.66 25.2 31.68 25.25 31.7C25.4 31.76 25.47 31.78 25.55 31.81C25.66 31.85 25.72 31.88 25.78 31.9C25.81 31.91 25.84 31.92 25.87 31.93C25.92 31.95 25.97 31.96 26.02 31.98C26.05 31.99 26.08 32 26.11 32.01C26.17 32.03 26.22 32.04 26.27 32.06C26.3 32.07 26.33 32.08 26.36 32.09C26.41 32.11 26.47 32.13 26.52 32.14C26.68 32.19 26.76 32.22 26.84 32.24C27.05 32.3 27.23 32.35 27.41 32.4C27.5 32.42 27.59 32.44 27.68 32.46L27.48 32.41C27.69 32.47 27.9 32.52 28.12 32.57C28.3 32.61 28.49 32.65 28.67 32.69C28.77 32.7 28.86 32.72 28.95 32.74C30.24 32.98 31.6 33.13 33.01 33.16C33.08 33.16 33.16 33.16 33.23 33.16C33.29 33.16 33.35 33.16 33.41 33.16L33.29 33.16C33.38 33.16 33.47 33.16 33.56 33.16C33.89 33.16 34.21 33.16 34.53 33.14C34.64 33.14 34.75 33.14 34.85 33.13C36.62 33.04 38.3 32.78 39.83 32.36C39.92 32.34 40.01 32.31 40.1 32.29C41.26 31.96 42.34 31.54 43.3 31.05C43.38 31.02 43.45 30.98 43.52 30.94C43.67 30.86 43.81 30.79 43.95 30.71ZM48.11 32.18C47.93 32.3 47.74 32.41 47.56 32.52C46.9 32.91 46.19 33.27 45.45 33.6C45.34 33.64 45.23 33.69 45.12 33.74C44.91 33.83 44.69 33.92 44.46 34C43.34 34.44 42.14 34.81 40.88 35.1C40.63 35.16 40.37 35.22 40.11 35.27C38.43 35.61 36.65 35.83 34.8 35.89C34.7 35.9 34.6 35.9 34.49 35.9C34.19 35.91 33.89 35.91 33.58 35.91C33.5 35.91 33.43 35.91 33.35 35.91C33.13 35.91 32.9 35.91 32.68 35.9C32.36 35.89 32.13 35.88 31.89 35.87C31.74 35.86 31.58 35.86 31.43 35.85C31.19 35.83 30.96 35.82 30.73 35.8C29.96 35.73 29.2 35.64 28.45 35.52C28.3 35.5 28.15 35.48 28 35.45C27.7 35.4 27.4 35.34 27.11 35.29C26.96 35.26 26.82 35.22 26.67 35.19C26.45 35.15 26.23 35.1 26.02 35.04C25.94 35.03 25.87 35.01 25.8 34.99C25.66 34.95 25.51 34.92 25.37 34.88C24.16 34.55 23.01 34.16 21.94 33.71C21.83 33.66 21.72 33.62 21.62 33.57C21.41 33.48 21.2 33.38 21 33.28C20.9 33.23 20.8 33.18 20.7 33.13C20.5 33.03 20.3 32.93 20.11 32.83L9.09 39.23C8.62 39.5 8.02 39.63 7.41 39.63C6.8 39.63 6.19 39.49 5.73 39.22C5.35 39.01 5.13 38.73 5.05 38.45C5.04 38.41 5.03 38.36 5.03 38.32C5.02 38.08 5.08 37.9 5.2 37.73C5.36 37.53 5.51 37.4 5.72 37.28L17.04 30.7C16.93 30.61 16.84 30.52 16.75 30.44C16.59 30.29 16.5 30.2 16.42 30.11C16.32 30.02 16.23 29.92 16.14 29.82C15.73 29.37 15.37 28.9 15.06 28.42C15 28.31 14.93 28.2 14.87 28.09C14.84 28.04 14.81 27.99 14.78 27.93C14.66 27.71 14.55 27.49 14.45 27.27C14.43 27.21 14.41 27.15 14.38 27.1C14.34 26.98 14.29 26.87 14.25 26.76C14.23 26.7 14.22 26.64 14.2 26.59C14.11 26.3 14.03 26.01 13.98 25.72C13.97 25.66 13.96 25.6 13.95 25.54C13.94 25.47 13.93 25.42 13.93 25.37C13.88 25.01 13.87 24.77 13.87 24.53C13.87 23.86 13.96 23.19 14.16 22.54C14.38 21.79 14.73 21.07 15.2 20.38C15.25 20.3 15.3 20.22 15.36 20.15C15.58 19.84 15.82 19.55 16.08 19.26C16.14 19.18 16.21 19.11 16.28 19.04C17.16 18.11 18.26 17.26 19.54 16.51C19.64 16.45 19.74 16.4 19.84 16.34C20.04 16.23 20.24 16.12 20.44 16.02C20.65 15.91 20.87 15.8 21.1 15.69C21.31 15.59 21.53 15.49 21.76 15.39C22.1 15.25 22.44 15.11 22.8 14.98C23.24 14.81 23.7 14.65 24.17 14.51C24.32 14.46 24.47 14.41 24.63 14.37C24.75 14.33 24.88 14.29 25.01 14.26C25.35 14.16 25.71 14.07 26.06 13.99C26.29 13.93 26.53 13.88 26.77 13.83C26.97 13.79 27.18 13.75 27.39 13.71C27.8 13.63 28.21 13.56 28.63 13.5C29.47 13.38 30.33 13.29 31.22 13.23C31.51 13.21 31.8 13.19 32.1 13.18C32.55 13.16 33 13.15 33.45 13.15C33.59 13.15 33.73 13.16 33.87 13.16C34.05 13.16 34.19 13.16 34.32 13.17C34.52 13.17 34.64 13.18 34.77 13.18C34.97 13.19 35.1 13.19 35.23 13.2C35.41 13.21 35.54 13.22 35.67 13.23C35.83 13.24 35.96 13.25 36.09 13.26C36.28 13.27 36.4 13.28 36.53 13.29C36.72 13.31 36.85 13.32 36.97 13.34C37.16 13.36 37.29 13.37 37.42 13.39C37.57 13.4 37.69 13.42 37.82 13.44C37.99 13.46 38.11 13.48 38.23 13.49C38.42 13.52 38.54 13.54 38.66 13.56C38.85 13.59 38.97 13.61 39.09 13.63C39.27 13.66 39.39 13.68 39.5 13.7C39.65 13.73 39.77 13.75 39.89 13.78C40.07 13.81 40.18 13.84 40.29 13.86C40.48 13.9 40.59 13.93 40.7 13.95C40.89 14 41 14.02 41.11 14.05C41.27 14.09 41.38 14.12 41.49 14.14C41.64 14.19 41.75 14.22 41.86 14.25C42.04 14.29 42.15 14.32 42.25 14.36C42.43 14.41 42.54 14.44 42.64 14.47C42.82 14.52 42.92 14.56 43.03 14.59C43.17 14.64 43.27 14.67 43.37 14.71C43.53 14.76 43.63 14.79 43.73 14.83C43.9 14.89 44 14.93 44.1 14.96C44.27 15.03 44.37 15.07 44.46 15.1C44.61 15.16 44.71 15.2 44.81 15.24C44.93 15.29 45.03 15.34 45.14 15.38C45.28 15.44 45.38 15.49 45.48 15.53C45.63 15.6 45.72 15.64 45.81 15.68C45.96 15.75 46.06 15.8 46.15 15.85C46.27 15.9 46.37 15.95 46.46 16C46.58 16.06 46.67 16.11 46.77 16.16C46.9 16.23 46.99 16.28 47.08 16.33C47.21 16.4 47.3 16.45 47.38 16.5C47.53 16.59 47.6 16.63 47.66 16.66C47.82 16.76 47.88 16.8 47.94 16.83C48.1 16.93 48.15 16.97 48.21 17.01C48.36 17.11 48.42 17.15 48.47 17.18C48.63 17.29 48.69 17.33 48.74 17.37C48.9 17.48 48.98 17.54 49.06 17.6C49.15 17.67 49.23 17.73 49.31 17.8C49.43 17.89 49.49 17.94 49.55 17.98C49.67 18.09 49.72 18.13 49.77 18.18C49.9 18.29 49.95 18.33 50 18.37C50.13 18.49 50.17 18.53 50.22 18.57C50.34 18.69 50.39 18.73 50.43 18.78C50.56 18.9 50.61 18.96 50.67 19.01C50.76 19.11 50.83 19.18 50.89 19.25C50.97 19.34 51.03 19.4 51.08 19.46C51.17 19.57 51.21 19.62 51.25 19.67C51.35 19.79 51.39 19.84 51.42 19.88C51.44 19.91 51.47 19.94 51.49 19.96C51.52 20.01 51.55 20.05 51.59 20.1C51.68 20.23 51.71 20.27 51.75 20.32C51.84 20.45 51.87 20.51 51.91 20.56C51.99 20.69 52.04 20.77 52.08 20.84C52.14 20.94 52.18 21 52.21 21.06C52.28 21.19 52.31 21.24 52.33 21.29C52.35 21.32 52.36 21.35 52.38 21.38C52.4 21.42 52.42 21.47 52.45 21.52C52.46 21.55 52.48 21.58 52.49 21.61C52.51 21.66 52.53 21.7 52.55 21.75C52.57 21.78 52.58 21.81 52.59 21.84C52.61 21.89 52.63 21.94 52.65 21.98C52.66 22.01 52.68 22.05 52.69 22.08C52.71 22.13 52.73 22.18 52.75 22.23C52.8 22.39 52.83 22.46 52.85 22.54C52.93 22.79 52.99 23.03 53.04 23.28C53.05 23.36 53.07 23.44 53.08 23.53C53.11 23.69 53.13 23.86 53.14 24.03C53.15 24.11 53.15 24.2 53.16 24.28C53.16 24.36 53.16 24.45 53.16 24.53C53.16 24.62 53.16 24.7 53.16 24.79C53.14 25.38 53.04 25.96 52.87 26.52C52.23 28.68 50.54 30.63 48.11 32.18Z" fill="#6C99FB" fill-opacity="1.000000" fill-rule="evenodd"/>
		<path d="M44.37 30.46C44.5 30.38 44.63 30.3 44.75 30.21C45.03 30.03 45.27 29.85 45.5 29.67C45.56 29.63 45.62 29.58 45.68 29.53C46.19 29.12 46.64 28.67 47.02 28.2C47.1 28.11 47.16 28.02 47.23 27.93C47.26 27.89 47.29 27.85 47.31 27.81C47.37 27.73 47.43 27.64 47.49 27.56C47.54 27.48 47.59 27.39 47.64 27.31C47.73 27.15 47.82 26.99 47.89 26.82C47.93 26.75 47.95 26.69 47.98 26.62C48.04 26.48 48.1 26.34 48.14 26.2L48.19 26.07C48.34 25.57 48.41 25.06 48.41 24.53C48.41 24.01 48.33 23.5 48.17 23L48.12 22.86C48.1 22.8 48.08 22.75 48.06 22.69C48.05 22.67 48.04 22.65 48.04 22.63C48.02 22.59 48.01 22.56 47.99 22.52C47.98 22.5 47.97 22.47 47.96 22.45C47.95 22.42 47.93 22.38 47.92 22.35C47.9 22.32 47.89 22.3 47.88 22.28C47.87 22.24 47.85 22.21 47.83 22.18C47.82 22.15 47.81 22.13 47.8 22.11C47.78 22.07 47.76 22.04 47.74 22C47.73 21.98 47.72 21.96 47.71 21.94C47.69 21.9 47.66 21.86 47.64 21.82C47.58 21.72 47.55 21.66 47.52 21.61C47.5 21.59 47.49 21.57 47.48 21.55C47.45 21.52 47.43 21.48 47.41 21.45C47.39 21.43 47.38 21.4 47.36 21.38C47.34 21.35 47.32 21.32 47.3 21.29C47.28 21.26 47.26 21.24 47.25 21.22C47.23 21.19 47.2 21.16 47.18 21.13C47.16 21.1 47.15 21.08 47.13 21.06C47.1 21.02 47.08 21 47.06 20.97C47.04 20.94 47.02 20.92 47 20.9C46.98 20.87 46.95 20.83 46.93 20.8C46.91 20.78 46.89 20.76 46.87 20.74C46.83 20.69 46.79 20.64 46.74 20.59C46.72 20.56 46.63 20.47 46.6 20.44C46.58 20.42 46.56 20.4 46.54 20.37C46.51 20.35 46.49 20.32 46.46 20.29C46.44 20.27 46.41 20.25 46.39 20.22C46.36 20.2 46.34 20.17 46.31 20.14C46.29 20.12 46.26 20.1 46.24 20.07C46.21 20.05 46.18 20.02 46.15 19.99C46.13 19.97 46.11 19.95 46.08 19.93C46.05 19.9 46.02 19.87 45.99 19.84C45.97 19.82 45.94 19.8 45.92 19.78C45.88 19.75 45.84 19.71 45.8 19.68C45.77 19.66 45.74 19.63 45.72 19.61C45.67 19.58 45.63 19.54 45.59 19.51C45.56 19.49 45.54 19.47 45.52 19.45C45.48 19.42 45.45 19.4 45.41 19.37C45.39 19.35 45.36 19.33 45.33 19.31C45.3 19.28 45.26 19.26 45.23 19.23C45.2 19.21 45.18 19.19 45.15 19.17C45.11 19.15 45.08 19.12 45.04 19.1C45.02 19.08 44.99 19.06 44.96 19.04C44.92 19.01 44.89 18.99 44.85 18.96C44.82 18.94 44.8 18.93 44.77 18.91C44.72 18.88 44.68 18.85 44.63 18.81C44.51 18.74 44.45 18.7 44.38 18.66C44.27 18.59 44.22 18.56 44.17 18.53C44.15 18.52 44.12 18.5 44.1 18.49C44.07 18.47 44.04 18.45 44.01 18.44C43.92 18.39 43.87 18.36 43.82 18.33C43.79 18.31 43.76 18.29 43.73 18.28C43.67 18.25 43.61 18.21 43.55 18.18C43.4 18.1 43.31 18.06 43.23 18.01C43.11 17.96 43.04 17.92 42.97 17.89C42.94 17.87 42.91 17.86 42.88 17.84C42.82 17.82 42.76 17.79 42.7 17.76C42.67 17.75 42.63 17.73 42.6 17.72C42.54 17.69 42.49 17.67 42.44 17.65C42.4 17.63 42.36 17.61 42.32 17.6C42.27 17.57 42.22 17.55 42.16 17.53C42.12 17.51 42.08 17.5 42.04 17.48C41.99 17.46 41.93 17.43 41.88 17.41C41.84 17.4 41.8 17.38 41.76 17.37C41.7 17.34 41.65 17.32 41.59 17.3C41.55 17.29 41.51 17.27 41.48 17.26C41.4 17.23 41.31 17.2 41.23 17.17C41.07 17.11 40.99 17.09 40.9 17.06C40.86 17.04 40.83 17.03 40.79 17.02C40.73 17 40.67 16.98 40.61 16.96C40.56 16.95 40.52 16.93 40.48 16.92C40.42 16.9 40.36 16.89 40.31 16.87C40.26 16.85 40.21 16.84 40.17 16.83C40.11 16.81 40.06 16.79 40 16.78C39.95 16.77 39.91 16.75 39.86 16.74C39.8 16.72 39.75 16.71 39.69 16.69C39.64 16.68 39.6 16.67 39.55 16.66C39.49 16.64 39.43 16.63 39.37 16.61C39.32 16.6 39.28 16.59 39.23 16.58C39.17 16.56 39.1 16.54 39.03 16.53C38.99 16.52 38.95 16.51 38.92 16.5C38.81 16.48 38.71 16.46 38.6 16.43C38.56 16.42 38.52 16.42 38.48 16.41C38.42 16.39 38.35 16.38 38.28 16.37C38.23 16.36 38.19 16.35 38.14 16.34C38.08 16.33 38.01 16.32 37.95 16.3C37.9 16.29 37.85 16.29 37.8 16.28C37.74 16.27 37.68 16.26 37.62 16.25C37.57 16.24 37.52 16.23 37.47 16.22C37.41 16.21 37.34 16.2 37.28 16.19C37.23 16.18 37.18 16.18 37.13 16.17C37.07 16.16 37 16.15 36.93 16.14C36.89 16.13 36.84 16.13 36.79 16.12C36.72 16.11 36.64 16.1 36.56 16.09L36.45 16.08C36.34 16.07 36.22 16.05 36.11 16.04C35.94 16.02 35.85 16.02 35.76 16.01C35.72 16 35.68 16 35.64 16C35.56 15.99 35.49 15.98 35.41 15.98C35.36 15.97 35.32 15.97 35.27 15.97C35.2 15.96 35.13 15.96 35.05 15.95C35.01 15.95 34.96 15.95 34.91 15.95C34.84 15.94 34.77 15.94 34.69 15.93C34.65 15.93 34.6 15.93 34.55 15.93C34.48 15.92 34.4 15.92 34.33 15.92C34.28 15.92 34.24 15.92 34.19 15.91C34.11 15.91 34.03 15.91 33.94 15.91C33.91 15.91 33.87 15.91 33.83 15.91C33.71 15.91 33.59 15.9 33.47 15.9C29.33 15.9 25.6 16.88 22.9 18.46C20.94 19.61 19.53 21.09 18.93 22.73L18.89 22.86C18.73 23.34 18.64 23.82 18.62 24.32C18.62 24.39 18.62 24.46 18.62 24.53C18.62 24.63 18.62 24.72 18.63 24.81C18.63 24.91 18.64 25 18.65 25.09C18.66 25.14 18.67 25.19 18.67 25.24L18.66 25.16C18.85 26.56 19.62 27.92 20.91 29.11C20.94 29.14 20.98 29.17 21.01 29.2C21.03 29.22 21.08 29.26 21.12 29.29C21.19 29.36 21.22 29.38 21.25 29.41C21.32 29.47 21.35 29.49 21.38 29.52C21.46 29.58 21.5 29.61 21.54 29.64C21.61 29.7 21.65 29.73 21.7 29.77C21.77 29.82 21.81 29.85 21.84 29.87C21.92 29.93 21.96 29.96 21.99 29.98C22.08 30.04 22.11 30.06 22.15 30.09C22.24 30.15 22.29 30.18 22.34 30.22C22.41 30.26 22.45 30.29 22.49 30.32C22.57 30.37 22.61 30.39 22.65 30.42C22.74 30.47 22.78 30.49 22.82 30.52C22.91 30.58 22.97 30.61 23.02 30.64C23.09 30.68 23.15 30.71 23.22 30.75C23.24 30.76 23.26 30.77 23.28 30.79C23.33 30.81 23.37 30.83 23.42 30.86C23.44 30.87 23.47 30.89 23.5 30.9C23.54 30.92 23.58 30.94 23.62 30.97C23.65 30.98 23.68 30.99 23.7 31.01C23.75 31.03 23.79 31.05 23.84 31.07C23.86 31.09 23.89 31.1 23.91 31.11C23.96 31.14 24.02 31.16 24.07 31.19C24.19 31.25 24.26 31.28 24.33 31.31C24.45 31.37 24.5 31.39 24.55 31.41C24.58 31.42 24.61 31.43 24.64 31.45C24.68 31.47 24.73 31.49 24.78 31.51C24.81 31.52 24.84 31.53 24.87 31.54L25 31.6C25.03 31.61 25.06 31.62 25.09 31.64C25.14 31.66 25.2 31.68 25.25 31.7C25.4 31.76 25.47 31.78 25.55 31.81C25.66 31.85 25.72 31.88 25.78 31.9C25.81 31.91 25.84 31.92 25.87 31.93C25.92 31.95 25.97 31.96 26.02 31.98C26.05 31.99 26.08 32 26.11 32.01C26.17 32.03 26.22 32.04 26.27 32.06C26.3 32.07 26.33 32.08 26.36 32.09C26.41 32.11 26.47 32.13 26.52 32.14C26.68 32.19 26.76 32.22 26.84 32.24C27.05 32.3 27.23 32.35 27.41 32.4C27.5 32.42 27.59 32.44 27.68 32.46L27.48 32.41C27.69 32.47 27.9 32.52 28.12 32.57C28.3 32.61 28.49 32.65 28.67 32.69C28.77 32.7 28.86 32.72 28.95 32.74C30.24 32.98 31.6 33.13 33.01 33.16C33.08 33.16 33.16 33.16 33.23 33.16C33.29 33.16 33.35 33.16 33.41 33.16L33.29 33.16C33.38 33.16 33.47 33.16 33.56 33.16C33.89 33.16 34.21 33.16 34.53 33.14C34.64 33.14 34.75 33.14 34.85 33.13C36.62 33.04 38.3 32.78 39.83 32.36C39.92 32.34 40.01 32.31 40.1 32.29C41.26 31.96 42.34 31.54 43.3 31.05C43.38 31.02 43.45 30.98 43.52 30.94C43.67 30.86 43.81 30.79 43.95 30.71C44.09 30.62 44.23 30.54 44.37 30.46ZM47.56 32.52C46.9 32.91 46.19 33.27 45.45 33.6C45.34 33.64 45.23 33.69 45.12 33.74C44.91 33.83 44.69 33.92 44.46 34C43.34 34.44 42.14 34.81 40.88 35.1C40.63 35.16 40.37 35.22 40.11 35.27C38.43 35.61 36.65 35.83 34.8 35.89C34.7 35.9 34.6 35.9 34.49 35.9C34.19 35.91 33.89 35.91 33.58 35.91C33.5 35.91 33.43 35.91 33.35 35.91C33.13 35.91 32.9 35.91 32.68 35.9C32.36 35.89 32.13 35.88 31.89 35.87C31.74 35.86 31.58 35.86 31.43 35.85C31.19 35.83 30.96 35.82 30.73 35.8C29.96 35.73 29.2 35.64 28.45 35.52C28.3 35.5 28.15 35.48 28 35.45C27.7 35.4 27.4 35.34 27.11 35.29C26.96 35.26 26.82 35.22 26.67 35.19C26.45 35.15 26.23 35.1 26.02 35.04C25.94 35.03 25.87 35.01 25.8 34.99C25.66 34.95 25.51 34.92 25.37 34.88C24.16 34.55 23.01 34.16 21.94 33.71C21.83 33.66 21.72 33.62 21.62 33.57C21.41 33.48 21.2 33.38 21 33.28C20.9 33.23 20.8 33.18 20.7 33.13C20.5 33.03 20.3 32.93 20.11 32.83L9.09 39.23C8.62 39.5 8.02 39.63 7.41 39.63C6.8 39.63 6.19 39.49 5.73 39.22C5.35 39.01 5.13 38.73 5.05 38.45C5.04 38.41 5.03 38.36 5.03 38.32C5.02 38.08 5.08 37.9 5.2 37.73C5.36 37.53 5.51 37.4 5.72 37.28L17.04 30.7C16.93 30.61 16.84 30.52 16.75 30.44C16.59 30.29 16.5 30.2 16.42 30.11C16.32 30.02 16.23 29.92 16.14 29.82C15.73 29.37 15.37 28.9 15.06 28.42C15 28.31 14.93 28.2 14.87 28.09C14.84 28.04 14.81 27.99 14.78 27.93C14.66 27.71 14.55 27.49 14.45 27.27C14.43 27.21 14.41 27.15 14.38 27.1C14.34 26.98 14.29 26.87 14.25 26.76C14.23 26.7 14.22 26.64 14.2 26.59C14.11 26.3 14.03 26.01 13.98 25.72C13.97 25.66 13.96 25.6 13.95 25.54C13.94 25.47 13.93 25.42 13.93 25.37C13.88 25.01 13.87 24.77 13.87 24.53C13.87 23.86 13.96 23.19 14.16 22.54C14.38 21.79 14.73 21.07 15.2 20.38C15.25 20.3 15.3 20.22 15.36 20.15C15.58 19.84 15.82 19.55 16.08 19.26C16.14 19.18 16.21 19.11 16.28 19.04C17.16 18.11 18.26 17.26 19.54 16.51C19.64 16.45 19.74 16.4 19.84 16.34C20.04 16.23 20.24 16.12 20.44 16.02C20.65 15.91 20.87 15.8 21.1 15.69C21.31 15.59 21.53 15.49 21.76 15.39C22.1 15.25 22.44 15.11 22.8 14.98C23.24 14.81 23.7 14.65 24.17 14.51C24.32 14.46 24.47 14.41 24.63 14.37C24.75 14.33 24.88 14.29 25.01 14.26C25.35 14.16 25.71 14.07 26.06 13.99C26.29 13.93 26.53 13.88 26.77 13.83C26.97 13.79 27.18 13.75 27.39 13.71C27.8 13.63 28.21 13.56 28.63 13.5C29.47 13.38 30.33 13.29 31.22 13.23C31.51 13.21 31.8 13.19 32.1 13.18C32.55 13.16 33 13.15 33.45 13.15C33.59 13.15 33.73 13.16 33.87 13.16C34.05 13.16 34.19 13.16 34.32 13.17C34.52 13.17 34.64 13.18 34.77 13.18C34.97 13.19 35.1 13.19 35.23 13.2C35.41 13.21 35.54 13.22 35.67 13.23C35.83 13.24 35.96 13.25 36.09 13.26C36.28 13.27 36.4 13.28 36.53 13.29C36.72 13.31 36.85 13.32 36.97 13.34C37.16 13.36 37.29 13.37 37.42 13.39C37.57 13.4 37.69 13.42 37.82 13.44C37.99 13.46 38.11 13.48 38.23 13.49C38.42 13.52 38.54 13.54 38.66 13.56C38.85 13.59 38.97 13.61 39.09 13.63C39.27 13.66 39.39 13.68 39.5 13.7C39.65 13.73 39.77 13.75 39.89 13.78C40.07 13.81 40.18 13.84 40.29 13.86C40.48 13.9 40.59 13.93 40.7 13.95C40.89 14 41 14.02 41.11 14.05C41.27 14.09 41.38 14.12 41.49 14.14C41.64 14.19 41.75 14.22 41.86 14.25C42.04 14.29 42.15 14.32 42.25 14.36C42.43 14.41 42.54 14.44 42.64 14.47C42.82 14.52 42.92 14.56 43.03 14.59C43.17 14.64 43.27 14.67 43.37 14.71C43.53 14.76 43.63 14.79 43.73 14.83C43.9 14.89 44 14.93 44.1 14.96C44.27 15.03 44.37 15.07 44.46 15.1C44.61 15.16 44.71 15.2 44.81 15.24C44.93 15.29 45.03 15.34 45.14 15.38C45.28 15.44 45.38 15.49 45.48 15.53C45.63 15.6 45.72 15.64 45.81 15.68C45.96 15.75 46.06 15.8 46.15 15.85C46.27 15.9 46.37 15.95 46.46 16C46.58 16.06 46.67 16.11 46.77 16.16C46.9 16.23 46.99 16.28 47.08 16.33C47.21 16.4 47.3 16.45 47.38 16.5C47.53 16.59 47.6 16.63 47.66 16.66C47.82 16.76 47.88 16.8 47.94 16.83C48.1 16.93 48.15 16.97 48.21 17.01C48.36 17.11 48.42 17.15 48.47 17.18C48.63 17.29 48.69 17.33 48.74 17.37C48.9 17.48 48.98 17.54 49.06 17.6C49.15 17.67 49.23 17.73 49.31 17.8C49.43 17.89 49.49 17.94 49.55 17.98C49.67 18.09 49.72 18.13 49.77 18.18C49.9 18.29 49.95 18.33 50 18.37C50.13 18.49 50.17 18.53 50.22 18.57C50.34 18.69 50.39 18.73 50.43 18.78C50.56 18.9 50.61 18.96 50.67 19.01C50.76 19.11 50.83 19.18 50.89 19.25C50.97 19.34 51.03 19.4 51.08 19.46C51.17 19.57 51.21 19.62 51.25 19.67C51.35 19.79 51.39 19.84 51.42 19.88C51.44 19.91 51.47 19.94 51.49 19.96C51.52 20.01 51.55 20.05 51.59 20.1C51.68 20.23 51.71 20.27 51.75 20.32C51.84 20.45 51.87 20.51 51.91 20.56C51.99 20.69 52.04 20.77 52.08 20.84C52.14 20.94 52.18 21 52.21 21.06C52.28 21.19 52.31 21.24 52.33 21.29C52.35 21.32 52.36 21.35 52.38 21.38C52.4 21.42 52.42 21.47 52.45 21.52C52.46 21.55 52.48 21.58 52.49 21.61C52.51 21.66 52.53 21.7 52.55 21.75C52.57 21.78 52.58 21.81 52.59 21.84C52.61 21.89 52.63 21.94 52.65 21.98C52.66 22.01 52.68 22.05 52.69 22.08C52.71 22.13 52.73 22.18 52.75 22.23C52.8 22.39 52.83 22.46 52.85 22.54C52.93 22.79 52.99 23.03 53.04 23.28C53.05 23.36 53.07 23.44 53.08 23.53C53.11 23.69 53.13 23.86 53.14 24.03C53.15 24.11 53.15 24.2 53.16 24.28C53.16 24.36 53.16 24.45 53.16 24.53C53.16 24.62 53.16 24.7 53.16 24.79C53.14 25.38 53.04 25.96 52.87 26.52C52.23 28.68 50.54 30.63 48.11 32.18C47.93 32.3 47.74 32.41 47.56 32.52Z" stroke="#000000" stroke-opacity="0" stroke-width="1.000000"/>
		<path d="M44.37 30.46C44.5 30.38 44.63 30.3 44.75 30.21C45.03 30.03 45.27 29.85 45.5 29.67C45.56 29.63 45.62 29.58 45.68 29.53C46.19 29.12 46.64 28.67 47.02 28.2C47.1 28.11 47.16 28.02 47.23 27.93C47.26 27.89 47.29 27.85 47.31 27.81C47.37 27.73 47.43 27.64 47.49 27.56C47.54 27.48 47.59 27.39 47.64 27.31C47.73 27.15 47.82 26.99 47.89 26.82C47.93 26.75 47.95 26.69 47.98 26.62C48.04 26.48 48.1 26.34 48.14 26.2L48.19 26.07C48.34 25.57 48.41 25.06 48.41 24.53C48.41 24.01 48.33 23.5 48.17 23L48.12 22.86C48.1 22.8 48.08 22.75 48.06 22.69C48.05 22.67 48.04 22.65 48.04 22.63C48.02 22.59 48.01 22.56 47.99 22.52C47.98 22.5 47.97 22.47 47.96 22.45C47.95 22.42 47.93 22.38 47.92 22.35C47.9 22.32 47.89 22.3 47.88 22.28C47.87 22.24 47.85 22.21 47.83 22.18C47.82 22.15 47.81 22.13 47.8 22.11C47.78 22.07 47.76 22.04 47.74 22C47.73 21.98 47.72 21.96 47.71 21.94C47.69 21.9 47.66 21.86 47.64 21.82C47.58 21.72 47.55 21.66 47.52 21.61C47.5 21.59 47.49 21.57 47.48 21.55C47.45 21.52 47.43 21.48 47.41 21.45C47.39 21.43 47.38 21.4 47.36 21.38C47.34 21.35 47.32 21.32 47.3 21.29C47.28 21.26 47.26 21.24 47.25 21.22C47.23 21.19 47.2 21.16 47.18 21.13C47.16 21.1 47.15 21.08 47.13 21.06C47.1 21.02 47.08 21 47.06 20.97C47.04 20.94 47.02 20.92 47 20.9C46.98 20.87 46.95 20.83 46.93 20.8C46.91 20.78 46.89 20.76 46.87 20.74C46.83 20.69 46.79 20.64 46.74 20.59C46.72 20.56 46.63 20.47 46.6 20.44C46.58 20.42 46.56 20.4 46.54 20.37C46.51 20.35 46.49 20.32 46.46 20.29C46.44 20.27 46.41 20.25 46.39 20.22C46.36 20.2 46.34 20.17 46.31 20.14C46.29 20.12 46.26 20.1 46.24 20.07C46.21 20.05 46.18 20.02 46.15 19.99C46.13 19.97 46.11 19.95 46.08 19.93C46.05 19.9 46.02 19.87 45.99 19.84C45.97 19.82 45.94 19.8 45.92 19.78C45.88 19.75 45.84 19.71 45.8 19.68C45.77 19.66 45.74 19.63 45.72 19.61C45.67 19.58 45.63 19.54 45.59 19.51C45.56 19.49 45.54 19.47 45.52 19.45C45.48 19.42 45.45 19.4 45.41 19.37C45.39 19.35 45.36 19.33 45.33 19.31C45.3 19.28 45.26 19.26 45.23 19.23C45.2 19.21 45.18 19.19 45.15 19.17C45.11 19.15 45.08 19.12 45.04 19.1C45.02 19.08 44.99 19.06 44.96 19.04C44.92 19.01 44.89 18.99 44.85 18.96C44.82 18.94 44.8 18.93 44.77 18.91C44.72 18.88 44.68 18.85 44.63 18.81C44.51 18.74 44.45 18.7 44.38 18.66C44.27 18.59 44.22 18.56 44.17 18.53C44.15 18.52 44.12 18.5 44.1 18.49C44.07 18.47 44.04 18.45 44.01 18.44C43.92 18.39 43.87 18.36 43.82 18.33C43.79 18.31 43.76 18.29 43.73 18.28C43.67 18.25 43.61 18.21 43.55 18.18C43.4 18.1 43.31 18.06 43.23 18.01C43.11 17.96 43.04 17.92 42.97 17.89C42.94 17.87 42.91 17.86 42.88 17.84C42.82 17.82 42.76 17.79 42.7 17.76C42.67 17.75 42.63 17.73 42.6 17.72C42.54 17.69 42.49 17.67 42.44 17.65C42.4 17.63 42.36 17.61 42.32 17.6C42.27 17.57 42.22 17.55 42.16 17.53C42.12 17.51 42.08 17.5 42.04 17.48C41.99 17.46 41.93 17.43 41.88 17.41C41.84 17.4 41.8 17.38 41.76 17.37C41.7 17.34 41.65 17.32 41.59 17.3C41.55 17.29 41.51 17.27 41.48 17.26C41.4 17.23 41.31 17.2 41.23 17.17C41.07 17.11 40.99 17.09 40.9 17.06C40.86 17.04 40.83 17.03 40.79 17.02C40.73 17 40.67 16.98 40.61 16.96C40.56 16.95 40.52 16.93 40.48 16.92C40.42 16.9 40.36 16.89 40.31 16.87C40.26 16.85 40.21 16.84 40.17 16.83C40.11 16.81 40.06 16.79 40 16.78C39.95 16.77 39.91 16.75 39.86 16.74C39.8 16.72 39.75 16.71 39.69 16.69C39.64 16.68 39.6 16.67 39.55 16.66C39.49 16.64 39.43 16.63 39.37 16.61C39.32 16.6 39.28 16.59 39.23 16.58C39.17 16.56 39.1 16.54 39.03 16.53C38.99 16.52 38.95 16.51 38.92 16.5C38.81 16.48 38.71 16.46 38.6 16.43C38.56 16.42 38.52 16.42 38.48 16.41C38.42 16.39 38.35 16.38 38.28 16.37C38.23 16.36 38.19 16.35 38.14 16.34C38.08 16.33 38.01 16.32 37.95 16.3C37.9 16.29 37.85 16.29 37.8 16.28C37.74 16.27 37.68 16.26 37.62 16.25C37.57 16.24 37.52 16.23 37.47 16.22C37.41 16.21 37.34 16.2 37.28 16.19C37.23 16.18 37.18 16.18 37.13 16.17C37.07 16.16 37 16.15 36.93 16.14C36.89 16.13 36.84 16.13 36.79 16.12C36.72 16.11 36.64 16.1 36.56 16.09L36.45 16.08C36.34 16.07 36.22 16.05 36.11 16.04C35.94 16.02 35.85 16.02 35.76 16.01C35.72 16 35.68 16 35.64 16C35.56 15.99 35.49 15.98 35.41 15.98C35.36 15.97 35.32 15.97 35.27 15.97C35.2 15.96 35.13 15.96 35.05 15.95C35.01 15.95 34.96 15.95 34.91 15.95C34.84 15.94 34.77 15.94 34.69 15.93C34.65 15.93 34.6 15.93 34.55 15.93C34.48 15.92 34.4 15.92 34.33 15.92C34.28 15.92 34.24 15.92 34.19 15.91C34.11 15.91 34.03 15.91 33.94 15.91C33.91 15.91 33.87 15.91 33.83 15.91C33.71 15.91 33.59 15.9 33.47 15.9C29.33 15.9 25.6 16.88 22.9 18.46C20.94 19.61 19.53 21.09 18.93 22.73L18.89 22.86C18.73 23.34 18.64 23.82 18.62 24.32C18.62 24.39 18.62 24.46 18.62 24.53C18.62 24.63 18.62 24.72 18.63 24.81C18.63 24.91 18.64 25 18.65 25.09C18.66 25.14 18.67 25.19 18.67 25.24L18.66 25.16C18.85 26.56 19.62 27.92 20.91 29.11C20.94 29.14 20.98 29.17 21.01 29.2C21.03 29.22 21.08 29.26 21.12 29.29C21.19 29.36 21.22 29.38 21.25 29.41C21.32 29.47 21.35 29.49 21.38 29.52C21.46 29.58 21.5 29.61 21.54 29.64C21.61 29.7 21.65 29.73 21.7 29.77C21.77 29.82 21.81 29.85 21.84 29.87C21.92 29.93 21.96 29.96 21.99 29.98C22.08 30.04 22.11 30.06 22.15 30.09C22.24 30.15 22.29 30.18 22.34 30.22C22.41 30.26 22.45 30.29 22.49 30.32C22.57 30.37 22.61 30.39 22.65 30.42C22.74 30.47 22.78 30.49 22.82 30.52C22.91 30.58 22.97 30.61 23.02 30.64C23.09 30.68 23.15 30.71 23.22 30.75C23.24 30.76 23.26 30.77 23.28 30.79C23.33 30.81 23.37 30.83 23.42 30.86C23.44 30.87 23.47 30.89 23.5 30.9C23.54 30.92 23.58 30.94 23.62 30.97C23.65 30.98 23.68 30.99 23.7 31.01C23.75 31.03 23.79 31.05 23.84 31.07C23.86 31.09 23.89 31.1 23.91 31.11C23.96 31.14 24.02 31.16 24.07 31.19C24.19 31.25 24.26 31.28 24.33 31.31C24.45 31.37 24.5 31.39 24.55 31.41C24.58 31.42 24.61 31.43 24.64 31.45C24.68 31.47 24.73 31.49 24.78 31.51C24.81 31.52 24.84 31.53 24.87 31.54L25 31.6C25.03 31.61 25.06 31.62 25.09 31.64C25.14 31.66 25.2 31.68 25.25 31.7C25.4 31.76 25.47 31.78 25.55 31.81C25.66 31.85 25.72 31.88 25.78 31.9C25.81 31.91 25.84 31.92 25.87 31.93C25.92 31.95 25.97 31.96 26.02 31.98C26.05 31.99 26.08 32 26.11 32.01C26.17 32.03 26.22 32.04 26.27 32.06C26.3 32.07 26.33 32.08 26.36 32.09C26.41 32.11 26.47 32.13 26.52 32.14C26.68 32.19 26.76 32.22 26.84 32.24C27.05 32.3 27.23 32.35 27.41 32.4C27.5 32.42 27.59 32.44 27.68 32.46L27.48 32.41C27.69 32.47 27.9 32.52 28.12 32.57C28.3 32.61 28.49 32.65 28.67 32.69C28.77 32.7 28.86 32.72 28.95 32.74C30.24 32.98 31.6 33.13 33.01 33.16C33.08 33.16 33.16 33.16 33.23 33.16C33.29 33.16 33.35 33.16 33.41 33.16L33.29 33.16C33.38 33.16 33.47 33.16 33.56 33.16C33.89 33.16 34.21 33.16 34.53 33.14C34.64 33.14 34.75 33.14 34.85 33.13C36.62 33.04 38.3 32.78 39.83 32.36C39.92 32.34 40.01 32.31 40.1 32.29C41.26 31.96 42.34 31.54 43.3 31.05C43.38 31.02 43.45 30.98 43.52 30.94C43.67 30.86 43.81 30.79 43.95 30.71C44.09 30.62 44.23 30.54 44.37 30.46ZM47.56 32.52C46.9 32.91 46.19 33.27 45.45 33.6C45.34 33.64 45.23 33.69 45.12 33.74C44.91 33.83 44.69 33.92 44.46 34C43.34 34.44 42.14 34.81 40.88 35.1C40.63 35.16 40.37 35.22 40.11 35.27C38.43 35.61 36.65 35.83 34.8 35.89C34.7 35.9 34.6 35.9 34.49 35.9C34.19 35.91 33.89 35.91 33.58 35.91C33.5 35.91 33.43 35.91 33.35 35.91C33.13 35.91 32.9 35.91 32.68 35.9C32.36 35.89 32.13 35.88 31.89 35.87C31.74 35.86 31.58 35.86 31.43 35.85C31.19 35.83 30.96 35.82 30.73 35.8C29.96 35.73 29.2 35.64 28.45 35.52C28.3 35.5 28.15 35.48 28 35.45C27.7 35.4 27.4 35.34 27.11 35.29C26.96 35.26 26.82 35.22 26.67 35.19C26.45 35.15 26.23 35.1 26.02 35.04C25.94 35.03 25.87 35.01 25.8 34.99C25.66 34.95 25.51 34.92 25.37 34.88C24.16 34.55 23.01 34.16 21.94 33.71C21.83 33.66 21.72 33.62 21.62 33.57C21.41 33.48 21.2 33.38 21 33.28C20.9 33.23 20.8 33.18 20.7 33.13C20.5 33.03 20.3 32.93 20.11 32.83L9.09 39.23C8.62 39.5 8.02 39.63 7.41 39.63C6.8 39.63 6.19 39.49 5.73 39.22C5.35 39.01 5.13 38.73 5.05 38.45C5.04 38.41 5.03 38.36 5.03 38.32C5.02 38.08 5.08 37.9 5.2 37.73C5.36 37.53 5.51 37.4 5.72 37.28L17.04 30.7C16.93 30.61 16.84 30.52 16.75 30.44C16.59 30.29 16.5 30.2 16.42 30.11C16.32 30.02 16.23 29.92 16.14 29.82C15.73 29.37 15.37 28.9 15.06 28.42C15 28.31 14.93 28.2 14.87 28.09C14.84 28.04 14.81 27.99 14.78 27.93C14.66 27.71 14.55 27.49 14.45 27.27C14.43 27.21 14.41 27.15 14.38 27.1C14.34 26.98 14.29 26.87 14.25 26.76C14.23 26.7 14.22 26.64 14.2 26.59C14.11 26.3 14.03 26.01 13.98 25.72C13.97 25.66 13.96 25.6 13.95 25.54C13.94 25.47 13.93 25.42 13.93 25.37C13.88 25.01 13.87 24.77 13.87 24.53C13.87 23.86 13.96 23.19 14.16 22.54C14.38 21.79 14.73 21.07 15.2 20.38C15.25 20.3 15.3 20.22 15.36 20.15C15.58 19.84 15.82 19.55 16.08 19.26C16.14 19.18 16.21 19.11 16.28 19.04C17.16 18.11 18.26 17.26 19.54 16.51C19.64 16.45 19.74 16.4 19.84 16.34C20.04 16.23 20.24 16.12 20.44 16.02C20.65 15.91 20.87 15.8 21.1 15.69C21.31 15.59 21.53 15.49 21.76 15.39C22.1 15.25 22.44 15.11 22.8 14.98C23.24 14.81 23.7 14.65 24.17 14.51C24.32 14.46 24.47 14.41 24.63 14.37C24.75 14.33 24.88 14.29 25.01 14.26C25.35 14.16 25.71 14.07 26.06 13.99C26.29 13.93 26.53 13.88 26.77 13.83C26.97 13.79 27.18 13.75 27.39 13.71C27.8 13.63 28.21 13.56 28.63 13.5C29.47 13.38 30.33 13.29 31.22 13.23C31.51 13.21 31.8 13.19 32.1 13.18C32.55 13.16 33 13.15 33.45 13.15C33.59 13.15 33.73 13.16 33.87 13.16C34.05 13.16 34.19 13.16 34.32 13.17C34.52 13.17 34.64 13.18 34.77 13.18C34.97 13.19 35.1 13.19 35.23 13.2C35.41 13.21 35.54 13.22 35.67 13.23C35.83 13.24 35.96 13.25 36.09 13.26C36.28 13.27 36.4 13.28 36.53 13.29C36.72 13.31 36.85 13.32 36.97 13.34C37.16 13.36 37.29 13.37 37.42 13.39C37.57 13.4 37.69 13.42 37.82 13.44C37.99 13.46 38.11 13.48 38.23 13.49C38.42 13.52 38.54 13.54 38.66 13.56C38.85 13.59 38.97 13.61 39.09 13.63C39.27 13.66 39.39 13.68 39.5 13.7C39.65 13.73 39.77 13.75 39.89 13.78C40.07 13.81 40.18 13.84 40.29 13.86C40.48 13.9 40.59 13.93 40.7 13.95C40.89 14 41 14.02 41.11 14.05C41.27 14.09 41.38 14.12 41.49 14.14C41.64 14.19 41.75 14.22 41.86 14.25C42.04 14.29 42.15 14.32 42.25 14.36C42.43 14.41 42.54 14.44 42.64 14.47C42.82 14.52 42.92 14.56 43.03 14.59C43.17 14.64 43.27 14.67 43.37 14.71C43.53 14.76 43.63 14.79 43.73 14.83C43.9 14.89 44 14.93 44.1 14.96C44.27 15.03 44.37 15.07 44.46 15.1C44.61 15.16 44.71 15.2 44.81 15.24C44.93 15.29 45.03 15.34 45.14 15.38C45.28 15.44 45.38 15.49 45.48 15.53C45.63 15.6 45.72 15.64 45.81 15.68C45.96 15.75 46.06 15.8 46.15 15.85C46.27 15.9 46.37 15.95 46.46 16C46.58 16.06 46.67 16.11 46.77 16.16C46.9 16.23 46.99 16.28 47.08 16.33C47.21 16.4 47.3 16.45 47.38 16.5C47.53 16.59 47.6 16.63 47.66 16.66C47.82 16.76 47.88 16.8 47.94 16.83C48.1 16.93 48.15 16.97 48.21 17.01C48.36 17.11 48.42 17.15 48.47 17.18C48.63 17.29 48.69 17.33 48.74 17.37C48.9 17.48 48.98 17.54 49.06 17.6C49.15 17.67 49.23 17.73 49.31 17.8C49.43 17.89 49.49 17.94 49.55 17.98C49.67 18.09 49.72 18.13 49.77 18.18C49.9 18.29 49.95 18.33 50 18.37C50.13 18.49 50.17 18.53 50.22 18.57C50.34 18.69 50.39 18.73 50.43 18.78C50.56 18.9 50.61 18.96 50.67 19.01C50.76 19.11 50.83 19.18 50.89 19.25C50.97 19.34 51.03 19.4 51.08 19.46C51.17 19.57 51.21 19.62 51.25 19.67C51.35 19.79 51.39 19.84 51.42 19.88C51.44 19.91 51.47 19.94 51.49 19.96C51.52 20.01 51.55 20.05 51.59 20.1C51.68 20.23 51.71 20.27 51.75 20.32C51.84 20.45 51.87 20.51 51.91 20.56C51.99 20.69 52.04 20.77 52.08 20.84C52.14 20.94 52.18 21 52.21 21.06C52.28 21.19 52.31 21.24 52.33 21.29C52.35 21.32 52.36 21.35 52.38 21.38C52.4 21.42 52.42 21.47 52.45 21.52C52.46 21.55 52.48 21.58 52.49 21.61C52.51 21.66 52.53 21.7 52.55 21.75C52.57 21.78 52.58 21.81 52.59 21.84C52.61 21.89 52.63 21.94 52.65 21.98C52.66 22.01 52.68 22.05 52.69 22.08C52.71 22.13 52.73 22.18 52.75 22.23C52.8 22.39 52.83 22.46 52.85 22.54C52.93 22.79 52.99 23.03 53.04 23.28C53.05 23.36 53.07 23.44 53.08 23.53C53.11 23.69 53.13 23.86 53.14 24.03C53.15 24.11 53.15 24.2 53.16 24.28C53.16 24.36 53.16 24.45 53.16 24.53C53.16 24.62 53.16 24.7 53.16 24.79C53.14 25.38 53.04 25.96 52.87 26.52C52.23 28.68 50.54 30.63 48.11 32.18C47.93 32.3 47.74 32.41 47.56 32.52Z" fill="#000000" fill-opacity="0" fill-rule="evenodd"/>
		<path d="M44.75 30.21C45.03 30.03 45.27 29.85 45.5 29.67C45.56 29.63 45.62 29.58 45.68 29.53C46.19 29.12 46.64 28.67 47.02 28.2C47.1 28.11 47.16 28.02 47.23 27.93C47.26 27.89 47.29 27.85 47.31 27.81C47.37 27.73 47.43 27.64 47.49 27.56C47.54 27.48 47.59 27.39 47.64 27.31C47.73 27.15 47.82 26.99 47.89 26.82C47.93 26.75 47.95 26.69 47.98 26.62C48.04 26.48 48.1 26.34 48.14 26.2L48.19 26.07C48.34 25.57 48.41 25.06 48.41 24.53C48.41 24.01 48.33 23.5 48.17 23L48.12 22.86C48.1 22.8 48.08 22.75 48.06 22.69C48.05 22.67 48.04 22.65 48.04 22.63C48.02 22.59 48.01 22.56 47.99 22.52C47.98 22.5 47.97 22.47 47.96 22.45C47.95 22.42 47.93 22.38 47.92 22.35C47.9 22.32 47.89 22.3 47.88 22.28C47.87 22.24 47.85 22.21 47.83 22.18C47.82 22.15 47.81 22.13 47.8 22.11C47.78 22.07 47.76 22.04 47.74 22C47.73 21.98 47.72 21.96 47.71 21.94C47.69 21.9 47.66 21.86 47.64 21.82C47.58 21.72 47.55 21.66 47.52 21.61C47.5 21.59 47.49 21.57 47.48 21.55C47.45 21.52 47.43 21.48 47.41 21.45C47.39 21.43 47.38 21.4 47.36 21.38C47.34 21.35 47.32 21.32 47.3 21.29C47.28 21.26 47.26 21.24 47.25 21.22C47.23 21.19 47.2 21.16 47.18 21.13C47.16 21.1 47.15 21.08 47.13 21.06C47.1 21.02 47.08 21 47.06 20.97C47.04 20.94 47.02 20.92 47 20.9C46.98 20.87 46.95 20.83 46.93 20.8C46.91 20.78 46.89 20.76 46.87 20.74C46.83 20.69 46.79 20.64 46.74 20.59C46.72 20.56 46.63 20.47 46.6 20.44C46.58 20.42 46.56 20.4 46.54 20.37C46.51 20.35 46.49 20.32 46.46 20.29C46.44 20.27 46.41 20.25 46.39 20.22C46.36 20.2 46.34 20.17 46.31 20.14C46.29 20.12 46.26 20.1 46.24 20.07C46.21 20.05 46.18 20.02 46.15 19.99C46.13 19.97 46.11 19.95 46.08 19.93C46.05 19.9 46.02 19.87 45.99 19.84C45.97 19.82 45.94 19.8 45.92 19.78C45.88 19.75 45.84 19.71 45.8 19.68C45.77 19.66 45.74 19.63 45.72 19.61C45.67 19.58 45.63 19.54 45.59 19.51C45.56 19.49 45.54 19.47 45.52 19.45C45.48 19.42 45.45 19.4 45.41 19.37C45.39 19.35 45.36 19.33 45.33 19.31C45.3 19.28 45.26 19.26 45.23 19.23C45.2 19.21 45.18 19.19 45.15 19.17C45.11 19.15 45.08 19.12 45.04 19.1C45.02 19.08 44.99 19.06 44.96 19.04C44.92 19.01 44.89 18.99 44.85 18.96C44.82 18.94 44.8 18.93 44.77 18.91C44.72 18.88 44.68 18.85 44.63 18.81C44.51 18.74 44.45 18.7 44.38 18.66C44.27 18.59 44.22 18.56 44.17 18.53C44.15 18.52 44.12 18.5 44.1 18.49C44.07 18.47 44.04 18.45 44.01 18.44C43.92 18.39 43.87 18.36 43.82 18.33C43.79 18.31 43.76 18.29 43.73 18.28C43.67 18.25 43.61 18.21 43.55 18.18C43.4 18.1 43.31 18.06 43.23 18.01C43.11 17.96 43.04 17.92 42.97 17.89C42.94 17.87 42.91 17.86 42.88 17.84C42.82 17.82 42.76 17.79 42.7 17.76C42.67 17.75 42.63 17.73 42.6 17.72C42.54 17.69 42.49 17.67 42.44 17.65C42.4 17.63 42.36 17.61 42.32 17.6C42.27 17.57 42.22 17.55 42.16 17.53C42.12 17.51 42.08 17.5 42.04 17.48C41.99 17.46 41.93 17.43 41.88 17.41C41.84 17.4 41.8 17.38 41.76 17.37C41.7 17.34 41.65 17.32 41.59 17.3C41.55 17.29 41.51 17.27 41.48 17.26C41.4 17.23 41.31 17.2 41.23 17.17C41.07 17.11 40.99 17.09 40.9 17.06C40.86 17.04 40.83 17.03 40.79 17.02C40.73 17 40.67 16.98 40.61 16.96C40.56 16.95 40.52 16.93 40.48 16.92C40.42 16.9 40.36 16.89 40.31 16.87C40.26 16.85 40.21 16.84 40.17 16.83C40.11 16.81 40.06 16.79 40 16.78C39.95 16.77 39.91 16.75 39.86 16.74C39.8 16.72 39.75 16.71 39.69 16.69C39.64 16.68 39.6 16.67 39.55 16.66C39.49 16.64 39.43 16.63 39.37 16.61C39.32 16.6 39.28 16.59 39.23 16.58C39.17 16.56 39.1 16.54 39.03 16.53C38.99 16.52 38.95 16.51 38.92 16.5C38.81 16.48 38.71 16.46 38.6 16.43C38.56 16.42 38.52 16.42 38.48 16.41C38.42 16.39 38.35 16.38 38.28 16.37C38.23 16.36 38.19 16.35 38.14 16.34C38.08 16.33 38.01 16.32 37.95 16.3C37.9 16.29 37.85 16.29 37.8 16.28C37.74 16.27 37.68 16.26 37.62 16.25C37.57 16.24 37.52 16.23 37.47 16.22C37.41 16.21 37.34 16.2 37.28 16.19C37.23 16.18 37.18 16.18 37.13 16.17C37.07 16.16 37 16.15 36.93 16.14C36.89 16.13 36.84 16.13 36.79 16.12C36.72 16.11 36.64 16.1 36.56 16.09L36.45 16.08C36.34 16.07 36.22 16.05 36.11 16.04C35.94 16.02 35.85 16.02 35.76 16.01C35.72 16 35.68 16 35.64 16C35.56 15.99 35.49 15.98 35.41 15.98C35.36 15.97 35.32 15.97 35.27 15.97C35.2 15.96 35.13 15.96 35.05 15.95C35.01 15.95 34.96 15.95 34.91 15.95C34.84 15.94 34.77 15.94 34.69 15.93C34.65 15.93 34.6 15.93 34.55 15.93C34.48 15.92 34.4 15.92 34.33 15.92C34.28 15.92 34.24 15.92 34.19 15.91C34.11 15.91 34.03 15.91 33.94 15.91C33.91 15.91 33.87 15.91 33.83 15.91C33.71 15.91 33.59 15.9 33.47 15.9C29.33 15.9 25.6 16.88 22.9 18.46C20.94 19.61 19.53 21.09 18.93 22.73L18.89 22.86C18.73 23.34 18.64 23.82 18.62 24.32C18.62 24.39 18.62 24.46 18.62 24.53C18.62 24.63 18.62 24.72 18.63 24.81C18.63 24.91 18.64 25 18.65 25.09C18.66 25.14 18.67 25.19 18.67 25.24L18.66 25.16C18.85 26.56 19.62 27.92 20.91 29.11C20.94 29.14 20.98 29.17 21.01 29.2C21.03 29.22 21.08 29.26 21.12 29.29C21.19 29.36 21.22 29.38 21.25 29.41C21.32 29.47 21.35 29.49 21.38 29.52C21.46 29.58 21.5 29.61 21.54 29.64C21.61 29.7 21.65 29.73 21.7 29.77C21.77 29.82 21.81 29.85 21.84 29.87C21.92 29.93 21.96 29.96 21.99 29.98C22.08 30.04 22.11 30.06 22.15 30.09C22.24 30.15 22.29 30.18 22.34 30.22C22.41 30.26 22.45 30.29 22.49 30.32C22.57 30.37 22.61 30.39 22.65 30.42C22.74 30.47 22.78 30.49 22.82 30.52C22.91 30.58 22.97 30.61 23.02 30.64C23.09 30.68 23.15 30.71 23.22 30.75C23.24 30.76 23.26 30.77 23.28 30.79C23.33 30.81 23.37 30.83 23.42 30.86C23.44 30.87 23.47 30.89 23.5 30.9C23.54 30.92 23.58 30.94 23.62 30.97C23.65 30.98 23.68 30.99 23.7 31.01C23.75 31.03 23.79 31.05 23.84 31.07C23.86 31.09 23.89 31.1 23.91 31.11C23.96 31.14 24.02 31.16 24.07 31.19C24.19 31.25 24.26 31.28 24.33 31.31C24.45 31.37 24.5 31.39 24.55 31.41C24.58 31.42 24.61 31.43 24.64 31.45C24.68 31.47 24.73 31.49 24.78 31.51C24.81 31.52 24.84 31.53 24.87 31.54L25 31.6C25.03 31.61 25.06 31.62 25.09 31.64C25.14 31.66 25.2 31.68 25.25 31.7C25.4 31.76 25.47 31.78 25.55 31.81C25.66 31.85 25.72 31.88 25.78 31.9C25.81 31.91 25.84 31.92 25.87 31.93C25.92 31.95 25.97 31.96 26.02 31.98C26.05 31.99 26.08 32 26.11 32.01C26.17 32.03 26.22 32.04 26.27 32.06C26.3 32.07 26.33 32.08 26.36 32.09C26.41 32.11 26.47 32.13 26.52 32.14C26.68 32.19 26.76 32.22 26.84 32.24C27.05 32.3 27.23 32.35 27.41 32.4C27.5 32.42 27.59 32.44 27.68 32.46L27.48 32.41C27.69 32.47 27.9 32.52 28.12 32.57C28.3 32.61 28.49 32.65 28.67 32.69C28.77 32.7 28.86 32.72 28.95 32.74C30.24 32.98 31.6 33.13 33.01 33.16C33.08 33.16 33.16 33.16 33.23 33.16C33.29 33.16 33.35 33.16 33.41 33.16L33.29 33.16C33.38 33.16 33.47 33.16 33.56 33.16C33.89 33.16 34.21 33.16 34.53 33.14C34.64 33.14 34.75 33.14 34.85 33.13C36.62 33.04 38.3 32.78 39.83 32.36C39.92 32.34 40.01 32.31 40.1 32.29C41.26 31.96 42.34 31.54 43.3 31.05C43.38 31.02 43.45 30.98 43.52 30.94C43.67 30.86 43.81 30.79 43.95 30.71C44.09 30.62 44.23 30.54 44.37 30.46C44.5 30.38 44.63 30.3 44.75 30.21ZM45.45 33.6C45.34 33.64 45.23 33.69 45.12 33.74C44.91 33.83 44.69 33.92 44.46 34C43.34 34.44 42.14 34.81 40.88 35.1C40.63 35.16 40.37 35.22 40.11 35.27C38.43 35.61 36.65 35.83 34.8 35.89C34.7 35.9 34.6 35.9 34.49 35.9C34.19 35.91 33.89 35.91 33.58 35.91C33.5 35.91 33.43 35.91 33.35 35.91C33.13 35.91 32.9 35.91 32.68 35.9C32.36 35.89 32.13 35.88 31.89 35.87C31.74 35.86 31.58 35.86 31.43 35.85C31.19 35.83 30.96 35.82 30.73 35.8C29.96 35.73 29.2 35.64 28.45 35.52C28.3 35.5 28.15 35.48 28 35.45C27.7 35.4 27.4 35.34 27.11 35.29C26.96 35.26 26.82 35.22 26.67 35.19C26.45 35.15 26.23 35.1 26.02 35.04C25.94 35.03 25.87 35.01 25.8 34.99C25.66 34.95 25.51 34.92 25.37 34.88C24.16 34.55 23.01 34.16 21.94 33.71C21.83 33.66 21.72 33.62 21.62 33.57C21.41 33.48 21.2 33.38 21 33.28C20.9 33.23 20.8 33.18 20.7 33.13C20.5 33.03 20.3 32.93 20.11 32.83L9.09 39.23C8.62 39.5 8.02 39.63 7.41 39.63C6.8 39.63 6.19 39.49 5.73 39.22C5.35 39.01 5.13 38.73 5.05 38.45C5.04 38.41 5.03 38.36 5.03 38.32C5.02 38.08 5.08 37.9 5.2 37.73C5.36 37.53 5.51 37.4 5.72 37.28L17.04 30.7C16.93 30.61 16.84 30.52 16.75 30.44C16.59 30.29 16.5 30.2 16.42 30.11C16.32 30.02 16.23 29.92 16.14 29.82C15.73 29.37 15.37 28.9 15.06 28.42C15 28.31 14.93 28.2 14.87 28.09C14.84 28.04 14.81 27.99 14.78 27.93C14.66 27.71 14.55 27.49 14.45 27.27C14.43 27.21 14.41 27.15 14.38 27.1C14.34 26.98 14.29 26.87 14.25 26.76C14.23 26.7 14.22 26.64 14.2 26.59C14.11 26.3 14.03 26.01 13.98 25.72C13.97 25.66 13.96 25.6 13.95 25.54C13.94 25.47 13.93 25.42 13.93 25.37C13.88 25.01 13.87 24.77 13.87 24.53C13.87 23.86 13.96 23.19 14.16 22.54C14.38 21.79 14.73 21.07 15.2 20.38C15.25 20.3 15.3 20.22 15.36 20.15C15.58 19.84 15.82 19.55 16.08 19.26C16.14 19.18 16.21 19.11 16.28 19.04C17.16 18.11 18.26 17.26 19.54 16.51C19.64 16.45 19.74 16.4 19.84 16.34C20.04 16.23 20.24 16.12 20.44 16.02C20.65 15.91 20.87 15.8 21.1 15.69C21.31 15.59 21.53 15.49 21.76 15.39C22.1 15.25 22.44 15.11 22.8 14.98C23.24 14.81 23.7 14.65 24.17 14.51C24.32 14.46 24.47 14.41 24.63 14.37C24.75 14.33 24.88 14.29 25.01 14.26C25.35 14.16 25.71 14.07 26.06 13.99C26.29 13.93 26.53 13.88 26.77 13.83C26.97 13.79 27.18 13.75 27.39 13.71C27.8 13.63 28.21 13.56 28.63 13.5C29.47 13.38 30.33 13.29 31.22 13.23C31.51 13.21 31.8 13.19 32.1 13.18C32.55 13.16 33 13.15 33.45 13.15C33.59 13.15 33.73 13.16 33.87 13.16C34.05 13.16 34.19 13.16 34.32 13.17C34.52 13.17 34.64 13.18 34.77 13.18C34.97 13.19 35.1 13.19 35.23 13.2C35.41 13.21 35.54 13.22 35.67 13.23C35.83 13.24 35.96 13.25 36.09 13.26C36.28 13.27 36.4 13.28 36.53 13.29C36.72 13.31 36.85 13.32 36.97 13.34C37.16 13.36 37.29 13.37 37.42 13.39C37.57 13.4 37.69 13.42 37.82 13.44C37.99 13.46 38.11 13.48 38.23 13.49C38.42 13.52 38.54 13.54 38.66 13.56C38.85 13.59 38.97 13.61 39.09 13.63C39.27 13.66 39.39 13.68 39.5 13.7C39.65 13.73 39.77 13.75 39.89 13.78C40.07 13.81 40.18 13.84 40.29 13.86C40.48 13.9 40.59 13.93 40.7 13.95C40.89 14 41 14.02 41.11 14.05C41.27 14.09 41.38 14.12 41.49 14.14C41.64 14.19 41.75 14.22 41.86 14.25C42.04 14.29 42.15 14.32 42.25 14.36C42.43 14.41 42.54 14.44 42.64 14.47C42.82 14.52 42.92 14.56 43.03 14.59C43.17 14.64 43.27 14.67 43.37 14.71C43.53 14.76 43.63 14.79 43.73 14.83C43.9 14.89 44 14.93 44.1 14.96C44.27 15.03 44.37 15.07 44.46 15.1C44.61 15.16 44.71 15.2 44.81 15.24C44.93 15.29 45.03 15.34 45.14 15.38C45.28 15.44 45.38 15.49 45.48 15.53C45.63 15.6 45.72 15.64 45.81 15.68C45.96 15.75 46.06 15.8 46.15 15.85C46.27 15.9 46.37 15.95 46.46 16C46.58 16.06 46.67 16.11 46.77 16.16C46.9 16.23 46.99 16.28 47.08 16.33C47.21 16.4 47.3 16.45 47.38 16.5C47.53 16.59 47.6 16.63 47.66 16.66C47.82 16.76 47.88 16.8 47.94 16.83C48.1 16.93 48.15 16.97 48.21 17.01C48.36 17.11 48.42 17.15 48.47 17.18C48.63 17.29 48.69 17.33 48.74 17.37C48.9 17.48 48.98 17.54 49.06 17.6C49.15 17.67 49.23 17.73 49.31 17.8C49.43 17.89 49.49 17.94 49.55 17.98C49.67 18.09 49.72 18.13 49.77 18.18C49.9 18.29 49.95 18.33 50 18.37C50.13 18.49 50.17 18.53 50.22 18.57C50.34 18.69 50.39 18.73 50.43 18.78C50.56 18.9 50.61 18.96 50.67 19.01C50.76 19.11 50.83 19.18 50.89 19.25C50.97 19.34 51.03 19.4 51.08 19.46C51.17 19.57 51.21 19.62 51.25 19.67C51.35 19.79 51.39 19.84 51.42 19.88C51.44 19.91 51.47 19.94 51.49 19.96C51.52 20.01 51.55 20.05 51.59 20.1C51.68 20.23 51.71 20.27 51.75 20.32C51.84 20.45 51.87 20.51 51.91 20.56C51.99 20.69 52.04 20.77 52.08 20.84C52.14 20.94 52.18 21 52.21 21.06C52.28 21.19 52.31 21.24 52.33 21.29C52.35 21.32 52.36 21.35 52.38 21.38C52.4 21.42 52.42 21.47 52.45 21.52C52.46 21.55 52.48 21.58 52.49 21.61C52.51 21.66 52.53 21.7 52.55 21.75C52.57 21.78 52.58 21.81 52.59 21.84C52.61 21.89 52.63 21.94 52.65 21.98C52.66 22.01 52.68 22.05 52.69 22.08C52.71 22.13 52.73 22.18 52.75 22.23C52.8 22.39 52.83 22.46 52.85 22.54C52.93 22.79 52.99 23.03 53.04 23.28C53.05 23.36 53.07 23.44 53.08 23.53C53.11 23.69 53.13 23.86 53.14 24.03C53.15 24.11 53.15 24.2 53.16 24.28C53.16 24.36 53.16 24.45 53.16 24.53C53.16 24.62 53.16 24.7 53.16 24.79C53.14 25.38 53.04 25.96 52.87 26.52C52.23 28.68 50.54 30.63 48.11 32.18C47.93 32.3 47.74 32.41 47.56 32.52C46.9 32.91 46.19 33.27 45.45 33.6Z" stroke="#A1B7F7" stroke-opacity="1.000000" stroke-width="1.000000"/>
		<path d="M34.79 12.28L33.98 12.26L33.45 12.25C33 12.25 32.54 12.26 32.09 12.28L31.62 12.3L31.2 12.32C30.31 12.38 29.44 12.47 28.59 12.6C28.17 12.66 27.75 12.73 27.33 12.81L27.03 12.87L26.7 12.94C26.46 12.99 26.22 13.04 25.99 13.09C25.63 13.18 25.28 13.27 24.93 13.37L24.54 13.47L24.08 13.62C23.6 13.77 23.14 13.92 22.69 14.09C22.34 14.22 21.99 14.37 21.64 14.52C21.41 14.61 21.19 14.71 20.97 14.82C20.74 14.93 20.52 15.04 20.3 15.15C20.16 15.22 20.02 15.29 19.89 15.37L19.69 15.47C19.59 15.53 19.49 15.59 19.39 15.65C18.08 16.41 16.96 17.28 16.06 18.23L15.92 18.37C15.9 18.4 15.88 18.43 15.85 18.45C15.58 18.75 15.34 19.06 15.11 19.37L14.95 19.6C14.46 20.33 14.1 21.08 13.87 21.86C13.67 22.52 13.56 23.22 13.56 23.93L13.55 30.32L13.55 30.45L13.56 30.67L13.57 30.79L13.59 31.06L13.63 31.38L13.64 31.46C13.65 31.51 13.66 31.56 13.66 31.59L5.38 36.57C5.14 36.71 4.95 36.87 4.77 37.1C4.61 37.34 4.54 37.58 4.54 37.88L4.53 43.68L4.54 43.79C4.54 43.8 4.55 43.87 4.56 43.89C4.67 44.32 5.15 45.06 5.56 45.29C5.68 45.36 5.81 45.42 5.95 45.48L6.13 45.55L6.25 45.58L6.52 45.65C6.61 45.67 6.7 45.68 6.79 45.7L7.03 45.72L7.2 45.73L7.39 45.74L7.54 45.74C7.64 45.73 7.73 45.73 7.83 45.72L8.04 45.69L8.14 45.67L8.37 45.62L8.6 45.56L8.72 45.52L8.85 45.47C8.98 45.42 9.1 45.36 9.22 45.3L20.1 38.98L20.24 39.06L20.54 39.21L20.85 39.36C21.06 39.46 21.27 39.56 21.48 39.65L21.8 39.79C22 39.88 22.2 39.96 22.4 40.04L22.76 40.17L23.17 40.32C23.23 40.34 23.28 40.36 23.34 40.38L23.52 40.45C23.97 40.6 24.4 40.73 24.83 40.86L25.05 40.92L25.49 41.04L25.71 41.09L26.26 41.22L26.59 41.3L26.9 41.36L27.48 41.48L27.93 41.56L28.22 41.61C28.28 41.61 28.33 41.62 28.38 41.63L28.82 41.7L29.03 41.72C29.63 41.8 30.17 41.86 30.69 41.91L31.05 41.93L31.64 41.97L31.98 41.99L32.85 42.02L33.09 42.02L33.45 42.02L34.02 42.02L34.49 42.01L34.78 42L35.27 41.98L35.54 41.97L36.1 41.93L36.69 41.88L36.92 41.86L37.55 41.79L37.85 41.75L38.2 41.7L38.85 41.61L39.14 41.56L39.44 41.51C39.68 41.47 39.92 41.42 40.16 41.37C40.41 41.32 40.66 41.27 40.93 41.2C41.37 41.1 41.82 40.98 42.32 40.84L43.12 40.6C43.62 40.44 44.1 40.27 44.56 40.09L45.01 39.91L45.4 39.75L45.55 39.68C46.18 39.4 46.79 39.1 47.36 38.78L47.88 38.48L48.07 38.36L48.25 38.24C48.52 38.07 48.78 37.89 49.06 37.69L49.35 37.47L49.57 37.3L49.79 37.12C49.94 37 50.08 36.87 50.21 36.75L50.37 36.62L50.71 36.29L50.86 36.14C50.98 36.01 51.1 35.89 51.21 35.75L51.36 35.58L51.49 35.43L51.63 35.27L51.73 35.13L52 34.76C52.17 34.51 52.32 34.28 52.44 34.06L52.57 33.82C52.65 33.66 52.73 33.51 52.8 33.34L52.98 32.92C53.04 32.74 53.1 32.58 53.15 32.42C53.21 32.2 53.27 31.99 53.31 31.77L53.36 31.43C53.41 31.13 53.44 30.86 53.44 30.61L53.45 30.5L53.46 23.93L53.46 23.67C53.45 23.58 53.45 23.49 53.44 23.4C53.43 23.22 53.41 23.05 53.38 22.88L53.35 22.71C53.35 22.68 53.34 22.65 53.33 22.62C53.28 22.36 53.22 22.1 53.14 21.84L53.08 21.67L52.97 21.37L52.9 21.2L52.83 21.03L52.72 20.79L52.6 20.55L52.45 20.27L52.32 20.04L52.16 19.8L52 19.55L51.73 19.18L51.49 18.88L51.35 18.71L51.12 18.45L50.89 18.2L50.65 17.96L50.43 17.75L50.03 17.39L49.74 17.15L49.5 16.96L49.24 16.76L48.92 16.53L48.44 16.2L48.1 15.98L47.54 15.64L47.06 15.37L46.5 15.08L46.29 14.97L45.89 14.78L45.48 14.6L45.05 14.41L44.73 14.29L44.21 14.08L43.71 13.9L43.12 13.7L42.73 13.58L42.05 13.38L41.57 13.25L41.19 13.16L40.77 13.06L40.22 12.94L39.56 12.81L39.14 12.73L38.82 12.68L38.21 12.58L37.6 12.5L37.01 12.43L36.32 12.37L35.59 12.32L34.79 12.28ZM33.45 12.86L33.97 12.86L34.77 12.88L35.55 12.92L36.27 12.97L36.94 13.04L37.53 13.1L38.12 13.18L38.72 13.27L39.04 13.33L39.45 13.4L40.09 13.53L40.64 13.65L41.04 13.74L41.41 13.84L41.88 13.96L42.56 14.16L42.94 14.28L43.51 14.47L43.99 14.65L44.51 14.85L44.81 14.97L45.24 15.15L45.63 15.33L46.02 15.52L46.23 15.62L46.77 15.9L47.23 16.16L47.78 16.49L48.1 16.7L48.57 17.02L48.88 17.24L49.13 17.44L49.36 17.62L49.63 17.85L50.01 18.19L50.23 18.4L50.45 18.62L50.67 18.86L50.89 19.11L51.02 19.26L51.25 19.55L51.5 19.9L51.66 20.13L51.8 20.35L51.92 20.57L52.07 20.83L52.18 21.05L52.28 21.27L52.35 21.43L52.41 21.59L52.51 21.86L52.56 22.03C52.64 22.26 52.7 22.5 52.74 22.74L52.77 22.9L52.78 22.97C52.81 23.12 52.83 23.28 52.84 23.45C52.85 23.53 52.85 23.61 52.85 23.69L52.86 23.94L52.84 30.49L52.84 30.59C52.83 30.82 52.81 31.06 52.77 31.33L52.71 31.66C52.68 31.85 52.63 32.05 52.57 32.25C52.52 32.4 52.47 32.55 52.42 32.7L52.25 33.1C52.18 33.25 52.11 33.4 52.04 33.54L51.91 33.77C51.82 33.93 51.72 34.1 51.6 34.28L51.44 34.5L51.16 34.89L50.9 35.19L50.76 35.35C50.65 35.48 50.54 35.6 50.43 35.71L50.28 35.86L49.96 36.18L49.82 36.3C49.68 36.42 49.55 36.54 49.4 36.65L48.94 37.02C48.6 37.28 48.25 37.53 47.93 37.73L47.75 37.85L47.38 38.07C46.85 38.39 46.27 38.69 45.67 38.96L45.24 39.16L44.99 39.27C44.78 39.36 44.56 39.44 44.34 39.53C43.89 39.71 43.43 39.87 42.95 40.02L42.45 40.17C41.84 40.35 41.31 40.49 40.79 40.61C40.53 40.68 40.28 40.73 40.04 40.78C39.8 40.83 39.57 40.87 39.34 40.91L39.04 40.96L38.75 41.01L38.46 41.05C38.23 41.09 38 41.12 37.78 41.15L37.48 41.19L36.86 41.26L36.65 41.27L36.15 41.32L35.68 41.35C35.53 41.36 35.39 41.37 35.24 41.38L34.76 41.4L34.47 41.41L34.02 41.42L33.45 41.42L33.1 41.42L32.86 41.41L32.01 41.38L31.56 41.36L31.09 41.33L30.74 41.3C30.4 41.28 30.05 41.24 29.68 41.19L29.1 41.12L28.9 41.1L28.47 41.03L28.03 40.96L27.59 40.88L27.02 40.77L26.72 40.71L26.39 40.63L25.85 40.5L25.64 40.45L25.43 40.39C25.28 40.35 25.14 40.31 25 40.27C24.57 40.15 24.15 40.02 23.72 39.88L23.54 39.81L23.1 39.65L22.74 39.52C22.7 39.5 22.66 39.49 22.62 39.48C22.43 39.4 22.23 39.32 22.04 39.24L21.72 39.1C21.52 39.01 21.31 38.92 21.11 38.82L20.81 38.67L20.52 38.52L20.23 38.37C20.14 38.32 20.03 38.32 19.94 38.37L8.92 44.77C8.8 44.84 8.66 44.9 8.5 44.96L8.42 44.99L8.22 45.04L8.03 45.08L7.76 45.12C7.69 45.12 7.6 45.13 7.53 45.13L7.39 45.13L7.3 45.13C7.23 45.13 7.16 45.13 7.09 45.12L6.86 45.1C6.79 45.09 6.72 45.07 6.66 45.06L6.42 45L6.33 44.97L6.16 44.91C6.06 44.87 5.95 44.82 5.86 44.77C5.73 44.67 5.52 44.44 5.39 44.23L5.31 44.1L5.13 43.67L5.15 37.87C5.14 37.7 5.18 37.58 5.26 37.46L5.33 37.37C5.43 37.26 5.54 37.18 5.68 37.09L14.03 32.13C14.26 32.08 14.32 31.86 14.26 31.48L14.23 31.29L14.19 31L14.17 30.74L14.16 30.64L14.15 30.43L14.15 30.32L14.17 23.93C14.17 23.28 14.26 22.64 14.45 22.03C14.66 21.32 15 20.62 15.45 19.94L15.61 19.72C15.81 19.43 16.05 19.14 16.3 18.86L16.5 18.65C17.35 17.74 18.43 16.91 19.69 16.17L19.84 16.08L19.99 16C20.17 15.9 20.37 15.79 20.58 15.68C20.79 15.58 21 15.47 21.22 15.36C21.44 15.26 21.66 15.16 21.88 15.07C22.22 14.92 22.56 14.79 22.9 14.66C23.34 14.49 23.79 14.34 24.26 14.19L24.72 14.05L25.09 13.95C25.43 13.85 25.78 13.76 26.13 13.68L26.48 13.6L26.99 13.49L27.44 13.4C27.85 13.33 28.26 13.26 28.68 13.2C29.51 13.07 30.37 12.98 31.23 12.93L31.66 12.9L32.11 12.88C32.56 12.86 33.01 12.86 33.45 12.86Z" fill="#144287" fill-opacity="1.000000" fill-rule="nonzero"/>
		<path d="M33.98 12.26L33.45 12.25C33 12.25 32.54 12.26 32.09 12.28L31.62 12.3L31.2 12.32C30.31 12.38 29.44 12.47 28.59 12.6C28.17 12.66 27.75 12.73 27.33 12.81L27.03 12.87L26.7 12.94C26.46 12.99 26.22 13.04 25.99 13.09C25.63 13.18 25.28 13.27 24.93 13.37L24.54 13.47L24.08 13.62C23.6 13.77 23.14 13.92 22.69 14.09C22.34 14.22 21.99 14.37 21.64 14.52C21.41 14.61 21.19 14.71 20.97 14.82C20.74 14.93 20.52 15.04 20.3 15.15C20.16 15.22 20.02 15.29 19.89 15.37L19.69 15.47C19.59 15.53 19.49 15.59 19.39 15.65C18.08 16.41 16.96 17.28 16.06 18.23L15.92 18.37C15.9 18.4 15.88 18.43 15.85 18.45C15.58 18.75 15.34 19.06 15.11 19.37L14.95 19.6C14.46 20.33 14.1 21.08 13.87 21.86C13.67 22.52 13.56 23.22 13.56 23.93L13.55 30.32L13.55 30.45L13.56 30.67L13.57 30.79L13.59 31.06L13.63 31.38L13.64 31.46C13.65 31.51 13.66 31.56 13.66 31.59L5.38 36.57C5.14 36.71 4.95 36.87 4.77 37.1C4.61 37.34 4.54 37.58 4.54 37.88L4.53 43.68L4.54 43.79C4.54 43.8 4.55 43.87 4.56 43.89C4.67 44.32 5.15 45.06 5.56 45.29C5.68 45.36 5.81 45.42 5.95 45.48L6.13 45.55L6.25 45.58L6.52 45.65C6.61 45.67 6.7 45.68 6.79 45.7L7.03 45.72L7.2 45.73L7.39 45.74L7.54 45.74C7.64 45.73 7.73 45.73 7.83 45.72L8.04 45.69L8.14 45.67L8.37 45.62L8.6 45.56L8.72 45.52L8.85 45.47C8.98 45.42 9.1 45.36 9.22 45.3L20.1 38.98L20.24 39.06L20.54 39.21L20.85 39.36C21.06 39.46 21.27 39.56 21.48 39.65L21.8 39.79C22 39.88 22.2 39.96 22.4 40.04L22.76 40.17L23.17 40.32C23.23 40.34 23.28 40.36 23.34 40.38L23.52 40.45C23.97 40.6 24.4 40.73 24.83 40.86L25.05 40.92L25.49 41.04L25.71 41.09L26.26 41.22L26.59 41.3L26.9 41.36L27.48 41.48L27.93 41.56L28.22 41.61C28.28 41.61 28.33 41.62 28.38 41.63L28.82 41.7L29.03 41.72C29.63 41.8 30.17 41.86 30.69 41.91L31.05 41.93L31.64 41.97L31.98 41.99L32.85 42.02L33.09 42.02L33.45 42.02L34.02 42.02L34.49 42.01L34.78 42L35.27 41.98L35.54 41.97L36.1 41.93L36.69 41.88L36.92 41.86L37.55 41.79L37.85 41.75L38.2 41.7L38.85 41.61L39.14 41.56L39.44 41.51C39.68 41.47 39.92 41.42 40.16 41.37C40.41 41.32 40.66 41.27 40.93 41.2C41.37 41.1 41.82 40.98 42.32 40.84L43.12 40.6C43.62 40.44 44.1 40.27 44.56 40.09L45.01 39.91L45.4 39.75L45.55 39.68C46.18 39.4 46.79 39.1 47.36 38.78L47.88 38.48L48.07 38.36L48.25 38.24C48.52 38.07 48.78 37.89 49.06 37.69L49.35 37.47L49.57 37.3L49.79 37.12C49.94 37 50.08 36.87 50.21 36.75L50.37 36.62L50.71 36.29L50.86 36.14C50.98 36.01 51.1 35.89 51.21 35.75L51.36 35.58L51.49 35.43L51.63 35.27L51.73 35.13L52 34.76C52.17 34.51 52.32 34.28 52.44 34.06L52.57 33.82C52.65 33.66 52.73 33.51 52.8 33.34L52.98 32.92C53.04 32.74 53.1 32.58 53.15 32.42C53.21 32.2 53.27 31.99 53.31 31.77L53.36 31.43C53.41 31.13 53.44 30.86 53.44 30.61L53.45 30.5L53.46 23.93L53.46 23.67C53.45 23.58 53.45 23.49 53.44 23.4C53.43 23.22 53.41 23.05 53.38 22.88L53.35 22.71C53.35 22.68 53.34 22.65 53.33 22.62C53.28 22.36 53.22 22.1 53.14 21.84L53.08 21.67L52.97 21.37L52.9 21.2L52.83 21.03L52.72 20.79L52.6 20.55L52.45 20.27L52.32 20.04L52.16 19.8L52 19.55L51.73 19.18L51.49 18.88L51.35 18.71L51.12 18.45L50.89 18.2L50.65 17.96L50.43 17.75L50.03 17.39L49.74 17.15L49.5 16.96L49.24 16.76L48.92 16.53L48.44 16.2L48.1 15.98L47.54 15.64L47.06 15.37L46.5 15.08L46.29 14.97L45.89 14.78L45.48 14.6L45.05 14.41L44.73 14.29L44.21 14.08L43.71 13.9L43.12 13.7L42.73 13.58L42.05 13.38L41.57 13.25L41.19 13.16L40.77 13.06L40.22 12.94L39.56 12.81L39.14 12.73L38.82 12.68L38.21 12.58L37.6 12.5L37.01 12.43L36.32 12.37L35.59 12.32L34.79 12.28L33.98 12.26ZM33.97 12.86L34.77 12.88L35.55 12.92L36.27 12.97L36.94 13.04L37.53 13.1L38.12 13.18L38.72 13.27L39.04 13.33L39.45 13.4L40.09 13.53L40.64 13.65L41.04 13.74L41.41 13.84L41.88 13.96L42.56 14.16L42.94 14.28L43.51 14.47L43.99 14.65L44.51 14.85L44.81 14.97L45.24 15.15L45.63 15.33L46.02 15.52L46.23 15.62L46.77 15.9L47.23 16.16L47.78 16.49L48.1 16.7L48.57 17.02L48.88 17.24L49.13 17.44L49.36 17.62L49.63 17.85L50.01 18.19L50.23 18.4L50.45 18.62L50.67 18.86L50.89 19.11L51.02 19.26L51.25 19.55L51.5 19.9L51.66 20.13L51.8 20.35L51.92 20.57L52.07 20.83L52.18 21.05L52.28 21.27L52.35 21.43L52.41 21.59L52.51 21.86L52.56 22.03C52.64 22.26 52.7 22.5 52.74 22.74L52.77 22.9L52.78 22.97C52.81 23.12 52.83 23.28 52.84 23.45C52.85 23.53 52.85 23.61 52.85 23.69L52.86 23.94L52.84 30.49L52.84 30.59C52.83 30.82 52.81 31.06 52.77 31.33L52.71 31.66C52.68 31.85 52.63 32.05 52.57 32.25C52.52 32.4 52.47 32.55 52.42 32.7L52.25 33.1C52.18 33.25 52.11 33.4 52.04 33.54L51.91 33.77C51.82 33.93 51.72 34.1 51.6 34.28L51.44 34.5L51.16 34.89L50.9 35.19L50.76 35.35C50.65 35.48 50.54 35.6 50.43 35.71L50.28 35.86L49.96 36.18L49.82 36.3C49.68 36.42 49.55 36.54 49.4 36.65L48.94 37.02C48.6 37.28 48.25 37.53 47.93 37.73L47.75 37.85L47.38 38.07C46.85 38.39 46.27 38.69 45.67 38.96L45.24 39.16L44.99 39.27C44.78 39.36 44.56 39.44 44.34 39.53C43.89 39.71 43.43 39.87 42.95 40.02L42.45 40.17C41.84 40.35 41.31 40.49 40.79 40.61C40.53 40.68 40.28 40.73 40.04 40.78C39.8 40.83 39.57 40.87 39.34 40.91L39.04 40.96L38.75 41.01L38.46 41.05C38.23 41.09 38 41.12 37.78 41.15L37.48 41.19L36.86 41.26L36.65 41.27L36.15 41.32L35.68 41.35C35.53 41.36 35.39 41.37 35.24 41.38L34.76 41.4L34.47 41.41L34.02 41.42L33.45 41.42L33.1 41.42L32.86 41.41L32.01 41.38L31.56 41.36L31.09 41.33L30.74 41.3C30.4 41.28 30.05 41.24 29.68 41.19L29.1 41.12L28.9 41.1L28.47 41.03L28.03 40.96L27.59 40.88L27.02 40.77L26.72 40.71L26.39 40.63L25.85 40.5L25.64 40.45L25.43 40.39C25.28 40.35 25.14 40.31 25 40.27C24.57 40.15 24.15 40.02 23.72 39.88L23.54 39.81L23.1 39.65L22.74 39.52C22.7 39.5 22.66 39.49 22.62 39.48C22.43 39.4 22.23 39.32 22.04 39.24L21.72 39.1C21.52 39.01 21.31 38.92 21.11 38.82L20.81 38.67L20.52 38.52L20.23 38.37C20.14 38.32 20.03 38.32 19.94 38.37L8.92 44.77C8.8 44.84 8.66 44.9 8.5 44.96L8.42 44.99L8.22 45.04L8.03 45.08L7.76 45.12C7.69 45.12 7.6 45.13 7.53 45.13L7.39 45.13L7.3 45.13C7.23 45.13 7.16 45.13 7.09 45.12L6.86 45.1C6.79 45.09 6.72 45.07 6.66 45.06L6.42 45L6.33 44.97L6.16 44.91C6.06 44.87 5.95 44.82 5.86 44.77C5.73 44.67 5.52 44.44 5.39 44.23L5.31 44.1L5.13 43.67L5.15 37.87C5.14 37.7 5.18 37.58 5.26 37.46L5.33 37.37C5.43 37.26 5.54 37.18 5.68 37.09L14.03 32.13C14.26 32.08 14.32 31.86 14.26 31.48L14.23 31.29L14.19 31L14.17 30.74L14.16 30.64L14.15 30.43L14.15 30.32L14.17 23.93C14.17 23.28 14.26 22.64 14.45 22.03C14.66 21.32 15 20.62 15.45 19.94L15.61 19.72C15.81 19.43 16.05 19.14 16.3 18.86L16.5 18.65C17.35 17.74 18.43 16.91 19.69 16.17L19.84 16.08L19.99 16C20.17 15.9 20.37 15.79 20.58 15.68C20.79 15.58 21 15.47 21.22 15.36C21.44 15.26 21.66 15.16 21.88 15.07C22.22 14.92 22.56 14.79 22.9 14.66C23.34 14.49 23.79 14.34 24.26 14.19L24.72 14.05L25.09 13.95C25.43 13.85 25.78 13.76 26.13 13.68L26.48 13.6L26.99 13.49L27.44 13.4C27.85 13.33 28.26 13.26 28.68 13.2C29.51 13.07 30.37 12.98 31.23 12.93L31.66 12.9L32.11 12.88C32.56 12.86 33.01 12.86 33.45 12.86L33.97 12.86Z" stroke="#000000" stroke-opacity="0" stroke-width="1.000000"/>
	</g>
</svg>
