<svg width="12.000000" height="12.000000" viewBox="0 0 12 12" fill="none" xmlns="http://www.w3.org/2000/svg" xmlns:xlink="http://www.w3.org/1999/xlink">
	<desc>
			Created with Pixso.
	</desc>
	<defs>
		<clipPath id="clip194_10760">
			<rect width="12.000000" height="12.000000" fill="white" fill-opacity="0"/>
		</clipPath>
	</defs>
	<g clip-path="url(#clip194_10760)">
		<g opacity="0.000000">
			<rect width="12.000000" height="12.000000" fill="#000000" fill-opacity="1.000000"/>
		</g>
		<path d="M9.41 1.44C9.32 1.32 9.19 1.27 9.04 1.27L2.95 1.27C2.8 1.27 2.67 1.32 2.58 1.44L0.58 3.95C0.53 4.01 0.5 4.09 0.5 4.21C0.5 4.32 0.53 4.41 0.59 4.48L5.68 10.58C5.76 10.68 5.87 10.73 6 10.73L6.21 10.72L11.4 4.48C11.46 4.41 11.5 4.32 11.5 4.22C11.5 4.11 11.46 4.02 11.4 3.95L9.41 1.44ZM6.02 7.32C5.87 7.32 5.76 7.26 5.69 7.14L4.15 4.67L3.45 4.67C3.35 4.67 3.26 4.64 3.18 4.57C3.11 4.49 3.07 4.41 3.07 4.31C3.07 4.2 3.11 4.11 3.18 4.04C3.26 3.97 3.35 3.94 3.45 3.94L4.35 3.94C4.5 3.94 4.6 3.99 4.68 4.1L6.01 6.23L7.33 4.12C7.41 4 7.52 3.94 7.67 3.94L8.56 3.94C8.66 3.94 8.74 3.97 8.81 4.04C8.89 4.11 8.93 4.2 8.93 4.31C8.93 4.41 8.89 4.49 8.81 4.57C8.74 4.64 8.66 4.67 8.56 4.67L7.87 4.67L6.34 7.15C6.27 7.26 6.16 7.32 6.02 7.32Z" fill="#666666" fill-opacity="1.000000" fill-rule="nonzero"/>
	</g>
</svg>
