<?xml version="1.0" standalone="no"?>
<svg xmlns="http://www.w3.org/2000/svg" width="24" height="24">
    <rect width="24" height="24" opacity="0"></rect>
    <g>
        <path d="M16.54 9.1L16.54 6.05Q16.54 4.8 15.92 3.77Q15.31 2.74 14.28 2.12Q13.25 1.51 12 1.51Q10.75 1.51 9.71 2.12Q8.66 2.74 8.05 3.77Q7.44 4.8 7.44 6.05L7.44 9.1L6.29 9.1Q5.52 9.1 4.88 9.47Q4.25 9.84 3.88 10.48Q3.5 11.11 3.5 11.88L3.5 19.7Q3.5 20.47 3.88 21.11Q4.25 21.74 4.88 22.12Q5.52 22.49 6.29 22.49L17.71 22.49Q18.46 22.49 19.1 22.12Q19.75 21.74 20.12 21.1Q20.5 20.45 20.5 19.7L20.5 11.88Q20.5 11.11 20.12 10.48Q19.75 9.84 19.12 9.47Q18.48 9.1 17.71 9.1ZM8.95 6.05Q8.95 5.23 9.36 4.52Q9.77 3.82 10.48 3.41Q11.18 3 12 3Q12.82 3 13.52 3.41Q14.23 3.82 14.64 4.52Q15.05 5.23 15.05 6.05L15.05 9.1L8.95 9.1L8.95 6.05ZM12 13.9Q12.77 13.9 13.31 14.44Q13.85 14.98 13.85 15.74Q13.85 16.49 13.31 17.04Q12.77 17.59 12 17.59Q11.26 17.59 10.7 17.04Q10.15 16.49 10.15 15.74Q10.15 14.98 10.7 14.44Q11.26 13.9 12 13.9Z"
              fill="rgba(255,255,255,1)"></path>
    </g>
</svg>