<?xml version="1.0" encoding="UTF-8"?>
<svg width="24px" height="24px" viewBox="0 0 24 24" version="1.1" xmlns="http://www.w3.org/2000/svg"
>
    <title>dot_grid_2x2</title>
    <g id="页面-1" stroke="none" stroke-width="1" fill="none" fill-rule="evenodd">
        <g id="播放器_投屏" transform="translate(-32, -176)">
            <g id="编组" transform="translate(16, 164)">
                <g id="dot_grid_2x2" transform="translate(16, 12)" fill-rule="nonzero">
                    <rect id="矩形" fill="#FFFFFF" opacity="0" x="0" y="0" width="24" height="24"></rect>
                    <path d="M20.01,19 C20.5566667,19 21.0566667,18.8633333 21.51,18.59 C21.97,18.3166667 22.3333333,17.9533333 22.6,17.5 C22.8733333,17.0466667 23.01,16.5466667 23.01,16 L23.01,5 C23.01,4.45333333 22.8733333,3.95333333 22.6,3.5 C22.3333333,3.04666667 21.97,2.68333333 21.51,2.41 C21.0566667,2.13666667 20.5566667,2 20.01,2 L4,2 C3.46,2 2.96,2.13666667 2.5,2.41 C2.04666667,2.68333333 1.68333333,3.04666667 1.41,3.5 C1.13666667,3.95333333 1,4.45333333 1,5 L1,16 C1,16.5466667 1.13666667,17.0466667 1.41,17.5 C1.68333333,17.9533333 2.04666667,18.3166667 2.5,18.59 C2.96,18.8633333 3.46,19 4,19 L20.01,19 Z M20.01,3.49 C20.43,3.49 20.7833333,3.63666667 21.07,3.93 C21.3566667,4.23 21.5,4.58666667 21.5,5 L21.5,16 C21.5,16.4133333 21.3566667,16.7666667 21.07,17.06 C20.7833333,17.3466667 20.43,17.49 20.01,17.49 L4,17.49 C3.58666667,17.49 3.23666667,17.3466667 2.95,17.06 C2.66333333,16.7666667 2.52,16.4133333 2.52,16 L2.52,5 C2.52,4.58666667 2.66333333,4.23 2.95,3.93 C3.23666667,3.63666667 3.58666667,3.49 4,3.49 L20.01,3.49 Z M16.02,20.7 C16.4618278,20.7 16.82,21.0581722 16.82,21.5 C16.82,21.9418278 16.4618278,22.3 16.02,22.3 L8.02,22.3 C7.5781722,22.3 7.22,21.9418278 7.22,21.5 C7.22,21.0581722 7.5781722,20.7 8.02,20.7 L16.02,20.7 Z"
                          id="形状结合" fill-opacity="0.90196132" fill="#000000"></path>
                </g>
            </g>
        </g>
    </g>
</svg>