<?xml version="1.0" standalone="no"?><!DOCTYPE svg PUBLIC "-//W3C//DTD SVG 1.1//EN"
        "http://www.w3.org/Graphics/SVG/1.1/DTD/svg11.dtd">
<svg t="1757408799949" class="icon" viewBox="0 0 1024 1024" version="1.1" xmlns="http://www.w3.org/2000/svg"
     p-id="24010" width="200" height="200">
    <path d="M810.666667 128H384c-46.933333 0-85.333333 38.4-85.333333 85.333333v85.333334H213.333333c-46.933333 0-85.333333 38.4-85.333333 85.333333v426.666667c0 46.933333 38.4 85.333333 85.333333 85.333333h426.666667c46.933333 0 85.333333-38.4 85.333333-85.333333v-85.333334h85.333334c46.933333 0 85.333333-38.4 85.333333-85.333333V213.333333c0-46.933333-38.4-85.333333-85.333333-85.333333z m-170.666667 682.666667H213.333333V384h426.666667v426.666667z m170.666667-170.666667h-85.333334V384c0-46.933333-38.4-85.333333-85.333333-85.333333H384V213.333333h426.666667v426.666667z"
          p-id="24011" fill="#ffffff"></path>
</svg>