<?xml version="1.0" standalone="no"?><!DOCTYPE svg PUBLIC "-//W3C//DTD SVG 1.1//EN"
        "http://www.w3.org/Graphics/SVG/1.1/DTD/svg11.dtd">
<svg t="1757407343788" class="icon" viewBox="0 0 1024 1024" version="1.1" xmlns="http://www.w3.org/2000/svg" p-id="8754"
     width="200" height="200">
    <path d="M527.86 707.06l169.88 169.88c8.76 8.74 8.78 22.92 0.04 31.68-4.2 4.21-9.91 6.58-15.85 6.58H342.07c-12.37 0-22.4-10.03-22.4-22.4 0-5.95 2.37-11.65 6.58-15.85l169.88-169.88c8.74-8.76 22.92-8.78 31.68-0.04 0.02 0 0.04 0.02 0.05 0.03zM825.6 108.8c71.17 0 130 55.47 134.18 126.52l0.22 7.88v448c0 71.17-55.47 130-126.52 134.18l-7.88 0.22H709.79l-89.6-89.6H825.6c22.71 0 41.83-17 44.49-39.56l0.31-5.24v-448c0-22.71-17-41.83-39.56-44.49l-5.24-0.31H198.4c-22.71 0-41.83 17-44.49 39.56l-0.31 5.24v448c0 22.71 17 41.83 39.56 44.49l5.24 0.31h205.36l-89.6 89.6H198.4c-71.17 0-130-55.47-134.18-126.52L64 691.2v-448c0-71.17 55.47-130 126.52-134.18l7.88-0.22h627.2z"
          p-id="8755" fill="#ffffff"></path>
</svg>