<svg width="51.830078" height="45.276611" viewBox="0 0 51.8301 45.2766" fill="none" xmlns="http://www.w3.org/2000/svg" xmlns:xlink="http://www.w3.org/1999/xlink">
	<desc>
			Created with Pixso.
	</desc>
	<defs/>
	<path id="path" d="M51.58 17.02L43.53 1.21C43.44 1.03 43.33 0.86 43.19 0.71C43.05 0.56 42.89 0.43 42.72 0.32C42.54 0.22 42.36 0.13 42.16 0.08C41.97 0.02 41.77 0 41.56 0L10.35 0C10.14 0 9.95 0.02 9.75 0.08C9.56 0.13 9.37 0.21 9.2 0.32C9.03 0.43 8.87 0.55 8.73 0.7C8.59 0.85 8.48 1.02 8.38 1.2L0.24 17C0.14 17.21 0.07 17.43 0.03 17.66C-0.01 17.89 -0.02 18.12 0.02 18.35C0.05 18.58 0.12 18.8 0.22 19.01C0.32 19.22 0.45 19.41 0.61 19.58L24.28 44.58C24.49 44.8 24.74 44.97 25.01 45.09C25.29 45.21 25.58 45.27 25.88 45.27C26.19 45.27 26.48 45.21 26.75 45.09C27.03 44.97 27.27 44.8 27.48 44.58L51.21 19.59C51.37 19.43 51.5 19.24 51.6 19.03C51.7 18.82 51.77 18.6 51.8 18.37C51.84 18.14 51.83 17.91 51.79 17.68C51.76 17.45 51.69 17.23 51.58 17.02ZM38.99 19.54L27.5 31.65C27.29 31.87 27.04 32.04 26.77 32.16C26.49 32.28 26.2 32.34 25.9 32.34C25.6 32.34 25.3 32.28 25.03 32.16C24.75 32.04 24.51 31.87 24.3 31.64L12.83 19.53C11.98 18.64 12.02 17.23 12.9 16.37C13.78 15.52 15.18 15.55 16.03 16.44L25.9 26.87L35.79 16.45C36.64 15.56 38.04 15.53 38.92 16.38C39.81 17.23 39.84 18.65 38.99 19.54Z" fill="#93C0FF" fill-opacity="1.000000" fill-rule="nonzero"/>
</svg>
