<?xml version="1.0" encoding="UTF-8"?>
<svg width="22px" height="22px" viewBox="0 0 22 22" version="1.1" xmlns="http://www.w3.org/2000/svg"
>
    <title>编组</title>
    <g id="页面-1" stroke="none" stroke-width="1" fill="none" fill-rule="evenodd">
        <g id="首页_无收藏" transform="translate(-90, -335)" fill="#000000">
            <g id="编组备份-13" transform="translate(16, 276)">
                <g id="编组" transform="translate(74, 59)">
                    <circle id="椭圆形" fill-opacity="0.0509803922" cx="11" cy="11" r="11"></circle>
                    <g id="Public/Icon/Default" transform="translate(2.2, 2.2)" fill-opacity="0.9">
                        <path d="M4.89133333,1.40066667 C5.19933333,1.40066667 5.44866667,1.65 5.44866667,1.958 L5.44793333,4.3208 L12.5248625,4.32079502 L12.5647484,4.21165938 C12.8429024,3.51817737 13.5214186,3.02844667 14.3143175,3.02844667 C15.3549973,3.02844667 16.1986349,3.87208433 16.1986349,4.91276413 C16.1986349,5.74132845 15.6638561,6.4449885 14.9206308,6.697412 L14.9377682,6.69149876 L14.9372667,12.2833333 C14.9372667,13.7492667 13.7485333,14.9365333 12.2833333,14.9365333 L6.65540436,14.9365422 L6.66504273,14.9082691 C6.41619009,15.6578049 5.70938689,16.1984149 4.87631746,16.1984149 C4.04324803,16.1984149 3.33644484,15.6578049 3.08759219,14.9082691 L3.09723056,14.9365422 L1.958,14.9365333 C1.6808,14.9365333 1.45112,14.7345733 1.407956,14.4701839 L1.40066667,14.3799333 C1.40066667,14.0719333 1.65,13.8226 1.958,13.8226 L3.05699562,13.8216618 L3.05118608,13.8437108 C3.21735576,13.1970721 3.71811605,12.6846581 4.35796102,12.501975 L4.32527979,12.5116289 L4.3494,5.43693333 L1.95873333,5.43693333 C1.68153333,5.43693333 1.45125933,5.23437933 1.40797653,4.96933653 L1.40066667,4.87886667 C1.40066667,4.57086667 1.65073333,4.3208 1.95873333,4.3208 L4.3494,4.3208 L4.334,1.958 C4.334,1.65 4.58333333,1.40066667 4.89133333,1.40066667 Z M4.87631746,13.5444467 C4.45125106,13.5444467 4.10666667,13.8890311 4.10666667,14.3140975 C4.10666667,14.7391639 4.45125106,15.0837483 4.87631746,15.0837483 C5.30138386,15.0837483 5.64596825,14.7391639 5.64596825,14.3140975 C5.64596825,13.8890311 5.30138386,13.5444467 4.87631746,13.5444467 Z M12.4948429,5.40463366 L12.5038125,5.43675243 L5.4362,5.4362 L5.43622513,12.5143613 L5.41352051,12.5074631 C6.03972193,12.6933835 6.52969335,13.1960026 6.6977819,13.8296674 L12.2833333,13.8226 C13.0966,13.8226 13.7624667,13.1919333 13.8189333,12.3933333 L13.8226,12.2833333 L13.8218818,6.73208596 L13.8499624,6.73943478 C13.1915719,6.57257892 12.6713436,6.05912346 12.4948429,5.40463366 Z M14.3143175,4.14311333 C13.8892511,4.14311333 13.5446667,4.48769773 13.5446667,4.91276413 C13.5446667,5.33783052 13.8892511,5.68241492 14.3143175,5.68241492 C14.7393839,5.68241492 15.0839683,5.33783052 15.0839683,4.91276413 C15.0839683,4.48769773 14.7393839,4.14311333 14.3143175,4.14311333 Z"
                              id="形状结合"></path>
                    </g>
                </g>
            </g>
        </g>
    </g>
</svg>