<?xml version="1.0" encoding="UTF-8"?>
<svg width="24px" height="24px" viewBox="0 0 24 24" version="1.1"
     xmlns="http://www.w3.org/2000/svg">
    <title>编组</title>
    <g id="页面-1" stroke="none" stroke-width="1" fill="none" fill-rule="evenodd">
        <g id="首页_收藏" transform="translate(-28, -124)">
            <g id="编组" transform="translate(16, 108)">
                <g transform="translate(0, 4)" fill-rule="nonzero">
                    <g transform="translate(12, 12)">
                        <rect id="矩形" fill="#000000" opacity="0" x="0" y="0" width="24" height="24"></rect>
                        <path d="M10.15,18.65 C10.4233333,18.5233333 10.64,18.3333333 10.8,18.08 C10.96,17.8333333 11.04,17.56 11.04,17.26 L11.04,6.84 C11.04,6.53333333 10.96,6.25333333 10.8,6 C10.64,5.74666667 10.4233333,5.56333333 10.15,5.45 C9.87666667,5.32333333 9.59666667,5.27333333 9.31,5.3 C9.02333333,5.33333333 8.76666667,5.44666667 8.54,5.64 L5.11,8.45 L2.5,8.45 C1.95333333,8.45 1.49333333,8.63666667 1.12,9.01 C0.74,9.39 0.55,9.85 0.55,10.39 L0.55,13.68 C0.55,14.2266667 0.74,14.69 1.12,15.07 C1.49333333,15.4566667 1.95333333,15.65 2.5,15.65 L5.11,15.65 L8.54,18.46 C8.78,18.6333333 9.04666667,18.74 9.34,18.78 C9.62666667,18.82 9.89666667,18.7766667 10.15,18.65 Z M5.64,9.94 L9.55,6.84 L9.48,17.28 L5.64,14.16 L2.5,14.16 C2.36666667,14.16 2.25666667,14.1133333 2.17,14.02 C2.08333333,13.92 2.04,13.8066667 2.04,13.68 L2.04,10.39 C2.04,10.2633333 2.08333333,10.1566667 2.17,10.07 C2.25666667,9.98333333 2.36666667,9.94 2.5,9.94 L5.64,9.94 Z"
                              id="形状" fill-opacity="0.90196079" fill="#000000"></path>
                        <g transform="translate(12.79, 3.67)" fill="#191919" id="路径">
                            <path d="M1.32,5.45 C1.16,5.30333333 0.98,5.22666667 0.78,5.22 C0.58,5.21333333 0.4,5.28333333 0.24,5.43 C0.1,5.57 0.03,5.74333333 0.03,5.95 C0.03,6.16333333 0.1,6.34 0.24,6.48 C0.48,6.74 0.663333333,7.02333333 0.79,7.33 C0.923333333,7.64333333 0.99,7.97666667 0.99,8.33 C0.99,8.69666667 0.923333333,9.04 0.79,9.36 C0.663333333,9.68 0.473333333,9.96 0.22,10.2 C0.0733333333,10.3466667 0,10.5233333 0,10.73 C0,10.9366667 0.0733333333,11.1133333 0.22,11.26 C0.36,11.42 0.536666667,11.5 0.75,11.5 C0.956666667,11.5 1.13,11.42 1.27,11.26 C1.65666667,10.8733333 1.95666667,10.43 2.17,9.93 C2.39,9.42333333 2.5,8.89666667 2.5,8.35 C2.5,7.81 2.39666667,7.28666667 2.19,6.78 C1.97666667,6.28 1.68666667,5.83666667 1.32,5.45 Z"></path>
                            <path d="M4.15,2.74 C4.01,2.59333333 3.83666667,2.52 3.63,2.52 C3.41666667,2.52 3.24,2.59333333 3.1,2.74 C2.95333333,2.88 2.88,3.05666667 2.88,3.27 C2.88,3.47666667 2.95333333,3.65 3.1,3.79 C3.69333333,4.38333333 4.15333333,5.07666667 4.48,5.87 C4.80666667,6.66333333 4.97,7.48333333 4.97,8.33 C4.97,9.17666667 4.81,9.99 4.49,10.77 C4.17,11.5433333 3.71333333,12.2333333 3.12,12.84 C2.96,12.9866667 2.88,13.1633333 2.88,13.37 C2.88,13.5766667 2.96,13.7533333 3.12,13.9 C3.26666667,14.06 3.44333333,14.14 3.65,14.14 C3.85666667,14.14 4.03333333,14.06 4.18,13.9 C4.91333333,13.16 5.48,12.31 5.88,11.35 C6.28,10.39 6.48,9.38333333 6.48,8.33 C6.48,7.27666667 6.28,6.26333333 5.88,5.29 C5.48,4.32333333 4.90333333,3.47333333 4.15,2.74 Z"></path>
                            <path d="M7.3,0.22 C7.15333333,0.0733333333 6.97666667,0 6.77,0 C6.56333333,0 6.38666667,0.0733333333 6.24,0.22 C6.1,0.36 6.03,0.536666667 6.03,0.75 C6.03,0.956666667 6.1,1.13 6.24,1.27 C7.18666667,2.20333333 7.91,3.27666667 8.41,4.49 C8.91666667,5.70333333 9.17,6.98333333 9.17,8.33 C9.17,9.65666667 8.91666667,10.93 8.41,12.15 C7.91,13.3633333 7.19666667,14.4433333 6.27,15.39 C6.11,15.53 6.03333333,15.7033333 6.04,15.91 C6.04666667,16.1233333 6.12333333,16.3 6.27,16.44 C6.41,16.5866667 6.58333333,16.66 6.79,16.66 C7.00333333,16.66 7.18,16.5866667 7.32,16.44 C8.38,15.3666667 9.2,14.1266667 9.78,12.72 C10.3666667,11.3133333 10.66,9.85 10.66,8.33 C10.66,6.79666667 10.3666667,5.33 9.78,3.93 C9.2,2.53 8.37333333,1.29333333 7.3,0.22 Z"></path>
                        </g>
                    </g>
                </g>
            </g>
        </g>
    </g>
</svg>