<?xml version="1.0" encoding="UTF-8"?>
<svg width="20px" height="20px" viewBox="0 0 20 20" version="1.1" xmlns="http://www.w3.org/2000/svg"
>
    <title>编组备份 2</title>
    <defs>
        <linearGradient x1="50%" y1="0%" x2="50%" y2="100%" id="linearGradient-1">
            <stop stop-color="#51B2FF" offset="0%"></stop>
            <stop stop-color="#0A59F7" offset="100%"></stop>
        </linearGradient>
    </defs>
    <g id="页面-1" stroke="none" stroke-width="1" fill="none" fill-rule="evenodd">
        <g id="搜索" transform="translate(-16, -262)">
            <g id="编组备份-3" transform="translate(16, 260)">
                <g id="编组备份-2" transform="translate(0, 2)">
                    <circle id="椭圆形" fill="url(#linearGradient-1)" cx="10" cy="10" r="10"></circle>
                    <path d="M15.4613636,13.6363636 C15.4613636,14.6363636 14.6522727,15.4545455 13.6431818,15.4545455 C13.3340909,15.4545455 13.0431818,15.3818182 12.7886364,15.2454545 C12.5068182,15.0909091 12.2704545,14.8636364 12.1068182,14.6 C11.9977273,14.4454545 11.925,14.2727273 11.8795455,14.0818182 L6.54318182,14.0818182 C5.61590909,14.0818182 4.96136364,13.7090909 4.59772727,12.9727273 C4.225,12.2272727 4.225,11.4818182 4.59772727,10.7363636 C4.96136364,9.99090909 5.61590909,9.61818182 6.54318182,9.61818182 L13.4340909,9.61818182 C14.0431818,9.61818182 14.4704545,9.37272727 14.7159091,8.88181818 C14.9704545,8.39090909 14.9704545,7.9 14.7159091,7.4 C14.4704545,6.90909091 14.0431818,6.66363636 13.4340909,6.66363636 L8.16136364,6.66363636 C8.01590909,7.52727273 7.27954545,8.18181818 6.37045455,8.18181818 C5.37045455,8.18181818 4.55227273,7.36363636 4.55227273,6.36363636 C4.55227273,5.36363636 5.37045455,4.54545455 6.37045455,4.54545455 C7.20681818,4.54545455 7.89772727,5.1 8.11590909,5.86363636 L13.4340909,5.86363636 C14.3704545,5.86363636 15.025,6.24545455 15.3886364,7 C15.7704545,7.75454545 15.7704545,8.50909091 15.3977273,9.27272727 C15.0340909,10.0272727 14.3795455,10.4090909 13.4340909,10.4090909 L6.54318182,10.4090909 C5.94318182,10.4090909 5.525,10.6454545 5.28863636,11.1272727 C5.05227273,11.6090909 5.05227273,12.0909091 5.28863636,12.5727273 C5.525,13.0545455 5.94318182,13.3 6.54318182,13.3 L11.8613636,13.3 C11.8977273,13.1 11.9613636,12.9090909 12.0613636,12.7363636 C12.2159091,12.4636364 12.4431818,12.2363636 12.7068182,12.0818182 C12.9795455,11.9090909 13.2977273,11.8181818 13.6431818,11.8181818 C14.6522727,11.8181818 15.4613636,12.6363636 15.4613636,13.6363636"
                          id="Fill-1" fill="#FFFFFF"></path>
                </g>
            </g>
        </g>
    </g>
</svg>