<?xml version="1.0" encoding="UTF-8"?>
<svg width="120px" height="120px" viewBox="0 0 120 120" version="1.1"
     xmlns="http://www.w3.org/2000/svg">
    <title>编组</title>
    <defs>
        <filter x="-44.4%" y="-171.4%" width="188.9%" height="442.9%" filterUnits="objectBoundingBox" id="filter-1">
            <feGaussianBlur stdDeviation="3.47169811" in="SourceGraphic"></feGaussianBlur>
        </filter>
        <path d="M17.3584906,0 C14.1995296,0 11.2932855,0.773945439 8.63975827,2.32183632 C5.98623105,3.88025707 3.88025707,5.98623105 2.32183632,8.63975827 C0.773945439,11.2932855 0,14.1995296 0,17.3584906 C0,20.4963918 0.773945439,23.397371 2.32183632,26.0614281 C3.88025707,28.7254851 5.99149599,30.8367241 8.65555308,32.3951448 C11.3196102,33.9430357 14.2205893,34.7169811 17.3584906,34.7169811 C20.4963918,34.7169811 23.397371,33.9430357 26.0614281,32.3951448 C28.7254851,30.8367241 30.8367241,28.7254851 32.3951448,26.0614281 C33.9430357,23.397371 34.7169811,20.4963918 34.7169811,17.3584906 C34.7169811,14.1995296 33.9430357,11.2932855 32.3951448,8.63975827 C30.8367241,5.98623105 28.7307501,3.88025707 26.0772229,2.32183632 C23.4236956,0.773945439 20.5174515,0 17.3584906,0 Z"
              id="path-2"></path>
    </defs>
    <g id="页面-1" stroke="none" stroke-width="1" fill="none" fill-rule="evenodd">
        <g id="首页_缺省页" transform="translate(-120, -212)">
            <g id="编组" transform="translate(120, 212)">
                <rect id="矩形-2" x="0" y="0" width="120" height="120"></rect>
                <g transform="translate(20, 14)">
                    <ellipse id="椭圆形-2" fill-opacity="0.8" fill="#E5E8EB" cx="32.9811368" cy="86.7924528"
                             rx="19.0943396" ry="5.20754717"></ellipse>
                    <ellipse id="椭圆形-2" fill-opacity="0.458566" fill="#BABDC3" filter="url(#filter-1)" cx="33.415099"
                             cy="86.3584906" rx="11.7169811" ry="3.03773585"></ellipse>
                    <g>
                        <path d="M42.3326963,40.8395662 L38.0778434,43.2677342 C36.7627071,43.9614965 35.3315293,44.2698353 33.7843101,44.1927506 C32.2757713,44.0771235 30.883274,43.6531577 29.5681377,42.805226 C28.2916818,41.9958367 27.2859893,40.8781086 26.5897407,39.5291263 C25.8548116,38.1801441 25.5453677,36.7155349 25.5840482,35.0967562 C25.6227287,33.5936046 26.0095335,32.20608 26.7831431,30.9341825 C27.5180722,29.7393697 28.4850842,28.8143533 29.6454987,28.120591 L33.9003515,25.692423 C32.7012566,26.3476429 31.7729251,27.2726593 31.037996,28.5060145 C30.2643864,29.7393697 29.8775815,31.1268942 29.8389011,32.6685882 C29.8002206,34.2488245 30.1096644,35.7134338 30.8445936,37.062416 C31.5408422,38.4113982 32.5465347,39.5291263 33.8229906,40.377058 C35.1381269,41.1864474 36.4919437,41.6489556 38.039163,41.7260403 C39.5863822,41.8031249 41.01756,41.5333285 42.3326963,40.8395662"
                              id="Fill-1" fill="#BFC4CC"></path>
                        <path d="M41.3331927,83.3413709 L37.0822079,85.7849558 C37.4806168,85.5537017 37.8674216,85.2839053 38.2387542,84.9755665 C45.2786017,79.2327565 51.904568,72.2951336 58.1862781,64.1704064 C64.4331757,56.0456792 67.6978083,47.5509455 67.9105509,38.6862052 C68.0614048,32.46547 66.6727755,26.6108872 63.7446632,21.2226668 C60.8513632,15.8036125 56.809253,11.3905135 51.6879574,8.01805796 C46.5705298,4.68029053 40.9347837,2.82640353 34.7923234,2.49493933 C28.6808075,2.16732936 23.006381,3.408393 17.7032871,6.18344214 C17.3512947,6.37229965 16.9993023,6.5650114 16.655046,6.76543162 L20.9060309,4.32184668 C21.2502871,4.12142646 21.6022795,3.92871472 21.9581399,3.73985721 C27.2573658,0.964808069 32.9317923,-0.276255573 39.0433082,0.0513543947 C45.1896366,0.382818597 50.8215146,2.23670559 55.9428102,5.57447303 C61.0602378,8.94692858 65.102348,13.3600276 67.995648,18.7829361 C70.9276284,24.1673023 72.3162577,30.0218851 72.1654038,36.2426202 C71.9487931,45.1073605 68.6841605,53.6020943 62.4372629,61.7268215 C56.1594209,69.8515487 49.5295865,76.7891715 42.4897391,82.5319816 C42.1184064,82.8441746 41.7316016,83.1101168 41.3331927,83.3413709"
                              id="Fill-3" fill="#C2C7CF"></path>
                        <path d="M26.5885803,39.5194908 C27.3041692,40.8646187 28.2982575,41.9862011 29.5669773,42.8110074 C30.8743775,43.6396679 32.2591387,44.0906134 33.7870177,44.1754065 C35.3458411,44.2563455 36.7808869,43.9557151 38.0921552,43.2696613 C39.4343679,42.5874618 40.4748728,41.573798 41.2562185,40.3096089 C42.0685086,39.0454199 42.4746537,37.6232072 42.5133342,36.0082828 C42.5520146,34.4974227 42.2116264,33.0675015 41.4612251,31.7185193 C40.7495042,30.3387032 39.7554159,29.2556632 38.4480156,28.4270027 C37.1754278,27.6021964 35.7597222,27.1127086 34.2008989,27.0279154 C32.6730199,26.9469765 31.2689184,27.2822949 29.9267058,27.9683487 C28.6193055,28.6544025 27.5749325,29.629524 26.7974549,30.9284011 C26.0161092,32.1964444 25.6099641,33.583969 25.5751517,35.0948291 C25.5364712,36.7097535 25.8729914,38.1743628 26.5885803,39.5194908 M4.97779575,18.0552565 C8.15733126,12.9638122 12.40058,8.99395024 17.7036739,6.18421299 C23.0067678,3.40916385 28.6811943,2.16424597 34.7927102,2.49571018 C40.9351705,2.82717438 46.5670485,4.67720714 51.6883442,8.01497457 C56.8096398,11.3874301 60.847882,15.8043833 63.74505,21.2234376 C66.6731624,26.611658 68.0617916,32.4662409 67.9109377,38.686976 C67.6981951,47.5517163 64.4335625,56.0425958 58.1866649,64.1711773 C51.9049548,72.2959045 45.2789885,79.2335273 38.239141,84.9763373 C36.6455052,86.3021941 34.7927102,86.8880379 32.7581169,86.7801193 C30.6848432,86.6683465 28.901673,85.8820825 27.373794,84.3904936 C20.6317863,77.9038163 14.3229999,70.2685769 8.44743486,61.4886298 C2.61055034,52.7125369 -0.201520605,43.8901932 0.0112220384,35.0254529 C0.162075913,28.8047177 1.7943922,23.1120127 4.97779575,18.0552565"
                              id="Fill-5" fill="#D9DCE1"></path>
                    </g>
                    <g transform="translate(45.1321, 57.283)" fill-rule="nonzero" id="路径">
                        <g stroke-width="2">
                            <path stroke-opacity="0.402835446" stroke="#C1C5CD"
                                  d="M17.3584906,1 C20.3345167,1 23.0731767,1.7271797 25.570801,3.18412218 C28.0748653,4.65476314 30.062218,6.64211579 31.5313659,9.1436293 C32.9898014,11.6438045 33.7169811,14.3824644 33.7169811,17.3584906 C33.7169811,20.315014 32.9890374,23.0487726 31.5319853,25.5564968 C30.0617071,28.0698776 28.0698776,30.0617071 25.5590452,31.5304995 C23.0487726,32.9890374 20.315014,33.7169811 17.3584906,33.7169811 C14.4019671,33.7169811 11.6682085,32.9890374 9.16048435,31.5319853 C6.64710349,30.0617071 4.655274,28.0698776 3.18648161,25.5590452 C1.72794376,23.0487726 1,20.315014 1,17.3584906 C1,14.3824644 1.7271797,11.6438045 3.18412218,9.14618013 C4.65476314,6.64211579 6.64211579,4.65476314 9.1436293,3.18561522 C11.6438045,1.7271797 14.3824644,1 17.3584906,1 Z"
                                  stroke-linejoin="square" fill="#E8EAEC" fill-rule="evenodd"></path>
                            <path stroke="#F1F3F5"
                                  d="M17.3584906,-1 C20.7003863,-1 23.7742146,-0.179288825 26.5836447,1.45955046 C29.3866348,3.10575099 31.6112301,5.33034631 33.2589237,8.13588725 C34.89627,10.9427665 35.7169811,14.0165948 35.7169811,17.3584906 C35.7169811,20.6777696 34.897034,23.7459693 33.2583044,26.5663593 C31.611741,29.3810927 29.3810927,31.611741 26.5638109,33.2597901 C23.7459693,34.897034 20.6777696,35.7169811 17.3584906,35.7169811 C14.0392115,35.7169811 10.9710118,34.897034 8.1506218,33.2583044 C5.33588848,31.611741 3.10524014,29.3810927 1.45719102,26.5638109 C-0.180052882,23.7459693 -1,20.6777696 -1,17.3584906 C-1,14.0165948 -0.179288825,10.9427665 1.45955046,8.13333642 C3.10575099,5.33034631 5.33034631,3.10575099 8.13588725,1.45805742 C10.9427665,-0.179288825 14.0165948,-1 17.3584906,-1 Z"></path>
                        </g>
                        <path d="M24.1028723,12.2725634 C24.3345294,12.0198465 24.450358,11.73554 24.450358,11.4196439 C24.450358,11.1037478 24.3345294,10.8352361 24.1028723,10.6141089 C23.881745,10.361392 23.6027034,10.2350336 23.2657476,10.2350336 C22.9393216,10.2350336 22.665545,10.361392 22.4444177,10.6141089 L17.3584906,15.6842412 L12.2725634,10.6141089 C12.0514361,10.361392 11.7776595,10.2350336 11.4512335,10.2350336 C11.1142777,10.2350336 10.8352361,10.361392 10.6141089,10.6141089 C10.3824517,10.8352361 10.2666232,11.1037478 10.2666232,11.4196439 C10.2666232,11.73554 10.3824517,12.0198465 10.6141089,12.2725634 L15.6842412,17.3584906 L10.6141089,22.4444177 C10.3824517,22.665545 10.2666232,22.9393216 10.2666232,23.2657476 C10.2666232,23.6027034 10.3824517,23.881745 10.6141089,24.1028723 C10.8141764,24.3345294 11.0984829,24.450358 11.4670283,24.450358 C11.8355738,24.450358 12.1040855,24.3345294 12.2725634,24.1028723 L17.3584906,19.0327399 L22.4444177,24.1028723 C22.6444853,24.3345294 22.9287918,24.450358 23.2973372,24.450358 C23.6553528,24.450358 23.9238645,24.3345294 24.1028723,24.1028723 C24.3345294,23.881745 24.450358,23.6027034 24.450358,23.2657476 C24.450358,22.9393216 24.3345294,22.665545 24.1028723,22.4444177 L19.0327399,17.3584906 L24.1028723,12.2725634 Z"
                              fill="#C1C5CD"></path>
                    </g>
                </g>
            </g>
        </g>
    </g>
</svg>