<?xml version="1.0" encoding="UTF-8"?>
<svg width="16px" height="16px" viewBox="0 0 16 16" version="1.1"
     xmlns="http://www.w3.org/2000/svg">
    <title>编组</title>
    <defs>
        <linearGradient x1="50%" y1="0%" x2="50%" y2="100%" id="linearGradient-1">
            <stop stop-color="#00D4C0" offset="0%"></stop>
            <stop stop-color="#00C1AB" offset="100%"></stop>
        </linearGradient>
    </defs>
    <g id="页面-1" stroke="none" stroke-width="1" fill="none" fill-rule="evenodd">
        <g id="首页_收藏" transform="translate(-28, -1028)">
            <g id="编组备份-7" transform="translate(16, 1013)">
                <g id="编组备份" transform="translate(12, 12)">
                    <g id="编组" transform="translate(0, 3)">
                        <circle id="椭圆形" fill="url(#linearGradient-1)" cx="8" cy="8" r="8"></circle>
                        <path d="M8.00383341,3 C10.4218534,3 11.5128877,3.45845863 11.656413,3.52395272 L11.6728872,3.5317035 C11.9684509,3.67920611 12.210329,4.07000285 12.210329,4.40000481 L12.21,5.001 L12.799846,5.00153965 C12.910388,5.00153965 13,5.09115163 13,5.20169361 L12.9961907,5.2396769 L12.9990351,5.26275932 L13,6.23710547 C13,6.30938292 12.9414076,6.36797537 12.8691301,6.36797537 L12.7151655,6.36797537 C12.5578558,6.36797537 12.430331,6.24045062 12.430331,6.08314088 L12.4293572,5.40153965 L12.21,5.401 L12.210329,11.3000039 C12.210329,11.5597929 12.0423627,11.7817942 11.8097079,11.8646971 L11.8097079,12.1999987 C11.8097079,12.6399874 11.4491625,13 11.0084761,13 C10.5677897,13 10.2072443,12.6400083 10.2072443,12.1999987 L10.2072443,11.899997 L5.80045389,11.899997 L5.80045389,12.1999987 C5.80045389,12.6399874 5.43990849,13 4.99922212,13 C4.55853574,13 4.19799035,12.6400083 4.19799035,12.1999987 L4.19799035,11.8646971 C3.96532503,11.7818046 3.79736923,11.5598974 3.79736923,11.3000039 L3.797,5.401 L3.5706428,5.40153965 L3.56966898,6.08314088 C3.56966898,6.24045062 3.44214423,6.36797537 3.28483449,6.36797537 L3.1308699,6.36797537 C3.05859245,6.36797537 3,6.30938292 3,6.23710547 L3.00096495,5.26275932 L3.00380929,5.2396769 L3,5.20169361 C3,5.09115163 3.08961198,5.00153965 3.20015396,5.00153965 L3.797,5.001 L3.79736923,4.40000481 C3.79736923,4.07000285 4.03924735,3.67920611 4.33489479,3.5317035 C4.33489479,3.5317035 5.39981183,3 8.00383341,3 Z M5.99306511,10.1461551 L4.54468049,10.1461551 C4.43451413,10.1461551 4.34437517,10.2361556 4.34437517,10.3461528 L4.34437517,10.7461587 C4.34437517,10.8561558 4.43451413,10.9461564 4.54468049,10.9461564 L5.99306511,10.9461564 C6.10323147,10.9461564 6.19337044,10.8561558 6.19337044,10.7461587 L6.19337044,10.3461528 C6.19337044,10.2361556 6.10323147,10.1461551 5.99306511,10.1461551 Z M11.4630156,10.1461551 L10.014631,10.1461551 C9.90446467,10.1461551 9.8143257,10.2361556 9.8143257,10.3461528 L9.8143257,10.7461587 C9.8143257,10.8561558 9.90446467,10.9461564 10.014631,10.9461564 L11.4630156,10.9461564 C11.573182,10.9461564 11.663321,10.8561558 11.663321,10.7461587 L11.663321,10.3461528 C11.663321,10.2361556 11.573182,10.1461551 11.4630156,10.1461551 Z M11.208771,5.40001422 L4.79890632,5.40001422 C4.68873996,5.40001422 4.598601,5.49001475 4.598601,5.60001192 L4.598601,8.80002739 C4.598601,8.91002455 4.68873996,9.00002509 4.79890632,9.00002509 L11.208771,9.00002509 C11.3189373,9.00002509 11.4090763,8.91002455 11.4090763,8.80002739 L11.4090763,5.60001192 C11.4090763,5.49001475 11.3189373,5.40001422 11.208771,5.40001422 Z M9.80660228,3.80000125 L6.20105407,3.80000125 C6.09088771,3.80000125 6.00074875,3.89000179 6.00074875,3.99999895 L6.00074875,4.40000481 C6.00074875,4.51000198 6.09088771,4.60000251 6.20105407,4.60000251 L9.80660228,4.60000251 C9.91676864,4.60000251 10.0069076,4.51000198 10.0069076,4.40000481 L10.0069076,3.99999895 C10.0069076,3.89000179 9.91676864,3.80000125 9.80660228,3.80000125 Z"
                              id="形状结合" fill="#FFFFFF"></path>
                    </g>
                </g>
            </g>
        </g>
    </g>
</svg>