<?xml version="1.0" encoding="UTF-8"?>
<svg xmlns:xlink="http://www.w3.org/1999/xlink" width="40px" height="40px" viewBox="0 0 40 40" version="1.1"
     xmlns="http://www.w3.org/2000/svg">
    <title>Navigation/TitleBar/Items/Right/更多</title>
    <defs>
        <polygon id="path-1" points="0 0 18.0166101 0 18.0166101 17.81 0 17.81"></polygon>
    </defs>
    <g id="页面-1" stroke="none" stroke-width="1" fill="none" fill-rule="evenodd">
        <g id="首页_收藏" transform="translate(-304, -52)">
            <g id="Navigation/TitleBar/Items/Right/更多" transform="translate(304, 52)">
                <circle id="椭圆形" fill-opacity="0.0509803922" fill="#000000" cx="20" cy="20" r="20"></circle>
                <g id="Public/Icon/Default" transform="translate(8, 8)" stroke-width="1">
                    <g id="编组" transform="translate(2.99, 1.1)">
                        <path d="M11.8383,19.2 C11.8283,19.29 11.8183,19.38 11.8083,19.47 C11.6983,20.07 11.4083,20.6 10.9283,21.04 C10.8183,21.14 10.6983,21.24 10.5783,21.33 C10.1983,21.58 9.7683,21.73 9.2983,21.78 C9.1983,21.79 9.0883,21.79 8.9883,21.79 C8.8983,21.79 8.8083,21.79 8.7183,21.78 C8.2483,21.74 7.8183,21.59 7.4383,21.33 C7.3183,21.24 7.1983,21.14 7.0883,21.04 C6.6083,20.6 6.3183,20.07 6.2083,19.47 C6.1983,19.38 6.1883,19.29 6.1783,19.2 C6.1783,19.14 6.1983,19.08 6.2383,19.04 C6.2583,19.02 6.2783,19 6.3083,19 C6.3283,18.98 6.3483,18.98 6.3683,18.98 L11.6283,18.98 C11.6583,18.98 11.6883,18.98 11.7083,19 C11.7383,19 11.7583,19.02 11.7783,19.04 C11.8183,19.08 11.8383,19.14 11.8383,19.2"
                              id="Fill-1" fill="#000000"></path>
                        <g>
                            <mask id="mask-2" fill="white">
                                <use xlink:href="#path-1"></use>
                            </mask>
                            <g id="Clip-4"></g>
                            <path d="M16.4983,16.15 C16.4683,16.19 16.4283,16.22 16.3883,16.25 C16.3483,16.29 16.3083,16.3 16.2583,16.3 L1.7583,16.3 C1.7083,16.3 1.6683,16.29 1.6283,16.25 C1.5883,16.22 1.5483,16.19 1.5183,16.15 C1.5183,16.12 1.5083,16.1 1.4983,16.08 C1.4983,16 1.5083,15.94 1.5383,15.89 L2.1883,15.07 C2.6583,14.48 2.8883,13.82 2.8883,13.08 L2.8883,8.81 C2.8883,8.47 2.9083,8.15 2.9583,7.85 L2.9383,7.83 C3.0583,6.93 3.3983,6.1 3.9383,5.32 C4.2683,4.84 4.6583,4.43 5.0883,4.08 C5.5683,3.7 6.1183,3.4 6.7283,3.19 C6.8183,3.16 6.8983,3.13 6.9883,3.11 C7.0983,3.07 7.2083,3.04 7.3183,3.01 C7.4983,2.96 7.6783,2.91 7.8683,2.88 C7.8783,2.89 7.8883,2.88 7.8983,2.88 C8.0783,2.84 8.2683,2.82 8.4583,2.81 C8.6383,2.79 8.8283,2.78 9.0083,2.78 C9.1883,2.78 9.3783,2.79 9.5583,2.81 C9.7483,2.82 9.9383,2.84 10.1183,2.88 L10.1483,2.88 C10.3383,2.91 10.5183,2.96 10.6983,3.01 C10.8083,3.04 10.9183,3.07 11.0283,3.11 C11.1183,3.13 11.1983,3.16 11.2883,3.19 C11.8983,3.4 12.4483,3.7 12.9283,4.08 C13.3583,4.43 13.7483,4.84 14.0783,5.32 C14.6183,6.1 14.9583,6.93 15.0783,7.83 L15.0583,7.85 C15.1083,8.15 15.1283,8.47 15.1283,8.81 L15.1283,13.08 C15.1283,13.82 15.3583,14.48 15.8283,15.07 L16.4783,15.89 C16.5083,15.94 16.5183,16 16.5183,16.08 C16.5083,16.1 16.4983,16.12 16.4983,16.15 M17.9683,15.64 C17.9183,15.46 17.8483,15.28 17.7583,15.12 C17.7183,15.07 17.6883,15.03 17.6483,14.98 L16.9983,14.16 C16.8683,14 16.7783,13.84 16.7283,13.66 C16.6943,13.559 16.6923,13.444 16.6783,13.335 C16.6683,13.256 16.6583,13.168 16.6583,13.08 L16.6583,8.71 C16.6583,7.69 16.4583,6.72 16.0483,5.78 C15.6383,4.86 15.0683,4.05 14.3383,3.35 C13.5983,2.65 12.7483,2.13 11.7883,1.78 L11.5983,1.73 C11.4883,1.7 11.3683,1.67 11.2583,1.63 C11.1283,1.15 10.8583,0.76 10.4483,0.46 C10.2283,0.31 10.0083,0.19 9.7583,0.12 C9.6383,0.08 9.5083,0.05 9.3783,0.03 C9.2583,0.01 9.1183,0 8.9883,0 C8.8683,0 8.7583,0.01 8.6383,0.03 C8.5083,0.05 8.3783,0.08 8.2583,0.12 C8.0083,0.19 7.7883,0.31 7.5683,0.46 C7.1583,0.76 6.8883,1.15 6.7583,1.63 C6.6483,1.67 6.5283,1.7 6.4183,1.73 L6.2283,1.78 C5.2683,2.13 4.4183,2.65 3.6783,3.35 C2.9483,4.05 2.3783,4.86 1.9683,5.78 C1.5583,6.72 1.3583,7.69 1.3583,8.71 L1.3583,13.08 C1.3583,13.17 1.3483,13.26 1.3383,13.34 C1.3383,13.39 1.3283,13.44 1.3183,13.5 C1.3183,13.56 1.2983,13.61 1.2883,13.66 C1.2383,13.84 1.1483,14 1.0183,14.16 L0.3683,14.98 C0.3283,15.03 0.2983,15.07 0.2583,15.12 C0.1583,15.29 0.0883,15.46 0.0483,15.64 C0.0283,15.71 0.0183,15.78 0.0083,15.85 C-0.0217,16.18 0.0283,16.5 0.1783,16.82 C0.3383,17.13 0.5583,17.37 0.8383,17.54 C1.1183,17.72 1.4283,17.81 1.7583,17.81 L16.2583,17.81 C16.5883,17.81 16.8983,17.72 17.1783,17.54 C17.4583,17.37 17.6783,17.13 17.8383,16.82 C17.9883,16.52 18.0383,16.21 18.0083,15.88 C17.9983,15.8 17.9883,15.72 17.9683,15.64"
                                  id="Fill-3" fill="#000000" mask="url(#mask-2)"></path>
                        </g>
                    </g>
                </g>
            </g>
        </g>
    </g>
</svg>