<?xml version="1.0" encoding="UTF-8"?>
<svg width="24px" height="24px" viewBox="0 0 24 24" version="1.1" xmlns="http://www.w3.org/2000/svg"
>
    <title>trash</title>
    <g id="页面-1" stroke="none" stroke-width="1" fill="none" fill-rule="evenodd">
        <g id="搜索" transform="translate(-320, -124)" fill="#000000">
            <g id="编组-2" transform="translate(16, 108)">
                <g id="trash" transform="translate(304, 16)" fill-rule="nonzero">
                    <rect id="矩形" opacity="0" x="0" y="0" width="24" height="24"></rect>
                    <path d="M9.1,6.05 C9.30666667,6.05 9.48,5.97666667 9.62,5.83 C9.76666667,5.69 9.84,5.51333333 9.84,5.3 C9.84,4.69333333 10.06,4.16666667 10.5,3.72 C10.94,3.27333333 11.4733333,3.05 12.1,3.05 C12.72,3.05 13.25,3.27333333 13.69,3.72 C14.13,4.16666667 14.35,4.69333333 14.35,5.3 C14.35,5.51333333 14.4233333,5.69 14.57,5.83 C14.71,5.97666667 14.8866667,6.05 15.1,6.05 L20.54,6.05 C20.7533333,6.05 20.93,5.97666667 21.07,5.83 C21.2166667,5.69 21.29,5.51333333 21.29,5.3 C21.29,5.09333333 21.2166667,4.92 21.07,4.78 C20.93,4.63333333 20.7533333,4.56 20.54,4.56 L15.77,4.56 C15.59,3.69333333 15.1566667,2.97666667 14.47,2.41 C13.7833333,1.84333333 12.9833333,1.56 12.07,1.56 C11.1766667,1.56 10.3866667,1.84333333 9.7,2.41 C9.00666667,2.97666667 8.57333333,3.69333333 8.4,4.56 L3.43,4.56 C3.22333333,4.56 3.04666667,4.63333333 2.9,4.78 C2.76,4.92 2.69,5.09333333 2.69,5.3 C2.69,5.51333333 2.76,5.69 2.9,5.83 C3.04666667,5.97666667 3.22333333,6.05 3.43,6.05 L9.1,6.05 Z M13.75,17.88 C13.9566667,17.88 14.1333333,17.8133333 14.28,17.68 C14.4266667,17.54 14.5066667,17.3666667 14.52,17.16 L14.76,10.15 C14.7733333,9.94333333 14.7066667,9.76333333 14.56,9.61 C14.4066667,9.45666667 14.2266667,9.37333333 14.02,9.36 C13.8066667,9.36 13.63,9.42666667 13.49,9.56 C13.3433333,9.7 13.27,9.87333333 13.27,10.08 L13.01,17.09 C12.99,17.2966667 13.0566667,17.4766667 13.21,17.63 C13.3633333,17.7833333 13.5433333,17.8666667 13.75,17.88 Z M10.27,17.88 C10.4766667,17.8666667 10.6566667,17.7833333 10.81,17.63 C10.9633333,17.4766667 11.0333333,17.2966667 11.02,17.09 L10.73,10.08 C10.73,9.87333333 10.6566667,9.7 10.51,9.56 C10.37,9.42666667 10.1866667,9.36 9.96,9.36 C9.75333333,9.37333333 9.57666667,9.45666667 9.43,9.61 C9.29,9.76333333 9.22666667,9.94333333 9.24,10.15 L9.5,17.16 C9.52,17.3533333 9.6,17.52 9.74,17.66 C9.88666667,17.8066667 10.0633333,17.88 10.27,17.88 Z M17.21,19.8 C17.1766667,20.12 17.04,20.3866667 16.8,20.6 C16.56,20.82 16.28,20.93 15.96,20.93 L8.04,20.93 C7.70666667,20.93 7.42333333,20.82 7.19,20.6 C6.95666667,20.3866667 6.82333333,20.12 6.79,19.8 L5.81,7.22 L4.32,7.22 L5.3,19.92 C5.36666667,20.64 5.66,21.24 6.18,21.72 C6.7,22.2 7.32,22.44 8.04,22.44 L15.96,22.44 C16.68,22.44 17.2966667,22.2 17.81,21.72 C18.3233333,21.24 18.62,20.64 18.7,19.92 L19.66,7.22 L18.17,7.22 L17.21,19.8 Z"
                          id="形状" fill-opacity="0.90196079"></path>
                </g>
            </g>
        </g>
    </g>
</svg>