<?xml version="1.0" encoding="UTF-8"?>
<svg width="16px" height="16px" viewBox="0 0 16 16" version="1.1" xmlns="http://www.w3.org/2000/svg"
>
    <title>编组</title>
    <g id="页面-1" stroke="none" stroke-width="1" fill="none" fill-rule="evenodd">
        <g id="首页_收藏" transform="translate(-124, -891)">
            <g id="编组备份-10" transform="translate(16, 876)">
                <g id="编组" transform="translate(108, 15)">
                    <rect id="矩形-6" x="0" y="0" width="16" height="16"></rect>
                    <path d="M8.71560682,3.39622187 C9.18915755,3.53603658 9.51731277,3.7937673 9.70007249,4.16941403 C9.88445674,4.54842979 9.90395111,5.0310432 9.76018013,5.61725424 C9.70900741,5.81013115 9.53680714,6.41066057 9.12011499,7.73721574 C8.97634401,8.19371917 8.90648919,7.88629527 9.3264304,8.31079293 C9.5449298,8.53146432 10.5740701,9.17073758 10.8835432,10.1536518 C11.0955445,10.8257731 11.5934632,12.6804235 11.7266747,13.4401396 C11.8533881,14.161954 12.1295583,14.7700638 11.7023067,14.9528336 C11.2644957,15.1398147 10.9022253,14.7506919 10.7275882,14.1501624 C10.5789437,13.6389123 9.8219123,11.6789797 9.8219123,11.6789797 C9.70900741,11.1963663 9.4368985,10.7710264 9.0518847,10.4762363 C8.48654797,10.0433161 7.6710335,9.41751895 7.31932258,9.14378534 C7.10163545,8.97449164 6.88313606,8.85826014 6.77916609,8.57357719 C6.68006971,8.29057875 6.66057534,7.9823126 6.71987071,7.64793647 L7.12356662,5.41427024 L6.73774055,5.96594874 L5.86293071,7.7439538 C5.79145135,7.88713753 5.67854646,7.96294068 5.52340377,7.97136325 C5.36988561,7.98315486 5.24073541,7.93177716 5.13595317,7.81723018 C5.02710961,7.70015642 5.00355391,7.55023463 5.06447382,7.36662255 L5.9993913,5.17254241 C6.13260282,4.85838046 6.34135503,4.58464685 6.60452903,4.37745157 L7.70758545,3.50824209 C7.83917244,3.42485862 7.99837646,3.37516544 8.18438524,3.3583203 C8.37283082,3.33642161 8.54990467,3.34905547 8.71560682,3.39622187 Z M6.81076321,9.17065335 C6.87574444,9.22961136 6.94884833,9.28014679 7.02195222,9.33068223 L7.12754672,9.41490795 C7.30624511,9.55809169 7.69775704,9.83435206 8.03078585,10.0954518 L8.00155699,10.1694915 C7.94570105,10.3121751 7.81776925,10.6446035 7.68800985,11.0210925 C7.64171072,11.1566959 7.61490596,11.2821923 7.51743412,11.3916857 C7.41996227,11.4927566 4.62820607,13.805595 4.62820607,13.805595 C4.55510218,13.8477079 4.47387564,13.8561304 4.38452644,13.8477079 C4.28705459,13.8392853 4.21395071,13.805595 4.14896948,13.7550596 C4.03525232,13.6539887 3.98651639,13.5276501 4.0027617,13.3676212 C4.02712966,13.2160149 4.08398824,13.0980989 4.17333744,13.0307183 L6.12521121,10.7347251 C6.18206979,10.6589219 6.22268306,10.5831188 6.24705102,10.498893 L6.81076321,9.17065335 Z M9.97932934,6.16446878 C10.2327561,6.31944411 10.4155159,6.49463362 10.5795935,6.60075803 C10.899626,6.80795331 11.1051292,6.93344965 11.4267863,7.10611238 C11.7460066,7.27793286 12.0887826,7.5095536 11.9791268,7.8346649 C11.9149578,8.02501504 11.4414071,7.89278065 11.4414071,7.89278065 C11.4414071,7.89278065 10.131223,7.38574179 9.84693007,7.20044519 C9.7900715,7.1667549 9.74133557,7.12464204 9.7007223,7.09095175 C9.83068477,6.66982313 9.85180367,6.63613284 9.97932934,6.16446878 Z M9.78779715,1.1457105 C10.0404117,1.29984358 10.2061138,1.52893755 10.2849036,1.83299242 C10.3604443,2.12525569 10.3263291,2.40656961 10.1833704,2.67524967 C10.0355381,2.94477199 9.81622644,3.1199615 9.52299863,3.20166045 C9.24033027,3.27999037 8.97065815,3.24040428 8.71317002,3.08290218 C8.45568189,2.92624233 8.28916748,2.70135964 8.2136268,2.40825412 C8.13483705,2.10419925 8.16976446,1.8195163 8.31759677,1.55420527 C8.4670536,1.29142101 8.68230394,1.12128504 8.9649723,1.04295512 C9.25820011,0.961256167 9.53193355,0.995788714 9.78779715,1.1457105 Z"
                          id="形状结合" fill-opacity="0.6" fill="#000000"></path>
                </g>
            </g>
        </g>
    </g>
</svg>